<?xml version="1.0" encoding="UTF-8" standalone="no"?><!DOCTYPE svg PUBLIC "-//W3C//DTD SVG 1.1//EN" "http://www.w3.org/Graphics/SVG/1.1/DTD/svg11.dtd"><svg width="65" height="90" viewBox="0 0 65 90" version="1.1" xmlns="http://www.w3.org/2000/svg" xmlns:xlink="http://www.w3.org/1999/xlink" xml:space="preserve" xmlns:serif="http://www.serif.com/" style="fill-rule:evenodd;clip-rule:evenodd;stroke-linejoin:round;stroke-miterlimit:1.41421;"><g><path id="Oval" d="M32.5,90c17.949,0 32.5,-14.652 32.5,-32.727c0,-17.505 -10.833,-36.596 -32.5,-57.273c-21.667,20.677 -32.5,39.768 -32.5,57.273c0,18.075 14.551,32.727 32.5,32.727Z" style="fill:#f35;fill-rule:nonzero;"/><path id="Path-2" d="M12.899,71.627c-1.415,-1.759 -1.128,-4.326 0.64,-5.733c1.768,-1.407 4.348,-1.122 5.763,0.637c5.831,7.251 16.467,8.427 23.757,2.626c0.974,-0.776 1.86,-1.656 2.639,-2.626c1.415,-1.759 3.995,-2.044 5.763,-0.637c1.768,1.407 2.055,3.974 0.64,5.733c-1.158,1.44 -2.472,2.748 -3.92,3.9c-10.825,8.616 -26.622,6.869 -35.282,-3.9Z" style="fill:#fff;fill-rule:nonzero;"/></g></svg>