<svg width="432" height="195" xmlns="http://www.w3.org/2000/svg" xmlns:serif="http://www.serif.com/" fill-rule="evenodd" clip-rule="evenodd"><path fill="none" d="M0 0h432v194.017h-432z"/><g serif:id="Layer 1"><path d="M159.668 67.197h3.37c4.592 0 8.428-3.487 8.428-11.683 0-7.672-3.371-11.392-8.137-11.392h-2.558c-.872 0-1.104.233-1.104 1.162v21.913zm0 1.104v10.462c0 .931 0 1.221.64 1.628l6.452 3.371v.117h-20.285v-.117l4.475-3.138c.582-.407.638-.581.638-1.28v-31.793c0-.697-.056-.872-.638-1.278l-4.475-3.139v-.116h18.714c8.081 0 14.881 3.371 14.881 12.38 0 8.544-6.917 12.903-15.984 12.903h-4.417zM193.666 79.519c0 .639.059.93.814 1.337l5.986 2.906v.116h-18.134v-.116l3.429-2.499c.524-.407.582-.64.582-1.279v-20.227c0-.756-.058-.93-.582-1.337l-3.429-2.906v-.116h11.334v8.195c.872-4.069 3.662-8.66 8.428-8.66 1.395 0 2.5.465 3.371 1.22l-3.08 8.835h-.116l-3.663-5.987c-.232-.29-.464-.29-.755-.174-2.092.93-3.08 3.197-4.185 5.406v15.286zM213.602 66.674h10.404c.057-.465.057-.872.057-1.104 0-6.626-1.569-9.707-4.765-9.707-3.43 0-5.406 3.662-5.696 10.811m0 1.046v.93c0 7.731 3.719 11.45 8.37 11.45 3.719 0 7.032-1.743 9.009-6.335h.116c-1.337 7.149-5.58 10.578-11.974 10.578-6.742 0-13.02-4.417-13.02-14.472 0-10.927 6.801-14.938 13.311-14.938 5.87 0 11.741 3.08 11.741 11.334 0 .523-.058.988-.117 1.453h-17.436zM247.659 83.879h-4.417l-8.544-23.308c-.349-1.046-.523-1.453-1.047-2.266l-1.802-2.79v-.116h12.961v.116l-2.382 2.906c-.408.523-.464.697-.232 1.453l6.451 17.96 5.348-15.054c.348-.93.174-1.22-.29-1.976l-3.372-5.289v-.116h9.474v.116l-3.661 5.231c-.64.872-.756 1.162-1.106 2.15l-7.381 20.983zM266.898 66.674h10.402c.059-.465.059-.872.059-1.104 0-6.626-1.569-9.707-4.767-9.707-3.428 0-5.405 3.662-5.695 10.811m0 1.046v.93c0 7.731 3.72 11.45 8.369 11.45 3.72 0 7.033-1.743 9.01-6.335h.116c-1.337 7.149-5.58 10.578-11.974 10.578-6.742 0-13.02-4.417-13.02-14.472 0-10.927 6.802-14.938 13.311-14.938 5.871 0 11.742 3.08 11.742 11.334 0 .523-.059.988-.117 1.453h-17.437zM303.28 58.944c-2.383 0-4.068 1.453-5.288 3.545v17.496c0 .639.059.813.639 1.278l3.429 2.5v.116h-15.402v-.116l3.429-2.5c.523-.406.581-.639.581-1.278v-20.227c0-.756-.058-.93-.581-1.337l-3.429-2.906v-.116h11.334v6.626c1.394-4.65 4.417-7.091 8.892-7.091 5.464 0 8.486 3.836 8.486 11.857 0 3.196-.058 8.544-.116 13.194 0 .697.116.872.64 1.278l3.429 2.5v.116h-15.403v-.116l3.256-2.5c.58-.406.697-.697.697-1.22 0-.64.175-9.068.175-11.625 0-6.277-1.222-9.474-4.768-9.474" fill="#2d2d35"/><path d="M330.479 76.497c0 2.616 1.163 4.127 3.197 4.127 1.861 0 3.371-1.337 4.01-2.848l.118.058c-.582 3.313-2.849 6.51-7.846 6.51-4.418 0-6.803-2.384-6.803-7.208v-20.692h-3.661v-1.046h2.964c.815 0 1.048-.116 1.57-.755l6.337-8.835h.115v9.59h7.731v1.046h-7.731v20.053zM146.532 139.846v-.116l4.999-2.732c.639-.348.755-.523.755-1.162v-32.84c0-.639-.116-.813-.755-1.162l-4.999-2.732v-.116h29.759v12.554h-.116l-4.883-10.462c-.465-.93-.871-1.046-1.685-1.046h-10.346c-.756 0-.93.232-.93 1.336v17.089h7.149c.756-.058 1.046-.232 1.628-1.104l3.719-5.173h.116v13.601h-.116l-3.719-5.232c-.582-.813-.872-1.046-1.686-1.046h-7.091v17.96c0 1.105.174 1.337.93 1.337h10.346c1.162 0 1.569-.116 1.976-.756l5.173-10.578h.116v12.38h-30.34zM190.237 118.573v16.682c1.337 1.743 3.197 2.731 5.638 2.731 4.591 0 7.091-4.475 7.091-12.729 0-6.626-2.5-11.276-6.51-11.276-2.499 0-4.765 1.918-6.219 4.592m-5.521-2.674c0-.756-.059-.93-.64-1.337l-3.952-2.906v-.116h10.113v6.393c2.034-4.824 4.708-6.858 8.718-6.858 6.336 0 9.94 5.754 9.94 13.833 0 9.475-4.475 15.403-10.985 15.403-4.185 0-6.395-1.918-7.673-4.534v13.368c0 .699.116.872.814 1.221l5.231 2.616v.115h-16.158v-.115l3.952-2.325c.64-.35.64-.64.64-1.279v-33.479zM215.17 103.751c0-1.976 1.511-3.545 3.429-3.545 1.977 0 3.488 1.569 3.488 3.545 0 1.86-1.511 3.43-3.488 3.43-1.918 0-3.429-1.57-3.429-3.43m6.626 7.789v24.586c0 .64 0 .813.698 1.221l3.894 2.383v.116h-14.705v-.116l3.952-2.326c.639-.347.639-.638.639-1.278v-20.227c0-.755-.058-.929-.639-1.336l-3.952-2.907v-.116h10.113zM247.254 133.453v-16.508c-1.57-2.266-3.431-3.545-5.697-3.545-3.895 0-7.09 3.778-7.09 11.915 0 8.486 3.429 12.148 7.032 12.148 2.034 0 3.895-1.221 5.755-4.01m5.521 2.092c0 .756.058.872.64 1.278l3.951 2.906v.117h-10.112v-5.987c-1.628 4.592-4.941 6.452-8.37 6.452-6.103 0-10.347-5.928-10.347-14.356 0-9.184 5.057-14.88 11.218-14.88 4.127 0 6.336 2.499 7.499 5.348v-13.659c0-.756-.059-.989-.641-1.337l-3.952-2.326v-.116l10.114-1.162v37.722zM264.63 122.293h11.975v-.116c0-6.452-1.512-10.23-5.348-10.23-3.894 0-6.161 4.069-6.627 10.346m-.057.988v1.627c0 7.847 3.661 12.09 8.427 12.09 4.011 0 7.15-1.976 9.242-7.149l.117.058c-1.222 6.975-5.232 10.405-11.276 10.405-6.336 0-12.09-4.36-12.09-14.357 0-11.044 6.741-14.88 12.322-14.88 5.579 0 10.927 3.314 10.927 10.695 0 .523-.058 1.045-.117 1.511h-17.552zM311.534 136.126c0 .697.059.931.697 1.278l3.953 2.326v.116h-14.705v-.116l3.72-2.326c.64-.406.756-.755.756-1.162 0-.406.174-9.299.174-11.682 0-7.091-1.571-10.114-4.998-10.114-2.675 0-4.768 1.744-6.104 4.301v17.379c0 .64 0 .813.697 1.221l3.895 2.383v.116h-14.705v-.116l3.952-2.326c.639-.347.639-.638.639-1.278v-20.227c0-.755-.057-.929-.639-1.336l-3.952-2.907v-.116h10.113v6.858c1.395-5.056 4.417-7.323 8.602-7.323 4.011 0 6.684 2.267 7.614 7.207 1.337-4.649 4.649-7.207 9.068-7.207 4.94 0 7.905 3.604 7.905 11.625 0 3.429-.058 8.777-.117 13.426 0 .697.059.931.698 1.278l3.953 2.326v.116h-14.706v-.116l3.72-2.326c.638-.406.755-.755.755-1.162 0-.465.175-9.241.175-11.566 0-7.032-1.453-10.23-5.057-10.23-2.616 0-4.708 1.453-6.335 4.127.232 1.22.348 2.615.348 4.127 0 2.848-.057 8.777-.116 13.426" fill="#2d2d35"/><path d="M337.454 103.751c0-1.976 1.511-3.545 3.43-3.545 1.975 0 3.487 1.569 3.487 3.545 0 1.86-1.512 3.43-3.487 3.43-1.919 0-3.43-1.57-3.43-3.43m6.627 7.789v24.586c0 .64 0 .813.696 1.221l3.895 2.383v.116h-14.705v-.116l3.953-2.326c.638-.347.638-.638.638-1.278v-20.227c0-.755-.057-.929-.638-1.336l-3.953-2.907v-.116h10.114zM350.647 125.955c0-10.812 6.858-14.88 13.601-14.88 2.149 0 5.113.406 8.426 1.627l-2.731 8.428h-.115l-3.43-8.369c-.233-.524-.349-.64-.697-.698-.523-.116-1.105-.116-1.222-.116-5.404 0-8.195 4.533-8.195 12.264 0 9.125 3.837 12.787 8.428 12.787 3.313 0 6.22-1.86 8.196-6.568h.116c-1.106 5.754-4.36 9.881-10.579 9.881-5.93 0-11.798-4.243-11.798-14.356M385.577 128.454l-3.604-1.628c-3.081-1.394-5.463-3.777-5.463-7.614 0-5.173 4.824-8.137 9.648-8.137 3.022 0 5.929.406 8.776 1.453l-2.21 7.382h-.115l-3.719-7.092c-.349-.638-.408-.697-1.279-.813-.523-.058-1.046-.058-1.512-.058-2.731 0-5.172 1.802-5.172 5.114 0 2.849 2.034 4.011 4.475 5.057l3.895 1.686c3.427 1.453 6.625 3.371 6.625 7.73 0 5.87-5.347 8.777-10.986 8.777-2.79 0-6.335-.697-9.125-1.744l2.442-8.079h.117l3.254 8.021c.232.523.291.582 1.104.756.698.116 1.396.173 2.326.173 4.009 0 5.928-2.672 5.928-5.404 0-3.197-2.557-4.302-5.405-5.58" fill="#2d2d35"/><path d="M55.175 121.983c-.485-1.333-1.958-2.021-3.292-1.535-1.333.485-2.02 1.959-1.535 3.292.486 1.333 1.959 2.019 3.292 1.535 1.333-.485 2.02-1.959 1.535-3.292M52.06 135.86c-1.066.388-1.616 1.567-1.228 2.634.388 1.065 1.567 1.615 2.633 1.227 1.067-.387 1.616-1.567 1.228-2.633-.388-1.066-1.567-1.616-2.633-1.228" fill="#f06b30"/><path d="M70.788 106.878c-.583-1.599-2.351-2.424-3.95-1.842-1.6.582-2.424 2.351-1.842 3.95.582 1.6 2.351 2.424 3.95 1.842 1.599-.582 2.424-2.35 1.842-3.95M70.305 121.983c-.485-1.333-1.959-2.021-3.292-1.535-1.333.485-2.02 1.959-1.535 3.292.486 1.333 1.959 2.019 3.292 1.535 1.333-.485 2.02-1.959 1.535-3.292M67.19 135.86c-1.067.388-1.617 1.567-1.228 2.634.387 1.065 1.566 1.615 2.632 1.227 1.067-.387 1.616-1.567 1.228-2.633-.388-1.066-1.567-1.616-2.633-1.228" fill="#f7902a"/><path d="M36.929 135.86c-1.066.388-1.616 1.567-1.228 2.634.388 1.065 1.567 1.615 2.633 1.227 1.067-.387 1.616-1.567 1.228-2.633-.388-1.066-1.567-1.616-2.633-1.228" fill="#e7373e"/><path d="M86.4 91.773c-.679-1.866-2.742-2.828-4.608-2.149-1.866.679-2.829 2.742-2.149 4.608.679 1.866 2.742 2.829 4.608 2.149 1.866-.679 2.828-2.742 2.149-4.608M85.918 106.878c-.583-1.599-2.351-2.424-3.95-1.842-1.6.582-2.425 2.351-1.842 3.95.582 1.6 2.351 2.424 3.95 1.842 1.599-.582 2.424-2.35 1.842-3.95M85.435 121.983c-.485-1.333-1.959-2.021-3.292-1.535-1.333.485-2.02 1.959-1.535 3.292.486 1.333 1.959 2.019 3.292 1.535 1.333-.485 2.02-1.959 1.535-3.292M82.319 135.86c-1.066.388-1.616 1.567-1.228 2.634.388 1.065 1.567 1.615 2.634 1.227 1.066-.387 1.615-1.567 1.228-2.633-.388-1.066-1.568-1.616-2.634-1.228" fill="#fdbb23"/><path d="M102.013 76.668c-.776-2.132-3.134-3.232-5.267-2.456-2.132.776-3.232 3.134-2.455 5.267.776 2.132 3.134 3.232 5.266 2.456 2.133-.776 3.232-3.135 2.456-5.267M101.53 91.773c-.679-1.866-2.742-2.828-4.608-2.149-1.866.679-2.829 2.742-2.149 4.608.679 1.866 2.742 2.829 4.608 2.149 1.866-.679 2.828-2.742 2.149-4.608M101.047 106.878c-.582-1.599-2.351-2.424-3.95-1.842-1.599.582-2.424 2.351-1.842 3.95.583 1.6 2.351 2.424 3.95 1.842 1.6-.582 2.425-2.35 1.842-3.95M100.565 121.983c-.485-1.333-1.959-2.021-3.292-1.535-1.333.485-2.02 1.959-1.535 3.292.486 1.333 1.959 2.019 3.292 1.535 1.333-.485 2.02-1.959 1.535-3.292M97.449 135.86c-1.066.388-1.616 1.567-1.228 2.634.388 1.065 1.567 1.615 2.634 1.227 1.066-.387 1.615-1.567 1.227-2.633-.387-1.066-1.567-1.616-2.633-1.228" fill="#cebb2f"/><path d="M117.625 61.563c-.874-2.399-3.526-3.636-5.925-2.763-2.399.873-3.636 3.526-2.763 5.925.873 2.4 3.526 3.636 5.925 2.763 2.399-.873 3.636-3.526 2.763-5.925M117.143 76.668c-.776-2.132-3.134-3.232-5.267-2.456-2.132.776-3.232 3.134-2.456 5.267.777 2.132 3.135 3.232 5.267 2.456 2.133-.776 3.232-3.135 2.456-5.267M116.66 91.773c-.679-1.866-2.743-2.828-4.608-2.149-1.867.679-2.829 2.742-2.149 4.608.679 1.866 2.742 2.829 4.608 2.149 1.866-.679 2.828-2.742 2.149-4.608M116.177 106.878c-.582-1.599-2.351-2.424-3.95-1.842-1.599.582-2.424 2.351-1.842 3.95.583 1.6 2.351 2.424 3.95 1.842 1.6-.582 2.425-2.35 1.842-3.95M115.695 121.983c-.485-1.333-1.959-2.021-3.292-1.535-1.333.485-2.02 1.959-1.535 3.292.485 1.333 1.959 2.019 3.292 1.535 1.333-.485 2.02-1.959 1.535-3.292M112.579 135.86c-1.066.388-1.616 1.567-1.228 2.634.388 1.065 1.567 1.615 2.633 1.227 1.067-.387 1.616-1.567 1.228-2.633-.387-1.066-1.567-1.616-2.633-1.228" fill="#85bc41"/><path d="M133.238 46.458c-.97-2.666-3.917-4.04-6.583-3.07-2.666.97-4.041 3.918-3.07 6.584.97 2.665 3.918 4.04 6.583 3.069 2.666-.97 4.04-3.917 3.07-6.583M132.755 61.563c-.874-2.399-3.526-3.636-5.925-2.763-2.399.873-3.636 3.526-2.763 5.925.873 2.4 3.526 3.636 5.925 2.763 2.399-.873 3.636-3.526 2.763-5.925M132.272 76.668c-.776-2.132-3.133-3.232-5.267-2.456-2.132.776-3.232 3.134-2.456 5.267.777 2.132 3.135 3.232 5.267 2.456 2.133-.776 3.232-3.135 2.456-5.267M131.79 91.773c-.679-1.866-2.743-2.828-4.608-2.149-1.867.679-2.829 2.742-2.149 4.608.679 1.866 2.742 2.829 4.608 2.149 1.866-.679 2.828-2.742 2.149-4.608M131.307 106.878c-.582-1.599-2.351-2.424-3.95-1.842-1.599.582-2.424 2.351-1.842 3.95.583 1.6 2.351 2.424 3.95 1.842 1.6-.582 2.424-2.35 1.842-3.95M130.825 121.983c-.485-1.333-1.959-2.021-3.292-1.535-1.333.485-2.02 1.959-1.535 3.292.485 1.333 1.959 2.019 3.292 1.535 1.333-.485 2.02-1.959 1.535-3.292M127.709 135.86c-1.067.388-1.617 1.567-1.228 2.634.387 1.065 1.567 1.615 2.632 1.227 1.067-.387 1.617-1.567 1.228-2.633-.388-1.066-1.567-1.616-2.633-1.228" fill="#41bd51"/></g></svg>