<?xml version="1.0" encoding="UTF-8" standalone="no"?>
<!DOCTYPE svg PUBLIC "-//W3C//DTD SVG 1.1//EN" "http://www.w3.org/Graphics/SVG/1.1/DTD/svg11.dtd">
<svg width="100%" height="100%" viewBox="0 0 64 65" version="1.1" xmlns="http://www.w3.org/2000/svg" xmlns:xlink="http://www.w3.org/1999/xlink" xml:space="preserve" xmlns:serif="http://www.serif.com/" style="fill-rule:evenodd;clip-rule:evenodd;stroke-linecap:round;stroke-miterlimit:1;">
    <rect id="Emergency-Response--PE" serif:id="Emergency Response- PE" x="0" y="0.853" width="64" height="64" style="fill:none;"/>
    <path d="M57.421,54.823L8.913,54.823L3.919,56.801L61.869,56.801L57.421,54.823Z" style="fill:#e1e4e6;"/>
    <g>
        <path d="M39.955,15.264C39.955,14.644 39.709,14.05 39.271,13.612C38.833,13.174 38.239,12.928 37.619,12.928C37.619,12.928 37.618,12.928 37.618,12.928C36.999,12.928 36.404,13.174 35.966,13.612C35.528,14.05 35.282,14.644 35.282,15.264C35.282,16.807 35.282,18.547 35.282,18.547L39.955,18.547C39.955,18.547 39.955,16.807 39.955,15.264Z" style="fill:#3bbc53;"/>
        <rect x="33.523" y="18.01" width="8.192" height="1.601" style="fill:#3bbc53;"/>
        <path d="M37.605,10.925L37.605,8.666" style="fill:none;stroke:#dfdff2;stroke-width:1px;"/>
        <path d="M44.679,17.876L46.939,17.876" style="fill:none;stroke:#dfdff2;stroke-width:1px;"/>
        <path d="M46.187,13.748L44.063,14.521" style="fill:none;stroke:#dfdff2;stroke-width:1px;"/>
        <path d="M28.621,13.748L30.744,14.521" style="fill:none;stroke:#dfdff2;stroke-width:1px;"/>
        <path d="M42.757,10.334L41.304,12.065" style="fill:none;stroke:#dfdff2;stroke-width:1px;"/>
        <path d="M32.051,10.334L33.503,12.065" style="fill:none;stroke:#dfdff2;stroke-width:1px;"/>
        <path d="M27.986,17.876L30.246,17.876" style="fill:none;stroke:#dfdff2;stroke-width:1px;"/>
        <ellipse cx="36.801" cy="15.323" rx="0.818" ry="1.074" style="fill:#fff;"/>
    </g>
    <path d="M58.49,50.819C59.348,50.819 60.164,50.452 60.733,49.811C61.303,49.17 61.571,48.316 61.469,47.464C61.158,44.857 60.734,41.293 60.449,38.906C60.251,37.246 59.441,35.721 58.176,34.628C58.176,34.628 58.176,34.628 58.176,34.628C57.54,34.079 57.036,33.393 56.703,32.621C55.933,30.84 54.425,27.353 53.165,24.436C51.899,21.507 49.013,19.61 45.821,19.61C35.91,19.61 14.754,19.61 6.919,19.61C6.123,19.61 5.36,19.926 4.797,20.489C4.235,21.052 3.919,21.815 3.919,22.61C3.919,28.574 3.919,41.856 3.919,47.819C3.919,48.615 4.235,49.378 4.797,49.941C5.36,50.503 6.123,50.819 6.919,50.819C16.772,50.819 48.107,50.819 58.49,50.819Z" style="fill:#c7ccd1;"/>
    <clipPath id="_clip1">
        <path d="M58.49,50.819C59.348,50.819 60.164,50.452 60.733,49.811C61.303,49.17 61.571,48.316 61.469,47.464C61.158,44.857 60.734,41.293 60.449,38.906C60.251,37.246 59.441,35.721 58.176,34.628C58.176,34.628 58.176,34.628 58.176,34.628C57.54,34.079 57.036,33.393 56.703,32.621C55.933,30.84 54.425,27.353 53.165,24.436C51.899,21.507 49.013,19.61 45.821,19.61C35.91,19.61 14.754,19.61 6.919,19.61C6.123,19.61 5.36,19.926 4.797,20.489C4.235,21.052 3.919,21.815 3.919,22.61C3.919,28.574 3.919,41.856 3.919,47.819C3.919,48.615 4.235,49.378 4.797,49.941C5.36,50.503 6.123,50.819 6.919,50.819C16.772,50.819 48.107,50.819 58.49,50.819Z"/>
    </clipPath>
    <g clip-path="url(#_clip1)">
        <path d="M61.869,21.253L0.638,50.819L0.638,57.39L61.869,57.39L61.869,21.253Z" style="fill:#2b307e;fill-opacity:0.152941;"/>
    </g>
    <circle cx="16.888" cy="50.819" r="5.982" style="fill:none;stroke:#646b7a;stroke-width:2.16px;"/>
    <circle cx="16.888" cy="50.819" r="5.982" style="fill:#656c7b;"/>
    <circle cx="49.818" cy="50.819" r="5.982" style="fill:none;stroke:#646b7a;stroke-width:2.16px;"/>
    <circle cx="49.818" cy="50.819" r="5.982" style="fill:#656c7b;"/>
    <circle cx="16.888" cy="50.819" r="2.879" style="fill:#dedee5;"/>
    <circle cx="49.818" cy="50.819" r="2.879" style="fill:#dedee5;"/>
    <path d="M49.114,26.277C48.543,24.685 47.032,23.623 45.34,23.626C44.263,23.628 43.103,23.63 42.304,23.632C41.753,23.633 41.306,24.08 41.306,24.632C41.306,26.501 41.306,30.509 41.306,32.386C41.306,32.653 41.413,32.908 41.602,33.096C41.791,33.284 42.048,33.388 42.315,33.386C44.166,33.37 48.11,33.336 50.224,33.318C50.547,33.315 50.85,33.156 51.035,32.89C51.221,32.625 51.266,32.286 51.157,31.981C50.633,30.519 49.777,28.128 49.114,26.277Z" style="fill:#ededf8;"/>
    <clipPath id="_clip2">
        <path d="M49.114,26.277C48.543,24.685 47.032,23.623 45.34,23.626C44.263,23.628 43.103,23.63 42.304,23.632C41.753,23.633 41.306,24.08 41.306,24.632C41.306,26.501 41.306,30.509 41.306,32.386C41.306,32.653 41.413,32.908 41.602,33.096C41.791,33.284 42.048,33.388 42.315,33.386C44.166,33.37 48.11,33.336 50.224,33.318C50.547,33.315 50.85,33.156 51.035,32.89C51.221,32.625 51.266,32.286 51.157,31.981C50.633,30.519 49.777,28.128 49.114,26.277Z"/>
    </clipPath>
    <g clip-path="url(#_clip2)">
        <path d="M37.474,33.394L51.631,26.31L49.166,22.111L37.381,22.003L37.474,33.394Z" style="fill:#fff;"/>
    </g>
    <circle cx="24.818" cy="33.24" r="9.624" style="fill:#fff;"/>
    <clipPath id="_clip3">
        <circle cx="24.818" cy="33.24" r="9.624"/>
    </clipPath>
    <g clip-path="url(#_clip3)">
        <rect x="22.758" y="26.448" width="4.121" height="13.583" style="fill:#3bbc53;"/>
        <path d="M31.61,35.3L31.61,31.18L18.027,31.18L18.027,35.3L31.61,35.3Z" style="fill:#3bbc53;"/>
        <path d="M52.135,25.324L4.21,50.07L4.21,55.569L52.135,55.569L52.135,25.324Z" style="fill:#2b307e;fill-opacity:0.101961;"/>
    </g>
</svg>
