<?xml version="1.0" encoding="UTF-8" standalone="no"?>
<!DOCTYPE svg PUBLIC "-//W3C//DTD SVG 1.1//EN" "http://www.w3.org/Graphics/SVG/1.1/DTD/svg11.dtd">
<svg width="100%" height="100%" viewBox="0 0 64 65" version="1.1" xmlns="http://www.w3.org/2000/svg" xmlns:xlink="http://www.w3.org/1999/xlink" xml:space="preserve" xmlns:serif="http://www.serif.com/" style="fill-rule:evenodd;clip-rule:evenodd;stroke-linejoin:round;stroke-miterlimit:1.41421;">
    <rect id="Lab-muted" x="0" y="0.732" width="64" height="64" style="fill:none;"/>
    <path d="M51.5,60.432L48.433,57.732L18.5,57.732L11.5,60.552L11.5,62.232L51.5,62.232L51.5,60.432Z" style="fill:#c7ccd1;"/>
    <path d="M31,22.732C31,22.732 36.205,26.202 40.768,29.244C44.974,32.048 47.5,36.768 47.5,41.822C47.5,42.671 47.5,43.232 47.5,43.232L40,43.232C40,43.232 40,42.444 40,41.378C40,37.774 38.515,34.33 35.895,31.855C33.522,29.614 31,27.232 31,27.232L31,22.732Z" style="fill:#abb3ba;"/>
    <clipPath id="_clip1">
        <path d="M31,22.732C31,22.732 36.205,26.202 40.768,29.244C44.974,32.048 47.5,36.768 47.5,41.822C47.5,42.671 47.5,43.232 47.5,43.232L40,43.232C40,43.232 40,42.444 40,41.378C40,37.774 38.515,34.33 35.895,31.855C33.522,29.614 31,27.232 31,27.232L31,22.732Z"/>
    </clipPath>
    <g clip-path="url(#_clip1)">
        <rect x="30" y="19.732" width="6.5" height="18" style="fill:#2b307e;fill-opacity:0.247059;"/>
    </g>
    <path d="M47.5,41.732C47.5,41.732 42.009,41.732 38.164,41.732C36.141,41.732 34.5,43.373 34.5,45.396C34.5,51.169 34.5,61.732 34.5,61.732L47.5,61.732L47.5,41.732Z" style="fill:#c7ccd1;"/>
    <rect x="10.5" y="43.732" width="24" height="2" style="fill:#407bbf;"/>
    <path d="M41.632,1.136L23.404,19.364L27.272,23.232L45.5,5.004L41.632,1.136Z" style="fill:#c7ccd1;"/>
    <clipPath id="_clip2">
        <path d="M41.632,1.136L23.404,19.364L27.272,23.232L45.5,5.004L41.632,1.136Z"/>
    </clipPath>
    <g clip-path="url(#_clip2)">
        <path d="M42.732,-2L36.296,4.436L43.458,11.598L49.895,5.162L42.732,-2Z" style="fill:#407bbf;"/>
        <path d="M47,0.021L26.901,20.119L34.063,27.281L54.162,7.183L47,0.021Z" style="fill:#2b307e;fill-opacity:0.25098;"/>
    </g>
    <g>
        <path d="M31,21.732C31,18.142 28.09,15.232 24.5,15.232C24.5,15.232 24.5,15.232 24.5,15.232C20.91,15.232 18,18.142 18,21.732C18,24.556 18,27.232 18,27.232L31,27.232C31,27.232 31,24.556 31,21.732Z" style="fill:#c7ccd1;"/>
        <clipPath id="_clip3">
            <path d="M31,21.732C31,18.142 28.09,15.232 24.5,15.232C24.5,15.232 24.5,15.232 24.5,15.232C20.91,15.232 18,18.142 18,21.732C18,24.556 18,27.232 18,27.232L31,27.232C31,27.232 31,24.556 31,21.732Z"/>
        </clipPath>
        <g clip-path="url(#_clip3)">
            <rect x="15" y="21.732" width="17" height="1" style="fill:#2b307e;fill-opacity:0.247059;"/>
        </g>
        <path d="M24.5,31.232L31,27.232L18,27.232L24.5,31.232Z" style="fill:#c0c0c0;"/>
        <path d="M24.5,31.232L31,27.232L18,27.232L24.5,31.232Z" style="fill:#a0a5bc;"/>
    </g>
    <g>
        <path d="M26.46,29.245L22.46,29.245C22.46,29.245 22.46,30.573 22.46,31.786C22.46,32.306 22.667,32.804 23.034,33.171C23.401,33.539 23.899,33.745 24.419,33.745C24.425,33.745 24.431,33.745 24.437,33.745C25.555,33.745 26.46,32.839 26.46,31.722C26.46,30.527 26.46,29.245 26.46,29.245Z" style="fill:#407bbf;"/>
    </g>
    <circle cx="41" cy="48.232" r="4" style="fill:#407bbf;"/>
    <path d="M30,55.707C30,52.96 27.772,50.732 25.025,50.732C24.698,50.732 24.37,50.732 24.043,50.732C22.705,50.732 21.423,51.263 20.477,52.209C19.531,53.155 19,54.437 19,55.775C19,56.882 19,57.732 19,57.732L30,57.732C30,57.732 30,56.848 30,55.707Z" style="fill:#407bbf;"/>
</svg>
