<svg id="Layer_1" data-name="Layer 1" xmlns="http://www.w3.org/2000/svg" xmlns:xlink="http://www.w3.org/1999/xlink" width="517.14" height="227.13" viewBox="0 0 517.14 227.13">
  <defs>
    <style>
      .cls-1 {
        fill: #518d40;
      }

      .cls-2 {
        fill: #508c40;
      }

      .cls-3 {
        fill: url(#linear-gradient);
      }

      .cls-4 {
        fill: url(#linear-gradient-2);
      }

      .cls-5 {
        fill: url(#linear-gradient-3);
      }
    </style>
    <linearGradient id="linear-gradient" x1="100.8" y1="123.53" x2="170.56" y2="123.53" gradientUnits="userSpaceOnUse">
      <stop offset="0" stop-color="#7c9153"/>
      <stop offset="0.27" stop-color="#5c783b"/>
      <stop offset="0.56" stop-color="#3f6327"/>
      <stop offset="0.81" stop-color="#2e561a"/>
      <stop offset="1" stop-color="#285116"/>
    </linearGradient>
    <linearGradient id="linear-gradient-2" x1="42.73" y1="115.57" x2="120.89" y2="115.57" xlink:href="#linear-gradient"/>
    <linearGradient id="linear-gradient-3" x1="64.96" y1="87.02" x2="167.16" y2="87.02" xlink:href="#linear-gradient"/>
  </defs>
  <title>Artboard 3</title>
  <g>
    <g>
      <path class="cls-1" d="M233.18,101.79a27.15,27.15,0,0,0,2-10.91c0-14.29-6.26-21.53-18.61-21.53h-17V142h11.27V111.4h5.27L225.66,142H237.6l-11.16-33A15.56,15.56,0,0,0,233.18,101.79ZM210.84,80h4.83a11.56,11.56,0,0,1,4.34.67,5.27,5.27,0,0,1,2.43,2A8.14,8.14,0,0,1,223.63,86a38.31,38.31,0,0,1,0,9.41,8.85,8.85,0,0,1-1.09,3.29,5.16,5.16,0,0,1-2.25,2,9.91,9.91,0,0,1-4.12.71h-5.33Z"/>
      <polygon class="cls-1" points="244.95 141.99 276.53 141.99 276.53 130.72 256.21 130.72 256.21 110.7 273.92 110.7 273.92 100.04 256.21 100.04 256.21 80.01 276.53 80.01 276.53 69.35 244.95 69.35 244.95 141.99"/>
      <path class="cls-1" d="M314.23,74.54a14.83,14.83,0,0,0-6-4.05,23.29,23.29,0,0,0-7.61-1.14H284.69V142H296V114h4.73a19.46,19.46,0,0,0,9.5-2,15.49,15.49,0,0,0,5.82-5.66,17.63,17.63,0,0,0,2.43-6.47,51.79,51.79,0,0,0,.56-8.18,41.9,41.9,0,0,0-1-10.34A16,16,0,0,0,314.23,74.54Zm-7,25.72a5.32,5.32,0,0,1-2.3,2.25,10.13,10.13,0,0,1-4.6.85H296V80h4.83a8.77,8.77,0,0,1,4.38.89,5.26,5.26,0,0,1,2.16,2.39,10.61,10.61,0,0,1,.86,3.75c.1,1.49.15,3.09.15,4.74s-.05,3.44-.15,4.9A9.14,9.14,0,0,1,307.28,100.26Z"/>
      <polygon class="cls-1" points="339.41 69.35 328.15 69.35 328.15 141.99 359.74 141.99 359.74 130.72 339.41 130.72 339.41 69.35"/>
      <path class="cls-1" d="M388.71,69.35h-9.35L363.14,142h11.3l3-15.4h13.16l3,15.4h11.29L388.8,69.74Zm-.2,46.58h-9.05L384,92.59Z"/>
      <path class="cls-1" d="M440.08,73.68a16.28,16.28,0,0,0-5.4-3.64A17.39,17.39,0,0,0,428,68.75,18.34,18.34,0,0,0,421,70a16.46,16.46,0,0,0-5.44,3.58A16.08,16.08,0,0,0,412,79a18.18,18.18,0,0,0-1.24,6.73v39.44a19.17,19.17,0,0,0,1.61,8.36,15.5,15.5,0,0,0,4.11,5.36,15.06,15.06,0,0,0,5.62,2.86,23.86,23.86,0,0,0,6.06.82,15.76,15.76,0,0,0,6.6-1.4,17.83,17.83,0,0,0,5.33-3.73,17.32,17.32,0,0,0,3.58-5.44,16.9,16.9,0,0,0,1.29-6.53v-4.93H433.69v4a8.6,8.6,0,0,1-.56,3.33,5.4,5.4,0,0,1-1.43,2,5.54,5.54,0,0,1-1.93,1.06,7,7,0,0,1-2,.33c-2.19,0-3.64-.62-4.46-1.89a9,9,0,0,1-1.28-5V87.86a12.32,12.32,0,0,1,1.2-5.75c.75-1.41,2.27-2.1,4.64-2.1a5,5,0,0,1,4.23,2A7.84,7.84,0,0,1,433.69,87v3.92H445V86.35a19,19,0,0,0-1.29-7.07A16.86,16.86,0,0,0,440.08,73.68Z"/>
      <polygon class="cls-1" points="486.4 80.01 486.4 69.35 454.82 69.35 454.82 141.99 486.4 141.99 486.4 130.72 466.08 130.72 466.08 110.7 483.79 110.7 483.79 100.04 466.08 100.04 466.08 80.01 486.4 80.01"/>
    </g>
    <g>
      <path class="cls-1" d="M203.92,155.57h-4v-3.21H211.3v3.21h-4v20.66h-3.42Z"/>
      <path class="cls-1" d="M214.48,152.36H220q6,0,6,7a8.84,8.84,0,0,1-.66,3.58,5,5,0,0,1-2.29,2.39l3.69,10.9h-3.63L220,166h-2v10.19h-3.42ZM217.9,163h1.95a3.42,3.42,0,0,0,1.44-.25,1.87,1.87,0,0,0,.82-.72,3.17,3.17,0,0,0,.39-1.16,12.77,12.77,0,0,0,0-3.19,3,3,0,0,0-.42-1.17,2,2,0,0,0-.89-.72,3.94,3.94,0,0,0-1.51-.24H217.9Z"/>
      <path class="cls-1" d="M234.23,152.36h2.85l5.34,23.87H239l-1-5.13h-4.66l-1,5.13H228.9Zm1.45,6.87h-.07l-1.68,8.65h3.42Z"/>
      <path class="cls-1" d="M245.64,152.36h3.28l5.17,14.38h.06V152.36h3.43v23.87h-3.22l-5.24-14.35h-.06v14.35h-3.42Z"/>
      <path class="cls-1" d="M273.4,159.23H270v-.77a3.65,3.65,0,0,0-.55-2,2.05,2.05,0,0,0-1.86-.86,2.24,2.24,0,0,0-1.16.27,2,2,0,0,0-.7.69,2.67,2.67,0,0,0-.35,1,6.26,6.26,0,0,0-.1,1.16,10.14,10.14,0,0,0,.05,1.19,2,2,0,0,0,.25.84,2,2,0,0,0,.58.62,5.42,5.42,0,0,0,1.06.54l2.62,1a6.48,6.48,0,0,1,1.84,1,4.21,4.21,0,0,1,1.09,1.37,5.8,5.8,0,0,1,.52,1.81,18.19,18.19,0,0,1,.13,2.34,12.39,12.39,0,0,1-.3,2.8,5.88,5.88,0,0,1-1,2.21,4.81,4.81,0,0,1-1.82,1.46,6.49,6.49,0,0,1-2.79.53,6,6,0,0,1-2.31-.43,5.46,5.46,0,0,1-3.07-3,5.57,5.57,0,0,1-.45-2.24v-1.28h3.42v1.08a2.78,2.78,0,0,0,.55,1.69,2.16,2.16,0,0,0,1.86.75,3,3,0,0,0,1.36-.25,1.79,1.79,0,0,0,.74-.7,3,3,0,0,0,.32-1.13q.06-.66.06-1.47c0-.63,0-1.14-.06-1.54a2.47,2.47,0,0,0-.29-1,1.81,1.81,0,0,0-.6-.6,7.69,7.69,0,0,0-1-.5l-2.44-1a5.37,5.37,0,0,1-3-2.4,8.27,8.27,0,0,1-.76-3.74,8.93,8.93,0,0,1,.37-2.55,6,6,0,0,1,1.09-2.07,5.14,5.14,0,0,1,1.83-1.4,6.12,6.12,0,0,1,2.58-.52,5.7,5.7,0,0,1,2.33.47,5.87,5.87,0,0,1,1.81,1.24,5.48,5.48,0,0,1,1.16,1.73,5,5,0,0,1,.4,2Z"/>
      <path class="cls-1" d="M285.54,152.36h10.2v3.21H289v7.25h5.91V166H289v10.19h-3.42Z"/>
      <path class="cls-1" d="M301.74,152.36h2.85l5.34,23.87H306.5l-1-5.13h-4.66l-1,5.13h-3.42Zm1.44,6.87h-.06l-1.68,8.65h3.42Z"/>
      <path class="cls-1" d="M313.68,155.57h-4v-3.21h11.34v3.21h-4v20.66h-3.42Z"/>
    </g>
    <g>
      <g>
        <path class="cls-2" d="M161.49,70.42a71.34,71.34,0,0,0-5.84-6.91c-8.4-5.39-21.56-1.86-34.87,8.06a104.06,104.06,0,0,0-18.34,17.92A79.31,79.31,0,0,1,111,99.23a97.64,97.64,0,0,1,7.63,12.62,19.27,19.27,0,0,1,1.51,7.52c0,.43,0,.85,0,1.27a80.74,80.74,0,0,1,1.39,15c0,.92,0,1.84-.05,2.75a75.94,75.94,0,0,1-3.24,19.9c-4.92,15.92-14.87,26.81-26.34,26.84a72.48,72.48,0,0,0,83.93-71.59A72.11,72.11,0,0,0,161.49,70.42Z"/>
        <path class="cls-2" d="M120,120.64c-.05.56-.11,1.11-.19,1.66A18.09,18.09,0,0,1,111,135.45l-.29.15c-.28.16-.57.3-.86.44a15.74,15.74,0,0,1-6.34,1.45h-.37a16.28,16.28,0,0,1-1.86-.13,15.82,15.82,0,0,1-5.69-1.86A16.7,16.7,0,0,1,92.12,133,62.28,62.28,0,0,1,83,123.89a83.54,83.54,0,0,1-11.73-19.13c-.42-.93-.81-1.87-1.19-2.81C60,77.21,62.94,52.69,77,46A72.5,72.5,0,0,0,84.13,183.5a69.19,69.19,0,0,0,7.67,1.66c11.47,0,21.42-10.92,26.34-26.84a75.94,75.94,0,0,0,3.24-19.9c0-.91.05-1.83.05-2.75A80.74,80.74,0,0,0,120,120.64Z"/>
        <path class="cls-2" d="M103.23,41.07a72.59,72.59,0,0,0-22.85,3.69c-1.13.38-2.25.78-3.36,1.21-14.08,6.72-17,31.24-7,56,.38.94.77,1.88,1.19,2.81A83.54,83.54,0,0,0,83,123.89,62.28,62.28,0,0,0,92.12,133a18.29,18.29,0,0,1-5.05-8.48,2.29,2.29,0,0,1-.07-.28c0-.13-.07-.28-.1-.42a19.53,19.53,0,0,1-.52-4.43,16.26,16.26,0,0,1,1-6.28c2-4.63,7-12.68,9.67-16.5q2.59-3.7,5.35-7.1a104.06,104.06,0,0,1,18.34-17.92c13.31-9.92,26.47-13.45,34.87-8.06A72.26,72.26,0,0,0,103.23,41.07Z"/>
      </g>
      <g>
        <path class="cls-3" d="M161.49,70.42a71.34,71.34,0,0,0-5.84-6.91c-8.4-5.39-21.56-1.86-34.87,8.06a104.06,104.06,0,0,0-18.34,17.92A79.31,79.31,0,0,1,111,99.23a97.64,97.64,0,0,1,7.63,12.62,19.27,19.27,0,0,1,1.51,7.52c0,.43,0,.85,0,1.27a80.74,80.74,0,0,1,1.39,15c0,.92,0,1.84-.05,2.75a75.94,75.94,0,0,1-3.24,19.9c-4.92,15.92-14.87,26.81-26.34,26.84a72.48,72.48,0,0,0,83.93-71.59A72.11,72.11,0,0,0,161.49,70.42Z"/>
        <path class="cls-4" d="M120,120.6c0,.56-.1,1.11-.18,1.66a17.94,17.94,0,0,1-8.8,13l-.28.15c-.28.16-.57.31-.86.44a15.58,15.58,0,0,1-6.3,1.44h-.37c-.62,0-1.23,0-1.84-.12a15.74,15.74,0,0,1-5.65-1.85,16.27,16.27,0,0,1-3.44-2.52,61.46,61.46,0,0,1-9.1-9,82.55,82.55,0,0,1-11.65-19c-.42-.93-.81-1.86-1.19-2.8-10-24.57-7-48.93,6.94-55.6a72,72,0,0,0,7.06,136.61A73.63,73.63,0,0,0,92,184.69c11.4,0,21.27-10.85,26.16-26.66a75.36,75.36,0,0,0,3.22-19.76c0-.91.05-1.82.05-2.74A79.74,79.74,0,0,0,120,120.6Z"/>
        <path class="cls-5" d="M103.23,41.07a72.59,72.59,0,0,0-22.85,3.69c-1.13.38-2.25.78-3.36,1.21-14.08,6.72-17,31.24-7,56,.38.94.77,1.88,1.19,2.81A83.54,83.54,0,0,0,83,123.89,62.28,62.28,0,0,0,92.12,133a18.29,18.29,0,0,1-5.05-8.48,2.29,2.29,0,0,1-.07-.28c0-.13-.07-.28-.1-.42a19.53,19.53,0,0,1-.52-4.43,16.26,16.26,0,0,1,1-6.28c2-4.63,7-12.68,9.67-16.5q2.59-3.7,5.35-7.1a104.06,104.06,0,0,1,18.34-17.92c13.31-9.92,26.47-13.45,34.87-8.06A72.26,72.26,0,0,0,103.23,41.07Z"/>
      </g>
    </g>
  </g>
</svg>
