<?xml version="1.0" encoding="UTF-8" standalone="no"?>
<!DOCTYPE svg PUBLIC "-//W3C//DTD SVG 1.1//EN" "http://www.w3.org/Graphics/SVG/1.1/DTD/svg11.dtd">
<svg width="100%" height="100%" viewBox="0 0 65 64" version="1.1" xmlns="http://www.w3.org/2000/svg" xmlns:xlink="http://www.w3.org/1999/xlink" xml:space="preserve" xmlns:serif="http://www.serif.com/" style="fill-rule:evenodd;clip-rule:evenodd;stroke-linecap:round;stroke-miterlimit:1;">
    <rect id="Binoculars" x="0.738" y="0" width="64" height="64" style="fill:none;"/>
    <path d="M39.235,14.052C37.558,14.63 36.666,16.461 37.243,18.138C37.821,19.815 39.652,20.707 41.329,20.13C43.006,19.552 43.899,17.721 43.321,16.044C42.743,14.367 40.912,13.475 39.235,14.052Z" style="fill:#2b307e;"/>
    <clipPath id="_clip1">
        <path d="M39.235,14.052C37.558,14.63 36.666,16.461 37.243,18.138C37.821,19.815 39.652,20.707 41.329,20.13C43.006,19.552 43.899,17.721 43.321,16.044C42.743,14.367 40.912,13.475 39.235,14.052Z"/>
    </clipPath>
    <g clip-path="url(#_clip1)">
        <path d="M33.454,14.034L36.588,48L42.738,37.2L36.738,9.419L33.454,14.034Z" style="fill:#aaacdd;fill-opacity:0.75;"/>
    </g>
    <path d="M34.578,24.416C34.564,24.221 34.557,24.025 34.557,23.828C34.557,19.364 38.181,15.74 42.644,15.74C44.872,15.74 46.891,16.643 48.354,18.102L48.354,18.102L48.364,18.112C48.503,18.251 48.636,18.394 48.764,18.543L57.324,27.751L35.131,38.365L34.577,24.416L34.578,24.416Z" style="fill:#2b307e;"/>
    <clipPath id="_clip2">
        <path d="M34.578,24.416C34.564,24.221 34.557,24.025 34.557,23.828C34.557,19.364 38.181,15.74 42.644,15.74C44.872,15.74 46.891,16.643 48.354,18.102L48.354,18.102L48.364,18.112C48.503,18.251 48.636,18.394 48.764,18.543L57.324,27.751L35.131,38.365L34.577,24.416L34.578,24.416Z"/>
    </clipPath>
    <g clip-path="url(#_clip2)">
        <path d="M36.679,13.877L39.813,47.842L50.336,37.321L38.802,10.539L36.679,13.877Z" style="fill:#aaacdd;fill-opacity:0.75;"/>
    </g>
    <circle cx="48.35" cy="37.352" r="13.22" style="fill:#f3775b;"/>
    <path d="M48.521,24.133L48.691,24.137L48.861,24.142L49.03,24.15L49.199,24.159L49.367,24.171L49.534,24.185L49.701,24.201L49.867,24.219L50.033,24.239L50.198,24.261L50.362,24.285L50.526,24.311L50.689,24.339L50.851,24.369L51.013,24.401L51.174,24.435L51.334,24.471L51.494,24.509L51.652,24.549L51.81,24.591L51.968,24.634L52.124,24.68L52.28,24.727L52.434,24.776L52.588,24.827L52.741,24.88L52.894,24.935L53.045,24.992L53.196,25.05L53.345,25.11L53.494,25.172L53.642,25.236L53.788,25.301L53.934,25.368L54.079,25.437L54.223,25.507L54.366,25.58L54.508,25.653L54.649,25.729L54.789,25.806L54.928,25.885L55.066,25.965L55.203,26.047L55.339,26.131L55.473,26.216L55.607,26.303L55.739,26.391L55.871,26.481L56.001,26.573L56.13,26.666L56.258,26.76L56.384,26.856L56.51,26.953L56.634,27.052L56.757,27.153L56.879,27.254L56.999,27.358L57.119,27.462L57.237,27.568L57.354,27.676L57.469,27.785L57.583,27.895L57.696,28.006L57.808,28.119L57.918,28.233L58.027,28.349L58.134,28.465L58.24,28.583L58.345,28.703L58.448,28.823L58.55,28.945L58.65,29.068L58.749,29.192L58.846,29.318L58.942,29.445L59.037,29.572L59.13,29.701L59.221,29.832L59.311,29.963L59.399,30.095L59.486,30.229L59.571,30.364L59.655,30.499L59.737,30.636L59.817,30.774L59.896,30.913L59.973,31.053L60.049,31.194L60.123,31.336L60.195,31.479L60.265,31.623L60.334,31.768L60.401,31.914L60.467,32.061L60.53,32.208L60.592,32.357L60.652,32.507L60.711,32.657L60.767,32.809L60.822,32.961L60.875,33.114L60.926,33.268L60.975,33.423L61.022,33.578L61.068,33.735L61.112,33.892L61.153,34.05L61.193,34.209L61.231,34.368L61.267,34.528L61.301,34.689L61.333,34.851L61.363,35.013L61.391,35.176L61.417,35.34L61.441,35.504L61.464,35.669L61.484,35.835L61.502,36.001L61.517,36.168L61.531,36.335L61.543,36.504L61.553,36.672L61.56,36.841L61.566,37.011L61.569,37.181L61.57,37.352L61.569,37.523L61.566,37.693L61.56,37.863L61.553,38.032L61.543,38.2L61.531,38.368L61.517,38.536L61.502,38.703L61.484,38.869L61.464,39.035L61.441,39.2L61.417,39.364L61.391,39.528L61.363,39.691L61.333,39.853L61.301,40.015L61.267,40.176L61.231,40.336L61.193,40.495L61.153,40.654L61.112,40.812L61.068,40.969L61.022,41.126L60.975,41.281L60.926,41.436L60.875,41.59L60.822,41.743L60.767,41.895L60.711,42.047L60.652,42.197L60.592,42.347L60.53,42.496L60.467,42.643L60.401,42.79L60.334,42.936L60.265,43.081L60.195,43.225L60.123,43.368L60.049,43.51L59.973,43.651L59.896,43.791L59.817,43.93L59.737,44.068L59.655,44.205L59.571,44.34L59.486,44.475L59.399,44.609L59.311,44.741L59.221,44.872L59.13,45.002L59.037,45.132L58.942,45.259L58.846,45.386L58.749,45.511L58.65,45.636L58.55,45.759L58.448,45.881L58.345,46.001L58.24,46.121L58.134,46.239L58.027,46.355L57.918,46.471L57.808,46.585L57.696,46.698L57.583,46.809L57.469,46.919L57.354,47.028L57.237,47.136L57.119,47.242L56.999,47.346L56.879,47.449L56.757,47.551L56.634,47.652L56.51,47.75L56.384,47.848L56.258,47.944L56.13,48.038L56.001,48.131L55.871,48.223L55.739,48.313L55.607,48.401L55.473,48.488L55.339,48.573L55.203,48.657L55.066,48.739L54.928,48.819L54.789,48.898L54.649,48.975L54.508,49.051L54.366,49.124L54.223,49.197L54.079,49.267L53.934,49.336L53.788,49.403L53.642,49.468L53.494,49.532L53.345,49.594L53.196,49.654L53.045,49.712L52.894,49.769L52.741,49.824L52.588,49.876L52.434,49.928L52.28,49.977L52.124,50.024L51.968,50.07L51.81,50.113L51.652,50.155L51.494,50.195L51.334,50.233L51.174,50.269L51.013,50.303L50.851,50.335L50.689,50.365L50.526,50.393L50.362,50.419L50.198,50.443L50.033,50.465L49.867,50.485L49.701,50.503L49.534,50.519L49.367,50.533L49.199,50.545L49.03,50.554L48.861,50.562L48.691,50.567L48.521,50.57L48.35,50.572L48.18,50.57L48.009,50.567L47.84,50.562L47.67,50.554L47.502,50.545L47.334,50.533L47.166,50.519L46.999,50.503L46.833,50.485L46.668,50.465L46.503,50.443L46.338,50.419L46.174,50.393L46.011,50.365L45.849,50.335L45.687,50.303L45.527,50.269L45.366,50.233L45.207,50.195L45.048,50.155L44.89,50.113L44.733,50.07L44.577,50.024L44.421,49.977L44.266,49.928L44.112,49.876L43.959,49.824L43.807,49.769L43.655,49.712L43.505,49.654L43.355,49.594L43.207,49.532L43.059,49.468L42.912,49.403L42.766,49.336L42.621,49.267L42.477,49.197L42.334,49.124L42.192,49.051L42.051,48.975L41.911,48.898L41.772,48.819L41.634,48.739L41.498,48.657L41.362,48.573L41.227,48.488L41.094,48.401L40.961,48.313L40.83,48.223L40.7,48.131L40.571,48.038L40.443,47.944L40.316,47.848L40.191,47.75L40.066,47.652L39.943,47.551L39.822,47.449L39.701,47.346L39.582,47.242L39.464,47.136L39.347,47.028L39.231,46.919L39.117,46.809L39.004,46.698L38.893,46.585L38.783,46.471L38.674,46.355L38.567,46.239L38.461,46.121L38.356,46.001L38.253,45.881L38.151,45.759L38.051,45.636L37.952,45.511L37.854,45.386L37.758,45.259L37.664,45.132L37.571,45.002L37.48,44.872L37.39,44.741L37.301,44.609L37.215,44.475L37.129,44.34L37.046,44.205L36.964,44.068L36.883,43.93L36.804,43.791L36.727,43.651L36.652,43.51L36.578,43.368L36.506,43.225L36.435,43.081L36.366,42.936L36.299,42.79L36.234,42.643L36.17,42.496L36.108,42.347L36.048,42.197L35.99,42.047L35.933,41.895L35.879,41.743L35.826,41.59L35.775,41.436L35.725,41.281L35.678,41.126L35.633,40.969L35.589,40.812L35.547,40.654L35.507,40.495L35.469,40.336L35.433,40.176L35.399,40.015L35.367,39.853L35.337,39.691L35.309,39.528L35.283,39.364L35.259,39.2L35.237,39.035L35.217,38.869L35.199,38.703L35.183,38.536L35.169,38.368L35.158,38.2L35.148,38.032L35.14,37.863L35.135,37.693L35.132,37.523L35.131,37.352L35.132,37.181L35.135,37.011L35.14,36.841L35.148,36.672L35.158,36.504L35.169,36.335L35.183,36.168L35.199,36.001L35.217,35.835L35.237,35.669L35.259,35.504L35.283,35.34L35.309,35.176L35.337,35.013L35.367,34.851L35.399,34.689L35.433,34.528L35.469,34.368L35.507,34.209L35.547,34.05L35.589,33.892L35.633,33.735L35.678,33.578L35.725,33.423L35.775,33.268L35.826,33.114L35.879,32.961L35.933,32.809L35.99,32.657L36.048,32.507L36.108,32.357L36.17,32.208L36.234,32.061L36.299,31.914L36.366,31.768L36.435,31.623L36.506,31.479L36.578,31.336L36.652,31.194L36.727,31.053L36.804,30.913L36.883,30.774L36.964,30.636L37.046,30.499L37.129,30.364L37.215,30.229L37.301,30.095L37.39,29.963L37.48,29.832L37.571,29.701L37.664,29.572L37.758,29.445L37.854,29.318L37.952,29.192L38.051,29.068L38.151,28.945L38.253,28.823L38.356,28.703L38.461,28.583L38.567,28.465L38.674,28.349L38.783,28.233L38.893,28.119L39.004,28.006L39.117,27.895L39.231,27.785L39.347,27.676L39.464,27.568L39.582,27.462L39.701,27.358L39.822,27.254L39.943,27.153L40.066,27.052L40.191,26.953L40.316,26.856L40.443,26.76L40.571,26.666L40.7,26.573L40.83,26.481L40.961,26.391L41.094,26.303L41.227,26.216L41.362,26.131L41.498,26.047L41.634,25.965L41.772,25.885L41.911,25.806L42.051,25.729L42.192,25.653L42.334,25.58L42.477,25.507L42.621,25.437L42.766,25.368L42.912,25.301L43.059,25.236L43.207,25.172L43.355,25.11L43.505,25.05L43.655,24.992L43.807,24.935L43.959,24.88L44.112,24.827L44.266,24.776L44.421,24.727L44.577,24.68L44.733,24.634L44.89,24.591L45.048,24.549L45.207,24.509L45.366,24.471L45.527,24.435L45.687,24.401L45.849,24.369L46.011,24.339L46.174,24.311L46.338,24.285L46.503,24.261L46.668,24.239L46.833,24.219L46.999,24.201L47.166,24.185L47.334,24.171L47.502,24.159L47.67,24.15L47.84,24.142L48.009,24.137L48.18,24.133L48.35,24.132L48.521,24.133ZM48.205,26.133L48.06,26.136L47.916,26.141L47.772,26.147L47.628,26.155L47.486,26.165L47.343,26.177L47.202,26.19L47.061,26.206L46.92,26.223L46.78,26.241L46.641,26.262L46.502,26.284L46.364,26.308L46.226,26.333L46.089,26.361L45.952,26.389L45.817,26.42L45.681,26.452L45.547,26.486L45.413,26.521L45.28,26.558L45.147,26.597L45.016,26.637L44.884,26.678L44.754,26.722L44.624,26.767L44.495,26.813L44.367,26.861L44.239,26.91L44.112,26.961L43.986,27.014L43.861,27.068L43.737,27.123L43.613,27.18L43.49,27.238L43.368,27.298L43.246,27.359L43.126,27.422L43.006,27.486L42.888,27.552L42.77,27.618L42.653,27.687L42.536,27.756L42.421,27.827L42.307,27.9L42.194,27.973L42.081,28.048L41.97,28.125L41.859,28.202L41.749,28.281L41.641,28.362L41.534,28.443L41.427,28.526L41.321,28.61L41.217,28.695L41.113,28.782L41.01,28.869L40.909,28.958L40.809,29.048L40.71,29.139L40.612,29.232L40.515,29.326L40.419,29.42L40.324,29.516L40.23,29.613L40.138,29.711L40.047,29.811L39.957,29.911L39.868,30.012L39.78,30.115L39.693,30.218L39.608,30.323L39.524,30.428L39.441,30.535L39.36,30.642L39.28,30.751L39.201,30.861L39.123,30.972L39.047,31.083L38.972,31.195L38.898,31.309L38.826,31.423L38.755,31.538L38.685,31.655L38.617,31.771L38.55,31.889L38.484,32.008L38.42,32.128L38.358,32.248L38.297,32.369L38.236,32.492L38.178,32.615L38.121,32.738L38.066,32.863L38.012,32.988L37.96,33.114L37.909,33.241L37.859,33.368L37.811,33.497L37.765,33.626L37.72,33.755L37.677,33.886L37.635,34.017L37.595,34.149L37.556,34.282L37.519,34.415L37.484,34.549L37.45,34.683L37.418,34.818L37.388,34.955L37.359,35.091L37.332,35.227L37.306,35.365L37.282,35.504L37.26,35.642L37.24,35.782L37.221,35.922L37.204,36.062L37.189,36.203L37.175,36.345L37.163,36.488L37.154,36.63L37.145,36.773L37.139,36.917L37.134,37.062L37.132,37.207L37.131,37.352L37.132,37.497L37.134,37.642L37.139,37.787L37.145,37.931L37.154,38.074L37.163,38.216L37.175,38.359L37.189,38.5L37.204,38.641L37.221,38.782L37.24,38.922L37.26,39.062L37.282,39.2L37.306,39.339L37.332,39.476L37.359,39.613L37.388,39.749L37.418,39.886L37.45,40.021L37.484,40.155L37.519,40.289L37.556,40.422L37.595,40.555L37.635,40.686L37.677,40.818L37.72,40.949L37.765,41.078L37.811,41.207L37.859,41.336L37.909,41.463L37.96,41.59L38.012,41.716L38.066,41.841L38.121,41.966L38.178,42.089L38.236,42.212L38.297,42.335L38.358,42.456L38.42,42.576L38.484,42.696L38.55,42.815L38.617,42.933L38.685,43.049L38.755,43.166L38.826,43.281L38.898,43.395L38.972,43.509L39.047,43.621L39.123,43.732L39.201,43.843L39.28,43.953L39.36,44.061L39.441,44.169L39.524,44.275L39.608,44.381L39.693,44.485L39.78,44.589L39.868,44.692L39.957,44.793L40.047,44.893L40.138,44.992L40.23,45.091L40.324,45.188L40.419,45.284L40.515,45.378L40.612,45.472L40.71,45.564L40.809,45.656L40.909,45.746L41.01,45.835L41.113,45.922L41.217,46.009L41.321,46.094L41.427,46.178L41.534,46.261L41.641,46.342L41.749,46.422L41.859,46.501L41.97,46.579L42.081,46.656L42.194,46.731L42.307,46.804L42.421,46.877L42.537,46.948L42.653,47.017L42.77,47.085L42.888,47.152L43.006,47.218L43.126,47.282L43.246,47.345L43.368,47.406L43.49,47.466L43.613,47.524L43.737,47.581L43.861,47.636L43.986,47.69L44.112,47.743L44.239,47.794L44.367,47.843L44.495,47.891L44.624,47.937L44.754,47.982L44.884,48.025L45.016,48.067L45.147,48.107L45.28,48.146L45.413,48.183L45.547,48.218L45.681,48.252L45.817,48.284L45.952,48.315L46.089,48.343L46.226,48.371L46.364,48.396L46.502,48.42L46.641,48.442L46.78,48.463L46.92,48.481L47.061,48.498L47.202,48.513L47.343,48.527L47.486,48.539L47.628,48.549L47.772,48.557L47.916,48.563L48.06,48.568L48.205,48.571L48.35,48.572L48.496,48.571L48.641,48.568L48.785,48.563L48.929,48.557L49.072,48.549L49.215,48.539L49.357,48.527L49.499,48.513L49.64,48.498L49.781,48.481L49.92,48.463L50.06,48.442L50.199,48.42L50.337,48.396L50.475,48.371L50.612,48.343L50.748,48.315L50.884,48.284L51.019,48.252L51.154,48.218L51.287,48.183L51.421,48.146L51.553,48.107L51.685,48.067L51.816,48.025L51.947,47.982L52.076,47.937L52.205,47.891L52.334,47.843L52.461,47.794L52.588,47.743L52.714,47.69L52.839,47.636L52.964,47.581L53.088,47.524L53.211,47.466L53.333,47.406L53.454,47.345L53.575,47.282L53.694,47.218L53.813,47.152L53.931,47.085L54.048,47.017L54.164,46.948L54.279,46.877L54.394,46.804L54.507,46.731L54.619,46.656L54.731,46.579L54.841,46.501L54.951,46.422L55.06,46.342L55.167,46.261L55.274,46.178L55.38,46.094L55.484,46.009L55.587,45.922L55.69,45.835L55.791,45.746L55.892,45.656L55.991,45.564L56.089,45.472L56.186,45.378L56.282,45.284L56.377,45.188L56.47,45.091L56.563,44.992L56.654,44.893L56.744,44.793L56.833,44.692L56.921,44.589L57.007,44.485L57.092,44.381L57.176,44.276L57.259,44.169L57.341,44.061L57.421,43.953L57.5,43.843L57.577,43.733L57.654,43.621L57.729,43.509L57.802,43.395L57.875,43.281L57.946,43.166L58.015,43.05L58.084,42.933L58.151,42.815L58.216,42.696L58.28,42.576L58.343,42.456L58.404,42.334L58.464,42.212L58.522,42.09L58.579,41.966L58.634,41.841L58.688,41.716L58.741,41.59L58.792,41.463L58.841,41.336L58.889,41.207L58.936,41.078L58.98,40.948L59.024,40.818L59.066,40.686L59.106,40.555L59.144,40.423L59.181,40.289L59.217,40.155L59.25,40.021L59.282,39.886L59.313,39.75L59.342,39.614L59.369,39.476L59.394,39.338L59.418,39.2L59.44,39.062L59.461,38.922L59.479,38.782L59.496,38.641L59.512,38.5L59.525,38.359L59.537,38.217L59.547,38.074L59.555,37.93L59.562,37.787L59.566,37.642L59.569,37.498L59.57,37.352L59.569,37.206L59.566,37.062L59.562,36.917L59.555,36.774L59.547,36.63L59.537,36.487L59.525,36.345L59.512,36.203L59.496,36.062L59.479,35.922L59.461,35.782L59.44,35.642L59.418,35.504L59.394,35.366L59.369,35.227L59.342,35.09L59.313,34.954L59.282,34.818L59.25,34.683L59.217,34.549L59.181,34.415L59.144,34.281L59.106,34.149L59.066,34.017L59.024,33.886L58.98,33.756L58.936,33.626L58.889,33.496L58.841,33.368L58.792,33.241L58.741,33.114L58.688,32.988L58.634,32.863L58.579,32.738L58.522,32.614L58.464,32.491L58.404,32.37L58.343,32.248L58.28,32.128L58.216,32.008L58.151,31.889L58.084,31.771L58.015,31.654L57.946,31.538L57.875,31.423L57.802,31.309L57.729,31.195L57.654,31.083L57.577,30.971L57.5,30.861L57.421,30.751L57.341,30.643L57.259,30.535L57.176,30.428L57.092,30.323L57.007,30.218L56.921,30.115L56.833,30.012L56.744,29.911L56.654,29.811L56.563,29.711L56.47,29.613L56.377,29.516L56.282,29.42L56.186,29.326L56.089,29.232L55.991,29.14L55.892,29.048L55.791,28.958L55.69,28.869L55.587,28.781L55.484,28.695L55.38,28.61L55.274,28.526L55.167,28.443L55.06,28.362L54.951,28.281L54.841,28.202L54.731,28.125L54.619,28.048L54.507,27.973L54.394,27.9L54.279,27.827L54.164,27.756L54.048,27.687L53.931,27.618L53.813,27.552L53.694,27.486L53.575,27.422L53.454,27.359L53.333,27.298L53.211,27.238L53.088,27.18L52.964,27.123L52.839,27.068L52.714,27.014L52.588,26.961L52.461,26.91L52.334,26.861L52.205,26.813L52.076,26.767L51.947,26.722L51.816,26.678L51.685,26.637L51.553,26.597L51.421,26.558L51.287,26.521L51.154,26.486L51.019,26.452L50.884,26.42L50.748,26.389L50.612,26.361L50.475,26.333L50.337,26.308L50.199,26.284L50.06,26.262L49.921,26.241L49.781,26.223L49.64,26.206L49.499,26.19L49.357,26.177L49.215,26.165L49.072,26.155L48.929,26.147L48.785,26.141L48.641,26.136L48.496,26.133L48.35,26.132L48.205,26.133Z" style="fill:#2b307e;"/>
    <path d="M40.899,37.321C40.899,33.133 44.299,29.733 48.487,29.733" style="fill:none;stroke:#fff;stroke-opacity:0.7;stroke-width:2.12px;"/>
    <path d="M25.47,14.021C27.147,14.599 28.04,16.43 27.462,18.107C26.884,19.784 25.053,20.676 23.376,20.099C21.699,19.521 20.807,17.69 21.385,16.013C21.962,14.336 23.793,13.443 25.47,14.021Z" style="fill:#2b307e;"/>
    <path d="M16.351,18.071C17.815,16.612 19.833,15.709 22.061,15.709C26.525,15.709 30.149,19.333 30.149,23.797C30.149,23.994 30.142,24.19 30.128,24.384L30.128,24.385L29.575,38.334L7.381,27.72L15.941,18.511C16.069,18.363 16.202,18.22 16.341,18.081L16.351,18.071L16.351,18.071Z" style="fill:#2b307e;"/>
    <clipPath id="_clip3">
        <path d="M16.351,18.071C17.815,16.612 19.833,15.709 22.061,15.709C26.525,15.709 30.149,19.333 30.149,23.797C30.149,23.994 30.142,24.19 30.128,24.384L30.128,24.385L29.575,38.334L7.381,27.72L15.941,18.511C16.069,18.363 16.202,18.22 16.341,18.081L16.351,18.071L16.351,18.071Z"/>
    </clipPath>
    <g clip-path="url(#_clip3)">
        <path d="M25.161,12.773L9.887,35.105C9.887,35.105 0.487,28.208 0.591,28.736C0.695,29.265 15.451,12.827 15.451,12.827L25.161,12.773Z" style="fill:#aaacdd;fill-opacity:0.71;"/>
    </g>
    <circle cx="16.355" cy="37.321" r="13.22" style="fill:#f3775b;"/>
    <path d="M16.526,24.102L16.696,24.106L16.866,24.111L17.035,24.118L17.203,24.128L17.371,24.14L17.539,24.154L17.706,24.17L17.872,24.188L18.038,24.208L18.203,24.23L18.367,24.254L18.531,24.28L18.694,24.308L18.856,24.338L19.018,24.37L19.179,24.404L19.339,24.44L19.498,24.478L19.657,24.518L19.815,24.559L19.972,24.603L20.129,24.649L20.284,24.696L20.439,24.745L20.593,24.796L20.746,24.849L20.898,24.904L21.05,24.96L21.2,25.019L21.35,25.079L21.499,25.141L21.646,25.204L21.793,25.27L21.939,25.337L22.084,25.406L22.228,25.476L22.371,25.548L22.513,25.622L22.654,25.698L22.794,25.775L22.933,25.854L23.071,25.934L23.208,26.016L23.343,26.1L23.478,26.185L23.612,26.272L23.744,26.36L23.875,26.45L24.005,26.542L24.134,26.634L24.262,26.729L24.389,26.825L24.514,26.922L24.639,27.021L24.762,27.122L24.884,27.223L25.004,27.327L25.124,27.431L25.242,27.537L25.358,27.645L25.474,27.753L25.588,27.863L25.701,27.975L25.812,28.088L25.922,28.202L26.031,28.317L26.139,28.434L26.245,28.552L26.349,28.672L26.452,28.792L26.554,28.914L26.655,29.037L26.753,29.161L26.851,29.287L26.947,29.413L27.041,29.541L27.134,29.67L27.226,29.8L27.316,29.932L27.404,30.064L27.491,30.198L27.576,30.332L27.66,30.468L27.742,30.605L27.822,30.743L27.901,30.882L27.978,31.022L28.054,31.163L28.127,31.305L28.2,31.448L28.27,31.592L28.339,31.737L28.406,31.883L28.471,32.029L28.535,32.177L28.597,32.326L28.657,32.476L28.715,32.626L28.772,32.777L28.827,32.93L28.879,33.083L28.931,33.237L28.98,33.392L29.027,33.547L29.073,33.704L29.116,33.861L29.158,34.019L29.198,34.177L29.236,34.337L29.272,34.497L29.306,34.658L29.338,34.82L29.368,34.982L29.396,35.145L29.422,35.309L29.446,35.473L29.468,35.638L29.488,35.804L29.506,35.97L29.522,36.137L29.536,36.304L29.548,36.472L29.557,36.641L29.565,36.81L29.57,36.98L29.573,37.15L29.575,37.321L29.573,37.492L29.57,37.662L29.565,37.831L29.557,38.001L29.548,38.169L29.536,38.337L29.522,38.505L29.506,38.672L29.488,38.838L29.468,39.004L29.446,39.169L29.422,39.333L29.396,39.497L29.368,39.66L29.338,39.822L29.306,39.984L29.272,40.145L29.236,40.305L29.198,40.464L29.158,40.623L29.116,40.781L29.073,40.938L29.027,41.094L28.98,41.25L28.931,41.405L28.879,41.559L28.827,41.712L28.772,41.864L28.715,42.016L28.657,42.166L28.597,42.316L28.535,42.464L28.471,42.612L28.406,42.759L28.339,42.905L28.27,43.05L28.2,43.194L28.127,43.337L28.054,43.479L27.978,43.62L27.901,43.76L27.822,43.899L27.742,44.037L27.66,44.173L27.576,44.309L27.491,44.444L27.404,44.577L27.316,44.71L27.226,44.841L27.134,44.971L27.041,45.1L26.947,45.228L26.851,45.355L26.753,45.48L26.655,45.605L26.554,45.728L26.452,45.849L26.349,45.97L26.245,46.089L26.139,46.207L26.031,46.324L25.922,46.44L25.812,46.554L25.701,46.667L25.588,46.778L25.474,46.888L25.358,46.997L25.242,47.104L25.124,47.21L25.004,47.315L24.884,47.418L24.762,47.52L24.639,47.62L24.514,47.719L24.389,47.817L24.262,47.913L24.134,48.007L24.005,48.1L23.875,48.192L23.744,48.281L23.612,48.37L23.478,48.457L23.343,48.542L23.208,48.625L23.071,48.707L22.933,48.788L22.794,48.867L22.654,48.944L22.513,49.019L22.371,49.093L22.228,49.165L22.084,49.236L21.939,49.305L21.793,49.372L21.646,49.437L21.499,49.501L21.35,49.563L21.2,49.623L21.05,49.681L20.898,49.738L20.746,49.792L20.593,49.845L20.439,49.896L20.284,49.946L20.129,49.993L19.972,50.039L19.815,50.082L19.657,50.124L19.498,50.164L19.339,50.202L19.179,50.238L19.018,50.272L18.856,50.304L18.694,50.334L18.531,50.362L18.367,50.388L18.203,50.412L18.038,50.434L17.872,50.454L17.706,50.472L17.539,50.488L17.371,50.502L17.203,50.514L17.035,50.523L16.866,50.531L16.696,50.536L16.526,50.539L16.355,50.54L16.184,50.539L16.014,50.536L15.844,50.531L15.675,50.523L15.507,50.514L15.338,50.502L15.171,50.488L15.004,50.472L14.838,50.454L14.672,50.434L14.507,50.412L14.343,50.388L14.179,50.362L14.016,50.334L13.854,50.304L13.692,50.272L13.531,50.238L13.371,50.202L13.212,50.164L13.053,50.124L12.895,50.082L12.738,50.039L12.581,49.993L12.426,49.946L12.271,49.896L12.117,49.845L11.964,49.792L11.812,49.738L11.66,49.681L11.51,49.623L11.36,49.563L11.211,49.501L11.064,49.437L10.917,49.372L10.771,49.305L10.626,49.236L10.482,49.165L10.339,49.093L10.197,49.019L10.056,48.944L9.916,48.867L9.777,48.788L9.639,48.707L9.502,48.625L9.367,48.542L9.232,48.457L9.098,48.37L8.966,48.281L8.835,48.192L8.704,48.1L8.575,48.007L8.448,47.913L8.321,47.817L8.195,47.719L8.071,47.62L7.948,47.52L7.826,47.418L7.706,47.315L7.586,47.21L7.468,47.104L7.352,46.997L7.236,46.888L7.122,46.778L7.009,46.667L6.898,46.554L6.788,46.44L6.679,46.324L6.571,46.207L6.465,46.089L6.361,45.97L6.257,45.849L6.156,45.728L6.055,45.605L5.956,45.48L5.859,45.355L5.763,45.228L5.669,45.1L5.576,44.971L5.484,44.841L5.394,44.71L5.306,44.577L5.219,44.444L5.134,44.309L5.05,44.173L4.968,44.037L4.888,43.899L4.809,43.76L4.732,43.62L4.656,43.479L4.583,43.337L4.51,43.194L4.44,43.05L4.371,42.905L4.304,42.759L4.239,42.612L4.175,42.464L4.113,42.316L4.053,42.166L3.995,42.016L3.938,41.864L3.883,41.712L3.83,41.559L3.779,41.405L3.73,41.25L3.683,41.094L3.637,40.938L3.594,40.781L3.552,40.623L3.512,40.464L3.474,40.305L3.438,40.145L3.404,39.984L3.372,39.822L3.342,39.66L3.314,39.497L3.288,39.333L3.264,39.169L3.242,39.004L3.222,38.838L3.204,38.672L3.188,38.505L3.174,38.337L3.162,38.169L3.153,38.001L3.145,37.831L3.14,37.662L3.136,37.492L3.135,37.321L3.136,37.15L3.14,36.98L3.145,36.81L3.153,36.641L3.162,36.472L3.174,36.304L3.188,36.137L3.204,35.97L3.222,35.804L3.242,35.638L3.264,35.473L3.288,35.309L3.314,35.145L3.342,34.982L3.372,34.82L3.404,34.658L3.438,34.497L3.474,34.337L3.512,34.177L3.552,34.019L3.594,33.861L3.637,33.704L3.683,33.547L3.73,33.392L3.779,33.237L3.83,33.083L3.883,32.93L3.938,32.777L3.995,32.626L4.053,32.476L4.113,32.326L4.175,32.177L4.239,32.029L4.304,31.883L4.371,31.737L4.44,31.592L4.51,31.448L4.583,31.305L4.656,31.163L4.732,31.022L4.809,30.882L4.888,30.743L4.968,30.605L5.05,30.468L5.134,30.332L5.219,30.198L5.306,30.064L5.394,29.932L5.484,29.8L5.576,29.67L5.669,29.541L5.763,29.413L5.859,29.287L5.956,29.161L6.055,29.037L6.156,28.914L6.257,28.792L6.361,28.672L6.465,28.552L6.571,28.434L6.679,28.317L6.788,28.202L6.898,28.088L7.009,27.975L7.122,27.863L7.236,27.753L7.352,27.645L7.468,27.537L7.586,27.431L7.706,27.327L7.826,27.223L7.948,27.122L8.071,27.021L8.195,26.922L8.321,26.825L8.448,26.729L8.575,26.634L8.704,26.542L8.835,26.45L8.966,26.36L9.098,26.272L9.232,26.185L9.367,26.1L9.502,26.016L9.639,25.934L9.777,25.854L9.916,25.775L10.056,25.698L10.197,25.622L10.339,25.548L10.482,25.476L10.626,25.406L10.771,25.337L10.917,25.27L11.064,25.204L11.211,25.141L11.36,25.079L11.51,25.019L11.66,24.96L11.812,24.904L11.964,24.849L12.117,24.796L12.271,24.745L12.426,24.696L12.581,24.649L12.738,24.603L12.895,24.559L13.053,24.518L13.212,24.478L13.371,24.44L13.531,24.404L13.692,24.37L13.854,24.338L14.016,24.308L14.179,24.28L14.343,24.254L14.507,24.23L14.672,24.208L14.838,24.188L15.004,24.17L15.171,24.154L15.338,24.14L15.507,24.128L15.675,24.118L15.844,24.111L16.014,24.106L16.184,24.102L16.355,24.101L16.526,24.102ZM16.21,26.102L16.065,26.105L15.92,26.11L15.776,26.116L15.633,26.124L15.49,26.134L15.348,26.146L15.207,26.159L15.065,26.175L14.925,26.192L14.785,26.21L14.645,26.231L14.507,26.253L14.368,26.277L14.23,26.302L14.093,26.329L13.957,26.358L13.821,26.389L13.686,26.421L13.552,26.455L13.418,26.49L13.285,26.527L13.152,26.565L13.02,26.606L12.889,26.647L12.759,26.691L12.629,26.735L12.5,26.782L12.371,26.83L12.244,26.879L12.117,26.93L11.991,26.983L11.865,27.037L11.741,27.092L11.617,27.149L11.495,27.207L11.372,27.267L11.251,27.328L11.131,27.391L11.011,27.455L10.892,27.521L10.774,27.587L10.657,27.656L10.541,27.725L10.426,27.796L10.312,27.869L10.198,27.942L10.086,28.017L9.975,28.093L9.864,28.171L9.754,28.25L9.646,28.33L9.538,28.412L9.431,28.495L9.326,28.579L9.221,28.664L9.118,28.751L9.015,28.838L8.914,28.927L8.814,29.017L8.714,29.108L8.616,29.201L8.519,29.294L8.423,29.39L8.328,29.485L8.235,29.582L8.143,29.68L8.051,29.78L7.961,29.88L7.872,29.981L7.785,30.084L7.698,30.187L7.613,30.292L7.529,30.397L7.446,30.504L7.364,30.612L7.284,30.72L7.206,30.829L7.128,30.94L7.052,31.052L6.976,31.164L6.903,31.278L6.83,31.392L6.759,31.507L6.69,31.623L6.622,31.74L6.555,31.858L6.489,31.977L6.425,32.096L6.362,32.217L6.301,32.338L6.241,32.46L6.183,32.583L6.126,32.707L6.071,32.831L6.017,32.957L5.964,33.083L5.913,33.21L5.864,33.337L5.816,33.466L5.77,33.595L5.725,33.725L5.682,33.855L5.64,33.986L5.6,34.118L5.561,34.25L5.524,34.384L5.489,34.517L5.455,34.652L5.423,34.787L5.392,34.923L5.364,35.059L5.336,35.196L5.311,35.334L5.287,35.472L5.265,35.611L5.244,35.751L5.226,35.89L5.209,36.031L5.194,36.172L5.18,36.314L5.168,36.456L5.158,36.599L5.15,36.743L5.144,36.886L5.139,37.03L5.136,37.175L5.135,37.321L5.136,37.466L5.139,37.611L5.144,37.755L5.15,37.899L5.158,38.042L5.168,38.186L5.18,38.328L5.194,38.469L5.209,38.611L5.226,38.751L5.244,38.891L5.265,39.03L5.287,39.169L5.311,39.308L5.336,39.445L5.363,39.582L5.392,39.719L5.423,39.854L5.455,39.99L5.489,40.124L5.524,40.258L5.561,40.391L5.6,40.524L5.64,40.656L5.682,40.787L5.725,40.917L5.77,41.047L5.816,41.176L5.864,41.304L5.913,41.432L5.964,41.558L6.017,41.685L6.071,41.81L6.126,41.935L6.183,42.058L6.241,42.181L6.301,42.303L6.362,42.425L6.425,42.545L6.489,42.665L6.555,42.784L6.622,42.902L6.69,43.019L6.759,43.134L6.83,43.25L6.903,43.364L6.976,43.477L7.052,43.59L7.128,43.701L7.206,43.812L7.284,43.922L7.364,44.03L7.446,44.138L7.529,44.244L7.613,44.35L7.698,44.455L7.785,44.558L7.872,44.661L7.961,44.762L8.051,44.862L8.143,44.962L8.235,45.06L8.328,45.156L8.423,45.252L8.519,45.347L8.616,45.441L8.714,45.533L8.814,45.624L8.914,45.715L9.015,45.804L9.118,45.891L9.221,45.978L9.326,46.063L9.431,46.147L9.538,46.23L9.646,46.311L9.754,46.391L9.864,46.47L9.974,46.548L10.086,46.624L10.198,46.699L10.312,46.773L10.426,46.845L10.541,46.916L10.657,46.986L10.774,47.054L10.892,47.121L11.011,47.187L11.131,47.251L11.251,47.313L11.372,47.375L11.494,47.434L11.617,47.493L11.741,47.55L11.865,47.605L11.991,47.659L12.117,47.712L12.244,47.762L12.371,47.812L12.5,47.86L12.629,47.906L12.759,47.951L12.889,47.994L13.02,48.036L13.152,48.076L13.285,48.115L13.418,48.152L13.552,48.187L13.686,48.221L13.821,48.253L13.957,48.283L14.093,48.312L14.23,48.339L14.368,48.365L14.507,48.389L14.645,48.411L14.785,48.431L14.925,48.45L15.065,48.467L15.207,48.482L15.348,48.496L15.49,48.508L15.633,48.518L15.776,48.526L15.92,48.532L16.065,48.537L16.21,48.539L16.355,48.54L16.5,48.539L16.645,48.537L16.79,48.532L16.934,48.526L17.077,48.518L17.219,48.508L17.362,48.496L17.503,48.482L17.645,48.467L17.785,48.45L17.925,48.431L18.065,48.411L18.203,48.389L18.342,48.365L18.479,48.339L18.616,48.312L18.753,48.283L18.889,48.253L19.024,48.221L19.158,48.187L19.292,48.152L19.426,48.115L19.558,48.076L19.69,48.036L19.821,47.994L19.951,47.951L20.081,47.906L20.21,47.86L20.338,47.812L20.466,47.762L20.593,47.711L20.719,47.659L20.844,47.605L20.969,47.55L21.093,47.493L21.215,47.434L21.337,47.375L21.459,47.313L21.579,47.251L21.699,47.187L21.818,47.121L21.935,47.054L22.052,46.986L22.169,46.916L22.284,46.845L22.398,46.773L22.512,46.699L22.624,46.624L22.736,46.548L22.846,46.47L22.956,46.391L23.064,46.311L23.172,46.23L23.279,46.147L23.384,46.063L23.489,45.978L23.592,45.891L23.695,45.804L23.796,45.715L23.896,45.624L23.995,45.533L24.094,45.441L24.191,45.347L24.286,45.252L24.381,45.157L24.475,45.059L24.567,44.961L24.659,44.862L24.749,44.762L24.838,44.66L24.925,44.558L25.012,44.455L25.097,44.35L25.181,44.244L25.264,44.138L25.345,44.03L25.425,43.922L25.505,43.812L25.582,43.701L25.658,43.59L25.734,43.477L25.807,43.364L25.879,43.25L25.95,43.135L26.02,43.018L26.089,42.901L26.155,42.784L26.221,42.665L26.285,42.545L26.348,42.425L26.409,42.303L26.469,42.181L26.527,42.058L26.584,41.935L26.639,41.81L26.693,41.685L26.746,41.559L26.796,41.432L26.846,41.304L26.894,41.176L26.94,41.047L26.985,40.917L27.029,40.786L27.07,40.656L27.11,40.524L27.149,40.391L27.186,40.258L27.221,40.124L27.255,39.99L27.287,39.854L27.318,39.719L27.346,39.582L27.374,39.445L27.399,39.308L27.423,39.169L27.445,39.031L27.465,38.891L27.484,38.751L27.501,38.61L27.516,38.469L27.53,38.328L27.542,38.186L27.552,38.042L27.56,37.9L27.566,37.755L27.571,37.611L27.574,37.466L27.575,37.321L27.574,37.175L27.571,37.031L27.566,36.886L27.56,36.742L27.552,36.599L27.542,36.456L27.53,36.314L27.516,36.172L27.501,36.031L27.484,35.891L27.465,35.75L27.445,35.611L27.423,35.472L27.399,35.334L27.374,35.196L27.346,35.059L27.318,34.923L27.287,34.787L27.255,34.652L27.221,34.517L27.186,34.384L27.149,34.25L27.11,34.118L27.07,33.986L27.029,33.855L26.985,33.725L26.94,33.595L26.894,33.466L26.846,33.337L26.796,33.21L26.746,33.083L26.693,32.957L26.639,32.831L26.584,32.707L26.527,32.583L26.469,32.46L26.409,32.338L26.348,32.217L26.285,32.096L26.221,31.977L26.155,31.858L26.089,31.74L26.02,31.623L25.95,31.507L25.879,31.392L25.807,31.278L25.734,31.164L25.658,31.052L25.582,30.94L25.505,30.83L25.426,30.72L25.345,30.611L25.264,30.504L25.181,30.397L25.097,30.292L25.012,30.187L24.925,30.084L24.838,29.981L24.749,29.88L24.659,29.779L24.567,29.68L24.475,29.582L24.381,29.485L24.287,29.389L24.191,29.295L24.094,29.201L23.995,29.108L23.896,29.017L23.796,28.927L23.694,28.838L23.592,28.751L23.489,28.664L23.384,28.579L23.279,28.495L23.172,28.412L23.064,28.33L22.956,28.25L22.846,28.171L22.736,28.094L22.624,28.017L22.512,27.942L22.398,27.869L22.284,27.796L22.169,27.725L22.052,27.656L21.936,27.587L21.818,27.521L21.699,27.455L21.579,27.391L21.459,27.328L21.337,27.267L21.215,27.207L21.093,27.149L20.969,27.092L20.844,27.037L20.719,26.983L20.593,26.93L20.466,26.879L20.338,26.83L20.21,26.782L20.081,26.735L19.951,26.691L19.821,26.647L19.69,26.606L19.558,26.565L19.425,26.527L19.292,26.49L19.158,26.455L19.024,26.421L18.889,26.389L18.753,26.358L18.616,26.329L18.479,26.302L18.342,26.277L18.203,26.253L18.065,26.231L17.925,26.21L17.785,26.192L17.645,26.175L17.503,26.159L17.362,26.146L17.22,26.134L17.077,26.124L16.933,26.116L16.789,26.11L16.645,26.105L16.5,26.102L16.355,26.101L16.21,26.102Z" style="fill:#2b307e;"/>
    <path d="M29.637,21.13C29.695,19.708 30.868,18.571 32.305,18.571C33.744,18.571 34.918,19.712 34.973,21.137L34.975,21.137L35.957,28.449L28.652,28.507L29.634,21.13L29.637,21.13Z" style="fill:#2b307e;"/>
    <clipPath id="_clip4">
        <path d="M29.637,21.13C29.695,19.708 30.868,18.571 32.305,18.571C33.744,18.571 34.918,19.712 34.973,21.137L34.975,21.137L35.957,28.449L28.652,28.507L29.634,21.13L29.637,21.13Z"/>
    </clipPath>
    <g clip-path="url(#_clip4)">
        <path d="M32.738,18L30.162,18L28.738,30L32.738,31.388L32.738,18Z" style="fill:#8a8dc5;"/>
    </g>
    <circle cx="32.305" cy="28.941" r="3.652" style="fill:#2b307e;"/>
    <path d="M8.768,37.321C8.768,33.133 12.167,29.733 16.355,29.733" style="fill:none;stroke:#fff;stroke-opacity:0.7;stroke-width:2.12px;"/>
</svg>
