<?xml version="1.0" encoding="UTF-8" standalone="no"?>
<!DOCTYPE svg PUBLIC "-//W3C//DTD SVG 1.1//EN" "http://www.w3.org/Graphics/SVG/1.1/DTD/svg11.dtd">
<svg width="100%" height="100%" viewBox="0 0 65 64" version="1.1" xmlns="http://www.w3.org/2000/svg" xmlns:xlink="http://www.w3.org/1999/xlink" xml:space="preserve" xmlns:serif="http://www.serif.com/" style="fill-rule:evenodd;clip-rule:evenodd;stroke-linejoin:round;stroke-miterlimit:2;">
    <rect id="Birthday" x="0.484" y="0" width="64" height="64" style="fill:none;"/>
    <g>
        <path d="M9.76,27.038C9.76,27.038 6.764,25.992 5.458,25.912C4.982,25.883 4.573,26.246 4.544,26.721C4.515,27.196 4.877,27.606 5.353,27.635C6.659,27.714 9.76,27.038 9.76,27.038Z" style="fill:#696fc0;fill-opacity:0.16;"/>
        <path d="M52.827,27.179C52.827,27.179 49.893,26.055 48.611,25.977C48.091,25.945 47.643,26.342 47.611,26.862C47.579,27.382 47.976,27.83 48.496,27.862C49.778,27.94 52.827,27.179 52.827,27.179Z" style="fill:#696fc0;fill-opacity:0.16;"/>
        <path d="M5.119,10.723C5.119,10.723 4.557,14.066 4.557,15.533C4.557,16.264 5.15,16.857 5.88,16.857C6.611,16.857 7.204,16.264 7.204,15.533C7.204,14.066 5.119,10.723 5.119,10.723Z" style="fill:#fff;fill-opacity:0.7;"/>
        <path d="M5.119,16.194L6.642,16.194L6.642,26.91C6.642,27.056 6.301,27.175 5.88,27.175C5.46,27.175 5.119,27.056 5.119,26.91L5.119,16.194Z" style="fill:#8d93d8;"/>
        <clipPath id="_clip1">
            <path d="M5.119,16.194L6.642,16.194L6.642,26.91C6.642,27.056 6.301,27.175 5.88,27.175C5.46,27.175 5.119,27.056 5.119,26.91L5.119,16.194Z"/>
        </clipPath>
        <g clip-path="url(#_clip1)">
            <rect x="5.88" y="13.752" width="3.442" height="18.592" style="fill:#696fc0;"/>
        </g>
        <ellipse cx="5.88" cy="16.194" rx="0.762" ry="0.265" style="fill:#fff;"/>
        <path d="M49.817,10.766C49.817,10.766 50.379,14.066 50.379,15.533C50.379,16.264 49.786,16.857 49.055,16.857C48.325,16.857 47.731,16.264 47.731,15.533C47.731,14.066 49.817,10.766 49.817,10.766Z" style="fill:#fff;fill-opacity:0.7;"/>
        <path d="M49.817,16.194L48.294,16.194L48.294,26.91C48.294,27.056 48.635,27.175 49.055,27.175C49.476,27.175 49.817,27.056 49.817,26.91L49.817,16.194Z" style="fill:#8d93d8;"/>
        <clipPath id="_clip2">
            <path d="M49.817,16.194L48.294,16.194L48.294,26.91C48.294,27.056 48.635,27.175 49.055,27.175C49.476,27.175 49.817,27.056 49.817,26.91L49.817,16.194Z"/>
        </clipPath>
        <g clip-path="url(#_clip2)">
            <rect x="45.613" y="13.752" width="3.442" height="18.592" style="fill:#696fc0;"/>
        </g>
        <ellipse cx="49.055" cy="16.194" rx="0.762" ry="0.265" style="fill:#fff;"/>
        <ellipse cx="32.676" cy="44.571" rx="29.674" ry="8.788" style="fill:#2b307e;fill-opacity:0.1;"/>
        <path d="M2.619,27.066L53.39,27.066L53.39,44.43C53.39,47.83 42.015,50.59 28.004,50.59C13.994,50.59 2.619,47.83 2.619,44.43L2.619,27.066Z" style="fill:#d7d7eb;"/>
        <clipPath id="_clip3">
            <path d="M2.619,27.066L53.39,27.066L53.39,44.43C53.39,47.83 42.015,50.59 28.004,50.59C13.994,50.59 2.619,47.83 2.619,44.43L2.619,27.066Z"/>
        </clipPath>
        <g clip-path="url(#_clip3)">
            <rect x="2.619" y="26.456" width="2.223" height="23.524" style="fill:#fff;fill-opacity:0.44;"/>
            <rect x="41.694" y="22.41" width="18.264" height="31.072" style="fill:#696fc0;fill-opacity:0.16;"/>
        </g>
        <path d="M53.39,38.27C53.39,41.67 42.015,44.43 28.004,44.43C13.994,44.43 2.619,41.67 2.619,38.27L2.619,20.906L2.619,33.478C2.619,36.878 13.994,39.639 28.004,39.639C42.015,39.639 53.39,36.878 53.39,33.478L53.39,38.27Z" style="fill:#f3ab9b;"/>
        <clipPath id="_clip4">
            <path d="M53.39,38.27C53.39,41.67 42.015,44.43 28.004,44.43C13.994,44.43 2.619,41.67 2.619,38.27L2.619,20.906L2.619,33.478C2.619,36.878 13.994,39.639 28.004,39.639C42.015,39.639 53.39,36.878 53.39,33.478L53.39,38.27Z"/>
        </clipPath>
        <g clip-path="url(#_clip4)">
            <rect x="16.707" y="23.531" width="41.338" height="31.804" style="fill:#f3775b;"/>
            <rect x="2.619" y="32.668" width="2.223" height="11.017" style="fill:#fff;fill-opacity:0.44;"/>
        </g>
        <ellipse cx="28.004" cy="27.066" rx="25.385" ry="6.16" style="fill:#fff;"/>
        <path d="M15.75,29.46C15.75,29.46 12.759,28.407 11.454,28.328C10.976,28.299 10.563,28.664 10.534,29.142C10.505,29.621 10.87,30.033 11.349,30.062C12.653,30.142 15.75,29.46 15.75,29.46Z" style="fill:#696fc0;fill-opacity:0.16;"/>
        <path d="M19.798,23.597C19.798,23.597 16.666,22.722 15.306,22.639C14.929,22.616 14.605,22.903 14.582,23.28C14.559,23.656 14.846,23.98 15.223,24.003C16.583,24.086 19.798,23.597 19.798,23.597Z" style="fill:#696fc0;fill-opacity:0.16;"/>
        <path d="M27.995,22.918C27.995,22.918 24.701,22.248 23.276,22.161C23.018,22.145 22.795,22.342 22.779,22.601C22.764,22.86 22.961,23.082 23.219,23.098C24.644,23.185 27.995,22.918 27.995,22.918Z" style="fill:#696fc0;fill-opacity:0.16;"/>
        <path d="M36.208,23.396C36.208,23.396 32.913,22.725 31.489,22.639C31.23,22.623 31.008,22.82 30.992,23.079C30.976,23.337 31.173,23.56 31.432,23.576C32.856,23.662 36.208,23.396 36.208,23.396Z" style="fill:#696fc0;fill-opacity:0.16;"/>
        <path d="M43.437,23.587C43.437,23.587 40.142,22.917 38.718,22.83C38.459,22.814 38.236,23.011 38.221,23.27C38.205,23.529 38.402,23.751 38.661,23.767C40.085,23.854 43.437,23.587 43.437,23.587Z" style="fill:#696fc0;fill-opacity:0.16;"/>
        <path d="M23.974,30.976C23.974,30.976 21.04,29.851 19.758,29.773C19.238,29.742 18.79,30.138 18.758,30.658C18.727,31.178 19.123,31.626 19.644,31.658C20.926,31.736 23.974,30.976 23.974,30.976Z" style="fill:#696fc0;fill-opacity:0.16;"/>
        <path d="M32.311,31.49C32.311,31.49 29.377,30.366 28.095,30.288C27.574,30.256 27.126,30.653 27.095,31.173C27.063,31.693 27.46,32.141 27.98,32.173C29.262,32.251 32.311,31.49 32.311,31.49Z" style="fill:#696fc0;fill-opacity:0.16;"/>
        <path d="M39.892,31.181C39.892,31.181 36.957,30.057 35.675,29.979C35.155,29.947 34.707,30.343 34.676,30.864C34.644,31.384 35.041,31.832 35.561,31.863C36.843,31.941 39.892,31.181 39.892,31.181Z" style="fill:#696fc0;fill-opacity:0.16;"/>
        <path d="M48.116,29.974C48.116,29.974 45.182,28.85 43.899,28.772C43.379,28.74 42.931,29.136 42.9,29.657C42.868,30.177 43.265,30.625 43.785,30.656C45.067,30.734 48.116,29.974 48.116,29.974Z" style="fill:#696fc0;fill-opacity:0.16;"/>
        <path d="M15.558,7.147C15.558,7.147 14.234,10.569 14.234,12.036C14.234,12.767 14.828,13.36 15.558,13.36C16.289,13.36 16.882,12.767 16.882,12.036C16.882,10.569 15.558,7.147 15.558,7.147Z" style="fill:#fff;fill-opacity:0.7;"/>
        <path d="M14.797,12.697L16.32,12.697L16.32,23.413C16.32,23.56 15.979,23.679 15.558,23.679C15.138,23.679 14.797,23.56 14.797,23.413L14.797,12.697Z" style="fill:#8d93d8;"/>
        <clipPath id="_clip5">
            <path d="M14.797,12.697L16.32,12.697L16.32,23.413C16.32,23.56 15.979,23.679 15.558,23.679C15.138,23.679 14.797,23.56 14.797,23.413L14.797,12.697Z"/>
        </clipPath>
        <g clip-path="url(#_clip5)">
            <rect x="15.558" y="10.255" width="3.442" height="18.592" style="fill:#696fc0;"/>
        </g>
        <ellipse cx="15.558" cy="12.697" rx="0.762" ry="0.265" style="fill:#fff;"/>
        <path d="M39.377,7.147C39.377,7.147 40.701,10.569 40.701,12.036C40.701,12.767 40.108,13.36 39.377,13.36C38.647,13.36 38.054,12.767 38.054,12.036C38.054,10.569 39.377,7.147 39.377,7.147Z" style="fill:#fff;fill-opacity:0.7;"/>
        <path d="M40.139,12.697L38.616,12.697L38.616,23.413C38.616,23.56 38.957,23.679 39.377,23.679C39.798,23.679 40.139,23.56 40.139,23.413L40.139,12.697Z" style="fill:#8d93d8;"/>
        <clipPath id="_clip6">
            <path d="M40.139,12.697L38.616,12.697L38.616,23.413C38.616,23.56 38.957,23.679 39.377,23.679C39.798,23.679 40.139,23.56 40.139,23.413L40.139,12.697Z"/>
        </clipPath>
        <g clip-path="url(#_clip6)">
            <rect x="35.936" y="10.255" width="3.442" height="18.592" style="fill:#696fc0;"/>
        </g>
        <ellipse cx="39.377" cy="12.697" rx="0.762" ry="0.265" style="fill:#fff;"/>
        <path d="M31.102,6.875C31.102,6.875 33.188,10.216 33.188,11.683C33.188,12.413 32.595,13.006 31.864,13.006C31.133,13.006 30.54,12.413 30.54,11.683C30.54,10.216 31.102,6.875 31.102,6.875Z" style="fill:#fff;fill-opacity:0.7;"/>
        <path d="M32.626,12.344L31.102,12.344L31.102,23.06C31.102,23.206 31.444,23.325 31.864,23.325C32.284,23.325 32.626,23.206 32.626,23.06L32.626,12.344Z" style="fill:#8d93d8;"/>
        <clipPath id="_clip7">
            <path d="M32.626,12.344L31.102,12.344L31.102,23.06C31.102,23.206 31.444,23.325 31.864,23.325C32.284,23.325 32.626,23.206 32.626,23.06L32.626,12.344Z"/>
        </clipPath>
        <g clip-path="url(#_clip7)">
            <rect x="28.422" y="9.901" width="3.442" height="18.592" style="fill:#696fc0;"/>
        </g>
        <ellipse cx="31.864" cy="12.344" rx="0.762" ry="0.265" style="fill:#fff;"/>
        <path d="M23.811,6.333C23.811,6.333 22.488,9.755 22.488,11.222C22.488,11.953 23.081,12.546 23.811,12.546C24.542,12.546 25.135,11.953 25.135,11.222C25.135,9.755 23.811,6.333 23.811,6.333Z" style="fill:#fff;fill-opacity:0.7;"/>
        <path d="M23.05,11.883L24.573,11.883L24.573,22.599C24.573,22.746 24.232,22.865 23.811,22.865C23.391,22.865 23.05,22.746 23.05,22.599L23.05,11.883Z" style="fill:#8d93d8;"/>
        <clipPath id="_clip8">
            <path d="M23.05,11.883L24.573,11.883L24.573,22.599C24.573,22.746 24.232,22.865 23.811,22.865C23.391,22.865 23.05,22.746 23.05,22.599L23.05,11.883Z"/>
        </clipPath>
        <g clip-path="url(#_clip8)">
            <rect x="23.811" y="9.441" width="3.442" height="18.592" style="fill:#696fc0;"/>
        </g>
        <ellipse cx="23.811" cy="11.883" rx="0.762" ry="0.265" style="fill:#fff;"/>
        <path d="M12.56,13.168C12.56,13.168 10.475,16.607 10.475,18.073C10.475,18.804 11.068,19.397 11.798,19.397C12.529,19.397 13.122,18.804 13.122,18.073C13.122,16.607 12.56,13.168 12.56,13.168Z" style="fill:#fff;fill-opacity:0.7;"/>
        <path d="M11.037,18.735L12.56,18.735L12.56,29.451C12.56,29.597 12.219,29.716 11.798,29.716C11.378,29.716 11.037,29.597 11.037,29.451L11.037,18.735Z" style="fill:#8d93d8;"/>
        <clipPath id="_clip9">
            <path d="M11.037,18.735L12.56,18.735L12.56,29.451C12.56,29.597 12.219,29.716 11.798,29.716C11.378,29.716 11.037,29.597 11.037,29.451L11.037,18.735Z"/>
        </clipPath>
        <g clip-path="url(#_clip9)">
            <rect x="11.798" y="16.292" width="3.442" height="18.592" style="fill:#696fc0;"/>
        </g>
        <ellipse cx="11.798" cy="18.735" rx="0.762" ry="0.265" style="fill:#fff;"/>
        <path d="M44.089,13.184C44.089,13.184 45.413,16.607 45.413,18.073C45.413,18.804 44.82,19.397 44.089,19.397C43.359,19.397 42.765,18.804 42.765,18.073C42.765,16.607 44.089,13.184 44.089,13.184Z" style="fill:#fff;fill-opacity:0.7;"/>
        <path d="M44.851,18.735L43.328,18.735L43.328,29.451C43.328,29.597 43.669,29.716 44.089,29.716C44.51,29.716 44.851,29.597 44.851,29.451L44.851,18.735Z" style="fill:#8d93d8;"/>
        <clipPath id="_clip10">
            <path d="M44.851,18.735L43.328,18.735L43.328,29.451C43.328,29.597 43.669,29.716 44.089,29.716C44.51,29.716 44.851,29.597 44.851,29.451L44.851,18.735Z"/>
        </clipPath>
        <g clip-path="url(#_clip10)">
            <rect x="40.647" y="16.292" width="3.442" height="18.592" style="fill:#696fc0;"/>
        </g>
        <ellipse cx="44.089" cy="18.735" rx="0.762" ry="0.265" style="fill:#fff;"/>
        <path d="M29.066,15.328C29.066,15.328 26.981,18.563 26.981,20.03C26.981,20.76 27.574,21.354 28.305,21.354C29.035,21.354 29.628,20.76 29.628,20.03C29.628,18.563 29.066,15.328 29.066,15.328Z" style="fill:#fff;fill-opacity:0.7;"/>
        <path d="M27.543,20.691L29.066,20.691L29.066,31.407C29.066,31.553 28.725,31.672 28.305,31.672C27.884,31.672 27.543,31.553 27.543,31.407L27.543,20.691Z" style="fill:#8d93d8;"/>
        <clipPath id="_clip11">
            <path d="M27.543,20.691L29.066,20.691L29.066,31.407C29.066,31.553 28.725,31.672 28.305,31.672C27.884,31.672 27.543,31.553 27.543,31.407L27.543,20.691Z"/>
        </clipPath>
        <g clip-path="url(#_clip11)">
            <rect x="28.305" y="18.248" width="3.442" height="18.592" style="fill:#696fc0;"/>
        </g>
        <ellipse cx="28.305" cy="20.691" rx="0.762" ry="0.265" style="fill:#fff;"/>
        <path d="M20.052,14.446C20.052,14.446 18.728,18.047 18.728,19.514C18.728,20.244 19.321,20.838 20.052,20.838C20.782,20.838 21.375,20.244 21.375,19.514C21.375,18.047 20.052,14.446 20.052,14.446Z" style="fill:#fff;fill-opacity:0.7;"/>
        <path d="M19.29,20.175L20.813,20.175L20.813,30.891C20.813,31.037 20.472,31.156 20.052,31.156C19.631,31.156 19.29,31.037 19.29,30.891L19.29,20.175Z" style="fill:#8d93d8;"/>
        <clipPath id="_clip12">
            <path d="M19.29,20.175L20.813,20.175L20.813,30.891C20.813,31.037 20.472,31.156 20.052,31.156C19.631,31.156 19.29,31.037 19.29,30.891L19.29,20.175Z"/>
        </clipPath>
        <g clip-path="url(#_clip12)">
            <rect x="20.052" y="17.732" width="3.442" height="18.592" style="fill:#696fc0;"/>
        </g>
        <ellipse cx="20.052" cy="20.175" rx="0.762" ry="0.265" style="fill:#fff;"/>
        <path d="M36.115,14.624C36.115,14.624 37.439,18.047 37.439,19.514C37.439,20.244 36.846,20.838 36.115,20.838C35.385,20.838 34.792,20.244 34.792,19.514C34.792,18.047 36.115,14.624 36.115,14.624Z" style="fill:#fff;fill-opacity:0.7;"/>
        <path d="M36.877,20.175L35.354,20.175L35.354,30.891C35.354,31.037 35.695,31.156 36.115,31.156C36.536,31.156 36.877,31.037 36.877,30.891L36.877,20.175Z" style="fill:#8d93d8;"/>
        <clipPath id="_clip13">
            <path d="M36.877,20.175L35.354,20.175L35.354,30.891C35.354,31.037 35.695,31.156 36.115,31.156C36.536,31.156 36.877,31.037 36.877,30.891L36.877,20.175Z"/>
        </clipPath>
        <g clip-path="url(#_clip13)">
            <rect x="32.674" y="17.732" width="3.442" height="18.592" style="fill:#696fc0;"/>
        </g>
        <ellipse cx="36.115" cy="20.175" rx="0.762" ry="0.265" style="fill:#fff;"/>
    </g>
</svg>
