<?xml version="1.0" encoding="UTF-8" standalone="no"?>
<!DOCTYPE svg PUBLIC "-//W3C//DTD SVG 1.1//EN" "http://www.w3.org/Graphics/SVG/1.1/DTD/svg11.dtd">
<svg width="100%" height="100%" viewBox="0 0 65 64" version="1.1" xmlns="http://www.w3.org/2000/svg" xmlns:xlink="http://www.w3.org/1999/xlink" xml:space="preserve" xmlns:serif="http://www.serif.com/" style="fill-rule:evenodd;clip-rule:evenodd;stroke-linejoin:round;stroke-miterlimit:2;">
    <rect id="Blood-pressure-taken" x="0.738" y="0" width="64" height="64" style="fill:none;"/>
    <path d="M56.074,17.039L46.232,17.039L46.232,29.864L53.327,29.864C54.056,29.864 54.755,29.574 55.27,29.059C55.785,28.544 56.074,27.845 56.074,27.117C56.074,23.349 56.074,17.039 56.074,17.039Z" style="fill:#a4a6cf;"/>
    <path d="M54.85,27.749C57.254,27.806 60.47,28.534 60.372,30.785C60.279,32.929 57.211,33.957 54.434,34.802C50.813,35.904 46.924,36.098 43.328,36.938C41.573,37.348 39.256,38.156 39.193,39.977C39.149,41.242 40.586,42.148 41.973,42.747C41.973,42.747 42.2,42.88 42.255,43.065C42.38,43.496 41.938,43.851 41.24,43.509C40.968,43.375 40.702,43.229 40.444,43.07C40.281,42.969 40.12,42.863 39.964,42.751C39.001,42.059 38.041,41.032 38.213,39.722C38.563,37.062 42.31,36.019 45.283,35.567C49.658,34.919 54.284,34.525 58.004,32.257C58.111,32.191 58.217,32.123 58.32,32.052C58.413,31.988 58.503,31.922 58.591,31.852C58.668,31.791 58.744,31.727 58.816,31.661C58.87,31.611 58.921,31.561 58.971,31.508C59.511,30.932 59.085,29.867 58.022,29.396C56.672,28.796 55.134,28.636 53.651,28.807C53.651,28.807 53.352,28.806 53.206,28.625C52.883,28.225 53.309,27.763 54.609,27.748C54.729,27.748 54.729,27.748 54.85,27.749Z" style="fill:#6d71aa;fill-rule:nonzero;"/>
    <path d="M56.731,16.296C56.901,15.924 56.87,15.492 56.649,15.148C56.428,14.805 56.048,14.597 55.639,14.597C53.341,14.597 49.426,14.597 46.845,14.597C45.279,14.597 43.856,15.512 43.206,16.936C41.717,20.199 39.052,26.038 37.738,28.915C37.569,29.287 37.6,29.719 37.821,30.062C38.041,30.406 38.422,30.613 38.83,30.613C41.128,30.613 45.043,30.613 47.625,30.613C49.191,30.613 50.613,29.699 51.263,28.274C52.753,25.012 55.418,19.173 56.731,16.296Z" style="fill:#dfdff2;"/>
    <path d="M53.873,17.716C53.93,17.592 53.919,17.446 53.845,17.331C53.771,17.216 53.643,17.146 53.506,17.146C51.982,17.146 48.076,17.146 46.267,17.146C45.69,17.146 45.167,17.483 44.927,18.007C43.947,20.154 41.416,25.699 40.597,27.495C40.54,27.619 40.55,27.764 40.624,27.88C40.698,27.995 40.826,28.065 40.963,28.065C42.487,28.065 46.393,28.065 48.203,28.065C48.779,28.065 49.303,27.728 49.542,27.204C50.522,25.057 53.053,19.512 53.873,17.716Z" style="fill:#2b307e;"/>
    <path id="Love" d="M46.848,20.634L46.778,20.634C46.337,20.657 45.803,20.915 45.375,21.301C44.98,21.664 44.729,22.097 44.702,22.472C44.667,22.916 44.898,23.314 45.102,23.665C45.147,23.747 45.192,23.829 45.231,23.9C45.372,24.157 45.519,24.403 45.66,24.637C45.742,24.766 45.819,24.906 45.896,25.047L45.98,25.199L46.206,25.058C46.849,24.66 47.512,24.216 48.18,23.736C48.248,23.689 48.32,23.63 48.4,23.584C48.894,23.232 49.517,22.799 49.845,22.273C50.108,21.839 50.191,21.418 50.07,21.114C49.956,20.821 49.668,20.657 49.272,20.657L49.213,20.657C48.574,20.681 48.061,20.997 47.714,21.278C47.635,20.985 47.407,20.634 46.848,20.634Z" style="fill:#f3775b;"/>
    <path d="M12.731,51.579C12.731,51.579 49.527,51.729 56.921,51.76C57.734,51.763 58.504,51.398 59.015,50.766C59.015,50.766 59.015,50.766 59.016,50.766C59.267,50.455 59.325,50.031 59.166,49.665C59.006,49.298 58.656,49.051 58.258,49.023C49.608,48.418 16.567,46.107 16.567,46.107L12.731,51.579Z" style="fill:#2b307e;fill-opacity:0.1;"/>
    <rect x="3.316" y="52.049" width="59.053" height="2.066" style="fill:#f8ae9d;"/>
    <clipPath id="_clip1">
        <rect x="3.316" y="52.049" width="59.053" height="2.066"/>
    </clipPath>
    <g clip-path="url(#_clip1)">
        <path d="M34.651,50.613L37.098,56.685C37.098,56.685 28.631,56.238 28.616,56.142C28.602,56.046 26.166,51.591 26.166,51.591L34.651,50.613Z" style="fill:#a46048;fill-opacity:0.54;"/>
    </g>
    <path d="M46.124,44.984C46.124,44.984 47.742,46.329 45.857,49.362C44.246,51.956 43.133,51.255 43.133,51.255C43.133,51.255 40.655,50.404 42.123,46.845C42.971,44.791 44.165,44.308 46.124,44.984Z" style="fill:#2b307e;"/>
    <path d="M41.513,42.354C43.082,43.223 42.467,45.215 41.487,46.984C40.507,48.753 39.072,49.942 37.503,49.072C35.934,48.203 35.546,45.898 36.526,44.129C37.507,42.36 39.944,41.484 41.513,42.354Z" style="fill:#1f235c;"/>
    <path d="M6.548,58.367C6.548,58.367 4.619,49.131 3.403,43.307C3.168,42.18 3.458,41.007 4.192,40.119C4.925,39.231 6.023,38.725 7.175,38.744C10.457,38.798 14.621,38.867 16.843,38.904C17.793,38.919 18.644,39.497 19.009,40.375C20.88,44.878 26.481,58.354 26.481,58.354L6.548,58.367Z" style="fill:#f3775b;"/>
    <path d="M9.854,58.37C9.854,58.37 7.736,48.364 6.438,42.238C6.199,41.109 6.487,39.933 7.221,39.043C7.955,38.153 9.054,37.645 10.207,37.664C13.748,37.723 18.364,37.799 20.738,37.838C21.686,37.853 22.535,38.429 22.901,39.303C24.853,43.967 30.875,58.356 30.875,58.356L9.854,58.37Z" style="fill:#a35f47;"/>
    <path d="M11.858,58.37C11.858,58.37 9.817,50.218 10.1,42.49C10.431,33.456 15.948,30.891 19.693,30.681C26.375,30.308 29.299,34.185 32.064,37.025C36.638,41.725 40.897,44.679 52.899,46.513C55.066,46.845 57.838,43.665 57.963,43.672C58.088,43.678 58.2,43.752 58.256,43.864C58.414,44.287 58.283,45.354 57.828,46.107C57.778,46.191 59.875,45.677 61.135,44.641C61.786,44.105 62.002,43.868 62.369,43.985C63.06,44.206 64.073,47.899 59.254,49.753C57.829,50.301 57.303,50.555 53.305,50.651C40.604,50.958 29.672,43.327 29.672,43.327C29.672,43.327 29.646,43.477 29.702,43.725C31.198,50.38 27.812,58.42 27.812,58.42L11.858,58.37Z" style="fill:#f3775b;"/>
    <clipPath id="_clip2">
        <path d="M11.858,58.37C11.858,58.37 9.817,50.218 10.1,42.49C10.431,33.456 15.948,30.891 19.693,30.681C26.375,30.308 29.299,34.185 32.064,37.025C36.638,41.725 40.897,44.679 52.899,46.513C55.066,46.845 57.838,43.665 57.963,43.672C58.088,43.678 58.2,43.752 58.256,43.864C58.414,44.287 58.283,45.354 57.828,46.107C57.778,46.191 59.875,45.677 61.135,44.641C61.786,44.105 62.002,43.868 62.369,43.985C63.06,44.206 64.073,47.899 59.254,49.753C57.829,50.301 57.303,50.555 53.305,50.651C40.604,50.958 29.672,43.327 29.672,43.327C29.672,43.327 29.646,43.477 29.702,43.725C31.198,50.38 27.812,58.42 27.812,58.42L11.858,58.37Z"/>
    </clipPath>
    <g clip-path="url(#_clip2)">
        <path d="M60.618,42.175C59.375,44.145 58.383,45.593 57.804,46.179C57.804,46.179 58.183,47.379 56.95,48.477C56.95,48.477 60.061,47.49 60.618,42.175Z" style="fill:#a46048;"/>
    </g>
    <path d="M10.728,58.37C10.728,58.37 8.761,51.761 9.044,44.033C9.375,35 15.948,30.891 19.693,30.681C26.375,30.308 29.242,34.242 32.064,37.025C38.155,43.034 46.11,44.936 46.11,44.936C44.546,44.532 43.306,45.935 42.8,47.009C42.031,48.644 42.143,50.579 43.164,51.301C38.978,49.687 35.02,47.114 30.332,43.816C30.805,49.844 31.497,54.474 34.715,58.442L10.728,58.37Z" style="fill:#c1c2e6;"/>
    <clipPath id="_clip3">
        <path d="M10.728,58.37C10.728,58.37 8.761,51.761 9.044,44.033C9.375,35 15.948,30.891 19.693,30.681C26.375,30.308 29.242,34.242 32.064,37.025C38.155,43.034 46.11,44.936 46.11,44.936C44.546,44.532 43.306,45.935 42.8,47.009C42.031,48.644 42.143,50.579 43.164,51.301C38.978,49.687 35.02,47.114 30.332,43.816C30.805,49.844 31.497,54.474 34.715,58.442L10.728,58.37Z"/>
    </clipPath>
    <g clip-path="url(#_clip3)">
        <path d="M15.688,44.484C15.628,50.359 16.131,55.76 17.156,60.721L20.133,61.096C16.51,56.155 16.549,52.48 15.688,44.484Z" style="fill:#a4a6cf;"/>
        <path d="M21.531,31.717C21.531,31.717 24.071,41.11 19.377,43.214C19.377,43.214 25.323,41.411 22.866,31.62L21.531,31.717Z" style="fill:#a4a6cf;"/>
        <path d="M17.033,30.931C17.033,30.931 21.677,30.969 25.79,33.301C28.636,34.914 32.537,38.923 34.382,39.733C36.227,40.542 34.828,36.218 34.828,36.218C34.828,36.218 28.528,26.562 17.033,30.931Z" style="fill:#fff;fill-opacity:0.32;"/>
        <path d="M42.239,43.328C42.239,43.328 39.539,42.509 38.978,45.825C38.518,48.547 40.375,50.358 40.375,50.358L33.362,47.537L36.731,40.314L42.239,43.328Z" style="fill:#a4a6cf;"/>
    </g>
    <path d="M17.033,26.648C17.82,29.061 18.224,30.944 17.751,31.609C18.477,33.809 20.241,35.108 22.312,36.139C22.761,35.59 23.447,34.37 23.709,32.458C24.031,30.103 24.201,29.666 26.479,26.948L17.033,26.648Z" style="fill:#f3775b;"/>
    <clipPath id="_clip4">
        <path d="M17.033,26.648C17.82,29.061 18.224,30.944 17.751,31.609C18.477,33.809 20.241,35.108 22.312,36.139C22.761,35.59 23.447,34.37 23.709,32.458C24.031,30.103 24.201,29.666 26.479,26.948L17.033,26.648Z"/>
    </clipPath>
    <g clip-path="url(#_clip4)">
        <path d="M27.806,27.185C27.806,27.185 17.796,28.148 18.061,38.821C18.232,45.728 15.623,28.485 15.623,28.485L27.806,27.185Z" style="fill:#664e39;fill-opacity:0.56;"/>
    </g>
    <path d="M34.837,37.705C34.837,37.705 31.837,36.242 30.278,39.415C28.931,42.155 31.109,44.664 31.109,44.664C33.121,46.274 35.613,48.478 37.82,49.231C37.052,48.969 36.333,46.996 37.786,44.611C39.375,42.004 41.644,42.433 41.644,42.433C38.998,40.304 34.837,37.705 34.837,37.705Z" style="fill:#888bb6;"/>
    <clipPath id="_clip5">
        <path d="M34.837,37.705C34.837,37.705 31.837,36.242 30.278,39.415C28.931,42.155 31.109,44.664 31.109,44.664C33.121,46.274 35.613,48.478 37.82,49.231C37.052,48.969 36.333,46.996 37.786,44.611C39.375,42.004 41.644,42.433 41.644,42.433C38.998,40.304 34.837,37.705 34.837,37.705Z"/>
    </clipPath>
    <g clip-path="url(#_clip5)">
        <path d="M29.522,38.146C29.522,38.146 32.888,42.902 39.285,45.15L40.387,51.258L30.76,48.255L27.929,43.609L29.522,38.146Z" style="fill:#767aab;"/>
    </g>
    <path d="M21.257,10.24C23.182,10.24 28.789,10.657 28.512,17.449C28.415,19.819 29.331,21.622 30.023,22.633C30.191,22.853 30.264,23.132 30.226,23.407C30.188,23.682 30.042,23.93 29.82,24.097C27.42,25.982 27.615,29.861 21.257,29.733C17.353,29.654 14.182,25.366 14.182,19.986C14.182,14.607 17.352,10.24 21.257,10.24Z" style="fill:#f3775b;"/>
    <clipPath id="_clip6">
        <path d="M21.257,10.24C23.182,10.24 28.789,10.657 28.512,17.449C28.415,19.819 29.331,21.622 30.023,22.633C30.191,22.853 30.264,23.132 30.226,23.407C30.188,23.682 30.042,23.93 29.82,24.097C27.42,25.982 27.615,29.861 21.257,29.733C17.353,29.654 14.182,25.366 14.182,19.986C14.182,14.607 17.352,10.24 21.257,10.24Z"/>
    </clipPath>
    <g clip-path="url(#_clip6)">
        <path d="M21.544,4.968C21.544,4.968 33.324,28.204 19.67,31.39L29.152,35.04C29.152,35.04 45.893,13.168 25.603,5.296" style="fill:#f3ab9b;"/>
    </g>
    <path d="M9.016,28.704C12.094,24.899 10.793,22.723 11.338,18.954C11.765,16.014 14.451,10.823 19.341,10.204C27.743,9.14 28.541,15.672 28.541,15.672C25.896,14.31 22.972,17.72 22.472,18.993C20.836,23.161 23.033,21.424 19.195,25.199C16.275,28.072 19.751,30.774 16.836,35.535C15.647,37.476 12.18,42.12 8.029,40.568C3.817,38.994 4.311,34.521 9.016,28.704Z" style="fill:#1f235c;"/>
</svg>
