<?xml version="1.0" encoding="UTF-8" standalone="no"?>
<!DOCTYPE svg PUBLIC "-//W3C//DTD SVG 1.1//EN" "http://www.w3.org/Graphics/SVG/1.1/DTD/svg11.dtd">
<svg width="100%" height="100%" viewBox="0 0 65 65" version="1.1" xmlns="http://www.w3.org/2000/svg" xmlns:xlink="http://www.w3.org/1999/xlink" xml:space="preserve" xmlns:serif="http://www.serif.com/" style="fill-rule:evenodd;clip-rule:evenodd;stroke-linecap:round;stroke-miterlimit:1;">
    <rect id="BP-Monitor" x="0.048" y="0.727" width="64" height="64" style="fill:none;"/>
    <path d="M2.887,49.117C2.335,49.265 1.951,49.766 1.951,50.337C1.951,50.909 2.335,51.409 2.887,51.557C11.074,53.751 27.998,58.286 34.131,59.929C35.626,60.33 37.2,60.327 38.694,59.921C42.609,58.857 50.713,56.656 56.151,55.178C56.803,55.001 57.253,54.407 57.249,53.732C57.244,53.057 56.785,52.469 56.131,52.302C45.456,49.565 22.847,43.769 22.847,43.769C22.847,43.769 9.976,47.218 2.887,49.117Z" style="fill:#d5d6e6;"/>
    <path d="M29.369,17.574C28.828,17.733 28.458,18.23 28.462,18.794C28.466,19.357 28.842,19.85 29.385,20.002C35.092,21.596 45.053,24.379 49.637,25.66C51.227,26.104 52.911,26.09 54.494,25.618C56.431,25.041 59.213,24.213 61.627,23.494C62.264,23.304 62.698,22.714 62.689,22.048C62.68,21.383 62.231,20.805 61.589,20.632C53.693,18.505 39.344,14.64 39.344,14.64C39.344,14.64 33.554,16.342 29.369,17.574Z" style="fill:#dadae8;"/>
    <path d="M35.91,59.284L10.929,34.058C10.929,34.058 10.929,44.398 10.929,49.631C10.929,51.376 12.101,52.904 13.787,53.356C20.345,55.113 35.91,59.284 35.91,59.284Z" style="fill:#8181cb;"/>
    <clipPath id="_clip1">
        <path d="M35.91,59.284L10.929,34.058C10.929,34.058 10.929,44.398 10.929,49.631C10.929,51.376 12.101,52.904 13.787,53.356C20.345,55.113 35.91,59.284 35.91,59.284Z"/>
    </clipPath>
    <g clip-path="url(#_clip1)">
        <path d="M28.291,60.678L35.911,55.59L12.934,32.114L6.432,35.094L28.291,60.678Z" style="fill:#2b307e;fill-opacity:0.510526;"/>
    </g>
    <path d="M32.788,17.274C32.788,17.274 16.819,17.09 12.266,20.263C5.391,25.054 24.305,29.452 35.416,30.709C55.162,32.943 68.961,42.829 36.427,42.963" style="fill:none;stroke:#b2b4d7;stroke-width:3px;"/>
    <path d="M32.788,16.711C32.788,16.711 16.819,16.528 12.266,19.701C5.391,24.492 24.305,28.89 35.416,30.147C55.162,32.381 68.961,42.266 36.427,42.4" style="fill:none;stroke:#ecedf5;stroke-opacity:0.501961;stroke-width:1.05px;"/>
    <path d="M28.441,21.022C27.171,19.763 25.327,19.273 23.599,19.736C19.33,20.88 11.669,22.933 11.669,22.933C11.669,22.933 7.969,23.924 4.773,24.781C3.833,25.033 3.099,25.768 2.849,26.709C2.599,27.649 2.871,28.652 3.563,29.337L33.047,58.561C34.457,59.959 36.503,60.502 38.421,59.989C43.184,58.712 52.306,56.268 57.546,54.864C58.361,54.645 58.998,54.007 59.215,53.191C59.432,52.375 59.195,51.505 58.596,50.911C51.675,44.051 34.392,26.921 28.441,21.022Z" style="fill:#8e90cb;"/>
    <clipPath id="_clip2">
        <path d="M28.441,21.022C27.171,19.763 25.327,19.273 23.599,19.736C19.33,20.88 11.669,22.933 11.669,22.933C11.669,22.933 7.969,23.924 4.773,24.781C3.833,25.033 3.099,25.768 2.849,26.709C2.599,27.649 2.871,28.652 3.563,29.337L33.047,58.561C34.457,59.959 36.503,60.502 38.421,59.989C43.184,58.712 52.306,56.268 57.546,54.864C58.361,54.645 58.998,54.007 59.215,53.191C59.432,52.375 59.195,51.505 58.596,50.911C51.675,44.051 34.392,26.921 28.441,21.022Z"/>
    </clipPath>
    <g clip-path="url(#_clip2)">
        <path d="M28.716,17.66C27.74,16.692 26.322,16.316 24.994,16.672C20.856,17.78 11.674,20.241 5.931,21.78C4.907,22.054 4.107,22.855 3.835,23.88C3.563,24.905 3.86,25.997 4.613,26.743C12.171,34.235 29.231,51.145 34.496,56.363C35.473,57.331 36.89,57.708 38.219,57.352C42.433,56.223 51.879,53.692 57.596,52.16C58.556,51.903 59.304,51.152 59.559,50.192C59.814,49.232 59.537,48.209 58.831,47.51C51.396,40.14 34.036,22.933 28.716,17.66Z" style="fill:#b8bae3;"/>
    </g>
    <path d="M35.003,31.061C34.077,30.161 32.748,29.812 31.499,30.142C28.133,31.031 21.397,32.81 18.018,33.702C17.604,33.811 17.281,34.135 17.173,34.549C17.064,34.963 17.187,35.403 17.494,35.702C21.176,39.281 30.623,48.461 34.57,52.296C35.671,53.366 37.252,53.78 38.736,53.389C42.207,52.472 48.581,50.788 51.837,49.929C52.251,49.819 52.574,49.496 52.682,49.082C52.791,48.668 52.668,48.227 52.361,47.929C48.588,44.262 38.762,34.713 35.003,31.061Z" style="fill:#fff;"/>
    <path d="M34.801,33.659C33.996,32.861 32.828,32.549 31.732,32.84C29.58,33.411 25.954,34.372 23.699,34.97C23.288,35.079 22.966,35.4 22.856,35.811C22.747,36.222 22.865,36.661 23.168,36.961C25.516,39.288 30.1,43.832 32.628,46.337C33.73,47.43 35.329,47.857 36.829,47.459C39.007,46.882 42.169,46.043 44.209,45.502C44.62,45.393 44.942,45.072 45.052,44.661C45.162,44.25 45.043,43.811 44.74,43.511C42.235,41.028 37.183,36.021 34.801,33.659Z" style="fill:#2b307e;"/>
    <path d="M26.89,22.459C26.145,21.763 25.092,21.502 24.108,21.77C20.714,22.694 12.764,24.859 9.287,25.806C8.95,25.898 8.689,26.166 8.606,26.506C8.523,26.846 8.632,27.204 8.889,27.441C9.398,27.909 9.98,28.446 10.483,28.908C11.243,29.608 12.308,29.869 13.304,29.6C16.731,28.677 24.741,26.518 28.172,25.594C28.497,25.506 28.749,25.25 28.83,24.924C28.911,24.598 28.809,24.253 28.564,24.024C28.035,23.529 27.417,22.952 26.89,22.459Z" style="fill:#2b307e;"/>
    <clipPath id="_clip3">
        <path d="M26.89,22.459C26.145,21.763 25.092,21.502 24.108,21.77C20.714,22.694 12.764,24.859 9.287,25.806C8.95,25.898 8.689,26.166 8.606,26.506C8.523,26.846 8.632,27.204 8.889,27.441C9.398,27.909 9.98,28.446 10.483,28.908C11.243,29.608 12.308,29.869 13.304,29.6C16.731,28.677 24.741,26.518 28.172,25.594C28.497,25.506 28.749,25.25 28.83,24.924C28.911,24.598 28.809,24.253 28.564,24.024C28.035,23.529 27.417,22.952 26.89,22.459Z"/>
    </clipPath>
    <g clip-path="url(#_clip3)">
        <path d="M26.098,25.038C25.353,24.342 24.301,24.081 23.317,24.349C19.923,25.273 11.973,27.438 8.496,28.385C8.158,28.477 7.897,28.745 7.815,29.085C7.732,29.425 7.84,29.783 8.097,30.02C8.606,30.488 9.189,31.025 9.691,31.487C10.451,32.187 11.516,32.448 12.513,32.179C15.939,31.256 23.949,29.098 27.381,28.173C27.705,28.085 27.957,27.829 28.038,27.503C28.12,27.177 28.018,26.832 27.772,26.603C27.243,26.108 26.625,25.531 26.098,25.038Z" style="fill:#fff;"/>
        <clipPath id="_clip4">
            <path d="M26.098,25.038C25.353,24.342 24.301,24.081 23.317,24.349C19.923,25.273 11.973,27.438 8.496,28.385C8.158,28.477 7.897,28.745 7.815,29.085C7.732,29.425 7.84,29.783 8.097,30.02C8.606,30.488 9.189,31.025 9.691,31.487C10.451,32.187 11.516,32.448 12.513,32.179C15.939,31.256 23.949,29.098 27.381,28.173C27.705,28.085 27.957,27.829 28.038,27.503C28.12,27.177 28.018,26.832 27.772,26.603C27.243,26.108 26.625,25.531 26.098,25.038Z"/>
        </clipPath>
        <g clip-path="url(#_clip4)">
            <path d="M32.788,17.274C32.788,17.274 16.819,17.09 12.266,20.263C5.391,25.054 24.305,29.452 35.416,30.709C55.162,32.943 68.961,42.829 36.427,42.963" style="fill:none;stroke:#b2b4d7;stroke-width:2.95px;"/>
            <path d="M32.788,16.711C32.788,16.711 16.819,16.528 12.266,19.701C5.391,24.492 24.305,28.89 35.416,30.147C55.162,32.381 68.961,42.266 36.427,42.4" style="fill:none;stroke:#ecedf5;stroke-opacity:0.501961;stroke-width:1.05px;"/>
        </g>
    </g>
    <path d="M33.596,20.81C31.215,20.375 29.491,17.717 29.491,14.039C29.491,9.475 32.146,5.058 35.416,4.182C36.277,3.951 37.095,3.989 37.834,4.253L56.237,9.04L52.156,25.794L33.593,20.821L33.596,20.81Z" style="fill:#f3775b;"/>
    <clipPath id="_clip5">
        <path d="M33.596,20.81C31.215,20.375 29.491,17.717 29.491,14.039C29.491,9.475 32.146,5.058 35.416,4.182C36.277,3.951 37.095,3.989 37.834,4.253L56.237,9.04L52.156,25.794L33.593,20.821L33.596,20.81Z"/>
    </clipPath>
    <g clip-path="url(#_clip5)">
        <path d="M30.385,6.698C30.385,6.698 41.913,9.8 46.168,10.944C46.559,11.049 46.884,11.319 47.06,11.684C47.235,12.048 47.244,12.471 47.083,12.842C46.612,14.066 46.221,16.047 46.712,18.571C47.576,23.018 49.398,24.469 51.961,25.982" style="fill:none;stroke:#2b307e;stroke-opacity:0.497368;stroke-width:1.05px;stroke-linejoin:round;"/>
    </g>
    <path d="M54.113,9.05C57.39,8.172 60.051,11.189 60.051,15.784C60.051,20.378 57.39,24.821 54.113,25.699C50.835,26.578 48.175,23.56 48.175,18.966C48.175,14.371 50.835,9.928 54.113,9.05Z" style="fill:#5f64b9;"/>
    <clipPath id="_clip6">
        <path d="M54.113,9.05C57.39,8.172 60.051,11.189 60.051,15.784C60.051,20.378 57.39,24.821 54.113,25.699C50.835,26.578 48.175,23.56 48.175,18.966C48.175,14.371 50.835,9.928 54.113,9.05Z"/>
    </clipPath>
    <g clip-path="url(#_clip6)">
        <path d="M51.453,2.089C55.634,0.969 59.029,5.027 59.029,11.147C59.029,17.267 55.634,23.144 51.453,24.265C47.272,25.385 43.877,21.326 43.877,15.207C43.877,9.087 47.272,3.209 51.453,2.089Z" style="fill:#2b307e;"/>
    </g>
    <path d="M30.306,17.939C30.306,17.939 29.427,16.599 29.111,13.858C28.919,12.198 28.993,9.699 29.389,7.808C29.438,7.603 29.568,7.426 29.75,7.317C29.932,7.209 30.15,7.179 30.354,7.234C32.181,7.722 36.615,8.914 36.615,8.914L30.306,17.939Z" style="fill:#f3775b;"/>
</svg>
