<?xml version="1.0" encoding="UTF-8" standalone="no"?>
<!DOCTYPE svg PUBLIC "-//W3C//DTD SVG 1.1//EN" "http://www.w3.org/Graphics/SVG/1.1/DTD/svg11.dtd">
<svg width="100%" height="100%" viewBox="0 0 65 65" version="1.1" xmlns="http://www.w3.org/2000/svg" xmlns:xlink="http://www.w3.org/1999/xlink" xml:space="preserve" xmlns:serif="http://www.serif.com/" style="fill-rule:evenodd;clip-rule:evenodd;stroke-linejoin:round;stroke-miterlimit:2;">
    <rect id="Bread" x="0.283" y="0.133" width="64" height="64" style="fill:none;"/>
    <ellipse cx="34.121" cy="39.073" rx="29.442" ry="16.876" style="fill:#f2f2fa;"/>
    <path d="M32.444,10.704C32.687,10.704 32.929,10.707 33.17,10.713C48.158,11.072 60.208,22.513 60.208,36.613C60.208,44.591 47.767,53.563 32.444,53.563C17.12,53.563 4.679,45.277 4.679,36.613C4.679,31.907 6.177,27.587 8.369,23.695C8.762,22.996 12.552,22.56 13.689,21.328C14.646,20.291 13.596,17.914 14.518,16.825C17.502,13.298 19.992,12.432 23.542,11.927C24.413,11.804 27.705,12.446 29.85,12.894C30.847,13.102 31.402,10.704 32.444,10.704Z" style="fill:#f1765a;"/>
    <clipPath id="_clip1">
        <path d="M32.444,10.704C32.687,10.704 32.929,10.707 33.17,10.713C48.158,11.072 60.208,22.513 60.208,36.613C60.208,44.591 47.767,53.563 32.444,53.563C17.12,53.563 4.679,45.277 4.679,36.613C4.679,31.907 6.177,27.587 8.369,23.695C8.762,22.996 12.552,22.56 13.689,21.328C14.646,20.291 13.596,17.914 14.518,16.825C17.502,13.298 19.992,12.432 23.542,11.927C24.413,11.804 27.705,12.446 29.85,12.894C30.847,13.102 31.402,10.704 32.444,10.704Z"/>
    </clipPath>
    <g clip-path="url(#_clip1)">
        <ellipse cx="36.431" cy="21.59" rx="30.671" ry="23.48" style="fill:#f19a87;"/>
        <path d="M5.76,23.851C5.76,23.851 5.885,23.829 6.12,23.804C8.616,23.528 28.548,22.475 35.046,41.638C35.046,41.638 36.38,16.554 11.973,17.362L5.76,23.851Z" style="fill:#d25950;"/>
        <clipPath id="_clip2">
            <path d="M5.76,23.851C5.76,23.851 5.885,23.829 6.12,23.804C8.616,23.528 28.548,22.475 35.046,41.638C35.046,41.638 36.38,16.554 11.973,17.362L5.76,23.851Z"/>
        </clipPath>
        <g clip-path="url(#_clip2)">
            <path d="M3.814,26.333C3.814,26.333 20.443,23.587 33.118,42.911C33.118,42.911 35.09,43.858 35.046,42.955C34.746,36.813 31.815,23.094 9.189,21.3L3.814,26.333Z" style="fill:#eed0cc;"/>
        </g>
        <path d="M20.14,11.952C20.14,11.952 44.039,11.24 49.101,29.973C49.101,29.973 49.844,30.513 49.689,29.629C48.807,24.587 42.63,11.987 23.835,9.212L20.14,11.952Z" style="fill:#eed0cc;"/>
        <path d="M20.403,11.948C20.403,11.948 44.042,9.404 49.689,29.736C49.689,29.736 51.28,10.869 24.371,9.682L20.403,11.948Z" style="fill:#d25950;"/>
    </g>
</svg>
