<?xml version="1.0" encoding="UTF-8" standalone="no"?><!DOCTYPE svg PUBLIC "-//W3C//DTD SVG 1.1//EN" "http://www.w3.org/Graphics/SVG/1.1/DTD/svg11.dtd"><svg width="111px" height="110px" version="1.1" xmlns="http://www.w3.org/2000/svg" xmlns:xlink="http://www.w3.org/1999/xlink" xml:space="preserve" xmlns:serif="http://www.serif.com/" style="fill-rule:evenodd;clip-rule:evenodd;stroke-linejoin:round;stroke-miterlimit:2;"><rect id="Calendar" x="0.738" y="0" width="110" height="110" style="fill:none;"/><g><g><path d="M94.87,12.536l-80.961,11.346l11.206,79.96c0,0 0.35,-0.049 1.002,-0.14c21.207,-2.972 40.364,-14.247 53.257,-31.344c12.894,-17.096 18.468,-38.615 15.496,-59.821c0,-0.001 0,-0.001 0,-0.001Z" style="fill:#d1d2e2;fill-opacity:0.75;"/><path d="M93.447,21.469l-80.961,11.347l9.729,69.416c0,0 37.284,-5.225 61.249,-8.584c10.886,-1.525 18.475,-11.587 16.949,-22.474c-2.876,-20.522 -6.966,-49.705 -6.966,-49.705Z" style="fill:#f2f2fa;"/><clipPath id="_clip1"><path d="M93.447,21.469l-80.961,11.347l9.729,69.416c0,0 37.284,-5.225 61.249,-8.584c10.886,-1.525 18.475,-11.587 16.949,-22.474c-2.876,-20.522 -6.966,-49.705 -6.966,-49.705Z"/></clipPath><g clip-path="url(#_clip1)"><path d="M85.375,93.408c3.954,-3.982 5.928,-8.494 4.137,-14.01c5.902,-1.491 9.175,-3.948 10.983,-6.943l4.931,19.949l-20.051,1.004Z" style="fill:#717594;fill-opacity:0.64;"/></g><path d="M93.447,21.469l-80.961,11.347l1.388,9.904l80.746,-12.884l-1.173,-8.367Z" style="fill:#d1d2e2;"/><path d="M91.829,9.925l-80.961,11.347l2.639,18.828l80.961,-11.346l-2.639,-18.829Z" style="fill:#f1765a;"/><g><g><path d="M32.934,19.445c4.144,-0.581 7.98,2.312 8.561,6.456c0.581,4.144 -2.312,7.98 -6.456,8.561c-4.144,0.581 -7.98,-2.312 -8.561,-6.456c-0.581,-4.144 2.312,-7.98 6.456,-8.561Z" style="fill:#c84f4d;"/><path d="M33.359,22.478c2.47,-0.347 4.757,1.378 5.103,3.848c0.346,2.47 -1.378,4.757 -3.848,5.103c-2.471,0.346 -4.757,-1.378 -5.103,-3.848c-0.347,-2.471 1.378,-4.757 3.848,-5.103Z" style="fill:#fff;"/></g><path d="M34.497,13.404c-0.179,-1.275 -1.357,-2.164 -2.632,-1.985c-0.015,0.002 -0.029,0.004 -0.044,0.006c-1.275,0.179 -2.164,1.357 -1.985,2.632c0.475,3.388 1.355,9.671 1.83,13.059c0.179,1.275 1.357,2.164 2.632,1.985c0.015,-0.002 0.029,-0.004 0.044,-0.006c1.275,-0.179 2.164,-1.357 1.985,-2.632c-0.475,-3.388 -1.355,-9.671 -1.83,-13.059Z" style="fill:#fff;"/></g><g><g><path d="M70.311,14.207c4.144,-0.581 7.98,2.312 8.561,6.456c0.581,4.144 -2.312,7.98 -6.456,8.561c-4.144,0.58 -7.98,-2.312 -8.561,-6.457c-0.581,-4.144 2.312,-7.98 6.456,-8.56Z" style="fill:#c84f4d;"/><path d="M70.736,17.239c2.471,-0.346 4.757,1.379 5.103,3.849c0.347,2.47 -1.378,4.757 -3.848,5.103c-2.47,0.346 -4.757,-1.378 -5.103,-3.849c-0.346,-2.47 1.378,-4.756 3.848,-5.103Z" style="fill:#fff;"/></g><path d="M71.874,8.166c-0.178,-1.275 -1.357,-2.164 -2.632,-1.985c-0.015,0.002 -0.029,0.004 -0.044,0.006c-1.275,0.179 -2.164,1.357 -1.985,2.632c0.475,3.388 1.355,9.671 1.83,13.059c0.179,1.275 1.357,2.163 2.632,1.985c0.015,-0.002 0.03,-0.004 0.044,-0.007c1.275,-0.178 2.164,-1.357 1.985,-2.632c-0.474,-3.388 -1.355,-9.67 -1.83,-13.058Z" style="fill:#fff;"/></g><path d="M49.225,76.953c3.843,-3.352 9.08,-11.476 8.138,-18.198c-0.868,-6.196 -5.235,-9.067 -10.446,-8.337c-6.254,0.877 -9.082,6.944 -8.275,12.702l5.02,-0.346c-0.325,-3.192 0.286,-6.849 3.994,-7.369c2.786,-0.391 4.251,1.458 4.598,3.932c1.043,7.445 -6.747,15.435 -11.301,19.4l0.617,4.401l20.244,-2.837l-0.703,-5.014l-11.886,1.666Z" style="fill:#2b307f;fill-opacity:0.8;fill-rule:nonzero;"/><path d="M68.553,47.81l0.264,1.883c0.289,2.058 -0.688,3.111 -2.612,3.38l-3.788,0.531l0.592,4.226l6.614,-0.927l3.066,21.874l5.011,-0.702l-4.336,-30.939l-4.811,0.674Z" style="fill:#2b307f;fill-opacity:0.8;fill-rule:nonzero;"/></g></g></svg>