<?xml version="1.0" encoding="UTF-8" standalone="no"?>
<!DOCTYPE svg PUBLIC "-//W3C//DTD SVG 1.1//EN" "http://www.w3.org/Graphics/SVG/1.1/DTD/svg11.dtd">
<svg width="100%" height="100%" viewBox="0 0 65 65" version="1.1" xmlns="http://www.w3.org/2000/svg" xmlns:xlink="http://www.w3.org/1999/xlink" xml:space="preserve" xmlns:serif="http://www.serif.com/" style="fill-rule:evenodd;clip-rule:evenodd;stroke-linejoin:round;stroke-miterlimit:1.41421;">
    <rect id="Calendar" x="0.894" y="0.015" width="64" height="64" style="fill:none;"/>
    <rect x="5.882" y="14.828" width="52" height="44.585" style="fill:#d1d2e2;"/>
    <rect x="7.567" y="9.326" width="52" height="51.357" style="fill:#d1d2e2;fill-opacity:0.75;"/>
    <path d="M57.882,14.828L5.882,14.828L5.882,59.413C5.882,59.413 29.829,59.413 45.221,59.413C52.213,59.413 57.882,53.745 57.882,46.752C57.882,33.571 57.882,14.828 57.882,14.828Z" style="fill:#f2f2fa;"/>
    <clipPath id="_clip1">
        <path d="M57.882,14.828L5.882,14.828L5.882,59.413C5.882,59.413 29.829,59.413 45.221,59.413C52.213,59.413 57.882,53.745 57.882,46.752C57.882,33.571 57.882,14.828 57.882,14.828Z"/>
    </clipPath>
    <g clip-path="url(#_clip1)">
        <path d="M46.446,59.431C49.289,57.271 50.93,54.603 50.289,50.971C54.138,50.552 56.417,49.294 57.821,47.567L59.166,60.568L46.446,59.431Z" style="fill:#717594;fill-opacity:0.639216;"/>
    </g>
    <path d="M57.882,14.828L5.882,14.828L5.882,21.19L57.882,20.202L57.882,14.828Z" style="fill:#d1d2e2;"/>
    <rect x="5.882" y="7.413" width="52" height="12.093" style="fill:#f1765a;"/>
    <g>
        <circle cx="19.275" cy="13.033" r="3.403" style="fill:#c84f4d;"/>
        <circle cx="44.472" cy="13.033" r="3.403" style="fill:#c84f4d;"/>
    </g>
    <path d="M20.793,4.543C20.793,3.724 20.129,3.061 19.31,3.061C19.301,3.061 19.291,3.061 19.282,3.061C18.463,3.061 17.799,3.724 17.799,4.543C17.799,6.719 17.799,10.755 17.799,12.931C17.799,13.75 18.463,14.413 19.282,14.413C19.291,14.413 19.301,14.413 19.31,14.413C20.129,14.413 20.793,13.75 20.793,12.931C20.793,10.755 20.793,6.719 20.793,4.543Z" style="fill:#90b5bb;"/>
    <path d="M45.994,4.543C45.994,3.724 45.33,3.061 44.511,3.061C44.502,3.061 44.492,3.061 44.483,3.061C43.664,3.061 43,3.724 43,4.543C43,6.719 43,10.755 43,12.931C43,13.75 43.664,14.413 44.483,14.413C44.492,14.413 44.502,14.413 44.511,14.413C45.33,14.413 45.994,13.75 45.994,12.931C45.994,10.755 45.994,6.719 45.994,4.543Z" style="fill:#90b5bb;"/>
    <path d="M20.793,4.436C20.793,4.043 20.637,3.666 20.359,3.388C20.081,3.11 19.703,2.954 19.31,2.954C19.301,2.954 19.291,2.954 19.282,2.954C18.889,2.954 18.512,3.11 18.233,3.388C17.955,3.666 17.799,4.043 17.799,4.436C17.799,6.034 17.799,8.56 17.799,10.157C17.799,10.551 17.955,10.928 18.233,11.206C18.512,11.484 18.889,11.64 19.282,11.64C19.291,11.64 19.301,11.64 19.31,11.64C19.703,11.64 20.081,11.484 20.359,11.206C20.637,10.928 20.793,10.551 20.793,10.157C20.793,8.56 20.793,6.034 20.793,4.436Z" style="fill:#b0cacf;"/>
    <path d="M45.994,4.436C45.994,4.043 45.838,3.666 45.56,3.388C45.282,3.11 44.904,2.954 44.511,2.954C44.502,2.954 44.492,2.954 44.483,2.954C44.09,2.954 43.713,3.11 43.434,3.388C43.156,3.666 43,4.043 43,4.436C43,6.034 43,8.56 43,10.157C43,10.551 43.156,10.928 43.434,11.206C43.713,11.484 44.09,11.64 44.483,11.64C44.492,11.64 44.502,11.64 44.511,11.64C44.904,11.64 45.282,11.484 45.56,11.206C45.838,10.928 45.994,10.551 45.994,10.157C45.994,8.56 45.994,6.034 45.994,4.436Z" style="fill:#b0cacf;"/>
    <path d="M19.906,4.682C19.906,4.346 19.633,4.073 19.297,4.073C19.296,4.073 19.296,4.073 19.296,4.073C18.959,4.073 18.687,4.346 18.687,4.682C18.687,5.568 18.687,7.201 18.687,8.087C18.687,8.423 18.959,8.696 19.296,8.696C19.296,8.696 19.296,8.696 19.297,8.696C19.633,8.696 19.906,8.423 19.906,8.087C19.906,7.201 19.906,5.568 19.906,4.682Z" style="fill:#dfe4e5;fill-opacity:0.396078;"/>
    <path d="M45.107,4.682C45.107,4.346 44.834,4.073 44.498,4.073C44.497,4.073 44.497,4.073 44.497,4.073C44.16,4.073 43.888,4.346 43.888,4.682C43.888,5.568 43.888,7.201 43.888,8.087C43.888,8.423 44.16,8.696 44.497,8.696C44.497,8.696 44.497,8.696 44.498,8.696C44.834,8.696 45.107,8.423 45.107,8.087C45.107,7.201 45.107,5.568 45.107,4.682Z" style="fill:#dfe4e5;fill-opacity:0.396078;"/>
    <path d="M25.128,45.874C27.844,44.102 31.861,39.447 31.861,35.129C31.861,31.149 29.363,28.956 26.016,28.956C22,28.956 19.682,32.528 19.682,36.226L22.875,36.451C22.952,34.412 23.66,32.162 26.042,32.162C27.831,32.162 28.591,33.456 28.591,35.045C28.591,39.826 22.978,44.172 19.76,46.268L19.76,49.094L32.762,49.094L32.762,45.874L25.128,45.874Z" style="fill:#4e838f;fill-rule:nonzero;"/>
    <path d="M39.876,29.223L39.876,30.432C39.876,31.754 39.168,32.331 37.932,32.331L35.499,32.331L35.499,35.045L39.747,35.045L39.747,49.094L42.965,49.094L42.965,29.223L39.876,29.223Z" style="fill:#4e838f;fill-rule:nonzero;"/>
</svg>
