<?xml version="1.0" encoding="UTF-8" standalone="no"?>
<!DOCTYPE svg PUBLIC "-//W3C//DTD SVG 1.1//EN" "http://www.w3.org/Graphics/SVG/1.1/DTD/svg11.dtd">
<svg width="100%" height="100%" viewBox="0 0 65 65" version="1.1" xmlns="http://www.w3.org/2000/svg" xmlns:xlink="http://www.w3.org/1999/xlink" xml:space="preserve" xmlns:serif="http://www.serif.com/" style="fill-rule:evenodd;clip-rule:evenodd;stroke-linejoin:round;stroke-miterlimit:2;">
    <rect id="Canned-food" x="0.025" y="0.133" width="64" height="64" style="fill:none;"/>
    <path d="M31.684,49.217C44.351,49.217 58.808,52.027 58.808,55.489C58.808,58.952 44.351,61.762 31.684,61.762C19.017,61.762 12.906,58.952 12.906,55.489C12.906,52.027 19.017,49.217 31.684,49.217Z" style="fill:#b5b8e2;fill-opacity:0.18;"/>
    <g>
        <path d="M50.754,54.841C50.754,57.837 42.274,60.27 31.83,60.27C21.385,60.27 12.906,57.837 12.906,54.841L12.906,6.561L50.754,6.561L50.754,54.841Z" style="fill:#d0d1de;"/>
        <clipPath id="_clip1">
            <path d="M50.754,54.841C50.754,57.837 42.274,60.27 31.83,60.27C21.385,60.27 12.906,57.837 12.906,54.841L12.906,6.561L50.754,6.561L50.754,54.841Z"/>
        </clipPath>
        <g clip-path="url(#_clip1)">
            <rect x="12.906" y="6.561" width="24.758" height="66.655" style="fill:#e4e4ed;"/>
            <path d="M50.754,20.51L50.754,39.372C50.754,42.369 42.274,44.801 31.83,44.801C21.385,44.801 12.906,42.369 12.906,39.372L12.906,20.51C12.906,23.507 21.385,25.939 31.83,25.939C42.274,25.939 50.754,23.507 50.754,20.51Z" style="fill:#f1765a;"/>
            <clipPath id="_clip2">
                <path d="M50.754,20.51L50.754,39.372C50.754,42.369 42.274,44.801 31.83,44.801C21.385,44.801 12.906,42.369 12.906,39.372L12.906,20.51C12.906,23.507 21.385,25.939 31.83,25.939C42.274,25.939 50.754,23.507 50.754,20.51Z"/>
            </clipPath>
            <g clip-path="url(#_clip2)">
                <rect x="37.663" y="17.771" width="35.257" height="34.957" style="fill:#b6654c;"/>
            </g>
            <rect x="16.574" y="6.561" width="7.084" height="66.655" style="fill:#fff;fill-opacity:0.49;"/>
        </g>
        <ellipse cx="31.83" cy="6.561" rx="18.924" ry="3.91" style="fill:#b8b9d3;"/>
        <clipPath id="_clip3">
            <ellipse cx="31.83" cy="6.561" rx="18.924" ry="3.91"/>
        </clipPath>
        <g clip-path="url(#_clip3)">
            <ellipse cx="31.83" cy="8.184" rx="18.924" ry="3.91" style="fill:#f2f2f6;"/>
        </g>
    </g>
</svg>
