<?xml version="1.0" encoding="UTF-8" standalone="no"?>
<!DOCTYPE svg PUBLIC "-//W3C//DTD SVG 1.1//EN" "http://www.w3.org/Graphics/SVG/1.1/DTD/svg11.dtd">
<svg width="100%" height="100%" viewBox="0 0 64 64" version="1.1" xmlns="http://www.w3.org/2000/svg" xmlns:xlink="http://www.w3.org/1999/xlink" xml:space="preserve" xmlns:serif="http://www.serif.com/" style="fill-rule:evenodd;clip-rule:evenodd;stroke-linejoin:round;stroke-miterlimit:1.41421;">
    <rect id="Centuries" x="0" y="0" width="64" height="64" style="fill:none;"/>
    <rect x="45" y="3" width="12" height="48" style="fill:#f3775b;"/>
    <rect x="7" y="47" width="12" height="4" style="fill:#f3775b;"/>
    <rect x="5" y="51" width="54" height="1" style="fill:#2b307e;"/>
    <path d="M10.288,59.735L10.288,60.5L7.402,60.5C7.433,60.211 7.527,59.937 7.683,59.678C7.839,59.419 8.148,59.076 8.609,58.648C8.98,58.303 9.207,58.068 9.291,57.945C9.405,57.775 9.461,57.607 9.461,57.441C9.461,57.258 9.412,57.117 9.313,57.018C9.215,56.919 9.079,56.87 8.905,56.87C8.733,56.87 8.596,56.922 8.495,57.025C8.393,57.129 8.334,57.301 8.319,57.541L7.498,57.459C7.547,57.006 7.701,56.681 7.958,56.483C8.216,56.286 8.539,56.188 8.925,56.188C9.349,56.188 9.682,56.302 9.924,56.53C10.166,56.759 10.288,57.043 10.288,57.383C10.288,57.576 10.253,57.76 10.184,57.935C10.114,58.11 10.004,58.293 9.854,58.484C9.754,58.611 9.575,58.794 9.315,59.032C9.055,59.271 8.891,59.429 8.821,59.507C8.752,59.585 8.696,59.661 8.653,59.735L10.288,59.735Z" style="fill:#2b307e;fill-rule:nonzero;"/>
    <path d="M11.972,56.188C12.388,56.188 12.713,56.336 12.948,56.633C13.227,56.984 13.367,57.567 13.367,58.382C13.367,59.194 13.226,59.778 12.945,60.134C12.712,60.427 12.388,60.573 11.972,60.573C11.554,60.573 11.217,60.413 10.961,60.091C10.706,59.77 10.578,59.197 10.578,58.373C10.578,57.564 10.718,56.982 10.999,56.627C11.232,56.334 11.556,56.188 11.972,56.188ZM11.972,56.87C11.873,56.87 11.784,56.902 11.706,56.965C11.627,57.029 11.567,57.143 11.524,57.307C11.467,57.52 11.439,57.878 11.439,58.382C11.439,58.886 11.464,59.232 11.515,59.42C11.566,59.609 11.63,59.734 11.707,59.797C11.784,59.859 11.873,59.891 11.972,59.891C12.072,59.891 12.161,59.859 12.239,59.795C12.317,59.732 12.377,59.618 12.42,59.454C12.477,59.243 12.505,58.886 12.505,58.382C12.505,57.878 12.48,57.532 12.429,57.343C12.378,57.155 12.314,57.029 12.237,56.965C12.16,56.902 12.072,56.87 11.972,56.87Z" style="fill:#2b307e;fill-rule:nonzero;"/>
    <path d="M15.256,57.389L15.256,58.045L14.694,58.045L14.694,59.299C14.694,59.553 14.699,59.701 14.71,59.743C14.721,59.785 14.745,59.819 14.783,59.847C14.821,59.874 14.868,59.888 14.922,59.888C14.999,59.888 15.109,59.861 15.253,59.809L15.324,60.447C15.132,60.529 14.916,60.57 14.673,60.57C14.525,60.57 14.391,60.545 14.272,60.496C14.153,60.446 14.065,60.381 14.01,60.302C13.954,60.223 13.916,60.116 13.894,59.981C13.876,59.886 13.868,59.692 13.868,59.401L13.868,58.045L13.49,58.045L13.49,57.389L13.868,57.389L13.868,56.771L14.694,56.29L14.694,57.389L15.256,57.389Z" style="fill:#2b307e;fill-rule:nonzero;"/>
    <path d="M16.384,56.205L16.384,57.784C16.65,57.474 16.967,57.318 17.336,57.318C17.526,57.318 17.697,57.354 17.849,57.424C18.002,57.494 18.116,57.584 18.193,57.693C18.271,57.803 18.323,57.924 18.352,58.057C18.38,58.189 18.394,58.396 18.394,58.675L18.394,60.5L17.571,60.5L17.571,58.856C17.571,58.53 17.555,58.323 17.524,58.235C17.493,58.147 17.438,58.078 17.358,58.026C17.279,57.974 17.18,57.948 17.061,57.948C16.924,57.948 16.802,57.981 16.695,58.048C16.587,58.114 16.509,58.214 16.459,58.348C16.409,58.482 16.384,58.68 16.384,58.941L16.384,60.5L15.561,60.5L15.561,56.205L16.384,56.205Z" style="fill:#2b307e;fill-rule:nonzero;"/>
    <path d="M48.596,59.562L48.596,60.326L45.71,60.326C45.742,60.037 45.835,59.763 45.992,59.504C46.148,59.246 46.456,58.902 46.917,58.475C47.289,58.129 47.516,57.895 47.6,57.771C47.713,57.602 47.77,57.434 47.77,57.268C47.77,57.084 47.721,56.943 47.622,56.844C47.523,56.746 47.387,56.696 47.213,56.696C47.041,56.696 46.905,56.748 46.803,56.852C46.702,56.955 46.643,57.127 46.627,57.367L45.807,57.285C45.856,56.832 46.009,56.507 46.267,56.31C46.525,56.112 46.847,56.014 47.234,56.014C47.658,56.014 47.991,56.128 48.233,56.356C48.475,56.585 48.596,56.869 48.596,57.209C48.596,57.402 48.561,57.586 48.492,57.761C48.423,57.936 48.313,58.119 48.163,58.311C48.063,58.438 47.883,58.62 47.623,58.858C47.364,59.097 47.199,59.255 47.13,59.333C47.06,59.411 47.004,59.487 46.961,59.562L48.596,59.562Z" style="fill:#2b307e;fill-rule:nonzero;"/>
    <path d="M50.996,60.326L50.172,60.326L50.172,57.224C49.872,57.505 49.517,57.713 49.109,57.848L49.109,57.101C49.324,57.03 49.557,56.897 49.809,56.701C50.061,56.504 50.234,56.275 50.328,56.014L50.996,56.014L50.996,60.326Z" style="fill:#2b307e;fill-rule:nonzero;"/>
    <path d="M51.848,59.438L52.674,59.313C52.709,59.473 52.781,59.594 52.888,59.677C52.996,59.76 53.146,59.802 53.339,59.802C53.552,59.802 53.712,59.763 53.82,59.685C53.892,59.63 53.928,59.557 53.928,59.465C53.928,59.402 53.909,59.351 53.87,59.31C53.829,59.271 53.737,59.234 53.594,59.201C52.93,59.055 52.509,58.921 52.332,58.8C52.085,58.632 51.962,58.398 51.962,58.1C51.962,57.83 52.069,57.604 52.282,57.42C52.495,57.236 52.825,57.145 53.272,57.145C53.698,57.145 54.014,57.214 54.221,57.353C54.428,57.491 54.571,57.696 54.649,57.968L53.873,58.111C53.839,57.99 53.776,57.897 53.684,57.833C53.591,57.769 53.459,57.736 53.287,57.736C53.07,57.736 52.915,57.767 52.821,57.827C52.758,57.87 52.727,57.926 52.727,57.994C52.727,58.053 52.754,58.103 52.809,58.144C52.883,58.198 53.14,58.275 53.578,58.375C54.017,58.475 54.323,58.597 54.497,58.741C54.668,58.888 54.754,59.092 54.754,59.354C54.754,59.639 54.635,59.884 54.397,60.089C54.159,60.294 53.806,60.396 53.339,60.396C52.916,60.396 52.58,60.311 52.333,60.139C52.086,59.967 51.924,59.733 51.848,59.438Z" style="fill:#2b307e;fill-rule:nonzero;"/>
    <path d="M56.638,57.215L56.638,57.871L56.076,57.871L56.076,59.125C56.076,59.379 56.081,59.527 56.092,59.569C56.103,59.611 56.127,59.646 56.165,59.673C56.203,59.7 56.25,59.714 56.304,59.714C56.38,59.714 56.491,59.688 56.635,59.635L56.706,60.273C56.514,60.355 56.297,60.396 56.055,60.396C55.907,60.396 55.773,60.372 55.654,60.322C55.535,60.272 55.447,60.208 55.392,60.128C55.336,60.049 55.297,59.942 55.276,59.808C55.258,59.712 55.25,59.519 55.25,59.228L55.25,57.871L54.872,57.871L54.872,57.215L55.25,57.215L55.25,56.597L56.076,56.116L56.076,57.215L56.638,57.215Z" style="fill:#2b307e;fill-rule:nonzero;"/>
    <path d="M42.14,10.763C43.006,10.988 42.733,11.667 42.615,12.269C39.984,25.455 33.684,38.566 22.162,45.747C21.505,46.156 20.506,46.677 20.506,46.677C19.619,47.03 19.031,45.781 20.316,45.09C32.06,38.688 38.747,24.567 41.263,11.36C41.263,11.36 41.464,10.68 42.14,10.763Z" style="fill:url(#_Linear1);fill-rule:nonzero;"/>
    <path d="M42.602,7.836L44.294,13.449L39.261,12.653L42.602,7.836Z" style="fill:#2b307e;"/>
    <defs>
        <linearGradient id="_Linear1" x1="0" y1="0" x2="1" y2="0" gradientUnits="userSpaceOnUse" gradientTransform="matrix(15,-31,31,15,28,46)"><stop offset="0" style="stop-color:#c2c4ea;stop-opacity:1"/><stop offset="1" style="stop-color:#2b307e;stop-opacity:1"/></linearGradient>
    </defs>
</svg>
