<?xml version="1.0" encoding="UTF-8" standalone="no"?>
<!DOCTYPE svg PUBLIC "-//W3C//DTD SVG 1.1//EN" "http://www.w3.org/Graphics/SVG/1.1/DTD/svg11.dtd">
<svg width="100%" height="100%" viewBox="0 0 65 64" version="1.1" xmlns="http://www.w3.org/2000/svg" xmlns:xlink="http://www.w3.org/1999/xlink" xml:space="preserve" xmlns:serif="http://www.serif.com/" style="fill-rule:evenodd;clip-rule:evenodd;stroke-linejoin:round;stroke-miterlimit:2;">
    <rect id="Centuries" x="0.738" y="0" width="64" height="64" style="fill:none;"/>
    <rect x="45.738" y="3" width="12" height="48" style="fill:#f3775b;"/>
    <rect x="7.738" y="47" width="12" height="4" style="fill:#f3775b;"/>
    <rect x="5.738" y="51" width="54" height="1" style="fill:#2b307e;"/>
    <path d="M11.026,59.735L11.026,60.5L8.14,60.5C8.171,60.211 8.265,59.937 8.421,59.678C8.578,59.419 8.886,59.076 9.347,58.648C9.718,58.303 9.946,58.068 10.03,57.945C10.143,57.775 10.2,57.607 10.2,57.441C10.2,57.258 10.15,57.117 10.052,57.018C9.953,56.919 9.817,56.87 9.643,56.87C9.471,56.87 9.334,56.922 9.233,57.025C9.131,57.129 9.073,57.301 9.057,57.541L8.237,57.459C8.286,57.006 8.439,56.681 8.697,56.483C8.955,56.286 9.277,56.188 9.664,56.188C10.087,56.188 10.42,56.302 10.663,56.53C10.905,56.759 11.026,57.043 11.026,57.383C11.026,57.576 10.991,57.76 10.922,57.935C10.852,58.11 10.743,58.293 10.592,58.484C10.493,58.611 10.313,58.794 10.053,59.032C9.793,59.271 9.629,59.429 9.559,59.507C9.49,59.585 9.434,59.661 9.391,59.735L11.026,59.735Z" style="fill:#2b307e;fill-rule:nonzero;"/>
    <path d="M12.71,56.188C13.126,56.188 13.452,56.336 13.686,56.633C13.965,56.984 14.105,57.567 14.105,58.382C14.105,59.194 13.964,59.778 13.683,60.134C13.451,60.427 13.126,60.573 12.71,60.573C12.292,60.573 11.956,60.413 11.7,60.091C11.444,59.77 11.316,59.197 11.316,58.373C11.316,57.564 11.457,56.982 11.738,56.627C11.97,56.334 12.294,56.188 12.71,56.188ZM12.71,56.87C12.611,56.87 12.522,56.902 12.444,56.965C12.366,57.029 12.305,57.143 12.262,57.307C12.206,57.52 12.177,57.878 12.177,58.382C12.177,58.886 12.203,59.232 12.253,59.42C12.304,59.609 12.368,59.734 12.445,59.797C12.522,59.859 12.611,59.891 12.71,59.891C12.81,59.891 12.899,59.859 12.977,59.795C13.055,59.732 13.116,59.618 13.159,59.454C13.215,59.243 13.244,58.886 13.244,58.382C13.244,57.878 13.218,57.532 13.167,57.343C13.117,57.155 13.053,57.029 12.976,56.965C12.898,56.902 12.81,56.87 12.71,56.87Z" style="fill:#2b307e;fill-rule:nonzero;"/>
    <path d="M15.995,57.389L15.995,58.045L15.432,58.045L15.432,59.299C15.432,59.553 15.438,59.701 15.448,59.743C15.459,59.785 15.483,59.819 15.522,59.847C15.56,59.874 15.606,59.888 15.661,59.888C15.737,59.888 15.847,59.861 15.992,59.809L16.062,60.447C15.871,60.529 15.654,60.57 15.412,60.57C15.263,60.57 15.129,60.545 15.01,60.496C14.891,60.446 14.804,60.381 14.748,60.302C14.692,60.223 14.654,60.116 14.632,59.981C14.615,59.886 14.606,59.692 14.606,59.401L14.606,58.045L14.228,58.045L14.228,57.389L14.606,57.389L14.606,56.771L15.432,56.29L15.432,57.389L15.995,57.389Z" style="fill:#2b307e;fill-rule:nonzero;"/>
    <path d="M17.123,56.205L17.123,57.784C17.388,57.474 17.706,57.318 18.075,57.318C18.264,57.318 18.435,57.354 18.587,57.424C18.74,57.494 18.855,57.584 18.932,57.693C19.009,57.803 19.062,57.924 19.09,58.057C19.118,58.189 19.132,58.396 19.132,58.675L19.132,60.5L18.309,60.5L18.309,58.856C18.309,58.53 18.294,58.323 18.262,58.235C18.231,58.147 18.176,58.078 18.097,58.026C18.018,57.974 17.919,57.948 17.799,57.948C17.663,57.948 17.541,57.981 17.433,58.048C17.326,58.114 17.247,58.214 17.197,58.348C17.148,58.482 17.123,58.68 17.123,58.941L17.123,60.5L16.299,60.5L16.299,56.205L17.123,56.205Z" style="fill:#2b307e;fill-rule:nonzero;"/>
    <path d="M49.334,59.562L49.334,60.326L46.449,60.326C46.48,60.037 46.574,59.763 46.73,59.504C46.886,59.246 47.195,58.902 47.656,58.475C48.027,58.129 48.254,57.895 48.338,57.771C48.452,57.602 48.508,57.434 48.508,57.268C48.508,57.084 48.459,56.943 48.36,56.844C48.262,56.746 48.125,56.696 47.952,56.696C47.78,56.696 47.643,56.748 47.541,56.852C47.44,56.955 47.381,57.127 47.366,57.367L46.545,57.285C46.594,56.832 46.747,56.507 47.005,56.31C47.263,56.112 47.585,56.014 47.972,56.014C48.396,56.014 48.729,56.128 48.971,56.356C49.213,56.585 49.334,56.869 49.334,57.209C49.334,57.402 49.3,57.586 49.23,57.761C49.161,57.936 49.051,58.119 48.901,58.311C48.801,58.438 48.622,58.62 48.362,58.858C48.102,59.097 47.937,59.255 47.868,59.333C47.799,59.411 47.743,59.487 47.7,59.562L49.334,59.562Z" style="fill:#2b307e;fill-rule:nonzero;"/>
    <path d="M51.734,60.326L50.911,60.326L50.911,57.224C50.61,57.505 50.255,57.713 49.847,57.848L49.847,57.101C50.062,57.03 50.295,56.897 50.547,56.701C50.799,56.504 50.972,56.275 51.066,56.014L51.734,56.014L51.734,60.326Z" style="fill:#2b307e;fill-rule:nonzero;"/>
    <path d="M52.586,59.438L53.413,59.313C53.448,59.473 53.519,59.594 53.626,59.677C53.734,59.76 53.884,59.802 54.078,59.802C54.291,59.802 54.451,59.763 54.558,59.685C54.63,59.63 54.667,59.557 54.667,59.465C54.667,59.402 54.647,59.351 54.608,59.31C54.567,59.271 54.475,59.234 54.333,59.201C53.668,59.055 53.248,58.921 53.07,58.8C52.824,58.632 52.701,58.398 52.701,58.1C52.701,57.83 52.807,57.604 53.02,57.42C53.233,57.236 53.563,57.145 54.01,57.145C54.436,57.145 54.752,57.214 54.959,57.353C55.167,57.491 55.309,57.696 55.387,57.968L54.611,58.111C54.578,57.99 54.515,57.897 54.422,57.833C54.329,57.769 54.197,57.736 54.025,57.736C53.808,57.736 53.653,57.767 53.559,57.827C53.497,57.87 53.465,57.926 53.465,57.994C53.465,58.053 53.493,58.103 53.547,58.144C53.622,58.198 53.878,58.275 54.316,58.375C54.755,58.475 55.061,58.597 55.235,58.741C55.407,58.888 55.493,59.092 55.493,59.354C55.493,59.639 55.374,59.884 55.135,60.089C54.897,60.294 54.544,60.396 54.078,60.396C53.654,60.396 53.318,60.311 53.071,60.139C52.824,59.967 52.663,59.733 52.586,59.438Z" style="fill:#2b307e;fill-rule:nonzero;"/>
    <path d="M57.377,57.215L57.377,57.871L56.814,57.871L56.814,59.125C56.814,59.379 56.819,59.527 56.83,59.569C56.841,59.611 56.865,59.646 56.903,59.673C56.941,59.7 56.988,59.714 57.043,59.714C57.119,59.714 57.229,59.688 57.374,59.635L57.444,60.273C57.253,60.355 57.036,60.396 56.794,60.396C56.645,60.396 56.511,60.372 56.392,60.322C56.273,60.272 56.186,60.208 56.13,60.128C56.074,60.049 56.036,59.942 56.014,59.808C55.997,59.712 55.988,59.519 55.988,59.228L55.988,57.871L55.61,57.871L55.61,57.215L55.988,57.215L55.988,56.597L56.814,56.116L56.814,57.215L57.377,57.215Z" style="fill:#2b307e;fill-rule:nonzero;"/>
    <path d="M42.879,10.763C43.745,10.988 43.471,11.667 43.354,12.269C40.722,25.455 34.422,38.566 22.9,45.747C22.243,46.156 21.244,46.677 21.244,46.677C20.358,47.03 19.769,45.781 21.054,45.09C32.798,38.688 39.485,24.567 42.002,11.36C42.002,11.36 42.203,10.68 42.879,10.763Z" style="fill:url(#_Linear1);fill-rule:nonzero;"/>
    <path d="M43.34,7.836L45.032,13.449L39.999,12.653L43.34,7.836Z" style="fill:#2b307e;"/>
    <defs>
        <linearGradient id="_Linear1" x1="0" y1="0" x2="1" y2="0" gradientUnits="userSpaceOnUse" gradientTransform="matrix(15,-31,31,15,28.7383,46)"><stop offset="0" style="stop-color:#c2c4ea;stop-opacity:1"/><stop offset="1" style="stop-color:#2b307e;stop-opacity:1"/></linearGradient>
    </defs>
</svg>
