<?xml version="1.0" encoding="UTF-8" standalone="no"?>
<!DOCTYPE svg PUBLIC "-//W3C//DTD SVG 1.1//EN" "http://www.w3.org/Graphics/SVG/1.1/DTD/svg11.dtd">
<svg width="100%" height="100%" viewBox="0 0 65 65" version="1.1" xmlns="http://www.w3.org/2000/svg" xmlns:xlink="http://www.w3.org/1999/xlink" xml:space="preserve" xmlns:serif="http://www.serif.com/" style="fill-rule:evenodd;clip-rule:evenodd;stroke-linejoin:round;stroke-miterlimit:1.41421;">
    <rect id="Chef" x="0.877" y="0.49" width="64" height="64" style="fill:none;"/>
    <g>
        <path d="M15.887,58.283L15.887,35.777L49.855,35.777L49.855,58.485C49.855,59.806 42.231,60.878 32.841,60.878C23.451,60.878 15.827,59.806 15.827,58.485C15.827,58.417 15.847,58.349 15.887,58.283Z" style="fill:#d1cfe8;"/>
        <clipPath id="_clip1">
            <path d="M15.887,58.283L15.887,35.777L49.855,35.777L49.855,58.485C49.855,59.806 42.231,60.878 32.841,60.878C23.451,60.878 15.827,59.806 15.827,58.485C15.827,58.417 15.847,58.349 15.887,58.283Z"/>
        </clipPath>
        <g clip-path="url(#_clip1)">
            <rect x="32.273" y="44.432" width="14.353" height="19.735" style="fill:#e3e1f1;"/>
        </g>
        <circle cx="20.289" cy="27.111" r="16.124" style="fill:#d1cfe8;"/>
        <clipPath id="_clip2">
            <circle cx="20.289" cy="27.111" r="16.124"/>
        </clipPath>
        <g clip-path="url(#_clip2)">
            <circle cx="21.694" cy="13.808" r="16.124" style="fill:#e3e1f1;"/>
        </g>
        <circle cx="33.73" cy="20.226" r="16.124" style="fill:#d1cfe8;"/>
        <clipPath id="_clip3">
            <circle cx="33.73" cy="20.226" r="16.124"/>
        </clipPath>
        <g clip-path="url(#_clip3)">
            <circle cx="33.73" cy="9.637" r="16.124" style="fill:#e3e1f1;"/>
        </g>
        <circle cx="46.766" cy="28.239" r="16.309" style="fill:#d1cfe8;"/>
        <clipPath id="_clip4">
            <circle cx="46.766" cy="28.239" r="16.309"/>
        </clipPath>
        <g clip-path="url(#_clip4)">
            <circle cx="51.377" cy="17.866" r="16.309" style="fill:#e3e1f1;"/>
        </g>
        <path d="M18.153,43.075C18.151,43.073 18.149,43.07 18.147,43.068C18.144,43.063 15.938,40.519 14.54,36.333C14.417,35.961 14.594,35.556 14.95,35.393C15.306,35.23 15.728,35.361 15.929,35.696C17.735,38.67 20.667,42.191 25.126,44.329C18.881,43.907 18.211,43.163 18.153,43.075Z" style="fill:#9295ca;"/>
        <path d="M44.51,44.123C46.073,43.982 47.494,43.159 48.395,41.875C49.229,40.676 50.239,39.016 51.063,37.039C51.2,36.674 51.04,36.263 50.691,36.087C50.342,35.911 49.917,36.025 49.704,36.353C47.877,39.176 45.055,42.347 40.921,44.329C42.507,44.242 43.665,44.175 44.51,44.123Z" style="fill:#9295ca;"/>
        <path d="M26.891,44.329C26.891,44.329 25.528,42.146 24.338,38.638C24.213,38.266 24.386,37.86 24.74,37.691C25.094,37.522 25.519,37.644 25.729,37.976C27.03,40.707 28.507,43.405 29.633,44.329C29.633,44.329 28.101,44.449 26.891,44.329Z" style="fill:#9295ca;"/>
        <path d="M39.156,44.329C39.156,44.329 40.519,42.146 41.709,38.638C41.833,38.266 41.661,37.86 41.306,37.691C40.952,37.522 40.528,37.644 40.317,37.976C39.017,40.707 37.54,43.405 36.414,44.329C36.414,44.329 38.235,44.556 39.156,44.329Z" style="fill:#9295ca;"/>
        <path d="M24.08,27.057L24.087,27.091L24.097,27.138L24.118,27.237L24.15,27.374L24.192,27.548L24.246,27.758L24.278,27.875L24.312,28.001L24.35,28.135L24.391,28.277L24.436,28.427L24.483,28.585L24.516,28.69L24.534,28.751L24.587,28.924L24.644,29.104L24.705,29.292L24.769,29.486L24.837,29.687L24.909,29.895L24.986,30.109L25.066,30.33L25.151,30.556L25.205,30.696L25.239,30.789L25.329,31.028L25.423,31.273L25.522,31.524L25.617,31.757L25.626,31.78L25.731,32.042L25.84,32.31L25.954,32.582L26.055,32.815L26.073,32.86L26.192,33.143L26.317,33.432L26.38,33.578L26.446,33.725L26.499,33.844L26.512,33.873L26.577,34.023L26.644,34.174L26.712,34.326L26.718,34.34L26.779,34.481L26.848,34.636L26.918,34.792L26.93,34.819L26.987,34.951L27.056,35.11L27.127,35.271L27.148,35.317L27.198,35.433L27.269,35.597L27.341,35.762L27.386,35.863L27.414,35.929L27.486,36.097L27.56,36.266L27.635,36.437L27.712,36.608L27.79,36.78L27.869,36.953L27.915,37.051L27.949,37.128L28.029,37.304L28.111,37.481L28.194,37.66L28.278,37.839L28.364,38.018L28.452,38.199L28.497,38.29L28.54,38.381L28.629,38.565L28.72,38.749L28.813,38.934L28.907,39.12L29.002,39.306L29.097,39.489L29.1,39.494L29.197,39.683L29.296,39.873L29.397,40.063L29.499,40.255L29.604,40.447L29.71,40.64L29.818,40.833L29.928,41.027L30.039,41.222L30.153,41.417L30.157,41.423L30.267,41.614L30.383,41.811L30.5,42.009L30.602,42.178L30.62,42.209L30.579,42.494L30.294,42.449L30.27,42.422L30.139,42.274L29.985,42.098L29.834,41.923L29.688,41.753L29.684,41.747L29.537,41.571L29.393,41.394L29.25,41.218L29.109,41.042L28.97,40.866L28.832,40.691L28.697,40.515L28.563,40.34L28.431,40.165L28.301,39.99L28.297,39.986L28.174,39.815L28.049,39.64L27.926,39.465L27.804,39.29L27.685,39.116L27.566,38.943L27.508,38.856L27.451,38.769L27.338,38.595L27.227,38.422L27.118,38.25L27.01,38.077L26.904,37.906L26.799,37.735L26.754,37.661L26.698,37.564L26.599,37.393L26.502,37.223L26.407,37.053L26.313,36.884L26.22,36.716L26.129,36.549L26.094,36.483L26.042,36.382L25.957,36.214L25.874,36.048L25.815,35.93L25.793,35.883L25.715,35.717L25.639,35.552L25.577,35.417L25.565,35.389L25.495,35.225L25.426,35.062L25.364,34.914L25.358,34.9L25.294,34.739L25.231,34.578L25.17,34.419L25.158,34.389L25.112,34.261L25.056,34.103L25,33.946L24.894,33.638L24.793,33.334L24.777,33.286L24.7,33.034L24.613,32.74L24.531,32.451L24.452,32.169L24.446,32.144L24.381,31.891L24.315,31.62L24.252,31.356L24.193,31.097L24.172,30.998L24.14,30.846L24.092,30.6L24.047,30.362L24.005,30.131L23.967,29.907L23.931,29.691L23.899,29.483L23.869,29.282L23.841,29.089L23.816,28.904L23.808,28.84L23.795,28.728L23.776,28.559L23.76,28.399L23.746,28.247L23.733,28.104L23.722,27.97L23.712,27.845L23.698,27.623L23.688,27.439L23.682,27.293L23.679,27.186L23.678,27.137L23.677,27.1L23.857,26.877L24.08,27.057Z" style="fill:#fff;fill-opacity:0.74902;"/>
        <path d="M14.657,29.522L14.671,29.554L14.69,29.598L14.732,29.69L14.792,29.817L14.87,29.978L14.967,30.172L15.022,30.28L15.082,30.396L15.147,30.519L15.217,30.649L15.292,30.787L15.372,30.931L15.426,31.027L15.456,31.082L15.544,31.24L15.638,31.405L15.736,31.576L15.84,31.752L15.949,31.935L16.063,32.123L16.183,32.316L16.308,32.515L16.438,32.718L16.52,32.844L16.573,32.928L16.711,33.143L16.855,33.362L17.004,33.587L17.145,33.794L17.159,33.815L17.317,34.05L17.48,34.288L17.649,34.53L17.796,34.737L17.823,34.777L17.999,35.029L18.181,35.286L18.274,35.414L18.369,35.544L18.446,35.65L18.464,35.676L18.56,35.809L18.657,35.942L18.755,36.077L18.764,36.089L18.854,36.214L18.953,36.351L19.054,36.489L19.072,36.513L19.155,36.63L19.256,36.771L19.36,36.913L19.389,36.954L19.462,37.057L19.566,37.203L19.672,37.349L19.736,37.438L19.778,37.497L19.884,37.646L19.991,37.796L20.101,37.947L20.211,38.098L20.324,38.25L20.438,38.403L20.503,38.489L20.553,38.557L20.668,38.712L20.785,38.868L20.903,39.025L21.024,39.182L21.146,39.34L21.269,39.498L21.332,39.578L21.394,39.658L21.519,39.819L21.647,39.98L21.776,40.141L21.907,40.303L22.04,40.465L22.171,40.624L22.174,40.628L22.309,40.793L22.446,40.958L22.584,41.123L22.725,41.289L22.867,41.454L23.011,41.621L23.157,41.787L23.305,41.954L23.455,42.121L23.607,42.288L23.612,42.293L23.76,42.456L23.915,42.625L24.071,42.794L24.206,42.938L24.23,42.964L24.25,43.252L23.962,43.267L23.933,43.246L23.773,43.128L23.586,42.989L23.401,42.849L23.224,42.713L23.218,42.709L23.038,42.567L22.859,42.425L22.683,42.283L22.508,42.14L22.335,41.998L22.164,41.855L21.994,41.712L21.827,41.568L21.661,41.425L21.497,41.281L21.493,41.278L21.336,41.136L21.177,40.991L21.02,40.846L20.865,40.701L20.711,40.556L20.559,40.411L20.485,40.339L20.41,40.266L20.263,40.12L20.118,39.974L19.975,39.828L19.834,39.682L19.694,39.537L19.556,39.392L19.496,39.328L19.421,39.246L19.288,39.099L19.158,38.953L19.029,38.807L18.902,38.662L18.776,38.517L18.652,38.372L18.604,38.315L18.532,38.227L18.414,38.081L18.297,37.936L18.215,37.833L18.183,37.792L18.073,37.646L17.964,37.501L17.874,37.381L17.857,37.356L17.754,37.211L17.652,37.066L17.561,36.935L17.552,36.922L17.456,36.778L17.361,36.634L17.267,36.491L17.25,36.464L17.177,36.348L17.089,36.206L17.002,36.064L16.834,35.785L16.671,35.509L16.646,35.466L16.517,35.236L16.37,34.966L16.229,34.701L16.093,34.442L16.082,34.419L15.966,34.185L15.844,33.934L15.727,33.688L15.615,33.448L15.573,33.355L15.511,33.213L15.412,32.983L15.318,32.76L15.229,32.543L15.144,32.332L15.064,32.128L14.988,31.931L14.917,31.742L14.85,31.559L14.787,31.383L14.765,31.322L14.729,31.215L14.675,31.054L14.626,30.901L14.58,30.755L14.537,30.618L14.498,30.49L14.463,30.369L14.402,30.155L14.354,29.977L14.317,29.835L14.292,29.732L14.28,29.684L14.272,29.648L14.401,29.393L14.657,29.522Z" style="fill:#fff;fill-opacity:0.74902;"/>
    </g>
</svg>
