<?xml version="1.0" encoding="UTF-8" standalone="no"?>
<!DOCTYPE svg PUBLIC "-//W3C//DTD SVG 1.1//EN" "http://www.w3.org/Graphics/SVG/1.1/DTD/svg11.dtd">
<svg width="100%" height="100%" viewBox="0 0 65 65" version="1.1" xmlns="http://www.w3.org/2000/svg" xmlns:xlink="http://www.w3.org/1999/xlink" xml:space="preserve" xmlns:serif="http://www.serif.com/" style="fill-rule:evenodd;clip-rule:evenodd;stroke-linejoin:round;stroke-miterlimit:2;">
    <rect id="Chips-snacks" x="0.309" y="0.133" width="64" height="64" style="fill:none;"/>
    <path d="M15.685,50.397L1.498,54.001L58.686,62.25L62.722,52.629L15.685,50.397Z" style="fill:#b2b4d7;fill-opacity:0.2;"/>
    <g>
        <g>
            <path d="M58.686,2.177L23.215,2.177C25.867,20.326 25.872,38.249 23.215,55.945L58.686,55.945C55.917,38.416 55.819,20.494 58.686,2.177Z" style="fill:#f1765a;"/>
            <clipPath id="_clip1">
                <path d="M58.686,2.177L23.215,2.177C25.867,20.326 25.872,38.249 23.215,55.945L58.686,55.945C55.917,38.416 55.819,20.494 58.686,2.177Z"/>
            </clipPath>
            <g clip-path="url(#_clip1)">
                <rect x="18.233" y="-2.406" width="48.385" height="6.846" style="fill:#a35f47;fill-opacity:0.76;"/>
                <rect x="18.233" y="54.426" width="48.385" height="6.846" style="fill:#edaa9b;fill-opacity:0.76;"/>
                <path id="_-Curve-" serif:id="(Curve)" d="M24.681,54.768C24.681,54.768 30.236,48.96 40.95,48.96C51.664,48.96 57.668,54.136 57.668,54.136C57.668,54.136 48.139,52.154 40.95,52.154C33.762,52.154 28.271,53.477 24.681,54.768Z" style="fill:#a35f47;"/>
                <circle cx="41.174" cy="22.03" r="13.133" style="fill:#f8f8fc;"/>
                <path d="M24.681,5.246C24.681,5.246 30.398,12.994 41.112,12.994C51.826,12.994 57.668,4.8 57.668,4.8C57.668,4.8 48.139,9.027 40.95,9.027C33.762,9.027 28.271,7.004 24.681,5.246Z" style="fill:#fff;fill-opacity:0.39;"/>
                <path d="M27.352,12.545C27.352,12.545 25.681,25.962 41.174,28.406C41.174,28.406 30.598,22.381 27.352,12.545Z" style="fill:#fff;fill-opacity:0.39;"/>
                <path d="M55.735,31C55.735,31 57.407,44.417 41.913,46.861C41.913,46.861 52.489,40.836 55.735,31Z" style="fill:#a35f47;fill-opacity:0.39;"/>
                <path d="M47.365,63.573L-3.453,56.896C-6.02,56.558 -7.556,52.45 -6.88,47.726C-6.203,43.003 -3.569,39.442 -1.002,39.779L49.816,46.456C50.634,46.564 51.276,47.412 51.68,48.732L53.366,47.138L55.788,47.489L53.488,63.573L51.066,63.222L49.963,61.601C49.163,62.931 48.242,63.688 47.365,63.573Z" style="fill:#2c327e;fill-opacity:0.21;"/>
            </g>
        </g>
    </g>
    <path d="M37.383,21.179C39.992,21.179 45.612,17.406 45.612,19.049C45.612,20.692 43.702,26.721 38.248,27.305C35.696,27.578 31.34,25.124 32.227,21.354C32.34,20.876 34.774,21.179 37.383,21.179Z" style="fill:#b6654c;"/>
    <path d="M43.156,19.049C47.857,15.954 47.918,14.779 48.277,15.032C50.566,16.647 52.958,21.887 47.72,25.053C42.634,28.126 33.069,23.151 32.269,21.465C31.649,20.157 38.007,22.439 43.156,19.049Z" style="fill:#edaa9b;"/>
    <g>
        <path d="M6.086,40.05L7.994,42.976L6.983,50.358L4.313,52.993L2.446,52.711L4.219,39.768L6.086,40.05Z" style="fill:#2c327e;"/>
        <clipPath id="_clip2">
            <path d="M6.086,40.05L7.994,42.976L6.983,50.358L4.313,52.993L2.446,52.711L4.219,39.768L6.086,40.05Z"/>
        </clipPath>
        <g clip-path="url(#_clip2)">
            <path d="M43.177,49.184L44.026,42.995L-11.171,35.424L-12.02,41.613L43.177,49.184Z" style="fill:#adacd6;fill-opacity:0.82;"/>
        </g>
        <path d="M7.984,54.186C6.005,53.915 4.821,50.608 5.343,46.807C5.864,43.006 7.894,40.141 9.874,40.412C9.874,40.412 49.048,45.785 49.048,45.785L47.158,59.56L7.984,54.186Z" style="fill:#2c327e;"/>
        <clipPath id="_clip3">
            <path d="M7.984,54.186C6.005,53.915 4.821,50.608 5.343,46.807C5.864,43.006 7.894,40.141 9.874,40.412C9.874,40.412 49.048,45.785 49.048,45.785L47.158,59.56L7.984,54.186Z"/>
        </clipPath>
        <g clip-path="url(#_clip3)">
            <path d="M53.082,51.881L53.931,45.692L-1.265,38.121L-2.114,44.31L53.082,51.881Z" style="fill:#928fc0;"/>
            <g>
                <path d="M24.689,44.087C20.2,45.074 17.102,48.361 17.776,51.421C18.449,54.481 22.64,56.164 27.129,55.177C31.617,54.189 34.715,50.903 34.042,47.842C33.368,44.782 29.177,43.099 24.689,44.087Z" style="fill:#a35f47;"/>
                <clipPath id="_clip4">
                    <path d="M24.689,44.087C20.2,45.074 17.102,48.361 17.776,51.421C18.449,54.481 22.64,56.164 27.129,55.177C31.617,54.189 34.715,50.903 34.042,47.842C33.368,44.782 29.177,43.099 24.689,44.087Z"/>
                </clipPath>
                <g clip-path="url(#_clip4)">
                    <path d="M24.33,42.458C20.238,43.358 17.462,46.574 18.135,49.634C18.809,52.695 22.678,54.448 26.77,53.548C30.863,52.648 33.639,49.432 32.966,46.371C32.292,43.311 28.423,41.557 24.33,42.458Z" style="fill:#f1765a;"/>
                    <path d="M53.082,51.881L53.931,45.692L-1.265,38.121L-2.114,44.31L53.082,51.881Z" style="fill:#fac9be;fill-opacity:0.44;"/>
                </g>
                <g>
                    <path d="M29.199,48.679C29.203,48.581 29.246,48.49 29.318,48.424C29.39,48.359 29.485,48.325 29.582,48.329C29.872,48.343 30.273,48.362 30.562,48.375C30.659,48.38 30.751,48.423 30.816,48.495C30.882,48.567 30.916,48.662 30.912,48.759C30.912,48.76 30.912,48.76 30.912,48.76C30.907,48.857 30.864,48.949 30.792,49.014C30.72,49.08 30.625,49.114 30.528,49.11C30.238,49.096 29.837,49.077 29.548,49.063C29.451,49.059 29.359,49.016 29.294,48.944C29.228,48.872 29.194,48.777 29.198,48.68C29.198,48.679 29.199,48.679 29.199,48.679Z" style="fill:#24245b;fill-opacity:0.67;"/>
                    <path d="M19.466,49.101C19.397,49.032 19.358,48.939 19.357,48.842C19.357,48.744 19.395,48.651 19.464,48.582C19.604,48.441 19.776,48.267 19.916,48.126C19.985,48.056 20.078,48.017 20.175,48.017C20.272,48.017 20.366,48.055 20.435,48.123C20.435,48.124 20.436,48.124 20.436,48.124C20.505,48.192 20.544,48.286 20.544,48.383C20.545,48.48 20.507,48.574 20.438,48.643C20.298,48.784 20.126,48.958 19.986,49.099C19.917,49.168 19.824,49.207 19.727,49.208C19.629,49.208 19.536,49.17 19.467,49.102C19.467,49.101 19.466,49.101 19.466,49.101Z" style="fill:#24245b;fill-opacity:0.67;"/>
                    <path d="M24.096,46.8C24.087,46.703 24.117,46.607 24.18,46.532C24.242,46.458 24.332,46.411 24.429,46.402C24.627,46.385 24.871,46.364 25.069,46.346C25.166,46.338 25.262,46.368 25.337,46.43C25.412,46.493 25.458,46.583 25.467,46.679C25.467,46.68 25.467,46.68 25.467,46.68C25.475,46.777 25.445,46.874 25.383,46.948C25.32,47.023 25.23,47.07 25.133,47.078C24.935,47.096 24.692,47.117 24.493,47.135C24.397,47.143 24.3,47.113 24.226,47.05C24.151,46.988 24.104,46.898 24.096,46.801C24.096,46.801 24.096,46.801 24.096,46.8Z" style="fill:#24245b;fill-opacity:0.67;"/>
                    <path d="M24.562,48.982C24.549,48.839 24.655,48.712 24.799,48.699C24.973,48.684 25.202,48.664 25.377,48.649C25.52,48.636 25.647,48.742 25.66,48.886C25.66,48.886 25.66,48.887 25.66,48.887C25.672,49.031 25.566,49.157 25.423,49.17C25.248,49.185 25.019,49.206 24.845,49.221C24.701,49.234 24.575,49.127 24.562,48.984C24.562,48.983 24.562,48.983 24.562,48.982Z" style="fill:#24245b;"/>
                    <path d="M30.685,46.616C30.582,46.515 30.579,46.35 30.68,46.246C30.802,46.121 30.962,45.956 31.084,45.831C31.185,45.727 31.35,45.725 31.453,45.825C31.453,45.826 31.454,45.826 31.454,45.826C31.558,45.927 31.56,46.092 31.459,46.196C31.337,46.321 31.177,46.486 31.055,46.611C30.955,46.715 30.789,46.717 30.686,46.617C30.686,46.616 30.685,46.616 30.685,46.616Z" style="fill:#24245b;"/>
                    <path d="M20.641,50.566C20.537,50.466 20.535,50.301 20.635,50.197C20.758,50.072 20.918,49.907 21.04,49.781C21.14,49.678 21.305,49.676 21.409,49.776C21.409,49.777 21.41,49.777 21.41,49.777C21.513,49.878 21.516,50.043 21.415,50.146C21.293,50.272 21.133,50.437 21.011,50.562C20.91,50.666 20.745,50.668 20.642,50.567C20.641,50.567 20.641,50.567 20.641,50.566Z" style="fill:#24245b;"/>
                </g>
                <g>
                    <path d="M28.342,45.211C28.345,45.309 28.309,45.403 28.243,45.474C28.176,45.545 28.084,45.586 27.987,45.589C27.697,45.598 27.295,45.61 27.006,45.619C26.909,45.622 26.814,45.586 26.743,45.52C26.673,45.453 26.631,45.361 26.628,45.264C26.628,45.263 26.628,45.263 26.628,45.263C26.625,45.165 26.661,45.071 26.728,45C26.794,44.929 26.886,44.888 26.984,44.885C27.273,44.876 27.675,44.864 27.964,44.855C28.061,44.852 28.156,44.887 28.227,44.954C28.298,45.021 28.339,45.113 28.342,45.21C28.342,45.211 28.342,45.211 28.342,45.211Z" style="fill:#24245b;fill-opacity:0.67;"/>
                    <path d="M25.043,50.829C25.046,50.927 25.01,51.021 24.944,51.092C24.877,51.163 24.785,51.204 24.687,51.207C24.398,51.216 23.996,51.229 23.707,51.237C23.61,51.24 23.515,51.205 23.444,51.138C23.373,51.071 23.332,50.979 23.329,50.882C23.329,50.881 23.329,50.881 23.329,50.881C23.326,50.784 23.362,50.689 23.428,50.618C23.495,50.547 23.587,50.506 23.684,50.503C23.974,50.494 24.376,50.482 24.665,50.473C24.762,50.47 24.857,50.506 24.928,50.572C24.999,50.639 25.04,50.731 25.043,50.828C25.043,50.829 25.043,50.829 25.043,50.829Z" style="fill:#24245b;fill-opacity:0.67;"/>
                    <path d="M33.167,49.282C33.241,49.345 33.288,49.435 33.296,49.532C33.304,49.629 33.273,49.725 33.21,49.799C33.081,49.951 32.923,50.138 32.794,50.289C32.731,50.364 32.641,50.41 32.544,50.418C32.447,50.426 32.351,50.395 32.277,50.332C32.277,50.332 32.276,50.332 32.276,50.331C32.202,50.268 32.156,50.179 32.148,50.082C32.14,49.985 32.171,49.888 32.234,49.814C32.362,49.662 32.521,49.476 32.649,49.324C32.712,49.25 32.802,49.204 32.899,49.196C32.996,49.188 33.092,49.219 33.166,49.282C33.167,49.282 33.167,49.282 33.167,49.282Z" style="fill:#24245b;fill-opacity:0.67;"/>
                    <path d="M28.73,51.935C28.746,52.031 28.723,52.129 28.667,52.209C28.61,52.288 28.524,52.341 28.428,52.357C28.232,52.39 27.991,52.43 27.795,52.463C27.699,52.479 27.6,52.456 27.521,52.4C27.442,52.343 27.388,52.258 27.372,52.162C27.372,52.161 27.372,52.161 27.372,52.161C27.356,52.065 27.379,51.966 27.436,51.887C27.492,51.808 27.578,51.754 27.674,51.738C27.87,51.705 28.111,51.665 28.307,51.632C28.403,51.616 28.502,51.639 28.581,51.696C28.66,51.752 28.714,51.838 28.73,51.934C28.73,51.934 28.73,51.935 28.73,51.935Z" style="fill:#24245b;fill-opacity:0.67;"/>
                    <path d="M28.126,50.253C28.15,50.396 28.054,50.53 27.912,50.554C27.739,50.583 27.513,50.62 27.34,50.649C27.198,50.673 27.063,50.577 27.04,50.435C27.039,50.434 27.039,50.434 27.039,50.433C27.016,50.291 27.112,50.157 27.254,50.133C27.426,50.104 27.653,50.066 27.826,50.037C27.968,50.014 28.102,50.11 28.126,50.252C28.126,50.252 28.126,50.253 28.126,50.253Z" style="fill:#24245b;"/>
                    <path d="M22.175,52.63C22.286,52.722 22.301,52.887 22.209,52.997C22.097,53.132 21.95,53.309 21.838,53.443C21.746,53.554 21.581,53.569 21.47,53.477C21.47,53.477 21.47,53.477 21.469,53.476C21.358,53.384 21.343,53.22 21.435,53.109C21.547,52.974 21.694,52.797 21.806,52.663C21.898,52.552 22.063,52.537 22.174,52.629C22.174,52.629 22.175,52.63 22.175,52.63Z" style="fill:#24245b;"/>
                    <path d="M26.132,53.816C26.061,53.942 25.902,53.986 25.776,53.915C25.624,53.83 25.424,53.717 25.271,53.631C25.145,53.56 25.101,53.401 25.172,53.275C25.172,53.275 25.172,53.275 25.172,53.274C25.243,53.148 25.402,53.104 25.528,53.175C25.681,53.261 25.881,53.373 26.033,53.459C26.159,53.53 26.203,53.689 26.133,53.815C26.132,53.815 26.132,53.816 26.132,53.816Z" style="fill:#24245b;"/>
                </g>
            </g>
        </g>
        <path d="M50.686,53.027C50.165,56.828 48.584,59.755 47.158,59.56C45.733,59.364 44.999,56.119 45.52,52.318C46.042,48.517 47.622,45.59 49.048,45.785C50.473,45.981 51.207,49.226 50.686,53.027Z" style="fill:#2c327e;"/>
        <path d="M50.011,59.277L48.103,56.351L49.114,48.969L51.784,46.334L53.651,46.617L51.878,59.56L50.011,59.277Z" style="fill:#2c327e;"/>
        <clipPath id="_clip5">
            <path d="M50.011,59.277L48.103,56.351L49.114,48.969L51.784,46.334L53.651,46.617L51.878,59.56L50.011,59.277Z"/>
        </clipPath>
        <g clip-path="url(#_clip5)">
            <path d="M93.326,56.211L94.175,50.022L38.979,42.452L38.13,48.641L93.326,56.211Z" style="fill:#adacd6;fill-opacity:0.82;"/>
        </g>
        <path d="M50.011,59.277L48.103,56.351L49.114,48.969L51.784,46.334L53.651,46.617L51.878,59.56L50.011,59.277Z" style="fill:#2c327e;"/>
        <clipPath id="_clip6">
            <path d="M50.011,59.277L48.103,56.351L49.114,48.969L51.784,46.334L53.651,46.617L51.878,59.56L50.011,59.277Z"/>
        </clipPath>
        <g clip-path="url(#_clip6)">
            <path d="M93.326,56.211L94.175,50.022L38.979,42.452L38.13,48.641L93.326,56.211Z" style="fill:#adacd6;fill-opacity:0.82;"/>
        </g>
    </g>
</svg>
