<?xml version="1.0" encoding="UTF-8" standalone="no"?>
<!DOCTYPE svg PUBLIC "-//W3C//DTD SVG 1.1//EN" "http://www.w3.org/Graphics/SVG/1.1/DTD/svg11.dtd">
<svg width="100%" height="100%" viewBox="0 0 65 64" version="1.1" xmlns="http://www.w3.org/2000/svg" xmlns:xlink="http://www.w3.org/1999/xlink" xml:space="preserve" xmlns:serif="http://www.serif.com/" style="fill-rule:evenodd;clip-rule:evenodd;stroke-linecap:round;stroke-linejoin:round;stroke-miterlimit:1;">
    <rect id="Community" x="0.738" y="0" width="64" height="64" style="fill:none;"/>
    <g>
        <path d="M43.639,22.973C43.073,20.145 41.088,17.81 38.387,16.797C38.387,16.797 38.387,16.797 38.387,16.797C36.981,16.27 35.491,16 33.99,16C33.331,16 32.613,16 31.96,16C30.526,16 29.104,16.258 27.762,16.761C27.762,16.761 27.762,16.761 27.762,16.761C25.002,17.796 22.972,20.183 22.394,23.074C22.034,24.875 21.706,26.511 21.706,26.511L44.347,26.511C44.347,26.511 44.007,24.813 43.639,22.973Z" style="fill:#f5f5fb;"/>
        <path d="M35.856,13.978L30.196,13.978L30.196,17.213C30.196,17.213 30.196,17.213 30.197,17.213C31.889,18.422 34.163,18.422 35.856,17.213C35.856,17.213 35.856,17.213 35.856,17.213L35.856,13.978Z" style="fill:#fbd4cb;"/>
        <path d="M37.878,8.722C37.878,6.043 35.706,3.871 33.026,3.871C33.026,3.871 33.026,3.871 33.026,3.871C30.347,3.871 28.175,6.043 28.175,8.722C28.175,9.521 28.175,10.349 28.175,11.148C28.175,13.828 30.347,16 33.026,16C33.026,16 33.026,16 33.026,16C35.706,16 37.878,13.828 37.878,11.148C37.878,10.349 37.878,9.521 37.878,8.722Z" style="fill:#fbd4cb;"/>
    </g>
    <g>
        <path d="M25.381,30.322C24.778,27.307 22.661,24.818 19.782,23.738C19.782,23.738 19.782,23.738 19.782,23.738C18.283,23.176 16.695,22.888 15.094,22.888C14.392,22.888 13.626,22.888 12.931,22.888C11.402,22.888 9.887,23.163 8.456,23.7C8.456,23.7 8.455,23.7 8.455,23.7C5.513,24.803 3.349,27.348 2.733,30.429C2.349,32.349 2,34.094 2,34.094L26.135,34.094C26.135,34.094 25.773,32.283 25.381,30.322Z" style="fill:#f1f1f9;"/>
        <path d="M17.084,20.733L11.051,20.733L11.051,24.181C11.051,24.181 11.051,24.181 11.051,24.182C12.855,25.47 15.28,25.47 17.084,24.182C17.084,24.181 17.084,24.181 17.084,24.181L17.084,20.733Z" style="fill:#fbd4cb;"/>
        <path d="M19.239,15.131C19.239,12.274 16.924,9.959 14.067,9.959C14.067,9.959 14.067,9.959 14.067,9.959C11.211,9.959 8.896,12.274 8.896,15.131C8.896,15.982 8.896,16.865 8.896,17.717C8.896,20.573 11.211,22.888 14.067,22.888C14.067,22.888 14.067,22.888 14.067,22.888C16.924,22.888 19.239,20.573 19.239,17.717C19.239,16.865 19.239,15.982 19.239,15.131Z" style="fill:#fbd4cb;"/>
    </g>
    <g>
        <path d="M62.784,30.328C62.181,27.311 60.063,24.82 57.182,23.74C57.182,23.74 57.182,23.74 57.182,23.74C55.682,23.177 54.093,22.889 52.491,22.889C51.788,22.889 51.022,22.889 50.326,22.889C48.796,22.889 47.279,23.164 45.847,23.701C45.847,23.701 45.847,23.701 45.847,23.701C42.903,24.805 40.737,27.352 40.12,30.435C39.736,32.356 39.387,34.103 39.387,34.103L63.539,34.103C63.539,34.103 63.177,32.291 62.784,30.328Z" style="fill:#f1f1f9;"/>
        <path d="M54.482,20.733L48.444,20.733L48.444,24.183C48.444,24.183 48.444,24.183 48.444,24.183C50.25,25.473 52.676,25.473 54.482,24.183C54.482,24.183 54.482,24.183 54.482,24.183L54.482,20.733Z" style="fill:#fbd4cb;"/>
        <path d="M56.639,15.126C56.639,12.267 54.322,9.95 51.463,9.95C51.463,9.95 51.463,9.95 51.463,9.95C48.605,9.95 46.288,12.267 46.288,15.126C46.288,15.978 46.288,16.861 46.288,17.713C46.288,20.572 48.605,22.889 51.463,22.889C51.463,22.889 51.463,22.889 51.463,22.889C54.322,22.889 56.639,20.572 56.639,17.713C56.639,16.861 56.639,15.978 56.639,15.126Z" style="fill:#fbd4cb;"/>
    </g>
    <g>
        <path d="M38.22,44.449C37.321,39.952 34.164,36.239 29.87,34.629C29.87,34.629 29.87,34.629 29.87,34.629C27.634,33.79 25.265,33.361 22.877,33.361C21.829,33.361 20.688,33.361 19.65,33.361C17.371,33.361 15.11,33.771 12.975,34.571C12.975,34.571 12.975,34.571 12.975,34.571C8.586,36.217 5.358,40.013 4.439,44.609C3.866,47.472 3.346,50.075 3.346,50.075L39.346,50.075C39.346,50.075 38.806,47.374 38.22,44.449Z" style="fill:#dfdff2;"/>
        <g>
            <path d="M28.51,39.072C30.392,39.143 32.028,40.763 32.097,42.66C32.112,43.821 32.098,44.982 32.098,46.143C32.077,46.813 30.883,46.915 30.814,46.183C30.756,44.361 31.217,42.39 30.27,41.234C28.962,39.637 25.757,40.707 25.671,43.033C25.652,44.488 26.003,46.285 25.371,46.686C24.996,46.924 24.43,46.658 24.385,46.183C24.322,44.17 24.122,42.043 25.244,40.614C26.012,39.636 27.243,39.057 28.51,39.072Z" style="fill:#9497c6;fill-rule:nonzero;"/>
            <path d="M22.126,31.358C25.664,31.424 28.82,34.535 28.883,38.115C28.89,38.995 29.085,39.992 28.544,40.281C28.158,40.487 27.622,40.202 27.598,39.714C27.598,38.559 27.656,37.357 27.25,36.262C26.173,33.367 22.579,32.011 19.312,33.072C15.837,34.201 13.281,37.6 13.215,41.353C13.21,42.135 13.37,43.039 13.026,43.383C12.677,43.732 11.957,43.499 11.929,42.929C11.929,41.323 11.954,39.719 12.46,38.225C13.802,34.258 17.782,31.384 22.037,31.357C22.067,31.357 22.097,31.357 22.126,31.358Z" style="fill:#9497c6;fill-rule:nonzero;"/>
            <circle cx="12.571" cy="42.929" r="2.571" style="fill:#9497c6;"/>
            <circle cx="12.571" cy="42.929" r="1.286" style="fill:#dfdff2;"/>
            <circle cx="25.027" cy="45.5" r="1.607" style="fill:#9497c6;"/>
            <circle cx="31.455" cy="45.5" r="1.607" style="fill:#9497c6;"/>
        </g>
        <path d="M25.846,30.147L16.846,30.147L16.846,35.289C16.846,35.289 16.846,35.29 16.846,35.29C19.538,37.212 23.154,37.212 25.845,35.29C25.846,35.29 25.846,35.289 25.846,35.289L25.846,30.147Z" style="fill:#f58f78;"/>
        <path d="M29.06,21.789C29.06,17.529 25.606,14.075 21.346,14.075C21.346,14.075 21.346,14.075 21.346,14.075C17.085,14.075 13.632,17.529 13.632,21.789C13.632,23.06 13.632,24.376 13.632,25.647C13.632,29.907 17.085,33.361 21.346,33.361C21.346,33.361 21.346,33.361 21.346,33.361C25.606,33.361 29.06,29.907 29.06,25.647C29.06,24.376 29.06,23.06 29.06,21.789Z" style="fill:#f8ae9e;"/>
    </g>
    <g>
        <path d="M61.602,44.449C60.702,39.952 57.545,36.239 53.251,34.629C53.251,34.629 53.251,34.629 53.251,34.629C51.015,33.79 48.647,32 46.259,32C45.211,32 44.069,32 43.031,32C40.752,32 38.491,33.771 36.356,34.571C36.356,34.571 36.356,34.571 36.356,34.571C31.967,36.217 28.739,40.013 27.82,44.609C27.247,47.472 26.727,50.075 26.727,50.075L62.727,50.075C62.727,50.075 62.187,47.374 61.602,44.449Z" style="fill:#dfdff2;"/>
        <clipPath id="_clip1">
            <path d="M61.602,44.449C60.702,39.952 57.545,36.239 53.251,34.629C53.251,34.629 53.251,34.629 53.251,34.629C51.015,33.79 48.647,32 46.259,32C45.211,32 44.069,32 43.031,32C40.752,32 38.491,33.771 36.356,34.571C36.356,34.571 36.356,34.571 36.356,34.571C31.967,36.217 28.739,40.013 27.82,44.609C27.247,47.472 26.727,50.075 26.727,50.075L62.727,50.075C62.727,50.075 62.187,47.374 61.602,44.449Z"/>
        </clipPath>
        <g clip-path="url(#_clip1)">
            <path d="M48,30L54,40L50,41L54,44L46,53" style="fill:none;stroke:#9497c6;stroke-width:0.9px;"/>
            <path d="M41.53,29L35.53,39L39.53,40L35.53,43L43.53,52" style="fill:none;stroke:#9497c6;stroke-width:0.9px;"/>
        </g>
        <path d="M49.227,30.147L40.227,30.147C40.227,30.147 40.227,33.289 40.227,33.29C40.213,35.539 45,38 45,38C45,38 49.237,35.639 49.226,33.29C49.226,33.289 49.227,30.147 49.227,30.147Z" style="fill:#f58f78;"/>
        <g>
            <path d="M44.127,41.376L42.895,40.144L45.017,38.023L47.138,40.144L45.888,41.394L47.109,50.092L42.752,50.092L44.127,41.376Z" style="fill:#2b307e;fill-opacity:0.490196;"/>
        </g>
        <path d="M52.441,21.789C52.441,17.529 48.987,14.075 44.727,14.075C44.727,14.075 44.727,14.075 44.727,14.075C40.466,14.075 37.013,17.529 37.013,21.789C37.013,23.06 37.013,24.376 37.013,25.647C37.013,29.907 40.466,33.361 44.727,33.361C44.727,33.361 44.727,33.361 44.727,33.361C48.987,33.361 52.441,29.907 52.441,25.647C52.441,24.376 52.441,23.06 52.441,21.789Z" style="fill:#f8ae9e;"/>
    </g>
    <g>
        <path d="M28.238,41.838C26.292,40.438 25.024,38.153 25.024,35.571C25.024,34.301 25.024,32.984 25.024,31.714C25.024,27.454 28.478,24 32.738,24C32.738,24 32.738,24 32.738,24C36.999,24 40.453,27.454 40.453,31.714C40.453,32.984 40.453,34.301 40.453,35.571C40.453,38.153 39.185,40.438 37.238,41.838L37.238,43.508C38.61,43.715 39.959,44.065 41.262,44.554C41.262,44.554 41.263,44.554 41.263,44.554C45.556,46.164 48.714,49.877 49.613,54.373L50.738,60L14.738,60C14.738,60 15.259,57.397 15.831,54.534C16.751,49.938 19.978,46.142 24.367,44.496C24.367,44.496 24.367,44.496 24.368,44.496C25.621,44.026 26.919,43.69 28.238,43.494L28.238,41.838Z" style="fill:#fff;fill-opacity:0.686275;stroke:#fff;stroke-width:3.5px;stroke-miterlimit:1.5;"/>
        <path d="M49.613,54.373C48.714,49.877 45.556,46.164 41.263,44.554C41.263,44.554 41.262,44.554 41.262,44.554C39.026,43.715 36.658,43.286 34.27,43.286C33.222,43.286 32.08,43.286 31.043,43.286C28.763,43.286 26.502,43.696 24.368,44.496C24.367,44.496 24.367,44.496 24.367,44.496C19.978,46.142 16.751,49.938 15.831,54.534C15.259,57.397 14.738,60 14.738,60L50.738,60C50.738,60 50.198,57.299 49.613,54.373Z" style="fill:#2b307e;"/>
        <path d="M43.667,56.143C43.667,56.143 43.667,54.415 43.667,52.751C43.667,51.946 43.347,51.173 42.777,50.604C42.208,50.034 41.435,49.714 40.63,49.714C40.63,49.714 40.629,49.714 40.629,49.714C38.756,49.714 37.238,51.232 37.238,53.105C37.238,54.651 37.238,56.143 37.238,56.143" style="fill:none;stroke:#fff;stroke-width:1.29px;stroke-miterlimit:1.5;"/>
        <path d="M40.453,49.714C40.453,49.714 40.453,49.091 40.453,48.2C40.453,46.555 39.799,44.979 38.637,43.816C37.474,42.653 35.897,42 34.253,42C34.252,42 34.252,42 34.251,42C29.022,42 24.783,46.239 24.783,51.468C24.783,52.354 24.783,52.929 24.783,52.929" style="fill:none;stroke:#fff;stroke-width:1.29px;stroke-miterlimit:1.5;"/>
        <circle cx="24.783" cy="52.929" r="2.571" style="fill:#fff;"/>
        <circle cx="24.783" cy="52.929" r="1.286" style="fill:#aaacdd;"/>
        <circle cx="37.238" cy="55.5" r="1.607" style="fill:#fff;"/>
        <circle cx="43.667" cy="55.5" r="1.607" style="fill:#fff;"/>
        <path d="M37.238,40.071L28.238,40.071L28.238,45.214C28.238,45.214 28.238,45.214 28.239,45.215C30.93,47.137 34.546,47.137 37.238,45.215C37.238,45.214 37.238,45.214 37.238,45.214L37.238,40.071Z" style="fill:#f3775b;"/>
        <path d="M28.238,44.026L28.238,42L37.238,42L37.238,45.272C36.407,44.782 34.388,45.214 32.738,45.214C31.117,45.214 29.579,44.783 28.238,44.026Z" style="fill:#664e39;fill-opacity:0.560784;"/>
        <path d="M40.453,31.714C40.453,27.454 36.999,24 32.738,24C32.738,24 32.738,24 32.738,24C28.478,24 25.024,27.454 25.024,31.714C25.024,32.984 25.024,34.301 25.024,35.571C25.024,39.832 28.478,43.286 32.738,43.286C32.738,43.286 32.738,43.286 32.738,43.286C36.999,43.286 40.453,39.832 40.453,35.571C40.453,34.301 40.453,32.984 40.453,31.714Z" style="fill:#f3775b;"/>
    </g>
</svg>
