<?xml version="1.0" encoding="UTF-8" standalone="no"?>
<!DOCTYPE svg PUBLIC "-//W3C//DTD SVG 1.1//EN" "http://www.w3.org/Graphics/SVG/1.1/DTD/svg11.dtd">
<svg width="100%" height="100%" viewBox="0 0 65 65" version="1.1" xmlns="http://www.w3.org/2000/svg" xmlns:xlink="http://www.w3.org/1999/xlink" xml:space="preserve" xmlns:serif="http://www.serif.com/" style="fill-rule:evenodd;clip-rule:evenodd;stroke-linecap:round;stroke-linejoin:round;stroke-miterlimit:1;">
    <rect id="Condiments" x="0.012" y="0.133" width="64" height="64" style="fill:none;"/>
    <ellipse cx="37.562" cy="56.563" rx="18.087" ry="5.863" style="fill:#f2f2fa;"/>
    <path d="M18.96,55.387L18.952,55.387C18.952,55.387 16.611,51.041 19.836,39.277C22.114,30.966 26.75,25.395 26.935,14.466C26.994,10.987 31.916,4.937 32.011,4.821L32.011,4.819L32.011,4.82L32.012,4.819L32.012,4.821C32.107,4.937 37.029,10.987 37.088,14.466C37.272,25.395 41.908,30.966 44.186,39.277C47.411,51.041 45.071,55.387 45.071,55.387L45,55.387C44.308,57.793 38.738,60.647 31.98,60.647C25.222,60.647 19.652,57.793 18.96,55.387Z" style="fill:#2b307f;"/>
    <clipPath id="_clip1">
        <path d="M18.96,55.387L18.952,55.387C18.952,55.387 16.611,51.041 19.836,39.277C22.114,30.966 26.75,25.395 26.935,14.466C26.994,10.987 31.916,4.937 32.011,4.821L32.011,4.819L32.011,4.82L32.012,4.819L32.012,4.821C32.107,4.937 37.029,10.987 37.088,14.466C37.272,25.395 41.908,30.966 44.186,39.277C47.411,51.041 45.071,55.387 45.071,55.387L45,55.387C44.308,57.793 38.738,60.647 31.98,60.647C25.222,60.647 19.652,57.793 18.96,55.387Z"/>
    </clipPath>
    <g clip-path="url(#_clip1)">
        <rect x="21.976" y="9.879" width="18.727" height="14.646" style="fill:#dddeed;"/>
        <ellipse cx="32.024" cy="24.834" rx="6.739" ry="2.405" style="fill:#9296cc;"/>
        <path d="M33.496,11.684C33.496,11.684 32.528,28.304 37.472,38.75C40.482,45.108 40.497,55.495 37.511,59.67C34.596,63.746 54.401,59.195 54.401,59.195L52.136,11.458L33.496,11.684Z" style="fill:#2b307f;fill-opacity:0.17;"/>
    </g>
    <path d="M26.46,13.368L22.466,4.413L41.558,4.413L37.562,13.374C37.562,13.377 37.562,13.38 37.562,13.383C37.562,14.224 35.074,14.907 32.011,14.907C28.947,14.907 26.459,14.224 26.459,13.383C26.459,13.378 26.459,13.373 26.46,13.368Z" style="fill:#f1765a;"/>
    <clipPath id="_clip2">
        <path d="M26.46,13.368L22.466,4.413L41.558,4.413L37.562,13.374C37.562,13.377 37.562,13.38 37.562,13.383C37.562,14.224 35.074,14.907 32.011,14.907C28.947,14.907 26.459,14.224 26.459,13.383C26.459,13.378 26.459,13.373 26.46,13.368Z"/>
    </clipPath>
    <g clip-path="url(#_clip2)">
        <path d="M33.42,17.286L37.902,0.689L48.688,-0.573L42.966,16.775L33.42,17.286Z" style="fill:#d25950;"/>
    </g>
    <ellipse cx="32.012" cy="4.413" rx="9.546" ry="2.571" style="fill:#f2a391;"/>
    <path d="M27.756,27.797L27.755,27.802L27.839,27.519L27.838,27.524L27.919,27.243L27.918,27.248L27.959,27.105L28,26.97L27.998,26.975L28.079,26.7L28.078,26.704L28.157,26.432L28.156,26.436L28.232,26.166L28.231,26.17L28.305,25.903L28.304,25.907L28.375,25.643L28.374,25.646L28.403,25.536L28.445,25.385L28.444,25.389L28.514,25.131L28.513,25.135L28.58,24.88L28.58,24.884L28.645,24.632L28.644,24.636L28.707,24.388L28.707,24.391L28.767,24.147L28.767,24.15L28.808,23.978L28.826,23.909L28.825,23.912L28.885,23.676L28.884,23.679L28.942,23.446L28.941,23.449L28.996,23.221L28.996,23.223L29.049,22.999L29.048,23.002L29.099,22.782L29.099,22.784L29.148,22.569L29.148,22.571L29.194,22.36L29.194,22.362L29.239,22.157L29.239,22.158L29.282,21.957L29.281,21.959L29.322,21.763L29.322,21.765L29.361,21.574L29.361,21.575L29.398,21.39L29.398,21.392L29.456,21.093L29.468,21.037L29.467,21.039L29.533,20.707L29.533,20.709L29.591,20.4L29.591,20.402L29.643,20.118L29.643,20.12L29.688,19.861L29.688,19.863L29.727,19.63L29.727,19.632L29.76,19.427L29.76,19.428L29.787,19.252L29.787,19.253L29.809,19.107L29.809,19.108L29.837,18.909L29.837,18.911L29.839,18.894L29.846,18.842L30.015,18.687L30.17,18.857L30.172,18.909L30.173,18.926L30.173,18.927L30.179,19.129L30.178,19.13L30.182,19.278L30.182,19.279L30.184,19.458L30.184,19.459L30.186,19.666L30.186,19.668L30.187,19.904L30.187,19.905L30.185,20.168L30.185,20.17L30.182,20.459L30.182,20.461L30.176,20.776L30.176,20.778L30.167,21.117L30.167,21.119L30.165,21.177L30.152,21.481L30.152,21.483L30.142,21.672L30.142,21.674L30.131,21.869L30.131,21.87L30.12,22.07L30.119,22.072L30.107,22.277L30.107,22.279L30.093,22.489L30.092,22.491L30.077,22.706L30.077,22.708L30.06,22.928L30.06,22.931L30.042,23.155L30.042,23.158L30.023,23.387L30.022,23.389L30.001,23.623L30.001,23.625L29.979,23.863L29.978,23.866L29.955,24.108L29.954,24.111L29.947,24.182L29.926,24.357L29.926,24.36L29.896,24.61L29.895,24.613L29.863,24.866L29.862,24.869L29.828,25.127L29.828,25.13L29.792,25.391L29.791,25.394L29.754,25.658L29.753,25.662L29.73,25.816L29.712,25.929L29.711,25.933L29.666,26.203L29.665,26.207L29.619,26.48L29.618,26.484L29.568,26.76L29.568,26.764L29.516,27.043L29.515,27.047L29.462,27.329L29.461,27.333L29.433,27.471L29.402,27.617L29.401,27.621L29.339,27.906L29.337,27.911L29.272,28.199L29.271,28.204L29.204,28.493L29.202,28.499L29.132,28.79L29.131,28.795L29.058,29.089L29.057,29.094L29.056,29.096L28.977,29.389L28.975,29.394L28.893,29.69L28.892,29.695L28.84,29.875L28.805,29.992L28.803,29.998L28.712,30.295L28.71,30.301L28.616,30.6L28.614,30.606L28.606,30.632L28.513,30.904L28.511,30.91L28.406,31.209L28.404,31.215L28.335,31.408L28.295,31.514L28.294,31.516L28.16,31.871L28.161,31.869L28.03,32.217L28.031,32.215L28.019,32.245L27.898,32.555L27.899,32.554L27.77,32.888L27.77,32.886L27.644,33.215L27.645,33.213L27.522,33.535L27.523,33.533L27.403,33.85L27.404,33.848L27.318,34.078L27.286,34.158L27.287,34.157L27.169,34.46L27.17,34.458L27.056,34.756L27.056,34.754L26.945,35.046L26.946,35.044L26.838,35.33L26.839,35.329L26.734,35.609L26.734,35.607L26.632,35.881L26.633,35.88L26.582,36.019L26.533,36.148L26.533,36.146L26.435,36.409L26.436,36.407L26.34,36.664L26.341,36.662L26.248,36.913L26.249,36.91L26.073,37.395L26.074,37.392L25.909,37.854L25.909,37.851L25.881,37.933L25.752,38.289L25.753,38.287L25.606,38.702L25.607,38.7L25.47,39.093L25.471,39.091L25.344,39.462L25.345,39.46L25.228,39.809L25.229,39.807L25.121,40.134L25.122,40.132L25.024,40.437L25.024,40.435L24.935,40.719L24.936,40.717L24.855,40.979L24.855,40.977L24.812,41.12L24.782,41.217L24.783,41.216L24.717,41.434L24.717,41.433L24.659,41.63L24.659,41.629L24.609,41.805L24.609,41.803L24.565,41.958L24.566,41.957L24.529,42.091L24.529,42.09L24.499,42.203L24.499,42.202L24.475,42.294L24.475,42.292L24.448,42.401L24.445,42.415L24.445,42.413L24.435,42.453L24.249,42.591L24.115,42.402L24.118,42.361L24.119,42.359L24.12,42.344L24.131,42.233L24.131,42.231L24.141,42.137L24.141,42.135L24.154,42.019L24.154,42.018L24.171,41.88L24.171,41.879L24.191,41.719L24.191,41.718L24.215,41.536L24.215,41.535L24.243,41.331L24.243,41.33L24.276,41.104L24.276,41.102L24.291,41.001L24.314,40.854L24.315,40.852L24.359,40.582L24.359,40.58L24.409,40.287L24.409,40.285L24.465,39.97L24.465,39.968L24.527,39.629L24.527,39.627L24.595,39.265L24.596,39.263L24.671,38.878L24.671,38.876L24.753,38.467L24.754,38.465L24.843,38.033L24.843,38.03L24.922,37.66L24.941,37.575L24.941,37.572L25.05,37.094L25.051,37.091L25.167,36.589L25.168,36.587L25.23,36.327L25.23,36.325L25.294,36.059L25.294,36.058L25.36,35.786L25.361,35.784L25.394,35.65L25.43,35.506L25.431,35.505L25.504,35.221L25.504,35.22L25.58,34.93L25.58,34.928L25.658,34.633L25.659,34.631L25.739,34.329L25.74,34.328L25.823,34.02L25.823,34.018L25.909,33.704L25.909,33.702L25.932,33.619L26,33.383L26.001,33.381L26.096,33.056L26.096,33.054L26.194,32.723L26.195,32.721L26.295,32.384L26.296,32.382L26.399,32.039L26.399,32.037L26.496,31.718L26.506,31.687L26.507,31.685L26.621,31.331L26.621,31.329L26.739,30.969L26.738,30.971L26.772,30.864L26.838,30.669L26.836,30.676L26.935,30.375L26.933,30.381L27.021,30.107L27.03,30.081L27.028,30.087L27.126,29.79L27.124,29.796L27.219,29.5L27.217,29.506L27.254,29.389L27.312,29.212L27.31,29.217L27.403,28.925L27.402,28.931L27.492,28.641L27.492,28.64L27.491,28.645L27.583,28.357L27.581,28.362L27.671,28.076L27.669,28.081L27.756,27.797Z" style="fill:#fff;fill-opacity:0.65;"/>
    <circle cx="32.012" cy="38.251" r="3.755" style="fill:none;stroke:#f1765a;stroke-width:1px;"/>
</svg>
