<?xml version="1.0" encoding="UTF-8" standalone="no"?>
<!DOCTYPE svg PUBLIC "-//W3C//DTD SVG 1.1//EN" "http://www.w3.org/Graphics/SVG/1.1/DTD/svg11.dtd">
<svg width="100%" height="100%" viewBox="0 0 65 64" version="1.1" xmlns="http://www.w3.org/2000/svg" xmlns:xlink="http://www.w3.org/1999/xlink" xml:space="preserve" xmlns:serif="http://www.serif.com/" style="fill-rule:evenodd;clip-rule:evenodd;stroke-linejoin:round;stroke-miterlimit:2;">
    <rect id="Consumers" x="0.738" y="0" width="64" height="64" style="fill:none;"/>
    <path d="M11.446,21.317C15.961,18.163 15.036,16.511 15.65,12.271C16.13,8.963 19.152,3.123 24.655,2.425C34.108,1.228 35.006,8.578 35.006,8.578C32.03,7.046 27.684,7.435 26.607,11.187C25.217,16.029 28.265,17.239 23.947,21.486C20.661,24.718 23.446,25.381 20.166,30.737C18.828,32.922 14.927,38.147 10.256,36.401C5.517,34.63 4.564,26.124 11.446,21.317Z" style="fill:#1f235c;"/>
    <path d="M11.211,61.173C11.211,61.173 7.907,45.351 6.384,38.057C5.964,36.049 7.219,34.072 9.214,33.597C12.811,32.738 18.234,31.445 21.202,30.737C22.406,30.45 23.63,31.13 24.022,32.305C26.333,39.237 33.64,61.159 33.64,61.159L11.211,61.173Z" style="fill:#f3775b;"/>
    <path d="M14.944,61.173C14.944,61.173 11.35,44.714 9.715,37.227C9.275,35.211 10.529,33.213 12.537,32.734C16.131,31.875 21.514,30.589 24.392,29.901C25.533,29.629 26.704,30.226 27.153,31.31C29.703,37.465 37.633,56.606 37.633,56.606L14.944,61.173Z" style="fill:#9d7e3d;"/>
    <path d="M16.234,56.621C16.234,56.621 13.938,47.449 14.257,38.753C14.629,28.589 20.836,25.702 25.05,25.467C32.569,25.046 36.279,39.696 36.279,39.696C36.279,39.696 36.249,39.864 36.312,40.144C37.996,47.632 34.186,56.678 34.186,56.678L16.234,56.621Z" style="fill:#f3775b;"/>
    <clipPath id="_clip1">
        <path d="M16.234,56.621C16.234,56.621 13.938,47.449 14.257,38.753C14.629,28.589 20.836,25.702 25.05,25.467C32.569,25.046 36.279,39.696 36.279,39.696C36.279,39.696 36.249,39.864 36.312,40.144C37.996,47.632 34.186,56.678 34.186,56.678L16.234,56.621Z"/>
    </clipPath>
    <g clip-path="url(#_clip1)">
        <path d="M69.141,38.502C67.993,40.322 67.076,41.658 66.541,42.2C66.541,42.2 66.892,43.309 65.753,44.322C65.753,44.322 68.626,43.411 69.141,38.502Z" style="fill:#a46048;"/>
    </g>
    <path d="M52.104,38.512C52.024,43.692 46.315,40.996 46.315,40.996C46.315,40.996 47.656,32.139 46.982,26.766C46.848,25.694 45.727,25.354 45.078,24.676C44.101,23.657 42.979,23.615 42.565,23.354C42.44,23.288 42.362,23.159 42.358,23.018C42.354,22.877 42.426,22.745 42.546,22.672C43.007,22.456 43.416,22.024 44.819,22.238C44.834,22.241 43.888,21.298 41.62,20.735C41.411,20.685 40.891,20.5 40.865,20.286C40.839,20.073 40.935,19.833 41.14,19.767C42.955,19.175 46.303,19.304 48.345,20.775C49.899,21.894 51.268,23.873 51.639,26.144C52.588,31.945 52.124,37.183 52.104,38.512Z" style="fill:#f3775b;"/>
    <clipPath id="_clip2">
        <path d="M52.104,38.512C52.024,43.692 46.315,40.996 46.315,40.996C46.315,40.996 47.656,32.139 46.982,26.766C46.848,25.694 45.727,25.354 45.078,24.676C44.101,23.657 42.979,23.615 42.565,23.354C42.44,23.288 42.362,23.159 42.358,23.018C42.354,22.877 42.426,22.745 42.546,22.672C43.007,22.456 43.416,22.024 44.819,22.238C44.834,22.241 43.888,21.298 41.62,20.735C41.411,20.685 40.891,20.5 40.865,20.286C40.839,20.073 40.935,19.833 41.14,19.767C42.955,19.175 46.303,19.304 48.345,20.775C49.899,21.894 51.268,23.873 51.639,26.144C52.588,31.945 52.124,37.183 52.104,38.512Z"/>
    </clipPath>
    <g clip-path="url(#_clip2)">
        <path d="M42.266,20.853C44.172,21.849 45.579,22.655 46.162,23.144C46.162,23.144 47.238,22.704 48.341,23.757C48.341,23.757 47.2,20.968 42.266,20.853Z" style="fill:#9c7c3c;"/>
    </g>
    <path d="M16.132,60.535C16.132,60.535 12.75,49.186 13.068,40.49C13.441,30.326 19.28,25.942 25.05,25.467C32.556,24.848 35.795,29.473 38.97,32.605C40.832,34.441 44.397,42.269 44.397,42.269C45.645,40.674 46.461,38.303 46.837,35.14C47.416,36.678 50.233,37.92 52.642,36.752C51.84,44.651 48.735,50.399 44.957,50.581C41.197,50.762 37.279,43.528 37.022,40.246C37.554,47.028 38.332,52.238 41.954,56.703L16.132,60.535Z" style="fill:#c1c2e6;"/>
    <clipPath id="_clip3">
        <path d="M16.132,60.535C16.132,60.535 12.75,49.186 13.068,40.49C13.441,30.326 19.28,25.942 25.05,25.467C32.556,24.848 35.795,29.473 38.97,32.605C40.832,34.441 44.397,42.269 44.397,42.269C45.645,40.674 46.461,38.303 46.837,35.14C47.416,36.678 50.233,37.92 52.642,36.752C51.84,44.651 48.735,50.399 44.957,50.581C41.197,50.762 37.279,43.528 37.022,40.246C37.554,47.028 38.332,52.238 41.954,56.703L16.132,60.535Z"/>
    </clipPath>
    <g clip-path="url(#_clip3)">
        <path d="M20.544,40.998C20.476,47.608 21.042,53.685 22.195,59.268L25.545,59.69C21.468,54.13 21.512,49.995 20.544,40.998Z" style="fill:#a4a6cf;"/>
        <path d="M27.118,26.631C27.118,26.631 29.977,37.201 24.695,39.568C24.695,39.568 31.386,37.539 28.621,26.523L27.118,26.631Z" style="fill:#a4a6cf;"/>
        <path d="M22.057,25.748C22.057,25.748 27.282,25.791 31.91,28.414C35.113,30.229 39.503,34.74 41.579,35.651C43.655,36.562 42.081,31.697 42.081,31.697C42.081,31.697 34.991,20.832 22.057,25.748Z" style="fill:#fff;fill-opacity:0.32;"/>
    </g>
    <path d="M22.058,20.928C22.943,23.644 23.397,25.762 22.865,26.51C23.682,28.986 25.666,30.447 27.998,31.607C28.503,30.989 29.275,29.617 29.569,27.466C29.932,24.816 30.122,24.324 32.686,21.265L22.058,20.928Z" style="fill:#f3775b;"/>
    <clipPath id="_clip4">
        <path d="M22.058,20.928C22.943,23.644 23.397,25.762 22.865,26.51C23.682,28.986 25.666,30.447 27.998,31.607C28.503,30.989 29.275,29.617 29.569,27.466C29.932,24.816 30.122,24.324 32.686,21.265L22.058,20.928Z"/>
    </clipPath>
    <g clip-path="url(#_clip4)">
        <path d="M21.978,22.557C21.978,22.557 29.675,25.946 29.277,28.911C28.242,36.615 34.193,23.687 34.193,23.687L21.978,22.557Z" style="fill:#917f39;fill-opacity:0.87;"/>
    </g>
    <path d="M26.81,2.466C28.977,2.466 35.285,2.935 34.973,10.578C34.801,14.817 37.505,17.442 37.505,17.442C33.599,19.128 34.779,24.561 26.81,24.399C22.417,24.31 18.849,19.485 18.849,13.433C18.849,7.38 22.416,2.466 26.81,2.466Z" style="fill:#f3775b;"/>
    <clipPath id="_clip5">
        <path d="M26.81,2.466C28.977,2.466 35.285,2.935 34.973,10.578C34.801,14.817 37.505,17.442 37.505,17.442C33.599,19.128 34.779,24.561 26.81,24.399C22.417,24.31 18.849,19.485 18.849,13.433C18.849,7.38 22.416,2.466 26.81,2.466Z"/>
    </clipPath>
    <g clip-path="url(#_clip5)">
        <path d="M11.446,21.317C15.961,18.163 15.036,16.511 15.65,12.271C16.13,8.963 19.152,3.123 24.655,2.425C34.108,1.228 35.006,8.578 35.006,8.578C32.03,7.046 27.684,7.435 26.607,11.187C25.217,16.029 28.265,17.239 23.947,21.486C20.661,24.718 23.446,25.381 20.166,30.737C18.828,32.922 14.927,38.147 10.256,36.401C5.517,34.63 4.564,26.124 11.446,21.317Z" style="fill:#1f235c;"/>
    </g>
    <path d="M9.46,61.617L39.432,52.528L58.352,63.524L9.46,61.617Z" style="fill:#fff;"/>
    <ellipse cx="46.55" cy="58.364" rx="11.368" ry="3.738" style="fill:#e3e3f4;"/>
    <ellipse cx="46.374" cy="57.436" rx="11.368" ry="3.738" style="fill:#f3775b;"/>
    <path d="M38.681,57.436C38.991,58.743 42.32,59.773 46.374,59.773C50.429,59.773 53.757,58.743 54.068,57.436C54.083,57.502 54.091,57.568 54.091,57.636C54.091,59.036 50.633,60.173 46.374,60.173C42.115,60.173 38.657,59.036 38.657,57.636C38.657,57.568 38.665,57.502 38.681,57.436Z" style="fill:#fff;fill-opacity:0.48;"/>
    <path d="M38.711,57.736C38.675,57.637 38.657,57.537 38.657,57.436C38.657,56.035 42.115,54.898 46.374,54.898C50.633,54.898 54.091,56.035 54.091,57.436C54.091,57.537 54.073,57.637 54.038,57.736C53.586,56.477 50.325,55.499 46.374,55.499C42.424,55.499 39.163,56.477 38.711,57.736Z" style="fill:#9d7e3d;"/>
    <path d="M31.332,54.979L43.16,51.4C43.16,51.4 62.49,52.307 59.539,54.893C56.588,57.479 33.974,54.732 31.332,54.979Z" style="fill:#e3e3f4;"/>
    <path d="M46.374,22.056L36.1,20.521L36.039,20.928L46.313,22.463L46.374,22.056Z" style="fill:#4ebe22;"/>
    <path d="M46.019,22.415L36.391,20.977L36.291,21.65L42.709,22.609C43.161,22.41 44.285,22.462 45.95,22.967L46.019,22.415Z" style="fill:#cecfeb;"/>
    <path d="M46.196,21.36L36.568,19.922L36.468,20.595L46.095,22.033L46.196,21.36Z" style="fill:#cecfeb;"/>
    <path d="M48.164,58.804L37.505,56.678L37.506,58.63L48.165,60.756L48.164,58.804Z" style="fill:#cecfeb;"/>
    <path d="M48.165,59.663L37.505,57.537L37.505,58.026L48.165,60.152L48.165,59.663Z" style="fill:#4ebe22;"/>
    <path d="M44.995,55.673L37.505,56.678L48.203,58.804L44.995,55.673Z" style="fill:#fff;"/>
</svg>
