<?xml version="1.0" encoding="UTF-8" standalone="no"?>
<!DOCTYPE svg PUBLIC "-//W3C//DTD SVG 1.1//EN" "http://www.w3.org/Graphics/SVG/1.1/DTD/svg11.dtd">
<svg width="100%" height="100%" viewBox="0 0 65 65" version="1.1" xmlns="http://www.w3.org/2000/svg" xmlns:xlink="http://www.w3.org/1999/xlink" xml:space="preserve" xmlns:serif="http://www.serif.com/" style="fill-rule:evenodd;clip-rule:evenodd;stroke-linejoin:round;stroke-miterlimit:1.41421;">
    <rect id="Consumers" x="0.877" y="0.297" width="64" height="64" style="fill:none;"/>
    <path d="M11.585,21.614C16.1,18.46 15.174,16.808 15.788,12.568C16.268,9.26 19.29,3.419 24.793,2.722C34.247,1.525 35.144,8.875 35.144,8.875C32.168,7.343 27.822,7.732 26.745,11.484C25.355,16.326 28.403,17.536 24.085,21.783C20.799,25.015 23.584,25.678 20.304,31.034C18.966,33.219 15.065,38.444 10.395,36.698C5.655,34.927 4.702,26.421 11.585,21.614Z" style="fill:#1f235c;"/>
    <path d="M11.349,61.47C11.349,61.47 8.045,45.648 6.522,38.353C6.103,36.346 7.357,34.369 9.352,33.893C12.949,33.035 18.372,31.742 21.341,31.034C22.545,30.747 23.769,31.427 24.16,32.601C26.471,39.534 33.778,61.456 33.778,61.456L11.349,61.47Z" style="fill:#f3775b;"/>
    <path d="M15.082,61.47C15.082,61.47 11.488,45.011 9.854,37.524C9.413,35.508 10.668,33.51 12.675,33.031C16.27,32.172 21.653,30.886 24.53,30.198C25.671,29.925 26.842,30.523 27.291,31.607C29.841,37.762 37.771,56.903 37.771,56.903L15.082,61.47Z" style="fill:#9d7e3d;"/>
    <path d="M16.373,56.918C16.373,56.918 14.076,47.746 14.395,39.05C14.767,28.886 20.975,25.999 25.189,25.763C32.708,25.343 36.417,39.993 36.417,39.993C36.417,39.993 36.387,40.161 36.45,40.441C38.134,47.928 34.324,56.975 34.324,56.975L16.373,56.918Z" style="fill:#f3775b;"/>
    <clipPath id="_clip1">
        <path d="M16.373,56.918C16.373,56.918 14.076,47.746 14.395,39.05C14.767,28.886 20.975,25.999 25.189,25.763C32.708,25.343 36.417,39.993 36.417,39.993C36.417,39.993 36.387,40.161 36.45,40.441C38.134,47.928 34.324,56.975 34.324,56.975L16.373,56.918Z"/>
    </clipPath>
    <g clip-path="url(#_clip1)">
        <path d="M69.279,38.799C68.131,40.619 67.214,41.955 66.68,42.497C66.68,42.497 67.03,43.605 65.891,44.619C65.891,44.619 68.764,43.707 69.279,38.799Z" style="fill:#a46048;"/>
    </g>
    <path d="M52.242,38.809C52.162,43.989 46.453,41.293 46.453,41.293C46.453,41.293 47.794,32.436 47.121,27.062C46.986,25.991 45.865,25.651 45.216,24.973C44.24,23.954 43.118,23.912 42.703,23.651C42.579,23.584 42.5,23.456 42.496,23.315C42.492,23.174 42.564,23.042 42.684,22.969C43.145,22.753 43.554,22.321 44.958,22.535C44.972,22.538 44.026,21.594 41.758,21.032C41.549,20.981 41.029,20.797 41.003,20.583C40.977,20.37 41.073,20.13 41.278,20.064C43.093,19.472 46.442,19.601 48.483,21.072C50.037,22.191 51.406,24.17 51.778,26.441C52.726,32.242 52.263,37.48 52.242,38.809Z" style="fill:#f3775b;"/>
    <clipPath id="_clip2">
        <path d="M52.242,38.809C52.162,43.989 46.453,41.293 46.453,41.293C46.453,41.293 47.794,32.436 47.121,27.062C46.986,25.991 45.865,25.651 45.216,24.973C44.24,23.954 43.118,23.912 42.703,23.651C42.579,23.584 42.5,23.456 42.496,23.315C42.492,23.174 42.564,23.042 42.684,22.969C43.145,22.753 43.554,22.321 44.958,22.535C44.972,22.538 44.026,21.594 41.758,21.032C41.549,20.981 41.029,20.797 41.003,20.583C40.977,20.37 41.073,20.13 41.278,20.064C43.093,19.472 46.442,19.601 48.483,21.072C50.037,22.191 51.406,24.17 51.778,26.441C52.726,32.242 52.263,37.48 52.242,38.809Z"/>
    </clipPath>
    <g clip-path="url(#_clip2)">
        <path d="M42.404,21.15C44.31,22.146 45.717,22.951 46.3,23.44C46.3,23.44 47.377,23.001 48.479,24.054C48.479,24.054 47.338,21.265 42.404,21.15Z" style="fill:#9c7c3c;"/>
    </g>
    <path d="M16.27,60.832C16.27,60.832 12.888,49.483 13.207,40.787C13.579,30.623 19.418,26.239 25.189,25.763C32.694,25.145 35.934,29.77 39.108,32.902C40.97,34.738 44.535,42.566 44.535,42.566C45.783,40.971 46.6,38.6 46.975,35.437C47.554,36.975 50.371,38.217 52.78,37.049C51.978,44.948 48.873,50.695 45.095,50.878C41.335,51.059 37.417,43.825 37.16,40.543C37.692,47.325 38.47,52.535 42.092,57L16.27,60.832Z" style="fill:#c1c2e6;"/>
    <clipPath id="_clip3">
        <path d="M16.27,60.832C16.27,60.832 12.888,49.483 13.207,40.787C13.579,30.623 19.418,26.239 25.189,25.763C32.694,25.145 35.934,29.77 39.108,32.902C40.97,34.738 44.535,42.566 44.535,42.566C45.783,40.971 46.6,38.6 46.975,35.437C47.554,36.975 50.371,38.217 52.78,37.049C51.978,44.948 48.873,50.695 45.095,50.878C41.335,51.059 37.417,43.825 37.16,40.543C37.692,47.325 38.47,52.535 42.092,57L16.27,60.832Z"/>
    </clipPath>
    <g clip-path="url(#_clip3)">
        <path d="M20.683,41.294C20.615,47.905 21.181,53.982 22.333,59.564L25.684,59.986C21.607,54.427 21.651,50.292 20.683,41.294Z" style="fill:#a4a6cf;"/>
        <path d="M27.256,26.928C27.256,26.928 30.115,37.498 24.833,39.865C24.833,39.865 31.524,37.836 28.759,26.82L27.256,26.928Z" style="fill:#a4a6cf;"/>
        <path d="M22.196,26.045C22.196,26.045 27.42,26.088 32.049,28.711C35.251,30.526 39.641,35.037 41.717,35.948C43.793,36.859 42.219,31.993 42.219,31.993C42.219,31.993 35.13,21.129 22.196,26.045Z" style="fill:#fff;fill-opacity:0.317647;"/>
    </g>
    <path d="M22.196,21.225C23.081,23.94 23.536,26.059 23.003,26.807C23.82,29.283 25.805,30.744 28.136,31.904C28.641,31.286 29.413,29.914 29.707,27.763C30.07,25.113 30.261,24.621 32.824,21.562L22.196,21.225Z" style="fill:#f3775b;"/>
    <clipPath id="_clip4">
        <path d="M22.196,21.225C23.081,23.94 23.536,26.059 23.003,26.807C23.82,29.283 25.805,30.744 28.136,31.904C28.641,31.286 29.413,29.914 29.707,27.763C30.07,25.113 30.261,24.621 32.824,21.562L22.196,21.225Z"/>
    </clipPath>
    <g clip-path="url(#_clip4)">
        <path d="M22.117,22.854C22.117,22.854 29.813,26.243 29.415,29.207C28.38,36.912 34.331,23.984 34.331,23.984L22.117,22.854Z" style="fill:#917f39;fill-opacity:0.87451;"/>
    </g>
    <path d="M26.948,2.763C29.115,2.763 35.423,3.232 35.112,10.875C34.939,15.113 37.643,17.739 37.643,17.739C33.737,19.425 34.917,24.857 26.948,24.696C22.555,24.607 18.987,19.782 18.987,13.729C18.987,7.677 22.554,2.763 26.948,2.763Z" style="fill:#f3775b;"/>
    <clipPath id="_clip5">
        <path d="M26.948,2.763C29.115,2.763 35.423,3.232 35.112,10.875C34.939,15.113 37.643,17.739 37.643,17.739C33.737,19.425 34.917,24.857 26.948,24.696C22.555,24.607 18.987,19.782 18.987,13.729C18.987,7.677 22.554,2.763 26.948,2.763Z"/>
    </clipPath>
    <g clip-path="url(#_clip5)">
        <path d="M11.585,21.614C16.1,18.46 15.174,16.808 15.788,12.568C16.268,9.26 19.29,3.419 24.793,2.722C34.247,1.525 35.144,8.875 35.144,8.875C32.168,7.343 27.822,7.732 26.745,11.484C25.355,16.326 28.403,17.536 24.085,21.783C20.799,25.015 23.584,25.678 20.304,31.034C18.966,33.219 15.065,38.444 10.395,36.698C5.655,34.927 4.702,26.421 11.585,21.614Z" style="fill:#1f235c;"/>
    </g>
    <path d="M9.598,61.914L39.57,52.825L58.49,63.821L9.598,61.914Z" style="fill:#fff;"/>
    <ellipse cx="46.688" cy="58.661" rx="11.368" ry="3.738" style="fill:#e3e3f4;"/>
    <ellipse cx="46.512" cy="57.733" rx="11.368" ry="3.738" style="fill:#f3775b;"/>
    <path d="M38.819,57.733C39.13,59.039 42.458,60.07 46.512,60.07C50.567,60.07 53.895,59.039 54.206,57.733C54.222,57.799 54.23,57.865 54.23,57.933C54.23,59.333 50.772,60.47 46.512,60.47C42.253,60.47 38.795,59.333 38.795,57.933C38.795,57.865 38.803,57.799 38.819,57.733Z" style="fill:#fff;fill-opacity:0.478431;"/>
    <path d="M38.849,58.033C38.813,57.934 38.795,57.834 38.795,57.733C38.795,56.332 42.253,55.195 46.512,55.195C50.772,55.195 54.23,56.332 54.23,57.733C54.23,57.834 54.211,57.934 54.176,58.033C53.724,56.774 50.463,55.796 46.512,55.796C42.562,55.796 39.301,56.774 38.849,58.033Z" style="fill:#9d7e3d;"/>
    <path d="M31.47,55.276L43.298,51.697C43.298,51.697 62.629,52.604 59.677,55.19C56.726,57.776 34.112,55.029 31.47,55.276Z" style="fill:#e3e3f4;"/>
    <path d="M46.512,22.353L36.238,20.818L36.177,21.225L46.452,22.759L46.512,22.353Z" style="fill:#4ebe22;"/>
    <path d="M46.157,22.712L36.529,21.274L36.429,21.947L42.847,22.905C43.299,22.707 44.423,22.759 46.088,23.264L46.157,22.712Z" style="fill:#cecfeb;"/>
    <path d="M46.334,21.657L36.706,20.219L36.606,20.892L46.233,22.33L46.334,21.657Z" style="fill:#cecfeb;"/>
    <path d="M48.302,59.101L37.643,56.975L37.644,58.927L48.303,61.052L48.302,59.101Z" style="fill:#cecfeb;"/>
    <path d="M48.303,59.96L37.644,57.834L37.644,58.323L48.303,60.449L48.303,59.96Z" style="fill:#4ebe22;"/>
    <path d="M45.134,55.97L37.643,56.975L48.341,59.101L45.134,55.97Z" style="fill:#fff;"/>
</svg>
