<?xml version="1.0" encoding="UTF-8" standalone="no"?>
<!DOCTYPE svg PUBLIC "-//W3C//DTD SVG 1.1//EN" "http://www.w3.org/Graphics/SVG/1.1/DTD/svg11.dtd">
<svg width="100%" height="100%" viewBox="0 0 65 65" version="1.1" xmlns="http://www.w3.org/2000/svg" xmlns:xlink="http://www.w3.org/1999/xlink" xml:space="preserve" xmlns:serif="http://www.serif.com/" style="fill-rule:evenodd;clip-rule:evenodd;stroke-linejoin:round;stroke-miterlimit:2;">
    <rect id="Consumers" x="0.738" y="0.458" width="64" height="64" style="fill:none;"/>
    <path d="M11.446,21.775C15.961,18.621 15.036,16.97 15.65,12.73C16.13,9.422 19.152,3.581 24.655,2.884C34.108,1.686 35.006,9.036 35.006,9.036C32.03,7.504 27.684,7.893 26.607,11.645C25.217,16.487 28.265,17.697 23.947,21.944C20.661,25.176 23.446,25.839 20.166,31.196C18.828,33.381 14.927,38.605 10.256,36.86C5.517,35.088 4.564,26.583 11.446,21.775Z" style="fill:#1f235c;"/>
    <path d="M11.211,61.632C11.211,61.632 7.907,45.81 6.384,38.515C5.964,36.507 7.219,34.531 9.214,34.055C12.811,33.197 18.234,31.903 21.202,31.195C22.406,30.908 23.63,31.589 24.022,32.763C26.333,39.695 33.64,61.617 33.64,61.617L11.211,61.632Z" style="fill:#f3775b;"/>
    <path d="M14.944,61.632C14.944,61.632 11.35,45.172 9.715,37.686C9.275,35.669 10.529,33.672 12.537,33.192C16.131,32.333 21.514,31.047 24.392,30.36C25.533,30.087 26.704,30.684 27.153,31.768C29.703,37.924 37.633,57.065 37.633,57.065L14.944,61.632Z" style="fill:#9d7e3d;"/>
    <path d="M16.234,57.08C16.234,57.08 13.938,47.907 14.257,39.211C14.629,29.047 20.836,26.16 25.05,25.925C32.569,25.505 36.279,40.154 36.279,40.154C36.279,40.154 36.249,40.322 36.312,40.602C37.996,48.09 34.186,57.137 34.186,57.137L16.234,57.08Z" style="fill:#f3775b;"/>
    <clipPath id="_clip1">
        <path d="M16.234,57.08C16.234,57.08 13.938,47.907 14.257,39.211C14.629,29.047 20.836,26.16 25.05,25.925C32.569,25.505 36.279,40.154 36.279,40.154C36.279,40.154 36.249,40.322 36.312,40.602C37.996,48.09 34.186,57.137 34.186,57.137L16.234,57.08Z"/>
    </clipPath>
    <g clip-path="url(#_clip1)">
        <path d="M69.141,38.96C67.993,40.78 67.076,42.117 66.541,42.658C66.541,42.658 66.892,43.767 65.753,44.781C65.753,44.781 68.626,43.869 69.141,38.96Z" style="fill:#a46048;"/>
    </g>
    <path d="M52.104,38.971C52.024,44.151 46.315,41.454 46.315,41.454C46.315,41.454 47.656,32.597 46.982,27.224C46.848,26.153 45.727,25.812 45.078,25.135C44.101,24.115 42.979,24.074 42.565,23.813C42.44,23.746 42.362,23.618 42.358,23.477C42.354,23.336 42.426,23.204 42.546,23.13C43.007,22.915 43.416,22.482 44.819,22.697C44.834,22.699 43.888,21.756 41.62,21.194C41.411,21.143 40.891,20.958 40.865,20.745C40.839,20.531 40.935,20.292 41.14,20.225C42.955,19.633 46.303,19.763 48.345,21.233C49.899,22.353 51.268,24.332 51.639,26.603C52.588,32.403 52.124,37.642 52.104,38.971Z" style="fill:#f3775b;"/>
    <clipPath id="_clip2">
        <path d="M52.104,38.971C52.024,44.151 46.315,41.454 46.315,41.454C46.315,41.454 47.656,32.597 46.982,27.224C46.848,26.153 45.727,25.812 45.078,25.135C44.101,24.115 42.979,24.074 42.565,23.813C42.44,23.746 42.362,23.618 42.358,23.477C42.354,23.336 42.426,23.204 42.546,23.13C43.007,22.915 43.416,22.482 44.819,22.697C44.834,22.699 43.888,21.756 41.62,21.194C41.411,21.143 40.891,20.958 40.865,20.745C40.839,20.531 40.935,20.292 41.14,20.225C42.955,19.633 46.303,19.763 48.345,21.233C49.899,22.353 51.268,24.332 51.639,26.603C52.588,32.403 52.124,37.642 52.104,38.971Z"/>
    </clipPath>
    <g clip-path="url(#_clip2)">
        <path d="M42.266,21.311C44.172,22.308 45.579,23.113 46.162,23.602C46.162,23.602 47.238,23.163 48.341,24.215C48.341,24.215 47.2,21.426 42.266,21.311Z" style="fill:#9c7c3c;"/>
    </g>
    <path d="M16.132,60.994C16.132,60.994 12.75,49.644 13.068,40.948C13.441,30.784 19.28,26.4 25.05,25.925C32.556,25.307 35.795,29.931 38.97,33.063C40.832,34.9 44.397,42.728 44.397,42.728C45.645,41.132 46.461,38.762 46.837,35.599C47.416,37.136 50.233,38.378 52.642,37.21C51.84,45.109 48.735,50.857 44.957,51.039C41.197,51.22 37.279,43.986 37.022,40.704C37.554,47.486 38.332,52.696 41.954,57.161L16.132,60.994Z" style="fill:#c1c2e6;"/>
    <clipPath id="_clip3">
        <path d="M16.132,60.994C16.132,60.994 12.75,49.644 13.068,40.948C13.441,30.784 19.28,26.4 25.05,25.925C32.556,25.307 35.795,29.931 38.97,33.063C40.832,34.9 44.397,42.728 44.397,42.728C45.645,41.132 46.461,38.762 46.837,35.599C47.416,37.136 50.233,38.378 52.642,37.21C51.84,45.109 48.735,50.857 44.957,51.039C41.197,51.22 37.279,43.986 37.022,40.704C37.554,47.486 38.332,52.696 41.954,57.161L16.132,60.994Z"/>
    </clipPath>
    <g clip-path="url(#_clip3)">
        <path d="M20.544,41.456C20.476,48.067 21.042,54.143 22.195,59.726L25.545,60.148C21.468,54.588 21.512,50.453 20.544,41.456Z" style="fill:#a4a6cf;"/>
        <path d="M27.118,27.09C27.118,27.09 29.977,37.659 24.695,40.026C24.695,40.026 31.386,37.997 28.621,26.981L27.118,27.09Z" style="fill:#a4a6cf;"/>
        <path d="M22.057,26.206C22.057,26.206 27.282,26.249 31.91,28.872C35.113,30.687 39.503,35.198 41.579,36.109C43.655,37.02 42.081,32.155 42.081,32.155C42.081,32.155 34.991,21.29 22.057,26.206Z" style="fill:#fff;fill-opacity:0.32;"/>
    </g>
    <path d="M22.058,21.386C22.943,24.102 23.397,26.22 22.865,26.969C23.682,29.444 25.666,30.906 27.998,32.066C28.503,31.448 29.275,30.076 29.569,27.925C29.932,25.274 30.122,24.782 32.686,21.724L22.058,21.386Z" style="fill:#f3775b;"/>
    <clipPath id="_clip4">
        <path d="M22.058,21.386C22.943,24.102 23.397,26.22 22.865,26.969C23.682,29.444 25.666,30.906 27.998,32.066C28.503,31.448 29.275,30.076 29.569,27.925C29.932,25.274 30.122,24.782 32.686,21.724L22.058,21.386Z"/>
    </clipPath>
    <g clip-path="url(#_clip4)">
        <path d="M21.978,23.016C21.978,23.016 29.675,26.404 29.277,29.369C28.242,37.073 34.193,24.145 34.193,24.145L21.978,23.016Z" style="fill:#917f39;fill-opacity:0.87;"/>
    </g>
    <path d="M26.81,2.924C28.977,2.924 35.285,3.393 34.973,11.036C34.801,15.275 37.505,17.901 37.505,17.901C33.599,19.586 34.779,25.019 26.81,24.858C22.417,24.769 18.849,19.944 18.849,13.891C18.849,7.838 22.416,2.924 26.81,2.924Z" style="fill:#f3775b;"/>
    <clipPath id="_clip5">
        <path d="M26.81,2.924C28.977,2.924 35.285,3.393 34.973,11.036C34.801,15.275 37.505,17.901 37.505,17.901C33.599,19.586 34.779,25.019 26.81,24.858C22.417,24.769 18.849,19.944 18.849,13.891C18.849,7.838 22.416,2.924 26.81,2.924Z"/>
    </clipPath>
    <g clip-path="url(#_clip5)">
        <path d="M11.446,21.775C15.961,18.621 15.036,16.97 15.65,12.73C16.13,9.422 19.152,3.581 24.655,2.884C34.108,1.686 35.006,9.036 35.006,9.036C32.03,7.504 27.684,7.893 26.607,11.645C25.217,16.487 28.265,17.697 23.947,21.944C20.661,25.176 23.446,25.839 20.166,31.196C18.828,33.381 14.927,38.605 10.256,36.86C5.517,35.088 4.564,26.583 11.446,21.775Z" style="fill:#1f235c;"/>
    </g>
    <path d="M9.46,62.076L39.432,52.987L58.352,63.983L9.46,62.076Z" style="fill:#fff;"/>
    <ellipse cx="46.55" cy="58.822" rx="11.368" ry="3.738" style="fill:#e3e3f4;"/>
    <ellipse cx="46.374" cy="57.894" rx="11.368" ry="3.738" style="fill:#f3775b;"/>
    <path d="M38.681,57.894C38.991,59.201 42.32,60.231 46.374,60.231C50.429,60.231 53.757,59.201 54.068,57.894C54.083,57.96 54.091,58.027 54.091,58.094C54.091,59.494 50.633,60.631 46.374,60.631C42.115,60.631 38.657,59.494 38.657,58.094C38.657,58.027 38.665,57.96 38.681,57.894Z" style="fill:#fff;fill-opacity:0.48;"/>
    <path d="M38.711,58.194C38.675,58.096 38.657,57.995 38.657,57.894C38.657,56.494 42.115,55.357 46.374,55.357C50.633,55.357 54.091,56.494 54.091,57.894C54.091,57.995 54.073,58.096 54.038,58.194C53.586,56.935 50.325,55.957 46.374,55.957C42.424,55.957 39.163,56.935 38.711,58.194Z" style="fill:#9d7e3d;"/>
    <path d="M31.332,55.437L43.16,51.858C43.16,51.858 62.49,52.765 59.539,55.351C56.588,57.937 33.974,55.19 31.332,55.437Z" style="fill:#e3e3f4;"/>
    <path d="M46.374,22.514L36.1,20.979L36.039,21.386L46.313,22.921L46.374,22.514Z" style="fill:#9d7e3d;"/>
    <path d="M46.019,22.874L36.391,21.436L36.291,22.108L42.709,23.067C43.161,22.868 44.285,22.921 45.95,23.426L46.019,22.874Z" style="fill:#cecfeb;"/>
    <path d="M46.196,21.819L36.568,20.38L36.468,21.053L46.095,22.491L46.196,21.819Z" style="fill:#cecfeb;"/>
    <path d="M48.164,59.263L37.505,57.137L37.506,59.088L48.165,61.214L48.164,59.263Z" style="fill:#cecfeb;"/>
    <path d="M48.165,60.121L37.505,57.995L37.505,58.485L48.165,60.611L48.165,60.121Z" style="fill:#9d7e3d;"/>
    <path d="M44.995,56.131L37.505,57.137L48.203,59.263L44.995,56.131Z" style="fill:#fff;"/>
</svg>
