<?xml version="1.0" encoding="UTF-8" standalone="no"?>
<!DOCTYPE svg PUBLIC "-//W3C//DTD SVG 1.1//EN" "http://www.w3.org/Graphics/SVG/1.1/DTD/svg11.dtd">
<svg width="100%" height="100%" viewBox="0 0 65 64" version="1.1" xmlns="http://www.w3.org/2000/svg" xmlns:xlink="http://www.w3.org/1999/xlink" xml:space="preserve" xmlns:serif="http://www.serif.com/" style="fill-rule:evenodd;clip-rule:evenodd;stroke-linejoin:round;stroke-miterlimit:2;">
    <rect id="Delivery" x="0.738" y="0" width="64" height="64" style="fill:none;"/>
    <path d="M58.159,53.97L9.652,53.97L4.657,55.948L62.607,55.948L58.159,53.97Z" style="fill:#cecfeb;"/>
    <path d="M60.312,49.966C60.89,49.966 61.44,49.716 61.82,49.28C62.199,48.844 62.372,48.265 62.293,47.692C61.935,45.107 61.363,40.968 61.069,38.838C60.949,37.972 60.457,37.201 59.722,36.727C59.018,36.274 58.147,35.713 57.571,35.342C57.161,35.078 56.822,34.719 56.583,34.295C55.629,32.606 53.039,28.019 51.678,25.61C51.146,24.668 50.148,24.085 49.066,24.085C42.122,24.085 16.474,24.085 7.657,24.085C6.861,24.085 6.098,24.401 5.535,24.964C4.973,25.527 4.657,26.29 4.657,27.085C4.657,32.426 4.657,43.447 4.657,47.966C4.657,48.497 4.868,49.005 5.243,49.38C5.618,49.756 6.126,49.966 6.657,49.966C15.482,49.966 50.917,49.966 60.312,49.966Z" style="fill:#f3775b;"/>
    <clipPath id="_clip1">
        <path d="M60.312,49.966C60.89,49.966 61.44,49.716 61.82,49.28C62.199,48.844 62.372,48.265 62.293,47.692C61.935,45.107 61.363,40.968 61.069,38.838C60.949,37.972 60.457,37.201 59.722,36.727C59.018,36.274 58.147,35.713 57.571,35.342C57.161,35.078 56.822,34.719 56.583,34.295C55.629,32.606 53.039,28.019 51.678,25.61C51.146,24.668 50.148,24.085 49.066,24.085C42.122,24.085 16.474,24.085 7.657,24.085C6.861,24.085 6.098,24.401 5.535,24.964C4.973,25.527 4.657,26.29 4.657,27.085C4.657,32.426 4.657,43.447 4.657,47.966C4.657,48.497 4.868,49.005 5.243,49.38C5.618,49.756 6.126,49.966 6.657,49.966C15.482,49.966 50.917,49.966 60.312,49.966Z"/>
    </clipPath>
    <g clip-path="url(#_clip1)">
        <path d="M62.607,20.4L1.377,49.966L1.377,56.537L62.607,56.537L62.607,20.4Z" style="fill:#c84f4d;fill-opacity:0.4;"/>
    </g>
    <circle cx="17.626" cy="49.966" r="5.982" style="fill:#2b307e;"/>
    <circle cx="50.556" cy="49.966" r="5.982" style="fill:#2b307e;"/>
    <circle cx="17.626" cy="49.966" r="2.879" style="fill:#aaacdd;"/>
    <circle cx="50.556" cy="49.966" r="2.879" style="fill:#aaacdd;"/>
    <path d="M50.004,29.382C49.32,28.041 47.94,27.198 46.435,27.2C45.769,27.201 45.085,27.202 44.551,27.203C44,27.204 43.553,27.651 43.553,28.203C43.553,29.559 43.553,31.97 43.553,33.33C43.553,33.597 43.659,33.852 43.848,34.04C44.037,34.228 44.294,34.332 44.56,34.33C46.096,34.319 49.041,34.298 50.88,34.284C51.227,34.282 51.547,34.1 51.727,33.804C51.907,33.507 51.921,33.139 51.763,32.83C51.257,31.838 50.576,30.503 50.004,29.382Z" style="fill:#ededf8;"/>
    <clipPath id="_clip2">
        <path d="M50.004,29.382C49.32,28.041 47.94,27.198 46.435,27.2C45.769,27.201 45.085,27.202 44.551,27.203C44,27.204 43.553,27.651 43.553,28.203C43.553,29.559 43.553,31.97 43.553,33.33C43.553,33.597 43.659,33.852 43.848,34.04C44.037,34.228 44.294,34.332 44.56,34.33C46.096,34.319 49.041,34.298 50.88,34.284C51.227,34.282 51.547,34.1 51.727,33.804C51.907,33.507 51.921,33.139 51.763,32.83C51.257,31.838 50.576,30.503 50.004,29.382Z"/>
    </clipPath>
    <g clip-path="url(#_clip2)">
        <path d="M37.622,32.84L51.78,25.755L49.314,21.556L37.529,21.448L37.622,32.84Z" style="fill:#fff;"/>
    </g>
    <path d="M43.553,18.45C43.553,16.793 42.21,15.45 40.553,15.45C32.943,15.45 13.039,15.45 6.657,15.45C5.552,15.45 4.657,16.345 4.657,17.45C4.657,21.456 4.657,30.086 4.657,30.086L43.553,30.086L43.553,18.45Z" style="fill:#f3775b;"/>
</svg>
