<?xml version="1.0" encoding="UTF-8" standalone="no"?>
<!DOCTYPE svg PUBLIC "-//W3C//DTD SVG 1.1//EN" "http://www.w3.org/Graphics/SVG/1.1/DTD/svg11.dtd">
<svg width="100%" height="100%" viewBox="0 0 65 65" version="1.1" xmlns="http://www.w3.org/2000/svg" xmlns:xlink="http://www.w3.org/1999/xlink" xml:space="preserve" xmlns:serif="http://www.serif.com/" style="fill-rule:evenodd;clip-rule:evenodd;stroke-linejoin:round;stroke-miterlimit:2;">
    <rect id="Education" x="0.382" y="0.882" width="64" height="64" style="fill:none;"/>
    <clipPath id="_clip1">
        <rect x="0.382" y="0.882" width="64" height="64"/>
    </clipPath>
    <g clip-path="url(#_clip1)">
        <path d="M34.77,44.244C34.77,44.244 37.586,46.716 39.777,48.638C41.196,49.884 43.343,49.795 44.655,48.436C45.556,47.502 46.373,46.655 46.373,46.655L46.373,41.576L43.089,40.032L34.77,44.244Z" style="fill:#a4a6cf;"/>
        <path d="M35.34,38.792C34.677,38.754 33.377,39.098 33.489,42.047C33.557,43.832 35.41,44.354 35.41,44.354C35.41,44.354 37.657,44.666 37.569,41.511C37.518,39.706 36.571,38.862 35.34,38.792Z" style="fill:#2b307e;"/>
        <g>
            <path d="M60.706,22.278C58.44,18.586 57.737,17.395 57.689,14.025C57.65,11.396 55.96,7.629 51.709,6.646C44.672,5.018 45.351,9.014 45.351,9.014C47.828,8.122 49.713,11.041 50.007,12.216C50.965,16.061 49.236,14.286 52.173,18.038C54.408,20.893 51.048,22.868 53.062,27.379C53.788,29.005 55.832,32.683 58.932,32.909C59.342,32.939 59.77,32.908 60.216,32.805C64.094,31.905 64.171,27.922 60.706,22.278Z" style="fill:#1f235c;"/>
            <path d="M60.133,75.982C60.133,75.982 61.701,41.671 61.451,34.83C61.158,26.835 55.34,23.197 52.025,23.012C46.11,22.682 42.354,26.073 41.075,28.627C39.913,30.949 38.97,36.702 36.847,37.084C34.569,37.494 37.461,46.309 40.398,45.253C42.28,44.577 42.506,42.21 42.58,42.494C43.22,44.976 43.821,46.401 44.06,52.669C44.353,60.384 39.157,72.912 39.178,76.771C39.179,76.935 60.133,75.982 60.133,75.982Z" style="fill:#c1c2e6;"/>
            <clipPath id="_clip2">
                <path d="M60.133,75.982C60.133,75.982 61.701,41.671 61.451,34.83C61.158,26.835 55.34,23.197 52.025,23.012C46.11,22.682 42.354,26.073 41.075,28.627C39.913,30.949 38.97,36.702 36.847,37.084C34.569,37.494 37.461,46.309 40.398,45.253C42.28,44.577 42.506,42.21 42.58,42.494C43.22,44.976 43.821,46.401 44.06,52.669C44.353,60.384 39.157,72.912 39.178,76.771C39.179,76.935 60.133,75.982 60.133,75.982Z"/>
            </clipPath>
            <g clip-path="url(#_clip2)">
                <path d="M45.72,21.133C45.72,21.133 55.634,27.912 54.889,32.098C54.348,35.136 51.6,37.482 50.134,38.54C49.904,38.702 49.747,38.95 49.7,39.227C49.653,39.505 49.718,39.791 49.882,40.02C50.82,41.321 52.5,43.749 52.882,45.258C53.795,48.859 52.156,69.758 52.156,69.758C52.156,69.758 73.07,60.355 72.624,59.074C72.178,57.794 76.075,29.21 76.075,29.21L45.72,21.133Z" style="fill:#a4a6cf;"/>
                <path d="M55.24,37.577C56.282,41.366 56.624,52.78 55.216,60.661C55.08,61.422 59.242,60.795 61.203,59.96C63.354,59.044 61.174,66.542 60.897,67.346L53.064,65.989C55.048,60.941 56.311,44.615 55.24,37.577Z" style="fill:#7a7db9;"/>
                <clipPath id="_clip3">
                    <path d="M55.24,37.577C56.282,41.366 56.624,52.78 55.216,60.661C55.08,61.422 59.242,60.795 61.203,59.96C63.354,59.044 61.174,66.542 60.897,67.346L53.064,65.989C55.048,60.941 56.311,44.615 55.24,37.577Z"/>
                </clipPath>
                <g clip-path="url(#_clip3)">
                    <path d="M55.849,60.838C57.418,60.961 58.801,60.767 59.97,60.211C59.97,60.211 60.179,64.957 58.339,66.618C56.499,68.279 54.995,66.755 55.163,65.456C55.312,64.307 55.217,64.387 55.217,64.387C55.217,64.387 53.253,65.15 53.784,64.132C54.536,62.691 55.404,62.504 55.849,60.838Z" style="fill:#f3775b;"/>
                    <clipPath id="_clip4">
                        <path d="M55.849,60.838C57.418,60.961 58.801,60.767 59.97,60.211C59.97,60.211 60.179,64.957 58.339,66.618C56.499,68.279 54.995,66.755 55.163,65.456C55.312,64.307 55.217,64.387 55.217,64.387C55.217,64.387 53.253,65.15 53.784,64.132C54.536,62.691 55.404,62.504 55.849,60.838Z"/>
                    </clipPath>
                    <g clip-path="url(#_clip4)">
                        <path d="M56.769,57.94C56.769,57.94 56.063,64.176 54.722,65.68C53.382,67.184 50.616,65.807 50.616,65.807L53.113,58.672L56.769,57.94Z" style="fill:#f3ab9b;"/>
                    </g>
                </g>
                <path d="M54.379,23.233C54.379,23.233 47.67,24.26 44.639,27.145C39.238,32.287 39.28,36.311 37.647,37.027C36.014,37.744 38.628,27.913 38.628,27.913C38.628,27.913 44.205,19.366 54.379,23.233Z" style="fill:#fff;fill-opacity:0.32;"/>
            </g>
            <path d="M46.565,5.6C46.565,5.6 41.399,7.264 42.83,12.398C44.261,17.531 46.907,14.798 46.907,14.798L46.616,5.896" style="fill:#1f235c;"/>
            <path d="M54.237,19.6C53.27,21.628 52.7,23.234 53.039,23.872C52.151,25.72 50.584,26.708 48.647,27.376C48.316,26.843 47.724,25.645 47.713,23.937C47.699,21.832 47.6,21.429 45.912,18.783L54.237,19.6Z" style="fill:#f3775b;"/>
            <clipPath id="_clip5">
                <path d="M54.237,19.6C53.27,21.628 52.7,23.234 53.039,23.872C52.151,25.72 50.584,26.708 48.647,27.376C48.316,26.843 47.724,25.645 47.713,23.937C47.699,21.832 47.6,21.429 45.912,18.783L54.237,19.6Z"/>
            </clipPath>
            <g clip-path="url(#_clip5)">
                <path d="M48.783,15.725C48.783,15.725 51.084,24.013 49.631,33.35C48.691,39.393 57.177,17.012 57.177,17.012L48.783,15.725Z" style="fill:#664e39;fill-opacity:0.56;"/>
            </g>
            <path d="M50.731,4.425C49.027,4.359 44.07,5.643 44.43,10.947C44.602,13.477 44.101,14.794 43.609,15.469C43.421,15.603 43.308,15.819 43.305,16.05C43.301,16.281 43.408,16.499 43.591,16.639C45.482,18.362 44.43,21.56 50.058,21.666C53.514,21.731 56.466,18.047 56.652,13.29C56.837,8.532 54.184,4.56 50.731,4.425Z" style="fill:#f3775b;"/>
            <clipPath id="_clip6">
                <path d="M50.731,4.425C49.027,4.359 44.07,5.643 44.43,10.947C44.602,13.477 44.101,14.794 43.609,15.469C43.421,15.603 43.308,15.819 43.305,16.05C43.301,16.281 43.408,16.499 43.591,16.639C45.482,18.362 44.43,21.56 50.058,21.666C53.514,21.731 56.466,18.047 56.652,13.29C56.837,8.532 54.184,4.56 50.731,4.425Z"/>
            </clipPath>
            <g clip-path="url(#_clip6)">
                <path d="M37.822,1.76C37.822,1.76 48.647,5.449 46.772,14.115C45.582,19.616 49.133,21.324 52.035,23.277L42.892,26.088C42.892,26.088 28.839,6.165 47.057,-0.098" style="fill:#f3ab9b;"/>
            </g>
            <path d="M60.706,22.278C58.44,18.586 58.328,17.507 58.784,14.168C59.181,11.268 57.846,5.638 52.671,4.659C47.615,3.702 45.775,5.814 45.282,6.593C45.183,6.797 45.177,7.034 45.266,7.244C46.993,11.654 49.548,10.256 50.496,13.088C52.038,17.694 52.217,16.459 53.549,18.149C55.538,20.674 52.675,19.833 54.69,24.345C55.415,25.97 64.171,27.922 60.706,22.278Z" style="fill:#1f235c;"/>
            <path d="M47.189,8.964C47.189,8.964 50.786,11.268 52.063,15.003C52.063,15.003 50.853,8.718 49.695,7.882C48.538,7.046 47.189,8.964 47.189,8.964Z" style="fill:#1f235c;"/>
        </g>
        <path d="M15.781,26.909L15.799,26.92L17.162,28.817L16.799,31.126L16.794,31.135L15.758,32.777L14.335,34.972L10.58,40.659L7.917,44.643L7.926,44.628L7.84,44.758L7.858,44.729L7.774,44.86L7.791,44.83L7.709,44.962L7.726,44.932L7.646,45.065L7.662,45.035L7.584,45.168L7.6,45.139L7.524,45.273L7.539,45.243L7.464,45.378L7.479,45.348L7.407,45.484L7.421,45.454L7.35,45.591L7.364,45.56L7.295,45.698L7.309,45.668L7.242,45.806L7.255,45.776L7.19,45.914L7.202,45.884L7.139,46.024L7.151,45.993L7.09,46.134L7.102,46.103L7.042,46.244L7.054,46.214L6.996,46.355L7.007,46.325L6.951,46.467L6.962,46.436L6.908,46.579L6.918,46.549L6.866,46.692L6.876,46.662L6.826,46.806L6.835,46.775L6.787,46.92L6.795,46.889L6.749,47.034L6.757,47.003L6.753,47.019L6.713,47.149L6.721,47.118L6.678,47.264L6.685,47.234L6.644,47.38L6.651,47.349L6.612,47.497L6.619,47.466L6.582,47.613L6.588,47.583L6.553,47.731L6.558,47.7L6.525,47.848L6.531,47.817L6.499,47.966L6.504,47.935L6.475,48.085L6.479,48.054L6.452,48.204L6.456,48.173L6.43,48.323L6.434,48.292L6.411,48.442L6.414,48.412L6.392,48.562L6.395,48.532L6.375,48.682L6.378,48.652L6.36,48.803L6.362,48.772L6.346,48.924L6.348,48.893L6.334,49.045L6.336,49.014L6.324,49.166L6.325,49.136L6.315,49.288L6.315,49.257L6.307,49.41L6.307,49.379L6.301,49.532L6.301,49.501L6.297,49.654L6.296,49.624L6.294,49.776L6.293,49.746L6.293,49.899L6.292,49.869L6.294,50.022L6.292,49.992L6.296,50.145L6.294,50.115L6.3,50.267L6.297,50.238L6.305,50.391L6.302,50.361L6.312,50.514L6.308,50.484L6.32,50.637L6.317,50.608L6.331,50.76L6.326,50.731L6.342,50.884L6.338,50.854L6.356,51.007L6.351,50.978L6.371,51.131L6.366,51.101L6.388,51.254L6.382,51.225L6.406,51.377L6.4,51.349L6.426,51.501L6.42,51.472L6.448,51.624L6.441,51.596L6.471,51.747L6.464,51.719L6.496,51.871L6.489,51.842L6.523,51.994L6.515,51.966L6.551,52.117L6.547,52.103L7.09,54.309L10.711,69.177L12.23,75.466L12.277,75.661L11.492,77.099L10.061,76.303L9.996,76.112L7.92,69.985L3.036,55.483L2.316,53.328L2.312,53.314L2.264,53.166L2.256,53.138L2.21,52.99L2.203,52.962L2.159,52.813L2.152,52.785L2.109,52.636L2.103,52.608L2.063,52.458L2.056,52.43L2.018,52.28L2.012,52.251L1.976,52.101L1.97,52.073L1.936,51.922L1.931,51.893L1.899,51.743L1.894,51.714L1.864,51.563L1.859,51.534L1.831,51.383L1.827,51.353L1.801,51.202L1.797,51.173L1.773,51.021L1.77,50.992L1.748,50.84L1.745,50.811L1.725,50.659L1.722,50.629L1.704,50.477L1.702,50.447L1.685,50.295L1.684,50.265L1.669,50.113L1.668,50.083L1.656,49.931L1.655,49.901L1.644,49.749L1.644,49.718L1.636,49.566L1.635,49.536L1.629,49.384L1.629,49.353L1.625,49.201L1.625,49.171L1.623,49.018L1.624,48.988L1.624,48.835L1.625,48.805L1.627,48.653L1.628,48.622L1.632,48.47L1.634,48.439L1.64,48.287L1.642,48.257L1.65,48.105L1.653,48.074L1.662,47.922L1.665,47.891L1.677,47.74L1.681,47.709L1.694,47.558L1.698,47.527L1.713,47.375L1.718,47.345L1.735,47.193L1.74,47.163L1.76,47.012L1.765,46.981L1.786,46.83L1.792,46.799L1.815,46.649L1.821,46.618L1.847,46.468L1.853,46.437L1.88,46.287L1.887,46.256L1.916,46.107L1.924,46.076L1.955,45.927L1.963,45.896L1.992,45.763L1.996,45.747L2.004,45.717L2.039,45.568L2.048,45.537L2.085,45.39L2.094,45.359L2.133,45.211L2.143,45.181L2.184,45.034L2.194,45.003L2.237,44.856L2.248,44.826L2.292,44.68L2.303,44.649L2.35,44.503L2.362,44.473L2.41,44.328L2.422,44.297L2.473,44.153L2.485,44.122L2.538,43.978L2.55,43.948L2.605,43.805L2.618,43.774L2.674,43.632L2.688,43.601L2.746,43.459L2.76,43.429L2.82,43.288L2.835,43.257L2.897,43.117L2.912,43.087L2.976,42.946L2.991,42.917L3.057,42.777L3.073,42.747L3.141,42.609L3.157,42.579L3.227,42.441L3.243,42.411L3.315,42.274L3.332,42.245L3.406,42.108L3.423,42.079L3.499,41.943L3.508,41.929L5.865,37.757L9.251,31.843L10.571,29.584L11.57,27.919L11.575,27.91L13.473,26.546L15.781,26.909Z" style="fill:#f3775b;"/>
        <path d="M12.357,26.351C12.357,26.351 7.929,28.206 3.821,38.787C3.821,38.787 7.31,44.187 12.626,43.295C12.626,43.295 18.733,30.339 12.357,26.351Z" style="fill:#696fc0;"/>
        <g>
            <clipPath id="_clip7">
                <path d="M12.425,10.086C11.379,12.816 10.977,16.054 12.521,21.355C13.139,23.479 12.682,25.33 13.046,26.525C13.241,27.17 13.888,27.989 14.807,27.968C16.127,27.939 16.263,24.792 18.34,24.276C21.371,23.523 22.821,21.315 23.073,19.968C23.373,18.371 24.667,18.422 25.099,17.756C24.821,16.678 23.975,16.109 23.817,14.551C23.455,10.976 23.292,7.248 19.607,6.118C19.296,6.023 18.959,5.937 18.605,5.876C16.583,5.527 13.996,5.985 12.425,10.086Z"/>
            </clipPath>
            <g clip-path="url(#_clip7)">
                <path d="M32.879,32.895L4.898,35.182L2.561,-0.908L30.542,-3.194L32.879,32.895Z" style="fill:#f3775b;"/>
                <path d="M15.888,4.121C15.888,4.121 26.513,19.848 17.843,24.691L24.795,25.753C24.795,25.753 30.775,6.442 15.888,4.121" style="fill:#f3ab9b;"/>
            </g>
        </g>
        <path d="M13.272,25.707C10.88,25.992 9.772,27.356 8.704,29.046C5.29,34.442 7.172,42.8 7.554,47.586C8.664,61.435 4.44,66.921 4.44,66.921C4.44,66.921 8.803,71.347 14.509,69.623C18.799,68.327 25.099,66.322 25.099,66.322C25.099,66.322 19.937,58.284 20.197,54.246C20.458,50.207 23.427,46.468 23.912,41.229C24.124,38.947 21.483,33.18 19.974,30.104C19.064,28.248 17.481,26.807 15.548,26.074C14.79,25.793 13.998,25.621 13.272,25.707Z" style="fill:#8d93d8;"/>
        <clipPath id="_clip8">
            <path d="M13.272,25.707C10.88,25.992 9.772,27.356 8.704,29.046C5.29,34.442 7.172,42.8 7.554,47.586C8.664,61.435 4.44,66.921 4.44,66.921C4.44,66.921 8.803,71.347 14.509,69.623C18.799,68.327 25.099,66.322 25.099,66.322C25.099,66.322 19.937,58.284 20.197,54.246C20.458,50.207 23.427,46.468 23.912,41.229C24.124,38.947 21.483,33.18 19.974,30.104C19.064,28.248 17.481,26.807 15.548,26.074C14.79,25.793 13.998,25.621 13.272,25.707Z"/>
        </clipPath>
        <g clip-path="url(#_clip8)">
            <path d="M5.661,14.98C5.661,14.98 9.746,19.564 13.432,25.603C17.376,32.066 22.331,40.347 26.006,41.426C28.759,42.235 9.083,62.413 20.025,74.042L-3.796,72.095L-3.924,49.054L5.661,14.98Z" style="fill:#696fc0;"/>
        </g>
        <path d="M30.884,44.765L30.863,44.77L31.015,44.748L30.994,44.753L31.146,44.729L31.126,44.734L31.277,44.708L31.257,44.713L31.32,44.701L31.409,44.685L31.389,44.691L31.54,44.661L31.52,44.667L31.672,44.636L31.662,44.639L34.829,43.956L34.94,43.932L36.535,44.765L35.689,46.354L35.584,46.397L32.585,47.621L32.575,47.624L32.431,47.682L32.412,47.688L32.268,47.743L32.248,47.749L32.163,47.78L32.103,47.802L32.083,47.807L31.938,47.858L31.918,47.864L31.772,47.913L31.751,47.918L31.605,47.965L31.585,47.97L31.438,48.015L31.417,48.019L31.27,48.062L31.249,48.067L31.102,48.108L31.08,48.112L30.933,48.151L30.911,48.155L30.763,48.192L30.741,48.196L30.593,48.231L30.571,48.234L30.422,48.268L30.4,48.271L30.251,48.302L30.229,48.305L30.079,48.335L30.057,48.337L29.907,48.365L29.884,48.367L29.735,48.392L29.712,48.394L29.562,48.418L29.539,48.42L29.388,48.441L29.365,48.443L29.215,48.462L29.191,48.463L29.041,48.481L29.017,48.482L28.866,48.498L28.843,48.498L28.692,48.512L28.668,48.512L28.517,48.524L28.493,48.524L28.342,48.534L28.318,48.534L28.166,48.542L28.142,48.541L27.991,48.547L27.966,48.546L27.815,48.55L27.79,48.549L27.639,48.551L27.614,48.549L27.463,48.55L27.438,48.548L27.287,48.546L27.262,48.544L27.111,48.54L27.086,48.537L26.934,48.532L26.909,48.529L26.758,48.521L26.733,48.518L26.582,48.509L26.556,48.505L26.405,48.493L26.38,48.489L26.229,48.476L26.203,48.471L26.053,48.456L26.027,48.451L25.876,48.434L25.85,48.429L25.7,48.41L25.674,48.404L25.524,48.384L25.498,48.377L25.348,48.355L25.322,48.348L25.172,48.323L25.146,48.317L24.997,48.29L24.97,48.283L24.821,48.254L24.795,48.246L24.646,48.216L24.62,48.208L24.471,48.175L24.445,48.167L24.297,48.133L24.27,48.124L24.122,48.087L24.096,48.078L23.948,48.04L23.921,48.03L23.775,47.99L23.748,47.98L23.601,47.938L23.574,47.928L23.428,47.884L23.401,47.873L23.256,47.827L23.229,47.815L23.084,47.768L23.057,47.756L22.912,47.706L22.885,47.694L22.741,47.642L22.714,47.63L22.571,47.576L22.544,47.563L22.401,47.507L22.373,47.494L22.35,47.485L22.231,47.436L22.204,47.422L22.063,47.362L22.036,47.347L21.895,47.285L21.868,47.271L21.728,47.207L21.701,47.192L21.561,47.126L21.534,47.11L21.396,47.042L21.369,47.026L21.231,46.957L21.204,46.94L21.068,46.869L21.041,46.852L20.906,46.78L20.879,46.762L20.745,46.688L20.719,46.67L20.586,46.594L20.559,46.576L20.427,46.498L20.401,46.48L20.27,46.4L20.244,46.381L20.115,46.3L20.089,46.281L19.96,46.198L19.935,46.178L19.807,46.094L19.782,46.074L19.656,45.988L19.63,45.968L19.506,45.88L19.48,45.859L19.357,45.771L19.332,45.749L19.209,45.659L19.185,45.637L19.063,45.545L19.039,45.523L18.919,45.43L18.894,45.407L18.776,45.312L18.752,45.289L18.634,45.193L18.61,45.169L18.494,45.072L18.47,45.048L18.356,44.949L18.332,44.924L18.219,44.824L18.196,44.799L18.084,44.697L18.06,44.672L17.95,44.568L17.927,44.543L17.818,44.438L17.795,44.412L17.687,44.306L17.665,44.28L17.558,44.172L17.536,44.146L17.523,44.133L17.431,44.036L17.409,44.009L17.307,43.899L17.285,43.871L17.183,43.759L17.162,43.731L17.062,43.618L17.041,43.59L16.942,43.475L16.921,43.447L16.824,43.331L16.804,43.302L16.708,43.185L16.688,43.156L16.594,43.037L16.574,43.008L16.481,42.888L16.461,42.858L16.37,42.737L16.351,42.707L16.261,42.585L16.242,42.554L16.154,42.431L16.135,42.4L16.049,42.276L16.031,42.244L15.946,42.119L15.928,42.087L15.844,41.96L15.827,41.928L15.745,41.8L15.728,41.768L15.648,41.639L15.63,41.606L15.552,41.476L15.535,41.443L15.459,41.312L15.442,41.278L15.367,41.146L15.351,41.112L15.278,40.979L15.262,40.945L15.19,40.811L15.175,40.776L15.105,40.641L15.09,40.606L15.022,40.47L15.007,40.434L14.94,40.297L14.926,40.261L14.861,40.123L14.848,40.087L14.784,39.948L14.771,39.912L14.71,39.772L14.697,39.735L14.637,39.594L14.625,39.557L14.567,39.415L14.555,39.378L14.529,39.312L14.499,39.235L14.488,39.197L14.435,39.053L14.424,39.015L14.373,38.87L14.362,38.832L14.313,38.686L14.303,38.648L14.256,38.501L14.246,38.462L14.201,38.315L14.192,38.276L14.148,38.128L14.144,38.108L13.364,35.395L12.983,33.977L12.724,32.919L12.722,32.909L13.178,30.381L15.278,28.903L15.298,28.898L17.826,29.354L19.304,31.454L19.306,31.464L19.518,32.533L19.769,33.98L20.206,36.768L20.201,36.749L20.226,36.901L20.217,36.861L20.244,37.013L20.234,36.974L20.263,37.125L20.253,37.086L20.283,37.237L20.273,37.198L20.305,37.348L20.294,37.31L20.329,37.459L20.317,37.421L20.337,37.502L20.353,37.57L20.341,37.533L20.377,37.681L20.365,37.644L20.403,37.792L20.391,37.755L20.431,37.902L20.418,37.866L20.46,38.012L20.446,37.976L20.49,38.122L20.476,38.086L20.522,38.231L20.508,38.195L20.556,38.34L20.541,38.305L20.591,38.448L20.575,38.414L20.627,38.557L20.611,38.522L20.664,38.664L20.648,38.63L20.704,38.772L20.687,38.738L20.744,38.878L20.727,38.845L20.786,38.985L20.769,38.952L20.829,39.091L20.812,39.058L20.874,39.196L20.856,39.164L20.92,39.301L20.902,39.269L20.968,39.406L20.949,39.374L21.017,39.51L20.998,39.478L21.067,39.613L21.048,39.582L21.119,39.716L21.099,39.685L21.172,39.818L21.152,39.788L21.226,39.92L21.206,39.89L21.282,40.021L21.262,39.992L21.339,40.121L21.319,40.092L21.398,40.221L21.377,40.193L21.458,40.32L21.437,40.292L21.519,40.419L21.498,40.391L21.582,40.517L21.56,40.489L21.646,40.614L21.624,40.587L21.7,40.695L21.711,40.71L21.689,40.684L21.777,40.807L21.755,40.78L21.844,40.902L21.822,40.876L21.913,40.997L21.89,40.972L21.983,41.091L21.96,41.066L22.054,41.185L22.031,41.16L22.127,41.277L22.103,41.253L22.201,41.369L22.177,41.345L22.276,41.46L22.252,41.437L22.353,41.55L22.329,41.527L22.431,41.64L22.406,41.617L22.51,41.728L22.485,41.706L22.591,41.816L22.566,41.794L22.672,41.902L22.647,41.881L22.755,41.988L22.73,41.967L22.84,42.073L22.814,42.052L22.926,42.157L22.9,42.137L23.012,42.24L22.987,42.22L23.101,42.322L23.075,42.303L23.19,42.403L23.164,42.384L23.281,42.483L23.255,42.465L23.373,42.562L23.347,42.544L23.466,42.64L23.44,42.623L23.561,42.717L23.534,42.7L23.657,42.793L23.63,42.776L23.754,42.868L23.727,42.852L23.852,42.942L23.825,42.926L23.952,43.015L23.925,42.999L24.052,43.086L24.025,43.071L24.154,43.156L24.127,43.141L24.256,43.225L24.229,43.211L24.359,43.292L24.332,43.278L24.442,43.345L24.463,43.358L24.436,43.345L24.568,43.424L24.541,43.411L24.674,43.488L24.647,43.475L24.78,43.55L24.753,43.538L24.887,43.612L24.86,43.6L24.995,43.671L24.969,43.66L25.104,43.73L25.077,43.719L25.214,43.787L25.187,43.776L25.325,43.842L25.298,43.832L25.436,43.897L25.409,43.887L25.548,43.949L25.521,43.94L25.661,44.001L25.634,43.992L25.774,44.051L25.748,44.042L25.889,44.099L25.862,44.091L26.004,44.146L25.977,44.139L26.119,44.192L26.093,44.185L26.236,44.236L26.209,44.229L26.353,44.278L26.327,44.272L26.47,44.32L26.444,44.313L26.589,44.359L26.563,44.353L26.708,44.397L26.682,44.392L26.827,44.434L26.802,44.429L26.948,44.469L26.922,44.464L27.068,44.503L27.043,44.498L27.19,44.535L27.164,44.531L27.311,44.565L27.286,44.562L27.434,44.594L27.409,44.591L27.557,44.622L27.532,44.619L27.68,44.647L27.655,44.645L27.804,44.672L27.779,44.67L27.928,44.694L27.904,44.693L28.053,44.716L28.029,44.714L28.179,44.735L28.154,44.734L28.304,44.753L28.28,44.752L28.43,44.769L28.406,44.769L28.557,44.784L28.533,44.784L28.684,44.797L28.66,44.797L28.811,44.809L28.787,44.809L28.939,44.819L28.915,44.819L29.067,44.827L29.043,44.828L29.195,44.833L29.172,44.835L29.323,44.838L29.3,44.84L29.452,44.842L29.429,44.843L29.581,44.843L29.559,44.845L29.711,44.843L29.688,44.845L29.84,44.841L29.818,44.844L29.97,44.838L29.948,44.841L30.1,44.832L30.078,44.836L30.23,44.826L30.209,44.829L30.361,44.817L30.339,44.821L30.491,44.807L30.47,44.811L30.622,44.794L30.601,44.799L30.753,44.781L30.732,44.785L30.884,44.765Z" style="fill:#f3775b;"/>
        <path d="M14.388,27.142C14.388,27.142 9.64,29.784 13.362,41.148C13.362,41.148 18.983,42.43 21.981,37.454C21.981,37.454 21.071,25.017 14.388,27.142Z" style="fill:#8d93d8;"/>
        <path d="M33.2,37.126C33.607,37.301 34.17,37.91 34.17,38.369C34.17,38.828 34.118,39.505 33.666,39.505C33.214,39.505 32.549,38.628 32.549,38.169C32.549,37.71 32.769,37.215 33.2,37.126Z" style="fill:#f3775b;"/>
        <path d="M4.44,22.492C6.96,17.974 10.775,19.383 10.775,19.383C9.141,16.097 9.019,12.02 10.678,8.755C11.443,7.248 13.726,5.952 16.959,5.782C22.317,5.5 23.477,9.976 23.477,9.976C16.852,8.253 20.122,16.154 12.784,21.368C6.663,21.555 12.973,36.984 3.068,34.097C6.592,31.998 2.496,25.978 4.44,22.492Z" style="fill:#0d4a59;"/>
        <path d="M33.435,38.866C33.366,38.789 33.334,38.685 33.346,38.582C33.358,38.479 33.414,38.386 33.499,38.327C35.234,37.117 43.174,31.579 44.569,30.606C44.695,30.519 44.862,30.519 44.987,30.608C45.89,31.248 49.474,33.79 50.689,34.651C50.784,34.718 50.841,34.826 50.842,34.942C50.844,35.058 50.79,35.167 50.698,35.237C48.76,36.699 40.313,43.07 38.697,44.289C38.546,44.403 38.333,44.382 38.207,44.24C37.362,43.289 34.357,39.905 33.435,38.866Z" style="fill:#fff;"/>
        <clipPath id="_clip9">
            <path d="M33.435,38.866C33.366,38.789 33.334,38.685 33.346,38.582C33.358,38.479 33.414,38.386 33.499,38.327C35.234,37.117 43.174,31.579 44.569,30.606C44.695,30.519 44.862,30.519 44.987,30.608C45.89,31.248 49.474,33.79 50.689,34.651C50.784,34.718 50.841,34.826 50.842,34.942C50.844,35.058 50.79,35.167 50.698,35.237C48.76,36.699 40.313,43.07 38.697,44.289C38.546,44.403 38.333,44.382 38.207,44.24C37.362,43.289 34.357,39.905 33.435,38.866Z"/>
        </clipPath>
        <g clip-path="url(#_clip9)">
            <path d="M34.836,38.783L38.6,36.107L40.331,37.724L36.975,40.179L36.448,39.667L36.002,39.984L34.836,38.783Z" style="fill:#d5d5ee;"/>
            <path d="M37.16,40.819L40.923,38.143L42.655,39.76L39.299,42.216L38.771,41.704L38.326,42.02L37.16,40.819Z" style="fill:#d5d5ee;"/>
        </g>
        <path d="M29.885,44.934L32.738,44.401C32.738,44.401 36.529,43.656 39.734,40.463C39.813,40.384 39.917,40.346 40.019,40.36C40.121,40.373 40.21,40.437 40.263,40.533C40.264,40.533 40.264,40.533 40.264,40.533C40.401,40.784 40.392,41.107 40.241,41.364C40.081,41.636 39.903,41.941 39.903,41.941C39.903,41.941 40.343,43.061 42.888,41.128C43.082,40.981 43.132,42.589 43.052,42.963C42.773,44.267 41.444,45.328 39.895,45.922C38.146,46.593 37.148,46.306 37.148,46.306L29.885,48.368L29.885,44.934Z" style="fill:#f3775b;"/>
        <clipPath id="_clip10">
            <path d="M29.885,44.934L32.738,44.401C32.738,44.401 36.529,43.656 39.734,40.463C39.813,40.384 39.917,40.346 40.019,40.36C40.121,40.373 40.21,40.437 40.263,40.533C40.264,40.533 40.264,40.533 40.264,40.533C40.401,40.784 40.392,41.107 40.241,41.364C40.081,41.636 39.903,41.941 39.903,41.941C39.903,41.941 40.343,43.061 42.888,41.128C43.082,40.981 43.132,42.589 43.052,42.963C42.773,44.267 41.444,45.328 39.895,45.922C38.146,46.593 37.148,46.306 37.148,46.306L29.885,48.368L29.885,44.934Z"/>
        </clipPath>
        <g clip-path="url(#_clip10)">
            <path d="M43.606,37.559C43.606,37.559 42.791,43.022 40.414,44.012C37.97,45.031 35.298,47.009 34.519,49.049C33.739,51.089 48.242,48.731 43.606,37.559Z" style="fill:#a35f47;fill-opacity:0.6;"/>
        </g>
        <path d="M48.604,34.877L47.985,35.334L43.984,32.191L44.598,31.815C45.933,32.835 47.269,33.856 48.604,34.877Z" style="fill:#f1765a;"/>
        <path d="M36.169,42.775C34.039,42.65 32.132,41.928 31.299,39.274C31.662,38.746 33.401,37.776 35.088,39.086C36.775,40.397 36.169,42.775 36.169,42.775Z" style="fill:#f3775b;"/>
        <path id="Love" d="M44.215,33.891C44.195,33.877 44.174,33.862 44.154,33.848C43.751,33.596 43.149,33.513 42.575,33.621C42.043,33.726 41.603,33.989 41.39,34.335C41.135,34.744 41.138,35.272 41.142,35.739C41.141,35.846 41.139,35.954 41.138,36.046C41.133,36.383 41.139,36.712 41.145,37.026C41.153,37.201 41.151,37.385 41.149,37.569L41.146,37.768L41.416,37.773C42.186,37.788 42.998,37.77 43.831,37.721C43.914,37.717 44.008,37.706 44.101,37.71C44.716,37.677 45.486,37.646 46.041,37.34C46.492,37.084 46.778,36.728 46.825,36.359C46.871,36.004 46.699,35.667 46.348,35.421C46.328,35.406 46.317,35.399 46.297,35.384C45.719,35.01 45.106,34.996 44.657,35.053C44.735,34.72 44.71,34.239 44.215,33.891Z" style="fill:#f3775b;"/>
        <clipPath id="_clip11">
            <path d="M44.215,33.891C44.195,33.877 44.174,33.862 44.154,33.848C43.751,33.596 43.149,33.513 42.575,33.621C42.043,33.726 41.603,33.989 41.39,34.335C41.135,34.744 41.138,35.272 41.142,35.739C41.141,35.846 41.139,35.954 41.138,36.046C41.133,36.383 41.139,36.712 41.145,37.026C41.153,37.201 41.151,37.385 41.149,37.569L41.146,37.768L41.416,37.773C42.186,37.788 42.998,37.77 43.831,37.721C43.914,37.717 44.008,37.706 44.101,37.71C44.716,37.677 45.486,37.646 46.041,37.34C46.492,37.084 46.778,36.728 46.825,36.359C46.871,36.004 46.699,35.667 46.348,35.421C46.328,35.406 46.317,35.399 46.297,35.384C45.719,35.01 45.106,34.996 44.657,35.053C44.735,34.72 44.71,34.239 44.215,33.891Z"/>
        </clipPath>
        <g clip-path="url(#_clip11)">
            <path d="M44.483,36.061C44.494,36.083 44.503,36.095 44.48,36.136L43.96,36.91L45.369,37.902C45.435,37.976 45.295,38.087 45.189,38.023L43.731,36.998C43.681,36.958 43.682,36.948 43.709,36.898L44.105,36.31L42.153,37.114C42.054,37.137 41.964,37.062 42.016,36.99L43.388,35.369L42.123,35.932C42.054,35.95 42.047,35.946 41.997,35.917L40.539,34.892C40.457,34.825 40.587,34.689 40.708,34.762L42.104,35.742L43.701,35.032C43.801,35.006 43.894,35.082 43.841,35.155L42.452,36.796L44.337,36.019C44.422,36 44.44,36.004 44.483,36.061Z" style="fill:#fff;"/>
        </g>
    </g>
</svg>
