<?xml version="1.0" encoding="UTF-8" standalone="no"?><!DOCTYPE svg PUBLIC "-//W3C//DTD SVG 1.1//EN" "http://www.w3.org/Graphics/SVG/1.1/DTD/svg11.dtd"><svg width="174px" height="216px" version="1.1" xmlns="http://www.w3.org/2000/svg" xmlns:xlink="http://www.w3.org/1999/xlink" xml:space="preserve" xmlns:serif="http://www.serif.com/" style="fill-rule:evenodd;clip-rule:evenodd;stroke-linejoin:round;stroke-miterlimit:2;"><rect id="Excercise" x="0" y="0" width="173.105" height="216.003" style="fill:none;"/><g><path d="M78.877,47.309l0.008,0.005l2.156,1.461l2.871,2.018l7.415,5.346l8.862,6.496l0.648,0.479l0.021,0.014l0.104,0.078l0.041,0.027l0.103,0.079l0.041,0.028l0.102,0.08l0.041,0.029l0.101,0.08l0.04,0.029l0.1,0.082l0.04,0.029l0.098,0.083l0.04,0.03l0.097,0.083l0.04,0.03l0.096,0.085l0.039,0.03l0.095,0.085l0.038,0.031l0.095,0.086l0.037,0.031l0.094,0.087l0.037,0.032l0.092,0.088l0.037,0.031l0.091,0.089l0.036,0.032l0.09,0.09l0.036,0.032l0.089,0.09l0.036,0.033l0.088,0.091l0.035,0.033l0.086,0.092l0.035,0.034l0.086,0.092l0.034,0.034l0.084,0.094l0.034,0.034l0.083,0.094l0.034,0.034l0.082,0.095l0.033,0.035l0.081,0.095l0.032,0.035l0.08,0.097l0.032,0.035l0.079,0.097l0.031,0.035l0.078,0.098l0.031,0.036l0.077,0.099l0.03,0.035l0.076,0.1l0.03,0.036l0.074,0.1l0.03,0.036l0.073,0.101l0.029,0.036l0.072,0.102l0.029,0.036l0.071,0.103l0.028,0.036l0.07,0.103l0.027,0.037l0.069,0.104l0.027,0.037l0.068,0.104l0.027,0.038l0.066,0.104l0.026,0.038l0.065,0.105l0.026,0.038l0.064,0.106l0.026,0.038l0.062,0.107l0.025,0.038l0.062,0.107l0.025,0.038l0.06,0.108l0.024,0.038l0.059,0.109l0.024,0.038l0.058,0.109l0.023,0.039l0.057,0.109l0.023,0.039l0.055,0.11l0.023,0.039l0.054,0.111l0.022,0.039l0.053,0.111l0.022,0.039l0.052,0.112l0.021,0.039l0.051,0.112l0.02,0.04l0.05,0.112l0.02,0.04l0.048,0.113l0.02,0.04l0.047,0.113l0.019,0.04l0.047,0.114l0.018,0.04l0.045,0.114l0.018,0.04l0.044,0.115l0.018,0.04l0.042,0.116l0.018,0.04l0.041,0.115l0.017,0.041l0.04,0.116l0.016,0.04l0.039,0.117l0.016,0.04l0.038,0.117l0.015,0.041l0.036,0.117l0.015,0.041l0.036,0.117l0.014,0.041l0.034,0.118l0.014,0.041l0.033,0.118l0.014,0.041l0.031,0.119l0.013,0.041l0.031,0.119l0.013,0.041l0.029,0.119l0.012,0.041l0.028,0.12l0.012,0.041l0.026,0.12l0.012,0.041l0.025,0.12l0.011,0.041l0.024,0.121l0.01,0.041l0.023,0.121l0.01,0.041l0.022,0.121l0.01,0.041l0.02,0.122l0.009,0.041l0.019,0.121l0.009,0.042l0.018,0.122l0.008,0.041l0.017,0.122l0.007,0.041l0.016,0.122l0.007,0.042l0.014,0.122l0.007,0.042l0.013,0.122l0.006,0.042l0.012,0.122l0.006,0.042l0.01,0.123l0.006,0.042l0.009,0.122l0.005,0.042l0.008,0.123l0.004,0.042l0.007,0.123l0.004,0.042l0.005,0.123l0.004,0.042l0.004,0.123l0.003,0.042l0.003,0.123l0.003,0.042l0,0.017l0,0.106l0.003,0.042l-0.001,0.124l0.002,0.041l-0.001,0.124l0.001,0.042l-0.003,0.123l0.001,0.042l-0.004,0.124l0.001,0.041l-0.006,0.124l0,0.042l-0.007,0.124l0,0.041l-0.008,0.124l-0.001,0.041l-0.01,0.124l-0.001,0.042l-0.011,0.124l-0.001,0.041l-0.012,0.124l-0.002,0.041l-0.014,0.124l-0.002,0.041l-0.015,0.124l-0.003,0.041l-0.016,0.124l-0.004,0.041l-0.017,0.124l-0.004,0.041l-0.019,0.123l-0.004,0.041l-0.02,0.124l-0.005,0.041l-0.021,0.123l-0.005,0.041l-0.023,0.123l-0.006,0.041l-0.024,0.123l-0.006,0.041l-0.025,0.123l-0.007,0.04l-0.027,0.123l-0.006,0.041l-0.029,0.122l-0.007,0.041l-0.03,0.122l-0.007,0.041l-0.031,0.122l-0.008,0.04l-0.033,0.122l-0.008,0.04l-0.034,0.122l-0.009,0.04l-0.035,0.122l-0.009,0.04l-0.037,0.121l-0.009,0.04l-0.038,0.121l-0.01,0.04l-0.04,0.121l-0.01,0.039l-0.041,0.121l-0.011,0.039l-0.042,0.121l-0.011,0.039l-0.043,0.121l-0.012,0.038l-0.045,0.121l-0.012,0.038l-0.046,0.12l-0.013,0.038l-0.047,0.12l-0.013,0.038l-0.049,0.12l-0.013,0.038l-0.051,0.119l-0.014,0.037l-0.051,0.119l-0.014,0.038l-0.054,0.118l-0.007,0.019l-6.388,13.997l-3.626,7.891l-0.113,0.245l-0.004,0.009l-1.203,1.185l-1.601,0.073l-0.019,-0.007l-1.138,-1.129l-0.097,-1.685l0.003,-0.01l0.081,-0.257l2.605,-8.284l4.655,-14.665l-0.007,0.018l0.038,-0.124l-0.014,0.038l0.037,-0.124l-0.013,0.037l0.035,-0.124l-0.013,0.038l0.035,-0.124l-0.013,0.038l0.033,-0.125l-0.013,0.039l0.032,-0.125l-0.012,0.038l0.03,-0.124l-0.012,0.038l0.029,-0.125l-0.011,0.039l0.027,-0.125l-0.011,0.039l0.026,-0.125l-0.01,0.04l0.024,-0.125l-0.01,0.039l0.023,-0.125l-0.009,0.039l0.021,-0.125l-0.009,0.04l0.02,-0.126l-0.008,0.04l0.019,-0.125l-0.009,0.04l0.018,-0.125l-0.008,0.04l0.016,-0.126l-0.007,0.041l0.015,-0.126l-0.008,0.041l0.014,-0.126l-0.007,0.041l0.012,-0.126l-0.006,0.041l0.011,-0.125l-0.006,0.04l0.01,-0.125l-0.006,0.041l0.008,-0.125l-0.005,0.041l0.007,-0.126l-0.004,0.041l0.005,-0.125l-0.004,0.041l0.004,-0.125l-0.004,0.041l0.003,-0.124l-0.003,0.041l0.001,-0.125l-0.003,0.041l0,-0.124l-0.002,0.041l-0.001,-0.125l-0.002,0.042l-0.003,-0.125l-0.001,0.042l-0.004,-0.125l-0.001,0.042l-0.005,-0.124l-0.001,0.041l-0.006,-0.124l0,0.042l-0.008,-0.124l0,0.041l-0.009,-0.123l0.001,0.041l-0.011,-0.123l0.001,0.042l-0.011,-0.124l0.001,0.042l-0.013,-0.123l0.002,0.042l-0.014,-0.123l0.002,0.042l-0.013,-0.106l-0.002,-0.017l0.003,0.042l-0.017,-0.123l0.004,0.042l-0.018,-0.122l0.004,0.042l-0.019,-0.122l0.004,0.041l-0.02,-0.121l0.005,0.041l-0.022,-0.121l0.005,0.042l-0.022,-0.121l0.005,0.041l-0.024,-0.12l0.006,0.041l-0.025,-0.12l0.007,0.041l-0.027,-0.12l0.007,0.042l-0.028,-0.12l0.008,0.042l-0.03,-0.12l0.008,0.042l-0.03,-0.119l0.008,0.041l-0.031,-0.119l0.009,0.042l-0.033,-0.119l0.009,0.042l-0.034,-0.118l0.01,0.041l-0.035,-0.118l0.01,0.042l-0.037,-0.118l0.011,0.042l-0.038,-0.117l0.011,0.041l-0.039,-0.116l0.012,0.041l-0.04,-0.116l0.011,0.041l-0.041,-0.116l0.012,0.041l-0.042,-0.115l0.013,0.041l-0.044,-0.115l0.013,0.041l-0.044,-0.114l0.013,0.041l-0.046,-0.114l0.014,0.041l-0.047,-0.113l0.015,0.04l-0.049,-0.112l0.015,0.04l-0.049,-0.112l0.015,0.04l-0.05,-0.111l0.015,0.04l-0.051,-0.111l0.016,0.04l-0.053,-0.111l0.017,0.041l-0.055,-0.111l0.018,0.041l-0.056,-0.11l0.018,0.04l-0.056,-0.109l0.018,0.04l-0.058,-0.109l0.019,0.04l-0.059,-0.108l0.019,0.04l-0.06,-0.107l0.019,0.039l-0.061,-0.106l0.02,0.039l-0.062,-0.106l0.021,0.039l-0.064,-0.105l0.021,0.039l-0.064,-0.105l0.021,0.039l-0.065,-0.104l0.021,0.039l-0.066,-0.104l0.022,0.039l-0.068,-0.103l0.023,0.039l-0.069,-0.102l0.023,0.038l-0.07,-0.101l0.024,0.038l-0.071,-0.101l0.024,0.038l-0.072,-0.1l0.024,0.038l-0.073,-0.099l0.025,0.038l-0.075,-0.099l0.026,0.038l-0.076,-0.099l0.026,0.038l-0.076,-0.097l0.026,0.037l-0.077,-0.097l0.027,0.038l-0.079,-0.096l0.027,0.037l-0.08,-0.095l0.028,0.037l-0.081,-0.095l0.029,0.037l-0.082,-0.094l0.028,0.037l-0.083,-0.093l0.03,0.036l-0.084,-0.092l0.029,0.036l-0.085,-0.091l0.03,0.036l-0.086,-0.09l0.031,0.035l-0.087,-0.089l0.031,0.035l-0.089,-0.088l0.032,0.035l-0.089,-0.088l0.032,0.035l-0.091,-0.087l0.033,0.035l-0.092,-0.087l0.033,0.035l-0.092,-0.085l0.033,0.034l-0.093,-0.085l0.034,0.034l-0.095,-0.083l0.035,0.033l-0.096,-0.082l0.035,0.033l-0.097,-0.081l0.036,0.033l-0.098,-0.081l0.036,0.033l-0.099,-0.08l0.036,0.033l-0.099,-0.079l0.036,0.032l-0.1,-0.078l0.037,0.032l-0.101,-0.077l0.037,0.032l-0.103,-0.076l0.038,0.031l-0.103,-0.075l0.038,0.031l-0.104,-0.074l0.038,0.03l-0.105,-0.072l0.039,0.03l-0.106,-0.072l0.039,0.03l-0.107,-0.071l0.04,0.029l-0.108,-0.069l0.04,0.029l-0.109,-0.069l0.04,0.028l-0.11,-0.067l0.041,0.028l-0.111,-0.066l0.042,0.027l-0.113,-0.065l0.021,0.014l-0.697,-0.403l-9.496,-5.529l-7.864,-4.663l-2.996,-1.825l-2.2,-1.393l-0.008,-0.006l-1.62,-1.606l-0.858,-2.047l-0.031,-2.219l0.843,-2.121l0.011,-0.016l1.607,-1.62l2.046,-0.858l2.22,-0.031l2.12,0.843Z" style="fill:#f3775b;"/><path d="M72.253,42.998c0,0 9.061,-0.361 24.616,12.777c0,0 -1.602,10.716 -11.402,13.178c0,0 -20.886,-15.312 -13.214,-25.955Z" style="fill:#696fc0;"/><path d="M77.928,102.588c-1.443,0.442 -1.905,0.466 -3.179,1.328c-0.494,0.335 -0.917,0.764 -1.376,1.145l-0.002,0.003c-0.807,0.853 -1.623,1.697 -2.421,2.559c-3.509,3.795 -8.554,9.538 -11.392,12.776c-3.267,3.728 -6.503,7.482 -9.754,11.223c-0.966,1.123 -1.956,2.238 -2.897,3.363l-0.295,0.345c-0.714,0.888 -0.681,0.829 -1.029,1.317l-0.264,0.364c-0.638,0.934 -0.612,0.876 -0.918,1.385l-0.233,0.381c-0.559,0.974 -0.538,0.916 -0.802,1.445l-0.202,0.396c-0.48,1.011 -0.465,0.954 -0.685,1.498l-0.17,0.409c-0.398,1.041 -0.387,0.985 -0.565,1.545l-0.136,0.42c-0.316,1.069 -0.309,1.008 -0.442,1.583l-0.101,0.417l-0.326,1.525l-5.706,27.205c-0.818,3.956 -1.641,7.91 -2.453,11.868l-0.001,0.003c-0.024,1.155 -0.187,1.529 0.396,2.58c0.204,0.369 0.534,0.652 0.801,0.978c0,0 1.107,0.589 1.107,0.589l1.243,0.075c0.399,-0.138 0.828,-0.207 1.195,-0.414c1.144,-0.646 1.319,-0.977 1.814,-2.338c4.484,-12.406 8.924,-24.814 13.369,-37.222c0.172,-0.486 0.657,-1.955 0.516,-1.459c0.939,-2.637 2.241,-3.842 2.241,-3.842c0,0 1.974,-1.996 1.732,-1.748l2.997,-2.687l11.022,-9.981c3.87,-3.568 8.554,-7.809 12.541,-11.651c0.845,-0.815 1.673,-1.648 2.509,-2.472l0.003,-0.003c0.372,-0.466 0.792,-0.898 1.117,-1.399c1.559,-2.409 1.832,-5.597 0.725,-8.246c-0.613,-1.468 -0.961,-1.7 -1.97,-2.912l-0.006,-0.006c-0.466,-0.372 -0.898,-0.792 -1.399,-1.117c-1.44,-0.932 -3.167,-1.259 -4.906,-1.407c-0.566,0.06 -1.132,0.119 -1.698,0.179Z" style="fill:#f3775b;fill-rule:nonzero;"/><clipPath id="_clip1"><path d="M77.928,102.588c-1.443,0.442 -1.905,0.466 -3.179,1.328c-0.494,0.335 -0.917,0.764 -1.376,1.145l-0.002,0.003c-0.807,0.853 -1.623,1.697 -2.421,2.559c-3.509,3.795 -8.554,9.538 -11.392,12.776c-3.267,3.728 -6.503,7.482 -9.754,11.223c-0.966,1.123 -1.956,2.238 -2.897,3.363l-0.295,0.345c-0.714,0.888 -0.681,0.829 -1.029,1.317l-0.264,0.364c-0.638,0.934 -0.612,0.876 -0.918,1.385l-0.233,0.381c-0.559,0.974 -0.538,0.916 -0.802,1.445l-0.202,0.396c-0.48,1.011 -0.465,0.954 -0.685,1.498l-0.17,0.409c-0.398,1.041 -0.387,0.985 -0.565,1.545l-0.136,0.42c-0.316,1.069 -0.309,1.008 -0.442,1.583l-0.101,0.417l-0.326,1.525l-5.706,27.205c-0.818,3.956 -1.641,7.91 -2.453,11.868l-0.001,0.003c-0.024,1.155 -0.187,1.529 0.396,2.58c0.204,0.369 0.534,0.652 0.801,0.978c0,0 1.107,0.589 1.107,0.589l1.243,0.075c0.399,-0.138 0.828,-0.207 1.195,-0.414c1.144,-0.646 1.319,-0.977 1.814,-2.338c4.484,-12.406 8.924,-24.814 13.369,-37.222c0.172,-0.486 0.657,-1.955 0.516,-1.459c0.939,-2.637 2.241,-3.842 2.241,-3.842c0,0 1.974,-1.996 1.732,-1.748l2.997,-2.687l11.022,-9.981c3.87,-3.568 8.554,-7.809 12.541,-11.651c0.845,-0.815 1.673,-1.648 2.509,-2.472l0.003,-0.003c0.372,-0.466 0.792,-0.898 1.117,-1.399c1.559,-2.409 1.832,-5.597 0.725,-8.246c-0.613,-1.468 -0.961,-1.7 -1.97,-2.912l-0.006,-0.006c-0.466,-0.372 -0.898,-0.792 -1.399,-1.117c-1.44,-0.932 -3.167,-1.259 -4.906,-1.407c-0.566,0.06 -1.132,0.119 -1.698,0.179Z" clip-rule="nonzero"/></clipPath><g clip-path="url(#_clip1)"><path d="M50.022,167.931c0,0 -13.203,0.927 -17.482,-6.212l17.482,-41.189l26.484,-18.121l12.073,12.306l-38.557,53.216Z" style="fill:#17697b;"/><path d="M68.46,101.49l10.311,3.941c0,0 -8.046,8.566 -16.276,17.329c-11.491,12.234 -20.261,26.764 -25.733,42.632c-0.965,2.798 -1.613,4.679 -1.613,4.679l2.379,-34.105l30.932,-34.476Z" style="fill:#4c98ab;"/></g><path d="M41.45,195.653c-0.358,1.626 -1.641,2.802 -4.254,2.62c-2.323,-0.163 -4.643,-1.955 -9.673,-1.503c-7.908,0.712 -13.727,-1.867 -14.498,-5.614c-0.122,-0.577 0.022,-1.178 0.392,-1.636c0.371,-0.459 0.928,-0.726 1.518,-0.728c2.48,-0.092 7,-0.113 8.843,-0.513c2.69,-0.584 4.888,-2.028 6.408,-3.318c0.509,-0.438 1.171,-0.653 1.839,-0.6c0.669,0.054 1.288,0.372 1.721,0.885c1.341,1.555 3.316,2.405 4.847,1.97c0.736,-0.221 1.517,0.171 1.78,0.893c1.148,2.988 1.445,5.874 1.077,7.544Z" style="fill:#4c98ab;"/><clipPath id="_clip2"><path d="M41.45,195.653c-0.358,1.626 -1.641,2.802 -4.254,2.62c-2.323,-0.163 -4.643,-1.955 -9.673,-1.503c-7.908,0.712 -13.727,-1.867 -14.498,-5.614c-0.122,-0.577 0.022,-1.178 0.392,-1.636c0.371,-0.459 0.928,-0.726 1.518,-0.728c2.48,-0.092 7,-0.113 8.843,-0.513c2.69,-0.584 4.888,-2.028 6.408,-3.318c0.509,-0.438 1.171,-0.653 1.839,-0.6c0.669,0.054 1.288,0.372 1.721,0.885c1.341,1.555 3.316,2.405 4.847,1.97c0.736,-0.221 1.517,0.171 1.78,0.893c1.148,2.988 1.445,5.874 1.077,7.544Z"/></clipPath><g clip-path="url(#_clip2)"><path d="M43.241,194.581c0,0 -1.365,1.228 -5.297,1.242c-3.933,0.013 -4.079,-1.748 -7.614,-2.313c-4.739,-0.757 -10.467,4.795 -18.861,-3.638l0.966,8.47l28.267,4.891l2.539,-8.652Z" style="fill:#c6dee4;"/></g><path d="M84.366,101.175c0,0 -1.755,0.388 -1.755,0.388c-0.545,0.244 -1.117,0.434 -1.635,0.73c-2.491,1.425 -4.197,4.132 -4.43,6.994c-0.13,1.585 0.073,1.951 0.413,3.491l0.001,0.004c0.402,1.153 0.792,2.31 1.207,3.458c1.824,5.055 4.704,12.461 6.332,16.631c1.873,4.8 3.785,9.585 5.677,14.377l1.547,3.871c0,0 1.486,2.764 1.486,2.764c1.906,2.243 3.055,3.222 6.325,4.236l7.788,1.603c13.564,2.739 27.127,5.5 40.678,8.178l0.004,0c1.155,0.015 1.529,0.175 2.574,-0.418c0.367,-0.209 0.647,-0.542 0.971,-0.812c0,0 0.578,-1.116 0.578,-1.116l0.063,-1.247c-0.142,-0.397 -0.215,-0.826 -0.426,-1.191c-0.659,-1.141 -0.999,-1.312 -2.371,-1.79c-12.955,-4.495 -25.911,-8.946 -38.867,-13.401l-5.992,-2.035l-0.815,-3.109l-3.992,-14.933c-1.458,-5.275 -3.154,-11.621 -4.805,-17.135c-0.35,-1.169 -0.725,-2.331 -1.088,-3.497l-0.001,-0.004c-0.244,-0.544 -0.434,-1.116 -0.73,-1.634c-1.141,-1.996 -3.103,-3.501 -5.303,-4.123c-1.109,-0.314 -2.279,-0.298 -3.434,-0.28Zm18.715,44.213c0.187,-0.063 0.036,-0.007 0.036,-0.007c0,0 0.632,0.243 0.632,0.243c0,0 -1.041,-0.343 -0.668,-0.236Z" style="fill:#f3775b;fill-rule:nonzero;"/><clipPath id="_clip3"><path d="M84.366,101.175c0,0 -1.755,0.388 -1.755,0.388c-0.545,0.244 -1.117,0.434 -1.635,0.73c-2.491,1.425 -4.197,4.132 -4.43,6.994c-0.13,1.585 0.073,1.951 0.413,3.491l0.001,0.004c0.402,1.153 0.792,2.31 1.207,3.458c1.824,5.055 4.704,12.461 6.332,16.631c1.873,4.8 3.785,9.585 5.677,14.377l1.547,3.871c0,0 1.486,2.764 1.486,2.764c1.906,2.243 3.055,3.222 6.325,4.236l7.788,1.603c13.564,2.739 27.127,5.5 40.678,8.178l0.004,0c1.155,0.015 1.529,0.175 2.574,-0.418c0.367,-0.209 0.647,-0.542 0.971,-0.812c0,0 0.578,-1.116 0.578,-1.116l0.063,-1.247c-0.142,-0.397 -0.215,-0.826 -0.426,-1.191c-0.659,-1.141 -0.999,-1.312 -2.371,-1.79c-12.955,-4.495 -25.911,-8.946 -38.867,-13.401l-5.992,-2.035l-0.815,-3.109l-3.992,-14.933c-1.458,-5.275 -3.154,-11.621 -4.805,-17.135c-0.35,-1.169 -0.725,-2.331 -1.088,-3.497l-0.001,-0.004c-0.244,-0.544 -0.434,-1.116 -0.73,-1.634c-1.141,-1.996 -3.103,-3.501 -5.303,-4.123c-1.109,-0.314 -2.279,-0.298 -3.434,-0.28Zm18.715,44.213c0.187,-0.063 0.036,-0.007 0.036,-0.007c0,0 0.632,0.243 0.632,0.243c0,0 -1.041,-0.343 -0.668,-0.236Z" clip-rule="nonzero"/></clipPath><g clip-path="url(#_clip3)"><path d="M124.172,148.83c0,0 6.288,14.469 -5.66,18.22l-27.679,-4.652l-38.766,-53.885l47.683,-16.296l24.422,56.613Z" style="fill:#4c98ab;"/></g><path d="M50.404,79.514l-4.545,-1.544c0,0 -6.713,-2.552 -11.38,-8.925c-0.114,-0.158 -0.292,-0.256 -0.485,-0.269c-0.195,-0.014 -0.384,0.06 -0.519,0.199c-0.002,-0.001 -0.002,0 -0.002,0c-0.351,0.366 -0.462,0.9 -0.284,1.375c0.188,0.504 0.398,1.068 0.398,1.068c0,0 -3.766,-3.49 -4.679,1.464c-0.72,3.902 -0.075,4.99 2.553,6.51c2.969,1.716 6.86,2.868 6.86,2.868l13.746,4.156l-1.663,-6.902Z" style="fill:#f3775b;"/><g><clipPath id="_clip4"><path d="M73.965,16.741c1.976,4.591 2.736,10.035 -0.181,18.949c-1.168,3.571 -0.304,6.685 -0.991,8.694c-0.37,1.085 -1.591,2.462 -3.327,2.427c-2.495,-0.05 -2.751,-5.34 -6.675,-6.209c-5.725,-1.267 -8.465,-4.978 -8.942,-7.244c-0.565,-2.685 -3.011,-2.6 -3.827,-3.721c0.525,-1.812 2.124,-2.769 2.422,-5.389c0.684,-6.011 0.992,-12.28 7.954,-14.18c0.587,-0.16 1.223,-0.305 1.892,-0.408c3.82,-0.587 8.707,0.183 11.675,7.081Z"/></clipPath><g clip-path="url(#_clip4)"><path d="M35.326,55.096l52.858,3.845l4.415,-60.688l-52.859,-3.845l-4.414,60.688Z" style="fill:#f3775b;"/><path d="M67.422,6.709c0,0 -20.07,26.446 -3.692,34.59l-13.134,1.787c0,0 -11.297,-32.474 16.826,-36.377" style="fill:#f3ab9b;"/></g></g><path d="M91.473,34.221c-4.76,-7.598 -12.786,-4.29 -12.786,-4.29c1.376,-6.138 -1.009,-20.301 -13.352,-20.728c-10.126,-0.351 -12.248,7.352 -12.248,7.352c17.027,0.49 7.277,9.487 21.139,18.255c8.567,-0.038 9.753,20.266 25.524,16.352c-6.657,-3.529 -4.604,-11.079 -8.277,-16.941Z" style="fill:#0d4a59;"/><path d="M72.282,42.998c4.552,0.022 7.997,2.142 10.404,4.733c7.689,8.273 6.165,22.615 6.597,30.681c1.237,23.336 10.467,31.587 10.467,31.587c0,0 -7.115,8.313 -18.221,6.655c-8.349,-1.247 -17.444,-6.773 -17.444,-6.773c0,0 4.556,-10.983 3.101,-17.664c-1.455,-6.682 -7.915,-12.285 -10.079,-20.92c-1.315,-5.243 6.13,-22.959 6.13,-22.959c0,0 6.278,-5.354 9.045,-5.34Z" style="fill:#8d93d8;"/><clipPath id="_clip5"><path d="M72.282,42.998c4.552,0.022 7.997,2.142 10.404,4.733c7.689,8.273 6.165,22.615 6.597,30.681c1.237,23.336 10.467,31.587 10.467,31.587c0,0 -7.115,8.313 -18.221,6.655c-8.349,-1.247 -17.444,-6.773 -17.444,-6.773c0,0 4.556,-10.983 3.101,-17.664c-1.455,-6.682 -7.915,-12.285 -10.079,-20.92c-1.315,-5.243 6.13,-22.959 6.13,-22.959c0,0 6.278,-5.354 9.045,-5.34Z"/></clipPath><g clip-path="url(#_clip5)"><path d="M85.018,23.621c0,0 -6.557,8.516 -12.017,19.377c-5.843,11.62 -13.142,26.491 -19.771,29.074c-4.965,1.936 36.74,31.398 19.023,53.128l44.17,-8.328l-5.282,-38.46l-26.123,-54.791Z" style="fill:#696fc0;"/></g><path d="M36.591,76.358l7.035,1.37l10.548,2.089l-0.022,-0.006l0.147,0.028l-0.044,-0.012l0.147,0.027l-0.044,-0.011l0.147,0.024l-0.044,-0.01l0.147,0.022l-0.044,-0.01l0.147,0.021l-0.044,-0.009l0.146,0.018l-0.044,-0.008l0.147,0.017l-0.044,-0.009l0.147,0.015l-0.045,-0.007l0.147,0.013l-0.045,-0.007l0.147,0.011l-0.045,-0.007l0.147,0.01l-0.045,-0.006l0.147,0.007l-0.045,-0.005l0.146,0.006l-0.045,-0.005l0.147,0.004l-0.046,-0.005l0.147,0.002l-0.046,-0.003l0.147,0l-0.046,-0.003l0.147,-0.002l-0.047,-0.002l0.147,-0.004l-0.046,-0.002l0.146,-0.005l-0.046,-0.002l0.146,-0.007l-0.046,-0.001l0.146,-0.009l-0.047,0l0.146,-0.011l-0.047,0.001l0.146,-0.013l-0.047,0.001l0.146,-0.014l-0.047,0.001l0.145,-0.016l-0.047,0.002l0.145,-0.018l-0.047,0.003l0.145,-0.02l-0.048,0.003l0.145,-0.021l-0.047,0.004l0.144,-0.024l-0.047,0.005l0.143,-0.025l-0.047,0.005l0.143,-0.027l-0.047,0.005l0.143,-0.028l-0.047,0.006l0.142,-0.03l-0.047,0.006l0.142,-0.032l-0.047,0.008l0.142,-0.034l-0.048,0.008l0.142,-0.036l-0.048,0.009l0.141,-0.038l-0.048,0.01l0.141,-0.039l-0.048,0.009l0.141,-0.041l-0.048,0.011l0.14,-0.043l-0.048,0.011l0.139,-0.044l-0.048,0.012l0.139,-0.046l-0.048,0.012l0.033,-0.011l0.106,-0.036l-0.048,0.013l0.138,-0.049l-0.048,0.013l0.137,-0.051l-0.047,0.015l0.136,-0.053l-0.047,0.015l0.136,-0.054l-0.048,0.016l0.136,-0.056l-0.048,0.016l0.135,-0.058l-0.048,0.017l0.135,-0.059l-0.048,0.017l0.134,-0.061l-0.048,0.018l0.133,-0.062l-0.047,0.018l0.132,-0.064l-0.047,0.019l0.131,-0.066l-0.047,0.02l0.131,-0.068l-0.047,0.021l0.13,-0.069l-0.047,0.021l0.129,-0.071l-0.046,0.022l0.128,-0.073l-0.047,0.023l0.128,-0.075l-0.046,0.023l0.126,-0.076l-0.046,0.024l0.126,-0.078l-0.046,0.025l0.125,-0.08l-0.046,0.026l0.124,-0.082l-0.046,0.026l0.124,-0.083l-0.046,0.027l0.122,-0.085l-0.045,0.028l0.121,-0.086l-0.045,0.028l0.12,-0.088l-0.045,0.029l0.119,-0.089l-0.045,0.029l0.117,-0.09l-0.044,0.03l0.116,-0.092l-0.044,0.031l0.115,-0.093l-0.043,0.031l0.113,-0.094l-0.043,0.031l0.112,-0.095l-0.043,0.032l0.111,-0.097l-0.043,0.033l0.11,-0.098l-0.042,0.033l0.108,-0.1l-0.042,0.034l0.107,-0.1l-0.041,0.034l0.105,-0.102l-0.041,0.035l0.104,-0.103l-0.041,0.036l0.103,-0.105l-0.04,0.036l0.102,-0.105l-0.041,0.036l0.101,-0.106l-0.04,0.037l0.099,-0.108l-0.04,0.038l0.098,-0.109l-0.039,0.038l0.096,-0.11l-0.038,0.039l0.094,-0.112l-0.038,0.04l0.093,-0.113l-0.037,0.04l0.091,-0.114l-0.037,0.041l0.09,-0.115l-0.036,0.041l0.089,-0.116l-0.037,0.042l0.088,-0.117l-0.036,0.042l0.086,-0.118l-0.036,0.043l0.085,-0.119l-0.035,0.043l0.083,-0.12l-0.035,0.044l0.082,-0.121l-0.035,0.044l0.08,-0.122l-0.033,0.045l0.078,-0.123l-0.033,0.045l0.077,-0.124l-0.033,0.046l0.076,-0.125l-0.032,0.046l0.074,-0.126l-0.032,0.047l0.072,-0.126l-0.031,0.047l0.071,-0.128l-0.031,0.048l0.069,-0.129l-0.03,0.049l0.068,-0.13l-0.03,0.049l0.066,-0.13l-0.029,0.049l0.065,-0.131l-0.029,0.05l0.063,-0.133l-0.028,0.051l0.042,-0.091l0.019,-0.042l-0.027,0.051l0.06,-0.134l-0.027,0.052l0.059,-0.135l-0.026,0.052l0.056,-0.135l-0.025,0.052l0.055,-0.135l-0.025,0.052l0.054,-0.136l-0.025,0.053l0.052,-0.137l-0.024,0.053l0.05,-0.138l-0.023,0.054l0.049,-0.138l-0.023,0.054l0.047,-0.139l-0.022,0.054l0.045,-0.14l-0.021,0.056l0.043,-0.141l-0.021,0.056l0.042,-0.142l-0.02,0.056l0.04,-0.142l-0.02,0.057l0.038,-0.143l-0.018,0.057l0.036,-0.143l-0.018,0.057l0.034,-0.144l-0.017,0.058l0.033,-0.145l-0.017,0.058l0.031,-0.145l-0.016,0.059l0.029,-0.146l-0.015,0.059l0.027,-0.146l-0.007,0.029l1.085,-5.976l1.417,-7.408l0.586,-2.835l0.478,-2.093l0.002,-0.01l0.982,-2.06l1.649,-1.485l2.084,-0.763l2.279,0.096l0.02,0.005l2.059,0.981l1.486,1.649l0.763,2.084l-0.096,2.28l-0.002,0.009l-0.557,2.074l-0.808,2.78l-2.211,7.211l-1.836,5.79l-0.007,0.029l-0.046,0.142l-0.016,0.058l-0.047,0.141l-0.016,0.059l-0.05,0.14l-0.016,0.058l-0.051,0.139l-0.018,0.057l-0.052,0.139l-0.019,0.057l-0.054,0.138l-0.019,0.057l-0.056,0.136l-0.019,0.057l-0.058,0.136l-0.02,0.056l-0.059,0.135l-0.021,0.055l-0.061,0.135l-0.021,0.055l-0.063,0.133l-0.022,0.055l-0.064,0.132l-0.023,0.055l-0.065,0.131l-0.024,0.054l-0.067,0.131l-0.024,0.053l-0.069,0.13l-0.024,0.053l-0.071,0.128l-0.025,0.053l-0.072,0.128l-0.025,0.052l-0.074,0.126l-0.026,0.052l-0.075,0.126l-0.027,0.051l-0.077,0.125l-0.027,0.051l-0.025,0.039l-0.054,0.084l-0.027,0.05l-0.081,0.123l-0.028,0.049l-0.082,0.122l-0.029,0.049l-0.083,0.12l-0.03,0.049l-0.084,0.119l-0.03,0.048l-0.087,0.118l-0.03,0.048l-0.088,0.117l-0.031,0.048l-0.089,0.115l-0.031,0.047l-0.091,0.115l-0.032,0.046l-0.092,0.114l-0.032,0.046l-0.094,0.112l-0.033,0.045l-0.094,0.111l-0.034,0.045l-0.096,0.11l-0.034,0.045l-0.097,0.108l-0.035,0.044l-0.098,0.108l-0.035,0.043l-0.1,0.106l-0.036,0.043l-0.101,0.105l-0.036,0.043l-0.103,0.103l-0.036,0.042l-0.104,0.103l-0.037,0.041l-0.105,0.101l-0.037,0.041l-0.107,0.1l-0.037,0.04l-0.108,0.099l-0.038,0.039l-0.109,0.098l-0.039,0.039l-0.11,0.096l-0.039,0.039l-0.112,0.094l-0.039,0.038l-0.113,0.094l-0.039,0.037l-0.114,0.092l-0.04,0.037l-0.116,0.091l-0.04,0.036l-0.116,0.089l-0.041,0.036l-0.118,0.088l-0.041,0.035l-0.119,0.086l-0.041,0.035l-0.12,0.085l-0.042,0.034l-0.121,0.084l-0.043,0.033l-0.122,0.082l-0.042,0.033l-0.124,0.081l-0.043,0.032l-0.124,0.079l-0.043,0.032l-0.126,0.077l-0.044,0.031l-0.126,0.077l-0.044,0.03l-0.128,0.075l-0.044,0.03l-0.129,0.073l-0.044,0.029l-0.13,0.072l-0.045,0.028l-0.131,0.07l-0.045,0.028l-0.132,0.069l-0.045,0.027l-0.133,0.067l-0.046,0.027l-0.134,0.065l-0.046,0.026l-0.134,0.064l-0.046,0.025l-0.135,0.062l-0.046,0.025l-0.136,0.06l-0.046,0.024l-0.136,0.058l-0.047,0.023l-0.137,0.057l-0.046,0.023l-0.138,0.054l-0.047,0.022l-0.137,0.053l-0.047,0.022l-0.139,0.051l-0.047,0.021l-0.139,0.049l-0.047,0.02l-0.139,0.048l-0.047,0.019l-0.14,0.046l-0.047,0.019l-0.141,0.043l-0.047,0.019l-0.141,0.042l-0.047,0.017l-0.141,0.041l-0.048,0.017l-0.141,0.038l-0.048,0.016l-0.142,0.037l-0.048,0.016l-0.142,0.035l-0.048,0.015l-0.142,0.033l-0.048,0.014l-0.143,0.032l-0.048,0.013l-0.143,0.03l-0.048,0.013l-0.109,0.021l-0.034,0.007l-0.048,0.012l-0.144,0.026l-0.048,0.011l-0.144,0.024l-0.048,0.011l-0.144,0.022l-0.048,0.011l-0.145,0.02l-0.048,0.01l-0.144,0.018l-0.048,0.009l-0.145,0.017l-0.048,0.008l-0.145,0.015l-0.048,0.008l-0.145,0.013l-0.048,0.007l-0.146,0.011l-0.047,0.007l-0.146,0.009l-0.047,0.007l-0.146,0.007l-0.048,0.006l-0.146,0.005l-0.047,0.005l-0.146,0.004l-0.047,0.004l-0.146,0.003l-0.048,0.003l-0.146,0.001l-0.047,0.003l-0.146,-0.002l-0.047,0.003l-0.146,-0.004l-0.047,0.002l-0.146,-0.005l-0.047,0.002l-0.146,-0.007l-0.047,0l-0.146,-0.008l-0.047,0l-0.145,-0.011l-0.047,0l-0.146,-0.013l-0.046,0l-0.146,-0.015l-0.046,-0.001l-0.146,-0.016l-0.046,-0.002l-0.146,-0.018l-0.046,-0.003l-0.145,-0.02l-0.046,-0.003l-0.145,-0.021l-0.046,-0.004l-0.145,-0.023l-0.046,-0.005l-0.144,-0.025l-0.046,-0.005l-0.144,-0.027l-0.046,-0.005l-0.144,-0.029l-0.045,-0.006l-0.144,-0.031l-0.045,-0.006l-0.144,-0.033l-0.045,-0.007l-0.143,-0.034l-0.045,-0.008l-0.143,-0.036l-0.044,-0.008l-0.143,-0.038l-0.045,-0.009l-0.142,-0.039l-0.044,-0.01l-0.142,-0.041l-0.044,-0.01l-0.142,-0.044l-0.043,-0.01l-0.142,-0.045l-0.043,-0.011l-0.141,-0.047l-0.043,-0.011l-0.141,-0.049l-0.021,-0.006l-10.13,-3.606l-6.745,-2.424l-0.219,-0.079l-1.295,-1.092l-0.235,-1.574l0.006,-0.019l1.007,-1.233l1.671,-0.274l0.01,0.001l0.219,0.043Z" style="fill:#f3775b;"/><path d="M75.327,48.142c0,0 8.969,4.443 1.938,23.552c0,0 -10.618,2.156 -16.282,-6.212c0,0 1.719,-20.913 14.344,-17.34Z" style="fill:#8d93d8;"/><path d="M152.919,157.89c1.628,0.351 2.809,1.629 2.638,4.243c-0.153,2.323 -1.936,4.651 -1.463,9.679c0.745,7.905 -1.81,13.735 -5.554,14.521c-0.576,0.125 -1.178,-0.017 -1.638,-0.386c-0.46,-0.368 -0.73,-0.925 -0.734,-1.514c-0.102,-2.48 -0.142,-6.999 -0.55,-8.841c-0.595,-2.688 -2.047,-4.879 -3.344,-6.394c-0.44,-0.507 -0.658,-1.168 -0.607,-1.837c0.051,-0.669 0.367,-1.29 0.877,-1.724c1.55,-1.347 2.391,-3.326 1.95,-4.856c-0.223,-0.735 0.165,-1.517 0.886,-1.784c2.983,-1.16 5.868,-1.468 7.539,-1.107Z" style="fill:#4c98ab;"/><clipPath id="_clip6"><path d="M152.919,157.89c1.628,0.351 2.809,1.629 2.638,4.243c-0.153,2.323 -1.936,4.651 -1.463,9.679c0.745,7.905 -1.81,13.735 -5.554,14.521c-0.576,0.125 -1.178,-0.017 -1.638,-0.386c-0.46,-0.368 -0.73,-0.925 -0.734,-1.514c-0.102,-2.48 -0.142,-6.999 -0.55,-8.841c-0.595,-2.688 -2.047,-4.879 -3.344,-6.394c-0.44,-0.507 -0.658,-1.168 -0.607,-1.837c0.051,-0.669 0.367,-1.29 0.877,-1.724c1.55,-1.347 2.391,-3.326 1.95,-4.856c-0.223,-0.735 0.165,-1.517 0.886,-1.784c2.983,-1.16 5.868,-1.468 7.539,-1.107Z"/></clipPath><g clip-path="url(#_clip6)"><path d="M151.84,156.103c0,0 1.234,1.36 1.264,5.292c0.029,3.933 -1.732,4.087 -2.282,7.623c-0.737,4.742 4.839,10.448 -3.559,18.876l8.466,-1.001l4.773,-28.287l-8.662,-2.503Z" style="fill:#c6dee4;"/></g><ellipse cx="86.763" cy="201.552" rx="77.727" ry="2.714" style="fill:#eaebf2;"/></g></svg>