<?xml version="1.0" encoding="UTF-8" standalone="no"?>
<!DOCTYPE svg PUBLIC "-//W3C//DTD SVG 1.1//EN" "http://www.w3.org/Graphics/SVG/1.1/DTD/svg11.dtd">
<svg width="100%" height="100%" viewBox="0 0 65 65" version="1.1" xmlns="http://www.w3.org/2000/svg" xmlns:xlink="http://www.w3.org/1999/xlink" xml:space="preserve" xmlns:serif="http://www.serif.com/" style="fill-rule:evenodd;clip-rule:evenodd;stroke-linecap:round;stroke-linejoin:round;stroke-miterlimit:1;">
    <rect id="Farmer" x="0.877" y="0.173" width="64" height="64" style="fill:none;"/>
    <path d="M59.126,52.839C57.727,45.845 52.815,40.069 46.137,37.564C46.136,37.564 46.136,37.564 46.136,37.564C42.658,36.26 38.974,35.592 35.259,35.592C33.629,35.592 31.853,35.592 30.239,35.592C26.693,35.592 23.176,36.229 19.856,37.474C19.855,37.475 19.855,37.475 19.855,37.475C13.028,40.035 8.007,45.939 6.577,53.089C5.686,57.543 4.877,61.592 4.877,61.592L60.877,61.592C60.877,61.592 60.036,57.391 59.126,52.839Z" style="fill:#2b307e;"/>
    <path d="M59.126,52.839C57.727,45.845 52.815,40.069 46.137,37.564C46.136,37.564 46.136,37.564 46.136,37.564C42.658,36.26 38.974,35.592 35.259,35.592C33.629,35.592 31.853,35.592 30.239,35.592C26.693,35.592 23.176,36.229 19.856,37.474C19.855,37.475 19.855,37.475 19.855,37.475C13.028,40.035 8.007,45.939 6.577,53.089C5.686,57.543 4.877,61.592 4.877,61.592L60.877,61.592C60.877,61.592 60.036,57.391 59.126,52.839Z" style="fill:#c9cbe4;"/>
    <path d="M39.877,30.592L25.877,30.592L25.877,38.592C25.877,38.592 25.877,38.592 25.877,38.592C30.064,41.583 35.689,41.583 39.876,38.592C39.876,38.592 39.877,38.592 39.877,38.592L39.877,30.592Z" style="fill:#4ebe22;"/>
    <path d="M25.877,36.744L25.877,33.592L39.877,33.592L39.877,38.681C38.372,38.52 35.443,38.592 32.877,38.592C30.354,38.592 27.962,37.92 25.877,36.744Z" style="fill:#c84f4d;fill-opacity:0.560784;"/>
    <path d="M44.877,17.592C44.877,10.964 39.504,5.592 32.877,5.592C32.877,5.592 32.877,5.592 32.877,5.592C26.249,5.592 20.877,10.964 20.877,17.592C20.877,19.567 20.877,21.616 20.877,23.592C20.877,30.219 26.249,35.592 32.877,35.592C32.877,35.592 32.877,35.592 32.877,35.592C39.504,35.592 44.877,30.219 44.877,23.592C44.877,21.616 44.877,19.567 44.877,17.592Z" style="fill:#f3775b;"/>
    <path d="M11.037,21.696C11.037,21.696 11.037,29.471 11.037,34.915C11.037,36.292 11.584,37.612 12.557,38.585C13.531,39.559 14.851,40.105 16.227,40.105C17.409,40.105 18.665,40.105 19.847,40.105C21.224,40.105 22.544,39.559 23.517,38.585C24.491,37.612 25.037,36.292 25.037,34.915C25.037,29.471 25.037,21.696 25.037,21.696" style="fill:none;stroke:#2b307e;stroke-width:2px;"/>
    <path d="M18.037,21.696L18.037,55.948" style="fill:none;stroke:#2b307e;stroke-width:2px;"/>
    <path d="M22.501,52.462C22.501,51.435 22.126,50.451 21.46,49.725C20.794,48.999 19.89,48.592 18.948,48.592C17.473,48.592 15.86,48.592 14.789,48.592C14.118,48.592 13.797,49.224 13.574,49.915C12.687,52.664 12.659,58.815 13.574,61.46C13.686,61.782 13.699,62.132 13.922,62.375C14.145,62.617 14.447,62.754 14.762,62.753C15.234,62.753 15.815,62.753 16.445,62.753C19.789,62.753 22.501,59.8 22.501,56.156C22.501,54.891 22.501,53.605 22.501,52.462Z" style="fill:#f3775b;"/>
    <circle cx="20.561" cy="45.407" r="1.94" style="fill:#f3775b;"/>
    <path d="M42.943,6.385C41.795,3.016 38.33,1.017 34.839,1.711C34.197,1.839 33.516,2.049 32.798,2.363C31.008,1.57 29.47,1.495 28.204,1.762C26.048,2.231 24.282,3.771 23.526,5.844C22.481,8.689 20.129,15.133 20.129,15.133L45.923,15.133C45.923,15.133 43.981,9.432 42.943,6.385Z" style="fill:#d1cfe8;"/>
    <path d="M20.929,19.46C14.367,18.914 9.952,17.929 9.952,16.807C9.952,15.091 20.133,12.024 32.674,12.024C45.214,12.024 55.395,15.091 55.395,16.807C55.395,17.925 51.137,18.905 44.703,19.454C44.75,19.13 44.774,18.779 44.774,18.401C44.774,17.498 39.415,15.884 32.815,15.884C26.215,15.884 20.857,17.498 20.857,18.401C20.857,18.782 20.881,19.134 20.929,19.46Z" style="fill:#9295ca;"/>
</svg>
