<?xml version="1.0" encoding="UTF-8" standalone="no"?>
<!DOCTYPE svg PUBLIC "-//W3C//DTD SVG 1.1//EN" "http://www.w3.org/Graphics/SVG/1.1/DTD/svg11.dtd">
<svg width="100%" height="100%" viewBox="0 0 65 64" version="1.1" xmlns="http://www.w3.org/2000/svg" xmlns:xlink="http://www.w3.org/1999/xlink" xml:space="preserve" xmlns:serif="http://www.serif.com/" style="fill-rule:evenodd;clip-rule:evenodd;stroke-linecap:round;stroke-linejoin:round;stroke-miterlimit:1;">
    <rect id="Farmer" x="0.738" y="0" width="64" height="64" style="fill:none;"/>
    <path d="M58.988,52.667C57.589,45.672 52.677,39.896 45.998,37.392C45.998,37.392 45.998,37.391 45.998,37.391C42.52,36.087 38.836,35.419 35.121,35.419C33.491,35.419 31.715,35.419 30.101,35.419C26.555,35.419 23.038,36.057 19.717,37.302C19.717,37.302 19.717,37.302 19.717,37.302C12.89,39.862 7.869,45.767 6.439,52.916C5.548,57.37 4.738,61.419 4.738,61.419L60.738,61.419C60.738,61.419 59.898,57.218 58.988,52.667Z" style="fill:#2b307e;"/>
    <path d="M58.988,52.667C57.589,45.672 52.677,39.896 45.998,37.392C45.998,37.392 45.998,37.391 45.998,37.391C42.52,36.087 38.836,35.419 35.121,35.419C33.491,35.419 31.715,35.419 30.101,35.419C26.555,35.419 23.038,36.057 19.717,37.302C19.717,37.302 19.717,37.302 19.717,37.302C12.89,39.862 7.869,45.767 6.439,52.916C5.548,57.37 4.738,61.419 4.738,61.419L60.738,61.419C60.738,61.419 59.898,57.218 58.988,52.667Z" style="fill:#c9cbe4;"/>
    <path d="M39.738,30.419L25.738,30.419L25.738,38.419C25.738,38.419 25.739,38.419 25.739,38.42C29.926,41.41 35.551,41.41 39.738,38.42C39.738,38.419 39.738,38.419 39.738,38.419L39.738,30.419Z" style="fill:#4ebe22;"/>
    <path d="M25.738,36.571L25.738,33.419L39.738,33.419L39.738,38.509C38.234,38.347 35.305,38.419 32.738,38.419C30.216,38.419 27.824,37.748 25.738,36.571Z" style="fill:#c84f4d;fill-opacity:0.56;"/>
    <path d="M44.738,17.419C44.738,10.792 39.366,5.419 32.738,5.419C32.738,5.419 32.738,5.419 32.738,5.419C26.111,5.419 20.738,10.792 20.738,17.419C20.738,19.395 20.738,21.443 20.738,23.419C20.738,30.046 26.111,35.419 32.738,35.419C32.738,35.419 32.738,35.419 32.738,35.419C39.366,35.419 44.738,30.046 44.738,23.419C44.738,21.443 44.738,19.395 44.738,17.419Z" style="fill:#f3775b;"/>
    <path d="M10.899,21.523L10.899,34.743C10.899,36.119 11.446,37.439 12.419,38.413C13.393,39.386 14.713,39.933 16.089,39.933C17.271,39.933 18.527,39.933 19.709,39.933C21.086,39.933 22.406,39.386 23.379,38.413C24.352,37.439 24.899,36.119 24.899,34.743C24.899,29.298 24.899,21.523 24.899,21.523" style="fill:none;stroke:#2b307e;stroke-width:2px;"/>
    <path d="M17.899,21.523L17.899,55.776" style="fill:none;stroke:#2b307e;stroke-width:2px;"/>
    <path d="M22.362,52.289C22.362,51.263 21.988,50.278 21.322,49.553C20.656,48.827 19.752,48.419 18.81,48.419C17.335,48.419 15.721,48.419 14.651,48.419C13.98,48.419 13.659,49.051 13.436,49.743C12.549,52.492 12.521,58.643 13.436,61.287C13.547,61.609 13.561,61.959 13.784,62.202C14.006,62.445 14.308,62.581 14.623,62.581C15.096,62.581 15.677,62.581 16.306,62.581C19.651,62.581 22.362,59.627 22.362,55.984C22.362,54.719 22.362,53.433 22.362,52.289Z" style="fill:#f3775b;"/>
    <circle cx="20.422" cy="45.234" r="1.94" style="fill:#f3775b;"/>
    <path d="M42.805,6.212C41.657,2.843 38.192,0.845 34.701,1.538C34.059,1.667 33.378,1.877 32.66,2.191C30.87,1.398 29.332,1.322 28.066,1.59C25.91,2.058 24.144,3.598 23.387,5.671C22.342,8.517 19.991,14.961 19.991,14.961L45.785,14.961C45.785,14.961 43.843,9.259 42.805,6.212Z" style="fill:#d1cfe8;"/>
    <path d="M20.791,19.288C14.228,18.741 9.814,17.757 9.814,16.635C9.814,14.919 19.995,11.851 32.536,11.851C45.076,11.851 55.257,14.919 55.257,16.635C55.257,17.752 50.999,18.733 44.565,19.281C44.612,18.957 44.636,18.607 44.636,18.229C44.636,17.326 39.277,15.711 32.677,15.711C26.077,15.711 20.718,17.326 20.718,18.229C20.718,18.609 20.743,18.962 20.791,19.288Z" style="fill:#9295ca;"/>
</svg>
