<?xml version="1.0" encoding="UTF-8" standalone="no"?>
<!DOCTYPE svg PUBLIC "-//W3C//DTD SVG 1.1//EN" "http://www.w3.org/Graphics/SVG/1.1/DTD/svg11.dtd">
<svg width="100%" height="100%" viewBox="0 0 65 65" version="1.1" xmlns="http://www.w3.org/2000/svg" xmlns:xlink="http://www.w3.org/1999/xlink" xml:space="preserve" xmlns:serif="http://www.serif.com/" style="fill-rule:evenodd;clip-rule:evenodd;stroke-linejoin:round;stroke-miterlimit:1.41421;">
    <rect id="Food-Manufacturers" x="0.626" y="0.015" width="64" height="64" style="fill:none;"/>
    <path d="M27.433,48.602C43.196,48.602 61.187,50.56 61.187,52.971C61.187,55.383 43.196,57.341 27.433,57.341C11.67,57.341 4.065,55.383 4.065,52.971C4.065,50.56 11.67,48.602 27.433,48.602Z" style="fill:#b5b8e2;fill-opacity:0.176471;"/>
    <g>
        <path d="M54.922,7.146L25.007,7.146C27.244,22.452 27.248,37.568 25.007,52.492L54.922,52.492C52.586,37.709 52.504,22.595 54.922,7.146Z" style="fill:#f3775b;"/>
        <clipPath id="_clip1">
            <path d="M54.922,7.146L25.007,7.146C27.244,22.452 27.248,37.568 25.007,52.492L54.922,52.492C52.586,37.709 52.504,22.595 54.922,7.146Z"/>
        </clipPath>
        <g clip-path="url(#_clip1)">
            <rect x="20.806" y="3.281" width="40.806" height="5.774" style="fill:#c84f4d;fill-opacity:0.760784;"/>
            <rect x="20.806" y="51.21" width="40.806" height="5.774" style="fill:#a7da94;fill-opacity:0.760784;"/>
            <path id="_-Curve-" serif:id="(Curve)" d="M26.244,51.499C26.244,51.499 30.929,46.601 39.964,46.601C49,46.601 54.063,50.966 54.063,50.966C54.063,50.966 46.027,49.295 39.964,49.295C33.902,49.295 29.272,50.41 26.244,51.499Z" style="fill:#c84f4d;"/>
            <circle cx="40.154" cy="23.104" r="8.157" style="fill:#cecfeb;"/>
            <path d="M26.244,9.735C26.244,9.735 31.065,16.269 40.101,16.269C49.137,16.269 54.063,9.358 54.063,9.358C54.063,9.358 46.027,12.923 39.964,12.923C33.902,12.923 29.272,11.217 26.244,9.735Z" style="fill:#fff;fill-opacity:0.392157;"/>
            <path d="M28.496,15.891C28.496,15.891 27.087,27.206 40.154,29.267C40.154,29.267 31.234,24.186 28.496,15.891Z" style="fill:#fff;fill-opacity:0.392157;"/>
            <path d="M52.433,31.454C52.433,31.454 53.843,42.769 40.776,44.831C40.776,44.831 49.696,39.749 52.433,31.454Z" style="fill:#c84f4d;fill-opacity:0.392157;"/>
            <path d="M11.995,27.367C11.995,26.096 16.993,25.063 23.149,25.063C29.305,25.063 34.303,26.096 34.303,27.367L34.303,55.823C34.303,57.589 29.305,59.023 23.149,59.023C16.993,59.023 11.995,57.589 11.995,55.823L11.995,27.367Z" style="fill:#c84f4d;fill-opacity:0.345098;"/>
        </g>
    </g>
    <g>
        <path d="M30.812,52.55C30.812,54.495 25.309,56.073 18.532,56.073C11.754,56.073 6.251,54.495 6.251,52.55C6.251,52.55 6.251,21.221 6.251,21.221L30.812,21.221L30.812,52.55Z" style="fill:#cecfeb;"/>
        <clipPath id="_clip2">
            <path d="M30.812,52.55C30.812,54.495 25.309,56.073 18.532,56.073C11.754,56.073 6.251,54.495 6.251,52.55C6.251,52.55 6.251,21.221 6.251,21.221L30.812,21.221L30.812,52.55Z"/>
        </clipPath>
        <g clip-path="url(#_clip2)">
            <rect x="6.251" y="21.221" width="8.803" height="43.253" style="fill:#e1e2f3;"/>
            <path d="M30.812,30.273L30.812,42.513C30.812,44.457 25.309,46.036 18.532,46.036C11.754,46.036 6.251,44.457 6.251,42.513C6.251,42.513 6.251,30.273 6.251,30.273C6.251,32.217 11.754,33.796 18.532,33.796C25.309,33.796 30.812,32.217 30.812,30.273Z" style="fill:#9096d5;"/>
            <rect x="9.562" y="21.221" width="2.181" height="43.253" style="fill:#fff;fill-opacity:0.494118;"/>
        </g>
        <ellipse cx="18.532" cy="21.221" rx="12.28" ry="2.537" style="fill:#aaacdd;"/>
        <clipPath id="_clip3">
            <ellipse cx="18.532" cy="21.221" rx="12.28" ry="2.537"/>
        </clipPath>
        <g clip-path="url(#_clip3)">
            <ellipse cx="18.532" cy="22.274" rx="12.28" ry="2.537" style="fill:#e1e2f3;"/>
        </g>
    </g>
</svg>
