<?xml version="1.0" encoding="UTF-8" standalone="no"?>
<!DOCTYPE svg PUBLIC "-//W3C//DTD SVG 1.1//EN" "http://www.w3.org/Graphics/SVG/1.1/DTD/svg11.dtd">
<svg width="100%" height="100%" viewBox="0 0 65 64" version="1.1" xmlns="http://www.w3.org/2000/svg" xmlns:xlink="http://www.w3.org/1999/xlink" xml:space="preserve" xmlns:serif="http://www.serif.com/" style="fill-rule:evenodd;clip-rule:evenodd;stroke-linecap:round;stroke-linejoin:round;stroke-miterlimit:1;">
    <rect id="Food-Service" x="0.738" y="0" width="64" height="64" style="fill:none;"/>
    <path d="M27.26,48.099L31.693,34.327L35.398,34.351L34.116,46.671L27.26,48.099Z" style="fill:#389d15;"/>
    <circle cx="32.87" cy="11.476" r="3.796" style="fill:none;stroke:#bec0e6;stroke-width:1.5px;"/>
    <path d="M53.42,31.382L12.056,31.382C12.056,19.967 21.324,10.7 32.738,10.7C44.153,10.7 53.42,19.967 53.42,31.382Z" style="fill:#cecfeb;"/>
    <clipPath id="_clip1">
        <path d="M53.42,31.382L12.056,31.382C12.056,19.967 21.324,10.7 32.738,10.7C44.153,10.7 53.42,19.967 53.42,31.382Z"/>
    </clipPath>
    <g clip-path="url(#_clip1)">
        <path d="M39.278,11.419C39.278,11.419 46.77,16.047 46.817,31.256L58.704,31.382C58.704,31.382 51.114,11.419 39.278,11.419Z" style="fill:#aaacdd;"/>
    </g>
    <path d="M29.232,16.733L29.191,16.753L29.105,16.79L29.11,16.789L28.983,16.846L28.989,16.845L28.863,16.903L28.868,16.901L28.743,16.961L28.749,16.959L28.624,17.019L28.63,17.017L28.506,17.079L28.512,17.077L28.474,17.096L28.388,17.135L28.394,17.133L28.27,17.191L28.276,17.189L28.152,17.248L28.159,17.246L28.036,17.305L28.042,17.303L27.92,17.364L27.927,17.362L27.805,17.423L27.812,17.421L27.691,17.484L27.698,17.481L27.577,17.545L27.584,17.543L27.528,17.573L27.463,17.604L27.47,17.602L27.349,17.661L27.356,17.659L27.235,17.719L27.242,17.716L27.122,17.778L27.129,17.775L27.023,17.831L27.01,17.838L27.017,17.835L26.896,17.894L26.904,17.891L26.784,17.952L26.791,17.949L26.779,17.955L26.67,18.008L26.677,18.004L26.557,18.064L26.564,18.06L26.53,18.077L26.443,18.119L26.45,18.115L26.33,18.174L26.337,18.17L26.217,18.23L26.224,18.226L26.105,18.287L26.111,18.283L25.993,18.345L26,18.341L25.881,18.404L25.888,18.4L25.771,18.464L25.778,18.46L25.661,18.525L25.667,18.521L25.551,18.587L25.558,18.583L25.474,18.631L25.442,18.649L25.449,18.645L25.333,18.712L25.339,18.708L25.224,18.775L25.231,18.771L25.116,18.84L25.123,18.835L25.009,18.905L25.015,18.901L24.902,18.971L24.909,18.967L24.796,19.038L24.802,19.034L24.691,19.106L24.697,19.102L24.586,19.175L24.592,19.171L24.481,19.245L24.487,19.241L24.377,19.316L24.383,19.312L24.274,19.388L24.28,19.383L24.216,19.429L24.172,19.46L24.178,19.455L24.069,19.532L24.075,19.528L23.967,19.606L23.973,19.601L23.866,19.68L23.872,19.676L23.765,19.756L23.771,19.751L23.666,19.832L23.671,19.827L23.566,19.909L23.572,19.904L23.468,19.987L23.473,19.982L23.37,20.065L23.375,20.061L23.272,20.145L23.278,20.14L23.176,20.226L23.181,20.221L23.08,20.307L23.085,20.302L22.985,20.389L22.99,20.384L22.89,20.472L22.895,20.467L22.796,20.556L22.801,20.551L22.703,20.641L22.708,20.636L22.611,20.726L22.616,20.721L22.519,20.812L22.524,20.808L22.428,20.9L22.433,20.895L22.338,20.988L22.343,20.983L22.249,21.076L22.253,21.072L22.16,21.166L22.165,21.161L22.072,21.256L22.076,21.251L21.985,21.348L21.989,21.343L21.898,21.439L21.903,21.435L21.813,21.532L21.817,21.527L21.728,21.626L21.732,21.621L21.644,21.72L21.648,21.715L21.581,21.791L21.56,21.815L21.564,21.81L21.477,21.91L21.481,21.905L21.395,22.006L21.399,22.001L21.314,22.103L21.317,22.098L21.233,22.201L21.237,22.196L21.153,22.299L21.157,22.294L21.074,22.399L21.078,22.394L20.996,22.498L20.999,22.493L20.919,22.599L20.922,22.594L20.842,22.7L20.845,22.695L20.766,22.802L20.77,22.797L20.691,22.905L20.695,22.9L20.618,23.009L20.621,23.004L20.544,23.113L20.548,23.108L20.472,23.218L20.475,23.213L20.401,23.324L20.404,23.319L20.33,23.43L20.333,23.425L20.261,23.537L20.264,23.532L20.192,23.645L20.195,23.64L20.124,23.753L20.127,23.748L20.057,23.862L20.06,23.857L19.991,23.972L19.994,23.967L19.926,24.082L19.929,24.077L19.862,24.193L19.865,24.188L19.799,24.305L19.802,24.3L19.737,24.417L19.739,24.412L19.675,24.53L19.678,24.525L19.615,24.644L19.618,24.639L19.556,24.758L19.558,24.753L19.505,24.858L19.497,24.873L19.5,24.868L19.44,24.989L19.442,24.984L19.383,25.105L19.385,25.1L19.327,25.221L19.329,25.217L19.272,25.339L19.274,25.334L19.218,25.457L19.22,25.452L19.165,25.575L19.167,25.57L19.114,25.694L19.115,25.689L19.063,25.814L19.065,25.809L19.013,25.934L19.015,25.929L18.964,26.055L18.966,26.05L18.917,26.177L18.918,26.172L18.87,26.299L18.871,26.294L18.824,26.421L18.826,26.417L18.78,26.544L18.781,26.54L18.736,26.668L18.738,26.664L18.694,26.793L18.695,26.788L18.652,26.917L18.654,26.913L18.612,27.043L18.613,27.038L18.573,27.169L18.574,27.164L18.535,27.295L18.536,27.291L18.497,27.422L18.499,27.418L18.462,27.55L18.463,27.546L18.427,27.678L18.428,27.674L18.411,27.737L18.393,27.807L17.812,28.177L17.442,27.595L17.455,27.524L17.467,27.46L17.468,27.456L17.494,27.321L17.495,27.317L17.522,27.182L17.523,27.178L17.552,27.044L17.553,27.039L17.583,26.906L17.584,26.901L17.615,26.768L17.616,26.764L17.648,26.631L17.649,26.626L17.682,26.494L17.684,26.49L17.718,26.358L17.719,26.353L17.755,26.222L17.756,26.217L17.793,26.086L17.795,26.082L17.832,25.951L17.834,25.947L17.873,25.817L17.874,25.812L17.914,25.682L17.916,25.678L17.957,25.549L17.959,25.544L18.001,25.416L18.003,25.411L18.047,25.283L18.048,25.278L18.093,25.15L18.095,25.146L18.14,25.019L18.142,25.014L18.189,24.887L18.191,24.882L18.239,24.757L18.241,24.752L18.29,24.626L18.292,24.621L18.342,24.496L18.344,24.492L18.395,24.367L18.398,24.362L18.404,24.346L18.45,24.239L18.452,24.234L18.506,24.11L18.508,24.106L18.563,23.983L18.565,23.978L18.621,23.856L18.623,23.851L18.68,23.73L18.683,23.725L18.74,23.604L18.743,23.599L18.802,23.478L18.804,23.473L18.864,23.354L18.867,23.349L18.927,23.23L18.93,23.225L18.992,23.106L18.995,23.101L19.058,22.983L19.061,22.978L19.124,22.861L19.127,22.856L19.192,22.739L19.195,22.734L19.261,22.618L19.264,22.613L19.331,22.498L19.334,22.493L19.402,22.378L19.405,22.373L19.474,22.259L19.477,22.254L19.547,22.14L19.55,22.135L19.621,22.022L19.625,22.017L19.696,21.905L19.7,21.9L19.772,21.788L19.776,21.783L19.849,21.672L19.853,21.667L19.928,21.557L19.931,21.552L20.007,21.443L20.01,21.438L20.087,21.329L20.091,21.324L20.168,21.216L20.172,21.211L20.25,21.103L20.254,21.098L20.333,20.992L20.337,20.987L20.417,20.881L20.421,20.876L20.441,20.851L20.503,20.771L20.507,20.766L20.589,20.661L20.594,20.657L20.677,20.553L20.681,20.548L20.765,20.446L20.77,20.441L20.855,20.339L20.859,20.334L20.945,20.233L20.95,20.228L21.037,20.127L21.041,20.122L21.129,20.023L21.133,20.018L21.222,19.919L21.227,19.914L21.316,19.816L21.321,19.811L21.411,19.714L21.416,19.709L21.507,19.613L21.512,19.608L21.604,19.512L21.609,19.507L21.701,19.413L21.706,19.408L21.8,19.314L21.805,19.309L21.899,19.216L21.904,19.211L22,19.118L22.005,19.114L22.101,19.022L22.106,19.017L22.203,18.927L22.208,18.922L22.306,18.832L22.311,18.827L22.41,18.738L22.415,18.734L22.514,18.645L22.52,18.641L22.62,18.553L22.625,18.549L22.726,18.462L22.732,18.458L22.833,18.372L22.839,18.367L22.941,18.282L22.947,18.278L23.05,18.194L23.056,18.19L23.16,18.107L23.166,18.102L23.208,18.069L23.271,18.02L23.277,18.016L23.383,17.936L23.389,17.931L23.495,17.852L23.501,17.847L23.609,17.769L23.615,17.765L23.723,17.687L23.729,17.683L23.838,17.606L23.844,17.602L23.954,17.526L23.96,17.522L24.07,17.447L24.077,17.443L24.188,17.369L24.194,17.365L24.306,17.292L24.312,17.288L24.424,17.216L24.431,17.212L24.544,17.141L24.551,17.137L24.582,17.117L24.665,17.067L24.671,17.063L24.786,16.996L24.793,16.992L24.909,16.925L24.916,16.921L25.032,16.855L25.039,16.851L25.156,16.787L25.163,16.783L25.28,16.719L25.287,16.715L25.405,16.652L25.412,16.649L25.531,16.587L25.538,16.583L25.657,16.523L25.665,16.519L25.751,16.476L25.785,16.46L25.792,16.457L25.914,16.401L25.921,16.397L26.031,16.348L26.044,16.343L26.051,16.34L26.176,16.29L26.183,16.286L26.308,16.237L26.316,16.234L26.329,16.229L26.443,16.19L26.45,16.186L26.578,16.144L26.585,16.141L26.714,16.099L26.721,16.096L26.85,16.055L26.857,16.053L26.925,16.032L26.987,16.016L26.994,16.013L27.126,15.981L27.133,15.979L27.266,15.948L27.272,15.945L27.405,15.915L27.412,15.913L27.545,15.884L27.552,15.882L27.686,15.854L27.692,15.852L27.826,15.826L27.832,15.824L27.967,15.799L27.973,15.797L28.066,15.78L28.108,15.775L28.114,15.773L28.251,15.756L28.257,15.754L28.394,15.738L28.4,15.737L28.537,15.722L28.543,15.721L28.68,15.707L28.686,15.706L28.824,15.694L28.829,15.693L28.922,15.685L28.967,15.683L28.972,15.682L29.112,15.676L29.116,15.675L29.256,15.67L29.867,16.029L29.477,16.62L29.349,16.677L29.354,16.676L29.227,16.734L29.232,16.733Z" style="fill:#fff;"/>
    <path d="M17.917,27.701C19.164,21.97 23.655,17.444 29.366,16.145" style="fill:none;"/>
    <clipPath id="_clip2">
        <path d="M17.917,27.701C19.164,21.97 23.655,17.444 29.366,16.145"/>
    </clipPath>
    <g clip-path="url(#_clip2)">
        <rect x="32.738" y="9.885" width="17.6" height="24.178" style="fill:#cecfeb;"/>
    </g>
    <path d="M57.851,33.814L7.626,33.814C7.626,33.814 9.253,34.769 10.553,35.531C11.591,36.139 12.772,36.46 13.974,36.46C20.801,36.46 44.675,36.46 51.502,36.46C52.705,36.46 53.886,36.139 54.923,35.531C56.223,34.769 57.851,33.814 57.851,33.814Z" style="fill:#cecfeb;"/>
    <clipPath id="_clip3">
        <path d="M57.851,33.814L7.626,33.814C7.626,33.814 9.253,34.769 10.553,35.531C11.591,36.139 12.772,36.46 13.974,36.46C20.801,36.46 44.675,36.46 51.502,36.46C52.705,36.46 53.886,36.139 54.923,35.531C56.223,34.769 57.851,33.814 57.851,33.814Z"/>
    </clipPath>
    <g clip-path="url(#_clip3)">
        <rect x="1.538" y="23.159" width="69.578" height="11.978" style="fill:#aaacdd;"/>
    </g>
    <path d="M59.946,33.276C59.946,32.902 59.642,32.598 59.268,32.598C53.451,32.598 12.026,32.598 6.209,32.598C5.834,32.598 5.531,32.902 5.531,33.276C5.531,33.276 5.531,33.276 5.531,33.276C5.531,33.651 5.834,33.954 6.209,33.954C12.026,33.954 53.451,33.954 59.268,33.954C59.642,33.954 59.946,33.651 59.946,33.276C59.946,33.276 59.946,33.276 59.946,33.276Z" style="fill:#e1e2f3;"/>
    <path d="M14.475,47.622C14.475,47.622 16.724,45.463 18.201,44.046C19.003,43.278 19.437,42.204 19.396,41.094C19.35,39.874 19.291,38.264 19.248,37.122C19.217,36.28 19.739,35.515 20.536,35.239C20.536,35.239 20.536,35.239 20.537,35.239C21.218,35.002 21.97,35.297 22.309,35.934C22.943,37.124 23.974,39.062 24.825,40.66C25.669,42.245 27.493,43.04 29.228,42.58C30.575,42.223 32.098,41.819 33.146,41.541C33.986,41.319 34.755,40.88 35.374,40.27C36.51,39.151 38.433,37.257 39.802,35.908C40.841,34.885 42.198,34.249 43.648,34.107C43.977,34.074 44.315,34.041 44.638,34.009C44.977,33.976 45.304,34.148 45.467,34.447C45.631,34.746 45.601,35.114 45.39,35.381C43.307,38.033 39.097,43.391 36.865,46.233C35.895,47.467 34.709,48.514 33.364,49.324C29.137,51.867 19.794,57.489 19.794,57.489L14.475,47.622Z" style="fill:#f3775b;"/>
    <clipPath id="_clip4">
        <path d="M14.475,47.622C14.475,47.622 16.724,45.463 18.201,44.046C19.003,43.278 19.437,42.204 19.396,41.094C19.35,39.874 19.291,38.264 19.248,37.122C19.217,36.28 19.739,35.515 20.536,35.239C20.536,35.239 20.536,35.239 20.537,35.239C21.218,35.002 21.97,35.297 22.309,35.934C22.943,37.124 23.974,39.062 24.825,40.66C25.669,42.245 27.493,43.04 29.228,42.58C30.575,42.223 32.098,41.819 33.146,41.541C33.986,41.319 34.755,40.88 35.374,40.27C36.51,39.151 38.433,37.257 39.802,35.908C40.841,34.885 42.198,34.249 43.648,34.107C43.977,34.074 44.315,34.041 44.638,34.009C44.977,33.976 45.304,34.148 45.467,34.447C45.631,34.746 45.601,35.114 45.39,35.381C43.307,38.033 39.097,43.391 36.865,46.233C35.895,47.467 34.709,48.514 33.364,49.324C29.137,51.867 19.794,57.489 19.794,57.489L14.475,47.622Z"/>
    </clipPath>
    <g clip-path="url(#_clip4)">
        <path d="M-12.528,64C-12.528,64 17.424,52.263 29.417,47.563C32.626,46.306 35.501,44.325 37.819,41.775C42.778,36.319 51.216,27.036 51.216,27.036L43.404,54.122L15.477,63.12L-12.528,64Z" style="fill:#c84f4d;"/>
    </g>
    <path d="M14.624,46.158L9.876,48.9L16.329,60.078L21.077,57.336L14.624,46.158Z" style="fill:#e1e2f3;"/>
    <clipPath id="_clip5">
        <path d="M14.624,46.158L9.876,48.9L16.329,60.078L21.077,57.336L14.624,46.158Z"/>
    </clipPath>
    <g clip-path="url(#_clip5)">
        <path d="M22.036,50.261L0.738,57.929L13.799,67.088L27.263,59.315L22.036,50.261Z" style="fill:#cecfeb;"/>
    </g>
    <circle cx="17.912" cy="57.054" r="0.711" style="fill:#fff;"/>
</svg>
