<?xml version="1.0" encoding="UTF-8" standalone="no"?>
<!DOCTYPE svg PUBLIC "-//W3C//DTD SVG 1.1//EN" "http://www.w3.org/Graphics/SVG/1.1/DTD/svg11.dtd">
<svg width="100%" height="100%" viewBox="0 0 65 65" version="1.1" xmlns="http://www.w3.org/2000/svg" xmlns:xlink="http://www.w3.org/1999/xlink" xml:space="preserve" xmlns:serif="http://www.serif.com/" style="fill-rule:evenodd;clip-rule:evenodd;stroke-linecap:round;stroke-linejoin:round;stroke-miterlimit:1;">
    <rect id="Food-Service" x="0.747" y="0.297" width="64" height="64" style="fill:none;"/>
    <path d="M27.269,48.396L31.702,34.624L35.407,34.648L34.125,46.967L27.269,48.396Z" style="fill:#389d15;"/>
    <circle cx="32.878" cy="11.772" r="3.796" style="fill:none;stroke:#bec0e6;stroke-width:1.5px;"/>
    <path d="M53.429,31.679L12.065,31.679C12.065,20.264 21.332,10.997 32.747,10.997C44.162,10.997 53.429,20.264 53.429,31.679Z" style="fill:#cecfeb;"/>
    <clipPath id="_clip1">
        <path d="M53.429,31.679L12.065,31.679C12.065,20.264 21.332,10.997 32.747,10.997C44.162,10.997 53.429,20.264 53.429,31.679Z"/>
    </clipPath>
    <g clip-path="url(#_clip1)">
        <path d="M39.287,11.716C39.287,11.716 46.779,16.344 46.826,31.553L58.713,31.679C58.713,31.679 51.122,11.716 39.287,11.716Z" style="fill:#aaacdd;"/>
    </g>
    <path d="M29.24,17.03L29.199,17.049L29.113,17.087L29.118,17.086L28.992,17.143L28.997,17.142L28.871,17.2L28.877,17.198L28.752,17.257L28.757,17.256L28.633,17.316L28.639,17.314L28.515,17.376L28.521,17.374L28.483,17.393L28.397,17.432L28.403,17.43L28.278,17.488L28.285,17.486L28.161,17.545L28.167,17.542L28.044,17.602L28.051,17.6L27.929,17.661L27.935,17.658L27.814,17.72L27.82,17.718L27.699,17.781L27.706,17.778L27.586,17.842L27.593,17.839L27.537,17.87L27.472,17.901L27.479,17.898L27.358,17.958L27.365,17.955L27.244,18.016L27.251,18.013L27.131,18.075L27.138,18.072L27.032,18.128L27.018,18.135L27.026,18.132L26.905,18.191L26.912,18.188L26.792,18.249L26.799,18.246L26.787,18.252L26.679,18.305L26.686,18.301L26.566,18.361L26.573,18.357L26.539,18.374L26.452,18.416L26.459,18.412L26.338,18.471L26.345,18.467L26.226,18.527L26.233,18.523L26.113,18.584L26.12,18.58L26.001,18.642L26.008,18.638L25.89,18.701L25.897,18.697L25.779,18.761L25.786,18.757L25.669,18.822L25.676,18.818L25.56,18.884L25.567,18.88L25.483,18.928L25.451,18.946L25.457,18.942L25.342,19.009L25.348,19.005L25.233,19.072L25.24,19.068L25.125,19.136L25.132,19.132L25.018,19.202L25.024,19.198L24.911,19.268L24.917,19.264L24.805,19.335L24.811,19.331L24.699,19.403L24.705,19.399L24.594,19.472L24.6,19.468L24.49,19.542L24.496,19.538L24.386,19.613L24.392,19.608L24.283,19.684L24.289,19.68L24.224,19.726L24.18,19.757L24.186,19.752L24.078,19.829L24.084,19.825L23.976,19.903L23.982,19.898L23.875,19.977L23.88,19.973L23.774,20.052L23.78,20.048L23.674,20.129L23.68,20.124L23.575,20.206L23.58,20.201L23.476,20.283L23.482,20.279L23.378,20.362L23.384,20.358L23.281,20.442L23.286,20.437L23.185,20.522L23.19,20.518L23.089,20.604L23.094,20.599L22.993,20.686L22.998,20.681L22.899,20.769L22.904,20.764L22.805,20.853L22.81,20.848L22.712,20.938L22.717,20.933L22.62,21.023L22.624,21.018L22.528,21.109L22.533,21.105L22.437,21.197L22.442,21.192L22.347,21.285L22.351,21.28L22.257,21.373L22.262,21.368L22.169,21.463L22.173,21.458L22.081,21.553L22.085,21.548L21.994,21.644L21.998,21.64L21.907,21.736L21.911,21.731L21.821,21.829L21.826,21.824L21.737,21.923L21.741,21.918L21.652,22.017L21.657,22.012L21.59,22.088L21.569,22.112L21.573,22.107L21.486,22.207L21.49,22.202L21.404,22.303L21.408,22.298L21.322,22.4L21.326,22.395L21.242,22.498L21.245,22.493L21.162,22.596L21.165,22.591L21.083,22.695L21.086,22.69L21.005,22.795L21.008,22.79L20.927,22.896L20.931,22.891L20.851,22.997L20.854,22.992L20.775,23.099L20.778,23.094L20.7,23.202L20.703,23.197L20.626,23.306L20.629,23.301L20.553,23.41L20.556,23.405L20.481,23.515L20.484,23.51L20.409,23.62L20.413,23.615L20.339,23.727L20.342,23.722L20.269,23.834L20.272,23.829L20.201,23.941L20.204,23.936L20.133,24.05L20.136,24.045L20.066,24.159L20.069,24.154L20,24.269L20.003,24.264L19.935,24.379L19.938,24.374L19.871,24.49L19.873,24.485L19.808,24.602L19.81,24.597L19.745,24.714L19.748,24.709L19.684,24.827L19.687,24.822L19.624,24.941L19.626,24.936L19.564,25.055L19.567,25.05L19.514,25.155L19.506,25.17L19.508,25.165L19.448,25.286L19.45,25.281L19.391,25.402L19.394,25.397L19.336,25.518L19.338,25.513L19.281,25.636L19.283,25.631L19.227,25.753L19.229,25.749L19.174,25.872L19.176,25.867L19.122,25.991L19.124,25.986L19.071,26.111L19.073,26.106L19.022,26.231L19.023,26.226L18.973,26.352L18.975,26.347L18.925,26.473L18.927,26.469L18.879,26.596L18.88,26.591L18.833,26.718L18.834,26.714L18.788,26.841L18.79,26.837L18.745,26.965L18.746,26.961L18.702,27.089L18.704,27.085L18.661,27.214L18.662,27.21L18.621,27.34L18.622,27.335L18.581,27.466L18.583,27.461L18.543,27.592L18.544,27.588L18.506,27.719L18.507,27.715L18.47,27.847L18.471,27.843L18.435,27.975L18.436,27.971L18.42,28.034L18.402,28.104L17.82,28.474L17.45,27.892L17.464,27.821L17.475,27.757L17.476,27.753L17.502,27.618L17.503,27.613L17.531,27.479L17.532,27.475L17.56,27.341L17.561,27.336L17.591,27.203L17.592,27.198L17.623,27.065L17.624,27.061L17.656,26.928L17.658,26.923L17.691,26.791L17.692,26.786L17.727,26.655L17.728,26.65L17.764,26.519L17.765,26.514L17.802,26.383L17.803,26.379L17.841,26.248L17.843,26.243L17.881,26.114L17.883,26.109L17.923,25.979L17.925,25.975L17.966,25.846L17.968,25.841L18.01,25.712L18.012,25.708L18.055,25.58L18.057,25.575L18.102,25.447L18.103,25.443L18.149,25.316L18.151,25.311L18.198,25.184L18.2,25.179L18.248,25.053L18.25,25.049L18.299,24.923L18.301,24.918L18.351,24.793L18.353,24.788L18.404,24.664L18.406,24.659L18.413,24.643L18.459,24.535L18.461,24.53L18.514,24.407L18.517,24.402L18.571,24.28L18.574,24.275L18.629,24.153L18.632,24.148L18.689,24.026L18.691,24.021L18.749,23.901L18.751,23.896L18.81,23.775L18.813,23.77L18.873,23.651L18.875,23.646L18.936,23.526L18.939,23.521L19.001,23.403L19.004,23.398L19.066,23.28L19.069,23.275L19.133,23.158L19.136,23.153L19.201,23.036L19.204,23.031L19.27,22.915L19.273,22.91L19.34,22.794L19.343,22.789L19.411,22.675L19.414,22.67L19.483,22.555L19.486,22.55L19.556,22.437L19.559,22.432L19.63,22.319L19.633,22.314L19.705,22.202L19.708,22.197L19.781,22.085L19.785,22.08L19.858,21.969L19.862,21.964L19.936,21.854L19.94,21.849L20.015,21.74L20.019,21.735L20.096,21.626L20.099,21.621L20.177,21.513L20.181,21.508L20.259,21.4L20.263,21.395L20.342,21.288L20.346,21.283L20.426,21.177L20.43,21.172L20.449,21.147L20.512,21.067L20.516,21.062L20.598,20.958L20.602,20.953L20.686,20.85L20.69,20.845L20.774,20.742L20.778,20.737L20.864,20.636L20.868,20.631L20.954,20.53L20.958,20.525L21.045,20.424L21.05,20.419L21.137,20.32L21.142,20.315L21.231,20.216L21.235,20.211L21.325,20.113L21.329,20.108L21.42,20.011L21.424,20.006L21.516,19.91L21.52,19.905L21.612,19.809L21.617,19.804L21.71,19.709L21.715,19.705L21.809,19.611L21.814,19.606L21.908,19.513L21.913,19.508L22.008,19.415L22.014,19.411L22.11,19.319L22.115,19.314L22.212,19.223L22.217,19.219L22.315,19.129L22.32,19.124L22.418,19.035L22.424,19.03L22.523,18.942L22.528,18.938L22.628,18.85L22.634,18.846L22.735,18.759L22.74,18.754L22.842,18.669L22.848,18.664L22.95,18.579L22.956,18.575L23.059,18.491L23.065,18.486L23.168,18.403L23.174,18.399L23.217,18.366L23.279,18.317L23.285,18.313L23.391,18.232L23.397,18.228L23.504,18.149L23.51,18.144L23.617,18.066L23.623,18.061L23.732,17.984L23.738,17.98L23.847,17.903L23.853,17.899L23.962,17.823L23.969,17.819L24.079,17.744L24.085,17.74L24.196,17.666L24.203,17.662L24.314,17.589L24.321,17.585L24.433,17.512L24.44,17.508L24.553,17.437L24.559,17.433L24.59,17.414L24.673,17.364L24.68,17.36L24.795,17.292L24.802,17.289L24.917,17.222L24.924,17.218L25.04,17.152L25.047,17.148L25.164,17.083L25.171,17.08L25.289,17.016L25.296,17.012L25.414,16.949L25.421,16.946L25.54,16.884L25.547,16.88L25.666,16.819L25.673,16.816L25.759,16.773L25.794,16.757L25.801,16.754L25.923,16.698L25.93,16.694L26.04,16.645L26.053,16.64L26.06,16.637L26.185,16.586L26.192,16.583L26.317,16.534L26.324,16.531L26.338,16.526L26.452,16.486L26.459,16.483L26.587,16.44L26.594,16.438L26.722,16.396L26.729,16.393L26.858,16.352L26.865,16.35L26.934,16.329L26.996,16.313L27.003,16.31L27.135,16.278L27.142,16.276L27.274,16.244L27.281,16.242L27.414,16.212L27.421,16.21L27.554,16.181L27.56,16.179L27.694,16.151L27.701,16.149L27.835,16.123L27.841,16.121L27.975,16.096L27.981,16.094L28.075,16.077L28.117,16.072L28.123,16.07L28.26,16.053L28.266,16.051L28.403,16.035L28.408,16.034L28.546,16.019L28.551,16.018L28.689,16.004L28.694,16.003L28.832,15.991L28.837,15.99L28.931,15.982L28.976,15.98L28.981,15.979L29.12,15.973L29.125,15.972L29.265,15.967L29.876,16.326L29.485,16.916L29.358,16.974L29.362,16.973L29.235,17.031L29.24,17.03Z" style="fill:#fff;"/>
    <path d="M17.926,27.998C19.173,22.267 23.663,17.741 29.375,16.442" style="fill:none;"/>
    <clipPath id="_clip2">
        <path d="M17.926,27.998C19.173,22.267 23.663,17.741 29.375,16.442"/>
    </clipPath>
    <g clip-path="url(#_clip2)">
        <rect x="32.747" y="10.182" width="17.6" height="24.178" style="fill:#cecfeb;"/>
    </g>
    <path d="M57.86,34.111L7.634,34.111C7.634,34.111 9.262,35.065 10.562,35.828C11.599,36.436 12.78,36.757 13.983,36.757C20.81,36.757 44.684,36.757 51.511,36.757C52.714,36.757 53.894,36.436 54.932,35.828C56.232,35.065 57.86,34.111 57.86,34.111Z" style="fill:#cecfeb;"/>
    <clipPath id="_clip3">
        <path d="M57.86,34.111L7.634,34.111C7.634,34.111 9.262,35.065 10.562,35.828C11.599,36.436 12.78,36.757 13.983,36.757C20.81,36.757 44.684,36.757 51.511,36.757C52.714,36.757 53.894,36.436 54.932,35.828C56.232,35.065 57.86,34.111 57.86,34.111Z"/>
    </clipPath>
    <g clip-path="url(#_clip3)">
        <rect x="1.547" y="23.456" width="69.578" height="11.978" style="fill:#aaacdd;"/>
    </g>
    <path d="M59.954,33.573C59.954,33.198 59.651,32.895 59.276,32.895C53.459,32.895 12.035,32.895 6.218,32.895C5.843,32.895 5.54,33.198 5.54,33.573C5.54,33.573 5.54,33.573 5.54,33.573C5.54,33.947 5.843,34.251 6.218,34.251C12.035,34.251 53.459,34.251 59.276,34.251C59.651,34.251 59.954,33.947 59.954,33.573C59.954,33.573 59.954,33.573 59.954,33.573Z" style="fill:#e1e2f3;"/>
    <path d="M14.483,47.918C14.483,47.918 16.733,45.76 18.21,44.343C19.011,43.575 19.446,42.501 19.405,41.391C19.359,40.171 19.299,38.561 19.257,37.419C19.225,36.577 19.748,35.812 20.544,35.536C20.545,35.536 20.545,35.536 20.545,35.535C21.227,35.299 21.979,35.594 22.318,36.23C22.951,37.421 23.983,39.358 24.834,40.957C25.678,42.542 27.501,43.337 29.237,42.877C30.583,42.52 32.106,42.116 33.154,41.838C33.995,41.615 34.763,41.177 35.383,40.567C36.518,39.448 38.441,37.554 39.811,36.205C40.849,35.182 42.207,34.546 43.657,34.404C43.986,34.371 44.323,34.338 44.647,34.306C44.986,34.273 45.312,34.445 45.476,34.744C45.64,35.043 45.609,35.41 45.399,35.678C43.316,38.33 39.106,43.688 36.874,46.53C35.904,47.764 34.718,48.811 33.373,49.62C29.146,52.164 19.803,57.786 19.803,57.786L14.483,47.918Z" style="fill:#f3775b;"/>
    <clipPath id="_clip4">
        <path d="M14.483,47.918C14.483,47.918 16.733,45.76 18.21,44.343C19.011,43.575 19.446,42.501 19.405,41.391C19.359,40.171 19.299,38.561 19.257,37.419C19.225,36.577 19.748,35.812 20.544,35.536C20.545,35.536 20.545,35.536 20.545,35.535C21.227,35.299 21.979,35.594 22.318,36.23C22.951,37.421 23.983,39.358 24.834,40.957C25.678,42.542 27.501,43.337 29.237,42.877C30.583,42.52 32.106,42.116 33.154,41.838C33.995,41.615 34.763,41.177 35.383,40.567C36.518,39.448 38.441,37.554 39.811,36.205C40.849,35.182 42.207,34.546 43.657,34.404C43.986,34.371 44.323,34.338 44.647,34.306C44.986,34.273 45.312,34.445 45.476,34.744C45.64,35.043 45.609,35.41 45.399,35.678C43.316,38.33 39.106,43.688 36.874,46.53C35.904,47.764 34.718,48.811 33.373,49.62C29.146,52.164 19.803,57.786 19.803,57.786L14.483,47.918Z"/>
    </clipPath>
    <g clip-path="url(#_clip4)">
        <path d="M-12.52,64.297C-12.52,64.297 17.433,52.559 29.425,47.86C32.634,46.603 35.51,44.622 37.828,42.072C42.786,36.616 51.225,27.333 51.225,27.333L43.413,54.419L15.485,63.417L-12.52,64.297Z" style="fill:#c84f4d;"/>
    </g>
    <path d="M14.632,46.455L9.884,49.197L16.338,60.374L21.086,57.633L14.632,46.455Z" style="fill:#e1e2f3;"/>
    <clipPath id="_clip5">
        <path d="M14.632,46.455L9.884,49.197L16.338,60.374L21.086,57.633L14.632,46.455Z"/>
    </clipPath>
    <g clip-path="url(#_clip5)">
        <path d="M22.044,50.558L0.747,58.226L13.808,67.385L27.271,59.611L22.044,50.558Z" style="fill:#cecfeb;"/>
    </g>
    <circle cx="17.921" cy="57.351" r="0.711" style="fill:#fff;"/>
</svg>
