<?xml version="1.0" encoding="UTF-8" standalone="no"?>
<!DOCTYPE svg PUBLIC "-//W3C//DTD SVG 1.1//EN" "http://www.w3.org/Graphics/SVG/1.1/DTD/svg11.dtd">
<svg width="100%" height="100%" viewBox="0 0 65 64" version="1.1" xmlns="http://www.w3.org/2000/svg" xmlns:xlink="http://www.w3.org/1999/xlink" xml:space="preserve" xmlns:serif="http://www.serif.com/" style="fill-rule:evenodd;clip-rule:evenodd;stroke-linejoin:round;stroke-miterlimit:2;">
    <rect id="Food-Manufacturers" x="0.738" y="0" width="64" height="64" style="fill:none;"/>
    <path d="M27.546,48.587C43.309,48.587 61.299,50.545 61.299,52.956C61.299,55.368 43.309,57.326 27.546,57.326C11.782,57.326 4.177,55.368 4.177,52.956C4.177,50.545 11.782,48.587 27.546,48.587Z" style="fill:#b5b8e2;fill-opacity:0.18;"/>
    <g>
        <path d="M55.034,7.131L25.12,7.131C27.357,22.437 27.361,37.553 25.12,52.477L55.034,52.477C52.699,37.694 52.616,22.579 55.034,7.131Z" style="fill:#f3775b;"/>
        <clipPath id="_clip1">
            <path d="M55.034,7.131L25.12,7.131C27.357,22.437 27.361,37.553 25.12,52.477L55.034,52.477C52.699,37.694 52.616,22.579 55.034,7.131Z"/>
        </clipPath>
        <g clip-path="url(#_clip1)">
            <rect x="20.919" y="3.266" width="40.806" height="5.774" style="fill:#c84f4d;fill-opacity:0.76;"/>
            <rect x="20.919" y="51.195" width="40.806" height="5.774" style="fill:#a7da94;fill-opacity:0.76;"/>
            <path id="_-Curve-" serif:id="(Curve)" d="M26.357,51.484C26.357,51.484 31.041,46.586 40.077,46.586C49.113,46.586 54.176,50.951 54.176,50.951C54.176,50.951 46.14,49.28 40.077,49.28C34.014,49.28 29.384,50.395 26.357,51.484Z" style="fill:#c84f4d;"/>
            <circle cx="40.266" cy="23.089" r="8.157" style="fill:#cecfeb;"/>
            <path d="M26.357,9.719C26.357,9.719 31.178,16.254 40.213,16.254C49.249,16.254 54.176,9.343 54.176,9.343C54.176,9.343 46.14,12.908 40.077,12.908C34.014,12.908 29.384,11.202 26.357,9.719Z" style="fill:#fff;fill-opacity:0.39;"/>
            <path d="M28.609,15.876C28.609,15.876 27.199,27.191 40.266,29.252C40.266,29.252 31.347,24.171 28.609,15.876Z" style="fill:#fff;fill-opacity:0.39;"/>
            <path d="M52.546,31.439C52.546,31.439 53.956,42.754 40.889,44.816C40.889,44.816 49.808,39.734 52.546,31.439Z" style="fill:#c84f4d;fill-opacity:0.39;"/>
            <path d="M12.108,27.352C12.108,26.08 17.105,25.048 23.261,25.048C29.417,25.048 34.415,26.08 34.415,27.352L34.415,55.808C34.415,57.574 29.417,59.008 23.261,59.008C17.105,59.008 12.108,57.574 12.108,55.808L12.108,27.352Z" style="fill:#c84f4d;fill-opacity:0.35;"/>
        </g>
    </g>
    <g>
        <path d="M30.924,52.535C30.924,54.48 25.422,56.058 18.644,56.058C11.866,56.058 6.364,54.48 6.364,52.535L6.364,21.206L30.924,21.206L30.924,52.535Z" style="fill:#cecfeb;"/>
        <clipPath id="_clip2">
            <path d="M30.924,52.535C30.924,54.48 25.422,56.058 18.644,56.058C11.866,56.058 6.364,54.48 6.364,52.535L6.364,21.206L30.924,21.206L30.924,52.535Z"/>
        </clipPath>
        <g clip-path="url(#_clip2)">
            <rect x="6.364" y="21.206" width="8.803" height="43.253" style="fill:#e1e2f3;"/>
            <path d="M30.924,30.258L30.924,42.498C30.924,44.442 25.422,46.021 18.644,46.021C11.866,46.021 6.364,44.442 6.364,42.498L6.364,30.258C6.364,32.202 11.867,33.781 18.644,33.781C25.422,33.781 30.924,32.202 30.924,30.258Z" style="fill:#9096d5;"/>
            <rect x="9.675" y="21.206" width="2.181" height="43.253" style="fill:#fff;fill-opacity:0.49;"/>
        </g>
        <ellipse cx="18.644" cy="21.206" rx="12.28" ry="2.537" style="fill:#aaacdd;"/>
        <clipPath id="_clip3">
            <ellipse cx="18.644" cy="21.206" rx="12.28" ry="2.537"/>
        </clipPath>
        <g clip-path="url(#_clip3)">
            <ellipse cx="18.644" cy="22.259" rx="12.28" ry="2.537" style="fill:#e1e2f3;"/>
        </g>
    </g>
</svg>
