<?xml version="1.0" encoding="UTF-8" standalone="no"?>
<!DOCTYPE svg PUBLIC "-//W3C//DTD SVG 1.1//EN" "http://www.w3.org/Graphics/SVG/1.1/DTD/svg11.dtd">
<svg width="100%" height="100%" viewBox="0 0 65 65" version="1.1" xmlns="http://www.w3.org/2000/svg" xmlns:xlink="http://www.w3.org/1999/xlink" xml:space="preserve" xmlns:serif="http://www.serif.com/" style="fill-rule:evenodd;clip-rule:evenodd;stroke-linejoin:round;stroke-miterlimit:2;">
    <rect id="Fruit-Veg" x="0.814" y="0.675" width="64" height="64" style="fill:none;"/>
    <ellipse cx="30.976" cy="37.417" rx="14.265" ry="3.801" style="fill:#d8d8e7;"/>
    <ellipse cx="48.046" cy="47.227" rx="14.265" ry="3.801" style="fill:#d8d8e7;"/>
    <g>
        <path d="M20.33,25.35C20.33,25.35 23.237,27.422 23.721,31.952C24.206,36.481 23.643,38.204 23.643,38.204C23.643,38.204 24.252,40.549 28.852,40.169C33.451,39.789 33.542,37.487 33.542,37.487C33.542,37.487 32.339,29.973 34.431,25.873C34.431,25.873 28.401,22.425 20.33,25.35Z" style="fill:#9298d1;"/>
        <clipPath id="_clip1">
            <path d="M20.33,25.35C20.33,25.35 23.237,27.422 23.721,31.952C24.206,36.481 23.643,38.204 23.643,38.204C23.643,38.204 24.252,40.549 28.852,40.169C33.451,39.789 33.542,37.487 33.542,37.487C33.542,37.487 32.339,29.973 34.431,25.873C34.431,25.873 28.401,22.425 20.33,25.35Z"/>
        </clipPath>
        <g clip-path="url(#_clip1)">
            <path d="M21.895,9.077C23.055,7.125 25.227,5.81 27.714,5.81C29.919,5.81 31.877,6.845 33.1,8.441C33.757,8.172 34.477,8.023 35.234,8.023C37.446,8.023 39.355,9.295 40.227,11.126C42.514,11.771 44.188,13.822 44.188,16.249C44.188,16.781 44.108,17.295 43.958,17.78C44.555,18.581 44.928,19.549 44.988,20.598C45.689,21.494 46.106,22.611 46.106,23.822C46.106,26.766 43.643,29.156 40.609,29.156C39.861,29.156 39.148,29.011 38.498,28.748C37.532,30.278 35.793,31.299 33.81,31.299C32.715,31.299 31.227,30.873 30.071,32.488C29.763,32.919 29.983,29.826 29.636,29.434C29.462,29.45 28.847,28.983 28.303,29.257C27.529,29.647 27.575,30.862 26.846,30.514C26.602,30.398 26.212,28.667 25.991,28.518C25.373,28.886 24.676,29.139 23.929,29.246C23.088,31.146 21.141,32.478 18.876,32.478C15.843,32.478 13.38,30.088 13.38,27.144C13.38,26.63 13.454,26.134 13.594,25.665C12.028,24.724 10.984,23.042 10.984,21.125C10.984,19.688 11.571,18.383 12.524,17.423C12.154,16.616 11.949,15.723 11.949,14.784C11.949,11.189 14.956,8.27 18.66,8.27C19.833,8.27 20.936,8.563 21.895,9.077Z" style="fill:#6d72ba;"/>
            <path d="M27.683,40.427C27.683,40.427 27.266,36.8 27.266,34.687C27.266,34.687 26.391,39.689 24.891,40.292C23.391,40.895 27.683,40.427 27.683,40.427Z" style="fill:#6d72ba;fill-opacity:0.64;"/>
        </g>
        <path d="M21.895,6.199C23.055,4.247 25.227,2.932 27.714,2.932C29.919,2.932 31.877,3.966 33.1,5.562C33.757,5.293 34.477,5.145 35.234,5.145C37.446,5.145 39.355,6.416 40.227,8.247C42.514,8.893 44.188,10.943 44.188,13.371C44.188,13.902 44.108,14.416 43.958,14.901C44.555,15.702 44.928,16.671 44.988,17.719C45.689,18.615 46.106,19.732 46.106,20.943C46.106,23.887 43.643,26.278 40.609,26.278C39.861,26.278 39.148,26.133 38.498,25.87C37.532,27.399 35.793,28.42 33.81,28.42C32.141,28.42 30.645,27.696 29.636,26.555C29.462,26.571 29.285,26.58 29.106,26.58C27.949,26.58 26.876,26.233 25.991,25.64C25.373,26.007 24.676,26.26 23.929,26.367C23.088,28.267 21.141,29.6 18.876,29.6C15.843,29.6 13.38,27.209 13.38,24.265C13.38,23.752 13.454,23.256 13.594,22.786C12.028,21.845 10.984,20.163 10.984,18.246C10.984,16.809 11.571,15.504 12.524,14.544C12.154,13.737 11.949,12.844 11.949,11.905C11.949,8.31 14.956,5.392 18.66,5.392C19.833,5.392 20.936,5.684 21.895,6.199Z" style="fill:#363a74;"/>
        <clipPath id="_clip2">
            <path d="M21.895,6.199C23.055,4.247 25.227,2.932 27.714,2.932C29.919,2.932 31.877,3.966 33.1,5.562C33.757,5.293 34.477,5.145 35.234,5.145C37.446,5.145 39.355,6.416 40.227,8.247C42.514,8.893 44.188,10.943 44.188,13.371C44.188,13.902 44.108,14.416 43.958,14.901C44.555,15.702 44.928,16.671 44.988,17.719C45.689,18.615 46.106,19.732 46.106,20.943C46.106,23.887 43.643,26.278 40.609,26.278C39.861,26.278 39.148,26.133 38.498,25.87C37.532,27.399 35.793,28.42 33.81,28.42C32.141,28.42 30.645,27.696 29.636,26.555C29.462,26.571 29.285,26.58 29.106,26.58C27.949,26.58 26.876,26.233 25.991,25.64C25.373,26.007 24.676,26.26 23.929,26.367C23.088,28.267 21.141,29.6 18.876,29.6C15.843,29.6 13.38,27.209 13.38,24.265C13.38,23.752 13.454,23.256 13.594,22.786C12.028,21.845 10.984,20.163 10.984,18.246C10.984,16.809 11.571,15.504 12.524,14.544C12.154,13.737 11.949,12.844 11.949,11.905C11.949,8.31 14.956,5.392 18.66,5.392C19.833,5.392 20.936,5.684 21.895,6.199Z"/>
        </clipPath>
        <g clip-path="url(#_clip2)">
            <path d="M11.604,27.349C11.604,27.349 5.972,13.694 20.123,13.792C20.123,13.792 21.494,8.526 25.871,8.464C30.248,8.401 31.244,9.906 31.244,9.906C31.244,9.906 36.171,4.812 40.997,6.372C40.997,6.372 31.919,-1.738 19.854,1.913C7.79,5.564 4.293,19.032 11.604,27.349Z" style="fill:#7075bc;fill-opacity:0.74;"/>
            <path d="M12.426,14.538C12.426,14.538 12.53,6.065 22.82,8.06C22.82,8.06 21.286,2.342 14.405,3.903C6.329,5.735 11.441,15.682 12.426,14.538Z" style="fill:#878bc7;"/>
            <path d="M9.629,22.513C9.629,22.513 8.088,15.474 12.358,14.168C13.677,13.765 15.148,14.006 15.961,14.201C15.917,16.002 18.446,16.251 18.446,16.251C18.446,16.251 13.422,15.469 9.629,22.513Z" style="fill:#666bb1;"/>
            <path d="M35.214,12.115C35.214,12.115 37.021,8.195 40.18,8.458C43.339,8.722 46.134,13.985 46.134,13.985C46.134,13.985 43.474,11.522 40.538,11.028C37.938,10.591 35.214,12.115 35.214,12.115Z" style="fill:#454a96;"/>
            <path d="M21.788,6.233C21.788,6.233 24.722,2.871 32.215,4.02C35.702,4.554 31.504,1.479 26.347,2.113C24.798,2.303 22.313,1.393 21.788,6.233Z" style="fill:#878bc7;"/>
        </g>
        <path d="M22.802,22.214C22.802,22.214 27.228,28.121 26.994,34.67L26.78,21.741L22.802,22.214Z" style="fill:#2b307f;fill-opacity:0.33;"/>
        <path d="M33.738,25.556C33.738,25.556 29.313,31.463 29.547,38.011L29.76,25.082L33.738,25.556Z" style="fill:#2b307f;fill-opacity:0.33;"/>
        <path d="M21.233,14.309C21.233,14.309 24.026,9.73 31.882,12.989C31.882,12.989 23.358,13.846 22.59,19.803C22.59,19.803 20.196,17.688 21.233,14.309Z" style="fill:#5b60ab;fill-opacity:0.76;"/>
        <path d="M14.689,22.537C14.689,22.537 17.578,21.566 18.176,20.318C18.176,20.318 19.967,22.928 22.361,23.367C22.361,23.367 17.428,22.03 14.689,22.537Z" style="fill:#41469a;"/>
    </g>
    <ellipse cx="52.44" cy="47.512" rx="5.575" ry="0.958" style="fill:#bebed7;"/>
    <g>
        <path d="M48.62,23.824C48.62,23.824 47.111,21.627 44.308,22.123C41.505,22.62 41.214,23.531 41.214,23.531C41.214,23.531 37.21,22.446 36.48,26.45C35.75,30.454 35.949,38.854 38.268,44.411C39.615,47.638 41.942,49.111 44.303,48.962C46.663,48.813 48.486,46.52 48.486,46.52C48.486,46.52 49.962,48.52 52.181,48.541C54.4,48.563 59.496,44.563 60.892,36.82C62.287,29.078 61.538,23.854 57.736,22.438C56.554,21.998 54.63,22.882 54.63,22.882C54.63,22.882 52.02,20.798 49.449,21.769C46.878,22.741 48.62,23.824 48.62,23.824Z" style="fill:#f1765a;"/>
        <clipPath id="_clip3">
            <path d="M48.62,23.824C48.62,23.824 47.111,21.627 44.308,22.123C41.505,22.62 41.214,23.531 41.214,23.531C41.214,23.531 37.21,22.446 36.48,26.45C35.75,30.454 35.949,38.854 38.268,44.411C39.615,47.638 41.942,49.111 44.303,48.962C46.663,48.813 48.486,46.52 48.486,46.52C48.486,46.52 49.962,48.52 52.181,48.541C54.4,48.563 59.496,44.563 60.892,36.82C62.287,29.078 61.538,23.854 57.736,22.438C56.554,21.998 54.63,22.882 54.63,22.882C54.63,22.882 52.02,20.798 49.449,21.769C46.878,22.741 48.62,23.824 48.62,23.824Z"/>
        </clipPath>
        <g clip-path="url(#_clip3)">
            <path d="M49.043,24.521C49.043,24.521 50.713,35.859 48.99,44C48.655,45.584 48.191,47.048 47.561,48.283C43.697,55.862 35.034,42.81 35.034,42.81C35.034,42.81 42.128,49.18 46.183,42.409C47.767,39.764 49.739,29.98 49.043,24.521Z" style="fill:#bf684e;"/>
            <path d="M37.946,27.068C37.946,27.068 38.423,39.126 36.701,47.267C36.365,48.851 37.095,47.048 36.465,48.283C32.601,55.862 23.937,42.81 23.937,42.81C23.937,42.81 29.073,52.015 33.128,45.244C34.712,42.599 38.643,32.528 37.946,27.068Z" style="fill:#bf684e;"/>
            <path d="M59.173,21.905C59.173,21.905 67.382,36.5 62.509,43.474C51.124,59.769 45.645,42.81 45.645,42.81C45.645,42.81 51.688,43.756 51.687,32.684C51.686,25.329 62.159,33.144 59.173,21.905Z" style="fill:#bf684e;"/>
            <path d="M50.441,24.141C50.441,24.141 53.03,23.044 54.637,22.894C56.243,22.745 50.882,20.258 50.441,24.141Z" style="fill:#bf684e;"/>
            <path d="M41.311,24.297C41.311,24.297 41.314,24.88 39.689,26.264C41.898,24.634 43.918,24.888 43.873,24.861C43.603,24.697 42.527,23.841 41.311,24.297Z" style="fill:#bf684e;"/>
            <path d="M45.38,21.854C45.38,21.854 46.044,23.518 44.419,24.902C46.545,24.152 47.51,24.686 47.464,24.658C47.195,24.495 46.597,21.398 45.38,21.854Z" style="fill:#bf684e;"/>
            <path d="M41.695,26.767L41.772,26.769L41.847,26.771L41.924,26.775L41.927,26.775L42.001,26.783L42.08,26.792L42.159,26.802L42.234,26.812L42.239,26.813L42.32,26.827L42.401,26.843L42.483,26.86L42.567,26.878L42.59,26.883L42.65,26.899L42.735,26.921L42.82,26.945L42.906,26.971L42.993,26.997L43.08,27.025L43.169,27.054L43.258,27.084L43.348,27.116L43.394,27.132L43.438,27.15L43.529,27.186L43.621,27.224L43.713,27.263L43.807,27.304L43.9,27.346L43.995,27.39L44.09,27.435L44.187,27.481L44.236,27.506L44.283,27.53L44.38,27.581L44.478,27.634L44.577,27.688L44.676,27.743L44.776,27.801L44.877,27.86L44.979,27.92L45.039,27.957L45.081,27.983L45.183,28.048L45.286,28.115L45.39,28.184L45.494,28.255L45.6,28.327L45.705,28.401L45.812,28.477L45.92,28.554L46.028,28.634L46.137,28.715L46.246,28.798L46.3,28.84L46.356,28.884L46.467,28.972L46.578,29.063L46.69,29.155L46.782,29.232L46.802,29.249L46.859,29.464L46.642,29.516L46.617,29.506L46.507,29.462L46.375,29.41L46.244,29.36L46.115,29.311L46.05,29.287L45.987,29.264L45.862,29.218L45.738,29.173L45.616,29.13L45.496,29.089L45.377,29.049L45.259,29.011L45.144,28.974L45.029,28.939L44.917,28.905L44.805,28.873L44.696,28.843L44.651,28.831L44.588,28.813L44.482,28.783L44.378,28.756L44.275,28.729L44.173,28.704L44.073,28.681L43.975,28.658L43.878,28.637L43.831,28.627L43.783,28.617L43.689,28.596L43.597,28.578L43.506,28.56L43.417,28.544L43.329,28.529L43.243,28.514L43.158,28.501L43.074,28.49L43.034,28.484L42.992,28.478L42.912,28.466L42.833,28.455L42.756,28.445L42.679,28.436L42.604,28.428L42.531,28.421L42.458,28.415L42.387,28.41L42.337,28.407L42.318,28.405L42.25,28.399L42.183,28.394L42.117,28.39L42.053,28.387L42.048,28.387L41.99,28.382L41.928,28.378L41.867,28.374L41.81,28.371L41.808,28.371L41.749,28.365L41.692,28.36L41.638,28.356L41.603,28.354L41.526,28.346L41.421,28.337L41.4,28.335L41.319,28.324L41.22,28.312L41.124,28.303L41.032,28.296L41.016,28.295L40.942,28.285L40.854,28.275L40.77,28.267L40.688,28.262L40.659,28.261L40.608,28.255L40.531,28.247L40.456,28.242L40.383,28.239L40.33,28.238L40.313,28.236L40.244,28.23L40.178,28.226L40.114,28.224L40.053,28.223L39.995,28.224L39.94,28.226L39.887,28.229L39.838,28.233L39.792,28.238L39.787,28.238L39.747,28.24L39.705,28.243L39.667,28.246L39.599,28.254L39.544,28.264L39.55,28.26L39.51,28.268L39.49,28.273L39.479,28.275L39.259,28.261L39.274,28.041L39.279,28.029L39.291,28.006L39.316,27.962L39.351,27.906L39.396,27.837L39.425,27.797L39.456,27.755L39.486,27.715L39.49,27.71L39.53,27.667L39.574,27.622L39.621,27.575L39.673,27.526L39.728,27.476L39.788,27.424L39.852,27.372L39.921,27.318L39.994,27.264L40.011,27.251L40.073,27.214L40.157,27.165L40.246,27.116L40.339,27.068L40.401,27.038L40.438,27.023L40.543,26.982L40.652,26.943L40.766,26.904L40.863,26.874L40.884,26.869L41.009,26.843L41.137,26.819L41.271,26.797L41.38,26.782L41.408,26.779L41.551,26.771L41.649,26.767L41.695,26.767Z" style="fill:#fff;fill-opacity:0.58;"/>
            <path d="M56.483,24.093L56.544,24.097L56.648,24.106L56.753,24.115L56.857,24.127L56.962,24.14L57.041,24.151L57.068,24.156L57.174,24.177L57.279,24.2L57.385,24.225L57.491,24.251L57.54,24.264L57.597,24.283L57.702,24.318L57.807,24.356L57.912,24.395L58.017,24.436L58.122,24.479L58.226,24.524L58.268,24.542L58.33,24.574L58.433,24.627L58.522,24.676L58.534,24.683L58.673,24.86L58.492,24.992L58.479,24.996L58.382,25.019L58.275,25.047L58.213,25.065L58.171,25.075L58.068,25.1L57.967,25.126L57.868,25.154L57.771,25.183L57.675,25.213L57.581,25.244L57.531,25.261L57.489,25.273L57.398,25.301L57.309,25.329L57.221,25.359L57.134,25.389L57.112,25.397L57.049,25.417L56.965,25.444L56.882,25.472L56.801,25.501L56.72,25.531L56.674,25.549L56.641,25.559L56.562,25.584L56.484,25.61L56.408,25.637L56.332,25.665L56.257,25.693L56.233,25.703L56.182,25.719L56.108,25.743L56.035,25.768L56.015,25.775L55.961,25.791L55.889,25.813L55.816,25.836L55.8,25.841L55.744,25.856L55.672,25.877L55.6,25.898L55.574,25.906L55.529,25.919L55.457,25.939L55.387,25.96L55.328,25.978L55.316,25.981L55.246,26.001L55.176,26.021L55.106,26.043L55.037,26.064L54.969,26.087L54.901,26.11L54.833,26.134L54.784,26.153L54.766,26.158L54.699,26.181L54.632,26.205L54.566,26.229L54.5,26.254L54.435,26.279L54.371,26.304L54.242,26.358L54.195,26.379L54.116,26.412L53.991,26.466L53.869,26.522L53.749,26.579L53.632,26.638L53.59,26.66L53.517,26.696L53.403,26.755L53.292,26.814L53.185,26.875L53.08,26.935L52.978,26.996L52.879,27.058L52.783,27.119L52.691,27.18L52.601,27.24L52.516,27.3L52.45,27.347L52.433,27.359L52.353,27.415L52.276,27.471L52.204,27.526L52.135,27.578L52.069,27.629L52.008,27.678L51.95,27.725L51.897,27.77L51.801,27.852L51.722,27.922L51.661,27.978L51.617,28.02L51.598,28.038L51.58,28.056L51.364,28.094L51.325,27.877L51.336,27.854L51.348,27.828L51.378,27.769L51.419,27.689L51.472,27.59L51.537,27.474L51.575,27.409L51.615,27.341L51.659,27.269L51.705,27.194L51.756,27.115L51.809,27.033L51.866,26.948L51.926,26.861L51.938,26.842L51.99,26.771L52.058,26.68L52.13,26.586L52.205,26.491L52.284,26.393L52.367,26.295L52.453,26.194L52.543,26.093L52.636,25.99L52.734,25.886L52.835,25.782L52.902,25.716L52.942,25.678L53.053,25.576L53.168,25.473L53.287,25.371L53.41,25.268L53.49,25.205L53.539,25.168L53.67,25.071L53.74,25.022L53.81,24.974L53.88,24.926L53.951,24.879L54.024,24.832L54.097,24.785L54.117,24.773L54.173,24.74L54.25,24.697L54.327,24.654L54.406,24.612L54.486,24.57L54.567,24.529L54.649,24.488L54.732,24.448L54.746,24.442L54.817,24.412L54.903,24.376L54.991,24.341L55.047,24.319L55.079,24.308L55.169,24.277L55.26,24.248L55.331,24.226L55.352,24.22L55.446,24.196L55.541,24.174L55.611,24.158L55.637,24.153L55.734,24.138L55.832,24.123L55.899,24.114L55.932,24.111L56.032,24.105L56.133,24.1L56.235,24.096L56.337,24.094L56.44,24.093L56.483,24.093Z" style="fill:#fff;fill-opacity:0.28;"/>
            <path d="M38.057,25.964L38.054,25.907L38.053,25.849L38.055,25.792L38.058,25.735L38.064,25.678L38.071,25.622L38.08,25.566L38.088,25.53L38.092,25.511L38.107,25.458L38.123,25.405L38.141,25.352L38.16,25.301L38.181,25.25L38.203,25.2L38.226,25.151L38.241,25.119L38.25,25.103L38.278,25.057L38.306,25.012L38.335,24.968L38.352,24.942L38.365,24.926L38.398,24.886L38.431,24.847L38.464,24.809L38.468,24.805L38.5,24.774L38.538,24.74L38.592,24.695L38.612,24.68L38.689,24.625L38.732,24.597L38.767,24.577L38.845,24.535L38.922,24.496L38.996,24.461L39.035,24.444L39.068,24.431L39.138,24.406L39.204,24.384L39.266,24.365L39.323,24.348L39.328,24.347L39.376,24.335L39.425,24.324L39.501,24.308L39.551,24.299L39.558,24.298L39.569,24.296L39.81,24.397L39.708,24.638L39.702,24.643L39.697,24.647L39.665,24.673L39.613,24.718L39.582,24.745L39.551,24.774L39.548,24.777L39.51,24.812L39.469,24.849L39.426,24.89L39.383,24.935L39.363,24.956L39.337,24.98L39.289,25.027L39.242,25.077L39.195,25.129L39.174,25.153L39.147,25.181L39.098,25.233L39.086,25.248L39.047,25.286L39.024,25.311L39.002,25.334L38.999,25.337L38.973,25.361L38.947,25.386L38.921,25.411L38.911,25.421L38.894,25.436L38.867,25.46L38.841,25.485L38.815,25.511L38.806,25.52L38.788,25.536L38.761,25.562L38.735,25.588L38.709,25.616L38.684,25.644L38.66,25.673L38.636,25.703L38.613,25.733L38.606,25.744L38.59,25.765L38.566,25.797L38.544,25.83L38.522,25.865L38.501,25.9L38.482,25.937L38.463,25.976L38.445,26.016L38.429,26.061L38.223,26.235L38.062,26.019L38.057,25.964Z" style="fill:#fff;fill-opacity:0.37;"/>
        </g>
        <path d="M46.545,24.655C47.704,24.509 48.842,24.589 49.911,25.401C49.911,25.401 49.533,22.988 49.196,21.569C48.859,20.151 46.082,14.605 43.472,14.598C41.53,14.592 41.18,15.363 41.18,15.363C41.18,15.363 40.6,16.048 41.135,16.799C41.67,17.55 42.366,17.947 43.107,17.721C43.849,17.494 43.614,17.458 43.614,17.458C43.614,17.458 44.966,17.983 45.824,20.484C46.394,22.144 47.028,24.064 46.545,24.655Z" style="fill:#cc7865;"/>
        <clipPath id="_clip4">
            <path d="M46.545,24.655C47.704,24.509 48.842,24.589 49.911,25.401C49.911,25.401 49.533,22.988 49.196,21.569C48.859,20.151 46.082,14.605 43.472,14.598C41.53,14.592 41.18,15.363 41.18,15.363C41.18,15.363 40.6,16.048 41.135,16.799C41.67,17.55 42.366,17.947 43.107,17.721C43.849,17.494 43.614,17.458 43.614,17.458C43.614,17.458 44.966,17.983 45.824,20.484C46.394,22.144 47.028,24.064 46.545,24.655Z"/>
        </clipPath>
        <g clip-path="url(#_clip4)">
            <path d="M40.023,17.037C40.023,17.037 42.631,15.519 45.347,17.159C47.004,18.16 49.278,21.468 50.195,25.345C50.195,25.345 48.041,13.181 42.516,13.623C38.831,13.918 40.023,17.037 40.023,17.037Z" style="fill:#dda598;"/>
        </g>
    </g>
    <g>
        <ellipse cx="43.072" cy="44.258" rx="3.199" ry="0.852" style="fill:#e6e6f0;"/>
        <circle cx="42.561" cy="41.66" r="2.991" style="fill:#676fc1;"/>
        <clipPath id="_clip5">
            <circle cx="42.561" cy="41.66" r="2.991"/>
        </clipPath>
        <g clip-path="url(#_clip5)">
            <circle cx="41.605" cy="40.121" r="2.991" style="fill:#8d93d8;"/>
            <path d="M42.724,38.885C42.812,38.91 42.871,38.991 42.871,39.082C42.871,39.173 42.81,39.252 42.722,39.277C42.721,39.277 42.72,39.278 42.719,39.278C42.479,39.345 42.312,39.564 42.311,39.813C42.311,39.863 42.31,39.914 42.31,39.965C42.31,40.032 42.268,40.091 42.205,40.113C42.142,40.135 42.072,40.115 42.03,40.064C42.018,40.05 42.007,40.036 41.996,40.022C41.778,39.755 41.423,39.642 41.091,39.735C41.079,39.739 41.067,39.742 41.055,39.746C40.985,39.765 40.911,39.737 40.872,39.677C40.833,39.616 40.837,39.537 40.883,39.481C40.884,39.481 40.884,39.481 40.884,39.481C41.081,39.244 41.083,38.9 40.888,38.661C40.888,38.661 40.888,38.661 40.888,38.661C40.842,38.604 40.838,38.525 40.878,38.465C40.918,38.405 40.993,38.378 41.062,38.398C41.074,38.402 41.086,38.405 41.099,38.409C41.429,38.505 41.785,38.397 42.006,38.132C42.017,38.118 42.029,38.104 42.04,38.09C42.083,38.039 42.153,38.02 42.216,38.043C42.278,38.066 42.32,38.126 42.32,38.192C42.319,38.243 42.319,38.294 42.319,38.344C42.318,38.594 42.481,38.814 42.721,38.884C42.722,38.884 42.723,38.884 42.724,38.885Z" style="fill:#464e9c;"/>
        </g>
        <path d="M42.499,39.021L42.557,39.023L42.615,39.025L42.671,39.029L42.727,39.033L42.732,39.034L42.781,39.04L42.835,39.047L42.887,39.055L42.939,39.064L42.991,39.074L43.088,39.095L43.165,39.115L43.182,39.119L43.271,39.146L43.357,39.175L43.437,39.205L43.514,39.236L43.585,39.266L43.652,39.297L43.715,39.328L43.772,39.357L43.817,39.381L43.825,39.386L43.872,39.414L43.915,39.44L43.952,39.464L44.01,39.503L44.047,39.53L44.06,39.539L44.121,39.74L43.919,39.798L43.908,39.795L43.872,39.784L43.814,39.768L43.777,39.759L43.735,39.75L43.688,39.74L43.68,39.738L43.637,39.73L43.582,39.72L43.522,39.71L43.459,39.702L43.393,39.695L43.324,39.689L43.251,39.685L43.176,39.683L43.099,39.683L43.085,39.684L43.02,39.685L42.938,39.688L42.898,39.691L42.857,39.695L42.815,39.7L42.773,39.705L42.735,39.711L42.731,39.711L42.689,39.717L42.646,39.724L42.603,39.732L42.56,39.741L42.516,39.751L42.473,39.762L42.429,39.773L42.394,39.784L42.386,39.786L42.342,39.798L42.297,39.812L42.253,39.826L42.209,39.842L42.164,39.859L42.12,39.877L42.089,39.891L42.075,39.896L42.03,39.914L41.984,39.933L41.938,39.953L41.893,39.975L41.843,40.001L41.832,40.006L41.794,40.024L41.745,40.047L41.698,40.071L41.653,40.096L41.608,40.121L41.599,40.126L41.564,40.145L41.521,40.17L41.479,40.196L41.437,40.222L41.397,40.249L41.365,40.272L41.358,40.276L41.319,40.303L41.281,40.33L41.244,40.359L41.207,40.387L41.172,40.416L41.138,40.446L41.137,40.446L41.104,40.475L41.07,40.505L41.038,40.535L41.006,40.565L40.975,40.596L40.945,40.627L40.926,40.648L40.916,40.658L40.887,40.689L40.859,40.72L40.832,40.75L40.78,40.814L40.732,40.876L40.687,40.938L40.645,40.999L40.607,41.058L40.585,41.095L40.572,41.115L40.539,41.17L40.509,41.222L40.483,41.272L40.46,41.317L40.44,41.359L40.423,41.395L40.397,41.456L40.383,41.491L40.383,41.493L40.378,41.505L40.208,41.627L40.087,41.457L40.087,41.44L40.087,41.437L40.089,41.391L40.094,41.316L40.099,41.268L40.105,41.215L40.113,41.156L40.123,41.093L40.135,41.024L40.15,40.951L40.157,40.924L40.169,40.875L40.192,40.794L40.218,40.71L40.248,40.623L40.282,40.533L40.32,40.442L40.342,40.394L40.364,40.346L40.388,40.298L40.396,40.282L40.413,40.251L40.44,40.203L40.469,40.154L40.499,40.106L40.531,40.057L40.564,40.008L40.597,39.961L40.598,39.96L40.635,39.912L40.674,39.864L40.714,39.816L40.756,39.769L40.8,39.721L40.845,39.675L40.852,39.667L40.893,39.629L40.943,39.585L40.994,39.54L41.048,39.497L41.103,39.454L41.148,39.421L41.16,39.413L41.22,39.374L41.282,39.336L41.346,39.299L41.411,39.263L41.464,39.236L41.479,39.229L41.55,39.2L41.616,39.174L41.681,39.15L41.747,39.128L41.812,39.107L41.831,39.102L41.877,39.09L41.942,39.076L42.007,39.063L42.071,39.052L42.134,39.043L42.196,39.035L42.258,39.028L42.271,39.027L42.32,39.024L42.38,39.022L42.44,39.021L42.499,39.021Z" style="fill:#fff;fill-opacity:0.33;"/>
    </g>
    <g>
        <ellipse cx="36.202" cy="44.866" rx="3.594" ry="0.958" style="fill:#e6e6f0;"/>
        <circle cx="35.628" cy="41.948" r="3.36" style="fill:#676fc1;"/>
        <clipPath id="_clip6">
            <circle cx="35.628" cy="41.948" r="3.36"/>
        </clipPath>
        <g clip-path="url(#_clip6)">
            <circle cx="34.554" cy="40.219" r="3.36" style="fill:#8d93d8;"/>
        </g>
        <path d="M36.277,40.784C36.378,40.755 36.486,40.797 36.54,40.887C36.595,40.976 36.585,41.091 36.514,41.168C36.513,41.169 36.513,41.169 36.513,41.17C36.331,41.369 36.303,41.664 36.444,41.893C36.477,41.947 36.511,42.001 36.544,42.055C36.583,42.119 36.578,42.2 36.531,42.259C36.485,42.317 36.406,42.34 36.336,42.315C36.317,42.309 36.298,42.303 36.28,42.296C35.912,42.17 35.505,42.274 35.243,42.561C35.229,42.576 35.216,42.591 35.202,42.605C35.149,42.663 35.065,42.68 34.994,42.647C34.923,42.613 34.882,42.538 34.893,42.46C34.893,42.46 34.893,42.459 34.893,42.458C34.942,42.104 34.733,41.765 34.395,41.649C34.394,41.648 34.394,41.648 34.393,41.648C34.319,41.623 34.27,41.552 34.272,41.473C34.275,41.395 34.328,41.327 34.403,41.306C34.422,41.301 34.442,41.296 34.461,41.29C34.835,41.186 35.112,40.869 35.165,40.484C35.168,40.464 35.17,40.445 35.173,40.425C35.183,40.351 35.239,40.292 35.312,40.276C35.385,40.261 35.46,40.293 35.499,40.357C35.532,40.411 35.566,40.465 35.599,40.519C35.74,40.748 36.016,40.856 36.275,40.784C36.276,40.784 36.277,40.784 36.277,40.784Z" style="fill:#464e9c;"/>
        <path d="M35.559,38.984L35.624,38.985L35.689,38.988L35.752,38.992L35.814,38.997L35.82,38.998L35.876,39.004L35.936,39.012L35.995,39.022L36.053,39.032L36.11,39.043L36.166,39.054L36.22,39.067L36.274,39.08L36.308,39.089L36.327,39.094L36.426,39.124L36.522,39.157L36.613,39.19L36.699,39.224L36.779,39.259L36.854,39.294L36.924,39.328L36.989,39.361L37.039,39.388L37.048,39.394L37.102,39.425L37.149,39.454L37.192,39.481L37.257,39.525L37.298,39.555L37.313,39.566L37.381,39.792L37.154,39.857L37.141,39.852L37.102,39.841L37.035,39.823L36.994,39.813L36.947,39.802L36.894,39.791L36.885,39.789L36.837,39.78L36.775,39.768L36.708,39.758L36.638,39.748L36.563,39.74L36.485,39.734L36.404,39.729L36.32,39.727L36.232,39.727L36.217,39.728L36.189,39.728L36.144,39.729L36.099,39.731L36.053,39.733L36.007,39.737L35.961,39.741L35.914,39.746L35.867,39.752L35.824,39.758L35.819,39.759L35.772,39.766L35.724,39.774L35.675,39.782L35.627,39.792L35.578,39.803L35.529,39.815L35.48,39.829L35.441,39.84L35.431,39.843L35.382,39.857L35.332,39.872L35.283,39.888L35.233,39.906L35.183,39.925L35.133,39.945L35.098,39.96L35.083,39.966L35.032,39.986L34.98,40.008L34.929,40.031L34.877,40.056L34.822,40.084L34.81,40.09L34.766,40.11L34.712,40.136L34.659,40.163L34.608,40.191L34.558,40.219L34.548,40.225L34.509,40.247L34.46,40.275L34.412,40.303L34.366,40.333L34.321,40.363L34.284,40.389L34.277,40.394L34.233,40.424L34.19,40.454L34.149,40.486L34.108,40.518L34.068,40.551L34.03,40.584L34.029,40.585L33.991,40.617L33.954,40.65L33.917,40.684L33.882,40.718L33.847,40.753L33.814,40.788L33.792,40.811L33.781,40.823L33.748,40.857L33.717,40.892L33.686,40.927L33.656,40.962L33.628,40.997L33.6,41.032L33.574,41.066L33.523,41.137L33.476,41.205L33.433,41.272L33.408,41.314L33.394,41.336L33.357,41.398L33.324,41.456L33.294,41.512L33.268,41.563L33.246,41.61L33.226,41.652L33.21,41.688L33.198,41.718L33.182,41.758L33.181,41.76L33.176,41.774L32.986,41.911L32.849,41.72L32.849,41.701L32.849,41.698L32.851,41.647L32.854,41.607L32.857,41.561L32.862,41.508L32.869,41.448L32.878,41.382L32.889,41.311L32.903,41.234L32.92,41.152L32.927,41.121L32.941,41.066L32.967,40.975L32.996,40.881L33.029,40.784L33.049,40.733L33.068,40.682L33.089,40.631L33.112,40.579L33.135,40.526L33.161,40.472L33.187,40.418L33.196,40.4L33.216,40.365L33.246,40.311L33.278,40.257L33.312,40.202L33.348,40.147L33.385,40.093L33.423,40.039L33.423,40.038L33.465,39.984L33.508,39.93L33.554,39.877L33.601,39.823L33.65,39.77L33.701,39.718L33.709,39.709L33.754,39.667L33.81,39.616L33.868,39.567L33.928,39.518L33.99,39.47L34.041,39.433L34.055,39.424L34.122,39.38L34.192,39.337L34.263,39.296L34.337,39.256L34.396,39.225L34.413,39.218L34.492,39.184L34.566,39.155L34.64,39.128L34.714,39.103L34.787,39.08L34.809,39.074L34.86,39.061L34.933,39.045L35.006,39.031L35.078,39.019L35.149,39.008L35.219,38.999L35.288,38.992L35.302,38.99L35.357,38.987L35.426,38.985L35.493,38.983L35.559,38.984Z" style="fill:#fff;fill-opacity:0.33;"/>
    </g>
    <g>
        <ellipse cx="40.109" cy="46.401" rx="3.594" ry="0.958" style="fill:#e6e6f0;"/>
        <circle cx="39.534" cy="43.483" r="3.36" style="fill:#676fc1;"/>
        <clipPath id="_clip7">
            <circle cx="39.534" cy="43.483" r="3.36"/>
        </clipPath>
        <g clip-path="url(#_clip7)">
            <circle cx="38.461" cy="41.754" r="3.36" style="fill:#8d93d8;"/>
        </g>
        <path d="M40.184,42.318C40.284,42.29 40.392,42.332 40.447,42.422C40.502,42.511 40.491,42.626 40.42,42.703C40.42,42.704 40.419,42.704 40.419,42.705C40.237,42.904 40.209,43.199 40.351,43.428C40.383,43.482 40.417,43.536 40.45,43.59C40.489,43.654 40.484,43.735 40.438,43.794C40.391,43.852 40.313,43.875 40.242,43.85C40.223,43.844 40.205,43.838 40.186,43.831C39.818,43.705 39.411,43.809 39.149,44.096C39.135,44.111 39.122,44.126 39.108,44.14C39.056,44.198 38.971,44.215 38.9,44.182C38.829,44.148 38.788,44.073 38.799,43.995C38.799,43.994 38.799,43.994 38.799,43.993C38.848,43.639 38.639,43.3 38.301,43.184C38.301,43.183 38.3,43.183 38.299,43.183C38.225,43.157 38.176,43.087 38.179,43.008C38.181,42.93 38.234,42.862 38.309,42.841C38.329,42.836 38.348,42.83 38.367,42.825C38.742,42.721 39.018,42.404 39.071,42.019C39.074,41.999 39.077,41.98 39.079,41.96C39.089,41.886 39.145,41.827 39.218,41.811C39.291,41.796 39.366,41.828 39.405,41.892C39.438,41.946 39.472,42 39.505,42.054C39.646,42.283 39.922,42.391 40.182,42.319C40.182,42.319 40.183,42.319 40.184,42.318Z" style="fill:#464e9c;"/>
        <path d="M39.465,40.519L39.531,40.52L39.595,40.523L39.658,40.527L39.721,40.532L39.727,40.533L39.782,40.539L39.842,40.547L39.901,40.557L39.959,40.567L40.016,40.578L40.072,40.589L40.127,40.602L40.18,40.615L40.215,40.624L40.233,40.629L40.333,40.659L40.428,40.692L40.519,40.725L40.605,40.759L40.685,40.794L40.761,40.829L40.831,40.863L40.895,40.896L40.945,40.923L40.955,40.929L41.008,40.96L41.055,40.989L41.098,41.016L41.163,41.06L41.205,41.09L41.219,41.101L41.288,41.327L41.061,41.392L41.048,41.387L41.008,41.376L40.942,41.358L40.901,41.348L40.853,41.337L40.801,41.326L40.791,41.324L40.743,41.315L40.681,41.303L40.615,41.293L40.544,41.283L40.47,41.275L40.392,41.269L40.31,41.264L40.226,41.262L40.138,41.262L40.123,41.263L40.095,41.263L40.051,41.264L40.005,41.266L39.96,41.268L39.914,41.272L39.867,41.276L39.82,41.281L39.773,41.287L39.73,41.293L39.726,41.294L39.678,41.301L39.63,41.308L39.582,41.317L39.533,41.327L39.485,41.338L39.436,41.35L39.387,41.364L39.348,41.375L39.338,41.378L39.288,41.392L39.239,41.407L39.189,41.423L39.139,41.441L39.089,41.46L39.039,41.48L39.004,41.495L38.989,41.501L38.938,41.521L38.887,41.543L38.835,41.566L38.784,41.591L38.728,41.619L38.716,41.625L38.673,41.645L38.618,41.671L38.566,41.698L38.514,41.726L38.465,41.754L38.455,41.76L38.415,41.782L38.366,41.809L38.319,41.838L38.273,41.868L38.228,41.898L38.191,41.924L38.184,41.928L38.14,41.959L38.097,41.989L38.055,42.021L38.014,42.053L37.975,42.086L37.936,42.119L37.935,42.12L37.897,42.152L37.86,42.185L37.823,42.219L37.788,42.253L37.753,42.288L37.72,42.323L37.698,42.346L37.687,42.358L37.654,42.392L37.623,42.427L37.592,42.462L37.563,42.497L37.534,42.532L37.506,42.567L37.48,42.601L37.429,42.672L37.382,42.74L37.34,42.807L37.314,42.848L37.3,42.871L37.263,42.933L37.23,42.991L37.2,43.047L37.174,43.098L37.152,43.145L37.133,43.186L37.117,43.223L37.104,43.253L37.088,43.293L37.088,43.295L37.082,43.309L36.892,43.446L36.755,43.255L36.755,43.236L36.755,43.233L36.757,43.182L36.76,43.142L36.763,43.096L36.769,43.043L36.775,42.983L36.784,42.917L36.796,42.846L36.81,42.769L36.826,42.687L36.834,42.656L36.848,42.601L36.873,42.51L36.903,42.416L36.936,42.319L36.955,42.268L36.975,42.217L36.996,42.166L37.018,42.113L37.042,42.061L37.067,42.007L37.093,41.953L37.103,41.935L37.122,41.9L37.153,41.846L37.185,41.791L37.219,41.737L37.254,41.682L37.291,41.628L37.329,41.574L37.33,41.573L37.371,41.519L37.415,41.465L37.46,41.412L37.507,41.358L37.556,41.305L37.607,41.253L37.615,41.244L37.661,41.202L37.717,41.151L37.775,41.102L37.835,41.053L37.897,41.005L37.947,40.968L37.961,40.959L38.029,40.915L38.098,40.872L38.17,40.831L38.243,40.79L38.302,40.76L38.319,40.752L38.399,40.719L38.473,40.69L38.547,40.663L38.62,40.638L38.693,40.615L38.715,40.609L38.767,40.596L38.84,40.58L38.912,40.566L38.984,40.554L39.055,40.543L39.125,40.534L39.195,40.527L39.209,40.525L39.264,40.522L39.332,40.52L39.399,40.518L39.465,40.519Z" style="fill:#fff;fill-opacity:0.33;"/>
    </g>
    <ellipse cx="22.064" cy="55.963" rx="14.265" ry="3.801" style="fill:#e6e6f0;"/>
    <ellipse cx="21.803" cy="55.87" rx="11.292" ry="3.009" style="fill:#c8c8d6;"/>
    <g>
        <ellipse cx="45.458" cy="48.95" rx="3.594" ry="0.958" style="fill:#bebed7;"/>
        <circle cx="44.884" cy="46.033" r="3.36" style="fill:#676fc1;"/>
        <clipPath id="_clip8">
            <circle cx="44.884" cy="46.033" r="3.36"/>
        </clipPath>
        <g clip-path="url(#_clip8)">
            <circle cx="43.81" cy="44.304" r="3.36" style="fill:#8d93d8;"/>
        </g>
        <path d="M46.42,45.194C46.49,45.115 46.603,45.092 46.697,45.138C46.792,45.183 46.845,45.285 46.828,45.389C46.828,45.389 46.828,45.39 46.828,45.39C46.783,45.656 46.92,45.919 47.163,46.035C47.219,46.062 47.277,46.09 47.334,46.117C47.402,46.15 47.442,46.221 47.434,46.295C47.426,46.369 47.373,46.431 47.3,46.449C47.281,46.454 47.262,46.458 47.243,46.463C46.866,46.556 46.58,46.865 46.516,47.248C46.512,47.268 46.509,47.288 46.506,47.307C46.493,47.385 46.431,47.445 46.353,47.455C46.276,47.466 46.2,47.424 46.167,47.353C46.167,47.353 46.166,47.352 46.166,47.352C46.015,47.028 45.656,46.856 45.309,46.942C45.308,46.942 45.307,46.942 45.306,46.942C45.23,46.961 45.151,46.928 45.11,46.861C45.07,46.794 45.078,46.708 45.13,46.65C45.143,46.635 45.156,46.62 45.169,46.605C45.427,46.314 45.488,45.898 45.323,45.546C45.315,45.528 45.307,45.51 45.298,45.492C45.267,45.424 45.281,45.344 45.334,45.291C45.387,45.239 45.468,45.225 45.535,45.257C45.592,45.285 45.65,45.313 45.707,45.339C45.95,45.456 46.24,45.397 46.419,45.195C46.419,45.195 46.42,45.194 46.42,45.194Z" style="fill:#464e9c;"/>
        <path d="M44.815,43.068L44.88,43.069L44.944,43.072L45.008,43.076L45.07,43.081L45.076,43.082L45.131,43.088L45.192,43.097L45.251,43.106L45.309,43.116L45.365,43.127L45.421,43.139L45.476,43.151L45.529,43.164L45.564,43.173L45.583,43.178L45.682,43.209L45.778,43.241L45.868,43.274L45.954,43.309L46.035,43.343L46.11,43.378L46.18,43.412L46.245,43.445L46.294,43.472L46.304,43.478L46.357,43.509L46.405,43.538L46.447,43.565L46.512,43.609L46.554,43.639L46.568,43.65L46.637,43.876L46.41,43.941L46.397,43.937L46.357,43.925L46.291,43.907L46.25,43.897L46.203,43.886L46.15,43.875L46.141,43.873L46.093,43.864L46.031,43.852L45.964,43.842L45.893,43.832L45.819,43.824L45.741,43.818L45.66,43.813L45.575,43.811L45.487,43.811L45.472,43.812L45.445,43.812L45.4,43.813L45.355,43.815L45.309,43.817L45.263,43.821L45.217,43.825L45.17,43.83L45.122,43.836L45.08,43.842L45.075,43.843L45.027,43.85L44.979,43.858L44.931,43.867L44.882,43.876L44.834,43.887L44.785,43.9L44.736,43.913L44.697,43.924L44.687,43.927L44.637,43.941L44.588,43.956L44.538,43.972L44.488,43.99L44.439,44.009L44.389,44.029L44.354,44.044L44.338,44.05L44.287,44.07L44.236,44.092L44.185,44.115L44.133,44.14L44.077,44.168L44.066,44.174L44.022,44.194L43.968,44.22L43.915,44.247L43.864,44.275L43.814,44.303L43.804,44.309L43.764,44.331L43.716,44.359L43.668,44.387L43.622,44.417L43.577,44.447L43.54,44.473L43.533,44.478L43.489,44.508L43.446,44.539L43.404,44.57L43.363,44.602L43.324,44.635L43.285,44.668L43.284,44.669L43.247,44.701L43.209,44.734L43.173,44.768L43.137,44.802L43.103,44.837L43.069,44.872L43.048,44.895L43.036,44.907L43.004,44.941L42.972,44.976L42.942,45.011L42.912,45.046L42.883,45.081L42.856,45.116L42.829,45.15L42.778,45.221L42.732,45.289L42.689,45.356L42.664,45.398L42.649,45.42L42.612,45.482L42.579,45.541L42.55,45.596L42.524,45.647L42.501,45.694L42.482,45.736L42.466,45.772L42.453,45.802L42.438,45.842L42.437,45.844L42.431,45.858L42.241,45.995L42.104,45.805L42.105,45.785L42.105,45.782L42.107,45.731L42.109,45.691L42.113,45.645L42.118,45.592L42.125,45.532L42.134,45.467L42.145,45.395L42.159,45.318L42.176,45.236L42.183,45.206L42.197,45.15L42.222,45.059L42.252,44.965L42.285,44.868L42.304,44.817L42.324,44.766L42.345,44.715L42.367,44.663L42.391,44.61L42.416,44.556L42.443,44.503L42.452,44.484L42.471,44.449L42.502,44.395L42.534,44.341L42.568,44.286L42.603,44.232L42.64,44.177L42.678,44.123L42.679,44.122L42.721,44.068L42.764,44.014L42.809,43.961L42.856,43.907L42.905,43.854L42.956,43.802L42.965,43.793L43.01,43.751L43.066,43.701L43.124,43.651L43.184,43.602L43.246,43.554L43.297,43.517L43.31,43.508L43.378,43.464L43.448,43.421L43.519,43.38L43.593,43.34L43.652,43.309L43.669,43.302L43.748,43.268L43.822,43.239L43.896,43.212L43.969,43.187L44.043,43.165L44.064,43.158L44.116,43.146L44.189,43.13L44.261,43.115L44.333,43.103L44.404,43.092L44.475,43.083L44.544,43.076L44.558,43.075L44.613,43.071L44.681,43.069L44.748,43.068L44.815,43.068Z" style="fill:#fff;fill-opacity:0.33;"/>
    </g>
    <g>
        <ellipse cx="52.301" cy="55.783" rx="3.594" ry="0.958" style="fill:#e6e6f0;"/>
        <circle cx="51.726" cy="52.865" r="3.36" style="fill:#676fc1;"/>
        <clipPath id="_clip9">
            <circle cx="51.726" cy="52.865" r="3.36"/>
        </clipPath>
        <g clip-path="url(#_clip9)">
            <circle cx="50.652" cy="51.136" r="3.36" style="fill:#8d93d8;"/>
        </g>
        <path d="M51.301,52.253C51.371,52.174 51.484,52.151 51.578,52.196C51.673,52.242 51.726,52.344 51.709,52.447C51.709,52.448 51.709,52.449 51.708,52.449C51.664,52.715 51.801,52.978 52.044,53.094C52.1,53.121 52.158,53.149 52.215,53.176C52.282,53.208 52.322,53.28 52.315,53.354C52.307,53.428 52.254,53.49 52.181,53.508C52.162,53.512 52.143,53.517 52.124,53.522C51.747,53.615 51.461,53.924 51.396,54.307C51.393,54.327 51.39,54.346 51.386,54.366C51.373,54.444 51.312,54.503 51.234,54.514C51.156,54.524 51.081,54.483 51.048,54.412C51.047,54.412 51.047,54.411 51.047,54.41C50.896,54.086 50.536,53.915 50.189,54C50.189,54.001 50.188,54.001 50.187,54.001C50.111,54.02 50.032,53.987 49.991,53.92C49.951,53.853 49.958,53.767 50.01,53.708C50.024,53.694 50.037,53.679 50.05,53.664C50.308,53.373 50.369,52.957 50.204,52.604C50.196,52.587 50.188,52.569 50.179,52.551C50.148,52.483 50.162,52.403 50.215,52.35C50.268,52.298 50.349,52.284 50.416,52.316C50.473,52.344 50.531,52.371 50.587,52.398C50.831,52.514 51.121,52.456 51.3,52.254C51.3,52.254 51.301,52.253 51.301,52.253Z" style="fill:#464e9c;"/>
        <path d="M51.657,49.9L51.723,49.901L51.787,49.904L51.85,49.908L51.913,49.913L51.919,49.914L51.974,49.921L52.034,49.929L52.093,49.938L52.151,49.948L52.208,49.959L52.264,49.971L52.318,49.983L52.372,49.996L52.406,50.005L52.425,50.01L52.525,50.041L52.62,50.073L52.711,50.106L52.797,50.141L52.877,50.175L52.953,50.21L53.023,50.244L53.087,50.278L53.137,50.305L53.146,50.31L53.2,50.341L53.247,50.37L53.29,50.397L53.355,50.441L53.396,50.471L53.411,50.482L53.48,50.708L53.253,50.773L53.239,50.769L53.2,50.757L53.134,50.739L53.093,50.729L53.045,50.718L52.993,50.707L52.983,50.706L52.935,50.696L52.873,50.685L52.807,50.674L52.736,50.665L52.661,50.657L52.583,50.65L52.502,50.646L52.418,50.643L52.33,50.643L52.315,50.644L52.287,50.644L52.242,50.645L52.197,50.647L52.152,50.649L52.106,50.653L52.059,50.657L52.012,50.662L51.965,50.668L51.922,50.674L51.918,50.675L51.87,50.682L51.822,50.69L51.773,50.699L51.725,50.709L51.676,50.72L51.628,50.732L51.579,50.745L51.539,50.757L51.529,50.759L51.48,50.773L51.43,50.788L51.381,50.804L51.331,50.822L51.281,50.841L51.231,50.861L51.196,50.877L51.181,50.882L51.13,50.902L51.079,50.924L51.027,50.947L50.976,50.972L50.92,51L50.908,51.007L50.865,51.026L50.81,51.052L50.758,51.079L50.706,51.107L50.656,51.135L50.646,51.142L50.607,51.163L50.558,51.191L50.511,51.219L50.464,51.249L50.419,51.279L50.383,51.305L50.375,51.31L50.331,51.34L50.288,51.371L50.247,51.402L50.206,51.434L50.166,51.467L50.128,51.5L50.127,51.501L50.089,51.533L50.052,51.567L50.015,51.6L49.98,51.635L49.945,51.669L49.912,51.704L49.89,51.727L49.879,51.739L49.846,51.774L49.815,51.808L49.784,51.843L49.754,51.878L49.726,51.914L49.698,51.949L49.672,51.983L49.621,52.053L49.574,52.121L49.531,52.188L49.506,52.23L49.492,52.252L49.455,52.314L49.422,52.373L49.392,52.428L49.366,52.479L49.344,52.526L49.324,52.568L49.309,52.604L49.296,52.634L49.28,52.674L49.279,52.676L49.274,52.69L49.084,52.827L48.947,52.637L48.947,52.617L48.947,52.614L48.949,52.563L48.952,52.523L48.955,52.477L48.96,52.424L48.967,52.364L48.976,52.299L48.987,52.227L49.001,52.15L49.018,52.068L49.025,52.038L49.04,51.982L49.065,51.892L49.094,51.797L49.128,51.701L49.147,51.649L49.166,51.599L49.188,51.547L49.21,51.495L49.234,51.442L49.259,51.389L49.285,51.335L49.295,51.316L49.314,51.281L49.344,51.227L49.377,51.173L49.41,51.118L49.446,51.064L49.483,51.009L49.521,50.955L49.522,50.954L49.563,50.9L49.607,50.847L49.652,50.793L49.699,50.74L49.748,50.687L49.799,50.634L49.807,50.626L49.853,50.583L49.909,50.533L49.967,50.483L50.027,50.435L50.089,50.387L50.139,50.349L50.153,50.34L50.221,50.296L50.29,50.254L50.362,50.212L50.435,50.172L50.494,50.141L50.511,50.134L50.59,50.101L50.665,50.071L50.738,50.044L50.812,50.02L50.885,49.997L50.907,49.99L50.958,49.978L51.032,49.962L51.104,49.947L51.176,49.935L51.247,49.924L51.317,49.915L51.387,49.908L51.401,49.907L51.456,49.903L51.524,49.901L51.591,49.9L51.657,49.9Z" style="fill:#fff;fill-opacity:0.33;"/>
    </g>
    <g>
        <ellipse cx="34.217" cy="49.12" rx="3.594" ry="0.958" style="fill:#e6e6f0;"/>
        <circle cx="33.643" cy="46.202" r="3.36" style="fill:#676fc1;"/>
        <clipPath id="_clip10">
            <circle cx="33.643" cy="46.202" r="3.36"/>
        </clipPath>
        <g clip-path="url(#_clip10)">
            <circle cx="32.569" cy="44.473" r="3.36" style="fill:#8d93d8;"/>
        </g>
        <path d="M34.423,43.941C34.524,43.913 34.631,43.955 34.686,44.044C34.741,44.134 34.73,44.249 34.66,44.326C34.659,44.326 34.659,44.327 34.658,44.327C34.477,44.526 34.449,44.822 34.59,45.051C34.623,45.104 34.656,45.159 34.69,45.213C34.729,45.277 34.724,45.358 34.677,45.416C34.63,45.475 34.552,45.497 34.481,45.473C34.463,45.467 34.444,45.46 34.425,45.454C34.058,45.328 33.65,45.432 33.388,45.719C33.375,45.733 33.361,45.748 33.348,45.763C33.295,45.821 33.211,45.838 33.14,45.804C33.069,45.771 33.028,45.696 33.038,45.618C33.038,45.617 33.039,45.617 33.039,45.616C33.087,45.262 32.879,44.923 32.541,44.806C32.54,44.806 32.539,44.806 32.539,44.806C32.465,44.78 32.416,44.709 32.418,44.631C32.42,44.553 32.473,44.485 32.549,44.464C32.568,44.459 32.587,44.453 32.607,44.448C32.981,44.343 33.258,44.027 33.311,43.642C33.313,43.622 33.316,43.603 33.319,43.583C33.329,43.509 33.384,43.449 33.458,43.434C33.531,43.419 33.606,43.451 33.645,43.515C33.678,43.568 33.712,43.623 33.744,43.676C33.885,43.906 34.162,44.014 34.421,43.942C34.422,43.942 34.422,43.941 34.423,43.941Z" style="fill:#464e9c;"/>
        <path d="M33.574,43.237L33.639,43.239L33.703,43.242L33.767,43.246L33.829,43.251L33.835,43.251L33.89,43.258L33.951,43.266L34.01,43.275L34.068,43.285L34.125,43.296L34.18,43.308L34.235,43.32L34.288,43.333L34.323,43.342L34.342,43.348L34.441,43.378L34.537,43.41L34.627,43.444L34.713,43.478L34.794,43.513L34.869,43.547L34.939,43.582L35.004,43.615L35.053,43.642L35.063,43.647L35.116,43.678L35.164,43.708L35.206,43.735L35.271,43.779L35.313,43.808L35.327,43.819L35.396,44.045L35.169,44.11L35.156,44.106L35.116,44.094L35.05,44.076L35.009,44.066L34.962,44.056L34.909,44.045L34.9,44.043L34.852,44.033L34.79,44.022L34.723,44.011L34.652,44.002L34.578,43.994L34.5,43.987L34.419,43.983L34.334,43.981L34.247,43.981L34.231,43.981L34.204,43.981L34.159,43.982L34.114,43.984L34.068,43.987L34.022,43.99L33.976,43.994L33.929,43.999L33.882,44.006L33.839,44.012L33.834,44.012L33.786,44.019L33.738,44.027L33.69,44.036L33.641,44.046L33.593,44.057L33.544,44.069L33.495,44.082L33.456,44.094L33.446,44.096L33.397,44.11L33.347,44.125L33.297,44.142L33.247,44.159L33.198,44.178L33.148,44.199L33.113,44.214L33.097,44.219L33.046,44.24L32.995,44.261L32.944,44.285L32.892,44.309L32.836,44.338L32.825,44.344L32.781,44.364L32.727,44.39L32.674,44.416L32.623,44.444L32.573,44.473L32.563,44.479L32.523,44.5L32.475,44.528L32.427,44.557L32.381,44.586L32.336,44.616L32.299,44.642L32.292,44.647L32.248,44.677L32.205,44.708L32.163,44.74L32.122,44.772L32.083,44.804L32.044,44.838L32.044,44.838L32.006,44.871L31.968,44.904L31.932,44.938L31.896,44.972L31.862,45.007L31.828,45.041L31.807,45.065L31.795,45.076L31.763,45.111L31.731,45.146L31.701,45.181L31.671,45.216L31.642,45.251L31.615,45.286L31.588,45.32L31.537,45.39L31.491,45.459L31.448,45.525L31.423,45.567L31.408,45.59L31.371,45.651L31.338,45.71L31.309,45.765L31.283,45.816L31.26,45.863L31.241,45.905L31.225,45.942L31.212,45.971L31.197,46.011L31.196,46.014L31.191,46.028L31,46.164L30.863,45.974L30.864,45.954L30.864,45.951L30.866,45.9L30.868,45.861L30.872,45.814L30.877,45.761L30.884,45.702L30.893,45.636L30.904,45.564L30.918,45.488L30.935,45.406L30.942,45.375L30.956,45.319L30.981,45.229L31.011,45.135L31.044,45.038L31.063,44.987L31.083,44.936L31.104,44.884L31.126,44.832L31.15,44.779L31.175,44.726L31.202,44.672L31.211,44.654L31.23,44.618L31.261,44.564L31.293,44.51L31.327,44.456L31.362,44.401L31.399,44.346L31.437,44.293L31.438,44.292L31.48,44.238L31.523,44.184L31.568,44.13L31.615,44.077L31.664,44.024L31.715,43.971L31.724,43.963L31.769,43.92L31.825,43.87L31.883,43.821L31.943,43.772L32.005,43.724L32.056,43.687L32.069,43.677L32.137,43.633L32.207,43.591L32.278,43.549L32.352,43.509L32.411,43.479L32.428,43.471L32.507,43.438L32.581,43.409L32.655,43.382L32.728,43.357L32.802,43.334L32.823,43.328L32.875,43.315L32.948,43.299L33.02,43.285L33.092,43.272L33.163,43.262L33.234,43.253L33.303,43.245L33.317,43.244L33.372,43.241L33.44,43.238L33.507,43.237L33.574,43.237Z" style="fill:#fff;fill-opacity:0.33;"/>
    </g>
    <g>
        <ellipse cx="38.58" cy="49.894" rx="3.263" ry="0.818" style="fill:#e6e6f0;"/>
        <ellipse cx="38.058" cy="47.4" rx="3.051" ry="2.871" style="fill:#676fc1;"/>
        <clipPath id="_clip11">
            <ellipse cx="38.058" cy="47.4" rx="3.051" ry="2.871"/>
        </clipPath>
        <g clip-path="url(#_clip11)">
            <ellipse cx="37.083" cy="45.923" rx="3.051" ry="2.871" style="fill:#8d93d8;"/>
            <path d="M36.14,46.415C36.223,46.393 36.311,46.429 36.354,46.504C36.398,46.578 36.386,46.672 36.326,46.734C36.32,46.74 36.315,46.746 36.309,46.752C36.143,46.924 36.117,47.187 36.248,47.386C36.28,47.436 36.314,47.488 36.347,47.537C36.38,47.588 36.377,47.654 36.341,47.701C36.304,47.749 36.241,47.769 36.184,47.75C36.166,47.744 36.147,47.738 36.128,47.732C35.769,47.616 35.376,47.714 35.113,47.985C35.113,47.985 35.113,47.985 35.112,47.986C35.063,48.036 34.987,48.05 34.923,48.018C34.86,47.987 34.824,47.919 34.834,47.849C34.838,47.822 34.842,47.795 34.846,47.768C34.882,47.52 34.734,47.282 34.495,47.204C34.489,47.202 34.482,47.2 34.476,47.198C34.399,47.173 34.348,47.101 34.35,47.02C34.352,46.939 34.408,46.869 34.486,46.849C34.486,46.849 34.487,46.849 34.488,46.848C34.798,46.767 35.03,46.507 35.077,46.19C35.079,46.173 35.082,46.157 35.084,46.14C35.094,46.071 35.146,46.016 35.213,46.001C35.281,45.986 35.351,46.015 35.389,46.073C35.405,46.097 35.421,46.122 35.437,46.146C35.588,46.377 35.87,46.486 36.136,46.416C36.138,46.415 36.139,46.415 36.14,46.415Z" style="fill:#464e9c;"/>
        </g>
        <path d="M37.998,44.853L38.057,44.855L38.115,44.858L38.172,44.861L38.228,44.866L38.257,44.869L38.283,44.872L38.337,44.879L38.39,44.887L38.443,44.896L38.495,44.906L38.593,44.927L38.686,44.95L38.688,44.95L38.779,44.977L38.866,45.005L38.948,45.034L39.025,45.064L39.098,45.094L39.167,45.124L39.23,45.154L39.289,45.182L39.337,45.207L39.342,45.21L39.391,45.237L39.434,45.263L39.473,45.286L39.532,45.324L39.57,45.349L39.583,45.359L39.648,45.556L39.45,45.619L39.438,45.615L39.402,45.605L39.342,45.59L39.304,45.582L39.261,45.573L39.214,45.564L39.208,45.563L39.161,45.555L39.105,45.545L39.044,45.537L38.98,45.529L38.912,45.523L38.841,45.517L38.767,45.514L38.69,45.513L38.611,45.513L38.609,45.513L38.53,45.515L38.445,45.519L38.404,45.522L38.362,45.526L38.319,45.531L38.275,45.536L38.255,45.539L38.232,45.542L38.188,45.548L38.144,45.555L38.099,45.563L38.055,45.572L38.01,45.582L37.965,45.592L37.92,45.604L37.908,45.607L37.875,45.616L37.829,45.628L37.783,45.641L37.737,45.656L37.691,45.671L37.645,45.688L37.599,45.705L37.595,45.707L37.553,45.722L37.506,45.74L37.458,45.758L37.411,45.778L37.364,45.8L37.332,45.815L37.312,45.823L37.261,45.845L37.211,45.867L37.163,45.89L37.116,45.914L37.092,45.927L37.07,45.938L37.024,45.961L36.979,45.985L36.936,46.009L36.894,46.034L36.853,46.06L36.849,46.063L36.812,46.085L36.773,46.111L36.734,46.137L36.696,46.164L36.659,46.191L36.624,46.219L36.614,46.227L36.588,46.247L36.553,46.275L36.52,46.303L36.487,46.332L36.455,46.361L36.424,46.39L36.395,46.418L36.394,46.42L36.364,46.449L36.335,46.478L36.307,46.507L36.279,46.537L36.253,46.567L36.228,46.595L36.179,46.656L36.134,46.714L36.092,46.772L36.054,46.829L36.04,46.851L36.019,46.883L35.986,46.935L35.957,46.985L35.931,47.032L35.908,47.075L35.888,47.115L35.871,47.149L35.846,47.207L35.833,47.239L35.832,47.242L35.827,47.254L35.658,47.372L35.539,47.203L35.54,47.187L35.54,47.183L35.542,47.139L35.548,47.067L35.554,47.02L35.56,46.969L35.569,46.912L35.58,46.851L35.594,46.785L35.61,46.714L35.621,46.67L35.63,46.64L35.654,46.562L35.681,46.481L35.713,46.397L35.748,46.311L35.768,46.266L35.789,46.221L35.811,46.175L35.834,46.129L35.859,46.083L35.885,46.036L35.886,46.034L35.913,45.99L35.942,45.943L35.973,45.897L36.006,45.85L36.04,45.803L36.075,45.756L36.102,45.722L36.113,45.709L36.152,45.663L36.193,45.617L36.236,45.571L36.281,45.526L36.327,45.481L36.37,45.441L36.375,45.436L36.426,45.393L36.479,45.351L36.533,45.309L36.589,45.269L36.647,45.228L36.675,45.21L36.708,45.19L36.77,45.154L36.835,45.119L36.901,45.084L36.969,45.051L36.996,45.039L37.04,45.022L37.107,44.997L37.173,44.975L37.239,44.954L37.305,44.934L37.364,44.918L37.37,44.917L37.436,44.904L37.501,44.892L37.566,44.882L37.629,44.873L37.693,44.865L37.755,44.859L37.801,44.856L37.817,44.855L37.878,44.853L37.938,44.853L37.998,44.853Z" style="fill:#fff;fill-opacity:0.33;"/>
    </g>
    <g>
        <ellipse cx="42.58" cy="52.829" rx="3.594" ry="0.958" style="fill:#e6e6f0;"/>
        <circle cx="42.006" cy="49.911" r="3.36" style="fill:#676fc1;"/>
        <clipPath id="_clip12">
            <circle cx="42.006" cy="49.911" r="3.36"/>
        </clipPath>
        <g clip-path="url(#_clip12)">
            <circle cx="40.932" cy="48.182" r="3.36" style="fill:#8d93d8;"/>
        </g>
        <path d="M42.665,49.384C42.767,49.36 42.872,49.406 42.924,49.497C42.976,49.588 42.961,49.703 42.887,49.778C42.887,49.778 42.886,49.779 42.886,49.779C42.697,49.971 42.658,50.265 42.791,50.5C42.821,50.554 42.853,50.61 42.884,50.665C42.921,50.73 42.913,50.811 42.864,50.868C42.815,50.924 42.736,50.944 42.666,50.917C42.648,50.91 42.63,50.903 42.611,50.896C42.249,50.756 41.838,50.845 41.565,51.122C41.551,51.136 41.537,51.151 41.523,51.165C41.468,51.221 41.383,51.235 41.313,51.199C41.244,51.163 41.205,51.086 41.219,51.009C41.219,51.008 41.219,51.007 41.219,51.006C41.281,50.654 41.085,50.308 40.752,50.179C40.751,50.179 40.75,50.179 40.75,50.178C40.677,50.15 40.63,50.078 40.636,49.999C40.641,49.921 40.696,49.856 40.773,49.837C40.792,49.833 40.811,49.828 40.831,49.823C41.209,49.733 41.497,49.427 41.564,49.044C41.568,49.024 41.571,49.005 41.575,48.986C41.587,48.912 41.645,48.854 41.719,48.842C41.793,48.829 41.866,48.864 41.903,48.929C41.934,48.984 41.966,49.04 41.996,49.095C42.129,49.329 42.401,49.447 42.663,49.385C42.664,49.385 42.664,49.384 42.665,49.384Z" style="fill:#464e9c;"/>
        <path d="M41.936,46.947L42.002,46.948L42.066,46.951L42.129,46.955L42.192,46.96L42.198,46.961L42.253,46.967L42.313,46.975L42.372,46.985L42.43,46.995L42.487,47.006L42.543,47.017L42.598,47.03L42.651,47.043L42.686,47.052L42.704,47.057L42.804,47.087L42.9,47.12L42.99,47.153L43.076,47.187L43.156,47.222L43.232,47.257L43.302,47.291L43.367,47.324L43.416,47.351L43.426,47.356L43.479,47.388L43.527,47.417L43.569,47.444L43.634,47.488L43.676,47.518L43.69,47.528L43.759,47.755L43.532,47.82L43.519,47.815L43.479,47.804L43.413,47.786L43.372,47.776L43.324,47.765L43.272,47.754L43.263,47.752L43.214,47.742L43.152,47.731L43.086,47.721L43.015,47.711L42.941,47.703L42.863,47.697L42.781,47.692L42.697,47.69L42.609,47.69L42.594,47.69L42.566,47.691L42.522,47.692L42.477,47.694L42.431,47.696L42.385,47.699L42.338,47.704L42.291,47.709L42.244,47.715L42.201,47.721L42.197,47.722L42.149,47.729L42.101,47.736L42.053,47.745L42.004,47.755L41.956,47.766L41.907,47.778L41.858,47.792L41.819,47.803L41.809,47.806L41.759,47.82L41.71,47.835L41.66,47.851L41.61,47.869L41.56,47.888L41.51,47.908L41.475,47.923L41.46,47.929L41.409,47.949L41.358,47.971L41.306,47.994L41.255,48.019L41.199,48.047L41.187,48.053L41.144,48.073L41.09,48.099L41.037,48.126L40.986,48.153L40.936,48.182L40.926,48.188L40.886,48.21L40.837,48.237L40.79,48.266L40.744,48.296L40.699,48.326L40.662,48.352L40.655,48.356L40.611,48.387L40.568,48.417L40.526,48.449L40.485,48.481L40.446,48.514L40.407,48.547L40.406,48.548L40.369,48.58L40.331,48.613L40.294,48.647L40.259,48.681L40.224,48.716L40.191,48.751L40.17,48.774L40.158,48.786L40.126,48.82L40.094,48.855L40.063,48.89L40.034,48.925L40.005,48.96L39.977,48.995L39.951,49.029L39.9,49.1L39.854,49.168L39.811,49.235L39.785,49.276L39.771,49.299L39.734,49.361L39.701,49.419L39.672,49.475L39.645,49.526L39.623,49.573L39.604,49.614L39.588,49.651L39.575,49.681L39.56,49.72L39.559,49.723L39.553,49.737L39.363,49.874L39.226,49.683L39.226,49.664L39.227,49.661L39.228,49.61L39.231,49.57L39.235,49.524L39.24,49.471L39.246,49.411L39.255,49.345L39.267,49.274L39.281,49.197L39.298,49.115L39.305,49.084L39.319,49.029L39.344,48.938L39.374,48.844L39.407,48.747L39.426,48.696L39.446,48.645L39.467,48.594L39.489,48.541L39.513,48.489L39.538,48.435L39.564,48.381L39.574,48.363L39.593,48.328L39.624,48.274L39.656,48.219L39.69,48.165L39.725,48.11L39.762,48.056L39.8,48.002L39.801,48.001L39.842,47.947L39.886,47.893L39.931,47.84L39.978,47.786L40.027,47.733L40.078,47.68L40.086,47.672L40.132,47.63L40.188,47.579L40.246,47.53L40.306,47.481L40.368,47.433L40.419,47.396L40.432,47.386L40.5,47.343L40.569,47.3L40.641,47.259L40.714,47.218L40.773,47.188L40.79,47.18L40.87,47.147L40.944,47.118L41.018,47.091L41.091,47.066L41.164,47.043L41.186,47.037L41.238,47.024L41.311,47.008L41.383,46.994L41.455,46.982L41.526,46.971L41.596,46.962L41.666,46.955L41.68,46.953L41.735,46.95L41.803,46.947L41.87,46.946L41.936,46.947Z" style="fill:#fff;fill-opacity:0.33;"/>
    </g>
    <g>
        <ellipse cx="37.384" cy="55.173" rx="3.594" ry="0.958" style="fill:#e6e6f0;"/>
        <circle cx="36.81" cy="52.255" r="3.36" style="fill:#676fc1;"/>
        <clipPath id="_clip13">
            <circle cx="36.81" cy="52.255" r="3.36"/>
        </clipPath>
        <g clip-path="url(#_clip13)">
            <circle cx="35.736" cy="50.526" r="3.36" style="fill:#8d93d8;"/>
        </g>
        <path d="M37.59,49.994C37.691,49.966 37.798,50.008 37.853,50.097C37.908,50.187 37.897,50.302 37.827,50.379C37.826,50.379 37.826,50.38 37.825,50.38C37.644,50.579 37.616,50.875 37.757,51.104C37.79,51.157 37.823,51.212 37.856,51.266C37.896,51.33 37.891,51.411 37.844,51.469C37.797,51.528 37.719,51.55 37.648,51.526C37.63,51.52 37.611,51.513 37.592,51.507C37.225,51.381 36.817,51.485 36.555,51.772C36.542,51.786 36.528,51.801 36.515,51.816C36.462,51.874 36.378,51.891 36.307,51.857C36.236,51.824 36.195,51.748 36.205,51.671C36.205,51.67 36.205,51.669 36.206,51.669C36.254,51.315 36.046,50.975 35.708,50.859C35.707,50.859 35.706,50.859 35.706,50.859C35.631,50.833 35.583,50.762 35.585,50.684C35.587,50.606 35.64,50.538 35.716,50.517C35.735,50.512 35.754,50.506 35.774,50.501C36.148,50.396 36.424,50.08 36.478,49.695C36.48,49.675 36.483,49.655 36.486,49.636C36.496,49.562 36.551,49.502 36.624,49.487C36.698,49.472 36.773,49.504 36.812,49.567C36.845,49.621 36.879,49.676 36.911,49.729C37.052,49.959 37.328,50.067 37.588,49.995C37.589,49.994 37.589,49.994 37.59,49.994Z" style="fill:#464e9c;"/>
        <path d="M36.741,49.29L36.806,49.292L36.87,49.294L36.934,49.298L36.996,49.304L37.002,49.304L37.057,49.311L37.117,49.319L37.177,49.328L37.235,49.338L37.291,49.349L37.347,49.361L37.402,49.373L37.455,49.386L37.49,49.395L37.509,49.4L37.608,49.431L37.704,49.463L37.794,49.497L37.88,49.531L37.961,49.566L38.036,49.6L38.106,49.634L38.171,49.668L38.22,49.695L38.23,49.7L38.283,49.731L38.331,49.761L38.373,49.788L38.438,49.832L38.48,49.861L38.494,49.872L38.563,50.098L38.336,50.163L38.323,50.159L38.283,50.147L38.217,50.129L38.176,50.119L38.129,50.108L38.076,50.098L38.067,50.096L38.019,50.086L37.956,50.075L37.89,50.064L37.819,50.055L37.745,50.047L37.667,50.04L37.586,50.036L37.501,50.033L37.413,50.034L37.398,50.034L37.37,50.034L37.326,50.035L37.281,50.037L37.235,50.04L37.189,50.043L37.142,50.047L37.096,50.052L37.048,50.058L37.006,50.065L37.001,50.065L36.953,50.072L36.905,50.08L36.857,50.089L36.808,50.099L36.76,50.11L36.711,50.122L36.662,50.135L36.623,50.147L36.613,50.149L36.563,50.163L36.514,50.178L36.464,50.195L36.414,50.212L36.365,50.231L36.315,50.252L36.28,50.267L36.264,50.272L36.213,50.293L36.162,50.314L36.111,50.337L36.059,50.362L36.003,50.39L35.992,50.397L35.948,50.416L35.894,50.442L35.841,50.469L35.79,50.497L35.74,50.526L35.73,50.532L35.69,50.553L35.641,50.581L35.594,50.61L35.548,50.639L35.503,50.669L35.466,50.695L35.459,50.7L35.415,50.73L35.372,50.761L35.33,50.792L35.289,50.825L35.25,50.857L35.211,50.891L35.21,50.891L35.173,50.923L35.135,50.957L35.099,50.991L35.063,51.025L35.029,51.059L34.995,51.094L34.974,51.118L34.962,51.129L34.93,51.164L34.898,51.199L34.867,51.234L34.838,51.269L34.809,51.304L34.782,51.339L34.755,51.373L34.704,51.443L34.658,51.511L34.615,51.578L34.59,51.62L34.575,51.643L34.538,51.704L34.505,51.763L34.476,51.818L34.45,51.869L34.427,51.916L34.408,51.958L34.392,51.994L34.379,52.024L34.364,52.064L34.363,52.067L34.357,52.081L34.167,52.217L34.03,52.027L34.031,52.007L34.031,52.004L34.033,51.953L34.035,51.914L34.039,51.867L34.044,51.814L34.051,51.755L34.06,51.689L34.071,51.617L34.085,51.54L34.102,51.458L34.109,51.428L34.123,51.372L34.148,51.282L34.178,51.188L34.211,51.091L34.23,51.04L34.25,50.989L34.271,50.937L34.293,50.885L34.317,50.832L34.342,50.779L34.369,50.725L34.378,50.707L34.397,50.671L34.428,50.617L34.46,50.563L34.494,50.509L34.529,50.454L34.566,50.399L34.604,50.346L34.605,50.344L34.647,50.291L34.69,50.237L34.735,50.183L34.782,50.13L34.831,50.077L34.882,50.024L34.89,50.016L34.936,49.973L34.992,49.923L35.05,49.873L35.11,49.825L35.172,49.777L35.223,49.739L35.236,49.73L35.304,49.686L35.373,49.644L35.445,49.602L35.519,49.562L35.578,49.532L35.595,49.524L35.674,49.491L35.748,49.462L35.822,49.435L35.895,49.41L35.969,49.387L35.99,49.381L36.042,49.368L36.115,49.352L36.187,49.338L36.259,49.325L36.33,49.314L36.4,49.305L36.47,49.298L36.484,49.297L36.539,49.294L36.607,49.291L36.674,49.29L36.741,49.29Z" style="fill:#fff;fill-opacity:0.33;"/>
    </g>
    <g>
        <ellipse cx="45.842" cy="55.197" rx="3.594" ry="0.958" style="fill:#e6e6f0;"/>
        <circle cx="45.268" cy="52.279" r="3.36" style="fill:#676fc1;"/>
        <clipPath id="_clip14">
            <circle cx="45.268" cy="52.279" r="3.36"/>
        </clipPath>
        <g clip-path="url(#_clip14)">
            <circle cx="44.194" cy="50.55" r="3.36" style="fill:#8d93d8;"/>
        </g>
        <path d="M46.048,50.018C46.149,49.99 46.256,50.032 46.311,50.122C46.366,50.211 46.355,50.326 46.285,50.403C46.284,50.404 46.284,50.404 46.283,50.405C46.102,50.604 46.074,50.899 46.215,51.128C46.248,51.181 46.282,51.236 46.315,51.29C46.354,51.354 46.349,51.435 46.302,51.494C46.255,51.552 46.177,51.575 46.106,51.55C46.088,51.544 46.069,51.537 46.05,51.531C45.683,51.405 45.276,51.509 45.014,51.796C45,51.811 44.987,51.825 44.973,51.84C44.92,51.898 44.836,51.915 44.765,51.882C44.694,51.848 44.653,51.773 44.664,51.695C44.664,51.694 44.664,51.694 44.664,51.693C44.713,51.339 44.504,51 44.166,50.884C44.165,50.883 44.165,50.883 44.164,50.883C44.09,50.857 44.041,50.787 44.043,50.708C44.045,50.63 44.098,50.562 44.174,50.541C44.193,50.536 44.213,50.53 44.232,50.525C44.606,50.421 44.883,50.104 44.936,49.719C44.938,49.699 44.941,49.68 44.944,49.66C44.954,49.586 45.01,49.527 45.083,49.511C45.156,49.496 45.231,49.528 45.27,49.592C45.303,49.646 45.337,49.7 45.369,49.754C45.511,49.983 45.787,50.091 46.046,50.019C46.047,50.019 46.047,50.019 46.048,50.018Z" style="fill:#464e9c;"/>
        <path d="M45.199,49.314L45.264,49.316L45.329,49.319L45.392,49.323L45.454,49.328L45.46,49.328L45.516,49.335L45.576,49.343L45.635,49.352L45.693,49.363L45.75,49.373L45.805,49.385L45.86,49.398L45.913,49.411L45.948,49.42L45.967,49.425L46.066,49.455L46.162,49.487L46.253,49.521L46.338,49.555L46.419,49.59L46.494,49.624L46.564,49.659L46.629,49.692L46.679,49.719L46.688,49.724L46.741,49.756L46.789,49.785L46.831,49.812L46.897,49.856L46.938,49.885L46.953,49.896L47.021,50.122L46.794,50.187L46.781,50.183L46.741,50.171L46.675,50.153L46.634,50.143L46.587,50.133L46.534,50.122L46.525,50.12L46.477,50.11L46.415,50.099L46.348,50.089L46.278,50.079L46.203,50.071L46.125,50.065L46.044,50.06L45.96,50.058L45.872,50.058L45.857,50.058L45.829,50.059L45.784,50.06L45.739,50.061L45.693,50.064L45.647,50.067L45.601,50.072L45.554,50.077L45.507,50.083L45.464,50.089L45.459,50.09L45.411,50.096L45.363,50.104L45.315,50.113L45.267,50.123L45.218,50.134L45.169,50.146L45.12,50.159L45.081,50.171L45.071,50.174L45.022,50.187L44.972,50.203L44.922,50.219L44.873,50.237L44.823,50.256L44.773,50.276L44.738,50.291L44.723,50.297L44.671,50.317L44.62,50.339L44.569,50.362L44.517,50.386L44.462,50.415L44.45,50.421L44.406,50.441L44.352,50.467L44.299,50.494L44.248,50.521L44.198,50.55L44.188,50.556L44.148,50.577L44.1,50.605L44.052,50.634L44.006,50.663L43.961,50.694L43.924,50.72L43.917,50.724L43.873,50.754L43.83,50.785L43.788,50.817L43.748,50.849L43.708,50.882L43.669,50.915L43.669,50.916L43.631,50.948L43.593,50.981L43.557,51.015L43.521,51.049L43.487,51.084L43.453,51.119L43.432,51.142L43.421,51.153L43.388,51.188L43.356,51.223L43.326,51.258L43.296,51.293L43.267,51.328L43.24,51.363L43.214,51.397L43.163,51.467L43.116,51.536L43.073,51.603L43.048,51.644L43.034,51.667L42.997,51.729L42.963,51.787L42.934,51.842L42.908,51.894L42.885,51.94L42.866,51.982L42.85,52.019L42.838,52.049L42.822,52.088L42.821,52.091L42.816,52.105L42.625,52.242L42.489,52.051L42.489,52.032L42.489,52.028L42.491,51.978L42.493,51.938L42.497,51.892L42.502,51.838L42.509,51.779L42.518,51.713L42.529,51.642L42.543,51.565L42.56,51.483L42.567,51.452L42.581,51.396L42.607,51.306L42.636,51.212L42.669,51.115L42.688,51.064L42.708,51.013L42.729,50.962L42.752,50.909L42.775,50.856L42.8,50.803L42.827,50.749L42.836,50.731L42.856,50.695L42.886,50.642L42.918,50.587L42.952,50.533L42.987,50.478L43.024,50.423L43.062,50.37L43.063,50.369L43.105,50.315L43.148,50.261L43.193,50.207L43.24,50.154L43.289,50.101L43.34,50.048L43.349,50.04L43.394,49.997L43.45,49.947L43.508,49.898L43.568,49.849L43.63,49.801L43.681,49.764L43.695,49.754L43.762,49.711L43.832,49.668L43.903,49.627L43.977,49.586L44.036,49.556L44.053,49.548L44.132,49.515L44.206,49.486L44.28,49.459L44.354,49.434L44.427,49.411L44.449,49.405L44.5,49.392L44.573,49.376L44.646,49.362L44.717,49.349L44.788,49.339L44.859,49.33L44.928,49.322L44.942,49.321L44.997,49.318L45.065,49.315L45.133,49.314L45.199,49.314Z" style="fill:#fff;fill-opacity:0.33;"/>
    </g>
    <g>
        <ellipse cx="41.588" cy="57.365" rx="3.594" ry="0.958" style="fill:#e6e6f0;"/>
        <circle cx="41.014" cy="54.448" r="3.36" style="fill:#676fc1;"/>
        <clipPath id="_clip15">
            <circle cx="41.014" cy="54.448" r="3.36"/>
        </clipPath>
        <g clip-path="url(#_clip15)">
            <circle cx="39.94" cy="52.719" r="3.36" style="fill:#8d93d8;"/>
        </g>
        <path d="M40.313,52.248C40.383,52.169 40.496,52.146 40.59,52.191C40.685,52.237 40.738,52.339 40.721,52.442C40.721,52.443 40.721,52.444 40.72,52.444C40.676,52.71 40.813,52.973 41.056,53.089C41.112,53.116 41.17,53.144 41.227,53.171C41.295,53.203 41.334,53.275 41.327,53.349C41.319,53.423 41.266,53.485 41.193,53.503C41.174,53.507 41.155,53.512 41.136,53.517C40.759,53.61 40.473,53.919 40.408,54.302C40.405,54.322 40.402,54.341 40.399,54.361C40.386,54.438 40.324,54.498 40.246,54.509C40.168,54.519 40.093,54.478 40.06,54.407C40.059,54.407 40.059,54.406 40.059,54.405C39.908,54.081 39.548,53.91 39.201,53.995C39.201,53.996 39.2,53.996 39.199,53.996C39.123,54.015 39.044,53.982 39.003,53.915C38.963,53.848 38.97,53.762 39.022,53.703C39.036,53.689 39.049,53.674 39.062,53.659C39.32,53.368 39.381,52.952 39.216,52.599C39.208,52.582 39.2,52.564 39.191,52.546C39.16,52.478 39.174,52.398 39.227,52.345C39.28,52.293 39.361,52.279 39.428,52.311C39.485,52.339 39.543,52.366 39.6,52.393C39.843,52.509 40.133,52.451 40.312,52.249C40.312,52.249 40.313,52.248 40.313,52.248Z" style="fill:#464e9c;"/>
        <path d="M40.945,51.483L41.01,51.484L41.074,51.487L41.138,51.491L41.2,51.496L41.206,51.497L41.261,51.503L41.322,51.512L41.381,51.521L41.439,51.531L41.496,51.542L41.551,51.554L41.606,51.566L41.659,51.579L41.694,51.588L41.713,51.593L41.812,51.624L41.908,51.656L41.998,51.689L42.084,51.724L42.165,51.758L42.24,51.793L42.31,51.827L42.375,51.861L42.424,51.888L42.434,51.893L42.487,51.924L42.535,51.953L42.577,51.98L42.642,52.024L42.684,52.054L42.698,52.065L42.767,52.291L42.54,52.356L42.527,52.352L42.487,52.34L42.421,52.322L42.38,52.312L42.333,52.301L42.28,52.29L42.271,52.289L42.223,52.279L42.161,52.268L42.094,52.257L42.023,52.248L41.949,52.239L41.871,52.233L41.79,52.228L41.705,52.226L41.618,52.226L41.602,52.227L41.575,52.227L41.53,52.228L41.485,52.23L41.439,52.232L41.393,52.236L41.347,52.24L41.3,52.245L41.253,52.251L41.21,52.257L41.205,52.258L41.157,52.265L41.109,52.273L41.061,52.282L41.012,52.292L40.964,52.303L40.915,52.315L40.866,52.328L40.827,52.339L40.817,52.342L40.768,52.356L40.718,52.371L40.668,52.387L40.618,52.405L40.569,52.424L40.519,52.444L40.484,52.46L40.468,52.465L40.417,52.485L40.366,52.507L40.315,52.53L40.263,52.555L40.207,52.583L40.196,52.59L40.152,52.609L40.098,52.635L40.045,52.662L39.994,52.69L39.944,52.718L39.934,52.725L39.894,52.746L39.846,52.774L39.798,52.802L39.752,52.832L39.707,52.862L39.67,52.888L39.663,52.893L39.619,52.923L39.576,52.954L39.534,52.985L39.493,53.017L39.454,53.05L39.415,53.083L39.415,53.084L39.377,53.116L39.339,53.15L39.303,53.183L39.267,53.218L39.233,53.252L39.199,53.287L39.178,53.31L39.166,53.322L39.134,53.357L39.102,53.391L39.072,53.426L39.042,53.461L39.013,53.496L38.986,53.532L38.959,53.565L38.908,53.636L38.862,53.704L38.819,53.771L38.794,53.813L38.779,53.835L38.742,53.897L38.709,53.956L38.68,54.011L38.654,54.062L38.631,54.109L38.612,54.151L38.596,54.187L38.583,54.217L38.568,54.257L38.567,54.259L38.562,54.273L38.371,54.41L38.234,54.22L38.235,54.2L38.235,54.197L38.237,54.146L38.239,54.106L38.243,54.06L38.248,54.007L38.255,53.947L38.264,53.882L38.275,53.81L38.289,53.733L38.306,53.651L38.313,53.621L38.327,53.565L38.352,53.475L38.382,53.38L38.415,53.284L38.434,53.232L38.454,53.182L38.475,53.13L38.497,53.078L38.521,53.025L38.546,52.972L38.573,52.918L38.582,52.899L38.601,52.864L38.632,52.81L38.664,52.756L38.698,52.701L38.733,52.647L38.77,52.592L38.808,52.538L38.809,52.537L38.851,52.483L38.894,52.43L38.939,52.376L38.986,52.323L39.035,52.27L39.086,52.217L39.095,52.208L39.14,52.166L39.196,52.116L39.254,52.066L39.314,52.017L39.376,51.969L39.427,51.932L39.44,51.923L39.508,51.879L39.578,51.836L39.649,51.795L39.723,51.755L39.782,51.724L39.799,51.717L39.878,51.683L39.952,51.654L40.026,51.627L40.099,51.602L40.173,51.58L40.194,51.573L40.246,51.561L40.319,51.545L40.391,51.53L40.463,51.518L40.534,51.507L40.605,51.498L40.674,51.491L40.688,51.49L40.743,51.486L40.811,51.484L40.878,51.483L40.945,51.483Z" style="fill:#fff;fill-opacity:0.33;"/>
    </g>
    <g>
        <path d="M20.646,59.526C16.225,59.526 6.752,57.44 6.638,45.713C6.506,32.156 19.233,33.096 20.216,35.105C20.216,35.105 22.804,33.593 26.198,34.353C30.335,35.281 33.811,38.784 33.162,45.925C32.394,54.377 27.596,59.526 20.646,59.526Z" style="fill:#f1765a;"/>
        <clipPath id="_clip16">
            <path d="M20.646,59.526C16.225,59.526 6.752,57.44 6.638,45.713C6.506,32.156 19.233,33.096 20.216,35.105C20.216,35.105 22.804,33.593 26.198,34.353C30.335,35.281 33.811,38.784 33.162,45.925C32.394,54.377 27.596,59.526 20.646,59.526Z"/>
        </clipPath>
        <g clip-path="url(#_clip16)">
            <path d="M-2.366,43.782C-2.366,43.782 10.349,59.798 23.78,53.918C29.66,51.344 34.441,42.014 30.745,32.436C30.745,32.436 48.639,51.244 29.925,63.269C11.212,75.295 -2.362,43.112 -2.366,43.782Z" style="fill:#a46048;fill-opacity:0.65;"/>
        </g>
        <path d="M14.434,35.814L14.42,35.897L14.41,35.95L14.416,35.944L14.405,36.004L14.397,36.067L14.39,36.135L14.384,36.207L14.382,36.237L14.375,36.28L14.366,36.354L14.359,36.429L14.354,36.506L14.352,36.584L14.353,36.662L14.349,36.752L14.366,36.724L14.364,36.817L14.367,36.858L14.377,36.84L14.379,36.884L14.382,36.928L14.392,36.909L14.397,36.951L14.401,36.983L14.401,36.994L14.411,36.971L14.414,37.011L14.416,37.05L14.427,37.024L14.432,37.062L14.437,37.1L14.448,37.071L14.454,37.107L14.461,37.143L14.472,37.109L14.481,37.143L14.491,37.176L14.501,37.138L14.507,37.189L14.516,37.149L14.524,37.2L14.532,37.157L14.541,37.207L14.549,37.162L14.553,37.179L14.557,37.212L14.564,37.164L14.572,37.213L14.577,37.162L14.586,37.211L14.59,37.158L14.602,37.207L14.604,37.151L14.617,37.199L14.617,37.141L14.631,37.189L14.629,37.129L14.646,37.176L14.641,37.113L14.66,37.16L14.653,37.096L14.673,37.142L14.663,37.075L14.685,37.121L14.672,37.053L14.696,37.098L14.68,37.029L14.706,37.073L14.686,37.004L14.714,37.047L14.691,36.977L14.696,36.983L14.718,37.021L14.691,36.951L14.719,36.995L14.69,36.926L14.72,36.969L14.687,36.901L14.719,36.943L14.684,36.877L14.719,36.918L14.68,36.853L14.718,36.894L14.677,36.832L14.717,36.872L14.674,36.811L14.716,36.85L14.672,36.793L14.716,36.831L14.67,36.776L14.718,36.813L14.67,36.761L14.721,36.798L14.672,36.749L14.725,36.784L14.676,36.738L14.678,36.738L14.703,36.756L14.732,36.774L14.683,36.734L14.715,36.754L14.75,36.774L14.702,36.74L14.742,36.761L14.784,36.782L14.737,36.753L14.784,36.775L14.833,36.797L14.789,36.772L14.843,36.795L14.867,36.804L14.898,36.822L14.855,36.802L14.913,36.835L14.955,36.859L15.002,36.884L15.054,36.91L15.111,36.937L15.173,36.964L15.241,36.992L15.314,37.021L15.38,37.045L15.392,37.05L15.474,37.086L15.561,37.122L15.654,37.159L15.752,37.195L15.857,37.232L15.966,37.268L16.081,37.305L16.202,37.341L16.323,37.375L16.329,37.377L16.46,37.419L16.597,37.461L16.74,37.503L16.889,37.544L17.044,37.586L17.204,37.626L17.371,37.667L17.543,37.707L17.722,37.746L17.906,37.786L18.097,37.824L18.293,37.862L18.496,37.9L18.705,37.937L18.853,37.962L18.92,37.975L19.141,38.016L19.369,38.058L19.603,38.098L19.843,38.138L20.09,38.177L20.342,38.216L20.443,38.232L20.544,38.247L20.647,38.26L20.752,38.273L20.858,38.285L20.967,38.296L21.077,38.306L21.142,38.312L21.188,38.316L21.419,38.336L21.656,38.353L21.898,38.368L22.097,38.379L22.147,38.382L22.831,38.883L22.318,39.558L22.269,39.576L22.078,39.643L21.839,39.724L21.601,39.803L21.366,39.877L21.316,39.893L21.247,39.913L21.129,39.946L21.01,39.979L20.892,40.01L20.774,40.04L20.655,40.068L20.537,40.095L20.419,40.121L20.156,40.178L19.9,40.233L19.648,40.284L19.402,40.333L19.16,40.38L18.922,40.423L18.851,40.436L18.69,40.46L18.461,40.493L18.238,40.523L18.019,40.551L17.804,40.577L17.594,40.6L17.387,40.62L17.185,40.639L16.987,40.655L16.793,40.669L16.603,40.68L16.416,40.689L16.233,40.696L16.054,40.7L15.878,40.703L15.87,40.703L15.707,40.697L15.539,40.689L15.374,40.678L15.212,40.666L15.054,40.651L14.898,40.635L14.745,40.616L14.595,40.594L14.448,40.571L14.426,40.567L14.305,40.539L14.165,40.505L14.028,40.468L13.893,40.429L13.76,40.387L13.629,40.343L13.501,40.297L13.375,40.248L13.251,40.196L13.181,40.164L13.131,40.137L13.017,40.07L12.904,40L12.794,39.928L12.686,39.853L12.581,39.774L12.478,39.693L12.379,39.608L12.281,39.521L12.192,39.434L12.188,39.429L12.102,39.329L12.02,39.226L11.943,39.12L11.869,39.012L11.8,38.901L11.735,38.788L11.676,38.673L11.622,38.556L11.573,38.437L11.529,38.318L11.491,38.198L11.463,38.094L11.459,38.077L11.437,37.956L11.421,37.836L11.41,37.717L11.404,37.6L11.403,37.485L11.407,37.372L11.416,37.262L11.428,37.155L11.444,37.051L11.464,36.949L11.487,36.851L11.513,36.756L11.532,36.695L11.543,36.665L11.578,36.577L11.615,36.492L11.654,36.41L11.695,36.332L11.737,36.256L11.781,36.184L11.825,36.114L11.871,36.047L11.917,35.982L11.964,35.92L12.011,35.86L12.024,35.844L12.062,35.804L12.115,35.751L12.168,35.701L12.221,35.652L12.276,35.601L12.379,35.518L12.484,35.438L12.587,35.364L12.688,35.296L12.786,35.235L12.881,35.178L12.972,35.127L13.025,35.098L13.062,35.082L13.151,35.045L13.234,35.012L13.31,34.983L13.381,34.958L13.445,34.935L13.546,34.902L13.603,34.884L13.613,34.881L13.638,34.873L14.478,34.908L14.444,35.747L14.438,35.768L14.446,35.761L14.444,35.769L14.434,35.814Z" style="fill:#fff;fill-opacity:0.4;"/>
        <path d="M13.347,36.67L13.347,36.677L13.348,36.673L13.348,36.68L13.347,36.693L13.347,36.725L13.348,36.719L13.349,36.763L13.351,36.786L13.354,36.811L13.358,36.839L13.363,36.868L13.37,36.898L13.371,36.902L13.376,36.93L13.384,36.963L13.393,36.997L13.404,37.032L13.417,37.068L13.432,37.104L13.449,37.141L13.468,37.178L13.489,37.215L13.512,37.252L13.522,37.267L13.536,37.289L13.563,37.327L13.592,37.365L13.624,37.404L13.64,37.421L13.658,37.44L13.668,37.45L13.676,37.459L13.694,37.478L13.714,37.498L13.734,37.517L13.755,37.536L13.777,37.555L13.8,37.574L13.824,37.594L13.849,37.613L13.861,37.622L13.874,37.632L13.9,37.652L13.927,37.672L13.955,37.692L13.985,37.713L14.015,37.732L14.047,37.752L14.08,37.772L14.094,37.78L14.114,37.793L14.149,37.815L14.185,37.836L14.222,37.858L14.261,37.879L14.302,37.9L14.344,37.921L14.358,37.928L14.386,37.944L14.43,37.967L14.476,37.991L14.523,38.014L14.572,38.037L14.623,38.06L14.676,38.083L14.73,38.105L14.777,38.124L14.786,38.128L14.844,38.152L14.903,38.175L14.964,38.199L15.028,38.222L15.093,38.245L15.16,38.267L15.23,38.29L15.301,38.312L15.367,38.331L15.375,38.333L15.45,38.356L15.527,38.378L15.607,38.4L15.689,38.422L15.773,38.443L15.859,38.464L15.947,38.484L16.038,38.504L16.131,38.524L16.227,38.543L16.324,38.561L16.424,38.579L16.527,38.597L16.631,38.614L16.739,38.631L16.807,38.641L16.848,38.647L16.96,38.664L17.075,38.68L17.192,38.695L17.312,38.71L17.434,38.724L17.559,38.738L17.686,38.751L17.816,38.763L17.949,38.775L18.084,38.786L18.097,38.787L18.222,38.797L18.363,38.807L18.506,38.817L18.625,38.824L18.653,38.826L18.768,38.935L18.656,39.048L18.629,39.051L18.509,39.062L18.364,39.074L18.222,39.085L18.096,39.094L18.082,39.095L17.944,39.103L17.809,39.111L17.676,39.117L17.546,39.122L17.417,39.127L17.291,39.13L17.168,39.132L17.046,39.133L16.927,39.134L16.81,39.133L16.767,39.133L16.695,39.131L16.583,39.128L16.472,39.124L16.364,39.118L16.257,39.112L16.153,39.106L16.051,39.098L15.951,39.089L15.852,39.08L15.756,39.07L15.662,39.059L15.569,39.048L15.479,39.036L15.39,39.023L15.303,39.009L15.218,38.994L15.209,38.993L15.135,38.978L15.054,38.961L14.974,38.944L14.897,38.925L14.821,38.906L14.746,38.887L14.674,38.867L14.603,38.846L14.533,38.825L14.522,38.821L14.466,38.802L14.4,38.778L14.336,38.753L14.274,38.728L14.213,38.703L14.153,38.677L14.095,38.651L14.039,38.624L14.002,38.606L13.984,38.596L13.932,38.566L13.881,38.535L13.832,38.504L13.784,38.473L13.737,38.442L13.692,38.41L13.667,38.391L13.649,38.377L13.608,38.343L13.569,38.308L13.531,38.274L13.494,38.239L13.458,38.204L13.424,38.17L13.392,38.135L13.375,38.116L13.361,38.099L13.332,38.063L13.304,38.026L13.278,37.99L13.252,37.954L13.228,37.918L13.206,37.882L13.184,37.846L13.164,37.81L13.155,37.794L13.145,37.774L13.128,37.738L13.111,37.701L13.084,37.632L13.059,37.563L13.039,37.495L13.029,37.455L13.023,37.429L13.012,37.364L13.005,37.301L13,37.24L12.998,37.182L12.998,37.126L13,37.072L13.004,37.021L13.01,36.972L13.018,36.927L13.025,36.888L13.026,36.884L13.037,36.843L13.048,36.806L13.059,36.771L13.071,36.74L13.082,36.711L13.103,36.663L13.12,36.628L13.128,36.613L13.132,36.605L13.137,36.596L13.279,36.528L13.347,36.67Z" style="fill:#fff;fill-opacity:0.58;"/>
        <path d="M16.559,36.216C16.92,35.83 16.572,35.542 15.816,34.78C15.382,34.343 19.662,34.532 20.204,35.587C20.232,35.641 20.256,35.692 20.278,35.739C21.114,35.867 21.685,36.123 21.685,36.419C21.685,36.841 20.516,37.184 19.076,37.184C17.636,37.184 16.467,36.841 16.467,36.419C16.467,36.348 16.499,36.28 16.559,36.216Z" style="fill:#a46048;fill-opacity:0.63;"/>
        <path d="M18.817,35.919C18.817,35.919 20.21,32.86 19.952,31.967C19.694,31.073 22.281,32.624 22.281,32.624C22.281,32.624 20.348,35.274 19.823,36.163C19.823,36.163 19.172,37.092 18.817,35.919Z" style="fill:#6d4a3f;"/>
    </g>
</svg>
