<?xml version="1.0" encoding="UTF-8" standalone="no"?><!DOCTYPE svg PUBLIC "-//W3C//DTD SVG 1.1//EN" "http://www.w3.org/Graphics/SVG/1.1/DTD/svg11.dtd"><svg width="25px" height="24px" version="1.1" xmlns="http://www.w3.org/2000/svg" xmlns:xlink="http://www.w3.org/1999/xlink" xml:space="preserve" xmlns:serif="http://www.serif.com/" style="fill-rule:evenodd;clip-rule:evenodd;stroke-linejoin:round;stroke-miterlimit:1.41421;"><rect id="Icon-Twitter" x="0.33" y="0" width="24" height="24" style="fill:none;"/><clipPath id="_clip1"><rect x="0.33" y="0" width="24" height="24"/></clipPath><g clip-path="url(#_clip1)"><path d="M24.33,4.367c-0.883,0.402 -1.832,0.673 -2.828,0.795c1.016,-0.625 1.797,-1.614 2.165,-2.793c-0.951,0.579 -2.005,0.999 -3.127,1.225c-0.898,-0.981 -2.178,-1.594 -3.594,-1.594c-2.719,0 -4.924,2.261 -4.924,5.049c0,0.396 0.044,0.781 0.128,1.151c-4.092,-0.211 -7.72,-2.221 -10.149,-5.275c-0.424,0.746 -0.667,1.613 -0.667,2.538c0,1.752 0.869,3.297 2.19,4.202c-0.807,-0.026 -1.566,-0.253 -2.23,-0.631l0,0.063c0,2.446 1.697,4.487 3.95,4.951c-0.413,0.115 -0.848,0.177 -1.297,0.177c-0.317,0 -0.626,-0.032 -0.927,-0.091c0.627,2.006 2.445,3.466 4.6,3.506c-1.685,1.354 -3.808,2.161 -6.115,2.161c-0.397,0 -0.789,-0.024 -1.175,-0.071c2.179,1.433 4.767,2.269 7.548,2.269c9.057,0 14.01,-7.694 14.01,-14.366l-0.014,-0.653c0.962,-0.712 1.797,-1.601 2.457,-2.614" style="fill:#3b94d9;"/></g></svg>