<?xml version="1.0" encoding="UTF-8" standalone="no"?><!DOCTYPE svg PUBLIC "-//W3C//DTD SVG 1.1//EN" "http://www.w3.org/Graphics/SVG/1.1/DTD/svg11.dtd"><svg width="24px" height="24px" version="1.1" xmlns="http://www.w3.org/2000/svg" xmlns:xlink="http://www.w3.org/1999/xlink" xml:space="preserve" xmlns:serif="http://www.serif.com/" style="fill-rule:evenodd;clip-rule:evenodd;stroke-linejoin:round;stroke-miterlimit:1.41421;"><rect id="Icon-Facebook" x="0" y="0" width="24" height="24" style="fill:none;"/><path d="M15,23l0,-8l3,0l0,-3l-3,0l0,-3c0,-0.796 0.502,-1 1,-1l2,0l0,-3l-2,0c-1.212,0 -2.3,0.366 -3,1c-0.7,0.634 -1,1.186 -1,3l0,3l-2,0l0,3l2,0l0,8l-7.999,0c-1.657,0 -3.001,-1.343 -3.001,-3.001l0,-15.998c0,-1.657 1.343,-3.001 3.001,-3.001l15.998,0c1.657,0 3.001,1.343 3.001,3.001l0,15.998c0,1.657 -1.343,3.001 -3.001,3.001l-4.999,0Z" style="fill:#4267b2;"/></svg>