<?xml version="1.0" encoding="UTF-8" standalone="no"?>
<!DOCTYPE svg PUBLIC "-//W3C//DTD SVG 1.1//EN" "http://www.w3.org/Graphics/SVG/1.1/DTD/svg11.dtd">
<svg width="100%" height="100%" viewBox="0 0 65 65" version="1.1" xmlns="http://www.w3.org/2000/svg" xmlns:xlink="http://www.w3.org/1999/xlink" xml:space="preserve" xmlns:serif="http://www.serif.com/" style="fill-rule:evenodd;clip-rule:evenodd;stroke-linejoin:round;stroke-miterlimit:2;">
    <rect id="Information-Systems" x="0.062" y="0.425" width="64" height="64" style="fill:none;"/>
    <clipPath id="_clip1">
        <rect x="0.062" y="0.425" width="64" height="64"/>
    </clipPath>
    <g clip-path="url(#_clip1)">
        <path d="M40.424,46.024L14.089,46.024L11.055,50.341L40.424,50.341L40.424,46.024Z" style="fill:#bfc1db;"/>
        <g>
            <rect x="22.276" y="34.997" width="6.849" height="7.382" style="fill:#adafd1;"/>
            <rect x="22.276" y="36.268" width="6.849" height="1.764" style="fill:#8589bb;"/>
            <path d="M47.621,8.793C47.621,8 47.306,7.239 46.745,6.678C46.184,6.118 45.424,5.802 44.63,5.802C36.625,5.802 14.776,5.802 6.771,5.802C5.978,5.802 5.217,6.118 4.656,6.678C4.095,7.239 3.78,8 3.78,8.793C3.78,14.624 3.78,27.447 3.78,33.277C3.78,34.071 4.095,34.831 4.656,35.392C5.217,35.953 5.978,36.268 6.771,36.268C14.776,36.268 36.625,36.268 44.63,36.268C45.424,36.268 46.184,35.953 46.745,35.392C47.306,34.831 47.621,34.071 47.621,33.277C47.621,27.447 47.621,14.624 47.621,8.793Z" style="fill:#fff;"/>
            <path d="M44.705,5.803L44.779,5.806L44.853,5.811L44.926,5.817L44.999,5.825L45.072,5.835L45.145,5.847L45.217,5.86L45.288,5.876L45.36,5.893L45.43,5.911L45.5,5.932L45.57,5.954L45.639,5.978L45.707,6.003L45.775,6.03L45.842,6.059L45.908,6.089L45.974,6.121L46.039,6.155L46.103,6.19L46.166,6.227L46.228,6.265L46.29,6.305L46.35,6.346L46.41,6.389L46.468,6.434L46.526,6.48L46.583,6.527L46.638,6.576L46.692,6.627L46.745,6.678L46.797,6.732L46.848,6.786L46.897,6.841L46.944,6.898L46.99,6.955L47.035,7.014L47.078,7.073L47.119,7.134L47.159,7.195L47.197,7.258L47.234,7.321L47.269,7.385L47.303,7.45L47.335,7.515L47.365,7.582L47.394,7.649L47.421,7.717L47.446,7.785L47.47,7.854L47.492,7.923L47.513,7.994L47.531,8.064L47.548,8.135L47.563,8.207L47.577,8.279L47.589,8.352L47.599,8.425L47.607,8.498L47.613,8.571L47.618,8.645L47.621,8.719L47.621,8.793L47.621,33.277L47.621,33.352L47.618,33.426L47.613,33.499L47.607,33.573L47.599,33.646L47.589,33.719L47.577,33.792L47.563,33.864L47.548,33.935L47.531,34.006L47.513,34.077L47.492,34.147L47.47,34.217L47.446,34.286L47.421,34.354L47.394,34.422L47.365,34.489L47.335,34.555L47.303,34.621L47.269,34.686L47.234,34.75L47.197,34.813L47.159,34.875L47.119,34.937L47.078,34.997L47.035,35.057L46.99,35.115L46.944,35.173L46.897,35.229L46.848,35.285L46.797,35.339L46.745,35.392L46.692,35.444L46.638,35.495L46.583,35.544L46.526,35.591L46.468,35.637L46.41,35.681L46.35,35.724L46.29,35.766L46.228,35.806L46.166,35.844L46.103,35.881L46.039,35.916L45.974,35.95L45.908,35.982L45.842,36.012L45.775,36.041L45.707,36.068L45.639,36.093L45.57,36.117L45.5,36.139L45.43,36.159L45.36,36.178L45.288,36.195L45.217,36.21L45.145,36.224L45.072,36.236L44.999,36.246L44.926,36.254L44.853,36.26L44.779,36.265L44.705,36.267L44.63,36.268L6.771,36.268L6.697,36.267L6.623,36.265L6.549,36.26L6.475,36.254L6.402,36.246L6.329,36.236L6.257,36.224L6.185,36.21L6.113,36.195L6.042,36.178L5.971,36.159L5.901,36.139L5.832,36.117L5.763,36.093L5.694,36.068L5.626,36.041L5.559,36.012L5.493,35.982L5.427,35.95L5.363,35.916L5.299,35.881L5.235,35.844L5.173,35.806L5.112,35.766L5.051,35.724L4.992,35.681L4.933,35.637L4.875,35.591L4.819,35.544L4.764,35.495L4.709,35.444L4.656,35.392L4.604,35.339L4.554,35.285L4.505,35.229L4.457,35.173L4.411,35.115L4.367,35.057L4.324,34.997L4.283,34.937L4.243,34.875L4.204,34.813L4.168,34.75L4.132,34.686L4.099,34.621L4.067,34.555L4.036,34.489L4.008,34.422L3.981,34.354L3.955,34.286L3.931,34.217L3.909,34.147L3.889,34.077L3.87,34.006L3.853,33.935L3.838,33.864L3.825,33.792L3.813,33.719L3.803,33.646L3.795,33.573L3.788,33.499L3.784,33.426L3.781,33.352L3.78,33.277L3.78,8.793L3.781,8.719L3.784,8.645L3.788,8.571L3.795,8.498L3.803,8.425L3.813,8.352L3.825,8.279L3.838,8.207L3.853,8.135L3.87,8.064L3.889,7.994L3.909,7.923L3.931,7.854L3.955,7.785L3.981,7.717L4.008,7.649L4.036,7.582L4.067,7.515L4.099,7.45L4.132,7.385L4.168,7.321L4.204,7.258L4.243,7.195L4.283,7.134L4.324,7.073L4.367,7.014L4.411,6.955L4.457,6.898L4.505,6.841L4.554,6.786L4.604,6.732L4.656,6.678L4.709,6.627L4.764,6.576L4.819,6.527L4.875,6.48L4.933,6.434L4.992,6.389L5.051,6.346L5.112,6.305L5.173,6.265L5.235,6.227L5.299,6.19L5.363,6.155L5.427,6.121L5.493,6.089L5.559,6.059L5.626,6.03L5.694,6.003L5.763,5.978L5.832,5.954L5.901,5.932L5.971,5.911L6.042,5.893L6.113,5.876L6.185,5.86L6.257,5.847L6.329,5.835L6.402,5.825L6.475,5.817L6.549,5.811L6.623,5.806L6.697,5.803L6.771,5.802L44.63,5.802L44.705,5.803ZM6.787,8.302L6.759,8.303L6.747,8.303L6.734,8.304L6.721,8.305L6.71,8.306L6.699,8.308L6.688,8.31L6.676,8.312L6.662,8.315L6.651,8.318L6.64,8.32L6.628,8.324L6.616,8.328L6.604,8.332L6.596,8.335L6.584,8.34L6.57,8.345L6.564,8.348L6.55,8.355L6.54,8.36L6.53,8.366L6.515,8.375L6.508,8.379L6.501,8.384L6.489,8.391L6.477,8.401L6.468,8.407L6.46,8.413L6.452,8.42L6.443,8.428L6.433,8.437L6.422,8.448L6.414,8.457L6.408,8.462L6.403,8.469L6.394,8.479L6.384,8.492L6.375,8.504L6.37,8.511L6.364,8.519L6.355,8.533L6.35,8.541L6.345,8.55L6.336,8.566L6.331,8.575L6.326,8.585L6.322,8.596L6.321,8.598L6.313,8.618L6.308,8.63L6.304,8.642L6.3,8.655L6.299,8.659L6.295,8.673L6.292,8.688L6.29,8.693L6.288,8.709L6.285,8.725L6.284,8.732L6.283,8.739L6.282,8.757L6.28,8.775L6.28,8.803L6.28,33.268L6.28,33.296L6.282,33.314L6.283,33.331L6.285,33.346L6.288,33.362L6.29,33.377L6.292,33.383L6.295,33.398L6.299,33.411L6.3,33.416L6.304,33.429L6.308,33.441L6.313,33.453L6.322,33.475L6.326,33.485L6.331,33.495L6.336,33.505L6.345,33.521L6.35,33.529L6.355,33.538L6.364,33.552L6.37,33.56L6.375,33.567L6.384,33.579L6.393,33.591L6.403,33.602L6.408,33.608L6.414,33.614L6.422,33.623L6.433,33.633L6.443,33.643L6.452,33.65L6.46,33.657L6.468,33.664L6.477,33.67L6.489,33.679L6.501,33.687L6.508,33.692L6.515,33.696L6.53,33.705L6.54,33.711L6.55,33.716L6.565,33.723L6.57,33.725L6.583,33.731L6.596,33.736L6.604,33.739L6.616,33.743L6.628,33.747L6.64,33.75L6.652,33.753L6.662,33.756L6.675,33.759L6.688,33.761L6.699,33.763L6.71,33.764L6.721,33.766L6.734,33.767L6.747,33.768L6.759,33.768L6.787,33.768L44.614,33.768L44.642,33.768L44.655,33.768L44.667,33.767L44.68,33.766L44.692,33.764L44.703,33.763L44.714,33.761L44.726,33.759L44.739,33.756L44.75,33.753L44.761,33.75L44.773,33.747L44.785,33.743L44.797,33.739L44.806,33.736L44.818,33.731L44.831,33.725L44.837,33.723L44.851,33.716L44.865,33.709L44.872,33.705L44.883,33.699L44.893,33.692L44.901,33.687L44.912,33.679L44.925,33.67L44.933,33.664L44.941,33.657L44.949,33.65L44.958,33.643L44.968,33.633L44.979,33.623L44.988,33.614L44.993,33.608L45.003,33.597L45.008,33.591L45.017,33.579L45.027,33.567L45.032,33.56L45.037,33.552L45.042,33.545L45.051,33.529L45.06,33.514L45.065,33.505L45.066,33.503L45.075,33.485L45.08,33.475L45.084,33.464L45.089,33.453L45.09,33.449L45.097,33.429L45.101,33.416L45.103,33.411L45.106,33.398L45.11,33.383L45.111,33.377L45.114,33.362L45.116,33.346L45.117,33.339L45.119,33.322L45.12,33.314L45.121,33.305L45.121,33.287L45.122,33.259L45.122,8.812L45.121,8.784L45.121,8.765L45.12,8.757L45.119,8.749L45.117,8.732L45.116,8.725L45.114,8.709L45.111,8.693L45.11,8.688L45.106,8.673L45.103,8.659L45.101,8.655L45.097,8.642L45.09,8.622L45.089,8.618L45.084,8.606L45.08,8.596L45.075,8.585L45.066,8.568L45.065,8.566L45.06,8.557L45.051,8.541L45.042,8.526L45.037,8.519L45.032,8.511L45.027,8.504L45.017,8.492L45.008,8.479L45.003,8.474L44.993,8.462L44.988,8.457L44.979,8.448L44.968,8.437L44.958,8.428L44.949,8.42L44.941,8.413L44.933,8.407L44.925,8.401L44.912,8.391L44.901,8.384L44.893,8.379L44.883,8.372L44.872,8.366L44.865,8.362L44.851,8.355L44.838,8.348L44.831,8.345L44.817,8.34L44.806,8.335L44.797,8.332L44.785,8.328L44.773,8.324L44.761,8.32L44.751,8.318L44.739,8.315L44.725,8.312L44.714,8.31L44.703,8.308L44.692,8.306L44.68,8.305L44.667,8.304L44.655,8.303L44.642,8.303L44.614,8.302L6.787,8.302Z" style="fill:#9699c4;fill-opacity:0.61;"/>
            <rect x="8.638" y="28.76" width="7.489" height="0.86" style="fill:#2b307e;fill-opacity:0.35;"/>
            <rect x="8.638" y="30.711" width="2.496" height="0.86" style="fill:#2b307e;fill-opacity:0.35;"/>
            <rect x="17.249" y="28.76" width="2.496" height="0.86" style="fill:#2b307e;fill-opacity:0.35;"/>
            <rect x="17.249" y="30.711" width="2.496" height="0.86" style="fill:#2b307e;fill-opacity:0.35;"/>
            <g>
                <rect x="8.443" y="14.991" width="18.387" height="2.115" style="fill:#dddde3;"/>
                <rect x="22.994" y="14.991" width="11.041" height="2.115" style="fill:#ff92a4;"/>
                <rect x="30.205" y="14.991" width="6.421" height="2.115" style="fill:#5cff9d;"/>
            </g>
            <g>
                <rect x="8.443" y="19.215" width="18.387" height="2.115" style="fill:#dddde3;"/>
                <rect x="25.826" y="19.215" width="8.21" height="2.115" style="fill:#ff92a4;"/>
                <rect x="32.291" y="19.215" width="4.334" height="2.115" style="fill:#5cff9d;"/>
            </g>
            <g>
                <rect x="8.443" y="23.44" width="18.387" height="2.115" style="fill:#dddde3;"/>
                <rect x="19.094" y="23.44" width="14.942" height="2.115" style="fill:#ff92a4;"/>
                <rect x="28.521" y="23.44" width="8.105" height="2.115" style="fill:#5cff9d;"/>
            </g>
            <g opacity="0.54">
                <clipPath id="_clip2">
                    <rect x="7.868" y="9.876" width="3.267" height="3.134"/>
                </clipPath>
                <g clip-path="url(#_clip2)">
                    <g id="icon">
                        <rect id="bounds" x="6.021" y="8.104" width="6.96" height="6.676" style="fill:none;"/>
                        <path id="Oval" d="M9.519,12.975C10.156,12.975 10.673,12.476 10.673,11.861C10.673,11.264 10.288,10.614 9.519,9.91C8.75,10.614 8.365,11.264 8.365,11.861C8.365,12.476 8.882,12.975 9.519,12.975Z" style="fill:#f35;fill-rule:nonzero;"/>
                        <path id="Path-2" d="M8.823,12.349C8.773,12.29 8.783,12.202 8.846,12.154C8.908,12.106 9,12.116 9.05,12.176C9.257,12.423 9.635,12.463 9.894,12.265C9.929,12.239 9.96,12.209 9.988,12.176C10.038,12.116 10.129,12.106 10.192,12.154C10.255,12.202 10.265,12.29 10.215,12.349C10.174,12.399 10.127,12.443 10.076,12.482C9.691,12.776 9.13,12.716 8.823,12.349Z" style="fill:#fff;fill-rule:nonzero;"/>
                    </g>
                </g>
            </g>
            <ellipse cx="25.701" cy="42.379" rx="7.845" ry="0.949" style="fill:#adafd1;"/>
        </g>
        <g>
            <path d="M37.242,54.373C37.114,55.002 34.817,54.129 34.55,54.056C32.991,53.628 31.269,52.812 30.078,51.723C28.743,50.501 29.357,48.085 31.212,47.707C32.536,47.437 34.049,47.569 35.28,47.942C36.133,48.201 37.01,48.448 37.827,48.812" style="fill:#f3775b;"/>
            <clipPath id="_clip3">
                <path d="M37.242,54.373C37.114,55.002 34.817,54.129 34.55,54.056C32.991,53.628 31.269,52.812 30.078,51.723C28.743,50.501 29.357,48.085 31.212,47.707C32.536,47.437 34.049,47.569 35.28,47.942C36.133,48.201 37.01,48.448 37.827,48.812"/>
            </clipPath>
            <g clip-path="url(#_clip3)">
                <path d="M29.288,45.692C28.753,45.518 28.131,46.955 27.992,47.273C25.021,54.098 33.94,54.641 32.651,53.4C31.544,52.333 30.978,50.598 32.188,49.415C34.034,47.61 35.555,49.495 36.824,48.226C37.048,48.002 36.699,47.818 36.763,47.496C37.339,44.617 31.903,44.487 30.217,45.049C29.604,45.253 29.383,45.768 28.85,46.034" style="fill:#f3ab9b;"/>
            </g>
            <path d="M36.286,45.906C36.158,46.535 33.861,45.662 33.594,45.589C32.034,45.162 30.313,44.345 29.122,43.256C27.786,42.034 28.401,39.618 30.256,39.24C31.58,38.97 33.093,39.102 34.324,39.476C35.177,39.735 36.053,39.981 36.871,40.345" style="fill:#f3775b;"/>
            <clipPath id="_clip4">
                <path d="M36.286,45.906C36.158,46.535 33.861,45.662 33.594,45.589C32.034,45.162 30.313,44.345 29.122,43.256C27.786,42.034 28.401,39.618 30.256,39.24C31.58,38.97 33.093,39.102 34.324,39.476C35.177,39.735 36.053,39.981 36.871,40.345"/>
            </clipPath>
            <g clip-path="url(#_clip4)">
                <path d="M28.331,37.226C27.797,37.052 27.174,38.489 27.036,38.807C24.064,45.631 32.984,46.174 31.695,44.934C30.588,43.867 30.022,42.132 31.232,40.949C33.078,39.144 34.599,41.028 35.868,39.759C36.091,39.535 35.743,39.351 35.807,39.029C36.383,36.15 30.946,36.02 29.26,36.582C28.648,36.786 28.426,37.301 27.894,37.567" style="fill:#f3ab9b;"/>
            </g>
            <rect x="35.767" y="33.93" width="47.847" height="34.078" style="fill:none;"/>
            <clipPath id="_clip5">
                <rect x="35.767" y="33.93" width="47.847" height="34.078"/>
            </clipPath>
            <g clip-path="url(#_clip5)">
                <path d="M50.569,40.89C50.466,40.856 50.409,40.393 50.304,40.288C50.292,40.276 50.252,40.253 50.269,40.253C50.325,40.253 50.352,40.336 50.374,40.358C51.115,41.099 52.233,41.715 52.897,42.601C53.445,43.331 54.195,43.594 54.895,44.178C56.348,45.389 57.732,46.746 58.855,48.243C59.613,49.254 60.411,50.262 61.098,51.292C61.685,52.172 62.232,53.258 62.57,54.271C62.764,54.853 63.207,55.439 63.481,55.988C64.136,57.298 64.724,58.653 65.444,59.948C67.704,64.017 70.27,68.045 72.943,71.864C74.31,73.817 75.344,76.037 76.903,77.856C77.347,78.374 77.639,79.153 78.095,79.609C78.1,79.614 78.174,79.67 78.13,79.714C77.812,80.032 76.395,79.914 75.957,79.994C73.236,80.489 60.754,80.146 59.675,80.026C59.254,79.979 53.152,78.795 49.747,75.513C48.552,74.362 47.039,71.388 44.7,68.744C42.835,66.634 40.181,64.81 38.669,63.733C37.627,62.991 36.265,62.295 35.287,61.558C35.059,61.386 34.851,61.212 34.674,61.035C34.26,60.621 35.072,59.159 35.27,58.862C36.68,56.746 38.331,54.861 39.685,52.694C40.162,51.931 40.697,51.175 41.227,50.451C43.416,47.466 45.8,44.687 48.412,42.075C49.021,41.466 49.522,40.684 50.059,40.148C50.282,39.924 50.532,40.779 50.549,40.779" style="fill:#c06564;"/>
            </g>
            <path d="M57.317,26.343C57.317,23.857 55.301,21.841 52.814,21.841C48.968,21.841 43.463,21.841 39.617,21.841C37.131,21.841 35.115,23.857 35.115,26.343C35.115,34.353 35.115,50.986 35.115,58.996C35.115,61.482 37.131,63.498 39.617,63.498C43.463,63.498 48.968,63.498 52.814,63.498C55.301,63.498 57.317,61.482 57.317,58.996C57.317,50.986 57.317,34.353 57.317,26.343Z" style="fill:#fff;"/>
            <clipPath id="_clip6">
                <path d="M57.317,26.343C57.317,23.857 55.301,21.841 52.814,21.841C48.968,21.841 43.463,21.841 39.617,21.841C37.131,21.841 35.115,23.857 35.115,26.343C35.115,34.353 35.115,50.986 35.115,58.996C35.115,61.482 37.131,63.498 39.617,63.498C43.463,63.498 48.968,63.498 52.814,63.498C55.301,63.498 57.317,61.482 57.317,58.996C57.317,50.986 57.317,34.353 57.317,26.343Z"/>
            </clipPath>
            <g clip-path="url(#_clip6)">
                <path d="M53.583,41.302C53.583,41.302 51.377,45.894 53.946,48.183C56.515,50.473 57.425,51.173 57.425,51.173L57.425,45.333L53.583,41.302Z" style="fill:#cfd0e2;"/>
                <path d="M34.815,55.954C34.815,55.954 39.033,55.782 39.023,59.41C39.015,62.525 35.28,62.416 35.28,62.416L34.815,55.954Z" style="fill:#cfd0e2;"/>
            </g>
            <path d="M53.091,21.169C55.481,21.214 57.618,23.318 57.664,25.743C57.736,37.004 57.877,48.268 57.663,59.528C57.589,61.88 55.524,63.965 53.15,64.041C48.544,64.128 43.935,64.128 39.328,64.041C36.976,63.966 34.891,61.902 34.816,59.528C34.601,48.248 34.601,36.963 34.816,25.683C34.89,23.331 36.955,21.245 39.328,21.17C43.915,21.083 48.503,21.14 53.091,21.169ZM39.454,23.972C37.987,23.981 36.665,25.263 36.638,26.747C36.538,37.985 36.437,47.567 36.639,58.804C36.684,60.247 37.957,61.512 39.411,61.539C43.975,61.567 48.541,61.625 53.104,61.539C54.537,61.493 55.795,60.238 55.84,58.804C56.042,47.542 56.194,37.931 55.839,26.673C55.775,25.244 54.508,24 53.068,23.972C48.53,23.944 43.992,23.972 39.454,23.972Z" style="fill:#636693;"/>
            <clipPath id="_clip7">
                <path d="M53.091,21.169C55.481,21.214 57.618,23.318 57.664,25.743C57.736,37.004 57.877,48.268 57.663,59.528C57.589,61.88 55.524,63.965 53.15,64.041C48.544,64.128 43.935,64.128 39.328,64.041C36.976,63.966 34.891,61.902 34.816,59.528C34.601,48.248 34.601,36.963 34.816,25.683C34.89,23.331 36.955,21.245 39.328,21.17C43.915,21.083 48.503,21.14 53.091,21.169ZM39.454,23.972C37.987,23.981 36.665,25.263 36.638,26.747C36.538,37.985 36.437,47.567 36.639,58.804C36.684,60.247 37.957,61.512 39.411,61.539C43.975,61.567 48.541,61.625 53.104,61.539C54.537,61.493 55.795,60.238 55.84,58.804C56.042,47.542 56.194,37.931 55.839,26.673C55.775,25.244 54.508,24 53.068,23.972C48.53,23.944 43.992,23.972 39.454,23.972Z"/>
            </clipPath>
            <g clip-path="url(#_clip7)">
                <path d="M62.183,18.715L31.594,48.796L31.806,67.707L62.183,67.707L62.183,18.715Z" style="fill:#2b307e;"/>
                <path d="M34.505,55.402C34.505,55.402 38.847,55.225 38.837,58.959C38.829,62.165 34.984,62.052 34.984,62.052L34.505,55.402Z"/>
            </g>
            <rect x="40.803" y="29.222" width="37.776" height="36.173" style="fill:none;"/>
            <clipPath id="_clip8">
                <rect x="40.803" y="29.222" width="37.776" height="36.173"/>
            </clipPath>
            <g clip-path="url(#_clip8)">
                <path d="M55.891,67.718C54.906,65.011 54.391,58.24 56.308,55.366C56.868,54.525 58.854,51.644 58.867,51.027C58.886,50.077 58.317,48.083 58.073,47.607C56.263,44.079 54.879,45.484 53.478,42.051C52.629,39.972 53.475,38.285 54.144,37.381C54.296,37.192 54.517,37.071 54.758,37.045C55,37.019 55.242,37.09 55.43,37.242C56.124,37.737 57.138,38.575 57.901,39.287C59.357,40.646 61.565,41.433 62.537,42.405C63.94,43.808 66.17,48.205 68.609,51.513C69.383,52.563 68.539,64.298 69.369,67.621C70.045,70.322 75.19,74.498 76.947,76.84C77.658,77.788 78.753,79.416 79.729,80.067C80.163,80.357 80.834,81.49 80.786,81.346" style="fill:#c06564;"/>
                <clipPath id="_clip9">
                    <path d="M55.891,67.718C54.906,65.011 54.391,58.24 56.308,55.366C56.868,54.525 58.854,51.644 58.867,51.027C58.886,50.077 58.317,48.083 58.073,47.607C56.263,44.079 54.879,45.484 53.478,42.051C52.629,39.972 53.475,38.285 54.144,37.381C54.296,37.192 54.517,37.071 54.758,37.045C55,37.019 55.242,37.09 55.43,37.242C56.124,37.737 57.138,38.575 57.901,39.287C59.357,40.646 61.565,41.433 62.537,42.405C63.94,43.808 66.17,48.205 68.609,51.513C69.383,52.563 68.539,64.298 69.369,67.621C70.045,70.322 75.19,74.498 76.947,76.84C77.658,77.788 78.753,79.416 79.729,80.067C80.163,80.357 80.834,81.49 80.786,81.346"/>
                </clipPath>
                <g clip-path="url(#_clip9)">
                    <path d="M56.007,30.055C56.065,30.107 55.841,29.975 55.776,30.018C55.206,30.398 54.761,31.167 54.455,31.779C53.646,33.398 54.84,32.494 54.073,33.929C51.624,38.508 54.406,41.01 58.64,44.169C60.076,45.241 62.385,46.86 60.773,51.021C60.727,51.14 60.696,51.266 60.616,51.348C58.801,53.193 56.318,53.167 56.178,59.431C56.052,65.065 65.327,69.523 69.799,72.805C72.213,74.578 79.253,83.933 81.655,85.77C87.612,90.325 85.172,88.462 87.565,80.388C88.842,76.076 87.221,70.948 85.755,66.888C83.989,61.997 82.355,56.979 79.738,52.458C77.659,48.867 75.07,45.682 72.401,42.528C70.773,40.604 69.048,38.422 66.971,36.952C64.77,35.392 62.092,33.448 59.39,32.941C59.184,32.902 55.956,30.052 55.874,29.97" style="fill:#f3775b;"/>
                    <path d="M53.157,33.881C53.157,33.881 53.738,37.322 61.722,44.032C64.374,46.262 66.83,51.862 66.955,55.88C67.171,62.878 71.309,64.589 71.309,64.589L71.33,36.196L53.157,33.881Z" style="fill:#f3ab9b;"/>
                    <path d="M55.313,35.927C55.313,35.927 55.881,37.46 57.585,38.337C57.788,39.148 57.492,39.853 56.837,40.481C56.837,40.481 53.278,39.309 55.313,35.927Z" style="fill:#f6c9bf;"/>
                </g>
            </g>
            <path d="M31.024,58.449C31.011,60.187 31.754,60.868 32.124,61.115C33.106,61.773 34.267,61.644 35.081,60.868C35.454,60.512 35.656,59.767 35.718,59.275C35.834,58.367 35.814,56.767 34.875,56.237C34.318,55.924 33.314,55.828 32.765,55.999C31.765,56.31 31.03,57.589 31.024,58.449Z" style="fill:#f3775b;"/>
            <clipPath id="_clip10">
                <path d="M31.024,58.449C31.011,60.187 31.754,60.868 32.124,61.115C33.106,61.773 34.267,61.644 35.081,60.868C35.454,60.512 35.656,59.767 35.718,59.275C35.834,58.367 35.814,56.767 34.875,56.237C34.318,55.924 33.314,55.828 32.765,55.999C31.765,56.31 31.03,57.589 31.024,58.449Z"/>
            </clipPath>
            <g clip-path="url(#_clip10)">
                <path d="M32.359,54.827C32.415,54.795 32.202,54.739 32.231,54.682C32.291,54.561 32.63,54.473 32.753,54.438C33.82,54.133 35.135,54.773 34.875,56.073C34.804,56.428 34.499,56.658 34.284,56.873C33.62,57.537 33.483,58.5 33.483,59.413C33.483,60.62 34.801,62.221 34.005,63.414C33.42,64.293 31.772,65.214 30.665,64.771C29.672,64.374 29.392,62.656 29.1,61.779C28.03,58.569 28.915,54.229 32.961,54.229" style="fill:#f3ab9b;"/>
            </g>
            <clipPath id="_clip11">
                <rect x="38.694" y="27.676" width="14.65" height="14.053"/>
            </clipPath>
            <g clip-path="url(#_clip11)">
                <g id="icon1" serif:id="icon">
                    <rect id="bounds1" serif:id="bounds" x="30.413" y="19.733" width="31.211" height="29.939" style="fill:none;"/>
                    <path id="Oval1" serif:id="Oval" d="M46.098,41.576C48.957,41.576 51.274,39.338 51.274,36.577C51.274,33.903 49.548,30.987 46.098,27.829C42.648,30.987 40.923,33.903 40.923,36.577C40.923,39.338 43.24,41.576 46.098,41.576Z" style="fill:#f35;fill-rule:nonzero;"/>
                    <path id="Path-21" serif:id="Path-2" d="M42.977,38.77C42.752,38.501 42.797,38.109 43.079,37.894C43.36,37.679 43.771,37.723 43.997,37.991C44.925,39.099 46.619,39.279 47.78,38.392C47.935,38.274 48.076,38.139 48.2,37.991C48.425,37.723 48.836,37.679 49.118,37.894C49.399,38.109 49.445,38.501 49.22,38.77C49.035,38.99 48.826,39.189 48.595,39.365C46.871,40.681 44.356,40.415 42.977,38.77Z" style="fill:#fff;fill-rule:nonzero;"/>
                </g>
            </g>
            <g>
                <rect x="39.527" y="47.564" width="8.754" height="1.005" style="fill:#2b307e;fill-opacity:0.35;"/>
                <rect x="49.592" y="47.564" width="2.918" height="1.005" style="fill:#2b307e;fill-opacity:0.35;"/>
                <rect x="39.527" y="53.168" width="8.754" height="1.005" style="fill:#2b307e;fill-opacity:0.35;"/>
                <rect x="49.592" y="53.168" width="2.918" height="1.005" style="fill:#2b307e;fill-opacity:0.35;"/>
                <rect x="39.527" y="50.262" width="6.039" height="1.005" style="fill:#2b307e;fill-opacity:0.35;"/>
                <rect x="49.592" y="50.262" width="2.918" height="1.005" style="fill:#2b307e;fill-opacity:0.35;"/>
                <rect x="39.527" y="55.866" width="6.039" height="1.005" style="fill:#2b307e;fill-opacity:0.35;"/>
                <rect x="50.497" y="55.866" width="2.013" height="1.005" style="fill:#2b307e;fill-opacity:0.35;"/>
            </g>
            <g>
                <circle cx="46.132" cy="22.812" r="0.727" style="fill:#fff;fill-opacity:0.25;"/>
                <circle cx="46.132" cy="22.568" r="0.727" style="fill:#1c2053;"/>
            </g>
        </g>
    </g>
</svg>
