<?xml version="1.0" encoding="UTF-8" standalone="no"?>
<!DOCTYPE svg PUBLIC "-//W3C//DTD SVG 1.1//EN" "http://www.w3.org/Graphics/SVG/1.1/DTD/svg11.dtd">
<svg width="100%" height="100%" viewBox="0 0 65 65" version="1.1" xmlns="http://www.w3.org/2000/svg" xmlns:xlink="http://www.w3.org/1999/xlink" xml:space="preserve" xmlns:serif="http://www.serif.com/" style="fill-rule:evenodd;clip-rule:evenodd;stroke-linejoin:round;stroke-miterlimit:2;">
    <rect id="Information-Systems" x="0.062" y="0.607" width="64" height="64" style="fill:none;"/>
    <clipPath id="_clip1">
        <rect x="0.062" y="0.607" width="64" height="64"/>
    </clipPath>
    <g clip-path="url(#_clip1)">
        <path d="M40.424,46.206L14.089,46.206L11.055,50.523L40.424,50.523L40.424,46.206Z" style="fill:#bfc1db;"/>
        <g>
            <rect x="22.276" y="35.179" width="6.849" height="7.382" style="fill:#adafd1;"/>
            <rect x="22.276" y="36.451" width="6.849" height="1.764" style="fill:#8589bb;"/>
            <path d="M47.621,8.976C47.621,8.182 47.306,7.422 46.745,6.861C46.184,6.3 45.424,5.985 44.63,5.985C36.625,5.985 14.776,5.985 6.771,5.985C5.978,5.985 5.217,6.3 4.656,6.861C4.095,7.422 3.78,8.182 3.78,8.976C3.78,14.806 3.78,27.629 3.78,33.46C3.78,34.253 4.095,35.014 4.656,35.575C5.217,36.135 5.978,36.451 6.771,36.451C14.776,36.451 36.625,36.451 44.63,36.451C45.424,36.451 46.184,36.135 46.745,35.575C47.306,35.014 47.621,34.253 47.621,33.46C47.621,27.629 47.621,14.806 47.621,8.976Z" style="fill:#fff;"/>
            <path d="M44.705,5.986L44.779,5.988L44.853,5.993L44.926,5.999L44.999,6.007L45.072,6.017L45.145,6.029L45.217,6.043L45.288,6.058L45.36,6.075L45.43,6.093L45.5,6.114L45.57,6.136L45.639,6.16L45.707,6.185L45.775,6.212L45.842,6.241L45.908,6.271L45.974,6.303L46.039,6.337L46.103,6.372L46.166,6.409L46.228,6.447L46.29,6.487L46.35,6.529L46.41,6.571L46.468,6.616L46.526,6.662L46.583,6.709L46.638,6.758L46.692,6.809L46.745,6.861L46.797,6.914L46.848,6.968L46.897,7.024L46.944,7.08L46.99,7.138L47.035,7.196L47.078,7.256L47.119,7.316L47.159,7.378L47.197,7.44L47.234,7.503L47.269,7.567L47.303,7.632L47.335,7.698L47.365,7.764L47.394,7.831L47.421,7.899L47.446,7.967L47.47,8.036L47.492,8.106L47.513,8.176L47.531,8.247L47.548,8.318L47.563,8.389L47.577,8.461L47.589,8.534L47.599,8.607L47.607,8.68L47.613,8.753L47.618,8.827L47.621,8.901L47.621,8.976L47.621,33.46L47.621,33.534L47.618,33.608L47.613,33.682L47.607,33.755L47.599,33.828L47.589,33.901L47.577,33.974L47.563,34.046L47.548,34.117L47.531,34.189L47.513,34.259L47.492,34.329L47.47,34.399L47.446,34.468L47.421,34.536L47.394,34.604L47.365,34.671L47.335,34.738L47.303,34.803L47.269,34.868L47.234,34.932L47.197,34.995L47.159,35.058L47.119,35.119L47.078,35.179L47.035,35.239L46.99,35.298L46.944,35.355L46.897,35.412L46.848,35.467L46.797,35.521L46.745,35.575L46.692,35.626L46.638,35.677L46.583,35.726L46.526,35.773L46.468,35.819L46.41,35.864L46.35,35.907L46.29,35.948L46.228,35.988L46.166,36.026L46.103,36.063L46.039,36.098L45.974,36.132L45.908,36.164L45.842,36.194L45.775,36.223L45.707,36.25L45.639,36.275L45.57,36.299L45.5,36.321L45.43,36.342L45.36,36.36L45.288,36.377L45.217,36.393L45.145,36.406L45.072,36.418L44.999,36.428L44.926,36.436L44.853,36.442L44.779,36.447L44.705,36.45L44.63,36.451L6.771,36.451L6.697,36.45L6.623,36.447L6.549,36.442L6.475,36.436L6.402,36.428L6.329,36.418L6.257,36.406L6.185,36.393L6.113,36.377L6.042,36.36L5.971,36.342L5.901,36.321L5.832,36.299L5.763,36.275L5.694,36.25L5.626,36.223L5.559,36.194L5.493,36.164L5.427,36.132L5.363,36.098L5.299,36.063L5.235,36.026L5.173,35.988L5.112,35.948L5.051,35.907L4.992,35.864L4.933,35.819L4.875,35.773L4.819,35.726L4.764,35.677L4.709,35.626L4.656,35.575L4.604,35.521L4.554,35.467L4.505,35.412L4.457,35.355L4.411,35.298L4.367,35.239L4.324,35.179L4.283,35.119L4.243,35.058L4.204,34.995L4.168,34.932L4.132,34.868L4.099,34.803L4.067,34.738L4.036,34.671L4.008,34.604L3.981,34.536L3.955,34.468L3.931,34.399L3.909,34.329L3.889,34.259L3.87,34.189L3.853,34.117L3.838,34.046L3.825,33.974L3.813,33.901L3.803,33.828L3.795,33.755L3.788,33.682L3.784,33.608L3.781,33.534L3.78,33.46L3.78,8.976L3.781,8.901L3.784,8.827L3.788,8.753L3.795,8.68L3.803,8.607L3.813,8.534L3.825,8.461L3.838,8.389L3.853,8.318L3.87,8.247L3.889,8.176L3.909,8.106L3.931,8.036L3.955,7.967L3.981,7.899L4.008,7.831L4.036,7.764L4.067,7.698L4.099,7.632L4.132,7.567L4.168,7.503L4.204,7.44L4.243,7.378L4.283,7.316L4.324,7.256L4.367,7.196L4.411,7.138L4.457,7.08L4.505,7.024L4.554,6.968L4.604,6.914L4.656,6.861L4.709,6.809L4.764,6.758L4.819,6.709L4.875,6.662L4.933,6.616L4.992,6.571L5.051,6.529L5.112,6.487L5.173,6.447L5.235,6.409L5.299,6.372L5.363,6.337L5.427,6.303L5.493,6.271L5.559,6.241L5.626,6.212L5.694,6.185L5.763,6.16L5.832,6.136L5.901,6.114L5.971,6.093L6.042,6.075L6.113,6.058L6.185,6.043L6.257,6.029L6.329,6.017L6.402,6.007L6.475,5.999L6.549,5.993L6.623,5.988L6.697,5.986L6.771,5.985L44.63,5.985L44.705,5.986ZM6.786,8.485L6.759,8.485L6.747,8.485L6.734,8.486L6.723,8.487L6.71,8.489L6.699,8.49L6.688,8.492L6.675,8.494L6.662,8.497L6.652,8.5L6.639,8.503L6.628,8.506L6.617,8.509L6.604,8.514L6.596,8.517L6.583,8.522L6.569,8.528L6.564,8.531L6.551,8.537L6.54,8.542L6.53,8.548L6.516,8.556L6.508,8.561L6.501,8.566L6.489,8.574L6.477,8.583L6.468,8.589L6.46,8.596L6.451,8.603L6.442,8.611L6.434,8.619L6.423,8.63L6.413,8.64L6.408,8.645L6.403,8.65L6.394,8.662L6.384,8.674L6.375,8.687L6.37,8.693L6.364,8.701L6.355,8.715L6.35,8.723L6.345,8.732L6.336,8.748L6.331,8.758L6.326,8.768L6.322,8.778L6.32,8.781L6.313,8.8L6.308,8.812L6.304,8.824L6.3,8.837L6.299,8.842L6.295,8.855L6.292,8.87L6.29,8.876L6.288,8.891L6.285,8.907L6.284,8.914L6.283,8.922L6.282,8.939L6.28,8.957L6.28,8.985L6.28,33.45L6.28,33.478L6.282,33.496L6.283,33.514L6.285,33.528L6.288,33.544L6.29,33.56L6.292,33.565L6.295,33.58L6.299,33.594L6.3,33.598L6.304,33.611L6.308,33.623L6.313,33.635L6.32,33.654L6.327,33.668L6.331,33.678L6.336,33.687L6.345,33.703L6.35,33.712L6.355,33.72L6.364,33.734L6.369,33.741L6.375,33.749L6.384,33.761L6.394,33.774L6.403,33.785L6.408,33.791L6.414,33.796L6.422,33.805L6.433,33.816L6.442,33.824L6.451,33.832L6.46,33.84L6.469,33.847L6.477,33.853L6.488,33.861L6.501,33.869L6.508,33.874L6.515,33.878L6.531,33.887L6.54,33.893L6.55,33.898L6.564,33.905L6.57,33.907L6.583,33.913L6.596,33.918L6.605,33.922L6.616,33.925L6.628,33.929L6.639,33.932L6.651,33.935L6.663,33.938L6.676,33.941L6.688,33.943L6.698,33.945L6.71,33.947L6.723,33.948L6.734,33.949L6.747,33.95L6.758,33.95L6.786,33.951L44.616,33.951L44.643,33.95L44.655,33.95L44.667,33.949L44.679,33.948L44.692,33.947L44.704,33.945L44.714,33.943L44.725,33.941L44.738,33.938L44.751,33.935L44.762,33.932L44.773,33.929L44.785,33.925L44.796,33.922L44.806,33.918L44.818,33.913L44.831,33.907L44.838,33.905L44.851,33.898L44.865,33.891L44.871,33.887L44.883,33.881L44.893,33.874L44.901,33.869L44.913,33.861L44.924,33.853L44.932,33.847L44.941,33.84L44.95,33.832L44.959,33.824L44.968,33.816L44.979,33.805L44.988,33.796L44.993,33.791L45.003,33.78L45.008,33.774L45.017,33.761L45.027,33.749L45.032,33.741L45.037,33.734L45.042,33.727L45.051,33.712L45.06,33.696L45.065,33.687L45.066,33.685L45.075,33.668L45.08,33.657L45.084,33.646L45.089,33.635L45.09,33.632L45.097,33.611L45.101,33.598L45.103,33.594L45.106,33.58L45.11,33.565L45.111,33.56L45.114,33.544L45.117,33.528L45.117,33.521L45.119,33.504L45.12,33.496L45.121,33.488L45.121,33.469L45.122,33.441L45.122,8.994L45.121,8.966L45.121,8.948L45.12,8.939L45.119,8.931L45.117,8.914L45.116,8.907L45.114,8.891L45.111,8.876L45.11,8.87L45.106,8.855L45.103,8.842L45.101,8.837L45.097,8.824L45.09,8.803L45.089,8.8L45.084,8.789L45.08,8.778L45.075,8.768L45.066,8.75L45.065,8.748L45.06,8.739L45.051,8.723L45.042,8.709L45.037,8.701L45.032,8.693L45.027,8.686L45.017,8.674L45.008,8.662L45.003,8.656L44.994,8.645L44.988,8.64L44.979,8.63L44.968,8.619L44.959,8.611L44.95,8.603L44.941,8.596L44.933,8.589L44.925,8.583L44.912,8.574L44.901,8.566L44.893,8.561L44.882,8.554L44.872,8.548L44.865,8.544L44.85,8.537L44.838,8.531L44.832,8.528L44.818,8.522L44.806,8.517L44.797,8.514L44.784,8.509L44.773,8.506L44.762,8.503L44.75,8.5L44.739,8.497L44.726,8.494L44.713,8.492L44.703,8.49L44.693,8.489L44.679,8.487L44.667,8.486L44.655,8.485L44.642,8.485L44.616,8.485L6.786,8.485Z" style="fill:#9699c4;fill-opacity:0.61;"/>
            <rect x="8.638" y="28.942" width="7.489" height="0.86" style="fill:#2b307e;fill-opacity:0.35;"/>
            <rect x="8.638" y="30.894" width="2.496" height="0.86" style="fill:#2b307e;fill-opacity:0.35;"/>
            <rect x="17.249" y="28.942" width="2.496" height="0.86" style="fill:#2b307e;fill-opacity:0.35;"/>
            <rect x="17.249" y="30.894" width="2.496" height="0.86" style="fill:#2b307e;fill-opacity:0.35;"/>
            <g>
                <rect x="8.443" y="15.173" width="18.387" height="2.115" style="fill:#dddde3;"/>
                <rect x="22.994" y="15.173" width="11.041" height="2.115" style="fill:#ff92a4;"/>
                <rect x="30.205" y="15.173" width="6.421" height="2.115" style="fill:#5cff9d;"/>
            </g>
            <g>
                <rect x="8.443" y="19.398" width="18.387" height="2.115" style="fill:#dddde3;"/>
                <rect x="25.826" y="19.398" width="8.21" height="2.115" style="fill:#ff92a4;"/>
                <rect x="32.291" y="19.398" width="4.334" height="2.115" style="fill:#5cff9d;"/>
            </g>
            <g>
                <rect x="8.443" y="23.622" width="18.387" height="2.115" style="fill:#dddde3;"/>
                <rect x="19.094" y="23.622" width="14.942" height="2.115" style="fill:#ff92a4;"/>
                <rect x="28.521" y="23.622" width="8.105" height="2.115" style="fill:#5cff9d;"/>
            </g>
            <g opacity="0.54">
                <clipPath id="_clip2">
                    <rect x="7.868" y="10.058" width="3.267" height="3.134"/>
                </clipPath>
                <g clip-path="url(#_clip2)">
                    <g id="icon">
                        <rect id="bounds" x="6.021" y="8.286" width="6.96" height="6.676" style="fill:none;"/>
                        <path id="Oval" d="M9.519,13.158C10.156,13.158 10.673,12.658 10.673,12.043C10.673,11.446 10.288,10.796 9.519,10.092C8.75,10.796 8.365,11.446 8.365,12.043C8.365,12.658 8.882,13.158 9.519,13.158Z" style="fill:#f35;fill-rule:nonzero;"/>
                        <path id="Path-2" d="M8.823,12.532C8.773,12.472 8.783,12.384 8.846,12.336C8.908,12.288 9,12.298 9.05,12.358C9.257,12.605 9.635,12.645 9.894,12.448C9.929,12.421 9.96,12.391 9.988,12.358C10.038,12.298 10.129,12.288 10.192,12.336C10.255,12.384 10.265,12.472 10.215,12.532C10.174,12.581 10.127,12.625 10.076,12.665C9.691,12.958 9.13,12.899 8.823,12.532Z" style="fill:#fff;fill-rule:nonzero;"/>
                    </g>
                </g>
            </g>
            <ellipse cx="25.701" cy="42.561" rx="7.845" ry="0.949" style="fill:#adafd1;"/>
        </g>
        <g>
            <path d="M37.242,54.555C37.114,55.184 34.817,54.311 34.55,54.238C32.991,53.811 31.269,52.994 30.078,51.905C28.743,50.683 29.357,48.267 31.212,47.889C32.536,47.619 34.049,47.751 35.28,48.124C36.133,48.383 37.01,48.63 37.827,48.994" style="fill:#f3775b;"/>
            <clipPath id="_clip3">
                <path d="M37.242,54.555C37.114,55.184 34.817,54.311 34.55,54.238C32.991,53.811 31.269,52.994 30.078,51.905C28.743,50.683 29.357,48.267 31.212,47.889C32.536,47.619 34.049,47.751 35.28,48.124C36.133,48.383 37.01,48.63 37.827,48.994"/>
            </clipPath>
            <g clip-path="url(#_clip3)">
                <path d="M29.288,45.875C28.753,45.701 28.131,47.138 27.992,47.456C25.021,54.28 33.94,54.823 32.651,53.582C31.544,52.516 30.978,50.781 32.188,49.598C34.034,47.792 35.555,49.677 36.824,48.408C37.048,48.184 36.699,48 36.763,47.678C37.339,44.799 31.903,44.669 30.217,45.231C29.604,45.435 29.383,45.95 28.85,46.216" style="fill:#f3ab9b;"/>
            </g>
            <path d="M36.286,46.088C36.158,46.717 33.861,45.844 33.594,45.771C32.034,45.344 30.313,44.527 29.122,43.438C27.786,42.217 28.401,39.8 30.256,39.422C31.58,39.152 33.093,39.284 34.324,39.658C35.177,39.917 36.053,40.163 36.871,40.528" style="fill:#f3775b;"/>
            <clipPath id="_clip4">
                <path d="M36.286,46.088C36.158,46.717 33.861,45.844 33.594,45.771C32.034,45.344 30.313,44.527 29.122,43.438C27.786,42.217 28.401,39.8 30.256,39.422C31.58,39.152 33.093,39.284 34.324,39.658C35.177,39.917 36.053,40.163 36.871,40.528"/>
            </clipPath>
            <g clip-path="url(#_clip4)">
                <path d="M28.331,37.408C27.797,37.234 27.174,38.671 27.036,38.989C24.064,45.813 32.984,46.357 31.695,45.116C30.588,44.049 30.022,42.314 31.232,41.131C33.078,39.326 34.599,41.21 35.868,39.941C36.091,39.718 35.743,39.533 35.807,39.212C36.383,36.332 30.946,36.203 29.26,36.765C28.648,36.969 28.426,37.484 27.894,37.75" style="fill:#f3ab9b;"/>
            </g>
            <rect x="35.767" y="34.113" width="47.847" height="34.078" style="fill:none;"/>
            <clipPath id="_clip5">
                <rect x="35.767" y="34.113" width="47.847" height="34.078"/>
            </clipPath>
            <g clip-path="url(#_clip5)">
                <path d="M50.569,41.072C50.466,41.038 50.409,40.575 50.304,40.47C50.292,40.458 50.252,40.435 50.269,40.435C50.325,40.435 50.352,40.518 50.374,40.54C51.115,41.281 52.233,41.897 52.897,42.783C53.445,43.514 54.195,43.777 54.895,44.36C56.348,45.571 57.732,46.928 58.855,48.425C59.613,49.436 60.411,50.444 61.098,51.474C61.685,52.354 62.232,53.44 62.57,54.453C62.764,55.036 63.207,55.621 63.481,56.17C64.136,57.48 64.724,58.835 65.444,60.13C67.704,64.199 70.27,68.227 72.943,72.046C74.31,73.999 75.344,76.219 76.903,78.039C77.347,78.556 77.639,79.335 78.095,79.791C78.1,79.796 78.174,79.852 78.13,79.896C77.812,80.214 76.395,80.097 75.957,80.176C73.236,80.671 60.754,80.328 59.675,80.208C59.254,80.161 53.152,78.978 49.747,75.695C48.552,74.544 47.039,71.57 44.7,68.926C42.835,66.816 40.181,64.992 38.669,63.915C37.627,63.173 36.265,62.477 35.287,61.74C35.059,61.568 34.851,61.394 34.674,61.217C34.26,60.803 35.072,59.341 35.27,59.044C36.68,56.928 38.331,55.043 39.685,52.876C40.162,52.113 40.697,51.357 41.227,50.633C43.416,47.648 45.8,44.869 48.412,42.257C49.021,41.649 49.522,40.867 50.059,40.33C50.282,40.107 50.532,40.961 50.549,40.961" style="fill:#c06564;"/>
            </g>
            <path d="M57.317,26.526C57.317,24.039 55.301,22.023 52.814,22.023C48.968,22.023 43.463,22.023 39.617,22.023C37.131,22.023 35.115,24.039 35.115,26.526C35.115,34.535 35.115,51.168 35.115,59.178C35.115,61.664 37.131,63.68 39.617,63.68C43.463,63.68 48.968,63.68 52.814,63.68C55.301,63.68 57.317,61.664 57.317,59.178C57.317,51.168 57.317,34.535 57.317,26.526Z" style="fill:#fff;"/>
            <clipPath id="_clip6">
                <path d="M57.317,26.526C57.317,24.039 55.301,22.023 52.814,22.023C48.968,22.023 43.463,22.023 39.617,22.023C37.131,22.023 35.115,24.039 35.115,26.526C35.115,34.535 35.115,51.168 35.115,59.178C35.115,61.664 37.131,63.68 39.617,63.68C43.463,63.68 48.968,63.68 52.814,63.68C55.301,63.68 57.317,61.664 57.317,59.178C57.317,51.168 57.317,34.535 57.317,26.526Z"/>
            </clipPath>
            <g clip-path="url(#_clip6)">
                <path d="M53.583,41.484C53.583,41.484 51.377,46.076 53.946,48.366C56.515,50.655 57.425,51.355 57.425,51.355L57.425,45.515L53.583,41.484Z" style="fill:#cfd0e2;"/>
                <path d="M34.815,56.136C34.815,56.136 39.033,55.965 39.023,59.593C39.015,62.707 35.28,62.598 35.28,62.598L34.815,56.136Z" style="fill:#cfd0e2;"/>
            </g>
            <path d="M53.091,21.351C55.481,21.397 57.618,23.5 57.664,25.925C57.736,37.186 57.877,48.45 57.663,59.71C57.589,62.062 55.524,64.148 53.15,64.223C48.544,64.31 43.935,64.31 39.328,64.223C36.976,64.148 34.891,62.084 34.816,59.71C34.601,48.43 34.601,37.145 34.816,25.865C34.89,23.513 36.955,21.427 39.328,21.352C43.915,21.265 48.503,21.322 53.091,21.351ZM39.454,24.154C37.987,24.163 36.665,25.445 36.638,26.929C36.538,38.167 36.437,47.749 36.639,58.986C36.684,60.429 37.957,61.694 39.411,61.721C43.975,61.749 48.541,61.808 53.104,61.721C54.537,61.676 55.795,60.42 55.84,58.986C56.042,47.725 56.194,38.113 55.839,26.855C55.775,25.427 54.508,24.182 53.068,24.155C48.53,24.127 43.992,24.154 39.454,24.154Z" style="fill:#636693;"/>
            <clipPath id="_clip7">
                <path d="M53.091,21.351C55.481,21.397 57.618,23.5 57.664,25.925C57.736,37.186 57.877,48.45 57.663,59.71C57.589,62.062 55.524,64.148 53.15,64.223C48.544,64.31 43.935,64.31 39.328,64.223C36.976,64.148 34.891,62.084 34.816,59.71C34.601,48.43 34.601,37.145 34.816,25.865C34.89,23.513 36.955,21.427 39.328,21.352C43.915,21.265 48.503,21.322 53.091,21.351ZM39.454,24.154C37.987,24.163 36.665,25.445 36.638,26.929C36.538,38.167 36.437,47.749 36.639,58.986C36.684,60.429 37.957,61.694 39.411,61.721C43.975,61.749 48.541,61.808 53.104,61.721C54.537,61.676 55.795,60.42 55.84,58.986C56.042,47.725 56.194,38.113 55.839,26.855C55.775,25.427 54.508,24.182 53.068,24.155C48.53,24.127 43.992,24.154 39.454,24.154Z"/>
            </clipPath>
            <g clip-path="url(#_clip7)">
                <path d="M62.183,18.897L31.594,48.979L31.806,67.89L62.183,67.89L62.183,18.897Z" style="fill:#2b307e;"/>
                <path d="M34.505,55.584C34.505,55.584 38.847,55.407 38.837,59.141C38.829,62.347 34.984,62.234 34.984,62.234L34.505,55.584Z"/>
            </g>
            <rect x="40.803" y="29.404" width="37.776" height="36.173" style="fill:none;"/>
            <clipPath id="_clip8">
                <rect x="40.803" y="29.404" width="37.776" height="36.173"/>
            </clipPath>
            <g clip-path="url(#_clip8)">
                <path d="M55.891,67.9C54.906,65.193 54.391,58.423 56.308,55.548C56.868,54.708 58.854,51.826 58.867,51.209C58.886,50.259 58.317,48.265 58.073,47.789C56.263,44.261 54.879,45.666 53.478,42.233C52.629,40.154 53.475,38.467 54.144,37.563C54.296,37.374 54.517,37.253 54.758,37.227C55,37.201 55.242,37.272 55.43,37.425C56.124,37.92 57.138,38.758 57.901,39.469C59.357,40.828 61.565,41.615 62.537,42.587C63.94,43.99 66.17,48.388 68.609,51.695C69.383,52.745 68.539,64.481 69.369,67.803C70.045,70.504 75.19,74.68 76.947,77.022C77.658,77.97 78.753,79.598 79.729,80.249C80.163,80.539 80.834,81.672 80.786,81.529" style="fill:#c06564;"/>
                <clipPath id="_clip9">
                    <path d="M55.891,67.9C54.906,65.193 54.391,58.423 56.308,55.548C56.868,54.708 58.854,51.826 58.867,51.209C58.886,50.259 58.317,48.265 58.073,47.789C56.263,44.261 54.879,45.666 53.478,42.233C52.629,40.154 53.475,38.467 54.144,37.563C54.296,37.374 54.517,37.253 54.758,37.227C55,37.201 55.242,37.272 55.43,37.425C56.124,37.92 57.138,38.758 57.901,39.469C59.357,40.828 61.565,41.615 62.537,42.587C63.94,43.99 66.17,48.388 68.609,51.695C69.383,52.745 68.539,64.481 69.369,67.803C70.045,70.504 75.19,74.68 76.947,77.022C77.658,77.97 78.753,79.598 79.729,80.249C80.163,80.539 80.834,81.672 80.786,81.529"/>
                </clipPath>
                <g clip-path="url(#_clip9)">
                    <path d="M56.007,30.237C56.065,30.289 55.841,30.157 55.776,30.201C55.206,30.581 54.761,31.349 54.455,31.962C53.646,33.58 54.84,32.676 54.073,34.111C51.624,38.69 54.406,41.192 58.64,44.352C60.076,45.423 62.385,47.042 60.773,51.203C60.727,51.323 60.696,51.448 60.616,51.531C58.801,53.375 56.318,53.349 56.178,59.613C56.052,65.247 65.327,69.706 69.799,72.988C72.213,74.76 79.253,84.115 81.655,85.952C87.612,90.507 85.172,88.645 87.565,80.571C88.842,76.258 87.221,71.13 85.755,67.07C83.989,62.179 82.355,57.161 79.738,52.64C77.659,49.049 75.07,45.865 72.401,42.71C70.773,40.787 69.048,38.605 66.971,37.134C64.77,35.574 62.092,33.63 59.39,33.123C59.184,33.084 55.956,30.234 55.874,30.152" style="fill:#f3775b;"/>
                    <path d="M53.157,34.064C53.157,34.064 53.738,37.504 61.722,44.214C64.374,46.444 66.83,52.044 66.955,56.063C67.171,63.06 71.309,64.771 71.309,64.771L71.33,36.379L53.157,34.064Z" style="fill:#f3ab9b;"/>
                    <path d="M55.313,36.11C55.313,36.11 55.881,37.643 57.585,38.519C57.788,39.33 57.492,40.035 56.837,40.663C56.837,40.663 53.278,39.491 55.313,36.11Z" style="fill:#f6c9bf;"/>
                </g>
            </g>
            <path d="M31.024,58.631C31.011,60.369 31.754,61.05 32.124,61.298C33.106,61.955 34.267,61.827 35.081,61.05C35.454,60.695 35.656,59.949 35.718,59.457C35.834,58.549 35.814,56.949 34.875,56.419C34.318,56.106 33.314,56.01 32.765,56.181C31.765,56.492 31.03,57.771 31.024,58.631Z" style="fill:#f3775b;"/>
            <clipPath id="_clip10">
                <path d="M31.024,58.631C31.011,60.369 31.754,61.05 32.124,61.298C33.106,61.955 34.267,61.827 35.081,61.05C35.454,60.695 35.656,59.949 35.718,59.457C35.834,58.549 35.814,56.949 34.875,56.419C34.318,56.106 33.314,56.01 32.765,56.181C31.765,56.492 31.03,57.771 31.024,58.631Z"/>
            </clipPath>
            <g clip-path="url(#_clip10)">
                <path d="M32.359,55.009C32.415,54.978 32.202,54.922 32.231,54.864C32.291,54.743 32.63,54.655 32.753,54.62C33.82,54.315 35.135,54.955 34.875,56.255C34.804,56.61 34.499,56.84 34.284,57.056C33.62,57.719 33.483,58.682 33.483,59.595C33.483,60.803 34.801,62.403 34.005,63.596C33.42,64.475 31.772,65.396 30.665,64.953C29.672,64.556 29.392,62.838 29.1,61.961C28.03,58.752 28.915,54.412 32.961,54.412" style="fill:#f3ab9b;"/>
            </g>
            <clipPath id="_clip11">
                <rect x="38.694" y="27.858" width="14.65" height="14.053"/>
            </clipPath>
            <g clip-path="url(#_clip11)">
                <g id="icon1" serif:id="icon">
                    <rect id="bounds1" serif:id="bounds" x="30.413" y="19.915" width="31.211" height="29.939" style="fill:none;"/>
                    <path id="Oval1" serif:id="Oval" d="M46.098,41.758C48.957,41.758 51.274,39.52 51.274,36.759C51.274,34.086 49.548,31.169 46.098,28.011C42.648,31.169 40.923,34.086 40.923,36.759C40.923,39.52 43.24,41.758 46.098,41.758Z" style="fill:#f35;fill-rule:nonzero;"/>
                    <path id="Path-21" serif:id="Path-2" d="M42.977,38.952C42.752,38.683 42.797,38.291 43.079,38.076C43.36,37.861 43.771,37.905 43.997,38.173C44.925,39.281 46.619,39.461 47.78,38.575C47.935,38.456 48.076,38.322 48.2,38.173C48.425,37.905 48.836,37.861 49.118,38.076C49.399,38.291 49.445,38.683 49.22,38.952C49.035,39.172 48.826,39.372 48.595,39.548C46.871,40.864 44.356,40.597 42.977,38.952Z" style="fill:#fff;fill-rule:nonzero;"/>
                </g>
            </g>
            <g>
                <rect x="39.527" y="47.746" width="8.754" height="1.005" style="fill:#2b307e;fill-opacity:0.35;"/>
                <rect x="49.592" y="47.746" width="2.918" height="1.005" style="fill:#2b307e;fill-opacity:0.35;"/>
                <rect x="39.527" y="53.35" width="8.754" height="1.005" style="fill:#2b307e;fill-opacity:0.35;"/>
                <rect x="49.592" y="53.35" width="2.918" height="1.005" style="fill:#2b307e;fill-opacity:0.35;"/>
                <rect x="39.527" y="50.444" width="6.039" height="1.005" style="fill:#2b307e;fill-opacity:0.35;"/>
                <rect x="49.592" y="50.444" width="2.918" height="1.005" style="fill:#2b307e;fill-opacity:0.35;"/>
                <rect x="39.527" y="56.048" width="6.039" height="1.005" style="fill:#2b307e;fill-opacity:0.35;"/>
                <rect x="50.497" y="56.048" width="2.013" height="1.005" style="fill:#2b307e;fill-opacity:0.35;"/>
            </g>
            <g>
                <circle cx="46.132" cy="22.995" r="0.727" style="fill:#fff;fill-opacity:0.25;"/>
                <circle cx="46.132" cy="22.75" r="0.727" style="fill:#1c2053;"/>
            </g>
        </g>
    </g>
</svg>
