<?xml version="1.0" encoding="UTF-8" standalone="no"?>
<!DOCTYPE svg PUBLIC "-//W3C//DTD SVG 1.1//EN" "http://www.w3.org/Graphics/SVG/1.1/DTD/svg11.dtd">
<svg width="100%" height="100%" viewBox="0 0 64 65" version="1.1" xmlns="http://www.w3.org/2000/svg" xmlns:xlink="http://www.w3.org/1999/xlink" xml:space="preserve" xmlns:serif="http://www.serif.com/" style="fill-rule:evenodd;clip-rule:evenodd;stroke-linejoin:round;stroke-miterlimit:1.41421;">
    <rect id="Lab-PE" x="0" y="0.853" width="64" height="64" style="fill:none;"/>
    <path d="M51.5,60.553L48.433,57.853L18.5,57.853L11.5,60.673L11.5,62.353L51.5,62.353L51.5,60.553Z" style="fill:#c7ccd1;"/>
    <path d="M31,22.853C31,22.853 36.205,26.323 40.768,29.365C44.974,32.169 47.5,36.889 47.5,41.944C47.5,42.792 47.5,43.353 47.5,43.353L40,43.353C40,43.353 40,42.565 40,41.499C40,37.895 38.515,34.451 35.895,31.977C33.522,29.735 31,27.353 31,27.353L31,22.853Z" style="fill:#abb3ba;"/>
    <clipPath id="_clip1">
        <path d="M31,22.853C31,22.853 36.205,26.323 40.768,29.365C44.974,32.169 47.5,36.889 47.5,41.944C47.5,42.792 47.5,43.353 47.5,43.353L40,43.353C40,43.353 40,42.565 40,41.499C40,37.895 38.515,34.451 35.895,31.977C33.522,29.735 31,27.353 31,27.353L31,22.853Z"/>
    </clipPath>
    <g clip-path="url(#_clip1)">
        <rect x="30" y="19.853" width="6.5" height="18" style="fill:#3b3b48;fill-opacity:0.247059;"/>
    </g>
    <path d="M47.5,41.853C47.5,41.853 42.009,41.853 38.164,41.853C36.141,41.853 34.5,43.494 34.5,45.518C34.5,51.291 34.5,61.853 34.5,61.853L47.5,61.853L47.5,41.853Z" style="fill:#c7ccd1;"/>
    <rect x="10.5" y="43.853" width="24" height="2" style="fill:#3bbc53;"/>
    <path d="M41.632,1.257L23.404,19.485L27.272,23.353L45.5,5.125L41.632,1.257Z" style="fill:#c7ccd1;"/>
    <clipPath id="_clip2">
        <path d="M41.632,1.257L23.404,19.485L27.272,23.353L45.5,5.125L41.632,1.257Z"/>
    </clipPath>
    <g clip-path="url(#_clip2)">
        <path d="M42.732,-1.879L36.296,4.557L43.458,11.719L49.895,5.283L42.732,-1.879Z" style="fill:#3bbc53;"/>
        <clipPath id="_clip3">
            <path d="M42.732,-1.879L36.296,4.557L43.458,11.719L49.895,5.283L42.732,-1.879Z"/>
        </clipPath>
        <g clip-path="url(#_clip3)">
            <path d="M45.923,1.311L39.486,7.748L46.648,14.91L53.085,8.473L45.923,1.311Z" style="fill:#329f46;"/>
        </g>
        <path d="M39.514,7.628L26.901,20.24L34.063,27.403L46.676,14.79L39.514,7.628Z" style="fill:#8f959e;fill-opacity:0.529412;"/>
    </g>
    <g>
        <path d="M31,21.853C31,18.263 28.09,15.353 24.5,15.353C24.5,15.353 24.5,15.353 24.5,15.353C20.91,15.353 18,18.263 18,21.853C18,24.678 18,27.353 18,27.353L31,27.353C31,27.353 31,24.678 31,21.853Z" style="fill:#c7ccd1;"/>
        <clipPath id="_clip4">
            <path d="M31,21.853C31,18.263 28.09,15.353 24.5,15.353C24.5,15.353 24.5,15.353 24.5,15.353C20.91,15.353 18,18.263 18,21.853C18,24.678 18,27.353 18,27.353L31,27.353C31,27.353 31,24.678 31,21.853Z"/>
        </clipPath>
        <g clip-path="url(#_clip4)">
            <rect x="15" y="21.853" width="17" height="1" style="fill:#8f959e;"/>
        </g>
        <path d="M24.5,31.353L31,27.353L18,27.353L24.5,31.353Z" style="fill:#c0c0c0;"/>
        <path d="M24.5,31.353L31,27.353L18,27.353L24.5,31.353Z" style="fill:#8f959e;"/>
    </g>
    <g>
        <path d="M26.46,29.366L22.46,29.366C22.46,29.366 22.46,30.694 22.46,31.908C22.46,32.427 22.667,32.925 23.034,33.292C23.401,33.66 23.899,33.866 24.419,33.866C24.425,33.866 24.431,33.866 24.437,33.866C25.555,33.866 26.46,32.96 26.46,31.843C26.46,30.648 26.46,29.366 26.46,29.366Z" style="fill:#3bbc53;"/>
    </g>
    <circle cx="41" cy="48.353" r="4" style="fill:#3bbc53;"/>
    <path d="M30,55.828C30,53.081 27.772,50.853 25.025,50.853C24.698,50.853 24.37,50.853 24.043,50.853C22.705,50.853 21.423,51.384 20.477,52.33C19.531,53.276 19,54.559 19,55.896C19,57.003 19,57.853 19,57.853L30,57.853C30,57.853 30,56.969 30,55.828Z" style="fill:#3bbc53;"/>
</svg>
