<?xml version="1.0" encoding="UTF-8" standalone="no"?>
<!DOCTYPE svg PUBLIC "-//W3C//DTD SVG 1.1//EN" "http://www.w3.org/Graphics/SVG/1.1/DTD/svg11.dtd">
<svg width="100%" height="100%" viewBox="0 0 64 65" version="1.1" xmlns="http://www.w3.org/2000/svg" xmlns:xlink="http://www.w3.org/1999/xlink" xml:space="preserve" xmlns:serif="http://www.serif.com/" style="fill-rule:evenodd;clip-rule:evenodd;stroke-linejoin:round;stroke-miterlimit:2;">
    <rect id="Laboratory" x="0" y="0.458" width="64" height="64" style="fill:none;"/>
    <path d="M52.5,60.158L49.433,57.458L19.5,57.458L12.5,60.278L12.5,61.958L52.5,61.958L52.5,60.158Z" style="fill:#f1765a;"/>
    <clipPath id="_clip1">
        <path d="M52.5,60.158L49.433,57.458L19.5,57.458L12.5,60.278L12.5,61.958L52.5,61.958L52.5,60.158Z"/>
    </clipPath>
    <g clip-path="url(#_clip1)">
        <rect x="7.456" y="60.179" width="48.099" height="4.279" style="fill:#c26564;"/>
    </g>
    <path d="M32,22.458C32,22.458 37.205,25.928 41.768,28.971C45.974,31.774 48.5,36.494 48.5,41.549C48.5,42.398 48.5,42.958 48.5,42.958L41,42.958L41,41.104C41,37.501 39.515,34.056 36.895,31.582C34.522,29.34 32,26.958 32,26.958L32,22.458Z" style="fill:#f1765a;"/>
    <clipPath id="_clip2">
        <path d="M32,22.458C32,22.458 37.205,25.928 41.768,28.971C45.974,31.774 48.5,36.494 48.5,41.549C48.5,42.398 48.5,42.958 48.5,42.958L41,42.958L41,41.104C41,37.501 39.515,34.056 36.895,31.582C34.522,29.34 32,26.958 32,26.958L32,22.458Z"/>
    </clipPath>
    <g clip-path="url(#_clip2)">
        <rect x="31" y="19.458" width="6.5" height="18" style="fill:#c26564;"/>
    </g>
    <path d="M48.5,41.458L39.164,41.458C37.141,41.458 35.5,43.099 35.5,45.123C35.5,50.324 35.5,59.222 35.5,59.222L48.5,59.222L48.5,41.458Z" style="fill:#f1765a;"/>
    <rect x="11.5" y="43.458" width="24" height="2" style="fill:#2b307e;"/>
    <path d="M42.632,0.862L24.404,19.09L28.272,22.958L46.5,4.73L42.632,0.862Z" style="fill:#f1765a;"/>
    <clipPath id="_clip3">
        <path d="M42.632,0.862L24.404,19.09L28.272,22.958L46.5,4.73L42.632,0.862Z"/>
    </clipPath>
    <g clip-path="url(#_clip3)">
        <path d="M48,-0.253L27.901,19.846L35.063,27.008L55.162,6.909L48,-0.253Z" style="fill:#2b307e;fill-opacity:0.25;"/>
        <path d="M38.494,-7.384L18.395,12.715L25.557,19.877L45.656,-0.222L38.494,-7.384Z" style="fill:#efa9a1;"/>
        <path d="M43.732,-2.274L37.296,4.163L44.458,11.325L50.895,4.888L43.732,-2.274Z" style="fill:#2b307e;"/>
        <clipPath id="_clip4">
            <path d="M43.732,-2.274L37.296,4.163L44.458,11.325L50.895,4.888L43.732,-2.274Z"/>
        </clipPath>
        <g clip-path="url(#_clip4)">
            <path d="M38.494,-7.384L18.395,12.715L25.557,19.877L45.656,-0.222L38.494,-7.384Z" style="fill:#8184b5;"/>
        </g>
    </g>
    <g>
        <path d="M32,21.458C32,17.868 29.09,14.958 25.5,14.958C25.499,14.958 25.499,14.958 25.498,14.958C23.775,14.958 22.122,15.643 20.903,16.862C19.685,18.08 19,19.733 19,21.456C19,24.281 19,26.958 19,26.958L32,26.958L32,21.458Z" style="fill:#f1765a;"/>
        <clipPath id="_clip5">
            <path d="M32,21.458C32,17.868 29.09,14.958 25.5,14.958C25.499,14.958 25.499,14.958 25.498,14.958C23.775,14.958 22.122,15.643 20.903,16.862C19.685,18.08 19,19.733 19,21.456C19,24.281 19,26.958 19,26.958L32,26.958L32,21.458Z"/>
        </clipPath>
        <g clip-path="url(#_clip5)">
            <path d="M34.84,22.413C34.84,18.823 31.93,15.913 28.34,15.913C28.34,15.913 28.34,15.913 28.34,15.913C24.751,15.913 21.84,18.823 21.84,22.413C21.84,25.237 21.84,27.913 21.84,27.913L34.84,27.913L34.84,22.413Z" style="fill:#c26564;fill-opacity:0.56;"/>
            <path d="M28.34,22.458L17.716,22.458L17.716,23.632L28.34,22.458Z" style="fill:#efa9a1;"/>
            <rect x="16" y="21.458" width="17" height="1" style="fill:#2b307e;"/>
        </g>
        <path d="M25.5,30.958L32,26.958L19,26.958L25.5,30.958Z" style="fill:#f1765a;"/>
        <path d="M25.5,30.958L32,26.958L19,26.958L25.5,30.958Z" style="fill:#c26564;"/>
    </g>
    <g>
        <path d="M27.46,28.971L23.46,28.971L23.46,31.513C23.46,32.032 23.667,32.53 24.034,32.898C24.401,33.265 24.899,33.471 25.419,33.471C25.425,33.471 25.431,33.471 25.437,33.471C26.555,33.471 27.46,32.566 27.46,31.448C27.46,30.253 27.46,28.971 27.46,28.971Z" style="fill:#2b307e;"/>
    </g>
    <circle cx="42.978" cy="49.24" r="4" style="fill:#c26564;"/>
    <circle cx="42" cy="47.958" r="4" style="fill:#2b307e;"/>
    <path d="M31,55.434C31,52.686 28.772,50.458 26.025,50.458C25.698,50.458 25.37,50.458 25.043,50.458C23.705,50.458 22.423,50.99 21.477,51.935C20.531,52.881 20,54.164 20,55.501C20,56.609 20,57.458 20,57.458L31,57.458L31,55.434Z" style="fill:#2b307e;"/>
</svg>
