<?xml version="1.0" encoding="UTF-8" standalone="no"?>
<!DOCTYPE svg PUBLIC "-//W3C//DTD SVG 1.1//EN" "http://www.w3.org/Graphics/SVG/1.1/DTD/svg11.dtd">
<svg width="100%" height="100%" viewBox="0 0 64 65" version="1.1" xmlns="http://www.w3.org/2000/svg" xmlns:xlink="http://www.w3.org/1999/xlink" xml:space="preserve" xmlns:serif="http://www.serif.com/" style="fill-rule:evenodd;clip-rule:evenodd;stroke-linejoin:round;stroke-miterlimit:1.41421;">
    <rect id="Legal" x="0" y="0.961" width="64" height="64" style="fill:none;"/>
    <path d="M60,60.961C60,58.199 57.761,55.961 55,55.961C48.561,55.961 37.436,55.961 30.998,55.961C29.672,55.961 28.401,56.487 27.464,57.424C26.527,58.362 26,59.633 26,60.959C26,60.96 26,60.961 26,60.961L60,60.961C60,60.961 60,60.961 60,60.961Z" style="fill:#2b307e;"/>
    <g>
        <path d="M31.454,10.818L21.301,20.972L38.484,38.154L48.637,28.001L31.454,10.818Z" style="fill:#2b307e;"/>
        <path d="M29.111,25.658C29.111,25.658 13.135,41.634 6.729,48.04C6.037,48.732 5.648,49.671 5.648,50.651C5.648,51.63 6.037,52.569 6.729,53.261C6.73,53.262 6.731,53.263 6.731,53.264C7.876,54.409 9.733,54.409 10.878,53.264C16.872,47.27 33.797,30.344 33.797,30.344L29.111,25.658Z" style="fill:#2b307e;"/>
        <path d="M32.441,8.4C31.646,7.605 30.357,7.605 29.562,8.4C26.876,11.086 21.128,16.834 18.417,19.545C17.603,20.359 17.603,21.679 18.417,22.493C18.417,22.493 18.418,22.494 18.418,22.494C18.777,22.853 19.264,23.055 19.772,23.055C20.279,23.055 20.766,22.853 21.125,22.494C23.801,19.819 29.74,13.879 32.443,11.176C33.209,10.41 33.209,9.168 32.443,8.402C32.442,8.401 32.442,8.401 32.441,8.4Z" style="fill:#2b307e;"/>
        <path d="M51.2,26.932C50.82,26.552 50.305,26.339 49.768,26.339C49.232,26.339 48.717,26.552 48.337,26.932C45.684,29.585 40.022,35.247 37.273,37.997C36.858,38.411 36.625,38.973 36.625,39.559C36.625,40.145 36.858,40.708 37.273,41.122C37.273,41.123 37.274,41.123 37.274,41.123C37.972,41.822 39.104,41.822 39.803,41.123C42.43,38.496 48.464,32.462 51.201,29.725C51.571,29.355 51.779,28.853 51.779,28.329C51.779,27.806 51.571,27.304 51.201,26.933C51.2,26.933 51.2,26.933 51.2,26.932Z" style="fill:#2b307e;"/>
        <path d="M36.153,15.517L26,25.671L33.847,33.517L44,23.364L36.153,15.517Z" style="fill:#f3775b;"/>
        <path d="M28.71,22.961L26,25.671L33.847,33.517L36.557,30.807L28.71,22.961Z" style="fill:#2b307e;fill-opacity:0.235294;"/>
    </g>
    <rect x="32" y="52.961" width="22" height="4.837" style="fill:#2b307e;"/>
</svg>
