<?xml version="1.0" encoding="UTF-8" standalone="no"?>
<!DOCTYPE svg PUBLIC "-//W3C//DTD SVG 1.1//EN" "http://www.w3.org/Graphics/SVG/1.1/DTD/svg11.dtd">
<svg width="100%" height="100%" viewBox="0 0 64 65" version="1.1" xmlns="http://www.w3.org/2000/svg" xmlns:xlink="http://www.w3.org/1999/xlink" xml:space="preserve" xmlns:serif="http://www.serif.com/" style="fill-rule:evenodd;clip-rule:evenodd;stroke-linejoin:round;stroke-miterlimit:1.41421;">
    <rect id="Legal-PE" x="0" y="0.853" width="64" height="64" style="fill:none;"/>
    <g>
        <path d="M31.454,10.711L21.301,20.864L38.484,38.047L48.637,27.893L31.454,10.711Z" style="fill:#c7ccd1;"/>
        <clipPath id="_clip1">
            <path d="M31.454,10.711L21.301,20.864L38.484,38.047L48.637,27.893L31.454,10.711Z"/>
        </clipPath>
        <g clip-path="url(#_clip1)">
            <path d="M35.779,4.611L17.544,22.845L20.249,25.55L38.484,7.316L35.779,4.611Z" style="fill:#a9afb6;"/>
        </g>
        <path d="M29.111,25.55C29.111,25.55 13.135,41.527 6.729,47.933C6.037,48.625 5.648,49.564 5.648,50.543C5.648,51.522 6.037,52.461 6.729,53.154C6.73,53.155 6.731,53.155 6.731,53.156C7.876,54.301 9.733,54.301 10.878,53.156C16.872,47.162 33.797,30.236 33.797,30.236L29.111,25.55Z" style="fill:#b3b6c0;"/>
        <path d="M32.441,8.293C31.646,7.498 30.357,7.498 29.562,8.293C26.876,10.979 21.128,16.726 18.417,19.438C17.603,20.252 17.603,21.571 18.417,22.385C18.417,22.386 18.418,22.386 18.418,22.387C18.777,22.746 19.264,22.947 19.772,22.947C20.279,22.947 20.766,22.746 21.125,22.387C23.801,19.711 29.74,13.772 32.443,11.069C33.209,10.303 33.209,9.06 32.443,8.294C32.442,8.294 32.442,8.293 32.441,8.293Z" style="fill:#c7ccd1;"/>
        <path d="M51.208,26.833C50.413,26.038 49.124,26.038 48.329,26.833C45.672,29.49 40.019,35.143 37.273,37.889C36.858,38.304 36.625,38.866 36.625,39.452C36.625,40.038 36.858,40.6 37.273,41.015C37.273,41.015 37.274,41.016 37.274,41.016C37.972,41.714 39.104,41.714 39.803,41.016C42.433,38.386 48.476,32.342 51.209,29.609C51.976,28.843 51.976,27.601 51.209,26.834C51.209,26.834 51.209,26.834 51.208,26.833Z" style="fill:#c7ccd1;"/>
        <path d="M36.153,15.41L26,25.563L33.847,33.41L44,23.256L36.153,15.41Z" style="fill:#50c866;"/>
        <path d="M24.773,18.917L22.063,21.627L37.84,37.403L40.55,34.693L24.773,18.917Z" style="fill:#8f959e;"/>
        <path d="M28.71,22.853L26,25.563L33.847,33.41L36.557,30.7L28.71,22.853Z" style="fill:#329f46;"/>
    </g>
    <rect x="32" y="52.853" width="22" height="4.837" style="fill:#c7ccd1;"/>
    <path d="M60,60.853C60,58.092 57.761,55.853 55,55.853C48.561,55.853 37.436,55.853 30.998,55.853C29.672,55.853 28.401,56.38 27.464,57.317C26.527,58.254 26,59.526 26,60.851C26,60.852 26,60.853 26,60.853L60,60.853C60,60.853 60,60.853 60,60.853Z" style="fill:#adb4bc;"/>
</svg>
