<?xml version="1.0" encoding="UTF-8" standalone="no"?>
<!DOCTYPE svg PUBLIC "-//W3C//DTD SVG 1.1//EN" "http://www.w3.org/Graphics/SVG/1.1/DTD/svg11.dtd">
<svg width="100%" height="100%" viewBox="0 0 64 65" version="1.1" xmlns="http://www.w3.org/2000/svg" xmlns:xlink="http://www.w3.org/1999/xlink" xml:space="preserve" xmlns:serif="http://www.serif.com/" style="fill-rule:evenodd;clip-rule:evenodd;stroke-linejoin:round;stroke-miterlimit:1.41421;">
    <rect id="Legal-PE" x="0" y="0.171" width="64" height="64" style="fill:none;"/>
    <path d="M60,60.171C60,57.409 57.761,55.171 55,55.171C48.562,55.171 37.438,55.171 31,55.171C28.239,55.171 26,57.409 26,60.171C26,60.171 26,60.171 26,60.171L60,60.171C60,60.171 60,60.171 60,60.171Z" style="fill:#39b54a;"/>
    <g>
        <path d="M31.454,10.028L21.301,20.182L38.484,37.364L48.637,27.211L31.454,10.028Z" style="fill:#39b54a;"/>
        <clipPath id="_clip1">
            <path d="M31.454,10.028L21.301,20.182L38.484,37.364L48.637,27.211L31.454,10.028Z"/>
        </clipPath>
        <g clip-path="url(#_clip1)">
            <path d="M35.779,3.929L17.544,22.163L20.249,24.868L38.484,6.633L35.779,3.929Z" style="fill:#a9afb6;"/>
        </g>
        <path d="M29.111,24.868C29.111,24.868 13.135,40.844 6.729,47.25C6.037,47.943 5.648,48.882 5.648,49.861C5.648,50.84 6.037,51.779 6.729,52.471C6.73,52.472 6.731,52.473 6.731,52.474C7.876,53.619 9.733,53.619 10.878,52.474C16.872,46.48 33.797,29.554 33.797,29.554L29.111,24.868Z" style="fill:#39b54a;"/>
        <path d="M32.415,7.584C31.634,6.803 30.369,6.803 29.589,7.584C26.915,10.258 21.138,16.035 18.417,18.756C17.603,19.57 17.603,20.889 18.417,21.703C18.417,21.703 18.418,21.704 18.418,21.704C18.777,22.063 19.264,22.265 19.772,22.265C20.279,22.265 20.766,22.063 21.125,21.704C23.792,19.038 29.701,13.128 32.416,10.413C33.197,9.632 33.197,8.366 32.416,7.585C32.416,7.585 32.415,7.584 32.415,7.584Z" style="fill:#39b54a;"/>
        <path d="M51.2,26.142C50.82,25.763 50.305,25.549 49.768,25.549C49.232,25.549 48.717,25.763 48.337,26.142C45.684,28.796 40.022,34.457 37.273,37.207C36.858,37.621 36.625,38.183 36.625,38.77C36.625,39.356 36.858,39.918 37.273,40.332C37.273,40.333 37.274,40.333 37.274,40.334C37.972,41.032 39.104,41.032 39.803,40.334C42.43,37.706 48.464,31.672 51.201,28.935C51.571,28.565 51.779,28.063 51.779,27.54C51.779,27.016 51.571,26.514 51.201,26.144C51.2,26.143 51.2,26.143 51.2,26.142Z" style="fill:#39b54a;"/>
        <path d="M36.153,14.727L26,24.881L33.847,32.727L44,22.574L36.153,14.727Z" style="fill:#dfdff2;"/>
        <path d="M24.671,18.132L21.961,20.842L37.745,36.626L40.455,33.916L24.671,18.132Z" style="fill:#2b307e;fill-opacity:0.235294;"/>
    </g>
    <rect x="32" y="52.171" width="22" height="4.837" style="fill:#39b54a;"/>
</svg>
