<?xml version="1.0" encoding="UTF-8" standalone="no"?>
<!DOCTYPE svg PUBLIC "-//W3C//DTD SVG 1.1//EN" "http://www.w3.org/Graphics/SVG/1.1/DTD/svg11.dtd">
<svg width="100%" height="100%" viewBox="0 0 65 64" version="1.1" xmlns="http://www.w3.org/2000/svg" xmlns:xlink="http://www.w3.org/1999/xlink" xml:space="preserve" xmlns:serif="http://www.serif.com/" style="fill-rule:evenodd;clip-rule:evenodd;stroke-linejoin:round;stroke-miterlimit:2;">
    <rect id="Legal-PE" x="0.738" y="0" width="64" height="64" style="fill:none;"/>
    <g>
        <path d="M32.193,9.858L22.039,20.011L39.222,37.194L49.375,27.04L32.193,9.858Z" style="fill:#c7ccd1;"/>
        <clipPath id="_clip1">
            <path d="M32.193,9.858L22.039,20.011L39.222,37.194L49.375,27.04L32.193,9.858Z"/>
        </clipPath>
        <g clip-path="url(#_clip1)">
            <path d="M36.517,3.758L18.283,21.992L20.987,24.697L39.222,6.463L36.517,3.758Z" style="fill:#a9afb6;"/>
        </g>
        <path d="M29.85,24.697C29.85,24.697 13.873,40.674 7.467,47.079C6.775,47.772 6.386,48.711 6.386,49.69C6.386,50.669 6.775,51.608 7.467,52.301C7.468,52.301 7.469,52.302 7.47,52.303C8.615,53.448 10.471,53.448 11.616,52.303C17.61,46.309 34.536,29.383 34.536,29.383L29.85,24.697Z" style="fill:#b3b6c0;"/>
        <path d="M33.153,7.413C32.373,6.633 31.108,6.633 30.327,7.413C27.653,10.087 21.876,15.864 19.155,18.585C18.341,19.399 18.341,20.718 19.155,21.532C19.156,21.533 19.156,21.533 19.157,21.533C19.516,21.892 20.002,22.094 20.51,22.094C21.018,22.094 21.504,21.892 21.863,21.534C24.53,18.867 30.439,12.958 33.154,10.243C33.935,9.462 33.935,8.195 33.154,7.414C33.154,7.414 33.153,7.413 33.153,7.413Z" style="fill:#c7ccd1;"/>
        <path d="M51.938,25.971C51.558,25.592 51.043,25.379 50.507,25.379C49.97,25.379 49.455,25.592 49.075,25.971C46.422,28.625 40.76,34.287 38.011,37.036C37.596,37.451 37.364,38.013 37.364,38.599C37.364,39.185 37.596,39.747 38.011,40.161C38.011,40.162 38.012,40.162 38.012,40.163C38.711,40.861 39.843,40.861 40.541,40.163C43.168,37.535 49.202,31.502 51.939,28.765C52.309,28.394 52.517,27.892 52.517,27.369C52.517,26.845 52.309,26.343 51.939,25.973C51.939,25.972 51.938,25.972 51.938,25.971Z" style="fill:#c7ccd1;"/>
        <path d="M36.892,14.557L26.738,24.71L34.585,32.557L44.738,22.403L36.892,14.557Z" style="fill:#50c866;"/>
        <path d="M25.512,18.063L22.802,20.773L38.578,36.55L41.288,33.84L25.512,18.063Z" style="fill:#8f959e;"/>
        <path d="M29.448,22L26.738,24.71L34.585,32.557L37.295,29.847L29.448,22Z" style="fill:#329f46;"/>
    </g>
    <rect x="32.738" y="52" width="22" height="4.837" style="fill:#c7ccd1;"/>
    <path d="M60.738,60C60.738,57.239 58.5,55 55.738,55C49.3,55 38.176,55 31.738,55C28.977,55 26.738,57.239 26.738,60C26.738,60 26.738,60 26.738,60L60.738,60L60.738,60Z" style="fill:#adb4bc;"/>
</svg>
