<?xml version="1.0" encoding="UTF-8" standalone="no"?>
<!DOCTYPE svg PUBLIC "-//W3C//DTD SVG 1.1//EN" "http://www.w3.org/Graphics/SVG/1.1/DTD/svg11.dtd">
<svg width="100%" height="100%" viewBox="0 0 65 64" version="1.1" xmlns="http://www.w3.org/2000/svg" xmlns:xlink="http://www.w3.org/1999/xlink" xml:space="preserve" xmlns:serif="http://www.serif.com/" style="fill-rule:evenodd;clip-rule:evenodd;stroke-linecap:round;stroke-miterlimit:1;">
    <rect id="Map" x="0.738" y="0" width="64" height="64" style="fill:none;"/>
    <path d="M7.033,58L12.738,19.313L50.738,18L56.738,60L42.442,58L22.738,60L7.033,58Z" style="fill:#cecfeb;"/>
    <path d="M10.021,6.114L4.03,52.82L22.575,59.886L24.67,10.463L10.021,6.114Z" style="fill:#f3775b;fill-rule:nonzero;"/>
    <path d="M39.689,6.114L24.67,10.463L22.574,59.886L41.718,52.82L39.689,6.114Z" style="fill:#f3775b;fill-rule:nonzero;"/>
    <path d="M39.51,6.114L41.491,52.82L61.06,58.472L57.817,33.186L54.791,9.597L39.51,6.114Z" style="fill:#f3775b;fill-rule:nonzero;"/>
    <path d="M10.021,6.114L4.03,52.82L22.575,59.886L24.67,10.463L10.021,6.114Z" style="fill:#2b307e;fill-opacity:0.23;fill-rule:nonzero;"/>
    <path d="M39.51,6.114L41.491,52.82L61.06,58.472L57.817,33.186L54.791,9.597L39.51,6.114Z" style="fill:#2b307e;fill-opacity:0.23;fill-rule:nonzero;"/>
    <path d="M10.81,34.113L18.738,40C18.738,40 22.661,44.273 23.248,44C23.835,43.727 34.738,38 34.738,38L36.738,30L40.738,26L44.738,24" style="fill:none;stroke:#fff;stroke-width:1.5px;stroke-dasharray:3,3,0,0;"/>
    <g>
        <path d="M44.11,21.204C44.238,21.214 44.359,21.26 44.465,21.34C46.371,22.945 48.195,24.67 50.059,26.336C50.335,26.597 50.304,26.715 50.31,26.891C50.331,27.436 49.732,27.887 49.262,27.537C47.357,25.932 45.533,24.206 43.669,22.541C43.434,22.318 43.445,22.214 43.425,22.071C43.363,21.631 43.603,21.196 44.11,21.204Z" style="fill:#fff;fill-rule:nonzero;"/>
        <path d="M49.116,20.556C50.119,20.668 49.831,21.367 49.614,21.736C48.189,23.883 46.658,25.938 45.18,28.039C44.948,28.349 44.843,28.314 44.687,28.322C44.204,28.346 43.803,27.67 44.114,27.141C45.538,24.994 47.07,22.939 48.548,20.838C48.69,20.648 48.804,20.541 49.116,20.556Z" style="fill:#fff;fill-rule:nonzero;"/>
    </g>
    <path d="M12.738,10L10.259,31.404C10.259,31.404 17.618,33.477 20.291,27.869C22.964,22.261 23.632,17.948 27.591,17.134C35.396,15.528 35.252,10.272 35.252,10.272L24.694,13.381L12.738,10Z" style="fill:#2b307e;"/>
    <clipPath id="_clip1">
        <path d="M12.738,10L10.259,31.404C10.259,31.404 17.618,33.477 20.291,27.869C22.964,22.261 23.632,17.948 27.591,17.134C35.396,15.528 35.252,10.272 35.252,10.272L24.694,13.381L12.738,10Z"/>
    </clipPath>
    <g clip-path="url(#_clip1)">
        <path d="M25.069,6.051L23.704,29.888L38.221,20.728L37.802,3.412L25.069,6.051Z" style="fill:#aaacdd;fill-opacity:0.66;"/>
    </g>
    <path d="M58.683,54.927L41.33,50.282L27.005,55.614C27.005,55.614 28.335,43.607 35.615,44.668C39.979,45.304 41.196,44.095 41.196,44.095C41.196,44.095 45.248,46.625 46.666,46.083C52.564,43.829 56.971,47.497 58.683,54.927Z" style="fill:#2b307e;"/>
    <clipPath id="_clip2">
        <path d="M58.683,54.927L41.33,50.282L27.005,55.614C27.005,55.614 28.335,43.607 35.615,44.668C39.979,45.304 41.196,44.095 41.196,44.095C41.196,44.095 45.248,46.625 46.666,46.083C52.564,43.829 56.971,47.497 58.683,54.927Z"/>
    </clipPath>
    <g clip-path="url(#_clip2)">
        <path d="M40.892,37.291L41.665,54.51L24.225,62.806L24.315,43.768L40.892,37.291Z" style="fill:#7f82bd;"/>
    </g>
</svg>
