<?xml version="1.0" encoding="UTF-8" standalone="no"?>
<!DOCTYPE svg PUBLIC "-//W3C//DTD SVG 1.1//EN" "http://www.w3.org/Graphics/SVG/1.1/DTD/svg11.dtd">
<svg width="100%" height="100%" viewBox="0 0 65 65" version="1.1" xmlns="http://www.w3.org/2000/svg" xmlns:xlink="http://www.w3.org/1999/xlink" xml:space="preserve" xmlns:serif="http://www.serif.com/" style="fill-rule:evenodd;clip-rule:evenodd;stroke-linejoin:round;stroke-miterlimit:1;">
    <rect id="Natural-Disasters" x="0.138" y="0.117" width="64" height="64" style="fill:none;"/>
    <path d="M43.655,4.811C45.025,2.521 47.53,0.986 50.39,0.986C53.17,0.986 55.614,2.435 57.007,4.618C60.1,4.879 62.532,7.475 62.532,10.635C62.532,13.954 59.848,16.652 56.533,16.673L56.533,16.674L56.493,16.674L42.054,16.674C38.721,16.674 36.015,13.968 36.015,10.635C36.015,7.302 38.721,4.596 42.054,4.596C42.608,4.596 43.145,4.671 43.655,4.811Z" style="fill:#c6c8e2;"/>
    <clipPath id="_clip1">
        <path d="M43.655,4.811C45.025,2.521 47.53,0.986 50.39,0.986C53.17,0.986 55.614,2.435 57.007,4.618C60.1,4.879 62.532,7.475 62.532,10.635C62.532,13.954 59.848,16.652 56.533,16.673L56.533,16.674L56.493,16.674L42.054,16.674C38.721,16.674 36.015,13.968 36.015,10.635C36.015,7.302 38.721,4.596 42.054,4.596C42.608,4.596 43.145,4.671 43.655,4.811Z"/>
    </clipPath>
    <g clip-path="url(#_clip1)">
        <path d="M41.888,2.748C43.258,0.458 45.763,-1.077 48.624,-1.077C51.403,-1.077 53.847,0.372 55.24,2.555C58.333,2.816 60.766,5.412 60.766,8.572C60.766,11.892 56.857,14.589 53.542,14.611L50.31,14.611L54.727,14.611L51.896,14.611L40.287,14.611C36.954,14.611 34.249,11.905 34.249,8.572C34.249,5.239 36.954,2.533 40.287,2.533C40.841,2.533 41.378,2.608 41.888,2.748Z" style="fill:#dcddf1;"/>
        <path d="M45.142,8.83C45.142,8.83 48.55,15.509 41.92,16.674L48.016,16.674C48.016,16.674 49.817,12.715 45.142,8.83Z" style="fill:#c6c8e2;"/>
        <path d="M53.542,-0.129C53.542,-0.129 56.88,3.145 53.944,8.83C53.944,8.83 57.262,5.44 57.87,2.664C58.477,-0.112 53.542,-0.129 53.542,-0.129Z" style="fill:#c6c8e2;"/>
    </g>
    <path d="M9.747,16.777C11.47,13.896 14.621,11.966 18.219,11.966C21.715,11.966 24.788,13.788 26.541,16.534C30.431,16.862 33.49,20.128 33.49,24.102C33.49,28.277 30.114,31.67 25.945,31.697L25.945,31.697L25.895,31.697L7.734,31.697C3.542,31.697 0.138,28.294 0.138,24.102C0.138,19.91 3.542,16.507 7.734,16.507C8.43,16.507 9.105,16.601 9.747,16.777Z" style="fill:#c6c8e2;"/>
    <clipPath id="_clip2">
        <path d="M9.747,16.777C11.47,13.896 14.621,11.966 18.219,11.966C21.715,11.966 24.788,13.788 26.541,16.534C30.431,16.862 33.49,20.128 33.49,24.102C33.49,28.277 30.114,31.67 25.945,31.697L25.945,31.697L25.895,31.697L7.734,31.697C3.542,31.697 0.138,28.294 0.138,24.102C0.138,19.91 3.542,16.507 7.734,16.507C8.43,16.507 9.105,16.601 9.747,16.777Z"/>
    </clipPath>
    <g clip-path="url(#_clip2)">
        <path d="M7.525,14.183C9.248,11.302 12.399,9.372 15.997,9.372C19.493,9.372 22.566,11.194 24.319,13.94C28.209,14.268 31.268,17.533 31.268,21.508C31.268,25.683 26.352,29.076 22.183,29.103L18.117,29.103L23.673,29.103L20.113,29.103L5.512,29.103C1.32,29.103 -2.084,25.7 -2.084,21.508C-2.084,17.316 1.32,13.912 5.512,13.912C6.208,13.912 6.883,14.006 7.525,14.183Z" style="fill:#dcddf1;"/>
        <path d="M11.618,21.832C11.618,21.832 15.904,30.232 7.565,31.697L15.232,31.697C15.232,31.697 17.498,26.718 11.618,21.832Z" style="fill:#c6c8e2;"/>
        <path d="M22.183,10.564C22.183,10.564 26.381,14.682 22.688,21.832C22.688,21.832 26.862,17.568 27.626,14.076C28.389,10.585 22.183,10.564 22.183,10.564Z" style="fill:#c6c8e2;"/>
    </g>
    <ellipse cx="32.138" cy="52.592" rx="30.551" ry="6.662" style="fill:#cfd1ec;"/>
    <clipPath id="_clip3">
        <ellipse cx="32.138" cy="52.592" rx="30.551" ry="6.662"/>
    </clipPath>
    <g clip-path="url(#_clip3)">
        <path d="M47.708,38.229C47.708,38.229 47.194,50.408 55.507,53.749C63.819,57.089 68.077,50.944 68.077,50.944L47.708,38.229Z" style="fill:#9a9dc9;fill-opacity:0.63;"/>
        <path d="M49.477,47.001C49.477,47.001 53.98,51.825 59.435,52.001C59.435,52.001 53.082,56.739 49.477,47.001Z" style="fill:#2b307f;fill-opacity:0.25;"/>
    </g>
    <path d="M50.149,33.12L32.266,18.045L14.127,33.12L14.127,55.304L50.149,55.304L50.149,33.12Z" style="fill:#b0472f;"/>
    <clipPath id="_clip4">
        <path d="M50.149,33.12L32.266,18.045L14.127,33.12L14.127,55.304L50.149,55.304L50.149,33.12Z"/>
    </clipPath>
    <g clip-path="url(#_clip4)">
        <path d="M50.33,40.029L50.345,40.062L50.355,40.096L50.358,40.133L50.493,62.317L50.489,62.377L50.475,62.436L50.451,62.492L50.418,62.542L50.375,62.587L50.326,62.623L50.271,62.651L50.211,62.668L50.209,62.669L50.149,62.675L28.726,62.776L18.182,62.809L14.127,62.815L14.041,62.808L13.957,62.785L13.878,62.749L13.806,62.699L13.745,62.638L13.695,62.567L13.657,62.488L13.634,62.404L13.627,62.317L13.623,59.399L13.631,50.491L13.655,41.049L13.659,40.133L13.664,40.064L13.68,39.998L13.705,39.934L13.739,39.875L13.781,39.822L13.83,39.775L27.202,28.755L32.037,24.782L32.089,24.747L32.146,24.723L32.206,24.708L32.268,24.704L32.329,24.711L32.387,24.728L32.442,24.756L32.491,24.792L39.647,30.892L49.846,39.599L50.284,39.973L50.309,39.999L50.33,40.029ZM27.705,29.36L14.596,40.346L14.599,41.049L14.623,50.491L14.632,59.399L14.628,61.821L18.182,61.826L28.726,61.859L49.808,61.958L49.941,40.23L49.572,39.923L39.265,31.345L32.276,25.519L27.705,29.36Z" style="fill:#f1765a;"/>
        <path d="M50.149,40.133L32.266,25.058L14.127,40.133L14.127,62.317L50.149,62.317L50.149,40.133Z" style="fill:#f1765a;"/>
        <clipPath id="_clip5">
            <path d="M50.149,40.133L32.266,25.058L14.127,40.133L14.127,62.317L50.149,62.317L50.149,40.133Z"/>
        </clipPath>
        <g clip-path="url(#_clip5)">
            <rect x="22.696" y="52.406" width="7.009" height="9.698" style="fill:#319c45;"/>
        </g>
        <rect x="23.795" y="46.344" width="7.009" height="9.698" style="fill:#fff;fill-opacity:0.72;"/>
    </g>
    <path d="M10.449,36.291L32.201,18.045L55.02,36.675" style="fill:none;stroke:#2b307f;stroke-width:4px;"/>
    <path d="M30.874,44.354L18.165,44.354L18.165,34.817L30.874,34.817L30.874,44.354ZM45.393,44.354L36.892,44.354L36.892,34.817L45.393,34.817L45.393,44.354ZM20.165,36.817L20.165,42.354L28.874,42.354L28.874,36.817L20.165,36.817ZM38.892,36.817L38.892,42.354L43.393,42.354L43.393,36.817L38.892,36.817Z" style="fill:#cfd1ec;"/>
    <clipPath id="_clip6">
        <path d="M30.874,44.354L18.165,44.354L18.165,34.817L30.874,34.817L30.874,44.354ZM45.393,44.354L36.892,44.354L36.892,34.817L45.393,34.817L45.393,44.354ZM20.165,36.817L20.165,42.354L28.874,42.354L28.874,36.817L20.165,36.817ZM38.892,36.817L38.892,42.354L43.393,42.354L43.393,36.817L38.892,36.817Z"/>
    </clipPath>
    <g clip-path="url(#_clip6)">
        <path d="M50.149,40.133L32.266,25.058L14.127,40.133L14.127,62.317L50.149,62.317L50.149,40.133Z" style="fill:#fff;"/>
        <clipPath id="_clip7">
            <path d="M50.149,40.133L32.266,25.058L14.127,40.133L14.127,62.317L50.149,62.317L50.149,40.133Z"/>
        </clipPath>
        <g clip-path="url(#_clip7)">
            <rect x="22.696" y="52.406" width="7.009" height="9.698" style="fill:#319c45;"/>
        </g>
        <ellipse cx="37.102" cy="43.832" rx="4.964" ry="3.638" style="fill:#cfd1ec;"/>
    </g>
    <path d="M29.874,35.817L29.874,43.354L19.165,43.354L19.165,35.817L29.874,35.817ZM44.393,35.817L44.393,43.354L37.892,43.354L37.892,35.817L44.393,35.817Z" style="fill:#2b307f;"/>
    <clipPath id="_clip8">
        <path d="M29.874,35.817L29.874,43.354L19.165,43.354L19.165,35.817L29.874,35.817ZM44.393,35.817L44.393,43.354L37.892,43.354L37.892,35.817L44.393,35.817Z"/>
    </clipPath>
    <g clip-path="url(#_clip8)">
        <path d="M18.293,34.887L17.311,42.404L61.506,35.002L18.293,34.887Z" style="fill:#fff;fill-opacity:0.46;"/>
    </g>
    <path d="M13.432,51.309C13.432,51.309 19.118,46.586 28.14,50.724C36.252,54.443 42.911,46.656 38.892,41.956C38.892,41.956 50.447,43.16 51.689,52.862C52.143,56.411 48.197,57.266 48.197,57.266L13.279,56.57L13.432,51.309Z" style="fill:#cfd1ec;"/>
    <clipPath id="_clip9">
        <path d="M13.432,51.309C13.432,51.309 19.118,46.586 28.14,50.724C36.252,54.443 42.911,46.656 38.892,41.956C38.892,41.956 50.447,43.16 51.689,52.862C52.143,56.411 48.197,57.266 48.197,57.266L13.279,56.57L13.432,51.309Z"/>
    </clipPath>
    <g clip-path="url(#_clip9)">
        <path d="M41.781,42.255C41.781,42.255 48.678,44.827 46.883,49.46C45.088,54.092 38.116,51.156 37.47,47.066C36.824,42.976 41.781,42.255 41.781,42.255Z" style="fill:#a6a9d1;fill-opacity:0.4;"/>
        <path d="M27.393,44.687C27.393,44.687 38.986,47.25 37.23,50.714C35.475,54.179 22.948,52.063 23.175,48.284C23.362,45.167 27.393,44.687 27.393,44.687Z" style="fill:#a6a9d1;fill-opacity:0.4;"/>
        <path d="M46.394,46.246C46.394,46.246 38.668,43.125 31.71,45.48C31.71,45.48 36.846,41.132 42.155,42.534C43.777,42.962 46.138,44.577 46.394,46.246Z" style="fill:#2b307f;fill-opacity:0.25;"/>
    </g>
    <path d="M46.321,10.634L43.413,20.665L50.048,20.611L47.152,29.697L55.135,17.666L49.605,17.621L52.493,10.664L46.321,10.634Z" style="fill:#f1765a;"/>
    <path d="M32.735,54.614C32.735,54.614 25.693,52.95 18.735,55.304C18.735,55.304 27.014,49.595 32.735,54.614Z" style="fill:#2b307f;fill-opacity:0.25;"/>
    <path d="M28.285,56.157C28.285,56.157 40.503,55.846 45.341,53.927C45.341,53.927 41.009,59.611 28.285,56.157Z" style="fill:#fff;fill-opacity:0.48;"/>
    <path d="M44.896,43.805C44.896,43.805 37.054,39.279 35.21,41.876C34.75,42.524 34.924,43.135 35.358,43.365C35.929,43.668 36.669,43.736 37.6,42.884C39.239,41.383 44.896,43.805 44.896,43.805Z" style="fill:#fff;"/>
    <path d="M4.947,54.13C4.947,54.13 7.829,53.261 11.028,55.254C12.546,56.2 14.269,55.05 16.249,53.927C18.44,52.684 20.017,51.921 22.381,51.636C22.381,51.636 17.663,51.415 14.127,53.794C11.475,55.579 8.988,52.194 4.947,54.13Z" style="fill:#fff;fill-opacity:0.53;"/>
    <path d="M12.624,51.5C12.624,51.5 15.404,48.047 22.837,49.163C22.837,49.163 19.368,48.975 17.33,50.259C15.292,51.542 14.882,51.942 12.624,51.5Z" style="fill:#fff;"/>
    <path d="M24.565,35.442L24.565,43.805" style="fill:none;stroke:#fff;stroke-width:2px;stroke-linejoin:miter;stroke-miterlimit:10;"/>
</svg>
