<?xml version="1.0" encoding="UTF-8" standalone="no"?>
<!DOCTYPE svg PUBLIC "-//W3C//DTD SVG 1.1//EN" "http://www.w3.org/Graphics/SVG/1.1/DTD/svg11.dtd">
<svg width="100%" height="100%" viewBox="0 0 65 64" version="1.1" xmlns="http://www.w3.org/2000/svg" xmlns:xlink="http://www.w3.org/1999/xlink" xml:space="preserve" xmlns:serif="http://www.serif.com/" style="fill-rule:evenodd;clip-rule:evenodd;stroke-linejoin:round;stroke-miterlimit:2;">
    <rect id="No-Trans-Fat" x="0.738" y="0" width="64" height="64" style="fill:none;"/>
    <path d="M33.261,8C33.261,8 17.784,30.766 17.784,40.523C17.784,49.065 24.719,56 33.261,56C41.803,56 48.738,49.065 48.738,40.523C48.738,30.766 33.261,8 33.261,8Z" style="fill:#b5b6db;"/>
    <clipPath id="_clip1">
        <path d="M33.261,8C33.261,8 17.784,30.766 17.784,40.523C17.784,49.065 24.719,56 33.261,56C41.803,56 48.738,49.065 48.738,40.523C48.738,30.766 33.261,8 33.261,8Z"/>
    </clipPath>
    <g clip-path="url(#_clip1)">
        <path d="M34.56,4.193C34.56,4.193 20.597,24.731 20.597,33.533C20.597,41.239 26.854,47.495 34.56,47.495C42.266,47.495 48.522,41.239 48.522,33.533C48.522,24.731 34.56,4.193 34.56,4.193Z" style="fill:#cdceeb;"/>
        <path d="M36.957,24.925L36.884,24.751L36.886,24.755L36.727,24.379L36.729,24.383L36.571,24.011L36.573,24.015L36.414,23.647L36.417,23.651L36.381,23.57L36.264,23.284L36.267,23.289L36.116,22.926L36.119,22.931L35.969,22.573L35.972,22.578L35.823,22.226L35.825,22.232L35.809,22.193L35.682,21.883L35.685,21.888L35.542,21.546L35.545,21.551L35.404,21.216L35.407,21.222L35.267,20.893L35.27,20.899L35.244,20.839L35.135,20.576L35.139,20.582L35.006,20.266L35.009,20.273L34.878,19.966L34.882,19.972L34.751,19.674L34.755,19.681L34.626,19.392L34.63,19.399L34.503,19.12L34.507,19.128L34.381,18.859L34.385,18.865L34.323,18.734L34.325,18.738L34.263,18.61L34.266,18.614L34.204,18.489L34.207,18.494L34.157,18.393L34.146,18.371L34.149,18.375L34.09,18.255L34.094,18.259L34.035,18.141L34.038,18.146L33.98,18.031L33.984,18.036L33.926,17.924L33.93,17.93L33.873,17.821L33.876,17.826L33.82,17.72L33.824,17.726L33.768,17.623L33.772,17.629L33.716,17.53L33.721,17.536L33.666,17.439L33.671,17.446L33.616,17.353L33.621,17.359L33.567,17.27L33.573,17.277L33.52,17.191L33.526,17.198L33.473,17.115L33.479,17.123L33.427,17.043L33.434,17.051L33.383,16.976L33.39,16.984L33.339,16.912L33.348,16.921L33.297,16.853L33.307,16.862L33.257,16.797L33.267,16.807L33.218,16.746L33.229,16.757L33.216,16.741L33.181,16.7L33.152,15.814L34.038,15.785L34.081,15.817L34.098,15.829L34.11,15.84L34.172,15.888L34.182,15.898L34.245,15.949L34.254,15.959L34.319,16.013L34.328,16.022L34.394,16.081L34.402,16.089L34.47,16.151L34.477,16.159L34.546,16.224L34.552,16.231L34.623,16.299L34.629,16.307L34.701,16.378L34.707,16.385L34.78,16.459L34.785,16.466L34.86,16.543L34.865,16.55L34.941,16.63L34.946,16.637L35.023,16.72L35.028,16.726L35.106,16.813L35.11,16.818L35.19,16.908L35.194,16.913L35.275,17.006L35.279,17.011L35.361,17.106L35.365,17.111L35.448,17.209L35.451,17.214L35.536,17.315L35.539,17.319L35.625,17.423L35.628,17.427L35.643,17.446L35.713,17.534L35.716,17.539L35.802,17.649L35.805,17.653L35.892,17.765L35.895,17.77L35.983,17.884L35.987,17.891L36.166,18.128L36.171,18.135L36.354,18.382L36.358,18.39L36.544,18.645L36.548,18.653L36.738,18.917L36.742,18.924L36.934,19.197L36.938,19.204L37.134,19.485L37.137,19.491L37.298,19.726L37.334,19.781L37.337,19.787L37.532,20.086L37.536,20.092L37.733,20.398L37.736,20.404L37.935,20.717L37.938,20.722L38.116,21.006L38.138,21.042L38.141,21.047L38.337,21.375L38.34,21.381L38.538,21.714L38.541,21.719L38.74,22.058L38.742,22.063L38.898,22.33L38.941,22.407L38.943,22.412L39.136,22.764L39.138,22.768L39.332,23.124L39.334,23.129L39.528,23.488L39.53,23.493L39.62,23.66L39.72,23.858L39.722,23.862L39.908,24.231L39.91,24.236L39.951,24.316L40.091,24.61L40.093,24.614L40.256,24.955L40.272,24.992L40.274,24.996L40.444,25.379L40.446,25.382L40.557,25.636L40.612,25.768L40.614,25.772L40.774,26.161L40.776,26.164L40.87,26.394L40.932,26.555L40.934,26.559L41.084,26.952L41.085,26.955L41.234,27.348L41.235,27.352L41.383,27.744L41.384,27.748L41.507,28.078L41.529,28.139L41.53,28.143L41.667,28.535L41.668,28.539L41.804,28.93L41.805,28.933L41.938,29.322L41.939,29.325L42.071,29.711L42.072,29.714L42.128,29.88L42.198,30.098L42.199,30.101L42.321,30.483L42.323,30.486L42.442,30.864L42.444,30.866L42.561,31.24L42.562,31.243L42.677,31.612L42.678,31.614L42.692,31.662L42.786,31.98L42.787,31.983L42.892,32.343L42.893,32.345L42.996,32.7L42.997,32.702L43.096,33.05L43.097,33.053L43.193,33.394L43.194,33.397L43.287,33.731L43.288,33.734L43.377,34.06L43.378,34.063L43.465,34.382L43.466,34.385L43.529,34.623L43.547,34.695L43.549,34.698L43.625,35.001L43.626,35.004L43.698,35.298L43.699,35.301L43.768,35.585L43.769,35.588L43.82,35.807L43.833,35.862L43.453,36.668L42.652,36.28L42.627,36.229L42.529,36.026L42.531,36.029L42.403,35.767L42.404,35.77L42.27,35.498L42.271,35.501L42.132,35.222L42.133,35.225L42.1,35.159L41.991,34.937L41.992,34.94L41.845,34.644L41.846,34.647L41.695,34.344L41.696,34.347L41.539,34.038L41.54,34.04L41.38,33.725L41.381,33.727L41.215,33.406L41.216,33.409L41.047,33.081L41.048,33.084L40.875,32.751L40.876,32.754L40.722,32.461L40.699,32.417L40.7,32.419L40.524,32.076L40.525,32.079L40.345,31.731L40.346,31.734L40.163,31.382L40.164,31.385L39.978,31.03L39.98,31.033L39.872,30.83L39.793,30.675L39.794,30.678L39.607,30.315L39.609,30.318L39.419,29.953L39.421,29.956L39.229,29.589L39.231,29.593L39.037,29.224L39.039,29.227L39.008,29.17L38.849,28.855L38.851,28.858L38.661,28.485L38.663,28.488L38.471,28.114L38.473,28.118L38.28,27.744L38.282,27.747L38.202,27.594L38.093,27.371L38.095,27.375L37.908,26.998L37.91,27.002L37.846,26.873L37.728,26.623L37.729,26.627L37.549,26.249L37.551,26.253L37.534,26.217L37.378,25.873L37.38,25.877L37.245,25.581L37.209,25.498L37.211,25.503L37.045,25.124L37.047,25.128L36.957,24.925Z" style="fill:#fff;"/>
    </g>
    <path d="M56.617,3.879L3.83,56.665L8.073,60.908L60.86,8.121L56.617,3.879Z" style="fill:#f3775b;"/>
</svg>
