<?xml version="1.0" encoding="UTF-8" standalone="no"?>
<!DOCTYPE svg PUBLIC "-//W3C//DTD SVG 1.1//EN" "http://www.w3.org/Graphics/SVG/1.1/DTD/svg11.dtd">
<svg width="100%" height="100%" viewBox="0 0 64 65" version="1.1" xmlns="http://www.w3.org/2000/svg" xmlns:xlink="http://www.w3.org/1999/xlink" xml:space="preserve" xmlns:serif="http://www.serif.com/" style="fill-rule:evenodd;clip-rule:evenodd;stroke-linecap:round;stroke-linejoin:round;stroke-miterlimit:1.5;">
    <rect id="No-Trans-Fat" x="0" y="0.156" width="64" height="64" style="fill:none;"/>
    <path d="M32.523,8.156C32.523,8.156 17.045,30.921 17.045,40.678C17.045,49.22 23.981,56.156 32.523,56.156C41.065,56.156 48,49.22 48,40.678C48,30.921 32.523,8.156 32.523,8.156Z" style="fill:#cdceeb;"/>
    <path d="M37.31,48.864C35.858,49.686 34.18,50.156 32.393,50.156C26.874,50.156 22.393,45.675 22.393,40.156C22.393,39.055 22.572,37.996 22.901,37.005" style="fill:none;stroke:#2b307e;stroke-width:3.62px;"/>
    <path d="M55.879,4.034L3.092,56.821L7.335,61.064L60.121,8.277L55.879,4.034Z" style="fill:#f3775b;"/>
</svg>
