<?xml version="1.0" encoding="UTF-8" standalone="no"?>
<!DOCTYPE svg PUBLIC "-//W3C//DTD SVG 1.1//EN" "http://www.w3.org/Graphics/SVG/1.1/DTD/svg11.dtd">
<svg width="100%" height="100%" viewBox="0 0 65 65" version="1.1" xmlns="http://www.w3.org/2000/svg" xmlns:xlink="http://www.w3.org/1999/xlink" xml:space="preserve" xmlns:serif="http://www.serif.com/" style="fill-rule:evenodd;clip-rule:evenodd;stroke-linecap:round;stroke-linejoin:round;stroke-miterlimit:1;">
    <rect id="Oil-Processing" serif:id="Oil Processing" x="0.738" y="0.458" width="64" height="64" style="fill:none;"/>
    <path d="M19.467,37.257L19.467,25.072C19.467,24.152 19.832,23.271 20.482,22.62C21.132,21.97 22.014,21.605 22.933,21.605L31.651,21.605" style="fill:none;stroke:#aaacdd;stroke-width:3.5px;"/>
    <path d="M18.467,36.257L18.467,24.072C18.467,23.152 18.832,22.271 19.482,21.62C20.132,20.97 21.014,20.605 21.933,20.605L30.651,20.605" style="fill:none;stroke:#e1e2f3;stroke-width:1.5px;"/>
    <path d="M41.995,19.391C41.995,14.985 38.423,11.413 34.017,11.413L34.017,11.413C29.611,11.413 26.039,14.985 26.039,19.391L26.039,40.14L41.995,40.14L41.995,19.391Z" style="fill:#e1e2f3;"/>
    <clipPath id="_clip1">
        <path d="M41.995,19.391C41.995,14.985 38.423,11.413 34.017,11.413L34.017,11.413C29.611,11.413 26.039,14.985 26.039,19.391L26.039,40.14L41.995,40.14L41.995,19.391Z"/>
    </clipPath>
    <g clip-path="url(#_clip1)">
        <path d="M40.051,19.234L28.205,19.234C28.205,15.965 30.859,13.311 34.128,13.311C37.397,13.311 40.051,15.965 40.051,19.234Z" style="fill:#fff;"/>
        <rect x="35.902" y="4.849" width="19.268" height="51.513" style="fill:#aaacdd;"/>
    </g>
    <path d="M60.12,19.391C60.12,14.985 56.548,11.413 52.142,11.413C52.142,11.413 52.142,11.413 52.142,11.413C47.736,11.413 44.164,14.985 44.164,19.391L44.164,40.14L60.12,40.14L60.12,19.391Z" style="fill:#e1e2f3;"/>
    <clipPath id="_clip2">
        <path d="M60.12,19.391C60.12,14.985 56.548,11.413 52.142,11.413C52.142,11.413 52.142,11.413 52.142,11.413C47.736,11.413 44.164,14.985 44.164,19.391L44.164,40.14L60.12,40.14L60.12,19.391Z"/>
    </clipPath>
    <g clip-path="url(#_clip2)">
        <path d="M58.175,19.234L46.33,19.234C46.33,15.965 48.984,13.311 52.253,13.311C55.522,13.311 58.175,15.965 58.175,19.234Z" style="fill:#fff;"/>
        <rect x="54.026" y="4.849" width="19.268" height="51.513" style="fill:#aaacdd;"/>
    </g>
    <rect x="5.357" y="38.535" width="54.763" height="20.652" style="fill:#f3775b;"/>
    <g>
        <rect x="44.395" y="42.991" width="4.954" height="5.87" style="fill:#2b307e;"/>
        <rect x="51.272" y="42.991" width="4.954" height="5.87" style="fill:#2b307e;"/>
        <rect x="23.764" y="42.991" width="4.954" height="5.87" style="fill:#2b307e;"/>
        <rect x="23.764" y="42.991" width="4.954" height="5.87" style="fill:#2b307e;"/>
        <rect x="30.641" y="42.991" width="4.954" height="5.87" style="fill:#2b307e;"/>
        <rect x="37.518" y="42.991" width="4.954" height="5.87" style="fill:#2b307e;"/>
    </g>
    <path d="M10.802,4.955L6.877,4.955L5.357,38.612L12.322,38.612L10.802,4.955Z" style="fill:#f3775b;"/>
    <clipPath id="_clip3">
        <path d="M10.802,4.955L6.877,4.955L5.357,38.612L12.322,38.612L10.802,4.955Z"/>
    </clipPath>
    <g clip-path="url(#_clip3)">
        <rect x="9.678" y="1.417" width="6.231" height="37.26" style="fill:#c43211;"/>
    </g>
    <rect x="8.839" y="49.635" width="12.462" height="9.552" style="fill:#2b307e;"/>
    <path d="M22.707,29.308L16.491,29.308L14.569,38.724L22.707,38.724L22.707,29.308Z" style="fill:#f3775b;"/>
</svg>
