<?xml version="1.0" encoding="UTF-8" standalone="no"?>
<!DOCTYPE svg PUBLIC "-//W3C//DTD SVG 1.1//EN" "http://www.w3.org/Graphics/SVG/1.1/DTD/svg11.dtd">
<svg width="100%" height="100%" viewBox="0 0 65 64" version="1.1" xmlns="http://www.w3.org/2000/svg" xmlns:xlink="http://www.w3.org/1999/xlink" xml:space="preserve" xmlns:serif="http://www.serif.com/" style="fill-rule:evenodd;clip-rule:evenodd;stroke-linecap:round;stroke-linejoin:round;stroke-miterlimit:1;">
    <rect id="Oil-Processing" serif:id="Oil Processing" x="0.738" y="0" width="64" height="64" style="fill:none;"/>
    <path d="M19.467,36.799L19.467,24.613C19.467,23.694 19.832,22.812 20.482,22.162C21.132,21.512 22.014,21.147 22.933,21.147L31.651,21.147" style="fill:none;stroke:#aaacdd;stroke-width:3.5px;"/>
    <path d="M18.467,35.799L18.467,23.613C18.467,22.694 18.832,21.812 19.482,21.162C20.132,20.512 21.014,20.147 21.933,20.147L30.651,20.147" style="fill:none;stroke:#e1e2f3;stroke-width:1.5px;"/>
    <path d="M41.995,18.933C41.995,14.527 38.423,10.955 34.017,10.955L34.017,10.955C29.611,10.955 26.039,14.527 26.039,18.933L26.039,39.682L41.995,39.682L41.995,18.933Z" style="fill:#e1e2f3;"/>
    <clipPath id="_clip1">
        <path d="M41.995,18.933C41.995,14.527 38.423,10.955 34.017,10.955L34.017,10.955C29.611,10.955 26.039,14.527 26.039,18.933L26.039,39.682L41.995,39.682L41.995,18.933Z"/>
    </clipPath>
    <g clip-path="url(#_clip1)">
        <path d="M40.051,18.775L28.205,18.775C28.205,15.507 30.859,12.853 34.128,12.853C37.397,12.853 40.051,15.507 40.051,18.775Z" style="fill:#fff;"/>
        <rect x="35.902" y="4.39" width="19.268" height="51.513" style="fill:#aaacdd;"/>
    </g>
    <path d="M60.12,18.933C60.12,14.527 56.548,10.955 52.142,10.955C52.142,10.955 52.142,10.955 52.142,10.955C47.736,10.955 44.164,14.527 44.164,18.933L44.164,39.682L60.12,39.682L60.12,18.933Z" style="fill:#e1e2f3;"/>
    <clipPath id="_clip2">
        <path d="M60.12,18.933C60.12,14.527 56.548,10.955 52.142,10.955C52.142,10.955 52.142,10.955 52.142,10.955C47.736,10.955 44.164,14.527 44.164,18.933L44.164,39.682L60.12,39.682L60.12,18.933Z"/>
    </clipPath>
    <g clip-path="url(#_clip2)">
        <path d="M58.175,18.775L46.33,18.775C46.33,15.507 48.984,12.853 52.253,12.853C55.522,12.853 58.175,15.507 58.175,18.775Z" style="fill:#fff;"/>
        <rect x="54.026" y="4.39" width="19.268" height="51.513" style="fill:#aaacdd;"/>
    </g>
    <rect x="5.357" y="38.077" width="54.763" height="20.652" style="fill:#f3775b;"/>
    <g>
        <rect x="44.395" y="42.532" width="4.954" height="5.87" style="fill:#2b307e;"/>
        <rect x="51.272" y="42.532" width="4.954" height="5.87" style="fill:#2b307e;"/>
        <rect x="23.764" y="42.532" width="4.954" height="5.87" style="fill:#2b307e;"/>
        <rect x="23.764" y="42.532" width="4.954" height="5.87" style="fill:#2b307e;"/>
        <rect x="30.641" y="42.532" width="4.954" height="5.87" style="fill:#2b307e;"/>
        <rect x="37.518" y="42.532" width="4.954" height="5.87" style="fill:#2b307e;"/>
    </g>
    <path d="M10.802,4.497L6.877,4.497L5.357,38.154L12.322,38.154L10.802,4.497Z" style="fill:#f3775b;"/>
    <clipPath id="_clip3">
        <path d="M10.802,4.497L6.877,4.497L5.357,38.154L12.322,38.154L10.802,4.497Z"/>
    </clipPath>
    <g clip-path="url(#_clip3)">
        <rect x="9.678" y="0.958" width="6.231" height="37.26" style="fill:#379a16;"/>
    </g>
    <rect x="8.839" y="49.177" width="12.462" height="9.552" style="fill:#2b307e;"/>
    <path d="M22.707,28.85L16.491,28.85L14.569,38.266L22.707,38.266L22.707,28.85Z" style="fill:#f3775b;"/>
</svg>
