<?xml version="1.0" encoding="UTF-8" standalone="no"?>
<!DOCTYPE svg PUBLIC "-//W3C//DTD SVG 1.1//EN" "http://www.w3.org/Graphics/SVG/1.1/DTD/svg11.dtd">
<svg width="100%" height="100%" viewBox="0 0 65 65" version="1.1" xmlns="http://www.w3.org/2000/svg" xmlns:xlink="http://www.w3.org/1999/xlink" xml:space="preserve" xmlns:serif="http://www.serif.com/" style="fill-rule:evenodd;clip-rule:evenodd;stroke-miterlimit:10;">
    <rect id="Patient-Centered-Care" x="0.035" y="0.897" width="64" height="64" style="fill:none;"/>
    <path d="M25.008,35.634C25.008,35.634 27.746,34.028 32.039,34.028C36.332,34.028 40.334,35.634 40.334,35.634L39.813,20.71L31.505,17.43L23.683,25.543L25.008,35.634Z" style="fill:#1f235c;"/>
    <circle cx="32.035" cy="32.897" r="24.328" style="fill:none;stroke:#dfdff2;stroke-width:1.33px;"/>
    <circle cx="32.035" cy="32.897" r="24.328" style="fill:none;"/>
    <clipPath id="_clip1">
        <circle cx="32.035" cy="32.897" r="24.328"/>
    </clipPath>
    <g clip-path="url(#_clip1)">
        <path d="M49.322,47.393C48.422,42.896 45.265,39.183 40.971,37.573C40.971,37.573 40.971,37.573 40.971,37.573C38.735,36.734 36.366,36.305 33.979,36.305C32.93,36.305 31.789,36.305 30.751,36.305C28.472,36.305 26.211,36.715 24.076,37.515C24.076,37.515 24.076,37.515 24.076,37.515C19.687,39.161 16.459,42.957 15.54,47.553C14.967,50.416 14.447,63.946 14.447,63.946L50.447,63.946C50.447,63.946 49.907,50.318 49.322,47.393Z" style="fill:#dfdff2;"/>
        <clipPath id="_clip2">
            <path d="M49.322,47.393C48.422,42.896 45.265,39.183 40.971,37.573C40.971,37.573 40.971,37.573 40.971,37.573C38.735,36.734 36.366,36.305 33.979,36.305C32.93,36.305 31.789,36.305 30.751,36.305C28.472,36.305 26.211,36.715 24.076,37.515C24.076,37.515 24.076,37.515 24.076,37.515C19.687,39.161 16.459,42.957 15.54,47.553C14.967,50.416 14.447,63.946 14.447,63.946L50.447,63.946C50.447,63.946 49.907,50.318 49.322,47.393Z"/>
        </clipPath>
        <g clip-path="url(#_clip2)">
            <path d="M31.247,36.034C31.247,36.034 20.059,40.259 23.336,64.897L59.97,64.345L52.604,37.676L31.247,36.034Z" style="fill:#c7c7e8;"/>
        </g>
        <path d="M37.202,32.181L27.72,32.181L27.72,37.599C27.72,37.599 27.721,37.599 27.721,37.6C28.301,40.098 30.8,43.359 32.461,43.359C34.123,43.359 37.056,40.307 37.202,37.6C37.202,37.599 37.202,37.599 37.202,37.599L37.202,32.181Z" style="fill:#f3775b;"/>
        <path d="M27.72,36.348L27.72,30.288L37.202,30.288L37.202,37.66C36.326,37.144 34.2,37.599 32.461,37.599C30.753,37.599 29.133,37.145 27.72,36.348Z" style="fill:#664e39;fill-opacity:0.56;"/>
        <path d="M40.086,23.376C40.086,18.888 36.672,15.249 32.461,15.249C32.461,15.249 32.461,15.249 32.461,15.249C28.25,15.249 24.837,18.888 24.837,23.376C24.837,24.715 24.426,26.167 24.837,27.44C26.464,32.486 28.25,35.568 32.461,35.568C32.461,35.568 32.461,35.568 32.461,35.568C36.672,35.568 38.723,32.227 40.086,27.44C40.453,26.153 40.086,24.715 40.086,23.376Z" style="fill:#f3775b;"/>
        <clipPath id="_clip3">
            <path d="M40.086,23.376C40.086,18.888 36.672,15.249 32.461,15.249C32.461,15.249 32.461,15.249 32.461,15.249C28.25,15.249 24.837,18.888 24.837,23.376C24.837,24.715 24.426,26.167 24.837,27.44C26.464,32.486 28.25,35.568 32.461,35.568C32.461,35.568 32.461,35.568 32.461,35.568C36.672,35.568 38.723,32.227 40.086,27.44C40.453,26.153 40.086,24.715 40.086,23.376Z"/>
        </clipPath>
        <g clip-path="url(#_clip3)">
            <path d="M30.245,18.549C30.245,18.549 23.205,27.954 31.183,37.66C31.183,37.66 18.754,36.311 19.04,35.634C19.325,34.957 20.439,18.337 20.439,18.337L30.245,18.549Z" style="fill:#f3ab9b;"/>
        </g>
        <path d="M30.339,22.005C30.339,22.005 21.664,23.044 25.587,37.277C25.587,37.277 18.391,36.095 22.483,21.505C23.598,17.529 27.212,13.415 32.28,13.415C36.983,13.415 39.928,16.456 41.204,20.182C46.398,35.347 39.441,37.277 39.441,37.277C40.864,23.033 36.759,20.176 36.759,20.176C36.759,20.176 34.044,23.633 28.613,23.741C28.959,23.37 29.77,22.768 30.339,22.005Z" style="fill:#4f538b;"/>
        <clipPath id="_clip4">
            <path d="M30.339,22.005C30.339,22.005 21.664,23.044 25.587,37.277C25.587,37.277 18.391,36.095 22.483,21.505C23.598,17.529 27.212,13.415 32.28,13.415C36.983,13.415 39.928,16.456 41.204,20.182C46.398,35.347 39.441,37.277 39.441,37.277C40.864,23.033 36.759,20.176 36.759,20.176C36.759,20.176 34.044,23.633 28.613,23.741C28.959,23.37 29.77,22.768 30.339,22.005Z"/>
        </clipPath>
        <g clip-path="url(#_clip4)">
            <path d="M35.207,11.803C35.207,11.803 34.956,15.021 32.482,18.38C30.908,20.517 27.881,23.323 26.512,25.079C23.585,28.833 25.661,38.722 25.661,38.722L35.959,40.362L49.643,37.102L40.771,12.59L35.207,11.803Z" style="fill:#1f235c;"/>
        </g>
        <ellipse cx="29.052" cy="26.328" rx="0.614" ry="0.685" style="fill:#181b1d;fill-opacity:0.75;"/>
        <ellipse cx="35.912" cy="26.328" rx="0.614" ry="0.685" style="fill:#181b1d;fill-opacity:0.75;"/>
        <path d="M31.585,30.124L31.586,30.125L31.606,30.139L31.645,30.164L31.668,30.178L31.697,30.193L31.73,30.21L31.766,30.228L31.766,30.228L31.806,30.246L31.85,30.264L31.897,30.282L31.948,30.299L32.002,30.316L32.032,30.323L32.06,30.331L32.121,30.345L32.186,30.358L32.219,30.363L32.253,30.368L32.288,30.372L32.324,30.375L32.326,30.375L32.361,30.379L32.398,30.381L32.436,30.383L32.469,30.384L32.476,30.384L32.516,30.384L32.557,30.384L32.598,30.383L32.599,30.383L32.641,30.382L32.685,30.379L32.73,30.376L32.731,30.376L32.775,30.372L32.822,30.368L32.87,30.362L32.873,30.361L32.919,30.355L32.968,30.347L33.019,30.338L33.071,30.328L33.124,30.316L33.156,30.307L33.178,30.302L33.233,30.288L33.29,30.272L33.347,30.254L33.405,30.235L33.466,30.213L33.587,30.246L33.543,30.363L33.489,30.401L33.434,30.437L33.379,30.471L33.325,30.504L33.27,30.534L33.249,30.546L33.216,30.563L33.162,30.589L33.108,30.614L33.054,30.637L33.001,30.659L32.952,30.677L32.948,30.679L32.895,30.696L32.843,30.712L32.792,30.726L32.791,30.727L32.74,30.739L32.689,30.75L32.639,30.76L32.638,30.76L32.588,30.767L32.539,30.773L32.491,30.778L32.482,30.779L32.443,30.782L32.396,30.784L32.349,30.785L32.307,30.785L32.304,30.785L32.259,30.784L32.215,30.781L32.172,30.778L32.129,30.774L32.048,30.764L31.97,30.752L31.934,30.744L31.896,30.736L31.826,30.719L31.76,30.7L31.698,30.68L31.64,30.659L31.586,30.638L31.586,30.637L31.538,30.616L31.493,30.595L31.453,30.575L31.417,30.556L31.362,30.523L31.325,30.5L31.324,30.499L31.312,30.49L31.261,30.171L31.58,30.12L31.585,30.124Z" style="fill:#7d4836;fill-opacity:0.7;"/>
        <path d="M30.662,31.901L30.663,31.902L30.678,31.913L30.701,31.928L30.732,31.948L30.77,31.972L30.815,31.998L30.868,32.027L30.927,32.057L30.993,32.089L31.066,32.121L31.104,32.137L31.144,32.153L31.186,32.169L31.23,32.185L31.275,32.2L31.321,32.215L31.369,32.23L31.419,32.244L31.47,32.258L31.473,32.258L31.523,32.271L31.577,32.284L31.633,32.296L31.69,32.307L31.748,32.317L31.808,32.326L31.87,32.334L31.932,32.341L31.997,32.346L32.001,32.347L32.062,32.351L32.129,32.355L32.198,32.357L32.256,32.358L32.268,32.358L32.339,32.358L32.412,32.356L32.487,32.353L32.488,32.353L32.562,32.349L32.64,32.343L32.719,32.335L32.721,32.334L32.799,32.326L32.881,32.315L32.965,32.302L32.972,32.301L33.051,32.287L33.138,32.271L33.226,32.252L33.317,32.23L33.408,32.206L33.464,32.19L33.502,32.179L33.597,32.151L33.694,32.119L33.793,32.085L33.893,32.047L33.996,32.006L34.143,32.046L34.089,32.188L33.994,32.249L33.898,32.307L33.802,32.361L33.707,32.413L33.613,32.462L33.576,32.48L33.519,32.507L33.426,32.548L33.333,32.587L33.241,32.623L33.15,32.657L33.066,32.685L33.059,32.687L32.969,32.714L32.88,32.739L32.795,32.761L32.792,32.761L32.705,32.78L32.619,32.796L32.535,32.81L32.533,32.811L32.449,32.822L32.366,32.83L32.285,32.837L32.27,32.838L32.204,32.842L32.125,32.844L32.047,32.845L31.976,32.844L31.971,32.844L31.896,32.841L31.822,32.836L31.75,32.83L31.679,32.823L31.61,32.814L31.543,32.805L31.477,32.794L31.412,32.782L31.352,32.77L31.349,32.769L31.288,32.755L31.229,32.74L31.171,32.725L31.115,32.709L31.061,32.692L31.009,32.675L30.958,32.657L30.909,32.64L30.861,32.621L30.773,32.586L30.772,32.585L30.692,32.55L30.618,32.514L30.552,32.48L30.494,32.449L30.444,32.419L30.402,32.394L30.368,32.372L30.342,32.354L30.34,32.353L30.322,32.34L30.261,31.953L30.649,31.892L30.662,31.901Z" style="fill:#2f2826;fill-opacity:0.7;"/>
    </g>
    <g>
        <g>
            <path d="M18.545,32.903C18.15,30.927 16.762,29.295 14.875,28.587C14.875,28.587 14.875,28.587 14.875,28.587C13.892,28.218 12.851,28.03 11.802,28.03L10.383,28.03C9.381,28.03 8.388,28.21 7.449,28.562C7.449,28.562 7.449,28.562 7.449,28.562C5.52,29.285 4.102,30.953 3.698,32.973C3.446,34.232 3.217,35.376 3.217,35.376L19.04,35.376C19.04,35.376 18.802,34.189 18.545,32.903Z" style="fill:#777ec7;"/>
            <g>
                <path d="M14.277,30.54C15.105,30.571 15.824,31.283 15.854,32.117C15.86,32.627 15.854,33.137 15.854,33.648C15.845,33.942 15.32,33.987 15.29,33.665C15.265,32.864 15.467,31.998 15.051,31.49C14.476,30.788 13.067,31.258 13.029,32.281C13.021,32.92 13.175,33.71 12.898,33.886C12.733,33.991 12.484,33.874 12.464,33.665C12.437,32.78 12.349,31.846 12.842,31.218C13.18,30.788 13.72,30.533 14.277,30.54Z" style="fill:#fff;fill-rule:nonzero;"/>
                <path d="M7.028,31.131C7.059,30.802 7.117,30.479 7.223,30.168C7.813,28.424 9.562,27.16 11.432,27.149C11.446,27.149 11.459,27.149 11.472,27.149C13.026,27.178 14.413,28.545 14.441,30.119C14.444,30.506 14.53,30.944 14.292,31.071C14.123,31.162 13.887,31.036 13.877,30.822C13.877,30.314 13.902,29.786 13.723,29.305C13.25,28.032 11.67,27.436 10.234,27.903C8.83,28.359 7.767,29.659 7.583,31.148C8.056,31.283 8.402,31.719 8.402,32.235C8.402,32.859 7.896,33.365 7.272,33.365C6.648,33.365 6.142,32.859 6.142,32.235C6.142,31.695 6.521,31.243 7.028,31.131Z" style="fill:#fff;fill-rule:nonzero;"/>
                <circle cx="7.272" cy="32.235" r="0.565" style="fill:#777ec7;"/>
                <circle cx="12.746" cy="33.365" r="0.706" style="fill:#fff;"/>
                <circle cx="15.572" cy="33.365" r="0.706" style="fill:#fff;"/>
            </g>
            <path d="M13.106,26.617L9.151,26.617L9.151,28.877C9.151,28.877 9.151,28.877 9.151,28.877C10.334,29.722 11.923,29.722 13.106,28.877C13.106,28.877 13.106,28.877 13.106,28.877L13.106,26.617Z" style="fill:#a35f47;"/>
            <path d="M14.519,22.944C14.519,21.071 13.001,19.553 11.128,19.553C11.128,19.553 11.128,19.553 11.128,19.553C9.256,19.553 7.738,21.071 7.738,22.944C7.738,23.502 7.738,24.081 7.738,24.639C7.738,26.512 9.256,28.03 11.128,28.03C11.128,28.03 11.128,28.03 11.128,28.03C13.001,28.03 14.519,26.512 14.519,24.639C14.519,24.081 14.519,23.502 14.519,22.944Z" style="fill:#f3775b;"/>
        </g>
        <path d="M11.237,18.549C10.225,18.549 9.594,18.859 9.123,19.198C8.361,19.747 8.493,20.364 8.364,20.364C8.234,20.364 8.238,19.931 8.238,19.931C7.399,20.364 7.509,21.589 7.725,23.663C7.962,22.123 8.223,21.724 8.69,21.569C9.112,21.429 9.699,21.488 10.28,21.547C10.61,21.581 10.938,21.614 11.233,21.611C11.826,21.606 12.238,21.447 12.764,21.447C14.316,21.447 14.225,22.397 14.534,23.663C14.639,23.143 14.687,22.632 14.688,22.155L14.688,22.134C14.686,20.93 14.38,19.953 13.906,19.617C13.321,19.203 12.25,18.549 11.237,18.549Z" style="fill:#1f235c;fill-rule:nonzero;"/>
    </g>
    <g>
        <g>
            <g>
                <ellipse cx="33.282" cy="57.08" rx="4.147" ry="1.484" style="fill:#f1765a;"/>
                <rect x="29.135" y="54.677" width="8.294" height="2.449" style="fill:#f1765a;"/>
                <ellipse cx="33.282" cy="54.69" rx="4.147" ry="1.484" style="fill:#fac9be;"/>
            </g>
        </g>
        <g>
            <ellipse cx="41.471" cy="59.635" rx="4.147" ry="1.484" style="fill:#d5d6e6;fill-opacity:0.75;"/>
            <g>
                <ellipse cx="39.664" cy="59.759" rx="4.147" ry="1.484" style="fill:#f1765a;"/>
                <rect x="35.517" y="57.357" width="8.294" height="2.449" style="fill:#f1765a;"/>
                <ellipse cx="39.664" cy="57.369" rx="4.147" ry="1.484" style="fill:#fac9be;"/>
            </g>
        </g>
    </g>
    <g>
        <path d="M44.99,13.649L53.567,13.649L60.607,24.089C60.607,24.089 60.135,24.531 59.695,24.944C59.215,25.393 58.583,25.643 57.926,25.643C55.955,25.643 51.64,25.643 49.55,25.643C48.804,25.643 48.099,25.301 47.637,24.715C47.032,23.948 46.183,22.871 45.611,22.145C45.209,21.635 44.99,21.004 44.99,20.354C44.99,18.267 44.99,13.649 44.99,13.649Z" style="fill:#a4a6cf;"/>
        <clipPath id="_clip5">
            <path d="M44.99,13.649L53.567,13.649L60.607,24.089C60.607,24.089 60.135,24.531 59.695,24.944C59.215,25.393 58.583,25.643 57.926,25.643C55.955,25.643 51.64,25.643 49.55,25.643C48.804,25.643 48.099,25.301 47.637,24.715C47.032,23.948 46.183,22.871 45.611,22.145C45.209,21.635 44.99,21.004 44.99,20.354C44.99,18.267 44.99,13.649 44.99,13.649Z"/>
        </clipPath>
        <g clip-path="url(#_clip5)">
            <path d="M44.188,9.699L37.051,26.142L42.538,27.892L48.954,26.546L51.099,23.201L44.188,9.699Z" style="fill:#5558a4;fill-opacity:0.45;"/>
        </g>
        <path d="M45.025,13.937C44.9,13.664 44.954,13.346 45.168,13.094C45.382,12.842 45.727,12.689 46.082,12.689C48.085,12.689 51.497,12.689 53.747,12.689C55.112,12.689 56.294,13.361 56.772,14.407C57.866,16.804 59.823,21.093 60.788,23.207C60.913,23.48 60.859,23.798 60.645,24.05C60.431,24.302 60.087,24.455 59.731,24.455C57.728,24.455 54.316,24.455 52.067,24.455C50.702,24.455 49.52,23.783 49.042,22.737C47.948,20.34 45.99,16.051 45.025,13.937Z" style="fill:#dfdff2;"/>
        <path d="M47.42,14.057C47.378,13.966 47.394,13.86 47.463,13.775C47.532,13.691 47.644,13.64 47.76,13.64C49.05,13.64 52.357,13.64 53.889,13.64C54.377,13.64 54.803,13.886 54.978,14.27C55.695,15.84 57.546,19.897 58.146,21.21C58.188,21.301 58.171,21.407 58.102,21.492C58.034,21.576 57.922,21.627 57.806,21.627C56.516,21.627 53.209,21.627 51.676,21.627C51.188,21.627 50.763,21.381 50.587,20.997C49.871,19.427 48.019,15.371 47.42,14.057Z" style="fill:#2b307e;"/>
        <path d="M55.947,22.825C55.902,22.727 55.911,22.612 55.969,22.521C56.028,22.43 56.129,22.375 56.237,22.375C56.771,22.375 57.61,22.375 58.093,22.375C58.321,22.375 58.529,22.509 58.623,22.717C58.624,22.717 58.624,22.717 58.624,22.717C58.665,22.809 58.658,22.915 58.603,22.999C58.549,23.084 58.456,23.135 58.355,23.135C57.81,23.135 56.913,23.135 56.427,23.135C56.221,23.135 56.033,23.014 55.948,22.827C55.948,22.826 55.948,22.826 55.947,22.825Z" style="fill:#be88be;"/>
        <path d="M52.755,22.825C52.71,22.727 52.718,22.612 52.777,22.521C52.835,22.43 52.936,22.375 53.044,22.375C53.578,22.375 54.418,22.375 54.9,22.375C55.129,22.375 55.336,22.509 55.431,22.717C55.431,22.717 55.431,22.717 55.431,22.717C55.473,22.809 55.465,22.915 55.411,22.999C55.357,23.084 55.263,23.135 55.163,23.135C54.617,23.135 53.72,23.135 53.234,23.135C53.028,23.135 52.841,23.014 52.755,22.827C52.755,22.826 52.755,22.826 52.755,22.825Z" style="fill:#be88be;"/>
        <path id="Love" d="M52.986,15.944L53.035,15.944C53.341,15.96 53.711,16.139 54.008,16.406C54.281,16.658 54.455,16.958 54.474,17.218C54.498,17.526 54.338,17.802 54.197,18.045C54.165,18.102 54.134,18.159 54.107,18.208C54.009,18.386 53.908,18.557 53.81,18.719C53.753,18.808 53.7,18.906 53.646,19.003L53.588,19.108L53.432,19.011C52.986,18.735 52.526,18.427 52.063,18.094C52.016,18.062 51.966,18.021 51.911,17.989C51.568,17.745 51.136,17.445 50.909,17.08C50.727,16.78 50.669,16.488 50.753,16.277C50.832,16.074 51.032,15.96 51.306,15.96L51.347,15.96C51.79,15.976 52.146,16.195 52.386,16.39C52.441,16.187 52.599,15.944 52.986,15.944Z" style="fill:#f3775b;"/>
    </g>
</svg>
