<?xml version="1.0" encoding="UTF-8" standalone="no"?>
<!DOCTYPE svg PUBLIC "-//W3C//DTD SVG 1.1//EN" "http://www.w3.org/Graphics/SVG/1.1/DTD/svg11.dtd">
<svg width="100%" height="100%" viewBox="0 0 65 65" version="1.1" xmlns="http://www.w3.org/2000/svg" xmlns:xlink="http://www.w3.org/1999/xlink" xml:space="preserve" xmlns:serif="http://www.serif.com/" style="fill-rule:evenodd;clip-rule:evenodd;stroke-linejoin:round;stroke-miterlimit:2;">
    <rect id="Pharmacy" x="0.065" y="0.897" width="64" height="64" style="fill:none;"/>
    <clipPath id="_clip1">
        <rect x="0.065" y="0.897" width="64" height="64"/>
    </clipPath>
    <g clip-path="url(#_clip1)">
        <path d="M34.113,48.471C34.113,48.471 31.809,50.261 30.595,51.204C30.504,51.274 30.472,51.396 30.516,51.501C30.559,51.607 30.668,51.67 30.782,51.656C32.565,51.434 36.53,50.941 38.857,50.651C40.049,50.503 41.257,50.543 42.436,50.769C43.135,50.903 43.896,51.049 44.436,51.152C44.905,51.242 45.391,51.177 45.82,50.967C48.446,49.68 58.137,44.929 60.991,43.53C61.105,43.474 61.171,43.352 61.154,43.226C61.137,43.1 61.041,42.999 60.916,42.976C60.364,42.872 59.636,42.735 58.99,42.613C58,42.427 57.092,41.936 56.393,41.21C55.63,40.418 54.741,39.494 54.741,39.494L34.113,48.471Z" style="fill:#e0e0ec;fill-opacity:0.78;"/>
        <rect x="0.053" y="0.862" width="64" height="34.255" style="fill:#8d97d2;"/>
        <rect x="-0.259" y="17.917" width="64.823" height="3" style="fill:#1f235c;fill-opacity:0.13;"/>
        <rect x="-0.067" y="15.956" width="64.148" height="1.96" style="fill:#e6e7f2;"/>
        <rect x="-0.067" y="0.945" width="64.148" height="1.96" style="fill:#e6e7f2;"/>
        <rect x="7.357" y="10.261" width="5.02" height="5.143" style="fill:#e6e7f2;"/>
        <rect x="28.917" y="10.261" width="5.02" height="5.143" style="fill:#e6e7f2;"/>
        <rect x="55.3" y="10.261" width="5.02" height="5.143" style="fill:#e6e7f2;"/>
        <rect x="49.588" y="10.261" width="5.02" height="5.143" style="fill:#c3c7e1;"/>
        <rect x="7.357" y="4.433" width="5.02" height="5.143" style="fill:#e6e7f2;"/>
        <rect x="28.917" y="4.433" width="5.02" height="5.143" style="fill:#e6e7f2;"/>
        <rect x="55.3" y="4.433" width="5.02" height="5.143" style="fill:#e6e7f2;"/>
        <rect x="49.588" y="4.433" width="5.02" height="5.143" style="fill:#e6e7f2;"/>
        <rect x="1.572" y="6.284" width="3.87" height="9.12" style="fill:#cbcee7;"/>
        <rect x="18.566" y="6.284" width="3.87" height="9.12" style="fill:#e6e7f2;"/>
        <rect x="23.729" y="6.284" width="3.87" height="9.12" style="fill:#cbcee7;"/>
        <g>
            <path d="M17.725,11.146C17.725,10.823 17.597,10.514 17.369,10.287C17.141,10.059 16.832,9.931 16.51,9.931C16.058,9.931 15.545,9.931 15.091,9.931C14.763,9.931 14.449,10.061 14.217,10.293C13.985,10.525 13.854,10.839 13.854,11.168C13.854,12.218 13.854,13.693 13.854,14.576C13.854,14.776 13.934,14.967 14.075,15.109C14.217,15.25 14.409,15.33 14.609,15.33C15.287,15.33 16.278,15.33 16.959,15.33C17.382,15.33 17.725,14.987 17.725,14.564C17.725,13.674 17.725,12.193 17.725,11.146Z" style="fill:#f1b1af;"/>
            <rect x="14.81" y="8.007" width="1.959" height="1.507" style="fill:#edeef4;"/>
        </g>
        <g>
            <path d="M43.393,11.101C43.393,10.779 43.265,10.47 43.037,10.242C42.809,10.014 42.5,9.886 42.178,9.886C41.726,9.886 41.213,9.886 40.76,9.886C40.432,9.886 40.117,10.017 39.885,10.249C39.653,10.48 39.523,10.795 39.523,11.123C39.523,12.174 39.523,13.648 39.523,14.531C39.523,14.731 39.602,14.923 39.744,15.064C39.885,15.206 40.077,15.285 40.277,15.285C40.955,15.285 41.946,15.285 42.628,15.285C43.05,15.285 43.393,14.943 43.393,14.52C43.393,13.63 43.393,12.149 43.393,11.101Z" style="fill:#ebecf3;"/>
            <rect x="40.479" y="7.962" width="1.959" height="1.507" style="fill:#edeef4;"/>
        </g>
        <g>
            <path d="M48.149,11.101C48.149,10.779 48.021,10.47 47.793,10.242C47.565,10.014 47.256,9.886 46.934,9.886C46.482,9.886 45.969,9.886 45.516,9.886C45.188,9.886 44.873,10.017 44.641,10.249C44.409,10.48 44.279,10.795 44.279,11.123C44.279,12.174 44.279,13.648 44.279,14.531C44.279,14.731 44.358,14.923 44.5,15.064C44.641,15.206 44.833,15.285 45.033,15.285C45.711,15.285 46.702,15.285 47.384,15.285C47.806,15.285 48.149,14.943 48.149,14.52C48.149,13.63 48.149,12.149 48.149,11.101Z" style="fill:#f1b1af;"/>
            <rect x="45.235" y="7.962" width="1.959" height="1.507" style="fill:#edeef4;"/>
        </g>
        <path d="M33.035,35.228L4.357,29.766L4.423,40.623L33.035,48.386L33.035,35.228Z" style="fill:#dcdeed;"/>
        <path d="M4.357,29.766L33.035,35.228L49.4,29.765L22.247,26.139C22.247,26.139 18.151,26.433 13.496,27.448C9.82,28.25 4.357,29.766 4.357,29.766Z" style="fill:#fff;"/>
        <path d="M49.4,41.219L33.035,48.386L33.035,35.228C33.035,35.228 37.577,33.407 41.642,32.119C46.251,30.658 49.4,29.765 49.4,29.765L49.4,41.219Z" style="fill:#5e6592;"/>
        <path d="M56.817,32.794C56.817,31.954 56.231,31.229 55.41,31.053C53.259,30.592 49.4,29.765 49.4,29.765L49.4,41.268L56.817,41.268L56.817,32.794Z" style="fill:#cfd1e2;"/>
        <path d="M29.332,40.398C29.332,39.988 29.473,39.591 29.732,39.273C30.69,38.097 33.035,35.218 33.035,35.218L33.035,48.386C33.035,48.386 31.045,49.851 29.983,50.633C29.859,50.724 29.694,50.738 29.556,50.669C29.419,50.599 29.332,50.458 29.332,50.304C29.332,48.155 29.332,42.331 29.332,40.398Z" style="fill:#8d93ba;"/>
        <g>
            <g>
                <g>
                    <ellipse cx="40.19" cy="56.589" rx="2.367" ry="0.847" style="fill:#f1765a;"/>
                    <rect x="37.822" y="55.217" width="4.735" height="1.398" style="fill:#f1765a;"/>
                    <ellipse cx="40.19" cy="55.224" rx="2.367" ry="0.847" style="fill:#fac9be;"/>
                </g>
            </g>
            <g>
                <ellipse cx="44.086" cy="58.57" rx="2.367" ry="0.847" style="fill:#d5d6e6;fill-opacity:0.75;"/>
                <g>
                    <ellipse cx="43.054" cy="58.641" rx="2.367" ry="0.847" style="fill:#f1765a;"/>
                    <rect x="40.687" y="57.269" width="4.735" height="1.398" style="fill:#f1765a;"/>
                    <ellipse cx="43.054" cy="57.276" rx="2.367" ry="0.847" style="fill:#fac9be;"/>
                </g>
            </g>
        </g>
        <path d="M18.723,37.006L18.723,38.26L6.555,35.451L6.555,34.197L18.723,37.006Z" style="fill:#2b307e;fill-opacity:0.5;"/>
        <path d="M14.936,39.556L14.935,40.814L6.578,38.721L6.579,37.462L14.936,39.556Z" style="fill:#2b307e;fill-opacity:0.5;"/>
        <path d="M33.035,48.386L49.4,41.268L59.859,43.018L44.816,50.86L33.035,48.386Z" style="fill:#cfd1e2;"/>
        <clipPath id="_clip2">
            <path d="M33.035,48.386L49.4,41.268L59.859,43.018L44.816,50.86L33.035,48.386Z"/>
        </clipPath>
        <g clip-path="url(#_clip2)">
            <path d="M34.468,46.853L46.934,40.622L56.96,42.334C56.96,42.334 47.873,46.446 44.428,48.005C43.58,48.388 42.634,48.496 41.722,48.312C39.271,47.819 34.468,46.853 34.468,46.853Z" style="fill:#5e6592;fill-opacity:0.26;"/>
        </g>
        <path d="M60.551,42.461C60.625,42.391 60.637,42.279 60.58,42.195C60.523,42.112 60.413,42.082 60.322,42.125C57.252,43.571 49.056,47.433 46.897,48.45C46.55,48.613 46.251,48.86 46.025,49.169C45.558,49.807 44.781,50.87 44.781,50.87L59.823,43.147C59.823,43.147 60.172,42.818 60.551,42.461Z" style="fill:#8d93ba;"/>
        <path d="M33.888,45.075L47.325,39.987C47.325,39.987 55.61,40.276 58.535,40.378C58.637,40.381 58.723,40.456 58.741,40.557C58.759,40.657 58.705,40.757 58.61,40.796C56.169,41.798 49.601,44.496 46.996,45.566C46.282,45.859 45.509,45.981 44.739,45.921C41.716,45.685 33.888,45.075 33.888,45.075Z" style="fill:#f4f4f9;"/>
        <g>
            <path d="M47.376,40.468C48.613,40.339 49.656,40.594 49.702,41.036C49.748,41.479 48.781,41.944 47.543,42.073C46.306,42.202 45.263,41.948 45.217,41.505C45.171,41.062 46.138,40.597 47.376,40.468Z" style="fill:#d5d6e6;fill-opacity:0.75;"/>
            <g>
                <path d="M46.406,40.637C47.643,40.508 48.686,40.763 48.732,41.206C48.778,41.648 47.811,42.113 46.573,42.242C45.335,42.371 44.293,42.117 44.247,41.674C44.201,41.231 45.168,40.766 46.406,40.637Z" style="fill:#f1765a;"/>
                <path d="M48.596,39.906L44.111,40.374L44.249,41.699L48.734,41.23L48.596,39.906Z" style="fill:#f1765a;"/>
                <path d="M46.271,39.344C47.508,39.215 48.551,39.47 48.597,39.913C48.643,40.356 47.676,40.82 46.438,40.949C45.201,41.079 44.158,40.824 44.112,40.381C44.066,39.938 45.033,39.474 46.271,39.344Z" style="fill:#fac9be;"/>
            </g>
        </g>
        <g>
            <path d="M40.999,42.749C42.236,42.62 43.279,42.875 43.325,43.318C43.371,43.761 42.404,44.225 41.166,44.354C39.929,44.484 38.886,44.229 38.84,43.786C38.794,43.343 39.761,42.879 40.999,42.749Z" style="fill:#d5d6e6;fill-opacity:0.75;"/>
            <g>
                <path d="M40.029,42.918C41.266,42.789 42.309,43.044 42.355,43.487C42.401,43.93 41.434,44.394 40.196,44.524C38.959,44.653 37.916,44.398 37.87,43.955C37.824,43.512 38.791,43.048 40.029,42.918Z" style="fill:#f1765a;"/>
                <path d="M42.219,42.188L37.734,42.656L37.873,43.98L42.358,43.512L42.219,42.188Z" style="fill:#f1765a;"/>
                <path d="M39.894,41.626C41.131,41.497 42.174,41.751 42.22,42.194C42.266,42.637 41.299,43.102 40.061,43.231C38.824,43.36 37.781,43.105 37.735,42.662C37.689,42.22 38.656,41.755 39.894,41.626Z" style="fill:#fac9be;"/>
            </g>
        </g>
        <g>
            <path d="M46.825,43.15C48.063,43.021 49.105,43.276 49.151,43.719C49.198,44.162 48.23,44.626 46.993,44.755C45.755,44.885 44.712,44.63 44.666,44.187C44.62,43.744 45.587,43.279 46.825,43.15Z" style="fill:#d5d6e6;fill-opacity:0.75;"/>
            <g>
                <path d="M45.855,43.319C47.093,43.19 48.135,43.445 48.181,43.888C48.227,44.331 47.26,44.795 46.022,44.924C44.785,45.054 43.742,44.799 43.696,44.356C43.65,43.913 44.617,43.449 45.855,43.319Z" style="fill:#f1765a;"/>
                <path d="M48.045,42.588L43.56,43.057L43.699,44.381L48.184,43.913L48.045,42.588Z" style="fill:#f1765a;"/>
                <path d="M45.72,42.027C46.958,41.897 48,42.152 48.046,42.595C48.092,43.038 47.125,43.502 45.887,43.632C44.65,43.761 43.607,43.506 43.561,43.063C43.515,42.62 44.482,42.156 45.72,42.027Z" style="fill:#fac9be;"/>
            </g>
        </g>
        <g>
            <path d="M52.981,40.543C54.218,40.414 55.261,40.669 55.307,41.112C55.353,41.555 54.386,42.019 53.148,42.148C51.91,42.278 50.868,42.023 50.822,41.58C50.776,41.137 51.743,40.673 52.981,40.543Z" style="fill:#d5d6e6;fill-opacity:0.75;"/>
            <g>
                <path d="M52.01,40.713C53.248,40.583 54.29,40.838 54.337,41.281C54.383,41.724 53.416,42.188 52.178,42.318C50.94,42.447 49.898,42.192 49.852,41.749C49.805,41.306 50.773,40.842 52.01,40.713Z" style="fill:#f1765a;"/>
                <path d="M54.201,39.982L49.716,40.45L49.854,41.774L54.339,41.306L54.201,39.982Z" style="fill:#f1765a;"/>
                <path d="M51.875,39.42C53.113,39.291 54.156,39.545 54.202,39.988C54.248,40.431 53.281,40.896 52.043,41.025C50.805,41.154 49.763,40.899 49.717,40.456C49.67,40.014 50.638,39.549 51.875,39.42Z" style="fill:#fac9be;"/>
            </g>
        </g>
        <path id="Love" d="M37.036,29.286C36.995,29.28 36.953,29.274 36.911,29.268C36.098,29.169 34.893,29.217 33.754,29.386C32.698,29.547 31.832,29.797 31.423,30.064C30.933,30.379 30.963,30.73 30.993,31.04C30.995,31.112 30.997,31.183 30.998,31.245C31.004,31.47 31.031,31.688 31.058,31.896C31.082,32.011 31.085,32.134 31.088,32.257L31.092,32.39L31.631,32.347C33.167,32.225 34.784,32.075 36.443,31.9C36.609,31.883 36.795,31.86 36.982,31.846C38.205,31.72 39.739,31.568 40.833,31.269C41.72,31.022 42.274,30.736 42.35,30.482C42.427,30.239 42.068,30.044 41.358,29.94C41.316,29.933 41.296,29.93 41.254,29.924C40.085,29.774 38.861,29.869 37.97,29.983C38.109,29.749 38.038,29.433 37.036,29.286Z" style="fill:#f3775b;"/>
        <clipPath id="_clip3">
            <path d="M37.036,29.286C36.995,29.28 36.953,29.274 36.911,29.268C36.098,29.169 34.893,29.217 33.754,29.386C32.698,29.547 31.832,29.797 31.423,30.064C30.933,30.379 30.963,30.73 30.993,31.04C30.995,31.112 30.997,31.183 30.998,31.245C31.004,31.47 31.031,31.688 31.058,31.896C31.082,32.011 31.085,32.134 31.088,32.257L31.092,32.39L31.631,32.347C33.167,32.225 34.784,32.075 36.443,31.9C36.609,31.883 36.795,31.86 36.982,31.846C38.205,31.72 39.739,31.568 40.833,31.269C41.72,31.022 42.274,30.736 42.35,30.482C42.427,30.239 42.068,30.044 41.358,29.94C41.316,29.933 41.296,29.93 41.254,29.924C40.085,29.774 38.861,29.869 37.97,29.983C38.109,29.749 38.038,29.433 37.036,29.286Z"/>
        </clipPath>
        <g clip-path="url(#_clip3)">
            <path d="M37.668,30.684C37.691,30.697 37.709,30.704 37.666,30.734L36.664,31.339C36.664,31.339 39.519,31.758 39.519,31.758C39.653,31.796 39.379,31.894 39.165,31.869L36.211,31.436C36.11,31.418 36.111,31.411 36.164,31.373L36.926,30.914L33.071,31.783C32.873,31.815 32.692,31.78 32.792,31.723L35.454,30.41L32.958,31.001C32.82,31.025 32.805,31.024 32.706,31.012L29.752,30.58C29.586,30.549 29.838,30.436 30.083,30.464L32.91,30.878L36.062,30.133C36.26,30.099 36.45,30.133 36.348,30.191L33.652,31.52L37.376,30.681C37.543,30.654 37.581,30.653 37.668,30.684Z" style="fill:#fff;"/>
        </g>
        <path d="M31.502,28.306L22.017,26.889L19.999,27.278L29.484,28.695L31.502,28.306Z" style="fill:#cfd1e2;"/>
        <path d="M24.095,28.478L18.52,27.645L16.501,28.034L22.077,28.867L24.095,28.478Z" style="fill:#cfd1e2;"/>
    </g>
</svg>
