<?xml version="1.0" encoding="UTF-8" standalone="no"?>
<!DOCTYPE svg PUBLIC "-//W3C//DTD SVG 1.1//EN" "http://www.w3.org/Graphics/SVG/1.1/DTD/svg11.dtd">
<svg width="100%" height="100%" viewBox="0 0 65 65" version="1.1" xmlns="http://www.w3.org/2000/svg" xmlns:xlink="http://www.w3.org/1999/xlink" xml:space="preserve" xmlns:serif="http://www.serif.com/" style="fill-rule:evenodd;clip-rule:evenodd;stroke-linejoin:round;stroke-miterlimit:2;">
    <rect id="Potato-chips" x="0.309" y="0.82" width="64" height="64" style="fill:none;"/>
    <path d="M15.11,56.762L7.276,61.524L57.031,61.907L49.791,56.916L15.11,56.762Z" style="fill:#b2b4d7;fill-opacity:0.2;"/>
    <g>
        <g>
            <path d="M50.995,2.863L13.225,2.863C16.049,22.189 16.054,41.274 13.225,60.117L50.995,60.117C48.046,41.452 47.942,22.369 50.995,2.863Z" style="fill:#f1765a;"/>
            <clipPath id="_clip1">
                <path d="M50.995,2.863L13.225,2.863C16.049,22.189 16.054,41.274 13.225,60.117L50.995,60.117C48.046,41.452 47.942,22.369 50.995,2.863Z"/>
            </clipPath>
            <g clip-path="url(#_clip1)">
                <rect x="7.92" y="-2.016" width="51.521" height="7.29" style="fill:#a35f47;fill-opacity:0.76;"/>
                <rect x="7.92" y="58.499" width="51.521" height="7.29" style="fill:#edaa9b;fill-opacity:0.76;"/>
                <path id="_-Curve-" serif:id="(Curve)" d="M14.786,58.863C14.786,58.863 20.701,52.679 32.11,52.679C43.518,52.679 49.911,58.191 49.911,58.191C49.911,58.191 39.765,56.08 32.11,56.08C24.455,56.08 18.609,57.489 14.786,58.863Z" style="fill:#a35f47;"/>
                <circle cx="32.349" cy="24.004" r="13.985" style="fill:#f4f4fa;"/>
                <path d="M14.786,6.131C14.786,6.131 20.874,14.382 32.282,14.382C43.691,14.382 49.911,5.656 49.911,5.656C49.911,5.656 39.765,10.157 32.11,10.157C24.455,10.157 18.609,8.003 14.786,6.131Z" style="fill:#fff;fill-opacity:0.39;"/>
                <path d="M17.63,13.904C17.63,13.904 15.851,28.191 32.349,30.793C32.349,30.793 21.087,24.377 17.63,13.904Z" style="fill:#fff;fill-opacity:0.39;"/>
                <path d="M47.853,33.555C47.853,33.555 49.633,47.841 33.135,50.444C33.135,50.444 44.397,44.028 47.853,33.555Z" style="fill:#a35f47;fill-opacity:0.39;"/>
            </g>
        </g>
    </g>
    <path d="M28.312,23.098C31.09,23.098 37.073,19.08 37.073,20.829C37.073,22.578 35.04,28.999 29.232,29.621C26.515,29.912 21.877,27.298 22.822,23.284C22.941,22.775 25.534,23.098 28.312,23.098Z" style="fill:#b6654c;"/>
    <path d="M34.459,20.829C39.464,17.534 39.529,16.283 39.911,16.552C42.349,18.272 44.896,23.851 39.318,27.222C33.903,30.495 23.718,25.197 22.866,23.402C22.206,22.009 28.976,24.44 34.459,20.829Z" style="fill:#edaa9b;"/>
</svg>
