<?xml version="1.0" encoding="UTF-8" standalone="no"?>
<!DOCTYPE svg PUBLIC "-//W3C//DTD SVG 1.1//EN" "http://www.w3.org/Graphics/SVG/1.1/DTD/svg11.dtd">
<svg width="100%" height="100%" viewBox="0 0 64 65" version="1.1" xmlns="http://www.w3.org/2000/svg" xmlns:xlink="http://www.w3.org/1999/xlink" xml:space="preserve" xmlns:serif="http://www.serif.com/" style="fill-rule:evenodd;clip-rule:evenodd;stroke-linecap:round;stroke-linejoin:round;stroke-miterlimit:1.5;">
    <rect id="Prepareness-PE" x="0" y="0.28" width="64" height="64" style="fill:none;"/>
    <path d="M52,16.28C52,14.688 51.368,13.162 50.243,12.037C49.117,10.912 47.591,10.28 46,10.28C38.5,10.28 25.731,10.28 18.158,10.28C16.525,10.28 14.959,10.928 13.804,12.083C12.649,13.238 12,14.805 12,16.438C12,26.091 12,44.668 12,54.244C12,57.577 14.702,60.28 18.036,60.28C25.583,60.28 38.428,60.28 45.972,60.28C49.301,60.28 52,57.581 52,54.252C52,44.625 52,25.889 52,16.28Z" style="fill:#f3775b;"/>
    <rect x="12" y="10.28" width="40" height="50" style="fill:#3bbc53;"/>
    <path d="M41.5,9.28C41.5,6.518 39.261,4.28 36.5,4.28C33.722,4.28 30.278,4.28 27.5,4.28C24.739,4.28 22.5,6.518 22.5,9.28C22.5,11.78 22.5,14.28 22.5,14.28L41.5,14.28C41.5,14.28 41.5,11.78 41.5,9.28Z" style="fill:#2b307e;"/>
    <g>
        <path d="M18.5,38.936L20.5,40.936L26.157,35.28" style="fill:none;stroke:#fff;stroke-width:2px;"/>
        <rect x="29.5" y="37.78" width="16" height="2" style="fill:#fff;"/>
    </g>
    <g>
        <path d="M18.5,26.436L20.5,28.436L26.157,22.78" style="fill:none;stroke:#fff;stroke-width:2px;"/>
        <rect x="29.5" y="25.28" width="16" height="2" style="fill:#fff;"/>
    </g>
    <g>
        <path d="M18.5,49.968L20.5,51.98L26.157,46.291" style="fill:none;stroke:#fff;stroke-width:2px;"/>
        <rect x="29.5" y="48.805" width="16" height="2.011" style="fill:#fff;"/>
    </g>
    <path d="M58.649,31.915C59.12,31.444 59.385,30.804 59.385,30.137C59.385,29.471 59.12,28.831 58.649,28.36C58.648,28.359 58.648,28.359 58.648,28.359C58.176,27.887 57.537,27.622 56.87,27.622C56.203,27.622 55.564,27.887 55.092,28.359C49.311,34.14 31.414,52.037 31.414,52.037L30.364,56.644L34.971,55.593C34.971,55.593 52.868,37.696 58.649,31.915Z" style="fill:#2b307e;"/>
    <path d="M58.348,48.928C58.839,48.767 59.246,48.417 59.479,47.956C59.712,47.495 59.752,46.96 59.591,46.469C59.591,46.468 59.59,46.467 59.59,46.466C59.429,45.976 59.079,45.569 58.618,45.336C58.157,45.103 57.622,45.063 57.131,45.224C51.117,47.2 32.509,53.313 32.509,53.313L30.176,56.132L33.726,57.017C33.726,57.017 52.334,50.904 58.348,48.928Z" style="fill:#2b307e;fill-opacity:0.239216;"/>
</svg>
