<?xml version="1.0" encoding="UTF-8" standalone="no"?>
<!DOCTYPE svg PUBLIC "-//W3C//DTD SVG 1.1//EN" "http://www.w3.org/Graphics/SVG/1.1/DTD/svg11.dtd">
<svg width="100%" height="100%" viewBox="0 0 65 64" version="1.1" xmlns="http://www.w3.org/2000/svg" xmlns:xlink="http://www.w3.org/1999/xlink" xml:space="preserve" xmlns:serif="http://www.serif.com/" style="fill-rule:evenodd;clip-rule:evenodd;stroke-linecap:round;stroke-linejoin:round;stroke-miterlimit:1.5;">
    <rect id="Prepareness" x="0.738" y="0" width="64" height="64" style="fill:none;"/>
    <path d="M52.738,16C52.738,14.409 52.106,12.883 50.981,11.757C49.856,10.632 48.33,10 46.738,10C39.239,10 26.47,10 18.897,10C17.263,10 15.697,10.649 14.542,11.804C13.387,12.959 12.738,14.525 12.738,16.158C12.738,25.811 12.738,44.388 12.738,53.964C12.738,57.298 15.441,60 18.774,60C26.322,60 39.166,60 46.71,60C50.04,60 52.738,57.301 52.738,53.972C52.738,44.345 52.738,25.609 52.738,16Z" style="fill:#f3775b;"/>
    <rect x="12.738" y="10" width="40" height="50" style="fill:#f3775b;"/>
    <path d="M42.238,9C42.238,6.239 40,4 37.238,4C34.461,4 31.016,4 28.238,4C25.477,4 23.238,6.239 23.238,9C23.238,11.5 23.238,14 23.238,14L42.238,14L42.238,9Z" style="fill:#2b307e;"/>
    <g>
        <path d="M19.238,38.657L21.238,40.657L26.895,35" style="fill:none;stroke:#fff;stroke-width:2px;"/>
        <rect x="30.238" y="37.5" width="16" height="2" style="fill:#fff;"/>
    </g>
    <g>
        <path d="M19.238,26.157L21.238,28.157L26.895,22.5" style="fill:none;stroke:#fff;stroke-width:2px;"/>
        <rect x="30.238" y="25" width="16" height="2" style="fill:#fff;"/>
    </g>
    <g>
        <path d="M19.238,49.689L21.238,51.7L26.895,46.011" style="fill:none;stroke:#fff;stroke-width:2px;"/>
        <rect x="30.238" y="48.525" width="16" height="2.011" style="fill:#fff;"/>
    </g>
    <path d="M59.387,31.636C59.858,31.164 60.123,30.525 60.123,29.858C60.123,29.191 59.858,28.552 59.387,28.08C59.387,28.08 59.386,28.08 59.386,28.079C58.915,27.608 58.275,27.343 57.608,27.343C56.942,27.343 56.302,27.608 55.831,28.079C50.049,33.86 32.152,51.757 32.152,51.757L31.102,56.364L35.709,55.314C35.709,55.314 53.606,37.417 59.387,31.636Z" style="fill:#2b307e;"/>
    <path d="M59.087,48.648C59.578,48.487 59.984,48.138 60.217,47.676C60.45,47.215 60.491,46.681 60.329,46.19C60.329,46.189 60.329,46.188 60.328,46.187C60.167,45.696 59.818,45.289 59.356,45.056C58.895,44.823 58.361,44.783 57.87,44.944C51.855,46.92 33.248,53.034 33.248,53.034L30.915,55.852L34.465,56.738C34.465,56.738 53.072,50.624 59.087,48.648Z" style="fill:#2b307e;fill-opacity:0.24;"/>
</svg>
