<?xml version="1.0" encoding="UTF-8" standalone="no"?>
<!DOCTYPE svg PUBLIC "-//W3C//DTD SVG 1.1//EN" "http://www.w3.org/Graphics/SVG/1.1/DTD/svg11.dtd">
<svg width="100%" height="100%" viewBox="0 0 65 65" version="1.1" xmlns="http://www.w3.org/2000/svg" xmlns:xlink="http://www.w3.org/1999/xlink" xml:space="preserve" xmlns:serif="http://www.serif.com/" style="fill-rule:evenodd;clip-rule:evenodd;stroke-linejoin:round;stroke-miterlimit:2;">
    <rect id="Presentation" x="0.661" y="0.882" width="64" height="64" style="fill:none;"/>
    <clipPath id="_clip1">
        <rect x="0.661" y="0.882" width="64" height="64"/>
    </clipPath>
    <g clip-path="url(#_clip1)">
        <path d="M9.274,59.587L18.274,59.587L18.274,64.73C18.274,64.73 18.274,64.73 18.274,64.73C15.582,66.653 11.966,66.653 9.275,64.73C9.274,64.73 9.274,64.73 9.274,64.73L9.274,59.587Z" style="fill:#4f538b;"/>
        <clipPath id="_clip2">
            <path d="M9.274,59.587L18.274,59.587L18.274,64.73C18.274,64.73 18.274,64.73 18.274,64.73C15.582,66.653 11.966,66.653 9.275,64.73C9.274,64.73 9.274,64.73 9.274,64.73L9.274,59.587Z"/>
        </clipPath>
        <g clip-path="url(#_clip2)">
            <rect x="7.644" y="58.379" width="4.257" height="9.075" style="fill:#6a6ea6;"/>
        </g>
        <g>
            <g>
                <path d="M49.748,9.59C49.748,8.797 49.433,8.036 48.872,7.475C48.312,6.915 47.551,6.599 46.758,6.599C38.324,6.599 14.422,6.599 5.988,6.599C5.195,6.599 4.434,6.915 3.873,7.475C3.312,8.036 2.997,8.797 2.997,9.59C2.997,15.755 2.997,29.81 2.997,35.975C2.997,36.768 3.312,37.529 3.873,38.09C4.434,38.651 5.195,38.966 5.988,38.966C14.422,38.966 38.324,38.966 46.758,38.966C47.551,38.966 48.312,38.651 48.872,38.09C49.433,37.529 49.748,36.768 49.748,35.975C49.748,29.81 49.748,15.755 49.748,9.59Z" style="fill:#fff;"/>
                <path d="M46.758,6.599L46.832,6.6L46.906,6.603L46.98,6.608L47.053,6.614L47.126,6.622L47.199,6.632L47.272,6.644L47.344,6.657L47.415,6.673L47.487,6.69L47.557,6.708L47.627,6.729L47.697,6.751L47.766,6.775L47.834,6.8L47.902,6.827L47.969,6.856L48.036,6.886L48.101,6.918L48.166,6.952L48.23,6.987L48.293,7.024L48.355,7.062L48.417,7.102L48.477,7.143L48.537,7.186L48.596,7.231L48.653,7.277L48.71,7.324L48.765,7.373L48.819,7.424L48.872,7.475L48.924,7.529L48.975,7.583L49.024,7.638L49.071,7.695L49.117,7.752L49.162,7.811L49.205,7.871L49.246,7.931L49.286,7.992L49.324,8.055L49.361,8.118L49.396,8.182L49.43,8.247L49.462,8.312L49.492,8.379L49.521,8.446L49.548,8.514L49.573,8.582L49.597,8.651L49.619,8.721L49.64,8.791L49.658,8.861L49.675,8.933L49.69,9.004L49.704,9.076L49.716,9.149L49.726,9.222L49.734,9.295L49.74,9.368L49.745,9.442L49.748,9.516L49.748,9.59L49.748,35.975L49.748,36.049L49.745,36.123L49.74,36.197L49.734,36.27L49.726,36.344L49.716,36.416L49.704,36.489L49.69,36.561L49.675,36.633L49.658,36.704L49.64,36.774L49.619,36.845L49.597,36.914L49.573,36.983L49.548,37.052L49.521,37.119L49.492,37.186L49.462,37.253L49.43,37.318L49.396,37.383L49.361,37.447L49.324,37.51L49.286,37.573L49.246,37.634L49.205,37.695L49.162,37.754L49.117,37.813L49.071,37.87L49.024,37.927L48.975,37.982L48.924,38.037L48.872,38.09L48.819,38.142L48.765,38.192L48.71,38.241L48.653,38.288L48.596,38.334L48.537,38.379L48.477,38.422L48.417,38.463L48.355,38.503L48.293,38.541L48.23,38.578L48.166,38.613L48.101,38.647L48.036,38.679L47.969,38.709L47.902,38.738L47.834,38.765L47.766,38.791L47.697,38.814L47.627,38.836L47.557,38.857L47.487,38.876L47.415,38.892L47.344,38.908L47.272,38.921L47.199,38.933L47.126,38.943L47.053,38.951L46.98,38.957L46.906,38.962L46.832,38.965L46.758,38.966L5.988,38.966L5.914,38.965L5.84,38.962L5.766,38.957L5.693,38.951L5.619,38.943L5.547,38.933L5.474,38.921L5.402,38.908L5.33,38.892L5.259,38.876L5.188,38.857L5.118,38.836L5.049,38.814L4.98,38.791L4.911,38.765L4.844,38.738L4.777,38.709L4.71,38.679L4.645,38.647L4.58,38.613L4.516,38.578L4.453,38.541L4.39,38.503L4.329,38.463L4.268,38.422L4.209,38.379L4.15,38.334L4.093,38.288L4.036,38.241L3.981,38.192L3.926,38.142L3.873,38.09L3.821,38.037L3.771,37.982L3.722,37.927L3.675,37.87L3.629,37.813L3.584,37.754L3.541,37.695L3.5,37.634L3.46,37.573L3.422,37.51L3.385,37.447L3.35,37.383L3.316,37.318L3.284,37.253L3.254,37.186L3.225,37.119L3.198,37.052L3.172,36.983L3.149,36.914L3.127,36.845L3.106,36.774L3.087,36.704L3.07,36.633L3.055,36.561L3.042,36.489L3.03,36.416L3.02,36.344L3.012,36.27L3.005,36.197L3.001,36.123L2.998,36.049L2.997,35.975L2.997,9.59L2.998,9.516L3.001,9.442L3.005,9.368L3.012,9.295L3.02,9.222L3.03,9.149L3.042,9.076L3.055,9.004L3.07,8.933L3.087,8.861L3.106,8.791L3.127,8.721L3.149,8.651L3.172,8.582L3.198,8.514L3.225,8.446L3.254,8.379L3.284,8.312L3.316,8.247L3.35,8.182L3.385,8.118L3.422,8.055L3.46,7.992L3.5,7.931L3.541,7.871L3.584,7.811L3.629,7.752L3.675,7.695L3.722,7.638L3.771,7.583L3.821,7.529L3.873,7.475L3.926,7.424L3.981,7.373L4.036,7.324L4.093,7.277L4.15,7.231L4.209,7.186L4.268,7.143L4.329,7.102L4.39,7.062L4.453,7.024L4.516,6.987L4.58,6.952L4.645,6.918L4.71,6.886L4.777,6.856L4.844,6.827L4.911,6.8L4.98,6.775L5.049,6.751L5.118,6.729L5.188,6.708L5.259,6.69L5.33,6.673L5.402,6.657L5.474,6.644L5.547,6.632L5.619,6.622L5.693,6.614L5.766,6.608L5.84,6.603L5.914,6.6L5.988,6.599L46.758,6.599ZM6.003,9.099L5.976,9.1L5.965,9.1L5.952,9.101L5.939,9.102L5.927,9.103L5.916,9.105L5.905,9.107L5.892,9.109L5.879,9.112L5.868,9.114L5.857,9.117L5.846,9.121L5.835,9.124L5.822,9.128L5.811,9.133L5.801,9.137L5.789,9.142L5.778,9.147L5.768,9.152L5.758,9.157L5.746,9.163L5.736,9.169L5.726,9.175L5.715,9.182L5.707,9.188L5.697,9.195L5.686,9.204L5.677,9.211L5.668,9.218L5.659,9.227L5.649,9.235L5.641,9.243L5.632,9.252L5.624,9.261L5.616,9.27L5.608,9.28L5.601,9.288L5.594,9.298L5.587,9.308L5.58,9.317L5.573,9.329L5.567,9.339L5.562,9.348L5.555,9.36L5.55,9.37L5.544,9.381L5.539,9.392L5.535,9.402L5.531,9.413L5.526,9.425L5.522,9.437L5.518,9.448L5.515,9.46L5.512,9.471L5.51,9.482L5.507,9.493L5.505,9.507L5.503,9.519L5.501,9.529L5.5,9.543L5.499,9.554L5.498,9.566L5.498,9.578L5.497,9.605L5.497,35.96L5.498,35.987L5.498,36L5.499,36.011L5.5,36.023L5.501,36.036L5.503,36.046L5.505,36.058L5.507,36.072L5.51,36.084L5.512,36.094L5.515,36.105L5.518,36.117L5.522,36.128L5.526,36.14L5.531,36.152L5.535,36.163L5.539,36.173L5.544,36.184L5.55,36.195L5.555,36.205L5.562,36.218L5.567,36.227L5.573,36.236L5.58,36.248L5.587,36.258L5.594,36.267L5.601,36.277L5.608,36.285L5.616,36.295L5.624,36.304L5.632,36.313L5.641,36.322L5.649,36.33L5.659,36.339L5.668,36.347L5.677,36.354L5.686,36.362L5.697,36.37L5.707,36.377L5.715,36.383L5.726,36.39L5.736,36.396L5.746,36.402L5.758,36.408L5.768,36.413L5.778,36.418L5.789,36.423L5.801,36.428L5.811,36.432L5.822,36.437L5.835,36.441L5.846,36.445L5.857,36.448L5.868,36.451L5.879,36.453L5.892,36.456L5.905,36.458L5.916,36.46L5.927,36.462L5.939,36.463L5.952,36.464L5.965,36.465L5.976,36.465L6.003,36.466L46.743,36.466L46.77,36.465L46.781,36.465L46.794,36.464L46.807,36.463L46.819,36.462L46.83,36.46L46.841,36.458L46.854,36.456L46.867,36.453L46.877,36.451L46.888,36.448L46.9,36.444L46.912,36.441L46.923,36.437L46.935,36.432L46.945,36.428L46.956,36.423L46.968,36.418L46.978,36.413L46.988,36.408L46.998,36.402L47.009,36.396L47.021,36.389L47.03,36.383L47.039,36.377L47.049,36.37L47.06,36.362L47.069,36.354L47.078,36.347L47.087,36.339L47.096,36.33L47.105,36.322L47.113,36.313L47.121,36.304L47.13,36.295L47.137,36.287L47.144,36.277L47.153,36.266L47.159,36.258L47.165,36.248L47.173,36.236L47.178,36.227L47.184,36.218L47.191,36.205L47.196,36.195L47.201,36.184L47.206,36.175L47.211,36.163L47.216,36.15L47.22,36.14L47.224,36.128L47.227,36.117L47.23,36.107L47.233,36.094L47.237,36.081L47.239,36.072L47.241,36.058L47.243,36.046L47.245,36.036L47.246,36.025L47.247,36.011L47.248,35.997L47.248,35.987L47.249,35.96L47.249,9.605L47.248,9.578L47.248,9.568L47.247,9.554L47.246,9.54L47.245,9.529L47.243,9.519L47.241,9.507L47.238,9.493L47.237,9.484L47.234,9.471L47.23,9.458L47.227,9.448L47.224,9.437L47.22,9.425L47.216,9.415L47.211,9.402L47.206,9.39L47.201,9.381L47.196,9.37L47.191,9.36L47.184,9.348L47.179,9.339L47.173,9.329L47.165,9.317L47.159,9.308L47.153,9.299L47.144,9.288L47.137,9.279L47.13,9.27L47.121,9.261L47.113,9.252L47.105,9.243L47.096,9.235L47.087,9.227L47.078,9.218L47.069,9.211L47.06,9.204L47.049,9.195L47.039,9.188L47.03,9.182L47.021,9.176L47.009,9.169L46.998,9.163L46.988,9.157L46.978,9.152L46.968,9.147L46.956,9.142L46.945,9.137L46.935,9.133L46.923,9.128L46.912,9.124L46.9,9.121L46.888,9.117L46.877,9.114L46.867,9.112L46.854,9.109L46.841,9.107L46.83,9.105L46.819,9.103L46.807,9.102L46.794,9.101L46.781,9.1L46.77,9.1L46.743,9.099L6.003,9.099Z" style="fill:#aaacca;fill-opacity:0.61;"/>
                <g>
                    <rect x="8.31" y="12.918" width="19.288" height="2.035" style="fill:#f1765a;"/>
                    <rect x="8.31" y="17.649" width="16.165" height="2.035" style="fill:#6a6ea6;fill-opacity:0.55;"/>
                    <rect x="8.31" y="22.115" width="20.652" height="2.035" style="fill:#6a6ea6;fill-opacity:0.55;"/>
                    <rect x="8.31" y="26.582" width="16.243" height="2.035" style="fill:#6a6ea6;fill-opacity:0.55;"/>
                </g>
            </g>
            <g>
                <path d="M19.84,32.874C19.897,32.795 19.919,32.696 19.903,32.6C19.887,32.504 19.833,32.419 19.753,32.363C18.82,31.713 16.007,29.751 15.233,29.211C15.113,29.127 14.954,29.124 14.83,29.203C14.573,29.367 14.126,29.653 13.79,29.868C13.69,29.932 13.627,30.041 13.623,30.16C13.618,30.279 13.672,30.392 13.767,30.464C14.828,31.265 17.614,33.366 18.529,34.056C18.607,34.115 18.705,34.14 18.802,34.125C18.898,34.111 18.985,34.058 19.042,33.979C19.267,33.667 19.615,33.184 19.84,32.874Z" style="fill:#1f235c;"/>
                <path d="M28.401,33.402C27.738,33.365 25.856,33.337 26.55,36.657C27.056,39.083 28.471,38.965 28.471,38.965C28.471,38.965 31.884,37.998 30.702,35.101C30.02,33.429 29.632,33.473 28.401,33.402Z" style="fill:#2b307e;"/>
                <path d="M57.865,44.982C57.865,44.982 59.671,37.767 59.421,30.926C59.128,22.931 54.245,20.66 50.93,20.474C45.015,20.144 42.427,23.576 39.98,26.09C37.829,28.299 36.571,32.398 33.36,33.442C31.45,34.063 27.993,33.661 23.181,33.001C22.487,32.906 21.83,32.376 21.037,32.182C19.8,31.878 19.148,30.345 18.698,30.486C18.593,30.519 18.489,30.557 18.439,30.656C18.299,31.03 18.415,31.974 18.817,32.641C18.862,32.716 17.006,32.261 15.891,31.344C15.315,30.87 14.789,31.176 14.591,31.491C14.251,32.035 14.942,34.612 17.555,35.868C18.774,36.454 20.28,36.674 22.821,36.664C25.761,36.652 32.348,38.473 34.85,37.939C38.338,37.193 42.097,31.668 42.097,31.668C42.097,31.668 42.12,31.8 42.071,32.02C40.746,37.91 43.743,45.027 43.743,45.027L57.865,44.982Z" style="fill:#f3775b;"/>
                <clipPath id="_clip3">
                    <path d="M57.865,44.982C57.865,44.982 59.671,37.767 59.421,30.926C59.128,22.931 54.245,20.66 50.93,20.474C45.015,20.144 42.427,23.576 39.98,26.09C37.829,28.299 36.571,32.398 33.36,33.442C31.45,34.063 27.993,33.661 23.181,33.001C22.487,32.906 21.83,32.376 21.037,32.182C19.8,31.878 19.148,30.345 18.698,30.486C18.593,30.519 18.489,30.557 18.439,30.656C18.299,31.03 18.415,31.974 18.817,32.641C18.862,32.716 17.006,32.261 15.891,31.344C15.315,30.87 14.789,31.176 14.591,31.491C14.251,32.035 14.942,34.612 17.555,35.868C18.774,36.454 20.28,36.674 22.821,36.664C25.761,36.652 32.348,38.473 34.85,37.939C38.338,37.193 42.097,31.668 42.097,31.668C42.097,31.668 42.12,31.8 42.071,32.02C40.746,37.91 43.743,45.027 43.743,45.027L57.865,44.982Z"/>
                </clipPath>
                <g clip-path="url(#_clip3)">
                    <path d="M16.488,29.154C17.589,30.898 18.966,32.813 19.479,33.332C19.479,33.332 19.861,34.722 22.116,34.134C22.116,34.134 21.006,36.034 18.079,34.623C17.434,34.311 15.318,32.66 15.093,30.962C14.998,30.244 16.592,30.146 16.488,29.154Z" style="fill:#a46048;"/>
                    <path d="M19.84,32.874C19.897,32.795 19.919,32.696 19.903,32.6C19.887,32.504 19.833,32.419 19.753,32.363C18.82,31.713 16.007,29.751 15.233,29.211C15.113,29.127 14.954,29.124 14.83,29.203C14.573,29.367 14.126,29.653 13.79,29.868C13.69,29.932 13.627,30.041 13.623,30.16C13.618,30.279 13.672,30.392 13.767,30.464C14.828,31.265 17.614,33.366 18.529,34.056C18.607,34.115 18.705,34.14 18.802,34.125C18.898,34.111 18.985,34.058 19.042,33.979C19.267,33.667 19.615,33.184 19.84,32.874Z" style="fill:#1f235c;"/>
                    <path d="M32.016,32.382C32.016,32.382 24.324,34.03 22.646,34.123C20.967,34.216 19.586,33.721 18.817,32.655C17.931,31.427 16.639,30.604 16.49,29.529C16.34,28.455 30.958,28.501 30.958,28.501L32.016,32.382Z" style="fill:#f3775b;"/>
                    <path d="M34.109,34.134C34.109,34.134 25.302,34.124 23.081,33.671C21.433,33.335 19.99,33.011 19.221,31.944C18.335,30.716 17.043,29.893 16.893,28.819C16.744,27.744 31.361,27.79 31.361,27.79L34.109,34.134Z" style="fill:#f3ab9b;"/>
                </g>
                <path d="M59.611,19.741C57.345,16.049 56.641,14.857 56.593,11.487C56.555,8.858 54.864,5.092 50.613,4.108C43.576,2.48 44.256,6.477 44.256,6.477C46.733,5.584 48.618,8.503 48.911,9.679C49.87,13.524 48.141,11.748 51.078,15.5C53.312,18.355 49.952,20.33 51.967,24.842C52.692,26.467 54.737,30.145 57.837,30.371C58.246,30.401 58.675,30.37 59.121,30.267C62.998,29.367 63.075,25.384 59.611,19.741Z" style="fill:#1f235c;"/>
                <path d="M59.038,73.444C59.038,73.444 60.606,39.133 60.355,32.292C60.062,24.297 54.245,20.66 50.93,20.474C45.015,20.144 42.477,23.626 39.98,26.09C38.132,27.913 36.069,32.357 33.946,32.74C31.668,33.15 28.097,33.395 28.097,33.395C28.097,33.395 30.124,33.881 30.012,35.809C29.938,37.079 29.221,38.298 28.318,38.938C30.346,38.951 33.219,39.262 36.156,38.206C38.038,37.53 39.691,36.454 41.342,33.395C40.397,35.813 40.455,35.896 40.528,36.18C41.958,41.718 42.138,63.739 42.176,70.733C42.177,70.897 59.038,73.444 59.038,73.444Z" style="fill:#c1c2e6;"/>
                <clipPath id="_clip4">
                    <path d="M59.038,73.444C59.038,73.444 60.606,39.133 60.355,32.292C60.062,24.297 54.245,20.66 50.93,20.474C45.015,20.144 42.477,23.626 39.98,26.09C38.132,27.913 36.069,32.357 33.946,32.74C31.668,33.15 28.097,33.395 28.097,33.395C28.097,33.395 30.124,33.881 30.012,35.809C29.938,37.079 29.221,38.298 28.318,38.938C30.346,38.951 33.219,39.262 36.156,38.206C38.038,37.53 39.691,36.454 41.342,33.395C40.397,35.813 40.455,35.896 40.528,36.18C41.958,41.718 42.138,63.739 42.176,70.733C42.177,70.897 59.038,73.444 59.038,73.444Z"/>
                </clipPath>
                <g clip-path="url(#_clip4)">
                    <path d="M44.625,18.596C44.625,18.596 54.713,27.266 53.968,31.451C53.478,34.201 51.97,35.446 50.993,35.976C50.52,36.174 50.266,36.69 50.397,37.185C50.704,38.554 51.398,41.186 51.787,42.72C52.7,46.321 52.212,56.577 52.212,56.577C52.212,56.577 71.975,57.817 71.529,56.536C71.083,55.256 74.98,26.672 74.98,26.672L44.625,18.596Z" style="fill:#a4a6cf;"/>
                    <path d="M54.275,32.952C55.655,37.967 56.051,49.469 54.839,53L51.68,53.827C53.664,48.78 55.346,39.99 54.275,32.952Z" style="fill:#7a7db9;"/>
                    <path d="M53.284,20.696C53.284,20.696 49.174,20.729 45.533,22.793C43.014,24.221 39.561,27.769 37.928,28.486C36.295,29.203 37.533,25.375 37.533,25.375C37.533,25.375 43.11,16.828 53.284,20.696Z" style="fill:#fff;fill-opacity:0.32;"/>
                </g>
                <path d="M45.47,3.062C45.47,3.062 40.304,4.727 41.735,9.86C43.166,14.993 45.811,12.26 45.811,12.26L45.521,3.358" style="fill:#1f235c;"/>
                <path d="M53.141,17.062C52.175,19.09 51.605,20.697 51.944,21.335C51.055,23.183 49.489,24.17 47.552,24.838C47.221,24.305 46.628,23.107 46.617,21.399C46.604,19.295 46.505,18.891 44.816,16.245L53.141,17.062Z" style="fill:#f3775b;"/>
                <clipPath id="_clip5">
                    <path d="M53.141,17.062C52.175,19.09 51.605,20.697 51.944,21.335C51.055,23.183 49.489,24.17 47.552,24.838C47.221,24.305 46.628,23.107 46.617,21.399C46.604,19.295 46.505,18.891 44.816,16.245L53.141,17.062Z"/>
                </clipPath>
                <g clip-path="url(#_clip5)">
                    <path d="M47.688,13.187C47.688,13.187 49.989,21.475 48.536,30.813C47.595,36.855 56.082,14.475 56.082,14.475L47.688,13.187Z" style="fill:#664e39;fill-opacity:0.56;"/>
                </g>
                <path d="M49.635,1.887C47.932,1.821 42.975,3.105 43.335,8.409C43.507,10.94 43.006,12.256 42.513,12.931C42.326,13.066 42.213,13.281 42.21,13.512C42.206,13.743 42.312,13.962 42.496,14.102C44.387,15.825 43.335,19.023 48.963,19.128C52.418,19.193 55.371,15.51 55.557,10.752C55.742,5.994 53.089,2.022 49.635,1.887Z" style="fill:#f3775b;"/>
                <clipPath id="_clip6">
                    <path d="M49.635,1.887C47.932,1.821 42.975,3.105 43.335,8.409C43.507,10.94 43.006,12.256 42.513,12.931C42.326,13.066 42.213,13.281 42.21,13.512C42.206,13.743 42.312,13.962 42.496,14.102C44.387,15.825 43.335,19.023 48.963,19.128C52.418,19.193 55.371,15.51 55.557,10.752C55.742,5.994 53.089,2.022 49.635,1.887Z"/>
                </clipPath>
                <g clip-path="url(#_clip6)">
                    <path d="M36.727,-0.777C36.727,-0.777 47.552,2.911 45.677,11.578C44.486,17.078 48.038,18.786 50.939,20.739L41.796,23.55C41.796,23.55 27.744,3.627 45.962,-2.636" style="fill:#f3ab9b;"/>
                </g>
                <path d="M59.611,19.741C57.345,16.049 57.233,14.969 57.689,11.63C58.086,8.731 56.751,3.1 51.575,2.121C46.52,1.165 44.68,3.277 44.187,4.055C44.088,4.26 44.082,4.497 44.171,4.706C45.897,9.117 48.453,7.718 49.401,10.55C50.943,15.156 51.122,13.921 52.454,15.611C54.442,18.136 51.58,17.296 53.595,21.807C54.32,23.433 63.075,25.384 59.611,19.741Z" style="fill:#1f235c;"/>
                <path d="M46.093,6.426C46.093,6.426 49.69,8.73 50.968,12.465C50.968,12.465 49.757,6.181 48.6,5.345C47.443,4.509 46.093,6.426 46.093,6.426Z" style="fill:#1f235c;"/>
            </g>
        </g>
        <path d="M6.058,53.602C6.048,53.664 6.038,53.728 6.028,53.792C5.537,49.072 5.287,46.287 7.196,45.302C7.196,45.302 7.188,46.287 7.482,46.287C7.776,46.287 7.475,44.882 9.21,43.634C10.281,42.863 11.717,42.156 14.02,42.156C16.323,42.156 18.76,43.644 20.092,44.587C21.17,45.351 21.867,47.574 21.871,50.312L21.871,50.361C21.869,51.445 21.759,52.608 21.521,53.792C21.51,53.744 21.498,53.696 21.487,53.648L21.487,56.012C21.487,60.273 18.033,63.726 13.772,63.726C13.772,63.726 13.772,63.726 13.772,63.726C9.512,63.726 6.058,60.273 6.058,56.012L6.058,53.602Z" style="fill:#4f538b;"/>
        <clipPath id="_clip7">
            <path d="M6.058,53.602C6.048,53.664 6.038,53.728 6.028,53.792C5.537,49.072 5.287,46.287 7.196,45.302C7.196,45.302 7.188,46.287 7.482,46.287C7.776,46.287 7.475,44.882 9.21,43.634C10.281,42.863 11.717,42.156 14.02,42.156C16.323,42.156 18.76,43.644 20.092,44.587C21.17,45.351 21.867,47.574 21.871,50.312L21.871,50.361C21.869,51.445 21.759,52.608 21.521,53.792C21.51,53.744 21.498,53.696 21.487,53.648L21.487,56.012C21.487,60.273 18.033,63.726 13.772,63.726C13.772,63.726 13.772,63.726 13.772,63.726C9.512,63.726 6.058,60.273 6.058,56.012L6.058,53.602Z"/>
        </clipPath>
        <g clip-path="url(#_clip7)">
            <path d="M5.545,57.211C5.545,57.211 6.663,53.843 6.519,50.303C6.462,48.91 7.373,47.468 7.818,46.802C9.085,44.909 11.291,44.685 14.085,44.953C22.638,45.775 21.514,53.872 21.514,53.872C21.514,53.872 26.421,40.162 13.774,40.162C1.128,40.162 3.481,51.597 5.545,57.211Z" style="fill:#7c7fb1;"/>
        </g>
        <g>
            <path d="M45.785,52.096C45.285,50.765 45.177,45.929 48.41,44.963C49.165,43.74 53.163,41.678 57.414,43.866C61.302,45.867 60.932,51.15 60.932,51.15C60.932,51.15 60.901,51.149 60.844,51.148C60.934,51.616 60.981,52.099 60.981,52.594C60.981,53.846 60.981,55.144 60.981,56.397C60.981,58.941 59.731,61.194 57.811,62.575L57.811,64.882C57.821,67.198 53.644,68.576 53.644,68.576C53.644,68.576 48.924,67.1 48.939,64.882L48.938,62.575C47.019,61.194 45.769,58.941 45.769,56.397C45.769,55.144 45.769,53.846 45.769,52.594C45.769,52.427 45.774,52.261 45.785,52.096Z" style="fill:#4f538b;"/>
            <clipPath id="_clip8">
                <path d="M45.785,52.096C45.285,50.765 45.177,45.929 48.41,44.963C49.165,43.74 53.163,41.678 57.414,43.866C61.302,45.867 60.932,51.15 60.932,51.15C60.932,51.15 60.901,51.149 60.844,51.148C60.934,51.616 60.981,52.099 60.981,52.594C60.981,53.846 60.981,55.144 60.981,56.397C60.981,58.941 59.731,61.194 57.811,62.575L57.811,64.882C57.821,67.198 53.644,68.576 53.644,68.576C53.644,68.576 48.924,67.1 48.939,64.882L48.938,62.575C47.019,61.194 45.769,58.941 45.769,56.397C45.769,55.144 45.769,53.846 45.769,52.594C45.769,52.427 45.774,52.261 45.785,52.096Z"/>
            </clipPath>
            <g clip-path="url(#_clip8)">
                <path d="M46.318,65.345C46.318,65.345 48.621,63.057 47.54,54.346C46.821,48.554 49.074,47.587 49.551,46.873C50.91,44.842 52.485,43.39 55.483,43.678C64.658,44.559 63.377,50.828 63.377,50.828C63.377,50.828 68.447,40.765 54.88,40.765C41.313,40.765 44.104,59.323 46.318,65.345Z" style="fill:#7c7fb1;"/>
                <path d="M51.143,63.113C49.93,63.129 49.21,62.769 47.942,61.784L47.269,71.009L51.256,71.009L51.143,63.113Z" style="fill:#6a6ea6;"/>
            </g>
        </g>
        <g>
            <path d="M43.379,56.854C40.225,54.651 40.871,53.497 40.443,50.536C40.107,48.225 37.996,44.146 34.153,43.659C27.55,42.822 26.923,47.956 26.923,47.956C29.002,46.886 32.037,47.158 32.79,49.778C33.761,53.16 31.632,54.005 34.648,56.972C36.943,59.229 38.406,58.473 37.289,63.433C34.821,74.392 37.01,71.271 40.785,68.63C43.824,66.504 48.185,60.211 43.379,56.854Z" style="fill:#4f538b;"/>
            <clipPath id="_clip9">
                <path d="M43.379,56.854C40.225,54.651 40.871,53.497 40.443,50.536C40.107,48.225 37.996,44.146 34.153,43.659C27.55,42.822 26.923,47.956 26.923,47.956C29.002,46.886 32.037,47.158 32.79,49.778C33.761,53.16 31.632,54.005 34.648,56.972C36.943,59.229 38.406,58.473 37.289,63.433C34.821,74.392 37.01,71.271 40.785,68.63C43.824,66.504 48.185,60.211 43.379,56.854Z"/>
            </clipPath>
            <g clip-path="url(#_clip9)">
                <path d="M38.47,55.601C38.47,55.601 47.516,60.263 45.052,69.041C45.052,69.041 51.384,65.795 48.311,58.442C45.238,51.089 38.47,55.601 38.47,55.601Z" style="fill:#6a6ea6;"/>
            </g>
            <g>
                <path d="M28.571,59.915L37.571,59.915L37.571,65.057C37.571,65.057 37.571,65.058 37.57,65.058C34.879,66.98 31.263,66.98 28.571,65.058C28.571,65.058 28.571,65.057 28.571,65.057L28.571,59.915Z" style="fill:#4f538b;"/>
                <path d="M37.571,63.869L37.571,61.843L28.571,61.843L28.571,65.115C29.403,64.625 31.421,65.057 33.071,65.057C34.692,65.057 36.23,64.626 37.571,63.869Z" style="fill:#4f538b;fill-opacity:0.56;"/>
                <clipPath id="_clip10">
                    <path d="M37.571,63.869L37.571,61.843L28.571,61.843L28.571,65.115C29.403,64.625 31.421,65.057 33.071,65.057C34.692,65.057 36.23,64.626 37.571,63.869Z"/>
                </clipPath>
                <g clip-path="url(#_clip10)">
                    <rect x="27.531" y="58.379" width="4.257" height="9.075" style="fill:#6a6ea6;"/>
                </g>
                <path d="M25.357,51.557C25.357,47.297 28.81,43.843 33.071,43.843C33.071,43.843 33.071,43.843 33.071,43.843C36.518,43.843 39.437,46.104 40.426,49.223C40.659,49.96 40.785,50.744 40.785,51.557C40.785,52.828 40.785,54.144 40.785,55.415C40.785,59.675 37.331,63.129 33.071,63.129C33.071,63.129 33.071,63.129 33.071,63.129C28.81,63.129 25.357,59.675 25.357,55.415C25.357,54.144 25.357,52.828 25.357,51.557Z" style="fill:#4f538b;"/>
            </g>
            <path d="M41.687,58.121C41.687,58.121 37.493,58.645 31.063,51.953C31.063,51.953 27.706,50.599 25.258,51.997C24.681,50.949 24.385,45.492 27.893,44.444C28.674,43.178 33.012,40.689 37.205,43.309C42.869,46.849 41.687,58.121 41.687,58.121Z" style="fill:#4f538b;"/>
            <clipPath id="_clip11">
                <path d="M41.687,58.121C41.687,58.121 37.493,58.645 31.063,51.953C31.063,51.953 27.706,50.599 25.258,51.997C24.681,50.949 24.385,45.492 27.893,44.444C28.674,43.178 33.012,40.689 37.205,43.309C42.869,46.849 41.687,58.121 41.687,58.121Z"/>
            </clipPath>
            <g clip-path="url(#_clip11)">
                <path d="M39.163,61.244C39.163,61.244 40.934,55.271 39.376,50.143C38,45.612 31.189,42.583 26.1,44.077C26.1,44.077 38.282,37.767 42.915,44.134C46.562,49.146 44.623,59.715 39.163,61.244Z" style="fill:#6a6ea6;"/>
                <path d="M25.465,56.429C25.465,56.429 24.588,47.032 29.395,45.963C29.395,45.963 29.302,42.896 33.071,42.555C36.84,42.214 25.13,41.66 22.566,43.984C20.002,46.308 24.824,53.324 25.465,56.429Z" style="fill:#6a6ea6;"/>
            </g>
        </g>
    </g>
</svg>
