<?xml version="1.0" encoding="UTF-8" standalone="no"?>
<!DOCTYPE svg PUBLIC "-//W3C//DTD SVG 1.1//EN" "http://www.w3.org/Graphics/SVG/1.1/DTD/svg11.dtd">
<svg width="100%" height="100%" viewBox="0 0 65 65" version="1.1" xmlns="http://www.w3.org/2000/svg" xmlns:xlink="http://www.w3.org/1999/xlink" xml:space="preserve" xmlns:serif="http://www.serif.com/" style="fill-rule:evenodd;clip-rule:evenodd;stroke-linejoin:round;stroke-miterlimit:2;">
    <rect id="Protocols" x="0.041" y="0.054" width="64" height="64" style="fill:none;"/>
    <path d="M52.374,2.357L52.347,61.751L11.734,61.751L11.734,2.357L52.374,2.357Z" style="fill:#fff;"/>
    <clipPath id="_clip1">
        <path d="M52.374,2.357L52.347,61.751L11.734,61.751L11.734,2.357L52.374,2.357Z"/>
    </clipPath>
    <g clip-path="url(#_clip1)">
        <path d="M5.884,55.744L58.631,22.577L60.215,64.054C60.215,64.054 5.111,64.89 5.151,64.054C5.19,63.217 5.884,55.744 5.884,55.744Z" style="fill:#e3e5f5;fill-opacity:0.15;"/>
    </g>
    <path d="M52.374,2.357L52.347,61.751L11.734,61.751L11.734,2.357L52.374,2.357ZM14.234,4.857L14.234,59.251L49.849,59.251L49.872,4.857L14.234,4.857Z" style="fill:#dc1931;"/>
    <rect x="34.862" y="19.933" width="12.534" height="25.769" style="fill:#dfe0e1;"/>
    <rect x="34.862" y="19.933" width="12.534" height="0.555" style="fill:#4e838f;"/>
    <g>
        <circle cx="18.068" cy="21.898" r="1.965" style="fill:#f1765a;"/>
        <rect x="21.012" y="20.175" width="6.607" height="0.902" style="fill:#b0cacf;"/>
        <rect x="21.012" y="22.019" width="11.694" height="1.603" style="fill:#0d4a59;"/>
    </g>
    <g>
        <circle cx="18.068" cy="29.178" r="1.965" style="fill:#f1765a;"/>
        <rect x="21.012" y="27.454" width="6.607" height="0.902" style="fill:#b0cacf;"/>
        <rect x="21.012" y="29.299" width="9.95" height="1.603" style="fill:#0d4a59;"/>
    </g>
    <g>
        <circle cx="18.068" cy="36.457" r="1.965" style="fill:#f1765a;"/>
        <rect x="21.012" y="34.733" width="6.607" height="0.902" style="fill:#b0cacf;"/>
        <rect x="21.012" y="36.578" width="11.694" height="1.603" style="fill:#0d4a59;"/>
    </g>
    <g>
        <circle cx="18.068" cy="43.737" r="1.965" style="fill:#f1765a;"/>
        <rect x="21.012" y="42.013" width="6.607" height="0.902" style="fill:#b0cacf;"/>
        <rect x="21.012" y="43.857" width="9.893" height="1.603" style="fill:#0d4a59;"/>
    </g>
    <rect x="16.635" y="7.73" width="6.607" height="0.902" style="fill:#b0cacf;"/>
    <rect x="16.635" y="51.841" width="15.609" height="0.902" style="fill:#b0cacf;"/>
    <rect x="34.831" y="51.841" width="5.615" height="0.902" style="fill:#b0cacf;"/>
    <rect x="41.75" y="51.841" width="5.615" height="0.902" style="fill:#b0cacf;"/>
    <rect x="16.635" y="53.726" width="13.973" height="0.902" style="fill:#b0cacf;"/>
    <rect x="16.635" y="50.005" width="13.973" height="0.902" style="fill:#b0cacf;"/>
    <rect x="34.831" y="53.726" width="4.882" height="0.902" style="fill:#b0cacf;"/>
    <rect x="34.831" y="49.946" width="4.882" height="0.902" style="fill:#b0cacf;"/>
    <rect x="41.75" y="53.726" width="4.882" height="0.902" style="fill:#b0cacf;"/>
    <rect x="41.75" y="49.946" width="4.882" height="0.902" style="fill:#b0cacf;"/>
    <rect x="16.635" y="55.513" width="14.832" height="0.902" style="fill:#b0cacf;"/>
    <rect x="34.831" y="55.513" width="3.792" height="0.902" style="fill:#b0cacf;"/>
    <rect x="41.75" y="55.513" width="5.337" height="0.902" style="fill:#b0cacf;"/>
    <g>
        <path d="M18.586,10.249C19.275,10.249 19.791,10.421 20.135,10.766C20.479,11.11 20.651,11.6 20.651,12.235C20.651,12.638 20.578,13.005 20.433,13.338C20.287,13.67 20.058,13.934 19.746,14.13C19.434,14.325 19.03,14.423 18.534,14.423L18.184,14.423L18.184,16.497L16.635,16.497L16.635,10.249L18.586,10.249ZM18.473,11.544L18.184,11.544L18.184,13.128L18.376,13.128C18.586,13.128 18.76,13.062 18.897,12.931C19.034,12.8 19.103,12.574 19.103,12.253C19.103,11.78 18.893,11.544 18.473,11.544Z" style="fill:#231f20;fill-rule:nonzero;"/>
        <path d="M23.652,11.57C23.787,11.57 23.93,11.588 24.081,11.623L23.959,13.163C23.842,13.128 23.685,13.11 23.486,13.11C23.224,13.11 23.012,13.183 22.852,13.329C22.691,13.475 22.611,13.726 22.611,14.082L22.611,16.497L21.124,16.497L21.124,11.658L22.252,11.658L22.471,12.428L22.541,12.428C22.64,12.218 22.788,12.023 22.983,11.842C23.178,11.661 23.402,11.57 23.652,11.57Z" style="fill:#231f20;fill-rule:nonzero;"/>
        <path d="M28.29,14.064C28.29,14.519 28.218,14.938 28.075,15.32C27.933,15.702 27.705,16.008 27.393,16.238C27.081,16.469 26.677,16.584 26.181,16.584C25.72,16.584 25.334,16.47 25.022,16.243C24.71,16.015 24.475,15.711 24.317,15.329C24.16,14.946 24.081,14.525 24.081,14.064C24.081,13.58 24.157,13.15 24.309,12.774C24.46,12.397 24.692,12.103 25.004,11.89C25.316,11.677 25.714,11.57 26.199,11.57C26.613,11.57 26.977,11.668 27.292,11.864C27.607,12.059 27.852,12.342 28.027,12.712C28.202,13.083 28.29,13.533 28.29,14.064ZM25.595,14.073C25.595,14.499 25.642,14.824 25.735,15.049C25.828,15.273 25.98,15.385 26.19,15.385C26.412,15.385 26.565,15.275 26.649,15.053C26.734,14.831 26.776,14.502 26.776,14.064C26.776,13.633 26.734,13.309 26.649,13.093C26.565,12.877 26.412,12.769 26.19,12.769C25.98,12.769 25.828,12.876 25.735,13.089C25.642,13.301 25.595,13.63 25.595,14.073Z" style="fill:#231f20;fill-rule:nonzero;"/>
        <path d="M30.871,15.333C30.976,15.333 31.084,15.317 31.195,15.285C31.306,15.253 31.422,15.213 31.545,15.167L31.545,16.313C31.381,16.395 31.208,16.46 31.024,16.51C30.84,16.559 30.632,16.584 30.399,16.584C29.926,16.584 29.573,16.453 29.34,16.19C29.106,15.928 28.99,15.499 28.99,14.904L28.99,12.848L28.474,12.848L28.474,12.113L29.121,11.702L29.48,10.687L30.486,10.687L30.486,11.658L31.483,11.658L31.483,12.848L30.486,12.848L30.486,14.86C30.486,15.175 30.614,15.333 30.871,15.333Z" style="fill:#231f20;fill-rule:nonzero;"/>
        <path d="M36.226,14.064C36.226,14.519 36.154,14.938 36.011,15.32C35.869,15.702 35.641,16.008 35.329,16.238C35.017,16.469 34.613,16.584 34.117,16.584C33.656,16.584 33.27,16.47 32.958,16.243C32.646,16.015 32.411,15.711 32.253,15.329C32.096,14.946 32.017,14.525 32.017,14.064C32.017,13.58 32.093,13.15 32.245,12.774C32.396,12.397 32.628,12.103 32.94,11.89C33.252,11.677 33.651,11.57 34.135,11.57C34.549,11.57 34.913,11.668 35.228,11.864C35.543,12.059 35.788,12.342 35.963,12.712C36.138,13.083 36.226,13.533 36.226,14.064ZM33.531,14.073C33.531,14.499 33.578,14.824 33.671,15.049C33.764,15.273 33.916,15.385 34.126,15.385C34.348,15.385 34.501,15.275 34.585,15.053C34.67,14.831 34.712,14.502 34.712,14.064C34.712,13.633 34.67,13.309 34.585,13.093C34.501,12.877 34.348,12.769 34.126,12.769C33.916,12.769 33.764,12.876 33.671,13.089C33.578,13.301 33.531,13.63 33.531,14.073Z" style="fill:#231f20;fill-rule:nonzero;"/>
        <path d="M38.781,16.584C38.104,16.584 37.588,16.384 37.232,15.985C36.876,15.585 36.698,14.957 36.698,14.099C36.698,13.598 36.779,13.156 36.939,12.774C37.099,12.392 37.34,12.095 37.661,11.885C37.982,11.675 38.375,11.57 38.842,11.57C39.116,11.57 39.368,11.603 39.599,11.667C39.829,11.731 40.047,11.821 40.251,11.938L39.84,13.102C39.676,13.008 39.52,12.937 39.371,12.887C39.223,12.838 39.07,12.813 38.912,12.813C38.696,12.813 38.526,12.922 38.4,13.141C38.275,13.36 38.212,13.679 38.212,14.099C38.212,14.519 38.275,14.831 38.4,15.035C38.526,15.24 38.705,15.342 38.938,15.342C39.137,15.342 39.336,15.304 39.538,15.228C39.739,15.152 39.933,15.047 40.12,14.913L40.12,16.155C39.933,16.295 39.73,16.402 39.511,16.475C39.293,16.548 39.049,16.584 38.781,16.584Z" style="fill:#231f20;fill-rule:nonzero;"/>
        <path d="M44.643,14.064C44.643,14.519 44.572,14.938 44.429,15.32C44.286,15.702 44.058,16.008 43.746,16.238C43.434,16.469 43.03,16.584 42.534,16.584C42.074,16.584 41.687,16.47 41.375,16.243C41.063,16.015 40.828,15.711 40.671,15.329C40.513,14.946 40.435,14.525 40.435,14.064C40.435,13.58 40.51,13.15 40.662,12.774C40.814,12.397 41.046,12.103 41.358,11.89C41.67,11.677 42.068,11.57 42.552,11.57C42.966,11.57 43.331,11.668 43.646,11.864C43.961,12.059 44.206,12.342 44.381,12.712C44.556,13.083 44.643,13.533 44.643,14.064ZM41.948,14.073C41.948,14.499 41.995,14.824 42.088,15.049C42.182,15.273 42.333,15.385 42.543,15.385C42.765,15.385 42.918,15.275 43.003,15.053C43.087,14.831 43.129,14.502 43.129,14.064C43.129,13.633 43.087,13.309 43.003,13.093C42.918,12.877 42.765,12.769 42.543,12.769C42.333,12.769 42.182,12.876 42.088,13.089C41.995,13.301 41.948,13.63 41.948,14.073Z" style="fill:#231f20;fill-rule:nonzero;"/>
        <rect x="45.116" y="9.847" width="1.496" height="6.65" style="fill:#231f20;fill-rule:nonzero;"/>
    </g>
</svg>
