<?xml version="1.0" encoding="UTF-8" standalone="no"?>
<!DOCTYPE svg PUBLIC "-//W3C//DTD SVG 1.1//EN" "http://www.w3.org/Graphics/SVG/1.1/DTD/svg11.dtd">
<svg width="100%" height="100%" viewBox="0 0 65 65" version="1.1" xmlns="http://www.w3.org/2000/svg" xmlns:xlink="http://www.w3.org/1999/xlink" xml:space="preserve" xmlns:serif="http://www.serif.com/" style="fill-rule:evenodd;clip-rule:evenodd;stroke-linejoin:round;stroke-miterlimit:2;">
    <rect id="Public-Ops-Center" x="0.315" y="0.88" width="64" height="64" style="fill:none;"/>
    <path d="M57.071,56.069L7.146,56.069L2.005,58.047L61.649,58.047L57.071,56.069Z" style="fill:#cecfeb;fill-opacity:0.33;"/>
    <g>
        <ellipse cx="32.315" cy="57.362" rx="10.498" ry="1.269" style="fill:#2b307f;"/>
        <path d="M36.898,47.483L27.733,47.483L27.733,56.472C27.733,56.963 28.131,57.362 28.622,57.362C30.361,57.362 34.193,57.362 35.965,57.362C36.213,57.362 36.45,57.263 36.625,57.088C36.799,56.914 36.898,56.677 36.898,56.429C36.898,53.968 36.898,47.483 36.898,47.483Z" style="fill:#787bad;"/>
        <rect x="27.733" y="49.184" width="9.165" height="2.361" style="fill:#2b307f;"/>
        <path d="M61.649,7.152C61.649,6.359 61.334,5.598 60.773,5.037C60.212,4.476 59.452,4.161 58.658,4.161C48.595,4.161 16.035,4.161 5.972,4.161C5.178,4.161 4.418,4.476 3.857,5.037C3.296,5.598 2.981,6.359 2.981,7.152C2.981,15.333 2.981,38.013 2.981,46.193C2.981,46.987 3.296,47.747 3.857,48.308C4.418,48.869 5.178,49.184 5.972,49.184C16.035,49.184 48.595,49.184 58.658,49.184C59.452,49.184 60.212,48.869 60.773,48.308C61.334,47.747 61.649,46.987 61.649,46.193C61.649,38.013 61.649,15.333 61.649,7.152Z" style="fill:#2b307f;"/>
        <path d="M58.658,4.161L58.733,4.162L58.807,4.165L58.88,4.169L58.954,4.176L59.027,4.184L59.1,4.194L59.172,4.206L59.245,4.219L59.316,4.234L59.387,4.251L59.458,4.27L59.528,4.29L59.598,4.312L59.667,4.336L59.735,4.362L59.803,4.389L59.87,4.417L59.936,4.448L60.002,4.48L60.067,4.513L60.131,4.549L60.194,4.585L60.256,4.624L60.318,4.664L60.378,4.705L60.438,4.748L60.496,4.792L60.554,4.838L60.61,4.886L60.666,4.935L60.72,4.985L60.773,5.037L60.825,5.09L60.876,5.145L60.925,5.2L60.972,5.257L61.018,5.314L61.062,5.373L61.105,5.432L61.147,5.493L61.187,5.554L61.225,5.616L61.262,5.68L61.297,5.744L61.331,5.808L61.363,5.874L61.393,5.94L61.422,6.007L61.449,6.075L61.474,6.144L61.498,6.213L61.52,6.282L61.54,6.352L61.559,6.423L61.576,6.494L61.591,6.566L61.605,6.638L61.617,6.71L61.627,6.783L61.635,6.856L61.641,6.93L61.646,7.004L61.648,7.078L61.649,7.152L61.649,46.193L61.648,46.268L61.646,46.342L61.641,46.415L61.635,46.489L61.627,46.562L61.617,46.635L61.605,46.707L61.591,46.78L61.576,46.851L61.559,46.922L61.54,46.993L61.52,47.063L61.498,47.133L61.474,47.202L61.449,47.27L61.422,47.338L61.393,47.405L61.363,47.471L61.331,47.537L61.297,47.602L61.262,47.666L61.225,47.729L61.187,47.791L61.147,47.853L61.105,47.913L61.062,47.973L61.018,48.031L60.972,48.089L60.925,48.145L60.876,48.201L60.825,48.255L60.773,48.308L60.72,48.36L60.666,48.411L60.61,48.459L60.554,48.507L60.496,48.553L60.438,48.597L60.378,48.64L60.318,48.682L60.256,48.722L60.194,48.76L60.131,48.797L60.067,48.832L60.002,48.866L59.936,48.898L59.87,48.928L59.803,48.957L59.735,48.984L59.667,49.009L59.598,49.033L59.528,49.055L59.458,49.075L59.387,49.094L59.316,49.111L59.245,49.126L59.172,49.14L59.1,49.152L59.027,49.161L58.954,49.17L58.88,49.176L58.807,49.181L58.733,49.183L58.658,49.184L5.972,49.184L5.897,49.183L5.823,49.181L5.75,49.176L5.676,49.17L5.603,49.161L5.53,49.152L5.458,49.14L5.386,49.126L5.314,49.111L5.243,49.094L5.172,49.075L5.102,49.055L5.032,49.033L4.963,49.009L4.895,48.984L4.827,48.957L4.76,48.928L4.694,48.898L4.628,48.866L4.563,48.832L4.499,48.797L4.436,48.76L4.374,48.722L4.312,48.682L4.252,48.64L4.192,48.597L4.134,48.553L4.076,48.507L4.02,48.459L3.964,48.411L3.91,48.36L3.857,48.308L3.805,48.255L3.755,48.201L3.706,48.145L3.658,48.089L3.612,48.031L3.568,47.973L3.525,47.913L3.483,47.853L3.443,47.791L3.405,47.729L3.368,47.666L3.333,47.602L3.3,47.537L3.268,47.471L3.237,47.405L3.208,47.338L3.181,47.27L3.156,47.202L3.132,47.133L3.11,47.063L3.09,46.993L3.071,46.922L3.054,46.851L3.039,46.78L3.025,46.707L3.014,46.635L3.004,46.562L2.995,46.489L2.989,46.415L2.984,46.342L2.982,46.268L2.981,46.193L2.981,7.152L2.982,7.078L2.984,7.004L2.989,6.93L2.995,6.856L3.004,6.783L3.014,6.71L3.025,6.638L3.039,6.566L3.054,6.494L3.071,6.423L3.09,6.352L3.11,6.282L3.132,6.213L3.156,6.144L3.181,6.075L3.208,6.007L3.237,5.94L3.268,5.874L3.3,5.808L3.333,5.744L3.368,5.68L3.405,5.616L3.443,5.554L3.483,5.493L3.525,5.432L3.568,5.373L3.612,5.314L3.658,5.257L3.706,5.2L3.755,5.145L3.805,5.09L3.857,5.037L3.91,4.985L3.964,4.935L4.02,4.886L4.076,4.838L4.134,4.792L4.192,4.748L4.252,4.705L4.312,4.664L4.374,4.624L4.436,4.585L4.499,4.549L4.563,4.513L4.628,4.48L4.694,4.448L4.76,4.417L4.827,4.389L4.895,4.362L4.963,4.336L5.032,4.312L5.102,4.29L5.172,4.27L5.243,4.251L5.314,4.234L5.386,4.219L5.458,4.206L5.53,4.194L5.603,4.184L5.676,4.176L5.75,4.169L5.823,4.165L5.897,4.162L5.972,4.161L58.658,4.161ZM5.987,6.661L5.959,6.661L5.947,6.662L5.935,6.663L5.923,6.664L5.912,6.665L5.898,6.667L5.887,6.669L5.876,6.671L5.863,6.673L5.853,6.676L5.841,6.679L5.828,6.683L5.817,6.686L5.807,6.69L5.795,6.694L5.783,6.699L5.773,6.703L5.762,6.708L5.753,6.713L5.741,6.719L5.73,6.725L5.72,6.731L5.709,6.738L5.699,6.744L5.691,6.75L5.68,6.757L5.669,6.766L5.661,6.772L5.652,6.779L5.643,6.788L5.634,6.796L5.623,6.807L5.616,6.814L5.608,6.823L5.599,6.832L5.595,6.838L5.584,6.851L5.576,6.862L5.57,6.869L5.563,6.881L5.558,6.888L5.553,6.896L5.545,6.91L5.538,6.923L5.533,6.932L5.528,6.942L5.524,6.952L5.519,6.963L5.512,6.979L5.508,6.991L5.506,6.998L5.504,7.004L5.5,7.017L5.495,7.037L5.493,7.045L5.491,7.054L5.488,7.069L5.486,7.079L5.485,7.088L5.483,7.105L5.482,7.116L5.482,7.128L5.481,7.14L5.481,7.164L5.481,46.181L5.481,46.206L5.482,46.229L5.483,46.24L5.485,46.257L5.488,46.276L5.493,46.3L5.495,46.308L5.5,46.328L5.506,46.348L5.512,46.366L5.519,46.382L5.524,46.393L5.533,46.413L5.538,46.422L5.545,46.436L5.553,46.449L5.563,46.464L5.57,46.476L5.576,46.483L5.584,46.494L5.595,46.507L5.608,46.523L5.616,46.531L5.623,46.538L5.634,46.549L5.643,46.558L5.652,46.566L5.661,46.573L5.669,46.58L5.68,46.588L5.691,46.596L5.709,46.607L5.721,46.615L5.73,46.62L5.741,46.627L5.753,46.633L5.772,46.642L5.783,46.646L5.796,46.652L5.807,46.656L5.828,46.662L5.841,46.666L5.853,46.67L5.863,46.672L5.876,46.675L5.888,46.677L5.898,46.679L5.911,46.68L5.923,46.682L5.936,46.683L5.947,46.684L5.959,46.684L5.987,46.684L58.643,46.684L58.671,46.684L58.683,46.684L58.694,46.683L58.707,46.682L58.719,46.68L58.731,46.679L58.742,46.677L58.754,46.675L58.767,46.672L58.778,46.669L58.789,46.666L58.801,46.663L58.813,46.659L58.823,46.656L58.834,46.652L58.847,46.646L58.858,46.642L58.868,46.637L58.879,46.631L58.889,46.627L58.901,46.62L58.912,46.614L58.919,46.609L58.929,46.603L58.942,46.594L58.95,46.588L58.958,46.582L58.969,46.573L58.978,46.566L58.99,46.555L59,46.546L59.004,46.542L59.011,46.535L59.022,46.523L59.03,46.513L59.039,46.504L59.047,46.494L59.052,46.487L59.06,46.476L59.067,46.464L59.072,46.457L59.08,46.445L59.088,46.431L59.09,46.427L59.097,46.413L59.102,46.403L59.106,46.393L59.114,46.377L59.116,46.371L59.12,46.36L59.124,46.348L59.128,46.335L59.132,46.322L59.134,46.314L59.136,46.306L59.139,46.291L59.142,46.276L59.144,46.267L59.146,46.251L59.147,46.24L59.148,46.229L59.149,46.218L59.149,46.206L59.149,46.175L59.149,7.171L59.149,7.14L59.149,7.128L59.148,7.116L59.147,7.105L59.146,7.095L59.144,7.079L59.142,7.069L59.139,7.054L59.136,7.039L59.134,7.031L59.132,7.023L59.128,7.01L59.124,6.998L59.12,6.985L59.116,6.974L59.113,6.968L59.107,6.952L59.102,6.942L59.097,6.932L59.09,6.918L59.088,6.914L59.08,6.901L59.072,6.888L59.067,6.881L59.06,6.869L59.052,6.858L59.046,6.851L59.039,6.842L59.031,6.832L59.022,6.823L59.011,6.811L59.004,6.803L59,6.799L58.99,6.791L58.978,6.779L58.969,6.772L58.958,6.763L58.95,6.757L58.942,6.752L58.929,6.742L58.919,6.736L58.913,6.732L58.901,6.725L58.889,6.719L58.879,6.714L58.868,6.708L58.857,6.703L58.847,6.699L58.835,6.694L58.823,6.69L58.813,6.686L58.801,6.682L58.789,6.679L58.778,6.676L58.767,6.673L58.754,6.671L58.743,6.669L58.731,6.667L58.719,6.665L58.707,6.664L58.695,6.663L58.683,6.662L58.671,6.661L58.643,6.661L5.987,6.661Z" style="fill:#aaacca;fill-opacity:0.61;"/>
        <g>
            <rect x="22.913" y="12.951" width="17.305" height="2.831" style="fill:#dcddf1;"/>
            <rect x="48.603" y="12.951" width="7.58" height="2.831" style="fill:#f1765a;"/>
        </g>
        <g>
            <rect x="22.913" y="18.604" width="21.706" height="2.831" style="fill:#dcddf1;"/>
            <rect x="51.066" y="18.604" width="5.117" height="2.831" style="fill:#f1765a;"/>
        </g>
        <g>
            <rect x="22.913" y="31.03" width="21.706" height="2.831" style="fill:#dcddf1;"/>
            <rect x="46.515" y="31.03" width="9.668" height="2.831" style="fill:#f1765a;"/>
        </g>
        <g>
            <rect x="22.913" y="36.684" width="14.573" height="2.831" style="fill:#dcddf1;"/>
            <rect x="49.537" y="36.684" width="6.646" height="2.831" style="fill:#f1765a;"/>
        </g>
    </g>
    <path d="M12.107,29.619L10.194,36.219L14.56,36.184L12.655,42.162L17.907,34.246L14.269,34.216L16.169,29.638L12.107,29.619Z" style="fill:#fff;"/>
    <path id="path6" d="M10.808,17.619C10.727,18.386 10.912,19.169 11.331,19.816C11.522,20.111 11.759,20.375 12.03,20.598C12.166,20.709 12.311,20.81 12.462,20.899C12.538,20.944 12.616,20.986 12.696,21.025C12.736,21.044 12.776,21.063 12.817,21.08C12.888,21.112 12.91,21.012 12.942,20.954C13.047,20.758 13.122,20.548 13.167,20.33C13.179,20.268 13.209,20.233 13.146,20.203C13.106,20.185 13.066,20.165 13.028,20.145C12.95,20.103 12.875,20.058 12.803,20.009C12.501,19.806 12.247,19.535 12.062,19.222C11.88,18.914 11.768,18.566 11.734,18.21C11.725,18.115 11.722,18.018 11.724,17.922C11.725,17.867 11.729,17.811 11.734,17.756C11.679,17.735 11.623,17.717 11.566,17.701C11.32,17.631 11.063,17.603 10.808,17.619M12.744,15.988C13.374,15.535 14.202,15.406 14.939,15.649C15.114,15.706 15.282,15.784 15.439,15.879C15.507,15.92 15.58,16.011 15.645,15.955C15.725,15.887 15.8,15.814 15.869,15.735C15.997,15.592 16.106,15.432 16.193,15.26C16.032,15.14 15.86,15.034 15.679,14.945C14.975,14.595 14.155,14.503 13.39,14.684C13.026,14.771 12.678,14.918 12.363,15.118C12.292,15.163 12.223,15.21 12.156,15.26C12.204,15.354 12.258,15.444 12.318,15.53C12.438,15.702 12.582,15.856 12.744,15.988M15.183,20.213C15.218,20.431 15.286,20.645 15.383,20.844C15.416,20.912 15.482,21.103 15.56,21.068C15.641,21.032 15.721,20.992 15.799,20.949C16.121,20.773 16.414,20.544 16.663,20.274C17.161,19.734 17.474,19.037 17.544,18.306C17.564,18.105 17.565,17.901 17.549,17.699C17.542,17.625 17.566,17.589 17.482,17.587C17.426,17.585 17.371,17.586 17.315,17.588C17.205,17.594 17.094,17.607 16.986,17.628C16.877,17.649 16.77,17.678 16.666,17.715C16.585,17.744 16.619,17.779 16.623,17.855C16.626,17.912 16.627,17.969 16.626,18.026C16.622,18.225 16.594,18.424 16.542,18.617C16.353,19.319 15.845,19.913 15.183,20.213M8.829,18.653C9.605,17.289 11.52,17.014 12.654,18.095C12.689,18.128 13.017,18.503 13.005,18.51C13.086,18.464 13.166,18.417 13.247,18.37C13.338,18.318 13.428,18.266 13.519,18.214C13.569,18.185 13.526,18.144 13.517,18.091C13.498,17.983 13.507,17.87 13.541,17.766C13.594,17.608 13.707,17.474 13.853,17.393C13.871,17.384 14.051,17.318 14.051,17.321L14.051,16.729C14.051,16.665 13.947,16.692 13.896,16.686C12.547,16.534 11.571,15.271 11.74,13.931C11.817,13.328 12.127,12.764 12.591,12.372C12.876,12.132 13.214,11.957 13.575,11.867C13.668,11.844 13.631,11.747 13.631,11.658L13.631,11.433C12.216,11.641 11.017,12.687 10.617,14.06C10.513,14.416 10.464,14.787 10.47,15.158C10.474,15.395 10.5,15.631 10.549,15.863C10.567,15.95 10.53,15.93 10.457,15.956C10.404,15.974 10.352,15.994 10.301,16.015C10.179,16.065 10.06,16.121 9.944,16.183C9.291,16.534 8.752,17.078 8.41,17.735C7.919,18.681 7.857,19.818 8.251,20.809C8.355,20.749 8.459,20.689 8.563,20.629C8.638,20.585 8.608,20.584 8.584,20.489C8.541,20.326 8.516,20.158 8.508,19.99C8.479,19.529 8.601,19.053 8.829,18.653M18.733,21.909C18.091,22.3 17.323,22.413 16.605,22.164C15.887,21.917 15.315,21.337 15.076,20.616C14.942,20.212 14.915,19.773 14.999,19.355C15.044,19.136 15.118,18.924 15.22,18.725C15.203,18.683 15.043,18.623 15.004,18.6C14.909,18.546 14.815,18.491 14.72,18.437C14.677,18.411 14.69,18.406 14.648,18.448C14.571,18.526 14.474,18.585 14.368,18.617C14.181,18.674 13.973,18.644 13.809,18.537C13.788,18.523 13.672,18.412 13.662,18.417C13.626,18.439 13.589,18.46 13.553,18.481C13.451,18.54 13.349,18.598 13.247,18.657C13.213,18.677 13.179,18.696 13.145,18.716C13.111,18.736 13.191,18.846 13.205,18.878C13.39,19.295 13.455,19.761 13.391,20.213C13.296,20.887 12.916,21.511 12.352,21.895C11.744,22.309 10.975,22.435 10.267,22.227C9.911,22.122 9.581,21.937 9.307,21.687C9.283,21.666 9.17,21.534 9.149,21.546C9.113,21.567 9.077,21.588 9.04,21.609C8.958,21.656 8.876,21.703 8.794,21.751C9.73,22.933 11.346,23.434 12.787,22.989C13.174,22.87 13.54,22.686 13.868,22.449C13.955,22.387 14.039,22.321 14.12,22.251C14.175,22.203 14.177,22.162 14.239,22.216C14.28,22.251 14.321,22.286 14.364,22.319C14.544,22.462 14.737,22.588 14.941,22.696C15.606,23.047 16.371,23.188 17.118,23.097C18.078,22.979 18.971,22.481 19.572,21.722C19.467,21.662 19.363,21.602 19.259,21.542C19.176,21.494 19.165,21.559 19.097,21.623C18.985,21.73 18.863,21.825 18.733,21.909M18.522,16.21C18.373,16.124 18.218,16.048 18.059,15.984C17.972,15.949 17.884,15.917 17.795,15.888C17.815,15.797 17.831,15.704 17.844,15.612C17.888,15.295 17.891,14.972 17.853,14.654C17.789,14.116 17.605,13.595 17.318,13.136C16.747,12.223 15.784,11.589 14.718,11.432L14.718,11.83C14.718,11.881 14.89,11.898 14.938,11.914C15.304,12.033 15.641,12.241 15.913,12.514C16.436,13.04 16.698,13.788 16.614,14.526C16.538,15.197 16.179,15.815 15.638,16.218C15.306,16.465 14.913,16.626 14.503,16.681C14.478,16.684 14.299,16.693 14.299,16.707L14.299,17.305C14.299,17.343 14.388,17.345 14.421,17.358C14.589,17.424 14.725,17.56 14.793,17.727C14.826,17.806 14.842,17.892 14.842,17.978C14.842,18.007 14.805,18.199 14.811,18.202C14.899,18.253 14.987,18.304 15.074,18.354C15.159,18.403 15.244,18.452 15.329,18.502C15.346,18.511 15.611,18.166 15.656,18.121C15.928,17.845 16.266,17.634 16.635,17.513C18.019,17.062 19.513,17.931 19.811,19.356C19.889,19.739 19.874,20.139 19.767,20.515C19.742,20.605 19.817,20.608 19.894,20.653C19.968,20.695 20.042,20.738 20.115,20.78C20.784,19.095 20.091,17.116 18.522,16.21" style="fill:#fff;fill-rule:nonzero;"/>
</svg>
