<?xml version="1.0" encoding="UTF-8" standalone="no"?>
<!DOCTYPE svg PUBLIC "-//W3C//DTD SVG 1.1//EN" "http://www.w3.org/Graphics/SVG/1.1/DTD/svg11.dtd">
<svg width="100%" height="100%" viewBox="0 0 64 65" version="1.1" xmlns="http://www.w3.org/2000/svg" xmlns:xlink="http://www.w3.org/1999/xlink" xml:space="preserve" xmlns:serif="http://www.serif.com/" style="fill-rule:evenodd;clip-rule:evenodd;stroke-linejoin:round;stroke-miterlimit:1.41421;">
    <rect id="Reduce-Sodium" x="0" y="0.156" width="64" height="64" style="fill:none;"/>
    <ellipse cx="40" cy="57.156" rx="24" ry="5" style="fill:#2b307e;fill-opacity:0.101961;"/>
    <path d="M50.601,18.852C50.11,10.598 43.274,4.156 35.005,4.156C35.004,4.156 35.004,4.156 35.003,4.156C26.117,4.156 18.77,11.079 18.243,19.949C17.662,29.71 16.941,41.825 16.476,49.646C16.191,54.445 19.589,58.679 24.336,59.439C27.19,59.791 30.631,60.118 34.455,60.156C38.048,60.19 41.52,59.854 44.465,59.417C49.229,58.706 52.663,54.475 52.377,49.665C51.951,41.547 51.193,28.795 50.601,18.852Z" style="fill:none;"/>
    <clipPath id="_clip1">
        <path d="M50.601,18.852C50.11,10.598 43.274,4.156 35.005,4.156C35.004,4.156 35.004,4.156 35.003,4.156C26.117,4.156 18.77,11.079 18.243,19.949C17.662,29.71 16.941,41.825 16.476,49.646C16.191,54.445 19.589,58.679 24.336,59.439C27.19,59.791 30.631,60.118 34.455,60.156C38.048,60.19 41.52,59.854 44.465,59.417C49.229,58.706 52.663,54.475 52.377,49.665C51.951,41.547 51.193,28.795 50.601,18.852Z"/>
    </clipPath>
    <g clip-path="url(#_clip1)">
        <rect x="12.455" y="2.156" width="44" height="60" style="fill:#fff;"/>
        <rect x="16.455" y="2.156" width="36.455" height="18" style="fill:#cdceeb;"/>
        <path d="M30.455,29.478C30.455,27.643 28.967,26.156 27.133,26.156C27.132,26.156 27.131,26.156 27.131,26.156C26.156,26.156 25.221,26.543 24.531,27.232C23.842,27.922 23.455,28.857 23.455,29.832C23.455,35.332 23.455,45.619 23.455,50.878C23.455,52.688 24.922,54.156 26.733,54.156C26.733,54.156 26.734,54.156 26.735,54.156C27.721,54.156 28.667,53.764 29.365,53.066C30.063,52.368 30.455,51.422 30.455,50.436C30.455,44.94 30.455,34.735 30.455,29.478Z" style="fill:#2b307e;fill-opacity:0.254902;"/>
        <path d="M45.455,29.478C45.455,27.643 43.967,26.156 42.133,26.156C42.132,26.156 42.131,26.156 42.131,26.156C41.156,26.156 40.221,26.543 39.531,27.232C38.842,27.922 38.455,28.857 38.455,29.832C38.455,35.332 38.455,45.619 38.455,50.878C38.455,52.688 39.922,54.156 41.733,54.156C41.733,54.156 41.734,54.156 41.735,54.156C42.721,54.156 43.667,53.764 44.365,53.066C45.063,52.368 45.455,51.422 45.455,50.436C45.455,44.94 45.455,34.735 45.455,29.478Z" style="fill:#2b307e;fill-opacity:0.254902;"/>
        <ellipse cx="34.455" cy="8.156" rx="2.5" ry="2" style="fill:#2b307e;"/>
        <ellipse cx="28.455" cy="12.656" rx="2.5" ry="2" style="fill:#2b307e;"/>
        <ellipse cx="40.455" cy="12.656" rx="2.5" ry="2" style="fill:#2b307e;"/>
        <rect x="12.455" y="16.156" width="48" height="2" style="fill:#2b307e;"/>
    </g>
    <path d="M10.029,23.156L14.881,23.156L14.881,49.878L19.733,49.878L12.455,57.156L5.177,49.878L10.029,49.878L10.029,23.156Z" style="fill:#f3775b;"/>
</svg>
