<?xml version="1.0" encoding="UTF-8" standalone="no"?>
<!DOCTYPE svg PUBLIC "-//W3C//DTD SVG 1.1//EN" "http://www.w3.org/Graphics/SVG/1.1/DTD/svg11.dtd">
<svg width="100%" height="100%" viewBox="0 0 65 65" version="1.1" xmlns="http://www.w3.org/2000/svg" xmlns:xlink="http://www.w3.org/1999/xlink" xml:space="preserve" xmlns:serif="http://www.serif.com/" style="fill-rule:evenodd;clip-rule:evenodd;stroke-linejoin:round;stroke-miterlimit:2;">
    <rect id="Reduce-sodium" x="0.278" y="0.16" width="64" height="64" style="fill:none;"/>
    <g>
        <ellipse cx="41.089" cy="54.816" rx="20.183" ry="7.344" style="fill:#2b307e;fill-opacity:0.08;"/>
        <path d="M32.278,7.985L40.058,7.985C40.837,13.436 41.978,16.971 44.717,19.176C47.449,21.375 49.314,22.973 49.314,26.76L49.314,52.311C49.314,53.577 48.602,54.735 47.472,55.306C47.472,55.306 39.801,59.182 35.36,61.426C33.422,62.405 31.134,62.405 29.196,61.426C24.755,59.182 17.084,55.306 17.084,55.306C15.954,54.735 15.242,53.577 15.242,52.311L15.242,26.76L15.242,26.671C15.271,22.948 17.128,21.358 19.839,19.176C22.578,16.971 23.719,13.436 24.498,7.985L32.278,7.985Z" style="fill:#d6d7f0;"/>
        <clipPath id="_clip1">
            <path d="M32.278,7.985L40.058,7.985C40.837,13.436 41.978,16.971 44.717,19.176C47.449,21.375 49.314,22.973 49.314,26.76L49.314,52.311C49.314,53.577 48.602,54.735 47.472,55.306C47.472,55.306 39.801,59.182 35.36,61.426C33.422,62.405 31.134,62.405 29.196,61.426C24.755,59.182 17.084,55.306 17.084,55.306C15.954,54.735 15.242,53.577 15.242,52.311L15.242,26.76L15.242,26.671C15.271,22.948 17.128,21.358 19.839,19.176C22.578,16.971 23.719,13.436 24.498,7.985L32.278,7.985Z"/>
        </clipPath>
        <g clip-path="url(#_clip1)">
            <ellipse cx="32.278" cy="12.719" rx="9.84" ry="3.063" style="fill:#2b307f;fill-opacity:0.41;"/>
            <rect x="32.492" y="-1.535" width="19.252" height="69.3" style="fill:#2b307f;fill-opacity:0.17;"/>
        </g>
        <ellipse cx="32.278" cy="11.048" rx="11.372" ry="3.063" style="fill:#bebfe5;"/>
        <path d="M24.318,15.303L24.395,15.343L24.39,15.339L24.43,15.359L24.47,15.379L24.465,15.376L24.548,15.415L24.543,15.412L24.628,15.45L24.623,15.447L24.713,15.484L24.707,15.481L24.8,15.516L24.795,15.513L24.89,15.548L24.885,15.545L24.983,15.579L24.978,15.576L25.079,15.608L25.074,15.606L25.093,15.612L25.177,15.639L25.172,15.637L25.278,15.669L25.273,15.667L25.381,15.698L25.376,15.696L25.487,15.726L25.482,15.724L25.54,15.739L25.595,15.755L25.59,15.753L25.705,15.783L25.7,15.781L25.818,15.811L25.813,15.809L25.932,15.837L25.927,15.836L26.03,15.859L26.049,15.864L26.044,15.862L26.168,15.892L26.163,15.89L26.288,15.919L26.283,15.918L26.411,15.946L26.406,15.944L26.535,15.971L26.53,15.97L26.532,15.97L26.66,16.001L26.655,16L26.787,16.03L26.783,16.029L26.916,16.058L26.911,16.057L27.035,16.082L27.046,16.085L27.042,16.084L27.177,16.117L27.173,16.116L27.31,16.148L27.306,16.147L27.445,16.178L27.44,16.177L27.58,16.207L27.576,16.206L27.583,16.207L27.717,16.238L27.713,16.237L27.855,16.268L27.851,16.267L27.995,16.297L27.991,16.297L28.136,16.325L28.132,16.325L28.224,16.343L28.277,16.354L28.274,16.353L28.42,16.383L28.416,16.382L28.563,16.411L28.56,16.411L28.708,16.438L28.705,16.438L28.853,16.464L28.85,16.464L29,16.489L28.997,16.489L29.147,16.513L29.144,16.513L29.294,16.536L29.291,16.536L29.443,16.557L29.44,16.557L29.591,16.578L29.588,16.578L29.648,16.585L29.74,16.599L29.737,16.598L29.889,16.619L29.887,16.619L30.039,16.638L30.036,16.638L30.189,16.656L30.186,16.656L30.339,16.673L30.336,16.672L30.489,16.688L30.486,16.688L30.639,16.702L30.636,16.702L30.788,16.715L30.786,16.715L30.938,16.726L30.936,16.726L31.078,16.736L31.087,16.737L31.085,16.737L31.236,16.746L31.234,16.747L31.385,16.755L31.383,16.755L31.533,16.762L31.531,16.762L31.681,16.768L31.679,16.768L31.828,16.772L31.826,16.772L31.974,16.775L31.973,16.775L32.12,16.776L32.118,16.776L32.23,16.776L32.265,16.776L32.44,16.924L32.291,17.099L32.256,17.104L32.146,17.122L32.145,17.122L31.999,17.144L31.997,17.144L31.85,17.165L31.848,17.165L31.7,17.184L31.698,17.184L31.55,17.202L31.547,17.202L31.398,17.219L31.396,17.219L31.245,17.234L31.243,17.234L31.092,17.248L31.09,17.248L31.08,17.249L30.938,17.26L30.936,17.26L30.784,17.27L30.781,17.27L30.629,17.279L30.626,17.279L30.473,17.287L30.471,17.287L30.318,17.293L30.315,17.293L30.162,17.298L30.159,17.298L30.006,17.302L30.003,17.302L29.849,17.305L29.847,17.305L29.693,17.306L29.69,17.306L29.597,17.306L29.537,17.305L29.534,17.305L29.381,17.302L29.378,17.301L29.225,17.297L29.222,17.297L29.07,17.291L29.067,17.291L28.915,17.284L28.912,17.283L28.76,17.275L28.757,17.275L28.606,17.266L28.603,17.265L28.452,17.255L28.449,17.254L28.3,17.243L28.296,17.242L28.148,17.229L28.144,17.229L28.09,17.224L27.996,17.213L27.993,17.213L27.847,17.195L27.843,17.194L27.698,17.175L27.694,17.175L27.55,17.154L27.546,17.154L27.41,17.134L27.403,17.132L27.399,17.132L27.258,17.106L27.254,17.106L27.114,17.079L27.11,17.078L26.972,17.051L26.968,17.05L26.831,17.022L26.827,17.02L26.815,17.018L26.693,16.986L26.689,16.985L26.557,16.949L26.552,16.948L26.422,16.911L26.418,16.91L26.291,16.872L26.29,16.872L26.285,16.871L26.16,16.827L26.155,16.825L26.033,16.781L26.028,16.779L25.908,16.734L25.903,16.733L25.785,16.686L25.78,16.685L25.761,16.677L25.665,16.635L25.66,16.633L25.548,16.582L25.543,16.581L25.433,16.529L25.428,16.527L25.321,16.475L25.316,16.473L25.264,16.447L25.212,16.419L25.207,16.417L25.106,16.361L25.101,16.359L25.003,16.302L24.998,16.3L24.903,16.244L24.897,16.241L24.822,16.194L24.806,16.184L24.8,16.181L24.712,16.121L24.707,16.118L24.622,16.058L24.617,16.056L24.536,15.995L24.531,15.992L24.452,15.932L24.447,15.928L24.372,15.868L24.367,15.864L24.296,15.803L24.29,15.8L24.222,15.739L24.217,15.735L24.185,15.704L24.154,15.673L24.149,15.669L24.089,15.606L24.084,15.602L24.028,15.539L24.024,15.535L23.972,15.472L23.945,15.234L24.184,15.227L24.254,15.27L24.249,15.266L24.323,15.307L24.318,15.303Z" style="fill:#fff;fill-opacity:0.8;"/>
        <path d="M23.052,11.625L23.163,11.67L23.159,11.668L23.274,11.712L23.271,11.71L23.39,11.754L23.386,11.752L23.474,11.783L23.509,11.795L23.506,11.794L23.633,11.838L23.629,11.836L23.76,11.879L23.756,11.878L23.89,11.921L23.887,11.92L24.025,11.961L24.022,11.96L24.162,12.001L24.16,12L24.304,12.04L24.301,12.039L24.448,12.079L24.445,12.078L24.595,12.117L24.592,12.116L24.611,12.12L24.745,12.156L24.742,12.155L24.897,12.194L24.894,12.194L25.051,12.232L25.049,12.232L25.189,12.265L25.209,12.27L25.206,12.269L25.367,12.309L25.365,12.308L25.528,12.347L25.526,12.346L25.691,12.385L25.689,12.384L25.714,12.39L25.855,12.424L25.853,12.423L26.021,12.463L26.019,12.463L26.189,12.501L26.187,12.501L26.358,12.539L26.356,12.538L26.363,12.54L26.528,12.577L26.526,12.576L26.7,12.614L26.697,12.613L26.872,12.649L26.87,12.649L27.046,12.684L27.044,12.684L27.107,12.696L27.22,12.719L27.218,12.719L27.395,12.753L27.393,12.753L27.57,12.786L27.568,12.786L27.746,12.818L27.744,12.818L27.922,12.849L27.92,12.849L28.098,12.878L28.096,12.878L28.275,12.906L28.273,12.906L28.451,12.933L28.449,12.933L28.627,12.958L28.625,12.958L28.753,12.975L28.802,12.982L28.8,12.982L28.977,13.006L28.975,13.006L29.151,13.029L29.149,13.028L29.324,13.049L29.322,13.049L29.497,13.069L29.495,13.069L29.668,13.086L29.666,13.086L29.838,13.102L29.836,13.102L30.007,13.117L30.005,13.117L30.174,13.129L30.172,13.129L30.34,13.14L30.338,13.14L30.504,13.15L30.502,13.149L30.666,13.157L30.663,13.157L30.825,13.162L30.823,13.162L30.983,13.166L30.981,13.166L31.138,13.168L31.136,13.168L31.291,13.167L31.289,13.168L31.442,13.165L31.439,13.165L31.589,13.161L31.587,13.161L31.687,13.157L31.734,13.155L31.908,13.304L31.759,13.478L31.713,13.483L31.613,13.495L31.61,13.495L31.461,13.51L31.459,13.51L31.307,13.523L31.304,13.523L31.15,13.534L31.147,13.534L30.99,13.544L30.988,13.544L30.828,13.551L30.826,13.551L30.664,13.557L30.662,13.557L30.497,13.561L30.495,13.561L30.329,13.564L30.327,13.564L30.159,13.564L30.157,13.564L29.987,13.563L29.985,13.563L29.813,13.561L29.811,13.561L29.638,13.557L29.636,13.557L29.462,13.551L29.46,13.551L29.285,13.544L29.283,13.543L29.106,13.535L29.104,13.535L28.927,13.524L28.925,13.524L28.747,13.513L28.745,13.512L28.695,13.509L28.566,13.498L28.564,13.498L28.385,13.482L28.383,13.482L28.203,13.464L28.201,13.464L28.022,13.445L28.02,13.445L27.84,13.425L27.838,13.425L27.658,13.403L27.656,13.403L27.477,13.381L27.475,13.38L27.296,13.356L27.294,13.356L27.115,13.331L27.113,13.331L26.999,13.314L26.935,13.304L26.933,13.303L26.756,13.274L26.754,13.274L26.578,13.244L26.575,13.243L26.401,13.212L26.398,13.211L26.232,13.18L26.225,13.179L26.222,13.178L26.05,13.143L26.048,13.143L25.877,13.106L25.875,13.106L25.706,13.069L25.704,13.068L25.562,13.036L25.536,13.03L25.534,13.029L25.37,12.986L25.367,12.986L25.205,12.943L25.202,12.942L25.042,12.898L25.039,12.897L25.02,12.892L24.882,12.85L24.879,12.849L24.725,12.8L24.722,12.799L24.57,12.75L24.567,12.749L24.436,12.706L24.418,12.699L24.415,12.698L24.269,12.646L24.267,12.645L24.124,12.591L24.121,12.59L23.982,12.536L23.979,12.535L23.842,12.481L23.839,12.48L23.707,12.425L23.704,12.424L23.574,12.369L23.571,12.368L23.446,12.313L23.443,12.311L23.321,12.256L23.318,12.254L23.284,12.238L23.2,12.197L23.197,12.196L23.084,12.138L23.081,12.136L22.972,12.078L22.968,12.076L22.864,12.018L22.86,12.016L22.761,11.958L22.757,11.956L22.662,11.898L22.658,11.896L22.568,11.838L22.563,11.835L22.478,11.777L22.474,11.775L22.393,11.717L22.39,11.714L22.352,11.686L22.349,11.684L22.312,11.655L22.31,11.653L22.274,11.624L22.272,11.623L22.238,11.594L22.235,11.592L22.202,11.563L22.2,11.561L22.168,11.532L22.165,11.53L22.135,11.502L22.132,11.499L22.104,11.471L22.087,11.24L22.318,11.227L22.35,11.252L22.347,11.249L22.38,11.274L22.377,11.272L22.412,11.296L22.409,11.294L22.446,11.318L22.443,11.316L22.48,11.341L22.478,11.339L22.517,11.363L22.514,11.361L22.554,11.385L22.552,11.383L22.593,11.407L22.59,11.405L22.677,11.452L22.672,11.45L22.764,11.496L22.76,11.494L22.856,11.54L22.852,11.538L22.954,11.584L22.95,11.582L23.056,11.627L23.052,11.625Z" style="fill:#fff;fill-opacity:0.8;"/>
        <ellipse cx="32.278" cy="7.795" rx="12.439" ry="4.794" style="fill:#7072ac;"/>
        <path d="M32.278,2.31C39.144,2.31 44.717,5.11 44.717,6.96C44.717,8.809 39.144,10.311 32.278,10.311C25.413,10.311 19.839,8.809 19.839,6.96C19.839,5.11 25.413,2.31 32.278,2.31Z" style="fill:#bebfe5;"/>
        <clipPath id="_clip2">
            <path d="M32.278,2.31C39.144,2.31 44.717,5.11 44.717,6.96C44.717,8.809 39.144,10.311 32.278,10.311C25.413,10.311 19.839,8.809 19.839,6.96C19.839,5.11 25.413,2.31 32.278,2.31Z"/>
        </clipPath>
        <g clip-path="url(#_clip2)">
            <path d="M27.307,2.003C31.052,1.517 34.237,2.233 34.415,3.6C34.592,4.968 31.696,6.473 27.951,6.96C24.205,7.446 21.02,6.73 20.843,5.363C20.665,3.995 23.562,2.49 27.307,2.003Z" style="fill:#fff;fill-opacity:0.47;"/>
        </g>
        <g>
            <ellipse cx="32.278" cy="7.352" rx="1.113" ry="0.633" style="fill:#fff;"/>
            <ellipse cx="35.295" cy="5.51" rx="1.113" ry="0.543" style="fill:#fff;"/>
            <path d="M40.198,5.442C40.798,5.574 41.243,5.871 41.192,6.106C41.14,6.34 40.611,6.423 40.011,6.292C39.411,6.16 38.966,5.862 39.018,5.628C39.069,5.393 39.598,5.31 40.198,5.442Z" style="fill:#fff;"/>
            <path d="M24.358,5.442C23.758,5.574 23.313,5.871 23.364,6.106C23.416,6.34 23.945,6.423 24.545,6.292C25.145,6.16 25.59,5.862 25.538,5.628C25.487,5.393 24.958,5.31 24.358,5.442Z" style="fill:#fff;"/>
            <ellipse cx="29.261" cy="5.51" rx="1.113" ry="0.543" style="fill:#fff;"/>
            <ellipse cx="32.278" cy="3.801" rx="1.113" ry="0.389" style="fill:#fff;"/>
            <path d="M27.341,3.568C27.942,3.441 28.452,3.443 28.479,3.571C28.506,3.7 28.041,3.907 27.44,4.034C26.839,4.161 26.329,4.16 26.302,4.031C26.275,3.903 26.74,3.695 27.341,3.568Z" style="fill:#fff;"/>
            <path d="M37.547,3.568C36.946,3.441 36.436,3.443 36.409,3.571C36.382,3.7 36.848,3.907 37.448,4.034C38.049,4.161 38.559,4.16 38.587,4.031C38.614,3.903 38.148,3.695 37.547,3.568Z" style="fill:#fff;"/>
        </g>
        <path d="M45.795,32.784C45.795,26.727 32.278,23.136 32.278,23.136C32.278,23.136 18.761,27.564 18.761,32.784L18.761,40.631L45.795,40.631L45.795,32.784Z" style="fill:#f3f3fa;"/>
        <g>
            <ellipse cx="32.278" cy="7.108" rx="1.113" ry="0.633" style="fill:#2b307e;"/>
            <ellipse cx="35.295" cy="5.265" rx="1.113" ry="0.543" style="fill:#2b307e;"/>
            <path d="M40.198,5.198C40.798,5.329 41.243,5.627 41.192,5.861C41.14,6.096 40.611,6.179 40.011,6.047C39.411,5.916 38.966,5.618 39.018,5.384C39.069,5.149 39.598,5.066 40.198,5.198Z" style="fill:#2b307e;"/>
            <path d="M24.358,5.198C23.758,5.329 23.313,5.627 23.364,5.861C23.416,6.096 23.945,6.179 24.545,6.047C25.145,5.916 25.59,5.618 25.538,5.384C25.487,5.149 24.958,5.066 24.358,5.198Z" style="fill:#2b307e;"/>
            <ellipse cx="29.261" cy="5.265" rx="1.113" ry="0.543" style="fill:#2b307e;"/>
            <ellipse cx="32.278" cy="3.557" rx="1.113" ry="0.389" style="fill:#2b307e;"/>
            <path d="M27.341,3.324C27.942,3.197 28.452,3.198 28.479,3.327C28.506,3.456 28.041,3.663 27.44,3.79C26.839,3.917 26.329,3.916 26.302,3.787C26.275,3.659 26.74,3.451 27.341,3.324Z" style="fill:#2b307e;"/>
            <path d="M37.547,3.324C36.946,3.197 36.436,3.198 36.409,3.327C36.382,3.456 36.848,3.663 37.448,3.79C38.049,3.917 38.559,3.916 38.587,3.787C38.614,3.659 38.148,3.451 37.547,3.324Z" style="fill:#2b307e;"/>
        </g>
        <path d="M20.356,52.37C19.378,51.882 18.761,50.883 18.761,49.791L18.761,32.16C18.761,32.16 26.311,35.374 30.126,36.997C31.501,37.583 33.055,37.583 34.43,36.997C38.245,35.374 45.795,32.16 45.795,32.16L45.795,49.335C45.795,50.707 45.02,51.961 43.792,52.574C41.444,53.746 37.542,55.694 34.941,56.993C33.264,57.83 31.292,57.83 29.615,56.993C26.102,55.238 20.356,52.37 20.356,52.37Z" style="fill:#fff;"/>
        <clipPath id="_clip3">
            <path d="M20.356,52.37C19.378,51.882 18.761,50.883 18.761,49.791L18.761,32.16C18.761,32.16 26.311,35.374 30.126,36.997C31.501,37.583 33.055,37.583 34.43,36.997C38.245,35.374 45.795,32.16 45.795,32.16L45.795,49.335C45.795,50.707 45.02,51.961 43.792,52.574C41.444,53.746 37.542,55.694 34.941,56.993C33.264,57.83 31.292,57.83 29.615,56.993C26.102,55.238 20.356,52.37 20.356,52.37Z"/>
        </clipPath>
        <g clip-path="url(#_clip3)">
            <path d="M32.278,31.563L50.703,23.721L50.703,50.723C50.703,52.095 49.927,53.349 48.699,53.962C43.926,56.345 32.278,62.16 32.278,62.16L32.278,31.563Z" style="fill:#e2e3f3;"/>
        </g>
        <path d="M29.292,43.197L29.292,43.198L29.272,41.904L29.267,41.573L29.267,41.574L29.245,39.959L29.245,39.96L29.227,38.723L29.223,38.368L29.223,38.369L29.205,36.811L29.205,36.812L29.193,35.904L29.188,35.303L29.188,35.304L29.175,33.854L29.175,33.855L29.163,32.781L29.161,32.477L29.162,32.479L29.151,31.186L29.151,31.187L29.144,30.576L29.144,30.577L29.138,29.992L29.138,29.994L29.131,29.478L29.131,29.436L29.131,29.437L29.125,28.908L29.125,28.91L29.119,28.412L29.119,28.414L29.112,27.947L29.112,27.949L29.104,27.517L29.104,27.519L29.095,27.122L29.095,27.125L29.086,26.764L29.086,26.768L29.076,26.446L29.076,26.451L29.065,26.168L29.065,26.173L29.059,26.047L29.06,26.052L29.053,25.936L29.054,25.942L29.047,25.837L29.048,25.844L29.041,25.75L29.042,25.758L29.035,25.675L29.037,25.687L29.029,25.615L29.032,25.631L29.026,25.585L29.003,25.535L29.008,25.546L28.941,25.409L28.945,25.417L28.909,25.346L28.912,25.352L28.875,25.28L28.878,25.285L28.839,25.212L28.842,25.217L28.802,25.143L28.805,25.148L28.763,25.073L28.766,25.078L28.723,25.002L28.726,25.008L28.682,24.93L28.685,24.936L28.639,24.858L28.642,24.863L28.594,24.784L28.598,24.79L28.548,24.71L28.552,24.715L28.501,24.635L28.505,24.641L28.453,24.56L28.456,24.565L28.403,24.484L28.406,24.489L28.351,24.407L28.355,24.413L28.298,24.331L28.302,24.336L28.244,24.254L28.248,24.259L28.188,24.176L28.192,24.182L28.131,24.099L28.135,24.104L28.073,24.021L28.077,24.027L28.013,23.943L28.017,23.949L27.951,23.866L27.956,23.871L27.889,23.788L27.893,23.794L27.824,23.711L27.829,23.716L27.759,23.633L27.764,23.639L27.721,23.59L27.692,23.556L27.697,23.562L27.624,23.479L27.629,23.485L27.554,23.402L27.56,23.408L27.483,23.326L27.489,23.332L27.411,23.25L27.417,23.256L27.337,23.175L27.343,23.181L27.262,23.1L27.268,23.106L27.186,23.026L27.192,23.032L27.108,22.953L27.114,22.959L27.028,22.881L27.035,22.886L26.948,22.809L26.955,22.814L26.866,22.738L26.873,22.744L26.782,22.668L26.789,22.674L26.697,22.6L26.704,22.605L26.611,22.532L26.618,22.537L26.523,22.465L26.531,22.471L26.434,22.4L26.442,22.405L26.343,22.336L26.351,22.341L26.251,22.273L26.259,22.278L26.158,22.211L26.166,22.216L26.063,22.151L26.071,22.156L25.966,22.092L25.975,22.097L25.869,22.035L25.878,22.04L25.77,21.98L25.779,21.984L25.669,21.926L25.678,21.93L25.567,21.873L25.576,21.878L25.463,21.823L25.473,21.827L25.358,21.774L25.368,21.778L25.252,21.727L25.262,21.731L25.144,21.682L25.154,21.685L25.034,21.638L25.044,21.642L24.923,21.597L24.933,21.601L24.811,21.558L24.821,21.561L24.696,21.521L24.707,21.524L24.581,21.486L24.591,21.489L24.463,21.453L24.473,21.456L24.382,21.432L24.39,21.434L24.3,21.412L24.307,21.414L24.218,21.394L24.226,21.395L24.137,21.377L24.145,21.378L24.057,21.361L24.065,21.363L23.977,21.347L23.985,21.348L23.898,21.335L23.906,21.336L23.82,21.324L23.828,21.324L23.742,21.314L23.75,21.314L23.665,21.305L23.673,21.306L23.589,21.298L23.597,21.299L23.513,21.292L23.521,21.293L23.438,21.288L23.446,21.288L23.363,21.285L23.371,21.285L23.289,21.283L23.297,21.282L23.216,21.282L23.224,21.281L23.143,21.282L23.151,21.282L23.071,21.284L23.079,21.283L23,21.286L23.008,21.286L22.929,21.29L22.937,21.289L22.859,21.295L22.866,21.294L22.789,21.301L22.796,21.3L22.72,21.308L22.727,21.307L22.662,21.315L22.651,21.316L22.659,21.315L22.583,21.325L22.59,21.324L22.516,21.335L22.523,21.334L22.449,21.346L22.456,21.345L22.383,21.358L22.39,21.357L22.317,21.371L22.324,21.369L22.252,21.385L22.258,21.383L22.187,21.4L22.194,21.398L22.123,21.415L22.13,21.413L22.06,21.432L22.066,21.43L21.997,21.449L22.003,21.447L21.934,21.467L21.94,21.465L21.872,21.486L21.878,21.484L21.811,21.506L21.817,21.504L21.75,21.527L21.756,21.524L21.69,21.548L21.696,21.546L21.631,21.57L21.636,21.568L21.572,21.593L21.577,21.591L21.513,21.616L21.518,21.614L21.455,21.641L21.46,21.638L21.398,21.665L21.403,21.663L21.341,21.691L21.346,21.688L21.285,21.717L21.29,21.714L21.229,21.744L21.234,21.741L21.174,21.771L21.179,21.768L21.12,21.799L21.124,21.796L21.066,21.827L21.07,21.824L21.012,21.856L21.017,21.853L20.96,21.885L20.966,21.881L20.854,21.946L20.862,21.942L20.753,22.008L20.76,22.003L20.654,22.072L20.661,22.067L20.557,22.136L20.564,22.131L20.464,22.202L20.47,22.197L20.372,22.269L20.378,22.264L20.283,22.337L20.289,22.332L20.197,22.405L20.202,22.401L20.113,22.474L20.118,22.47L20.031,22.543L20.036,22.539L19.953,22.613L19.957,22.608L19.877,22.682L19.881,22.678L19.803,22.751L19.807,22.747L19.733,22.819L19.737,22.815L19.665,22.887L19.668,22.883L19.6,22.954L19.603,22.95L19.537,23.02L19.54,23.016L19.477,23.085L19.48,23.081L19.421,23.148L19.423,23.145L19.366,23.21L19.369,23.207L19.315,23.27L19.318,23.267L19.267,23.328L19.269,23.325L19.221,23.384L19.224,23.381L19.179,23.437L19.182,23.433L19.101,23.538L19.105,23.532L19.037,23.625L19.04,23.62L18.984,23.7L18.987,23.695L18.962,23.731L18.943,23.759L18.946,23.754L18.915,23.802L18.918,23.797L18.893,23.837L18.445,23.952L18.33,23.504L18.353,23.462L18.356,23.457L18.385,23.407L18.388,23.403L18.405,23.374L18.428,23.336L18.431,23.331L18.483,23.249L18.487,23.243L18.55,23.147L18.554,23.141L18.629,23.032L18.632,23.027L18.674,22.968L18.676,22.965L18.721,22.904L18.723,22.901L18.771,22.837L18.773,22.833L18.824,22.767L18.826,22.764L18.88,22.696L18.882,22.692L18.939,22.622L18.942,22.619L19.001,22.547L19.004,22.543L19.066,22.47L19.069,22.466L19.134,22.392L19.137,22.388L19.205,22.312L19.209,22.309L19.279,22.232L19.283,22.228L19.357,22.151L19.361,22.147L19.437,22.069L19.442,22.065L19.521,21.987L19.526,21.982L19.608,21.904L19.613,21.9L19.698,21.822L19.703,21.817L19.791,21.739L19.796,21.735L19.887,21.657L19.893,21.652L19.987,21.575L19.993,21.571L20.089,21.495L20.096,21.49L20.195,21.415L20.202,21.41L20.305,21.336L20.312,21.331L20.417,21.258L20.425,21.253L20.533,21.182L20.539,21.179L20.594,21.144L20.598,21.141L20.654,21.107L20.658,21.104L20.715,21.07L20.719,21.068L20.777,21.034L20.781,21.032L20.839,20.999L20.844,20.997L20.903,20.964L20.907,20.962L20.967,20.93L20.972,20.928L21.032,20.896L21.037,20.894L21.098,20.864L21.103,20.861L21.164,20.831L21.17,20.829L21.232,20.8L21.237,20.797L21.3,20.769L21.306,20.767L21.37,20.739L21.375,20.736L21.44,20.709L21.446,20.707L21.511,20.681L21.517,20.679L21.583,20.653L21.588,20.651L21.655,20.626L21.661,20.624L21.729,20.6L21.735,20.599L21.803,20.575L21.809,20.574L21.878,20.551L21.884,20.55L21.954,20.528L21.961,20.527L22.031,20.506L22.038,20.505L22.109,20.485L22.115,20.484L22.187,20.465L22.194,20.464L22.266,20.446L22.273,20.445L22.347,20.429L22.354,20.427L22.427,20.412L22.435,20.411L22.509,20.396L22.517,20.395L22.527,20.393L22.592,20.382L22.599,20.381L22.675,20.369L22.683,20.369L22.76,20.358L22.767,20.357L22.845,20.347L22.852,20.347L22.931,20.338L22.938,20.338L23.017,20.331L23.025,20.33L23.105,20.324L23.112,20.324L23.193,20.319L23.201,20.319L23.282,20.316L23.29,20.316L23.371,20.314L23.379,20.314L23.462,20.313L23.47,20.313L23.553,20.314L23.561,20.314L23.645,20.316L23.653,20.317L23.738,20.32L23.746,20.321L23.831,20.325L23.839,20.326L23.926,20.332L23.934,20.333L24.021,20.341L24.029,20.342L24.116,20.351L24.124,20.352L24.213,20.363L24.221,20.364L24.31,20.377L24.318,20.378L24.407,20.392L24.415,20.393L24.506,20.409L24.514,20.411L24.605,20.428L24.613,20.429L24.705,20.448L24.714,20.45L24.844,20.479L24.854,20.482L24.982,20.513L24.993,20.516L25.119,20.55L25.13,20.554L25.255,20.59L25.265,20.593L25.389,20.632L25.399,20.635L25.521,20.676L25.531,20.68L25.651,20.723L25.661,20.727L25.78,20.772L25.79,20.776L25.907,20.823L25.917,20.828L26.032,20.877L26.042,20.881L26.156,20.933L26.165,20.937L26.278,20.99L26.287,20.995L26.398,21.05L26.407,21.055L26.517,21.111L26.526,21.116L26.634,21.174L26.642,21.179L26.749,21.239L26.757,21.245L26.862,21.306L26.871,21.311L26.974,21.374L26.982,21.38L27.084,21.444L27.092,21.449L27.192,21.515L27.2,21.521L27.299,21.588L27.307,21.593L27.404,21.662L27.411,21.667L27.507,21.737L27.514,21.742L27.608,21.813L27.615,21.818L27.708,21.89L27.715,21.896L27.806,21.969L27.813,21.974L27.902,22.048L27.909,22.054L27.997,22.128L28.003,22.134L28.09,22.209L28.096,22.215L28.181,22.291L28.187,22.297L28.27,22.373L28.276,22.379L28.358,22.456L28.364,22.462L28.444,22.54L28.45,22.546L28.529,22.624L28.534,22.63L28.612,22.709L28.617,22.714L28.648,22.746L28.693,22.794L28.698,22.799L28.772,22.879L28.777,22.885L28.849,22.965L28.854,22.97L28.925,23.051L28.93,23.056L28.999,23.136L29.004,23.142L29.072,23.222L29.076,23.228L29.142,23.308L29.147,23.314L29.212,23.394L29.216,23.4L29.279,23.48L29.283,23.485L29.345,23.565L29.349,23.57L29.409,23.65L29.413,23.656L29.472,23.735L29.476,23.74L29.533,23.819L29.537,23.825L29.593,23.903L29.596,23.908L29.65,23.986L29.654,23.992L29.707,24.069L29.71,24.075L29.761,24.151L29.765,24.157L29.814,24.233L29.818,24.238L29.866,24.313L29.869,24.319L29.916,24.393L29.919,24.398L29.964,24.472L29.967,24.477L30.011,24.55L30.014,24.555L30.056,24.627L30.059,24.632L30.099,24.703L30.102,24.708L30.141,24.778L30.146,24.786L30.219,24.921L30.225,24.932L30.292,25.062L30.311,25.104L30.316,25.115L30.335,25.167L30.34,25.18L30.353,25.229L30.363,25.265L30.371,25.303L30.38,25.351L30.384,25.374L30.394,25.433L30.396,25.449L30.406,25.52L30.408,25.531L30.418,25.614L30.419,25.622L30.43,25.715L30.43,25.722L30.441,25.826L30.442,25.832L30.453,25.947L30.453,25.951L30.464,26.077L30.465,26.082L30.488,26.364L30.489,26.369L30.513,26.691L30.513,26.695L30.539,27.055L30.539,27.059L30.565,27.456L30.565,27.458L30.592,27.89L30.592,27.892L30.619,28.358L30.619,28.36L30.647,28.857L30.647,28.859L30.676,29.387L30.678,29.431L30.703,29.946L30.703,29.947L30.73,30.531L30.73,30.532L30.758,31.143L30.758,31.144L30.814,32.436L30.814,32.438L30.827,32.741L30.867,33.815L30.867,33.816L30.918,35.265L30.918,35.266L30.939,35.868L30.965,36.775L30.965,36.776L31.009,38.333L31.009,38.334L31.018,38.69L31.047,39.926L31.047,39.926L31.083,41.541L31.09,41.873L31.115,43.167L31.145,44.79L31.153,45.253L31.171,46.398L31.204,48.666L31.215,49.521L31.243,51.947L31.247,52.436L31.267,54.933L31.268,55.044L31.276,57.245L31.277,57.459L31.272,58.941L31.272,58.941L31.27,59.361L31.024,59.991L30.785,60.415L30.781,60.423L30.458,60.758L30.126,60.431L30.122,60.423L29.872,60.005L29.611,59.381L29.599,58.962L29.599,58.962L29.556,57.481L29.551,57.268L29.551,57.268L29.5,55.067L29.5,55.068L29.498,54.958L29.448,52.461L29.448,52.462L29.438,51.974L29.395,49.547L29.395,49.548L29.379,48.694L29.343,46.426L29.343,46.427L29.323,45.282L29.317,44.819L29.317,44.82L29.292,43.197ZM29.028,25.594L29.027,25.587L29.027,25.587L29.028,25.594Z" style="fill:#fff;"/>
        <path d="M40.177,21.685L40.078,21.699L40.093,21.697L39.993,21.713L40.008,21.711L39.908,21.728L39.923,21.726L39.823,21.745L39.838,21.743L39.824,21.746L39.737,21.762L39.752,21.759L39.65,21.78L39.665,21.777L39.563,21.799L39.578,21.796L39.475,21.82L39.491,21.817L39.387,21.843L39.403,21.84L39.339,21.857L39.299,21.867L39.314,21.863L39.209,21.891L39.224,21.887L39.12,21.917L39.134,21.913L39.029,21.945L39.044,21.941L38.938,21.975L38.953,21.97L38.88,21.995L38.846,22.006L38.861,22.001L38.753,22.036L38.765,22.032L38.658,22.069L38.668,22.065L38.562,22.104L38.572,22.1L38.467,22.139L38.478,22.135L38.393,22.168L38.374,22.175L38.384,22.171L38.28,22.209L38.29,22.205L38.188,22.245L38.198,22.24L38.096,22.281L38.106,22.276L38.006,22.318L38.016,22.313L37.917,22.356L37.926,22.351L37.864,22.379L37.828,22.393L37.838,22.389L37.74,22.43L37.749,22.426L37.652,22.468L37.661,22.464L37.566,22.507L37.575,22.502L37.481,22.546L37.489,22.541L37.396,22.586L37.405,22.581L37.312,22.627L37.321,22.622L37.23,22.668L37.238,22.664L37.148,22.711L37.156,22.706L37.067,22.753L37.075,22.749L36.987,22.797L36.995,22.792L36.909,22.841L36.916,22.836L36.831,22.886L36.838,22.881L36.753,22.931L36.761,22.926L36.746,22.935L36.676,22.976L36.683,22.971L36.6,23.02L36.607,23.015L36.524,23.066L36.531,23.061L36.449,23.112L36.456,23.107L36.375,23.158L36.382,23.153L36.302,23.205L36.308,23.2L36.23,23.253L36.236,23.248L36.159,23.301L36.165,23.296L36.088,23.349L36.094,23.344L36.019,23.398L36.024,23.394L35.95,23.448L35.955,23.443L35.882,23.498L35.887,23.493L35.815,23.548L35.82,23.543L35.749,23.599L35.754,23.594L35.683,23.65L35.688,23.645L35.636,23.687L35.618,23.701L35.623,23.696L35.554,23.751L35.558,23.747L35.49,23.803L35.494,23.798L35.427,23.854L35.431,23.85L35.365,23.906L35.369,23.901L35.304,23.958L35.308,23.954L35.243,24.01L35.247,24.006L35.183,24.063L35.189,24.056L35.065,24.17L35.072,24.162L34.951,24.277L34.958,24.269L34.841,24.383L34.847,24.376L34.734,24.491L34.74,24.484L34.648,24.58L34.63,24.598L34.635,24.591L34.528,24.704L34.533,24.698L34.429,24.811L34.433,24.804L34.333,24.917L34.337,24.911L34.24,25.022L34.244,25.017L34.151,25.127L34.154,25.122L34.064,25.232L34.068,25.227L33.981,25.335L33.984,25.33L33.901,25.438L33.904,25.433L33.824,25.539L33.827,25.535L33.75,25.639L33.753,25.635L33.68,25.737L33.682,25.733L33.612,25.834L33.614,25.83L33.547,25.928L33.549,25.925L33.486,26.021L33.487,26.017L33.427,26.111L33.429,26.108L33.372,26.199L33.373,26.196L33.319,26.284L33.32,26.281L33.282,26.345L33.269,26.366L33.27,26.363L33.221,26.445L33.222,26.442L33.177,26.521L33.178,26.518L33.135,26.593L33.136,26.591L33.096,26.662L33.097,26.659L33.026,26.79L33.028,26.786L32.968,26.901L32.969,26.897L32.922,26.994L32.923,26.991L32.886,27.068L32.887,27.066L32.86,27.123L32.861,27.12L32.855,27.135L32.841,27.167L32.638,27.281L32.53,27.076L32.535,27.041L32.538,27.025L32.538,27.022L32.55,26.96L32.55,26.958L32.567,26.873L32.568,26.87L32.59,26.765L32.592,26.762L32.621,26.636L32.622,26.633L32.658,26.488L32.66,26.485L32.681,26.406L32.681,26.404L32.704,26.321L32.705,26.319L32.73,26.232L32.732,26.229L32.759,26.138L32.76,26.135L32.767,26.112L32.79,26.041L32.791,26.038L32.824,25.94L32.826,25.937L32.861,25.835L32.862,25.832L32.9,25.728L32.901,25.724L32.942,25.616L32.943,25.613L32.986,25.502L32.988,25.498L33.033,25.385L33.036,25.381L33.084,25.264L33.086,25.26L33.137,25.141L33.14,25.137L33.193,25.016L33.196,25.011L33.253,24.887L33.256,24.883L33.316,24.757L33.319,24.752L33.382,24.625L33.385,24.619L33.451,24.49L33.455,24.484L33.524,24.354L33.529,24.348L33.601,24.216L33.606,24.209L33.681,24.076L33.686,24.069L33.766,23.935L33.771,23.928L33.784,23.907L33.855,23.794L33.861,23.787L33.949,23.652L33.955,23.644L34.047,23.509L34.053,23.501L34.149,23.365L34.156,23.358L34.255,23.221L34.26,23.215L34.311,23.147L34.315,23.143L34.367,23.075L34.371,23.071L34.424,23.002L34.428,22.998L34.482,22.93L34.487,22.926L34.542,22.858L34.546,22.853L34.602,22.785L34.606,22.781L34.663,22.713L34.668,22.708L34.683,22.691L34.727,22.641L34.732,22.637L34.791,22.57L34.796,22.565L34.857,22.499L34.863,22.494L34.925,22.428L34.93,22.423L34.993,22.357L34.998,22.352L35.062,22.286L35.068,22.281L35.133,22.215L35.139,22.21L35.205,22.145L35.211,22.14L35.278,22.075L35.284,22.07L35.353,22.005L35.359,22L35.428,21.935L35.435,21.931L35.505,21.866L35.512,21.861L35.584,21.797L35.59,21.792L35.663,21.729L35.67,21.724L35.744,21.661L35.751,21.656L35.813,21.604L35.826,21.593L35.834,21.588L35.911,21.528L35.918,21.523L35.997,21.462L36.005,21.457L36.084,21.398L36.092,21.393L36.173,21.334L36.181,21.329L36.263,21.27L36.271,21.265L36.354,21.207L36.362,21.202L36.447,21.145L36.455,21.14L36.541,21.083L36.549,21.078L36.636,21.022L36.645,21.017L36.733,20.962L36.741,20.957L36.831,20.902L36.84,20.897L36.93,20.843L36.939,20.838L37.031,20.785L37.04,20.78L37.074,20.761L37.134,20.729L37.143,20.724L37.238,20.674L37.248,20.67L37.344,20.621L37.354,20.617L37.452,20.568L37.462,20.564L37.56,20.517L37.57,20.513L37.671,20.466L37.681,20.462L37.7,20.453L37.783,20.418L37.793,20.414L37.897,20.372L37.907,20.368L38.012,20.326L38.022,20.323L38.128,20.282L38.141,20.278L38.247,20.239L38.262,20.234L38.296,20.222L38.369,20.199L38.383,20.194L38.49,20.162L38.505,20.158L38.611,20.128L38.626,20.124L38.731,20.096L38.746,20.092L38.851,20.066L38.866,20.062L38.906,20.053L38.971,20.039L38.986,20.036L39.091,20.016L39.106,20.013L39.21,19.995L39.225,19.992L39.328,19.975L39.343,19.973L39.446,19.958L39.461,19.956L39.55,19.945L39.564,19.944L39.579,19.942L39.68,19.933L39.695,19.931L39.797,19.925L39.812,19.923L39.912,19.918L39.927,19.917L40.027,19.913L40.042,19.912L40.141,19.911L40.155,19.91L40.254,19.91L40.268,19.909L40.366,19.911L40.381,19.91L40.478,19.914L40.492,19.913L40.589,19.918L40.603,19.918L40.699,19.925L40.713,19.925L40.808,19.933L40.821,19.933L40.91,19.942L40.916,19.943L40.929,19.943L41.023,19.956L41.036,19.957L41.13,19.971L41.142,19.972L41.235,19.988L41.247,19.989L41.339,20.006L41.352,20.008L41.443,20.026L41.455,20.028L41.545,20.047L41.557,20.049L41.646,20.07L41.658,20.071L41.747,20.093L41.758,20.095L41.846,20.119L41.857,20.121L41.944,20.145L41.955,20.147L42.042,20.173L42.052,20.175L42.138,20.202L42.148,20.204L42.233,20.232L42.244,20.234L42.255,20.238L42.327,20.264L42.337,20.267L42.42,20.298L42.43,20.3L42.512,20.333L42.521,20.335L42.603,20.368L42.612,20.371L42.693,20.405L42.701,20.408L42.781,20.443L42.79,20.446L42.869,20.481L42.877,20.484L42.955,20.521L42.963,20.524L43.041,20.561L43.048,20.564L43.125,20.602L43.133,20.605L43.208,20.643L43.216,20.646L43.291,20.686L43.298,20.689L43.372,20.729L43.379,20.732L43.452,20.772L43.459,20.775L43.463,20.778L43.531,20.818L43.537,20.821L43.608,20.864L43.614,20.867L43.684,20.911L43.69,20.914L43.76,20.958L43.765,20.961L43.834,21.006L43.839,21.009L43.907,21.054L43.912,21.057L43.979,21.103L43.984,21.106L44.05,21.152L44.055,21.154L44.12,21.201L44.125,21.203L44.189,21.25L44.194,21.253L44.257,21.3L44.264,21.304L44.388,21.399L44.396,21.404L44.517,21.499L44.524,21.504L44.641,21.601L44.648,21.605L44.762,21.702L44.768,21.706L44.878,21.803L44.884,21.807L44.991,21.904L44.996,21.908L45.099,22.004L45.104,22.008L45.203,22.104L45.208,22.107L45.303,22.202L45.308,22.205L45.333,22.231L45.399,22.3L45.403,22.303L45.49,22.397L45.493,22.4L45.577,22.493L45.58,22.496L45.66,22.586L45.663,22.589L45.739,22.677L45.741,22.68L45.813,22.766L45.816,22.768L45.884,22.852L45.887,22.854L45.951,22.934L45.953,22.936L46.014,23.014L46.016,23.016L46.073,23.09L46.075,23.092L46.128,23.163L46.13,23.165L46.18,23.232L46.182,23.234L46.269,23.356L46.271,23.359L46.343,23.463L46.345,23.465L46.401,23.549L46.403,23.552L46.443,23.614L46.445,23.616L46.459,23.639L46.478,23.669L46.454,23.897L46.226,23.873L46.2,23.849L46.181,23.831L46.183,23.833L46.128,23.783L46.13,23.785L46.055,23.718L46.057,23.72L45.961,23.638L45.963,23.64L45.848,23.545L45.85,23.547L45.785,23.495L45.787,23.496L45.717,23.441L45.719,23.443L45.645,23.386L45.647,23.388L45.568,23.328L45.57,23.33L45.487,23.268L45.49,23.27L45.402,23.207L45.405,23.209L45.313,23.145L45.316,23.147L45.22,23.081L45.223,23.083L45.123,23.016L45.126,23.019L45.022,22.951L45.026,22.954L44.918,22.885L44.921,22.888L44.84,22.838L44.81,22.819L44.814,22.822L44.7,22.751L44.704,22.755L44.586,22.684L44.591,22.688L44.469,22.617L44.474,22.621L44.349,22.55L44.355,22.555L44.226,22.485L44.232,22.489L44.1,22.421L44.107,22.425L43.971,22.357L43.978,22.362L43.839,22.296L43.847,22.301L43.705,22.236L43.712,22.24L43.639,22.208L43.644,22.211L43.571,22.18L43.575,22.182L43.501,22.152L43.506,22.154L43.432,22.124L43.437,22.127L43.361,22.097L43.367,22.1L43.29,22.071L43.296,22.074L43.219,22.046L43.225,22.048L43.147,22.021L43.153,22.024L43.075,21.997L43.081,21.999L43.002,21.973L43.008,21.976L42.933,21.952L42.929,21.95L42.935,21.953L42.855,21.927L42.862,21.93L42.782,21.904L42.789,21.907L42.708,21.882L42.715,21.885L42.633,21.861L42.64,21.864L42.558,21.841L42.566,21.844L42.483,21.822L42.491,21.825L42.407,21.804L42.415,21.807L42.331,21.786L42.339,21.789L42.254,21.77L42.263,21.773L42.177,21.754L42.186,21.757L42.1,21.74L42.109,21.743L42.022,21.726L42.032,21.729L41.944,21.714L41.954,21.717L41.878,21.704L41.866,21.702L41.876,21.705L41.788,21.69L41.798,21.693L41.709,21.68L41.72,21.682L41.631,21.67L41.641,21.672L41.552,21.661L41.563,21.663L41.472,21.654L41.483,21.656L41.392,21.647L41.404,21.649L41.312,21.642L41.324,21.644L41.232,21.638L41.244,21.64L41.151,21.635L41.164,21.637L41.07,21.634L41.083,21.635L40.989,21.634L41.002,21.635L40.908,21.635L40.921,21.636L40.826,21.637L40.84,21.638L40.833,21.638L40.744,21.639L40.758,21.639L40.662,21.641L40.676,21.642L40.58,21.645L40.594,21.645L40.497,21.651L40.511,21.65L40.414,21.657L40.428,21.657L40.33,21.666L40.345,21.665L40.247,21.675L40.261,21.674L40.163,21.686L40.177,21.685Z" style="fill:#2b307f;fill-opacity:0.12;"/>
        <path d="M21.72,6.879L21.797,6.918L21.792,6.914L21.801,6.918L21.872,6.954L21.867,6.95L21.95,6.989L21.945,6.985L22.032,7.023L22.026,7.019L22.116,7.055L22.111,7.052L22.204,7.087L22.198,7.084L22.294,7.118L22.289,7.115L22.388,7.147L22.382,7.145L22.483,7.178L22.478,7.176L22.581,7.209L22.576,7.206L22.682,7.238L22.677,7.235L22.78,7.264L22.785,7.266L22.78,7.264L22.891,7.295L22.885,7.293L22.998,7.324L22.993,7.322L23.109,7.352L23.103,7.35L23.208,7.376L23.221,7.379L23.216,7.377L23.335,7.409L23.33,7.407L23.451,7.437L23.446,7.436L23.569,7.465L23.564,7.463L23.652,7.483L23.689,7.493L23.684,7.492L23.81,7.525L23.805,7.523L23.933,7.555L23.929,7.554L24.059,7.585L24.054,7.583L24.088,7.591L24.185,7.617L24.18,7.616L24.312,7.651L24.308,7.65L24.442,7.683L24.438,7.682L24.573,7.715L24.569,7.714L24.648,7.732L24.706,7.747L24.702,7.746L24.84,7.779L24.836,7.779L24.975,7.811L24.971,7.81L25.112,7.842L25.109,7.841L25.251,7.872L25.247,7.871L25.31,7.884L25.39,7.902L25.387,7.901L25.531,7.932L25.528,7.931L25.673,7.961L25.669,7.961L25.816,7.99L25.813,7.989L25.96,8.017L25.957,8.016L26.105,8.043L26.102,8.043L26.25,8.068L26.247,8.068L26.397,8.092L26.394,8.092L26.544,8.115L26.541,8.115L26.692,8.137L26.689,8.137L26.827,8.156L26.841,8.158L26.838,8.158L26.989,8.179L26.987,8.179L27.139,8.199L27.136,8.199L27.288,8.218L27.286,8.218L27.438,8.236L27.435,8.236L27.588,8.253L27.586,8.253L27.738,8.268L27.736,8.268L27.888,8.282L27.886,8.282L28.038,8.295L28.036,8.295L28.188,8.307L28.186,8.306L28.338,8.317L28.336,8.317L28.37,8.319L28.488,8.326L28.485,8.326L28.637,8.335L28.635,8.335L28.785,8.341L28.783,8.342L28.934,8.347L28.932,8.347L29.081,8.351L29.079,8.351L29.228,8.354L29.227,8.354L29.375,8.355L29.373,8.355L29.52,8.355L29.519,8.355L29.628,8.354L29.665,8.353L29.84,8.502L29.691,8.676L29.655,8.682L29.547,8.698L29.545,8.698L29.399,8.719L29.397,8.719L29.25,8.738L29.248,8.738L29.1,8.756L29.098,8.756L28.949,8.772L28.947,8.773L28.798,8.788L28.796,8.788L28.645,8.801L28.643,8.802L28.492,8.814L28.49,8.814L28.373,8.823L28.338,8.825L28.336,8.825L28.184,8.834L28.182,8.834L28.029,8.842L28.027,8.842L27.874,8.848L27.872,8.848L27.718,8.853L27.716,8.853L27.563,8.857L27.56,8.857L27.407,8.859L27.404,8.859L27.251,8.86L27.248,8.86L27.095,8.86L27.092,8.86L26.939,8.859L26.936,8.859L26.783,8.856L26.78,8.856L26.766,8.856L26.627,8.851L26.625,8.851L26.472,8.844L26.469,8.844L26.317,8.836L26.314,8.836L26.163,8.827L26.16,8.826L26.009,8.816L26.006,8.816L25.856,8.804L25.853,8.804L25.704,8.791L25.7,8.791L25.552,8.777L25.549,8.777L25.401,8.762L25.398,8.761L25.251,8.745L25.247,8.745L25.166,8.735L25.102,8.727L25.098,8.726L24.955,8.705L24.951,8.705L24.808,8.683L24.804,8.682L24.663,8.66L24.659,8.659L24.519,8.635L24.515,8.634L24.456,8.624L24.377,8.608L24.372,8.607L24.236,8.578L24.232,8.578L24.097,8.548L24.093,8.547L23.959,8.516L23.955,8.515L23.858,8.492L23.824,8.482L23.819,8.481L23.691,8.443L23.687,8.442L23.561,8.403L23.556,8.402L23.432,8.362L23.427,8.36L23.39,8.348L23.307,8.316L23.302,8.315L23.184,8.268L23.179,8.266L23.063,8.219L23.058,8.217L22.945,8.169L22.94,8.167L22.927,8.162L22.83,8.115L22.825,8.113L22.718,8.06L22.713,8.058L22.609,8.005L22.603,8.003L22.502,7.949L22.497,7.946L22.491,7.943L22.399,7.889L22.394,7.887L22.299,7.829L22.294,7.827L22.202,7.769L22.197,7.766L22.109,7.709L22.108,7.708L22.103,7.705L22.019,7.644L22.013,7.641L21.932,7.58L21.927,7.577L21.849,7.515L21.844,7.512L21.769,7.45L21.764,7.447L21.693,7.385L21.688,7.381L21.621,7.319L21.616,7.316L21.558,7.26L21.552,7.253L21.547,7.249L21.488,7.185L21.483,7.181L21.428,7.118L21.423,7.113L21.372,7.049L21.345,6.811L21.584,6.805L21.655,6.846L21.65,6.842L21.724,6.883L21.72,6.879Z" style="fill:#fff;fill-opacity:0.8;"/>
    </g>
    <path d="M10.552,23.234L15.404,23.234L15.404,49.956L20.256,49.956L12.978,57.234L5.7,49.956L10.552,49.956L10.552,23.234Z" style="fill:#f3775b;"/>
</svg>
