<?xml version="1.0" encoding="UTF-8" standalone="no"?>
<!DOCTYPE svg PUBLIC "-//W3C//DTD SVG 1.1//EN" "http://www.w3.org/Graphics/SVG/1.1/DTD/svg11.dtd">
<svg width="100%" height="100%" viewBox="0 0 65 64" version="1.1" xmlns="http://www.w3.org/2000/svg" xmlns:xlink="http://www.w3.org/1999/xlink" xml:space="preserve" xmlns:serif="http://www.serif.com/" style="fill-rule:evenodd;clip-rule:evenodd;stroke-linejoin:round;stroke-miterlimit:2;">
    <rect id="REPLACE-Oils" x="0.012" y="0" width="64" height="64" style="fill:none;"/>
    <path d="M32.504,9.091C32.504,9.091 17.713,30.848 17.713,40.173C17.713,48.336 24.341,54.964 32.504,54.964C40.668,54.964 47.296,48.336 47.296,40.173C47.296,30.848 32.504,9.091 32.504,9.091Z" style="fill:#389d15;"/>
    <clipPath id="_clip1">
        <path d="M32.504,9.091C32.504,9.091 17.713,30.848 17.713,40.173C17.713,48.336 24.341,54.964 32.504,54.964C40.668,54.964 47.296,48.336 47.296,40.173C47.296,30.848 32.504,9.091 32.504,9.091Z"/>
    </clipPath>
    <g clip-path="url(#_clip1)">
        <path d="M33.745,5.453C33.745,5.453 20.402,25.081 20.402,33.493C20.402,40.857 26.381,46.836 33.745,46.836C41.11,46.836 47.089,40.857 47.089,33.493C47.089,25.081 33.745,5.453 33.745,5.453Z" style="fill:#4ebe22;"/>
        <path d="M33.366,16.687L33.396,16.729L33.799,17.308L33.798,17.308L34.333,18.076L34.334,18.076L34.53,18.358L34.948,18.979L34.949,18.98L35.282,19.476L35.283,19.477L35.633,19.999L35.633,20L35.991,20.535L35.998,20.546L35.999,20.548L36.366,21.121L36.367,21.123L36.745,21.716L36.747,21.718L36.76,21.739L37.124,22.334L37.125,22.336L37.51,22.967L37.887,23.622L37.888,23.625L38.225,24.212L38.266,24.289L38.268,24.293L38.556,24.823L38.633,24.973L38.635,24.977L38.865,25.423L38.986,25.671L38.988,25.676L39.173,26.058L39.321,26.383L39.323,26.386L39.485,26.742L39.486,26.745L39.496,26.767L39.64,27.104L39.641,27.107L39.794,27.467L39.795,27.469L39.947,27.829L39.948,27.831L40.098,28.19L40.1,28.192L40.163,28.346L40.245,28.552L40.246,28.555L40.387,28.914L40.388,28.917L40.527,29.274L40.528,29.277L40.666,29.632L40.667,29.635L40.802,29.988L40.804,29.992L40.821,30.038L40.933,30.344L40.934,30.347L41.06,30.696L41.062,30.7L41.186,31.046L41.187,31.049L41.308,31.391L41.31,31.395L41.422,31.715L41.428,31.734L41.43,31.737L41.541,32.073L41.543,32.077L41.651,32.408L41.653,32.412L41.758,32.739L41.76,32.743L41.862,33.064L41.864,33.068L41.962,33.384L41.964,33.388L42.058,33.698L42.06,33.702L42.151,34.006L42.153,34.011L42.24,34.308L42.242,34.313L42.303,34.53L42.324,34.604L42.326,34.609L42.401,34.893L42.403,34.899L42.475,35.176L42.477,35.181L42.544,35.45L42.546,35.456L42.595,35.665L42.608,35.718L42.246,36.488L41.479,36.119L41.455,36.07L41.362,35.877L41.364,35.883L41.241,35.635L41.243,35.64L41.114,35.385L41.116,35.39L40.98,35.128L40.982,35.133L40.947,35.066L40.844,34.865L40.846,34.87L40.702,34.595L40.704,34.6L40.555,34.32L40.557,34.324L40.403,34.039L40.405,34.043L40.247,33.753L40.249,33.757L40.086,33.462L40.087,33.466L39.92,33.166L39.922,33.17L39.751,32.867L39.752,32.87L39.577,32.563L39.579,32.567L39.569,32.549L39.403,32.254L39.405,32.257L39.226,31.941L39.228,31.944L39.046,31.625L39.048,31.628L38.863,31.306L38.865,31.309L38.702,31.027L38.678,30.984L38.679,30.987L38.493,30.658L38.495,30.661L38.306,30.33L38.308,30.333L38.117,30L38.119,30.003L37.926,29.669L37.928,29.671L37.817,29.479L37.736,29.334L37.738,29.337L37.549,28.997L37.55,29L37.359,28.66L37.361,28.662L37.169,28.322L37.17,28.324L36.99,28.005L36.978,27.983L36.979,27.985L36.794,27.641L36.795,27.644L36.625,27.33L36.43,26.953L36.432,26.958L36.305,26.713L36.083,26.262L36.085,26.266L36.01,26.115L35.752,25.57L35.753,25.573L35.716,25.494L35.437,24.878L35.439,24.881L35.13,24.202L35.127,24.196L35.129,24.198L34.836,23.52L34.837,23.522L34.559,22.882L34.55,22.859L34.551,22.861L34.281,22.212L34.282,22.214L34.019,21.586L34.02,21.587L34.015,21.574L33.777,20.977L33.777,20.978L33.544,20.395L33.544,20.396L33.322,19.841L33.322,19.842L33.042,19.148L32.919,18.828L32.919,18.828L32.581,17.955L32.581,17.955L32.327,17.296L32.308,17.249L32.557,16.439L33.366,16.687Z" style="fill:#fff;"/>
    </g>
    <path d="M52.542,8.31L7.535,53.317L11.152,56.934L56.16,11.927L52.542,8.31Z" style="fill:#2b307e;"/>
</svg>
