<?xml version="1.0" encoding="UTF-8" standalone="no"?>
<!DOCTYPE svg PUBLIC "-//W3C//DTD SVG 1.1//EN" "http://www.w3.org/Graphics/SVG/1.1/DTD/svg11.dtd">
<svg width="100%" height="100%" viewBox="0 0 65 64" version="1.1" xmlns="http://www.w3.org/2000/svg" xmlns:xlink="http://www.w3.org/1999/xlink" xml:space="preserve" xmlns:serif="http://www.serif.com/" style="fill-rule:evenodd;clip-rule:evenodd;stroke-linecap:round;stroke-miterlimit:1;">
    <rect id="REPLACE-Roadmap" x="0.015" y="0" width="64" height="64" style="fill:none;"/>
    <path d="M6.31,58L12.015,19.313L50.015,18L56.015,60L41.719,58L22.015,60L6.31,58Z" style="fill:#c7ccd1;fill-opacity:0.24;"/>
    <path d="M9.298,6.114L3.307,52.82L21.851,59.886L23.946,10.463L9.298,6.114Z" style="fill:#3da518;fill-rule:nonzero;"/>
    <path d="M38.965,6.114L23.947,10.463L21.85,59.886L40.994,52.82L38.965,6.114Z" style="fill:#4ebe22;fill-rule:nonzero;"/>
    <path d="M38.786,6.114L40.768,52.82L60.336,58.472L57.093,33.186L54.067,9.597L38.786,6.114Z" style="fill:#3da518;fill-rule:nonzero;"/>
    <path d="M43.386,18.629L38.786,19.569C38.379,23.881 33.034,23.835 31.162,27.586C29.659,30.596 31.961,37.53 29.046,40L22.717,39.447L16.461,37.744L15.033,42.19" style="fill:none;stroke:#fff;stroke-width:1.5px;stroke-dasharray:3,3,0,0;"/>
    <path d="M12.015,10L9.536,31.404C9.536,31.404 16.894,33.477 19.567,27.869C22.24,22.261 22.909,17.948 26.868,17.134C34.672,15.528 34.528,10.272 34.528,10.272L23.971,13.381L12.015,10Z" style="fill:#b1c1ec;"/>
    <clipPath id="_clip1">
        <path d="M12.015,10L9.536,31.404C9.536,31.404 16.894,33.477 19.567,27.869C22.24,22.261 22.909,17.948 26.868,17.134C34.672,15.528 34.528,10.272 34.528,10.272L23.971,13.381L12.015,10Z"/>
    </clipPath>
    <g clip-path="url(#_clip1)">
        <path d="M24.346,6.051L22.98,29.888L37.497,20.728L37.079,3.412L24.346,6.051Z" style="fill:#d7def2;"/>
    </g>
    <path d="M57.959,54.927L40.606,50.282L26.282,55.614C26.282,55.614 27.612,43.607 34.892,44.668C39.255,45.304 40.472,44.095 40.472,44.095C40.472,44.095 44.524,46.625 45.943,46.083C51.841,43.829 56.247,47.497 57.959,54.927Z" style="fill:#b1c1ec;"/>
    <clipPath id="_clip2">
        <path d="M57.959,54.927L40.606,50.282L26.282,55.614C26.282,55.614 27.612,43.607 34.892,44.668C39.255,45.304 40.472,44.095 40.472,44.095C40.472,44.095 44.524,46.625 45.943,46.083C51.841,43.829 56.247,47.497 57.959,54.927Z"/>
    </clipPath>
    <g clip-path="url(#_clip2)">
        <path d="M40.169,37.291L40.942,54.51L23.501,62.806L23.592,43.768L40.169,37.291Z" style="fill:#d7def2;"/>
    </g>
    <path d="M46.949,12.765C48.407,12.343 49.964,13.291 50.425,14.881C50.886,16.472 50.076,18.106 48.618,18.528C47.161,18.95 45.603,18.002 45.142,16.412C44.682,14.821 45.491,13.187 46.949,12.765Z" style="fill:none;stroke:#fff;stroke-width:1.43px;"/>
    <path d="M10.89,41.555C12.243,41.286 13.604,42.387 13.926,44.011C14.248,45.635 13.411,47.172 12.057,47.44C10.704,47.709 9.343,46.608 9.021,44.984C8.699,43.36 9.537,41.823 10.89,41.555Z" style="fill:none;stroke:#fff;stroke-width:1.36px;"/>
</svg>
