<?xml version="1.0" encoding="UTF-8" standalone="no"?>
<!DOCTYPE svg PUBLIC "-//W3C//DTD SVG 1.1//EN" "http://www.w3.org/Graphics/SVG/1.1/DTD/svg11.dtd">
<svg width="100%" height="100%" viewBox="0 0 65 64" version="1.1" xmlns="http://www.w3.org/2000/svg" xmlns:xlink="http://www.w3.org/1999/xlink" xml:space="preserve" xmlns:serif="http://www.serif.com/" style="fill-rule:evenodd;clip-rule:evenodd;stroke-linecap:round;stroke-miterlimit:1;">
    <rect id="REPLACE-Ambulance" x="0.012" y="0" width="64" height="64" style="fill:none;"/>
    <path d="M57.433,53.97L8.925,53.97L3.93,55.948L61.881,55.948L57.433,53.97Z" style="fill:#cecfeb;"/>
    <g>
        <path d="M39.967,14.411C39.967,13.791 39.721,13.197 39.283,12.759C38.845,12.321 38.251,12.075 37.631,12.075C37.631,12.075 37.63,12.075 37.63,12.075C37.01,12.075 36.416,12.321 35.978,12.759C35.54,13.197 35.294,13.791 35.294,14.411C35.294,15.954 35.294,17.694 35.294,17.694L39.967,17.694L39.967,14.411Z" style="fill:#3bbc53;"/>
        <rect x="33.535" y="17.156" width="8.192" height="1.601" style="fill:#2b307e;"/>
        <path d="M37.617,10.072L37.617,7.812" style="fill:none;stroke:#dfdff2;stroke-width:1px;"/>
        <path d="M44.691,17.023L46.951,17.023" style="fill:none;stroke:#dfdff2;stroke-width:1px;"/>
        <path d="M46.199,12.895L44.075,13.668" style="fill:none;stroke:#dfdff2;stroke-width:1px;"/>
        <path d="M28.633,12.895L30.756,13.668" style="fill:none;stroke:#dfdff2;stroke-width:1px;"/>
        <path d="M42.769,9.481L41.316,11.212" style="fill:none;stroke:#dfdff2;stroke-width:1px;"/>
        <path d="M32.063,9.481L33.515,11.212" style="fill:none;stroke:#dfdff2;stroke-width:1px;"/>
        <path d="M27.998,17.023L30.258,17.023" style="fill:none;stroke:#dfdff2;stroke-width:1px;"/>
        <ellipse cx="36.813" cy="14.47" rx="0.818" ry="1.074" style="fill:#fff;"/>
    </g>
    <path d="M58.502,49.966C59.36,49.966 60.176,49.599 60.745,48.958C61.315,48.317 61.582,47.463 61.481,46.611C61.099,43.409 60.546,38.765 60.291,36.628C60.203,35.885 59.84,35.202 59.273,34.713C58.774,34.281 58.165,33.756 57.741,33.39C57.399,33.094 57.128,32.725 56.949,32.31C56.064,30.264 53.255,23.763 51.873,20.567C51.398,19.468 50.316,18.757 49.119,18.757C41.751,18.757 15.802,18.757 6.93,18.757C6.135,18.757 5.372,19.073 4.809,19.636C4.247,20.198 3.93,20.961 3.93,21.757C3.93,27.721 3.93,41.003 3.93,46.966C3.93,47.762 4.247,48.525 4.809,49.088C5.372,49.65 6.135,49.966 6.93,49.966C16.784,49.966 48.119,49.966 58.502,49.966Z" style="fill:#3bbc53;"/>
    <clipPath id="_clip1">
        <path d="M58.502,49.966C59.36,49.966 60.176,49.599 60.745,48.958C61.315,48.317 61.582,47.463 61.481,46.611C61.099,43.409 60.546,38.765 60.291,36.628C60.203,35.885 59.84,35.202 59.273,34.713C58.774,34.281 58.165,33.756 57.741,33.39C57.399,33.094 57.128,32.725 56.949,32.31C56.064,30.264 53.255,23.763 51.873,20.567C51.398,19.468 50.316,18.757 49.119,18.757C41.751,18.757 15.802,18.757 6.93,18.757C6.135,18.757 5.372,19.073 4.809,19.636C4.247,20.198 3.93,20.961 3.93,21.757C3.93,27.721 3.93,41.003 3.93,46.966C3.93,47.762 4.247,48.525 4.809,49.088C5.372,49.65 6.135,49.966 6.93,49.966C16.784,49.966 48.119,49.966 58.502,49.966Z"/>
    </clipPath>
    <g clip-path="url(#_clip1)">
        <path d="M61.881,20.4L0.65,49.966L0.65,56.537L61.881,56.537L61.881,20.4Z" style="fill:#2b307e;fill-opacity:0.1;"/>
    </g>
    <circle cx="16.9" cy="49.966" r="5.982" style="fill:#2b307e;"/>
    <circle cx="49.829" cy="49.966" r="5.982" style="fill:#2b307e;"/>
    <circle cx="16.9" cy="49.966" r="2.879" style="fill:#aaacdd;"/>
    <circle cx="49.829" cy="49.966" r="2.879" style="fill:#aaacdd;"/>
    <path d="M49.125,25.424C48.555,23.831 47.044,22.77 45.352,22.773C44.275,22.775 43.114,22.777 42.316,22.779C41.765,22.78 41.318,23.227 41.318,23.779C41.318,25.648 41.318,29.656 41.318,31.533C41.318,31.799 41.425,32.055 41.614,32.243C41.803,32.431 42.06,32.535 42.327,32.533C44.178,32.517 48.122,32.483 50.236,32.465C50.559,32.462 50.862,32.303 51.047,32.037C51.232,31.772 51.278,31.433 51.168,31.128C50.645,29.666 49.789,27.275 49.125,25.424Z" style="fill:#ededf8;"/>
    <clipPath id="_clip2">
        <path d="M49.125,25.424C48.555,23.831 47.044,22.77 45.352,22.773C44.275,22.775 43.114,22.777 42.316,22.779C41.765,22.78 41.318,23.227 41.318,23.779C41.318,25.648 41.318,29.656 41.318,31.533C41.318,31.799 41.425,32.055 41.614,32.243C41.803,32.431 42.06,32.535 42.327,32.533C44.178,32.517 48.122,32.483 50.236,32.465C50.559,32.462 50.862,32.303 51.047,32.037C51.232,31.772 51.278,31.433 51.168,31.128C50.645,29.666 49.789,27.275 49.125,25.424Z"/>
    </clipPath>
    <g clip-path="url(#_clip2)">
        <path d="M37.486,32.541L51.643,25.457L49.178,21.258L37.393,21.15L37.486,32.541Z" style="fill:#fff;"/>
    </g>
    <circle cx="24.83" cy="32.387" r="9.624" style="fill:#fff;"/>
    <clipPath id="_clip3">
        <circle cx="24.83" cy="32.387" r="9.624"/>
    </clipPath>
    <g clip-path="url(#_clip3)">
        <rect x="22.77" y="25.595" width="4.121" height="13.583" style="fill:#3bbc53;"/>
        <path d="M31.622,34.447L31.622,30.326L18.039,30.326L18.039,34.447L31.622,34.447Z" style="fill:#3bbc53;"/>
        <path d="M52.147,24.471L4.222,49.217L4.222,54.716L52.147,54.716L52.147,24.471Z" style="fill:#2b307e;fill-opacity:0.1;"/>
    </g>
</svg>
