<?xml version="1.0" encoding="UTF-8" standalone="no"?>
<!DOCTYPE svg PUBLIC "-//W3C//DTD SVG 1.1//EN" "http://www.w3.org/Graphics/SVG/1.1/DTD/svg11.dtd">
<svg width="100%" height="100%" viewBox="0 0 65 64" version="1.1" xmlns="http://www.w3.org/2000/svg" xmlns:xlink="http://www.w3.org/1999/xlink" xml:space="preserve" xmlns:serif="http://www.serif.com/" style="fill-rule:evenodd;clip-rule:evenodd;stroke-linejoin:round;stroke-miterlimit:2;">
    <rect id="REPLACE-Transfats-2" x="0.391" y="0" width="64" height="64" style="fill:none;"/>
    <path d="M27.199,48.587C42.962,48.587 60.953,50.545 60.953,52.956C60.953,55.368 42.962,57.326 27.199,57.326C11.435,57.326 3.83,55.368 3.83,52.956C3.83,50.545 11.435,48.587 27.199,48.587Z" style="fill:#b5b8e2;fill-opacity:0.18;"/>
    <g>
        <path d="M54.687,7.131L24.773,7.131C27.01,22.437 27.014,37.553 24.773,52.477L54.687,52.477C52.352,37.694 52.269,22.579 54.687,7.131Z" style="fill:#4ebe22;"/>
        <clipPath id="_clip1">
            <path d="M54.687,7.131L24.773,7.131C27.01,22.437 27.014,37.553 24.773,52.477L54.687,52.477C52.352,37.694 52.269,22.579 54.687,7.131Z"/>
        </clipPath>
        <g clip-path="url(#_clip1)">
            <rect x="20.572" y="3.266" width="40.806" height="5.774" style="fill:#3da518;fill-opacity:0.76;"/>
            <rect x="20.572" y="51.195" width="40.806" height="5.774" style="fill:#92d379;fill-opacity:0.76;"/>
            <path id="_-Curve-" serif:id="(Curve)" d="M26.01,51.484C26.01,51.484 30.694,46.586 39.73,46.586C48.766,46.586 53.829,50.951 53.829,50.951C53.829,50.951 45.793,49.28 39.73,49.28C33.668,49.28 29.037,50.395 26.01,51.484Z" style="fill:#389d15;"/>
            <circle cx="39.919" cy="23.089" r="8.157" style="fill:#cecfeb;"/>
            <path d="M26.01,9.719C26.01,9.719 30.831,16.254 39.867,16.254C48.902,16.254 53.829,9.343 53.829,9.343C53.829,9.343 45.793,12.908 39.73,12.908C33.668,12.908 29.037,11.202 26.01,9.719Z" style="fill:#fff;fill-opacity:0.39;"/>
            <path d="M28.262,15.876C28.262,15.876 26.853,27.191 39.919,29.252C39.919,29.252 31,24.171 28.262,15.876Z" style="fill:#fff;fill-opacity:0.39;"/>
            <path d="M52.199,31.439C52.199,31.439 53.609,42.754 40.542,44.816C40.542,44.816 49.461,39.734 52.199,31.439Z" style="fill:#45b11d;"/>
            <path d="M11.761,27.352C11.761,26.08 16.759,25.048 22.915,25.048C29.071,25.048 34.068,26.08 34.068,27.352L34.068,55.808C34.068,57.574 29.071,59.008 22.915,59.008C16.759,59.008 11.761,57.574 11.761,55.808L11.761,27.352Z" style="fill:#c84f4d;fill-opacity:0.35;"/>
        </g>
    </g>
    <g>
        <path d="M30.577,52.535C30.577,54.48 25.075,56.058 18.297,56.058C11.52,56.058 6.017,54.48 6.017,52.535L6.017,21.206L30.577,21.206L30.577,52.535Z" style="fill:#cecfeb;"/>
        <clipPath id="_clip2">
            <path d="M30.577,52.535C30.577,54.48 25.075,56.058 18.297,56.058C11.52,56.058 6.017,54.48 6.017,52.535L6.017,21.206L30.577,21.206L30.577,52.535Z"/>
        </clipPath>
        <g clip-path="url(#_clip2)">
            <rect x="6.017" y="21.206" width="8.803" height="43.253" style="fill:#e1e2f3;"/>
            <path d="M30.577,30.258L30.577,42.498C30.577,44.442 25.075,46.021 18.297,46.021C11.52,46.021 6.017,44.442 6.017,42.498L6.017,30.258C6.017,32.202 11.52,33.781 18.297,33.781C25.075,33.781 30.577,32.202 30.577,30.258Z" style="fill:#9096d5;"/>
            <rect x="9.328" y="21.206" width="2.181" height="43.253" style="fill:#fff;fill-opacity:0.49;"/>
        </g>
        <ellipse cx="18.297" cy="21.206" rx="12.28" ry="2.537" style="fill:#aaacdd;"/>
        <clipPath id="_clip3">
            <ellipse cx="18.297" cy="21.206" rx="12.28" ry="2.537"/>
        </clipPath>
        <g clip-path="url(#_clip3)">
            <ellipse cx="18.297" cy="22.259" rx="12.28" ry="2.537" style="fill:#e1e2f3;"/>
        </g>
    </g>
</svg>
