<?xml version="1.0" encoding="UTF-8" standalone="no"?>
<!DOCTYPE svg PUBLIC "-//W3C//DTD SVG 1.1//EN" "http://www.w3.org/Graphics/SVG/1.1/DTD/svg11.dtd">
<svg width="100%" height="100%" viewBox="0 0 65 64" version="1.1" xmlns="http://www.w3.org/2000/svg" xmlns:xlink="http://www.w3.org/1999/xlink" xml:space="preserve" xmlns:serif="http://www.serif.com/" style="fill-rule:evenodd;clip-rule:evenodd;stroke-linejoin:round;stroke-miterlimit:1;">
    <rect id="REPLACE-Spreadsheet" x="0.012" y="0" width="64" height="64" style="fill:none;"/>
    <path d="M37.456,3.828L52.012,18.383L52.012,58.172C52.012,59.277 51.116,60.172 50.012,60.172C43.184,60.172 20.84,60.172 14.012,60.172C12.907,60.172 12.012,59.277 12.012,58.172C12.012,49.424 12.012,14.576 12.012,5.828C12.012,4.723 12.907,3.828 14.012,3.828L37.456,3.828Z" style="fill:#4ebe22;"/>
    <clipPath id="_clip1">
        <path d="M37.456,3.828L52.012,18.383L52.012,58.172C52.012,59.277 51.116,60.172 50.012,60.172C43.184,60.172 20.84,60.172 14.012,60.172C12.907,60.172 12.012,59.277 12.012,58.172C12.012,49.424 12.012,14.576 12.012,5.828C12.012,4.723 12.907,3.828 14.012,3.828L37.456,3.828Z"/>
    </clipPath>
    <g clip-path="url(#_clip1)">
        <path d="M56.779,17.858L39.302,20.682C37.823,20.682 36.624,19.483 36.624,18.004L36.624,1.193L56.779,17.858Z" style="fill:#389d15;"/>
    </g>
    <path d="M52.012,18.383L39.456,18.383C38.352,18.383 37.456,17.488 37.456,16.383L37.456,3.828L52.012,18.383Z" style="fill:#6fe142;"/>
    <rect x="15.262" y="22.005" width="33.5" height="32.095" style="fill:none;stroke:#fff;stroke-width:1px;"/>
    <rect x="15.262" y="22.005" width="33.5" height="32.095" style="fill:none;stroke:#fff;stroke-width:1px;"/>
    <rect x="22.014" y="22.005" width="26.748" height="32.095" style="fill:none;stroke:#fff;stroke-width:1px;"/>
    <rect x="30.71" y="22.005" width="18.052" height="32.095" style="fill:none;stroke:#fff;stroke-width:1px;"/>
    <path d="M15.262,26.469L48.762,26.469" style="fill:none;stroke:#fff;stroke-width:1px;"/>
    <path d="M15.262,26.469L48.762,26.469" style="fill:none;stroke:#fff;stroke-width:1px;"/>
    <path d="M15.262,32.082L48.762,32.082" style="fill:none;stroke:#fff;stroke-width:1px;"/>
    <path d="M15.262,37.695L48.762,37.695" style="fill:none;stroke:#fff;stroke-width:1px;"/>
    <path d="M15.262,43.308L48.762,43.308" style="fill:none;stroke:#fff;stroke-width:1px;"/>
    <path d="M15.262,48.921L48.762,48.921" style="fill:none;stroke:#fff;stroke-width:1px;"/>
    <path d="M15.253,16.102L22.454,16.102" style="fill:none;stroke:#fff;stroke-width:1px;"/>
    <path d="M15.253,11.643L27.684,11.643" style="fill:none;stroke:#fff;stroke-width:1px;"/>
</svg>
