<?xml version="1.0" encoding="UTF-8" standalone="no"?>
<!DOCTYPE svg PUBLIC "-//W3C//DTD SVG 1.1//EN" "http://www.w3.org/Graphics/SVG/1.1/DTD/svg11.dtd">
<svg width="100%" height="100%" viewBox="0 0 65 64" version="1.1" xmlns="http://www.w3.org/2000/svg" xmlns:xlink="http://www.w3.org/1999/xlink" xml:space="preserve" xmlns:serif="http://www.serif.com/" style="fill-rule:evenodd;clip-rule:evenodd;stroke-linejoin:round;stroke-miterlimit:2;">
    <rect id="REPLACE-Laboratory" x="0.012" y="0" width="64" height="64" style="fill:none;"/>
    <path d="M51.512,59.7L48.445,57L18.512,57L11.512,59.82L11.512,61.5L51.512,61.5L51.512,59.7Z" style="fill:#3bbc53;"/>
    <path d="M31.012,22C31.012,22 36.217,25.47 40.78,28.512C44.986,31.316 47.512,36.036 47.512,41.09C47.512,41.939 47.512,42.5 47.512,42.5L40.012,42.5L40.012,40.646C40.012,37.042 38.527,33.598 35.907,31.123C33.534,28.882 31.012,26.5 31.012,26.5L31.012,22Z" style="fill:#3bbc53;"/>
    <clipPath id="_clip1">
        <path d="M31.012,22C31.012,22 36.217,25.47 40.78,28.512C44.986,31.316 47.512,36.036 47.512,41.09C47.512,41.939 47.512,42.5 47.512,42.5L40.012,42.5L40.012,40.646C40.012,37.042 38.527,33.598 35.907,31.123C33.534,28.882 31.012,26.5 31.012,26.5L31.012,22Z"/>
    </clipPath>
    <g clip-path="url(#_clip1)">
        <rect x="30.012" y="19" width="6.5" height="18" style="fill:#2b307e;fill-opacity:0.25;"/>
    </g>
    <path d="M47.512,41L38.176,41C36.153,41 34.512,42.641 34.512,44.664C34.512,50.437 34.512,61 34.512,61L47.512,61L47.512,41Z" style="fill:#3bbc53;"/>
    <rect x="10.512" y="43" width="24" height="2" style="fill:#2b307e;"/>
    <path d="M41.644,0.404L23.416,18.632L27.284,22.5L45.512,4.272L41.644,0.404Z" style="fill:#3bbc53;"/>
    <clipPath id="_clip2">
        <path d="M41.644,0.404L23.416,18.632L27.284,22.5L45.512,4.272L41.644,0.404Z"/>
    </clipPath>
    <g clip-path="url(#_clip2)">
        <path d="M42.744,-2.732L36.308,3.704L43.47,10.866L49.906,4.43L42.744,-2.732Z" style="fill:#2b307e;"/>
        <path d="M47.012,-0.711L26.913,19.387L34.075,26.549L54.174,6.451L47.012,-0.711Z" style="fill:#2b307e;fill-opacity:0.25;"/>
    </g>
    <g>
        <path d="M31.012,21C31.012,17.41 28.102,14.5 24.512,14.5C24.512,14.5 24.512,14.5 24.512,14.5C20.922,14.5 18.012,17.41 18.012,21C18.012,23.824 18.012,26.5 18.012,26.5L31.012,26.5L31.012,21Z" style="fill:#3bbc53;"/>
        <clipPath id="_clip3">
            <path d="M31.012,21C31.012,17.41 28.102,14.5 24.512,14.5C24.512,14.5 24.512,14.5 24.512,14.5C20.922,14.5 18.012,17.41 18.012,21C18.012,23.824 18.012,26.5 18.012,26.5L31.012,26.5L31.012,21Z"/>
        </clipPath>
        <g clip-path="url(#_clip3)">
            <rect x="15.012" y="21" width="17" height="1" style="fill:#2b307e;fill-opacity:0.25;"/>
        </g>
        <path d="M24.512,30.5L31.012,26.5L18.012,26.5L24.512,30.5Z" style="fill:#3bbc53;"/>
        <path d="M24.512,30.5L31.012,26.5L18.012,26.5L24.512,30.5Z" style="fill:#3bbc53;fill-opacity:0.25;"/>
    </g>
    <g>
        <path d="M26.472,28.513L22.472,28.513L22.472,31.054C22.472,31.574 22.679,32.072 23.046,32.439C23.413,32.807 23.911,33.013 24.431,33.013C24.437,33.013 24.443,33.013 24.449,33.013C25.567,33.013 26.472,32.107 26.472,30.99C26.472,29.795 26.472,28.513 26.472,28.513Z" style="fill:#2b307e;"/>
    </g>
    <circle cx="41.012" cy="47.5" r="4" style="fill:#2b307e;"/>
    <path d="M30.012,54.975C30.012,52.228 27.784,50 25.037,50C24.71,50 24.381,50 24.055,50C22.717,50 21.435,50.531 20.489,51.477C19.543,52.423 19.012,53.705 19.012,55.043C19.012,56.15 19.012,57 19.012,57L30.012,57L30.012,54.975Z" style="fill:#2b307e;"/>
</svg>
