<?xml version="1.0" encoding="UTF-8" standalone="no"?>
<!DOCTYPE svg PUBLIC "-//W3C//DTD SVG 1.1//EN" "http://www.w3.org/Graphics/SVG/1.1/DTD/svg11.dtd">
<svg width="100%" height="100%" viewBox="0 0 65 64" version="1.1" xmlns="http://www.w3.org/2000/svg" xmlns:xlink="http://www.w3.org/1999/xlink" xml:space="preserve" xmlns:serif="http://www.serif.com/" style="fill-rule:evenodd;clip-rule:evenodd;stroke-linejoin:round;stroke-miterlimit:2;">
    <rect id="REPLACE-Megaphone-2" x="0.632" y="0" width="64" height="64" style="fill:none;"/>
    <g>
        <path d="M21.894,38.556L15.111,36.399C15.111,36.399 19.856,50.99 20.958,54.379C21.1,54.816 21.445,55.158 21.883,55.298C23.121,55.691 25.7,56.511 27.069,56.947C27.242,57.002 27.431,56.955 27.559,56.827C27.687,56.698 27.733,56.508 27.676,56.335C26.465,52.61 21.894,38.556 21.894,38.556Z" style="fill:#81d86b;"/>
        <path d="M25.175,58.11L27.492,56.84L25.021,54.272C25.021,54.272 23.276,55.29 23.369,55.352C23.462,55.415 25.175,58.11 25.175,58.11Z" style="fill:#81d86b;"/>
        <path d="M9.03,20.201L9.03,20.198C22.484,19.47 35.321,12.954 48.462,6.602L49.094,51.491C35.281,46.085 22.302,39.359 9.06,37.631L9.06,37.63C6.925,37.547 5.204,33.673 5.204,28.914C5.204,24.178 6.909,20.318 9.03,20.201Z" style="fill:#e2e3f3;"/>
        <clipPath id="_clip1">
            <path d="M9.03,20.201L9.03,20.198C22.484,19.47 35.321,12.954 48.462,6.602L49.094,51.491C35.281,46.085 22.302,39.359 9.06,37.631L9.06,37.63C6.925,37.547 5.204,33.673 5.204,28.914C5.204,24.178 6.909,20.318 9.03,20.201Z"/>
        </clipPath>
        <g clip-path="url(#_clip1)">
            <rect x="-0.799" y="28.395" width="71.371" height="25.888" style="fill:#9096d5;fill-opacity:0.39;"/>
            <path d="M21.399,40.801C21.418,40.803 21.436,40.805 21.455,40.807L21.455,40.815L21.399,40.801ZM20.778,17.442C18.311,18.378 16.429,23.221 16.429,29.046C16.429,34.872 18.311,39.714 20.778,40.651L14.469,39.124L14.469,39.12C12.063,38.961 10.131,34.508 10.131,29.046C10.131,23.585 12.063,19.132 14.469,18.973L14.469,18.968L20.778,17.442ZM21.455,17.286C21.436,17.288 21.418,17.289 21.399,17.291L21.455,17.278L21.455,17.286Z" style="fill:#4abe2d;"/>
            <clipPath id="_clip2">
                <path d="M21.399,40.801C21.418,40.803 21.436,40.805 21.455,40.807L21.455,40.815L21.399,40.801ZM20.778,17.442C18.311,18.378 16.429,23.221 16.429,29.046C16.429,34.872 18.311,39.714 20.778,40.651L14.469,39.124L14.469,39.12C12.063,38.961 10.131,34.508 10.131,29.046C10.131,23.585 12.063,19.132 14.469,18.973L14.469,18.968L20.778,17.442ZM21.455,17.286C21.436,17.288 21.418,17.289 21.399,17.291L21.455,17.278L21.455,17.286Z"/>
            </clipPath>
            <g clip-path="url(#_clip2)">
                <rect x="1.637" y="28.395" width="27.188" height="16.122" style="fill:#329f46;"/>
            </g>
        </g>
        <ellipse cx="49.892" cy="28.914" rx="10.169" ry="22.577" style="fill:#e2e3f3;"/>
        <clipPath id="_clip3">
            <ellipse cx="49.892" cy="28.914" rx="10.169" ry="22.577"/>
        </clipPath>
        <g clip-path="url(#_clip3)">
            <path d="M66.517,1.906L13.839,1.293L13.839,59.08L40.563,70.721C67.232,72.963 74.315,35.753 66.517,1.906Z" style="fill:#2b307e;fill-opacity:0.6;"/>
            <rect x="32" y="22.609" width="17.892" height="12.61" style="fill:#cecfeb;"/>
            <clipPath id="_clip4">
                <rect x="32" y="22.609" width="17.892" height="12.61"/>
            </clipPath>
            <g clip-path="url(#_clip4)">
                <rect x="32" y="30.535" width="17.892" height="12.61" style="fill:#6a6ea8;fill-opacity:0.55;"/>
            </g>
            <rect x="32" y="22.609" width="17.892" height="12.61" style="fill:#cecfeb;"/>
            <clipPath id="_clip5">
                <rect x="32" y="22.609" width="17.892" height="12.61"/>
            </clipPath>
            <g clip-path="url(#_clip5)">
                <rect x="32" y="28.914" width="17.892" height="12.61" style="fill:#6a6ea8;fill-opacity:0.45;"/>
                <path d="M61.081,11.347L54.392,11.347C46.877,17.507 40.998,22.612 40.946,23.957L61.081,23.957L61.081,11.347Z" style="fill:#fff;fill-opacity:0.56;"/>
            </g>
        </g>
        <ellipse cx="49.892" cy="28.914" rx="2.84" ry="6.305" style="fill:#cecfeb;"/>
        <ellipse cx="49.892" cy="28.914" rx="1.902" ry="4.223" style="fill:#4abe2d;"/>
        <path d="M19.554,39.85L12.771,37.692C12.771,37.692 16.537,49.274 18.138,54.197C18.581,55.56 19.655,56.627 21.021,57.061C22.276,57.461 23.788,57.941 24.728,58.24C24.902,58.295 25.091,58.249 25.219,58.12C25.347,57.991 25.392,57.802 25.336,57.629C24.124,53.903 19.554,39.85 19.554,39.85Z" style="fill:#28933c;"/>
    </g>
</svg>
