<?xml version="1.0" encoding="UTF-8" standalone="no"?>
<!DOCTYPE svg PUBLIC "-//W3C//DTD SVG 1.1//EN" "http://www.w3.org/Graphics/SVG/1.1/DTD/svg11.dtd">
<svg width="100%" height="100%" viewBox="0 0 65 65" version="1.1" xmlns="http://www.w3.org/2000/svg" xmlns:xlink="http://www.w3.org/1999/xlink" xml:space="preserve" xmlns:serif="http://www.serif.com/" style="fill-rule:evenodd;clip-rule:evenodd;stroke-linejoin:round;stroke-miterlimit:2;">
    <rect id="REPLACE-Transfats-2" x="0.391" y="0.458" width="64" height="64" style="fill:none;"/>
    <path d="M27.59,49.045C43.353,49.045 61.344,51.003 61.344,53.414C61.344,55.826 43.353,57.784 27.59,57.784C11.826,57.784 4.221,55.826 4.221,53.414C4.221,51.003 11.826,49.045 27.59,49.045Z" style="fill:#b5b8e2;fill-opacity:0.18;"/>
    <path d="M55.078,7.589L25.164,7.589C27.401,22.895 27.405,38.011 25.164,52.935L55.078,52.935C52.743,38.152 52.66,23.037 55.078,7.589Z" style="fill:#4ebe22;"/>
    <g>
        <clipPath id="_clip1">
            <path d="M55.078,7.589L25.164,7.589C27.401,22.895 27.405,38.011 25.164,52.935L55.078,52.935C52.743,38.152 52.66,23.037 55.078,7.589Z"/>
        </clipPath>
        <g clip-path="url(#_clip1)">
            <rect x="20.963" y="3.724" width="40.806" height="5.774" style="fill:#3da518;fill-opacity:0.76;"/>
            <rect x="20.963" y="51.653" width="40.806" height="5.774" style="fill:#92d379;fill-opacity:0.76;"/>
            <path id="_-Curve-" serif:id="(Curve)" d="M26.401,51.942C26.401,51.942 31.085,47.044 40.121,47.044C49.157,47.044 54.22,51.409 54.22,51.409C54.22,51.409 46.184,49.738 40.121,49.738C34.059,49.738 29.428,50.853 26.401,51.942Z" style="fill:#389d15;"/>
            <circle cx="40.31" cy="23.547" r="8.157" style="fill:#cecfeb;"/>
            <path d="M26.401,10.177C26.401,10.177 31.222,16.712 40.258,16.712C49.293,16.712 54.22,9.801 54.22,9.801C54.22,9.801 46.184,13.366 40.121,13.366C34.059,13.366 29.428,11.66 26.401,10.177Z" style="fill:#fff;fill-opacity:0.39;"/>
            <path d="M28.653,16.334C28.653,16.334 27.244,27.649 40.31,29.71C40.31,29.71 31.391,24.629 28.653,16.334Z" style="fill:#fff;fill-opacity:0.39;"/>
            <path d="M52.59,31.897C52.59,31.897 54,43.212 40.933,45.274C40.933,45.274 49.852,40.192 52.59,31.897Z" style="fill:#45b11d;"/>
            <path d="M12.152,27.81C12.152,26.538 17.15,25.506 23.306,25.506C29.462,25.506 34.459,26.538 34.459,27.81L34.459,56.266C34.459,58.032 29.462,59.466 23.306,59.466C17.15,59.466 12.152,58.032 12.152,56.266L12.152,27.81Z" style="fill:#235f0d;fill-opacity:0.35;"/>
        </g>
    </g>
    <path d="M30.968,52.993C30.968,54.938 25.466,56.516 18.688,56.516C11.911,56.516 6.408,54.938 6.408,52.993L6.408,21.664L30.968,21.664L30.968,52.993Z" style="fill:#cecfeb;"/>
    <g>
        <clipPath id="_clip2">
            <path d="M30.968,52.993C30.968,54.938 25.466,56.516 18.688,56.516C11.911,56.516 6.408,54.938 6.408,52.993L6.408,21.664L30.968,21.664L30.968,52.993Z"/>
        </clipPath>
        <g clip-path="url(#_clip2)">
            <rect x="6.408" y="21.664" width="8.803" height="43.253" style="fill:#e1e2f3;"/>
            <path d="M30.968,30.716L30.968,42.956C30.968,44.9 25.466,46.479 18.688,46.479C11.911,46.479 6.408,44.9 6.408,42.956L6.408,30.716C6.408,32.66 11.911,34.239 18.688,34.239C25.466,34.239 30.968,32.66 30.968,30.716Z" style="fill:#9096d5;"/>
            <rect x="9.719" y="21.664" width="2.181" height="43.253" style="fill:#fff;fill-opacity:0.49;"/>
        </g>
    </g>
    <ellipse cx="18.688" cy="21.664" rx="12.28" ry="2.537" style="fill:#aaacdd;"/>
    <ellipse cx="18.688" cy="22.717" rx="12.28" ry="2.537" style="fill:#e1e2f3;"/>
</svg>
