<?xml version="1.0" encoding="UTF-8" standalone="no"?>
<!DOCTYPE svg PUBLIC "-//W3C//DTD SVG 1.1//EN" "http://www.w3.org/Graphics/SVG/1.1/DTD/svg11.dtd">
<svg width="100%" height="100%" viewBox="0 0 65 65" version="1.1" xmlns="http://www.w3.org/2000/svg" xmlns:xlink="http://www.w3.org/1999/xlink" xml:space="preserve" xmlns:serif="http://www.serif.com/" style="fill-rule:evenodd;clip-rule:evenodd;stroke-linecap:round;stroke-linejoin:round;stroke-miterlimit:1;">
    <rect id="Restaurants" x="0.738" y="0.458" width="64" height="64" style="fill:none;"/>
    <circle cx="34.321" cy="35.458" r="20.682" style="fill:#aaacdd;fill-opacity:0.33;"/>
    <circle cx="32.738" cy="32.458" r="20.682" style="fill:#f3775b;"/>
    <path d="M18.742,32.458C19.307,39.69 25.362,45.391 32.738,45.391C40.115,45.391 46.17,39.69 46.735,32.458C46.764,32.824 46.778,33.193 46.778,33.565C46.778,41.314 40.487,47.605 32.738,47.605C24.99,47.605 18.698,41.314 18.698,33.565C18.698,33.193 18.713,32.824 18.742,32.458Z" style="fill:#fff;fill-opacity:0.48;"/>
    <path d="M18.796,34.119C18.732,33.574 18.698,33.02 18.698,32.458C18.698,24.71 24.99,18.419 32.738,18.419C40.487,18.419 46.778,24.71 46.778,32.458C46.778,33.02 46.745,33.574 46.681,34.119C45.858,27.152 39.925,21.74 32.738,21.74C25.551,21.74 19.618,27.152 18.796,34.119Z" style="fill:#c43211;"/>
    <path d="M8.786,25.371C8.759,24.536 8.075,23.873 7.239,23.873C7.238,23.873 7.238,23.873 7.238,23.873C6.402,23.873 5.717,24.536 5.69,25.371C5.531,30.363 5.017,46.461 4.818,52.693C4.797,53.348 5.043,53.984 5.498,54.454C5.954,54.925 6.582,55.191 7.237,55.191C7.238,55.191 7.239,55.191 7.24,55.191C7.895,55.191 8.522,54.925 8.978,54.454C9.434,53.984 9.679,53.348 9.659,52.693C9.46,46.461 8.946,30.363 8.786,25.371Z" style="fill:#c5c6e1;"/>
    <path d="M61.657,24.873L61.379,24.873C59.799,24.873 58.489,26.099 58.385,27.675C58.001,33.504 57.12,46.863 56.745,52.55C56.699,53.234 56.94,53.906 57.408,54.406C57.877,54.907 58.532,55.191 59.217,55.191C59.218,55.191 59.218,55.191 59.219,55.191C60.565,55.191 61.657,54.099 61.657,52.753C61.657,45.551 61.657,24.873 61.657,24.873Z" style="fill:#c5c6e1;"/>
    <path d="M6.837,27.212L6.288,52.62" style="fill:none;stroke:#fff;stroke-width:0.5px;"/>
    <path d="M59.485,27.212L58.027,52.62" style="fill:none;stroke:#fff;stroke-width:0.5px;"/>
    <path d="M11.738,9.269L2.738,9.269L2.738,21.769C2.738,24.254 4.753,26.269 7.238,26.269C7.238,26.269 7.238,26.269 7.238,26.269C9.724,26.269 11.738,24.254 11.738,21.769C11.738,16.732 11.738,9.269 11.738,9.269Z" style="fill:#c5c6e1;"/>
    <path d="M61.657,8.458C61.657,8.458 61.657,8.458 61.657,8.459C58.979,10.576 57.293,13.705 56.999,17.106C56.625,21.419 56.11,27.363 55.79,31.056C55.714,31.93 56.009,32.796 56.602,33.443C57.196,34.09 58.033,34.458 58.911,34.458C60.332,34.458 61.657,34.458 61.657,34.458L61.657,8.458Z" style="fill:#c5c6e1;"/>
    <path d="M6.288,8.269L4.399,8.269L4.399,19.604C4.399,19.855 4.498,20.095 4.676,20.272C4.853,20.449 5.093,20.548 5.343,20.548C5.343,20.548 5.344,20.548 5.344,20.548C5.595,20.548 5.835,20.449 6.012,20.272C6.189,20.095 6.288,19.855 6.288,19.604C6.288,16.728 6.288,8.269 6.288,8.269Z" style="fill:#fff;"/>
    <path d="M10.078,8.269L8.188,8.269L8.188,19.604C8.188,19.855 8.288,20.095 8.465,20.272C8.642,20.449 8.882,20.548 9.132,20.548C9.133,20.548 9.133,20.548 9.134,20.548C9.384,20.548 9.624,20.449 9.801,20.272C9.978,20.095 10.078,19.855 10.078,19.604C10.078,16.728 10.078,8.269 10.078,8.269Z" style="fill:#fff;"/>
</svg>
