<?xml version="1.0" encoding="UTF-8" standalone="no"?>
<!DOCTYPE svg PUBLIC "-//W3C//DTD SVG 1.1//EN" "http://www.w3.org/Graphics/SVG/1.1/DTD/svg11.dtd">
<svg width="100%" height="100%" viewBox="0 0 65 64" version="1.1" xmlns="http://www.w3.org/2000/svg" xmlns:xlink="http://www.w3.org/1999/xlink" xml:space="preserve" xmlns:serif="http://www.serif.com/" style="fill-rule:evenodd;clip-rule:evenodd;stroke-linecap:round;stroke-linejoin:round;stroke-miterlimit:1;">
    <rect id="Restaurants" x="0.747" y="0" width="64" height="64" style="fill:none;"/>
    <circle cx="34.329" cy="35" r="20.682" style="fill:#aaacdd;fill-opacity:0.333333;"/>
    <circle cx="32.747" cy="32" r="20.682" style="fill:#f3775b;"/>
    <path d="M18.75,32C19.315,39.232 25.371,44.933 32.747,44.933C40.123,44.933 46.178,39.232 46.744,32C46.772,32.365 46.787,32.735 46.787,33.107C46.787,40.856 40.496,47.147 32.747,47.147C24.998,47.147 18.707,40.856 18.707,33.107C18.707,32.735 18.722,32.365 18.75,32Z" style="fill:#fff;fill-opacity:0.478431;"/>
    <path d="M18.805,33.661C18.74,33.116 18.707,32.562 18.707,32C18.707,24.251 24.998,17.96 32.747,17.96C40.496,17.96 46.787,24.251 46.787,32C46.787,32.562 46.754,33.116 46.689,33.661C45.867,26.693 39.934,21.281 32.747,21.281C25.56,21.281 19.627,26.693 18.805,33.661Z" style="fill:#379a16;"/>
    <path d="M8.795,24.913C8.768,24.078 8.083,23.414 7.248,23.414C7.247,23.414 7.247,23.414 7.246,23.414C6.411,23.414 5.726,24.078 5.699,24.913C5.54,29.905 5.026,46.002 4.827,52.235C4.806,52.89 5.051,53.525 5.507,53.996C5.963,54.467 6.59,54.732 7.245,54.732C7.246,54.732 7.247,54.732 7.248,54.732C7.904,54.732 8.531,54.467 8.987,53.996C9.443,53.525 9.688,52.89 9.667,52.235C9.468,46.002 8.954,29.905 8.795,24.913Z" style="fill:#c5c6e1;"/>
    <path d="M61.665,24.414C61.665,24.414 61.56,24.414 61.388,24.414C59.807,24.414 58.498,25.64 58.394,27.217C58.01,33.046 57.128,46.405 56.753,52.091C56.708,52.775 56.948,53.447 57.417,53.948C57.885,54.448 58.54,54.732 59.226,54.732C59.226,54.732 59.227,54.732 59.227,54.732C60.574,54.732 61.665,53.641 61.665,52.294C61.665,45.093 61.665,24.414 61.665,24.414Z" style="fill:#c5c6e1;"/>
    <path d="M6.846,26.754L6.297,52.161" style="fill:none;stroke:#fff;stroke-width:0.5px;"/>
    <path d="M59.493,26.754L58.036,52.161" style="fill:none;stroke:#fff;stroke-width:0.5px;"/>
    <path d="M11.747,8.81L2.747,8.81C2.747,8.81 2.747,16.274 2.747,21.31C2.747,23.796 4.762,25.81 7.247,25.81C7.247,25.81 7.247,25.81 7.247,25.81C9.732,25.81 11.747,23.796 11.747,21.31C11.747,16.274 11.747,8.81 11.747,8.81Z" style="fill:#c5c6e1;"/>
    <path d="M61.665,8C61.665,8 61.665,8 61.665,8C58.987,10.117 57.302,13.246 57.007,16.647C56.634,20.96 56.119,26.905 55.799,30.597C55.723,31.472 56.018,32.338 56.611,32.985C57.204,33.632 58.042,34 58.919,34C60.34,34 61.665,34 61.665,34L61.665,8Z" style="fill:#c5c6e1;"/>
    <path d="M6.297,7.81L4.408,7.81C4.408,7.81 4.408,16.27 4.408,19.146C4.408,19.396 4.507,19.636 4.684,19.814C4.861,19.991 5.101,20.09 5.352,20.09C5.352,20.09 5.352,20.09 5.353,20.09C5.603,20.09 5.843,19.991 6.02,19.814C6.197,19.636 6.297,19.396 6.297,19.146C6.297,16.27 6.297,7.81 6.297,7.81Z" style="fill:#fff;"/>
    <path d="M10.086,7.81L8.197,7.81C8.197,7.81 8.197,16.27 8.197,19.146C8.197,19.396 8.296,19.636 8.473,19.814C8.651,19.991 8.891,20.09 9.141,20.09C9.141,20.09 9.142,20.09 9.142,20.09C9.393,20.09 9.633,19.991 9.81,19.814C9.987,19.636 10.086,19.396 10.086,19.146C10.086,16.27 10.086,7.81 10.086,7.81Z" style="fill:#fff;"/>
</svg>
