<?xml version="1.0" encoding="UTF-8" standalone="no"?>
<!DOCTYPE svg PUBLIC "-//W3C//DTD SVG 1.1//EN" "http://www.w3.org/Graphics/SVG/1.1/DTD/svg11.dtd">
<svg width="100%" height="100%" viewBox="0 0 64 65" version="1.1" xmlns="http://www.w3.org/2000/svg" xmlns:xlink="http://www.w3.org/1999/xlink" xml:space="preserve" xmlns:serif="http://www.serif.com/" style="fill-rule:evenodd;clip-rule:evenodd;stroke-linecap:round;stroke-miterlimit:1;">
    <rect id="Risk-Communication-PE" x="0" y="0.724" width="64" height="64" style="fill:none;"/>
    <clipPath id="_clip1">
        <rect x="0" y="0.724" width="64" height="64"/>
    </clipPath>
    <g clip-path="url(#_clip1)">
        <path d="M10.056,0.179L-12,12.452L10.056,24.724L32.113,12.452L10.056,0.179ZM54.189,0.179L32.132,12.452L54.189,24.724L76.245,12.452L54.189,0.179Z" style="fill:none;"/>
        <clipPath id="_clip2">
            <path d="M10.056,0.179L-12,12.452L10.056,24.724L32.113,12.452L10.056,0.179ZM54.189,0.179L32.132,12.452L54.189,24.724L76.245,12.452L54.189,0.179Z"/>
        </clipPath>
        <g clip-path="url(#_clip2)">
            <g>
                <path d="M32.152,-8.505L32.289,-8.503L32.425,-8.501L32.56,-8.498L32.696,-8.494L32.831,-8.489L32.967,-8.483L33.102,-8.477L33.236,-8.469L33.371,-8.461L33.505,-8.452L33.639,-8.442L33.773,-8.432L33.907,-8.42L34.04,-8.408L34.173,-8.394L34.306,-8.38L34.439,-8.366L34.572,-8.35L34.704,-8.333L34.836,-8.316L34.967,-8.298L35.099,-8.279L35.23,-8.259L35.361,-8.239L35.492,-8.217L35.622,-8.195L35.752,-8.172L35.882,-8.149L36.012,-8.124L36.141,-8.099L36.27,-8.073L36.399,-8.046L36.527,-8.018L36.656,-7.99L36.783,-7.96L36.911,-7.93L37.038,-7.9L37.165,-7.868L37.292,-7.836L37.418,-7.803L37.544,-7.769L37.67,-7.734L37.796,-7.699L37.921,-7.663L38.046,-7.626L38.17,-7.589L38.294,-7.55L38.418,-7.511L38.542,-7.471L38.665,-7.431L38.788,-7.389L38.91,-7.347L39.032,-7.305L39.154,-7.261L39.278,-7.216L39.518,-7.127L39.758,-7.033L39.997,-6.937L40.235,-6.838L40.471,-6.736L40.706,-6.631L40.939,-6.524L41.17,-6.414L41.4,-6.301L41.629,-6.186L41.856,-6.067L42.081,-5.947L42.304,-5.823L42.526,-5.697L42.746,-5.568L42.965,-5.437L43.182,-5.303L43.397,-5.167L43.61,-5.028L43.821,-4.887L44.031,-4.743L44.239,-4.597L44.445,-4.449L44.649,-4.298L44.851,-4.144L45.051,-3.989L45.249,-3.831L45.446,-3.67L45.64,-3.508L45.833,-3.343L46.023,-3.175L46.211,-3.006L46.398,-2.834L46.582,-2.661L46.764,-2.485L46.944,-2.306L47.122,-2.126L47.298,-1.944L47.471,-1.759L47.643,-1.573L47.812,-1.384L47.979,-1.194L48.143,-1.001L48.306,-0.806L48.466,-0.61L48.624,-0.411L48.779,-0.211L48.932,-0.009L49.083,0.196L49.231,0.402L49.377,0.61L49.52,0.82L49.661,1.031L49.8,1.244L49.936,1.46L50.069,1.676L50.2,1.895L50.328,2.115L50.454,2.337L50.577,2.561L50.697,2.786L50.815,3.013L50.93,3.242L51.043,3.472L51.153,3.703L51.26,3.936L51.364,4.171L51.465,4.407L51.564,4.645L51.66,4.884L51.753,5.124L51.842,5.364L51.887,5.488L51.93,5.61L51.973,5.732L52.015,5.854L52.056,5.977L52.096,6.1L52.136,6.224L52.175,6.347L52.213,6.472L52.25,6.596L52.287,6.721L52.323,6.846L52.358,6.971L52.392,7.097L52.426,7.223L52.459,7.35L52.491,7.476L52.522,7.603L52.553,7.73L52.583,7.858L52.612,7.986L52.64,8.114L52.667,8.242L52.694,8.371L52.72,8.5L52.745,8.629L52.769,8.759L52.793,8.888L52.816,9.019L52.838,9.149L52.859,9.279L52.879,9.41L52.899,9.541L52.917,9.673L52.935,9.804L52.952,9.936L52.969,10.068L52.984,10.201L52.999,10.333L53.013,10.466L53.026,10.599L53.038,10.733L53.049,10.866L53.06,11L53.069,11.134L53.078,11.268L53.086,11.402L53.093,11.537L53.1,11.672L53.105,11.807L53.11,11.942L53.114,12.078L53.117,12.213L53.119,12.349L53.12,12.485L53.12,12.622L53.12,12.758L53.118,12.894L53.116,13.03L53.113,13.165L53.109,13.301L53.104,13.436L53.099,13.571L53.092,13.706L53.085,13.841L53.076,13.975L53.067,14.109L53.058,14.243L53.047,14.377L53.035,14.51L53.023,14.644L53.01,14.777L52.996,14.909L52.981,15.042L52.965,15.174L52.949,15.306L52.931,15.438L52.913,15.57L52.894,15.701L52.875,15.832L52.854,15.963L52.833,16.094L52.811,16.224L52.788,16.354L52.764,16.484L52.74,16.613L52.714,16.742L52.688,16.871L52.661,17L52.634,17.128L52.605,17.256L52.576,17.384L52.546,17.511L52.515,17.638L52.484,17.765L52.452,17.892L52.419,18.018L52.385,18.144L52.35,18.27L52.315,18.395L52.279,18.52L52.242,18.645L52.205,18.769L52.166,18.893L52.127,19.017L52.088,19.14L52.047,19.263L52.006,19.386L51.964,19.508L51.921,19.63L51.878,19.752L51.833,19.875L51.743,20.115L51.65,20.355L51.554,20.594L51.455,20.832L51.353,21.067L51.249,21.302L51.141,21.535L51.031,21.766L50.919,21.996L50.803,22.224L50.685,22.451L50.564,22.675L50.441,22.899L50.315,23.12L50.187,23.34L50.056,23.559L49.922,23.775L49.786,23.99L49.647,24.203L49.506,24.414L49.363,24.624L49.217,24.831L49.068,25.037L48.917,25.241L48.764,25.443L48.609,25.643L48.451,25.841L48.291,26.037L48.128,26.231L47.963,26.423L47.796,26.614L47.627,26.802L47.456,26.988L47.282,27.172L47.106,27.354L46.928,27.534L46.748,27.711L46.566,27.887L46.382,28.06L46.195,28.232L46.007,28.4L45.817,28.567L45.624,28.732L45.43,28.894L45.233,29.054L45.035,29.211L44.835,29.367L44.633,29.519L44.429,29.67L44.223,29.818L44.015,29.964L43.806,30.107L43.594,30.248L43.381,30.386L43.166,30.522L42.95,30.655L42.731,30.786L42.511,30.914L42.289,31.04L42.066,31.163L41.841,31.283L41.614,31.401L41.386,31.516L41.156,31.628L40.925,31.738L40.692,31.845L40.458,31.949L40.222,32.05L39.984,32.149L39.746,32.244L39.505,32.337L39.265,32.427L39.142,32.471L39.021,32.515L38.899,32.557L38.776,32.599L38.654,32.64L38.531,32.68L38.407,32.72L38.284,32.759L38.159,32.797L38.035,32.834L37.911,32.871L37.786,32.906L37.66,32.942L37.535,32.976L37.409,33.01L37.283,33.042L37.156,33.074L37.029,33.106L36.902,33.136L36.775,33.166L36.647,33.195L36.519,33.223L36.391,33.251L36.262,33.277L36.133,33.303L36.004,33.328L35.875,33.353L35.745,33.376L35.615,33.399L35.485,33.421L35.355,33.442L35.224,33.462L35.093,33.482L34.962,33.5L34.83,33.518L34.699,33.535L34.567,33.552L34.434,33.567L34.302,33.582L34.169,33.596L34.036,33.609L33.903,33.621L33.77,33.632L33.636,33.643L33.502,33.652L33.368,33.661L33.234,33.669L33.099,33.676L32.965,33.683L32.83,33.688L32.695,33.693L32.559,33.697L32.424,33.7L32.288,33.702L32.152,33.703L32.016,33.703L31.88,33.703L31.744,33.701L31.608,33.699L31.473,33.696L31.338,33.692L31.202,33.687L31.068,33.681L30.933,33.675L30.798,33.668L30.664,33.659L30.53,33.65L30.396,33.641L30.263,33.63L30.129,33.618L29.996,33.606L29.863,33.593L29.731,33.579L29.598,33.564L29.466,33.548L29.334,33.532L29.202,33.515L29.071,33.497L28.94,33.478L28.809,33.458L28.678,33.437L28.548,33.416L28.418,33.394L28.288,33.371L28.158,33.347L28.029,33.323L27.9,33.298L27.771,33.272L27.643,33.245L27.514,33.217L27.387,33.189L27.259,33.16L27.132,33.13L27.005,33.099L26.878,33.068L26.751,33.035L26.625,33.002L26.5,32.969L26.374,32.934L26.249,32.899L26.124,32.863L25.999,32.826L25.875,32.789L25.751,32.75L25.628,32.711L25.504,32.672L25.382,32.631L25.259,32.59L25.137,32.548L25.015,32.505L24.893,32.462L24.77,32.417L24.531,32.328L24.291,32.234L24.052,32.138L23.815,32.04L23.579,31.938L23.345,31.834L23.113,31.726L22.881,31.616L22.652,31.504L22.424,31.389L22.198,31.271L21.973,31.15L21.75,31.027L21.529,30.901L21.309,30.773L21.091,30.642L20.875,30.508L20.66,30.372L20.447,30.234L20.236,30.093L20.027,29.95L19.82,29.804L19.614,29.655L19.411,29.505L19.209,29.352L19.009,29.196L18.811,29.039L18.615,28.879L18.421,28.716L18.229,28.552L18.039,28.385L17.851,28.216L17.665,28.045L17.481,27.871L17.3,27.696L17.12,27.518L16.942,27.338L16.767,27.156L16.594,26.972L16.423,26.786L16.254,26.598L16.088,26.407L15.923,26.215L15.761,26.021L15.601,25.825L15.444,25.627L15.289,25.427L15.136,25.225L14.986,25.021L14.838,24.815L14.692,24.608L14.549,24.398L14.409,24.187L14.271,23.974L14.135,23.76L14.002,23.543L13.871,23.325L13.743,23.105L13.618,22.884L13.495,22.661L13.375,22.436L13.257,22.21L13.142,21.982L13.03,21.752L12.92,21.521L12.814,21.288L12.71,21.054L12.608,20.818L12.51,20.581L12.414,20.343L12.321,20.103L12.232,19.863L12.188,19.74L12.144,19.619L12.102,19.497L12.06,19.375L12.019,19.252L11.979,19.129L11.939,19.006L11.901,18.882L11.863,18.758L11.825,18.634L11.789,18.51L11.753,18.385L11.718,18.26L11.684,18.134L11.65,18.008L11.617,17.882L11.585,17.756L11.554,17.629L11.523,17.502L11.494,17.375L11.465,17.248L11.436,17.12L11.409,16.992L11.382,16.863L11.357,16.734L11.332,16.606L11.307,16.476L11.284,16.347L11.261,16.217L11.239,16.087L11.218,15.957L11.198,15.826L11.178,15.695L11.16,15.564L11.142,15.433L11.125,15.301L11.108,15.169L11.093,15.037L11.078,14.905L11.064,14.772L11.051,14.64L11.039,14.507L11.028,14.373L11.017,14.24L11.008,14.106L10.999,13.972L10.991,13.838L10.984,13.704L10.977,13.569L10.972,13.434L10.967,13.299L10.964,13.164L10.961,13.029L10.959,12.893L10.957,12.758L10.957,12.622L10.958,12.486L10.959,12.35L10.961,12.214L10.964,12.079L10.968,11.944L10.973,11.809L10.979,11.674L10.985,11.539L10.993,11.405L11.001,11.271L11.01,11.137L11.02,11.003L11.03,10.87L11.042,10.737L11.054,10.604L11.067,10.471L11.081,10.339L11.096,10.206L11.112,10.074L11.128,9.942L11.145,9.811L11.164,9.68L11.182,9.549L11.202,9.418L11.223,9.287L11.244,9.157L11.266,9.027L11.289,8.897L11.312,8.768L11.337,8.639L11.362,8.51L11.388,8.381L11.415,8.253L11.443,8.125L11.471,7.997L11.5,7.87L11.53,7.742L11.561,7.615L11.592,7.489L11.624,7.363L11.657,7.237L11.691,7.111L11.725,6.986L11.761,6.861L11.797,6.736L11.833,6.611L11.871,6.487L11.909,6.363L11.948,6.24L11.988,6.117L12.028,5.994L12.069,5.872L12.111,5.75L12.154,5.628L12.197,5.506L12.242,5.383L12.331,5.144L12.424,4.904L12.52,4.666L12.619,4.429L12.72,4.194L12.825,3.96L12.932,3.728L13.042,3.497L13.154,3.267L13.269,3.04L13.387,2.814L13.507,2.589L13.63,2.366L13.756,2.145L13.884,1.926L14.015,1.708L14.148,1.492L14.284,1.278L14.423,1.065L14.563,0.854L14.707,0.645L14.852,0.438L15.001,0.233L15.151,0.03L15.304,-0.172L15.459,-0.372L15.617,-0.569L15.776,-0.765L15.939,-0.959L16.103,-1.151L16.27,-1.34L16.439,-1.528L16.61,-1.714L16.783,-1.898L16.958,-2.079L17.136,-2.259L17.316,-2.436L17.497,-2.611L17.681,-2.784L17.867,-2.955L18.055,-3.124L18.245,-3.29L18.437,-3.454L18.631,-3.616L18.827,-3.775L19.025,-3.933L19.225,-4.088L19.427,-4.24L19.63,-4.39L19.836,-4.538L20.043,-4.684L20.252,-4.826L20.463,-4.967L20.675,-5.105L20.89,-5.24L21.106,-5.373L21.324,-5.504L21.544,-5.632L21.765,-5.757L21.988,-5.88L22.212,-6L22.438,-6.117L22.666,-6.232L22.895,-6.344L23.126,-6.454L23.359,-6.56L23.593,-6.664L23.828,-6.765L24.065,-6.864L24.303,-6.959L24.543,-7.052L24.782,-7.141L24.905,-7.186L25.027,-7.229L25.148,-7.271L25.27,-7.313L25.393,-7.354L25.516,-7.394L25.639,-7.434L25.762,-7.472L25.886,-7.51L26.01,-7.548L26.134,-7.584L26.259,-7.62L26.384,-7.655L26.509,-7.689L26.635,-7.723L26.761,-7.755L26.887,-7.787L27.014,-7.819L27.141,-7.849L27.268,-7.879L27.395,-7.908L27.523,-7.936L27.651,-7.963L27.779,-7.99L27.908,-8.016L28.036,-8.041L28.166,-8.065L28.295,-8.089L28.425,-8.111L28.554,-8.133L28.685,-8.154L28.815,-8.174L28.946,-8.194L29.077,-8.213L29.208,-8.231L29.339,-8.248L29.471,-8.264L29.603,-8.279L29.735,-8.294L29.868,-8.308L30,-8.321L30.133,-8.333L30.266,-8.344L30.4,-8.355L30.533,-8.364L30.667,-8.373L30.801,-8.381L30.935,-8.388L31.069,-8.395L31.204,-8.4L31.339,-8.405L31.474,-8.408L31.609,-8.411L31.745,-8.413L31.88,-8.415L32.012,-8.415L32.016,-8.46L32.02,-8.505L32.152,-8.505ZM31.895,-6.095L31.774,-6.094L31.653,-6.092L31.533,-6.089L31.413,-6.085L31.292,-6.081L31.172,-6.076L31.053,-6.07L30.933,-6.064L30.814,-6.056L30.695,-6.048L30.576,-6.039L30.457,-6.03L30.339,-6.02L30.221,-6.009L30.103,-5.997L29.985,-5.985L29.867,-5.971L29.75,-5.958L29.633,-5.943L29.516,-5.928L29.399,-5.911L29.283,-5.895L29.166,-5.877L29.051,-5.859L28.935,-5.84L28.819,-5.82L28.704,-5.8L28.589,-5.779L28.474,-5.757L28.36,-5.735L28.246,-5.712L28.132,-5.688L28.018,-5.664L27.905,-5.638L27.791,-5.612L27.678,-5.586L27.566,-5.559L27.453,-5.531L27.341,-5.502L27.229,-5.473L27.118,-5.443L27.006,-5.412L26.895,-5.381L26.785,-5.349L26.674,-5.316L26.564,-5.283L26.454,-5.249L26.345,-5.215L26.235,-5.179L26.126,-5.144L26.017,-5.107L25.909,-5.07L25.801,-5.032L25.693,-4.994L25.587,-4.955L25.371,-4.874L25.159,-4.792L24.947,-4.706L24.737,-4.619L24.528,-4.528L24.32,-4.436L24.113,-4.341L23.908,-4.243L23.705,-4.143L23.503,-4.041L23.302,-3.936L23.102,-3.829L22.904,-3.72L22.708,-3.608L22.513,-3.494L22.319,-3.378L22.127,-3.259L21.937,-3.139L21.748,-3.016L21.56,-2.89L21.375,-2.763L21.19,-2.634L21.008,-2.502L20.827,-2.368L20.648,-2.232L20.47,-2.094L20.294,-1.954L20.12,-1.812L19.948,-1.667L19.777,-1.521L19.609,-1.373L19.442,-1.223L19.276,-1.071L19.113,-0.916L18.952,-0.76L18.792,-0.602L18.634,-0.443L18.479,-0.281L18.325,-0.117L18.173,0.048L18.023,0.215L17.875,0.384L17.729,0.555L17.585,0.728L17.443,0.902L17.303,1.078L17.165,1.256L17.03,1.435L16.896,1.616L16.765,1.799L16.636,1.983L16.509,2.169L16.384,2.356L16.261,2.545L16.141,2.736L16.022,2.928L15.907,3.122L15.793,3.317L15.682,3.514L15.573,3.712L15.466,3.911L15.362,4.112L15.26,4.314L15.16,4.518L15.063,4.723L14.968,4.93L14.876,5.137L14.786,5.346L14.699,5.557L14.614,5.768L14.532,5.981L14.451,6.197L14.413,6.303L14.375,6.411L14.337,6.519L14.3,6.627L14.264,6.736L14.228,6.845L14.193,6.954L14.158,7.064L14.125,7.174L14.092,7.284L14.059,7.394L14.027,7.505L13.996,7.616L13.966,7.727L13.936,7.839L13.907,7.951L13.879,8.063L13.851,8.175L13.824,8.288L13.798,8.4L13.772,8.514L13.747,8.627L13.723,8.741L13.699,8.855L13.676,8.969L13.654,9.083L13.632,9.198L13.612,9.313L13.591,9.428L13.572,9.543L13.553,9.659L13.535,9.775L13.518,9.891L13.501,10.007L13.486,10.124L13.47,10.241L13.456,10.358L13.442,10.475L13.429,10.592L13.417,10.71L13.405,10.828L13.395,10.946L13.385,11.064L13.375,11.183L13.367,11.302L13.359,11.421L13.352,11.54L13.345,11.659L13.34,11.779L13.335,11.899L13.331,12.019L13.328,12.139L13.325,12.259L13.323,12.38L13.322,12.501L13.322,12.622L13.322,12.743L13.324,12.863L13.326,12.984L13.328,13.104L13.332,13.224L13.336,13.344L13.341,13.464L13.347,13.584L13.353,13.703L13.361,13.822L13.369,13.941L13.378,14.06L13.387,14.179L13.397,14.297L13.408,14.415L13.42,14.533L13.432,14.651L13.446,14.768L13.459,14.885L13.474,15.002L13.489,15.119L13.505,15.235L13.522,15.352L13.54,15.468L13.558,15.584L13.577,15.699L13.596,15.815L13.617,15.93L13.638,16.044L13.659,16.159L13.682,16.273L13.705,16.387L13.729,16.501L13.753,16.615L13.778,16.728L13.804,16.841L13.831,16.954L13.858,17.067L13.886,17.179L13.914,17.291L13.943,17.403L13.973,17.514L14.004,17.625L14.035,17.736L14.067,17.847L14.1,17.957L14.133,18.067L14.167,18.177L14.201,18.286L14.236,18.395L14.272,18.504L14.309,18.613L14.346,18.721L14.384,18.829L14.422,18.937L14.461,19.043L14.541,19.258L14.624,19.471L14.709,19.682L14.797,19.892L14.887,20.101L14.979,20.309L15.074,20.515L15.172,20.719L15.271,20.923L15.374,21.125L15.478,21.325L15.585,21.525L15.694,21.722L15.806,21.919L15.92,22.114L16.036,22.307L16.154,22.499L16.275,22.689L16.398,22.878L16.523,23.065L16.65,23.25L16.779,23.434L16.911,23.617L17.045,23.797L17.18,23.976L17.318,24.153L17.458,24.329L17.6,24.503L17.744,24.675L17.89,24.845L18.038,25.014L18.188,25.181L18.34,25.346L18.494,25.509L18.65,25.67L18.808,25.83L18.968,25.987L19.129,26.143L19.293,26.297L19.458,26.448L19.625,26.598L19.794,26.746L19.964,26.892L20.136,27.035L20.311,27.177L20.486,27.317L20.664,27.454L20.843,27.59L21.024,27.723L21.206,27.854L21.39,27.984L21.576,28.11L21.763,28.235L21.952,28.358L22.143,28.478L22.334,28.596L22.528,28.712L22.723,28.825L22.919,28.936L23.117,29.045L23.316,29.152L23.517,29.256L23.719,29.358L23.922,29.457L24.127,29.554L24.333,29.649L24.541,29.741L24.75,29.831L24.96,29.918L25.171,30.003L25.384,30.085L25.599,30.165L25.705,30.204L25.813,30.242L25.921,30.279L26.029,30.316L26.138,30.353L26.246,30.388L26.356,30.423L26.465,30.458L26.575,30.491L26.685,30.524L26.795,30.557L26.906,30.589L27.016,30.62L27.128,30.65L27.239,30.68L27.351,30.709L27.463,30.737L27.575,30.765L27.687,30.792L27.8,30.818L27.913,30.844L28.026,30.869L28.14,30.893L28.254,30.917L28.368,30.939L28.482,30.962L28.596,30.983L28.711,31.004L28.826,31.024L28.941,31.043L29.057,31.062L29.173,31.08L29.289,31.097L29.405,31.114L29.521,31.13L29.638,31.145L29.755,31.159L29.872,31.173L29.989,31.186L30.107,31.198L30.225,31.21L30.343,31.221L30.461,31.231L30.579,31.24L30.698,31.248L30.817,31.256L30.936,31.263L31.055,31.27L31.174,31.275L31.294,31.28L31.414,31.284L31.534,31.288L31.654,31.29L31.775,31.292L31.895,31.293L32.016,31.293L32.137,31.293L32.258,31.292L32.378,31.29L32.498,31.287L32.618,31.283L32.738,31.279L32.858,31.274L32.977,31.268L33.096,31.262L33.215,31.254L33.334,31.246L33.453,31.238L33.571,31.228L33.689,31.218L33.807,31.207L33.925,31.195L34.043,31.183L34.16,31.17L34.277,31.156L34.394,31.141L34.51,31.126L34.627,31.11L34.743,31.093L34.859,31.076L34.975,31.058L35.09,31.039L35.205,31.019L35.32,30.999L35.435,30.978L35.549,30.956L35.663,30.934L35.777,30.911L35.891,30.887L36.005,30.863L36.118,30.838L36.231,30.812L36.343,30.785L36.456,30.758L36.568,30.73L36.68,30.702L36.791,30.672L36.903,30.643L37.014,30.612L37.124,30.581L37.235,30.549L37.345,30.516L37.455,30.483L37.565,30.449L37.674,30.415L37.783,30.38L37.892,30.344L38,30.307L38.108,30.27L38.216,30.233L38.324,30.194L38.429,30.156L38.645,30.075L38.857,29.993L39.068,29.908L39.278,29.82L39.487,29.73L39.694,29.638L39.9,29.543L40.104,29.446L40.307,29.346L40.509,29.244L40.709,29.14L40.908,29.033L41.106,28.924L41.302,28.812L41.497,28.699L41.69,28.583L41.881,28.464L42.071,28.344L42.26,28.221L42.447,28.096L42.632,27.969L42.816,27.84L42.998,27.709L43.178,27.575L43.357,27.439L43.534,27.302L43.709,27.162L43.883,27.02L44.055,26.876L44.225,26.73L44.394,26.582L44.56,26.433L44.725,26.281L44.888,26.127L45.049,25.971L45.208,25.814L45.366,25.654L45.521,25.493L45.675,25.33L45.826,25.165L45.976,24.998L46.123,24.829L46.269,24.659L46.412,24.487L46.554,24.313L46.694,24.137L46.831,23.96L46.966,23.781L47.099,23.601L47.231,23.418L47.359,23.235L47.486,23.049L47.611,22.862L47.733,22.673L47.853,22.483L47.971,22.292L48.087,22.098L48.2,21.904L48.311,21.708L48.42,21.51L48.526,21.311L48.631,21.11L48.732,20.909L48.832,20.705L48.928,20.501L49.023,20.295L49.115,20.088L49.205,19.879L49.292,19.669L49.376,19.458L49.458,19.246L49.539,19.031L49.577,18.925L49.615,18.818L49.653,18.71L49.69,18.602L49.726,18.493L49.761,18.384L49.796,18.275L49.831,18.166L49.864,18.056L49.897,17.947L49.93,17.836L49.961,17.726L49.992,17.615L50.023,17.504L50.052,17.393L50.081,17.281L50.11,17.17L50.137,17.058L50.164,16.945L50.191,16.833L50.216,16.72L50.241,16.607L50.265,16.493L50.289,16.38L50.312,16.266L50.334,16.152L50.356,16.037L50.376,15.923L50.396,15.808L50.416,15.693L50.434,15.577L50.452,15.462L50.47,15.346L50.486,15.23L50.502,15.113L50.517,14.997L50.532,14.88L50.545,14.763L50.558,14.646L50.57,14.529L50.582,14.411L50.593,14.293L50.603,14.175L50.612,14.057L50.62,13.938L50.628,13.82L50.635,13.701L50.642,13.582L50.647,13.462L50.652,13.343L50.656,13.223L50.66,13.103L50.662,12.983L50.664,12.863L50.665,12.742L50.665,12.622L50.665,12.501L50.664,12.38L50.662,12.26L50.659,12.14L50.655,12.02L50.651,11.9L50.646,11.781L50.64,11.662L50.634,11.543L50.626,11.424L50.618,11.305L50.61,11.187L50.6,11.068L50.59,10.95L50.579,10.832L50.567,10.715L50.555,10.597L50.542,10.48L50.528,10.363L50.513,10.247L50.498,10.13L50.482,10.014L50.465,9.898L50.448,9.782L50.43,9.667L50.411,9.551L50.392,9.436L50.371,9.322L50.35,9.207L50.329,9.093L50.306,8.979L50.283,8.865L50.26,8.751L50.235,8.638L50.21,8.525L50.184,8.412L50.158,8.3L50.131,8.187L50.103,8.075L50.074,7.964L50.045,7.852L50.015,7.741L49.985,7.63L49.954,7.519L49.922,7.409L49.889,7.299L49.856,7.189L49.822,7.08L49.788,6.971L49.753,6.862L49.717,6.753L49.681,6.645L49.644,6.537L49.606,6.429L49.568,6.321L49.529,6.216L49.449,6.001L49.366,5.789L49.281,5.578L49.194,5.368L49.104,5.16L49.012,4.953L48.917,4.748L48.82,4.543L48.72,4.34L48.618,4.139L48.514,3.939L48.408,3.74L48.299,3.543L48.187,3.347L48.074,3.153L47.958,2.96L47.84,2.768L47.719,2.579L47.597,2.39L47.472,2.204L47.345,2.019L47.216,1.835L47.085,1.653L46.952,1.473L46.816,1.294L46.679,1.118L46.539,0.942L46.397,0.769L46.254,0.597L46.108,0.427L45.96,0.259L45.81,0.093L45.659,-0.072L45.505,-0.235L45.35,-0.396L45.192,-0.555L45.033,-0.712L44.872,-0.867L44.709,-1.02L44.544,-1.172L44.378,-1.321L44.209,-1.469L44.039,-1.614L43.867,-1.757L43.693,-1.899L43.518,-2.038L43.341,-2.175L43.162,-2.311L42.982,-2.444L42.8,-2.574L42.616,-2.703L42.431,-2.83L42.244,-2.954L42.056,-3.077L41.866,-3.197L41.674,-3.314L41.481,-3.43L41.287,-3.543L41.091,-3.654L40.894,-3.763L40.695,-3.869L40.495,-3.973L40.293,-4.074L40.09,-4.174L39.886,-4.27L39.68,-4.365L39.473,-4.457L39.265,-4.546L39.055,-4.633L38.844,-4.718L38.632,-4.8L38.417,-4.88L38.312,-4.918L38.205,-4.956L38.097,-4.994L37.989,-5.03L37.88,-5.067L37.772,-5.102L37.663,-5.137L37.554,-5.171L37.444,-5.205L37.335,-5.238L37.225,-5.27L37.114,-5.302L37.004,-5.333L36.893,-5.363L36.782,-5.393L36.67,-5.422L36.559,-5.45L36.447,-5.478L36.334,-5.505L36.222,-5.531L36.109,-5.557L35.996,-5.581L35.883,-5.606L35.77,-5.629L35.656,-5.652L35.542,-5.674L35.428,-5.696L35.313,-5.716L35.198,-5.736L35.083,-5.756L34.968,-5.774L34.853,-5.792L34.737,-5.81L34.621,-5.826L34.505,-5.842L34.389,-5.857L34.272,-5.871L34.155,-5.885L34.038,-5.898L33.921,-5.91L33.803,-5.922L33.686,-5.932L33.568,-5.942L33.45,-5.952L33.331,-5.96L33.213,-5.968L33.094,-5.975L32.975,-5.982L32.856,-5.987L32.736,-5.992L32.617,-5.996L32.497,-5.999L32.377,-6.002L32.257,-6.004L32.137,-6.005L32.012,-6.005L32.012,-6.095L31.895,-6.095Z" style="fill:#cecfeb;"/>
                <path d="M32.215,-2.798L32.413,-2.794L32.611,-2.788L32.808,-2.779L33.005,-2.768L33.201,-2.754L33.396,-2.737L33.59,-2.719L33.784,-2.698L33.978,-2.674L34.17,-2.648L34.362,-2.62L34.553,-2.589L34.743,-2.556L34.932,-2.521L35.121,-2.483L35.309,-2.443L35.496,-2.401L35.682,-2.357L35.867,-2.31L36.051,-2.261L36.235,-2.21L36.417,-2.157L36.599,-2.102L36.779,-2.044L36.959,-1.984L37.137,-1.922L37.315,-1.858L37.492,-1.792L37.667,-1.724L37.842,-1.654L38.015,-1.581L38.187,-1.507L38.359,-1.43L38.529,-1.352L38.698,-1.272L38.866,-1.189L39.032,-1.105L39.198,-1.019L39.362,-0.93L39.525,-0.84L39.687,-0.748L39.848,-0.654L40.007,-0.558L40.166,-0.461L40.322,-0.361L40.478,-0.26L40.632,-0.157L40.785,-0.052L40.937,0.055L41.087,0.163L41.236,0.274L41.384,0.386L41.53,0.499L41.674,0.615L41.818,0.732L41.959,0.85L42.1,0.971L42.239,1.093L42.376,1.216L42.512,1.342L42.646,1.469L42.779,1.597L42.911,1.727L43.04,1.859L43.169,1.992L43.295,2.126L43.42,2.262L43.544,2.4L43.665,2.539L43.786,2.68L43.904,2.822L44.021,2.965L44.136,3.11L44.249,3.256L44.361,3.404L44.471,3.553L44.579,3.704L44.685,3.855L44.79,4.009L44.893,4.163L44.994,4.319L45.093,4.476L45.19,4.634L45.286,4.793L45.379,4.954L45.471,5.116L45.561,5.279L45.649,5.444L45.735,5.609L45.819,5.776L45.901,5.944L45.981,6.113L46.059,6.283L46.135,6.455L46.209,6.627L46.281,6.8L46.351,6.975L46.418,7.15L46.484,7.327L46.548,7.505L46.609,7.683L46.669,7.863L46.726,8.043L46.781,8.225L46.834,8.407L46.885,8.59L46.933,8.775L46.979,8.96L47.023,9.146L47.065,9.333L47.105,9.52L47.142,9.709L47.177,9.898L47.209,10.088L47.24,10.279L47.267,10.47L47.293,10.663L47.316,10.856L47.337,11.049L47.355,11.244L47.371,11.439L47.385,11.634L47.396,11.831L47.404,12.027L47.41,12.225L47.414,12.423L47.415,12.622L47.413,12.82L47.409,13.018L47.403,13.216L47.394,13.413L47.383,13.609L47.369,13.804L47.353,13.999L47.334,14.194L47.313,14.387L47.289,14.58L47.263,14.772L47.235,14.964L47.205,15.154L47.172,15.344L47.136,15.534L47.099,15.722L47.059,15.909L47.017,16.096L46.973,16.282L46.926,16.467L46.877,16.651L46.826,16.834L46.773,17.016L46.718,17.197L46.66,17.378L46.6,17.557L46.539,17.735L46.475,17.913L46.409,18.089L46.341,18.264L46.27,18.439L46.198,18.612L46.124,18.784L46.048,18.955L45.969,19.125L45.889,19.293L45.807,19.461L45.722,19.628L45.636,19.793L45.548,19.957L45.458,20.12L45.366,20.281L45.272,20.442L45.177,20.601L45.079,20.759L44.98,20.916L44.879,21.071L44.776,21.225L44.671,21.378L44.564,21.529L44.456,21.679L44.346,21.828L44.234,21.975L44.121,22.121L44.006,22.266L43.889,22.409L43.77,22.55L43.65,22.691L43.528,22.829L43.405,22.966L43.28,23.102L43.153,23.236L43.025,23.369L42.895,23.5L42.763,23.63L42.63,23.758L42.496,23.884L42.36,24.009L42.223,24.132L42.084,24.254L41.943,24.374L41.802,24.492L41.658,24.609L41.514,24.724L41.367,24.837L41.22,24.948L41.071,25.058L40.921,25.166L40.769,25.272L40.617,25.377L40.462,25.479L40.307,25.58L40.15,25.679L39.992,25.776L39.833,25.872L39.672,25.965L39.51,26.057L39.347,26.146L39.183,26.234L39.018,26.32L38.851,26.404L38.684,26.486L38.515,26.566L38.345,26.644L38.174,26.72L38.002,26.793L37.829,26.865L37.654,26.935L37.479,27.003L37.303,27.068L37.126,27.132L36.947,27.193L36.768,27.253L36.588,27.31L36.407,27.365L36.224,27.418L36.041,27.468L35.857,27.517L35.673,27.563L35.487,27.607L35.3,27.649L35.113,27.688L34.925,27.725L34.736,27.76L34.546,27.793L34.356,27.823L34.164,27.851L33.972,27.876L33.78,27.899L33.586,27.92L33.392,27.938L33.197,27.954L33.002,27.968L32.806,27.979L32.609,27.987L32.412,27.993L32.214,27.997L32.016,27.998L31.818,27.996L31.62,27.992L31.423,27.986L31.226,27.977L31.03,27.966L30.835,27.952L30.64,27.936L30.446,27.917L30.253,27.896L30.06,27.872L29.868,27.847L29.677,27.818L29.487,27.788L29.297,27.755L29.108,27.72L28.92,27.682L28.733,27.643L28.547,27.601L28.361,27.556L28.177,27.51L27.993,27.461L27.81,27.41L27.628,27.357L27.447,27.302L27.267,27.244L27.088,27.185L26.91,27.123L26.733,27.059L26.557,26.993L26.382,26.925L26.208,26.855L26.035,26.783L25.863,26.709L25.692,26.632L25.523,26.554L25.354,26.474L25.187,26.392L25.02,26.308L24.855,26.222L24.692,26.134L24.529,26.044L24.367,25.952L24.207,25.859L24.048,25.763L23.891,25.666L23.734,25.566L23.579,25.465L23.425,25.363L23.273,25.258L23.121,25.152L22.972,25.043L22.823,24.933L22.676,24.822L22.53,24.709L22.386,24.594L22.243,24.477L22.102,24.358L21.962,24.238L21.823,24.117L21.686,23.993L21.551,23.868L21.417,23.742L21.284,23.614L21.153,23.484L21.024,23.353L20.896,23.22L20.77,23.086L20.645,22.95L20.522,22.813L20.401,22.674L20.281,22.534L20.163,22.393L20.047,22.25L19.932,22.105L19.819,21.959L19.708,21.812L19.598,21.663L19.49,21.513L19.384,21.362L19.28,21.209L19.177,21.055L19.077,20.9L18.978,20.744L18.881,20.586L18.785,20.427L18.692,20.266L18.601,20.105L18.511,19.942L18.424,19.778L18.338,19.613L18.254,19.447L18.172,19.279L18.092,19.111L18.015,18.941L17.939,18.77L17.865,18.599L17.793,18.426L17.724,18.252L17.656,18.077L17.59,17.901L17.527,17.724L17.466,17.546L17.406,17.366L17.349,17.186L17.294,17.006L17.242,16.824L17.191,16.641L17.143,16.457L17.097,16.273L17.053,16.087L17.011,15.901L16.972,15.714L16.935,15.526L16.9,15.337L16.867,15.148L16.837,14.958L16.809,14.767L16.784,14.575L16.761,14.383L16.74,14.189L16.722,13.996L16.706,13.801L16.693,13.606L16.682,13.41L16.673,13.214L16.667,13.017L16.663,12.82L16.662,12.622L16.664,12.424L16.668,12.226L16.674,12.029L16.683,11.833L16.694,11.637L16.708,11.442L16.725,11.248L16.743,11.054L16.764,10.861L16.788,10.669L16.813,10.477L16.842,10.286L16.872,10.096L16.905,9.907L16.94,9.718L16.977,9.53L17.017,9.343L17.059,9.157L17.103,8.972L17.15,8.788L17.198,8.604L17.249,8.422L17.302,8.24L17.358,8.059L17.415,7.879L17.474,7.701L17.536,7.523L17.6,7.346L17.666,7.17L17.734,6.995L17.804,6.822L17.876,6.649L17.95,6.477L18.026,6.307L18.104,6.138L18.184,5.969L18.266,5.802L18.35,5.636L18.436,5.471L18.524,5.308L18.613,5.145L18.705,4.984L18.799,4.824L18.894,4.665L18.991,4.508L19.09,4.352L19.191,4.197L19.294,4.043L19.398,3.891L19.505,3.74L19.613,3.59L19.722,3.442L19.834,3.295L19.947,3.15L20.062,3.006L20.178,2.863L20.297,2.722L20.416,2.582L20.538,2.444L20.661,2.307L20.786,2.172L20.912,2.038L21.04,1.906L21.169,1.775L21.3,1.646L21.433,1.518L21.567,1.392L21.702,1.267L21.84,1.145L21.978,1.023L22.118,0.904L22.259,0.786L22.402,0.67L22.546,0.555L22.692,0.442L22.839,0.331L22.988,0.222L23.137,0.114L23.288,0.008L23.441,-0.096L23.595,-0.198L23.75,-0.299L23.906,-0.398L24.064,-0.495L24.222,-0.59L24.382,-0.683L24.544,-0.774L24.706,-0.864L24.87,-0.951L25.035,-1.037L25.201,-1.12L25.368,-1.202L25.536,-1.282L25.706,-1.359L25.876,-1.435L26.048,-1.509L26.221,-1.58L26.394,-1.65L26.569,-1.717L26.745,-1.783L26.922,-1.846L27.099,-1.908L27.278,-1.967L27.458,-2.024L27.639,-2.079L27.82,-2.131L28.003,-2.182L28.186,-2.23L28.37,-2.276L28.555,-2.32L28.741,-2.361L28.928,-2.401L29.116,-2.438L29.304,-2.472L29.493,-2.505L29.683,-2.535L29.874,-2.563L30.066,-2.588L30.258,-2.611L30.451,-2.632L30.644,-2.65L30.838,-2.666L31.033,-2.679L31.228,-2.69L31.425,-2.699L31.621,-2.705L31.818,-2.708L32.009,-2.709L32.024,-2.8L32.215,-2.798ZM31.848,-0.389L31.68,-0.385L31.513,-0.38L31.346,-0.372L31.18,-0.363L31.015,-0.351L30.85,-0.337L30.686,-0.321L30.522,-0.303L30.359,-0.283L30.197,-0.262L30.035,-0.238L29.874,-0.212L29.714,-0.184L29.554,-0.154L29.395,-0.123L29.237,-0.089L29.079,-0.053L28.922,-0.016L28.766,0.023L28.611,0.065L28.457,0.108L28.303,0.153L28.15,0.199L27.998,0.248L27.847,0.298L27.696,0.351L27.546,0.405L27.398,0.46L27.25,0.518L27.103,0.577L26.957,0.638L26.811,0.701L26.667,0.765L26.524,0.831L26.381,0.899L26.24,0.969L26.099,1.04L25.959,1.113L25.821,1.187L25.683,1.263L25.547,1.341L25.411,1.42L25.277,1.501L25.143,1.583L25.011,1.667L24.879,1.753L24.749,1.84L24.62,1.928L24.492,2.019L24.365,2.11L24.24,2.203L24.115,2.298L23.992,2.394L23.87,2.491L23.749,2.59L23.629,2.69L23.51,2.792L23.393,2.895L23.277,3L23.162,3.105L23.049,3.213L22.936,3.321L22.826,3.431L22.716,3.542L22.608,3.655L22.501,3.768L22.395,3.883L22.291,4L22.188,4.117L22.087,4.236L21.987,4.356L21.888,4.477L21.791,4.599L21.695,4.723L21.601,4.848L21.508,4.974L21.417,5.101L21.327,5.229L21.239,5.358L21.152,5.488L21.067,5.62L20.983,5.752L20.901,5.886L20.821,6.02L20.742,6.156L20.665,6.293L20.589,6.43L20.515,6.569L20.442,6.709L20.372,6.849L20.302,6.991L20.235,7.133L20.169,7.277L20.105,7.421L20.043,7.566L19.982,7.712L19.923,7.86L19.866,8.007L19.811,8.156L19.757,8.306L19.705,8.456L19.655,8.608L19.607,8.76L19.561,8.912L19.516,9.066L19.474,9.221L19.433,9.376L19.394,9.532L19.357,9.688L19.322,9.846L19.288,10.004L19.257,10.163L19.228,10.322L19.2,10.482L19.175,10.643L19.151,10.805L19.13,10.967L19.11,11.13L19.093,11.293L19.077,11.457L19.064,11.622L19.053,11.787L19.043,11.953L19.036,12.119L19.031,12.286L19.028,12.454L19.027,12.622L19.028,12.79L19.032,12.957L19.037,13.124L19.045,13.29L19.054,13.456L19.066,13.621L19.08,13.786L19.096,13.95L19.114,14.113L19.133,14.276L19.155,14.438L19.179,14.599L19.205,14.76L19.233,14.92L19.262,15.08L19.294,15.238L19.328,15.396L19.363,15.553L19.401,15.71L19.44,15.866L19.481,16.021L19.524,16.175L19.569,16.328L19.615,16.481L19.664,16.633L19.714,16.784L19.766,16.934L19.82,17.084L19.876,17.232L19.933,17.38L19.992,17.526L20.053,17.672L20.116,17.817L20.18,17.961L20.246,18.105L20.314,18.247L20.383,18.388L20.454,18.528L20.527,18.668L20.601,18.806L20.677,18.943L20.755,19.08L20.834,19.215L20.915,19.349L20.997,19.483L21.081,19.615L21.166,19.746L21.253,19.876L21.342,20.005L21.431,20.132L21.523,20.259L21.616,20.385L21.71,20.509L21.806,20.632L21.903,20.754L22.002,20.875L22.102,20.994L22.204,21.113L22.307,21.23L22.411,21.346L22.516,21.46L22.623,21.573L22.732,21.685L22.841,21.796L22.952,21.906L23.065,22.014L23.178,22.12L23.293,22.226L23.409,22.33L23.526,22.432L23.645,22.534L23.765,22.634L23.886,22.732L24.008,22.829L24.131,22.924L24.256,23.019L24.381,23.111L24.508,23.202L24.636,23.292L24.765,23.38L24.895,23.467L25.026,23.552L25.159,23.635L25.292,23.717L25.426,23.797L25.562,23.876L25.698,23.953L25.836,24.029L25.974,24.103L26.113,24.175L26.254,24.246L26.395,24.315L26.537,24.382L26.68,24.448L26.825,24.512L26.97,24.574L27.116,24.635L27.262,24.693L27.41,24.751L27.558,24.806L27.708,24.859L27.858,24.911L28.009,24.961L28.161,25.009L28.313,25.055L28.467,25.1L28.621,25.142L28.776,25.183L28.931,25.222L29.088,25.259L29.245,25.294L29.403,25.327L29.561,25.358L29.721,25.388L29.88,25.415L30.041,25.441L30.202,25.464L30.364,25.485L30.527,25.505L30.69,25.522L30.854,25.538L31.018,25.551L31.183,25.563L31.348,25.572L31.514,25.579L31.681,25.584L31.848,25.587L32.016,25.588L32.184,25.587L32.351,25.583L32.518,25.578L32.684,25.57L32.849,25.561L33.014,25.549L33.178,25.535L33.342,25.519L33.505,25.502L33.668,25.482L33.829,25.46L33.991,25.436L34.151,25.41L34.311,25.383L34.47,25.353L34.628,25.322L34.786,25.288L34.943,25.253L35.099,25.215L35.255,25.176L35.409,25.135L35.563,25.092L35.716,25.047L35.869,25.001L36.02,24.952L36.171,24.902L36.321,24.85L36.47,24.796L36.619,24.741L36.766,24.683L36.912,24.624L37.058,24.564L37.203,24.501L37.347,24.437L37.49,24.371L37.632,24.303L37.773,24.234L37.913,24.163L38.052,24.091L38.19,24.017L38.327,23.941L38.463,23.863L38.598,23.784L38.732,23.704L38.865,23.622L38.997,23.538L39.128,23.453L39.258,23.366L39.386,23.278L39.514,23.188L39.64,23.097L39.766,23.004L39.89,22.91L40.013,22.814L40.134,22.717L40.255,22.618L40.374,22.518L40.492,22.417L40.609,22.314L40.725,22.21L40.839,22.105L40.952,21.998L41.064,21.89L41.175,21.78L41.284,21.67L41.392,21.557L41.498,21.444L41.604,21.329L41.707,21.214L41.81,21.096L41.911,20.978L42.011,20.859L42.109,20.738L42.206,20.616L42.301,20.493L42.395,20.369L42.487,20.243L42.578,20.117L42.668,19.989L42.756,19.86L42.842,19.73L42.927,19.599L43.011,19.467L43.092,19.334L43.173,19.2L43.251,19.065L43.328,18.929L43.404,18.791L43.478,18.653L43.55,18.514L43.62,18.374L43.689,18.233L43.756,18.091L43.822,17.948L43.886,17.804L43.948,17.659L44.008,17.514L44.067,17.367L44.124,17.22L44.179,17.071L44.233,16.922L44.284,16.772L44.334,16.622L44.382,16.47L44.428,16.318L44.473,16.165L44.515,16.011L44.556,15.856L44.595,15.701L44.631,15.545L44.667,15.388L44.7,15.23L44.731,15.072L44.76,14.913L44.787,14.754L44.813,14.593L44.836,14.432L44.858,14.271L44.877,14.108L44.894,13.946L44.91,13.782L44.923,13.618L44.935,13.453L44.944,13.288L44.951,13.122L44.956,12.956L44.959,12.789L44.96,12.622L44.959,12.454L44.955,12.287L44.95,12.121L44.942,11.955L44.933,11.79L44.921,11.625L44.907,11.461L44.892,11.298L44.874,11.135L44.854,10.973L44.832,10.811L44.808,10.651L44.783,10.49L44.755,10.331L44.725,10.172L44.694,10.014L44.66,9.857L44.625,9.7L44.588,9.544L44.549,9.389L44.508,9.234L44.465,9.081L44.42,8.928L44.374,8.776L44.325,8.624L44.275,8.474L44.223,8.324L44.17,8.175L44.114,8.027L44.057,7.88L43.998,7.734L43.937,7.588L43.875,7.444L43.811,7.3L43.745,7.158L43.678,7.016L43.608,6.875L43.538,6.735L43.465,6.596L43.391,6.459L43.316,6.322L43.238,6.186L43.159,6.051L43.079,5.917L42.997,5.784L42.913,5.653L42.828,5.522L42.742,5.393L42.654,5.264L42.564,5.137L42.473,5.011L42.38,4.886L42.286,4.762L42.191,4.639L42.094,4.518L41.995,4.397L41.896,4.278L41.794,4.16L41.692,4.043L41.588,3.928L41.483,3.814L41.376,3.701L41.268,3.589L41.159,3.479L41.048,3.37L40.936,3.262L40.823,3.156L40.709,3.051L40.593,2.947L40.476,2.845L40.358,2.744L40.239,2.644L40.118,2.546L39.996,2.45L39.874,2.354L39.75,2.261L39.624,2.168L39.498,2.078L39.371,1.988L39.242,1.901L39.112,1.814L38.982,1.729L38.85,1.646L38.717,1.565L38.583,1.485L38.448,1.406L38.312,1.329L38.175,1.254L38.037,1.18L37.898,1.108L37.758,1.038L37.618,0.969L37.476,0.902L37.333,0.836L37.19,0.773L37.045,0.711L36.9,0.65L36.753,0.592L36.606,0.535L36.458,0.48L36.309,0.426L36.16,0.375L36.009,0.325L35.858,0.277L35.706,0.231L35.553,0.187L35.399,0.144L35.245,0.104L35.09,0.065L34.934,0.028L34.778,-0.007L34.62,-0.04L34.462,-0.071L34.304,-0.1L34.144,-0.127L33.984,-0.153L33.824,-0.176L33.662,-0.198L33.5,-0.217L33.338,-0.234L33.175,-0.25L33.011,-0.263L32.847,-0.274L32.682,-0.284L32.516,-0.291L32.35,-0.296L32.183,-0.299L32.008,-0.3L32.009,-0.39L31.848,-0.389Z" style="fill:#cecfeb;"/>
                <path d="M32.147,2.486L32.277,2.489L32.407,2.493L32.536,2.499L32.666,2.506L32.794,2.516L32.923,2.526L33.05,2.539L33.178,2.553L33.305,2.568L33.431,2.585L33.557,2.604L33.683,2.624L33.808,2.646L33.932,2.669L34.056,2.694L34.18,2.72L34.303,2.748L34.425,2.777L34.547,2.808L34.668,2.84L34.788,2.874L34.908,2.909L35.028,2.945L35.146,2.983L35.265,3.023L35.382,3.063L35.499,3.106L35.615,3.149L35.73,3.194L35.845,3.24L35.959,3.288L36.072,3.337L36.185,3.387L36.296,3.439L36.407,3.492L36.518,3.546L36.627,3.601L36.736,3.658L36.844,3.716L36.951,3.775L37.058,3.836L37.163,3.898L37.268,3.961L37.372,4.025L37.475,4.09L37.577,4.157L37.678,4.225L37.779,4.294L37.878,4.364L37.977,4.435L38.075,4.508L38.172,4.581L38.268,4.656L38.363,4.732L38.457,4.809L38.55,4.887L38.642,4.966L38.733,5.046L38.824,5.128L38.913,5.21L39.001,5.293L39.088,5.378L39.175,5.463L39.26,5.55L39.344,5.637L39.427,5.726L39.509,5.815L39.59,5.905L39.67,5.997L39.749,6.089L39.827,6.183L39.903,6.277L39.979,6.372L40.053,6.468L40.127,6.565L40.199,6.663L40.27,6.762L40.34,6.862L40.408,6.962L40.476,7.064L40.542,7.166L40.607,7.269L40.671,7.373L40.734,7.478L40.795,7.584L40.855,7.69L40.914,7.798L40.972,7.906L41.028,8.014L41.083,8.124L41.137,8.234L41.19,8.346L41.241,8.457L41.291,8.57L41.34,8.683L41.387,8.797L41.433,8.912L41.477,9.027L41.52,9.143L41.562,9.26L41.603,9.377L41.642,9.495L41.679,9.614L41.715,9.733L41.75,9.853L41.783,9.974L41.815,10.095L41.845,10.216L41.874,10.339L41.902,10.461L41.927,10.585L41.952,10.708L41.975,10.833L41.996,10.958L42.016,11.083L42.034,11.209L42.051,11.335L42.066,11.462L42.079,11.589L42.091,11.717L42.102,11.845L42.111,11.973L42.118,12.102L42.123,12.232L42.127,12.361L42.13,12.491L42.13,12.622L42.129,12.752L42.127,12.882L42.122,13.012L42.116,13.141L42.109,13.27L42.1,13.398L42.089,13.526L42.077,13.654L42.063,13.781L42.047,13.908L42.03,14.034L42.011,14.159L41.991,14.285L41.97,14.409L41.946,14.534L41.922,14.657L41.895,14.781L41.868,14.903L41.839,15.025L41.808,15.147L41.776,15.268L41.742,15.388L41.707,15.507L41.671,15.627L41.633,15.745L41.594,15.863L41.553,15.98L41.511,16.096L41.467,16.212L41.423,16.327L41.377,16.442L41.329,16.556L41.28,16.669L41.23,16.781L41.179,16.892L41.126,17.003L41.072,17.113L41.016,17.223L40.96,17.331L40.902,17.439L40.843,17.546L40.782,17.652L40.72,17.757L40.658,17.862L40.594,17.965L40.528,18.068L40.462,18.17L40.394,18.271L40.325,18.372L40.255,18.471L40.184,18.569L40.112,18.667L40.038,18.764L39.964,18.859L39.888,18.954L39.811,19.048L39.734,19.141L39.655,19.233L39.575,19.324L39.493,19.414L39.411,19.503L39.328,19.591L39.244,19.678L39.159,19.764L39.072,19.849L38.985,19.933L38.897,20.016L38.808,20.098L38.717,20.179L38.626,20.259L38.534,20.337L38.441,20.415L38.347,20.491L38.252,20.567L38.156,20.641L38.059,20.714L37.961,20.786L37.863,20.857L37.763,20.927L37.663,20.995L37.561,21.062L37.459,21.129L37.356,21.193L37.253,21.257L37.148,21.32L37.043,21.381L36.936,21.441L36.829,21.5L36.722,21.557L36.613,21.614L36.504,21.669L36.393,21.723L36.283,21.775L36.171,21.826L36.059,21.876L35.946,21.924L35.832,21.971L35.718,22.017L35.602,22.062L35.487,22.105L35.37,22.146L35.253,22.187L35.135,22.226L35.017,22.263L34.898,22.299L34.778,22.334L34.658,22.367L34.537,22.399L34.416,22.429L34.294,22.458L34.172,22.485L34.049,22.511L33.925,22.535L33.801,22.558L33.676,22.579L33.551,22.599L33.426,22.617L33.3,22.634L33.173,22.649L33.046,22.663L32.919,22.674L32.791,22.685L32.663,22.694L32.534,22.701L32.405,22.706L32.276,22.71L32.146,22.713L32.016,22.713L31.886,22.712L31.756,22.709L31.627,22.705L31.498,22.699L31.369,22.692L31.241,22.683L31.114,22.672L30.986,22.66L30.859,22.646L30.733,22.63L30.607,22.613L30.482,22.595L30.357,22.575L30.232,22.553L30.108,22.53L29.985,22.505L29.862,22.479L29.74,22.451L29.618,22.422L29.497,22.392L29.376,22.36L29.256,22.326L29.137,22.291L29.018,22.255L28.9,22.217L28.782,22.178L28.665,22.137L28.549,22.095L28.434,22.052L28.319,22.007L28.204,21.961L28.091,21.914L27.978,21.865L27.866,21.815L27.755,21.764L27.644,21.711L27.534,21.657L27.425,21.602L27.317,21.545L27.21,21.487L27.103,21.428L26.997,21.368L26.892,21.307L26.788,21.244L26.684,21.18L26.582,21.115L26.48,21.048L26.379,20.981L26.279,20.912L26.18,20.842L26.082,20.771L25.984,20.699L25.888,20.626L25.792,20.552L25.698,20.476L25.604,20.4L25.511,20.322L25.42,20.243L25.329,20.163L25.239,20.082L25.15,20L25.062,19.917L24.975,19.833L24.889,19.748L24.805,19.662L24.721,19.575L24.638,19.487L24.556,19.398L24.476,19.308L24.396,19.217L24.318,19.125L24.24,19.032L24.164,18.938L24.089,18.843L24.015,18.748L23.942,18.651L23.87,18.553L23.799,18.455L23.73,18.356L23.661,18.256L23.594,18.155L23.528,18.053L23.463,17.95L23.4,17.846L23.337,17.742L23.276,17.637L23.216,17.531L23.158,17.424L23.1,17.317L23.044,17.208L22.989,17.099L22.936,16.989L22.883,16.879L22.832,16.767L22.783,16.655L22.734,16.542L22.687,16.429L22.641,16.315L22.597,16.2L22.554,16.084L22.513,15.968L22.472,15.851L22.434,15.734L22.396,15.616L22.36,15.497L22.326,15.378L22.293,15.258L22.261,15.137L22.231,15.016L22.202,14.894L22.175,14.772L22.149,14.649L22.125,14.526L22.102,14.402L22.081,14.278L22.061,14.153L22.043,14.028L22.026,13.902L22.011,13.776L21.998,13.649L21.986,13.522L21.975,13.395L21.967,13.267L21.959,13.139L21.954,13.01L21.95,12.881L21.948,12.751L21.947,12.622L21.948,12.492L21.951,12.362L21.955,12.233L21.961,12.105L21.968,11.976L21.978,11.849L21.988,11.721L22.001,11.594L22.014,11.467L22.03,11.341L22.047,11.216L22.065,11.091L22.085,10.966L22.107,10.842L22.13,10.718L22.155,10.595L22.181,10.472L22.208,10.35L22.237,10.229L22.268,10.108L22.3,9.987L22.333,9.868L22.368,9.749L22.404,9.63L22.442,9.512L22.481,9.395L22.522,9.278L22.564,9.162L22.607,9.047L22.651,8.932L22.697,8.818L22.745,8.705L22.793,8.593L22.843,8.481L22.895,8.37L22.947,8.26L23.001,8.15L23.056,8.041L23.112,7.933L23.17,7.826L23.229,7.719L23.289,7.614L23.351,7.509L23.413,7.405L23.477,7.302L23.542,7.199L23.608,7.098L23.675,6.997L23.744,6.897L23.814,6.798L23.885,6.7L23.956,6.603L24.03,6.507L24.104,6.412L24.179,6.317L24.256,6.224L24.333,6.131L24.412,6.04L24.491,5.949L24.572,5.86L24.654,5.771L24.737,5.683L24.821,5.597L24.905,5.511L24.991,5.426L25.078,5.343L25.166,5.26L25.255,5.179L25.345,5.098L25.436,5.019L25.527,4.94L25.62,4.863L25.714,4.787L25.808,4.712L25.904,4.638L26,4.565L26.098,4.494L26.196,4.423L26.295,4.354L26.395,4.286L26.496,4.218L26.597,4.153L26.7,4.088L26.803,4.025L26.907,3.962L27.012,3.901L27.118,3.841L27.224,3.783L27.332,3.726L27.44,3.67L27.549,3.615L27.658,3.561L27.769,3.509L27.88,3.458L27.992,3.409L28.104,3.36L28.217,3.313L28.331,3.268L28.446,3.224L28.561,3.181L28.677,3.139L28.794,3.099L28.911,3.061L29.029,3.023L29.147,2.987L29.266,2.953L29.386,2.92L29.506,2.888L29.627,2.858L29.748,2.829L29.87,2.802L29.993,2.777L30.116,2.752L30.239,2.73L30.363,2.708L30.488,2.689L30.613,2.671L30.738,2.654L30.864,2.639L30.991,2.626L31.117,2.614L31.245,2.603L31.372,2.595L31.5,2.587L31.629,2.582L31.757,2.578L31.887,2.576L32.009,2.575L32.024,2.485L32.147,2.486ZM31.916,4.896L31.816,4.898L31.717,4.901L31.618,4.906L31.519,4.911L31.421,4.918L31.323,4.927L31.226,4.936L31.128,4.947L31.032,4.959L30.935,4.972L30.839,4.986L30.744,5.001L30.648,5.018L30.554,5.036L30.459,5.055L30.366,5.075L30.272,5.096L30.179,5.118L30.086,5.142L29.994,5.166L29.903,5.192L29.811,5.218L29.721,5.246L29.63,5.275L29.541,5.305L29.451,5.336L29.363,5.368L29.274,5.401L29.187,5.436L29.099,5.471L29.013,5.507L28.927,5.544L28.841,5.583L28.756,5.622L28.671,5.662L28.587,5.704L28.504,5.746L28.421,5.789L28.339,5.833L28.257,5.879L28.176,5.925L28.096,5.972L28.016,6.02L27.937,6.069L27.858,6.119L27.78,6.17L27.703,6.222L27.627,6.274L27.551,6.328L27.475,6.382L27.401,6.437L27.327,6.494L27.254,6.551L27.181,6.609L27.109,6.667L27.038,6.727L26.968,6.787L26.898,6.849L26.829,6.911L26.761,6.974L26.694,7.037L26.627,7.102L26.562,7.167L26.497,7.233L26.432,7.3L26.369,7.368L26.306,7.436L26.244,7.505L26.184,7.575L26.123,7.645L26.064,7.717L26.006,7.789L25.948,7.861L25.891,7.935L25.835,8.009L25.78,8.083L25.726,8.159L25.673,8.235L25.621,8.312L25.569,8.389L25.519,8.467L25.469,8.546L25.42,8.625L25.373,8.705L25.326,8.786L25.28,8.867L25.235,8.948L25.191,9.031L25.148,9.114L25.107,9.197L25.066,9.281L25.026,9.366L24.987,9.451L24.949,9.536L24.912,9.623L24.876,9.709L24.841,9.796L24.807,9.884L24.775,9.972L24.743,10.061L24.712,10.15L24.683,10.24L24.654,10.33L24.627,10.421L24.6,10.512L24.575,10.604L24.551,10.696L24.528,10.788L24.506,10.881L24.485,10.974L24.466,11.068L24.447,11.162L24.43,11.257L24.414,11.352L24.399,11.447L24.385,11.543L24.372,11.639L24.361,11.736L24.35,11.833L24.341,11.93L24.333,12.028L24.327,12.126L24.321,12.224L24.317,12.323L24.314,12.422L24.312,12.522L24.312,12.622L24.313,12.721L24.315,12.821L24.318,12.92L24.323,13.019L24.328,13.117L24.335,13.215L24.344,13.313L24.353,13.41L24.364,13.507L24.376,13.603L24.389,13.699L24.403,13.795L24.418,13.89L24.435,13.985L24.452,14.08L24.471,14.174L24.491,14.267L24.512,14.361L24.535,14.453L24.558,14.546L24.582,14.637L24.608,14.729L24.635,14.82L24.662,14.91L24.691,15L24.721,15.09L24.752,15.179L24.784,15.267L24.817,15.355L24.851,15.443L24.886,15.53L24.922,15.616L24.96,15.702L24.998,15.787L25.037,15.872L25.077,15.957L25.118,16.04L25.161,16.123L25.204,16.206L25.248,16.288L25.293,16.369L25.339,16.45L25.386,16.53L25.434,16.61L25.483,16.689L25.532,16.767L25.583,16.845L25.635,16.922L25.687,16.998L25.741,17.074L25.795,17.149L25.85,17.223L25.906,17.297L25.963,17.37L26.021,17.442L26.079,17.514L26.139,17.585L26.199,17.655L26.26,17.724L26.322,17.793L26.385,17.861L26.448,17.928L26.512,17.995L26.578,18.06L26.643,18.125L26.71,18.189L26.777,18.252L26.846,18.315L26.914,18.376L26.984,18.437L27.054,18.497L27.125,18.556L27.197,18.615L27.27,18.672L27.343,18.729L27.417,18.784L27.491,18.839L27.566,18.893L27.642,18.946L27.719,18.998L27.796,19.05L27.874,19.1L27.952,19.149L28.031,19.198L28.111,19.246L28.191,19.292L28.272,19.338L28.354,19.383L28.436,19.426L28.518,19.469L28.602,19.511L28.685,19.552L28.77,19.592L28.854,19.63L28.94,19.668L29.026,19.705L29.112,19.741L29.199,19.776L29.287,19.809L29.375,19.842L29.463,19.874L29.552,19.904L29.642,19.934L29.732,19.962L29.822,19.989L29.913,20.016L30.004,20.041L30.096,20.065L30.188,20.088L30.281,20.11L30.374,20.13L30.467,20.15L30.561,20.168L30.656,20.186L30.75,20.202L30.845,20.217L30.941,20.231L31.037,20.243L31.133,20.255L31.23,20.265L31.327,20.274L31.424,20.282L31.522,20.289L31.62,20.294L31.719,20.298L31.817,20.301L31.917,20.303L32.016,20.303L32.116,20.302L32.215,20.3L32.314,20.297L32.412,20.293L32.51,20.287L32.608,20.28L32.705,20.272L32.802,20.262L32.899,20.251L32.995,20.24L33.091,20.227L33.186,20.213L33.281,20.197L33.376,20.181L33.47,20.163L33.564,20.144L33.657,20.124L33.75,20.103L33.842,20.081L33.935,20.058L34.026,20.034L34.117,20.008L34.208,19.981L34.298,19.954L34.388,19.925L34.477,19.895L34.566,19.864L34.654,19.833L34.742,19.8L34.829,19.766L34.916,19.731L35.002,19.695L35.088,19.657L35.173,19.619L35.257,19.58L35.341,19.54L35.425,19.499L35.508,19.457L35.59,19.414L35.672,19.37L35.753,19.325L35.833,19.279L35.913,19.232L35.993,19.185L36.071,19.136L36.15,19.086L36.227,19.036L36.304,18.984L36.38,18.932L36.455,18.879L36.53,18.825L36.604,18.77L36.678,18.714L36.751,18.657L36.823,18.599L36.894,18.541L36.965,18.482L37.035,18.422L37.104,18.361L37.172,18.299L37.24,18.237L37.307,18.173L37.373,18.109L37.439,18.044L37.503,17.979L37.567,17.912L37.63,17.845L37.693,17.777L37.754,17.708L37.815,17.639L37.874,17.569L37.933,17.498L37.992,17.426L38.049,17.354L38.105,17.281L38.161,17.207L38.215,17.133L38.269,17.058L38.322,16.983L38.374,16.906L38.425,16.829L38.476,16.752L38.525,16.673L38.573,16.595L38.621,16.515L38.667,16.435L38.713,16.355L38.757,16.273L38.801,16.191L38.844,16.109L38.885,16.026L38.926,15.943L38.966,15.859L39.004,15.774L39.042,15.689L39.079,15.603L39.114,15.517L39.149,15.43L39.183,15.343L39.215,15.255L39.247,15.167L39.277,15.078L39.307,14.989L39.335,14.899L39.362,14.809L39.389,14.719L39.414,14.628L39.438,14.536L39.46,14.444L39.482,14.352L39.503,14.259L39.522,14.166L39.541,14.072L39.558,13.978L39.574,13.884L39.589,13.789L39.603,13.694L39.615,13.598L39.627,13.502L39.637,13.406L39.646,13.309L39.654,13.212L39.661,13.114L39.666,13.016L39.67,12.918L39.673,12.82L39.675,12.721L39.675,12.622L39.674,12.522L39.672,12.424L39.669,12.325L39.665,12.227L39.659,12.129L39.652,12.032L39.644,11.935L39.634,11.838L39.624,11.742L39.612,11.646L39.599,11.55L39.585,11.455L39.569,11.36L39.553,11.266L39.535,11.172L39.517,11.078L39.497,10.985L39.476,10.893L39.454,10.801L39.431,10.709L39.406,10.618L39.381,10.527L39.354,10.436L39.327,10.346L39.298,10.257L39.268,10.168L39.238,10.079L39.206,9.991L39.173,9.904L39.139,9.817L39.104,9.731L39.068,9.645L39.031,9.559L38.993,9.474L38.954,9.39L38.914,9.306L38.873,9.223L38.832,9.14L38.789,9.058L38.745,8.977L38.7,8.896L38.654,8.815L38.607,8.736L38.56,8.657L38.511,8.578L38.462,8.5L38.411,8.423L38.36,8.347L38.308,8.271L38.255,8.195L38.201,8.121L38.146,8.047L38.09,7.974L38.034,7.901L37.976,7.829L37.918,7.758L37.859,7.687L37.799,7.618L37.738,7.549L37.677,7.48L37.615,7.413L37.551,7.346L37.487,7.28L37.423,7.215L37.357,7.15L37.291,7.087L37.224,7.024L37.156,6.962L37.088,6.901L37.019,6.84L36.949,6.78L36.878,6.722L36.807,6.664L36.735,6.607L36.662,6.55L36.588,6.495L36.514,6.44L36.44,6.387L36.364,6.334L36.288,6.282L36.211,6.231L36.134,6.181L36.056,6.132L35.977,6.084L35.898,6.036L35.818,5.99L35.738,5.945L35.657,5.9L35.575,5.857L35.493,5.814L35.411,5.773L35.327,5.732L35.243,5.692L35.159,5.654L35.074,5.616L34.989,5.58L34.903,5.544L34.816,5.51L34.729,5.476L34.642,5.444L34.554,5.412L34.466,5.382L34.377,5.352L34.287,5.324L34.197,5.297L34.107,5.271L34.016,5.246L33.925,5.222L33.833,5.199L33.741,5.177L33.649,5.157L33.556,5.137L33.462,5.119L33.369,5.102L33.275,5.086L33.18,5.071L33.085,5.057L32.99,5.045L32.894,5.033L32.798,5.023L32.701,5.014L32.605,5.006L32.507,5L32.41,4.994L32.312,4.99L32.214,4.987L32.115,4.985L32.008,4.985L32.009,4.895L31.916,4.896Z" style="fill:#cecfeb;"/>
            </g>
        </g>
        <path d="M10,29.518L35,16.237" style="fill:none;stroke:#aaacdd;stroke-width:2px;"/>
        <path d="M54,60.518C54.796,60.518 55.559,60.202 56.121,59.639C56.684,59.077 57,58.314 57,57.518C57,51.072 57,35.964 57,29.518C57,28.722 56.684,27.959 56.121,27.397C55.559,26.834 54.796,26.518 54,26.518C45.098,26.518 18.902,26.518 10,26.518C9.204,26.518 8.441,26.834 7.879,27.397C7.316,27.959 7,28.722 7,29.518C7,35.964 7,51.072 7,57.518C7,58.314 7.316,59.077 7.879,59.639C8.441,60.202 9.204,60.518 10,60.518C18.902,60.518 45.098,60.518 54,60.518Z" style="fill:#39b54a;"/>
        <clipPath id="_clip3">
            <path d="M54,60.518C54.796,60.518 55.559,60.202 56.121,59.639C56.684,59.077 57,58.314 57,57.518C57,51.072 57,35.964 57,29.518C57,28.722 56.684,27.959 56.121,27.397C55.559,26.834 54.796,26.518 54,26.518C45.098,26.518 18.902,26.518 10,26.518C9.204,26.518 8.441,26.834 7.879,27.397C7.316,27.959 7,28.722 7,29.518C7,35.964 7,51.072 7,57.518C7,58.314 7.316,59.077 7.879,59.639C8.441,60.202 9.204,60.518 10,60.518C18.902,60.518 45.098,60.518 54,60.518Z"/>
        </clipPath>
        <g clip-path="url(#_clip3)">
            <path d="M60,28.307L4,60.518L4,67.676L60,67.676L60,28.307Z" style="fill:#2b307e;fill-opacity:0.152941;"/>
        </g>
        <circle cx="42" cy="43.518" r="10" style="fill:#7f82bd;"/>
        <clipPath id="_clip4">
            <circle cx="42" cy="43.518" r="10"/>
        </clipPath>
        <g clip-path="url(#_clip4)">
            <path d="M60,28.307L4,60.518L4,67.676L60,67.676L60,28.307Z" style="fill:#2b307e;fill-opacity:0.643137;"/>
        </g>
        <rect x="10.741" y="36.058" width="17.259" height="2.998" style="fill:#fff;"/>
        <rect x="10.741" y="42.127" width="17.259" height="2.998" style="fill:#fff;"/>
        <rect x="10.741" y="47.979" width="17.259" height="2.998" style="fill:#fff;"/>
    </g>
</svg>
