<?xml version="1.0" encoding="UTF-8" standalone="no"?>
<!DOCTYPE svg PUBLIC "-//W3C//DTD SVG 1.1//EN" "http://www.w3.org/Graphics/SVG/1.1/DTD/svg11.dtd">
<svg width="100%" height="100%" viewBox="0 0 65 64" version="1.1" xmlns="http://www.w3.org/2000/svg" xmlns:xlink="http://www.w3.org/1999/xlink" xml:space="preserve" xmlns:serif="http://www.serif.com/" style="fill-rule:evenodd;clip-rule:evenodd;stroke-linecap:round;stroke-miterlimit:1;">
    <rect id="Risk-Communication-muted" serif:id="Risk Communication-muted" x="0.738" y="0" width="64" height="64" style="fill:none;"/>
    <clipPath id="_clip1">
        <rect x="0.738" y="0" width="64" height="64"/>
    </clipPath>
    <g clip-path="url(#_clip1)">
        <path d="M10.795,-0.545L-11.262,11.727L10.795,24L32.851,11.727L10.795,-0.545ZM54.927,-0.545L32.871,11.727L54.927,24L76.983,11.727L54.927,-0.545Z" style="fill:none;"/>
        <clipPath id="_clip2">
            <path d="M10.795,-0.545L-11.262,11.727L10.795,24L32.851,11.727L10.795,-0.545ZM54.927,-0.545L32.871,11.727L54.927,24L76.983,11.727L54.927,-0.545Z"/>
        </clipPath>
        <g clip-path="url(#_clip2)">
            <g>
                <path d="M32.891,-9.229L33.027,-9.227L33.163,-9.225L33.299,-9.222L33.434,-9.218L33.57,-9.213L33.705,-9.208L33.84,-9.201L33.975,-9.194L34.109,-9.186L34.244,-9.176L34.378,-9.167L34.512,-9.156L34.645,-9.144L34.779,-9.132L34.912,-9.119L35.045,-9.105L35.177,-9.09L35.31,-9.074L35.442,-9.058L35.574,-9.04L35.706,-9.022L35.837,-9.003L35.968,-8.984L36.099,-8.963L36.23,-8.942L36.36,-8.92L36.491,-8.897L36.62,-8.873L36.75,-8.848L36.879,-8.823L37.008,-8.797L37.137,-8.77L37.266,-8.742L37.394,-8.714L37.522,-8.685L37.649,-8.655L37.777,-8.624L37.904,-8.592L38.03,-8.56L38.157,-8.527L38.283,-8.493L38.409,-8.459L38.534,-8.423L38.659,-8.387L38.784,-8.35L38.908,-8.313L39.033,-8.274L39.156,-8.235L39.28,-8.196L39.403,-8.155L39.526,-8.114L39.649,-8.072L39.771,-8.029L39.893,-7.986L40.016,-7.941L40.256,-7.851L40.496,-7.757L40.736,-7.661L40.973,-7.562L41.209,-7.46L41.444,-7.356L41.677,-7.248L41.909,-7.138L42.139,-7.025L42.367,-6.91L42.594,-6.792L42.819,-6.671L43.043,-6.547L43.264,-6.421L43.485,-6.293L43.703,-6.161L43.92,-6.028L44.135,-5.891L44.348,-5.753L44.56,-5.611L44.769,-5.468L44.977,-5.322L45.183,-5.173L45.387,-5.022L45.589,-4.869L45.789,-4.713L45.988,-4.555L46.184,-4.394L46.379,-4.232L46.571,-4.067L46.761,-3.9L46.95,-3.73L47.136,-3.559L47.32,-3.385L47.502,-3.209L47.682,-3.031L47.86,-2.85L48.036,-2.668L48.21,-2.484L48.381,-2.297L48.55,-2.109L48.717,-1.918L48.882,-1.725L49.044,-1.531L49.204,-1.334L49.362,-1.136L49.517,-0.935L49.67,-0.733L49.821,-0.529L49.969,-0.322L50.115,-0.115L50.259,0.095L50.399,0.307L50.538,0.52L50.674,0.735L50.807,0.952L50.938,1.171L51.066,1.391L51.192,1.613L51.315,1.837L51.436,2.062L51.554,2.289L51.669,2.517L51.781,2.747L51.891,2.979L51.998,3.212L52.102,3.447L52.204,3.683L52.302,3.92L52.398,4.16L52.491,4.4L52.581,4.64L52.625,4.763L52.669,4.885L52.711,5.007L52.753,5.13L52.794,5.253L52.834,5.376L52.874,5.499L52.913,5.623L52.951,5.747L52.988,5.872L53.025,5.997L53.061,6.122L53.096,6.247L53.13,6.373L53.164,6.499L53.197,6.625L53.229,6.752L53.26,6.879L53.291,7.006L53.321,7.134L53.35,7.261L53.378,7.39L53.406,7.518L53.432,7.647L53.458,7.776L53.483,7.905L53.508,8.034L53.531,8.164L53.554,8.294L53.576,8.425L53.597,8.555L53.617,8.686L53.637,8.817L53.656,8.949L53.674,9.08L53.691,9.212L53.707,9.344L53.722,9.476L53.737,9.609L53.751,9.742L53.764,9.875L53.776,10.008L53.787,10.142L53.798,10.276L53.808,10.41L53.817,10.544L53.825,10.678L53.832,10.813L53.838,10.948L53.844,11.083L53.848,11.218L53.852,11.353L53.855,11.489L53.857,11.625L53.858,11.761L53.858,11.897L53.858,12.034L53.857,12.17L53.854,12.305L53.851,12.441L53.847,12.577L53.842,12.712L53.837,12.847L53.83,12.982L53.823,13.116L53.815,13.251L53.806,13.385L53.796,13.519L53.785,13.653L53.774,13.786L53.761,13.919L53.748,14.052L53.734,14.185L53.719,14.318L53.703,14.45L53.687,14.582L53.67,14.714L53.652,14.846L53.633,14.977L53.613,15.108L53.592,15.239L53.571,15.369L53.549,15.5L53.526,15.63L53.502,15.759L53.478,15.889L53.453,16.018L53.427,16.147L53.4,16.275L53.372,16.404L53.344,16.532L53.314,16.66L53.284,16.787L53.254,16.914L53.222,17.041L53.19,17.168L53.157,17.294L53.123,17.42L53.089,17.545L53.053,17.671L53.017,17.796L52.98,17.92L52.943,18.045L52.905,18.169L52.866,18.293L52.826,18.416L52.785,18.539L52.744,18.662L52.702,18.784L52.659,18.906L52.616,19.028L52.571,19.151L52.481,19.391L52.388,19.631L52.292,19.87L52.193,20.107L52.091,20.343L51.987,20.578L51.88,20.81L51.77,21.042L51.657,21.272L51.541,21.5L51.423,21.726L51.303,21.951L51.179,22.175L51.053,22.396L50.925,22.616L50.794,22.834L50.66,23.051L50.524,23.266L50.386,23.479L50.244,23.69L50.101,23.899L49.955,24.107L49.806,24.313L49.656,24.516L49.502,24.718L49.347,24.918L49.189,25.117L49.029,25.313L48.866,25.507L48.702,25.699L48.535,25.889L48.365,26.078L48.194,26.264L48.02,26.448L47.844,26.63L47.667,26.809L47.486,26.987L47.304,27.163L47.12,27.336L46.934,27.507L46.745,27.676L46.555,27.843L46.362,28.007L46.168,28.17L45.972,28.33L45.773,28.487L45.573,28.642L45.371,28.795L45.167,28.946L44.961,29.094L44.753,29.24L44.544,29.383L44.332,29.524L44.119,29.662L43.904,29.798L43.688,29.931L43.469,30.062L43.249,30.19L43.028,30.315L42.804,30.438L42.579,30.559L42.353,30.676L42.124,30.791L41.895,30.904L41.663,31.013L41.43,31.12L41.196,31.224L40.96,31.326L40.723,31.424L40.484,31.52L40.244,31.613L40.004,31.702L39.881,31.747L39.759,31.79L39.637,31.833L39.515,31.875L39.392,31.916L39.269,31.956L39.145,31.995L39.022,32.034L38.898,32.072L38.773,32.11L38.649,32.146L38.524,32.182L38.399,32.217L38.273,32.252L38.147,32.285L38.021,32.318L37.894,32.35L37.768,32.381L37.64,32.412L37.513,32.442L37.385,32.471L37.257,32.499L37.129,32.526L37,32.553L36.872,32.579L36.743,32.604L36.613,32.628L36.484,32.652L36.354,32.675L36.223,32.697L36.093,32.718L35.962,32.738L35.831,32.757L35.7,32.776L35.569,32.794L35.437,32.811L35.305,32.828L35.173,32.843L35.04,32.858L34.907,32.871L34.775,32.884L34.641,32.897L34.508,32.908L34.374,32.918L34.241,32.928L34.106,32.937L33.972,32.945L33.838,32.952L33.703,32.958L33.568,32.964L33.433,32.969L33.298,32.972L33.162,32.975L33.026,32.977L32.89,32.979L32.754,32.979L32.618,32.978L32.482,32.977L32.347,32.975L32.211,32.972L32.076,32.968L31.941,32.963L31.806,32.957L31.671,32.951L31.537,32.943L31.402,32.935L31.268,32.926L31.135,32.916L31.001,32.906L30.868,32.894L30.734,32.882L30.602,32.869L30.469,32.855L30.336,32.84L30.204,32.824L30.072,32.808L29.941,32.79L29.809,32.772L29.678,32.753L29.547,32.734L29.417,32.713L29.286,32.692L29.156,32.67L29.026,32.647L28.897,32.623L28.767,32.599L28.638,32.573L28.509,32.547L28.381,32.521L28.253,32.493L28.125,32.465L27.997,32.435L27.87,32.405L27.743,32.375L27.616,32.343L27.49,32.311L27.364,32.278L27.238,32.244L27.112,32.21L26.987,32.175L26.862,32.139L26.738,32.102L26.613,32.064L26.49,32.026L26.366,31.987L26.243,31.947L26.12,31.907L25.997,31.866L25.875,31.824L25.753,31.781L25.631,31.738L25.508,31.693L25.269,31.603L25.029,31.51L24.79,31.414L24.553,31.315L24.318,31.214L24.083,31.109L23.851,31.002L23.62,30.892L23.39,30.78L23.162,30.664L22.936,30.546L22.711,30.426L22.488,30.303L22.267,30.177L22.047,30.049L21.829,29.918L21.613,29.784L21.398,29.648L21.185,29.51L20.974,29.369L20.765,29.225L20.558,29.079L20.352,28.931L20.149,28.78L19.947,28.627L19.747,28.472L19.549,28.314L19.353,28.154L19.159,27.992L18.967,27.827L18.777,27.661L18.589,27.492L18.403,27.32L18.22,27.147L18.038,26.971L17.858,26.794L17.681,26.614L17.505,26.432L17.332,26.248L17.161,26.061L16.992,25.873L16.826,25.683L16.662,25.491L16.499,25.297L16.34,25.1L16.182,24.902L16.027,24.702L15.875,24.5L15.724,24.297L15.576,24.091L15.431,23.883L15.288,23.674L15.147,23.463L15.009,23.25L14.873,23.035L14.74,22.819L14.609,22.601L14.481,22.381L14.356,22.16L14.233,21.936L14.113,21.712L13.995,21.485L13.88,21.257L13.768,21.028L13.659,20.797L13.552,20.564L13.448,20.33L13.347,20.094L13.248,19.857L13.153,19.619L13.06,19.379L12.97,19.139L12.926,19.016L12.883,18.894L12.84,18.773L12.799,18.65L12.758,18.528L12.717,18.405L12.678,18.282L12.639,18.158L12.601,18.034L12.564,17.91L12.527,17.785L12.491,17.661L12.456,17.535L12.422,17.41L12.388,17.284L12.355,17.158L12.323,17.032L12.292,16.905L12.262,16.778L12.232,16.651L12.203,16.523L12.175,16.395L12.147,16.267L12.121,16.139L12.095,16.01L12.07,15.881L12.046,15.752L12.022,15.622L11.999,15.493L11.977,15.363L11.956,15.232L11.936,15.102L11.917,14.971L11.898,14.84L11.88,14.709L11.863,14.577L11.847,14.445L11.831,14.313L11.817,14.181L11.803,14.048L11.79,13.915L11.778,13.782L11.766,13.649L11.756,13.516L11.746,13.382L11.737,13.248L11.729,13.114L11.722,12.979L11.716,12.845L11.71,12.71L11.706,12.575L11.702,12.44L11.699,12.305L11.697,12.169L11.696,12.033L11.695,11.897L11.696,11.761L11.697,11.626L11.7,11.49L11.703,11.355L11.707,11.219L11.711,11.085L11.717,10.95L11.724,10.815L11.731,10.681L11.739,10.547L11.748,10.413L11.758,10.279L11.769,10.146L11.78,10.013L11.792,9.88L11.806,9.747L11.82,9.614L11.834,9.482L11.85,9.35L11.866,9.218L11.884,9.087L11.902,8.955L11.921,8.824L11.94,8.694L11.961,8.563L11.982,8.433L12.004,8.303L12.027,8.173L12.051,8.044L12.075,7.914L12.1,7.786L12.126,7.657L12.153,7.529L12.181,7.401L12.209,7.273L12.238,7.145L12.268,7.018L12.299,6.891L12.33,6.765L12.362,6.638L12.395,6.512L12.429,6.387L12.464,6.261L12.499,6.136L12.535,6.011L12.572,5.887L12.609,5.763L12.647,5.639L12.686,5.516L12.726,5.393L12.766,5.27L12.807,5.147L12.849,5.025L12.892,4.903L12.935,4.782L12.98,4.659L13.069,4.42L13.163,4.18L13.258,3.942L13.357,3.705L13.459,3.47L13.563,3.236L13.67,3.003L13.78,2.772L13.892,2.543L14.007,2.316L14.125,2.089L14.246,1.865L14.369,1.642L14.494,1.421L14.623,1.201L14.753,0.984L14.887,0.768L15.023,0.553L15.161,0.341L15.302,0.13L15.445,-0.079L15.591,-0.286L15.739,-0.491L15.889,-0.695L16.042,-0.896L16.197,-1.096L16.355,-1.294L16.515,-1.489L16.677,-1.683L16.841,-1.875L17.008,-2.065L17.177,-2.253L17.348,-2.438L17.521,-2.622L17.697,-2.803L17.874,-2.983L18.054,-3.16L18.236,-3.335L18.42,-3.508L18.605,-3.679L18.793,-3.848L18.983,-4.014L19.175,-4.178L19.369,-4.34L19.565,-4.5L19.763,-4.657L19.963,-4.812L20.165,-4.964L20.368,-5.115L20.574,-5.262L20.781,-5.408L20.99,-5.551L21.201,-5.691L21.414,-5.829L21.628,-5.965L21.844,-6.098L22.062,-6.228L22.282,-6.356L22.503,-6.481L22.726,-6.604L22.951,-6.724L23.177,-6.842L23.404,-6.956L23.634,-7.069L23.865,-7.178L24.097,-7.285L24.331,-7.389L24.566,-7.49L24.803,-7.588L25.041,-7.684L25.281,-7.776L25.521,-7.865L25.643,-7.91L25.765,-7.953L25.887,-7.995L26.009,-8.037L26.131,-8.078L26.254,-8.118L26.377,-8.158L26.5,-8.197L26.624,-8.235L26.748,-8.272L26.873,-8.308L26.997,-8.344L27.122,-8.379L27.248,-8.413L27.373,-8.447L27.499,-8.48L27.625,-8.512L27.752,-8.543L27.879,-8.573L28.006,-8.603L28.133,-8.632L28.261,-8.66L28.389,-8.688L28.517,-8.714L28.646,-8.74L28.775,-8.765L28.904,-8.789L29.033,-8.813L29.163,-8.836L29.293,-8.857L29.423,-8.878L29.553,-8.899L29.684,-8.918L29.815,-8.937L29.946,-8.955L30.078,-8.972L30.209,-8.988L30.341,-9.004L30.473,-9.018L30.606,-9.032L30.738,-9.045L30.871,-9.057L31.004,-9.068L31.138,-9.079L31.271,-9.089L31.405,-9.097L31.539,-9.105L31.673,-9.112L31.808,-9.119L31.942,-9.124L32.077,-9.129L32.212,-9.133L32.348,-9.136L32.483,-9.138L32.619,-9.139L32.751,-9.139L32.758,-9.229L32.891,-9.229ZM32.633,-6.819L32.512,-6.818L32.392,-6.816L32.271,-6.813L32.151,-6.809L32.031,-6.805L31.911,-6.8L31.791,-6.794L31.671,-6.788L31.552,-6.781L31.433,-6.773L31.314,-6.764L31.196,-6.754L31.077,-6.744L30.959,-6.733L30.841,-6.721L30.723,-6.709L30.605,-6.696L30.488,-6.682L30.371,-6.667L30.254,-6.652L30.137,-6.636L30.021,-6.619L29.905,-6.601L29.789,-6.583L29.673,-6.564L29.558,-6.545L29.442,-6.524L29.327,-6.503L29.213,-6.482L29.098,-6.459L28.984,-6.436L28.87,-6.412L28.756,-6.388L28.643,-6.363L28.53,-6.337L28.417,-6.31L28.304,-6.283L28.192,-6.255L28.08,-6.226L27.968,-6.197L27.856,-6.167L27.745,-6.137L27.634,-6.105L27.523,-6.073L27.413,-6.041L27.302,-6.007L27.192,-5.974L27.083,-5.939L26.974,-5.904L26.864,-5.868L26.756,-5.831L26.647,-5.794L26.539,-5.756L26.431,-5.718L26.326,-5.679L26.11,-5.599L25.897,-5.516L25.685,-5.431L25.475,-5.343L25.266,-5.253L25.058,-5.16L24.852,-5.065L24.647,-4.967L24.443,-4.868L24.241,-4.765L24.04,-4.661L23.841,-4.554L23.643,-4.444L23.446,-4.332L23.251,-4.219L23.057,-4.102L22.865,-3.984L22.675,-3.863L22.486,-3.74L22.299,-3.615L22.113,-3.487L21.929,-3.358L21.746,-3.226L21.565,-3.092L21.386,-2.956L21.209,-2.818L21.033,-2.678L20.859,-2.536L20.686,-2.392L20.516,-2.246L20.347,-2.097L20.18,-1.947L20.015,-1.795L19.851,-1.641L19.69,-1.485L19.53,-1.327L19.373,-1.167L19.217,-1.005L19.063,-0.842L18.911,-0.676L18.761,-0.509L18.613,-0.34L18.467,-0.169L18.323,0.003L18.181,0.178L18.041,0.354L17.904,0.531L17.768,0.711L17.635,0.892L17.503,1.074L17.374,1.259L17.247,1.445L17.122,1.632L16.999,1.821L16.879,2.012L16.761,2.204L16.645,2.398L16.531,2.593L16.42,2.789L16.311,2.987L16.204,3.187L16.1,3.388L15.998,3.59L15.898,3.794L15.801,3.999L15.706,4.205L15.614,4.413L15.524,4.622L15.437,4.833L15.352,5.044L15.27,5.257L15.189,5.473L15.151,5.579L15.113,5.686L15.075,5.795L15.038,5.903L15.002,6.012L14.966,6.121L14.931,6.23L14.897,6.339L14.863,6.449L14.83,6.56L14.798,6.67L14.766,6.781L14.735,6.892L14.704,7.003L14.675,7.114L14.645,7.226L14.617,7.338L14.589,7.451L14.562,7.563L14.536,7.676L14.51,7.789L14.485,7.903L14.461,8.016L14.437,8.13L14.414,8.244L14.392,8.359L14.371,8.474L14.35,8.588L14.33,8.704L14.31,8.819L14.292,8.935L14.274,9.05L14.256,9.167L14.24,9.283L14.224,9.399L14.209,9.516L14.194,9.633L14.18,9.751L14.168,9.868L14.155,9.986L14.144,10.104L14.133,10.222L14.123,10.34L14.114,10.459L14.105,10.577L14.097,10.696L14.09,10.816L14.084,10.935L14.078,11.055L14.073,11.174L14.069,11.294L14.066,11.415L14.063,11.535L14.061,11.656L14.06,11.776L14.06,11.897L14.061,12.018L14.062,12.139L14.064,12.26L14.067,12.38L14.07,12.5L14.074,12.62L14.079,12.74L14.085,12.86L14.092,12.979L14.099,13.098L14.107,13.217L14.116,13.336L14.125,13.454L14.136,13.573L14.146,13.691L14.158,13.809L14.171,13.926L14.184,14.044L14.198,14.161L14.212,14.278L14.228,14.395L14.244,14.511L14.26,14.627L14.278,14.744L14.296,14.859L14.315,14.975L14.335,15.09L14.355,15.205L14.376,15.32L14.398,15.435L14.42,15.549L14.443,15.663L14.467,15.777L14.491,15.891L14.516,16.004L14.542,16.117L14.569,16.23L14.596,16.342L14.624,16.455L14.652,16.567L14.682,16.678L14.712,16.79L14.742,16.901L14.773,17.012L14.805,17.122L14.838,17.233L14.871,17.343L14.905,17.453L14.94,17.562L14.975,17.671L15.011,17.78L15.047,17.889L15.084,17.997L15.122,18.105L15.16,18.213L15.199,18.318L15.28,18.534L15.362,18.747L15.447,18.958L15.535,19.168L15.625,19.377L15.718,19.584L15.812,19.79L15.91,19.995L16.01,20.199L16.112,20.401L16.216,20.601L16.323,20.8L16.433,20.998L16.544,21.194L16.658,21.389L16.774,21.583L16.892,21.774L17.013,21.965L17.136,22.153L17.261,22.34L17.388,22.526L17.518,22.71L17.649,22.892L17.783,23.073L17.919,23.252L18.057,23.429L18.196,23.605L18.338,23.779L18.483,23.951L18.629,24.121L18.777,24.29L18.927,24.457L19.079,24.622L19.233,24.785L19.388,24.946L19.546,25.105L19.706,25.263L19.867,25.419L20.031,25.572L20.196,25.724L20.363,25.874L20.532,26.022L20.702,26.167L20.875,26.311L21.049,26.453L21.225,26.592L21.402,26.73L21.581,26.866L21.762,26.999L21.945,27.13L22.129,27.259L22.314,27.386L22.502,27.511L22.69,27.633L22.881,27.754L23.073,27.872L23.266,27.987L23.461,28.101L23.657,28.212L23.855,28.321L24.055,28.428L24.255,28.532L24.457,28.634L24.661,28.733L24.866,28.83L25.072,28.925L25.279,29.017L25.488,29.107L25.698,29.194L25.909,29.279L26.122,29.361L26.338,29.441L26.443,29.479L26.551,29.518L26.659,29.555L26.767,29.592L26.876,29.628L26.985,29.664L27.094,29.699L27.203,29.733L27.313,29.767L27.423,29.8L27.533,29.833L27.644,29.864L27.755,29.895L27.866,29.926L27.977,29.955L28.089,29.984L28.201,30.013L28.313,30.04L28.426,30.067L28.538,30.094L28.651,30.119L28.765,30.144L28.878,30.169L28.992,30.192L29.106,30.215L29.22,30.237L29.335,30.259L29.449,30.28L29.564,30.3L29.68,30.319L29.795,30.338L29.911,30.356L30.027,30.373L30.143,30.39L30.26,30.406L30.376,30.421L30.493,30.435L30.61,30.449L30.728,30.462L30.845,30.474L30.963,30.486L31.081,30.496L31.199,30.506L31.317,30.516L31.436,30.524L31.555,30.532L31.674,30.539L31.793,30.545L31.913,30.551L32.032,30.556L32.152,30.56L32.272,30.563L32.392,30.566L32.513,30.568L32.634,30.569L32.754,30.569L32.875,30.569L32.996,30.567L33.116,30.565L33.237,30.563L33.357,30.559L33.476,30.555L33.596,30.55L33.715,30.544L33.835,30.537L33.954,30.53L34.073,30.522L34.191,30.513L34.31,30.504L34.428,30.494L34.546,30.483L34.663,30.471L34.781,30.459L34.898,30.446L35.015,30.432L35.132,30.417L35.249,30.402L35.365,30.386L35.481,30.369L35.597,30.352L35.713,30.333L35.828,30.315L35.943,30.295L36.058,30.275L36.173,30.254L36.288,30.232L36.402,30.21L36.516,30.187L36.629,30.163L36.743,30.138L36.856,30.113L36.969,30.087L37.082,30.061L37.194,30.034L37.306,30.006L37.418,29.977L37.53,29.948L37.641,29.918L37.752,29.888L37.863,29.857L37.973,29.825L38.083,29.792L38.193,29.759L38.303,29.725L38.412,29.691L38.521,29.655L38.63,29.62L38.739,29.583L38.847,29.546L38.955,29.508L39.062,29.47L39.168,29.432L39.383,29.351L39.595,29.269L39.806,29.184L40.016,29.096L40.225,29.006L40.432,28.914L40.638,28.819L40.842,28.722L41.046,28.622L41.247,28.52L41.448,28.415L41.647,28.309L41.844,28.199L42.04,28.088L42.235,27.974L42.428,27.858L42.619,27.74L42.81,27.62L42.998,27.497L43.185,27.372L43.37,27.245L43.554,27.116L43.736,26.984L43.916,26.851L44.095,26.715L44.272,26.577L44.448,26.438L44.621,26.296L44.793,26.152L44.963,26.006L45.132,25.858L45.298,25.708L45.463,25.557L45.626,25.403L45.787,25.247L45.947,25.089L46.104,24.93L46.259,24.769L46.413,24.606L46.564,24.441L46.714,24.274L46.862,24.105L47.007,23.935L47.151,23.763L47.292,23.589L47.432,23.413L47.569,23.236L47.705,23.057L47.838,22.876L47.969,22.694L48.098,22.51L48.225,22.325L48.349,22.138L48.471,21.949L48.592,21.759L48.71,21.567L48.825,21.374L48.939,21.179L49.05,20.983L49.158,20.786L49.265,20.587L49.369,20.386L49.471,20.184L49.57,19.981L49.667,19.777L49.761,19.571L49.853,19.363L49.943,19.155L50.03,18.945L50.115,18.734L50.197,18.522L50.277,18.306L50.315,18.201L50.353,18.093L50.391,17.985L50.428,17.877L50.464,17.769L50.5,17.66L50.535,17.551L50.569,17.442L50.603,17.332L50.636,17.222L50.668,17.112L50.7,17.002L50.731,16.891L50.761,16.78L50.791,16.669L50.82,16.557L50.848,16.445L50.876,16.333L50.903,16.221L50.929,16.108L50.955,15.995L50.979,15.882L51.004,15.769L51.027,15.655L51.05,15.541L51.072,15.427L51.094,15.313L51.115,15.198L51.135,15.083L51.154,14.968L51.173,14.853L51.191,14.737L51.208,14.622L51.224,14.505L51.24,14.389L51.255,14.273L51.27,14.156L51.283,14.039L51.296,13.922L51.309,13.804L51.32,13.687L51.331,13.569L51.341,13.451L51.35,13.333L51.359,13.214L51.367,13.095L51.374,12.976L51.38,12.857L51.386,12.738L51.39,12.619L51.395,12.499L51.398,12.379L51.4,12.259L51.402,12.138L51.403,12.018L51.404,11.897L51.403,11.777L51.402,11.656L51.4,11.536L51.397,11.416L51.394,11.296L51.389,11.176L51.384,11.057L51.379,10.937L51.372,10.818L51.365,10.699L51.357,10.581L51.348,10.462L51.339,10.344L51.328,10.226L51.317,10.108L51.306,9.991L51.293,9.873L51.28,9.756L51.266,9.639L51.252,9.522L51.236,9.406L51.22,9.29L51.204,9.174L51.186,9.058L51.168,8.942L51.149,8.827L51.13,8.712L51.11,8.597L51.089,8.483L51.067,8.368L51.045,8.254L51.022,8.141L50.998,8.027L50.973,7.914L50.948,7.801L50.923,7.688L50.896,7.575L50.869,7.463L50.841,7.351L50.813,7.239L50.783,7.128L50.754,7.017L50.723,6.906L50.692,6.795L50.66,6.685L50.628,6.575L50.594,6.465L50.561,6.355L50.526,6.246L50.491,6.137L50.455,6.029L50.419,5.92L50.382,5.812L50.344,5.705L50.306,5.597L50.267,5.492L50.187,5.277L50.105,5.065L50.02,4.854L49.932,4.644L49.842,4.436L49.75,4.229L49.655,4.023L49.558,3.819L49.459,3.616L49.357,3.415L49.252,3.214L49.146,3.016L49.037,2.818L48.926,2.623L48.812,2.428L48.696,2.235L48.578,2.044L48.458,1.854L48.335,1.666L48.21,1.479L48.083,1.294L47.954,1.111L47.823,0.929L47.69,0.749L47.554,0.57L47.417,0.393L47.277,0.218L47.136,0.045L46.992,-0.127L46.846,-0.297L46.698,-0.465L46.549,-0.632L46.397,-0.796L46.243,-0.959L46.088,-1.12L45.931,-1.279L45.771,-1.436L45.61,-1.591L45.447,-1.745L45.282,-1.896L45.116,-2.045L44.947,-2.193L44.777,-2.338L44.605,-2.482L44.432,-2.623L44.256,-2.762L44.079,-2.9L43.9,-3.035L43.72,-3.168L43.538,-3.299L43.354,-3.428L43.169,-3.554L42.982,-3.679L42.794,-3.801L42.604,-3.921L42.413,-4.039L42.22,-4.154L42.025,-4.267L41.829,-4.378L41.632,-4.487L41.433,-4.593L41.233,-4.697L41.031,-4.799L40.828,-4.898L40.624,-4.995L40.418,-5.089L40.211,-5.181L40.003,-5.27L39.794,-5.357L39.583,-5.442L39.371,-5.524L39.156,-5.604L39.05,-5.642L38.943,-5.68L38.835,-5.718L38.727,-5.755L38.619,-5.791L38.51,-5.827L38.401,-5.861L38.292,-5.896L38.183,-5.929L38.073,-5.962L37.963,-5.995L37.853,-6.026L37.742,-6.057L37.631,-6.087L37.52,-6.117L37.409,-6.146L37.297,-6.174L37.185,-6.202L37.073,-6.229L36.96,-6.255L36.848,-6.281L36.735,-6.306L36.621,-6.33L36.508,-6.353L36.394,-6.376L36.28,-6.398L36.166,-6.42L36.051,-6.441L35.937,-6.461L35.822,-6.48L35.706,-6.499L35.591,-6.517L35.475,-6.534L35.359,-6.55L35.243,-6.566L35.127,-6.581L35.01,-6.596L34.893,-6.609L34.776,-6.622L34.659,-6.634L34.542,-6.646L34.424,-6.657L34.306,-6.667L34.188,-6.676L34.07,-6.685L33.951,-6.692L33.832,-6.699L33.713,-6.706L33.594,-6.711L33.475,-6.716L33.355,-6.72L33.235,-6.724L33.115,-6.726L32.995,-6.728L32.875,-6.729L32.75,-6.729L32.751,-6.82L32.633,-6.819Z" style="fill:#cecfeb;"/>
                <path d="M32.953,-3.523L33.152,-3.519L33.349,-3.512L33.547,-3.503L33.743,-3.492L33.939,-3.478L34.134,-3.462L34.329,-3.443L34.523,-3.422L34.716,-3.398L34.908,-3.372L35.1,-3.344L35.291,-3.313L35.481,-3.28L35.671,-3.245L35.859,-3.208L36.047,-3.168L36.234,-3.126L36.42,-3.081L36.605,-3.035L36.789,-2.986L36.973,-2.935L37.155,-2.881L37.337,-2.826L37.517,-2.768L37.697,-2.708L37.876,-2.646L38.053,-2.582L38.23,-2.516L38.405,-2.448L38.58,-2.378L38.753,-2.305L38.926,-2.231L39.097,-2.155L39.267,-2.076L39.436,-1.996L39.604,-1.913L39.771,-1.829L39.936,-1.743L40.1,-1.655L40.264,-1.564L40.426,-1.472L40.586,-1.378L40.746,-1.283L40.904,-1.185L41.061,-1.085L41.216,-0.984L41.371,-0.881L41.524,-0.776L41.675,-0.669L41.825,-0.561L41.974,-0.451L42.122,-0.339L42.268,-0.225L42.413,-0.11L42.556,0.007L42.698,0.126L42.838,0.246L42.977,0.368L43.114,0.492L43.25,0.617L43.385,0.744L43.518,0.873L43.649,1.003L43.779,1.134L43.907,1.267L44.034,1.402L44.159,1.538L44.282,1.676L44.404,1.815L44.524,1.956L44.642,2.098L44.759,2.241L44.874,2.386L44.987,2.532L45.099,2.68L45.209,2.829L45.317,2.979L45.424,3.131L45.528,3.284L45.631,3.439L45.732,3.594L45.831,3.751L45.928,3.91L46.024,4.069L46.117,4.23L46.209,4.392L46.299,4.555L46.387,4.72L46.473,4.885L46.557,5.052L46.639,5.22L46.719,5.389L46.797,5.559L46.873,5.73L46.947,5.903L47.019,6.076L47.089,6.251L47.157,6.426L47.222,6.603L47.286,6.78L47.348,6.959L47.407,7.138L47.464,7.319L47.519,7.5L47.572,7.683L47.623,7.866L47.671,8.05L47.718,8.235L47.762,8.421L47.803,8.608L47.843,8.796L47.88,8.984L47.915,9.174L47.948,9.364L47.978,9.554L48.006,9.746L48.031,9.938L48.054,10.131L48.075,10.325L48.093,10.519L48.109,10.714L48.123,10.91L48.134,11.106L48.142,11.303L48.149,11.501L48.152,11.699L48.153,11.897L48.152,12.096L48.148,12.294L48.141,12.491L48.132,12.688L48.121,12.885L48.107,13.08L48.091,13.275L48.072,13.469L48.051,13.663L48.028,13.856L48.002,14.048L47.973,14.24L47.943,14.43L47.91,14.62L47.875,14.809L47.837,14.998L47.797,15.185L47.755,15.372L47.711,15.558L47.664,15.742L47.616,15.926L47.565,16.11L47.511,16.292L47.456,16.473L47.398,16.653L47.339,16.833L47.277,17.011L47.213,17.188L47.147,17.365L47.079,17.54L47.009,17.714L46.936,17.887L46.862,18.06L46.786,18.231L46.708,18.4L46.627,18.569L46.545,18.737L46.461,18.903L46.375,19.069L46.286,19.233L46.196,19.396L46.104,19.557L46.011,19.718L45.915,19.877L45.818,20.035L45.718,20.191L45.617,20.347L45.514,20.501L45.409,20.654L45.303,20.805L45.194,20.955L45.084,21.104L44.973,21.251L44.859,21.397L44.744,21.541L44.627,21.684L44.508,21.826L44.388,21.966L44.266,22.105L44.143,22.242L44.018,22.378L43.891,22.512L43.763,22.645L43.633,22.776L43.502,22.906L43.369,23.034L43.234,23.16L43.098,23.285L42.961,23.408L42.822,23.53L42.682,23.65L42.54,23.768L42.397,23.884L42.252,23.999L42.106,24.112L41.958,24.224L41.809,24.334L41.659,24.442L41.508,24.548L41.355,24.652L41.201,24.755L41.045,24.856L40.888,24.955L40.73,25.052L40.571,25.147L40.41,25.241L40.249,25.332L40.086,25.422L39.922,25.51L39.756,25.596L39.59,25.68L39.422,25.761L39.253,25.841L39.083,25.919L38.912,25.995L38.74,26.069L38.567,26.141L38.393,26.211L38.217,26.279L38.041,26.344L37.864,26.408L37.686,26.469L37.506,26.529L37.326,26.586L37.145,26.641L36.963,26.693L36.78,26.744L36.596,26.793L36.411,26.839L36.225,26.883L36.039,26.924L35.851,26.964L35.663,27.001L35.474,27.036L35.284,27.068L35.094,27.098L34.903,27.126L34.711,27.152L34.518,27.175L34.324,27.196L34.13,27.214L33.936,27.23L33.74,27.243L33.544,27.254L33.348,27.263L33.15,27.269L32.953,27.272L32.754,27.274L32.556,27.272L32.358,27.268L32.161,27.262L31.965,27.253L31.769,27.241L31.573,27.228L31.379,27.211L31.185,27.193L30.991,27.172L30.799,27.148L30.607,27.122L30.416,27.094L30.225,27.064L30.036,27.031L29.847,26.996L29.659,26.958L29.471,26.918L29.285,26.876L29.1,26.832L28.915,26.785L28.731,26.737L28.548,26.686L28.366,26.633L28.185,26.577L28.005,26.52L27.826,26.46L27.648,26.399L27.471,26.335L27.295,26.269L27.12,26.201L26.946,26.131L26.773,26.059L26.601,25.984L26.43,25.908L26.261,25.83L26.092,25.75L25.925,25.668L25.759,25.584L25.594,25.498L25.43,25.41L25.267,25.32L25.106,25.228L24.946,25.134L24.787,25.039L24.629,24.941L24.472,24.842L24.317,24.741L24.163,24.638L24.011,24.534L23.86,24.427L23.71,24.319L23.561,24.209L23.414,24.098L23.269,23.984L23.124,23.869L22.982,23.753L22.84,23.634L22.7,23.514L22.562,23.392L22.425,23.269L22.289,23.144L22.155,23.018L22.023,22.89L21.892,22.76L21.762,22.629L21.634,22.496L21.508,22.362L21.384,22.226L21.261,22.089L21.139,21.95L21.019,21.81L20.901,21.668L20.785,21.525L20.67,21.381L20.557,21.235L20.446,21.088L20.336,20.939L20.228,20.789L20.122,20.638L20.018,20.485L19.916,20.331L19.815,20.176L19.716,20.019L19.619,19.862L19.524,19.702L19.43,19.542L19.339,19.381L19.249,19.218L19.162,19.054L19.076,18.889L18.992,18.723L18.911,18.555L18.831,18.387L18.753,18.217L18.677,18.046L18.603,17.874L18.532,17.701L18.462,17.527L18.394,17.352L18.329,17.176L18.265,16.999L18.204,16.821L18.145,16.642L18.088,16.462L18.033,16.281L17.98,16.099L17.929,15.917L17.881,15.733L17.835,15.548L17.791,15.363L17.749,15.177L17.71,14.99L17.673,14.802L17.638,14.613L17.606,14.424L17.576,14.233L17.548,14.042L17.522,13.851L17.499,13.658L17.479,13.465L17.46,13.271L17.444,13.077L17.431,12.882L17.42,12.686L17.411,12.49L17.405,12.293L17.402,12.095L17.401,11.897L17.402,11.699L17.406,11.502L17.413,11.305L17.421,11.109L17.433,10.913L17.447,10.718L17.463,10.524L17.481,10.33L17.503,10.137L17.526,9.944L17.552,9.753L17.58,9.562L17.61,9.372L17.643,9.182L17.678,8.994L17.716,8.806L17.755,8.619L17.797,8.433L17.842,8.248L17.888,8.063L17.937,7.88L17.988,7.697L18.041,7.516L18.096,7.335L18.153,7.155L18.213,6.976L18.274,6.799L18.338,6.622L18.404,6.446L18.472,6.271L18.542,6.097L18.614,5.925L18.688,5.753L18.764,5.583L18.842,5.413L18.922,5.245L19.004,5.078L19.088,4.912L19.174,4.747L19.262,4.584L19.352,4.421L19.443,4.26L19.537,4.1L19.632,3.941L19.729,3.784L19.829,3.628L19.929,3.473L20.032,3.319L20.137,3.167L20.243,3.016L20.351,2.866L20.461,2.718L20.572,2.571L20.685,2.426L20.8,2.282L20.917,2.139L21.035,1.998L21.155,1.858L21.276,1.72L21.399,1.583L21.524,1.447L21.65,1.314L21.778,1.181L21.908,1.051L22.039,0.921L22.171,0.794L22.305,0.668L22.441,0.543L22.578,0.42L22.716,0.299L22.856,0.18L22.998,0.062L23.141,-0.055L23.285,-0.169L23.43,-0.282L23.577,-0.393L23.726,-0.503L23.876,-0.61L24.027,-0.716L24.179,-0.82L24.333,-0.923L24.488,-1.023L24.644,-1.122L24.802,-1.219L24.961,-1.314L25.121,-1.407L25.282,-1.498L25.445,-1.588L25.608,-1.675L25.773,-1.761L25.939,-1.845L26.106,-1.926L26.275,-2.006L26.444,-2.084L26.615,-2.159L26.786,-2.233L26.959,-2.305L27.133,-2.374L27.307,-2.442L27.483,-2.507L27.66,-2.571L27.838,-2.632L28.016,-2.691L28.196,-2.748L28.377,-2.803L28.558,-2.855L28.741,-2.906L28.924,-2.954L29.109,-3L29.294,-3.044L29.48,-3.086L29.667,-3.125L29.854,-3.162L30.043,-3.197L30.232,-3.229L30.422,-3.259L30.612,-3.287L30.804,-3.312L30.996,-3.335L31.189,-3.356L31.382,-3.374L31.577,-3.39L31.771,-3.404L31.967,-3.415L32.163,-3.423L32.359,-3.429L32.557,-3.433L32.747,-3.434L32.755,-3.479L32.762,-3.524L32.953,-3.523ZM32.586,-1.113L32.418,-1.11L32.251,-1.104L32.084,-1.096L31.918,-1.087L31.753,-1.075L31.588,-1.061L31.424,-1.045L31.26,-1.028L31.097,-1.008L30.935,-0.986L30.773,-0.962L30.612,-0.936L30.452,-0.908L30.292,-0.878L30.133,-0.847L29.975,-0.813L29.817,-0.778L29.661,-0.74L29.505,-0.701L29.349,-0.66L29.195,-0.617L29.041,-0.572L28.888,-0.525L28.736,-0.476L28.585,-0.426L28.434,-0.374L28.285,-0.32L28.136,-0.264L27.988,-0.206L27.841,-0.147L27.695,-0.086L27.55,-0.024L27.405,0.041L27.262,0.107L27.119,0.175L26.978,0.244L26.837,0.316L26.698,0.388L26.559,0.463L26.421,0.539L26.285,0.616L26.149,0.696L26.015,0.777L25.881,0.859L25.749,0.943L25.618,1.029L25.488,1.116L25.358,1.204L25.23,1.294L25.104,1.386L24.978,1.479L24.853,1.574L24.73,1.67L24.608,1.767L24.487,1.866L24.367,1.966L24.249,2.068L24.131,2.171L24.015,2.275L23.9,2.381L23.787,2.488L23.675,2.597L23.564,2.707L23.454,2.818L23.346,2.93L23.239,3.044L23.133,3.159L23.029,3.275L22.926,3.393L22.825,3.512L22.725,3.632L22.626,3.753L22.529,3.875L22.434,3.999L22.339,4.123L22.247,4.249L22.155,4.376L22.066,4.504L21.977,4.634L21.891,4.764L21.805,4.895L21.722,5.028L21.64,5.161L21.559,5.296L21.48,5.432L21.403,5.568L21.327,5.706L21.253,5.845L21.181,5.984L21.11,6.125L21.041,6.266L20.973,6.409L20.907,6.552L20.843,6.697L20.781,6.842L20.72,6.988L20.662,7.135L20.604,7.283L20.549,7.432L20.495,7.582L20.444,7.732L20.394,7.883L20.345,8.035L20.299,8.188L20.255,8.342L20.212,8.496L20.171,8.651L20.132,8.807L20.095,8.964L20.06,9.121L20.027,9.28L19.995,9.438L19.966,9.598L19.939,9.758L19.913,9.919L19.89,10.08L19.868,10.243L19.849,10.405L19.831,10.569L19.816,10.733L19.802,10.897L19.791,11.063L19.782,11.228L19.774,11.395L19.769,11.562L19.766,11.729L19.765,11.897L19.767,12.065L19.77,12.233L19.776,12.4L19.783,12.566L19.793,12.732L19.804,12.897L19.818,13.062L19.834,13.226L19.852,13.389L19.872,13.552L19.894,13.714L19.917,13.875L19.943,14.036L19.971,14.196L20.001,14.355L20.032,14.514L20.066,14.672L20.101,14.829L20.139,14.986L20.178,15.141L20.219,15.296L20.262,15.451L20.307,15.604L20.354,15.757L20.402,15.909L20.453,16.06L20.505,16.21L20.558,16.359L20.614,16.508L20.672,16.655L20.731,16.802L20.792,16.948L20.854,17.093L20.919,17.237L20.985,17.38L21.052,17.523L21.122,17.664L21.193,17.804L21.265,17.944L21.34,18.082L21.416,18.219L21.493,18.356L21.572,18.491L21.653,18.625L21.735,18.758L21.819,18.89L21.904,19.022L21.991,19.152L22.08,19.28L22.17,19.408L22.261,19.535L22.354,19.66L22.448,19.785L22.544,19.908L22.642,20.03L22.74,20.15L22.84,20.27L22.942,20.388L23.045,20.505L23.149,20.621L23.255,20.736L23.362,20.849L23.47,20.961L23.58,21.072L23.691,21.181L23.803,21.289L23.917,21.396L24.031,21.502L24.147,21.606L24.265,21.708L24.383,21.809L24.503,21.909L24.624,22.008L24.746,22.105L24.869,22.2L24.994,22.294L25.12,22.387L25.246,22.478L25.374,22.568L25.503,22.656L25.633,22.742L25.765,22.827L25.897,22.911L26.03,22.993L26.165,23.073L26.3,23.152L26.436,23.229L26.574,23.305L26.712,23.379L26.852,23.451L26.992,23.522L27.133,23.591L27.276,23.658L27.419,23.724L27.563,23.788L27.708,23.85L27.854,23.91L28.001,23.969L28.148,24.026L28.297,24.082L28.446,24.135L28.596,24.187L28.747,24.237L28.899,24.285L29.052,24.331L29.205,24.375L29.359,24.418L29.514,24.459L29.67,24.498L29.826,24.535L29.983,24.57L30.141,24.603L30.3,24.634L30.459,24.664L30.619,24.691L30.779,24.716L30.941,24.74L31.102,24.761L31.265,24.781L31.428,24.798L31.592,24.814L31.756,24.827L31.921,24.838L32.087,24.848L32.253,24.855L32.419,24.86L32.587,24.863L32.754,24.864L32.922,24.862L33.089,24.859L33.256,24.854L33.422,24.846L33.588,24.836L33.752,24.825L33.917,24.811L34.08,24.795L34.243,24.777L34.406,24.758L34.568,24.736L34.729,24.712L34.889,24.686L35.049,24.658L35.208,24.629L35.366,24.597L35.524,24.564L35.681,24.528L35.837,24.491L35.993,24.452L36.148,24.411L36.302,24.368L36.455,24.323L36.607,24.276L36.759,24.228L36.909,24.178L37.059,24.126L37.209,24.072L37.357,24.016L37.504,23.959L37.651,23.9L37.796,23.839L37.941,23.777L38.085,23.713L38.228,23.647L38.37,23.579L38.511,23.51L38.651,23.439L38.79,23.366L38.928,23.292L39.065,23.216L39.201,23.139L39.336,23.06L39.47,22.979L39.603,22.897L39.735,22.814L39.866,22.728L39.996,22.642L40.125,22.553L40.252,22.464L40.379,22.372L40.504,22.28L40.628,22.185L40.751,22.09L40.873,21.993L40.993,21.894L41.113,21.794L41.231,21.693L41.348,21.59L41.463,21.486L41.578,21.38L41.691,21.274L41.803,21.165L41.913,21.056L42.022,20.945L42.13,20.833L42.237,20.72L42.342,20.605L42.446,20.489L42.548,20.372L42.649,20.254L42.749,20.134L42.847,20.014L42.944,19.892L43.039,19.769L43.133,19.644L43.226,19.519L43.317,19.392L43.406,19.265L43.494,19.136L43.581,19.006L43.665,18.875L43.749,18.743L43.831,18.61L43.911,18.476L43.99,18.34L44.067,18.204L44.142,18.067L44.216,17.929L44.288,17.79L44.359,17.65L44.427,17.509L44.495,17.367L44.56,17.224L44.624,17.08L44.686,16.935L44.747,16.789L44.805,16.643L44.862,16.495L44.917,16.347L44.971,16.198L45.022,16.048L45.072,15.897L45.12,15.746L45.166,15.594L45.211,15.44L45.253,15.287L45.294,15.132L45.333,14.977L45.37,14.82L45.405,14.664L45.438,14.506L45.469,14.348L45.498,14.189L45.526,14.029L45.551,13.869L45.574,13.708L45.596,13.546L45.615,13.384L45.633,13.221L45.648,13.058L45.662,12.894L45.673,12.729L45.682,12.564L45.689,12.398L45.694,12.232L45.697,12.065L45.698,11.897L45.697,11.73L45.694,11.563L45.688,11.397L45.681,11.231L45.671,11.066L45.659,10.901L45.646,10.737L45.63,10.574L45.612,10.411L45.592,10.249L45.57,10.087L45.547,9.926L45.521,9.766L45.493,9.607L45.464,9.448L45.432,9.29L45.399,9.132L45.363,8.976L45.326,8.82L45.287,8.664L45.246,8.51L45.203,8.356L45.159,8.203L45.112,8.051L45.064,7.9L45.014,7.749L44.962,7.6L44.908,7.451L44.852,7.303L44.795,7.156L44.736,7.009L44.676,6.864L44.613,6.72L44.549,6.576L44.483,6.433L44.416,6.292L44.347,6.151L44.276,6.011L44.204,5.872L44.129,5.734L44.054,5.597L43.977,5.462L43.898,5.327L43.817,5.193L43.735,5.06L43.652,4.929L43.567,4.798L43.48,4.668L43.392,4.54L43.302,4.413L43.211,4.286L43.119,4.161L43.024,4.038L42.929,3.915L42.832,3.793L42.734,3.673L42.634,3.554L42.533,3.436L42.43,3.319L42.326,3.204L42.221,3.089L42.114,2.977L42.006,2.865L41.897,2.755L41.787,2.646L41.675,2.538L41.562,2.431L41.447,2.326L41.331,2.223L41.215,2.121L41.096,2.02L40.977,1.92L40.856,1.822L40.735,1.725L40.612,1.63L40.488,1.536L40.363,1.444L40.236,1.353L40.109,1.264L39.98,1.176L39.851,1.09L39.72,1.005L39.588,0.922L39.455,0.84L39.321,0.76L39.186,0.682L39.05,0.605L38.913,0.529L38.775,0.456L38.637,0.384L38.497,0.313L38.356,0.245L38.214,0.177L38.071,0.112L37.928,0.048L37.783,-0.014L37.638,-0.074L37.492,-0.133L37.344,-0.189L37.196,-0.245L37.048,-0.298L36.898,-0.349L36.748,-0.399L36.596,-0.447L36.444,-0.493L36.291,-0.537L36.138,-0.58L35.983,-0.62L35.828,-0.659L35.672,-0.696L35.516,-0.731L35.359,-0.764L35.201,-0.795L35.042,-0.824L34.883,-0.852L34.723,-0.877L34.562,-0.9L34.401,-0.922L34.239,-0.941L34.076,-0.959L33.913,-0.974L33.749,-0.987L33.585,-0.999L33.42,-1.008L33.254,-1.015L33.088,-1.02L32.922,-1.023L32.746,-1.024L32.747,-1.114L32.586,-1.113Z" style="fill:#cecfeb;"/>
                <path d="M32.885,1.762L33.015,1.764L33.145,1.769L33.275,1.775L33.404,1.782L33.533,1.791L33.661,1.802L33.789,1.814L33.916,1.828L34.043,1.844L34.17,1.861L34.296,1.88L34.421,1.9L34.546,1.922L34.671,1.945L34.795,1.97L34.918,1.996L35.041,2.024L35.163,2.053L35.285,2.084L35.406,2.116L35.527,2.149L35.647,2.185L35.766,2.221L35.885,2.259L36.003,2.298L36.12,2.339L36.237,2.381L36.353,2.425L36.468,2.47L36.583,2.516L36.697,2.564L36.81,2.613L36.923,2.663L37.035,2.714L37.146,2.767L37.256,2.822L37.366,2.877L37.474,2.934L37.582,2.992L37.69,3.051L37.796,3.112L37.901,3.174L38.006,3.237L38.11,3.301L38.213,3.366L38.315,3.433L38.417,3.501L38.517,3.57L38.617,3.64L38.715,3.711L38.813,3.784L38.91,3.857L39.006,3.932L39.101,4.008L39.195,4.085L39.288,4.163L39.38,4.242L39.472,4.322L39.562,4.403L39.651,4.486L39.739,4.569L39.827,4.653L39.913,4.739L39.998,4.825L40.082,4.913L40.165,5.001L40.247,5.091L40.328,5.181L40.408,5.273L40.487,5.365L40.565,5.458L40.642,5.553L40.717,5.648L40.792,5.744L40.865,5.841L40.937,5.939L41.008,6.038L41.078,6.137L41.147,6.238L41.214,6.34L41.28,6.442L41.345,6.545L41.409,6.649L41.472,6.754L41.533,6.86L41.594,6.966L41.653,7.073L41.71,7.181L41.767,7.29L41.822,7.4L41.876,7.51L41.928,7.621L41.979,7.733L42.029,7.846L42.078,7.959L42.125,8.073L42.171,8.188L42.216,8.303L42.259,8.419L42.3,8.536L42.341,8.653L42.38,8.771L42.417,8.89L42.453,9.009L42.488,9.129L42.521,9.249L42.553,9.37L42.584,9.492L42.612,9.614L42.64,9.737L42.666,9.86L42.69,9.984L42.713,10.109L42.734,10.233L42.754,10.359L42.772,10.485L42.789,10.611L42.804,10.738L42.818,10.865L42.83,10.993L42.84,11.121L42.849,11.249L42.856,11.378L42.862,11.507L42.866,11.637L42.868,11.767L42.868,11.897L42.867,12.028L42.865,12.158L42.861,12.287L42.855,12.417L42.847,12.545L42.838,12.674L42.827,12.802L42.815,12.929L42.801,13.057L42.785,13.183L42.768,13.309L42.75,13.435L42.73,13.56L42.708,13.685L42.685,13.809L42.66,13.933L42.634,14.056L42.606,14.179L42.577,14.301L42.546,14.422L42.514,14.543L42.481,14.664L42.446,14.783L42.409,14.902L42.371,15.021L42.332,15.139L42.291,15.256L42.249,15.372L42.206,15.488L42.161,15.603L42.115,15.717L42.067,15.831L42.018,15.944L41.968,16.057L41.917,16.168L41.864,16.279L41.81,16.389L41.755,16.498L41.698,16.607L41.64,16.715L41.581,16.821L41.52,16.928L41.459,17.033L41.396,17.137L41.332,17.241L41.267,17.344L41.2,17.446L41.132,17.547L41.064,17.647L40.994,17.747L40.922,17.845L40.85,17.943L40.777,18.039L40.702,18.135L40.626,18.23L40.55,18.324L40.472,18.417L40.393,18.509L40.313,18.6L40.232,18.69L40.15,18.779L40.066,18.867L39.982,18.954L39.897,19.04L39.811,19.125L39.723,19.209L39.635,19.292L39.546,19.374L39.456,19.455L39.364,19.534L39.272,19.613L39.179,19.691L39.085,19.767L38.99,19.842L38.894,19.917L38.797,19.99L38.7,20.062L38.601,20.133L38.501,20.202L38.401,20.271L38.3,20.338L38.198,20.404L38.095,20.469L37.991,20.533L37.886,20.595L37.781,20.657L37.675,20.717L37.568,20.776L37.46,20.833L37.351,20.889L37.242,20.945L37.132,20.998L37.021,21.051L36.909,21.102L36.797,21.152L36.684,21.2L36.57,21.247L36.456,21.293L36.341,21.337L36.225,21.38L36.108,21.422L35.991,21.462L35.874,21.501L35.755,21.539L35.636,21.575L35.517,21.609L35.396,21.643L35.276,21.674L35.154,21.705L35.032,21.733L34.91,21.761L34.787,21.787L34.663,21.811L34.539,21.834L34.415,21.855L34.29,21.875L34.164,21.893L34.038,21.91L33.911,21.925L33.784,21.938L33.657,21.95L33.529,21.961L33.401,21.969L33.273,21.976L33.144,21.982L33.014,21.986L32.884,21.988L32.754,21.989L32.624,21.988L32.495,21.985L32.365,21.981L32.236,21.975L32.108,21.967L31.98,21.958L31.852,21.948L31.725,21.935L31.598,21.921L31.471,21.906L31.345,21.889L31.22,21.87L31.095,21.85L30.97,21.829L30.847,21.805L30.723,21.781L30.6,21.755L30.478,21.727L30.356,21.698L30.235,21.667L30.114,21.635L29.994,21.602L29.875,21.567L29.756,21.53L29.638,21.493L29.52,21.454L29.404,21.413L29.287,21.371L29.172,21.328L29.057,21.283L28.943,21.237L28.829,21.189L28.716,21.141L28.604,21.091L28.493,21.039L28.383,20.987L28.273,20.933L28.164,20.877L28.055,20.821L27.948,20.763L27.841,20.704L27.735,20.644L27.63,20.582L27.526,20.52L27.423,20.456L27.32,20.39L27.218,20.324L27.117,20.257L27.017,20.188L26.918,20.118L26.82,20.047L26.723,19.975L26.626,19.902L26.531,19.827L26.436,19.752L26.342,19.675L26.25,19.598L26.158,19.519L26.067,19.439L25.977,19.358L25.888,19.276L25.8,19.193L25.714,19.109L25.628,19.024L25.543,18.938L25.459,18.851L25.376,18.763L25.295,18.674L25.214,18.584L25.134,18.493L25.056,18.401L24.979,18.308L24.902,18.214L24.827,18.119L24.753,18.023L24.68,17.927L24.608,17.829L24.538,17.731L24.468,17.631L24.4,17.531L24.332,17.43L24.266,17.328L24.202,17.226L24.138,17.122L24.076,17.018L24.014,16.913L23.955,16.807L23.896,16.7L23.838,16.592L23.782,16.484L23.727,16.375L23.674,16.265L23.621,16.154L23.57,16.043L23.521,15.931L23.472,15.818L23.425,15.705L23.38,15.59L23.335,15.476L23.292,15.36L23.251,15.244L23.211,15.127L23.172,15.01L23.134,14.891L23.099,14.773L23.064,14.653L23.031,14.533L22.999,14.413L22.969,14.292L22.94,14.17L22.913,14.048L22.887,13.925L22.863,13.802L22.84,13.678L22.819,13.554L22.799,13.429L22.781,13.304L22.764,13.178L22.749,13.052L22.736,12.925L22.724,12.798L22.714,12.671L22.705,12.543L22.698,12.414L22.692,12.286L22.688,12.157L22.686,12.027L22.685,11.897L22.686,11.768L22.689,11.638L22.693,11.509L22.699,11.38L22.707,11.252L22.716,11.124L22.727,10.997L22.739,10.87L22.753,10.743L22.768,10.617L22.785,10.491L22.804,10.366L22.824,10.242L22.845,10.117L22.868,9.994L22.893,9.871L22.919,9.748L22.947,9.626L22.976,9.504L23.006,9.384L23.038,9.263L23.072,9.143L23.106,9.024L23.143,8.906L23.18,8.788L23.22,8.671L23.26,8.554L23.302,8.438L23.345,8.323L23.39,8.208L23.436,8.094L23.483,7.981L23.532,7.868L23.582,7.757L23.633,7.646L23.685,7.535L23.739,7.426L23.794,7.317L23.851,7.209L23.908,7.102L23.967,6.995L24.027,6.89L24.089,6.785L24.151,6.681L24.215,6.577L24.28,6.475L24.346,6.374L24.414,6.273L24.482,6.173L24.552,6.074L24.623,5.976L24.695,5.879L24.768,5.783L24.842,5.687L24.917,5.593L24.994,5.5L25.071,5.407L25.15,5.316L25.23,5.225L25.31,5.135L25.392,5.047L25.475,4.959L25.559,4.872L25.644,4.787L25.73,4.702L25.817,4.618L25.904,4.536L25.993,4.454L26.083,4.374L26.174,4.294L26.266,4.216L26.358,4.139L26.452,4.063L26.547,3.988L26.642,3.914L26.739,3.841L26.836,3.769L26.934,3.699L27.033,3.629L27.133,3.561L27.234,3.494L27.335,3.428L27.438,3.364L27.541,3.3L27.645,3.238L27.75,3.177L27.856,3.117L27.963,3.059L28.07,3.001L28.178,2.945L28.287,2.891L28.397,2.837L28.507,2.785L28.618,2.734L28.73,2.684L28.842,2.636L28.956,2.589L29.07,2.544L29.184,2.499L29.299,2.457L29.415,2.415L29.532,2.375L29.649,2.336L29.767,2.299L29.885,2.263L30.004,2.229L30.124,2.196L30.244,2.164L30.365,2.134L30.487,2.105L30.609,2.078L30.731,2.052L30.854,2.028L30.978,2.005L31.102,1.984L31.226,1.965L31.351,1.946L31.477,1.93L31.602,1.915L31.729,1.901L31.856,1.889L31.983,1.879L32.111,1.87L32.239,1.863L32.367,1.858L32.496,1.854L32.625,1.851L32.747,1.851L32.755,1.806L32.762,1.761L32.885,1.762ZM32.654,4.171L32.555,4.173L32.455,4.177L32.356,4.181L32.258,4.187L32.159,4.194L32.061,4.202L31.964,4.212L31.867,4.223L31.77,4.234L31.673,4.248L31.578,4.262L31.482,4.277L31.387,4.294L31.292,4.312L31.198,4.33L31.104,4.35L31.01,4.372L30.917,4.394L30.825,4.417L30.733,4.442L30.641,4.467L30.55,4.494L30.459,4.522L30.369,4.551L30.279,4.581L30.19,4.612L30.101,4.644L30.013,4.677L29.925,4.711L29.838,4.747L29.751,4.783L29.665,4.82L29.579,4.858L29.494,4.898L29.41,4.938L29.326,4.979L29.242,5.022L29.159,5.065L29.077,5.109L28.996,5.154L28.915,5.201L28.834,5.248L28.754,5.296L28.675,5.345L28.597,5.395L28.519,5.445L28.441,5.497L28.365,5.55L28.289,5.603L28.214,5.658L28.139,5.713L28.065,5.769L27.992,5.826L27.919,5.884L27.848,5.943L27.777,6.003L27.706,6.063L27.637,6.124L27.568,6.186L27.5,6.249L27.432,6.313L27.366,6.378L27.3,6.443L27.235,6.509L27.171,6.576L27.107,6.643L27.045,6.712L26.983,6.781L26.922,6.851L26.862,6.921L26.802,6.992L26.744,7.064L26.686,7.137L26.629,7.21L26.574,7.284L26.519,7.359L26.464,7.435L26.411,7.511L26.359,7.587L26.307,7.665L26.257,7.743L26.207,7.822L26.159,7.901L26.111,7.981L26.064,8.061L26.018,8.142L25.974,8.224L25.93,8.306L25.887,8.389L25.845,8.473L25.804,8.557L25.764,8.641L25.725,8.726L25.687,8.812L25.65,8.898L25.614,8.985L25.579,9.072L25.546,9.16L25.513,9.248L25.481,9.337L25.45,9.426L25.421,9.516L25.392,9.606L25.365,9.697L25.339,9.788L25.313,9.879L25.289,9.971L25.266,10.064L25.244,10.157L25.224,10.25L25.204,10.344L25.185,10.438L25.168,10.533L25.152,10.628L25.137,10.723L25.123,10.819L25.11,10.915L25.099,11.012L25.088,11.109L25.079,11.206L25.072,11.304L25.065,11.402L25.059,11.5L25.055,11.599L25.052,11.698L25.051,11.798L25.05,11.897L25.051,11.997L25.053,12.097L25.056,12.196L25.061,12.294L25.067,12.393L25.074,12.491L25.082,12.588L25.091,12.686L25.102,12.783L25.114,12.879L25.127,12.975L25.141,13.071L25.157,13.166L25.173,13.261L25.191,13.355L25.21,13.449L25.23,13.543L25.251,13.636L25.273,13.729L25.296,13.821L25.321,13.913L25.346,14.005L25.373,14.096L25.401,14.186L25.429,14.276L25.459,14.365L25.49,14.454L25.522,14.543L25.555,14.631L25.589,14.718L25.625,14.805L25.661,14.892L25.698,14.978L25.736,15.063L25.775,15.148L25.815,15.232L25.857,15.316L25.899,15.399L25.942,15.482L25.986,15.564L26.031,15.645L26.077,15.726L26.124,15.806L26.172,15.886L26.221,15.965L26.271,16.043L26.321,16.121L26.373,16.198L26.425,16.274L26.479,16.35L26.533,16.425L26.588,16.499L26.644,16.573L26.701,16.646L26.759,16.718L26.818,16.79L26.877,16.861L26.937,16.931L26.998,17L27.06,17.069L27.123,17.137L27.186,17.204L27.251,17.27L27.316,17.336L27.382,17.401L27.448,17.465L27.516,17.528L27.584,17.59L27.653,17.652L27.722,17.713L27.793,17.773L27.864,17.832L27.936,17.89L28.008,17.948L28.081,18.004L28.155,18.06L28.23,18.115L28.305,18.169L28.381,18.222L28.457,18.274L28.534,18.325L28.612,18.376L28.691,18.425L28.77,18.474L28.849,18.521L28.93,18.568L29.01,18.614L29.092,18.658L29.174,18.702L29.257,18.745L29.34,18.787L29.424,18.828L29.508,18.867L29.593,18.906L29.678,18.944L29.764,18.981L29.851,19.017L29.938,19.051L30.025,19.085L30.113,19.118L30.201,19.149L30.29,19.18L30.38,19.209L30.47,19.238L30.56,19.265L30.651,19.291L30.742,19.317L30.834,19.341L30.926,19.364L31.019,19.385L31.112,19.406L31.206,19.426L31.299,19.444L31.394,19.461L31.489,19.478L31.584,19.493L31.679,19.506L31.775,19.519L31.871,19.531L31.968,19.541L32.065,19.55L32.163,19.558L32.26,19.564L32.358,19.57L32.457,19.574L32.556,19.577L32.655,19.579L32.754,19.579L32.854,19.578L32.953,19.576L33.052,19.573L33.15,19.568L33.248,19.562L33.346,19.555L33.443,19.547L33.54,19.538L33.637,19.527L33.733,19.515L33.829,19.502L33.924,19.488L34.019,19.473L34.114,19.456L34.208,19.439L34.302,19.42L34.395,19.4L34.488,19.379L34.581,19.357L34.673,19.334L34.764,19.309L34.855,19.284L34.946,19.257L35.036,19.23L35.126,19.201L35.215,19.171L35.304,19.14L35.392,19.108L35.48,19.075L35.567,19.041L35.654,19.006L35.74,18.97L35.826,18.933L35.911,18.895L35.996,18.856L36.08,18.816L36.163,18.775L36.246,18.733L36.328,18.69L36.41,18.646L36.491,18.601L36.572,18.555L36.652,18.508L36.731,18.46L36.81,18.412L36.888,18.362L36.965,18.311L37.042,18.26L37.118,18.208L37.194,18.154L37.269,18.1L37.343,18.045L37.416,17.989L37.489,17.933L37.561,17.875L37.632,17.817L37.703,17.757L37.773,17.697L37.842,17.636L37.911,17.575L37.978,17.512L38.045,17.449L38.112,17.385L38.177,17.32L38.242,17.254L38.305,17.188L38.369,17.121L38.431,17.053L38.492,16.984L38.553,16.915L38.613,16.844L38.672,16.774L38.73,16.702L38.787,16.63L38.844,16.557L38.899,16.483L38.954,16.409L39.008,16.334L39.06,16.258L39.113,16.182L39.164,16.105L39.214,16.027L39.263,15.949L39.312,15.87L39.359,15.791L39.405,15.711L39.451,15.63L39.496,15.549L39.539,15.467L39.582,15.385L39.624,15.302L39.664,15.218L39.704,15.134L39.743,15.05L39.78,14.964L39.817,14.879L39.853,14.793L39.887,14.706L39.921,14.619L39.954,14.531L39.985,14.443L40.016,14.354L40.045,14.265L40.073,14.175L40.101,14.085L40.127,13.994L40.152,13.903L40.176,13.812L40.199,13.72L40.221,13.628L40.241,13.535L40.261,13.442L40.279,13.348L40.296,13.254L40.312,13.159L40.327,13.065L40.341,12.969L40.354,12.874L40.365,12.778L40.375,12.681L40.384,12.585L40.392,12.487L40.399,12.39L40.404,12.292L40.408,12.194L40.411,12.095L40.413,11.997L40.414,11.897L40.413,11.798L40.411,11.699L40.407,11.601L40.403,11.503L40.397,11.405L40.39,11.307L40.382,11.21L40.372,11.114L40.362,11.017L40.35,10.921L40.337,10.826L40.323,10.731L40.308,10.636L40.291,10.542L40.274,10.448L40.255,10.354L40.235,10.261L40.214,10.169L40.192,10.076L40.169,9.985L40.145,9.893L40.119,9.802L40.093,9.712L40.065,9.622L40.036,9.533L40.007,9.444L39.976,9.355L39.944,9.267L39.911,9.18L39.877,9.093L39.842,9.006L39.807,8.92L39.77,8.835L39.732,8.75L39.693,8.666L39.653,8.582L39.612,8.499L39.57,8.416L39.527,8.334L39.483,8.252L39.438,8.172L39.392,8.091L39.346,8.011L39.298,7.932L39.25,7.854L39.2,7.776L39.15,7.699L39.098,7.622L39.046,7.546L38.993,7.471L38.939,7.396L38.884,7.322L38.829,7.249L38.772,7.177L38.715,7.105L38.656,7.034L38.597,6.963L38.537,6.893L38.477,6.824L38.415,6.756L38.353,6.689L38.29,6.622L38.226,6.556L38.161,6.491L38.096,6.426L38.029,6.363L37.962,6.3L37.895,6.238L37.826,6.176L37.757,6.116L37.687,6.056L37.616,5.997L37.545,5.939L37.473,5.882L37.4,5.826L37.327,5.771L37.253,5.716L37.178,5.663L37.102,5.61L37.026,5.558L36.95,5.507L36.872,5.457L36.794,5.408L36.716,5.359L36.637,5.312L36.557,5.266L36.476,5.22L36.395,5.176L36.314,5.132L36.232,5.09L36.149,5.048L36.066,5.008L35.982,4.968L35.897,4.93L35.812,4.892L35.727,4.855L35.641,4.82L35.555,4.785L35.468,4.752L35.38,4.719L35.292,4.688L35.204,4.657L35.115,4.628L35.026,4.6L34.936,4.573L34.845,4.547L34.755,4.522L34.663,4.498L34.572,4.475L34.48,4.453L34.387,4.433L34.294,4.413L34.201,4.395L34.107,4.378L34.013,4.362L33.918,4.347L33.823,4.333L33.728,4.32L33.632,4.309L33.536,4.299L33.44,4.29L33.343,4.282L33.246,4.275L33.148,4.27L33.05,4.266L32.952,4.263L32.853,4.261L32.746,4.261L32.747,4.171L32.654,4.171Z" style="fill:#cecfeb;"/>
            </g>
        </g>
        <path d="M10.738,28.794L35.738,15.512" style="fill:none;stroke:#407bbf;stroke-width:2px;"/>
        <path d="M54.738,59.794C55.534,59.794 56.297,59.478 56.86,58.915C57.422,58.352 57.738,57.589 57.738,56.794C57.738,50.348 57.738,35.24 57.738,28.794C57.738,27.998 57.422,27.235 56.86,26.672C56.297,26.11 55.534,25.794 54.738,25.794C45.837,25.794 19.64,25.794 10.738,25.794C9.943,25.794 9.18,26.11 8.617,26.672C8.054,27.235 7.738,27.998 7.738,28.794C7.738,35.24 7.738,50.348 7.738,56.794C7.738,57.589 8.054,58.352 8.617,58.915C9.18,59.478 9.943,59.794 10.738,59.794C19.64,59.794 45.837,59.794 54.738,59.794Z" style="fill:#c7ccd1;"/>
        <clipPath id="_clip3">
            <path d="M54.738,59.794C55.534,59.794 56.297,59.478 56.86,58.915C57.422,58.352 57.738,57.589 57.738,56.794C57.738,50.348 57.738,35.24 57.738,28.794C57.738,27.998 57.422,27.235 56.86,26.672C56.297,26.11 55.534,25.794 54.738,25.794C45.837,25.794 19.64,25.794 10.738,25.794C9.943,25.794 9.18,26.11 8.617,26.672C8.054,27.235 7.738,27.998 7.738,28.794C7.738,35.24 7.738,50.348 7.738,56.794C7.738,57.589 8.054,58.352 8.617,58.915C9.18,59.478 9.943,59.794 10.738,59.794C19.64,59.794 45.837,59.794 54.738,59.794Z"/>
        </clipPath>
        <g clip-path="url(#_clip3)">
            <path d="M60.738,27.583L4.738,59.794L4.738,66.952L60.738,66.952L60.738,27.583Z" style="fill:#2b307e;fill-opacity:0.15;"/>
        </g>
        <circle cx="42.738" cy="42.794" r="10" style="fill:#407bbf;"/>
        <clipPath id="_clip4">
            <circle cx="42.738" cy="42.794" r="10"/>
        </clipPath>
        <g clip-path="url(#_clip4)">
            <path d="M60.738,27.583L4.738,59.794L4.738,66.952L60.738,66.952L60.738,27.583Z" style="fill:#2b307e;fill-opacity:0.64;"/>
        </g>
        <rect x="11.479" y="35.334" width="17.259" height="2.998" style="fill:#324b95;"/>
        <rect x="11.479" y="41.402" width="17.259" height="2.998" style="fill:#324b95;"/>
        <rect x="11.479" y="47.255" width="17.259" height="2.998" style="fill:#324b95;"/>
    </g>
</svg>
