<?xml version="1.0" encoding="UTF-8" standalone="no"?><!DOCTYPE svg PUBLIC "-//W3C//DTD SVG 1.1//EN" "http://www.w3.org/Graphics/SVG/1.1/DTD/svg11.dtd"><svg width="103px" height="30px" version="1.1" xmlns="http://www.w3.org/2000/svg" xmlns:xlink="http://www.w3.org/1999/xlink" xml:space="preserve" xmlns:serif="http://www.serif.com/" style="fill-rule:evenodd;clip-rule:evenodd;stroke-linejoin:round;stroke-miterlimit:2;"><rect id="Salt-spoon" x="0" y="0.895" width="102.485" height="28.113" style="fill:none;"/><g><path d="M2.035,5.455c-1.785,2.201 0.156,4.118 2.958,4.68c8.439,1.694 32.011,-2.724 43.815,0.837c13.89,4.189 15.048,7.537 26.603,13.485c6.508,3.35 22.236,3.076 25.212,-2.528c1.375,-2.589 -21.677,-1.029 -29.24,-3.544c-5.51,-1.833 -13.182,-9.12 -36.552,-11.914c-15.088,-1.803 -31.126,-3.076 -32.796,-1.016Z" style="fill:#9598bf;"/><clipPath id="_clip1"><path d="M2.035,5.455c-1.785,2.201 0.156,4.118 2.958,4.68c8.439,1.694 32.011,-2.724 43.815,0.837c13.89,4.189 15.048,7.537 26.603,13.485c6.508,3.35 22.236,3.076 25.212,-2.528c1.375,-2.589 -21.677,-1.029 -29.24,-3.544c-5.51,-1.833 -13.182,-9.12 -36.552,-11.914c-15.088,-1.803 -31.126,-3.076 -32.796,-1.016Z"/></clipPath><g clip-path="url(#_clip1)"><path d="M-4.302,-0.671c0,0 6.722,8.539 20.875,8.38c10.196,-0.114 16.558,-0.817 30.687,1.718c7.119,1.277 11.364,3.872 18.699,7.763c6.666,3.537 18.854,-4.22 19.139,-7.488c0.285,-3.267 -89.4,-10.373 -89.4,-10.373Z" style="fill:#c4c6db;"/><path d="M60.514,15.988c0,0 13.995,9.608 28.403,8.415c15.766,-1.305 18.355,-5.024 18.355,-5.024l-2.329,11.874l-43.368,1.94l-1.061,-17.205Z" style="fill:#656aa2;"/><path d="M1.151,5.417c0,0 3.248,3.588 19.221,3.168c3.176,-0.083 23.304,-1.675 36.979,5.403l-59.048,-2.691l2.848,-5.88Z" style="fill:#656aa2;"/></g><g><path d="M86.733,15.843c4.853,0.03 12.559,2.986 12.512,4.919c-0.047,1.933 -8.625,3.044 -15.518,2.842c-6.894,-0.202 -9.509,-1.641 -9.462,-3.574c0.047,-1.934 7.269,-4.219 12.468,-4.187Z" style="fill:#f9f9fb;"/><clipPath id="_clip2"><path d="M86.733,15.843c4.853,0.03 12.559,2.986 12.512,4.919c-0.047,1.933 -8.625,3.044 -15.518,2.842c-6.894,-0.202 -9.509,-1.641 -9.462,-3.574c0.047,-1.934 7.269,-4.219 12.468,-4.187Z"/></clipPath><g clip-path="url(#_clip2)"><path d="M80.924,25.417c0,0 11.356,-3.593 7.631,-12.843l14.43,4.629l-1.72,10.418l-20.341,-2.204Z" style="fill:#d2d4ea;"/></g><g><path d="M88.489,19.212c0.281,0.041 0.477,0.297 0.438,0.572c-0.04,0.275 -0.3,0.466 -0.581,0.425c-0.281,-0.04 -0.477,-0.296 -0.438,-0.571c0.039,-0.275 0.3,-0.466 0.581,-0.426Z" style="fill:#f9f9fb;"/><path d="M90.206,17.944c0.281,0.04 0.477,0.296 0.438,0.571c-0.04,0.275 -0.3,0.466 -0.581,0.426c-0.281,-0.041 -0.478,-0.297 -0.438,-0.572c0.039,-0.275 0.3,-0.466 0.581,-0.425Z" style="fill:#f9f9fb;"/><path d="M91.459,18.6c0.282,0.04 0.478,0.296 0.438,0.571c-0.039,0.275 -0.299,0.466 -0.581,0.426c-0.281,-0.041 -0.477,-0.297 -0.437,-0.572c0.039,-0.275 0.299,-0.466 0.58,-0.425Z" style="fill:#f9f9fb;"/><path d="M85.679,18.603c0.281,0.04 0.477,0.296 0.437,0.571c-0.039,0.276 -0.299,0.466 -0.58,0.426c-0.282,-0.041 -0.478,-0.297 -0.438,-0.572c0.039,-0.275 0.299,-0.466 0.581,-0.425Z" style="fill:#f9f9fb;"/><path d="M89.211,17.801c0.282,0.04 0.478,0.297 0.438,0.572c-0.039,0.275 -0.3,0.465 -0.581,0.425c-0.281,-0.04 -0.477,-0.296 -0.438,-0.572c0.04,-0.275 0.3,-0.465 0.581,-0.425Z" style="fill:#f9f9fb;"/><path d="M89.373,16.504c0.281,0.04 0.477,0.296 0.438,0.571c-0.04,0.275 -0.3,0.466 -0.581,0.425c-0.281,-0.04 -0.478,-0.296 -0.438,-0.571c0.039,-0.275 0.3,-0.466 0.581,-0.425Z" style="fill:#f9f9fb;"/><path d="M90.431,20c0.281,0.04 0.477,0.296 0.437,0.571c-0.039,0.275 -0.299,0.466 -0.58,0.426c-0.282,-0.041 -0.478,-0.297 -0.438,-0.572c0.039,-0.275 0.299,-0.466 0.581,-0.425Z" style="fill:#f9f9fb;"/><path d="M87.257,20.357c0.281,0.041 0.477,0.297 0.438,0.572c-0.04,0.275 -0.3,0.466 -0.581,0.425c-0.281,-0.04 -0.478,-0.296 -0.438,-0.571c0.039,-0.275 0.3,-0.466 0.581,-0.426Z" style="fill:#f9f9fb;"/><path d="M85.665,20.804c0.174,0.026 0.296,0.185 0.272,0.356c-0.025,0.17 -0.186,0.289 -0.361,0.264c-0.175,-0.025 -0.297,-0.184 -0.272,-0.355c0.024,-0.171 0.186,-0.29 0.361,-0.265Z" style="fill:#d6d7e6;"/><path d="M82.957,20.416c0.175,0.025 0.297,0.184 0.272,0.355c-0.024,0.171 -0.186,0.289 -0.361,0.264c-0.174,-0.025 -0.296,-0.184 -0.272,-0.355c0.025,-0.171 0.187,-0.289 0.361,-0.264Z" style="fill:#d6d7e6;"/><path d="M87.553,18.492c0.281,0.041 0.477,0.297 0.437,0.572c-0.039,0.275 -0.299,0.466 -0.581,0.425c-0.281,-0.04 -0.477,-0.296 -0.437,-0.571c0.039,-0.275 0.299,-0.466 0.581,-0.426Z" style="fill:#d6d7e6;"/><path d="M87.559,21.971c0.281,0.04 0.477,0.296 0.438,0.572c-0.04,0.275 -0.3,0.465 -0.581,0.425c-0.281,-0.04 -0.477,-0.297 -0.438,-0.572c0.04,-0.275 0.3,-0.465 0.581,-0.425Z" style="fill:#f9f9fb;"/><path d="M84.273,17.592c0.281,0.04 0.478,0.297 0.438,0.572c-0.039,0.275 -0.3,0.465 -0.581,0.425c-0.281,-0.04 -0.477,-0.296 -0.438,-0.572c0.04,-0.275 0.3,-0.465 0.581,-0.425Z" style="fill:#fff;"/><path d="M80.433,17.595c0.281,0.041 0.477,0.297 0.438,0.572c-0.04,0.275 -0.3,0.465 -0.581,0.425c-0.281,-0.04 -0.478,-0.296 -0.438,-0.571c0.039,-0.276 0.3,-0.466 0.581,-0.426Z" style="fill:#fff;"/><path d="M82.15,16.587c0.282,0.041 0.478,0.297 0.438,0.572c-0.039,0.275 -0.299,0.466 -0.581,0.425c-0.281,-0.04 -0.477,-0.296 -0.437,-0.571c0.039,-0.275 0.299,-0.466 0.58,-0.426Z" style="fill:#fff;"/><path d="M86.25,16.584c0.281,0.041 0.477,0.297 0.438,0.572c-0.04,0.275 -0.3,0.466 -0.581,0.425c-0.281,-0.04 -0.477,-0.296 -0.438,-0.571c0.04,-0.275 0.3,-0.466 0.581,-0.426Z" style="fill:#fff;"/><path d="M84.908,22.456c0.281,0.04 0.477,0.296 0.438,0.572c-0.04,0.275 -0.3,0.465 -0.581,0.425c-0.281,-0.04 -0.478,-0.297 -0.438,-0.572c0.039,-0.275 0.3,-0.465 0.581,-0.425Z" style="fill:#f9f9fb;"/><path d="M85.653,21.91c0.18,0.026 0.306,0.19 0.281,0.367c-0.026,0.176 -0.192,0.299 -0.373,0.273c-0.18,-0.026 -0.306,-0.19 -0.281,-0.367c0.026,-0.176 0.193,-0.299 0.373,-0.273Z" style="fill:#f9f9fb;"/></g></g></g></svg>