<?xml version="1.0" encoding="UTF-8" standalone="no"?>
<!DOCTYPE svg PUBLIC "-//W3C//DTD SVG 1.1//EN" "http://www.w3.org/Graphics/SVG/1.1/DTD/svg11.dtd">
<svg width="100%" height="100%" viewBox="0 0 64 65" version="1.1" xmlns="http://www.w3.org/2000/svg" xmlns:xlink="http://www.w3.org/1999/xlink" xml:space="preserve" xmlns:serif="http://www.serif.com/" style="fill-rule:evenodd;clip-rule:evenodd;stroke-linecap:round;stroke-linejoin:round;stroke-miterlimit:1;">
    <rect id="Salt-Education" x="-0.001" y="0.592" width="64" height="64" style="fill:none;"/>
    <clipPath id="_clip1">
        <rect x="-0.001" y="0.592" width="64" height="64"/>
    </clipPath>
    <g clip-path="url(#_clip1)">
        <g>
            <rect x="22.213" y="32.269" width="6.849" height="7.382" style="fill:#adafd1;"/>
            <rect x="22.213" y="36.435" width="6.849" height="1.764" style="fill:#8589bb;"/>
            <path d="M47.558,8.96C47.558,8.167 47.243,7.406 46.682,6.845C46.121,6.284 45.36,5.969 44.567,5.969C36.561,5.969 14.713,5.969 6.707,5.969C5.914,5.969 5.153,6.284 4.592,6.845C4.032,7.406 3.716,8.167 3.716,8.96C3.716,14.79 3.716,27.613 3.716,33.444C3.716,34.237 4.032,34.998 4.592,35.559C5.153,36.12 5.914,36.435 6.707,36.435C14.713,36.435 36.561,36.435 44.567,36.435C45.36,36.435 46.121,36.12 46.682,35.559C47.243,34.998 47.558,34.237 47.558,33.444C47.558,27.613 47.558,14.79 47.558,8.96Z" style="fill:#1f235c;"/>
            <path d="M44.641,5.97L44.715,5.972L44.789,5.977L44.862,5.983L44.936,5.992L45.009,6.002L45.081,6.013L45.153,6.027L45.225,6.042L45.296,6.059L45.367,6.078L45.437,6.098L45.506,6.12L45.575,6.144L45.644,6.169L45.711,6.196L45.778,6.225L45.845,6.256L45.91,6.288L45.975,6.321L46.039,6.356L46.102,6.393L46.165,6.431L46.226,6.471L46.287,6.513L46.346,6.556L46.405,6.6L46.462,6.646L46.519,6.694L46.574,6.743L46.629,6.793L46.682,6.845L46.734,6.898L46.784,6.952L46.833,7.008L46.88,7.064L46.926,7.122L46.971,7.18L47.014,7.24L47.055,7.3L47.095,7.362L47.134,7.424L47.17,7.487L47.205,7.551L47.239,7.616L47.271,7.682L47.301,7.748L47.33,7.815L47.357,7.883L47.383,7.951L47.406,8.02L47.429,8.09L47.449,8.16L47.468,8.231L47.485,8.302L47.5,8.374L47.513,8.446L47.525,8.518L47.535,8.591L47.543,8.664L47.55,8.738L47.554,8.811L47.557,8.886L47.558,8.96L47.558,33.444L47.557,33.518L47.554,33.592L47.55,33.666L47.543,33.739L47.535,33.813L47.525,33.885L47.513,33.958L47.5,34.03L47.485,34.102L47.468,34.173L47.449,34.244L47.429,34.314L47.406,34.383L47.383,34.452L47.357,34.521L47.33,34.588L47.301,34.655L47.271,34.722L47.239,34.787L47.205,34.852L47.17,34.916L47.134,34.979L47.095,35.042L47.055,35.103L47.014,35.164L46.971,35.223L46.926,35.282L46.88,35.339L46.833,35.396L46.784,35.451L46.734,35.506L46.682,35.559L46.629,35.611L46.574,35.661L46.519,35.71L46.462,35.757L46.405,35.803L46.346,35.848L46.287,35.891L46.226,35.932L46.165,35.972L46.102,36.01L46.039,36.047L45.975,36.082L45.91,36.116L45.845,36.148L45.778,36.178L45.711,36.207L45.644,36.234L45.575,36.26L45.506,36.283L45.437,36.306L45.367,36.326L45.296,36.345L45.225,36.362L45.153,36.377L45.081,36.39L45.009,36.402L44.936,36.412L44.862,36.42L44.789,36.427L44.715,36.431L44.641,36.434L44.567,36.435L6.707,36.435L6.633,36.434L6.559,36.431L6.485,36.427L6.412,36.42L6.339,36.412L6.266,36.402L6.193,36.39L6.121,36.377L6.05,36.362L5.978,36.345L5.908,36.326L5.837,36.306L5.768,36.283L5.699,36.26L5.631,36.234L5.563,36.207L5.496,36.178L5.429,36.148L5.364,36.116L5.299,36.082L5.235,36.047L5.172,36.01L5.109,35.972L5.048,35.932L4.987,35.891L4.928,35.848L4.869,35.803L4.812,35.757L4.755,35.71L4.7,35.661L4.646,35.611L4.592,35.559L4.541,35.506L4.49,35.451L4.441,35.396L4.394,35.339L4.348,35.282L4.303,35.223L4.26,35.164L4.219,35.103L4.179,35.042L4.141,34.979L4.104,34.916L4.069,34.852L4.035,34.787L4.003,34.722L3.973,34.655L3.944,34.588L3.917,34.521L3.892,34.452L3.868,34.383L3.846,34.314L3.825,34.244L3.807,34.173L3.79,34.102L3.774,34.03L3.761,33.958L3.749,33.885L3.739,33.813L3.731,33.739L3.725,33.666L3.72,33.592L3.717,33.518L3.716,33.444L3.716,8.96L3.717,8.886L3.72,8.811L3.725,8.738L3.731,8.664L3.739,8.591L3.749,8.518L3.761,8.446L3.774,8.374L3.79,8.302L3.807,8.231L3.825,8.16L3.846,8.09L3.868,8.02L3.892,7.951L3.917,7.883L3.944,7.815L3.973,7.748L4.003,7.682L4.035,7.616L4.069,7.551L4.104,7.487L4.141,7.424L4.179,7.362L4.219,7.3L4.26,7.24L4.303,7.18L4.348,7.122L4.394,7.064L4.441,7.008L4.49,6.952L4.541,6.898L4.592,6.845L4.646,6.793L4.7,6.743L4.755,6.694L4.812,6.646L4.869,6.6L4.928,6.556L4.987,6.513L5.048,6.471L5.109,6.431L5.172,6.393L5.235,6.356L5.299,6.321L5.364,6.288L5.429,6.256L5.496,6.225L5.563,6.196L5.631,6.169L5.699,6.144L5.768,6.12L5.837,6.098L5.908,6.078L5.978,6.059L6.05,6.042L6.121,6.027L6.193,6.013L6.266,6.002L6.339,5.992L6.412,5.983L6.485,5.977L6.559,5.972L6.633,5.97L6.707,5.969L44.567,5.969L44.641,5.97ZM6.722,8.469L6.695,8.469L6.683,8.47L6.671,8.47L6.659,8.471L6.646,8.473L6.635,8.474L6.624,8.476L6.611,8.479L6.6,8.481L6.587,8.484L6.576,8.487L6.566,8.49L6.554,8.494L6.542,8.498L6.531,8.502L6.519,8.506L6.507,8.512L6.496,8.517L6.487,8.521L6.477,8.527L6.466,8.532L6.455,8.539L6.447,8.544L6.435,8.551L6.423,8.559L6.416,8.565L6.407,8.571L6.397,8.58L6.386,8.589L6.376,8.597L6.37,8.604L6.361,8.612L6.352,8.621L6.342,8.632L6.335,8.64L6.328,8.649L6.32,8.658L6.313,8.668L6.306,8.678L6.298,8.688L6.291,8.699L6.286,8.707L6.281,8.716L6.274,8.729L6.27,8.738L6.265,8.748L6.258,8.762L6.253,8.773L6.249,8.784L6.245,8.796L6.242,8.804L6.238,8.817L6.234,8.83L6.231,8.84L6.229,8.85L6.226,8.864L6.224,8.875L6.222,8.887L6.22,8.903L6.219,8.91L6.218,8.923L6.217,8.936L6.217,8.946L6.216,8.974L6.216,33.43L6.217,33.458L6.217,33.467L6.218,33.48L6.219,33.493L6.22,33.501L6.222,33.517L6.224,33.528L6.226,33.539L6.229,33.554L6.231,33.564L6.234,33.573L6.238,33.587L6.242,33.599L6.245,33.608L6.249,33.619L6.253,33.63L6.258,33.642L6.265,33.656L6.27,33.666L6.274,33.675L6.281,33.687L6.286,33.696L6.291,33.704L6.298,33.715L6.306,33.726L6.313,33.736L6.32,33.746L6.328,33.755L6.335,33.764L6.343,33.772L6.352,33.783L6.361,33.791L6.37,33.8L6.376,33.806L6.386,33.814L6.397,33.824L6.407,33.832L6.416,33.839L6.423,33.844L6.435,33.852L6.447,33.86L6.455,33.865L6.466,33.871L6.477,33.877L6.487,33.883L6.496,33.887L6.508,33.892L6.519,33.897L6.53,33.901L6.542,33.906L6.554,33.91L6.566,33.914L6.576,33.917L6.587,33.92L6.6,33.923L6.611,33.925L6.624,33.927L6.635,33.929L6.647,33.931L6.659,33.932L6.671,33.933L6.683,33.934L6.694,33.934L6.722,33.935L44.552,33.935L44.58,33.934L44.591,33.934L44.603,33.933L44.615,33.932L44.627,33.931L44.639,33.929L44.651,33.927L44.663,33.925L44.675,33.923L44.687,33.92L44.699,33.917L44.709,33.914L44.721,33.91L44.732,33.906L44.745,33.901L44.755,33.897L44.764,33.893L44.778,33.887L44.787,33.883L44.797,33.877L44.81,33.87L44.819,33.865L44.828,33.86L44.839,33.852L44.849,33.846L44.858,33.839L44.869,33.83L44.877,33.824L44.889,33.814L44.898,33.806L44.905,33.8L44.913,33.791L44.922,33.783L44.932,33.772L44.939,33.764L44.946,33.755L44.954,33.746L44.961,33.736L44.969,33.726L44.976,33.715L44.981,33.708L44.988,33.696L44.995,33.684L45,33.675L45.005,33.666L45.01,33.656L45.016,33.642L45.021,33.63L45.025,33.619L45.03,33.608L45.032,33.599L45.036,33.587L45.04,33.573L45.043,33.564L45.045,33.554L45.047,33.544L45.05,33.528L45.053,33.512L45.054,33.501L45.055,33.493L45.056,33.48L45.057,33.467L45.058,33.458L45.058,33.43L45.058,8.974L45.058,8.946L45.057,8.936L45.056,8.923L45.055,8.91L45.054,8.903L45.053,8.891L45.05,8.875L45.047,8.86L45.045,8.85L45.043,8.84L45.04,8.83L45.036,8.817L45.032,8.804L45.03,8.796L45.025,8.784L45.021,8.773L45.016,8.762L45.01,8.748L45.005,8.738L45,8.729L44.995,8.72L44.988,8.707L44.981,8.696L44.976,8.688L44.969,8.678L44.961,8.668L44.954,8.658L44.946,8.649L44.939,8.64L44.932,8.632L44.922,8.621L44.913,8.612L44.905,8.604L44.898,8.597L44.889,8.589L44.877,8.58L44.869,8.573L44.858,8.565L44.849,8.558L44.839,8.551L44.828,8.544L44.819,8.539L44.81,8.534L44.797,8.527L44.787,8.521L44.778,8.517L44.765,8.511L44.755,8.506L44.744,8.502L44.732,8.498L44.721,8.494L44.709,8.49L44.699,8.487L44.687,8.484L44.675,8.481L44.663,8.479L44.651,8.476L44.639,8.474L44.628,8.473L44.615,8.471L44.603,8.47L44.591,8.47L44.579,8.469L44.552,8.469L6.722,8.469Z" style="fill:#9699c4;fill-opacity:0.61;"/>
            <ellipse cx="25.637" cy="39.652" rx="7.845" ry="0.949" style="fill:#adafd1;"/>
        </g>
        <rect x="5.889" y="9.363" width="37.759" height="23.228" style="fill:none;"/>
        <g>
            <path d="M33.3,20.496C33.3,26.193 28.476,30.818 22.533,30.818C16.591,30.818 11.767,26.193 11.767,20.496L33.3,20.496Z" style="fill:#d25950;"/>
            <clipPath id="_clip2">
                <path d="M33.3,20.496C33.3,26.193 28.476,30.818 22.533,30.818C16.591,30.818 11.767,26.193 11.767,20.496L33.3,20.496Z"/>
            </clipPath>
            <g clip-path="url(#_clip2)">
                <path d="M30.992,17.492C30.992,23.188 26.167,27.813 20.225,27.813C14.282,27.813 9.458,23.188 9.458,17.492L30.992,17.492Z" style="fill:#f1765a;"/>
                <path d="M33.3,22.652C33.3,24.311 28.476,25.657 22.533,25.657C16.591,25.657 11.767,24.311 11.767,22.652" style="fill:none;stroke:#4f59c9;stroke-opacity:0.75;stroke-width:0.49px;"/>
            </g>
            <ellipse cx="22.533" cy="20.496" rx="10.767" ry="2.816" style="fill:#f1b1af;"/>
            <clipPath id="_clip3">
                <ellipse cx="22.533" cy="20.496" rx="10.767" ry="2.816"/>
            </clipPath>
            <g clip-path="url(#_clip3)">
                <ellipse cx="25.903" cy="20.029" rx="10.767" ry="2.816" style="fill:#ee8b74;"/>
            </g>
            <path d="M22.533,14.404C24.073,14.404 31.565,18.534 31.565,19.962C31.565,21.389 27.518,22.548 22.533,22.548C17.549,22.548 13.502,21.389 13.502,19.962C13.502,18.534 20.994,14.404 22.533,14.404Z" style="fill:#f9f9fb;"/>
            <clipPath id="_clip4">
                <path d="M22.533,14.404C24.073,14.404 31.565,18.534 31.565,19.962C31.565,21.389 27.518,22.548 22.533,22.548C17.549,22.548 13.502,21.389 13.502,19.962C13.502,18.534 20.994,14.404 22.533,14.404Z"/>
            </clipPath>
            <g clip-path="url(#_clip4)">
                <path d="M18.409,23.793C18.409,23.793 26.551,20.896 23.697,14.151L34.205,17.254L33.145,24.979L18.409,23.793Z" style="fill:#d2d4ea;"/>
            </g>
            <g>
                <path d="M16.461,18.144C15.97,17.232 15.21,16.493 14.285,16.028C12.184,14.948 8.987,13.339 8.987,13.339C8.243,12.907 8.752,12.423 8.951,12.379C9.315,12.299 9.94,12.748 10.09,12.816L16.652,16.118C17.266,16.044 18.306,16.501 19.277,16.99C20.747,17.73 22.273,18.624 21.438,19.403C20.771,20.024 18.698,20.255 17.401,19.241C16.958,18.895 16.659,18.512 16.461,18.144Z" style="fill:#898cc2;"/>
                <path d="M16.9,17.617C16.102,16.829 15.185,16.171 14.183,15.666C12.082,14.573 9.114,13.08 9.114,13.08C8.293,12.633 8.853,12.382 9.043,12.357C9.39,12.31 9.999,12.624 10.148,12.693C10.148,12.693 14.693,14.98 16.258,15.767C16.65,15.964 17.08,16.073 17.519,16.086C18.084,16.086 18.781,16.304 19.488,16.66C20.958,17.4 21.923,18.456 21.641,19.016C21.36,19.576 19.937,19.43 18.466,18.69C17.829,18.369 17.287,17.99 16.9,17.617Z" style="fill:#e0e0eb;"/>
            </g>
            <path d="M19.474,20.429C19.474,20.429 20.258,17.725 22.099,17.577C23.94,17.43 22.547,20.931 22.547,20.931L19.474,20.429Z" style="fill:#f9f9fb;"/>
            <path d="M18.53,18.027C18.53,18.027 19.242,18.96 20.288,19.252L21.008,18.345C21.008,18.345 20.745,18.283 18.53,18.027Z" style="fill:#f9f9fb;"/>
            <g>
                <circle cx="23.833" cy="19.276" r="0.372" style="fill:#f9f9fb;"/>
                <circle cx="24.931" cy="18.169" r="0.372" style="fill:#f9f9fb;"/>
                <circle cx="24.559" cy="16.46" r="0.372" style="fill:#f9f9fb;"/>
                <circle cx="24.187" cy="15.611" r="0.372" style="fill:#f9f9fb;"/>
                <circle cx="24.205" cy="18.169" r="0.372" style="fill:#f9f9fb;"/>
                <circle cx="24.187" cy="17.203" r="0.372" style="fill:#f9f9fb;"/>
                <circle cx="25.302" cy="19.648" r="0.372" style="fill:#f9f9fb;"/>
                <circle cx="23.069" cy="20.242" r="0.372" style="fill:#f9f9fb;"/>
                <circle cx="21.976" cy="20.595" r="0.231" style="fill:#d6d7e6;"/>
                <circle cx="20" cy="20.595" r="0.231" style="fill:#d6d7e6;"/>
                <circle cx="23.089" cy="18.848" r="0.372" style="fill:#d6d7e6;"/>
                <circle cx="23.451" cy="21.39" r="0.372" style="fill:#f9f9fb;"/>
                <circle cx="21.604" cy="16.355" r="0.372" style="fill:#fff;"/>
                <circle cx="22.453" cy="15.239" r="0.372" style="fill:#fff;"/>
                <circle cx="20.255" cy="15.715" r="0.372" style="fill:#fff;"/>
                <circle cx="21.962" cy="17.59" r="0.372" style="fill:#fff;"/>
                <circle cx="21.604" cy="22.023" r="0.372" style="fill:#f9f9fb;"/>
                <circle cx="22.081" cy="21.412" r="0.239" style="fill:#f9f9fb;"/>
            </g>
            <path d="M18.581,17.262L18.584,17.263L18.572,17.26L18.531,17.246L18.534,17.247L18.482,17.231L18.485,17.231L18.435,17.217L18.438,17.217L18.403,17.207L18.389,17.203L18.391,17.203L18.344,17.189L18.348,17.19L18.255,17.165L18.261,17.166L18.231,17.159L18.173,17.143L18.178,17.144L18.095,17.125L18.099,17.125L18.057,17.117L18.021,17.109L18.025,17.109L17.951,17.095L17.955,17.095L17.886,17.083L17.89,17.083L17.825,17.075L17.829,17.075L17.768,17.069L17.772,17.068L17.727,17.065L17.716,17.064L17.72,17.064L17.669,17.061L17.672,17.061L17.626,17.059L17.629,17.059L17.588,17.059L17.591,17.058L17.555,17.059L17.558,17.059L17.527,17.06L17.529,17.06L17.505,17.062L17.507,17.061L17.474,17.065L17.477,17.064L17.476,17.064L17.465,17.066L17.381,17.023L17.424,16.938L17.433,16.934L17.434,16.933L17.437,16.932L17.468,16.918L17.471,16.918L17.494,16.908L17.496,16.908L17.524,16.897L17.526,16.897L17.56,16.885L17.562,16.885L17.601,16.873L17.603,16.872L17.647,16.86L17.65,16.859L17.699,16.847L17.702,16.846L17.712,16.844L17.757,16.835L17.76,16.835L17.82,16.825L17.823,16.824L17.888,16.815L17.892,16.815L17.962,16.807L17.966,16.807L18.042,16.801L18.046,16.801L18.083,16.799L18.127,16.798L18.132,16.798L18.217,16.798L18.222,16.799L18.283,16.801L18.313,16.802L18.319,16.803L18.414,16.811L18.418,16.812L18.468,16.817L18.471,16.817L18.486,16.819L18.522,16.824L18.525,16.825L18.576,16.833L18.579,16.834L18.633,16.844L18.636,16.844L18.678,16.853L18.69,16.855L18.693,16.856L18.748,16.87L18.751,16.871L18.807,16.886L18.81,16.887L18.859,16.9L18.867,16.903L18.87,16.904L18.928,16.925L18.931,16.926L18.989,16.948L18.992,16.949L19.044,16.97L19.052,16.973L19.054,16.974L19.114,17.002L19.117,17.003L19.178,17.032L19.18,17.033L19.242,17.064L19.244,17.065L19.249,17.067L19.307,17.099L19.309,17.1L19.372,17.135L19.374,17.136L19.438,17.174L19.44,17.175L19.453,17.182L19.505,17.215L19.507,17.216L19.572,17.258L19.574,17.259L19.64,17.303L19.641,17.304L19.644,17.306L19.708,17.351L19.709,17.352L19.776,17.401L19.778,17.402L19.846,17.453L19.847,17.454L19.916,17.507L19.917,17.508L19.94,17.526L19.986,17.564L19.987,17.564L20.057,17.623L20.091,17.722L19.988,17.737L19.903,17.703L19.904,17.703L19.849,17.681L19.822,17.67L19.823,17.671L19.742,17.639L19.743,17.639L19.663,17.609L19.665,17.61L19.587,17.581L19.588,17.582L19.514,17.556L19.511,17.555L19.513,17.555L19.438,17.529L19.44,17.53L19.366,17.504L19.368,17.505L19.31,17.486L19.296,17.482L19.298,17.483L19.228,17.459L19.23,17.46L19.161,17.438L19.163,17.439L19.101,17.42L19.096,17.419L19.098,17.42L19.032,17.399L19.035,17.4L18.97,17.38L18.973,17.381L18.91,17.363L18.912,17.364L18.905,17.362L18.851,17.345L18.854,17.346L18.794,17.328L18.797,17.329L18.738,17.312L18.741,17.313L18.732,17.311L18.684,17.295L18.687,17.295L18.632,17.278L18.635,17.279L18.581,17.262Z" style="fill:#acaed2;"/>
        </g>
        <g>
            <path d="M37.178,54.539C37.051,55.168 34.753,54.295 34.487,54.222C32.927,53.795 31.205,52.978 30.015,51.889C28.679,50.667 29.294,48.251 31.148,47.873C32.472,47.603 33.986,47.735 35.216,48.109C36.069,48.368 36.946,48.614 37.763,48.978" style="fill:#f3775b;"/>
            <clipPath id="_clip5">
                <path d="M37.178,54.539C37.051,55.168 34.753,54.295 34.487,54.222C32.927,53.795 31.205,52.978 30.015,51.889C28.679,50.667 29.294,48.251 31.148,47.873C32.472,47.603 33.986,47.735 35.216,48.109C36.069,48.368 36.946,48.614 37.763,48.978"/>
            </clipPath>
            <g clip-path="url(#_clip5)">
                <path d="M29.224,45.859C28.689,45.685 28.067,47.122 27.929,47.44C24.957,54.264 33.877,54.808 32.588,53.567C31.48,52.5 30.915,50.765 32.124,49.582C33.971,47.777 35.491,49.661 36.76,48.392C36.984,48.168 36.635,47.984 36.7,47.662C37.275,44.783 31.839,44.653 30.153,45.215C29.541,45.42 29.319,45.934 28.787,46.201" style="fill:#f3ab9b;"/>
            </g>
            <path d="M36.222,46.073C36.094,46.702 33.797,45.829 33.53,45.755C31.971,45.328 30.249,44.512 29.059,43.423C27.723,42.201 28.337,39.785 30.192,39.407C31.516,39.137 33.029,39.268 34.26,39.642C35.113,39.901 35.99,40.148 36.807,40.512" style="fill:#f3775b;"/>
            <clipPath id="_clip6">
                <path d="M36.222,46.073C36.094,46.702 33.797,45.829 33.53,45.755C31.971,45.328 30.249,44.512 29.059,43.423C27.723,42.201 28.337,39.785 30.192,39.407C31.516,39.137 33.029,39.268 34.26,39.642C35.113,39.901 35.99,40.148 36.807,40.512"/>
            </clipPath>
            <g clip-path="url(#_clip6)">
                <path d="M28.268,37.392C27.733,37.218 27.111,38.655 26.972,38.973C24.001,45.797 32.92,46.341 31.632,45.1C30.524,44.033 29.958,42.298 31.168,41.115C33.014,39.31 34.535,41.195 35.804,39.925C36.028,39.702 35.679,39.518 35.743,39.196C36.319,36.317 30.883,36.187 29.197,36.749C28.584,36.953 28.363,37.468 27.83,37.734" style="fill:#f3ab9b;"/>
            </g>
            <rect x="35.704" y="34.097" width="47.847" height="34.078" style="fill:none;"/>
            <clipPath id="_clip7">
                <rect x="35.704" y="34.097" width="47.847" height="34.078"/>
            </clipPath>
            <g clip-path="url(#_clip7)">
                <path d="M50.505,41.057C50.402,41.022 50.346,40.56 50.24,40.454C50.229,40.443 50.189,40.419 50.205,40.419C50.262,40.419 50.288,40.502 50.31,40.524C51.052,41.266 52.169,41.881 52.834,42.767C53.382,43.498 54.131,43.761 54.831,44.344C56.284,45.555 57.669,46.913 58.791,48.41C59.55,49.421 60.348,50.429 61.034,51.459C61.621,52.339 62.168,53.424 62.506,54.437C62.7,55.02 63.143,55.606 63.417,56.155C64.072,57.464 64.66,58.819 65.38,60.115C67.64,64.183 70.206,68.211 72.88,72.03C74.247,73.983 75.28,76.204 76.84,78.023C77.283,78.541 77.575,79.319 78.031,79.775C78.037,79.78 78.11,79.836 78.066,79.88C77.748,80.198 76.331,80.081 75.893,80.161C73.172,80.655 60.69,80.312 59.611,80.193C59.19,80.146 53.088,78.962 49.683,75.68C48.489,74.529 46.975,71.555 44.637,68.91C42.771,66.8 40.117,64.976 38.605,63.9C37.563,63.157 36.201,62.461 35.223,61.724C34.995,61.553 34.788,61.379 34.61,61.201C34.197,60.788 35.008,59.325 35.206,59.028C36.617,56.913 38.267,55.028 39.622,52.86C40.099,52.097 40.633,51.341 41.164,50.617C43.353,47.633 45.736,44.853 48.348,42.242C48.957,41.633 49.458,40.851 49.995,40.314C50.219,40.091 50.468,40.945 50.486,40.945" style="fill:#c06564;"/>
            </g>
            <path d="M57.253,26.51C57.253,24.023 55.237,22.007 52.751,22.007C48.905,22.007 43.4,22.007 39.554,22.007C37.067,22.007 35.051,24.023 35.051,26.51C35.051,34.519 35.051,51.152 35.051,59.162C35.051,61.649 37.067,63.664 39.554,63.664C43.4,63.664 48.905,63.664 52.751,63.664C55.237,63.664 57.253,61.649 57.253,59.162C57.253,51.152 57.253,34.519 57.253,26.51Z" style="fill:#fff;"/>
            <clipPath id="_clip8">
                <path d="M57.253,26.51C57.253,24.023 55.237,22.007 52.751,22.007C48.905,22.007 43.4,22.007 39.554,22.007C37.067,22.007 35.051,24.023 35.051,26.51C35.051,34.519 35.051,51.152 35.051,59.162C35.051,61.649 37.067,63.664 39.554,63.664C43.4,63.664 48.905,63.664 52.751,63.664C55.237,63.664 57.253,61.649 57.253,59.162C57.253,51.152 57.253,34.519 57.253,26.51Z"/>
            </clipPath>
            <g clip-path="url(#_clip8)">
                <path d="M53.519,41.469C53.519,41.469 51.313,46.06 53.882,48.35C56.451,50.639 57.362,51.339 57.362,51.339L57.362,45.499L53.519,41.469Z" style="fill:#cfd0e2;"/>
                <path d="M34.751,56.121C34.751,56.121 38.969,55.949 38.96,59.577C38.952,62.692 35.216,62.582 35.216,62.582L34.751,56.121Z" style="fill:#cfd0e2;"/>
            </g>
            <path d="M53.027,21.335C55.417,21.381 57.555,23.484 57.601,25.909C57.672,37.171 57.813,48.435 57.6,59.694C57.525,62.047 55.461,64.132 53.087,64.207C48.48,64.295 43.871,64.295 39.265,64.207C36.913,64.133 34.827,62.068 34.752,59.694C34.538,48.415 34.538,37.129 34.752,25.849C34.827,23.497 36.891,21.412 39.265,21.337C43.851,21.249 48.44,21.306 53.027,21.335ZM39.39,24.139C37.923,24.148 36.601,25.429 36.575,26.913C36.474,38.152 36.373,47.733 36.575,58.97C36.621,60.413 37.894,61.678 39.348,61.706C43.912,61.734 48.477,61.792 53.041,61.705C54.474,61.66 55.731,60.405 55.776,58.97C55.979,47.709 56.13,38.097 55.775,26.84C55.711,25.411 54.445,24.166 53.004,24.139C48.466,24.111 43.928,24.139 39.39,24.139Z" style="fill:#636693;"/>
            <clipPath id="_clip9">
                <path d="M53.027,21.335C55.417,21.381 57.555,23.484 57.601,25.909C57.672,37.171 57.813,48.435 57.6,59.694C57.525,62.047 55.461,64.132 53.087,64.207C48.48,64.295 43.871,64.295 39.265,64.207C36.913,64.133 34.827,62.068 34.752,59.694C34.538,48.415 34.538,37.129 34.752,25.849C34.827,23.497 36.891,21.412 39.265,21.337C43.851,21.249 48.44,21.306 53.027,21.335ZM39.39,24.139C37.923,24.148 36.601,25.429 36.575,26.913C36.474,38.152 36.373,47.733 36.575,58.97C36.621,60.413 37.894,61.678 39.348,61.706C43.912,61.734 48.477,61.792 53.041,61.705C54.474,61.66 55.731,60.405 55.776,58.97C55.979,47.709 56.13,38.097 55.775,26.84C55.711,25.411 54.445,24.166 53.004,24.139C48.466,24.111 43.928,24.139 39.39,24.139Z"/>
            </clipPath>
            <g clip-path="url(#_clip9)">
                <path d="M62.119,18.881L31.53,48.963L31.743,67.874L62.119,67.874L62.119,18.881Z" style="fill:#2b307e;"/>
                <path d="M34.442,55.568C34.442,55.568 38.783,55.391 38.773,59.125C38.765,62.331 34.92,62.218 34.92,62.218L34.442,55.568Z"/>
            </g>
            <g>
                <g>
                    <ellipse cx="50.022" cy="54.441" rx="8.588" ry="3.125" style="fill:#2b307e;fill-opacity:0.08;"/>
                    <path d="M46.273,34.515L49.584,34.515C49.915,36.834 50.401,38.338 51.566,39.276C52.729,40.212 53.522,40.892 53.522,42.503L53.522,53.375C53.522,53.914 53.219,54.407 52.738,54.65C52.738,54.65 51.02,55.518 49.355,56.359C47.417,57.338 45.129,57.338 43.191,56.359C41.527,55.518 39.809,54.65 39.809,54.65C39.328,54.407 39.025,53.914 39.025,53.375L39.025,42.503L39.025,42.466C39.037,40.881 39.827,40.205 40.98,39.276C42.146,38.338 42.631,36.834 42.963,34.515L46.273,34.515Z" style="fill:#d6d7f0;"/>
                    <clipPath id="_clip10">
                        <path d="M46.273,34.515L49.584,34.515C49.915,36.834 50.401,38.338 51.566,39.276C52.729,40.212 53.522,40.892 53.522,42.503L53.522,53.375C53.522,53.914 53.219,54.407 52.738,54.65C52.738,54.65 51.02,55.518 49.355,56.359C47.417,57.338 45.129,57.338 43.191,56.359C41.527,55.518 39.809,54.65 39.809,54.65C39.328,54.407 39.025,53.914 39.025,53.375L39.025,42.503L39.025,42.466C39.037,40.881 39.827,40.205 40.98,39.276C42.146,38.338 42.631,36.834 42.963,34.515L46.273,34.515Z"/>
                    </clipPath>
                    <g clip-path="url(#_clip10)">
                        <ellipse cx="46.273" cy="36.529" rx="4.187" ry="1.303" style="fill:#2b307f;fill-opacity:0.41;"/>
                        <rect x="46.365" y="30.464" width="8.191" height="29.487" style="fill:#2b307f;fill-opacity:0.17;"/>
                    </g>
                    <ellipse cx="46.273" cy="35.818" rx="4.839" ry="1.303" style="fill:#bebfe5;"/>
                    <path d="M42.886,37.629L42.919,37.646L42.917,37.644L42.934,37.652L42.951,37.661L42.949,37.659L42.984,37.676L42.982,37.675L43.019,37.691L43.016,37.69L43.054,37.705L43.052,37.704L43.091,37.719L43.089,37.718L43.13,37.733L43.128,37.732L43.169,37.746L43.167,37.745L43.21,37.759L43.208,37.757L43.216,37.76L43.252,37.772L43.25,37.771L43.295,37.784L43.293,37.783L43.339,37.797L43.336,37.795L43.408,37.814L43.431,37.821L43.427,37.819L43.526,37.845L43.521,37.844L43.616,37.865L43.624,37.868L43.62,37.866L43.726,37.891L43.722,37.89L43.831,37.913L43.827,37.912L43.828,37.912L43.938,37.938L43.934,37.937L44.044,37.96L44.048,37.962L44.045,37.961L44.161,37.988L44.157,37.987L44.275,38.013L44.272,38.013L44.275,38.013L44.392,38.039L44.389,38.039L44.512,38.064L44.508,38.063L44.548,38.071L44.632,38.088L44.629,38.088L44.755,38.112L44.752,38.111L44.879,38.133L44.876,38.133L45.004,38.153L45.002,38.153L45.131,38.171L45.128,38.171L45.154,38.174L45.258,38.189L45.255,38.188L45.385,38.204L45.383,38.204L45.513,38.218L45.51,38.218L45.64,38.229L45.638,38.229L45.763,38.238L45.767,38.239L45.765,38.239L45.894,38.246L45.892,38.246L46.02,38.252L46.018,38.252L46.145,38.255L46.143,38.255L46.253,38.255L46.268,38.255L46.342,38.319L46.279,38.393L46.264,38.395L46.155,38.412L46.153,38.412L46.028,38.429L46.026,38.429L45.899,38.444L45.898,38.444L45.769,38.456L45.767,38.456L45.763,38.457L45.638,38.466L45.636,38.466L45.506,38.473L45.504,38.473L45.373,38.478L45.371,38.478L45.241,38.48L45.238,38.48L45.133,38.481L45.108,38.48L45.105,38.48L44.975,38.477L44.972,38.477L44.843,38.471L44.84,38.471L44.712,38.464L44.709,38.463L44.581,38.454L44.578,38.454L44.492,38.446L44.452,38.442L44.449,38.441L44.325,38.425L44.322,38.425L44.203,38.408L44.2,38.407L44.196,38.407L44.077,38.385L44.074,38.384L43.957,38.36L43.953,38.359L43.948,38.358L43.84,38.329L43.836,38.328L43.727,38.297L43.726,38.296L43.722,38.295L43.617,38.258L43.613,38.256L43.512,38.218L43.507,38.216L43.499,38.213L43.411,38.173L43.406,38.172L43.314,38.128L43.31,38.126L43.288,38.115L43.223,38.079L43.22,38.078L43.178,38.054L43.176,38.053L43.135,38.029L43.133,38.028L43.101,38.008L43.094,38.003L43.092,38.002L43.054,37.977L43.052,37.976L43.016,37.95L43.014,37.949L42.979,37.923L42.977,37.922L42.944,37.896L42.941,37.895L42.909,37.869L42.907,37.867L42.877,37.841L42.875,37.84L42.846,37.814L42.844,37.812L42.83,37.799L42.816,37.786L42.814,37.784L42.789,37.758L42.787,37.756L42.763,37.729L42.761,37.727L42.739,37.7L42.728,37.599L42.83,37.596L42.859,37.614L42.857,37.613L42.889,37.63L42.886,37.629Z" style="fill:#fff;fill-opacity:0.8;"/>
                    <path d="M42.49,36.118L42.528,36.131L42.542,36.136L42.541,36.135L42.595,36.154L42.593,36.154L42.649,36.172L42.647,36.171L42.704,36.189L42.703,36.189L42.821,36.224L42.818,36.223L42.942,36.257L42.94,36.256L43.012,36.274L43.069,36.29L43.066,36.289L43.199,36.322L43.197,36.322L43.257,36.335L43.333,36.355L43.331,36.354L43.471,36.387L43.469,36.386L43.48,36.389L43.612,36.42L43.61,36.42L43.755,36.452L43.753,36.452L43.756,36.453L43.9,36.484L43.898,36.484L44.048,36.514L44.046,36.514L44.073,36.519L44.196,36.544L44.194,36.544L44.345,36.571L44.344,36.571L44.495,36.597L44.494,36.597L44.645,36.62L44.644,36.62L44.774,36.638L44.795,36.641L44.793,36.641L44.943,36.661L44.942,36.661L45.09,36.678L45.089,36.678L45.236,36.692L45.234,36.692L45.379,36.704L45.377,36.704L45.519,36.712L45.517,36.712L45.587,36.715L45.586,36.715L45.655,36.718L45.654,36.718L45.722,36.719L45.721,36.719L45.789,36.72L45.788,36.72L45.854,36.72L45.853,36.72L45.917,36.719L45.916,36.719L45.98,36.717L45.979,36.717L46.022,36.715L46.042,36.715L46.116,36.778L46.053,36.852L46.033,36.854L45.99,36.859L45.989,36.859L45.926,36.866L45.925,36.866L45.86,36.871L45.859,36.871L45.793,36.876L45.792,36.876L45.725,36.88L45.724,36.88L45.656,36.883L45.656,36.883L45.587,36.886L45.586,36.886L45.516,36.888L45.514,36.887L45.372,36.889L45.37,36.889L45.225,36.887L45.223,36.887L45.076,36.883L45.074,36.883L44.924,36.876L44.923,36.876L44.771,36.867L44.77,36.867L44.749,36.865L44.617,36.854L44.616,36.854L44.463,36.838L44.461,36.838L44.308,36.82L44.306,36.82L44.154,36.8L44.152,36.8L44.028,36.782L44,36.778L43.999,36.778L43.848,36.752L43.846,36.752L43.701,36.725L43.698,36.725L43.696,36.724L43.55,36.694L43.548,36.694L43.416,36.664L43.405,36.661L43.403,36.661L43.264,36.624L43.262,36.624L43.186,36.602L43.127,36.585L43.125,36.584L42.994,36.543L42.992,36.542L42.936,36.523L42.866,36.498L42.864,36.497L42.744,36.452L42.741,36.451L42.627,36.404L42.625,36.404L42.57,36.38L42.569,36.38L42.515,36.356L42.514,36.356L42.462,36.332L42.461,36.331L42.446,36.325L42.411,36.307L42.409,36.306L42.361,36.282L42.36,36.281L42.314,36.256L42.312,36.256L42.268,36.231L42.266,36.23L42.224,36.205L42.222,36.205L42.182,36.18L42.18,36.179L42.142,36.154L42.14,36.153L42.104,36.128L42.102,36.127L42.067,36.103L42.065,36.101L42.034,36.077L42.031,36.075L42.002,36.051L42,36.049L41.972,36.025L41.97,36.023L41.945,35.998L41.936,35.9L42.035,35.894L42.063,35.915L42.06,35.913L42.09,35.934L42.088,35.932L42.121,35.952L42.118,35.951L42.153,35.971L42.151,35.97L42.188,35.99L42.186,35.989L42.225,36.009L42.223,36.008L42.265,36.028L42.263,36.027L42.306,36.046L42.304,36.045L42.349,36.064L42.348,36.064L42.395,36.083L42.393,36.082L42.442,36.101L42.441,36.1L42.491,36.118L42.49,36.118Z" style="fill:#fff;fill-opacity:0.8;"/>
                    <ellipse cx="46.273" cy="34.434" rx="5.293" ry="2.04" style="fill:#7072ac;"/>
                    <path d="M46.273,32.1C49.195,32.1 51.566,33.292 51.566,34.079C51.566,34.866 49.195,35.504 46.273,35.504C43.352,35.504 40.98,34.866 40.98,34.079C40.98,33.292 43.352,32.1 46.273,32.1Z" style="fill:#bebfe5;"/>
                    <clipPath id="_clip11">
                        <path d="M46.273,32.1C49.195,32.1 51.566,33.292 51.566,34.079C51.566,34.866 49.195,35.504 46.273,35.504C43.352,35.504 40.98,34.866 40.98,34.079C40.98,33.292 43.352,32.1 46.273,32.1Z"/>
                    </clipPath>
                    <g clip-path="url(#_clip11)">
                        <path d="M44.158,31.97C45.752,31.763 47.107,32.067 47.183,32.649C47.258,33.231 46.026,33.872 44.432,34.079C42.839,34.285 41.483,33.981 41.408,33.399C41.332,32.817 42.565,32.177 44.158,31.97Z" style="fill:#fff;fill-opacity:0.47;"/>
                    </g>
                    <g>
                        <ellipse cx="46.273" cy="34.246" rx="0.474" ry="0.269" style="fill:#fff;"/>
                        <ellipse cx="47.557" cy="33.462" rx="0.474" ry="0.231" style="fill:#fff;"/>
                        <path d="M49.643,33.433C49.899,33.489 50.088,33.615 50.066,33.715C50.044,33.815 49.819,33.85 49.564,33.794C49.309,33.738 49.119,33.612 49.141,33.512C49.163,33.412 49.388,33.377 49.643,33.433Z" style="fill:#fff;"/>
                        <path d="M42.903,33.433C42.648,33.489 42.459,33.615 42.481,33.715C42.503,33.815 42.728,33.85 42.983,33.794C43.238,33.738 43.428,33.612 43.406,33.512C43.384,33.412 43.159,33.377 42.903,33.433Z" style="fill:#fff;"/>
                        <ellipse cx="44.99" cy="33.462" rx="0.474" ry="0.231" style="fill:#fff;"/>
                        <ellipse cx="46.273" cy="32.735" rx="0.474" ry="0.166" style="fill:#fff;"/>
                        <path d="M44.173,32.636C44.429,32.582 44.645,32.582 44.657,32.637C44.669,32.692 44.47,32.78 44.215,32.834C43.959,32.888 43.742,32.887 43.73,32.833C43.719,32.778 43.917,32.69 44.173,32.636Z" style="fill:#fff;"/>
                        <path d="M48.515,32.636C48.26,32.582 48.043,32.582 48.031,32.637C48.019,32.692 48.218,32.78 48.473,32.834C48.729,32.888 48.946,32.887 48.958,32.833C48.969,32.778 48.771,32.69 48.515,32.636Z" style="fill:#fff;"/>
                    </g>
                    <path d="M52.025,45.067C52.025,42.489 46.273,40.961 46.273,40.961C46.273,40.961 40.522,42.846 40.522,45.067L40.522,48.406L52.025,48.406L52.025,45.067Z" style="fill:#f3f3fa;"/>
                    <g>
                        <ellipse cx="46.273" cy="34.142" rx="0.474" ry="0.269" style="fill:#2b307e;"/>
                        <ellipse cx="47.557" cy="33.358" rx="0.474" ry="0.231" style="fill:#2b307e;"/>
                        <path d="M49.643,33.329C49.899,33.385 50.088,33.511 50.066,33.611C50.044,33.711 49.819,33.746 49.564,33.69C49.309,33.634 49.119,33.508 49.141,33.408C49.163,33.308 49.388,33.273 49.643,33.329Z" style="fill:#2b307e;"/>
                        <path d="M42.903,33.329C42.648,33.385 42.459,33.511 42.481,33.611C42.503,33.711 42.728,33.746 42.983,33.69C43.238,33.634 43.428,33.508 43.406,33.408C43.384,33.308 43.159,33.273 42.903,33.329Z" style="fill:#2b307e;"/>
                        <ellipse cx="44.99" cy="33.358" rx="0.474" ry="0.231" style="fill:#2b307e;"/>
                        <ellipse cx="46.273" cy="32.631" rx="0.474" ry="0.166" style="fill:#2b307e;"/>
                        <path d="M44.173,32.532C44.429,32.478 44.645,32.478 44.657,32.533C44.669,32.588 44.47,32.676 44.215,32.73C43.959,32.784 43.742,32.783 43.73,32.729C43.719,32.674 43.917,32.586 44.173,32.532Z" style="fill:#2b307e;"/>
                        <path d="M48.515,32.532C48.26,32.478 48.043,32.478 48.031,32.533C48.019,32.588 48.218,32.676 48.473,32.73C48.729,32.784 48.946,32.783 48.958,32.729C48.969,32.674 48.771,32.586 48.515,32.532Z" style="fill:#2b307e;"/>
                    </g>
                    <path d="M41.201,53.4C40.785,53.193 40.522,52.768 40.522,52.303L40.522,44.801C40.522,44.801 42.488,45.638 44.121,46.333C45.496,46.918 47.05,46.918 48.425,46.333C50.059,45.638 52.025,44.801 52.025,44.801L52.025,52.109C52.025,52.693 51.695,53.226 51.173,53.487C50.576,53.785 49.745,54.2 48.936,54.604C47.26,55.441 45.287,55.441 43.611,54.604C42.386,53.992 41.201,53.4 41.201,53.4Z" style="fill:#fff;"/>
                    <clipPath id="_clip12">
                        <path d="M41.201,53.4C40.785,53.193 40.522,52.768 40.522,52.303L40.522,44.801C40.522,44.801 42.488,45.638 44.121,46.333C45.496,46.918 47.05,46.918 48.425,46.333C50.059,45.638 52.025,44.801 52.025,44.801L52.025,52.109C52.025,52.693 51.695,53.226 51.173,53.487C50.576,53.785 49.745,54.2 48.936,54.604C47.26,55.441 45.287,55.441 43.611,54.604C42.386,53.992 41.201,53.4 41.201,53.4Z"/>
                    </clipPath>
                    <g clip-path="url(#_clip12)">
                        <path d="M46.273,44.547L54.113,41.21L54.113,51.413C54.113,52.785 53.337,54.039 52.11,54.652C49.787,55.812 46.273,57.566 46.273,57.566L46.273,44.547Z" style="fill:#e2e3f3;"/>
                    </g>
                    <path d="M44.994,48.947L44.983,48.119L44.983,48.12L44.975,47.594L44.966,46.78L44.966,46.781L44.961,46.394L44.959,46.138L44.959,46.139L44.953,45.522L44.953,45.522L44.948,45.066L44.947,44.936L44.947,44.937L44.943,44.387L44.943,44.387L44.937,43.879L44.937,43.88L44.934,43.66L44.932,43.417L44.932,43.419L44.926,43.008L44.926,43.01L44.919,42.657L44.919,42.659L44.915,42.505L44.915,42.507L44.911,42.37L44.911,42.372L44.906,42.252L44.906,42.255L44.901,42.152L44.902,42.157L44.896,42.072L44.897,42.079L44.891,42.014L44.892,42.023L44.89,42.003L44.88,41.982L44.882,41.987L44.853,41.928L44.856,41.933L44.825,41.872L44.827,41.877L44.794,41.814L44.796,41.819L44.76,41.754L44.763,41.759L44.724,41.693L44.727,41.697L44.686,41.63L44.689,41.635L44.645,41.566L44.648,41.571L44.602,41.501L44.605,41.506L44.556,41.436L44.56,41.441L44.508,41.37L44.512,41.375L44.458,41.304L44.461,41.309L44.405,41.238L44.409,41.243L44.349,41.172L44.354,41.177L44.335,41.156L44.292,41.106L44.297,41.111L44.232,41.041L44.237,41.046L44.17,40.977L44.175,40.982L44.105,40.914L44.111,40.918L44.038,40.852L44.044,40.856L43.969,40.791L43.973,40.795L43.935,40.762L43.938,40.765L43.899,40.733L43.902,40.736L43.862,40.704L43.865,40.707L43.825,40.676L43.828,40.678L43.787,40.648L43.79,40.651L43.748,40.621L43.752,40.623L43.709,40.594L43.712,40.596L43.669,40.568L43.673,40.57L43.629,40.542L43.632,40.545L43.588,40.517L43.592,40.52L43.546,40.493L43.55,40.495L43.504,40.469L43.508,40.471L43.461,40.446L43.465,40.448L43.418,40.424L43.422,40.426L43.374,40.403L43.378,40.404L43.329,40.382L43.333,40.384L43.284,40.362L43.288,40.364L43.238,40.343L43.242,40.344L43.191,40.324L43.196,40.326L43.144,40.307L43.148,40.308L43.096,40.29L43.1,40.291L43.047,40.274L43.052,40.276L42.998,40.259L43.003,40.261L42.948,40.246L42.954,40.247L42.877,40.228L42.884,40.229L42.808,40.213L42.815,40.214L42.74,40.2L42.747,40.201L42.673,40.19L42.68,40.191L42.607,40.182L42.614,40.183L42.542,40.177L42.549,40.177L42.479,40.174L42.485,40.174L42.416,40.173L42.423,40.172L42.354,40.173L42.361,40.173L42.294,40.176L42.3,40.176L42.234,40.181L42.241,40.18L42.18,40.187L42.176,40.187L42.182,40.186L42.118,40.196L42.124,40.194L42.062,40.205L42.067,40.204L42.006,40.217L42.012,40.215L41.951,40.23L41.957,40.228L41.897,40.244L41.903,40.242L41.845,40.26L41.85,40.258L41.793,40.277L41.798,40.275L41.742,40.296L41.746,40.294L41.692,40.315L41.696,40.313L41.643,40.336L41.647,40.334L41.595,40.358L41.599,40.356L41.548,40.381L41.552,40.379L41.502,40.405L41.505,40.403L41.457,40.43L41.46,40.428L41.413,40.455L41.416,40.453L41.369,40.482L41.373,40.48L41.327,40.509L41.33,40.507L41.286,40.536L41.289,40.534L41.246,40.564L41.249,40.562L41.207,40.593L41.21,40.591L41.17,40.621L41.172,40.619L41.133,40.651L41.135,40.649L41.097,40.68L41.099,40.678L41.063,40.709L41.065,40.707L41.029,40.739L41.031,40.737L40.997,40.768L40.999,40.766L40.935,40.828L40.938,40.824L40.878,40.885L40.881,40.882L40.826,40.94L40.829,40.937L40.779,40.994L40.781,40.991L40.737,41.044L40.739,41.041L40.699,41.09L40.701,41.088L40.667,41.133L40.668,41.13L40.639,41.17L40.641,41.167L40.617,41.201L40.619,41.198L40.608,41.214L40.587,41.246L40.589,41.243L40.578,41.26L40.387,41.309L40.339,41.118L40.348,41.1L40.35,41.097L40.37,41.064L40.38,41.047L40.382,41.044L40.404,41.009L40.405,41.007L40.432,40.966L40.434,40.964L40.466,40.917L40.468,40.915L40.504,40.863L40.506,40.861L40.548,40.805L40.55,40.802L40.597,40.744L40.6,40.741L40.651,40.679L40.654,40.676L40.71,40.612L40.713,40.609L40.775,40.543L40.777,40.541L40.81,40.507L40.812,40.506L40.845,40.472L40.847,40.471L40.882,40.437L40.884,40.435L40.921,40.402L40.923,40.4L40.96,40.367L40.963,40.365L41.001,40.332L41.004,40.33L41.043,40.297L41.046,40.295L41.087,40.263L41.09,40.261L41.132,40.229L41.135,40.227L41.179,40.195L41.182,40.193L41.227,40.163L41.23,40.16L41.276,40.13L41.279,40.128L41.327,40.099L41.33,40.096L41.379,40.068L41.383,40.066L41.432,40.038L41.436,40.036L41.487,40.009L41.491,40.007L41.544,39.981L41.548,39.979L41.601,39.955L41.606,39.953L41.661,39.929L41.665,39.928L41.721,39.906L41.726,39.904L41.783,39.883L41.789,39.881L41.847,39.862L41.852,39.861L41.912,39.843L41.918,39.841L41.978,39.825L41.984,39.824L42.046,39.81L42.052,39.809L42.115,39.796L42.122,39.795L42.126,39.794L42.186,39.785L42.192,39.784L42.258,39.775L42.264,39.775L42.331,39.768L42.338,39.768L42.406,39.763L42.413,39.763L42.482,39.761L42.489,39.761L42.559,39.761L42.566,39.761L42.638,39.763L42.645,39.764L42.718,39.768L42.725,39.769L42.799,39.776L42.806,39.777L42.881,39.787L42.888,39.788L42.965,39.801L42.971,39.802L43.049,39.817L43.055,39.819L43.11,39.831L43.115,39.832L43.169,39.846L43.174,39.847L43.227,39.861L43.232,39.863L43.285,39.878L43.289,39.88L43.342,39.896L43.346,39.897L43.398,39.915L43.402,39.916L43.454,39.935L43.458,39.936L43.508,39.956L43.513,39.957L43.563,39.978L43.567,39.979L43.616,40L43.62,40.002L43.669,40.024L43.673,40.026L43.72,40.048L43.724,40.05L43.772,40.074L43.775,40.076L43.822,40.1L43.826,40.102L43.872,40.127L43.875,40.129L43.921,40.154L43.924,40.157L43.969,40.183L43.973,40.185L44.017,40.212L44.02,40.214L44.063,40.242L44.067,40.244L44.109,40.272L44.113,40.274L44.155,40.303L44.158,40.305L44.199,40.334L44.203,40.336L44.243,40.366L44.246,40.368L44.286,40.399L44.291,40.402L44.369,40.464L44.375,40.468L44.45,40.531L44.456,40.536L44.529,40.601L44.534,40.605L44.604,40.671L44.609,40.676L44.677,40.742L44.682,40.747L44.728,40.795L44.747,40.815L44.751,40.819L44.813,40.887L44.817,40.892L44.877,40.96L44.881,40.965L44.938,41.034L44.942,41.038L44.996,41.107L45,41.111L45.052,41.179L45.055,41.184L45.105,41.251L45.108,41.256L45.155,41.322L45.158,41.327L45.202,41.392L45.205,41.397L45.246,41.461L45.249,41.466L45.288,41.529L45.291,41.533L45.327,41.595L45.33,41.599L45.364,41.659L45.366,41.664L45.397,41.721L45.4,41.726L45.428,41.781L45.441,41.811L45.445,41.821L45.454,41.852L45.458,41.867L45.462,41.883L45.466,41.904L45.467,41.914L45.472,41.939L45.473,41.948L45.482,42.013L45.482,42.021L45.492,42.105L45.492,42.109L45.502,42.212L45.502,42.215L45.512,42.335L45.512,42.337L45.522,42.474L45.523,42.476L45.533,42.629L45.533,42.631L45.556,42.984L45.556,42.986L45.58,43.396L45.58,43.397L45.593,43.64L45.603,43.859L45.603,43.86L45.627,44.368L45.627,44.369L45.65,44.919L45.65,44.919L45.656,45.049L45.673,45.505L45.673,45.506L45.695,46.122L45.695,46.123L45.704,46.379L45.715,46.765L45.715,46.766L45.737,47.579L45.75,48.105L45.75,48.106L45.768,48.934L45.779,49.484L45.779,49.485L45.795,50.372L45.802,50.859L45.816,51.824L45.821,52.188L45.833,53.22L45.835,53.428L45.843,54.491L45.844,54.538L45.847,55.566L45.845,56.196L45.845,56.196L45.844,56.375L45.74,56.643L45.638,56.824L45.636,56.827L45.499,56.97L45.358,56.83L45.356,56.827L45.25,56.649L45.139,56.384L45.133,56.205L45.133,56.205L45.115,55.575L45.091,54.548L45.091,54.548L45.09,54.501L45.069,53.439L45.069,53.439L45.065,53.232L45.047,52.199L45.047,52.2L45.04,51.836L45.024,50.871L45.024,50.872L45.016,50.385L45.003,49.497L45.003,49.498L44.994,48.947ZM44.89,42.007L44.89,42.004L44.89,42.004L44.89,42.007Z" style="fill:#fff;"/>
                    <path d="M49.865,39.595L49.943,39.602L49.946,39.603L49.957,39.603L50.037,39.615L50.048,39.616L50.126,39.63L50.137,39.631L50.214,39.647L50.224,39.648L50.3,39.666L50.309,39.668L50.384,39.688L50.393,39.69L50.467,39.712L50.475,39.714L50.516,39.728L50.547,39.739L50.556,39.741L50.626,39.768L50.634,39.77L50.703,39.799L50.71,39.801L50.778,39.831L50.785,39.834L50.851,39.865L50.858,39.868L50.923,39.9L50.929,39.903L50.992,39.937L50.998,39.939L51.031,39.958L51.06,39.975L51.065,39.977L51.125,40.014L51.13,40.017L51.189,40.055L51.194,40.057L51.251,40.096L51.255,40.098L51.311,40.138L51.315,40.14L51.369,40.18L51.373,40.182L51.426,40.222L51.429,40.224L51.481,40.265L51.484,40.267L51.534,40.308L51.537,40.31L51.585,40.351L51.588,40.353L51.635,40.394L51.637,40.396L51.682,40.437L51.685,40.439L51.729,40.48L51.731,40.481L51.773,40.522L51.775,40.524L51.816,40.564L51.817,40.566L51.828,40.576L51.856,40.606L51.858,40.607L51.895,40.647L51.897,40.649L51.966,40.727L51.969,40.729L52.032,40.803L52.034,40.805L52.091,40.875L52.093,40.877L52.143,40.942L52.144,40.943L52.188,41.002L52.189,41.003L52.226,41.055L52.227,41.056L52.258,41.1L52.259,41.102L52.3,41.164L52.301,41.166L52.307,41.175L52.315,41.188L52.305,41.285L52.208,41.275L52.197,41.265L52.189,41.257L52.19,41.259L52.135,41.209L52.136,41.21L52.095,41.175L52.096,41.176L52.047,41.135L52.049,41.137L51.991,41.091L51.993,41.093L51.928,41.043L51.93,41.044L51.857,40.991L51.859,40.993L51.779,40.937L51.782,40.94L51.695,40.882L51.697,40.884L51.651,40.855L51.653,40.856L51.618,40.835L51.606,40.826L51.607,40.828L51.559,40.798L51.561,40.799L51.51,40.769L51.512,40.771L51.461,40.741L51.463,40.742L51.41,40.712L51.412,40.714L51.357,40.684L51.36,40.686L51.303,40.657L51.306,40.659L51.249,40.63L51.252,40.632L51.193,40.604L51.196,40.606L51.136,40.579L51.139,40.581L51.077,40.554L51.081,40.556L51.018,40.53L51.022,40.533L50.958,40.508L50.963,40.51L50.897,40.486L50.902,40.489L50.835,40.466L50.84,40.469L50.808,40.458L50.773,40.446L50.778,40.449L50.71,40.427L50.716,40.43L50.646,40.41L50.652,40.412L50.581,40.394L50.588,40.396L50.516,40.38L50.524,40.382L50.451,40.367L50.458,40.369L50.384,40.356L50.393,40.358L50.36,40.353L50.318,40.346L50.326,40.348L50.251,40.337L50.26,40.339L50.183,40.33L50.193,40.332L50.115,40.325L50.125,40.327L50.046,40.323L50.057,40.324L49.977,40.322L49.988,40.323L49.908,40.323L49.919,40.324L49.917,40.324L49.838,40.325L49.85,40.326L49.768,40.329L49.779,40.329L49.697,40.336L49.709,40.335L49.625,40.345L49.638,40.344L49.553,40.356L49.566,40.355L49.48,40.37L49.493,40.368L49.488,40.37L49.407,40.385L49.417,40.383L49.373,40.393L49.379,40.391L49.336,40.402L49.342,40.4L49.298,40.411L49.305,40.41L49.278,40.417L49.261,40.422L49.267,40.42L49.223,40.432L49.229,40.43L49.184,40.443L49.191,40.441L49.146,40.455L49.152,40.453L49.107,40.467L49.113,40.465L49.083,40.476L49.068,40.481L49.074,40.478L49.028,40.494L49.036,40.491L48.945,40.523L48.954,40.52L48.873,40.55L48.865,40.553L48.873,40.55L48.786,40.583L48.794,40.579L48.709,40.614L48.717,40.611L48.648,40.64L48.633,40.646L48.641,40.643L48.558,40.678L48.566,40.674L48.485,40.712L48.493,40.707L48.414,40.746L48.421,40.742L48.344,40.782L48.351,40.777L48.276,40.818L48.282,40.814L48.209,40.856L48.215,40.852L48.173,40.877L48.143,40.894L48.149,40.89L48.079,40.933L48.084,40.928L48.015,40.972L48.021,40.968L47.954,41.012L47.959,41.008L47.893,41.053L47.898,41.049L47.835,41.095L47.839,41.091L47.777,41.138L47.782,41.134L47.721,41.181L47.725,41.177L47.703,41.195L47.666,41.224L47.67,41.221L47.612,41.268L47.616,41.264L47.56,41.312L47.563,41.308L47.509,41.357L47.512,41.353L47.459,41.402L47.462,41.398L47.411,41.447L47.414,41.444L47.364,41.492L47.367,41.489L47.318,41.538L47.321,41.535L47.282,41.576L47.274,41.584L47.276,41.581L47.231,41.629L47.233,41.626L47.189,41.674L47.19,41.671L47.148,41.719L47.149,41.717L47.108,41.764L47.11,41.762L47.07,41.809L47.072,41.806L47.033,41.853L47.035,41.851L46.998,41.897L46.999,41.895L46.964,41.941L46.966,41.938L46.899,42.027L46.901,42.024L46.84,42.11L46.842,42.107L46.787,42.19L46.788,42.187L46.738,42.265L46.74,42.263L46.7,42.328L46.695,42.336L46.696,42.334L46.656,42.402L46.656,42.4L46.621,42.462L46.622,42.46L46.592,42.516L46.592,42.515L46.567,42.563L46.568,42.562L46.547,42.603L46.548,42.601L46.521,42.658L46.522,42.657L46.519,42.663L46.513,42.677L46.427,42.725L46.38,42.638L46.383,42.623L46.384,42.616L46.384,42.614L46.396,42.552L46.397,42.55L46.406,42.506L46.407,42.504L46.419,42.451L46.42,42.449L46.435,42.388L46.436,42.386L46.455,42.317L46.455,42.315L46.478,42.239L46.479,42.237L46.482,42.227L46.505,42.155L46.507,42.153L46.538,42.065L46.539,42.062L46.574,41.969L46.576,41.966L46.616,41.868L46.618,41.864L46.662,41.762L46.664,41.759L46.688,41.707L46.689,41.705L46.715,41.651L46.716,41.649L46.743,41.595L46.745,41.593L46.773,41.538L46.774,41.535L46.804,41.48L46.805,41.477L46.836,41.421L46.838,41.418L46.871,41.361L46.873,41.359L46.906,41.301L46.909,41.298L46.914,41.289L46.944,41.241L46.947,41.238L46.984,41.181L46.987,41.178L47.026,41.12L47.029,41.117L47.069,41.059L47.072,41.056L47.114,40.998L47.118,40.994L47.161,40.936L47.165,40.933L47.21,40.875L47.214,40.871L47.261,40.813L47.265,40.809L47.296,40.773L47.314,40.752L47.318,40.748L47.37,40.691L47.374,40.687L47.427,40.631L47.432,40.627L47.487,40.571L47.492,40.567L47.549,40.511L47.554,40.507L47.612,40.452L47.618,40.448L47.678,40.393L47.684,40.389L47.747,40.335L47.753,40.331L47.779,40.309L47.818,40.278L47.824,40.274L47.891,40.223L47.898,40.219L47.967,40.169L47.974,40.164L48.045,40.115L48.052,40.111L48.126,40.063L48.133,40.059L48.209,40.012L48.216,40.008L48.294,39.962L48.302,39.958L48.316,39.95L48.382,39.915L48.39,39.911L48.473,39.87L48.481,39.866L48.566,39.826L48.574,39.823L48.582,39.819L48.662,39.786L48.671,39.783L48.76,39.748L48.768,39.745L48.813,39.729L48.819,39.727L48.834,39.722L48.865,39.712L48.871,39.71L48.917,39.696L48.923,39.694L48.968,39.682L48.974,39.68L49.019,39.668L49.026,39.666L49.07,39.655L49.077,39.654L49.094,39.65L49.121,39.644L49.128,39.642L49.172,39.634L49.179,39.633L49.223,39.625L49.229,39.624L49.273,39.617L49.283,39.615L49.364,39.604L49.37,39.604L49.383,39.602L49.469,39.595L49.482,39.594L49.567,39.591L49.58,39.59L49.664,39.589L49.676,39.588L49.759,39.59L49.771,39.59L49.853,39.595L49.865,39.595Z" style="fill:#2b307f;fill-opacity:0.12;"/>
                    <path d="M41.781,34.044L41.814,34.061L41.812,34.059L41.815,34.061L41.846,34.076L41.844,34.075L41.879,34.091L41.877,34.089L41.914,34.105L41.911,34.104L41.95,34.119L41.947,34.118L41.987,34.133L41.985,34.132L42.025,34.146L42.023,34.145L42.065,34.158L42.063,34.157L42.106,34.172L42.103,34.171L42.147,34.184L42.145,34.183L42.19,34.197L42.188,34.196L42.232,34.208L42.234,34.209L42.231,34.207L42.326,34.234L42.322,34.232L42.415,34.256L42.421,34.257L42.416,34.256L42.519,34.282L42.514,34.281L42.604,34.302L42.62,34.306L42.616,34.305L42.724,34.332L42.72,34.331L42.79,34.347L42.831,34.359L42.827,34.358L42.94,34.387L42.936,34.386L43.028,34.407L43.052,34.414L43.049,34.413L43.167,34.441L43.164,34.44L43.284,34.467L43.281,34.466L43.308,34.472L43.403,34.492L43.4,34.492L43.524,34.517L43.522,34.516L43.647,34.54L43.645,34.539L43.772,34.561L43.769,34.56L43.897,34.58L43.895,34.579L43.953,34.587L44.024,34.598L44.021,34.597L44.151,34.614L44.149,34.614L44.278,34.629L44.276,34.629L44.406,34.641L44.404,34.641L44.534,34.652L44.532,34.652L44.611,34.657L44.661,34.66L44.659,34.66L44.788,34.667L44.786,34.667L44.914,34.671L44.912,34.671L45.038,34.672L45.037,34.672L45.146,34.672L45.162,34.672L45.236,34.735L45.172,34.809L45.157,34.811L45.049,34.827L45.047,34.827L44.922,34.843L44.92,34.843L44.793,34.856L44.791,34.856L44.663,34.868L44.661,34.868L44.611,34.871L44.532,34.876L44.53,34.876L44.4,34.882L44.398,34.882L44.268,34.886L44.265,34.886L44.135,34.887L44.133,34.887L44.002,34.887L44,34.887L43.929,34.885L43.87,34.883L43.867,34.883L43.738,34.877L43.735,34.877L43.607,34.868L43.604,34.868L43.477,34.858L43.474,34.858L43.348,34.845L43.345,34.845L43.248,34.834L43.221,34.831L43.218,34.83L43.096,34.812L43.093,34.811L42.973,34.792L42.969,34.791L42.944,34.786L42.852,34.768L42.849,34.767L42.735,34.741L42.731,34.74L42.69,34.73L42.621,34.71L42.617,34.709L42.511,34.676L42.506,34.674L42.491,34.669L42.405,34.636L42.401,34.634L42.303,34.594L42.299,34.592L42.294,34.59L42.207,34.547L42.202,34.546L42.115,34.5L42.111,34.498L42.109,34.497L42.07,34.474L42.068,34.473L42.027,34.449L42.025,34.448L41.986,34.423L41.984,34.422L41.947,34.397L41.946,34.397L41.944,34.396L41.908,34.37L41.906,34.368L41.871,34.342L41.869,34.341L41.836,34.315L41.834,34.313L41.802,34.287L41.8,34.286L41.77,34.259L41.767,34.258L41.739,34.232L41.737,34.23L41.712,34.206L41.709,34.203L41.707,34.202L41.682,34.175L41.68,34.173L41.657,34.146L41.655,34.144L41.633,34.117L41.621,34.015L41.723,34.013L41.753,34.03L41.751,34.029L41.783,34.046L41.781,34.044Z" style="fill:#fff;fill-opacity:0.8;"/>
                </g>
            </g>
            <rect x="40.739" y="29.388" width="37.776" height="36.173" style="fill:none;"/>
            <clipPath id="_clip13">
                <rect x="40.739" y="29.388" width="37.776" height="36.173"/>
            </clipPath>
            <g clip-path="url(#_clip13)">
                <path d="M55.827,67.885C54.843,65.177 54.328,58.407 56.244,55.533C56.804,54.692 58.791,51.811 58.803,51.193C58.822,50.243 58.254,48.249 58.01,47.773C56.199,44.245 54.816,45.651 53.414,42.218C52.565,40.138 53.411,38.451 54.081,37.548C54.232,37.358 54.453,37.237 54.695,37.211C54.936,37.185 55.178,37.256 55.367,37.409C56.06,37.904 57.075,38.742 57.838,39.454C59.293,40.812 61.501,41.599 62.473,42.572C63.876,43.974 66.106,48.372 68.545,51.679C69.32,52.73 68.475,64.465 69.306,67.787C69.981,70.488 75.127,74.664 76.883,77.007C77.594,77.954 78.689,79.583 79.665,80.233C80.1,80.523 80.77,81.656 80.722,81.513" style="fill:#c06564;"/>
                <clipPath id="_clip14">
                    <path d="M55.827,67.885C54.843,65.177 54.328,58.407 56.244,55.533C56.804,54.692 58.791,51.811 58.803,51.193C58.822,50.243 58.254,48.249 58.01,47.773C56.199,44.245 54.816,45.651 53.414,42.218C52.565,40.138 53.411,38.451 54.081,37.548C54.232,37.358 54.453,37.237 54.695,37.211C54.936,37.185 55.178,37.256 55.367,37.409C56.06,37.904 57.075,38.742 57.838,39.454C59.293,40.812 61.501,41.599 62.473,42.572C63.876,43.974 66.106,48.372 68.545,51.679C69.32,52.73 68.475,64.465 69.306,67.787C69.981,70.488 75.127,74.664 76.883,77.007C77.594,77.954 78.689,79.583 79.665,80.233C80.1,80.523 80.77,81.656 80.722,81.513"/>
                </clipPath>
                <g clip-path="url(#_clip14)">
                    <path d="M55.943,30.222C56.001,30.273 55.777,30.142 55.712,30.185C55.142,30.565 54.698,31.333 54.391,31.946C53.582,33.565 54.776,32.661 54.009,34.095C51.561,38.674 54.342,41.177 58.576,44.336C60.012,45.407 62.322,47.026 60.709,51.187C60.663,51.307 60.633,51.433 60.552,51.515C58.738,53.359 56.255,53.333 56.114,59.597C55.988,65.232 65.263,69.69 69.735,72.972C72.15,74.744 79.19,84.099 81.592,85.936C87.548,90.491 85.109,88.629 87.501,80.555C88.779,76.242 87.157,71.114 85.691,67.054C83.925,62.163 82.292,57.145 79.675,52.624C77.595,49.033 75.006,45.849 72.337,42.695C70.71,40.771 68.984,38.589 66.908,37.118C64.706,35.559 62.029,33.614 59.326,33.107C59.12,33.069 55.892,30.218 55.81,30.136" style="fill:#f3775b;"/>
                    <path d="M53.094,34.048C53.094,34.048 53.675,37.488 61.658,44.198C64.311,46.428 66.766,52.028 66.891,56.047C67.108,63.045 71.245,64.755 71.245,64.755L71.266,36.363L53.094,34.048Z" style="fill:#f3ab9b;"/>
                    <path d="M55.249,36.094C55.249,36.094 55.818,37.627 57.522,38.503C57.725,39.315 57.428,40.019 56.773,40.647C56.773,40.647 53.214,39.476 55.249,36.094Z" style="fill:#f6c9bf;"/>
                </g>
            </g>
            <path d="M30.96,58.615C30.948,60.353 31.691,61.034 32.061,61.282C33.042,61.939 34.204,61.811 35.018,61.034C35.39,60.679 35.592,59.933 35.655,59.442C35.77,58.533 35.751,56.934 34.811,56.404C34.255,56.09 33.25,55.995 32.701,56.165C31.702,56.476 30.966,57.756 30.96,58.615Z" style="fill:#f3775b;"/>
            <clipPath id="_clip15">
                <path d="M30.96,58.615C30.948,60.353 31.691,61.034 32.061,61.282C33.042,61.939 34.204,61.811 35.018,61.034C35.39,60.679 35.592,59.933 35.655,59.442C35.77,58.533 35.751,56.934 34.811,56.404C34.255,56.09 33.25,55.995 32.701,56.165C31.702,56.476 30.966,57.756 30.96,58.615Z"/>
            </clipPath>
            <g clip-path="url(#_clip15)">
                <path d="M32.295,54.994C32.351,54.962 32.138,54.906 32.167,54.848C32.228,54.727 32.566,54.64 32.689,54.604C33.756,54.3 35.071,54.939 34.811,56.24C34.74,56.594 34.435,56.825 34.22,57.04C33.557,57.703 33.42,58.666 33.42,59.58C33.42,60.787 34.737,62.387 33.942,63.581C33.356,64.459 31.709,65.38 30.602,64.937C29.609,64.54 29.328,62.822 29.036,61.945C27.966,58.736 28.851,54.396 32.898,54.396" style="fill:#f3ab9b;"/>
            </g>
            <g>
                <circle cx="46.068" cy="22.979" r="0.727" style="fill:#fff;fill-opacity:0.25;"/>
                <circle cx="46.068" cy="22.734" r="0.727" style="fill:#1c2053;"/>
            </g>
        </g>
        <g>
            <path d="M50.292,26.297C50.396,26.095 50.604,25.969 50.831,25.969C51.058,25.969 51.266,26.095 51.37,26.297C52.172,27.851 53.666,30.746 54.418,32.202C54.515,32.39 54.507,32.615 54.397,32.795C54.287,32.976 54.09,33.086 53.879,33.086L47.784,33.086C47.572,33.086 47.376,32.976 47.266,32.795C47.156,32.615 47.148,32.39 47.245,32.202C47.996,30.746 49.49,27.851 50.292,26.297Z" style="fill:#f3775b;"/>
            <path d="M51.184,27.962L50.541,27.962L50.541,30.958L51.184,30.958L51.184,27.962ZM50.863,31.431C50.62,31.431 50.432,31.606 50.432,31.849C50.432,32.092 50.62,32.274 50.863,32.274C51.105,32.274 51.3,32.092 51.3,31.849C51.3,31.606 51.105,31.431 50.863,31.431Z" style="fill:#fff;fill-rule:nonzero;"/>
        </g>
        <g>
            <path d="M37.402,11.111C37.51,10.901 37.726,10.77 37.961,10.77C38.197,10.77 38.412,10.901 38.52,11.111C39.353,12.724 40.904,15.728 41.684,17.239C41.784,17.434 41.776,17.668 41.662,17.855C41.548,18.043 41.344,18.157 41.124,18.157L34.798,18.157C34.578,18.157 34.375,18.043 34.26,17.855C34.146,17.668 34.138,17.434 34.239,17.239C35.019,15.728 36.569,12.724 37.402,11.111Z" style="fill:#f3775b;"/>
            <path d="M38.328,12.838L37.66,12.838L37.66,15.948L38.328,15.948L38.328,12.838ZM37.994,16.439C37.742,16.439 37.547,16.622 37.547,16.873C37.547,17.125 37.742,17.314 37.994,17.314C38.246,17.314 38.447,17.125 38.447,16.873C38.447,16.622 38.246,16.439 37.994,16.439Z" style="fill:#fff;fill-rule:nonzero;"/>
        </g>
    </g>
</svg>
