<?xml version="1.0" encoding="UTF-8" standalone="no"?>
<!DOCTYPE svg PUBLIC "-//W3C//DTD SVG 1.1//EN" "http://www.w3.org/Graphics/SVG/1.1/DTD/svg11.dtd">
<svg width="100%" height="100%" viewBox="0 0 65 65" version="1.1" xmlns="http://www.w3.org/2000/svg" xmlns:xlink="http://www.w3.org/1999/xlink" xml:space="preserve" xmlns:serif="http://www.serif.com/" style="fill-rule:evenodd;clip-rule:evenodd;stroke-linejoin:round;stroke-miterlimit:2;">
    <rect id="Salt" x="0.247" y="0.16" width="64" height="64" style="fill:none;"/>
    <g>
        <ellipse cx="41.058" cy="54.816" rx="20.183" ry="7.344" style="fill:#2b307e;fill-opacity:0.08;"/>
        <path d="M32.247,7.985L40.028,7.985C40.807,13.436 41.948,16.971 44.687,19.176C47.418,21.375 49.284,22.973 49.284,26.76L49.284,52.311C49.284,53.577 48.571,54.735 47.441,55.306C47.441,55.306 39.77,59.182 35.329,61.426C33.391,62.405 31.103,62.405 29.165,61.426C24.725,59.182 17.054,55.306 17.054,55.306C15.924,54.735 15.211,53.577 15.211,52.311L15.211,26.76L15.211,26.671C15.24,22.948 17.098,21.358 19.808,19.176C22.547,16.971 23.688,13.436 24.467,7.985L32.247,7.985Z" style="fill:#d6d7f0;"/>
        <clipPath id="_clip1">
            <path d="M32.247,7.985L40.028,7.985C40.807,13.436 41.948,16.971 44.687,19.176C47.418,21.375 49.284,22.973 49.284,26.76L49.284,52.311C49.284,53.577 48.571,54.735 47.441,55.306C47.441,55.306 39.77,59.182 35.329,61.426C33.391,62.405 31.103,62.405 29.165,61.426C24.725,59.182 17.054,55.306 17.054,55.306C15.924,54.735 15.211,53.577 15.211,52.311L15.211,26.76L15.211,26.671C15.24,22.948 17.098,21.358 19.808,19.176C22.547,16.971 23.688,13.436 24.467,7.985L32.247,7.985Z"/>
        </clipPath>
        <g clip-path="url(#_clip1)">
            <ellipse cx="32.247" cy="12.719" rx="9.84" ry="3.063" style="fill:#2b307f;fill-opacity:0.41;"/>
            <rect x="32.462" y="-1.535" width="19.252" height="69.3" style="fill:#2b307f;fill-opacity:0.17;"/>
        </g>
        <ellipse cx="32.247" cy="11.048" rx="11.372" ry="3.063" style="fill:#bebfe5;"/>
        <path d="M24.287,15.303L24.364,15.343L24.359,15.339L24.4,15.359L24.439,15.379L24.434,15.376L24.517,15.415L24.512,15.412L24.598,15.45L24.593,15.447L24.682,15.484L24.677,15.481L24.769,15.516L24.764,15.513L24.859,15.548L24.854,15.545L24.952,15.579L24.947,15.576L25.048,15.608L25.043,15.606L25.062,15.612L25.146,15.639L25.141,15.637L25.247,15.669L25.242,15.667L25.35,15.698L25.345,15.696L25.456,15.726L25.451,15.724L25.509,15.739L25.564,15.755L25.559,15.753L25.674,15.783L25.669,15.781L25.787,15.811L25.782,15.809L25.902,15.837L25.897,15.836L25.999,15.859L26.019,15.864L26.014,15.862L26.137,15.892L26.132,15.89L26.257,15.919L26.252,15.918L26.38,15.946L26.375,15.944L26.504,15.971L26.5,15.97L26.501,15.97L26.629,16.001L26.625,16L26.756,16.03L26.752,16.029L26.885,16.058L26.881,16.057L27.004,16.082L27.016,16.085L27.011,16.084L27.147,16.117L27.142,16.116L27.279,16.148L27.275,16.147L27.414,16.178L27.41,16.177L27.55,16.207L27.546,16.206L27.553,16.207L27.686,16.238L27.682,16.237L27.825,16.268L27.821,16.267L27.964,16.297L27.96,16.297L28.105,16.325L28.101,16.325L28.193,16.343L28.246,16.354L28.243,16.353L28.389,16.383L28.386,16.382L28.533,16.411L28.529,16.411L28.677,16.438L28.674,16.438L28.823,16.464L28.819,16.464L28.969,16.489L28.966,16.489L29.116,16.513L29.113,16.513L29.264,16.536L29.261,16.536L29.412,16.557L29.409,16.557L29.56,16.578L29.558,16.578L29.617,16.585L29.709,16.599L29.707,16.598L29.859,16.619L29.856,16.619L30.008,16.638L30.006,16.638L30.158,16.656L30.155,16.656L30.308,16.673L30.305,16.672L30.458,16.688L30.455,16.688L30.608,16.702L30.605,16.702L30.758,16.715L30.755,16.715L30.907,16.726L30.905,16.726L31.047,16.736L31.057,16.737L31.054,16.737L31.206,16.746L31.204,16.747L31.354,16.755L31.352,16.755L31.503,16.762L31.501,16.762L31.65,16.768L31.648,16.768L31.797,16.772L31.795,16.772L31.944,16.775L31.942,16.775L32.089,16.776L32.088,16.776L32.199,16.776L32.234,16.776L32.409,16.924L32.26,17.099L32.226,17.104L32.116,17.122L32.114,17.122L31.968,17.144L31.966,17.144L31.819,17.165L31.817,17.165L31.67,17.184L31.668,17.184L31.519,17.202L31.517,17.202L31.367,17.219L31.365,17.219L31.215,17.234L31.212,17.234L31.061,17.248L31.059,17.248L31.049,17.249L30.907,17.26L30.905,17.26L30.753,17.27L30.751,17.27L30.598,17.279L30.596,17.279L30.443,17.287L30.44,17.287L30.287,17.293L30.284,17.293L30.131,17.298L30.128,17.298L29.975,17.302L29.972,17.302L29.819,17.305L29.816,17.305L29.662,17.306L29.659,17.306L29.566,17.306L29.506,17.305L29.503,17.305L29.35,17.302L29.347,17.301L29.194,17.297L29.191,17.297L29.039,17.291L29.036,17.291L28.884,17.284L28.881,17.283L28.729,17.275L28.726,17.275L28.575,17.266L28.572,17.265L28.422,17.255L28.418,17.254L28.269,17.243L28.265,17.242L28.117,17.229L28.113,17.229L28.059,17.224L27.966,17.213L27.962,17.213L27.816,17.195L27.812,17.194L27.667,17.175L27.663,17.175L27.519,17.154L27.515,17.154L27.379,17.134L27.372,17.132L27.368,17.132L27.227,17.106L27.223,17.106L27.084,17.079L27.079,17.078L26.941,17.051L26.937,17.05L26.8,17.022L26.796,17.02L26.785,17.018L26.662,16.986L26.658,16.985L26.526,16.949L26.522,16.948L26.392,16.911L26.387,16.91L26.261,16.872L26.259,16.872L26.254,16.871L26.13,16.827L26.125,16.825L26.002,16.781L25.997,16.779L25.877,16.734L25.872,16.733L25.754,16.686L25.749,16.685L25.73,16.677L25.634,16.635L25.629,16.633L25.517,16.582L25.512,16.581L25.402,16.529L25.397,16.527L25.29,16.475L25.285,16.473L25.234,16.447L25.181,16.419L25.176,16.417L25.075,16.361L25.07,16.359L24.972,16.302L24.967,16.3L24.872,16.244L24.867,16.241L24.791,16.194L24.775,16.184L24.77,16.181L24.682,16.121L24.676,16.118L24.592,16.058L24.586,16.056L24.505,15.995L24.5,15.992L24.421,15.932L24.416,15.928L24.341,15.868L24.336,15.864L24.265,15.803L24.26,15.8L24.192,15.739L24.187,15.735L24.155,15.704L24.123,15.673L24.118,15.669L24.058,15.606L24.054,15.602L23.998,15.539L23.993,15.535L23.941,15.472L23.915,15.234L24.153,15.227L24.223,15.27L24.219,15.266L24.292,15.307L24.287,15.303Z" style="fill:#fff;fill-opacity:0.8;"/>
        <path d="M23.021,11.625L23.132,11.67L23.128,11.668L23.243,11.712L23.24,11.71L23.359,11.754L23.356,11.752L23.444,11.783L23.479,11.795L23.475,11.794L23.602,11.838L23.599,11.836L23.729,11.879L23.726,11.878L23.86,11.921L23.856,11.92L23.994,11.961L23.991,11.96L24.132,12.001L24.129,12L24.273,12.04L24.27,12.039L24.417,12.079L24.414,12.078L24.564,12.117L24.562,12.116L24.58,12.12L24.714,12.156L24.711,12.155L24.866,12.194L24.863,12.194L25.021,12.232L25.018,12.232L25.159,12.265L25.178,12.27L25.175,12.269L25.337,12.309L25.334,12.308L25.498,12.347L25.495,12.346L25.661,12.385L25.658,12.384L25.683,12.39L25.825,12.424L25.822,12.423L25.991,12.463L25.988,12.463L26.158,12.501L26.156,12.501L26.327,12.539L26.325,12.538L26.332,12.54L26.498,12.577L26.495,12.576L26.669,12.614L26.667,12.613L26.841,12.649L26.839,12.649L27.015,12.684L27.013,12.684L27.077,12.696L27.189,12.719L27.187,12.719L27.364,12.753L27.362,12.753L27.539,12.786L27.537,12.786L27.715,12.818L27.713,12.818L27.891,12.849L27.889,12.849L28.068,12.878L28.065,12.878L28.244,12.906L28.242,12.906L28.42,12.933L28.418,12.933L28.596,12.958L28.594,12.958L28.722,12.975L28.771,12.982L28.769,12.982L28.946,13.006L28.944,13.006L29.12,13.029L29.118,13.028L29.294,13.049L29.292,13.049L29.466,13.069L29.464,13.069L29.637,13.086L29.635,13.086L29.807,13.102L29.805,13.102L29.976,13.117L29.974,13.117L30.143,13.129L30.141,13.129L30.309,13.14L30.307,13.14L30.473,13.15L30.471,13.149L30.635,13.157L30.633,13.157L30.795,13.162L30.793,13.162L30.952,13.166L30.95,13.166L31.108,13.168L31.105,13.168L31.261,13.167L31.258,13.168L31.411,13.165L31.408,13.165L31.558,13.161L31.556,13.161L31.657,13.157L31.703,13.155L31.877,13.304L31.728,13.478L31.682,13.483L31.582,13.495L31.58,13.495L31.431,13.51L31.428,13.51L31.276,13.523L31.274,13.523L31.119,13.534L31.117,13.534L30.959,13.544L30.957,13.544L30.797,13.551L30.795,13.551L30.633,13.557L30.631,13.557L30.467,13.561L30.465,13.561L30.298,13.564L30.296,13.564L30.128,13.564L30.126,13.564L29.956,13.563L29.954,13.563L29.783,13.561L29.781,13.561L29.608,13.557L29.606,13.557L29.431,13.551L29.429,13.551L29.254,13.544L29.252,13.543L29.076,13.535L29.073,13.535L28.896,13.524L28.894,13.524L28.716,13.513L28.714,13.512L28.665,13.509L28.535,13.498L28.533,13.498L28.354,13.482L28.352,13.482L28.173,13.464L28.171,13.464L27.991,13.445L27.989,13.445L27.809,13.425L27.807,13.425L27.628,13.403L27.625,13.403L27.446,13.381L27.444,13.38L27.265,13.356L27.263,13.356L27.084,13.331L27.082,13.331L26.969,13.314L26.904,13.304L26.902,13.303L26.725,13.274L26.723,13.274L26.547,13.244L26.545,13.243L26.37,13.212L26.368,13.211L26.201,13.18L26.194,13.179L26.191,13.178L26.019,13.143L26.017,13.143L25.847,13.106L25.844,13.106L25.675,13.069L25.673,13.068L25.531,13.036L25.506,13.03L25.503,13.029L25.339,12.986L25.336,12.986L25.174,12.943L25.171,12.942L25.011,12.898L25.008,12.897L24.989,12.892L24.851,12.85L24.848,12.849L24.694,12.8L24.691,12.799L24.539,12.75L24.536,12.749L24.405,12.706L24.387,12.699L24.384,12.698L24.239,12.646L24.236,12.645L24.093,12.591L24.09,12.59L23.951,12.536L23.948,12.535L23.812,12.481L23.809,12.48L23.676,12.425L23.673,12.424L23.544,12.369L23.541,12.368L23.415,12.313L23.412,12.311L23.29,12.256L23.287,12.254L23.253,12.238L23.17,12.197L23.166,12.196L23.053,12.138L23.05,12.136L22.941,12.078L22.938,12.076L22.834,12.018L22.83,12.016L22.73,11.958L22.726,11.956L22.631,11.898L22.627,11.896L22.537,11.838L22.533,11.835L22.447,11.777L22.443,11.775L22.363,11.717L22.359,11.714L22.321,11.686L22.318,11.684L22.282,11.655L22.279,11.653L22.244,11.624L22.241,11.623L22.207,11.594L22.204,11.592L22.171,11.563L22.169,11.561L22.137,11.532L22.135,11.53L22.105,11.502L22.102,11.499L22.073,11.471L22.057,11.24L22.287,11.227L22.319,11.252L22.316,11.249L22.349,11.274L22.347,11.272L22.381,11.296L22.379,11.294L22.415,11.318L22.412,11.316L22.45,11.341L22.447,11.339L22.486,11.363L22.483,11.361L22.524,11.385L22.521,11.383L22.563,11.407L22.559,11.405L22.646,11.452L22.641,11.45L22.733,11.496L22.729,11.494L22.826,11.54L22.822,11.538L22.923,11.584L22.919,11.582L23.025,11.627L23.021,11.625Z" style="fill:#fff;fill-opacity:0.8;"/>
        <ellipse cx="32.247" cy="7.795" rx="12.439" ry="4.794" style="fill:#7072ac;"/>
        <path d="M32.247,2.31C39.113,2.31 44.687,5.11 44.687,6.96C44.687,8.809 39.113,10.311 32.247,10.311C25.382,10.311 19.808,8.809 19.808,6.96C19.808,5.11 25.382,2.31 32.247,2.31Z" style="fill:#bebfe5;"/>
        <clipPath id="_clip2">
            <path d="M32.247,2.31C39.113,2.31 44.687,5.11 44.687,6.96C44.687,8.809 39.113,10.311 32.247,10.311C25.382,10.311 19.808,8.809 19.808,6.96C19.808,5.11 25.382,2.31 32.247,2.31Z"/>
        </clipPath>
        <g clip-path="url(#_clip2)">
            <path d="M27.276,2.003C31.022,1.517 34.206,2.233 34.384,3.6C34.562,4.968 31.665,6.473 27.92,6.96C24.175,7.446 20.99,6.73 20.812,5.363C20.634,3.995 23.531,2.49 27.276,2.003Z" style="fill:#fff;fill-opacity:0.47;"/>
        </g>
        <g>
            <ellipse cx="32.247" cy="7.352" rx="1.113" ry="0.633" style="fill:#fff;"/>
            <ellipse cx="35.264" cy="5.51" rx="1.113" ry="0.543" style="fill:#fff;"/>
            <path d="M40.167,5.442C40.767,5.574 41.212,5.871 41.161,6.106C41.109,6.34 40.581,6.423 39.981,6.292C39.381,6.16 38.936,5.862 38.987,5.628C39.039,5.393 39.567,5.31 40.167,5.442Z" style="fill:#fff;"/>
            <path d="M24.327,5.442C23.727,5.574 23.282,5.871 23.334,6.106C23.385,6.34 23.914,6.423 24.514,6.292C25.114,6.16 25.559,5.862 25.508,5.628C25.456,5.393 24.927,5.31 24.327,5.442Z" style="fill:#fff;"/>
            <ellipse cx="29.23" cy="5.51" rx="1.113" ry="0.543" style="fill:#fff;"/>
            <ellipse cx="32.247" cy="3.801" rx="1.113" ry="0.389" style="fill:#fff;"/>
            <path d="M27.311,3.568C27.911,3.441 28.421,3.443 28.449,3.571C28.476,3.7 28.01,3.907 27.409,4.034C26.808,4.161 26.298,4.16 26.271,4.031C26.244,3.903 26.71,3.695 27.311,3.568Z" style="fill:#fff;"/>
            <path d="M37.516,3.568C36.915,3.441 36.405,3.443 36.378,3.571C36.351,3.7 36.817,3.907 37.418,4.034C38.019,4.161 38.529,4.16 38.556,4.031C38.583,3.903 38.117,3.695 37.516,3.568Z" style="fill:#fff;"/>
        </g>
        <path d="M45.765,32.784C45.765,26.727 32.247,23.136 32.247,23.136C32.247,23.136 18.73,27.564 18.73,32.784L18.73,40.631L45.765,40.631L45.765,32.784Z" style="fill:#f3f3fa;"/>
        <g>
            <ellipse cx="32.247" cy="7.108" rx="1.113" ry="0.633" style="fill:#2b307e;"/>
            <ellipse cx="35.264" cy="5.265" rx="1.113" ry="0.543" style="fill:#2b307e;"/>
            <path d="M40.167,5.198C40.767,5.329 41.212,5.627 41.161,5.861C41.109,6.096 40.581,6.179 39.981,6.047C39.381,5.916 38.936,5.618 38.987,5.384C39.039,5.149 39.567,5.066 40.167,5.198Z" style="fill:#2b307e;"/>
            <path d="M24.327,5.198C23.727,5.329 23.282,5.627 23.334,5.861C23.385,6.096 23.914,6.179 24.514,6.047C25.114,5.916 25.559,5.618 25.508,5.384C25.456,5.149 24.927,5.066 24.327,5.198Z" style="fill:#2b307e;"/>
            <ellipse cx="29.23" cy="5.265" rx="1.113" ry="0.543" style="fill:#2b307e;"/>
            <ellipse cx="32.247" cy="3.557" rx="1.113" ry="0.389" style="fill:#2b307e;"/>
            <path d="M27.311,3.324C27.911,3.197 28.421,3.198 28.449,3.327C28.476,3.456 28.01,3.663 27.409,3.79C26.808,3.917 26.298,3.916 26.271,3.787C26.244,3.659 26.71,3.451 27.311,3.324Z" style="fill:#2b307e;"/>
            <path d="M37.516,3.324C36.915,3.197 36.405,3.198 36.378,3.327C36.351,3.456 36.817,3.663 37.418,3.79C38.019,3.917 38.529,3.916 38.556,3.787C38.583,3.659 38.117,3.451 37.516,3.324Z" style="fill:#2b307e;"/>
        </g>
        <path d="M20.325,52.37C19.348,51.882 18.73,50.883 18.73,49.791L18.73,32.16C18.73,32.16 26.28,35.374 30.095,36.997C31.47,37.583 33.024,37.583 34.399,36.997C38.214,35.374 45.765,32.16 45.765,32.16L45.765,49.335C45.765,50.707 44.989,51.961 43.761,52.574C41.413,53.746 37.511,55.694 34.91,56.993C33.233,57.83 31.261,57.83 29.585,56.993C26.071,55.238 20.325,52.37 20.325,52.37Z" style="fill:#fff;"/>
        <clipPath id="_clip3">
            <path d="M20.325,52.37C19.348,51.882 18.73,50.883 18.73,49.791L18.73,32.16C18.73,32.16 26.28,35.374 30.095,36.997C31.47,37.583 33.024,37.583 34.399,36.997C38.214,35.374 45.765,32.16 45.765,32.16L45.765,49.335C45.765,50.707 44.989,51.961 43.761,52.574C41.413,53.746 37.511,55.694 34.91,56.993C33.233,57.83 31.261,57.83 29.585,56.993C26.071,55.238 20.325,52.37 20.325,52.37Z"/>
        </clipPath>
        <g clip-path="url(#_clip3)">
            <path d="M32.247,31.563L50.672,23.721L50.672,50.723C50.672,52.095 49.896,53.349 48.669,53.962C43.896,56.345 32.247,62.16 32.247,62.16L32.247,31.563Z" style="fill:#e2e3f3;"/>
        </g>
        <path d="M29.261,43.197L29.261,43.198L29.241,41.904L29.237,41.573L29.237,41.574L29.214,39.959L29.214,39.96L29.196,38.723L29.193,38.368L29.193,38.369L29.174,36.811L29.174,36.812L29.162,35.904L29.158,35.303L29.158,35.304L29.144,33.854L29.144,33.855L29.133,32.781L29.131,32.477L29.131,32.479L29.12,31.186L29.12,31.187L29.114,30.576L29.114,30.577L29.107,29.992L29.107,29.994L29.1,29.478L29.1,29.436L29.1,29.437L29.094,28.908L29.094,28.91L29.088,28.412L29.088,28.414L29.081,27.947L29.081,27.949L29.073,27.517L29.073,27.519L29.064,27.122L29.065,27.125L29.055,26.764L29.055,26.768L29.045,26.446L29.045,26.451L29.034,26.168L29.034,26.173L29.028,26.047L29.029,26.052L29.023,25.936L29.023,25.942L29.017,25.837L29.017,25.844L29.011,25.75L29.011,25.758L29.005,25.675L29.006,25.687L28.999,25.615L29.001,25.631L28.995,25.585L28.972,25.535L28.978,25.546L28.91,25.409L28.915,25.417L28.879,25.346L28.882,25.352L28.844,25.28L28.847,25.285L28.808,25.212L28.812,25.217L28.771,25.143L28.774,25.148L28.732,25.073L28.736,25.078L28.692,25.002L28.696,25.008L28.651,24.93L28.654,24.936L28.608,24.858L28.611,24.863L28.564,24.784L28.567,24.79L28.518,24.71L28.521,24.715L28.471,24.635L28.474,24.641L28.422,24.56L28.426,24.565L28.372,24.484L28.376,24.489L28.32,24.407L28.324,24.413L28.268,24.331L28.272,24.336L28.213,24.254L28.217,24.259L28.158,24.176L28.162,24.182L28.1,24.099L28.105,24.104L28.042,24.021L28.046,24.027L27.982,23.943L27.986,23.949L27.921,23.866L27.925,23.871L27.858,23.788L27.863,23.794L27.794,23.711L27.799,23.716L27.728,23.633L27.733,23.639L27.69,23.59L27.661,23.556L27.666,23.562L27.593,23.479L27.598,23.485L27.524,23.402L27.529,23.408L27.453,23.326L27.458,23.332L27.38,23.25L27.386,23.256L27.307,23.175L27.313,23.181L27.232,23.1L27.238,23.106L27.155,23.026L27.161,23.032L27.077,22.953L27.084,22.959L26.998,22.881L27.004,22.886L26.917,22.809L26.924,22.814L26.835,22.738L26.842,22.744L26.751,22.668L26.758,22.674L26.666,22.6L26.674,22.605L26.58,22.532L26.587,22.537L26.492,22.465L26.5,22.471L26.403,22.4L26.411,22.405L26.312,22.336L26.32,22.341L26.22,22.273L26.229,22.278L26.127,22.211L26.135,22.216L26.032,22.151L26.041,22.156L25.936,22.092L25.945,22.097L25.838,22.035L25.847,22.04L25.739,21.98L25.748,21.984L25.638,21.926L25.647,21.93L25.536,21.873L25.546,21.878L25.432,21.823L25.442,21.827L25.327,21.774L25.337,21.778L25.221,21.727L25.231,21.731L25.113,21.682L25.123,21.685L25.003,21.638L25.014,21.642L24.892,21.597L24.903,21.601L24.78,21.558L24.79,21.561L24.666,21.521L24.676,21.524L24.55,21.486L24.561,21.489L24.433,21.453L24.442,21.456L24.351,21.432L24.359,21.434L24.269,21.412L24.277,21.414L24.187,21.394L24.195,21.395L24.106,21.377L24.114,21.378L24.026,21.361L24.034,21.363L23.946,21.347L23.954,21.348L23.867,21.335L23.875,21.336L23.789,21.324L23.797,21.324L23.711,21.314L23.719,21.314L23.634,21.305L23.642,21.306L23.558,21.298L23.566,21.299L23.482,21.292L23.49,21.293L23.407,21.288L23.415,21.288L23.333,21.285L23.34,21.285L23.259,21.283L23.267,21.282L23.185,21.282L23.193,21.281L23.113,21.282L23.12,21.282L23.041,21.284L23.048,21.283L22.969,21.286L22.977,21.286L22.898,21.29L22.906,21.289L22.828,21.295L22.835,21.294L22.758,21.301L22.766,21.3L22.689,21.308L22.696,21.307L22.631,21.315L22.621,21.316L22.628,21.315L22.553,21.325L22.56,21.324L22.485,21.335L22.492,21.334L22.418,21.346L22.425,21.345L22.352,21.358L22.359,21.357L22.286,21.371L22.293,21.369L22.221,21.385L22.228,21.383L22.156,21.4L22.163,21.398L22.092,21.415L22.099,21.413L22.029,21.432L22.035,21.43L21.966,21.449L21.972,21.447L21.904,21.467L21.91,21.465L21.842,21.486L21.848,21.484L21.78,21.506L21.786,21.504L21.72,21.527L21.725,21.524L21.66,21.548L21.665,21.546L21.6,21.57L21.605,21.568L21.541,21.593L21.546,21.591L21.482,21.616L21.488,21.614L21.424,21.641L21.43,21.638L21.367,21.665L21.372,21.663L21.31,21.691L21.315,21.688L21.254,21.717L21.259,21.714L21.198,21.744L21.203,21.741L21.143,21.771L21.148,21.768L21.089,21.799L21.093,21.796L21.035,21.827L21.039,21.824L20.982,21.856L20.986,21.853L20.929,21.885L20.935,21.881L20.823,21.946L20.831,21.942L20.722,22.008L20.729,22.003L20.623,22.072L20.63,22.067L20.527,22.136L20.533,22.131L20.433,22.202L20.439,22.197L20.341,22.269L20.347,22.264L20.252,22.337L20.258,22.332L20.166,22.405L20.171,22.401L20.082,22.474L20.087,22.47L20.001,22.543L20.005,22.539L19.922,22.613L19.927,22.608L19.846,22.682L19.85,22.678L19.773,22.751L19.777,22.747L19.702,22.819L19.706,22.815L19.634,22.887L19.638,22.883L19.569,22.954L19.572,22.95L19.506,23.02L19.51,23.016L19.447,23.085L19.45,23.081L19.39,23.148L19.393,23.145L19.336,23.21L19.338,23.207L19.284,23.27L19.287,23.267L19.236,23.328L19.239,23.325L19.191,23.384L19.193,23.381L19.148,23.437L19.151,23.433L19.071,23.538L19.075,23.532L19.006,23.625L19.01,23.62L18.953,23.7L18.957,23.695L18.932,23.731L18.913,23.759L18.916,23.754L18.884,23.802L18.887,23.797L18.862,23.837L18.414,23.952L18.299,23.504L18.322,23.462L18.325,23.457L18.354,23.407L18.357,23.403L18.374,23.374L18.397,23.336L18.401,23.331L18.452,23.249L18.456,23.243L18.519,23.147L18.523,23.141L18.598,23.032L18.601,23.027L18.643,22.968L18.645,22.965L18.69,22.904L18.692,22.901L18.74,22.837L18.743,22.833L18.793,22.767L18.796,22.764L18.849,22.696L18.852,22.692L18.908,22.622L18.911,22.619L18.97,22.547L18.973,22.543L19.035,22.47L19.038,22.466L19.103,22.392L19.107,22.388L19.174,22.312L19.178,22.309L19.249,22.232L19.253,22.228L19.326,22.151L19.33,22.147L19.407,22.069L19.411,22.065L19.49,21.987L19.495,21.982L19.577,21.904L19.582,21.9L19.667,21.822L19.672,21.817L19.76,21.739L19.766,21.735L19.856,21.657L19.862,21.652L19.956,21.575L19.962,21.571L20.059,21.495L20.065,21.49L20.165,21.415L20.172,21.41L20.274,21.336L20.281,21.331L20.386,21.258L20.394,21.253L20.502,21.182L20.508,21.179L20.563,21.144L20.568,21.141L20.623,21.107L20.628,21.104L20.684,21.07L20.689,21.068L20.746,21.034L20.751,21.032L20.809,20.999L20.813,20.997L20.872,20.964L20.877,20.962L20.936,20.93L20.941,20.928L21.001,20.896L21.006,20.894L21.067,20.864L21.072,20.861L21.134,20.831L21.139,20.829L21.201,20.8L21.207,20.797L21.27,20.769L21.275,20.767L21.339,20.739L21.345,20.736L21.409,20.709L21.415,20.707L21.48,20.681L21.486,20.679L21.552,20.653L21.558,20.651L21.624,20.626L21.63,20.624L21.698,20.6L21.704,20.599L21.772,20.575L21.778,20.574L21.847,20.551L21.854,20.55L21.923,20.528L21.93,20.527L22,20.506L22.007,20.505L22.078,20.485L22.085,20.484L22.156,20.465L22.163,20.464L22.236,20.446L22.243,20.445L22.316,20.429L22.323,20.427L22.397,20.412L22.404,20.411L22.479,20.396L22.486,20.395L22.496,20.393L22.561,20.382L22.569,20.381L22.645,20.369L22.652,20.369L22.729,20.358L22.736,20.357L22.814,20.347L22.822,20.347L22.9,20.338L22.907,20.338L22.986,20.331L22.994,20.33L23.074,20.324L23.082,20.324L23.162,20.319L23.17,20.319L23.251,20.316L23.259,20.316L23.341,20.314L23.349,20.314L23.431,20.313L23.439,20.313L23.522,20.314L23.53,20.314L23.614,20.316L23.622,20.317L23.707,20.32L23.715,20.321L23.801,20.325L23.809,20.326L23.895,20.332L23.903,20.333L23.99,20.341L23.998,20.342L24.085,20.351L24.094,20.352L24.182,20.363L24.19,20.364L24.279,20.377L24.287,20.378L24.377,20.392L24.385,20.393L24.475,20.409L24.483,20.411L24.574,20.428L24.582,20.429L24.674,20.448L24.683,20.45L24.813,20.479L24.824,20.482L24.952,20.513L24.962,20.516L25.089,20.55L25.099,20.554L25.224,20.59L25.234,20.593L25.358,20.632L25.368,20.635L25.49,20.676L25.5,20.68L25.62,20.723L25.63,20.727L25.749,20.772L25.759,20.776L25.876,20.823L25.886,20.828L26.002,20.877L26.011,20.881L26.125,20.933L26.135,20.937L26.247,20.99L26.257,20.995L26.368,21.05L26.377,21.055L26.486,21.111L26.495,21.116L26.603,21.174L26.612,21.179L26.718,21.239L26.727,21.245L26.832,21.306L26.84,21.311L26.943,21.374L26.951,21.38L27.053,21.444L27.061,21.449L27.162,21.515L27.169,21.521L27.268,21.588L27.276,21.593L27.373,21.662L27.38,21.667L27.476,21.737L27.483,21.742L27.578,21.813L27.585,21.818L27.677,21.89L27.684,21.896L27.775,21.969L27.782,21.974L27.872,22.048L27.878,22.054L27.966,22.128L27.972,22.134L28.059,22.209L28.065,22.215L28.15,22.291L28.156,22.297L28.24,22.373L28.246,22.379L28.328,22.456L28.333,22.462L28.414,22.54L28.419,22.546L28.498,22.624L28.503,22.63L28.581,22.709L28.586,22.714L28.617,22.746L28.662,22.794L28.667,22.799L28.741,22.879L28.746,22.885L28.818,22.965L28.823,22.97L28.894,23.051L28.899,23.056L28.968,23.136L28.973,23.142L29.041,23.222L29.045,23.228L29.112,23.308L29.116,23.314L29.181,23.394L29.185,23.4L29.248,23.48L29.253,23.485L29.314,23.565L29.318,23.57L29.379,23.65L29.383,23.656L29.441,23.735L29.445,23.74L29.502,23.819L29.506,23.825L29.562,23.903L29.565,23.908L29.62,23.986L29.623,23.992L29.676,24.069L29.679,24.075L29.731,24.151L29.734,24.157L29.784,24.233L29.787,24.238L29.835,24.313L29.838,24.319L29.885,24.393L29.888,24.398L29.933,24.472L29.936,24.477L29.98,24.55L29.983,24.555L30.025,24.627L30.028,24.632L30.068,24.703L30.071,24.708L30.11,24.778L30.115,24.786L30.188,24.921L30.194,24.932L30.261,25.062L30.281,25.104L30.285,25.115L30.304,25.167L30.309,25.18L30.322,25.229L30.332,25.265L30.34,25.303L30.349,25.351L30.353,25.374L30.363,25.433L30.365,25.449L30.376,25.52L30.377,25.531L30.387,25.614L30.388,25.622L30.399,25.715L30.399,25.722L30.41,25.826L30.411,25.832L30.422,25.947L30.422,25.951L30.434,26.077L30.434,26.082L30.458,26.364L30.458,26.369L30.482,26.691L30.483,26.695L30.508,27.055L30.508,27.059L30.534,27.456L30.534,27.458L30.561,27.89L30.561,27.892L30.588,28.358L30.588,28.36L30.617,28.857L30.617,28.859L30.645,29.387L30.648,29.431L30.672,29.946L30.672,29.947L30.7,30.531L30.7,30.532L30.727,31.143L30.727,31.144L30.783,32.436L30.783,32.438L30.796,32.741L30.836,33.815L30.836,33.816L30.887,35.265L30.887,35.266L30.908,35.868L30.934,36.775L30.934,36.776L30.978,38.333L30.978,38.334L30.987,38.69L31.016,39.926L31.016,39.926L31.053,41.541L31.06,41.873L31.084,43.167L31.114,44.79L31.122,45.253L31.14,46.398L31.174,48.666L31.184,49.521L31.212,51.947L31.216,52.436L31.237,54.933L31.237,55.044L31.245,57.245L31.246,57.459L31.241,58.941L31.241,58.941L31.239,59.361L30.994,59.991L30.754,60.415L30.75,60.423L30.427,60.758L30.096,60.431L30.091,60.423L29.841,60.005L29.58,59.381L29.568,58.962L29.568,58.962L29.525,57.481L29.52,57.268L29.52,57.268L29.469,55.067L29.469,55.068L29.467,54.958L29.417,52.461L29.418,52.462L29.408,51.974L29.365,49.547L29.365,49.548L29.349,48.694L29.312,46.426L29.312,46.427L29.293,45.282L29.286,44.819L29.286,44.82L29.261,43.197ZM28.997,25.594L28.996,25.587L28.996,25.587L28.997,25.594Z" style="fill:#fff;"/>
        <path d="M40.146,21.685L40.047,21.699L40.062,21.697L39.963,21.713L39.977,21.711L39.877,21.728L39.892,21.726L39.792,21.745L39.807,21.743L39.793,21.746L39.706,21.762L39.721,21.759L39.619,21.78L39.634,21.777L39.532,21.799L39.547,21.796L39.445,21.82L39.46,21.817L39.357,21.843L39.372,21.84L39.308,21.857L39.268,21.867L39.283,21.863L39.179,21.891L39.194,21.887L39.089,21.917L39.104,21.913L38.998,21.945L39.013,21.941L38.907,21.975L38.922,21.97L38.849,21.995L38.815,22.006L38.83,22.001L38.722,22.036L38.735,22.032L38.627,22.069L38.638,22.065L38.531,22.104L38.542,22.1L38.437,22.139L38.447,22.135L38.363,22.168L38.343,22.175L38.353,22.171L38.249,22.209L38.259,22.205L38.157,22.245L38.167,22.24L38.066,22.281L38.075,22.276L37.975,22.318L37.985,22.313L37.886,22.356L37.896,22.351L37.834,22.379L37.798,22.393L37.807,22.389L37.709,22.43L37.718,22.426L37.622,22.468L37.631,22.464L37.535,22.507L37.544,22.502L37.45,22.546L37.458,22.541L37.365,22.586L37.374,22.581L37.282,22.627L37.29,22.622L37.199,22.668L37.207,22.664L37.117,22.711L37.125,22.706L37.037,22.753L37.044,22.749L36.957,22.797L36.964,22.792L36.878,22.841L36.885,22.836L36.8,22.886L36.807,22.881L36.723,22.931L36.73,22.926L36.715,22.935L36.645,22.976L36.653,22.971L36.569,23.02L36.576,23.015L36.493,23.066L36.5,23.061L36.419,23.112L36.425,23.107L36.345,23.158L36.351,23.153L36.272,23.205L36.278,23.2L36.199,23.253L36.205,23.248L36.128,23.301L36.134,23.296L36.058,23.349L36.063,23.344L35.988,23.398L35.993,23.394L35.919,23.448L35.925,23.443L35.851,23.498L35.856,23.493L35.784,23.548L35.789,23.543L35.718,23.599L35.723,23.594L35.652,23.65L35.657,23.645L35.605,23.687L35.588,23.701L35.592,23.696L35.523,23.751L35.528,23.747L35.459,23.803L35.464,23.798L35.396,23.854L35.401,23.85L35.334,23.906L35.338,23.901L35.273,23.958L35.277,23.954L35.212,24.01L35.216,24.006L35.153,24.063L35.158,24.056L35.034,24.17L35.041,24.162L34.921,24.277L34.927,24.269L34.81,24.383L34.816,24.376L34.703,24.491L34.709,24.484L34.617,24.58L34.599,24.598L34.605,24.591L34.497,24.704L34.502,24.698L34.398,24.811L34.403,24.804L34.302,24.917L34.306,24.911L34.209,25.022L34.213,25.017L34.12,25.127L34.124,25.122L34.034,25.232L34.037,25.227L33.95,25.335L33.953,25.33L33.87,25.438L33.873,25.433L33.793,25.539L33.796,25.535L33.72,25.639L33.722,25.635L33.649,25.737L33.651,25.733L33.581,25.834L33.583,25.83L33.517,25.928L33.518,25.925L33.455,26.021L33.457,26.017L33.396,26.111L33.398,26.108L33.341,26.199L33.342,26.196L33.288,26.284L33.29,26.281L33.251,26.345L33.238,26.366L33.24,26.363L33.191,26.445L33.192,26.442L33.146,26.521L33.147,26.518L33.104,26.593L33.105,26.591L33.065,26.662L33.066,26.659L32.995,26.79L32.997,26.786L32.938,26.901L32.939,26.897L32.891,26.994L32.892,26.991L32.855,27.068L32.856,27.066L32.83,27.123L32.831,27.12L32.824,27.135L32.81,27.167L32.607,27.281L32.499,27.076L32.504,27.041L32.507,27.025L32.508,27.022L32.519,26.96L32.52,26.958L32.536,26.873L32.537,26.87L32.56,26.765L32.561,26.762L32.59,26.636L32.591,26.633L32.628,26.488L32.629,26.485L32.65,26.406L32.651,26.404L32.674,26.321L32.675,26.319L32.7,26.232L32.701,26.229L32.728,26.138L32.729,26.135L32.736,26.112L32.759,26.041L32.761,26.038L32.793,25.94L32.795,25.937L32.83,25.835L32.831,25.832L32.869,25.728L32.871,25.724L32.911,25.616L32.913,25.613L32.955,25.502L32.957,25.498L33.003,25.385L33.005,25.381L33.053,25.264L33.055,25.26L33.106,25.141L33.109,25.137L33.163,25.016L33.165,25.011L33.222,24.887L33.225,24.883L33.285,24.757L33.288,24.752L33.351,24.625L33.355,24.619L33.421,24.49L33.424,24.484L33.494,24.354L33.498,24.348L33.57,24.216L33.575,24.209L33.651,24.076L33.656,24.069L33.735,23.935L33.74,23.928L33.753,23.907L33.824,23.794L33.83,23.787L33.918,23.652L33.924,23.644L34.016,23.509L34.022,23.501L34.118,23.365L34.125,23.358L34.224,23.221L34.23,23.215L34.281,23.147L34.284,23.143L34.336,23.075L34.34,23.071L34.393,23.002L34.398,22.998L34.452,22.93L34.456,22.926L34.511,22.858L34.515,22.853L34.571,22.785L34.576,22.781L34.633,22.713L34.637,22.708L34.652,22.691L34.696,22.641L34.701,22.637L34.761,22.57L34.766,22.565L34.827,22.499L34.832,22.494L34.894,22.428L34.899,22.423L34.962,22.357L34.967,22.352L35.032,22.286L35.037,22.281L35.102,22.215L35.108,22.21L35.174,22.145L35.18,22.14L35.247,22.075L35.253,22.07L35.322,22.005L35.328,22L35.398,21.935L35.404,21.931L35.475,21.866L35.481,21.861L35.553,21.797L35.56,21.792L35.632,21.729L35.639,21.724L35.713,21.661L35.72,21.656L35.782,21.604L35.796,21.593L35.803,21.588L35.88,21.528L35.888,21.523L35.966,21.462L35.974,21.457L36.054,21.398L36.061,21.393L36.142,21.334L36.15,21.329L36.232,21.27L36.24,21.265L36.323,21.207L36.331,21.202L36.416,21.145L36.424,21.14L36.51,21.083L36.518,21.078L36.605,21.022L36.614,21.017L36.702,20.962L36.711,20.957L36.8,20.902L36.809,20.897L36.899,20.843L36.908,20.838L37,20.785L37.009,20.78L37.043,20.761L37.103,20.729L37.112,20.724L37.208,20.674L37.217,20.67L37.314,20.621L37.323,20.617L37.421,20.568L37.431,20.564L37.53,20.517L37.54,20.513L37.64,20.466L37.65,20.462L37.669,20.453L37.752,20.418L37.762,20.414L37.866,20.372L37.876,20.368L37.981,20.326L37.991,20.323L38.098,20.282L38.11,20.278L38.217,20.239L38.231,20.234L38.265,20.222L38.338,20.199L38.353,20.194L38.459,20.162L38.474,20.158L38.58,20.128L38.595,20.124L38.701,20.096L38.716,20.092L38.821,20.066L38.836,20.062L38.876,20.053L38.941,20.039L38.956,20.036L39.06,20.016L39.075,20.013L39.179,19.995L39.194,19.992L39.298,19.975L39.313,19.973L39.415,19.958L39.431,19.956L39.519,19.945L39.533,19.944L39.548,19.942L39.65,19.933L39.665,19.931L39.766,19.925L39.781,19.923L39.881,19.918L39.896,19.917L39.996,19.913L40.011,19.912L40.11,19.911L40.125,19.91L40.223,19.91L40.238,19.909L40.336,19.911L40.35,19.91L40.447,19.914L40.461,19.913L40.558,19.918L40.572,19.918L40.668,19.925L40.682,19.925L40.777,19.933L40.791,19.933L40.879,19.942L40.885,19.943L40.899,19.943L40.993,19.956L41.006,19.957L41.099,19.971L41.112,19.972L41.204,19.988L41.217,19.989L41.308,20.006L41.321,20.008L41.412,20.026L41.424,20.028L41.514,20.047L41.526,20.049L41.616,20.07L41.627,20.071L41.716,20.093L41.727,20.095L41.815,20.119L41.826,20.121L41.914,20.145L41.924,20.147L42.011,20.173L42.022,20.175L42.107,20.202L42.118,20.204L42.203,20.232L42.213,20.234L42.224,20.238L42.297,20.264L42.306,20.267L42.39,20.298L42.399,20.3L42.481,20.333L42.491,20.335L42.572,20.368L42.581,20.371L42.662,20.405L42.67,20.408L42.75,20.443L42.759,20.446L42.838,20.481L42.846,20.484L42.924,20.521L42.932,20.524L43.01,20.561L43.018,20.564L43.094,20.602L43.102,20.605L43.178,20.643L43.185,20.646L43.26,20.686L43.267,20.689L43.341,20.729L43.348,20.732L43.421,20.772L43.428,20.775L43.432,20.778L43.5,20.818L43.506,20.821L43.577,20.864L43.583,20.867L43.654,20.911L43.66,20.914L43.729,20.958L43.735,20.961L43.803,21.006L43.809,21.009L43.876,21.054L43.882,21.057L43.948,21.103L43.953,21.106L44.019,21.152L44.024,21.154L44.089,21.201L44.094,21.203L44.158,21.25L44.163,21.253L44.226,21.3L44.233,21.304L44.357,21.399L44.365,21.404L44.486,21.499L44.493,21.504L44.61,21.601L44.617,21.605L44.731,21.702L44.737,21.706L44.847,21.803L44.853,21.807L44.96,21.904L44.965,21.908L45.068,22.004L45.073,22.008L45.172,22.104L45.177,22.107L45.273,22.202L45.277,22.205L45.302,22.231L45.368,22.3L45.372,22.303L45.459,22.397L45.463,22.4L45.546,22.493L45.549,22.496L45.629,22.586L45.632,22.589L45.708,22.677L45.71,22.68L45.783,22.766L45.785,22.768L45.854,22.852L45.856,22.854L45.921,22.934L45.923,22.936L45.984,23.014L45.986,23.016L46.043,23.09L46.044,23.092L46.098,23.163L46.099,23.165L46.149,23.232L46.151,23.234L46.238,23.356L46.241,23.359L46.312,23.463L46.315,23.465L46.371,23.549L46.372,23.552L46.413,23.614L46.415,23.616L46.429,23.639L46.447,23.669L46.423,23.897L46.195,23.873L46.17,23.849L46.151,23.831L46.152,23.833L46.098,23.783L46.1,23.785L46.024,23.718L46.026,23.72L45.93,23.638L45.933,23.64L45.817,23.545L45.82,23.547L45.755,23.495L45.756,23.496L45.687,23.441L45.688,23.443L45.614,23.386L45.616,23.388L45.538,23.328L45.54,23.33L45.457,23.268L45.459,23.27L45.372,23.207L45.374,23.209L45.282,23.145L45.285,23.147L45.189,23.081L45.192,23.083L45.092,23.016L45.095,23.019L44.991,22.951L44.995,22.954L44.887,22.885L44.891,22.888L44.809,22.838L44.779,22.819L44.783,22.822L44.669,22.751L44.673,22.755L44.555,22.684L44.56,22.688L44.438,22.617L44.444,22.621L44.318,22.55L44.324,22.555L44.195,22.485L44.201,22.489L44.069,22.421L44.076,22.425L43.94,22.357L43.948,22.362L43.809,22.296L43.817,22.301L43.674,22.236L43.681,22.24L43.608,22.208L43.613,22.211L43.54,22.18L43.545,22.182L43.471,22.152L43.476,22.154L43.401,22.124L43.406,22.127L43.331,22.097L43.336,22.1L43.26,22.071L43.265,22.074L43.188,22.046L43.194,22.048L43.116,22.021L43.122,22.024L43.044,21.997L43.05,21.999L42.971,21.973L42.977,21.976L42.902,21.952L42.898,21.95L42.904,21.953L42.825,21.927L42.831,21.93L42.751,21.904L42.758,21.907L42.677,21.882L42.684,21.885L42.602,21.861L42.61,21.864L42.527,21.841L42.535,21.844L42.452,21.822L42.46,21.825L42.376,21.804L42.384,21.807L42.3,21.786L42.308,21.789L42.223,21.77L42.232,21.773L42.146,21.754L42.155,21.757L42.069,21.74L42.078,21.743L41.992,21.726L42.001,21.729L41.914,21.714L41.923,21.717L41.847,21.704L41.835,21.702L41.845,21.705L41.757,21.69L41.768,21.693L41.679,21.68L41.689,21.682L41.6,21.67L41.611,21.672L41.521,21.661L41.532,21.663L41.441,21.654L41.453,21.656L41.362,21.647L41.373,21.649L41.282,21.642L41.293,21.644L41.201,21.638L41.213,21.64L41.121,21.635L41.133,21.637L41.04,21.634L41.052,21.635L40.959,21.634L40.971,21.635L40.877,21.635L40.89,21.636L40.795,21.637L40.809,21.638L40.803,21.638L40.714,21.639L40.727,21.639L40.632,21.641L40.645,21.642L40.549,21.645L40.563,21.645L40.466,21.651L40.48,21.65L40.383,21.657L40.397,21.657L40.3,21.666L40.314,21.665L40.216,21.675L40.23,21.674L40.132,21.686L40.146,21.685Z" style="fill:#2b307f;fill-opacity:0.12;"/>
        <path d="M21.689,6.879L21.766,6.918L21.761,6.914L21.77,6.918L21.841,6.954L21.836,6.95L21.92,6.989L21.914,6.985L22.001,7.023L21.996,7.019L22.085,7.055L22.08,7.052L22.173,7.087L22.168,7.084L22.264,7.118L22.258,7.115L22.357,7.147L22.352,7.145L22.452,7.178L22.447,7.176L22.55,7.209L22.545,7.206L22.651,7.238L22.646,7.235L22.749,7.264L22.755,7.266L22.749,7.264L22.86,7.295L22.855,7.293L22.968,7.324L22.962,7.322L23.078,7.352L23.073,7.35L23.177,7.376L23.19,7.379L23.185,7.377L23.304,7.409L23.299,7.407L23.42,7.437L23.415,7.436L23.538,7.465L23.534,7.463L23.621,7.483L23.659,7.493L23.654,7.492L23.78,7.525L23.775,7.523L23.903,7.555L23.898,7.554L24.028,7.585L24.023,7.583L24.057,7.591L24.154,7.617L24.149,7.616L24.282,7.651L24.277,7.65L24.411,7.683L24.407,7.682L24.542,7.715L24.538,7.714L24.617,7.732L24.675,7.747L24.671,7.746L24.809,7.779L24.805,7.779L24.945,7.811L24.941,7.81L25.082,7.842L25.078,7.841L25.22,7.872L25.216,7.871L25.279,7.884L25.36,7.902L25.356,7.901L25.5,7.932L25.497,7.931L25.642,7.961L25.639,7.961L25.785,7.99L25.782,7.989L25.929,8.017L25.926,8.016L26.074,8.043L26.071,8.043L26.22,8.068L26.217,8.068L26.366,8.092L26.363,8.092L26.514,8.115L26.511,8.115L26.661,8.137L26.659,8.137L26.796,8.156L26.81,8.158L26.807,8.158L26.959,8.179L26.956,8.179L27.108,8.199L27.105,8.199L27.257,8.218L27.255,8.218L27.407,8.236L27.405,8.236L27.557,8.253L27.555,8.253L27.707,8.268L27.705,8.268L27.858,8.282L27.855,8.282L28.008,8.295L28.005,8.295L28.158,8.307L28.155,8.306L28.307,8.317L28.305,8.317L28.34,8.319L28.457,8.326L28.455,8.326L28.606,8.335L28.604,8.335L28.755,8.341L28.753,8.342L28.903,8.347L28.901,8.347L29.051,8.351L29.049,8.351L29.198,8.354L29.196,8.354L29.344,8.355L29.342,8.355L29.49,8.355L29.488,8.355L29.598,8.354L29.634,8.353L29.809,8.502L29.661,8.676L29.624,8.682L29.516,8.698L29.514,8.698L29.368,8.719L29.366,8.719L29.219,8.738L29.217,8.738L29.069,8.756L29.067,8.756L28.919,8.772L28.917,8.773L28.767,8.788L28.765,8.788L28.614,8.801L28.612,8.802L28.461,8.814L28.459,8.814L28.342,8.823L28.308,8.825L28.305,8.825L28.153,8.834L28.151,8.834L27.998,8.842L27.996,8.842L27.843,8.848L27.841,8.848L27.688,8.853L27.685,8.853L27.532,8.857L27.529,8.857L27.376,8.859L27.373,8.859L27.22,8.86L27.217,8.86L27.064,8.86L27.061,8.86L26.908,8.859L26.905,8.859L26.752,8.856L26.749,8.856L26.736,8.856L26.597,8.851L26.594,8.851L26.441,8.844L26.439,8.844L26.287,8.836L26.284,8.836L26.132,8.827L26.129,8.826L25.979,8.816L25.976,8.816L25.825,8.804L25.822,8.804L25.673,8.791L25.67,8.791L25.521,8.777L25.518,8.777L25.37,8.762L25.367,8.761L25.22,8.745L25.217,8.745L25.135,8.735L25.071,8.727L25.068,8.726L24.924,8.705L24.92,8.705L24.777,8.683L24.773,8.682L24.632,8.66L24.628,8.659L24.488,8.635L24.484,8.634L24.425,8.624L24.346,8.608L24.342,8.607L24.205,8.578L24.201,8.578L24.066,8.548L24.062,8.547L23.929,8.516L23.924,8.515L23.827,8.492L23.793,8.482L23.789,8.481L23.661,8.443L23.656,8.442L23.53,8.403L23.525,8.402L23.401,8.362L23.396,8.36L23.36,8.348L23.276,8.316L23.271,8.315L23.153,8.268L23.148,8.266L23.032,8.219L23.027,8.217L22.914,8.169L22.909,8.167L22.897,8.162L22.799,8.115L22.794,8.113L22.687,8.06L22.682,8.058L22.578,8.005L22.573,8.003L22.471,7.949L22.466,7.946L22.461,7.943L22.368,7.889L22.363,7.887L22.268,7.829L22.263,7.827L22.171,7.769L22.166,7.766L22.079,7.709L22.077,7.708L22.072,7.705L21.988,7.644L21.982,7.641L21.901,7.58L21.896,7.577L21.818,7.515L21.813,7.512L21.739,7.45L21.733,7.447L21.663,7.385L21.657,7.381L21.59,7.319L21.585,7.316L21.528,7.26L21.521,7.253L21.516,7.249L21.457,7.185L21.452,7.181L21.397,7.118L21.393,7.113L21.341,7.049L21.314,6.811L21.554,6.805L21.624,6.846L21.62,6.842L21.694,6.883L21.689,6.879Z" style="fill:#fff;fill-opacity:0.8;"/>
    </g>
</svg>
