<?xml version="1.0" encoding="UTF-8" standalone="no"?>
<!DOCTYPE svg PUBLIC "-//W3C//DTD SVG 1.1//EN" "http://www.w3.org/Graphics/SVG/1.1/DTD/svg11.dtd">
<svg width="100%" height="100%" viewBox="0 0 65 65" version="1.1" xmlns="http://www.w3.org/2000/svg" xmlns:xlink="http://www.w3.org/1999/xlink" xml:space="preserve" xmlns:serif="http://www.serif.com/" style="fill-rule:evenodd;clip-rule:evenodd;stroke-linecap:round;stroke-linejoin:round;stroke-miterlimit:1;">
    <rect id="Simulating-Emergencies" x="0.803" y="0.487" width="64" height="64" style="fill:none;"/>
    <clipPath id="_clip1">
        <rect x="0.803" y="0.487" width="64" height="64"/>
    </clipPath>
    <g clip-path="url(#_clip1)">
        <g>
            <g>
                <path d="M63.678,36.423C62.778,31.927 59.621,28.214 55.327,26.603C55.327,26.603 55.327,26.603 55.327,26.603C53.091,25.765 50.723,23.975 48.335,23.975C47.287,23.975 46.145,23.975 45.107,23.975C42.828,23.975 40.567,25.745 38.432,26.546C38.432,26.546 38.432,26.546 38.432,26.546C34.043,28.192 30.815,31.987 29.896,36.584C29.323,39.447 28.803,64.487 28.803,64.487L64.803,64.487C64.803,64.487 64.263,39.349 63.678,36.423Z" style="fill:#ececf7;"/>
                <clipPath id="_clip2">
                    <path d="M63.678,36.423C62.778,31.927 59.621,28.214 55.327,26.603C55.327,26.603 55.327,26.603 55.327,26.603C53.091,25.765 50.723,23.975 48.335,23.975C47.287,23.975 46.145,23.975 45.107,23.975C42.828,23.975 40.567,25.745 38.432,26.546C38.432,26.546 38.432,26.546 38.432,26.546C34.043,28.192 30.815,31.987 29.896,36.584C29.323,39.447 28.803,64.487 28.803,64.487L64.803,64.487C64.803,64.487 64.263,39.349 63.678,36.423Z"/>
                </clipPath>
                <g clip-path="url(#_clip2)">
                    <path d="M50.076,21.975L56.076,31.975L52.076,32.975L56.076,35.975L48.076,44.975" style="fill:none;stroke:#9497c6;stroke-opacity:0.39;stroke-width:0.9px;"/>
                    <path d="M57.027,44.975L57.12,68.287" style="fill:none;stroke:#9497c6;stroke-opacity:0.39;stroke-width:0.9px;"/>
                    <path d="M43.841,21.975L37.841,31.975L41.841,32.975L37.841,35.975L45.841,44.975" style="fill:none;stroke:#9497c6;stroke-opacity:0.39;stroke-width:0.9px;"/>
                </g>
                <path d="M51.234,25.135L42.297,25.135L46.803,52.411L47.283,52.254L51.234,25.135Z" style="fill:#fff;"/>
                <path d="M51.303,22.121L42.303,22.121C42.303,22.121 42.303,25.264 42.303,25.264C42.289,27.514 47.076,29.975 47.076,29.975C47.076,29.975 51.313,27.613 51.302,25.264C51.302,25.264 51.303,22.121 51.303,22.121Z" style="fill:#f58f78;"/>
                <g>
                    <path d="M46.203,33.351L44.971,32.119L47.092,29.997L49.214,32.119L47.964,33.368L49.185,42.067L44.828,42.067L46.203,33.351Z" style="fill:#676fcb;fill-opacity:0.75;"/>
                </g>
                <path d="M54.517,13.764C54.517,9.504 51.063,6.05 46.803,6.05C46.803,6.05 46.803,6.05 46.803,6.05C42.542,6.05 39.089,9.504 39.089,13.764C39.089,15.034 39.089,16.351 39.089,17.621C39.089,21.882 42.542,25.335 46.803,25.335C46.803,25.335 46.803,25.335 46.803,25.335C51.063,25.335 54.517,21.882 54.517,17.621C54.517,16.351 54.517,15.034 54.517,13.764Z" style="fill:#f8ae9e;"/>
            </g>
            <path d="M54.467,12.3C54.467,12.3 45.237,12.225 42.467,8.56C42.407,8.48 42.299,8.449 42.215,8.393C42.215,8.393 41.584,12.062 39.183,13.434C38.617,12.405 38.326,7.053 41.767,6.025C42.533,4.784 46.588,2.693 50.9,4.912C54.843,6.941 54.467,12.3 54.467,12.3Z" style="fill:#6a6ea6;"/>
        </g>
        <g>
            <path d="M53.596,38.491C53.596,37.961 53.385,37.452 53.01,37.077C52.635,36.702 52.126,36.491 51.596,36.491C48.302,36.491 41.774,36.491 38.48,36.491C37.95,36.491 37.441,36.702 37.066,37.077C36.691,37.452 36.48,37.961 36.48,38.491C36.48,42.57 36.48,51.807 36.48,55.886C36.48,56.416 36.691,56.925 37.066,57.3C37.441,57.675 37.95,57.886 38.48,57.886C41.774,57.886 48.302,57.886 51.596,57.886C52.126,57.886 52.635,57.675 53.01,57.3C53.385,56.925 53.596,56.416 53.596,55.886C53.596,51.807 53.596,42.57 53.596,38.491Z" style="fill:#9fa2ca;"/>
            <clipPath id="_clip3">
                <path d="M53.596,38.491C53.596,37.961 53.385,37.452 53.01,37.077C52.635,36.702 52.126,36.491 51.596,36.491C48.302,36.491 41.774,36.491 38.48,36.491C37.95,36.491 37.441,36.702 37.066,37.077C36.691,37.452 36.48,37.961 36.48,38.491C36.48,42.57 36.48,51.807 36.48,55.886C36.48,56.416 36.691,56.925 37.066,57.3C37.441,57.675 37.95,57.886 38.48,57.886C41.774,57.886 48.302,57.886 51.596,57.886C52.126,57.886 52.635,57.675 53.01,57.3C53.385,56.925 53.596,56.416 53.596,55.886C53.596,51.807 53.596,42.57 53.596,38.491Z"/>
            </clipPath>
            <g clip-path="url(#_clip3)">
                <path d="M49.43,38.359C50.012,37.529 50.083,36.444 49.615,35.545C49.146,34.647 48.217,34.083 47.204,34.083C46.936,34.083 46.674,34.083 46.423,34.083C44.87,34.083 43.405,34.804 42.459,36.035C41.719,36.997 40.984,37.953 40.984,37.953L40.965,38.362L49.429,38.362C49.429,38.362 49.429,38.361 49.43,38.359Z" style="fill:#666bab;"/>
            </g>
            <path d="M49.103,36.334C49.103,35.003 48.024,33.924 46.693,33.924C45.648,33.924 44.428,33.924 43.383,33.924C42.052,33.924 40.973,35.003 40.973,36.334C40.973,37.306 40.973,38.203 40.973,38.203L49.103,38.203L49.103,36.334Z" style="fill:#cecfeb;"/>
            <path d="M47.626,36.379C47.626,36.047 47.494,35.729 47.26,35.495C47.025,35.26 46.707,35.128 46.375,35.128C45.553,35.128 44.481,35.128 43.659,35.128C43.328,35.128 43.009,35.26 42.775,35.495C42.54,35.729 42.409,36.047 42.409,36.379C42.409,36.869 42.409,37.317 42.409,37.317L47.626,37.317L47.626,36.379Z" style="fill:#2b307e;fill-opacity:0.44;"/>
            <path d="M47.626,37.007C47.626,36.675 47.494,36.357 47.26,36.122C47.025,35.888 46.707,35.756 46.375,35.756C45.553,35.756 44.481,35.756 43.659,35.756C43.328,35.756 43.009,35.888 42.775,36.122C42.54,36.357 42.409,36.675 42.409,37.007C42.409,37.189 42.409,37.317 42.409,37.317L47.626,37.317L47.626,37.007Z" style="fill:#b7bae3;"/>
        </g>
        <path d="M47.823,48.635C47.823,48.635 49.579,47.532 50.726,47.477C51.873,47.421 52.828,46.297 53.025,45.952C53.223,45.606 54.076,47.245 53.226,47.992C52.54,48.593 52.284,48.635 52.284,48.635L53.797,48.635C54.173,48.635 54.523,48.826 54.725,49.143C54.78,49.229 54.838,49.32 54.895,49.41C55.164,49.831 55.231,50.35 55.076,50.826C54.933,51.263 54.75,51.825 54.587,52.326C54.346,53.065 53.645,53.555 52.869,53.528C51.003,53.461 47.808,53.347 47.808,53.347L47.823,48.635Z" style="fill:#f8ae9e;"/>
        <rect x="34.985" y="47.477" width="12.822" height="7.355" style="fill:#ececf7;"/>
        <g>
            <path d="M47.301,53.461C46.256,46.903 41.77,41.412 35.553,39.081C35.553,39.081 35.552,39.081 35.552,39.08C33.087,38.156 30.475,37.682 27.842,37.682C25.899,37.682 23.579,37.682 21.683,37.682C19.272,37.682 16.88,38.116 14.623,38.963C14.622,38.963 14.622,38.963 14.622,38.963C8.21,41.367 3.584,47.03 2.507,53.792C1.652,59.159 0.803,64.487 0.803,64.487L49.058,64.487C49.058,64.487 48.174,58.938 47.301,53.461Z" style="fill:#f1765a;"/>
            <clipPath id="_clip4">
                <path d="M47.301,53.461C46.256,46.903 41.77,41.412 35.553,39.081C35.553,39.081 35.552,39.081 35.552,39.08C33.087,38.156 30.475,37.682 27.842,37.682C25.899,37.682 23.579,37.682 21.683,37.682C19.272,37.682 16.88,38.116 14.623,38.963C14.622,38.963 14.622,38.963 14.622,38.963C8.21,41.367 3.584,47.03 2.507,53.792C1.652,59.159 0.803,64.487 0.803,64.487L49.058,64.487C49.058,64.487 48.174,58.938 47.301,53.461Z"/>
            </clipPath>
            <g clip-path="url(#_clip4)">
                <rect x="24.839" y="39.706" width="32.181" height="32.971" style="fill:#b0472f;"/>
                <path d="M37.014,52.608L12.816,52.608L10.816,64.487L39.014,64.487L37.014,52.608Z" style="fill:#dfdff2;"/>
                <clipPath id="_clip5">
                    <path d="M37.014,52.608L12.816,52.608L10.816,64.487L39.014,64.487L37.014,52.608Z"/>
                </clipPath>
                <g clip-path="url(#_clip5)">
                    <path d="M36.134,51.446C36.134,51.446 34.969,59.116 26.901,66.816L43.101,66.19L38.506,51.225L36.134,51.446Z" style="fill:#c1c1e0;"/>
                </g>
            </g>
            <path d="M5.459,42.667C7.276,40.833 13.98,37.682 22.658,37.682C24.049,37.682 25.579,37.682 26.983,37.682C35.845,37.682 42.749,40.898 44.541,42.729C41.077,47.599 32.679,51.76 25.022,51.76C17.332,51.76 8.91,47.57 5.459,42.667Z" style="fill:#dfdff2;"/>
            <clipPath id="_clip6">
                <path d="M5.459,42.667C7.276,40.833 13.98,37.682 22.658,37.682C24.049,37.682 25.579,37.682 26.983,37.682C35.845,37.682 42.749,40.898 44.541,42.729C41.077,47.599 32.679,51.76 25.022,51.76C17.332,51.76 8.91,47.57 5.459,42.667Z"/>
            </clipPath>
            <g clip-path="url(#_clip6)">
                <path d="M25,37.233C25,37.233 28.467,44.929 21.546,55.512C21.546,55.512 51.379,48.381 51.669,42.201C51.959,36.021 35.927,34.007 25,37.233Z" style="fill:#c8c8e3;"/>
            </g>
            <path d="M30.962,33.374L18.898,33.374L18.898,40.267C18.898,40.267 18.899,40.268 18.899,40.268C22.392,42.763 27.169,42.403 30.248,39.413C30.684,38.99 30.962,38.721 30.962,38.721L30.962,33.374Z" style="fill:#dfdff2;"/>
            <path d="M18.898,38.542L18.898,32.942L30.962,32.942L30.962,38.706C30.194,39.464 27.142,40.166 24.93,40.166C22.556,40.166 20,39.332 18.898,38.542Z" style="fill:#2b307e;fill-opacity:0.34;"/>
            <path d="M35.271,20.949C35.271,15.914 31.188,11.832 26.153,11.832C25.341,11.832 24.519,11.832 23.708,11.832C18.672,11.832 14.59,15.914 14.59,20.949C14.59,23.017 14.59,25.228 14.59,27.342C14.59,30.085 15.679,32.715 17.619,34.654C19.558,36.593 22.188,37.682 24.93,37.682C24.93,37.682 24.93,37.682 24.931,37.682C27.673,37.682 30.303,36.593 32.242,34.654C34.181,32.715 35.271,30.085 35.271,27.342C35.271,25.228 35.271,23.017 35.271,20.949Z" style="fill:#dfdff2;"/>
            <clipPath id="_clip7">
                <path d="M35.271,20.949C35.271,15.914 31.188,11.832 26.153,11.832C25.341,11.832 24.519,11.832 23.708,11.832C18.672,11.832 14.59,15.914 14.59,20.949C14.59,23.017 14.59,25.228 14.59,27.342C14.59,30.085 15.679,32.715 17.619,34.654C19.558,36.593 22.188,37.682 24.93,37.682C24.93,37.682 24.93,37.682 24.931,37.682C27.673,37.682 30.303,36.593 32.242,34.654C34.181,32.715 35.271,30.085 35.271,27.342C35.271,25.228 35.271,23.017 35.271,20.949Z"/>
            </clipPath>
            <g clip-path="url(#_clip7)">
                <path d="M45.336,7.768L25.1,7.768C25.1,7.768 28.24,13.293 28.24,25.276C28.24,34.569 25.1,37.682 25.1,37.682L45.336,37.682L45.336,7.768Z" style="fill:#a2a3ca;fill-opacity:0.38;"/>
                <path d="M17.13,25.276L32.546,25.276C34.044,25.276 35.258,26.491 35.258,27.989C35.258,27.99 35.258,27.99 35.258,27.991C35.258,30.466 33.252,32.472 30.778,32.472C30.777,32.472 30.776,32.472 30.776,32.472C29.242,32.472 27.772,31.863 26.687,30.778C25.971,30.062 25.462,29.177 25.199,28.217C25.153,28.041 24.994,27.919 24.813,27.919C24.812,27.917 24.812,27.917 24.812,27.917C24.66,27.918 24.527,28.021 24.49,28.168C24.231,29.147 23.717,30.05 22.989,30.778C21.904,31.863 20.434,32.472 18.9,32.472C18.9,32.472 18.899,32.472 18.898,32.472C16.424,32.472 14.418,30.466 14.418,27.991C14.418,27.99 14.418,27.99 14.418,27.989C14.418,26.491 15.632,25.276 17.13,25.276Z" style="fill:#2b307e;fill-opacity:0.18;"/>
            </g>
            <path d="M32.648,21.135C34.487,21.205 36.085,22.553 36.386,24.469C36.853,27.431 34.783,31.348 30.077,30.88C27.97,30.671 26.009,29.462 24.838,27.686C24.78,27.775 24.72,27.863 24.659,27.95C22.146,31.397 16.065,32.015 13.823,27.895C12.401,25.283 13.547,21.268 17.027,21.135C22.234,21.069 27.442,21.069 32.648,21.135ZM17.13,22.427C13.655,22.471 13.922,30.215 19.543,29.587C21.854,29.328 23.816,27.563 24.498,25.292C25.081,23.813 25.206,26.522 26.79,28.029C29.536,30.642 35.811,29.317 35.237,24.794C35.075,23.525 33.922,22.477 32.616,22.428C27.454,22.362 22.292,22.427 17.13,22.427Z" style="fill:#fff;"/>
            <path d="M17.13,22.427L32.546,22.427C34.044,22.427 35.258,23.641 35.258,25.139C35.258,25.14 35.258,25.141 35.258,25.142C35.258,27.616 33.252,29.622 30.778,29.622C30.777,29.622 30.776,29.622 30.776,29.622C29.242,29.622 27.772,29.013 26.687,27.929C25.971,27.212 25.462,26.328 25.199,25.367C25.153,25.192 24.994,25.069 24.813,25.069C24.812,25.068 24.812,25.068 24.812,25.068C24.66,25.068 24.527,25.171 24.49,25.319C24.231,26.298 23.717,27.2 22.989,27.929C21.904,29.013 20.434,29.622 18.9,29.622C18.9,29.622 18.899,29.622 18.898,29.622C16.424,29.622 14.418,27.616 14.418,25.142C14.418,25.141 14.418,25.14 14.418,25.139C14.418,23.641 15.632,22.427 17.13,22.427Z" style="fill:#2b307e;"/>
        </g>
    </g>
</svg>
