<?xml version="1.0" encoding="UTF-8" standalone="no"?>
<!DOCTYPE svg PUBLIC "-//W3C//DTD SVG 1.1//EN" "http://www.w3.org/Graphics/SVG/1.1/DTD/svg11.dtd">
<svg width="100%" height="100%" viewBox="0 0 65 64" version="1.1" xmlns="http://www.w3.org/2000/svg" xmlns:xlink="http://www.w3.org/1999/xlink" xml:space="preserve" xmlns:serif="http://www.serif.com/" style="fill-rule:evenodd;clip-rule:evenodd;stroke-linecap:round;stroke-linejoin:round;stroke-miterlimit:1.5;">
    <rect id="Smartphone" x="0.738" y="0" width="64" height="64" style="fill:none;"/>
    <path d="M51.392,60.318C50.577,59.807 49.634,59.536 48.671,59.536C42.818,59.536 21.296,59.536 16.621,59.536C16.03,59.536 15.45,59.687 14.934,59.974C14.365,60.292 13.596,60.721 13.015,61.045C12.916,61.101 12.866,61.217 12.895,61.327C12.923,61.437 13.023,61.514 13.137,61.514C18.736,61.514 47.086,61.514 52.431,61.514C52.542,61.514 52.641,61.44 52.671,61.333C52.702,61.226 52.658,61.111 52.564,61.052C52.215,60.833 51.789,60.566 51.392,60.318Z" style="fill:#cecfeb;"/>
    <path id="Love" d="M28.666,24.478L28.399,24.478C26.752,24.567 25.15,25.552 24.17,27.028C23.28,28.415 23.057,30.071 23.592,31.503C24.215,33.203 25.773,34.724 27.153,36.066C27.465,36.38 27.776,36.693 28.043,36.961C29.023,37.946 30.002,38.885 30.937,39.78C31.471,40.272 32.005,40.809 32.539,41.346L33.118,41.928L33.741,41.391C35.522,39.87 37.303,38.169 39.039,36.335C39.217,36.156 39.395,35.932 39.617,35.753C40.908,34.411 42.555,32.755 42.911,30.742C43.179,29.086 42.778,27.476 41.799,26.312C40.864,25.194 39.484,24.567 37.97,24.567L37.748,24.567C35.344,24.657 33.919,25.865 33.074,26.939C32.272,25.82 30.803,24.478 28.666,24.478Z" style="fill:#f3775b;"/>
    <clipPath id="_clip1">
        <path d="M28.666,24.478L28.399,24.478C26.752,24.567 25.15,25.552 24.17,27.028C23.28,28.415 23.057,30.071 23.592,31.503C24.215,33.203 25.773,34.724 27.153,36.066C27.465,36.38 27.776,36.693 28.043,36.961C29.023,37.946 30.002,38.885 30.937,39.78C31.471,40.272 32.005,40.809 32.539,41.346L33.118,41.928L33.741,41.391C35.522,39.87 37.303,38.169 39.039,36.335C39.217,36.156 39.395,35.932 39.617,35.753C40.908,34.411 42.555,32.755 42.911,30.742C43.179,29.086 42.778,27.476 41.799,26.312C40.864,25.194 39.484,24.567 37.97,24.567L37.748,24.567C35.344,24.657 33.919,25.865 33.074,26.939C32.272,25.82 30.803,24.478 28.666,24.478Z"/>
    </clipPath>
    <g clip-path="url(#_clip1)">
        <path d="M23.305,34.483L29.605,34.483L31.18,28.97L33.149,37.829L35.511,30.545L36.692,34.089L42.992,34.089" style="fill:none;stroke:#fff;stroke-width:0.8px;"/>
    </g>
    <path d="M18.13,5.666C18.968,4.717 20.168,4.082 21.493,4.033C29.263,3.937 37.034,3.937 44.804,4.033C47.192,4.122 49.282,6.151 49.374,8.603C49.571,24.534 49.375,40.468 49.375,56.401C49.345,58.834 47.295,60.994 44.804,61.087C37.073,61.182 29.341,61.088 21.61,61.088C19.176,61.058 17.016,59.008 16.924,56.517C16.726,40.586 16.922,24.652 16.922,8.719C16.936,7.615 17.365,6.568 18.062,5.744L18.062,5.666L18.13,5.666ZM47.41,11.775C47.402,11.056 46.817,10.477 46.097,10.477C41.348,10.477 24.949,10.477 20.2,10.477C19.48,10.477 18.895,11.056 18.887,11.775C18.739,25.703 18.74,39.633 18.89,53.561C18.898,54.28 19.483,54.859 20.202,54.859C24.951,54.859 41.347,54.859 46.095,54.859C46.814,54.859 47.4,54.28 47.407,53.561C47.557,39.633 47.558,25.703 47.41,11.775Z" style="fill:#636693;fill-rule:nonzero;"/>
    <clipPath id="_clip2">
        <path d="M18.13,5.666C18.968,4.717 20.168,4.082 21.493,4.033C29.263,3.937 37.034,3.937 44.804,4.033C47.192,4.122 49.282,6.151 49.374,8.603C49.571,24.534 49.375,40.468 49.375,56.401C49.345,58.834 47.295,60.994 44.804,61.087C37.073,61.182 29.341,61.088 21.61,61.088C19.176,61.058 17.016,59.008 16.924,56.517C16.726,40.586 16.922,24.652 16.922,8.719C16.936,7.615 17.365,6.568 18.062,5.744L18.062,5.666L18.13,5.666ZM47.41,11.775C47.402,11.056 46.817,10.477 46.097,10.477C41.348,10.477 24.949,10.477 20.2,10.477C19.48,10.477 18.895,11.056 18.887,11.775C18.739,25.703 18.74,39.633 18.89,53.561C18.898,54.28 19.483,54.859 20.202,54.859C24.951,54.859 41.347,54.859 46.095,54.859C46.814,54.859 47.4,54.28 47.407,53.561C47.557,39.633 47.558,25.703 47.41,11.775Z" clip-rule="nonzero"/>
    </clipPath>
    <g clip-path="url(#_clip2)">
        <path d="M54.984,0.202L12.589,41.894L12.884,68.103L54.984,68.103L54.984,0.202Z" style="fill:#2b307e;"/>
    </g>
    <rect x="26.981" y="44.705" width="12.133" height="1.392" style="fill:#2b307e;fill-opacity:0.35;"/>
    <rect x="25.184" y="13.903" width="15.726" height="3.29" style="fill:#2b307e;fill-opacity:0.35;"/>
    <rect x="28.863" y="48.443" width="8.37" height="1.392" style="fill:#2b307e;fill-opacity:0.35;"/>
    <circle cx="32.738" cy="7.619" r="1.3" style="fill:#fff;fill-opacity:0.25;"/>
    <circle cx="32.738" cy="7.181" r="1.3" style="fill:#1c2053;"/>
</svg>
