<?xml version="1.0" encoding="UTF-8" standalone="no"?>
<!DOCTYPE svg PUBLIC "-//W3C//DTD SVG 1.1//EN" "http://www.w3.org/Graphics/SVG/1.1/DTD/svg11.dtd">
<svg width="100%" height="100%" viewBox="0 0 65 65" version="1.1" xmlns="http://www.w3.org/2000/svg" xmlns:xlink="http://www.w3.org/1999/xlink" xml:space="preserve" xmlns:serif="http://www.serif.com/" style="fill-rule:evenodd;clip-rule:evenodd;stroke-linecap:round;stroke-linejoin:round;stroke-miterlimit:1.5;">
    <rect id="Smartphone" x="0.163" y="0.718" width="64" height="64" style="fill:none;"/>
    <path d="M50.817,61.036C50.001,60.525 49.058,60.254 48.096,60.254C42.243,60.254 20.721,60.254 16.046,60.254C15.455,60.254 14.875,60.405 14.359,60.693C13.79,61.01 13.021,61.439 12.44,61.764C12.34,61.819 12.291,61.935 12.32,62.045C12.348,62.155 12.448,62.232 12.562,62.232C18.161,62.232 46.511,62.232 51.856,62.232C51.967,62.232 52.065,62.158 52.096,62.051C52.127,61.944 52.083,61.829 51.989,61.77C51.64,61.552 51.214,61.285 50.817,61.036Z" style="fill:#cecfeb;"/>
    <path id="Love" d="M28.091,25.196C28.002,25.196 27.913,25.196 27.824,25.196C26.177,25.285 24.575,26.27 23.595,27.746C22.705,29.133 22.482,30.789 23.017,32.221C23.64,33.921 25.198,35.442 26.578,36.785C26.889,37.098 27.201,37.411 27.468,37.68C28.447,38.664 29.427,39.604 30.362,40.499C30.896,40.991 31.43,41.528 31.964,42.065L32.543,42.646L33.166,42.109C34.947,40.588 36.727,38.888 38.463,37.053C38.642,36.874 38.82,36.651 39.042,36.472C40.333,35.129 41.98,33.474 42.336,31.46C42.603,29.805 42.203,28.194 41.223,27.03C40.289,25.912 38.909,25.285 37.395,25.285C37.306,25.285 37.262,25.285 37.173,25.285C34.769,25.375 33.344,26.583 32.498,27.657C31.697,26.538 30.228,25.196 28.091,25.196Z" style="fill:#f3775b;"/>
    <clipPath id="_clip1">
        <path d="M28.091,25.196C28.002,25.196 27.913,25.196 27.824,25.196C26.177,25.285 24.575,26.27 23.595,27.746C22.705,29.133 22.482,30.789 23.017,32.221C23.64,33.921 25.198,35.442 26.578,36.785C26.889,37.098 27.201,37.411 27.468,37.68C28.447,38.664 29.427,39.604 30.362,40.499C30.896,40.991 31.43,41.528 31.964,42.065L32.543,42.646L33.166,42.109C34.947,40.588 36.727,38.888 38.463,37.053C38.642,36.874 38.82,36.651 39.042,36.472C40.333,35.129 41.98,33.474 42.336,31.46C42.603,29.805 42.203,28.194 41.223,27.03C40.289,25.912 38.909,25.285 37.395,25.285C37.306,25.285 37.262,25.285 37.173,25.285C34.769,25.375 33.344,26.583 32.498,27.657C31.697,26.538 30.228,25.196 28.091,25.196Z"/>
    </clipPath>
    <g clip-path="url(#_clip1)">
        <path d="M22.73,35.201L29.03,35.201L30.605,29.688L32.573,38.548L34.936,31.263L36.117,34.807L42.417,34.807" style="fill:none;stroke:#fff;stroke-width:0.8px;"/>
    </g>
    <path d="M17.555,6.384C18.393,5.435 19.593,4.801 20.918,4.751C28.688,4.655 36.459,4.655 44.229,4.751C46.617,4.84 48.707,6.869 48.798,9.321C48.996,25.252 48.8,41.186 48.8,57.119C48.77,59.552 46.72,61.712 44.229,61.805C36.498,61.901 28.766,61.806 21.035,61.806C18.601,61.776 16.441,59.727 16.348,57.235C16.151,41.304 16.347,25.37 16.347,9.437C16.361,8.334 16.79,7.286 17.487,6.463L17.487,6.384L17.555,6.384ZM46.835,12.494C46.827,11.774 46.242,11.195 45.522,11.195C40.773,11.195 24.374,11.195 19.625,11.195C18.905,11.195 18.32,11.774 18.312,12.494C18.164,26.421 18.165,40.351 18.315,54.279C18.322,54.998 18.908,55.577 19.627,55.577C24.375,55.577 40.771,55.577 45.52,55.577C46.239,55.577 46.824,54.998 46.832,54.279C46.982,40.351 46.983,26.421 46.835,12.494Z" style="fill:#636693;fill-rule:nonzero;"/>
    <clipPath id="_clip2">
        <path d="M17.555,6.384C18.393,5.435 19.593,4.801 20.918,4.751C28.688,4.655 36.459,4.655 44.229,4.751C46.617,4.84 48.707,6.869 48.798,9.321C48.996,25.252 48.8,41.186 48.8,57.119C48.77,59.552 46.72,61.712 44.229,61.805C36.498,61.901 28.766,61.806 21.035,61.806C18.601,61.776 16.441,59.727 16.348,57.235C16.151,41.304 16.347,25.37 16.347,9.437C16.361,8.334 16.79,7.286 17.487,6.463L17.487,6.384L17.555,6.384ZM46.835,12.494C46.827,11.774 46.242,11.195 45.522,11.195C40.773,11.195 24.374,11.195 19.625,11.195C18.905,11.195 18.32,11.774 18.312,12.494C18.164,26.421 18.165,40.351 18.315,54.279C18.322,54.998 18.908,55.577 19.627,55.577C24.375,55.577 40.771,55.577 45.52,55.577C46.239,55.577 46.824,54.998 46.832,54.279C46.982,40.351 46.983,26.421 46.835,12.494Z" clip-rule="nonzero"/>
    </clipPath>
    <g clip-path="url(#_clip2)">
        <path d="M54.409,0.92L12.014,42.612L12.309,68.822L54.409,68.822L54.409,0.92Z" style="fill:#2b307e;"/>
    </g>
    <rect x="26.406" y="45.423" width="12.133" height="1.392" style="fill:#2b307e;fill-opacity:0.35;"/>
    <rect x="24.609" y="14.621" width="15.726" height="3.29" style="fill:#2b307e;fill-opacity:0.35;"/>
    <rect x="28.287" y="49.162" width="8.37" height="1.392" style="fill:#2b307e;fill-opacity:0.35;"/>
    <circle cx="32.163" cy="8.337" r="1.3" style="fill:#fff;fill-opacity:0.254902;"/>
    <circle cx="32.163" cy="7.9" r="1.3" style="fill:#1c2053;"/>
</svg>
