<?xml version="1.0" encoding="UTF-8" standalone="no"?>
<!DOCTYPE svg PUBLIC "-//W3C//DTD SVG 1.1//EN" "http://www.w3.org/Graphics/SVG/1.1/DTD/svg11.dtd">
<svg width="100%" height="100%" viewBox="0 0 65 65" version="1.1" xmlns="http://www.w3.org/2000/svg" xmlns:xlink="http://www.w3.org/1999/xlink" xml:space="preserve" xmlns:serif="http://www.serif.com/" style="fill-rule:evenodd;clip-rule:evenodd;stroke-linecap:round;stroke-linejoin:round;stroke-miterlimit:1.5;">
    <rect id="Smartphone-with-hands" x="0.624" y="0.718" width="64" height="64" style="fill:none;"/>
    <clipPath id="_clip1">
        <rect x="0.624" y="0.718" width="64" height="64"/>
    </clipPath>
    <g clip-path="url(#_clip1)">
        <path d="M70.917,20.975C69.163,19.899 66.869,20.447 65.792,22.201C65.792,22.202 65.791,22.203 65.791,22.204C64.714,23.957 65.263,26.252 67.016,27.328C71.605,30.146 79.545,35.021 79.545,35.021L83.445,28.668C83.445,28.668 75.505,23.793 70.917,20.975Z" style="fill:#f3775b;"/>
        <path d="M15.733,36.51C14.67,36.434 13.621,36.783 12.816,37.48C12.011,38.177 11.515,39.166 11.439,40.228C11.435,40.289 11.43,40.351 11.426,40.412C11.349,41.475 11.698,42.524 12.395,43.329C13.093,44.134 14.081,44.63 15.144,44.706C21.634,45.173 33.729,46.042 33.729,46.042L34.318,37.846C34.318,37.846 22.223,36.976 15.733,36.51Z" style="fill:#c06564;"/>
        <clipPath id="_clip2">
            <path d="M15.733,36.51C14.67,36.434 13.621,36.783 12.816,37.48C12.011,38.177 11.515,39.166 11.439,40.228C11.435,40.289 11.43,40.351 11.426,40.412C11.349,41.475 11.698,42.524 12.395,43.329C13.093,44.134 14.081,44.63 15.144,44.706C21.634,45.173 33.729,46.042 33.729,46.042L34.318,37.846C34.318,37.846 22.223,36.976 15.733,36.51Z"/>
        </clipPath>
        <g clip-path="url(#_clip2)">
            <path d="M13.443,36.422C15.64,36.581 17.299,38.48 17.161,40.679C17.157,40.74 17.153,40.802 17.15,40.863C17.083,41.933 16.591,42.932 15.783,43.637C14.976,44.342 13.92,44.695 12.851,44.618C12.648,44.603 12.447,44.588 12.249,44.574C10.693,44.461 9.518,43.116 9.616,41.559C9.667,40.744 9.723,39.854 9.774,39.036C9.821,38.278 10.17,37.571 10.742,37.072C11.314,36.572 12.061,36.322 12.819,36.377C13.024,36.392 13.233,36.407 13.443,36.422Z" style="fill:#f3775b;"/>
        </g>
        <path d="M14.133,26.565C13.079,26.415 12.008,26.691 11.156,27.33C10.304,27.97 9.741,28.922 9.591,29.976C9.583,30.037 9.574,30.098 9.565,30.159C9.415,31.214 9.691,32.285 10.33,33.136C10.97,33.988 11.922,34.551 12.976,34.701C18.874,35.539 29.252,37.015 29.252,37.015L30.409,28.88C30.409,28.88 20.031,27.404 14.133,26.565Z" style="fill:#c06564;"/>
        <clipPath id="_clip3">
            <path d="M14.133,26.565C13.079,26.415 12.008,26.691 11.156,27.33C10.304,27.97 9.741,28.922 9.591,29.976C9.583,30.037 9.574,30.098 9.565,30.159C9.415,31.214 9.691,32.285 10.33,33.136C10.97,33.988 11.922,34.551 12.976,34.701C18.874,35.539 29.252,37.015 29.252,37.015L30.409,28.88C30.409,28.88 20.031,27.404 14.133,26.565Z"/>
        </clipPath>
        <g clip-path="url(#_clip3)">
            <path d="M12.689,26.298C14.869,26.609 16.393,28.618 16.104,30.801C16.096,30.862 16.088,30.923 16.08,30.984C15.94,32.047 15.38,33.009 14.526,33.657C13.672,34.305 12.594,34.585 11.533,34.434C11.332,34.405 11.132,34.377 10.936,34.349C9.391,34.129 8.312,32.706 8.516,31.159C8.623,30.35 8.74,29.466 8.848,28.654C8.947,27.901 9.344,27.219 9.949,26.76C10.554,26.301 11.317,26.103 12.069,26.21C12.273,26.239 12.48,26.269 12.689,26.298Z" style="fill:#f3775b;"/>
        </g>
        <path d="M37.466,13.04C37.466,13.04 48.989,28.558 54.936,36.566C57.183,39.592 58.386,43.267 58.363,47.036C58.328,52.914 58.278,61.141 58.278,61.141L37.024,61.094L37.466,13.04Z" style="fill:#f3775b;"/>
        <clipPath id="_clip4">
            <path d="M37.466,13.04C37.466,13.04 48.989,28.558 54.936,36.566C57.183,39.592 58.386,43.267 58.363,47.036C58.328,52.914 58.278,61.141 58.278,61.141L37.024,61.094L37.466,13.04Z"/>
        </clipPath>
        <g clip-path="url(#_clip4)">
            <path d="M48.413,23.953L52.115,25.495C51.428,29.403 51.222,34.071 51.966,40.241C56.81,43.216 56.081,51.774 56.148,53.021L46.877,45.224L48.413,23.953Z" style="fill:#c06564;"/>
        </g>
        <rect x="19.365" y="9.579" width="29.032" height="47.375" style="fill:#fff;"/>
        <clipPath id="_clip5">
            <rect x="19.365" y="9.579" width="29.032" height="47.375"/>
        </clipPath>
        <g clip-path="url(#_clip5)">
            <path d="M34.989,47.855C34.525,48.011 34.156,48.367 33.986,48.826C33.816,49.284 33.862,49.795 34.112,50.215C34.755,51.356 35.797,52.602 37.182,52.763C40.914,53.198 42.306,50.953 42.306,50.953L46.105,52.644C46.105,52.644 45.646,60.401 47.978,62.966L55.45,62.977L55.337,51.67C55.337,51.67 53.882,49.423 52.764,47.695C51.945,46.431 50.72,45.484 49.29,45.012C47.718,44.493 45.615,43.798 44.037,43.277C42.745,42.851 41.322,43.202 40.378,44.181C39.196,45.391 37.329,46.97 34.989,47.855Z" style="fill:#cfd0e2;"/>
        </g>
        <path d="M18.682,6.365C19.51,5.427 20.697,4.799 22.008,4.751C29.693,4.655 37.38,4.655 45.065,4.751C47.427,4.838 49.494,6.845 49.585,9.27C49.706,19.063 49.677,28.857 49.638,38.651C49.614,44.616 49.586,50.582 49.586,56.547C49.556,58.954 47.529,61.09 45.065,61.182C37.418,61.277 29.77,61.183 22.123,61.183C19.716,61.153 17.58,59.126 17.488,56.662C17.293,40.904 17.487,25.144 17.487,9.385C17.501,8.294 17.925,7.258 18.614,6.443L18.614,6.365L18.682,6.365ZM47.642,12.423C47.635,11.703 47.049,11.124 46.33,11.124C41.619,11.124 25.454,11.124 20.743,11.124C20.024,11.124 19.438,11.703 19.431,12.423C19.284,26.189 19.285,39.958 19.433,53.724C19.441,54.443 20.026,55.022 20.745,55.022C25.456,55.022 41.617,55.022 46.328,55.022C47.047,55.022 47.632,54.443 47.64,53.724C47.788,39.958 47.789,26.189 47.642,12.423Z" style="fill:#636693;fill-rule:nonzero;"/>
        <clipPath id="_clip6">
            <path d="M18.682,6.365C19.51,5.427 20.697,4.799 22.008,4.751C29.693,4.655 37.38,4.655 45.065,4.751C47.427,4.838 49.494,6.845 49.585,9.27C49.706,19.063 49.677,28.857 49.638,38.651C49.614,44.616 49.586,50.582 49.586,56.547C49.556,58.954 47.529,61.09 45.065,61.182C37.418,61.277 29.77,61.183 22.123,61.183C19.716,61.153 17.58,59.126 17.488,56.662C17.293,40.904 17.487,25.144 17.487,9.385C17.501,8.294 17.925,7.258 18.614,6.443L18.614,6.365L18.682,6.365ZM47.642,12.423C47.635,11.703 47.049,11.124 46.33,11.124C41.619,11.124 25.454,11.124 20.743,11.124C20.024,11.124 19.438,11.703 19.431,12.423C19.284,26.189 19.285,39.958 19.433,53.724C19.441,54.443 20.026,55.022 20.745,55.022C25.456,55.022 41.617,55.022 46.328,55.022C47.047,55.022 47.632,54.443 47.64,53.724C47.788,39.958 47.789,26.189 47.642,12.423Z" clip-rule="nonzero"/>
        </clipPath>
        <g clip-path="url(#_clip6)">
            <path d="M55.134,0.961L13.201,42.198L13.493,68.122L55.134,68.122L55.134,0.961Z" style="fill:#2b307e;"/>
        </g>
        <g>
            <rect x="27.615" y="37.102" width="12.001" height="1.377" style="fill:#2b307e;fill-opacity:0.35;"/>
            <rect x="29.476" y="40.8" width="8.279" height="1.377" style="fill:#2b307e;fill-opacity:0.35;"/>
            <path id="Love" d="M29.282,17.096C29.194,17.096 29.106,17.096 29.018,17.096C27.389,17.184 25.804,18.158 24.835,19.618C23.955,20.99 23.734,22.628 24.263,24.044C24.879,25.726 26.42,27.231 27.785,28.558C28.093,28.868 28.402,29.178 28.666,29.443C29.634,30.417 30.603,31.346 31.528,32.232C32.056,32.718 32.585,33.249 33.113,33.781L33.685,34.356L34.302,33.825C36.063,32.32 37.824,30.638 39.541,28.824C39.717,28.647 39.894,28.425 40.114,28.248C41.391,26.921 43.02,25.283 43.372,23.292C43.636,21.654 43.24,20.061 42.271,18.91C41.347,17.804 39.982,17.184 38.485,17.184C38.397,17.184 38.352,17.184 38.264,17.184C35.887,17.273 34.478,18.468 33.641,19.53C32.849,18.424 31.396,17.096 29.282,17.096Z" style="fill:#f3775b;"/>
            <clipPath id="_clip7">
                <path d="M29.282,17.096C29.194,17.096 29.106,17.096 29.018,17.096C27.389,17.184 25.804,18.158 24.835,19.618C23.955,20.99 23.734,22.628 24.263,24.044C24.879,25.726 26.42,27.231 27.785,28.558C28.093,28.868 28.402,29.178 28.666,29.443C29.634,30.417 30.603,31.346 31.528,32.232C32.056,32.718 32.585,33.249 33.113,33.781L33.685,34.356L34.302,33.825C36.063,32.32 37.824,30.638 39.541,28.824C39.717,28.647 39.894,28.425 40.114,28.248C41.391,26.921 43.02,25.283 43.372,23.292C43.636,21.654 43.24,20.061 42.271,18.91C41.347,17.804 39.982,17.184 38.485,17.184C38.397,17.184 38.352,17.184 38.264,17.184C35.887,17.273 34.478,18.468 33.641,19.53C32.849,18.424 31.396,17.096 29.282,17.096Z"/>
            </clipPath>
            <g clip-path="url(#_clip7)">
                <path d="M23.979,26.992L30.21,26.992L31.768,21.539L33.715,30.302L36.052,23.097L37.221,26.602L43.452,26.602" style="fill:none;stroke:#fff;stroke-width:0.8px;"/>
            </g>
        </g>
        <circle cx="33.131" cy="8.297" r="1.286" style="fill:#fff;fill-opacity:0.254902;"/>
        <circle cx="33.131" cy="7.864" r="1.286" style="fill:#1c2053;"/>
        <path d="M34.683,45.991C34.177,46.14 33.774,46.525 33.604,47.024C33.433,47.524 33.516,48.075 33.826,48.501C34.589,49.593 35.759,50.727 37.291,50.881C41.631,51.316 43.251,49.07 43.251,49.07L48.683,52.745C48.683,52.745 47.136,58.519 49.849,61.084L57.655,60.074L57.609,57.5L57.478,50.179C57.478,50.179 56.278,48.035 55.277,46.244C54.423,44.717 52.999,43.591 51.316,43.113C49.29,42.538 46.531,41.755 44.677,41.228C43.493,40.892 42.219,41.195 41.313,42.028C39.956,43.268 37.642,45.042 34.683,45.991Z" style="fill:#f3775b;"/>
        <clipPath id="_clip8">
            <path d="M34.683,45.991C34.177,46.14 33.774,46.525 33.604,47.024C33.433,47.524 33.516,48.075 33.826,48.501C34.589,49.593 35.759,50.727 37.291,50.881C41.631,51.316 43.251,49.07 43.251,49.07L48.683,52.745C48.683,52.745 47.136,58.519 49.849,61.084L57.655,60.074L57.609,57.5L57.478,50.179C57.478,50.179 56.278,48.035 55.277,46.244C54.423,44.717 52.999,43.591 51.316,43.113C49.29,42.538 46.531,41.755 44.677,41.228C43.493,40.892 42.219,41.195 41.313,42.028C39.956,43.268 37.642,45.042 34.683,45.991Z"/>
        </clipPath>
        <g clip-path="url(#_clip8)">
            <path d="M33.912,46.146C33.912,46.146 36.119,45.781 37.647,44.139C38.796,44.047 39.702,44.459 40.434,45.232C40.434,45.232 38.143,48.758 33.912,46.146Z" style="fill:#f7a390;"/>
        </g>
        <path d="M15.717,46.426C17.919,46.457 19.686,48.256 19.677,50.458C19.677,50.52 19.677,50.581 19.676,50.643C19.672,51.715 19.239,52.741 18.475,53.492C17.71,54.243 16.676,54.657 15.605,54.643C15.401,54.64 15.2,54.637 15.002,54.634C13.442,54.613 12.19,53.338 12.196,51.778C12.2,50.962 12.203,50.07 12.206,49.251C12.209,48.492 12.516,47.765 13.058,47.233C13.599,46.701 14.331,46.407 15.091,46.418C15.296,46.421 15.506,46.424 15.717,46.426Z" style="fill:#f3775b;"/>
        <clipPath id="_clip9">
            <path d="M15.717,46.426C17.919,46.457 19.686,48.256 19.677,50.458C19.677,50.52 19.677,50.581 19.676,50.643C19.672,51.715 19.239,52.741 18.475,53.492C17.71,54.243 16.676,54.657 15.605,54.643C15.401,54.64 15.2,54.637 15.002,54.634C13.442,54.613 12.19,53.338 12.196,51.778C12.2,50.962 12.203,50.07 12.206,49.251C12.209,48.492 12.516,47.765 13.058,47.233C13.599,46.701 14.331,46.407 15.091,46.418C15.296,46.421 15.506,46.424 15.717,46.426Z"/>
        </clipPath>
        <g clip-path="url(#_clip9)">
            <path d="M20.523,48.232C20.523,48.232 18.138,48.232 16.208,48.232C14.877,48.232 13.798,49.311 13.798,50.642C13.798,50.643 13.798,50.645 13.798,50.646C13.798,51.977 14.877,53.056 16.208,53.056C18.138,53.056 20.523,53.056 20.523,53.056L20.523,48.232Z" style="fill:#f7a390;"/>
        </g>
    </g>
</svg>
