<?xml version="1.0" encoding="UTF-8" standalone="no"?>
<!DOCTYPE svg PUBLIC "-//W3C//DTD SVG 1.1//EN" "http://www.w3.org/Graphics/SVG/1.1/DTD/svg11.dtd">
<svg width="100%" height="100%" viewBox="0 0 64 64" version="1.1" xmlns="http://www.w3.org/2000/svg" xmlns:xlink="http://www.w3.org/1999/xlink" xml:space="preserve" xmlns:serif="http://www.serif.com/" style="fill-rule:evenodd;clip-rule:evenodd;stroke-linecap:round;stroke-linejoin:round;stroke-miterlimit:1.5;">
    <rect id="Smartphone-with-hands" x="0" y="0" width="64" height="64" style="fill:none;"/>
    <clipPath id="_clip1">
        <rect x="0" y="0" width="64" height="64"/>
    </clipPath>
    <g clip-path="url(#_clip1)">
        <path d="M70.293,20.257C68.54,19.18 66.245,19.729 65.169,21.483C65.168,21.484 65.168,21.485 65.167,21.485C64.09,23.239 64.639,25.533 66.393,26.61C70.981,29.427 78.921,34.302 78.921,34.302L82.822,27.949C82.822,27.949 74.882,23.074 70.293,20.257Z" style="fill:#f3775b;"/>
        <path d="M15.109,35.792C14.047,35.715 12.998,36.064 12.192,36.762C11.387,37.459 10.892,38.447 10.815,39.51C10.811,39.571 10.807,39.633 10.802,39.694C10.726,40.756 11.075,41.806 11.772,42.611C12.469,43.416 13.458,43.911 14.52,43.988C21.01,44.454 33.105,45.324 33.105,45.324L33.694,37.127C33.694,37.127 21.599,36.258 15.109,35.792Z" style="fill:#c06564;"/>
        <clipPath id="_clip2">
            <path d="M15.109,35.792C14.047,35.715 12.998,36.064 12.192,36.762C11.387,37.459 10.892,38.447 10.815,39.51C10.811,39.571 10.807,39.633 10.802,39.694C10.726,40.756 11.075,41.806 11.772,42.611C12.469,43.416 13.458,43.911 14.52,43.988C21.01,44.454 33.105,45.324 33.105,45.324L33.694,37.127C33.694,37.127 21.599,36.258 15.109,35.792Z"/>
        </clipPath>
        <g clip-path="url(#_clip2)">
            <path d="M12.82,35.704C15.017,35.863 16.675,37.762 16.538,39.961C16.534,40.022 16.53,40.083 16.526,40.145C16.459,41.215 15.967,42.213 15.16,42.918C14.352,43.624 13.296,43.977 12.227,43.899C12.025,43.885 11.823,43.87 11.626,43.856C10.07,43.743 8.895,42.398 8.992,40.84C9.043,40.026 9.099,39.136 9.15,38.318C9.198,37.56 9.546,36.853 10.118,36.353C10.69,35.854 11.438,35.604 12.195,35.659C12.401,35.673 12.61,35.689 12.82,35.704Z" style="fill:#f3775b;"/>
        </g>
        <path d="M13.51,25.847C12.455,25.697 11.384,25.972 10.532,26.612C9.681,27.252 9.118,28.203 8.968,29.258C8.959,29.319 8.951,29.38 8.942,29.441C8.792,30.495 9.067,31.566 9.707,32.418C10.346,33.27 11.298,33.833 12.353,33.983C18.25,34.821 28.628,36.297 28.628,36.297L29.785,28.162C29.785,28.162 19.407,26.686 13.51,25.847Z" style="fill:#c06564;"/>
        <clipPath id="_clip3">
            <path d="M13.51,25.847C12.455,25.697 11.384,25.972 10.532,26.612C9.681,27.252 9.118,28.203 8.968,29.258C8.959,29.319 8.951,29.38 8.942,29.441C8.792,30.495 9.067,31.566 9.707,32.418C10.346,33.27 11.298,33.833 12.353,33.983C18.25,34.821 28.628,36.297 28.628,36.297L29.785,28.162C29.785,28.162 19.407,26.686 13.51,25.847Z"/>
        </clipPath>
        <g clip-path="url(#_clip3)">
            <path d="M12.065,25.58C14.246,25.89 15.77,27.899 15.481,30.083C15.473,30.144 15.465,30.205 15.457,30.266C15.316,31.329 14.756,32.291 13.902,32.939C13.048,33.587 11.971,33.866 10.909,33.715C10.708,33.687 10.509,33.658 10.312,33.63C8.768,33.411 7.688,31.988 7.893,30.441C8,29.632 8.117,28.748 8.224,27.935C8.324,27.183 8.72,26.501 9.325,26.042C9.93,25.583 10.693,25.385 11.445,25.492C11.649,25.521 11.857,25.551 12.065,25.58Z" style="fill:#f3775b;"/>
        </g>
        <path d="M36.842,12.322C36.842,12.322 48.365,27.839 54.312,35.848C56.559,38.874 57.762,42.549 57.739,46.318C57.704,52.195 57.654,60.423 57.654,60.423L36.4,60.376L36.842,12.322Z" style="fill:#f3775b;"/>
        <clipPath id="_clip4">
            <path d="M36.842,12.322C36.842,12.322 48.365,27.839 54.312,35.848C56.559,38.874 57.762,42.549 57.739,46.318C57.704,52.195 57.654,60.423 57.654,60.423L36.4,60.376L36.842,12.322Z"/>
        </clipPath>
        <g clip-path="url(#_clip4)">
            <path d="M47.79,23.234L51.492,24.777C50.805,28.685 50.598,33.353 51.342,39.523C56.187,42.497 55.458,51.056 55.524,52.302L46.254,44.506L47.79,23.234Z" style="fill:#c06564;"/>
        </g>
        <rect x="18.742" y="8.861" width="29.032" height="47.375" style="fill:#fff;"/>
        <clipPath id="_clip5">
            <rect x="18.742" y="8.861" width="29.032" height="47.375"/>
        </clipPath>
        <g clip-path="url(#_clip5)">
            <path d="M34.365,47.137C33.901,47.292 33.533,47.649 33.362,48.107C33.192,48.566 33.238,49.077 33.488,49.497C34.132,50.638 35.173,51.883 36.558,52.045C40.29,52.48 41.682,50.235 41.682,50.235L45.481,51.926C45.481,51.926 45.022,59.683 47.355,62.248L54.826,62.259L54.713,50.952C54.713,50.952 53.258,48.704 52.14,46.977C51.322,45.713 50.096,44.766 48.666,44.294C47.095,43.775 44.991,43.08 43.413,42.559C42.121,42.133 40.699,42.484 39.754,43.463C38.572,44.672 36.705,46.251 34.365,47.137Z" style="fill:#cfd0e2;"/>
        </g>
        <path d="M18.058,5.647C18.887,4.708 20.074,4.081 21.385,4.032C29.07,3.937 36.756,3.937 44.441,4.032C46.804,4.12 48.871,6.127 48.961,8.552C49.082,18.345 49.053,28.139 49.014,37.932C48.99,43.898 48.962,49.863 48.962,55.829C48.933,58.236 46.906,60.372 44.441,60.464C36.795,60.558 29.147,60.465 21.5,60.465C19.093,60.435 16.957,58.408 16.865,55.944C16.669,40.186 16.863,24.426 16.863,8.667C16.877,7.576 17.301,6.54 17.991,5.725L17.991,5.647L18.058,5.647ZM47.019,11.704C47.011,10.985 46.426,10.406 45.706,10.406C40.995,10.406 24.83,10.406 20.12,10.406C19.4,10.406 18.815,10.985 18.807,11.704C18.66,25.471 18.661,39.239 18.809,53.006C18.817,53.725 19.403,54.304 20.122,54.304C24.832,54.304 40.994,54.304 45.704,54.304C46.423,54.304 47.009,53.725 47.016,53.006C47.165,39.239 47.165,25.471 47.019,11.704Z" style="fill:#636693;fill-rule:nonzero;"/>
        <clipPath id="_clip6">
            <path d="M18.058,5.647C18.887,4.708 20.074,4.081 21.385,4.032C29.07,3.937 36.756,3.937 44.441,4.032C46.804,4.12 48.871,6.127 48.961,8.552C49.082,18.345 49.053,28.139 49.014,37.932C48.99,43.898 48.962,49.863 48.962,55.829C48.933,58.236 46.906,60.372 44.441,60.464C36.795,60.558 29.147,60.465 21.5,60.465C19.093,60.435 16.957,58.408 16.865,55.944C16.669,40.186 16.863,24.426 16.863,8.667C16.877,7.576 17.301,6.54 17.991,5.725L17.991,5.647L18.058,5.647ZM47.019,11.704C47.011,10.985 46.426,10.406 45.706,10.406C40.995,10.406 24.83,10.406 20.12,10.406C19.4,10.406 18.815,10.985 18.807,11.704C18.66,25.471 18.661,39.239 18.809,53.006C18.817,53.725 19.403,54.304 20.122,54.304C24.832,54.304 40.994,54.304 45.704,54.304C46.423,54.304 47.009,53.725 47.016,53.006C47.165,39.239 47.165,25.471 47.019,11.704Z" clip-rule="nonzero"/>
        </clipPath>
        <g clip-path="url(#_clip6)">
            <path d="M54.51,0.243L12.578,41.48L12.869,67.404L54.51,67.404L54.51,0.243Z" style="fill:#2b307e;"/>
        </g>
        <g>
            <rect x="26.992" y="36.384" width="12.001" height="1.377" style="fill:#2b307e;fill-opacity:0.35;"/>
            <rect x="28.853" y="40.082" width="8.279" height="1.377" style="fill:#2b307e;fill-opacity:0.35;"/>
            <path id="Love" d="M28.659,16.378C28.571,16.378 28.483,16.378 28.394,16.378C26.765,16.466 25.18,17.44 24.212,18.9C23.331,20.272 23.111,21.91 23.639,23.326C24.256,25.008 25.797,26.512 27.162,27.84C27.47,28.15 27.778,28.46 28.042,28.725C29.011,29.699 29.98,30.628 30.904,31.513C31.433,32 31.961,32.531 32.489,33.062L33.062,33.638L33.678,33.107C35.439,31.602 37.201,29.92 38.918,28.106C39.094,27.928 39.27,27.707 39.49,27.53C40.767,26.202 42.396,24.565 42.748,22.573C43.013,20.936 42.616,19.343 41.648,18.192C40.723,17.086 39.358,16.466 37.861,16.466C37.773,16.466 37.729,16.466 37.641,16.466C35.263,16.555 33.854,17.75 33.018,18.812C32.225,17.705 30.772,16.378 28.659,16.378Z" style="fill:#f3775b;"/>
            <clipPath id="_clip7">
                <path d="M28.659,16.378C28.571,16.378 28.483,16.378 28.394,16.378C26.765,16.466 25.18,17.44 24.212,18.9C23.331,20.272 23.111,21.91 23.639,23.326C24.256,25.008 25.797,26.512 27.162,27.84C27.47,28.15 27.778,28.46 28.042,28.725C29.011,29.699 29.98,30.628 30.904,31.513C31.433,32 31.961,32.531 32.489,33.062L33.062,33.638L33.678,33.107C35.439,31.602 37.201,29.92 38.918,28.106C39.094,27.928 39.27,27.707 39.49,27.53C40.767,26.202 42.396,24.565 42.748,22.573C43.013,20.936 42.616,19.343 41.648,18.192C40.723,17.086 39.358,16.466 37.861,16.466C37.773,16.466 37.729,16.466 37.641,16.466C35.263,16.555 33.854,17.75 33.018,18.812C32.225,17.705 30.772,16.378 28.659,16.378Z"/>
            </clipPath>
            <g clip-path="url(#_clip7)">
                <path d="M23.356,26.273L29.587,26.273L31.145,20.821L33.092,29.584L35.429,22.379L36.597,25.884L42.828,25.884" style="fill:none;stroke:#fff;stroke-width:0.8px;"/>
            </g>
        </g>
        <circle cx="32.507" cy="7.579" r="1.286" style="fill:#fff;fill-opacity:0.254902;"/>
        <circle cx="32.507" cy="7.146" r="1.286" style="fill:#1c2053;"/>
        <path d="M34.059,45.273C33.553,45.421 33.15,45.807 32.98,46.306C32.81,46.805 32.893,47.356 33.203,47.783C33.965,48.875 35.136,50.009 36.667,50.162C41.008,50.598 42.627,48.352 42.627,48.352L48.06,52.027C48.06,52.027 46.512,57.8 49.225,60.366L57.032,59.355L56.986,56.782L56.854,49.461C56.854,49.461 55.655,47.316 54.654,45.526C53.8,43.999 52.375,42.873 50.692,42.395C48.667,41.82 45.908,41.036 44.054,40.51C42.87,40.174 41.596,40.476 40.69,41.309C39.333,42.55 37.018,44.323 34.059,45.273Z" style="fill:#f3775b;"/>
        <clipPath id="_clip8">
            <path d="M34.059,45.273C33.553,45.421 33.15,45.807 32.98,46.306C32.81,46.805 32.893,47.356 33.203,47.783C33.965,48.875 35.136,50.009 36.667,50.162C41.008,50.598 42.627,48.352 42.627,48.352L48.06,52.027C48.06,52.027 46.512,57.8 49.225,60.366L57.032,59.355L56.986,56.782L56.854,49.461C56.854,49.461 55.655,47.316 54.654,45.526C53.8,43.999 52.375,42.873 50.692,42.395C48.667,41.82 45.908,41.036 44.054,40.51C42.87,40.174 41.596,40.476 40.69,41.309C39.333,42.55 37.018,44.323 34.059,45.273Z"/>
        </clipPath>
        <g clip-path="url(#_clip8)">
            <path d="M33.289,45.428C33.289,45.428 35.495,45.063 37.023,43.421C38.172,43.329 39.078,43.74 39.81,44.514C39.81,44.514 37.519,48.04 33.289,45.428Z" style="fill:#f7a390;"/>
        </g>
        <path d="M15.093,45.708C17.295,45.739 19.062,47.538 19.054,49.74C19.053,49.802 19.053,49.863 19.053,49.925C19.048,50.997 18.616,52.022 17.851,52.774C17.086,53.525 16.053,53.939 14.981,53.924C14.778,53.921 14.576,53.919 14.378,53.916C12.818,53.894 11.566,52.62 11.573,51.06C11.576,50.244 11.58,49.352 11.583,48.533C11.586,47.773 11.892,47.047 12.434,46.515C12.976,45.982 13.708,45.689 14.467,45.7C14.673,45.702 14.882,45.705 15.093,45.708Z" style="fill:#f3775b;"/>
        <clipPath id="_clip9">
            <path d="M15.093,45.708C17.295,45.739 19.062,47.538 19.054,49.74C19.053,49.802 19.053,49.863 19.053,49.925C19.048,50.997 18.616,52.022 17.851,52.774C17.086,53.525 16.053,53.939 14.981,53.924C14.778,53.921 14.576,53.919 14.378,53.916C12.818,53.894 11.566,52.62 11.573,51.06C11.576,50.244 11.58,49.352 11.583,48.533C11.586,47.773 11.892,47.047 12.434,46.515C12.976,45.982 13.708,45.689 14.467,45.7C14.673,45.702 14.882,45.705 15.093,45.708Z"/>
        </clipPath>
        <g clip-path="url(#_clip9)">
            <path d="M19.9,47.514C19.9,47.514 17.514,47.514 15.585,47.514C14.254,47.514 13.175,48.593 13.175,49.924C13.175,49.925 13.175,49.927 13.175,49.928C13.175,51.259 14.254,52.338 15.585,52.338C17.514,52.338 19.9,52.338 19.9,52.338L19.9,47.514Z" style="fill:#f7a390;"/>
        </g>
    </g>
</svg>
