<?xml version="1.0" encoding="UTF-8" standalone="no"?>
<!DOCTYPE svg PUBLIC "-//W3C//DTD SVG 1.1//EN" "http://www.w3.org/Graphics/SVG/1.1/DTD/svg11.dtd">
<svg width="100%" height="100%" viewBox="0 0 65 64" version="1.1" xmlns="http://www.w3.org/2000/svg" xmlns:xlink="http://www.w3.org/1999/xlink" xml:space="preserve" xmlns:serif="http://www.serif.com/" style="fill-rule:evenodd;clip-rule:evenodd;stroke-linejoin:round;stroke-miterlimit:2;">
    <rect id="Sub-centre-1" x="0.738" y="0" width="64" height="64" style="fill:none;"/>
    <rect x="2.484" y="21.116" width="60.509" height="1.808" style="fill:#f3775b;"/>
    <rect x="3.269" y="23.796" width="58.938" height="25.337" style="fill:#cecfeb;"/>
    <rect x="3.269" y="23.796" width="58.938" height="1.497" style="fill:#63679d;fill-opacity:0.38;"/>
    <g>
        <g>
            <rect x="7.172" y="33.249" width="3.821" height="6.661" style="fill:#2b307e;"/>
        </g>
        <g>
            <rect x="12.049" y="33.249" width="3.821" height="6.661" style="fill:#2b307e;"/>
        </g>
    </g>
    <g>
        <g>
            <rect x="55.379" y="33.249" width="3.821" height="6.661" style="fill:#2b307e;"/>
        </g>
    </g>
    <rect x="20.832" y="33.252" width="9.351" height="15.877" style="fill:#2b307e;"/>
    <rect x="44.059" y="33.252" width="9.351" height="15.877" style="fill:#2b307e;"/>
    <rect x="2.307" y="49.936" width="28.095" height="1.808" style="fill:#f3775b;"/>
    <rect x="43.286" y="49.936" width="18.751" height="1.808" style="fill:#f3775b;"/>
    <rect x="2.307" y="52.504" width="28.095" height="1.808" style="fill:#f3775b;"/>
    <path d="M61.957,52.504L40.686,52.504L32.027,54.311L61.957,54.311L61.957,52.504Z" style="fill:#f3775b;"/>
</svg>
