<?xml version="1.0" encoding="UTF-8" standalone="no"?>
<!DOCTYPE svg PUBLIC "-//W3C//DTD SVG 1.1//EN" "http://www.w3.org/Graphics/SVG/1.1/DTD/svg11.dtd">
<svg width="100%" height="100%" viewBox="0 0 64 64" version="1.1" xmlns="http://www.w3.org/2000/svg" xmlns:xlink="http://www.w3.org/1999/xlink" xml:space="preserve" xmlns:serif="http://www.serif.com/" style="fill-rule:evenodd;clip-rule:evenodd;stroke-linejoin:round;stroke-miterlimit:1.41421;">
    <rect id="Sun-Yellow" x="0" y="0" width="64" height="64" style="fill:none;"/>
    <path d="M33.5,51.944L33.5,59.426C33.452,60.252 32.668,60.866 31.898,60.874L31.885,60.874C31.558,60.875 31.234,60.766 30.971,60.517C30.692,60.254 30.537,60.07 30.5,59.426L30.5,51.944C30.995,51.981 31.495,52 32,52C32.505,52 33.005,51.981 33.5,51.944ZM43.093,48.64L46.799,55.059C47.531,56.502 45.325,58.283 44.201,56.559L40.481,50.115C41.391,49.688 42.264,49.194 43.093,48.64ZM20.907,48.64C21.736,49.194 22.609,49.688 23.519,50.115L19.799,56.559C18.915,57.915 16.27,56.895 17.201,55.059L20.907,48.64ZM49.86,41.005L56.133,44.627C56.972,45.175 56.896,45.575 56.882,45.98C56.845,47 55.618,47.725 54.633,47.225L48.308,43.574C48.887,42.761 49.406,41.902 49.86,41.005ZM14.14,41.005C14.594,41.902 15.113,42.761 15.692,43.574L9.367,47.225C7.945,47.947 6.039,45.819 7.867,44.627L14.14,41.005ZM51.972,30.926L59,30.926L59.174,30.936C60.712,31.207 60.955,33.812 59,33.926L51.908,33.926C51.969,33.292 52,32.65 52,32C52,31.64 51.99,31.282 51.972,30.926ZM12.028,30.926C12.01,31.282 12,31.64 12,32C12,32.65 12.031,33.292 12.092,33.926L5,33.926C2.654,33.79 3.285,32.058 3.909,31.397C4.188,31.101 4.585,30.95 5,30.926L12.028,30.926ZM48.726,21.037L54.633,17.627C55.165,17.357 54.965,17.394 55.572,17.438C56.831,17.668 57.296,19.467 56.133,20.225L50.181,23.661C49.761,22.747 49.274,21.871 48.726,21.037ZM13.819,23.661L7.867,20.225C6.708,19.469 7.161,17.375 8.753,17.432C9.038,17.474 9.11,17.497 9.367,17.627L15.274,21.037C14.726,21.871 14.239,22.747 13.819,23.661ZM40.866,14.07L44.201,8.293C44.676,7.565 44.802,7.476 45.716,7.559C46.706,7.758 47.261,8.883 46.799,9.793L43.446,15.601C42.628,15.029 41.766,14.517 40.866,14.07ZM20.554,15.601L17.201,9.793C16.699,8.803 17.378,7.525 18.608,7.547C19.356,7.642 19.411,7.699 19.799,8.293L23.134,14.07C22.234,14.517 21.372,15.029 20.554,15.601ZM30.5,12.056L30.5,5.426C30.548,4.605 31.196,3.937 32.061,3.937L32.072,3.937C32.134,3.938 32.197,3.941 32.26,3.949C32.959,4.115 33.443,4.455 33.5,5.426L33.5,12.056C33.005,12.019 32.505,12 32,12C31.495,12 30.995,12.019 30.5,12.056Z" style="fill:#f2c84c;fill-opacity:0.74902;fill-rule:nonzero;"/>
    <circle cx="32" cy="32" r="16" style="fill:#f2c84c;"/>
</svg>
