<?xml version="1.0" encoding="UTF-8" standalone="no"?>
<!DOCTYPE svg PUBLIC "-//W3C//DTD SVG 1.1//EN" "http://www.w3.org/Graphics/SVG/1.1/DTD/svg11.dtd">
<svg width="100%" height="100%" viewBox="0 0 65 64" version="1.1" xmlns="http://www.w3.org/2000/svg" xmlns:xlink="http://www.w3.org/1999/xlink" xml:space="preserve" xmlns:serif="http://www.serif.com/" style="fill-rule:evenodd;clip-rule:evenodd;">
    <rect id="Supermarket" x="0.877" y="0" width="64" height="64" style="fill:none;"/>
    <path id="abandonedcart-a" d="M12.886,20.31L58.845,26.31L56.358,41.277C56.024,43.29 54.096,44.922 52.062,44.922L16.901,44.922L12.886,20.31Z" style="fill:#f3775b;"/>
    <g>
        <g opacity="0.723126">
            <path d="M57.8,29.967L15.427,27.328L15.35,28.556L57.723,31.195L57.8,29.967Z" style="fill:#fff;"/>
            <path d="M57.811,34.089L15.37,32.997L15.339,34.227L57.78,35.319L57.811,34.089Z" style="fill:#fff;"/>
            <path d="M57.809,38.702L15.357,38.173L15.341,39.403L57.793,39.932L57.809,38.702Z" style="fill:#fff;"/>
            <rect x="35.037" y="22.156" width="1.231" height="20.92" style="fill:#fff;"/>
            <rect x="30.114" y="22.156" width="1.231" height="20.92" style="fill:#fff;"/>
            <path d="M24.577,22.156L25.807,22.156L26.423,43.076L25.192,43.076L24.577,22.156Z" style="fill:#fff;"/>
            <path d="M52.265,22.156L53.496,22.156L51.034,43.076L49.804,43.076L52.265,22.156Z" style="fill:#fff;"/>
            <path d="M18.424,22.156L19.654,22.156L21.5,43.076L20.27,43.076L18.424,22.156Z" style="fill:#fff;"/>
            <path d="M46.112,22.156L47.343,22.156L46.112,43.076L44.881,43.076L46.112,22.156Z" style="fill:#fff;"/>
            <rect x="39.959" y="22.156" width="1.231" height="20.92" style="fill:#fff;"/>
        </g>
    </g>
    <path d="M57.623,24.941C58.078,24.993 58.492,25.23 58.768,25.595C59.044,25.961 59.158,26.424 59.083,26.876C58.388,31.056 56.68,41.339 56.68,41.339C56.558,42.018 56.458,42.212 56.252,42.612C55.463,44.146 53.814,45.227 52.071,45.249L16.615,45.249L12.648,19.805C27.64,21.517 42.631,23.229 57.623,24.941ZM18.756,42.749C29.886,42.749 41.025,43.179 52.147,42.747C53.143,42.684 54.04,41.893 54.216,40.913L56.474,27.326L15.624,22.661C16.668,29.357 17.712,36.053 18.756,42.749Z" style="fill:#aaacdd;fill-rule:nonzero;"/>
    <path d="M4.964,11.91L5.113,11.928C10.372,12.849 13.676,12.926 14.402,16.28C16.343,26.828 17.762,37.486 19.649,48.011C19.866,49.082 20.885,49.935 21.996,49.949L52.117,49.949C53.023,50.004 53.146,50.39 53.285,50.756C53.571,51.508 52.982,52.397 52.117,52.449L21.98,52.449C19.72,52.42 17.644,50.702 17.193,48.481C15.307,37.958 14.214,27.232 11.946,16.749C11.764,16.027 10.942,15.527 10.114,15.389L4.662,14.387C3.43,14.083 3.167,11.909 4.964,11.91Z" style="fill:#aaacdd;fill-rule:nonzero;"/>
    <clipPath id="_clip1">
        <path d="M4.964,11.91L5.113,11.928C10.372,12.849 13.676,12.926 14.402,16.28C16.343,26.828 17.762,37.486 19.649,48.011C19.866,49.082 20.885,49.935 21.996,49.949L52.117,49.949C53.023,50.004 53.146,50.39 53.285,50.756C53.571,51.508 52.982,52.397 52.117,52.449L21.98,52.449C19.72,52.42 17.644,50.702 17.193,48.481C15.307,37.958 14.214,27.232 11.946,16.749C11.764,16.027 10.942,15.527 10.114,15.389L4.662,14.387C3.43,14.083 3.167,11.909 4.964,11.91Z" clip-rule="nonzero"/>
    </clipPath>
    <g clip-path="url(#_clip1)">
        <path d="M12.487,10.074L2.62,8.452L1.266,16.692L11.133,18.314L12.487,10.074Z" style="fill:#f3775b;"/>
    </g>
    <circle id="abandonedcart-b" cx="25.192" cy="54.921" r="4.307" style="fill:#b0eafd;"/>
    <circle cx="25.192" cy="54.921" r="3.384" style="fill:none;stroke:#2b307e;stroke-width:1.85px;"/>
    <circle id="abandonedcart-c" cx="46.727" cy="54.921" r="4.307" style="fill:#b0eafd;"/>
    <circle cx="46.727" cy="54.921" r="3.384" style="fill:none;stroke:#2b307e;stroke-width:1.85px;"/>
    <path d="M15.611,21.013L57.46,25.714" style="fill:none;stroke:#fff;stroke-opacity:0.701961;stroke-width:0.5px;stroke-linecap:round;stroke-linejoin:round;stroke-miterlimit:1;"/>
    <path d="M4.614,12.653C4.614,12.653 8.204,13.373 10.726,13.878C12.182,14.17 13.306,15.331 13.551,16.796C13.698,17.674 13.828,18.453 13.828,18.453" style="fill:none;stroke:#fff;stroke-opacity:0.701961;stroke-width:0.5px;stroke-linecap:round;stroke-linejoin:round;stroke-miterlimit:1;"/>
</svg>
