<?xml version="1.0" encoding="UTF-8" standalone="no"?>
<!DOCTYPE svg PUBLIC "-//W3C//DTD SVG 1.1//EN" "http://www.w3.org/Graphics/SVG/1.1/DTD/svg11.dtd">
<svg width="100%" height="100%" viewBox="0 0 64 65" version="1.1" xmlns="http://www.w3.org/2000/svg" xmlns:xlink="http://www.w3.org/1999/xlink" xml:space="preserve" xmlns:serif="http://www.serif.com/" style="fill-rule:evenodd;clip-rule:evenodd;stroke-linecap:round;stroke-miterlimit:1;">
    <rect id="Surveillance" x="0" y="0.961" width="64" height="64" style="fill:none;"/>
    <path d="M6.295,58.961L12,20.274L50,18.961L56,60.961L41.704,58.961L22,60.961L6.295,58.961Z" style="fill:#cecfeb;"/>
    <path d="M9.283,7.074L3.292,53.78L21.836,60.847L23.932,11.423L9.283,7.074Z" style="fill:#f3775b;fill-rule:nonzero;"/>
    <path d="M38.95,7.074L23.932,11.423L21.836,60.847L40.98,53.78L38.95,7.074Z" style="fill:#f3775b;fill-rule:nonzero;"/>
    <path d="M38.772,7.074L40.753,53.78L60.322,59.432L57.079,34.147L54.052,10.557L38.772,7.074Z" style="fill:#f3775b;fill-rule:nonzero;"/>
    <path d="M9.283,7.074L3.292,53.78L21.836,60.847L23.932,11.423L9.283,7.074Z" style="fill:#2b307e;fill-opacity:0.227451;fill-rule:nonzero;"/>
    <path d="M38.772,7.074L40.753,53.78L60.322,59.432L57.079,34.147L54.052,10.557L38.772,7.074Z" style="fill:#2b307e;fill-opacity:0.227451;fill-rule:nonzero;"/>
    <path d="M45.586,30.628L39.947,30.016L32,34.628L26.805,29.128L29.85,25.074" style="fill:none;stroke:#fff;stroke-opacity:0.878431;stroke-width:1.5px;stroke-dasharray:3,3,0,0;"/>
    <path d="M30.086,35.628L29.032,40.961L22.703,40.408L16.446,38.705L15.018,43.15" style="fill:none;stroke:#fff;stroke-opacity:0.878431;stroke-width:1.5px;stroke-dasharray:3,3,0,0;"/>
    <path d="M12,10.961L9.521,32.365C9.521,32.365 16.88,34.438 19.552,28.83C22.225,23.222 22.894,18.909 26.853,18.094C34.657,16.488 34.513,11.232 34.513,11.232L23.956,14.342L12,10.961Z" style="fill:#2b307e;"/>
    <clipPath id="_clip1">
        <path d="M12,10.961L9.521,32.365C9.521,32.365 16.88,34.438 19.552,28.83C22.225,23.222 22.894,18.909 26.853,18.094C34.657,16.488 34.513,11.232 34.513,11.232L23.956,14.342L12,10.961Z"/>
    </clipPath>
    <g clip-path="url(#_clip1)">
        <path d="M24.331,7.011L22.965,30.848L37.483,21.689L37.064,4.373L24.331,7.011Z" style="fill:#aaacdd;fill-opacity:0.662745;"/>
    </g>
    <path d="M57.944,55.888L40.591,51.242L26.267,56.575C26.267,56.575 27.597,44.568 34.877,45.629C39.24,46.265 40.457,45.056 40.457,45.056C40.457,45.056 44.51,47.585 45.928,47.043C51.826,44.79 56.233,48.457 57.944,55.888Z" style="fill:#2b307e;"/>
    <clipPath id="_clip2">
        <path d="M57.944,55.888L40.591,51.242L26.267,56.575C26.267,56.575 27.597,44.568 34.877,45.629C39.24,46.265 40.457,45.056 40.457,45.056C40.457,45.056 44.51,47.585 45.928,47.043C51.826,44.79 56.233,48.457 57.944,55.888Z"/>
    </clipPath>
    <g clip-path="url(#_clip2)">
        <path d="M40.154,38.251L40.927,55.47L23.487,63.767L23.577,44.728L40.154,38.251Z" style="fill:#7f82bd;"/>
    </g>
    <path d="M50.001,29.247C51.459,28.825 53.017,29.773 53.477,31.363C53.938,32.954 53.128,34.588 51.671,35.01C50.213,35.432 48.655,34.484 48.194,32.894C47.734,31.303 48.543,29.669 50.001,29.247Z" style="fill:none;stroke:#ededf8;stroke-width:1.43px;"/>
    <path d="M10.875,42.515C12.229,42.247 13.589,43.348 13.911,44.972C14.233,46.596 13.396,48.132 12.043,48.401C10.689,48.669 9.329,47.568 9.007,45.944C8.685,44.32 9.522,42.784 10.875,42.515Z" style="fill:none;stroke:#ededf8;stroke-width:1.36px;"/>
    <path d="M29.85,19.259C30.713,17.846 32.377,17.287 33.563,18.011C34.75,18.735 35.013,20.471 34.15,21.884C33.287,23.297 31.623,23.856 30.437,23.132C29.25,22.408 28.987,20.672 29.85,19.259Z" style="fill:none;stroke:#fff;stroke-width:1.41px;"/>
</svg>
