<?xml version="1.0" encoding="UTF-8" standalone="no"?>
<!DOCTYPE svg PUBLIC "-//W3C//DTD SVG 1.1//EN" "http://www.w3.org/Graphics/SVG/1.1/DTD/svg11.dtd">
<svg width="100%" height="100%" viewBox="0 0 65 64" version="1.1" xmlns="http://www.w3.org/2000/svg" xmlns:xlink="http://www.w3.org/1999/xlink" xml:space="preserve" xmlns:serif="http://www.serif.com/" style="fill-rule:evenodd;clip-rule:evenodd;stroke-linejoin:round;stroke-miterlimit:2;">
    <rect id="Systolic" x="0.738" y="0" width="64" height="64" style="fill:none;"/>
    <g>
        <g>
            <path id="Love" d="M20.217,7.626L19.471,7.626C14.87,7.876 10.393,10.626 7.658,14.751C5.17,18.626 4.549,23.25 6.041,27.25C7.782,32 12.134,36.25 15.989,40C16.86,40.875 17.73,41.75 18.476,42.499C21.212,45.249 23.948,47.874 26.56,50.374C28.052,51.749 29.544,53.249 31.036,54.749L32.653,56.374L34.394,54.874C39.368,50.624 44.342,45.874 49.192,40.75C49.69,40.25 50.187,39.625 50.809,39.125C54.415,35.375 59.016,30.75 60.011,25.125C60.757,20.501 59.638,16.001 56.902,12.751C54.291,9.626 50.436,7.876 46.208,7.876L45.586,7.876C38.871,8.126 34.891,11.501 32.529,14.501C30.29,11.376 26.186,7.626 20.217,7.626Z" style="fill:#f3775b;"/>
        </g>
        <path d="M31.87,46.872L28.247,43.645L26.686,45.398L33.051,51.069L39.417,45.398L37.855,43.645L34.233,46.872L34.233,33.892L31.87,33.892L31.87,46.872Z" style="fill:#fff;"/>
        <path d="M52.663,18.898L51.672,23.689L53.989,24.168L55.732,15.751L47.571,13.051L46.828,15.298L51.472,16.835L40.137,23.379L41.329,25.443L52.663,18.898Z" style="fill:#fff;"/>
        <path d="M13.269,18.865L14.25,23.605L11.957,24.08L10.233,15.751L18.308,13.08L19.043,15.303L14.448,16.823L25.663,23.298L24.484,25.34L13.269,18.865Z" style="fill:#fff;"/>
    </g>
</svg>
