<?xml version="1.0" encoding="UTF-8" standalone="no"?>
<!DOCTYPE svg PUBLIC "-//W3C//DTD SVG 1.1//EN" "http://www.w3.org/Graphics/SVG/1.1/DTD/svg11.dtd">
<svg width="100%" height="100%" viewBox="0 0 65 65" version="1.1" xmlns="http://www.w3.org/2000/svg" xmlns:xlink="http://www.w3.org/1999/xlink" xml:space="preserve" xmlns:serif="http://www.serif.com/" style="fill-rule:evenodd;clip-rule:evenodd;stroke-linejoin:round;stroke-miterlimit:2;">
    <rect id="Trans-fats-1" x="0.738" y="0.458" width="64" height="64" style="fill:none;"/>
    <path d="M5.336,35.171L7.091,37.862L6.161,44.652L3.705,47.076L1.988,46.816L3.619,34.911L5.336,35.171Z" style="fill:#2c327e;"/>
    <clipPath id="_clip1">
        <path d="M5.336,35.171L7.091,37.862L6.161,44.652L3.705,47.076L1.988,46.816L3.619,34.911L5.336,35.171Z"/>
    </clipPath>
    <g clip-path="url(#_clip1)">
        <path d="M39.453,43.572L40.234,37.879L-10.537,30.916L-11.317,36.608L39.453,43.572Z" style="fill:#adacd6;fill-opacity:0.82;"/>
    </g>
    <g>
        <g>
            <path d="M34.295,46.377C49.193,46.377 63.492,48.227 63.492,50.506C63.492,52.785 61.037,54.636 46.138,54.636C14.654,54.636 2.744,48.729 2.744,46.45C2.744,44.171 19.396,46.377 34.295,46.377Z" style="fill:#b5b8e2;fill-opacity:0.18;"/>
            <path d="M60.275,7.196L32.002,7.196C34.116,21.662 34.12,35.948 32.002,50.053L60.275,50.053C58.068,36.081 57.99,21.796 60.275,7.196Z" style="fill:#f1765a;"/>
            <clipPath id="_clip2">
                <path d="M60.275,7.196L32.002,7.196C34.116,21.662 34.12,35.948 32.002,50.053L60.275,50.053C58.068,36.081 57.99,21.796 60.275,7.196Z"/>
            </clipPath>
            <g clip-path="url(#_clip2)">
                <rect x="28.031" y="3.543" width="38.566" height="5.457" style="fill:#a35f47;fill-opacity:0.76;"/>
                <rect x="28.031" y="48.842" width="38.566" height="5.457" style="fill:#f6ac9b;fill-opacity:0.76;"/>
                <path id="_-Curve-" serif:id="(Curve)" d="M33.171,49.115C33.171,49.115 37.598,44.486 46.138,44.486C54.678,44.486 59.463,48.611 59.463,48.611C59.463,48.611 51.868,47.031 46.138,47.031C40.408,47.031 36.032,48.086 33.171,49.115Z" style="fill:#a35f47;"/>
                <circle cx="46.317" cy="23.02" r="10.468" style="fill:#ececf6;"/>
                <path d="M33.171,9.642C33.171,9.642 37.727,15.818 46.267,15.818C54.807,15.818 59.463,9.286 59.463,9.286C59.463,9.286 51.868,12.656 46.138,12.656C40.408,12.656 36.032,11.043 33.171,9.642Z" style="fill:#fff;fill-opacity:0.39;"/>
                <path d="M35.3,15.46C35.3,15.46 33.967,26.155 46.317,28.103C46.317,28.103 37.887,23.3 35.3,15.46Z" style="fill:#fff;fill-opacity:0.39;"/>
                <path d="M57.923,30.17C57.923,30.17 59.255,40.864 46.906,42.812C46.906,42.812 55.336,38.01 57.923,30.17Z" style="fill:#a35f47;fill-opacity:0.39;"/>
                <path d="M46.463,56.133L10.431,51.191C8.61,50.941 7.521,47.9 8.001,44.404C8.48,40.907 10.348,38.271 12.168,38.521L48.201,43.464C48.781,43.543 49.236,44.171 49.522,45.148L50.718,43.968L52.435,44.228L50.805,56.133L49.087,55.873L48.305,54.674C47.738,55.659 47.085,56.219 46.463,56.133Z" style="fill:#2c327e;fill-opacity:0.21;"/>
            </g>
        </g>
    </g>
    <path d="M43.295,22.342C45.375,22.342 49.854,19.335 49.854,20.644C49.854,21.953 48.332,26.759 43.984,27.225C41.951,27.443 38.478,25.487 39.186,22.482C39.275,22.101 41.216,22.342 43.295,22.342Z" style="fill:#b6654c;"/>
    <path d="M47.897,20.644C51.643,18.177 51.692,17.241 51.978,17.442C53.803,18.73 55.71,22.906 51.534,25.43C47.48,27.879 39.857,23.913 39.219,22.57C38.725,21.527 43.793,23.347 47.897,20.644Z" style="fill:#f1765a;"/>
    <path d="M7.083,48.174C5.262,47.924 4.173,44.882 4.653,41.386C5.132,37.89 7,35.254 8.82,35.504C8.82,35.504 44.853,40.446 44.853,40.446L43.115,53.116L7.083,48.174Z" style="fill:#2c327e;"/>
    <clipPath id="_clip3">
        <path d="M7.083,48.174C5.262,47.924 4.173,44.882 4.653,41.386C5.132,37.89 7,35.254 8.82,35.504C8.82,35.504 44.853,40.446 44.853,40.446L43.115,53.116L7.083,48.174Z"/>
    </clipPath>
    <g clip-path="url(#_clip3)">
        <path d="M48.564,46.053L49.345,40.36L-1.425,33.396L-2.206,39.089L48.564,46.053Z" style="fill:#928fc0;"/>
        <g>
            <path d="M22.447,38.884C18.319,39.792 15.469,42.815 16.089,45.63C16.708,48.445 20.563,49.993 24.692,49.084C28.821,48.176 31.67,45.153 31.05,42.338C30.431,39.523 26.576,37.975 22.447,38.884Z" style="fill:#9d7e3d;"/>
            <clipPath id="_clip4">
                <path d="M22.447,38.884C18.319,39.792 15.469,42.815 16.089,45.63C16.708,48.445 20.563,49.993 24.692,49.084C28.821,48.176 31.67,45.153 31.05,42.338C30.431,39.523 26.576,37.975 22.447,38.884Z"/>
            </clipPath>
            <g clip-path="url(#_clip4)">
                <path d="M22.118,37.385C18.353,38.214 15.8,41.171 16.419,43.986C17.039,46.801 20.598,48.415 24.362,47.586C28.127,46.758 30.68,43.8 30.061,40.985C29.441,38.17 25.882,36.557 22.118,37.385Z" style="fill:#f1765a;"/>
                <path d="M48.564,46.053L49.345,40.36L-1.425,33.396L-2.206,39.089L48.564,46.053Z" style="fill:#fff;fill-opacity:0.44;"/>
            </g>
            <g>
                <path d="M26.596,43.108C26.604,42.921 26.763,42.777 26.949,42.786C27.215,42.799 27.584,42.816 27.849,42.828C28.036,42.837 28.18,42.995 28.171,43.182C28.171,43.182 28.171,43.182 28.171,43.182C28.162,43.368 28.004,43.513 27.818,43.504C27.552,43.491 27.183,43.474 26.917,43.461C26.731,43.453 26.587,43.294 26.596,43.108C26.596,43.108 26.596,43.108 26.596,43.108Z" style="fill:#24245b;fill-opacity:0.67;"/>
                <path d="M17.644,43.496C17.511,43.365 17.51,43.151 17.642,43.018C17.77,42.888 17.929,42.729 18.057,42.599C18.189,42.466 18.403,42.465 18.535,42.597C18.535,42.597 18.535,42.597 18.535,42.597C18.668,42.728 18.669,42.942 18.537,43.075C18.409,43.205 18.25,43.364 18.122,43.494C17.99,43.627 17.776,43.627 17.644,43.496C17.644,43.496 17.644,43.496 17.644,43.496Z" style="fill:#24245b;fill-opacity:0.67;"/>
                <path d="M21.902,41.38C21.886,41.194 22.023,41.03 22.209,41.014C22.391,40.998 22.615,40.978 22.797,40.962C22.983,40.946 23.147,41.083 23.163,41.269C23.163,41.269 23.163,41.269 23.163,41.269C23.179,41.455 23.042,41.619 22.856,41.635C22.674,41.651 22.45,41.671 22.268,41.687C22.082,41.703 21.918,41.566 21.902,41.38C21.902,41.38 21.902,41.38 21.902,41.38Z" style="fill:#24245b;fill-opacity:0.67;"/>
                <path d="M22.331,43.387C22.325,43.323 22.345,43.26 22.386,43.211C22.427,43.163 22.485,43.132 22.549,43.127C22.709,43.112 22.92,43.094 23.08,43.08C23.144,43.074 23.207,43.094 23.256,43.135C23.304,43.176 23.335,43.234 23.34,43.298C23.34,43.298 23.341,43.299 23.341,43.299C23.346,43.363 23.326,43.426 23.285,43.474C23.245,43.523 23.186,43.554 23.123,43.559C22.962,43.573 22.751,43.592 22.591,43.606C22.528,43.612 22.465,43.592 22.416,43.551C22.367,43.51 22.336,43.452 22.331,43.388C22.331,43.388 22.331,43.387 22.331,43.387Z" style="fill:#24245b;"/>
                <path d="M27.963,41.21C27.917,41.165 27.891,41.105 27.89,41.041C27.889,40.977 27.914,40.916 27.958,40.87C28.07,40.755 28.218,40.603 28.33,40.488C28.374,40.442 28.435,40.416 28.499,40.415C28.562,40.414 28.624,40.439 28.669,40.483C28.67,40.483 28.67,40.484 28.67,40.484C28.716,40.528 28.742,40.589 28.743,40.653C28.744,40.716 28.72,40.778 28.675,40.823C28.563,40.939 28.415,41.09 28.303,41.206C28.259,41.252 28.198,41.278 28.134,41.279C28.071,41.28 28.009,41.255 27.964,41.211C27.963,41.21 27.963,41.21 27.963,41.21Z" style="fill:#24245b;"/>
                <path d="M18.724,44.844C18.678,44.799 18.652,44.739 18.651,44.675C18.65,44.611 18.675,44.55 18.719,44.504C18.831,44.389 18.979,44.237 19.091,44.122C19.135,44.076 19.196,44.05 19.26,44.049C19.323,44.048 19.385,44.073 19.43,44.117C19.431,44.117 19.431,44.118 19.432,44.118C19.477,44.162 19.503,44.223 19.504,44.287C19.505,44.35 19.481,44.412 19.436,44.457C19.324,44.573 19.177,44.724 19.064,44.84C19.02,44.886 18.959,44.912 18.896,44.913C18.832,44.913 18.771,44.889 18.725,44.845C18.725,44.844 18.724,44.844 18.724,44.844Z" style="fill:#24245b;"/>
            </g>
            <g>
                <path d="M25.808,39.918C25.814,40.104 25.667,40.26 25.48,40.266C25.214,40.274 24.845,40.285 24.579,40.293C24.393,40.299 24.237,40.152 24.231,39.966C24.231,39.966 24.231,39.966 24.231,39.966C24.225,39.779 24.372,39.623 24.559,39.618C24.825,39.609 25.194,39.598 25.46,39.59C25.646,39.584 25.802,39.731 25.808,39.918C25.808,39.918 25.808,39.918 25.808,39.918Z" style="fill:#24245b;fill-opacity:0.67;"/>
                <path d="M22.773,45.085C22.779,45.272 22.632,45.428 22.446,45.433C22.18,45.442 21.811,45.453 21.545,45.461C21.358,45.467 21.202,45.32 21.197,45.133C21.197,45.133 21.197,45.133 21.197,45.133C21.191,44.947 21.338,44.791 21.524,44.785C21.79,44.777 22.159,44.766 22.425,44.758C22.612,44.752 22.768,44.899 22.773,45.085C22.773,45.085 22.773,45.085 22.773,45.085Z" style="fill:#24245b;fill-opacity:0.67;"/>
                <path d="M30.246,43.662C30.388,43.783 30.406,43.996 30.285,44.139C30.167,44.278 30.021,44.449 29.903,44.589C29.782,44.731 29.569,44.749 29.427,44.628C29.427,44.628 29.427,44.628 29.427,44.628C29.284,44.507 29.267,44.294 29.388,44.151C29.506,44.012 29.651,43.841 29.769,43.701C29.89,43.559 30.103,43.542 30.246,43.662C30.246,43.662 30.246,43.662 30.246,43.662Z" style="fill:#24245b;fill-opacity:0.67;"/>
                <path d="M26.165,46.102C26.195,46.286 26.071,46.46 25.887,46.491C25.707,46.521 25.485,46.558 25.305,46.588C25.121,46.619 24.947,46.495 24.916,46.311C24.916,46.311 24.916,46.311 24.916,46.311C24.885,46.126 25.009,45.952 25.194,45.922C25.374,45.891 25.595,45.854 25.776,45.824C25.96,45.794 26.134,45.918 26.165,46.102C26.165,46.102 26.165,46.102 26.165,46.102Z" style="fill:#24245b;fill-opacity:0.67;"/>
                <path d="M25.609,44.556C25.62,44.619 25.605,44.683 25.568,44.735C25.531,44.787 25.475,44.822 25.412,44.832C25.253,44.859 25.045,44.894 24.886,44.92C24.823,44.931 24.759,44.916 24.707,44.879C24.655,44.842 24.62,44.786 24.61,44.723C24.61,44.722 24.61,44.722 24.609,44.721C24.599,44.659 24.614,44.594 24.651,44.542C24.688,44.491 24.744,44.456 24.807,44.445C24.966,44.419 25.174,44.384 25.333,44.357C25.396,44.347 25.46,44.362 25.512,44.399C25.564,44.436 25.599,44.492 25.609,44.554C25.609,44.555 25.609,44.555 25.609,44.556Z" style="fill:#24245b;"/>
                <path d="M20.135,46.742C20.184,46.783 20.215,46.841 20.221,46.904C20.227,46.968 20.207,47.031 20.166,47.08C20.063,47.204 19.928,47.366 19.825,47.49C19.784,47.539 19.726,47.57 19.663,47.576C19.599,47.581 19.536,47.562 19.487,47.521C19.487,47.521 19.486,47.521 19.486,47.52C19.437,47.48 19.406,47.421 19.4,47.358C19.395,47.294 19.414,47.231 19.455,47.182C19.558,47.058 19.693,46.896 19.796,46.772C19.837,46.723 19.895,46.692 19.959,46.686C20.022,46.681 20.085,46.7 20.134,46.741C20.134,46.741 20.135,46.741 20.135,46.742Z" style="fill:#24245b;"/>
                <path d="M23.775,47.833C23.744,47.888 23.692,47.929 23.63,47.946C23.569,47.963 23.503,47.956 23.448,47.924C23.308,47.845 23.123,47.741 22.983,47.662C22.928,47.631 22.887,47.579 22.87,47.518C22.852,47.457 22.86,47.391 22.892,47.336C22.892,47.335 22.892,47.335 22.892,47.334C22.924,47.279 22.976,47.238 23.037,47.221C23.098,47.204 23.164,47.212 23.219,47.243C23.36,47.322 23.544,47.426 23.684,47.505C23.74,47.536 23.78,47.588 23.798,47.649C23.815,47.711 23.807,47.776 23.776,47.832C23.775,47.832 23.775,47.833 23.775,47.833Z" style="fill:#24245b;"/>
            </g>
        </g>
    </g>
    <path d="M46.36,47.107C45.88,50.603 44.427,53.296 43.115,53.116C41.804,52.936 41.129,49.951 41.609,46.455C42.088,42.959 43.542,40.266 44.853,40.446C46.164,40.626 46.84,43.61 46.36,47.107Z" style="fill:#2c327e;"/>
    <path d="M45.739,52.856L43.984,50.164L44.914,43.374L47.37,40.951L49.087,41.211L47.457,53.116L45.739,52.856Z" style="fill:#2c327e;"/>
    <clipPath id="_clip5">
        <path d="M45.739,52.856L43.984,50.164L44.914,43.374L47.37,40.951L49.087,41.211L47.457,53.116L45.739,52.856Z"/>
    </clipPath>
    <g clip-path="url(#_clip5)">
        <path d="M85.581,50.036L86.362,44.343L35.592,37.38L34.811,43.072L85.581,50.036Z" style="fill:#adacd6;fill-opacity:0.82;"/>
    </g>
    <path d="M45.739,52.856L43.984,50.164L44.914,43.374L47.37,40.951L49.087,41.211L47.457,53.116L45.739,52.856Z" style="fill:#2c327e;"/>
    <clipPath id="_clip6">
        <path d="M45.739,52.856L43.984,50.164L44.914,43.374L47.37,40.951L49.087,41.211L47.457,53.116L45.739,52.856Z"/>
    </clipPath>
    <g clip-path="url(#_clip6)">
        <path d="M85.581,50.036L86.362,44.343L35.592,37.38L34.811,43.072L85.581,50.036Z" style="fill:#adacd6;fill-opacity:0.82;"/>
    </g>
</svg>
