<?xml version="1.0" encoding="UTF-8" standalone="no"?>
<!DOCTYPE svg PUBLIC "-//W3C//DTD SVG 1.1//EN" "http://www.w3.org/Graphics/SVG/1.1/DTD/svg11.dtd">
<svg width="100%" height="100%" viewBox="0 0 65 64" version="1.1" xmlns="http://www.w3.org/2000/svg" xmlns:xlink="http://www.w3.org/1999/xlink" xml:space="preserve" xmlns:serif="http://www.serif.com/" style="fill-rule:evenodd;clip-rule:evenodd;stroke-linecap:round;stroke-linejoin:round;stroke-miterlimit:1.5;">
    <rect id="Trans-Fat" serif:id="Trans Fat" x="0.738" y="0" width="64" height="64" style="fill:none;"/>
    <path d="M33.261,8C33.261,8 17.784,30.766 17.784,40.523C17.784,49.065 24.719,56 33.261,56C41.803,56 48.738,49.065 48.738,40.523C48.738,30.766 33.261,8 33.261,8Z" style="fill:#2b307e;"/>
    <path d="M38.049,48.708C36.596,49.53 34.918,50 33.132,50C27.613,50 23.132,45.519 23.132,40C23.132,38.899 23.31,37.84 23.639,36.85" style="fill:none;stroke:#cdceeb;stroke-width:3.62px;"/>
    <path d="M56.617,3.879L3.83,56.665L8.073,60.908L60.86,8.121L56.617,3.879Z" style="fill:#f3775b;"/>
</svg>
