<?xml version="1.0" encoding="UTF-8" standalone="no"?>
<!DOCTYPE svg PUBLIC "-//W3C//DTD SVG 1.1//EN" "http://www.w3.org/Graphics/SVG/1.1/DTD/svg11.dtd">
<svg width="100%" height="100%" viewBox="0 0 65 64" version="1.1" xmlns="http://www.w3.org/2000/svg" xmlns:xlink="http://www.w3.org/1999/xlink" xml:space="preserve" xmlns:serif="http://www.serif.com/" style="fill-rule:evenodd;clip-rule:evenodd;stroke-linejoin:round;stroke-miterlimit:1;">
    <rect id="Vaccine" x="0.617" y="0" width="64" height="64" style="fill:none;"/>
    <ellipse cx="19.617" cy="53.589" rx="13" ry="3.871" style="fill:#dfdff2;fill-opacity:0.435294;"/>
    <path d="M6.621,35.998C6.749,31.266 9.587,34.122 11.566,27.819C12.363,27.793 18.248,27.726 18.275,27.819C20.027,33.986 22.842,31.437 22.789,36.181L22.789,54.391L22.788,54.391C22.789,54.401 22.789,54.412 22.789,54.423C22.789,55.848 19.166,57.005 14.703,57.005C10.24,57.005 6.617,55.848 6.617,54.423C6.617,54.412 6.618,54.401 6.618,54.391L6.617,54.391L6.617,36.193C6.617,36.189 6.617,36.185 6.617,36.181C6.617,36.181 6.617,35.998 6.617,35.998L6.621,35.998Z" style="fill:#dfdff2;"/>
    <clipPath id="_clip1">
        <path d="M6.621,35.998C6.749,31.266 9.587,34.122 11.566,27.819C12.363,27.793 18.248,27.726 18.275,27.819C20.027,33.986 22.842,31.437 22.789,36.181L22.789,54.391L22.788,54.391C22.789,54.401 22.789,54.412 22.789,54.423C22.789,55.848 19.166,57.005 14.703,57.005C10.24,57.005 6.617,55.848 6.617,54.423C6.617,54.412 6.618,54.401 6.618,54.391L6.617,54.391L6.617,36.193C6.617,36.189 6.617,36.185 6.617,36.181C6.617,36.181 6.617,35.998 6.617,35.998L6.621,35.998Z"/>
    </clipPath>
    <g clip-path="url(#_clip1)">
        <path d="M22.789,39.814L22.789,44.587C22.789,45.687 19.166,46.581 14.703,46.581C10.24,46.581 6.617,45.687 6.617,44.587L6.617,39.814C6.617,40.924 10.241,41.824 14.703,41.824C19.166,41.824 22.789,40.924 22.789,39.814Z" style="fill:#f3775b;"/>
        <path d="M11.262,36.034C10.312,36.099 9.475,35.925 8.75,35.513L8.75,57.429L11.262,57.429L11.262,36.034Z" style="fill:#fff;fill-opacity:0.576471;"/>
        <path d="M27.445,18.359C23.926,18.485 20.822,18.149 18.133,17.351L18.133,59.78L27.445,59.78L27.445,18.359Z" style="fill:#2a2f7d;fill-opacity:0.141176;"/>
        <path d="M6.619,31.814L6.617,31.814C6.617,31.814 6.617,30.544 6.617,29.428C6.617,28.513 7.359,27.771 8.274,27.771C11.398,27.771 18.122,27.771 21.196,27.771C22.076,27.771 22.789,28.484 22.789,29.364C22.789,30.495 22.789,31.814 22.789,31.814L22.787,31.814C22.788,31.825 22.789,31.836 22.789,31.847C22.789,32.74 19.166,33.464 14.703,33.464C10.24,33.464 6.617,32.74 6.617,31.847C6.617,31.836 6.618,31.825 6.619,31.814Z" style="fill:#c8c8e3;fill-opacity:0.317647;"/>
    </g>
    <path d="M6.619,29.403L6.617,29.403C6.617,29.403 6.617,28.133 6.617,27.017C6.617,26.102 7.359,25.36 8.274,25.36C11.398,25.36 18.122,25.36 21.196,25.36C22.076,25.36 22.789,26.073 22.789,26.953C22.789,28.084 22.789,29.403 22.789,29.403L22.787,29.403C22.788,29.414 22.789,29.425 22.789,29.436C22.789,30.329 19.166,31.053 14.703,31.053C10.24,31.053 6.617,30.329 6.617,29.436C6.617,29.425 6.618,29.414 6.619,29.403Z" style="fill:#c8c8e3;"/>
    <clipPath id="_clip2">
        <path d="M6.619,29.403L6.617,29.403C6.617,29.403 6.617,28.133 6.617,27.017C6.617,26.102 7.359,25.36 8.274,25.36C11.398,25.36 18.122,25.36 21.196,25.36C22.076,25.36 22.789,26.073 22.789,26.953C22.789,28.084 22.789,29.403 22.789,29.403L22.787,29.403C22.788,29.414 22.789,29.425 22.789,29.436C22.789,30.329 19.166,31.053 14.703,31.053C10.24,31.053 6.617,30.329 6.617,29.436C6.617,29.425 6.618,29.414 6.619,29.403Z"/>
    </clipPath>
    <g clip-path="url(#_clip2)">
        <path d="M11.262,22.726C10.312,22.791 9.475,22.617 8.75,22.205L8.75,44.121L11.262,44.121L11.262,22.726Z" style="fill:#fff;fill-opacity:0.576471;"/>
    </g>
    <ellipse cx="14.703" cy="25.946" rx="7.473" ry="1.535" style="fill:#dfdff2;"/>
    <ellipse cx="14.703" cy="25.702" rx="2.785" ry="0.557" style="fill:#f3775b;"/>
    <g>
        <path d="M59.233,4.096C62.2,6.151 64.067,8.6 63.4,9.563C62.734,10.526 59.784,9.64 56.817,7.586C53.85,5.531 51.983,3.082 52.649,2.119C53.316,1.156 56.266,2.042 59.233,4.096Z" style="fill:#afafd7;"/>
        <path d="M58.292,5.456C59.124,6.032 59.68,6.672 59.533,6.885C59.385,7.098 58.59,6.803 57.758,6.226C56.926,5.65 56.37,5.01 56.517,4.797C56.664,4.584 57.46,4.88 58.292,5.456Z" style="fill:#ccccea;"/>
        <path d="M59.56,6.846L56.544,4.758L37.886,31.704L40.901,33.792L59.56,6.846Z" style="fill:#ccccea;"/>
        <path d="M53.051,13.025C58.616,16.878 62.258,21.274 61.177,22.835C60.096,24.395 54.701,22.534 49.135,18.68C43.57,14.826 39.928,10.43 41.009,8.87C42.09,7.309 47.485,9.171 53.051,13.025Z" style="fill:#b0b0d7;"/>
        <path d="M45.718,12.13C46.242,11.372 49.077,12.424 52.044,14.478C55.011,16.533 56.993,18.816 56.468,19.574L37.81,46.52L27.059,39.076L45.718,12.13Z" style="fill:#c8c8e3;"/>
        <clipPath id="_clip3">
            <path d="M45.718,12.13C46.242,11.372 49.077,12.424 52.044,14.478C55.011,16.533 56.993,18.816 56.468,19.574L37.81,46.52L27.059,39.076L45.718,12.13Z"/>
        </clipPath>
        <g clip-path="url(#_clip3)">
            <path d="M62.016,17.154L46.031,6.086L34.075,23.352L50.06,34.42L62.016,17.154Z" style="fill:#dfdff2;"/>
            <g>
                <path d="M47.904,31.943L37.153,24.499L34.754,27.964L45.505,35.408L47.904,31.943Z" style="fill:#2a2f7d;"/>
                <path d="M41.08,30.312C44.047,32.367 46.03,34.65 45.505,35.408C44.98,36.166 42.145,35.114 39.178,33.06C36.211,31.005 34.229,28.722 34.754,27.964C35.279,27.206 38.114,28.258 41.08,30.312Z" style="fill:#777ab8;"/>
                <path d="M38.17,22.156C38.353,21.891 38.818,21.847 39.473,21.989C40.692,22.255 42.566,23.167 44.496,24.504" style="fill:none;stroke:#5558a4;stroke-width:0.75px;"/>
                <path d="M28.328,36.763C28.512,36.498 28.977,36.454 29.632,36.597C30.85,36.862 32.725,37.775 34.655,39.111" style="fill:none;stroke:#5558a4;stroke-width:0.75px;"/>
                <path d="M39.774,19.566C39.957,19.301 40.423,19.257 41.077,19.4C42.296,19.665 44.17,20.578 46.101,21.914" style="fill:none;stroke:#5558a4;stroke-width:0.75px;"/>
                <path d="M29.933,34.173C30.116,33.908 30.582,33.864 31.236,34.007C32.455,34.273 34.329,35.185 36.26,36.522" style="fill:none;stroke:#5558a4;stroke-width:0.75px;"/>
                <path d="M31.537,31.584C31.721,31.319 32.186,31.275 32.84,31.417C34.059,31.683 35.934,32.595 37.864,33.932" style="fill:none;stroke:#5558a4;stroke-width:0.75px;"/>
                <path d="M33.142,28.994C33.325,28.729 33.79,28.685 34.445,28.828C35.663,29.093 37.538,30.006 39.468,31.342" style="fill:none;stroke:#5558a4;stroke-width:0.75px;"/>
                <path d="M43.479,26.847C46.446,28.902 48.429,31.185 47.904,31.943C47.379,32.702 44.544,31.649 41.577,29.595C38.61,27.541 36.628,25.257 37.153,24.499C37.678,23.741 40.513,24.793 43.479,26.847Z" style="fill:#2a2f7d;"/>
            </g>
            <path d="M30.035,43.043C29.251,42.36 28.327,42.094 27.262,42.245L49.363,10.328L51.61,11.884L30.035,43.043Z" style="fill:#fff;fill-opacity:0.576471;"/>
        </g>
        <path d="M33.449,41.333C36.416,43.387 38.399,45.671 37.874,46.429C37.349,47.187 34.514,46.135 31.547,44.08C28.58,42.026 26.598,39.743 27.123,38.984C27.648,38.226 30.482,39.279 33.449,41.333Z" style="fill:#b0b0d7;"/>
        <path d="M31.411,42.303C31.501,42.173 31.988,42.354 32.498,42.707C33.006,43.058 33.346,43.449 33.259,43.581L33.258,43.582L31.833,45.64L29.866,46.862L19.064,62.463L18.732,62.233L29.534,46.632L29.965,44.392L31.411,42.303Z" style="fill:#f1b1af;"/>
        <clipPath id="_clip4">
            <path d="M31.411,42.303C31.501,42.173 31.988,42.354 32.498,42.707C33.006,43.058 33.346,43.449 33.259,43.581L33.258,43.582L31.833,45.64L29.866,46.862L19.064,62.463L18.732,62.233L29.534,46.632L29.965,44.392L31.411,42.303Z"/>
        </clipPath>
        <g clip-path="url(#_clip4)">
            <path d="M39.544,40.865L35.626,38.152L14.532,68.614L18.451,71.328L39.544,40.865Z" style="fill:#f3775b;"/>
        </g>
    </g>
</svg>
