<?xml version="1.0" encoding="UTF-8" standalone="no"?>
<!DOCTYPE svg PUBLIC "-//W3C//DTD SVG 1.1//EN" "http://www.w3.org/Graphics/SVG/1.1/DTD/svg11.dtd">
<svg width="100%" height="100%" viewBox="0 0 64 65" version="1.1" xmlns="http://www.w3.org/2000/svg" xmlns:xlink="http://www.w3.org/1999/xlink" xml:space="preserve" xmlns:serif="http://www.serif.com/" style="fill-rule:evenodd;clip-rule:evenodd;stroke-linecap:round;stroke-linejoin:round;stroke-miterlimit:1.5;">
    <rect id="Workforce" x="0" y="0.961" width="64" height="64" style="fill:none;"/>
    <clipPath id="_clip1">
        <rect x="0" y="0.961" width="64" height="64"/>
    </clipPath>
    <g clip-path="url(#_clip1)">
        <path d="M45.707,29.922C45.172,29.389 44.312,29.371 43.756,29.883C43.2,30.394 43.145,31.253 43.632,31.83C44.778,33.264 46.573,34.445 49.289,34.853L50.348,32.947C50.348,32.947 48.017,31.627 45.707,29.922Z" style="fill:#c66a50;"/>
        <path d="M53.355,37.093L47.777,40.752C47.777,40.752 45.719,39.74 43.323,38.562C38.505,36.193 33.208,34.961 27.839,34.961C26.999,34.961 26.161,34.961 25.362,34.961C21.816,34.961 18.299,35.598 14.979,36.843C14.979,36.844 14.979,36.844 14.978,36.844C8.151,39.404 3.13,45.308 1.701,52.458C0.81,56.912 0,60.961 0,60.961L64,60.961L53.355,37.093Z" style="fill:#dfdff2;"/>
        <path d="M45.613,42.628L51.791,60.961L56.375,60.961L47.96,44.286L45.613,42.628Z" style="fill:#c7c7e8;"/>
        <g>
            <path d="M10.625,54.961C10.625,54.961 10.625,52.234 10.625,49.629C10.625,47.05 12.715,44.961 15.293,44.961C15.294,44.961 15.294,44.961 15.295,44.961C18.239,44.961 20.625,47.347 20.625,50.291C20.625,52.676 20.625,54.961 20.625,54.961" style="fill:none;stroke:#2b307e;stroke-width:2px;"/>
            <circle cx="20.625" cy="53.961" r="2.5" style="fill:#2b307e;"/>
            <circle cx="10.625" cy="53.961" r="2.5" style="fill:#2b307e;"/>
        </g>
        <path d="M15.625,44.961C15.625,44.961 15.625,43.991 15.625,42.603C15.625,40.045 16.641,37.593 18.449,35.785C20.257,33.976 22.71,32.961 25.267,32.961C25.268,32.961 25.269,32.961 25.27,32.961C33.405,32.961 40,39.555 40,47.691C40,49.067 40,49.961 40,49.961" style="fill:none;stroke:#2b307e;stroke-width:2px;"/>
        <path d="M35,29.961L21,29.961L21,37.961L28,49.961L35,37.961L35,29.961Z" style="fill:#f3775b;"/>
        <path d="M21,33.867L21,32.961L35,32.961L35,38.05C33.169,38.457 30.507,38.511 28,37.961C24.105,37.105 22.437,35.348 21,33.867Z" style="fill:#664e39;fill-opacity:0.560784;"/>
        <path d="M40,16.81C40,10.266 34.695,4.961 28.15,4.961C28.05,4.961 27.95,4.961 27.85,4.961C21.305,4.961 16,10.266 16,16.81C16,18.883 16,21.039 16,23.111C16,26.253 17.248,29.268 19.471,31.49C21.693,33.712 24.707,34.961 27.85,34.961L30.24,34.961C35.63,34.961 40,30.591 40,25.201C40,22.523 40,19.591 40,16.81Z" style="fill:#f3775b;"/>
        <g>
            <path d="M35.875,24.836L45.5,36.621" style="fill:none;stroke:#2b307e;stroke-width:3px;stroke-linejoin:miter;stroke-miterlimit:1;"/>
            <circle cx="33.875" cy="22.836" r="8.375" style="fill:#2b307e;"/>
            <circle cx="33.875" cy="22.836" r="5.921" style="fill:#f2f3fa;"/>
            <path d="M45.574,43.406C45.574,43.406 42.456,39.64 40.436,37.199C39.459,36.019 39.461,34.311 40.441,33.133C40.441,33.133 40.441,33.132 40.441,33.132C41.67,31.655 43.532,30.856 45.45,30.985C45.513,30.989 45.576,30.993 45.639,30.997C48.169,31.166 50.494,32.443 51.994,34.486C52.68,35.42 53.258,36.468 53.452,37.51C54.034,40.638 53.175,43.049 51.857,43.942C49.555,45.503 45.574,43.406 45.574,43.406Z" style="fill:#f3775b;"/>
            <clipPath id="_clip2">
                <path d="M45.574,43.406C45.574,43.406 42.456,39.64 40.436,37.199C39.459,36.019 39.461,34.311 40.441,33.133C40.441,33.133 40.441,33.132 40.441,33.132C41.67,31.655 43.532,30.856 45.45,30.985C45.513,30.989 45.576,30.993 45.639,30.997C48.169,31.166 50.494,32.443 51.994,34.486C52.68,35.42 53.258,36.468 53.452,37.51C54.034,40.638 53.175,43.049 51.857,43.942C49.555,45.503 45.574,43.406 45.574,43.406Z"/>
            </clipPath>
            <g clip-path="url(#_clip2)">
                <path d="M41.179,29.084L55.912,50.367L46.047,46.298L35.166,40.028L36.771,33.829L41.179,29.084Z" style="fill:#a46048;fill-opacity:0.568627;"/>
            </g>
        </g>
        <circle cx="39.625" cy="50.961" r="4" style="fill:#2b307e;"/>
    </g>
</svg>
