<?xml version="1.0" encoding="UTF-8" standalone="no"?>
<!DOCTYPE svg PUBLIC "-//W3C//DTD SVG 1.1//EN" "http://www.w3.org/Graphics/SVG/1.1/DTD/svg11.dtd">
<svg width="100%" height="100%" viewBox="0 0 64 65" version="1.1" xmlns="http://www.w3.org/2000/svg" xmlns:xlink="http://www.w3.org/1999/xlink" xml:space="preserve" xmlns:serif="http://www.serif.com/" style="fill-rule:evenodd;clip-rule:evenodd;stroke-linecap:round;stroke-linejoin:round;stroke-miterlimit:1.5;">
    <rect id="Workforce-muted" x="0" y="0.732" width="64" height="64" style="fill:none;"/>
    <clipPath id="_clip1">
        <rect x="0" y="0.732" width="64" height="64"/>
    </clipPath>
    <g clip-path="url(#_clip1)">
        <path d="M45.707,29.693C45.172,29.16 44.312,29.143 43.756,29.654C43.2,30.166 43.145,31.024 43.632,31.602C44.778,33.035 46.573,34.216 49.289,34.625L50.348,32.719C50.348,32.719 48.017,31.398 45.707,29.693Z" style="fill:#808998;"/>
        <path d="M53.355,36.864L47.777,40.523C47.777,40.523 45.719,39.511 43.323,38.333C38.505,35.964 33.208,34.732 27.839,34.732C26.999,34.732 26.161,34.732 25.362,34.732C21.816,34.732 18.299,35.37 14.979,36.615C14.979,36.615 14.979,36.615 14.978,36.615C8.151,39.175 3.13,45.08 1.701,52.229C0.81,56.683 0,60.732 0,60.732L64,60.732L53.355,36.864Z" style="fill:#e3e6e8;"/>
        <path d="M45.613,42.4L51.791,60.732L56.375,60.732L47.96,44.058L45.613,42.4Z" style="fill:#cdd0da;"/>
        <g>
            <path d="M10.625,54.732C10.625,54.732 10.625,52.006 10.625,49.4C10.625,46.822 12.715,44.732 15.293,44.732C15.294,44.732 15.294,44.732 15.295,44.732C18.239,44.732 20.625,47.118 20.625,50.062C20.625,52.447 20.625,54.732 20.625,54.732" style="fill:none;stroke:#407bbf;stroke-width:2px;"/>
            <circle cx="20.625" cy="53.732" r="2.5" style="fill:#407bbf;"/>
            <circle cx="10.625" cy="53.732" r="2.5" style="fill:#407bbf;"/>
        </g>
        <path d="M15.625,44.732C15.625,44.732 15.625,43.762 15.625,42.374C15.625,39.817 16.641,37.364 18.449,35.556C20.257,33.748 22.71,32.732 25.267,32.732C25.268,32.732 25.269,32.732 25.27,32.732C33.405,32.732 40,39.327 40,47.462C40,48.839 40,49.732 40,49.732" style="fill:none;stroke:#407bbf;stroke-width:2px;"/>
        <path d="M35,29.732L21,29.732L21,37.732L28,49.732L35,37.732L35,29.732Z" style="fill:#a4acb4;"/>
        <path d="M21,33.639L21,32.732L35,32.732L35,37.822C33.169,38.229 30.507,38.283 28,37.732C24.105,36.876 22.437,35.12 21,33.639Z" style="fill:#535b71;fill-opacity:0.560784;"/>
        <path d="M40,16.73C40,13.548 38.736,10.496 36.486,8.246C34.236,5.996 31.184,4.732 28.002,4.732C28.001,4.732 27.999,4.732 27.998,4.732C24.816,4.732 21.764,5.996 19.514,8.246C17.264,10.496 16,13.548 16,16.73C16,18.62 16,20.576 16,22.472C16,29.243 21.489,34.732 28.26,34.732L30.24,34.732C35.63,34.732 40,30.362 40,24.972C40,22.342 40,19.467 40,16.73Z" style="fill:#a4acb4;"/>
        <g>
            <path d="M35.875,24.607L45.5,36.392" style="fill:none;stroke:#2b307e;stroke-width:3px;stroke-linejoin:miter;stroke-miterlimit:1;"/>
            <circle cx="33.875" cy="22.607" r="8.375" style="fill:#407bbf;"/>
            <circle cx="33.875" cy="22.607" r="5.921" style="fill:#f2f3fa;"/>
            <path d="M45.574,43.178C45.574,43.178 42.456,39.411 40.436,36.971C39.459,35.791 39.461,34.082 40.441,32.904C40.441,32.904 40.441,32.904 40.441,32.904C41.67,31.426 43.532,30.628 45.45,30.756C45.513,30.76 45.576,30.764 45.639,30.769C48.169,30.938 50.494,32.215 51.994,34.258C52.68,35.191 53.258,36.239 53.452,37.282C54.034,40.409 53.175,42.821 51.857,43.713C49.555,45.274 45.574,43.178 45.574,43.178Z" style="fill:#a4acb4;"/>
            <clipPath id="_clip2">
                <path d="M45.574,43.178C45.574,43.178 42.456,39.411 40.436,36.971C39.459,35.791 39.461,34.082 40.441,32.904C40.441,32.904 40.441,32.904 40.441,32.904C41.67,31.426 43.532,30.628 45.45,30.756C45.513,30.76 45.576,30.764 45.639,30.769C48.169,30.938 50.494,32.215 51.994,34.258C52.68,35.191 53.258,36.239 53.452,37.282C54.034,40.409 53.175,42.821 51.857,43.713C49.555,45.274 45.574,43.178 45.574,43.178Z"/>
            </clipPath>
            <g clip-path="url(#_clip2)">
                <path d="M41.179,28.856L55.912,50.139L46.047,46.069L35.166,39.8L36.771,33.6L41.179,28.856Z" style="fill:#656e82;fill-opacity:0.568627;"/>
            </g>
        </g>
        <circle cx="39.625" cy="50.732" r="4" style="fill:#407bbf;"/>
    </g>
</svg>
