<?xml version="1.0" encoding="UTF-8" standalone="no"?><!DOCTYPE svg PUBLIC "-//W3C//DTD SVG 1.1//EN" "http://www.w3.org/Graphics/SVG/1.1/DTD/svg11.dtd"><svg width="100%" height="100%" viewBox="0 0 4000 2921" version="1.1" xmlns="http://www.w3.org/2000/svg" xmlns:xlink="http://www.w3.org/1999/xlink" xml:space="preserve" xmlns:serif="http://www.serif.com/" style="fill-rule:evenodd;clip-rule:evenodd;stroke-linejoin:round;stroke-miterlimit:2;"><rect id="IHCI-Logo-Portrait-White" x="0" y="2.978" width="4000" height="2916.67" style="fill:none;"/><g><rect x="348.227" y="1860.78" width="47.546" height="262.424" style="fill:#fff;fill-rule:nonzero;"/><path d="M555.733,1932.28c44.475,0 66.712,25.555 66.712,76.663l0,114.258l-46.072,0l0,-112.046c0,-14.743 -2.825,-25.493 -8.477,-32.25c-5.651,-6.757 -14.374,-10.136 -26.168,-10.136c-14.006,0 -25.309,4.484 -33.909,13.453c-8.6,8.968 -12.9,20.824 -12.9,35.567l0,105.412l-45.703,0l0,-133.423c0,-19.658 -0.983,-37.226 -2.949,-52.706l43.123,0l3.317,30.591c6.389,-11.303 15.05,-20.026 25.985,-26.168c10.934,-6.143 23.281,-9.215 37.041,-9.215Z" style="fill:#fff;fill-rule:nonzero;"/><path d="M849.486,1851.93l0,271.27l-45.335,0l0,-29.854c-5.651,10.32 -13.76,18.367 -24.325,24.141c-10.566,5.774 -22.606,8.662 -36.121,8.662c-15.971,0 -30.223,-4.055 -42.754,-12.163c-12.531,-8.109 -22.299,-19.596 -29.302,-34.462c-7.002,-14.866 -10.504,-31.881 -10.504,-51.047c0,-19.166 3.44,-35.998 10.32,-50.495c6.88,-14.497 16.586,-25.738 29.117,-33.724c12.532,-7.986 26.906,-11.979 43.123,-11.979c13.269,0 25.125,2.765 35.568,8.293c10.443,5.529 18.49,13.33 24.141,23.405l0,-112.047l46.072,0Zm-93.618,238.098c15.235,0 27.09,-5.282 35.568,-15.848c8.477,-10.566 12.715,-25.555 12.715,-44.966c0,-19.412 -4.177,-34.4 -12.531,-44.966c-8.354,-10.566 -20.149,-15.849 -35.383,-15.849c-15.48,0 -27.459,5.222 -35.936,15.665c-8.477,10.443 -12.716,25.247 -12.716,44.413c0,19.411 4.239,34.523 12.716,45.334c8.477,10.812 20.333,16.217 35.567,16.217Z" style="fill:#fff;fill-rule:nonzero;"/><path d="M899.612,2123.2l0,-186.129l45.703,0l0,186.129l-45.703,0Zm-2.949,-270.532l51.232,0l0,45.334l-51.232,0l0,-45.334Z" style="fill:#fff;fill-rule:nonzero;"/><path d="M1173.83,1937.08l0,186.129l-45.335,0l0,-29.854c-5.651,10.32 -13.76,18.367 -24.325,24.141c-10.566,5.774 -22.606,8.662 -36.121,8.662c-16.217,0 -30.591,-3.932 -43.123,-11.795c-12.531,-7.863 -22.237,-19.043 -29.117,-33.54c-6.88,-14.497 -10.32,-31.329 -10.32,-50.494c0,-19.166 3.502,-36.182 10.504,-51.048c7.003,-14.865 16.771,-26.414 29.302,-34.646c12.531,-8.231 26.783,-12.347 42.754,-12.347c13.515,0 25.555,2.887 36.121,8.662c10.565,5.774 18.674,13.821 24.325,24.141l0,-28.011l45.335,0Zm-93.249,152.957c15.234,0 27.029,-5.282 35.383,-15.848c8.354,-10.566 12.531,-25.432 12.531,-44.598c0,-19.657 -4.177,-34.768 -12.531,-45.334c-8.354,-10.566 -20.272,-15.849 -35.752,-15.849c-15.234,0 -27.09,5.468 -35.567,16.402c-8.477,10.934 -12.716,26.107 -12.716,45.519c0,19.165 4.239,33.908 12.716,44.228c8.477,10.32 20.456,15.48 35.936,15.48Z" style="fill:#fff;fill-rule:nonzero;"/><path d="M1509.6,1860.78l47.177,0l0,262.424l-47.177,0l0,-113.889l-134.529,0l0,113.889l-46.809,0l0,-262.424l46.809,0l0,109.835l134.529,0l0,-109.835Z" style="fill:#fff;fill-rule:nonzero;"/><path d="M1786.4,1937.08l-86.615,198.66c-9.828,23.098 -22.36,39.929 -37.594,50.495c-15.235,10.566 -34.032,17.569 -56.392,21.009l-10.32,-35.383c17.446,-3.932 30.53,-8.908 39.253,-14.928c8.723,-6.02 15.787,-14.927 21.193,-26.721l5.897,-13.637l-77.4,-179.495l48.283,0l53.443,133.792l54.549,-133.792l45.703,0Z" style="fill:#fff;fill-rule:nonzero;"/><path d="M1916.5,1932.28c15.971,0 30.161,4.116 42.57,12.347c12.409,8.232 22.114,19.781 29.117,34.646c7.003,14.866 10.505,31.882 10.505,51.048c0,19.165 -3.44,35.997 -10.32,50.494c-6.88,14.497 -16.525,25.677 -28.933,33.54c-12.409,7.863 -26.722,11.795 -42.939,11.795c-13.514,0 -25.554,-2.888 -36.12,-8.662c-10.566,-5.774 -18.675,-13.821 -24.326,-24.141l0,109.466l-45.703,0l0,-213.035c0,-19.658 -0.983,-37.226 -2.949,-52.706l43.123,0l3.686,32.066c4.914,-11.549 12.9,-20.579 23.957,-27.091c11.058,-6.511 23.835,-9.767 38.332,-9.767Zm-12.532,157.749c15.48,0 27.398,-5.16 35.752,-15.48c8.354,-10.32 12.531,-25.063 12.531,-44.228c0,-19.412 -4.177,-34.585 -12.531,-45.519c-8.354,-10.934 -20.149,-16.402 -35.383,-16.402c-15.726,0 -27.766,5.283 -36.12,15.849c-8.354,10.566 -12.532,25.677 -12.532,45.334c0,19.412 4.178,34.339 12.532,44.782c8.354,10.443 20.271,15.664 35.751,15.664Z" style="fill:#fff;fill-rule:nonzero;"/><path d="M2201.78,2032.54l-128.263,0c0.983,19.903 5.958,34.584 14.927,44.044c8.969,9.461 22.299,14.191 39.99,14.191c20.395,0 39.315,-6.635 56.76,-19.903l13.269,31.697c-8.846,7.126 -19.719,12.838 -32.619,17.138c-12.9,4.301 -25.984,6.451 -39.253,6.451c-30.468,0 -54.426,-8.601 -71.871,-25.801c-17.446,-17.2 -26.169,-40.788 -26.169,-70.766c0,-18.92 3.809,-35.751 11.426,-50.494c7.617,-14.743 18.306,-26.23 32.066,-34.462c13.76,-8.231 29.363,-12.347 46.808,-12.347c25.555,0 45.765,8.293 60.631,24.879c14.865,16.586 22.298,39.376 22.298,68.37l0,7.003Zm-81.823,-67.08c-12.286,0 -22.299,3.624 -30.039,10.873c-7.74,7.248 -12.715,17.753 -14.927,31.513l86.615,0c-1.475,-14.006 -5.713,-24.572 -12.716,-31.698c-7.003,-7.125 -16.647,-10.688 -28.933,-10.688Z" style="fill:#fff;fill-rule:nonzero;"/><path d="M2341.1,1932.65c7.125,0 13.268,0.983 18.428,2.948l-0.368,42.018c-7.863,-3.195 -15.972,-4.792 -24.326,-4.792c-15.726,0 -27.704,4.546 -35.936,13.637c-8.231,9.092 -12.347,21.132 -12.347,36.121l0,100.62l-45.703,0l0,-133.423c0,-19.658 -0.983,-37.226 -2.949,-52.706l43.123,0l3.686,32.803c4.669,-12.04 12.04,-21.255 22.114,-27.643c10.075,-6.389 21.501,-9.583 34.278,-9.583Z" style="fill:#fff;fill-rule:nonzero;"/><path d="M2460.89,1971.72l0,83.297c0,21.869 10.197,32.803 30.591,32.803c5.652,0 11.795,-0.983 18.429,-2.949l0,36.489c-8.109,2.949 -17.937,4.423 -29.486,4.423c-21.131,0 -37.349,-5.897 -48.651,-17.692c-11.303,-11.794 -16.955,-28.748 -16.955,-50.863l0,-85.508l-35.751,0l0,-34.646l35.751,0l0,-45.335l46.072,-15.48l0,60.815l49.389,0l0,34.646l-49.389,0Z" style="fill:#fff;fill-rule:nonzero;"/><path d="M2704.88,2032.54l-128.263,0c0.983,19.903 5.958,34.584 14.927,44.044c8.968,9.461 22.299,14.191 39.99,14.191c20.394,0 39.314,-6.635 56.76,-19.903l13.269,31.697c-8.846,7.126 -19.719,12.838 -32.619,17.138c-12.9,4.301 -25.984,6.451 -39.253,6.451c-30.469,0 -54.426,-8.601 -71.872,-25.801c-17.445,-17.2 -26.168,-40.788 -26.168,-70.766c0,-18.92 3.808,-35.751 11.426,-50.494c7.617,-14.743 18.305,-26.23 32.065,-34.462c13.76,-8.231 29.363,-12.347 46.809,-12.347c25.555,0 45.765,8.293 60.63,24.879c14.866,16.586 22.299,39.376 22.299,68.37l0,7.003Zm-81.823,-67.08c-12.286,0 -22.299,3.624 -30.039,10.873c-7.74,7.248 -12.716,17.753 -14.927,31.513l86.615,0c-1.475,-14.006 -5.713,-24.572 -12.716,-31.698c-7.003,-7.125 -16.647,-10.688 -28.933,-10.688Z" style="fill:#fff;fill-rule:nonzero;"/><path d="M2850.47,1932.28c44.475,0 66.712,25.555 66.712,76.663l0,114.258l-46.072,0l0,-112.046c0,-14.743 -2.825,-25.493 -8.477,-32.25c-5.651,-6.757 -14.374,-10.136 -26.169,-10.136c-14.005,0 -25.308,4.484 -33.908,13.453c-8.6,8.968 -12.9,20.824 -12.9,35.567l0,105.412l-45.703,0l0,-133.423c0,-19.658 -0.983,-37.226 -2.949,-52.706l43.123,0l3.317,30.591c6.389,-11.303 15.05,-20.026 25.985,-26.168c10.934,-6.143 23.281,-9.215 37.041,-9.215Z" style="fill:#fff;fill-rule:nonzero;"/><path d="M3034.39,2126.15c-33.663,0 -60.446,-7.863 -80.349,-23.589l12.9,-32.435c19.903,14.743 42.632,22.115 68.186,22.115c11.057,0 19.596,-1.843 25.616,-5.529c6.02,-3.685 9.03,-8.846 9.03,-15.48c0,-5.651 -2.089,-10.136 -6.266,-13.453c-4.177,-3.317 -11.303,-6.204 -21.377,-8.661l-30.96,-7.003c-33.909,-7.372 -50.863,-24.694 -50.863,-51.969c0,-11.303 3.194,-21.316 9.583,-30.038c6.388,-8.723 15.357,-15.542 26.906,-20.456c11.548,-4.915 24.94,-7.372 40.174,-7.372c13.269,0 26.046,2.027 38.332,6.082c12.285,4.054 23.097,9.89 32.434,17.507l-13.637,31.329c-18.675,-13.76 -37.84,-20.64 -57.498,-20.64c-10.565,0 -18.797,1.965 -24.694,5.897c-5.897,3.931 -8.846,9.337 -8.846,16.217c0,5.406 1.782,9.706 5.345,12.9c3.563,3.194 9.644,5.897 18.244,8.109l31.697,7.002c18.429,4.178 31.882,10.628 40.359,19.35c8.477,8.723 12.716,20.088 12.716,34.093c0,17.201 -6.88,30.838 -20.64,40.912c-13.76,10.074 -32.558,15.112 -56.392,15.112Z" style="fill:#fff;fill-rule:nonzero;"/><path d="M3150.85,2123.2l0,-186.129l45.703,0l0,186.129l-45.703,0Zm-2.949,-270.532l51.232,0l0,45.334l-51.232,0l0,-45.334Z" style="fill:#fff;fill-rule:nonzero;"/><path d="M3331.45,2126.15c-18.92,0 -35.568,-3.932 -49.942,-11.795c-14.374,-7.863 -25.431,-19.104 -33.171,-33.724c-7.741,-14.62 -11.611,-31.759 -11.611,-51.416c0,-19.657 3.87,-36.796 11.611,-51.416c7.74,-14.62 18.797,-25.862 33.171,-33.724c14.374,-7.863 31.022,-11.795 49.942,-11.795c18.674,0 35.137,3.932 49.388,11.795c14.252,7.862 25.248,19.104 32.988,33.724c7.74,14.62 11.61,31.759 11.61,51.416c0,19.657 -3.87,36.796 -11.61,51.416c-7.74,14.62 -18.736,25.861 -32.988,33.724c-14.251,7.863 -30.714,11.795 -49.388,11.795Zm-0.369,-36.121c15.726,0 27.704,-5.098 35.936,-15.295c8.231,-10.198 12.347,-25.37 12.347,-45.519c0,-19.903 -4.177,-35.076 -12.531,-45.519c-8.355,-10.443 -20.149,-15.664 -35.383,-15.664c-15.48,0 -27.398,5.221 -35.752,15.664c-8.354,10.443 -12.531,25.616 -12.531,45.519c0,20.149 4.115,35.321 12.347,45.519c8.231,10.197 20.087,15.295 35.567,15.295Z" style="fill:#fff;fill-rule:nonzero;"/><path d="M3571.76,1932.28c44.475,0 66.712,25.555 66.712,76.663l0,114.258l-46.072,0l0,-112.046c0,-14.743 -2.826,-25.493 -8.477,-32.25c-5.651,-6.757 -14.374,-10.136 -26.169,-10.136c-14.005,0 -25.308,4.484 -33.908,13.453c-8.6,8.968 -12.9,20.824 -12.9,35.567l0,105.412l-45.703,0l0,-133.423c0,-19.658 -0.983,-37.226 -2.949,-52.706l43.123,0l3.317,30.591c6.389,-11.303 15.05,-20.026 25.985,-26.168c10.934,-6.143 23.281,-9.215 37.041,-9.215Z" style="fill:#fff;fill-rule:nonzero;"/><path d="M685.287,2576.52c-25.8,0 -48.345,-5.529 -67.633,-16.586c-19.289,-11.057 -34.093,-26.722 -44.413,-46.993c-10.32,-20.272 -15.481,-44.045 -15.481,-71.319c0,-27.029 5.161,-50.679 15.481,-70.95c10.32,-20.272 25.124,-35.875 44.413,-46.809c19.288,-10.934 41.833,-16.401 67.633,-16.401c17.691,0 34.338,2.764 49.941,8.292c15.603,5.529 28.565,13.208 38.885,23.036l-15.48,34.646c-11.795,-9.583 -23.528,-16.524 -35.199,-20.824c-11.672,-4.3 -24.142,-6.45 -37.41,-6.45c-25.309,0 -44.905,8.231 -58.788,24.694c-13.882,16.463 -20.824,40.052 -20.824,70.766c0,30.96 6.88,54.733 20.64,71.319c13.76,16.586 33.417,24.879 58.972,24.879c13.268,0 25.738,-2.15 37.41,-6.45c11.671,-4.3 23.404,-11.242 35.199,-20.825l15.48,34.646c-10.32,9.829 -23.282,17.507 -38.885,23.036c-15.603,5.528 -32.25,8.293 -49.941,8.293Z" style="fill:#fff;fill-rule:nonzero;"/><path d="M896.11,2576.15c-18.92,0 -35.567,-3.931 -49.941,-11.794c-14.375,-7.863 -25.432,-19.105 -33.172,-33.725c-7.74,-14.62 -11.61,-31.758 -11.61,-51.416c0,-19.657 3.87,-36.795 11.61,-51.415c7.74,-14.62 18.797,-25.862 33.172,-33.725c14.374,-7.863 31.021,-11.794 49.941,-11.794c18.675,0 35.138,3.931 49.389,11.794c14.251,7.863 25.247,19.105 32.987,33.725c7.74,14.62 11.61,31.758 11.61,51.415c0,19.658 -3.87,36.796 -11.61,51.416c-7.74,14.62 -18.736,25.862 -32.987,33.725c-14.251,7.863 -30.714,11.794 -49.389,11.794Zm-0.368,-36.12c15.725,0 27.704,-5.099 35.936,-15.296c8.231,-10.197 12.347,-25.37 12.347,-45.519c0,-19.902 -4.177,-35.075 -12.532,-45.518c-8.354,-10.443 -20.148,-15.665 -35.383,-15.665c-15.48,0 -27.397,5.222 -35.751,15.665c-8.355,10.443 -12.532,25.616 -12.532,45.518c0,20.149 4.116,35.322 12.347,45.519c8.232,10.197 20.088,15.296 35.568,15.296Z" style="fill:#fff;fill-rule:nonzero;"/><path d="M1136.42,2382.28c44.474,0 66.711,25.554 66.711,76.663l0,114.258l-46.071,0l0,-112.047c0,-14.742 -2.826,-25.493 -8.477,-32.25c-5.652,-6.757 -14.375,-10.135 -26.169,-10.135c-14.006,0 -25.309,4.484 -33.909,13.452c-8.6,8.969 -12.9,20.825 -12.9,35.568l0,105.412l-45.703,0l0,-133.424c0,-19.657 -0.983,-37.226 -2.948,-52.706l43.123,0l3.317,30.592c6.388,-11.303 15.05,-20.026 25.984,-26.169c10.934,-6.143 23.282,-9.214 37.042,-9.214Z" style="fill:#fff;fill-rule:nonzero;"/><path d="M1310.76,2421.72l0,83.298c0,21.868 10.197,32.803 30.591,32.803c5.652,0 11.794,-0.983 18.429,-2.949l0,36.489c-8.109,2.948 -17.937,4.423 -29.486,4.423c-21.132,0 -37.349,-5.898 -48.652,-17.692c-11.303,-11.794 -16.954,-28.749 -16.954,-50.863l0,-85.509l-35.752,0l0,-34.646l35.752,0l0,-45.334l46.072,-15.48l0,60.814l49.388,0l0,34.646l-49.388,0Z" style="fill:#fff;fill-rule:nonzero;"/><path d="M1492.09,2382.65c7.126,0 13.269,0.983 18.429,2.949l-0.369,42.017c-7.862,-3.194 -15.971,-4.791 -24.325,-4.791c-15.726,0 -27.705,4.546 -35.936,13.637c-8.232,9.092 -12.347,21.132 -12.347,36.12l0,100.621l-45.703,0l0,-133.424c0,-19.657 -0.983,-37.226 -2.949,-52.706l43.123,0l3.686,32.803c4.668,-12.04 12.04,-21.254 22.114,-27.643c10.074,-6.388 21.5,-9.583 34.277,-9.583Z" style="fill:#fff;fill-rule:nonzero;"/><path d="M1617.04,2576.15c-18.921,0 -35.568,-3.931 -49.942,-11.794c-14.374,-7.863 -25.432,-19.105 -33.172,-33.725c-7.74,-14.62 -11.61,-31.758 -11.61,-51.416c0,-19.657 3.87,-36.795 11.61,-51.415c7.74,-14.62 18.798,-25.862 33.172,-33.725c14.374,-7.863 31.021,-11.794 49.942,-11.794c18.674,0 35.137,3.931 49.388,11.794c14.252,7.863 25.248,19.105 32.988,33.725c7.74,14.62 11.61,31.758 11.61,51.415c0,19.658 -3.87,36.796 -11.61,51.416c-7.74,14.62 -18.736,25.862 -32.988,33.725c-14.251,7.863 -30.714,11.794 -49.388,11.794Zm-0.369,-36.12c15.726,0 27.704,-5.099 35.936,-15.296c8.231,-10.197 12.347,-25.37 12.347,-45.519c0,-19.902 -4.177,-35.075 -12.531,-45.518c-8.355,-10.443 -20.149,-15.665 -35.383,-15.665c-15.481,0 -27.398,5.222 -35.752,15.665c-8.354,10.443 -12.531,25.616 -12.531,45.518c0,20.149 4.115,35.322 12.347,45.519c8.231,10.197 20.087,15.296 35.567,15.296Z" style="fill:#fff;fill-rule:nonzero;"/><rect x="1750.83" y="2301.94" width="45.703" height="271.27" style="fill:#fff;fill-rule:nonzero;"/><rect x="1951.33" y="2310.78" width="47.546" height="262.424" style="fill:#fff;fill-rule:nonzero;"/><path d="M2158.84,2382.28c44.475,0 66.712,25.554 66.712,76.663l0,114.258l-46.071,0l0,-112.047c0,-14.742 -2.826,-25.493 -8.478,-32.25c-5.651,-6.757 -14.374,-10.135 -26.168,-10.135c-14.006,0 -25.309,4.484 -33.909,13.452c-8.6,8.969 -12.9,20.825 -12.9,35.568l0,105.412l-45.703,0l0,-133.424c0,-19.657 -0.983,-37.226 -2.949,-52.706l43.123,0l3.318,30.592c6.388,-11.303 15.05,-20.026 25.984,-26.169c10.934,-6.143 23.281,-9.214 37.041,-9.214Z" style="fill:#fff;fill-rule:nonzero;"/><path d="M2274.57,2573.21l0,-186.13l45.703,0l0,186.13l-45.703,0Zm-2.948,-270.533l51.231,0l0,45.335l-51.231,0l0,-45.335Z" style="fill:#fff;fill-rule:nonzero;"/><path d="M2429.37,2421.72l0,83.298c0,21.868 10.197,32.803 30.591,32.803c5.652,0 11.795,-0.983 18.429,-2.949l0,36.489c-8.109,2.948 -17.937,4.423 -29.486,4.423c-21.131,0 -37.348,-5.898 -48.651,-17.692c-11.303,-11.794 -16.955,-28.749 -16.955,-50.863l0,-85.509l-35.751,0l0,-34.646l35.751,0l0,-45.334l46.072,-15.48l0,60.814l49.389,0l0,34.646l-49.389,0Z" style="fill:#fff;fill-rule:nonzero;"/><path d="M2510.46,2573.21l0,-186.13l45.703,0l0,186.13l-45.703,0Zm-2.949,-270.533l51.232,0l0,45.335l-51.232,0l0,-45.335Z" style="fill:#fff;fill-rule:nonzero;"/><path d="M2784.68,2387.08l0,186.13l-45.334,0l0,-29.855c-5.652,10.32 -13.76,18.367 -24.326,24.142c-10.566,5.774 -22.606,8.661 -36.12,8.661c-16.218,0 -30.592,-3.931 -43.123,-11.794c-12.532,-7.863 -22.238,-19.043 -29.118,-33.54c-6.88,-14.498 -10.32,-31.329 -10.32,-50.495c0,-19.166 3.502,-36.181 10.505,-51.047c7.003,-14.866 16.77,-26.414 29.301,-34.646c12.532,-8.231 26.783,-12.347 42.755,-12.347c13.514,0 25.554,2.887 36.12,8.661c10.566,5.775 18.674,13.822 24.326,24.142l0,-28.012l45.334,0Zm-93.249,152.958c15.234,0 27.029,-5.283 35.383,-15.849c8.354,-10.565 12.532,-25.431 12.532,-44.597c0,-19.657 -4.178,-34.769 -12.532,-45.334c-8.354,-10.566 -20.271,-15.849 -35.751,-15.849c-15.235,0 -27.091,5.467 -35.568,16.401c-8.477,10.935 -12.716,26.108 -12.716,45.519c0,19.166 4.239,33.909 12.716,44.229c8.477,10.32 20.456,15.48 35.936,15.48Z" style="fill:#fff;fill-rule:nonzero;"/><path d="M2893.41,2421.72l0,83.298c0,21.868 10.197,32.803 30.591,32.803c5.652,0 11.795,-0.983 18.429,-2.949l0,36.489c-8.108,2.948 -17.937,4.423 -29.486,4.423c-21.131,0 -37.348,-5.898 -48.651,-17.692c-11.303,-11.794 -16.955,-28.749 -16.955,-50.863l0,-85.509l-35.751,0l0,-34.646l35.751,0l0,-45.334l46.072,-15.48l0,60.814l49.389,0l0,34.646l-49.389,0Z" style="fill:#fff;fill-rule:nonzero;"/><path d="M2974.49,2573.21l0,-186.13l45.703,0l0,186.13l-45.703,0Zm-2.949,-270.533l51.232,0l0,45.335l-51.232,0l0,-45.335Z" style="fill:#fff;fill-rule:nonzero;"/><path d="M3201.16,2387.45l45.703,0l-81.454,185.761l-40.175,0l-80.349,-185.761l48.283,0l53.443,133.423l54.549,-133.423Z" style="fill:#fff;fill-rule:nonzero;"/><path d="M3430.42,2482.54l-128.263,0c0.983,19.903 5.959,34.584 14.927,44.044c8.969,9.46 22.299,14.19 39.99,14.19c20.395,0 39.315,-6.634 56.761,-19.903l13.268,31.697c-8.845,7.126 -19.718,12.839 -32.618,17.139c-12.9,4.3 -25.985,6.45 -39.253,6.45c-30.469,0 -54.426,-8.6 -71.872,-25.8c-17.446,-17.2 -26.169,-40.789 -26.169,-70.766c0,-18.92 3.809,-35.751 11.426,-50.494c7.617,-14.743 18.306,-26.23 32.066,-34.462c13.76,-8.231 29.363,-12.347 46.809,-12.347c25.554,0 45.764,8.293 60.63,24.879c14.866,16.585 22.298,39.375 22.298,68.37l0,7.003Zm-81.823,-67.081c-12.285,0 -22.298,3.625 -30.038,10.873c-7.74,7.249 -12.716,17.753 -14.928,31.513l86.615,0c-1.474,-14.005 -5.713,-24.571 -12.716,-31.697c-7.003,-7.126 -16.647,-10.689 -28.933,-10.689Z" style="fill:#fff;fill-rule:nonzero;"/></g><g><rect x="335.04" y="363.314" width="267.583" height="1106.32" style="fill:#fff;fill-rule:nonzero;"/><path d="M1821.61,363.314l0,1106.32l-269.147,0l0,-461.62l-419.37,0l0,461.62l-267.583,0l0,-1106.32l267.583,0l0,428.758l419.37,0l0,-428.758l269.147,0Z" style="fill:#fff;fill-rule:nonzero;"/><rect x="3397.38" y="363.314" width="267.583" height="1106.32" style="fill:#fff;fill-rule:nonzero;"/><path d="M3157.63,1034.38c-11.784,61.015 -32.799,117.948 -63.046,170.801c-49.552,86.586 -116.839,154.134 -201.861,202.643c-85.021,48.509 -179.171,72.764 -282.448,72.764c-103.278,0 -197.427,-24.255 -282.449,-72.764c-85.021,-48.509 -152.308,-116.057 -201.861,-202.643c-49.552,-86.587 -74.328,-184.127 -74.328,-292.62c0,-108.494 24.776,-205.773 74.328,-291.838c49.553,-86.064 116.84,-153.351 201.861,-201.861c85.022,-48.509 179.171,-72.763 282.449,-72.763c104.321,0 198.992,24.254 284.013,72.763c85.022,48.51 152.048,115.797 201.079,201.861c38.264,67.167 61.598,141.164 69.999,221.99l-185.203,0c1.114,-61.123 -18.048,-113.588 -57.487,-148.238c-76.709,-67.399 -230.127,-67.399 -306.835,12.961c-76.709,-80.36 -230.126,-80.36 -306.835,-12.961c-76.709,67.398 -76.709,202.194 0,336.99c53.696,101.097 191.771,202.194 306.835,269.592c113.955,-66.749 250.482,-166.552 305.262,-266.677l236.527,0Z" style="fill:#fff;fill-rule:nonzero;"/></g></svg>