<?xml version="1.0" encoding="UTF-8" standalone="no"?><!DOCTYPE svg PUBLIC "-//W3C//DTD SVG 1.1//EN" "http://www.w3.org/Graphics/SVG/1.1/DTD/svg11.dtd"><svg width="100%" height="100%" viewBox="0 0 4005 1821" version="1.1" xmlns="http://www.w3.org/2000/svg" xmlns:xlink="http://www.w3.org/1999/xlink" xml:space="preserve" xmlns:serif="http://www.serif.com/" style="fill-rule:evenodd;clip-rule:evenodd;stroke-linejoin:round;stroke-miterlimit:2;"><rect id="IHCI-Logo-Standalone-White" x="3.923" y="2.978" width="4000" height="1816.67" style="fill:none;"/><g><rect x="338.962" y="363.314" width="267.583" height="1106.32" style="fill:#fff;fill-rule:nonzero;"/><path d="M1825.53,363.314l0,1106.32l-269.148,0l0,-461.62l-419.369,0l0,461.62l-267.583,0l0,-1106.32l267.583,0l0,428.758l419.369,0l0,-428.758l269.148,0Z" style="fill:#fff;fill-rule:nonzero;"/><rect x="3401.3" y="363.314" width="267.583" height="1106.32" style="fill:#fff;fill-rule:nonzero;"/><path d="M3161.56,1034.38c-11.784,61.015 -32.799,117.948 -63.046,170.801c-49.553,86.586 -116.84,154.134 -201.861,202.643c-85.021,48.509 -179.171,72.764 -282.449,72.764c-103.277,0 -197.427,-24.255 -282.448,-72.764c-85.022,-48.509 -152.309,-116.057 -201.861,-202.643c-49.552,-86.587 -74.329,-184.127 -74.329,-292.62c0,-108.494 24.777,-205.773 74.329,-291.838c49.552,-86.064 116.839,-153.351 201.861,-201.861c85.021,-48.509 179.171,-72.763 282.448,-72.763c104.321,0 198.992,24.254 284.014,72.763c85.021,48.51 152.047,115.797 201.078,201.861c38.265,67.167 61.598,141.164 70,221.99l-185.204,0c1.115,-61.123 -18.048,-113.588 -57.487,-148.238c-76.709,-67.399 -230.126,-67.399 -306.835,12.961c-76.709,-80.36 -230.126,-80.36 -306.835,-12.961c-76.709,67.398 -76.709,202.194 0,336.99c53.697,101.097 191.772,202.194 306.835,269.592c113.956,-66.749 250.483,-166.552 305.263,-266.677l236.527,0Z" style="fill:#fff;fill-rule:nonzero;"/></g></svg>