<?xml version="1.0" encoding="UTF-8" standalone="no"?><!DOCTYPE svg PUBLIC "-//W3C//DTD SVG 1.1//EN" "http://www.w3.org/Graphics/SVG/1.1/DTD/svg11.dtd"><svg width="100%" height="100%" viewBox="0 0 401 220" version="1.1" xmlns="http://www.w3.org/2000/svg" xmlns:xlink="http://www.w3.org/1999/xlink" xml:space="preserve" xmlns:serif="http://www.serif.com/" style="fill-rule:evenodd;clip-rule:evenodd;stroke-linejoin:round;stroke-miterlimit:1.41421;"><rect id="PMEP-Logo-RGB" x="0.975" y="0" width="400" height="220" style="fill:none;"/><g><g><g><path d="M68.823,120.327l-17.356,0l0,-75.935c1.302,0 4.972,-0.036 11.01,-0.108c6.039,-0.073 10.107,-0.109 12.204,-0.109c10.776,0 18.586,2.369 23.431,7.105c4.846,4.737 7.268,10.758 7.268,18.062c0,7.087 -2.567,13.108 -7.701,18.062c-5.135,4.953 -11.933,7.43 -20.394,7.43c-3.833,0 -6.654,-0.108 -8.462,-0.325l0,25.818Zm7.594,-59.88c-0.289,0 -2.821,0.072 -7.594,0.217l0,17.356c2.749,0.362 5.388,0.543 7.919,0.543c2.748,0 5.135,-0.724 7.16,-2.17c2.025,-1.446 3.037,-3.833 3.037,-7.159c0,-5.858 -3.507,-8.787 -10.522,-8.787Z" style="fill:#565472;fill-rule:nonzero;"/><path d="M124.907,120.327l0,-75.935l17.464,0l23.432,32.001l22.129,-32.001l16.38,0l0,75.935l-17.356,0l0,-50.432l-21.153,31.665l-2.495,0l-21.045,-29.289l0,48.056l-17.356,0Z" style="fill:#565472;fill-rule:nonzero;"/><clipPath id="_clip1"><path d="M124.907,120.327l0,-75.935l17.464,0l23.432,32.001l22.129,-32.001l16.38,0l0,75.935l-17.356,0l0,-50.432l-21.153,31.665l-2.495,0l-21.045,-29.289l0,48.056l-17.356,0Z" clip-rule="nonzero"/></clipPath><g clip-path="url(#_clip1)"><path d="M209.223,42.612l-24.007,0l0,55.708l22.007,-34.01l2,-21.698Z" style="fill:#302f40;"/><path d="M165.196,31.064l-22.899,0l0,50.015l22.362,1.172l0.537,-51.187Z" style="fill:#302f40;"/></g><path d="M229.262,120.327l0,-75.935l45.019,0l0,16.272l-27.662,0l0,13.343l24.407,0l0,16.271l-24.407,0l0,13.777l28.747,0l0,16.272l-46.104,0Z" style="fill:#565472;fill-rule:nonzero;"/><path d="M314.418,120.327l-17.357,0l0,-75.935c1.302,0 4.972,-0.036 11.011,-0.108c6.038,-0.073 10.106,-0.109 12.203,-0.109c10.776,0 18.586,2.369 23.432,7.105c4.845,4.737 7.268,10.758 7.268,18.062c0,7.087 -2.568,13.108 -7.702,18.062c-5.135,4.953 -11.933,7.43 -20.394,7.43c-3.833,0 -6.653,-0.108 -8.461,-0.325l0,25.818Zm7.593,-59.88c-0.289,0 -2.82,0.072 -7.593,0.217l0,17.356c2.748,0.362 5.387,0.543 7.919,0.543c2.748,0 5.134,-0.724 7.159,-2.17c2.025,-1.446 3.037,-3.833 3.037,-7.159c0,-5.858 -3.507,-8.787 -10.522,-8.787Z" style="fill:#565472;fill-rule:nonzero;"/></g><path d="M142.28,72.321l23.22,-0.008l12.004,-30.009l36.515,-12.262l-48.127,71.664l-1.283,4.342l-21.736,-29.774l-0.593,-3.953Z" style="fill:none;"/><clipPath id="_clip2"><path d="M142.28,72.321l23.22,-0.008l12.004,-30.009l36.515,-12.262l-48.127,71.664l-1.283,4.342l-21.736,-29.774l-0.593,-3.953Z"/></clipPath><g clip-path="url(#_clip2)"><g><path d="M124.907,120.327l0,-75.935l17.464,0l23.432,32.001l22.129,-32.001l16.38,0l0,75.935l-17.356,0l0,-49.799l-21.153,31.032l-2.495,0l-21.045,-29.289l0,48.056l-17.356,0Z" style="fill:#38d20d;fill-rule:nonzero;"/><path d="M124.907,120.327l0,-75.935l17.464,0l23.432,32.001l22.129,-32.001l16.38,0l0,75.935l-17.356,0l0,-49.799l-21.153,31.032l-2.495,0l-21.045,-29.289l0,48.056l-17.356,0Z" style="fill:#38d20d;fill-rule:nonzero;"/></g></g></g><g><path d="M54.297,154.427l-3.322,0l0,-18.905c0.324,0 1.184,-0.009 2.579,-0.027c1.395,-0.018 2.327,-0.027 2.795,-0.027c1.333,0 2.49,0.166 3.471,0.499c0.981,0.333 1.742,0.792 2.282,1.378c0.54,0.585 0.936,1.224 1.188,1.917c0.252,0.693 0.378,1.454 0.378,2.282c0,1.711 -0.612,3.16 -1.836,4.349c-1.224,1.188 -2.917,1.782 -5.078,1.782c-1.098,0 -1.917,-0.027 -2.457,-0.081l0,6.833Zm2.376,-15.854c-0.396,0 -1.188,0.018 -2.376,0.054l0,5.807c0.864,0.09 1.647,0.135 2.349,0.135c1.045,0 1.891,-0.256 2.539,-0.77c0.648,-0.513 0.972,-1.273 0.972,-2.282c0,-1.962 -1.161,-2.944 -3.484,-2.944Z" style="fill:#565472;fill-rule:nonzero;"/><path d="M65.802,154.427l0,-12.153l3.106,0l0,1.188c0.684,-0.936 1.611,-1.405 2.782,-1.405c0.846,0 1.476,0.154 1.89,0.46l-1.107,2.916c-0.522,-0.306 -1.044,-0.459 -1.566,-0.459c-0.901,0 -1.567,0.432 -1.999,1.297l0,8.156l-3.106,0Z" style="fill:#565472;fill-rule:nonzero;"/><path d="M76.551,152.942c-1.206,-1.207 -1.809,-2.737 -1.809,-4.592c0,-1.854 0.607,-3.38 1.823,-4.578c1.215,-1.197 2.813,-1.796 4.794,-1.796c1.98,0 3.578,0.599 4.794,1.796c1.215,1.198 1.823,2.724 1.823,4.578c0,1.855 -0.608,3.381 -1.823,4.578c-1.216,1.198 -2.814,1.796 -4.794,1.796c-1.981,0 -3.583,-0.594 -4.808,-1.782Zm1.513,-4.592c0,1.009 0.31,1.841 0.931,2.499c0.622,0.657 1.409,0.985 2.364,0.985c0.972,0 1.769,-0.319 2.39,-0.958c0.621,-0.64 0.932,-1.481 0.932,-2.526c0,-1.008 -0.315,-1.836 -0.946,-2.484c-0.63,-0.649 -1.422,-0.973 -2.376,-0.973c-0.937,0 -1.72,0.32 -2.35,0.959c-0.63,0.639 -0.945,1.472 -0.945,2.498Z" style="fill:#565472;fill-rule:nonzero;"/><path d="M89.218,156.075c0,-0.973 0.356,-1.778 1.067,-2.418c0.711,-0.639 1.67,-1.084 2.876,-1.337c-0.144,-0.252 -0.216,-0.531 -0.216,-0.837c0,-0.342 0.09,-0.63 0.27,-0.864c-0.9,-0.36 -1.607,-0.905 -2.12,-1.634c-0.513,-0.729 -0.77,-1.544 -0.77,-2.444c0,-1.261 0.477,-2.336 1.432,-3.228c0.954,-0.891 2.205,-1.337 3.754,-1.337c1.17,0 2.205,0.289 3.106,0.865l3.673,-0.811l0.108,2.485l-2.026,0.459c0.198,0.504 0.297,1.027 0.297,1.567c0,1.242 -0.477,2.3 -1.431,3.173c-0.954,0.873 -2.197,1.31 -3.727,1.31l-0.216,0c-0.036,0.108 -0.054,0.261 -0.054,0.459c0,0.234 0.054,0.441 0.162,0.621l0.135,0c1.872,0 3.394,0.334 4.564,1c1.171,0.666 1.756,1.656 1.756,2.971c0,1.314 -0.585,2.304 -1.756,2.97c-1.17,0.667 -2.692,1 -4.564,1c-1.891,0 -3.417,-0.329 -4.578,-0.986c-1.161,-0.657 -1.742,-1.652 -1.742,-2.984Zm2.89,0c0,0.468 0.306,0.832 0.918,1.093c0.612,0.261 1.45,0.392 2.512,0.392c2.269,0 3.403,-0.495 3.403,-1.485c0,-0.451 -0.293,-0.811 -0.878,-1.081c-0.585,-0.27 -1.427,-0.405 -2.525,-0.405c-1.08,0 -1.922,0.135 -2.525,0.405c-0.604,0.27 -0.905,0.63 -0.905,1.081Zm1.755,-10.993c-0.414,0.396 -0.621,0.883 -0.621,1.459c0,0.576 0.207,1.049 0.621,1.418c0.414,0.369 0.964,0.553 1.648,0.553c0.666,0 1.211,-0.18 1.634,-0.54c0.423,-0.36 0.634,-0.837 0.634,-1.431c0,-0.594 -0.202,-1.085 -0.607,-1.472c-0.405,-0.387 -0.959,-0.581 -1.661,-0.581c-0.684,0 -1.234,0.198 -1.648,0.594Z" style="fill:#565472;fill-rule:nonzero;"/><path d="M104.423,154.427l0,-12.153l3.106,0l0,1.188c0.685,-0.936 1.612,-1.405 2.782,-1.405c0.846,0 1.477,0.154 1.891,0.46l-1.108,2.916c-0.522,-0.306 -1.044,-0.459 -1.566,-0.459c-0.9,0 -1.567,0.432 -1.999,1.297l0,8.156l-3.106,0Z" style="fill:#565472;fill-rule:nonzero;"/><path d="M115.065,145.406l-0.784,-2.268c1.315,-0.774 2.746,-1.162 4.295,-1.162c1.728,0 2.97,0.424 3.727,1.27c0.756,0.846 1.134,2.106 1.134,3.781l0,7.4l-2.701,0l0,-1.404c-0.738,1.044 -1.935,1.566 -3.592,1.566c-1.134,0 -2.052,-0.333 -2.755,-0.999c-0.702,-0.666 -1.053,-1.576 -1.053,-2.728c0,-1.278 0.414,-2.255 1.242,-2.93c0.829,-0.675 1.891,-1.013 3.187,-1.013c1.117,0 2.035,0.261 2.755,0.783c0.036,-1.062 -0.117,-1.85 -0.459,-2.363c-0.342,-0.513 -0.945,-0.77 -1.809,-0.77c-0.901,0 -1.963,0.279 -3.187,0.837Zm3.105,6.563c1.045,0 1.828,-0.369 2.35,-1.107l0,-1.242c-0.522,-0.396 -1.233,-0.594 -2.133,-0.594c-0.559,0 -1.022,0.13 -1.391,0.391c-0.369,0.261 -0.554,0.635 -0.554,1.121c0,0.45 0.162,0.801 0.486,1.053c0.324,0.252 0.738,0.378 1.242,0.378Z" style="fill:#565472;fill-rule:nonzero;"/><path d="M145.205,146.487l0,7.94l-3.105,0l0,-7.13c0,-1.548 -0.694,-2.323 -2.08,-2.323c-1.188,0 -2.026,0.468 -2.512,1.405c0,0.054 0.005,0.193 0.014,0.418c0.009,0.225 0.013,0.383 0.013,0.473l0,7.157l-3.106,0l0,-7.346c0,-0.648 -0.175,-1.161 -0.526,-1.54c-0.351,-0.378 -0.851,-0.567 -1.499,-0.567c-1.117,0 -1.963,0.432 -2.539,1.297l0,8.156l-3.106,0l0,-12.153l3.106,0l0,1.35c0.936,-1.044 2.206,-1.567 3.808,-1.567c0.9,0 1.657,0.181 2.269,0.541c0.612,0.36 1.035,0.828 1.269,1.404c0.99,-1.296 2.359,-1.945 4.105,-1.945c2.593,0 3.889,1.477 3.889,4.43Z" style="fill:#565472;fill-rule:nonzero;"/><path d="M155.252,154.427l0,-18.905l3.349,0l6.455,8.831l6.158,-8.831l3.133,0l0,18.905l-3.295,0l0,-13.666l-5.969,8.4l-0.486,0l-6.023,-8.319l0,13.585l-3.322,0Z" style="fill:#565472;fill-rule:nonzero;"/><path d="M179.776,145.406l-0.784,-2.268c1.315,-0.774 2.746,-1.162 4.295,-1.162c1.728,0 2.971,0.424 3.727,1.27c0.756,0.846 1.134,2.106 1.134,3.781l0,7.4l-2.701,0l0,-1.404c-0.738,1.044 -1.935,1.566 -3.592,1.566c-1.134,0 -2.052,-0.333 -2.755,-0.999c-0.702,-0.666 -1.053,-1.576 -1.053,-2.728c0,-1.278 0.414,-2.255 1.242,-2.93c0.829,-0.675 1.891,-1.013 3.187,-1.013c1.117,0 2.035,0.261 2.755,0.783c0.036,-1.062 -0.117,-1.85 -0.459,-2.363c-0.342,-0.513 -0.945,-0.77 -1.809,-0.77c-0.901,0 -1.963,0.279 -3.187,0.837Zm3.106,6.563c1.044,0 1.827,-0.369 2.349,-1.107l0,-1.242c-0.522,-0.396 -1.233,-0.594 -2.133,-0.594c-0.559,0 -1.022,0.13 -1.391,0.391c-0.369,0.261 -0.554,0.635 -0.554,1.121c0,0.45 0.162,0.801 0.486,1.053c0.324,0.252 0.738,0.378 1.243,0.378Z" style="fill:#565472;fill-rule:nonzero;"/><path d="M191.47,154.427l0,-12.153l3.106,0l0,1.215c0.882,-0.954 2.044,-1.432 3.484,-1.432c3.331,0 4.996,1.747 4.996,5.24l0,7.13l-3.105,0l0,-6.59c0,-1.908 -0.91,-2.863 -2.728,-2.863c-0.991,0 -1.873,0.387 -2.647,1.162l0,8.291l-3.106,0Z" style="fill:#565472;fill-rule:nonzero;"/><path d="M207.297,145.406l-0.783,-2.268c1.314,-0.774 2.745,-1.162 4.294,-1.162c1.728,0 2.971,0.424 3.727,1.27c0.756,0.846 1.134,2.106 1.134,3.781l0,7.4l-2.701,0l0,-1.404c-0.738,1.044 -1.935,1.566 -3.592,1.566c-1.134,0 -2.052,-0.333 -2.754,-0.999c-0.703,-0.666 -1.054,-1.576 -1.054,-2.728c0,-1.278 0.414,-2.255 1.243,-2.93c0.828,-0.675 1.89,-1.013 3.187,-1.013c1.116,0 2.034,0.261 2.754,0.783c0.036,-1.062 -0.117,-1.85 -0.459,-2.363c-0.342,-0.513 -0.945,-0.77 -1.809,-0.77c-0.901,0 -1.963,0.279 -3.187,0.837Zm3.106,6.563c1.044,0 1.827,-0.369 2.349,-1.107l0,-1.242c-0.522,-0.396 -1.233,-0.594 -2.133,-0.594c-0.558,0 -1.022,0.13 -1.391,0.391c-0.369,0.261 -0.554,0.635 -0.554,1.121c0,0.45 0.162,0.801 0.486,1.053c0.324,0.252 0.739,0.378 1.243,0.378Z" style="fill:#565472;fill-rule:nonzero;"/><path d="M217.398,156.075c0,-0.973 0.355,-1.778 1.067,-2.418c0.711,-0.639 1.67,-1.084 2.876,-1.337c-0.144,-0.252 -0.216,-0.531 -0.216,-0.837c0,-0.342 0.09,-0.63 0.27,-0.864c-0.9,-0.36 -1.607,-0.905 -2.12,-1.634c-0.513,-0.729 -0.77,-1.544 -0.77,-2.444c0,-1.261 0.477,-2.336 1.431,-3.228c0.955,-0.891 2.206,-1.337 3.755,-1.337c1.17,0 2.205,0.289 3.105,0.865l3.674,-0.811l0.108,2.485l-2.026,0.459c0.198,0.504 0.297,1.027 0.297,1.567c0,1.242 -0.477,2.3 -1.431,3.173c-0.955,0.873 -2.197,1.31 -3.727,1.31l-0.216,0c-0.037,0.108 -0.055,0.261 -0.055,0.459c0,0.234 0.055,0.441 0.163,0.621l0.135,0c1.872,0 3.394,0.334 4.564,1c1.17,0.666 1.755,1.656 1.755,2.971c0,1.314 -0.585,2.304 -1.755,2.97c-1.17,0.667 -2.692,1 -4.564,1c-1.891,0 -3.417,-0.329 -4.578,-0.986c-1.162,-0.657 -1.742,-1.652 -1.742,-2.984Zm2.89,0c0,0.468 0.306,0.832 0.918,1.093c0.612,0.261 1.449,0.392 2.512,0.392c2.268,0 3.403,-0.495 3.403,-1.485c0,-0.451 -0.293,-0.811 -0.878,-1.081c-0.585,-0.27 -1.427,-0.405 -2.525,-0.405c-1.081,0 -1.922,0.135 -2.526,0.405c-0.603,0.27 -0.904,0.63 -0.904,1.081Zm1.755,-10.993c-0.414,0.396 -0.621,0.883 -0.621,1.459c0,0.576 0.207,1.049 0.621,1.418c0.414,0.369 0.963,0.553 1.648,0.553c0.666,0 1.21,-0.18 1.634,-0.54c0.423,-0.36 0.634,-0.837 0.634,-1.431c0,-0.594 -0.202,-1.085 -0.607,-1.472c-0.406,-0.387 -0.959,-0.581 -1.661,-0.581c-0.685,0 -1.234,0.198 -1.648,0.594Z" style="fill:#565472;fill-rule:nonzero;"/><path d="M242.137,151.024l0.891,2.188c-1.188,1.008 -2.737,1.512 -4.645,1.512c-1.963,0 -3.543,-0.585 -4.74,-1.755c-1.197,-1.171 -1.796,-2.71 -1.796,-4.619c0,-1.818 0.585,-3.335 1.755,-4.551c1.171,-1.215 2.728,-1.823 4.673,-1.823c1.602,0 2.962,0.527 4.078,1.58c1.116,1.054 1.675,2.409 1.675,4.065c0,0.684 -0.063,1.242 -0.189,1.675l-8.778,0c0.126,0.9 0.522,1.598 1.188,2.093c0.666,0.495 1.486,0.742 2.458,0.742c1.368,0 2.512,-0.369 3.43,-1.107Zm-3.997,-6.455c-1.765,0 -2.827,0.882 -3.187,2.647l5.969,0c0.018,-0.756 -0.225,-1.386 -0.73,-1.891c-0.504,-0.504 -1.188,-0.756 -2.052,-0.756Z" style="fill:#565472;fill-rule:nonzero;"/><path d="M265.121,146.487l0,7.94l-3.106,0l0,-7.13c0,-1.548 -0.693,-2.323 -2.08,-2.323c-1.188,0 -2.025,0.468 -2.511,1.405c0,0.054 0.004,0.193 0.013,0.418c0.009,0.225 0.014,0.383 0.014,0.473l0,7.157l-3.106,0l0,-7.346c0,-0.648 -0.176,-1.161 -0.527,-1.54c-0.351,-0.378 -0.851,-0.567 -1.499,-0.567c-1.116,0 -1.963,0.432 -2.539,1.297l0,8.156l-3.106,0l0,-12.153l3.106,0l0,1.35c0.937,-1.044 2.206,-1.567 3.808,-1.567c0.901,0 1.657,0.181 2.269,0.541c0.612,0.36 1.035,0.828 1.269,1.404c0.991,-1.296 2.359,-1.945 4.106,-1.945c2.592,0 3.889,1.477 3.889,4.43Z" style="fill:#565472;fill-rule:nonzero;"/><path d="M277.95,151.024l0.891,2.188c-1.189,1.008 -2.737,1.512 -4.646,1.512c-1.962,0 -3.542,-0.585 -4.739,-1.755c-1.198,-1.171 -1.796,-2.71 -1.796,-4.619c0,-1.818 0.585,-3.335 1.755,-4.551c1.17,-1.215 2.728,-1.823 4.672,-1.823c1.603,0 2.962,0.527 4.079,1.58c1.116,1.054 1.674,2.409 1.674,4.065c0,0.684 -0.063,1.242 -0.189,1.675l-8.778,0c0.127,0.9 0.523,1.598 1.189,2.093c0.666,0.495 1.485,0.742 2.458,0.742c1.368,0 2.511,-0.369 3.43,-1.107Zm-3.998,-6.455c-1.764,0 -2.826,0.882 -3.187,2.647l5.969,0c0.018,-0.756 -0.225,-1.386 -0.729,-1.891c-0.504,-0.504 -1.188,-0.756 -2.053,-0.756Z" style="fill:#565472;fill-rule:nonzero;"/><path d="M282.487,154.427l0,-12.153l3.106,0l0,1.215c0.882,-0.954 2.043,-1.432 3.484,-1.432c3.331,0 4.996,1.747 4.996,5.24l0,7.13l-3.106,0l0,-6.59c0,-1.908 -0.909,-2.863 -2.727,-2.863c-0.991,0 -1.873,0.387 -2.647,1.162l0,8.291l-3.106,0Z" style="fill:#565472;fill-rule:nonzero;"/><path d="M297.098,149.809l0,-10.911l3.106,0l0,3.376l3.916,0l0,2.916l-3.916,0l0,4.43c0,1.458 0.486,2.187 1.459,2.187c0.612,0 1.233,-0.234 1.863,-0.702l0.945,2.404c-0.972,0.792 -2.169,1.188 -3.592,1.188c-1.332,0 -2.295,-0.409 -2.89,-1.229c-0.594,-0.819 -0.891,-2.039 -0.891,-3.659Z" style="fill:#565472;fill-rule:nonzero;"/><path d="M313.222,154.427l0,-14.125c0,-1.657 0.378,-2.917 1.134,-3.781c0.756,-0.864 1.819,-1.297 3.187,-1.297c1.549,0 2.683,0.379 3.403,1.135l-1.053,2.376c-0.396,-0.396 -0.99,-0.594 -1.783,-0.594c-1.188,0 -1.782,0.802 -1.782,2.404l0,1.729l3.295,0l0,2.916l-3.295,0l0,9.237l-3.106,0Z" style="fill:#565472;fill-rule:nonzero;"/><path d="M322.918,152.942c-1.207,-1.207 -1.81,-2.737 -1.81,-4.592c0,-1.854 0.608,-3.38 1.823,-4.578c1.216,-1.197 2.814,-1.796 4.794,-1.796c1.981,0 3.579,0.599 4.794,1.796c1.215,1.198 1.823,2.724 1.823,4.578c0,1.855 -0.608,3.381 -1.823,4.578c-1.215,1.198 -2.813,1.796 -4.794,1.796c-1.98,0 -3.583,-0.594 -4.807,-1.782Zm1.512,-4.592c0,1.009 0.311,1.841 0.932,2.499c0.621,0.657 1.409,0.985 2.363,0.985c0.972,0 1.769,-0.319 2.39,-0.958c0.622,-0.64 0.932,-1.481 0.932,-2.526c0,-1.008 -0.315,-1.836 -0.945,-2.484c-0.63,-0.649 -1.423,-0.973 -2.377,-0.973c-0.936,0 -1.719,0.32 -2.349,0.959c-0.631,0.639 -0.946,1.472 -0.946,2.498Z" style="fill:#565472;fill-rule:nonzero;"/><path d="M337.178,154.427l0,-12.153l3.106,0l0,1.188c0.684,-0.936 1.611,-1.405 2.782,-1.405c0.846,0 1.476,0.154 1.89,0.46l-1.107,2.916c-0.522,-0.306 -1.044,-0.459 -1.567,-0.459c-0.9,0 -1.566,0.432 -1.998,1.297l0,8.156l-3.106,0Z" style="fill:#565472;fill-rule:nonzero;"/><path d="M51.033,184.436l0,-19.326l11.181,0l0,3.175l-7.785,0l0,4.804l6.957,0l0,3.175l-6.957,0l0,4.997l8.061,0l0,3.175l-11.457,0Z" style="fill:#565472;fill-rule:nonzero;"/><path d="M66.825,189.958l0,-17.946l3.175,0l0,1.187c0.405,-0.423 0.952,-0.777 1.642,-1.062c0.691,-0.286 1.422,-0.428 2.195,-0.428c1.694,0 3.056,0.589 4.086,1.767c1.031,1.177 1.546,2.696 1.546,4.555c0,1.932 -0.607,3.534 -1.822,4.804c-1.215,1.27 -2.797,1.905 -4.748,1.905c-1.234,0 -2.2,-0.203 -2.899,-0.608l0,5.826l-3.175,0Zm6.018,-15.268c-1.086,0 -2.033,0.451 -2.843,1.353l0,5.025c0.736,0.478 1.61,0.718 2.622,0.718c1.068,0 1.915,-0.346 2.54,-1.036c0.626,-0.69 0.939,-1.569 0.939,-2.636c0,-1.013 -0.285,-1.836 -0.856,-2.471c-0.57,-0.635 -1.371,-0.953 -2.402,-0.953Z" style="fill:#565472;fill-rule:nonzero;"/><path d="M83.528,184.436l0,-12.424l3.175,0l0,12.424l-3.175,0Zm-0.332,-16.896c0,-0.552 0.194,-0.999 0.58,-1.339c0.387,-0.341 0.856,-0.511 1.408,-0.511c0.479,0 0.902,0.17 1.27,0.511c0.368,0.34 0.552,0.787 0.552,1.339c0,0.607 -0.184,1.09 -0.552,1.449c-0.368,0.359 -0.791,0.539 -1.27,0.539c-0.57,0 -1.044,-0.18 -1.422,-0.539c-0.377,-0.359 -0.566,-0.842 -0.566,-1.449Z" style="fill:#565472;fill-rule:nonzero;"/><path d="M100.175,184.436l0,-1.298c-0.957,1.013 -2.144,1.519 -3.561,1.519c-1.767,0 -3.184,-0.575 -4.252,-1.726c-1.067,-1.15 -1.601,-2.673 -1.601,-4.569c0,-1.951 0.635,-3.547 1.905,-4.79c1.27,-1.242 2.908,-1.863 4.914,-1.863c1.049,0 1.914,0.202 2.595,0.607l0,-7.206l3.175,0l0,19.326l-3.175,0Zm-2.898,-2.733c1.085,0 2.052,-0.424 2.898,-1.27l0,-4.997c-0.791,-0.497 -1.61,-0.746 -2.457,-0.746c-0.994,0 -1.836,0.318 -2.526,0.953c-0.69,0.635 -1.035,1.504 -1.035,2.609c0,1.067 0.299,1.909 0.897,2.526c0.598,0.616 1.339,0.925 2.223,0.925Z" style="fill:#565472;fill-rule:nonzero;"/><path d="M117.458,180.957l0.911,2.237c-1.215,1.03 -2.797,1.546 -4.748,1.546c-2.007,0 -3.622,-0.599 -4.846,-1.795c-1.224,-1.196 -1.836,-2.77 -1.836,-4.721c0,-1.859 0.599,-3.409 1.795,-4.652c1.196,-1.242 2.788,-1.863 4.776,-1.863c1.638,0 3.028,0.538 4.169,1.615c1.141,1.076 1.712,2.461 1.712,4.155c0,0.699 -0.065,1.27 -0.194,1.711l-8.972,0c0.129,0.921 0.534,1.634 1.215,2.14c0.681,0.506 1.518,0.759 2.512,0.759c1.399,0 2.567,-0.377 3.506,-1.132Zm-4.086,-6.598c-1.804,0 -2.89,0.902 -3.258,2.706l6.102,0c0.018,-0.773 -0.23,-1.418 -0.746,-1.933c-0.515,-0.515 -1.214,-0.773 -2.098,-0.773Z" style="fill:#565472;fill-rule:nonzero;"/><path d="M141.643,176.319l0,8.117l-3.175,0l0,-7.289c0,-1.582 -0.709,-2.374 -2.126,-2.374c-1.215,0 -2.071,0.479 -2.568,1.436c0,0.055 0.005,0.198 0.014,0.428c0.01,0.23 0.014,0.391 0.014,0.483l0,7.316l-3.175,0l0,-7.509c0,-0.663 -0.179,-1.188 -0.538,-1.574c-0.359,-0.387 -0.87,-0.58 -1.532,-0.58c-1.142,0 -2.007,0.442 -2.596,1.325l0,8.338l-3.175,0l0,-12.424l3.175,0l0,1.381c0.957,-1.068 2.255,-1.602 3.893,-1.602c0.92,0 1.693,0.184 2.319,0.553c0.626,0.368 1.059,0.846 1.298,1.435c1.012,-1.325 2.411,-1.988 4.196,-1.988c2.651,0 3.976,1.51 3.976,4.528Z" style="fill:#565472;fill-rule:nonzero;"/><path d="M146.171,184.436l0,-12.424l3.174,0l0,12.424l-3.174,0Zm-0.332,-16.896c0,-0.552 0.194,-0.999 0.58,-1.339c0.387,-0.341 0.856,-0.511 1.408,-0.511c0.479,0 0.902,0.17 1.27,0.511c0.368,0.34 0.552,0.787 0.552,1.339c0,0.607 -0.184,1.09 -0.552,1.449c-0.368,0.359 -0.791,0.539 -1.27,0.539c-0.571,0 -1.044,-0.18 -1.422,-0.539c-0.377,-0.359 -0.566,-0.842 -0.566,-1.449Z" style="fill:#565472;fill-rule:nonzero;"/><path d="M163.591,180.267l1.491,2.319c-0.515,0.7 -1.21,1.233 -2.084,1.601c-0.875,0.369 -1.827,0.553 -2.858,0.553c-2.024,0 -3.653,-0.599 -4.886,-1.795c-1.234,-1.196 -1.85,-2.77 -1.85,-4.721c0,-1.84 0.607,-3.386 1.822,-4.638c1.215,-1.252 2.752,-1.877 4.611,-1.877c2.208,0 3.874,0.561 4.997,1.684l-1.491,2.512c-0.828,-0.81 -1.859,-1.215 -3.092,-1.215c-0.921,0 -1.726,0.327 -2.416,0.98c-0.69,0.654 -1.035,1.505 -1.035,2.554c0,1.068 0.354,1.928 1.063,2.581c0.708,0.654 1.55,0.981 2.526,0.981c1.214,0 2.282,-0.507 3.202,-1.519Z" style="fill:#565472;fill-rule:nonzero;"/><path d="M179.438,184.436l-3.395,0l0,-19.326c0.331,0 1.21,-0.009 2.636,-0.027c1.427,-0.019 2.379,-0.028 2.858,-0.028c1.362,0 2.544,0.17 3.547,0.511c1.003,0.34 1.781,0.81 2.333,1.408c0.552,0.598 0.957,1.251 1.215,1.96c0.258,0.709 0.386,1.486 0.386,2.333c0,1.748 -0.625,3.23 -1.877,4.445c-1.252,1.215 -2.982,1.822 -5.19,1.822c-1.123,0 -1.96,-0.028 -2.513,-0.083l0,6.985Zm2.43,-16.206c-0.405,0 -1.215,0.018 -2.43,0.055l0,5.936c0.884,0.092 1.684,0.138 2.402,0.138c1.068,0 1.933,-0.262 2.595,-0.787c0.663,-0.524 0.994,-1.302 0.994,-2.333c0,-2.006 -1.187,-3.009 -3.561,-3.009Z" style="fill:#565472;fill-rule:nonzero;"/><path d="M191.89,184.436l0,-12.424l3.175,0l0,1.215c0.699,-0.957 1.647,-1.436 2.843,-1.436c0.865,0 1.509,0.157 1.933,0.47l-1.132,2.981c-0.534,-0.312 -1.068,-0.469 -1.601,-0.469c-0.921,0 -1.602,0.442 -2.043,1.325l0,8.338l-3.175,0Z" style="fill:#565472;fill-rule:nonzero;"/><path d="M212.237,180.957l0.911,2.237c-1.215,1.03 -2.798,1.546 -4.749,1.546c-2.006,0 -3.621,-0.599 -4.845,-1.795c-1.224,-1.196 -1.836,-2.77 -1.836,-4.721c0,-1.859 0.598,-3.409 1.795,-4.652c1.196,-1.242 2.788,-1.863 4.776,-1.863c1.638,0 3.028,0.538 4.169,1.615c1.141,1.076 1.711,2.461 1.711,4.155c0,0.699 -0.064,1.27 -0.193,1.711l-8.973,0c0.129,0.921 0.534,1.634 1.215,2.14c0.681,0.506 1.519,0.759 2.513,0.759c1.398,0 2.567,-0.377 3.506,-1.132Zm-4.086,-6.598c-1.804,0 -2.89,0.902 -3.258,2.706l6.101,0c0.019,-0.773 -0.23,-1.418 -0.745,-1.933c-0.515,-0.515 -1.215,-0.773 -2.098,-0.773Z" style="fill:#565472;fill-rule:nonzero;"/><path d="M217.565,189.958l0,-17.946l3.175,0l0,1.187c0.405,-0.423 0.953,-0.777 1.643,-1.062c0.69,-0.286 1.422,-0.428 2.195,-0.428c1.693,0 3.055,0.589 4.086,1.767c1.03,1.177 1.546,2.696 1.546,4.555c0,1.932 -0.608,3.534 -1.822,4.804c-1.215,1.27 -2.798,1.905 -4.749,1.905c-1.233,0 -2.199,-0.203 -2.899,-0.608l0,5.826l-3.175,0Zm6.019,-15.268c-1.086,0 -2.034,0.451 -2.844,1.353l0,5.025c0.736,0.478 1.611,0.718 2.623,0.718c1.067,0 1.914,-0.346 2.54,-1.036c0.626,-0.69 0.938,-1.569 0.938,-2.636c0,-1.013 -0.285,-1.836 -0.855,-2.471c-0.571,-0.635 -1.372,-0.953 -2.402,-0.953Z" style="fill:#565472;fill-rule:nonzero;"/><path d="M234.765,175.215l-0.801,-2.319c1.344,-0.792 2.807,-1.187 4.39,-1.187c1.767,0 3.037,0.432 3.81,1.297c0.773,0.865 1.16,2.154 1.16,3.865l0,7.565l-2.761,0l0,-1.436c-0.755,1.068 -1.979,1.602 -3.672,1.602c-1.16,0 -2.098,-0.341 -2.816,-1.022c-0.718,-0.681 -1.077,-1.61 -1.077,-2.788c0,-1.307 0.423,-2.306 1.27,-2.996c0.847,-0.69 1.933,-1.035 3.258,-1.035c1.141,0 2.08,0.267 2.816,0.801c0.037,-1.086 -0.12,-1.892 -0.469,-2.416c-0.35,-0.525 -0.967,-0.787 -1.85,-0.787c-0.92,0 -2.006,0.285 -3.258,0.856Zm3.175,6.709c1.067,0 1.868,-0.378 2.402,-1.132l0,-1.27c-0.534,-0.405 -1.261,-0.608 -2.181,-0.608c-0.571,0 -1.045,0.134 -1.422,0.401c-0.377,0.267 -0.566,0.648 -0.566,1.145c0,0.461 0.166,0.819 0.497,1.077c0.331,0.258 0.755,0.387 1.27,0.387Z" style="fill:#565472;fill-rule:nonzero;"/><path d="M247.41,184.436l0,-12.424l3.174,0l0,1.215c0.7,-0.957 1.648,-1.436 2.844,-1.436c0.865,0 1.509,0.157 1.933,0.47l-1.132,2.981c-0.534,-0.312 -1.068,-0.469 -1.602,-0.469c-0.92,0 -1.601,0.442 -2.043,1.325l0,8.338l-3.174,0Z" style="fill:#565472;fill-rule:nonzero;"/><path d="M267.757,180.957l0.911,2.237c-1.215,1.03 -2.798,1.546 -4.749,1.546c-2.006,0 -3.621,-0.599 -4.845,-1.795c-1.224,-1.196 -1.836,-2.77 -1.836,-4.721c0,-1.859 0.598,-3.409 1.795,-4.652c1.196,-1.242 2.788,-1.863 4.776,-1.863c1.638,0 3.027,0.538 4.169,1.615c1.141,1.076 1.711,2.461 1.711,4.155c0,0.699 -0.064,1.27 -0.193,1.711l-8.973,0c0.129,0.921 0.534,1.634 1.215,2.14c0.681,0.506 1.519,0.759 2.513,0.759c1.398,0 2.567,-0.377 3.506,-1.132Zm-4.086,-6.598c-1.804,0 -2.89,0.902 -3.258,2.706l6.101,0c0.019,-0.773 -0.23,-1.418 -0.745,-1.933c-0.515,-0.515 -1.215,-0.773 -2.098,-0.773Z" style="fill:#565472;fill-rule:nonzero;"/><path d="M281.726,184.436l0,-1.298c-0.957,1.013 -2.144,1.519 -3.561,1.519c-1.767,0 -3.184,-0.575 -4.252,-1.726c-1.067,-1.15 -1.601,-2.673 -1.601,-4.569c0,-1.951 0.635,-3.547 1.905,-4.79c1.27,-1.242 2.908,-1.863 4.914,-1.863c1.049,0 1.914,0.202 2.595,0.607l0,-7.206l3.175,0l0,19.326l-3.175,0Zm-2.898,-2.733c1.086,0 2.052,-0.424 2.898,-1.27l0,-4.997c-0.791,-0.497 -1.61,-0.746 -2.457,-0.746c-0.994,0 -1.836,0.318 -2.526,0.953c-0.69,0.635 -1.035,1.504 -1.035,2.609c0,1.067 0.299,1.909 0.897,2.526c0.598,0.616 1.339,0.925 2.223,0.925Z" style="fill:#565472;fill-rule:nonzero;"/><path d="M289.263,184.436l0,-12.424l3.175,0l0,1.243c0.902,-0.976 2.089,-1.464 3.562,-1.464c3.405,0 5.107,1.786 5.107,5.356l0,7.289l-3.175,0l0,-6.736c0,-1.951 -0.929,-2.927 -2.788,-2.927c-1.012,0 -1.914,0.396 -2.706,1.187l0,8.476l-3.175,0Z" style="fill:#565472;fill-rule:nonzero;"/><path d="M314.911,180.957l0.912,2.237c-1.215,1.03 -2.798,1.546 -4.749,1.546c-2.006,0 -3.621,-0.599 -4.845,-1.795c-1.224,-1.196 -1.836,-2.77 -1.836,-4.721c0,-1.859 0.598,-3.409 1.794,-4.652c1.197,-1.242 2.789,-1.863 4.776,-1.863c1.639,0 3.028,0.538 4.169,1.615c1.141,1.076 1.712,2.461 1.712,4.155c0,0.699 -0.064,1.27 -0.193,1.711l-8.973,0c0.129,0.921 0.534,1.634 1.215,2.14c0.681,0.506 1.518,0.759 2.512,0.759c1.399,0 2.568,-0.377 3.506,-1.132Zm-4.086,-6.598c-1.803,0 -2.889,0.902 -3.257,2.706l6.101,0c0.018,-0.773 -0.23,-1.418 -0.745,-1.933c-0.516,-0.515 -1.215,-0.773 -2.099,-0.773Z" style="fill:#565472;fill-rule:nonzero;"/><path d="M326.065,181.786c0.313,-0.203 0.469,-0.488 0.469,-0.856c0,-0.368 -0.23,-0.667 -0.69,-0.898c-0.46,-0.23 -1.017,-0.432 -1.67,-0.607c-0.653,-0.175 -1.311,-0.386 -1.974,-0.635c-0.663,-0.248 -1.224,-0.649 -1.684,-1.201c-0.46,-0.552 -0.69,-1.251 -0.69,-2.098c0,-1.178 0.428,-2.103 1.283,-2.775c0.856,-0.672 1.947,-1.007 3.272,-1.007c2.025,0 3.598,0.524 4.721,1.573l-1.187,2.264c-1.012,-0.791 -2.135,-1.187 -3.368,-1.187c-0.46,0 -0.833,0.106 -1.118,0.317c-0.286,0.212 -0.428,0.465 -0.428,0.76c0,0.368 0.23,0.671 0.69,0.911c0.46,0.239 1.017,0.441 1.67,0.607c0.654,0.166 1.311,0.368 1.974,0.608c0.663,0.239 1.224,0.63 1.684,1.173c0.46,0.543 0.69,1.219 0.69,2.029c0,1.215 -0.455,2.181 -1.366,2.899c-0.911,0.718 -2.131,1.077 -3.658,1.077c-1.068,0 -2.122,-0.23 -3.161,-0.691c-1.04,-0.46 -1.717,-0.938 -2.03,-1.435l1.546,-2.071c0.369,0.405 0.948,0.764 1.74,1.077c0.791,0.313 1.5,0.469 2.126,0.469c0.478,0 0.865,-0.101 1.159,-0.303Z" style="fill:#565472;fill-rule:nonzero;"/><path d="M339.151,181.786c0.313,-0.203 0.47,-0.488 0.47,-0.856c0,-0.368 -0.23,-0.667 -0.69,-0.898c-0.461,-0.23 -1.017,-0.432 -1.671,-0.607c-0.653,-0.175 -1.311,-0.386 -1.974,-0.635c-0.662,-0.248 -1.224,-0.649 -1.684,-1.201c-0.46,-0.552 -0.69,-1.251 -0.69,-2.098c0,-1.178 0.428,-2.103 1.284,-2.775c0.856,-0.672 1.946,-1.007 3.271,-1.007c2.025,0 3.599,0.524 4.721,1.573l-1.187,2.264c-1.012,-0.791 -2.135,-1.187 -3.368,-1.187c-0.46,0 -0.833,0.106 -1.118,0.317c-0.285,0.212 -0.428,0.465 -0.428,0.76c0,0.368 0.23,0.671 0.69,0.911c0.46,0.239 1.017,0.441 1.67,0.607c0.654,0.166 1.312,0.368 1.974,0.608c0.663,0.239 1.224,0.63 1.684,1.173c0.461,0.543 0.691,1.219 0.691,2.029c0,1.215 -0.456,2.181 -1.367,2.899c-0.911,0.718 -2.13,1.077 -3.658,1.077c-1.068,0 -2.121,-0.23 -3.161,-0.691c-1.04,-0.46 -1.716,-0.938 -2.029,-1.435l1.546,-2.071c0.368,0.405 0.948,0.764 1.739,1.077c0.791,0.313 1.5,0.469 2.126,0.469c0.478,0 0.865,-0.101 1.159,-0.303Z" style="fill:#565472;fill-rule:nonzero;"/></g></g></svg>