<?xml version="1.0" encoding="UTF-8" standalone="no"?><!DOCTYPE svg PUBLIC "-//W3C//DTD SVG 1.1//EN" "http://www.w3.org/Graphics/SVG/1.1/DTD/svg11.dtd"><svg width="100%" height="100%" viewBox="0 0 306 48" version="1.1" xmlns="http://www.w3.org/2000/svg" xmlns:xlink="http://www.w3.org/1999/xlink" xml:space="preserve" xmlns:serif="http://www.serif.com/" style="fill-rule:evenodd;clip-rule:evenodd;stroke-linejoin:round;stroke-miterlimit:1.41421;"><g><text x="-0.174px" y="27.629px" style="font-family:'Larsseit-ExtraBold', 'Larsseit';font-weight:800;font-size:14.5px;fill:#021689;">A<tspan x="10.933px 22.04px 25.085px 29.768px 40.875px 45.559px 54.853px 59.537px 69.194px 78.489px 83.172px 93.83px 101.732px 104.777px 116.696px " y="27.629px 27.629px 27.629px 27.629px 27.629px 27.629px 27.629px 27.629px 27.629px 27.629px 27.629px 27.629px 27.629px 27.629px 27.629px ">N INITIATIVE OF</tspan></text><path d="M186.198,6.425l-5.995,6.004l-3.001,-3.006l5.994,-6.003l3.002,3.005Zm-12.436,21.887l-3.001,3.006l-15.403,-15.427l3.001,-3.006l15.403,15.427Zm-13.696,-17.137l3.001,-3.005l5.987,5.994l-3.002,3.006l-5.986,-5.995Zm7.701,7.713l3.005,-3.008l3.001,3.004l-3.004,3.01l-3.002,-3.006Zm4.709,4.716l3.001,-3.005l15.407,15.435l-2.998,3.003l-15.41,-15.433Zm5.994,9.425l-10.706,10.72l-3.001,-3.006l10.706,-10.72l3.001,3.006Zm14.196,-20.158l3,3.006l-10.715,10.727l-2.992,-2.997l10.707,-10.736Zm2.926,18.441l-3.001,3.006l-5.964,-5.973l3.002,-3.006l5.963,5.973Zm-31.252,-3.006l-6.014,6.023l-3.002,-3.005l6.015,-6.024l3.001,3.006Zm34.738,-12.427l-6.452,-6.462l-7.715,7.727l-3.001,-3.006l7.702,-7.712l-6.416,-6.426l-7.702,7.713l-7.678,-7.695l-0.018,-0.018l-1.707,1.71l17.149,17.18l-3.001,3.005l-17.149,-17.167l-11.124,11.141l7.688,7.699l-7.722,7.733l6.416,6.426l7.727,-7.729l3.001,3.006l-7.705,7.717l6.415,6.425l7.706,-7.716l7.674,7.698l0.018,0.018l1.707,-1.71l-7.692,-7.715l3,-3.004l7.708,7.72l11.122,-11.147l-7.67,-7.682l7.719,-7.729Z" style="fill:#021689;fill-rule:nonzero;"/><path d="M216.494,6.414l-4.364,11.473l-0.348,1.09l-0.003,-0.008l-0.322,-1.083l-4.364,-11.472l-2.759,0l6.274,16.124l2.393,0l6.252,-16.124l-2.759,0Z" style="fill:#021689;fill-rule:nonzero;"/><path d="M222.338,5.844c-0.014,-0.002 -0.029,-0.002 -0.043,-0.004c0.014,0.002 0.029,0.002 0.043,0.004" style="fill:#021689;fill-rule:nonzero;"/><path d="M220.539,7.817c0.006,0.022 0.009,0.045 0.015,0.066c-0.006,-0.022 -0.009,-0.044 -0.015,-0.066" style="fill:#021689;fill-rule:nonzero;"/><path d="M222.976,6.093c-0.006,-0.004 -0.012,-0.008 -0.019,-0.012c0.007,0.004 0.013,0.008 0.019,0.012" style="fill:#021689;fill-rule:nonzero;"/><path d="M222.785,5.978c-0.015,-0.007 -0.03,-0.012 -0.044,-0.019c0.014,0.007 0.029,0.012 0.044,0.019" style="fill:#021689;fill-rule:nonzero;"/><path d="M222.572,5.893c-0.016,-0.005 -0.033,-0.008 -0.049,-0.012c0.016,0.004 0.033,0.007 0.049,0.012" style="fill:#021689;fill-rule:nonzero;"/><path d="M221.103,8.606c0.003,0.002 0.007,0.004 0.01,0.006c0.09,0.062 0.187,0.114 0.289,0.159c0.006,0.002 0.012,0.005 0.018,0.008c0.105,0.044 0.215,0.077 0.328,0.101c0.007,0.002 0.013,0.003 0.02,0.004c0.114,0.022 0.231,0.035 0.349,0.035c0.105,0 0.208,-0.01 0.307,-0.028c0.002,-0.001 0.003,-0.001 0.004,-0.001c0.094,-0.018 0.184,-0.045 0.27,-0.079c0.009,-0.004 0.018,-0.007 0.027,-0.011c0.086,-0.035 0.167,-0.077 0.243,-0.128c0.002,-0.001 0.004,-0.002 0.006,-0.004c0.081,-0.053 0.156,-0.115 0.224,-0.185c0.036,-0.031 0.071,-0.066 0.105,-0.102c0.008,-0.009 0.017,-0.017 0.025,-0.026c0.037,-0.041 0.072,-0.087 0.105,-0.135c0.003,-0.006 0.007,-0.011 0.011,-0.017c0.032,-0.048 0.062,-0.101 0.088,-0.156c0.004,-0.007 0.007,-0.015 0.011,-0.023c0.023,-0.051 0.044,-0.105 0.061,-0.161c0.007,-0.022 0.011,-0.045 0.017,-0.068c0.011,-0.043 0.021,-0.087 0.028,-0.133c0.005,-0.036 0.007,-0.073 0.01,-0.11c0.002,-0.038 0.005,-0.075 0.005,-0.114c-0.001,-0.035 -0.004,-0.071 -0.007,-0.106c-0.003,-0.049 -0.008,-0.099 -0.017,-0.15c-0.004,-0.023 -0.009,-0.045 -0.014,-0.068c-0.016,-0.072 -0.035,-0.145 -0.062,-0.22c-0.003,-0.007 -0.005,-0.015 -0.008,-0.023c-0.026,-0.069 -0.056,-0.136 -0.089,-0.2c-0.004,-0.009 -0.008,-0.017 -0.012,-0.025c-0.033,-0.061 -0.07,-0.118 -0.109,-0.173c-0.007,-0.01 -0.013,-0.021 -0.02,-0.031c-0.041,-0.055 -0.086,-0.107 -0.132,-0.156c-0.006,-0.006 -0.012,-0.013 -0.018,-0.019c-0.161,-0.163 -0.353,-0.286 -0.563,-0.358l-0.001,0c-0.063,-0.022 -0.127,-0.037 -0.193,-0.049c-0.012,-0.002 -0.023,-0.005 -0.035,-0.007c-0.058,-0.009 -0.116,-0.013 -0.176,-0.015c-0.029,-0.001 -0.059,-0.003 -0.09,-0.002c-0.015,0.001 -0.031,0.001 -0.047,0.002c-0.218,0 -0.425,0.043 -0.612,0.12c-0.017,0.007 -0.032,0.018 -0.048,0.025c-0.075,0.035 -0.148,0.071 -0.216,0.116c-0.026,0.017 -0.048,0.04 -0.073,0.059c-0.055,0.042 -0.111,0.083 -0.16,0.131c-0.01,0.011 -0.018,0.024 -0.029,0.035c-0.263,0.279 -0.426,0.655 -0.426,1.078c-0.008,0.091 -0.006,0.181 0.004,0.269c0,0 0.001,0.001 0.001,0.002c0.01,0.083 0.029,0.163 0.055,0.241c0.005,0.014 0.011,0.027 0.016,0.04c0.024,0.065 0.053,0.129 0.089,0.19c0.008,0.014 0.017,0.028 0.026,0.042c0.039,0.063 0.084,0.123 0.135,0.18c0.007,0.008 0.013,0.015 0.019,0.022c0.075,0.081 0.159,0.154 0.251,0.218" style="fill:#021689;fill-rule:nonzero;"/><rect x="220.853" y="10.883" width="2.436" height="11.654" style="fill:#021689;"/><path d="M220.612,8.028c0.011,0.026 0.023,0.053 0.036,0.078c-0.013,-0.026 -0.025,-0.052 -0.036,-0.078" style="fill:#021689;fill-rule:nonzero;"/><path d="M220.726,8.232c0.019,0.027 0.038,0.053 0.059,0.079c-0.021,-0.026 -0.041,-0.052 -0.059,-0.079" style="fill:#021689;fill-rule:nonzero;"/><path d="M223.432,6.6c0,0 -0.001,-0.001 -0.001,-0.002c0,0.001 0.001,0.002 0.001,0.002" style="fill:#021689;fill-rule:nonzero;"/><path d="M221.835,8.896c0.066,0.011 0.131,0.017 0.198,0.02c-0.067,-0.003 -0.133,-0.009 -0.198,-0.02" style="fill:#021689;fill-rule:nonzero;"/><path d="M221.18,8.655c0.05,0.03 0.1,0.058 0.153,0.083c-0.053,-0.025 -0.104,-0.053 -0.153,-0.083" style="fill:#021689;fill-rule:nonzero;"/><path d="M221.455,8.795c0.081,0.032 0.164,0.057 0.249,0.077c-0.085,-0.02 -0.168,-0.045 -0.249,-0.077" style="fill:#021689;fill-rule:nonzero;"/><path d="M221.074,8.587c-0.072,-0.052 -0.137,-0.109 -0.198,-0.171c0.061,0.062 0.126,0.119 0.198,0.171" style="fill:#021689;fill-rule:nonzero;"/><path d="M222.771,8.782c0.041,-0.019 0.081,-0.041 0.12,-0.063c-0.039,0.022 -0.079,0.044 -0.12,0.063" style="fill:#021689;fill-rule:nonzero;"/><path d="M223.538,6.818c-0.005,-0.012 -0.011,-0.025 -0.017,-0.037c0.006,0.012 0.012,0.024 0.017,0.037" style="fill:#021689;fill-rule:nonzero;"/><path d="M223.003,8.651c0.038,-0.026 0.072,-0.059 0.108,-0.09c-0.035,0.031 -0.07,0.063 -0.108,0.09" style="fill:#021689;fill-rule:nonzero;"/><path d="M222.517,8.869c0.044,-0.011 0.087,-0.023 0.13,-0.038c-0.042,0.015 -0.086,0.027 -0.13,0.038" style="fill:#021689;fill-rule:nonzero;"/><path d="M222.193,8.918c0.064,-0.003 0.129,-0.008 0.193,-0.018c-0.063,0.01 -0.128,0.015 -0.193,0.018" style="fill:#021689;fill-rule:nonzero;"/><path d="M229.861,20.059c0.024,0.028 0.056,0.047 0.083,0.072c-0.027,-0.025 -0.059,-0.044 -0.083,-0.072" style="fill:#021689;fill-rule:nonzero;"/><path d="M229.723,19.85c-0.006,-0.012 -0.015,-0.021 -0.021,-0.032c0.006,0.012 0.015,0.02 0.021,0.032" style="fill:#021689;fill-rule:nonzero;"/><path d="M228.387,22.202c0.004,0.003 0.008,0.006 0.012,0.008c0.086,0.051 0.177,0.097 0.272,0.14c0.007,0.003 0.014,0.008 0.021,0.011c0.098,0.043 0.201,0.082 0.309,0.118c0.004,0.001 0.007,0.003 0.011,0.004c0.45,0.145 0.981,0.216 1.601,0.216c0.734,0 1.337,-0.085 1.794,-0.253l0,-2.161c-0.391,0.122 -0.832,0.184 -1.31,0.184c-0.606,0 -1.002,-0.132 -1.246,-0.416c-0.239,-0.278 -0.346,-0.705 -0.346,-1.383l0.046,-5.533l2.856,0l0,-2.253l-2.833,0l0,-0.003l0.023,-2.854l-2.459,0l-0.024,2.857l-2.05,0l0,2.253l2.05,0l0,0.002l-0.046,6.06c-0.006,0.732 0.095,1.337 0.307,1.83c0.003,0.008 0.006,0.018 0.01,0.026c0.041,0.093 0.086,0.181 0.136,0.266c0.003,0.006 0.005,0.012 0.009,0.018c0.105,0.179 0.229,0.341 0.372,0.485c0.143,0.144 0.305,0.27 0.485,0.378" style="fill:#021689;fill-rule:nonzero;"/><path d="M230.38,20.375c-0.009,-0.002 -0.019,-0.003 -0.027,-0.006c0.008,0.003 0.018,0.004 0.027,0.006" style="fill:#021689;fill-rule:nonzero;"/><path d="M230.182,20.292c-0.035,-0.017 -0.075,-0.03 -0.107,-0.05c0.032,0.02 0.072,0.033 0.107,0.05" style="fill:#021689;fill-rule:nonzero;"/><path d="M242.319,12.169c0.039,0.054 0.081,0.105 0.117,0.162c-0.036,-0.057 -0.078,-0.108 -0.117,-0.162" style="fill:#021689;fill-rule:nonzero;"/><path d="M242.554,12.536c0.026,0.047 0.055,0.092 0.079,0.141c-0.024,-0.049 -0.053,-0.094 -0.079,-0.141" style="fill:#021689;fill-rule:nonzero;"/><path d="M242.795,13.051c-0.007,-0.019 -0.016,-0.036 -0.023,-0.055c0.007,0.019 0.016,0.036 0.023,0.055" style="fill:#021689;fill-rule:nonzero;"/><path d="M240.631,17.702c0,0.706 -0.181,1.309 -0.554,1.844c-0.483,0.761 -1.177,1.13 -2.121,1.13c-0.996,0 -1.591,-0.491 -1.591,-1.316c0,-0.774 0.496,-1.272 1.476,-1.477l2.79,-0.599l0,0.418Zm-1.915,-7.072c-1.298,0 -2.367,0.388 -3.176,1.152c-0.822,0.775 -1.244,1.716 -1.29,2.876l2.368,0c0.001,-0.546 0.208,-1.01 0.6,-1.345c0.376,-0.321 0.908,-0.498 1.498,-0.498c0.633,0 1.115,0.175 1.433,0.522c0.32,0.348 0.482,0.878 0.482,1.577l0,0.531l-0.002,0.001l-3.317,0.599c-1.135,0.218 -1.996,0.615 -2.559,1.18c-0.563,0.566 -0.848,1.323 -0.848,2.251c0,0.999 0.329,1.838 0.952,2.426c0.617,0.581 1.489,0.889 2.523,0.889c1.585,0 2.739,-0.597 3.43,-1.773l0.004,-0.007l0.001,0.008l0.115,1.519l2.16,0l0,-7.67c0,-0.649 -0.092,-1.229 -0.27,-1.739c-0.008,-0.022 -0.014,-0.047 -0.022,-0.069c-0.043,-0.116 -0.092,-0.226 -0.144,-0.334c-0.007,-0.014 -0.012,-0.03 -0.019,-0.045c-0.181,-0.364 -0.416,-0.685 -0.704,-0.96c-0.759,-0.723 -1.84,-1.091 -3.215,-1.091" style="fill:#021689;fill-rule:nonzero;"/><path d="M241.94,11.728c-0.043,-0.041 -0.09,-0.078 -0.135,-0.116c0.045,0.038 0.092,0.075 0.135,0.116" style="fill:#021689;fill-rule:nonzero;"/><path d="M241.641,11.472c-0.035,-0.026 -0.073,-0.049 -0.11,-0.074c0.037,0.025 0.075,0.048 0.11,0.074" style="fill:#021689;fill-rule:nonzero;"/><path d="M241.308,11.249c-0.017,-0.011 -0.037,-0.019 -0.055,-0.03c0.018,0.011 0.038,0.019 0.055,0.03" style="fill:#021689;fill-rule:nonzero;"/><path d="M242.069,11.866c0.046,0.05 0.094,0.097 0.136,0.149c-0.042,-0.052 -0.09,-0.1 -0.136,-0.149" style="fill:#021689;fill-rule:nonzero;"/><path d="M211.967,26.029c-0.744,0 -1.419,0.111 -2.006,0.328c-0.585,0.218 -1.103,0.549 -1.539,0.985c-0.871,0.848 -1.312,1.964 -1.312,3.316c0,1.253 0.364,2.252 1.082,2.97c0.737,0.715 1.883,1.342 3.408,1.866c2.331,0.77 3.157,1.47 3.157,2.675c0,0.69 -0.23,1.268 -0.666,1.672c-0.447,0.415 -1.102,0.635 -1.893,0.635c-0.905,0 -1.614,-0.249 -2.11,-0.738c-0.492,-0.488 -0.76,-1.2 -0.795,-2.119l-2.598,0c0.035,1.559 0.541,2.852 1.462,3.739c0.467,0.451 1.041,0.798 1.704,1.032c0.681,0.24 1.46,0.362 2.314,0.362c1.52,0 2.775,-0.426 3.729,-1.267c0.963,-0.848 1.45,-2.026 1.45,-3.5c0,-1.208 -0.356,-2.176 -1.059,-2.878c-0.701,-0.749 -1.894,-1.416 -3.546,-1.981c-1.161,-0.442 -1.967,-0.837 -2.396,-1.176c-0.434,-0.343 -0.646,-0.834 -0.646,-1.499c0,-0.646 0.203,-1.183 0.585,-1.555c0.384,-0.372 0.939,-0.568 1.606,-0.568c1.413,0 2.306,0.909 2.329,2.374l2.621,0c-0.028,-0.718 -0.151,-1.358 -0.363,-1.921c-0.01,-0.025 -0.018,-0.054 -0.028,-0.079c-0.048,-0.121 -0.103,-0.237 -0.16,-0.35c-0.011,-0.022 -0.019,-0.047 -0.031,-0.068c-0.21,-0.402 -0.475,-0.755 -0.796,-1.057c-0.844,-0.795 -2.022,-1.198 -3.503,-1.198" style="fill:#021689;fill-rule:nonzero;"/><path d="M214.112,42.479c0.046,-0.014 0.093,-0.025 0.138,-0.04c-0.045,0.015 -0.092,0.026 -0.138,0.04" style="fill:#021689;fill-rule:nonzero;"/><path d="M214.61,42.298c0.03,-0.012 0.062,-0.022 0.092,-0.036c-0.03,0.014 -0.062,0.024 -0.092,0.036" style="fill:#021689;fill-rule:nonzero;"/><path d="M221.584,42.117c0.004,0.002 0.008,0.005 0.012,0.008c0.086,0.05 0.177,0.097 0.272,0.14c0.007,0.003 0.014,0.007 0.021,0.01c0.098,0.044 0.201,0.083 0.309,0.118c0.004,0.001 0.007,0.003 0.011,0.004c0.45,0.145 0.981,0.217 1.601,0.217c0.734,0 1.338,-0.085 1.794,-0.253l0,-2.161c-0.391,0.122 -0.832,0.184 -1.31,0.184c-0.606,0 -1.002,-0.132 -1.246,-0.416c-0.239,-0.278 -0.346,-0.705 -0.346,-1.384l0.046,-5.532l2.856,0l0,-2.253l-2.833,0l0,-0.003l0.023,-2.855l-2.459,0l-0.024,2.858l-2.05,0l0,2.253l2.05,0l0,0.002l-0.046,6.06c-0.006,0.732 0.095,1.339 0.308,1.832c0.003,0.007 0.005,0.016 0.009,0.023c0.041,0.094 0.087,0.183 0.137,0.269c0.002,0.005 0.005,0.01 0.008,0.015c0.105,0.18 0.229,0.341 0.372,0.485c0.143,0.145 0.305,0.27 0.485,0.379" style="fill:#021689;fill-rule:nonzero;"/><path d="M222.919,39.763c-0.006,-0.011 -0.014,-0.019 -0.02,-0.031c0.006,0.012 0.014,0.02 0.02,0.031" style="fill:#021689;fill-rule:nonzero;"/><path d="M223.573,40.289c-0.006,-0.002 -0.015,-0.002 -0.022,-0.005c0.007,0.003 0.015,0.003 0.022,0.005" style="fill:#021689;fill-rule:nonzero;"/><path d="M223.058,39.974c0.024,0.027 0.055,0.046 0.081,0.07c-0.026,-0.024 -0.057,-0.043 -0.081,-0.07" style="fill:#021689;fill-rule:nonzero;"/><path d="M223.377,40.206c-0.034,-0.017 -0.073,-0.03 -0.104,-0.049c0.031,0.019 0.07,0.032 0.104,0.049" style="fill:#021689;fill-rule:nonzero;"/><path d="M230.205,32.779l-0.004,0.01l-0.001,-0.011l-0.207,-1.979l-2.137,0l0,11.653l2.436,0l0,-6.057c0.024,-1.115 0.356,-1.922 1.014,-2.467c0.588,-0.52 1.37,-0.784 2.326,-0.784l0,-2.46c-0.419,0 -0.807,0.049 -1.166,0.14c-0.019,0.004 -0.04,0.006 -0.058,0.011c-0.373,0.1 -0.712,0.249 -1.015,0.447c-0.551,0.361 -0.962,0.878 -1.188,1.497" style="fill:#021689;fill-rule:nonzero;"/><path d="M230.566,34.951c0.001,-0.004 0.003,-0.007 0.004,-0.01c-0.001,0.003 -0.003,0.006 -0.004,0.01" style="fill:#021689;fill-rule:nonzero;"/><path d="M243.347,32.246c-0.037,-0.057 -0.079,-0.109 -0.119,-0.163c0.04,0.054 0.082,0.106 0.118,0.163" style="fill:#021689;fill-rule:nonzero;"/><path d="M243.705,32.966c-0.009,-0.024 -0.02,-0.046 -0.03,-0.069c0.01,0.023 0.021,0.045 0.03,0.069" style="fill:#021689;fill-rule:nonzero;"/><path d="M241.541,37.616c0,0.706 -0.181,1.309 -0.554,1.845c-0.483,0.76 -1.177,1.13 -2.121,1.13c-0.996,0 -1.591,-0.492 -1.591,-1.316c0,-0.774 0.496,-1.272 1.476,-1.477l2.79,-0.599l0,0.417Zm-1.915,-7.071c-1.297,0 -2.366,0.388 -3.176,1.152c-0.822,0.774 -1.244,1.715 -1.29,2.875l2.368,0c0.001,-0.545 0.208,-1.009 0.6,-1.344c0.376,-0.321 0.908,-0.498 1.498,-0.498c0.633,0 1.115,0.175 1.433,0.522c0.32,0.348 0.482,0.878 0.482,1.577l0,0.531l-0.002,0.001l-3.317,0.599c-1.136,0.218 -1.996,0.615 -2.559,1.18c-0.563,0.566 -0.848,1.323 -0.848,2.25c0,1 0.329,1.839 0.952,2.426c0.617,0.582 1.489,0.89 2.523,0.89c1.584,0 2.738,-0.597 3.43,-1.773l0.004,-0.007l0.001,0.008l0.115,1.518l2.16,0l0,-7.67c0,-2.693 -1.594,-4.237 -4.374,-4.237" style="fill:#021689;fill-rule:nonzero;"/><path d="M243.116,31.929c-0.043,-0.052 -0.091,-0.099 -0.136,-0.148c0.045,0.049 0.093,0.096 0.136,0.148" style="fill:#021689;fill-rule:nonzero;"/><path d="M243.543,32.592c-0.025,-0.051 -0.055,-0.098 -0.083,-0.147c0.028,0.049 0.058,0.096 0.083,0.147" style="fill:#021689;fill-rule:nonzero;"/><path d="M242.551,31.387c-0.033,-0.026 -0.071,-0.048 -0.105,-0.072c0.034,0.024 0.072,0.046 0.105,0.072" style="fill:#021689;fill-rule:nonzero;"/><path d="M242.219,31.163c-0.016,-0.01 -0.034,-0.017 -0.051,-0.027c0.017,0.01 0.035,0.017 0.051,0.027" style="fill:#021689;fill-rule:nonzero;"/><path d="M242.85,31.642c-0.042,-0.04 -0.089,-0.076 -0.133,-0.114c0.044,0.038 0.091,0.074 0.133,0.114" style="fill:#021689;fill-rule:nonzero;"/><path d="M250.137,39.768c-0.007,-0.013 -0.016,-0.022 -0.023,-0.036c0.007,0.014 0.016,0.023 0.023,0.036" style="fill:#021689;fill-rule:nonzero;"/><path d="M250.272,39.973c0.026,0.03 0.059,0.051 0.088,0.076c-0.029,-0.025 -0.062,-0.047 -0.088,-0.076" style="fill:#021689;fill-rule:nonzero;"/><path d="M252.819,42.361l0,-2.161c-0.391,0.122 -0.832,0.184 -1.311,0.184c-0.606,0 -1.002,-0.132 -1.245,-0.416c-0.24,-0.278 -0.346,-0.705 -0.346,-1.384l0.046,-5.532l2.856,0l0,-2.253l-2.833,0l0,-0.003l0.023,-2.855l-2.46,0l-0.023,2.858l-2.05,0l0,2.253l2.05,0l0,0.002l-0.046,6.06c-0.005,0.577 0.057,1.074 0.187,1.501c0.005,0.014 0.008,0.029 0.012,0.043c0.028,0.088 0.061,0.171 0.095,0.254c0.009,0.019 0.015,0.041 0.024,0.06c0.037,0.084 0.079,0.164 0.122,0.241c0.008,0.014 0.015,0.029 0.023,0.042c0.049,0.083 0.102,0.162 0.158,0.237c0.005,0.006 0.009,0.012 0.014,0.018c0.059,0.078 0.124,0.152 0.192,0.221c0.003,0.003 0.005,0.005 0.007,0.008c0.071,0.071 0.145,0.137 0.224,0.199c0.004,0.002 0.007,0.005 0.01,0.008c0.076,0.059 0.157,0.113 0.242,0.165c0.008,0.004 0.015,0.01 0.022,0.014c0.082,0.049 0.17,0.093 0.261,0.135c0.011,0.005 0.021,0.011 0.032,0.016c0.095,0.042 0.194,0.079 0.297,0.113c0.008,0.003 0.015,0.006 0.023,0.009c0.449,0.144 0.98,0.216 1.599,0.216c0.735,0 1.339,-0.085 1.795,-0.253" style="fill:#021689;fill-rule:nonzero;"/><path d="M250.796,40.291c-0.01,-0.003 -0.022,-0.004 -0.031,-0.007c0.01,0.003 0.021,0.004 0.031,0.007" style="fill:#021689;fill-rule:nonzero;"/><path d="M250.6,40.209c-0.037,-0.018 -0.079,-0.031 -0.113,-0.053c0.034,0.022 0.076,0.035 0.113,0.053" style="fill:#021689;fill-rule:nonzero;"/><path d="M263.161,41.71c0.041,-0.03 0.079,-0.063 0.119,-0.095c-0.04,0.031 -0.078,0.065 -0.119,0.095" style="fill:#021689;fill-rule:nonzero;"/><path d="M262.816,41.941c0.049,-0.03 0.095,-0.063 0.142,-0.094c-0.047,0.031 -0.093,0.064 -0.142,0.094" style="fill:#021689;fill-rule:nonzero;"/><path d="M262.067,42.311c0.039,-0.015 0.075,-0.033 0.113,-0.049c-0.038,0.016 -0.074,0.034 -0.113,0.049" style="fill:#021689;fill-rule:nonzero;"/><path d="M262.452,42.141c0.048,-0.024 0.094,-0.051 0.142,-0.077c-0.048,0.026 -0.094,0.053 -0.142,0.077" style="fill:#021689;fill-rule:nonzero;"/><path d="M263.484,41.45c0.029,-0.025 0.055,-0.053 0.084,-0.08c-0.029,0.027 -0.055,0.055 -0.084,0.08" style="fill:#021689;fill-rule:nonzero;"/><path d="M256.677,35.566c0.08,-0.838 0.412,-1.554 0.959,-2.073c0.56,-0.53 1.304,-0.81 2.153,-0.81c0.85,0 1.573,0.271 2.092,0.784c0.52,0.515 0.801,1.24 0.812,2.099l0,0.002l-6.017,0l0.001,-0.002Zm5.992,3.32c-0.218,0.551 -0.562,0.969 -1.022,1.244c-0.462,0.275 -1.056,0.415 -1.766,0.415c-0.897,0 -1.676,-0.288 -2.254,-0.833c-0.58,-0.549 -0.917,-1.321 -0.973,-2.234l0,-0.003l8.499,0l0,-0.941c0,-1.866 -0.509,-3.404 -1.471,-4.446c-0.932,-1.01 -2.27,-1.543 -3.87,-1.543c-1.704,0 -3.09,0.581 -4.121,1.727c-1.039,1.132 -1.566,2.604 -1.566,4.376c0,1.811 0.527,3.291 1.566,4.4c1.054,1.1 2.44,1.658 4.121,1.658c2.632,0 4.496,-1.357 5.248,-3.82l-2.391,0Z" style="fill:#021689;fill-rule:nonzero;"/><path d="M264.775,33.98c-0.026,-0.076 -0.057,-0.147 -0.085,-0.221c0.028,0.074 0.059,0.145 0.085,0.221" style="fill:#021689;fill-rule:nonzero;"/><path d="M264.939,34.557c-0.018,-0.075 -0.041,-0.146 -0.061,-0.219c0.02,0.073 0.043,0.144 0.061,0.219" style="fill:#021689;fill-rule:nonzero;"/><path d="M261.663,42.452c0.011,-0.003 0.021,-0.008 0.031,-0.011c-0.01,0.003 -0.02,0.007 -0.031,0.011" style="fill:#021689;fill-rule:nonzero;"/><path d="M263.785,41.16c0.013,-0.014 0.025,-0.029 0.037,-0.043c-0.012,0.014 -0.024,0.029 -0.037,0.043" style="fill:#021689;fill-rule:nonzero;"/><path d="M265.057,35.167c-0.003,-0.02 -0.008,-0.038 -0.011,-0.058c0.003,0.02 0.008,0.038 0.011,0.058" style="fill:#021689;fill-rule:nonzero;"/><path d="M264.565,33.439c-0.023,-0.05 -0.05,-0.096 -0.073,-0.145c0.023,0.049 0.05,0.095 0.073,0.145" style="fill:#021689;fill-rule:nonzero;"/><path d="M274.367,40.495c0.204,0.031 0.397,0.073 0.58,0.125c-0.183,-0.052 -0.376,-0.094 -0.58,-0.125" style="fill:#021689;fill-rule:nonzero;"/><path d="M273.523,40.43c0.237,0.002 0.462,0.017 0.677,0.043c-0.215,-0.026 -0.44,-0.041 -0.677,-0.043" style="fill:#021689;fill-rule:nonzero;"/><path d="M272.622,36.705c0.01,-0.003 0.02,-0.004 0.029,-0.008c-0.009,0.004 -0.019,0.005 -0.029,0.008" style="fill:#021689;fill-rule:nonzero;"/><path d="M270.209,33.145c0.39,-0.392 0.935,-0.6 1.577,-0.6c1.283,0 2.144,0.872 2.144,2.169c0,0.599 -0.209,1.142 -0.587,1.53c-0.393,0.402 -0.932,0.615 -1.557,0.615c-0.315,0 -0.612,-0.058 -0.881,-0.165c-0.014,-0.006 -0.026,-0.015 -0.04,-0.021c-0.243,-0.103 -0.464,-0.244 -0.647,-0.429c-0.387,-0.389 -0.6,-0.933 -0.6,-1.53c0,-0.637 0.205,-1.18 0.591,-1.569m-0.668,10.157c0.011,-0.028 0.026,-0.051 0.038,-0.077c0.027,-0.058 0.053,-0.116 0.086,-0.168c0.019,-0.029 0.042,-0.053 0.063,-0.08c0.034,-0.045 0.068,-0.091 0.108,-0.131c0.02,-0.019 0.043,-0.035 0.064,-0.054c0.048,-0.042 0.096,-0.083 0.15,-0.119c0.013,-0.008 0.027,-0.014 0.04,-0.021c0.219,-0.133 0.485,-0.22 0.798,-0.246l2.004,0c1.272,0 1.891,0.461 1.891,1.408c0,0.621 -0.216,1.092 -0.643,1.402c-0.428,0.31 -1.08,0.467 -1.939,0.467c-0.881,0 -1.568,-0.15 -2.04,-0.446c-0.482,-0.303 -0.727,-0.751 -0.727,-1.33c0,-0.223 0.038,-0.426 0.107,-0.605m-1.182,3.425c0.89,0.619 2.183,0.933 3.842,0.933c1.511,0 2.768,-0.363 3.635,-1.051c0.875,-0.694 1.338,-1.708 1.338,-2.933c0,-1.026 -0.323,-1.831 -0.958,-2.391c-0.644,-0.567 -1.576,-0.855 -2.771,-0.855l-2.926,0c-0.825,0 -1.338,-0.416 -1.338,-1.086c0,-0.419 0.121,-0.744 0.369,-0.992l0.002,-0.001l0.001,0c0.692,0.31 1.43,0.461 2.256,0.461c1.321,0 2.412,-0.387 3.246,-1.151c0.825,-0.779 1.243,-1.771 1.243,-2.947c0,-0.602 -0.132,-1.207 -0.391,-1.797l-0.002,-0.003l1.867,0l0,-2.115l-4.304,0c-0.555,-0.168 -1.113,-0.254 -1.659,-0.254c-1.352,0 -2.467,0.395 -3.315,1.175c-0.852,0.784 -1.266,1.763 -1.266,2.994c0,0.89 0.248,1.673 0.76,2.394l0.001,0.002l-0.002,0.002c-0.794,0.612 -1.197,1.426 -1.197,2.417c0,1.065 0.482,1.864 1.473,2.44l0.004,0.002l-0.004,0.002c-0.836,0.488 -1.242,1.173 -1.242,2.095c0,1.147 0.45,2.042 1.338,2.659" style="fill:#021689;fill-rule:nonzero;"/><path d="M267.085,38.179c-0.014,0.029 -0.024,0.059 -0.037,0.088c0.013,-0.029 0.023,-0.059 0.037,-0.088" style="fill:#021689;fill-rule:nonzero;"/><path d="M275.614,40.879c-0.158,-0.081 -0.327,-0.152 -0.509,-0.211c0.181,0.059 0.351,0.13 0.509,0.211" style="fill:#021689;fill-rule:nonzero;"/><path d="M276.179,41.253c-0.137,-0.117 -0.288,-0.222 -0.452,-0.315c0.163,0.093 0.314,0.197 0.452,0.315" style="fill:#021689;fill-rule:nonzero;"/><path d="M281.632,26.008c-0.005,-0.004 -0.011,-0.007 -0.017,-0.011c0.006,0.004 0.012,0.007 0.017,0.011" style="fill:#021689;fill-rule:nonzero;"/><path d="M281.228,25.808c-0.016,-0.005 -0.032,-0.008 -0.048,-0.012c0.016,0.004 0.032,0.007 0.048,0.012" style="fill:#021689;fill-rule:nonzero;"/><path d="M280.994,25.759c-0.014,-0.002 -0.029,-0.003 -0.043,-0.004c0.014,0.001 0.029,0.002 0.043,0.004" style="fill:#021689;fill-rule:nonzero;"/><path d="M281.441,25.893c-0.014,-0.007 -0.029,-0.012 -0.042,-0.018c0.013,0.006 0.028,0.011 0.042,0.018" style="fill:#021689;fill-rule:nonzero;"/><path d="M279.195,27.729c0.006,0.023 0.009,0.047 0.016,0.069c-0.007,-0.023 -0.01,-0.046 -0.016,-0.069" style="fill:#021689;fill-rule:nonzero;"/><rect x="279.509" y="30.798" width="2.437" height="11.654" style="fill:#021689;"/><path d="M279.267,27.941c0.012,0.027 0.024,0.054 0.038,0.08c-0.014,-0.026 -0.026,-0.053 -0.038,-0.08" style="fill:#021689;fill-rule:nonzero;"/><path d="M279.76,28.521c0.002,0.002 0.005,0.003 0.008,0.005c0.09,0.062 0.188,0.115 0.29,0.159c0.006,0.003 0.012,0.006 0.019,0.009c0.104,0.044 0.213,0.077 0.325,0.101c0.009,0.001 0.017,0.003 0.026,0.005c0.113,0.022 0.229,0.034 0.345,0.034c0.104,0 0.207,-0.009 0.306,-0.028c0.003,-0.001 0.006,-0.002 0.01,-0.002c0.092,-0.018 0.18,-0.044 0.265,-0.077c0.009,-0.004 0.019,-0.008 0.029,-0.012c0.085,-0.036 0.166,-0.078 0.242,-0.128c0.001,-0.001 0.003,-0.002 0.005,-0.003c0.081,-0.054 0.156,-0.116 0.224,-0.186c0.035,-0.03 0.069,-0.064 0.103,-0.1c0.009,-0.009 0.019,-0.018 0.028,-0.028c0.036,-0.041 0.071,-0.086 0.103,-0.134c0.005,-0.006 0.009,-0.012 0.013,-0.018c0.032,-0.049 0.061,-0.1 0.087,-0.155c0.004,-0.008 0.008,-0.017 0.012,-0.026c0.023,-0.05 0.043,-0.103 0.06,-0.158c0.007,-0.023 0.012,-0.047 0.018,-0.071c0.011,-0.042 0.02,-0.085 0.027,-0.13c0.005,-0.037 0.007,-0.075 0.01,-0.113c0.002,-0.037 0.005,-0.073 0.005,-0.111c0,-0.036 -0.004,-0.072 -0.007,-0.109c-0.003,-0.048 -0.008,-0.097 -0.017,-0.147c-0.004,-0.023 -0.009,-0.046 -0.014,-0.07c-0.015,-0.071 -0.035,-0.144 -0.061,-0.218c-0.003,-0.008 -0.006,-0.016 -0.009,-0.024c-0.025,-0.069 -0.055,-0.136 -0.088,-0.2c-0.005,-0.008 -0.009,-0.017 -0.013,-0.025c-0.033,-0.061 -0.07,-0.118 -0.108,-0.173c-0.007,-0.01 -0.014,-0.021 -0.021,-0.031c-0.041,-0.055 -0.085,-0.106 -0.131,-0.154c-0.006,-0.007 -0.012,-0.015 -0.019,-0.021c-0.052,-0.053 -0.107,-0.102 -0.166,-0.146c0,-0.001 -0.001,-0.001 -0.003,-0.002c-0.118,-0.089 -0.247,-0.158 -0.385,-0.206c-0.004,-0.002 -0.008,-0.004 -0.013,-0.005c-0.058,-0.02 -0.119,-0.034 -0.18,-0.046c-0.017,-0.003 -0.033,-0.007 -0.049,-0.01c-0.054,-0.008 -0.108,-0.012 -0.163,-0.013c-0.034,-0.002 -0.068,-0.004 -0.103,-0.003c-0.014,0.001 -0.028,0.001 -0.042,0.002c-0.219,0 -0.426,0.043 -0.613,0.12c-0.017,0.007 -0.032,0.018 -0.049,0.026c-0.074,0.034 -0.148,0.07 -0.215,0.115c-0.025,0.017 -0.046,0.039 -0.07,0.057c-0.056,0.042 -0.113,0.084 -0.163,0.134c-0.009,0.009 -0.016,0.021 -0.025,0.03c-0.266,0.279 -0.429,0.657 -0.429,1.082c-0.016,0.179 0.005,0.35 0.059,0.512c0.005,0.013 0.01,0.026 0.015,0.039c0.025,0.066 0.054,0.13 0.091,0.192c0.007,0.013 0.016,0.027 0.025,0.04c0.039,0.063 0.084,0.124 0.137,0.182c0.006,0.007 0.011,0.014 0.017,0.021c0.075,0.081 0.159,0.154 0.252,0.218" style="fill:#021689;fill-rule:nonzero;"/><path d="M282.088,26.515c0,0 -0.001,-0.001 -0.002,-0.002c0.001,0.001 0.002,0.002 0.002,0.002" style="fill:#021689;fill-rule:nonzero;"/><path d="M279.381,28.146c0.019,0.028 0.04,0.054 0.061,0.081c-0.021,-0.027 -0.042,-0.054 -0.061,-0.081" style="fill:#021689;fill-rule:nonzero;"/><path d="M280.111,28.709c0.081,0.032 0.165,0.058 0.251,0.078c-0.086,-0.02 -0.17,-0.046 -0.251,-0.078" style="fill:#021689;fill-rule:nonzero;"/><path d="M280.49,28.811c0.067,0.01 0.134,0.017 0.202,0.02c-0.068,-0.003 -0.135,-0.01 -0.202,-0.02" style="fill:#021689;fill-rule:nonzero;"/><path d="M282.194,26.733c-0.005,-0.012 -0.011,-0.025 -0.016,-0.037c0.005,0.012 0.011,0.025 0.016,0.037" style="fill:#021689;fill-rule:nonzero;"/><path d="M279.73,28.502c-0.071,-0.052 -0.137,-0.11 -0.198,-0.172c0.061,0.062 0.127,0.12 0.198,0.172" style="fill:#021689;fill-rule:nonzero;"/><path d="M279.834,28.568c0.051,0.031 0.103,0.06 0.157,0.086c-0.054,-0.026 -0.106,-0.055 -0.157,-0.086" style="fill:#021689;fill-rule:nonzero;"/><path d="M281.66,28.566c0.036,-0.026 0.07,-0.057 0.105,-0.087c-0.035,0.029 -0.069,0.061 -0.106,0.087" style="fill:#021689;fill-rule:nonzero;"/><path d="M281.427,28.697c0.041,-0.019 0.08,-0.041 0.12,-0.063c-0.039,0.022 -0.079,0.044 -0.12,0.063" style="fill:#021689;fill-rule:nonzero;"/><path d="M281.172,28.785c0.045,-0.011 0.088,-0.024 0.132,-0.039c-0.043,0.015 -0.087,0.027 -0.132,0.039" style="fill:#021689;fill-rule:nonzero;"/><path d="M280.833,28.834c0.07,-0.003 0.14,-0.008 0.21,-0.02c-0.069,0.011 -0.139,0.017 -0.21,0.02" style="fill:#021689;fill-rule:nonzero;"/><path d="M292.814,41.94c0.04,-0.025 0.077,-0.052 0.116,-0.078c-0.039,0.026 -0.076,0.053 -0.116,0.078" style="fill:#021689;fill-rule:nonzero;"/><path d="M293.159,41.709c0.031,-0.024 0.061,-0.051 0.093,-0.075c-0.032,0.024 -0.062,0.051 -0.094,0.075" style="fill:#021689;fill-rule:nonzero;"/><path d="M293.482,41.448c0.019,-0.017 0.037,-0.037 0.056,-0.054c-0.019,0.017 -0.037,0.037 -0.056,0.054" style="fill:#021689;fill-rule:nonzero;"/><path d="M286.672,35.566c0.08,-0.838 0.412,-1.554 0.96,-2.073c0.559,-0.53 1.303,-0.81 2.152,-0.81c0.85,0 1.573,0.271 2.092,0.784c0.521,0.515 0.802,1.24 0.813,2.099l0,0.002l-6.017,0l0,-0.002Zm5.993,3.32c-0.218,0.551 -0.563,0.969 -1.023,1.244c-0.461,0.275 -1.056,0.415 -1.766,0.415c-0.897,0 -1.676,-0.288 -2.253,-0.833c-0.581,-0.549 -0.918,-1.321 -0.974,-2.234l0,-0.003l8.499,0l0,-0.941c0,-1.866 -0.508,-3.404 -1.47,-4.446c-0.932,-1.01 -2.27,-1.543 -3.871,-1.543c-1.704,0 -3.09,0.581 -4.121,1.727c-1.039,1.132 -1.566,2.604 -1.566,4.376c0,1.811 0.527,3.291 1.566,4.4c1.054,1.1 2.44,1.658 4.121,1.658c2.633,0 4.497,-1.357 5.248,-3.82l-2.39,0Z" style="fill:#021689;fill-rule:nonzero;"/><path d="M292.064,42.311c0.031,-0.012 0.058,-0.026 0.088,-0.039c-0.03,0.013 -0.057,0.027 -0.088,0.039" style="fill:#021689;fill-rule:nonzero;"/><path d="M292.449,42.14c0.041,-0.02 0.078,-0.043 0.118,-0.064c-0.04,0.021 -0.078,0.044 -0.118,0.064" style="fill:#021689;fill-rule:nonzero;"/><path d="M293.783,41.158c0.003,-0.004 0.006,-0.008 0.009,-0.011c-0.003,0.003 -0.006,0.007 -0.009,0.011" style="fill:#021689;fill-rule:nonzero;"/><path d="M294.769,33.976c-0.019,-0.058 -0.044,-0.111 -0.064,-0.168c0.02,0.057 0.045,0.111 0.064,0.168" style="fill:#021689;fill-rule:nonzero;"/><path d="M291.66,42.451c0.003,0 0.005,-0.001 0.008,-0.002c-0.003,0.001 -0.005,0.002 -0.008,0.002" style="fill:#021689;fill-rule:nonzero;"/><path d="M294.558,33.435c-0.014,-0.033 -0.033,-0.064 -0.049,-0.097c0.016,0.033 0.035,0.064 0.049,0.097" style="fill:#021689;fill-rule:nonzero;"/><path d="M294.933,34.553c-0.012,-0.052 -0.029,-0.101 -0.042,-0.152c0.013,0.051 0.03,0.1 0.042,0.152" style="fill:#021689;fill-rule:nonzero;"/><path d="M297.937,41.69c0.761,0.664 1.867,1.016 3.199,1.016c1.247,0 2.306,-0.332 3.062,-0.959c0.783,-0.649 1.197,-1.583 1.197,-2.702c0,-0.998 -0.274,-1.719 -0.863,-2.268c-0.6,-0.56 -1.532,-0.952 -2.936,-1.232c-1.645,-0.366 -2.12,-0.713 -2.12,-1.547c0,-0.41 0.143,-0.742 0.399,-0.977c0.001,-0.002 0.002,-0.004 0.004,-0.005c0.061,-0.056 0.13,-0.105 0.204,-0.149c0.006,-0.003 0.01,-0.008 0.016,-0.011c0.246,-0.142 0.557,-0.219 0.922,-0.219c1.063,0 1.614,0.534 1.638,1.589l2.437,0c-0.024,-1.106 -0.419,-2.004 -1.174,-2.668c-0.742,-0.672 -1.703,-1.013 -2.855,-1.013c-1.267,0 -2.274,0.364 -2.992,1.082c-0.713,0.713 -1.059,1.557 -1.059,2.579c0,1.834 1.088,2.846 3.637,3.385c0.91,0.189 1.467,0.387 1.806,0.642c0.013,0.01 0.022,0.022 0.034,0.032c0.053,0.042 0.1,0.086 0.141,0.132c0.022,0.024 0.044,0.05 0.064,0.075c0.037,0.048 0.068,0.099 0.096,0.151c0.015,0.029 0.029,0.058 0.042,0.089c0.024,0.059 0.042,0.12 0.057,0.185c0.007,0.031 0.014,0.064 0.019,0.097c0.011,0.072 0.017,0.148 0.019,0.227c0,0.019 0.004,0.034 0.004,0.054c0,0.406 -0.153,0.732 -0.428,0.965c-0.01,0.008 -0.018,0.019 -0.028,0.027c-0.065,0.051 -0.139,0.096 -0.217,0.137c-0.011,0.006 -0.02,0.014 -0.031,0.02c-0.278,0.138 -0.631,0.213 -1.049,0.213c-0.601,0 -1.099,-0.155 -1.441,-0.447c-0.342,-0.294 -0.53,-0.729 -0.542,-1.258l-2.46,0c0.036,1.151 0.449,2.104 1.198,2.758" style="fill:#021689;fill-rule:nonzero;"/><path d="M299.284,42.438c0.007,0.002 0.012,0.005 0.019,0.008c-0.007,-0.003 -0.012,-0.006 -0.019,-0.008" style="fill:#021689;fill-rule:nonzero;"/><path d="M247.01,22.225c0.02,0.014 0.043,0.026 0.064,0.04c0.132,0.086 0.271,0.162 0.42,0.223c0.021,0.008 0.044,0.015 0.066,0.023c0.152,0.057 0.311,0.104 0.478,0.135c0.026,0.005 0.055,0.007 0.083,0.011c0.155,0.025 0.316,0.039 0.482,0.041c0.019,0.001 0.038,0.003 0.057,0.003c0.047,0.001 0.093,0.002 0.141,0.002c0.561,0 1.104,-0.095 1.141,-0.102l0,-2.133c-0.033,0.001 -0.066,0.001 -0.098,0.001c-0.092,0 -0.169,-0.006 -0.251,-0.011c-0.029,-0.002 -0.06,-0.002 -0.088,-0.004c-0.095,-0.008 -0.179,-0.022 -0.259,-0.037c-0.032,-0.005 -0.067,-0.01 -0.097,-0.017c-0.078,-0.018 -0.147,-0.043 -0.212,-0.07c-0.023,-0.009 -0.049,-0.016 -0.07,-0.027c-0.074,-0.035 -0.137,-0.078 -0.194,-0.126c-0.008,-0.007 -0.019,-0.012 -0.027,-0.019c-0.006,-0.006 -0.015,-0.009 -0.021,-0.015c-0.248,-0.237 -0.359,-0.621 -0.359,-1.246l0,-13.174l-2.429,0l-0.007,13.731c0,0.021 0.002,0.042 0.002,0.063c0.003,0.228 0.018,0.444 0.045,0.647c0.007,0.043 0.016,0.084 0.023,0.127c0.032,0.187 0.072,0.366 0.125,0.532c0.014,0.043 0.031,0.083 0.046,0.125c0.056,0.155 0.119,0.303 0.195,0.438c0.019,0.036 0.042,0.068 0.063,0.102c0.081,0.133 0.169,0.257 0.268,0.368c0.021,0.024 0.045,0.046 0.067,0.069c0.107,0.111 0.221,0.213 0.346,0.3" style="fill:#021689;fill-rule:nonzero;"/></g></svg>