<?xml version="1.0" encoding="UTF-8" standalone="no"?><!DOCTYPE svg PUBLIC "-//W3C//DTD SVG 1.1//EN" "http://www.w3.org/Graphics/SVG/1.1/DTD/svg11.dtd"><svg width="100%" height="100%" viewBox="0 0 228 118" version="1.1" xmlns="http://www.w3.org/2000/svg" xmlns:xlink="http://www.w3.org/1999/xlink" xml:space="preserve" xmlns:serif="http://www.serif.com/" style="fill-rule:evenodd;clip-rule:evenodd;stroke-linejoin:round;stroke-miterlimit:1.41421;"><rect id="RTSL-Logo-strapline-RGB" x="0" y="0.5" width="228" height="117" style="fill:none;"/><g><rect x="6" y="7.66" width="182" height="55" style="fill:#2b307f;"/><rect x="191.906" y="7.66" width="29.243" height="55.723" style="fill:#f3775b;"/><rect x="70" y="67.5" width="150" height="30" style="fill:#2b307f;"/><rect x="6" y="67.5" width="60" height="30" style="fill:#f3775b;"/><path d="M79.185,91.626c-0.168,0 -0.281,-0.107 -0.281,-0.27l0,-14.761c0,-0.107 -0.057,-0.161 -0.168,-0.161l-3.002,0c-0.17,0 -0.281,-0.109 -0.281,-0.27l0,-2.649c0,-0.163 0.111,-0.271 0.281,-0.271l10.016,0c0.168,0 0.28,0.108 0.28,0.271l0,2.649c0,0.161 -0.112,0.27 -0.28,0.27l-3.002,0c-0.113,0 -0.168,0.054 -0.168,0.161l0,14.761c0,0.163 -0.113,0.27 -0.281,0.27l-3.114,0Zm8.699,-2.865c-0.31,-0.839 -0.394,-1.595 -0.394,-6.326c0,-4.732 0.084,-5.488 0.394,-6.327c0.7,-2.027 2.385,-3.108 4.882,-3.108c2.496,0 4.18,1.081 4.881,3.108c0.309,0.839 0.393,1.595 0.393,6.327c0,4.731 -0.084,5.487 -0.393,6.326c-0.701,2.027 -2.385,3.109 -4.881,3.109c-2.497,0 -4.182,-1.082 -4.882,-3.109m6.229,-0.973c0.139,-0.432 0.196,-0.893 0.196,-5.353c0,-4.461 -0.057,-4.92 -0.196,-5.354c-0.169,-0.512 -0.646,-0.89 -1.347,-0.89c-0.702,0 -1.178,0.378 -1.348,0.89c-0.139,0.434 -0.196,0.893 -0.196,5.354c0,4.46 0.057,4.921 0.196,5.353c0.17,0.514 0.646,0.892 1.348,0.892c0.701,0 1.178,-0.378 1.347,-0.892m17.425,4.082c-3.45,0 -5.106,-1.757 -5.163,-4.92c0,-0.163 0.057,-0.27 0.225,-0.297l3.002,-0.461c0.197,-0.027 0.309,0.056 0.309,0.217c0.056,1.703 0.562,2.38 1.656,2.38c1.037,0 1.514,-0.514 1.514,-2.19c0,-1.624 -0.336,-2.19 -1.768,-2.731l-1.15,-0.432c-2.694,-1 -3.618,-2.38 -3.618,-5.327c0,-3.324 1.653,-5.109 5.049,-5.109c3.339,0 4.911,1.676 5.05,4.568c0,0.163 -0.084,0.271 -0.252,0.298l-2.862,0.433c-0.168,0.027 -0.308,-0.055 -0.308,-0.216c-0.028,-1.325 -0.506,-2 -1.516,-2c-0.981,0 -1.459,0.595 -1.459,1.838c0,1.378 0.31,1.81 1.795,2.378l1.152,0.433c2.608,0.973 3.618,2.325 3.618,5.433c0,3.758 -1.485,5.705 -5.274,5.705m10.888,-18.356c0.055,-0.163 0.141,-0.271 0.309,-0.271l3.309,0c0.169,0 0.281,0.108 0.31,0.271l4.096,17.843c0.028,0.161 -0.056,0.268 -0.224,0.268l-3.114,0c-0.197,0 -0.281,-0.107 -0.31,-0.268l-0.616,-3.327l-3.619,0l-0.645,3.327c-0.029,0.161 -0.113,0.268 -0.31,0.268l-3.114,0c-0.168,0 -0.252,-0.107 -0.225,-0.268l4.153,-17.843Zm3.227,11.706l-1.207,-6.38l-0.084,0l-1.262,6.38l2.553,0Zm9.26,6.406c-0.168,0 -0.252,-0.107 -0.309,-0.27l-3.787,-17.841c-0.057,-0.163 0.028,-0.271 0.225,-0.271l3.17,0c0.168,0 0.281,0.081 0.307,0.271l1.937,11.624l0.084,0l1.852,-11.624c0.029,-0.19 0.139,-0.271 0.308,-0.271l3.116,0c0.195,0 0.279,0.108 0.223,0.271l-3.815,17.841c-0.029,0.163 -0.113,0.27 -0.281,0.27l-3.03,0Zm9.372,-18.112c0,-0.163 0.113,-0.271 0.281,-0.271l8.333,0c0.168,0 0.281,0.108 0.281,0.271l0,2.649c0,0.163 -0.113,0.27 -0.281,0.27l-4.77,0c-0.113,0 -0.168,0.054 -0.168,0.163l0,4.001c0,0.107 0.055,0.162 0.168,0.162l4.125,0c0.168,0 0.281,0.108 0.281,0.269l0,2.651c0,0.161 -0.113,0.269 -0.281,0.269l-4.125,0c-0.113,0 -0.168,0.055 -0.168,0.163l0,4.163c0,0.107 0.055,0.161 0.168,0.161l4.77,0c0.168,0 0.281,0.11 0.281,0.271l0,2.651c0,0.161 -0.113,0.268 -0.281,0.268l-8.333,0c-0.168,0 -0.281,-0.107 -0.281,-0.268l0,-17.843Zm17.538,0c0,-0.163 0.113,-0.271 0.281,-0.271l3.114,0c0.168,0 0.281,0.108 0.281,0.271l0,14.76c0,0.107 0.055,0.161 0.168,0.161l4.825,0c0.168,0 0.281,0.11 0.281,0.271l0,2.651c0,0.161 -0.113,0.268 -0.281,0.268l-8.388,0c-0.168,0 -0.281,-0.107 -0.281,-0.268l0,-17.843Zm11.364,0c0,-0.163 0.113,-0.271 0.281,-0.271l3.115,0c0.168,0 0.28,0.108 0.28,0.271l0,17.843c0,0.161 -0.112,0.268 -0.28,0.268l-3.115,0c-0.168,0 -0.281,-0.107 -0.281,-0.268l0,-17.843Zm10.018,18.112c-0.168,0 -0.252,-0.107 -0.309,-0.27l-3.787,-17.841c-0.058,-0.163 0.026,-0.271 0.223,-0.271l3.172,0c0.168,0 0.28,0.081 0.307,0.271l1.937,11.624l0.084,0l1.852,-11.624c0.029,-0.19 0.139,-0.271 0.307,-0.271l3.117,0c0.194,0 0.278,0.108 0.223,0.271l-3.815,17.841c-0.029,0.163 -0.113,0.27 -0.281,0.27l-3.03,0Zm9.372,-18.112c0,-0.163 0.113,-0.271 0.281,-0.271l8.333,0c0.168,0 0.281,0.108 0.281,0.271l0,2.649c0,0.163 -0.113,0.27 -0.281,0.27l-4.77,0c-0.112,0 -0.168,0.054 -0.168,0.163l0,4.001c0,0.107 0.056,0.162 0.168,0.162l4.125,0c0.168,0 0.28,0.108 0.28,0.269l0,2.651c0,0.161 -0.112,0.269 -0.28,0.269l-4.125,0c-0.112,0 -0.168,0.055 -0.168,0.163l0,4.163c0,0.107 0.056,0.161 0.168,0.161l4.77,0c0.168,0 0.281,0.11 0.281,0.271l0,2.651c0,0.161 -0.113,0.268 -0.281,0.268l-8.333,0c-0.168,0 -0.281,-0.107 -0.281,-0.268l0,-17.843Zm16.107,18.356c-3.451,0 -5.106,-1.757 -5.163,-4.92c0,-0.163 0.057,-0.27 0.225,-0.297l3.002,-0.461c0.196,-0.027 0.309,0.056 0.309,0.217c0.055,1.703 0.561,2.38 1.655,2.38c1.037,0 1.515,-0.514 1.515,-2.19c0,-1.624 -0.337,-2.19 -1.768,-2.731l-1.15,-0.432c-2.695,-1 -3.619,-2.38 -3.619,-5.327c0,-3.324 1.654,-5.109 5.049,-5.109c3.34,0 4.911,1.676 5.051,4.568c0,0.163 -0.084,0.271 -0.252,0.298l-2.863,0.433c-0.168,0.027 -0.307,-0.055 -0.307,-0.216c-0.029,-1.325 -0.506,-2 -1.516,-2c-0.982,0 -1.459,0.595 -1.459,1.838c0,1.378 0.309,1.81 1.795,2.378l1.151,0.433c2.609,0.973 3.619,2.325 3.619,5.433c0,3.758 -1.486,5.705 -5.274,5.705m-179.138,-36.594c-0.351,0 -0.526,-0.115 -0.642,-0.451l-4.501,-14.545l-2.223,0c-0.234,0 -0.35,0.111 -0.35,0.338l-0.005,14.091c0,0.34 -0.235,0.563 -0.587,0.563l-6.492,-0.001c-0.352,0 -0.585,-0.225 -0.585,-0.563l0.013,-37.205c0,-0.338 0.234,-0.563 0.585,-0.563l9.476,0.003c7.08,0.002 11.643,3.217 11.639,11.728c-0.001,4.848 -1.699,8.006 -4.449,9.806l5.434,16.237c0.118,0.283 0,0.565 -0.292,0.565l-7.021,-0.003Zm-1.393,-26.608c0,-4 -1.286,-5.242 -4.269,-5.242l-1.698,-0.002c-0.233,0 -0.351,0.114 -0.351,0.34l-0.003,9.808c0,0.224 0.117,0.337 0.351,0.337l1.696,0.001c2.985,0 4.272,-1.181 4.274,-5.242Zm13.226,-11.155c0,-0.338 0.233,-0.565 0.585,-0.565l17.375,0.005c0.352,0.002 0.585,0.227 0.585,0.565l-0.002,5.525c0,0.339 -0.235,0.563 -0.586,0.563l-9.945,-0.002c-0.234,0 -0.35,0.111 -0.35,0.338l-0.003,8.341c0,0.227 0.116,0.338 0.35,0.338l8.6,0.003c0.351,0 0.585,0.225 0.585,0.565l-0.002,5.523c0,0.338 -0.235,0.565 -0.585,0.565l-8.6,-0.004c-0.234,0 -0.351,0.113 -0.351,0.34l-0.004,8.679c0,0.225 0.118,0.338 0.351,0.338l9.945,0.003c0.352,0.002 0.585,0.226 0.585,0.565l-0.001,5.525c0,0.338 -0.234,0.563 -0.585,0.563l-17.376,-0.007c-0.351,0 -0.585,-0.225 -0.585,-0.563l0.014,-37.203Zm33.041,38.286c-7.197,-0.004 -10.645,-3.669 -10.761,-10.265c0,-0.337 0.119,-0.563 0.47,-0.62l6.259,-0.954c0.41,-0.057 0.644,0.112 0.644,0.45c0.114,3.551 1.166,4.96 3.449,4.962c2.165,0.001 3.16,-1.069 3.161,-4.565c0.002,-3.382 -0.701,-4.567 -3.684,-5.695l-2.398,-0.902c-5.616,-2.088 -7.545,-4.963 -7.544,-11.107c0.004,-6.934 3.458,-10.654 10.535,-10.65c6.962,0.001 10.238,3.497 10.527,9.529c0,0.338 -0.175,0.564 -0.526,0.621l-5.968,0.897c-0.352,0.057 -0.644,-0.111 -0.644,-0.45c-0.056,-2.762 -1.051,-4.17 -3.157,-4.172c-2.049,0 -3.042,1.239 -3.043,3.832c-0.002,2.876 0.642,3.777 3.743,4.962l2.398,0.902c5.439,2.032 7.545,4.851 7.541,11.334c-0.001,7.835 -3.104,11.892 -11.002,11.891m16.033,-6.479c-0.642,-1.748 -0.817,-3.325 -0.813,-13.191c0.003,-9.864 0.178,-11.442 0.823,-13.188c1.464,-4.229 4.975,-6.481 10.182,-6.481c5.207,0.001 8.715,2.259 10.177,6.487c0.642,1.747 0.819,3.325 0.814,13.189c-0.004,9.866 -0.18,11.443 -0.824,13.191c-1.464,4.228 -4.975,6.482 -10.182,6.481c-5.207,-0.004 -8.716,-2.259 -10.177,-6.488m12.987,-2.025c0.294,-0.901 0.412,-1.86 0.415,-11.162c0.002,-9.3 -0.114,-10.258 -0.406,-11.159c-0.35,-1.072 -1.345,-1.862 -2.807,-1.862c-1.462,-0.002 -2.458,0.788 -2.809,1.861c-0.292,0.899 -0.41,1.858 -0.413,11.16c-0.004,9.301 0.112,10.259 0.405,11.16c0.351,1.072 1.346,1.86 2.808,1.862c1.463,0 2.458,-0.79 2.807,-1.86m13.645,-29.757c0,-0.338 0.233,-0.564 0.585,-0.564l6.494,0.003c0.351,0 0.585,0.223 0.585,0.563l-0.012,30.778c0,0.225 0.118,0.337 0.351,0.337l10.063,0.004c0.351,0 0.585,0.225 0.585,0.565l-0.002,5.524c0,0.338 -0.235,0.563 -0.586,0.563l-17.492,-0.007c-0.351,0 -0.585,-0.225 -0.585,-0.564l0.014,-37.202Zm25.728,37.775c-0.351,0 -0.526,-0.225 -0.642,-0.564l-7.886,-37.205c-0.118,-0.338 0.059,-0.565 0.469,-0.565l6.611,0.003c0.351,0 0.584,0.168 0.643,0.563l4.027,24.24l0.177,0l3.869,-24.238c0.058,-0.393 0.292,-0.563 0.643,-0.563l6.495,0.003c0.408,0 0.585,0.226 0.467,0.564l-7.968,37.201c-0.059,0.338 -0.236,0.563 -0.587,0.563l-6.318,-0.002Zm19.028,-37.761c0,-0.338 0.234,-0.563 0.585,-0.563l17.376,0.005c0.351,0 0.585,0.227 0.585,0.564l-0.002,5.523c0,0.34 -0.235,0.563 -0.587,0.563l-9.945,-0.001c-0.233,0 -0.351,0.111 -0.351,0.337l-0.002,8.342c0,0.225 0.117,0.34 0.35,0.34l8.601,0.003c0.351,0 0.585,0.225 0.585,0.563l-0.002,5.524c0,0.338 -0.236,0.564 -0.585,0.564l-8.6,-0.004c-0.236,0 -0.352,0.113 -0.352,0.34l-0.003,8.679c0,0.225 0.117,0.34 0.351,0.34l9.945,0.003c0.351,0 0.585,0.225 0.585,0.565l-0.002,5.522c0,0.338 -0.233,0.564 -0.584,0.564l-17.376,-0.005c-0.352,0 -0.585,-0.226 -0.585,-0.563l0.013,-37.205Z" style="fill:#fff;"/></g><g id="Isolation-Mode" serif:id="Isolation Mode"><g><path d="M10.205,108.005l-0.524,-2.875l-0.036,0l-0.549,2.875l1.109,0Zm-1.401,-5.274c0.025,-0.073 0.062,-0.122 0.135,-0.122l1.436,0c0.073,0 0.122,0.049 0.135,0.122l1.778,8.038c0.011,0.073 -0.025,0.121 -0.098,0.121l-1.352,0c-0.085,0 -0.122,-0.048 -0.134,-0.121l-0.267,-1.498l-1.571,0l-0.28,1.498c-0.013,0.073 -0.049,0.121 -0.134,0.121l-1.352,0c-0.073,0 -0.109,-0.048 -0.098,-0.121l1.802,-8.038Z" style="fill:#2b307e;fill-rule:nonzero;"/><path d="M15.154,102.731c0,-0.072 0.049,-0.121 0.122,-0.121l1.522,0c0.098,0 0.147,0.037 0.171,0.121l1.376,5.202l0.061,0l0,-5.202c0,-0.072 0.049,-0.121 0.121,-0.121l1.157,0c0.074,0 0.123,0.049 0.123,0.121l0,8.038c0,0.073 -0.049,0.122 -0.123,0.122l-1.461,0c-0.098,0 -0.146,-0.037 -0.171,-0.122l-1.437,-5.2l-0.06,0l0,5.2c0,0.073 -0.049,0.122 -0.122,0.122l-1.157,0c-0.073,0 -0.122,-0.049 -0.122,-0.122l0,-8.038Z" style="fill:#2b307e;fill-rule:nonzero;"/><path d="M27.694,102.731c0,-0.072 0.049,-0.121 0.122,-0.121l1.352,0c0.073,0 0.121,0.049 0.121,0.121l0,8.038c0,0.073 -0.048,0.122 -0.121,0.122l-1.352,0c-0.073,0 -0.122,-0.049 -0.122,-0.122l0,-8.038Z" style="fill:#2b307e;fill-rule:nonzero;"/><path d="M32.605,102.731c0,-0.072 0.049,-0.121 0.121,-0.121l1.523,0c0.097,0 0.146,0.037 0.171,0.121l1.376,5.202l0.06,0l0,-5.202c0,-0.072 0.049,-0.121 0.121,-0.121l1.158,0c0.073,0 0.122,0.049 0.122,0.121l0,8.038c0,0.073 -0.049,0.122 -0.122,0.122l-1.461,0c-0.098,0 -0.147,-0.037 -0.171,-0.122l-1.437,-5.2l-0.061,0l0,5.2c0,0.073 -0.048,0.122 -0.122,0.122l-1.157,0c-0.072,0 -0.121,-0.049 -0.121,-0.122l0,-8.038Z" style="fill:#2b307e;fill-rule:nonzero;"/><path d="M40.574,102.731c0,-0.072 0.049,-0.121 0.122,-0.121l1.352,0c0.073,0 0.121,0.049 0.121,0.121l0,8.038c0,0.073 -0.048,0.122 -0.121,0.122l-1.352,0c-0.073,0 -0.122,-0.049 -0.122,-0.122l0,-8.038Z" style="fill:#2b307e;fill-rule:nonzero;"/><path d="M46.715,110.891c-0.072,0 -0.121,-0.049 -0.121,-0.121l0,-6.65c0,-0.048 -0.024,-0.073 -0.073,-0.073l-1.305,0c-0.072,0 -0.121,-0.049 -0.121,-0.121l0,-1.195c0,-0.072 0.049,-0.121 0.121,-0.121l4.349,0c0.072,0 0.121,0.049 0.121,0.121l0,1.195c0,0.072 -0.049,0.121 -0.121,0.121l-1.303,0c-0.049,0 -0.073,0.025 -0.073,0.073l0,6.65c0,0.072 -0.049,0.121 -0.122,0.121l-1.352,0Z" style="fill:#2b307e;fill-rule:nonzero;"/><path d="M52.614,102.731c0,-0.072 0.049,-0.121 0.121,-0.121l1.353,0c0.074,0 0.121,0.049 0.121,0.121l0,8.038c0,0.073 -0.047,0.122 -0.121,0.122l-1.353,0c-0.072,0 -0.121,-0.049 -0.121,-0.122l0,-8.038Z" style="fill:#2b307e;fill-rule:nonzero;"/><path d="M60.277,108.005l-0.523,-2.875l-0.037,0l-0.549,2.875l1.109,0Zm-1.401,-5.274c0.025,-0.073 0.062,-0.122 0.135,-0.122l1.436,0c0.073,0 0.122,0.049 0.135,0.122l1.778,8.038c0.011,0.073 -0.025,0.121 -0.098,0.121l-1.352,0c-0.085,0 -0.122,-0.048 -0.134,-0.121l-0.267,-1.498l-1.571,0l-0.28,1.498c-0.013,0.073 -0.049,0.121 -0.134,0.121l-1.352,0c-0.073,0 -0.109,-0.048 -0.098,-0.121l1.802,-8.038Z" style="fill:#2b307e;fill-rule:nonzero;"/><path d="M65.848,110.891c-0.073,0 -0.121,-0.049 -0.121,-0.121l0,-6.65c0,-0.048 -0.025,-0.073 -0.074,-0.073l-1.304,0c-0.072,0 -0.121,-0.049 -0.121,-0.121l0,-1.195c0,-0.072 0.049,-0.121 0.121,-0.121l4.349,0c0.072,0 0.121,0.049 0.121,0.121l0,1.195c0,0.072 -0.049,0.121 -0.121,0.121l-1.303,0c-0.049,0 -0.073,0.025 -0.073,0.073l0,6.65c0,0.072 -0.049,0.121 -0.123,0.121l-1.351,0Z" style="fill:#2b307e;fill-rule:nonzero;"/><path d="M71.746,102.731c0,-0.072 0.049,-0.121 0.123,-0.121l1.351,0c0.074,0 0.121,0.049 0.121,0.121l0,8.038c0,0.073 -0.047,0.122 -0.121,0.122l-1.351,0c-0.074,0 -0.123,-0.049 -0.123,-0.122l0,-8.038Z" style="fill:#2b307e;fill-rule:nonzero;"/><path d="M78.046,110.891c-0.073,0 -0.109,-0.049 -0.134,-0.121l-1.644,-8.039c-0.024,-0.072 0.012,-0.121 0.098,-0.121l1.375,0c0.073,0 0.122,0.037 0.135,0.121l0.84,5.237l0.036,0l0.804,-5.237c0.013,-0.084 0.06,-0.121 0.134,-0.121l1.352,0c0.085,0 0.122,0.049 0.097,0.121l-1.656,8.039c-0.012,0.072 -0.049,0.121 -0.122,0.121l-1.315,0Z" style="fill:#2b307e;fill-rule:nonzero;"/><path d="M84.066,102.731c0,-0.072 0.049,-0.121 0.121,-0.121l3.617,0c0.074,0 0.122,0.049 0.122,0.121l0,1.194c0,0.073 -0.048,0.122 -0.122,0.122l-2.069,0c-0.049,0 -0.074,0.024 -0.074,0.072l0,1.803c0,0.049 0.025,0.074 0.074,0.074l1.79,0c0.073,0 0.122,0.049 0.122,0.121l0,1.193c0,0.074 -0.049,0.123 -0.122,0.123l-1.79,0c-0.049,0 -0.074,0.024 -0.074,0.073l0,1.875c0,0.049 0.025,0.072 0.074,0.072l2.069,0c0.074,0 0.122,0.049 0.122,0.123l0,1.193c0,0.073 -0.048,0.122 -0.122,0.122l-3.617,0c-0.072,0 -0.121,-0.049 -0.121,-0.122l0,-8.038Z" style="fill:#2b307e;fill-rule:nonzero;"/><path d="M98.334,109.162c0.061,-0.196 0.085,-0.403 0.085,-2.411c0,-2.01 -0.024,-2.217 -0.085,-2.412c-0.073,-0.231 -0.28,-0.401 -0.584,-0.401c-0.304,0 -0.511,0.17 -0.585,0.401c-0.06,0.195 -0.085,0.402 -0.085,2.412c0,2.008 0.025,2.215 0.085,2.411c0.074,0.231 0.281,0.402 0.585,0.402c0.304,0 0.511,-0.171 0.584,-0.402m-2.703,0.438c-0.134,-0.377 -0.17,-0.718 -0.17,-2.849c0,-2.131 0.036,-2.472 0.17,-2.849c0.305,-0.915 1.035,-1.402 2.119,-1.402c1.084,0 1.814,0.487 2.119,1.402c0.134,0.377 0.17,0.718 0.17,2.849c0,2.131 -0.036,2.472 -0.17,2.849c-0.305,0.914 -1.035,1.4 -2.119,1.4c-1.084,0 -1.814,-0.486 -2.119,-1.4" style="fill:#2b307e;fill-rule:nonzero;"/><path d="M103.235,102.731c0,-0.072 0.049,-0.121 0.121,-0.121l3.617,0c0.074,0 0.122,0.049 0.122,0.121l0,1.194c0,0.073 -0.048,0.122 -0.122,0.122l-2.069,0c-0.049,0 -0.074,0.024 -0.074,0.072l0,1.877c0,0.049 0.025,0.073 0.074,0.073l1.79,0c0.073,0 0.122,0.048 0.122,0.121l0,1.206c0,0.073 -0.049,0.121 -0.122,0.121l-1.79,0c-0.049,0 -0.074,0.025 -0.074,0.074l0,3.178c0,0.073 -0.047,0.122 -0.121,0.122l-1.353,0c-0.072,0 -0.121,-0.049 -0.121,-0.122l0,-8.038Z" style="fill:#2b307e;fill-rule:nonzero;"/><path d="M115.835,110.891c-0.073,0 -0.11,-0.049 -0.134,-0.121l-1.645,-8.039c-0.024,-0.072 0.013,-0.121 0.098,-0.121l1.376,0c0.074,0 0.121,0.037 0.135,0.121l0.839,5.237l0.036,0l0.804,-5.237c0.014,-0.084 0.062,-0.121 0.134,-0.121l1.352,0c0.086,0 0.123,0.049 0.097,0.121l-1.656,8.039c-0.011,0.072 -0.048,0.121 -0.121,0.121l-1.315,0Z" style="fill:#2b307e;fill-rule:nonzero;"/><path d="M121.856,102.731c0,-0.072 0.048,-0.121 0.121,-0.121l1.353,0c0.072,0 0.121,0.049 0.121,0.121l0,8.038c0,0.073 -0.049,0.122 -0.121,0.122l-1.353,0c-0.073,0 -0.121,-0.049 -0.121,-0.122l0,-8.038Z" style="fill:#2b307e;fill-rule:nonzero;"/><path d="M127.996,110.891c-0.072,0 -0.122,-0.049 -0.122,-0.121l0,-6.65c0,-0.048 -0.024,-0.073 -0.073,-0.073l-1.303,0c-0.073,0 -0.122,-0.049 -0.122,-0.121l0,-1.195c0,-0.072 0.049,-0.121 0.122,-0.121l4.348,0c0.073,0 0.122,0.049 0.122,0.121l0,1.195c0,0.072 -0.049,0.121 -0.122,0.121l-1.303,0c-0.049,0 -0.074,0.025 -0.074,0.073l0,6.65c0,0.072 -0.047,0.121 -0.121,0.121l-1.352,0Z" style="fill:#2b307e;fill-rule:nonzero;"/><path d="M136.038,108.005l-0.524,-2.875l-0.036,0l-0.549,2.875l1.109,0Zm-1.4,-5.274c0.024,-0.073 0.061,-0.122 0.133,-0.122l1.437,0c0.073,0 0.122,0.049 0.135,0.122l1.777,8.038c0.013,0.073 -0.023,0.121 -0.097,0.121l-1.351,0c-0.086,0 -0.123,-0.048 -0.134,-0.121l-0.269,-1.498l-1.57,0l-0.282,1.498c-0.01,0.073 -0.047,0.121 -0.133,0.121l-1.352,0c-0.072,0 -0.11,-0.048 -0.097,-0.121l1.803,-8.038Z" style="fill:#2b307e;fill-rule:nonzero;"/><path d="M140.987,102.731c0,-0.072 0.05,-0.121 0.122,-0.121l1.353,0c0.072,0 0.12,0.049 0.12,0.121l0,6.65c0,0.049 0.026,0.072 0.074,0.072l2.093,0c0.075,0 0.124,0.049 0.124,0.123l0,1.193c0,0.073 -0.049,0.122 -0.124,0.122l-3.64,0c-0.072,0 -0.122,-0.049 -0.122,-0.122l0,-8.038Z" style="fill:#2b307e;fill-rule:nonzero;"/><path d="M154.439,111c-1.497,0 -2.215,-0.791 -2.241,-2.215c0,-0.073 0.026,-0.123 0.098,-0.135l1.303,-0.206c0.086,-0.013 0.135,0.023 0.135,0.098c0.023,0.765 0.243,1.07 0.718,1.07c0.45,0 0.657,-0.231 0.657,-0.987c0,-0.73 -0.145,-0.986 -0.768,-1.229l-0.499,-0.196c-1.169,-0.449 -1.57,-1.071 -1.57,-2.399c0,-1.497 0.718,-2.301 2.191,-2.301c1.451,0 2.133,0.756 2.192,2.058c0,0.072 -0.036,0.122 -0.108,0.134l-1.242,0.195c-0.074,0.012 -0.134,-0.024 -0.134,-0.097c-0.013,-0.598 -0.221,-0.902 -0.659,-0.902c-0.426,0 -0.631,0.268 -0.631,0.83c0,0.62 0.133,0.815 0.778,1.071l0.499,0.194c1.133,0.438 1.572,1.047 1.572,2.448c0,1.692 -0.646,2.569 -2.291,2.569" style="fill:#2b307e;fill-rule:nonzero;"/><path d="M160.874,110.891c-0.072,0 -0.121,-0.049 -0.121,-0.121l0,-6.65c0,-0.048 -0.024,-0.073 -0.074,-0.073l-1.302,0c-0.073,0 -0.124,-0.049 -0.124,-0.121l0,-1.195c0,-0.072 0.051,-0.121 0.124,-0.121l4.346,0c0.074,0 0.124,0.049 0.124,0.121l0,1.195c0,0.072 -0.05,0.121 -0.124,0.121l-1.302,0c-0.05,0 -0.073,0.025 -0.073,0.073l0,6.65c0,0.072 -0.049,0.121 -0.122,0.121l-1.352,0Z" style="fill:#2b307e;fill-rule:nonzero;"/><path d="M169.684,105.143c0,-0.864 -0.268,-1.133 -0.889,-1.133l-0.354,0c-0.047,0 -0.073,0.026 -0.073,0.073l0,2.12c0,0.048 0.026,0.073 0.073,0.073l0.354,0c0.621,0 0.889,-0.257 0.889,-1.133m0.292,5.747c-0.073,0 -0.111,-0.024 -0.134,-0.097l-0.938,-3.142l-0.463,0c-0.047,0 -0.073,0.025 -0.073,0.074l0,3.044c0,0.073 -0.048,0.121 -0.121,0.121l-1.352,0c-0.073,0 -0.122,-0.048 -0.122,-0.121l0,-8.038c0,-0.073 0.049,-0.122 0.122,-0.122l1.973,0c1.472,0 2.422,0.695 2.422,2.534c0,1.046 -0.352,1.729 -0.924,2.119l1.133,3.507c0.023,0.061 0,0.121 -0.061,0.121l-1.462,0Z" style="fill:#2b307e;fill-rule:nonzero;"/><path d="M177.252,108.005l-0.524,-2.875l-0.036,0l-0.548,2.875l1.108,0Zm-1.401,-5.274c0.024,-0.073 0.061,-0.122 0.134,-0.122l1.436,0c0.075,0 0.123,0.049 0.135,0.122l1.778,8.038c0.012,0.073 -0.024,0.121 -0.098,0.121l-1.352,0c-0.083,0 -0.122,-0.048 -0.133,-0.121l-0.269,-1.498l-1.57,0l-0.28,1.498c-0.013,0.073 -0.05,0.121 -0.134,0.121l-1.352,0c-0.072,0 -0.11,-0.048 -0.097,-0.121l1.802,-8.038Z" style="fill:#2b307e;fill-rule:nonzero;"/><path d="M182.822,110.891c-0.072,0 -0.122,-0.049 -0.122,-0.121l0,-6.65c0,-0.048 -0.024,-0.073 -0.073,-0.073l-1.303,0c-0.074,0 -0.123,-0.049 -0.123,-0.121l0,-1.195c0,-0.072 0.049,-0.121 0.123,-0.121l4.347,0c0.074,0 0.122,0.049 0.122,0.121l0,1.195c0,0.072 -0.048,0.121 -0.122,0.121l-1.303,0c-0.049,0 -0.073,0.025 -0.073,0.073l0,6.65c0,0.072 -0.048,0.121 -0.121,0.121l-1.352,0Z" style="fill:#2b307e;fill-rule:nonzero;"/><path d="M188.721,102.731c0,-0.072 0.048,-0.121 0.121,-0.121l3.617,0c0.072,0 0.122,0.049 0.122,0.121l0,1.194c0,0.073 -0.05,0.122 -0.122,0.122l-2.07,0c-0.049,0 -0.073,0.024 -0.073,0.072l0,1.803c0,0.049 0.024,0.074 0.073,0.074l1.791,0c0.072,0 0.121,0.049 0.121,0.121l0,1.193c0,0.074 -0.049,0.123 -0.121,0.123l-1.791,0c-0.049,0 -0.073,0.024 -0.073,0.073l0,1.875c0,0.049 0.024,0.072 0.073,0.072l2.07,0c0.072,0 0.122,0.049 0.122,0.123l0,1.193c0,0.073 -0.05,0.122 -0.122,0.122l-3.617,0c-0.073,0 -0.121,-0.049 -0.121,-0.122l0,-8.038Z" style="fill:#2b307e;fill-rule:nonzero;"/><path d="M195.545,106.751c0,-2.131 0.036,-2.472 0.159,-2.863c0.304,-0.9 1.023,-1.387 2.131,-1.387c1.338,0 2.118,0.718 2.228,2.057c0.013,0.073 -0.024,0.134 -0.096,0.146l-1.293,0.22c-0.072,0.011 -0.121,-0.025 -0.134,-0.109c-0.036,-0.598 -0.28,-0.877 -0.693,-0.877c-0.292,0 -0.536,0.158 -0.61,0.388c-0.061,0.196 -0.072,0.294 -0.072,2.425c0,2.117 0.011,2.228 0.072,2.41c0.074,0.244 0.33,0.403 0.635,0.403c0.304,0 0.558,-0.159 0.632,-0.403c0.049,-0.169 0.074,-0.293 0.074,-1.51c0,-0.049 -0.025,-0.073 -0.074,-0.073l-0.523,0c-0.073,0 -0.122,-0.048 -0.122,-0.121l0,-1.071c0,-0.074 0.049,-0.123 0.122,-0.123l2.008,0c0.074,0 0.123,0.049 0.123,0.123l0,0.365c0,2.131 -0.036,2.472 -0.171,2.849c-0.303,0.913 -1.022,1.4 -2.106,1.4c-1.108,0 -1.827,-0.487 -2.131,-1.388c-0.123,-0.389 -0.159,-0.73 -0.159,-2.861" style="fill:#2b307e;fill-rule:nonzero;"/><path d="M203.283,102.731c0,-0.072 0.049,-0.121 0.121,-0.121l1.353,0c0.072,0 0.121,0.049 0.121,0.121l0,8.038c0,0.073 -0.049,0.122 -0.121,0.122l-1.353,0c-0.072,0 -0.121,-0.049 -0.121,-0.122l0,-8.038Z" style="fill:#2b307e;fill-rule:nonzero;"/><path d="M208.194,102.731c0,-0.072 0.048,-0.121 0.121,-0.121l3.618,0c0.072,0 0.122,0.049 0.122,0.121l0,1.194c0,0.073 -0.05,0.122 -0.122,0.122l-2.07,0c-0.049,0 -0.073,0.024 -0.073,0.072l0,1.803c0,0.049 0.024,0.074 0.073,0.074l1.79,0c0.072,0 0.121,0.049 0.121,0.121l0,1.193c0,0.074 -0.049,0.123 -0.121,0.123l-1.79,0c-0.049,0 -0.073,0.024 -0.073,0.073l0,1.875c0,0.049 0.024,0.072 0.073,0.072l2.07,0c0.072,0 0.122,0.049 0.122,0.123l0,1.193c0,0.073 -0.05,0.122 -0.122,0.122l-3.618,0c-0.073,0 -0.121,-0.049 -0.121,-0.122l0,-8.038Z" style="fill:#2b307e;fill-rule:nonzero;"/><path d="M217.137,111c-1.498,0 -2.216,-0.791 -2.242,-2.215c0,-0.073 0.026,-0.123 0.098,-0.135l1.304,-0.206c0.085,-0.013 0.134,0.023 0.134,0.098c0.023,0.765 0.244,1.07 0.719,1.07c0.449,0 0.656,-0.231 0.656,-0.987c0,-0.73 -0.145,-0.986 -0.767,-1.229l-0.499,-0.196c-1.17,-0.449 -1.57,-1.071 -1.57,-2.399c0,-1.497 0.719,-2.301 2.192,-2.301c1.449,0 2.131,0.756 2.191,2.058c0,0.072 -0.036,0.122 -0.108,0.134l-1.243,0.195c-0.073,0.012 -0.134,-0.024 -0.134,-0.097c-0.012,-0.598 -0.22,-0.902 -0.659,-0.902c-0.426,0 -0.631,0.268 -0.631,0.83c0,0.62 0.133,0.815 0.778,1.071l0.5,0.194c1.132,0.438 1.571,1.047 1.571,2.448c0,1.692 -0.646,2.569 -2.29,2.569" style="fill:#2b307e;fill-rule:nonzero;"/></g></g></svg>