<?xml version="1.0" encoding="UTF-8" standalone="no"?><!DOCTYPE svg PUBLIC "-//W3C//DTD SVG 1.1//EN" "http://www.w3.org/Graphics/SVG/1.1/DTD/svg11.dtd"><svg width="100%" height="100%" viewBox="0 0 228 117" version="1.1" xmlns="http://www.w3.org/2000/svg" xmlns:xlink="http://www.w3.org/1999/xlink" xml:space="preserve" xmlns:serif="http://www.serif.com/" style="fill-rule:evenodd;clip-rule:evenodd;stroke-linejoin:round;stroke-miterlimit:1.41421;"><rect id="RTSL-Logo-strapline-white" x="0" y="0" width="228" height="117" style="fill:none;"/><rect x="191.906" y="7.16" width="29.243" height="55.723" style="fill:#fff;"/><rect x="6" y="67" width="60" height="30" style="fill:#fff;"/><path d="M220,97l-150,0l0,-30l150,0l0,30Zm-132.116,-8.739c-0.31,-0.839 -0.394,-1.595 -0.394,-6.326c0,-4.732 0.084,-5.488 0.394,-6.327c0.7,-2.027 2.385,-3.108 4.882,-3.108c2.496,0 4.18,1.081 4.881,3.108c0.309,0.839 0.393,1.595 0.393,6.327c0,4.731 -0.084,5.487 -0.393,6.326c-0.701,2.027 -2.385,3.109 -4.881,3.109c-2.497,0 -4.182,-1.082 -4.882,-3.109Zm120.8,3.108c-3.451,0 -5.106,-1.756 -5.163,-4.919c0,-0.163 0.057,-0.271 0.225,-0.298l3.002,-0.46c0.196,-0.027 0.309,0.055 0.309,0.217c0.055,1.702 0.561,2.379 1.655,2.379c1.037,0 1.515,-0.514 1.515,-2.19c0,-1.623 -0.337,-2.19 -1.768,-2.731l-1.15,-0.432c-2.695,-1 -3.619,-2.38 -3.619,-5.326c0,-3.324 1.654,-5.109 5.049,-5.109c3.34,0 4.911,1.675 5.051,4.568c0,0.163 -0.084,0.27 -0.252,0.297l-2.863,0.434c-0.168,0.027 -0.307,-0.055 -0.307,-0.217c-0.029,-1.324 -0.506,-2 -1.516,-2c-0.982,0 -1.459,0.595 -1.459,1.839c0,1.378 0.309,1.81 1.795,2.378l1.151,0.432c2.609,0.973 3.619,2.326 3.619,5.434c0,3.758 -1.486,5.704 -5.274,5.704Zm-97.146,0c-3.45,0 -5.106,-1.756 -5.163,-4.919c0,-0.163 0.057,-0.271 0.225,-0.298l3.002,-0.46c0.197,-0.027 0.309,0.055 0.309,0.217c0.056,1.702 0.562,2.379 1.656,2.379c1.037,0 1.514,-0.514 1.514,-2.19c0,-1.623 -0.336,-2.19 -1.768,-2.731l-1.15,-0.432c-2.694,-1 -3.618,-2.38 -3.618,-5.326c0,-3.324 1.653,-5.109 5.049,-5.109c3.339,0 4.911,1.675 5.05,4.568c0,0.163 -0.084,0.27 -0.252,0.297l-2.862,0.434c-0.168,0.027 -0.308,-0.055 -0.308,-0.217c-0.028,-1.324 -0.506,-2 -1.516,-2c-0.981,0 -1.459,0.595 -1.459,1.839c0,1.378 0.31,1.81 1.795,2.378l1.152,0.432c2.608,0.973 3.618,2.326 3.618,5.434c0,3.758 -1.485,5.704 -5.274,5.704Zm-25.788,-15.435c0.168,0 0.28,-0.11 0.28,-0.27l0,-2.649c0,-0.163 -0.112,-0.271 -0.28,-0.271l-10.016,0c-0.17,0 -0.281,0.108 -0.281,0.271l0,2.649c0,0.161 0.111,0.27 0.281,0.27l3.002,0c0.111,0 0.168,0.054 0.168,0.161l0,14.761c0,0.163 0.113,0.27 0.281,0.27l3.114,0c0.169,0 0.281,-0.108 0.281,-0.27l0,-14.761c0,-0.107 0.055,-0.161 0.168,-0.161l3.002,0Zm100.485,15.192c0.168,0 0.252,-0.108 0.281,-0.27l3.815,-17.841c0.055,-0.163 -0.029,-0.271 -0.223,-0.271l-3.117,0c-0.168,0 -0.278,0.081 -0.307,0.271l-1.852,11.624l-0.084,0l-1.937,-11.624c-0.027,-0.19 -0.139,-0.271 -0.307,-0.271l-3.172,0c-0.197,0 -0.281,0.108 -0.223,0.271l3.787,17.841c0.057,0.163 0.141,0.27 0.309,0.27l3.03,0Zm-48.292,0c0.169,0 0.252,-0.108 0.281,-0.27l3.815,-17.841c0.056,-0.163 -0.028,-0.271 -0.223,-0.271l-3.116,0c-0.169,0 -0.279,0.081 -0.308,0.271l-1.852,11.624l-0.084,0l-1.937,-11.624c-0.026,-0.19 -0.139,-0.271 -0.307,-0.271l-3.17,0c-0.197,0 -0.282,0.108 -0.225,0.271l3.787,17.841c0.057,0.163 0.141,0.27 0.309,0.27l3.03,0Zm38.64,-0.001c0.168,0 0.28,-0.107 0.28,-0.268l0,-17.843c0,-0.163 -0.112,-0.271 -0.28,-0.271l-3.115,0c-0.168,0 -0.281,0.108 -0.281,0.271l0,17.843c0,0.161 0.113,0.268 0.281,0.268l3.115,0Zm-46.357,0c0.168,0 0.252,-0.107 0.224,-0.268l-4.096,-17.843c-0.029,-0.163 -0.141,-0.271 -0.31,-0.271l-3.309,0c-0.168,0 -0.254,0.108 -0.309,0.271l-4.153,17.843c-0.027,0.161 0.057,0.268 0.225,0.268l3.114,0c0.197,0 0.281,-0.107 0.31,-0.268l0.645,-3.327l3.619,0l0.616,3.327c0.029,0.161 0.113,0.268 0.31,0.268l3.114,0Zm70.965,-15.192c0.168,0 0.281,-0.107 0.281,-0.27l0,-2.649c0,-0.163 -0.113,-0.271 -0.281,-0.271l-8.333,0c-0.168,0 -0.281,0.108 -0.281,0.271l0,17.843c0,0.161 0.113,0.268 0.281,0.268l8.333,0c0.168,0 0.281,-0.107 0.281,-0.268l0,-2.651c0,-0.161 -0.113,-0.27 -0.281,-0.271l-4.77,0c-0.113,0 -0.168,-0.054 -0.168,-0.161l0,-4.163c0,-0.108 0.055,-0.163 0.168,-0.163l4.125,0c0.168,-0.001 0.28,-0.108 0.28,-0.269l0,-2.651c0,-0.161 -0.112,-0.268 -0.28,-0.269l-4.125,0c-0.113,0 -0.168,-0.055 -0.168,-0.162l0,-4.001c0,-0.109 0.055,-0.163 0.168,-0.163l4.77,0Zm-35.524,12.002c-0.113,0 -0.168,-0.054 -0.168,-0.161l0,-14.76c0,-0.163 -0.113,-0.271 -0.281,-0.271l-3.114,0c-0.168,0 -0.281,0.108 -0.281,0.271l0,17.843c0,0.161 0.113,0.268 0.281,0.268l8.388,0c0.168,0 0.281,-0.107 0.281,-0.268l0,-2.651c0,-0.161 -0.113,-0.27 -0.281,-0.271l-4.825,0Zm-12.768,-12.002c0.169,0 0.281,-0.107 0.281,-0.27l0,-2.649c0,-0.163 -0.113,-0.271 -0.281,-0.271l-8.333,0c-0.168,0 -0.281,0.108 -0.281,0.271l0,17.843c0,0.161 0.113,0.268 0.281,0.268l8.333,0c0.169,0 0.281,-0.107 0.281,-0.268l0,-2.651c0,-0.161 -0.112,-0.27 -0.281,-0.271l-4.77,0c-0.113,0 -0.168,-0.054 -0.168,-0.161l0,-4.163c0,-0.108 0.055,-0.163 0.168,-0.163l4.125,0c0.168,-0.001 0.281,-0.108 0.281,-0.269l0,-2.651c0,-0.161 -0.113,-0.268 -0.281,-0.269l-4.125,0c-0.113,0 -0.168,-0.055 -0.168,-0.162l0,-4.001c0,-0.109 0.055,-0.163 0.168,-0.163l4.77,0Zm-58.786,11.355c0.139,-0.432 0.196,-0.893 0.196,-5.353c0,-4.461 -0.057,-4.92 -0.196,-5.354c-0.169,-0.512 -0.646,-0.89 -1.347,-0.89c-0.702,0 -1.178,0.378 -1.348,0.89c-0.139,0.434 -0.196,0.893 -0.196,5.354c0,4.46 0.057,4.921 0.196,5.353c0.17,0.514 0.646,0.892 1.348,0.892c0.701,0 1.178,-0.378 1.347,-0.892Zm30.333,-8.948l1.207,6.38l-2.553,0l1.262,-6.38l0.084,0Zm63.554,-16.18l-182,0l0,-55l182,0l0,55Zm-97.547,-14.34c1.461,4.229 4.971,6.484 10.177,6.488c5.207,0.001 8.718,-2.253 10.182,-6.481c0.644,-1.748 0.82,-3.325 0.824,-13.191c0.005,-9.864 -0.172,-11.442 -0.814,-13.189c-1.462,-4.228 -4.97,-6.486 -10.177,-6.487c-5.207,0 -8.718,2.252 -10.182,6.481c-0.645,1.746 -0.82,3.324 -0.823,13.188c-0.004,9.866 0.171,11.443 0.813,13.191Zm-16.033,6.479c7.898,0.001 11.001,-4.056 11.002,-11.891c0.004,-6.483 -2.102,-9.302 -7.541,-11.334l-2.398,-0.902c-3.101,-1.185 -3.745,-2.086 -3.743,-4.962c0.001,-2.593 0.994,-3.832 3.043,-3.832c2.106,0.002 3.101,1.41 3.157,4.172c0,0.339 0.292,0.507 0.644,0.45l5.968,-0.897c0.351,-0.057 0.526,-0.283 0.526,-0.621c-0.289,-6.032 -3.565,-9.528 -10.527,-9.529c-7.077,-0.004 -10.531,3.716 -10.535,10.65c-0.001,6.144 1.928,9.019 7.544,11.107l2.398,0.902c2.983,1.128 3.686,2.313 3.684,5.695c-0.001,3.496 -0.996,4.566 -3.161,4.565c-2.283,-0.002 -3.335,-1.411 -3.449,-4.962c0,-0.338 -0.234,-0.507 -0.644,-0.45l-6.259,0.954c-0.351,0.057 -0.47,0.283 -0.47,0.62c0.116,6.596 3.564,10.261 10.761,10.265Zm87.421,-38.247c0,-0.338 0.234,-0.563 0.585,-0.563l17.376,0.005c0.351,0 0.585,0.227 0.585,0.564l-0.002,5.523c0,0.34 -0.235,0.563 -0.587,0.563l-9.945,-0.001c-0.233,0 -0.351,0.111 -0.351,0.337l-0.002,8.342c0,0.225 0.117,0.34 0.35,0.34l8.601,0.003c0.351,0 0.585,0.225 0.585,0.563l-0.002,5.524c0,0.338 -0.236,0.564 -0.585,0.564l-8.6,-0.004c-0.236,0 -0.352,0.113 -0.352,0.34l-0.003,8.679c0,0.225 0.117,0.34 0.351,0.34l9.945,0.003c0.351,0 0.585,0.225 0.585,0.565l-0.002,5.522c0,0.338 -0.233,0.564 -0.584,0.564l-17.376,-0.005c-0.352,0 -0.585,-0.226 -0.585,-0.563l0.013,-37.205Zm-19.028,37.761l6.318,0.002c0.351,0 0.528,-0.225 0.587,-0.563l7.968,-37.201c0.118,-0.338 -0.059,-0.564 -0.467,-0.564l-6.495,-0.003c-0.351,0 -0.585,0.17 -0.643,0.563l-3.869,24.238l-0.177,0l-4.027,-24.24c-0.059,-0.395 -0.292,-0.563 -0.643,-0.563l-6.611,-0.003c-0.41,0 -0.587,0.227 -0.469,0.565l7.886,37.205c0.116,0.339 0.291,0.564 0.642,0.564Zm-25.728,-37.775c0,-0.338 0.233,-0.564 0.585,-0.564l6.494,0.003c0.351,0 0.585,0.223 0.585,0.563l-0.012,30.778c0,0.225 0.118,0.337 0.351,0.337l10.063,0.004c0.351,0 0.585,0.225 0.585,0.565l-0.002,5.524c0,0.338 -0.235,0.563 -0.586,0.563l-17.492,-0.007c-0.351,0 -0.585,-0.225 -0.585,-0.564l0.014,-37.202Zm-75.706,-0.025l-0.014,37.203c0,0.338 0.234,0.563 0.585,0.563l17.376,0.007c0.351,0 0.585,-0.225 0.585,-0.563l0.001,-5.525c0,-0.339 -0.233,-0.563 -0.585,-0.565l-9.945,-0.003c-0.233,0 -0.351,-0.113 -0.351,-0.338l0.004,-8.679c0,-0.227 0.117,-0.34 0.351,-0.34l8.6,0.004c0.35,0 0.585,-0.227 0.585,-0.565l0.002,-5.523c0,-0.34 -0.234,-0.565 -0.585,-0.565l-8.6,-0.003c-0.234,0 -0.35,-0.111 -0.35,-0.338l0.003,-8.341c0,-0.227 0.116,-0.338 0.35,-0.338l9.945,0.002c0.351,0 0.586,-0.224 0.586,-0.563l0.002,-5.525c0,-0.338 -0.233,-0.563 -0.585,-0.565l-17.375,-0.005c-0.352,0 -0.585,0.227 -0.585,0.565Zm-16.976,22.767l4.501,14.545c0.116,0.336 0.291,0.451 0.642,0.451l7.021,0.003c0.292,0 0.41,-0.282 0.292,-0.565l-5.434,-16.237c2.75,-1.8 4.448,-4.958 4.449,-9.806c0.004,-8.511 -4.559,-11.726 -11.639,-11.728l-9.476,-0.003c-0.351,0 -0.585,0.225 -0.585,0.563l-0.013,37.205c0,0.338 0.233,0.563 0.585,0.563l6.492,0.001c0.352,0 0.587,-0.223 0.587,-0.563l0.005,-14.091c0,-0.226 0.115,-0.337 0.35,-0.338l2.223,0Zm79.037,7.015c-0.35,1.071 -1.344,1.86 -2.807,1.86c-1.462,-0.002 -2.457,-0.79 -2.808,-1.862c-0.293,-0.901 -0.409,-1.859 -0.405,-11.16c0.003,-9.302 0.121,-10.261 0.413,-11.16c0.351,-1.073 1.347,-1.863 2.809,-1.861c1.462,0 2.457,0.79 2.807,1.862c0.292,0.901 0.408,1.859 0.406,11.159c-0.003,9.302 -0.121,10.261 -0.415,11.162Zm-75.287,-18.627c-0.002,4.061 -1.29,5.242 -4.274,5.242l-1.696,-0.001c-0.234,0 -0.351,-0.113 -0.351,-0.337l0.003,-9.808c0,-0.226 0.118,-0.34 0.351,-0.34l1.698,0.002c2.983,0 4.269,1.242 4.269,5.242Z" style="fill:#fff;"/><g id="Isolation-Mode" serif:id="Isolation Mode"><g><path d="M10.205,107.505l-0.524,-2.875l-0.036,0l-0.549,2.875l1.109,0Zm-1.401,-5.274c0.025,-0.073 0.062,-0.122 0.135,-0.122l1.436,0c0.073,0 0.122,0.049 0.135,0.122l1.778,8.038c0.011,0.073 -0.025,0.121 -0.098,0.121l-1.352,0c-0.085,0 -0.122,-0.048 -0.134,-0.121l-0.267,-1.498l-1.571,0l-0.28,1.498c-0.013,0.073 -0.049,0.121 -0.134,0.121l-1.352,0c-0.073,0 -0.109,-0.048 -0.098,-0.121l1.802,-8.038Z" style="fill:#fff;fill-rule:nonzero;"/><path d="M15.154,102.231c0,-0.072 0.049,-0.121 0.122,-0.121l1.522,0c0.098,0 0.147,0.037 0.171,0.121l1.376,5.202l0.061,0l0,-5.202c0,-0.072 0.049,-0.121 0.121,-0.121l1.157,0c0.074,0 0.123,0.049 0.123,0.121l0,8.038c0,0.073 -0.049,0.122 -0.123,0.122l-1.461,0c-0.098,0 -0.146,-0.037 -0.171,-0.122l-1.437,-5.2l-0.06,0l0,5.2c0,0.073 -0.049,0.122 -0.122,0.122l-1.157,0c-0.073,0 -0.122,-0.049 -0.122,-0.122l0,-8.038Z" style="fill:#fff;fill-rule:nonzero;"/><path d="M27.694,102.231c0,-0.072 0.049,-0.121 0.122,-0.121l1.352,0c0.073,0 0.121,0.049 0.121,0.121l0,8.038c0,0.073 -0.048,0.122 -0.121,0.122l-1.352,0c-0.073,0 -0.122,-0.049 -0.122,-0.122l0,-8.038Z" style="fill:#fff;fill-rule:nonzero;"/><path d="M32.605,102.231c0,-0.072 0.049,-0.121 0.121,-0.121l1.523,0c0.097,0 0.146,0.037 0.171,0.121l1.376,5.202l0.06,0l0,-5.202c0,-0.072 0.049,-0.121 0.121,-0.121l1.158,0c0.073,0 0.122,0.049 0.122,0.121l0,8.038c0,0.073 -0.049,0.122 -0.122,0.122l-1.461,0c-0.098,0 -0.147,-0.037 -0.171,-0.122l-1.437,-5.2l-0.061,0l0,5.2c0,0.073 -0.048,0.122 -0.122,0.122l-1.157,0c-0.072,0 -0.121,-0.049 -0.121,-0.122l0,-8.038Z" style="fill:#fff;fill-rule:nonzero;"/><path d="M40.574,102.231c0,-0.072 0.049,-0.121 0.122,-0.121l1.352,0c0.073,0 0.121,0.049 0.121,0.121l0,8.038c0,0.073 -0.048,0.122 -0.121,0.122l-1.352,0c-0.073,0 -0.122,-0.049 -0.122,-0.122l0,-8.038Z" style="fill:#fff;fill-rule:nonzero;"/><path d="M46.715,110.391c-0.072,0 -0.121,-0.049 -0.121,-0.121l0,-6.65c0,-0.048 -0.024,-0.073 -0.073,-0.073l-1.305,0c-0.072,0 -0.121,-0.049 -0.121,-0.121l0,-1.195c0,-0.072 0.049,-0.121 0.121,-0.121l4.349,0c0.072,0 0.121,0.049 0.121,0.121l0,1.195c0,0.072 -0.049,0.121 -0.121,0.121l-1.303,0c-0.049,0 -0.073,0.025 -0.073,0.073l0,6.65c0,0.072 -0.049,0.121 -0.122,0.121l-1.352,0Z" style="fill:#fff;fill-rule:nonzero;"/><path d="M52.614,102.231c0,-0.072 0.049,-0.121 0.121,-0.121l1.353,0c0.074,0 0.121,0.049 0.121,0.121l0,8.038c0,0.073 -0.047,0.122 -0.121,0.122l-1.353,0c-0.072,0 -0.121,-0.049 -0.121,-0.122l0,-8.038Z" style="fill:#fff;fill-rule:nonzero;"/><path d="M60.277,107.505l-0.523,-2.875l-0.037,0l-0.549,2.875l1.109,0Zm-1.401,-5.274c0.025,-0.073 0.062,-0.122 0.135,-0.122l1.436,0c0.073,0 0.122,0.049 0.135,0.122l1.778,8.038c0.011,0.073 -0.025,0.121 -0.098,0.121l-1.352,0c-0.085,0 -0.122,-0.048 -0.134,-0.121l-0.267,-1.498l-1.571,0l-0.28,1.498c-0.013,0.073 -0.049,0.121 -0.134,0.121l-1.352,0c-0.073,0 -0.109,-0.048 -0.098,-0.121l1.802,-8.038Z" style="fill:#fff;fill-rule:nonzero;"/><path d="M65.848,110.391c-0.073,0 -0.121,-0.049 -0.121,-0.121l0,-6.65c0,-0.048 -0.025,-0.073 -0.074,-0.073l-1.304,0c-0.072,0 -0.121,-0.049 -0.121,-0.121l0,-1.195c0,-0.072 0.049,-0.121 0.121,-0.121l4.349,0c0.072,0 0.121,0.049 0.121,0.121l0,1.195c0,0.072 -0.049,0.121 -0.121,0.121l-1.303,0c-0.049,0 -0.073,0.025 -0.073,0.073l0,6.65c0,0.072 -0.049,0.121 -0.123,0.121l-1.351,0Z" style="fill:#fff;fill-rule:nonzero;"/><path d="M71.746,102.231c0,-0.072 0.049,-0.121 0.123,-0.121l1.351,0c0.074,0 0.121,0.049 0.121,0.121l0,8.038c0,0.073 -0.047,0.122 -0.121,0.122l-1.351,0c-0.074,0 -0.123,-0.049 -0.123,-0.122l0,-8.038Z" style="fill:#fff;fill-rule:nonzero;"/><path d="M78.046,110.391c-0.073,0 -0.109,-0.049 -0.134,-0.121l-1.644,-8.039c-0.024,-0.072 0.012,-0.121 0.098,-0.121l1.375,0c0.073,0 0.122,0.037 0.135,0.121l0.84,5.237l0.036,0l0.804,-5.237c0.013,-0.084 0.06,-0.121 0.134,-0.121l1.352,0c0.085,0 0.122,0.049 0.097,0.121l-1.656,8.039c-0.012,0.072 -0.049,0.121 -0.122,0.121l-1.315,0Z" style="fill:#fff;fill-rule:nonzero;"/><path d="M84.066,102.231c0,-0.072 0.049,-0.121 0.121,-0.121l3.617,0c0.074,0 0.122,0.049 0.122,0.121l0,1.194c0,0.073 -0.048,0.122 -0.122,0.122l-2.069,0c-0.049,0 -0.074,0.024 -0.074,0.072l0,1.803c0,0.049 0.025,0.074 0.074,0.074l1.79,0c0.073,0 0.122,0.049 0.122,0.121l0,1.193c0,0.074 -0.049,0.123 -0.122,0.123l-1.79,0c-0.049,0 -0.074,0.024 -0.074,0.073l0,1.875c0,0.049 0.025,0.072 0.074,0.072l2.069,0c0.074,0 0.122,0.049 0.122,0.123l0,1.193c0,0.073 -0.048,0.122 -0.122,0.122l-3.617,0c-0.072,0 -0.121,-0.049 -0.121,-0.122l0,-8.038Z" style="fill:#fff;fill-rule:nonzero;"/><path d="M98.334,108.662c0.061,-0.196 0.085,-0.403 0.085,-2.411c0,-2.01 -0.024,-2.217 -0.085,-2.412c-0.073,-0.231 -0.28,-0.401 -0.584,-0.401c-0.304,0 -0.511,0.17 -0.585,0.401c-0.06,0.195 -0.085,0.402 -0.085,2.412c0,2.008 0.025,2.215 0.085,2.411c0.074,0.231 0.281,0.402 0.585,0.402c0.304,0 0.511,-0.171 0.584,-0.402m-2.703,0.438c-0.134,-0.377 -0.17,-0.718 -0.17,-2.849c0,-2.131 0.036,-2.472 0.17,-2.849c0.305,-0.915 1.035,-1.402 2.119,-1.402c1.084,0 1.814,0.487 2.119,1.402c0.134,0.377 0.17,0.718 0.17,2.849c0,2.131 -0.036,2.472 -0.17,2.849c-0.305,0.914 -1.035,1.4 -2.119,1.4c-1.084,0 -1.814,-0.486 -2.119,-1.4" style="fill:#fff;fill-rule:nonzero;"/><path d="M103.235,102.231c0,-0.072 0.049,-0.121 0.121,-0.121l3.617,0c0.074,0 0.122,0.049 0.122,0.121l0,1.194c0,0.073 -0.048,0.122 -0.122,0.122l-2.069,0c-0.049,0 -0.074,0.024 -0.074,0.072l0,1.877c0,0.049 0.025,0.073 0.074,0.073l1.79,0c0.073,0 0.122,0.048 0.122,0.121l0,1.206c0,0.073 -0.049,0.121 -0.122,0.121l-1.79,0c-0.049,0 -0.074,0.025 -0.074,0.074l0,3.178c0,0.073 -0.047,0.122 -0.121,0.122l-1.353,0c-0.072,0 -0.121,-0.049 -0.121,-0.122l0,-8.038Z" style="fill:#fff;fill-rule:nonzero;"/><path d="M115.835,110.391c-0.073,0 -0.11,-0.049 -0.134,-0.121l-1.645,-8.039c-0.024,-0.072 0.013,-0.121 0.098,-0.121l1.376,0c0.074,0 0.121,0.037 0.135,0.121l0.839,5.237l0.036,0l0.804,-5.237c0.014,-0.084 0.062,-0.121 0.134,-0.121l1.352,0c0.086,0 0.123,0.049 0.097,0.121l-1.656,8.039c-0.011,0.072 -0.048,0.121 -0.121,0.121l-1.315,0Z" style="fill:#fff;fill-rule:nonzero;"/><path d="M121.856,102.231c0,-0.072 0.048,-0.121 0.121,-0.121l1.353,0c0.072,0 0.121,0.049 0.121,0.121l0,8.038c0,0.073 -0.049,0.122 -0.121,0.122l-1.353,0c-0.073,0 -0.121,-0.049 -0.121,-0.122l0,-8.038Z" style="fill:#fff;fill-rule:nonzero;"/><path d="M127.996,110.391c-0.072,0 -0.122,-0.049 -0.122,-0.121l0,-6.65c0,-0.048 -0.024,-0.073 -0.073,-0.073l-1.303,0c-0.073,0 -0.122,-0.049 -0.122,-0.121l0,-1.195c0,-0.072 0.049,-0.121 0.122,-0.121l4.348,0c0.073,0 0.122,0.049 0.122,0.121l0,1.195c0,0.072 -0.049,0.121 -0.122,0.121l-1.303,0c-0.049,0 -0.074,0.025 -0.074,0.073l0,6.65c0,0.072 -0.047,0.121 -0.121,0.121l-1.352,0Z" style="fill:#fff;fill-rule:nonzero;"/><path d="M136.038,107.505l-0.524,-2.875l-0.036,0l-0.549,2.875l1.109,0Zm-1.4,-5.274c0.024,-0.073 0.061,-0.122 0.133,-0.122l1.437,0c0.073,0 0.122,0.049 0.135,0.122l1.777,8.038c0.013,0.073 -0.023,0.121 -0.097,0.121l-1.351,0c-0.086,0 -0.123,-0.048 -0.134,-0.121l-0.269,-1.498l-1.57,0l-0.282,1.498c-0.01,0.073 -0.047,0.121 -0.133,0.121l-1.352,0c-0.072,0 -0.11,-0.048 -0.097,-0.121l1.803,-8.038Z" style="fill:#fff;fill-rule:nonzero;"/><path d="M140.987,102.231c0,-0.072 0.05,-0.121 0.122,-0.121l1.353,0c0.072,0 0.12,0.049 0.12,0.121l0,6.65c0,0.049 0.026,0.072 0.074,0.072l2.093,0c0.075,0 0.124,0.049 0.124,0.123l0,1.193c0,0.073 -0.049,0.122 -0.124,0.122l-3.64,0c-0.072,0 -0.122,-0.049 -0.122,-0.122l0,-8.038Z" style="fill:#fff;fill-rule:nonzero;"/><path d="M154.439,110.5c-1.497,0 -2.215,-0.791 -2.241,-2.215c0,-0.073 0.026,-0.123 0.098,-0.135l1.303,-0.206c0.086,-0.013 0.135,0.023 0.135,0.098c0.023,0.765 0.243,1.07 0.718,1.07c0.45,0 0.657,-0.231 0.657,-0.987c0,-0.73 -0.145,-0.986 -0.768,-1.229l-0.499,-0.196c-1.169,-0.449 -1.57,-1.071 -1.57,-2.399c0,-1.497 0.718,-2.301 2.191,-2.301c1.451,0 2.133,0.756 2.192,2.058c0,0.072 -0.036,0.122 -0.108,0.134l-1.242,0.195c-0.074,0.012 -0.134,-0.024 -0.134,-0.097c-0.013,-0.598 -0.221,-0.902 -0.659,-0.902c-0.426,0 -0.631,0.268 -0.631,0.83c0,0.62 0.133,0.815 0.778,1.071l0.499,0.194c1.133,0.438 1.572,1.047 1.572,2.448c0,1.692 -0.646,2.569 -2.291,2.569" style="fill:#fff;fill-rule:nonzero;"/><path d="M160.874,110.391c-0.072,0 -0.121,-0.049 -0.121,-0.121l0,-6.65c0,-0.048 -0.024,-0.073 -0.074,-0.073l-1.302,0c-0.073,0 -0.124,-0.049 -0.124,-0.121l0,-1.195c0,-0.072 0.051,-0.121 0.124,-0.121l4.346,0c0.074,0 0.124,0.049 0.124,0.121l0,1.195c0,0.072 -0.05,0.121 -0.124,0.121l-1.302,0c-0.05,0 -0.073,0.025 -0.073,0.073l0,6.65c0,0.072 -0.049,0.121 -0.122,0.121l-1.352,0Z" style="fill:#fff;fill-rule:nonzero;"/><path d="M169.684,104.643c0,-0.864 -0.268,-1.133 -0.889,-1.133l-0.354,0c-0.047,0 -0.073,0.026 -0.073,0.073l0,2.12c0,0.048 0.026,0.073 0.073,0.073l0.354,0c0.621,0 0.889,-0.257 0.889,-1.133m0.292,5.747c-0.073,0 -0.111,-0.024 -0.134,-0.097l-0.938,-3.142l-0.463,0c-0.047,0 -0.073,0.025 -0.073,0.074l0,3.044c0,0.073 -0.048,0.121 -0.121,0.121l-1.352,0c-0.073,0 -0.122,-0.048 -0.122,-0.121l0,-8.038c0,-0.073 0.049,-0.122 0.122,-0.122l1.973,0c1.472,0 2.422,0.695 2.422,2.534c0,1.046 -0.352,1.729 -0.924,2.119l1.133,3.507c0.023,0.061 0,0.121 -0.061,0.121l-1.462,0Z" style="fill:#fff;fill-rule:nonzero;"/><path d="M177.252,107.505l-0.524,-2.875l-0.036,0l-0.548,2.875l1.108,0Zm-1.401,-5.274c0.024,-0.073 0.061,-0.122 0.134,-0.122l1.436,0c0.075,0 0.123,0.049 0.135,0.122l1.778,8.038c0.012,0.073 -0.024,0.121 -0.098,0.121l-1.352,0c-0.083,0 -0.122,-0.048 -0.133,-0.121l-0.269,-1.498l-1.57,0l-0.28,1.498c-0.013,0.073 -0.05,0.121 -0.134,0.121l-1.352,0c-0.072,0 -0.11,-0.048 -0.097,-0.121l1.802,-8.038Z" style="fill:#fff;fill-rule:nonzero;"/><path d="M182.822,110.391c-0.072,0 -0.122,-0.049 -0.122,-0.121l0,-6.65c0,-0.048 -0.024,-0.073 -0.073,-0.073l-1.303,0c-0.074,0 -0.123,-0.049 -0.123,-0.121l0,-1.195c0,-0.072 0.049,-0.121 0.123,-0.121l4.347,0c0.074,0 0.122,0.049 0.122,0.121l0,1.195c0,0.072 -0.048,0.121 -0.122,0.121l-1.303,0c-0.049,0 -0.073,0.025 -0.073,0.073l0,6.65c0,0.072 -0.048,0.121 -0.121,0.121l-1.352,0Z" style="fill:#fff;fill-rule:nonzero;"/><path d="M188.721,102.231c0,-0.072 0.048,-0.121 0.121,-0.121l3.617,0c0.072,0 0.122,0.049 0.122,0.121l0,1.194c0,0.073 -0.05,0.122 -0.122,0.122l-2.07,0c-0.049,0 -0.073,0.024 -0.073,0.072l0,1.803c0,0.049 0.024,0.074 0.073,0.074l1.791,0c0.072,0 0.121,0.049 0.121,0.121l0,1.193c0,0.074 -0.049,0.123 -0.121,0.123l-1.791,0c-0.049,0 -0.073,0.024 -0.073,0.073l0,1.875c0,0.049 0.024,0.072 0.073,0.072l2.07,0c0.072,0 0.122,0.049 0.122,0.123l0,1.193c0,0.073 -0.05,0.122 -0.122,0.122l-3.617,0c-0.073,0 -0.121,-0.049 -0.121,-0.122l0,-8.038Z" style="fill:#fff;fill-rule:nonzero;"/><path d="M195.545,106.251c0,-2.131 0.036,-2.472 0.159,-2.863c0.304,-0.9 1.023,-1.387 2.131,-1.387c1.338,0 2.118,0.718 2.228,2.057c0.013,0.073 -0.024,0.134 -0.096,0.146l-1.293,0.22c-0.072,0.011 -0.121,-0.025 -0.134,-0.109c-0.036,-0.598 -0.28,-0.877 -0.693,-0.877c-0.292,0 -0.536,0.158 -0.61,0.388c-0.061,0.196 -0.072,0.294 -0.072,2.425c0,2.117 0.011,2.228 0.072,2.41c0.074,0.244 0.33,0.403 0.635,0.403c0.304,0 0.558,-0.159 0.632,-0.403c0.049,-0.169 0.074,-0.293 0.074,-1.51c0,-0.049 -0.025,-0.073 -0.074,-0.073l-0.523,0c-0.073,0 -0.122,-0.048 -0.122,-0.121l0,-1.071c0,-0.074 0.049,-0.123 0.122,-0.123l2.008,0c0.074,0 0.123,0.049 0.123,0.123l0,0.365c0,2.131 -0.036,2.472 -0.171,2.849c-0.303,0.913 -1.022,1.4 -2.106,1.4c-1.108,0 -1.827,-0.487 -2.131,-1.388c-0.123,-0.389 -0.159,-0.73 -0.159,-2.861" style="fill:#fff;fill-rule:nonzero;"/><path d="M203.283,102.231c0,-0.072 0.049,-0.121 0.121,-0.121l1.353,0c0.072,0 0.121,0.049 0.121,0.121l0,8.038c0,0.073 -0.049,0.122 -0.121,0.122l-1.353,0c-0.072,0 -0.121,-0.049 -0.121,-0.122l0,-8.038Z" style="fill:#fff;fill-rule:nonzero;"/><path d="M208.194,102.231c0,-0.072 0.048,-0.121 0.121,-0.121l3.618,0c0.072,0 0.122,0.049 0.122,0.121l0,1.194c0,0.073 -0.05,0.122 -0.122,0.122l-2.07,0c-0.049,0 -0.073,0.024 -0.073,0.072l0,1.803c0,0.049 0.024,0.074 0.073,0.074l1.79,0c0.072,0 0.121,0.049 0.121,0.121l0,1.193c0,0.074 -0.049,0.123 -0.121,0.123l-1.79,0c-0.049,0 -0.073,0.024 -0.073,0.073l0,1.875c0,0.049 0.024,0.072 0.073,0.072l2.07,0c0.072,0 0.122,0.049 0.122,0.123l0,1.193c0,0.073 -0.05,0.122 -0.122,0.122l-3.618,0c-0.073,0 -0.121,-0.049 -0.121,-0.122l0,-8.038Z" style="fill:#fff;fill-rule:nonzero;"/><path d="M217.137,110.5c-1.498,0 -2.216,-0.791 -2.242,-2.215c0,-0.073 0.026,-0.123 0.098,-0.135l1.304,-0.206c0.085,-0.013 0.134,0.023 0.134,0.098c0.023,0.765 0.244,1.07 0.719,1.07c0.449,0 0.656,-0.231 0.656,-0.987c0,-0.73 -0.145,-0.986 -0.767,-1.229l-0.499,-0.196c-1.17,-0.449 -1.57,-1.071 -1.57,-2.399c0,-1.497 0.719,-2.301 2.192,-2.301c1.449,0 2.131,0.756 2.191,2.058c0,0.072 -0.036,0.122 -0.108,0.134l-1.243,0.195c-0.073,0.012 -0.134,-0.024 -0.134,-0.097c-0.012,-0.598 -0.22,-0.902 -0.659,-0.902c-0.426,0 -0.631,0.268 -0.631,0.83c0,0.62 0.133,0.815 0.778,1.071l0.5,0.194c1.132,0.438 1.571,1.047 1.571,2.448c0,1.692 -0.646,2.569 -2.29,2.569" style="fill:#fff;fill-rule:nonzero;"/></g></g></svg>