<?xml version="1.0" standalone="no"?>
<!DOCTYPE svg PUBLIC "-//W3C//DTD SVG 20010904//EN"
 "http://www.w3.org/TR/2001/REC-SVG-20010904/DTD/svg10.dtd">
<svg version="1.0" xmlns="http://www.w3.org/2000/svg"
 width="700.000000pt" height="700.000000pt" viewBox="0 0 700.000000 700.000000"
 preserveAspectRatio="xMidYMid meet">
<metadata>
Created by potrace 1.11, written by Peter Selinger 2001-2013
</metadata>
<g transform="translate(0.000000,700.000000) scale(0.100000,-0.100000)"
fill="#000000" stroke="none">
<path d="M1547 6562 c-16 -3 -17 -53 -17 -658 l0 -654 -765 0 -765 0 2 -766 3
-766 763 -1 762 -2 0 -1638 c0 -1554 1 -1637 17 -1638 10 0 348 -1 750 -2
l733 -2 -3 958 c-2 845 0 957 13 958 64 4 714 3 721 -1 4 -3 58 -78 118 -165
60 -88 124 -180 141 -205 17 -25 62 -90 100 -145 38 -55 72 -104 77 -110 5 -5
25 -35 45 -65 20 -30 77 -113 127 -185 49 -71 130 -188 179 -260 49 -71 171
-249 272 -395 101 -146 201 -291 222 -322 22 -32 47 -58 56 -59 75 -4 1656 -3
1666 1 9 3 -49 94 -170 270 -101 146 -227 329 -281 408 -54 78 -105 151 -113
161 -8 11 -44 63 -80 116 -36 53 -88 128 -115 168 -28 40 -82 117 -120 172
-37 55 -94 136 -124 180 -235 339 -426 619 -426 624 0 3 11 11 25 16 64 26
253 126 320 170 343 225 603 529 753 880 44 104 81 210 106 310 20 80 22 91
36 175 4 25 9 54 11 65 8 43 18 215 18 315 -1 840 -462 1545 -1228 1882 -201
88 -450 157 -666 183 -30 4 -63 9 -73 11 -72 13 -438 17 -1668 18 -773 1
-1413 0 -1422 -2z m2588 -1325 c17 -4 59 -15 95 -24 36 -8 97 -30 137 -48 291
-134 449 -382 442 -697 -3 -141 -22 -219 -86 -343 -112 -218 -379 -379 -663
-400 -57 -4 -1953 -8 -2452 -5 l-78 0 0 765 0 766 1288 -4 c708 -1 1301 -6
1317 -10z"/>
</g>
</svg>
