<?xml version="1.0" encoding="UTF-8" standalone="no"?><!DOCTYPE svg PUBLIC "-//W3C//DTD SVG 1.1//EN" "http://www.w3.org/Graphics/SVG/1.1/DTD/svg11.dtd"><svg width="100%" height="100%" viewBox="0 0 4000 2917" version="1.1" xmlns="http://www.w3.org/2000/svg" xmlns:xlink="http://www.w3.org/1999/xlink" xml:space="preserve" xmlns:serif="http://www.serif.com/" style="fill-rule:evenodd;clip-rule:evenodd;stroke-linejoin:round;stroke-miterlimit:2;"><rect id="IHCI-Logo-Portrait" x="0" y="0" width="4000" height="2916.67" style="fill:none;"/><g><rect x="348.227" y="1857.8" width="47.546" height="262.424" style="fill:#124a58;fill-rule:nonzero;"/><path d="M555.733,1929.31c44.475,0 66.712,25.554 66.712,76.663l0,114.258l-46.072,0l0,-112.047c0,-14.742 -2.825,-25.492 -8.477,-32.25c-5.651,-6.757 -14.374,-10.135 -26.168,-10.135c-14.006,0 -25.309,4.484 -33.909,13.453c-8.6,8.968 -12.9,20.824 -12.9,35.567l0,105.412l-45.703,0l0,-133.424c0,-19.657 -0.983,-37.226 -2.949,-52.706l43.123,0l3.317,30.592c6.389,-11.303 15.05,-20.026 25.985,-26.169c10.934,-6.143 23.281,-9.214 37.041,-9.214Z" style="fill:#124a58;fill-rule:nonzero;"/><path d="M849.486,1848.96l0,271.27l-45.335,0l0,-29.855c-5.651,10.32 -13.76,18.367 -24.325,24.142c-10.566,5.774 -22.606,8.661 -36.121,8.661c-15.971,0 -30.223,-4.054 -42.754,-12.163c-12.531,-8.108 -22.299,-19.596 -29.302,-34.461c-7.002,-14.866 -10.504,-31.882 -10.504,-51.048c0,-19.165 3.44,-35.997 10.32,-50.494c6.88,-14.497 16.586,-25.739 29.117,-33.724c12.532,-7.986 26.906,-11.979 43.123,-11.979c13.269,0 25.125,2.764 35.568,8.293c10.443,5.528 18.49,13.33 24.141,23.404l0,-112.046l46.072,0Zm-93.618,238.098c15.235,0 27.09,-5.283 35.568,-15.849c8.477,-10.565 12.715,-25.554 12.715,-44.965c0,-19.412 -4.177,-34.401 -12.531,-44.966c-8.354,-10.566 -20.149,-15.849 -35.383,-15.849c-15.48,0 -27.459,5.221 -35.936,15.664c-8.477,10.443 -12.716,25.248 -12.716,44.413c0,19.412 4.239,34.523 12.716,45.335c8.477,10.811 20.333,16.217 35.567,16.217Z" style="fill:#124a58;fill-rule:nonzero;"/><path d="M899.612,2120.23l0,-186.13l45.703,0l0,186.13l-45.703,0Zm-2.949,-270.533l51.232,0l0,45.335l-51.232,0l0,-45.335Z" style="fill:#124a58;fill-rule:nonzero;"/><path d="M1173.83,1934.1l0,186.13l-45.335,0l0,-29.855c-5.651,10.32 -13.76,18.367 -24.325,24.142c-10.566,5.774 -22.606,8.661 -36.121,8.661c-16.217,0 -30.591,-3.931 -43.123,-11.794c-12.531,-7.863 -22.237,-19.043 -29.117,-33.54c-6.88,-14.497 -10.32,-31.329 -10.32,-50.495c0,-19.166 3.502,-36.181 10.504,-51.047c7.003,-14.866 16.771,-26.414 29.302,-34.646c12.531,-8.231 26.783,-12.347 42.754,-12.347c13.515,0 25.555,2.887 36.121,8.661c10.565,5.775 18.674,13.822 24.325,24.142l0,-28.012l45.335,0Zm-93.249,152.958c15.234,0 27.029,-5.283 35.383,-15.849c8.354,-10.565 12.531,-25.431 12.531,-44.597c0,-19.657 -4.177,-34.769 -12.531,-45.334c-8.354,-10.566 -20.272,-15.849 -35.752,-15.849c-15.234,0 -27.09,5.467 -35.567,16.402c-8.477,10.934 -12.716,26.107 -12.716,45.518c0,19.166 4.239,33.909 12.716,44.229c8.477,10.32 20.456,15.48 35.936,15.48Z" style="fill:#124a58;fill-rule:nonzero;"/><path d="M1509.6,1857.8l47.177,0l0,262.424l-47.177,0l0,-113.889l-134.529,0l0,113.889l-46.809,0l0,-262.424l46.809,0l0,109.834l134.529,0l0,-109.834Z" style="fill:#124a58;fill-rule:nonzero;"/><path d="M1786.4,1934.1l-86.615,198.661c-9.828,23.097 -22.36,39.929 -37.594,50.495c-15.235,10.565 -34.032,17.568 -56.392,21.008l-10.32,-35.383c17.446,-3.931 30.53,-8.907 39.253,-14.927c8.723,-6.02 15.787,-14.927 21.193,-26.722l5.897,-13.637l-77.4,-179.495l48.283,0l53.443,133.792l54.549,-133.792l45.703,0Z" style="fill:#124a58;fill-rule:nonzero;"/><path d="M1916.5,1929.31c15.971,0 30.161,4.116 42.57,12.347c12.409,8.232 22.114,19.78 29.117,34.646c7.003,14.866 10.505,31.881 10.505,51.047c0,19.166 -3.44,35.998 -10.32,50.495c-6.88,14.497 -16.525,25.677 -28.933,33.54c-12.409,7.863 -26.722,11.794 -42.939,11.794c-13.514,0 -25.554,-2.887 -36.12,-8.661c-10.566,-5.775 -18.675,-13.822 -24.326,-24.142l0,109.466l-45.703,0l0,-213.035c0,-19.657 -0.983,-37.226 -2.949,-52.706l43.123,0l3.686,32.066c4.914,-11.548 12.9,-20.578 23.957,-27.09c11.058,-6.511 23.835,-9.767 38.332,-9.767Zm-12.532,157.749c15.48,0 27.398,-5.16 35.752,-15.48c8.354,-10.32 12.531,-25.063 12.531,-44.229c0,-19.411 -4.177,-34.584 -12.531,-45.518c-8.354,-10.935 -20.149,-16.402 -35.383,-16.402c-15.726,0 -27.766,5.283 -36.12,15.849c-8.354,10.565 -12.532,25.677 -12.532,45.334c0,19.412 4.178,34.339 12.532,44.782c8.354,10.443 20.271,15.664 35.751,15.664Z" style="fill:#124a58;fill-rule:nonzero;"/><path d="M2201.78,2029.56l-128.263,0c0.983,19.903 5.958,34.584 14.927,44.044c8.969,9.46 22.299,14.19 39.99,14.19c20.395,0 39.315,-6.634 56.76,-19.903l13.269,31.698c-8.846,7.125 -19.719,12.838 -32.619,17.138c-12.9,4.3 -25.984,6.45 -39.253,6.45c-30.468,0 -54.426,-8.6 -71.871,-25.8c-17.446,-17.2 -26.169,-40.789 -26.169,-70.766c0,-18.92 3.809,-35.751 11.426,-50.494c7.617,-14.743 18.306,-26.23 32.066,-34.462c13.76,-8.231 29.363,-12.347 46.808,-12.347c25.555,0 45.765,8.293 60.631,24.879c14.865,16.585 22.298,39.375 22.298,68.37l0,7.003Zm-81.823,-67.081c-12.286,0 -22.299,3.625 -30.039,10.873c-7.74,7.249 -12.715,17.753 -14.927,31.513l86.615,0c-1.475,-14.005 -5.713,-24.571 -12.716,-31.697c-7.003,-7.126 -16.647,-10.689 -28.933,-10.689Z" style="fill:#124a58;fill-rule:nonzero;"/><path d="M2341.1,1929.67c7.125,0 13.268,0.983 18.428,2.949l-0.368,42.017c-7.863,-3.194 -15.972,-4.791 -24.326,-4.791c-15.726,0 -27.704,4.546 -35.936,13.637c-8.231,9.092 -12.347,21.132 -12.347,36.12l0,100.621l-45.703,0l0,-133.424c0,-19.657 -0.983,-37.226 -2.949,-52.706l43.123,0l3.686,32.803c4.669,-12.04 12.04,-21.254 22.114,-27.643c10.075,-6.388 21.501,-9.583 34.278,-9.583Z" style="fill:#124a58;fill-rule:nonzero;"/><path d="M2460.89,1968.74l0,83.298c0,21.868 10.197,32.803 30.591,32.803c5.652,0 11.795,-0.983 18.429,-2.949l0,36.489c-8.109,2.948 -17.937,4.423 -29.486,4.423c-21.131,0 -37.349,-5.898 -48.651,-17.692c-11.303,-11.794 -16.955,-28.749 -16.955,-50.863l0,-85.509l-35.751,0l0,-34.646l35.751,0l0,-45.334l46.072,-15.48l0,60.814l49.389,0l0,34.646l-49.389,0Z" style="fill:#124a58;fill-rule:nonzero;"/><path d="M2704.88,2029.56l-128.263,0c0.983,19.903 5.958,34.584 14.927,44.044c8.968,9.46 22.299,14.19 39.99,14.19c20.394,0 39.314,-6.634 56.76,-19.903l13.269,31.698c-8.846,7.125 -19.719,12.838 -32.619,17.138c-12.9,4.3 -25.984,6.45 -39.253,6.45c-30.469,0 -54.426,-8.6 -71.872,-25.8c-17.445,-17.2 -26.168,-40.789 -26.168,-70.766c0,-18.92 3.808,-35.751 11.426,-50.494c7.617,-14.743 18.305,-26.23 32.065,-34.462c13.76,-8.231 29.363,-12.347 46.809,-12.347c25.555,0 45.765,8.293 60.63,24.879c14.866,16.585 22.299,39.375 22.299,68.37l0,7.003Zm-81.823,-67.081c-12.286,0 -22.299,3.625 -30.039,10.873c-7.74,7.249 -12.716,17.753 -14.927,31.513l86.615,0c-1.475,-14.005 -5.713,-24.571 -12.716,-31.697c-7.003,-7.126 -16.647,-10.689 -28.933,-10.689Z" style="fill:#124a58;fill-rule:nonzero;"/><path d="M2850.47,1929.31c44.475,0 66.712,25.554 66.712,76.663l0,114.258l-46.072,0l0,-112.047c0,-14.742 -2.825,-25.492 -8.477,-32.25c-5.651,-6.757 -14.374,-10.135 -26.169,-10.135c-14.005,0 -25.308,4.484 -33.908,13.453c-8.6,8.968 -12.9,20.824 -12.9,35.567l0,105.412l-45.703,0l0,-133.424c0,-19.657 -0.983,-37.226 -2.949,-52.706l43.123,0l3.317,30.592c6.389,-11.303 15.05,-20.026 25.985,-26.169c10.934,-6.143 23.281,-9.214 37.041,-9.214Z" style="fill:#124a58;fill-rule:nonzero;"/><path d="M3034.39,2123.17c-33.663,0 -60.446,-7.863 -80.349,-23.588l12.9,-32.435c19.903,14.743 42.632,22.114 68.186,22.114c11.057,0 19.596,-1.842 25.616,-5.528c6.02,-3.686 9.03,-8.846 9.03,-15.48c0,-5.652 -2.089,-10.136 -6.266,-13.453c-4.177,-3.317 -11.303,-6.204 -21.377,-8.662l-30.96,-7.002c-33.909,-7.372 -50.863,-24.695 -50.863,-51.969c0,-11.303 3.194,-21.316 9.583,-30.039c6.388,-8.723 15.357,-15.541 26.906,-20.456c11.548,-4.914 24.94,-7.371 40.174,-7.371c13.269,0 26.046,2.027 38.332,6.081c12.285,4.055 23.097,9.89 32.434,17.508l-13.637,31.328c-18.675,-13.76 -37.84,-20.64 -57.498,-20.64c-10.565,0 -18.797,1.966 -24.694,5.897c-5.897,3.932 -8.846,9.338 -8.846,16.218c0,5.405 1.782,9.705 5.345,12.9c3.563,3.194 9.644,5.897 18.244,8.108l31.697,7.003c18.429,4.177 31.882,10.627 40.359,19.35c8.477,8.723 12.716,20.087 12.716,34.093c0,17.2 -6.88,30.837 -20.64,40.912c-13.76,10.074 -32.558,15.111 -56.392,15.111Z" style="fill:#124a58;fill-rule:nonzero;"/><path d="M3150.85,2120.23l0,-186.13l45.703,0l0,186.13l-45.703,0Zm-2.949,-270.533l51.232,0l0,45.335l-51.232,0l0,-45.335Z" style="fill:#124a58;fill-rule:nonzero;"/><path d="M3331.45,2123.17c-18.92,0 -35.568,-3.931 -49.942,-11.794c-14.374,-7.863 -25.431,-19.105 -33.171,-33.725c-7.741,-14.62 -11.611,-31.758 -11.611,-51.415c0,-19.658 3.87,-36.796 11.611,-51.416c7.74,-14.62 18.797,-25.862 33.171,-33.725c14.374,-7.863 31.022,-11.794 49.942,-11.794c18.674,0 35.137,3.931 49.388,11.794c14.252,7.863 25.248,19.105 32.988,33.725c7.74,14.62 11.61,31.758 11.61,51.416c0,19.657 -3.87,36.795 -11.61,51.415c-7.74,14.62 -18.736,25.862 -32.988,33.725c-14.251,7.863 -30.714,11.794 -49.388,11.794Zm-0.369,-36.12c15.726,0 27.704,-5.099 35.936,-15.296c8.231,-10.197 12.347,-25.37 12.347,-45.518c0,-19.903 -4.177,-35.076 -12.531,-45.519c-8.355,-10.443 -20.149,-15.665 -35.383,-15.665c-15.48,0 -27.398,5.222 -35.752,15.665c-8.354,10.443 -12.531,25.616 -12.531,45.519c0,20.148 4.115,35.321 12.347,45.518c8.231,10.197 20.087,15.296 35.567,15.296Z" style="fill:#124a58;fill-rule:nonzero;"/><path d="M3571.76,1929.31c44.475,0 66.712,25.554 66.712,76.663l0,114.258l-46.072,0l0,-112.047c0,-14.742 -2.826,-25.492 -8.477,-32.25c-5.651,-6.757 -14.374,-10.135 -26.169,-10.135c-14.005,0 -25.308,4.484 -33.908,13.453c-8.6,8.968 -12.9,20.824 -12.9,35.567l0,105.412l-45.703,0l0,-133.424c0,-19.657 -0.983,-37.226 -2.949,-52.706l43.123,0l3.317,30.592c6.389,-11.303 15.05,-20.026 25.985,-26.169c10.934,-6.143 23.281,-9.214 37.041,-9.214Z" style="fill:#124a58;fill-rule:nonzero;"/><path d="M685.287,2573.54c-25.8,0 -48.345,-5.528 -67.633,-16.585c-19.289,-11.058 -34.093,-26.722 -44.413,-46.993c-10.32,-20.272 -15.481,-44.045 -15.481,-71.319c0,-27.029 5.161,-50.679 15.481,-70.951c10.32,-20.271 25.124,-35.874 44.413,-46.808c19.288,-10.935 41.833,-16.402 67.633,-16.402c17.691,0 34.338,2.765 49.941,8.293c15.603,5.529 28.565,13.207 38.885,23.036l-15.48,34.646c-11.795,-9.583 -23.528,-16.525 -35.199,-20.825c-11.672,-4.3 -24.142,-6.45 -37.41,-6.45c-25.309,0 -44.905,8.232 -58.788,24.695c-13.882,16.463 -20.824,40.051 -20.824,70.766c0,30.96 6.88,54.733 20.64,71.319c13.76,16.585 33.417,24.878 58.972,24.878c13.268,0 25.738,-2.15 37.41,-6.45c11.671,-4.3 23.404,-11.241 35.199,-20.824l15.48,34.646c-10.32,9.828 -23.282,17.507 -38.885,23.035c-15.603,5.529 -32.25,8.293 -49.941,8.293Z" style="fill:#124a58;fill-rule:nonzero;"/><path d="M896.11,2573.18c-18.92,0 -35.567,-3.932 -49.941,-11.795c-14.375,-7.862 -25.432,-19.104 -33.172,-33.724c-7.74,-14.62 -11.61,-31.759 -11.61,-51.416c0,-19.657 3.87,-36.796 11.61,-51.416c7.74,-14.62 18.797,-25.861 33.172,-33.724c14.374,-7.863 31.021,-11.795 49.941,-11.795c18.675,0 35.138,3.932 49.389,11.795c14.251,7.863 25.247,19.104 32.987,33.724c7.74,14.62 11.61,31.759 11.61,51.416c0,19.657 -3.87,36.796 -11.61,51.416c-7.74,14.62 -18.736,25.862 -32.987,33.724c-14.251,7.863 -30.714,11.795 -49.389,11.795Zm-0.368,-36.12c15.725,0 27.704,-5.099 35.936,-15.296c8.231,-10.197 12.347,-25.37 12.347,-45.519c0,-19.903 -4.177,-35.076 -12.532,-45.519c-8.354,-10.442 -20.148,-15.664 -35.383,-15.664c-15.48,0 -27.397,5.222 -35.751,15.664c-8.355,10.443 -12.532,25.616 -12.532,45.519c0,20.149 4.116,35.322 12.347,45.519c8.232,10.197 20.088,15.296 35.568,15.296Z" style="fill:#124a58;fill-rule:nonzero;"/><path d="M1136.42,2379.31c44.474,0 66.711,25.555 66.711,76.664l0,114.257l-46.071,0l0,-112.046c0,-14.743 -2.826,-25.493 -8.477,-32.25c-5.652,-6.757 -14.375,-10.136 -26.169,-10.136c-14.006,0 -25.309,4.485 -33.909,13.453c-8.6,8.969 -12.9,20.824 -12.9,35.567l0,105.412l-45.703,0l0,-133.423c0,-19.657 -0.983,-37.226 -2.948,-52.706l43.123,0l3.317,30.591c6.388,-11.302 15.05,-20.025 25.984,-26.168c10.934,-6.143 23.282,-9.215 37.042,-9.215Z" style="fill:#124a58;fill-rule:nonzero;"/><path d="M1310.76,2418.74l0,83.297c0,21.869 10.197,32.803 30.591,32.803c5.652,0 11.794,-0.983 18.429,-2.948l0,36.488c-8.109,2.949 -17.937,4.423 -29.486,4.423c-21.132,0 -37.349,-5.897 -48.652,-17.691c-11.303,-11.795 -16.954,-28.749 -16.954,-50.863l0,-85.509l-35.752,0l0,-34.646l35.752,0l0,-45.335l46.072,-15.48l0,60.815l49.388,0l0,34.646l-49.388,0Z" style="fill:#124a58;fill-rule:nonzero;"/><path d="M1492.09,2379.68c7.126,0 13.269,0.983 18.429,2.949l-0.369,42.017c-7.862,-3.194 -15.971,-4.791 -24.325,-4.791c-15.726,0 -27.705,4.545 -35.936,13.637c-8.232,9.091 -12.347,21.131 -12.347,36.12l0,100.62l-45.703,0l0,-133.423c0,-19.657 -0.983,-37.226 -2.949,-52.706l43.123,0l3.686,32.803c4.668,-12.04 12.04,-21.254 22.114,-27.643c10.074,-6.389 21.5,-9.583 34.277,-9.583Z" style="fill:#124a58;fill-rule:nonzero;"/><path d="M1617.04,2573.18c-18.921,0 -35.568,-3.932 -49.942,-11.795c-14.374,-7.862 -25.432,-19.104 -33.172,-33.724c-7.74,-14.62 -11.61,-31.759 -11.61,-51.416c0,-19.657 3.87,-36.796 11.61,-51.416c7.74,-14.62 18.798,-25.861 33.172,-33.724c14.374,-7.863 31.021,-11.795 49.942,-11.795c18.674,0 35.137,3.932 49.388,11.795c14.252,7.863 25.248,19.104 32.988,33.724c7.74,14.62 11.61,31.759 11.61,51.416c0,19.657 -3.87,36.796 -11.61,51.416c-7.74,14.62 -18.736,25.862 -32.988,33.724c-14.251,7.863 -30.714,11.795 -49.388,11.795Zm-0.369,-36.12c15.726,0 27.704,-5.099 35.936,-15.296c8.231,-10.197 12.347,-25.37 12.347,-45.519c0,-19.903 -4.177,-35.076 -12.531,-45.519c-8.355,-10.442 -20.149,-15.664 -35.383,-15.664c-15.481,0 -27.398,5.222 -35.752,15.664c-8.354,10.443 -12.531,25.616 -12.531,45.519c0,20.149 4.115,35.322 12.347,45.519c8.231,10.197 20.087,15.296 35.567,15.296Z" style="fill:#124a58;fill-rule:nonzero;"/><rect x="1750.83" y="2298.96" width="45.703" height="271.27" style="fill:#124a58;fill-rule:nonzero;"/><rect x="1951.33" y="2307.8" width="47.546" height="262.424" style="fill:#124a58;fill-rule:nonzero;"/><path d="M2158.84,2379.31c44.475,0 66.712,25.555 66.712,76.664l0,114.257l-46.071,0l0,-112.046c0,-14.743 -2.826,-25.493 -8.478,-32.25c-5.651,-6.757 -14.374,-10.136 -26.168,-10.136c-14.006,0 -25.309,4.485 -33.909,13.453c-8.6,8.969 -12.9,20.824 -12.9,35.567l0,105.412l-45.703,0l0,-133.423c0,-19.657 -0.983,-37.226 -2.949,-52.706l43.123,0l3.318,30.591c6.388,-11.302 15.05,-20.025 25.984,-26.168c10.934,-6.143 23.281,-9.215 37.041,-9.215Z" style="fill:#124a58;fill-rule:nonzero;"/><path d="M2274.57,2570.23l0,-186.129l45.703,0l0,186.129l-45.703,0Zm-2.948,-270.532l51.231,0l0,45.334l-51.231,0l0,-45.334Z" style="fill:#124a58;fill-rule:nonzero;"/><path d="M2429.37,2418.74l0,83.297c0,21.869 10.197,32.803 30.591,32.803c5.652,0 11.795,-0.983 18.429,-2.948l0,36.488c-8.109,2.949 -17.937,4.423 -29.486,4.423c-21.131,0 -37.348,-5.897 -48.651,-17.691c-11.303,-11.795 -16.955,-28.749 -16.955,-50.863l0,-85.509l-35.751,0l0,-34.646l35.751,0l0,-45.335l46.072,-15.48l0,60.815l49.389,0l0,34.646l-49.389,0Z" style="fill:#124a58;fill-rule:nonzero;"/><path d="M2510.46,2570.23l0,-186.129l45.703,0l0,186.129l-45.703,0Zm-2.949,-270.532l51.232,0l0,45.334l-51.232,0l0,-45.334Z" style="fill:#124a58;fill-rule:nonzero;"/><path d="M2784.68,2384.1l0,186.129l-45.334,0l0,-29.854c-5.652,10.32 -13.76,18.367 -24.326,24.141c-10.566,5.775 -22.606,8.662 -36.12,8.662c-16.218,0 -30.592,-3.932 -43.123,-11.795c-12.532,-7.862 -22.238,-19.042 -29.118,-33.54c-6.88,-14.497 -10.32,-31.328 -10.32,-50.494c0,-19.166 3.502,-36.182 10.505,-51.047c7.003,-14.866 16.77,-26.415 29.301,-34.646c12.532,-8.232 26.783,-12.348 42.755,-12.348c13.514,0 25.554,2.888 36.12,8.662c10.566,5.774 18.674,13.821 24.326,24.141l0,-28.011l45.334,0Zm-93.249,152.958c15.234,0 27.029,-5.283 35.383,-15.849c8.354,-10.566 12.532,-25.432 12.532,-44.597c0,-19.658 -4.178,-34.769 -12.532,-45.335c-8.354,-10.565 -20.271,-15.848 -35.751,-15.848c-15.235,0 -27.091,5.467 -35.568,16.401c-8.477,10.934 -12.716,26.107 -12.716,45.519c0,19.166 4.239,33.909 12.716,44.229c8.477,10.32 20.456,15.48 35.936,15.48Z" style="fill:#124a58;fill-rule:nonzero;"/><path d="M2893.41,2418.74l0,83.297c0,21.869 10.197,32.803 30.591,32.803c5.652,0 11.795,-0.983 18.429,-2.948l0,36.488c-8.108,2.949 -17.937,4.423 -29.486,4.423c-21.131,0 -37.348,-5.897 -48.651,-17.691c-11.303,-11.795 -16.955,-28.749 -16.955,-50.863l0,-85.509l-35.751,0l0,-34.646l35.751,0l0,-45.335l46.072,-15.48l0,60.815l49.389,0l0,34.646l-49.389,0Z" style="fill:#124a58;fill-rule:nonzero;"/><path d="M2974.49,2570.23l0,-186.129l45.703,0l0,186.129l-45.703,0Zm-2.949,-270.532l51.232,0l0,45.334l-51.232,0l0,-45.334Z" style="fill:#124a58;fill-rule:nonzero;"/><path d="M3201.16,2384.47l45.703,0l-81.454,185.76l-40.175,0l-80.349,-185.76l48.283,0l53.443,133.423l54.549,-133.423Z" style="fill:#124a58;fill-rule:nonzero;"/><path d="M3430.42,2479.56l-128.263,0c0.983,19.903 5.959,34.585 14.927,44.045c8.969,9.46 22.299,14.19 39.99,14.19c20.395,0 39.315,-6.635 56.761,-19.903l13.268,31.697c-8.845,7.126 -19.718,12.839 -32.618,17.139c-12.9,4.3 -25.985,6.45 -39.253,6.45c-30.469,0 -54.426,-8.6 -71.872,-25.8c-17.446,-17.2 -26.169,-40.789 -26.169,-70.766c0,-18.92 3.809,-35.752 11.426,-50.495c7.617,-14.743 18.306,-26.23 32.066,-34.461c13.76,-8.232 29.363,-12.348 46.809,-12.348c25.554,0 45.764,8.293 60.63,24.879c14.866,16.586 22.298,39.376 22.298,68.37l0,7.003Zm-81.823,-67.08c-12.285,0 -22.298,3.624 -30.038,10.873c-7.74,7.249 -12.716,17.753 -14.928,31.513l86.615,0c-1.474,-14.006 -5.713,-24.572 -12.716,-31.697c-7.003,-7.126 -16.647,-10.689 -28.933,-10.689Z" style="fill:#124a58;fill-rule:nonzero;"/></g><g><rect x="335.04" y="360.335" width="267.583" height="1106.32" style="fill:#f40c46;fill-rule:nonzero;"/><path d="M1821.61,360.335l0,1106.32l-269.147,0l0,-461.62l-419.37,0l0,461.62l-267.583,0l0,-1106.32l267.583,0l0,428.759l419.37,0l0,-428.759l269.147,0Z" style="fill:#f40c46;fill-rule:nonzero;"/><rect x="3397.38" y="360.335" width="267.583" height="1106.32" style="fill:#f40c46;fill-rule:nonzero;"/><path d="M3157.63,1031.4c-11.784,61.015 -32.799,117.948 -63.046,170.8c-49.552,86.587 -116.839,154.134 -201.861,202.644c-85.021,48.509 -179.171,72.763 -282.448,72.763c-103.278,0 -197.427,-24.254 -282.449,-72.763c-85.021,-48.51 -152.308,-116.057 -201.861,-202.644c-49.552,-86.586 -74.328,-184.126 -74.328,-292.62c0,-108.493 24.776,-205.772 74.328,-291.837c49.553,-86.065 116.84,-153.352 201.861,-201.861c85.022,-48.509 179.171,-72.764 282.449,-72.764c104.321,0 198.992,24.255 284.013,72.764c85.022,48.509 152.048,115.796 201.079,201.861c38.264,67.166 61.598,141.163 69.999,221.99l-185.203,0c1.114,-61.123 -18.048,-113.588 -57.487,-148.239c-76.709,-67.398 -230.127,-67.398 -306.835,12.962c-76.709,-80.36 -230.126,-80.36 -306.835,-12.962c-76.709,67.398 -76.709,202.194 0,336.99c53.696,101.097 191.771,202.195 306.835,269.593c113.955,-66.75 250.482,-166.553 305.262,-266.677l236.527,0Z" style="fill:#f40c46;fill-rule:nonzero;"/></g></svg>