<?xml version="1.0" encoding="UTF-8" standalone="no"?><!DOCTYPE svg PUBLIC "-//W3C//DTD SVG 1.1//EN" "http://www.w3.org/Graphics/SVG/1.1/DTD/svg11.dtd"><svg width="100%" height="100%" viewBox="0 0 228 104" version="1.1" xmlns="http://www.w3.org/2000/svg" xmlns:xlink="http://www.w3.org/1999/xlink" xml:space="preserve" xmlns:serif="http://www.serif.com/" style="fill-rule:evenodd;clip-rule:evenodd;stroke-linejoin:round;stroke-miterlimit:1.41421;"><rect id="RTSL-Logo-white" x="0" y="0" width="228" height="104" style="fill:none;"/><rect x="191.906" y="7.16" width="29.243" height="55.723" style="fill:#fff;"/><rect x="6" y="67" width="60" height="30" style="fill:#fff;"/><path d="M220,97l-150,0l0,-30l150,0l0,30Zm-132.116,-8.739c-0.31,-0.839 -0.394,-1.595 -0.394,-6.326c0,-4.732 0.084,-5.488 0.394,-6.327c0.7,-2.027 2.385,-3.108 4.882,-3.108c2.496,0 4.18,1.081 4.881,3.108c0.309,0.839 0.393,1.595 0.393,6.327c0,4.731 -0.084,5.487 -0.393,6.326c-0.701,2.027 -2.385,3.109 -4.881,3.109c-2.497,0 -4.182,-1.082 -4.882,-3.109Zm120.8,3.108c-3.451,0 -5.106,-1.756 -5.163,-4.919c0,-0.163 0.057,-0.271 0.225,-0.298l3.002,-0.46c0.196,-0.027 0.309,0.055 0.309,0.217c0.055,1.702 0.561,2.379 1.655,2.379c1.037,0 1.515,-0.514 1.515,-2.19c0,-1.623 -0.337,-2.19 -1.768,-2.731l-1.15,-0.432c-2.695,-1 -3.619,-2.38 -3.619,-5.326c0,-3.324 1.654,-5.109 5.049,-5.109c3.34,0 4.911,1.675 5.051,4.568c0,0.163 -0.084,0.27 -0.252,0.297l-2.863,0.434c-0.168,0.027 -0.307,-0.055 -0.307,-0.217c-0.029,-1.324 -0.506,-2 -1.516,-2c-0.982,0 -1.459,0.595 -1.459,1.839c0,1.378 0.309,1.81 1.795,2.378l1.151,0.432c2.609,0.973 3.619,2.326 3.619,5.434c0,3.758 -1.486,5.704 -5.274,5.704Zm-97.146,0c-3.45,0 -5.106,-1.756 -5.163,-4.919c0,-0.163 0.057,-0.271 0.225,-0.298l3.002,-0.46c0.197,-0.027 0.309,0.055 0.309,0.217c0.056,1.702 0.562,2.379 1.656,2.379c1.037,0 1.514,-0.514 1.514,-2.19c0,-1.623 -0.336,-2.19 -1.768,-2.731l-1.15,-0.432c-2.694,-1 -3.618,-2.38 -3.618,-5.326c0,-3.324 1.653,-5.109 5.049,-5.109c3.339,0 4.911,1.675 5.05,4.568c0,0.163 -0.084,0.27 -0.252,0.297l-2.862,0.434c-0.168,0.027 -0.308,-0.055 -0.308,-0.217c-0.028,-1.324 -0.506,-2 -1.516,-2c-0.981,0 -1.459,0.595 -1.459,1.839c0,1.378 0.31,1.81 1.795,2.378l1.152,0.432c2.608,0.973 3.618,2.326 3.618,5.434c0,3.758 -1.485,5.704 -5.274,5.704Zm-25.788,-15.435c0.168,0 0.28,-0.11 0.28,-0.27l0,-2.649c0,-0.163 -0.112,-0.271 -0.28,-0.271l-10.016,0c-0.17,0 -0.281,0.108 -0.281,0.271l0,2.649c0,0.161 0.111,0.27 0.281,0.27l3.002,0c0.111,0 0.168,0.054 0.168,0.161l0,14.761c0,0.163 0.113,0.27 0.281,0.27l3.114,0c0.169,0 0.281,-0.108 0.281,-0.27l0,-14.761c0,-0.107 0.055,-0.161 0.168,-0.161l3.002,0Zm100.485,15.192c0.168,0 0.252,-0.108 0.281,-0.27l3.815,-17.841c0.055,-0.163 -0.029,-0.271 -0.223,-0.271l-3.117,0c-0.168,0 -0.278,0.081 -0.307,0.271l-1.852,11.624l-0.084,0l-1.937,-11.624c-0.027,-0.19 -0.139,-0.271 -0.307,-0.271l-3.172,0c-0.197,0 -0.281,0.108 -0.223,0.271l3.787,17.841c0.057,0.163 0.141,0.27 0.309,0.27l3.03,0Zm-48.292,0c0.169,0 0.252,-0.108 0.281,-0.27l3.815,-17.841c0.056,-0.163 -0.028,-0.271 -0.223,-0.271l-3.116,0c-0.169,0 -0.279,0.081 -0.308,0.271l-1.852,11.624l-0.084,0l-1.937,-11.624c-0.026,-0.19 -0.139,-0.271 -0.307,-0.271l-3.17,0c-0.197,0 -0.282,0.108 -0.225,0.271l3.787,17.841c0.057,0.163 0.141,0.27 0.309,0.27l3.03,0Zm38.64,-0.001c0.168,0 0.28,-0.107 0.28,-0.268l0,-17.843c0,-0.163 -0.112,-0.271 -0.28,-0.271l-3.115,0c-0.168,0 -0.281,0.108 -0.281,0.271l0,17.843c0,0.161 0.113,0.268 0.281,0.268l3.115,0Zm-46.357,0c0.168,0 0.252,-0.107 0.224,-0.268l-4.096,-17.843c-0.029,-0.163 -0.141,-0.271 -0.31,-0.271l-3.309,0c-0.168,0 -0.254,0.108 -0.309,0.271l-4.153,17.843c-0.027,0.161 0.057,0.268 0.225,0.268l3.114,0c0.197,0 0.281,-0.107 0.31,-0.268l0.645,-3.327l3.619,0l0.616,3.327c0.029,0.161 0.113,0.268 0.31,0.268l3.114,0Zm70.965,-15.192c0.168,0 0.281,-0.107 0.281,-0.27l0,-2.649c0,-0.163 -0.113,-0.271 -0.281,-0.271l-8.333,0c-0.168,0 -0.281,0.108 -0.281,0.271l0,17.843c0,0.161 0.113,0.268 0.281,0.268l8.333,0c0.168,0 0.281,-0.107 0.281,-0.268l0,-2.651c0,-0.161 -0.113,-0.27 -0.281,-0.271l-4.77,0c-0.113,0 -0.168,-0.054 -0.168,-0.161l0,-4.163c0,-0.108 0.055,-0.163 0.168,-0.163l4.125,0c0.168,-0.001 0.28,-0.108 0.28,-0.269l0,-2.651c0,-0.161 -0.112,-0.268 -0.28,-0.269l-4.125,0c-0.113,0 -0.168,-0.055 -0.168,-0.162l0,-4.001c0,-0.109 0.055,-0.163 0.168,-0.163l4.77,0Zm-35.524,12.002c-0.113,0 -0.168,-0.054 -0.168,-0.161l0,-14.76c0,-0.163 -0.113,-0.271 -0.281,-0.271l-3.114,0c-0.168,0 -0.281,0.108 -0.281,0.271l0,17.843c0,0.161 0.113,0.268 0.281,0.268l8.388,0c0.168,0 0.281,-0.107 0.281,-0.268l0,-2.651c0,-0.161 -0.113,-0.27 -0.281,-0.271l-4.825,0Zm-12.768,-12.002c0.169,0 0.281,-0.107 0.281,-0.27l0,-2.649c0,-0.163 -0.113,-0.271 -0.281,-0.271l-8.333,0c-0.168,0 -0.281,0.108 -0.281,0.271l0,17.843c0,0.161 0.113,0.268 0.281,0.268l8.333,0c0.169,0 0.281,-0.107 0.281,-0.268l0,-2.651c0,-0.161 -0.112,-0.27 -0.281,-0.271l-4.77,0c-0.113,0 -0.168,-0.054 -0.168,-0.161l0,-4.163c0,-0.108 0.055,-0.163 0.168,-0.163l4.125,0c0.168,-0.001 0.281,-0.108 0.281,-0.269l0,-2.651c0,-0.161 -0.113,-0.268 -0.281,-0.269l-4.125,0c-0.113,0 -0.168,-0.055 -0.168,-0.162l0,-4.001c0,-0.109 0.055,-0.163 0.168,-0.163l4.77,0Zm-58.786,11.355c0.139,-0.432 0.196,-0.893 0.196,-5.353c0,-4.461 -0.057,-4.92 -0.196,-5.354c-0.169,-0.512 -0.646,-0.89 -1.347,-0.89c-0.702,0 -1.178,0.378 -1.348,0.89c-0.139,0.434 -0.196,0.893 -0.196,5.354c0,4.46 0.057,4.921 0.196,5.353c0.17,0.514 0.646,0.892 1.348,0.892c0.701,0 1.178,-0.378 1.347,-0.892Zm30.333,-8.948l1.207,6.38l-2.553,0l1.262,-6.38l0.084,0Zm63.554,-16.18l-182,0l0,-55l182,0l0,55Zm-97.547,-14.34c1.461,4.229 4.971,6.484 10.177,6.488c5.207,0.001 8.718,-2.253 10.182,-6.481c0.644,-1.748 0.82,-3.325 0.824,-13.191c0.005,-9.864 -0.172,-11.442 -0.814,-13.189c-1.462,-4.228 -4.97,-6.486 -10.177,-6.487c-5.207,0 -8.718,2.252 -10.182,6.481c-0.645,1.746 -0.82,3.324 -0.823,13.188c-0.004,9.866 0.171,11.443 0.813,13.191Zm-16.033,6.479c7.898,0.001 11.001,-4.056 11.002,-11.891c0.004,-6.483 -2.102,-9.302 -7.541,-11.334l-2.398,-0.902c-3.101,-1.185 -3.745,-2.086 -3.743,-4.962c0.001,-2.593 0.994,-3.832 3.043,-3.832c2.106,0.002 3.101,1.41 3.157,4.172c0,0.339 0.292,0.507 0.644,0.45l5.968,-0.897c0.351,-0.057 0.526,-0.283 0.526,-0.621c-0.289,-6.032 -3.565,-9.528 -10.527,-9.529c-7.077,-0.004 -10.531,3.716 -10.535,10.65c-0.001,6.144 1.928,9.019 7.544,11.107l2.398,0.902c2.983,1.128 3.686,2.313 3.684,5.695c-0.001,3.496 -0.996,4.566 -3.161,4.565c-2.283,-0.002 -3.335,-1.411 -3.449,-4.962c0,-0.338 -0.234,-0.507 -0.644,-0.45l-6.259,0.954c-0.351,0.057 -0.47,0.283 -0.47,0.62c0.116,6.596 3.564,10.261 10.761,10.265Zm87.421,-38.247c0,-0.338 0.234,-0.563 0.585,-0.563l17.376,0.005c0.351,0 0.585,0.227 0.585,0.564l-0.002,5.523c0,0.34 -0.235,0.563 -0.587,0.563l-9.945,-0.001c-0.233,0 -0.351,0.111 -0.351,0.337l-0.002,8.342c0,0.225 0.117,0.34 0.35,0.34l8.601,0.003c0.351,0 0.585,0.225 0.585,0.563l-0.002,5.524c0,0.338 -0.236,0.564 -0.585,0.564l-8.6,-0.004c-0.236,0 -0.352,0.113 -0.352,0.34l-0.003,8.679c0,0.225 0.117,0.34 0.351,0.34l9.945,0.003c0.351,0 0.585,0.225 0.585,0.565l-0.002,5.522c0,0.338 -0.233,0.564 -0.584,0.564l-17.376,-0.005c-0.352,0 -0.585,-0.226 -0.585,-0.563l0.013,-37.205Zm-19.028,37.761l6.318,0.002c0.351,0 0.528,-0.225 0.587,-0.563l7.968,-37.201c0.118,-0.338 -0.059,-0.564 -0.467,-0.564l-6.495,-0.003c-0.351,0 -0.585,0.17 -0.643,0.563l-3.869,24.238l-0.177,0l-4.027,-24.24c-0.059,-0.395 -0.292,-0.563 -0.643,-0.563l-6.611,-0.003c-0.41,0 -0.587,0.227 -0.469,0.565l7.886,37.205c0.116,0.339 0.291,0.564 0.642,0.564Zm-25.728,-37.775c0,-0.338 0.233,-0.564 0.585,-0.564l6.494,0.003c0.351,0 0.585,0.223 0.585,0.563l-0.012,30.778c0,0.225 0.118,0.337 0.351,0.337l10.063,0.004c0.351,0 0.585,0.225 0.585,0.565l-0.002,5.524c0,0.338 -0.235,0.563 -0.586,0.563l-17.492,-0.007c-0.351,0 -0.585,-0.225 -0.585,-0.564l0.014,-37.202Zm-75.706,-0.025l-0.014,37.203c0,0.338 0.234,0.563 0.585,0.563l17.376,0.007c0.351,0 0.585,-0.225 0.585,-0.563l0.001,-5.525c0,-0.339 -0.233,-0.563 -0.585,-0.565l-9.945,-0.003c-0.233,0 -0.351,-0.113 -0.351,-0.338l0.004,-8.679c0,-0.227 0.117,-0.34 0.351,-0.34l8.6,0.004c0.35,0 0.585,-0.227 0.585,-0.565l0.002,-5.523c0,-0.34 -0.234,-0.565 -0.585,-0.565l-8.6,-0.003c-0.234,0 -0.35,-0.111 -0.35,-0.338l0.003,-8.341c0,-0.227 0.116,-0.338 0.35,-0.338l9.945,0.002c0.351,0 0.586,-0.224 0.586,-0.563l0.002,-5.525c0,-0.338 -0.233,-0.563 -0.585,-0.565l-17.375,-0.005c-0.352,0 -0.585,0.227 -0.585,0.565Zm-16.976,22.767l4.501,14.545c0.116,0.336 0.291,0.451 0.642,0.451l7.021,0.003c0.292,0 0.41,-0.282 0.292,-0.565l-5.434,-16.237c2.75,-1.8 4.448,-4.958 4.449,-9.806c0.004,-8.511 -4.559,-11.726 -11.639,-11.728l-9.476,-0.003c-0.351,0 -0.585,0.225 -0.585,0.563l-0.013,37.205c0,0.338 0.233,0.563 0.585,0.563l6.492,0.001c0.352,0 0.587,-0.223 0.587,-0.563l0.005,-14.091c0,-0.226 0.115,-0.337 0.35,-0.338l2.223,0Zm79.037,7.015c-0.35,1.071 -1.344,1.86 -2.807,1.86c-1.462,-0.002 -2.457,-0.79 -2.808,-1.862c-0.293,-0.901 -0.409,-1.859 -0.405,-11.16c0.003,-9.302 0.121,-10.261 0.413,-11.16c0.351,-1.073 1.347,-1.863 2.809,-1.861c1.462,0 2.457,0.79 2.807,1.862c0.292,0.901 0.408,1.859 0.406,11.159c-0.003,9.302 -0.121,10.261 -0.415,11.162Zm-75.287,-18.627c-0.002,4.061 -1.29,5.242 -4.274,5.242l-1.696,-0.001c-0.234,0 -0.351,-0.113 -0.351,-0.337l0.003,-9.808c0,-0.226 0.118,-0.34 0.351,-0.34l1.698,0.002c2.983,0 4.269,1.242 4.269,5.242Z" style="fill:#fff;"/></svg>