<?xml version="1.0" encoding="UTF-8" standalone="no"?>
<!DOCTYPE svg PUBLIC "-//W3C//DTD SVG 1.1//EN" "http://www.w3.org/Graphics/SVG/1.1/DTD/svg11.dtd">
<svg width="100%" height="100%" viewBox="0 0 228 105" version="1.1" xmlns="http://www.w3.org/2000/svg" xmlns:xlink="http://www.w3.org/1999/xlink" xml:space="preserve" xmlns:serif="http://www.serif.com/" style="fill-rule:evenodd;clip-rule:evenodd;stroke-linejoin:round;stroke-miterlimit:1.41421;">
    <g transform="matrix(1,0,0,1,0,-144)">
        <g id="RTSL-Logo-RGB" transform="matrix(1,0,0,0.912281,3,149.974)">
            <rect x="-3" y="-6" width="228" height="114" style="fill:none;"/>
            <g transform="matrix(0.5,0,0,0.548077,58.1488,221.928)">
                <g transform="matrix(0.999445,0,0,0.987025,-110.298,-401.55)">
                    <rect x="0" y="0.001" width="364.202" height="111.446" style="fill:rgb(43,48,127);"/>
                </g>
                <g transform="matrix(1,0,0,1,-110,-401.55)">
                    <rect x="371.514" y="0.001" width="58.486" height="111.446" style="fill:rgb(243,119,91);"/>
                </g>
                <g transform="matrix(0.99751,0,0,0.990034,-110.983,-399.184)">
                    <rect x="129.007" y="118.496" width="300.749" height="60.604" style="fill:rgb(43,48,127);"/>
                </g>
                <g transform="matrix(0.991727,0,0,0.990034,-111.488,-399.184)">
                    <rect x="1.2" y="118.496" width="121.001" height="60.604" style="fill:rgb(243,119,91);"/>
                </g>
                <g transform="matrix(1,0,0,1,-110,-401.55)">
                    <path d="M146.072,167.933C145.736,167.933 145.51,167.718 145.51,167.392L145.51,137.871C145.51,137.657 145.396,137.549 145.174,137.549L139.171,137.549C138.831,137.549 138.609,137.33 138.609,137.008L138.609,131.71C138.609,131.384 138.831,131.169 139.171,131.169L159.202,131.169C159.538,131.169 159.763,131.384 159.763,131.71L159.763,137.008C159.763,137.33 159.538,137.549 159.202,137.549L153.198,137.549C152.973,137.549 152.862,137.657 152.862,137.871L152.862,167.392C152.862,167.718 152.637,167.933 152.301,167.933L146.072,167.933ZM163.47,162.203C162.851,160.526 162.683,159.013 162.683,149.551C162.683,140.088 162.851,138.576 163.47,136.898C164.871,132.844 168.24,130.682 173.235,130.682C178.227,130.682 181.595,132.844 182.997,136.898C183.615,138.576 183.783,140.088 183.783,149.551C183.783,159.013 183.615,160.526 182.997,162.203C181.595,166.257 178.227,168.422 173.235,168.422C168.24,168.422 164.871,166.257 163.47,162.203M175.928,160.257C176.206,159.393 176.321,158.472 176.321,149.551C176.321,140.629 176.206,139.712 175.928,138.844C175.591,137.819 174.637,137.063 173.235,137.063C171.83,137.063 170.879,137.819 170.539,138.844C170.26,139.712 170.146,140.629 170.146,149.551C170.146,158.472 170.26,159.393 170.539,160.257C170.879,161.286 171.83,162.042 173.235,162.042C174.637,162.042 175.591,161.286 175.928,160.257M210.779,168.42C203.878,168.42 200.567,164.907 200.452,158.581C200.452,158.255 200.567,158.04 200.903,157.986L206.906,157.065C207.3,157.011 207.525,157.176 207.525,157.499C207.636,160.904 208.648,162.258 210.836,162.258C212.91,162.258 213.864,161.23 213.864,157.878C213.864,154.631 213.193,153.498 210.328,152.416L208.029,151.552C202.641,149.552 200.792,146.792 200.792,140.899C200.792,134.251 204.099,130.681 210.89,130.681C217.569,130.681 220.712,134.032 220.991,139.817C220.991,140.143 220.823,140.358 220.487,140.412L214.762,141.279C214.426,141.333 214.147,141.169 214.147,140.846C214.09,138.197 213.135,136.846 211.115,136.846C209.152,136.846 208.197,138.036 208.197,140.523C208.197,143.279 208.816,144.143 211.787,145.279L214.09,146.144C219.307,148.09 221.327,150.795 221.327,157.011C221.327,164.527 218.356,168.42 210.779,168.42M232.554,131.709C232.665,131.383 232.837,131.168 233.173,131.168L239.791,131.168C240.128,131.168 240.353,131.383 240.41,131.709L248.602,167.395C248.659,167.717 248.491,167.932 248.155,167.932L241.926,167.932C241.533,167.932 241.365,167.717 241.307,167.395L240.074,160.742L232.837,160.742L231.546,167.395C231.489,167.717 231.321,167.932 230.927,167.932L224.699,167.932C224.362,167.932 224.194,167.717 224.248,167.395L232.554,131.709ZM239.008,155.122L236.595,142.361L236.427,142.361L233.902,155.122L239.008,155.122ZM257.528,167.933C257.192,167.933 257.024,167.718 256.91,167.392L249.336,131.71C249.222,131.384 249.393,131.169 249.787,131.169L256.127,131.169C256.463,131.169 256.688,131.33 256.741,131.71L260.614,154.958L260.782,154.958L264.486,131.71C264.544,131.33 264.765,131.169 265.102,131.169L271.334,131.169C271.724,131.169 271.892,131.384 271.781,131.71L264.15,167.392C264.093,167.718 263.925,167.933 263.589,167.933L257.528,167.933ZM276.273,131.709C276.273,131.383 276.498,131.168 276.835,131.168L293.501,131.168C293.837,131.168 294.062,131.383 294.062,131.709L294.062,137.007C294.062,137.333 293.837,137.548 293.501,137.548L283.961,137.548C283.735,137.548 283.624,137.655 283.624,137.874L283.624,145.875C283.624,146.089 283.735,146.2 283.961,146.2L292.21,146.2C292.546,146.2 292.772,146.416 292.772,146.738L292.772,152.039C292.772,152.362 292.546,152.577 292.21,152.577L283.961,152.577C283.735,152.577 283.624,152.688 283.624,152.903L283.624,161.23C283.624,161.444 283.735,161.552 283.961,161.552L293.501,161.552C293.837,161.552 294.062,161.771 294.062,162.093L294.062,167.395C294.062,167.717 293.837,167.932 293.501,167.932L276.835,167.932C276.498,167.932 276.273,167.717 276.273,167.395L276.273,131.709ZM311.349,131.709C311.349,131.383 311.574,131.168 311.91,131.168L318.139,131.168C318.475,131.168 318.701,131.383 318.701,131.709L318.701,161.23C318.701,161.444 318.811,161.552 319.036,161.552L328.687,161.552C329.023,161.552 329.248,161.771 329.248,162.093L329.248,167.395C329.248,167.717 329.023,167.932 328.687,167.932L311.91,167.932C311.574,167.932 311.349,167.717 311.349,167.395L311.349,131.709ZM334.077,131.709C334.077,131.383 334.303,131.168 334.639,131.168L340.868,131.168C341.204,131.168 341.429,131.383 341.429,131.709L341.429,167.395C341.429,167.717 341.204,167.932 340.868,167.932L334.639,167.932C334.303,167.932 334.077,167.717 334.077,167.395L334.077,131.709ZM354.111,167.933C353.775,167.933 353.607,167.718 353.494,167.392L345.919,131.71C345.804,131.384 345.972,131.169 346.366,131.169L352.71,131.169C353.047,131.169 353.27,131.33 353.324,131.71L357.197,154.958L357.365,154.958L361.069,131.71C361.127,131.33 361.348,131.169 361.684,131.169L367.917,131.169C368.306,131.169 368.474,131.384 368.364,131.71L360.733,167.392C360.675,167.718 360.507,167.933 360.172,167.933L354.111,167.933ZM372.857,131.709C372.857,131.383 373.083,131.168 373.419,131.168L390.085,131.168C390.421,131.168 390.646,131.383 390.646,131.709L390.646,137.007C390.646,137.333 390.421,137.548 390.085,137.548L380.545,137.548C380.32,137.548 380.209,137.655 380.209,137.874L380.209,145.875C380.209,146.089 380.32,146.2 380.545,146.2L388.795,146.2C389.13,146.2 389.355,146.416 389.355,146.738L389.355,152.039C389.355,152.362 389.13,152.577 388.795,152.577L380.545,152.577C380.32,152.577 380.209,152.688 380.209,152.903L380.209,161.23C380.209,161.444 380.32,161.552 380.545,161.552L390.085,161.552C390.421,161.552 390.646,161.771 390.646,162.093L390.646,167.395C390.646,167.717 390.421,167.932 390.085,167.932L373.419,167.932C373.083,167.932 372.857,167.717 372.857,167.395L372.857,131.709ZM405.069,168.42C398.168,168.42 394.857,164.907 394.743,158.581C394.743,158.255 394.857,158.04 395.193,157.986L401.197,157.065C401.59,157.011 401.815,157.176 401.815,157.499C401.925,160.904 402.938,162.258 405.126,162.258C407.2,162.258 408.155,161.23 408.155,157.878C408.155,154.631 407.482,153.498 404.619,152.416L402.319,151.552C396.93,149.552 395.082,146.792 395.082,140.899C395.082,134.251 398.389,130.681 405.179,130.681C411.859,130.681 415.002,134.032 415.281,139.817C415.281,140.143 415.113,140.358 414.777,140.412L409.052,141.279C408.716,141.333 408.437,141.169 408.437,140.846C408.38,138.197 407.425,136.846 405.405,136.846C403.442,136.846 402.487,138.036 402.487,140.523C402.487,143.279 403.106,144.143 406.078,145.279L408.38,146.144C413.597,148.09 415.617,150.795 415.617,157.011C415.617,164.527 412.646,168.42 405.069,168.42M46.795,93.233C46.092,93.233 45.743,93.004 45.511,92.332L36.509,63.242L32.062,63.242C31.594,63.242 31.362,63.464 31.362,63.918L31.353,92.1C31.353,92.779 30.882,93.226 30.179,93.226L17.194,93.223C16.491,93.223 16.024,92.773 16.024,92.097L16.051,17.687C16.051,17.011 16.518,16.561 17.221,16.561L36.173,16.568C50.332,16.571 59.458,23.002 59.451,40.024C59.448,49.719 56.053,56.035 50.553,59.635L61.421,92.11C61.656,92.675 61.421,93.24 60.836,93.24L46.795,93.233ZM44.008,40.017C44.008,32.017 41.437,29.533 35.47,29.533L32.075,29.529C31.608,29.529 31.373,29.758 31.373,30.209L31.366,49.826C31.366,50.274 31.601,50.499 32.068,50.499L35.46,50.502C41.43,50.502 44.005,48.139 44.008,40.017ZM70.46,17.707C70.46,17.031 70.927,16.578 71.63,16.578L106.381,16.588C107.084,16.591 107.551,17.041 107.551,17.717L107.547,28.767C107.547,29.445 107.077,29.893 106.374,29.893L86.484,29.889C86.017,29.889 85.785,30.111 85.785,30.565L85.778,47.248C85.778,47.702 86.01,47.923 86.478,47.923L103.678,47.93C104.381,47.93 104.848,48.38 104.848,49.06L104.845,60.105C104.845,60.781 104.374,61.235 103.675,61.235L86.474,61.228C86.007,61.228 85.772,61.454 85.772,61.907L85.765,79.266C85.765,79.716 86.001,79.941 86.467,79.941L106.357,79.948C107.06,79.952 107.527,80.399 107.527,81.078L107.524,92.127C107.524,92.803 107.057,93.253 106.354,93.253L71.603,93.24C70.9,93.24 70.433,92.789 70.433,92.113L70.46,17.707ZM136.543,94.278C122.149,94.271 115.252,86.94 115.02,73.749C115.02,73.074 115.258,72.623 115.961,72.509L128.479,70.6C129.299,70.486 129.767,70.825 129.767,71.501C129.995,78.603 132.099,81.421 136.664,81.424C140.994,81.427 142.984,79.286 142.987,72.294C142.99,65.53 141.585,63.161 135.619,60.905L130.822,59.1C119.591,54.925 115.732,49.174 115.735,36.887C115.742,23.018 122.65,15.579 136.805,15.586C150.729,15.589 157.28,22.581 157.858,34.645C157.858,35.321 157.509,35.772 156.806,35.886L144.87,37.681C144.167,37.795 143.582,37.459 143.582,36.78C143.471,31.257 141.481,28.44 137.269,28.437C133.171,28.437 131.185,30.914 131.182,36.101C131.178,41.852 132.466,43.654 138.668,46.024L143.464,47.829C154.342,51.893 158.554,57.53 158.547,70.496C158.544,86.167 152.339,94.281 136.543,94.278M168.609,81.321C167.325,77.825 166.975,74.672 166.982,54.94C166.988,35.212 167.338,32.055 168.629,28.563C171.557,20.105 178.579,15.601 188.993,15.601C199.407,15.604 206.422,20.119 209.347,28.576C210.63,32.069 210.984,35.225 210.974,54.953C210.967,74.685 210.614,77.839 209.326,81.335C206.399,89.792 199.377,94.3 188.963,94.297C178.549,94.29 171.53,89.779 168.609,81.321M194.583,77.271C195.171,75.469 195.406,73.552 195.413,54.947C195.417,36.348 195.185,34.432 194.6,32.63C193.901,30.486 191.911,28.905 188.986,28.905C186.062,28.902 184.071,30.482 183.369,32.627C182.784,34.425 182.549,36.344 182.542,54.947C182.535,73.55 182.767,75.466 183.352,77.267C184.055,79.412 186.045,80.988 188.969,80.991C191.894,80.991 193.884,79.412 194.583,77.271M221.872,17.757C221.872,17.081 222.339,16.628 223.042,16.628L236.031,16.634C236.733,16.634 237.201,17.081 237.201,17.76L237.177,79.316C237.177,79.766 237.412,79.991 237.879,79.991L258.005,79.998C258.707,79.998 259.174,80.448 259.174,81.128L259.171,92.177C259.171,92.852 258.701,93.303 257.998,93.303L223.015,93.289C222.312,93.289 221.845,92.839 221.845,92.16L221.872,17.757ZM273.329,93.308C272.626,93.308 272.277,92.857 272.045,92.179L256.273,17.769C256.037,17.093 256.391,16.64 257.211,16.64L270.432,16.646C271.134,16.646 271.601,16.982 271.719,17.772L279.773,66.251L280.126,66.251L287.864,17.776C287.981,16.989 288.449,16.649 289.151,16.649L302.141,16.656C302.957,16.656 303.31,17.107 303.075,17.783L287.138,92.185C287.02,92.861 286.667,93.311 285.965,93.311L273.329,93.308ZM311.385,17.785C311.385,17.109 311.853,16.659 312.555,16.659L347.306,16.669C348.009,16.669 348.476,17.123 348.476,17.798L348.473,28.844C348.473,29.523 348.002,29.97 347.299,29.97L327.409,29.967C326.943,29.967 326.707,30.189 326.707,30.642L326.703,47.326C326.703,47.776 326.936,48.005 327.403,48.005L344.604,48.011C345.306,48.011 345.774,48.462 345.774,49.138L345.77,60.186C345.77,60.862 345.299,61.313 344.6,61.313L327.4,61.306C326.929,61.306 326.697,61.531 326.697,61.985L326.69,79.344C326.69,79.794 326.925,80.023 327.393,80.023L347.282,80.029C347.985,80.029 348.452,80.48 348.452,81.159L348.448,92.204C348.448,92.88 347.982,93.331 347.28,93.331L312.529,93.321C311.825,93.321 311.359,92.87 311.359,92.195L311.385,17.785Z" style="fill:white;"/>
                </g>
            </g>
        </g>
    </g>
</svg>
