<?xml version="1.0" encoding="utf-8"?>
<!-- Generator: Adobe Illustrator 21.0.2, SVG Export Plug-In . SVG Version: 6.00 Build 0)  -->
<svg version="1.1" id="Layer_1" xmlns="http://www.w3.org/2000/svg" xmlns:xlink="http://www.w3.org/1999/xlink" x="0px" y="0px"
	 viewBox="0 0 145.8 63" style="enable-background:new 0 0 145.8 63;" xml:space="preserve">
<style type="text/css">
	.st0{fill:#FFFFFF;}
</style>
<title>Artboard 1</title>
<rect x="126" class="st0" width="19.8" height="39.2"/>
<rect y="41.7" class="st0" width="41.5" height="21.3"/>
<g>
	<path class="st0" d="M59.7,48.1c-0.2,0.1-0.4,0.3-0.5,0.5c-0.1,0.3-0.1,0.6-0.1,3.8c0,3.1,0,3.5,0.1,3.8c0.2,0.5,0.8,0.7,1.3,0.5
		c0.2-0.1,0.4-0.3,0.5-0.5c0.1-0.3,0.1-0.6,0.1-3.8c0-3.1,0-3.5-0.1-3.8C60.8,48.1,60.2,47.9,59.7,48.1z"/>
	<polygon class="st0" points="81.5,49.8 80.7,54.3 82.4,54.3 81.6,49.8 	"/>
	<path class="st0" d="M43.8,41.7V63h102V41.7H43.8z M55.6,46.1V48c0,0.1-0.1,0.2-0.2,0.2c0,0,0,0,0,0h-2c-0.1,0-0.1,0-0.1,0.1
		c0,0,0,0,0,0v10.4c0,0.1-0.1,0.2-0.2,0.2c0,0,0,0,0,0h-2.2c-0.1,0-0.2-0.1-0.2-0.2c0,0,0,0,0,0V48.3c0-0.1,0-0.1-0.1-0.1
		c0,0,0,0,0,0h-2c-0.1,0-0.2-0.1-0.2-0.2c0,0,0,0,0,0v-1.9c0-0.1,0.1-0.2,0.2-0.2c0,0,0,0,0,0h6.8C55.5,45.9,55.6,46,55.6,46.1
		C55.6,46.1,55.6,46.1,55.6,46.1z M63.4,56.8c-0.8,1.8-2.9,2.7-4.7,1.9c-0.9-0.4-1.5-1-1.9-1.9c-0.2-0.6-0.3-1.1-0.3-4.4
		c0-3.3,0.1-3.9,0.3-4.5c0.8-1.8,2.9-2.7,4.7-1.9c0.9,0.4,1.5,1,1.9,1.9c0.2,0.6,0.3,1.1,0.3,4.5C63.7,55.7,63.6,56.3,63.4,56.8z
		 M72.8,59c-2.3,0-3.5-1.2-3.5-3.5c0-0.1,0-0.2,0.2-0.2l2-0.3c0.1,0,0.2,0,0.2,0.1c0,1.2,0.4,1.7,1.1,1.7s1-0.4,1-1.5
		s-0.2-1.5-1.2-1.9l-0.8-0.3c-1.8-0.7-2.5-1.7-2.5-3.8c0-2.3,1.1-3.6,3.4-3.6s3.3,1.2,3.4,3.2c0,0.1-0.1,0.2-0.2,0.2c0,0,0,0,0,0
		l-1.9,0.3c-0.1,0-0.2,0-0.2-0.2c0-0.9-0.3-1.4-1-1.4c-0.7,0-1,0.4-1,1.3s0.2,1.3,1.2,1.7l0.8,0.3c1.8,0.7,2.5,1.6,2.5,3.8
		C76.4,57.6,75.4,59,72.8,59z M85.6,58.8C85.6,58.8,85.6,58.9,85.6,58.8l-2.2,0c-0.1,0-0.2-0.1-0.2-0.2c0,0,0,0,0,0l-0.4-2.3h-2.4
		l-0.4,2.3c0,0.1-0.1,0.2-0.2,0.2c0,0,0,0,0,0h-2.1c-0.1,0-0.2-0.1-0.2-0.1c0,0,0,0,0,0l2.8-12.6c0-0.1,0.1-0.2,0.2-0.2h2.2
		c0.1,0,0.2,0.1,0.2,0.2l2.8,12.6C85.7,58.7,85.7,58.8,85.6,58.8z M91,58.7c0,0.1-0.1,0.2-0.2,0.2h-2.1c-0.1,0-0.2-0.1-0.2-0.2
		l-2.6-12.6c0-0.1,0-0.2,0.2-0.2h2.1c0.1,0,0.2,0.1,0.2,0.2c0,0,0,0,0,0l1.3,8.2h0.1l1.3-8.2c0-0.1,0.1-0.2,0.2-0.2c0,0,0,0,0,0h2.1
		c0.1,0,0.2,0.1,0.1,0.2L91,58.7z M101.1,56.8v1.9c0,0.1-0.1,0.2-0.2,0.2c0,0,0,0,0,0h-5.7c-0.1,0-0.2-0.1-0.2-0.2c0,0,0,0,0,0V46.1
		c0-0.1,0.1-0.2,0.2-0.2c0,0,0,0,0,0h5.7c0.1,0,0.2,0.1,0.2,0.2c0,0,0,0,0,0V48c0,0.1-0.1,0.2-0.2,0.2c0,0,0,0,0,0h-3.2
		c-0.1,0-0.1,0-0.1,0.1c0,0,0,0,0,0v2.8c0,0.1,0,0.1,0.1,0.1c0,0,0,0,0,0h2.8c0.1,0,0.2,0.1,0.2,0.2c0,0,0,0,0,0v1.9
		c0,0.1-0.1,0.2-0.2,0.2c0,0,0,0,0,0h-2.8c-0.1,0-0.1,0-0.1,0.1c0,0,0,0,0,0v2.9c0,0.1,0,0.1,0.1,0.1c0,0,0,0,0,0h3.2
		C101,56.6,101.1,56.7,101.1,56.8C101.1,56.8,101.1,56.8,101.1,56.8z M113.1,56.8v1.9c0,0.1-0.1,0.2-0.2,0.2c0,0,0,0,0,0h-5.7
		c-0.1,0-0.2-0.1-0.2-0.2c0,0,0,0,0,0l0-12.6c0-0.1,0.1-0.2,0.2-0.2c0,0,0,0,0,0h2.1c0.1,0,0.2,0.1,0.2,0.2c0,0,0,0,0,0v10.4
		c0,0.1,0,0.1,0.1,0.1c0,0,0,0,0,0h3.3C113,56.6,113.1,56.7,113.1,56.8C113.1,56.8,113.1,56.8,113.1,56.8z M117.2,46.1v12.6
		c0,0.1-0.1,0.2-0.2,0.2c0,0,0,0,0,0h-2.1c-0.1,0-0.2-0.1-0.2-0.2c0,0,0,0,0,0l0-12.6c0-0.1,0.1-0.2,0.2-0.2c0,0,0,0,0,0h2.1
		C117.1,45.9,117.2,46,117.2,46.1C117.2,46.1,117.2,46.1,117.2,46.1z M123.7,58.7c0,0.1-0.1,0.2-0.2,0.2h-2.1
		c-0.1,0-0.2-0.1-0.2-0.2l-2.6-12.6c0-0.1,0-0.2,0.2-0.2h2.2c0.1,0,0.2,0.1,0.2,0.2c0,0,0,0,0,0l1.3,8.2h0.1l1.3-8.2
		c0-0.1,0.1-0.2,0.2-0.2c0,0,0,0,0,0h2.1c0.1,0,0.2,0.1,0.2,0.2L123.7,58.7z M133.9,46.1V48c0,0.1-0.1,0.2-0.2,0.2c0,0,0,0,0,0h-3.2
		c-0.1,0-0.1,0-0.1,0.1c0,0,0,0,0,0v2.8c0,0.1,0,0.1,0.1,0.1c0,0,0,0,0,0h2.8c0.1,0,0.2,0.1,0.2,0.2c0,0,0,0,0,0v1.9
		c0,0.1-0.1,0.2-0.2,0.2c0,0,0,0,0,0h-2.8c-0.1,0-0.1,0-0.1,0.1c0,0,0,0,0,0v2.9c0,0.1,0,0.1,0.1,0.1c0,0,0,0,0,0h3.2
		c0.1,0,0.2,0.1,0.2,0.2c0,0,0,0,0,0v1.9c0,0.1-0.1,0.2-0.2,0.2c0,0,0,0,0,0H128c-0.1,0-0.2-0.1-0.2-0.2c0,0,0,0,0,0l0-12.6
		c0-0.1,0.1-0.2,0.2-0.2c0,0,0,0,0,0h5.6C133.8,45.9,133.9,46,133.9,46.1C133.9,46.1,133.9,46.1,133.9,46.1z M138.8,59
		c-2.3,0-3.5-1.2-3.5-3.5c0-0.1,0-0.2,0.1-0.2l2-0.3c0.1,0,0.2,0,0.2,0.1c0,1.2,0.4,1.7,1.1,1.7s1-0.4,1-1.5s-0.2-1.5-1.2-1.9
		l-0.8-0.3c-1.8-0.7-2.5-1.7-2.5-3.8c0-2.3,1.1-3.6,3.4-3.6s3.3,1.2,3.4,3.2c0,0.1-0.1,0.2-0.2,0.2c0,0,0,0,0,0l-1.9,0.3
		c-0.1,0-0.2,0-0.2-0.2c0-0.9-0.3-1.4-1-1.4c-0.7,0-1,0.4-1,1.3s0.2,1.3,1.2,1.7l0.8,0.3c1.8,0.7,2.5,1.6,2.5,3.8
		C142.3,57.6,141.3,59,138.8,59z"/>
</g>
<g>
	<path class="st0" d="M63.5,10.9c-0.6,0.2-1.1,0.7-1.3,1.3c-0.2,0.6-0.3,1.3-0.3,7.9s0.1,7.2,0.3,7.9c0.3,1.1,1.5,1.6,2.5,1.3
		c0.6-0.2,1.1-0.7,1.3-1.3h0c0.2-0.6,0.3-1.3,0.3-7.9s-0.1-7.2-0.3-7.9C65.7,11.1,64.5,10.6,63.5,10.9z"/>
	<path class="st0" d="M0,0v39.2h123.5V0H0z M20.7,33.5l-4.8,0c-0.2,0-0.4-0.1-0.4-0.3l-3-10.2h-1.5c-0.1,0-0.2,0.1-0.2,0.2
		c0,0,0,0,0,0.1v9.9c0,0.2-0.1,0.4-0.3,0.4c0,0,0,0-0.1,0H5.8c-0.2,0-0.4-0.1-0.4-0.3c0,0,0,0,0-0.1V6.9c0-0.2,0.1-0.4,0.4-0.4
		c0,0,0,0,0,0h6.4c4.8,0,7.9,2.3,7.9,8.3c0,3.4-1.1,5.6-3,6.9l3.7,11.4C20.9,33.3,20.8,33.5,20.7,33.5z M36.5,6.9v3.9
		c0,0.2-0.1,0.4-0.3,0.4c0,0,0,0-0.1,0h-6.7c-0.1,0-0.2,0.1-0.2,0.2c0,0,0,0,0,0.1v5.9c0,0.1,0.1,0.2,0.2,0.2c0,0,0,0,0.1,0h5.8
		c0.2,0,0.4,0.1,0.4,0.3c0,0,0,0,0,0.1v3.9c0,0.2-0.1,0.4-0.4,0.4c0,0,0,0,0,0h-5.8c-0.1,0-0.2,0.1-0.2,0.2c0,0,0,0,0,0.1v6.1
		c0,0.1,0.1,0.2,0.2,0.2c0,0,0,0,0.1,0h6.8c0.2,0,0.4,0.1,0.4,0.3c0,0,0,0,0,0.1v3.9c0,0.2-0.1,0.4-0.3,0.4c0,0,0,0-0.1,0H24.3
		c-0.2,0-0.4-0.1-0.4-0.3c0,0,0,0,0-0.1l0-26.2c0-0.2,0.1-0.4,0.3-0.4c0,0,0,0,0.1,0h11.8C36.3,6.5,36.5,6.7,36.5,6.9
		C36.5,6.9,36.5,6.9,36.5,6.9z M46.3,33.9c-4.9,0-7.2-2.6-7.3-7.2c0-0.2,0.1-0.4,0.3-0.4l4.2-0.7c0.3,0,0.4,0.1,0.4,0.3
		c0.1,2.5,0.8,3.5,2.3,3.5s2.1-0.8,2.2-3.2c0-2.5-0.5-3.2-2.5-4l-1.6-0.6c-3.8-1.5-5.1-3.5-5.1-7.8c0-4.9,2.3-7.5,7.1-7.5
		c4.8,0,6.9,2.5,7.1,6.7c0,0.2-0.1,0.4-0.4,0.4c0,0,0,0,0,0l-4,0.6c-0.2,0-0.4-0.1-0.4-0.3c0-1.9-0.7-2.9-2.1-2.9s-2.1,0.9-2.1,2.7
		c0,2,0.4,2.7,2.5,3.5l1.6,0.6c3.7,1.4,5.1,3.4,5.1,8C53.8,31,51.7,33.9,46.3,33.9z M71.5,20c0,7-0.1,8.1-0.6,9.3
		c-1,3-3.4,4.6-6.9,4.6c-3.5,0-5.9-1.6-6.9-4.6c-0.4-1.2-0.5-2.3-0.5-9.3s0.1-8.1,0.6-9.3c1-3,3.4-4.6,6.9-4.6
		c3.5,0,5.9,1.6,6.9,4.6C71.4,12,71.6,13.1,71.5,20z M87.9,29.3v3.9c0,0.2-0.1,0.4-0.3,0.4c0,0,0,0-0.1,0H75.7
		c-0.2,0-0.4-0.1-0.4-0.3c0,0,0,0,0-0.1l0-26.2c0-0.2,0.1-0.4,0.3-0.4c0,0,0,0,0.1,0h4.4c0.2,0,0.4,0.1,0.4,0.4c0,0,0,0,0,0v21.6
		c0,0.1,0.1,0.2,0.2,0.2c0,0,0,0,0.1,0h6.8C87.7,28.9,87.9,29,87.9,29.3C87.9,29.2,87.9,29.2,87.9,29.3z M102.8,7l-5.4,26.2
		c0,0.2-0.2,0.4-0.4,0.4l-4.3,0c-0.2,0-0.4-0.2-0.4-0.4L86.9,7c-0.1-0.2,0-0.4,0.3-0.4h4.5c0.2,0,0.4,0.2,0.4,0.4c0,0,0,0,0,0
		l2.7,17H95l2.6-17c0-0.2,0.2-0.4,0.4-0.4c0,0,0,0,0,0h4.4C102.8,6.6,102.9,6.8,102.8,7z M118.2,7v3.9c0,0.2-0.1,0.4-0.3,0.4
		c0,0,0,0-0.1,0h-6.8c-0.1,0-0.2,0.1-0.2,0.2c0,0,0,0,0,0.1v5.9c0,0.1,0.1,0.2,0.2,0.2c0,0,0,0,0.1,0h5.8c0.2,0,0.4,0.1,0.4,0.4
		c0,0,0,0,0,0v3.9c0,0.2-0.1,0.4-0.4,0.4c0,0,0,0,0,0h-5.8c-0.1,0-0.2,0.1-0.2,0.2c0,0,0,0,0,0.1v6.1c0,0.1,0.1,0.2,0.2,0.2
		c0,0,0,0,0.1,0h6.8c0.2,0,0.4,0.1,0.4,0.3c0,0,0,0,0,0.1v3.9c0,0.2-0.1,0.4-0.3,0.4c0,0,0,0-0.1,0H106c-0.2,0-0.4-0.1-0.4-0.3
		c0,0,0,0,0-0.1l0-26.2c0-0.2,0.1-0.4,0.4-0.4c0,0,0,0,0,0h11.8C118,6.6,118.2,6.7,118.2,7C118.2,7,118.2,7,118.2,7z"/>
	<path class="st0" d="M12,11.1h-1.1c-0.1,0-0.2,0.1-0.2,0.2c0,0,0,0,0,0.1v6.9c0,0.1,0.1,0.2,0.2,0.2c0,0,0,0,0.1,0H12
		c2,0,2.9-0.8,2.9-3.7h0C14.9,12,14,11.1,12,11.1z"/>
</g>
</svg>
