<?xml version="1.0" encoding="utf-8"?>
<!-- Generator: Adobe Illustrator 22.1.0, SVG Export Plug-In . SVG Version: 6.00 Build 0)  -->
<svg version="1.1" id="Layer_1" xmlns="http://www.w3.org/2000/svg" xmlns:xlink="http://www.w3.org/1999/xlink" x="0px" y="0px"
	 viewBox="0 0 215 60" style="enable-background:new 0 0 215 60;" xml:space="preserve">
<style type="text/css">
	.st0{fill:#364BC9;}
</style>
<title>logo</title>
<desc>Created with Sketch.</desc>
<g id="logo">
	<path id="Resolve-to-save-live" class="st0" d="M33.5,22.9c1.3,0,2.8-0.5,3.7-1.4l3.2,3.2c-1.5,1.5-4.3,2.5-6.8,2.5
		c-5.1,0-8.9-3.6-8.9-8.6s3.7-8.5,8.6-8.5c5.3,0,8.3,3.8,8.3,10.1H29.9C30.4,21.7,31.7,22.9,33.5,22.9z M33.5,14.3
		c-1.6,0-2.9,1-3.5,2.5h6.7C36.3,15.3,35.1,14.3,33.5,14.3z M50.3,27.2c-2.8,0-5.7-0.9-7.7-2.5l2.2-3.5c1.5,1.1,3.7,1.9,5.6,1.9
		c1.2,0,1.9-0.4,1.9-1c0-0.8-1.1-1.1-2.7-1.5c-3.2-0.7-6.2-1.6-6.2-5.1c0-3.1,2.6-5.5,6.7-5.5c2.5,0,4.9,0.9,6.7,2.1l-2,3.5
		C53.3,14.7,51.5,14,50,14c-1,0-1.7,0.4-1.7,1c0,0.7,0.7,0.9,2.7,1.4c2.9,0.7,6.2,1.7,6.2,5.4C57.2,25.1,54.6,27.2,50.3,27.2z
		 M67.7,27.2c-5,0-9.2-3.9-9.2-8.6s4.2-8.6,9.2-8.6s9.2,3.9,9.2,8.6S72.7,27.2,67.7,27.2z M67.7,22.7c2.2,0,4.1-1.9,4.1-4.1
		s-1.9-4.1-4.1-4.1s-4.1,1.9-4.1,4.1S65.5,22.7,67.7,22.7z M93.1,26.8l-7.2-16.4h5.6l4.1,10.3l4-10.3h5.6l-7.1,16.4H93.1z
		 M113.6,22.9c1.3,0,2.8-0.5,3.7-1.4l3.2,3.2c-1.5,1.5-4.3,2.5-6.8,2.5c-5.1,0-8.9-3.6-8.9-8.6s3.7-8.5,8.6-8.5
		c5.3,0,8.3,3.8,8.3,10.1H110C110.5,21.7,111.8,22.9,113.6,22.9z M113.6,14.3c-1.6,0-2.9,1-3.5,2.5h6.7
		C116.4,15.3,115.2,14.3,113.6,14.3z M141.4,22.2l1.1,3.5c-1,0.9-2.6,1.6-4,1.6c-3.1,0-5.3-2.2-5.3-5.3v-7.2H131v-4.3h2.2V5.9h5.2
		v4.5h3.4v4.3h-3.4V21c0,1,0.6,1.8,1.5,1.8C140.5,22.7,141.1,22.5,141.4,22.2z M152.8,27.2c-5,0-9.2-3.9-9.2-8.6s4.2-8.6,9.2-8.6
		s9.2,3.9,9.2,8.6S157.8,27.2,152.8,27.2z M152.8,22.7c2.2,0,4.1-1.9,4.1-4.1s-1.9-4.1-4.1-4.1s-4.1,1.9-4.1,4.1
		S150.6,22.7,152.8,22.7z M10.7,56C7.9,56,5,55.1,3,53.5L5.2,50c1.5,1.1,3.7,1.9,5.6,1.9c1.2,0,1.9-0.4,1.9-1c0-0.8-1.1-1.1-2.7-1.5
		c-3.2-0.7-6.2-1.6-6.2-5.1c0-3.1,2.6-5.5,6.7-5.5c2.5,0,4.9,0.9,6.7,2.1l-2,3.5c-1.4-0.9-3.2-1.6-4.7-1.6c-1,0-1.7,0.4-1.7,1
		c0,0.7,0.7,0.9,2.7,1.4c2.9,0.7,6.2,1.7,6.2,5.4C17.6,53.9,14.9,56,10.7,56z M27.4,38.8c4.3,0,7.5,2.7,7.5,7.1v9.8h-5.2v-1.4
		c-1.2,1.1-2.9,1.8-4.6,1.8c-3.5,0-6.3-2.1-6.3-5.2c0-3.2,3.1-5.5,7-5.5c1.2,0,2.6,0.3,3.9,0.8V46c0-1.7-1.3-3-3.6-3
		c-1.6,0-2.8,0.5-4.2,1.2l-1.7-3.4C22.5,39.5,24.9,38.8,27.4,38.8z M26.4,52.7c1.6,0,3-0.8,3.3-2V49c-0.8-0.3-2-0.5-3.1-0.5
		c-1.5,0-2.6,0.9-2.6,2.2C23.9,51.9,25,52.7,26.4,52.7z M41.3,55.6l-7.2-16.4h5.6l4.1,10.3l4-10.3h5.6l-7.1,16.4H41.3z M61.8,51.6
		c1.3,0,2.8-0.5,3.7-1.4l3.2,3.2C67.3,55,64.5,56,62,56c-5.1,0-8.9-3.6-8.9-8.6s3.7-8.5,8.6-8.5C67,38.9,70,42.7,70,49H58.2
		C58.7,50.5,60.1,51.6,61.8,51.6z M61.8,43.1c-1.6,0-2.9,1-3.5,2.5H65C64.6,44.1,63.5,43.1,61.8,43.1z M102,55.6l-7.2-16.4h5.6
		l4.1,10.3l4-10.3h5.6L107,55.6H102z M122.5,51.6c1.3,0,2.8-0.5,3.7-1.4l3.2,3.2c-1.5,1.5-4.3,2.5-6.8,2.5c-5.1,0-8.9-3.6-8.9-8.6
		s3.7-8.5,8.6-8.5c5.3,0,8.3,3.8,8.3,10.1h-11.8C119.4,50.5,120.7,51.6,122.5,51.6z M122.5,43.1c-1.6,0-2.9,1-3.5,2.5h6.7
		C125.3,44.1,124.1,43.1,122.5,43.1z"/>
	<path id="Combined-Shape" class="st0" d="M5,15h9.2c1.9,0,3.2-1,3.2-2.5S16.1,10,14.2,10H5V5h9.7c4.8,0,8.4,3.1,8.4,7.5
		c0,3.2-1.8,5.7-4.7,6.8l5.3,7.5h-6.2L12.6,20H10v6.8H5V15z M0,10h5v5H0V10z"/>
	<polygon id="Path" class="st0" points="79,27 79,5 84,5 84,27 	"/>
	<polygon id="Path_1_" class="st0" points="79,56 79,33 84,33 84,56 	"/>
	<polygon id="Path_2_" class="st0" points="88,56 88,40 93,40 93,56 	"/>
	<path id="Path_3_" class="st0" d="M138.9,56c-2.9,0-5.8-0.9-7.9-2.5l2.2-3.4c1.6,1.1,3.7,1.9,5.8,1.9c1.2,0,1.9-0.4,1.9-1
		c0-0.8-1.1-1.1-2.8-1.5c-3.3-0.7-6.3-1.5-6.4-5.1c0-3.1,2.7-5.4,6.9-5.4c2.5,0,5,0.8,6.9,2.1l-2,3.5c-1.5-0.9-3.3-1.6-4.9-1.6
		c-1,0-1.7,0.4-1.7,0.9c0,0.7,0.7,0.9,2.7,1.4c3,0.7,6.4,1.6,6.4,5.3C146,53.9,143.2,56,138.9,56z"/>
	<rect id="Period_1_" x="88" y="33" class="st0" width="5" height="5"/>
</g>
</svg>
