<?xml version="1.0" encoding="UTF-8"?>
<svg width="330px" height="32px" viewBox="0 0 330 32" version="1.1" xmlns="http://www.w3.org/2000/svg" xmlns:xlink="http://www.w3.org/1999/xlink">
    <!-- Generator: Sketch 52 (66869) - http://www.bohemiancoding.com/sketch -->
    <title>logo-horizontal</title>
    <desc>Created with Sketch.</desc>
    <g id="logo-horizontal" stroke="none" stroke-width="1" fill="none" fill-rule="evenodd">
        <rect fill="#FFFFFF" x="0" y="0" width="330" height="32"></rect>
        <path d="M51.6,25 L46.75,25 L42.975,19.625 L40.875,19.625 L40.875,25 L36.6,25 L36.6,7.825 L44.575,7.825 C48.35,7.825 51.1,10.25 51.1,13.725 C51.1,16.225 49.675,18.2 47.45,19.1 L51.6,25 Z M40.875,11.725 L40.875,15.725 L44.175,15.725 C45.65,15.725 46.7,14.925 46.7,13.725 C46.7,12.525 45.65,11.725 44.175,11.725 L40.875,11.725 Z M59.0395833,21.875 C60.0395833,21.875 61.1895833,21.45 61.9645833,20.775 L64.4645833,23.3 C63.3145833,24.475 61.0895833,25.3 59.1645833,25.3 C55.1645833,25.3 52.2145833,22.475 52.2145833,18.5 C52.2145833,14.575 55.0645833,11.775 58.9645833,11.775 C63.0645833,11.775 65.4645833,14.775 65.4645833,19.7 L56.2395833,19.7 C56.6395833,21 57.6645833,21.875 59.0395833,21.875 Z M59.0395833,15.175 C57.7645833,15.175 56.7395833,15.925 56.2895833,17.125 L61.5395833,17.125 C61.1895833,15.95 60.3145833,15.175 59.0395833,15.175 Z M71.9291666,25.3 C69.7541666,25.3 67.5041666,24.575 65.9291666,23.35 L67.6291666,20.625 C68.8291666,21.475 70.4791666,22.1 72.0291666,22.1 C72.9541666,22.1 73.4791666,21.8 73.4791666,21.3 C73.4791666,20.675 72.6291666,20.425 71.3541666,20.125 C68.8541666,19.55 66.5291666,18.9 66.5041666,16.1 C66.5041666,13.625 68.5291666,11.775 71.7291666,11.775 C73.6541666,11.775 75.5291666,12.45 76.9791666,13.425 L75.4291666,16.2 C74.3041666,15.475 72.9041666,14.925 71.7291666,14.925 C70.9541666,14.925 70.4041666,15.275 70.4041666,15.675 C70.4041666,16.25 70.9541666,16.375 72.4791666,16.775 C74.7791666,17.325 77.3541666,18.075 77.3541666,21.025 C77.3541666,23.625 75.2541666,25.3 71.9291666,25.3 Z M85.2687499,25.3 C81.3687499,25.3 78.0937499,22.2 78.0937499,18.525 C78.0937499,14.85 81.3687499,11.775 85.2687499,11.775 C89.1687499,11.775 92.4437499,14.85 92.4437499,18.525 C92.4437499,22.2 89.1687499,25.3 85.2687499,25.3 Z M85.2687499,21.775 C86.9937499,21.775 88.4437499,20.275 88.4437499,18.525 C88.4437499,16.775 86.9937499,15.3 85.2687499,15.3 C83.5437499,15.3 82.0937499,16.775 82.0937499,18.525 C82.0937499,20.275 83.5437499,21.775 85.2687499,21.775 Z M93.9083333,25 L93.9083333,7.525 L98.1583333,7.525 L98.1583333,25 L93.9083333,25 Z M104.697917,25 L99.0979166,12.075 L103.472917,12.075 L106.672917,20.15 L109.797917,12.075 L114.172917,12.075 L108.622917,25 L104.697917,25 Z M120.4625,21.875 C121.4625,21.875 122.6125,21.45 123.3875,20.775 L125.8875,23.3 C124.7375,24.475 122.5125,25.3 120.5875,25.3 C116.5875,25.3 113.6375,22.475 113.6375,18.5 C113.6375,14.575 116.4875,11.775 120.3875,11.775 C124.4875,11.775 126.8875,14.775 126.8875,19.7 L117.6625,19.7 C118.0625,21 119.0875,21.875 120.4625,21.875 Z M120.4625,15.175 C119.1875,15.175 118.1625,15.925 117.7125,17.125 L122.9625,17.125 C122.6125,15.95 121.7375,15.175 120.4625,15.175 Z M141.716667,21.35 L142.566667,24.075 C141.791667,24.8 140.516667,25.3 139.416667,25.3 C136.991667,25.3 135.291667,23.575 135.291667,21.15 L135.291667,15.45 L133.591667,15.45 L133.591667,12.075 L135.291667,12.075 L135.291667,8.525 L139.341667,8.525 L139.341667,12.075 L142.016667,12.075 L142.016667,15.45 L139.341667,15.45 L139.341667,20.375 C139.341667,21.2 139.841667,21.775 140.516667,21.775 C140.991667,21.775 141.466667,21.6 141.716667,21.35 Z M150.40625,25.3 C146.50625,25.3 143.23125,22.2 143.23125,18.525 C143.23125,14.85 146.50625,11.775 150.40625,11.775 C154.30625,11.775 157.58125,14.85 157.58125,18.525 C157.58125,22.2 154.30625,25.3 150.40625,25.3 Z M150.40625,21.775 C152.13125,21.775 153.58125,20.275 153.58125,18.525 C153.58125,16.775 152.13125,15.3 150.40625,15.3 C148.68125,15.3 147.23125,16.775 147.23125,18.525 C147.23125,20.275 148.68125,21.775 150.40625,21.775 Z M170.160416,25.3 C167.985416,25.3 165.735416,24.575 164.160416,23.35 L165.860416,20.625 C167.060416,21.475 168.710416,22.1 170.260416,22.1 C171.185416,22.1 171.710416,21.8 171.710416,21.3 C171.710416,20.675 170.860416,20.425 169.585416,20.125 C167.085416,19.55 164.760416,18.9 164.735416,16.1 C164.735416,13.625 166.760416,11.775 169.960416,11.775 C171.885416,11.775 173.760416,12.45 175.210416,13.425 L173.660416,16.2 C172.535416,15.475 171.135416,14.925 169.960416,14.925 C169.185416,14.925 168.635416,15.275 168.635416,15.675 C168.635416,16.25 169.185416,16.375 170.710416,16.775 C173.010416,17.325 175.585416,18.075 175.585416,21.025 C175.585416,23.625 173.485416,25.3 170.160416,25.3 Z M183,11.775 C186.325,11.775 188.825,13.875 188.825,17.325 L188.825,25 L184.75,25 L184.75,23.9 C183.85,24.8 182.5,25.3 181.175,25.3 C178.425,25.3 176.25,23.625 176.25,21.175 C176.25,18.65 178.675,16.875 181.725,16.875 C182.675,16.875 183.75,17.1 184.75,17.5 L184.75,17.325 C184.75,15.95 183.7,14.95 181.925,14.95 C180.7,14.95 179.775,15.325 178.675,15.9 L177.35,13.25 C179.15,12.35 181,11.775 183,11.775 Z M182.2,22.7 C183.45,22.7 184.575,22.1 184.75,21.125 L184.75,19.75 C184.1,19.5 183.2,19.325 182.325,19.325 C181.175,19.325 180.275,20.05 180.275,21.05 C180.275,22.05 181.075,22.7 182.2,22.7 Z M195.214583,25 L189.614583,12.075 L193.989583,12.075 L197.189583,20.15 L200.314583,12.075 L204.689583,12.075 L199.139583,25 L195.214583,25 Z M210.979166,21.875 C211.979166,21.875 213.129166,21.45 213.904166,20.775 L216.404166,23.3 C215.254166,24.475 213.029166,25.3 211.104166,25.3 C207.104166,25.3 204.154166,22.475 204.154166,18.5 C204.154166,14.575 207.004166,11.775 210.904166,11.775 C215.004166,11.775 217.404166,14.775 217.404166,19.7 L208.179166,19.7 C208.579166,21 209.604166,21.875 210.979166,21.875 Z M210.979166,15.175 C209.704166,15.175 208.679166,15.925 208.229166,17.125 L213.479166,17.125 C213.129166,15.95 212.254166,15.175 210.979166,15.175 Z M225.033333,25 L225.033333,7.525 L229.283333,7.525 L229.283333,25 L225.033333,25 Z M231.472916,25 L231.472916,12.075 L235.697916,12.075 L235.697916,25 L231.472916,25 Z M242.2625,25 L236.6625,12.075 L241.0375,12.075 L244.2375,20.15 L247.3625,12.075 L251.7375,12.075 L246.1875,25 L242.2625,25 Z M258.027083,21.875 C259.027083,21.875 260.177083,21.45 260.952083,20.775 L263.452083,23.3 C262.302083,24.475 260.077083,25.3 258.152083,25.3 C254.152083,25.3 251.202083,22.475 251.202083,18.5 C251.202083,14.575 254.052083,11.775 257.952083,11.775 C262.052083,11.775 264.452083,14.775 264.452083,19.7 L255.227083,19.7 C255.627083,21 256.652083,21.875 258.027083,21.875 Z M258.027083,15.175 C256.752083,15.175 255.727083,15.925 255.277083,17.125 L260.527083,17.125 C260.177083,15.95 259.302083,15.175 258.027083,15.175 Z M270.916666,25.3 C268.741666,25.3 266.491666,24.575 264.916666,23.35 L266.616666,20.625 C267.816666,21.475 269.466666,22.1 271.016666,22.1 C271.941666,22.1 272.466666,21.8 272.466666,21.3 C272.466666,20.675 271.616666,20.425 270.341666,20.125 C267.841666,19.55 265.516666,18.9 265.491666,16.1 C265.491666,13.625 267.516666,11.775 270.716666,11.775 C272.641666,11.775 274.516666,12.45 275.966666,13.425 L274.416666,16.2 C273.291666,15.475 271.891666,14.925 270.716666,14.925 C269.941666,14.925 269.391666,15.275 269.391666,15.675 C269.391666,16.25 269.941666,16.375 271.466666,16.775 C273.766666,17.325 276.341666,18.075 276.341666,21.025 C276.341666,23.625 274.241666,25.3 270.916666,25.3 Z" id="Resolve-to-save-live" fill="#364BC9"></path>
        <path d="M233.622916,10.5 C232.372916,10.5 231.372916,9.475 231.372916,8.25 C231.372916,7.075 232.372916,6.05 233.622916,6.05 C234.847916,6.05 235.822916,7.075 235.822916,8.25 C235.822916,9.475 234.847916,10.5 233.622916,10.5 Z" id="Path" fill="#24D2AB"></path>
        <circle id="Oval" fill="#364BC9" cx="2" cy="2" r="1"></circle>
        <circle id="Oval" fill="#364BC9" cx="5" cy="2" r="1"></circle>
        <circle id="Oval" fill="#364BC9" cx="8" cy="2" r="1"></circle>
        <circle id="Oval" fill="#364BC9" cx="11" cy="2" r="1"></circle>
        <circle id="Oval" fill="#364BC9" cx="14" cy="2" r="1"></circle>
        <circle id="Oval" fill="#364BC9" cx="17" cy="2" r="1"></circle>
        <circle id="Oval" fill="#364BC9" cx="20" cy="2" r="1"></circle>
        <circle id="Oval" fill="#364BC9" cx="23" cy="2" r="1"></circle>
        <circle id="Oval" fill="#364BC9" cx="26" cy="2" r="1"></circle>
        <circle id="Oval" fill="#24D2AB" cx="29" cy="2" r="1"></circle>
        <circle id="Oval" fill="#364BC9" cx="2" cy="5" r="1"></circle>
        <circle id="Oval" fill="#364BC9" cx="5" cy="5" r="1"></circle>
        <circle id="Oval" fill="#364BC9" cx="8" cy="5" r="1"></circle>
        <circle id="Oval" fill="#364BC9" cx="11" cy="5" r="1"></circle>
        <circle id="Oval" fill="#364BC9" cx="14" cy="5" r="1"></circle>
        <circle id="Oval" fill="#364BC9" cx="17" cy="5" r="1"></circle>
        <circle id="Oval" fill="#364BC9" cx="20" cy="5" r="1"></circle>
        <circle id="Oval" fill="#364BC9" cx="23" cy="5" r="1"></circle>
        <circle id="Oval" fill="#364BC9" cx="26" cy="5" r="1"></circle>
        <circle id="Oval" fill="#364BC9" cx="29" cy="5" r="1"></circle>
        <circle id="Oval" fill="#364BC9" cx="2" cy="8" r="1"></circle>
        <circle id="Oval" fill="#364BC9" cx="5" cy="8" r="1"></circle>
        <circle id="Oval" fill="#364BC9" cx="8" cy="8" r="1"></circle>
        <circle id="Oval" fill="#364BC9" cx="11" cy="8" r="1"></circle>
        <circle id="Oval" fill="#364BC9" cx="14" cy="8" r="1"></circle>
        <circle id="Oval" fill="#364BC9" cx="17" cy="8" r="1"></circle>
        <circle id="Oval" fill="#364BC9" cx="20" cy="8" r="1"></circle>
        <circle id="Oval" fill="#364BC9" cx="23" cy="8" r="1"></circle>
        <circle id="Oval" fill="#364BC9" cx="26" cy="8" r="1"></circle>
        <circle id="Oval" fill="#364BC9" cx="29" cy="8" r="1"></circle>
        <circle id="Oval" fill="#364BC9" cx="2" cy="11" r="1"></circle>
        <circle id="Oval" fill="#364BC9" cx="5" cy="11" r="1"></circle>
        <circle id="Oval" fill="#364BC9" cx="8" cy="11" r="1"></circle>
        <circle id="Oval" fill="#364BC9" cx="11" cy="11" r="1"></circle>
        <circle id="Oval" fill="#364BC9" cx="14" cy="11" r="1"></circle>
        <circle id="Oval" fill="#364BC9" cx="17" cy="11" r="1"></circle>
        <circle id="Oval" fill="#364BC9" cx="20" cy="11" r="1"></circle>
        <circle id="Oval" fill="#364BC9" cx="23" cy="11" r="1"></circle>
        <circle id="Oval" fill="#364BC9" cx="26" cy="11" r="1"></circle>
        <circle id="Oval" fill="#364BC9" cx="29" cy="11" r="1"></circle>
        <circle id="Oval" fill="#364BC9" cx="2" cy="14" r="1"></circle>
        <circle id="Oval" fill="#364BC9" cx="5" cy="14" r="1"></circle>
        <circle id="Oval" fill="#364BC9" cx="8" cy="14" r="1"></circle>
        <circle id="Oval" fill="#364BC9" cx="11" cy="14" r="1"></circle>
        <circle id="Oval" fill="#364BC9" cx="14" cy="14" r="1"></circle>
        <circle id="Oval" fill="#364BC9" cx="17" cy="14" r="1"></circle>
        <circle id="Oval" fill="#364BC9" cx="20" cy="14" r="1"></circle>
        <circle id="Oval" fill="#364BC9" cx="23" cy="14" r="1"></circle>
        <circle id="Oval" fill="#364BC9" cx="26" cy="14" r="1"></circle>
        <circle id="Oval" fill="#364BC9" cx="29" cy="14" r="1"></circle>
        <circle id="Oval" fill="#364BC9" cx="2" cy="17" r="1"></circle>
        <circle id="Oval" fill="#364BC9" cx="5" cy="17" r="1"></circle>
        <circle id="Oval" fill="#364BC9" cx="8" cy="17" r="1"></circle>
        <circle id="Oval" fill="#364BC9" cx="11" cy="17" r="1"></circle>
        <circle id="Oval" fill="#364BC9" cx="14" cy="17" r="1"></circle>
        <circle id="Oval" fill="#364BC9" cx="17" cy="17" r="1"></circle>
        <circle id="Oval" fill="#364BC9" cx="20" cy="17" r="1"></circle>
        <circle id="Oval" fill="#364BC9" cx="23" cy="17" r="1"></circle>
        <circle id="Oval" fill="#364BC9" cx="26" cy="17" r="1"></circle>
        <circle id="Oval" fill="#364BC9" cx="29" cy="17" r="1"></circle>
        <circle id="Oval" fill="#364BC9" cx="2" cy="20" r="1"></circle>
        <circle id="Oval" fill="#364BC9" cx="5" cy="20" r="1"></circle>
        <circle id="Oval" fill="#364BC9" cx="8" cy="20" r="1"></circle>
        <circle id="Oval" fill="#364BC9" cx="11" cy="20" r="1"></circle>
        <circle id="Oval" fill="#364BC9" cx="14" cy="20" r="1"></circle>
        <circle id="Oval" fill="#364BC9" cx="17" cy="20" r="1"></circle>
        <circle id="Oval" fill="#364BC9" cx="20" cy="20" r="1"></circle>
        <circle id="Oval" fill="#364BC9" cx="23" cy="20" r="1"></circle>
        <circle id="Oval" fill="#364BC9" cx="26" cy="20" r="1"></circle>
        <circle id="Oval" fill="#364BC9" cx="29" cy="20" r="1"></circle>
        <circle id="Oval" fill="#364BC9" cx="2" cy="23" r="1"></circle>
        <circle id="Oval" fill="#364BC9" cx="5" cy="23" r="1"></circle>
        <circle id="Oval" fill="#364BC9" cx="8" cy="23" r="1"></circle>
        <circle id="Oval" fill="#364BC9" cx="11" cy="23" r="1"></circle>
        <circle id="Oval" fill="#364BC9" cx="14" cy="23" r="1"></circle>
        <circle id="Oval" fill="#364BC9" cx="17" cy="23" r="1"></circle>
        <circle id="Oval" fill="#364BC9" cx="20" cy="23" r="1"></circle>
        <circle id="Oval" fill="#364BC9" cx="23" cy="23" r="1"></circle>
        <circle id="Oval" fill="#364BC9" cx="26" cy="23" r="1"></circle>
        <circle id="Oval" fill="#364BC9" cx="29" cy="23" r="1"></circle>
        <circle id="Oval" fill="#364BC9" cx="2" cy="26" r="1"></circle>
        <circle id="Oval" fill="#364BC9" cx="5" cy="26" r="1"></circle>
        <circle id="Oval" fill="#364BC9" cx="8" cy="26" r="1"></circle>
        <circle id="Oval" fill="#364BC9" cx="11" cy="26" r="1"></circle>
        <circle id="Oval" fill="#364BC9" cx="14" cy="26" r="1"></circle>
        <circle id="Oval" fill="#364BC9" cx="17" cy="26" r="1"></circle>
        <circle id="Oval" fill="#364BC9" cx="20" cy="26" r="1"></circle>
        <circle id="Oval" fill="#364BC9" cx="23" cy="26" r="1"></circle>
        <circle id="Oval" fill="#364BC9" cx="26" cy="26" r="1"></circle>
        <circle id="Oval" fill="#364BC9" cx="29" cy="26" r="1"></circle>
        <circle id="Oval" fill="#364BC9" cx="2" cy="29" r="1"></circle>
        <circle id="Oval" fill="#364BC9" cx="5" cy="29" r="1"></circle>
        <circle id="Oval" fill="#364BC9" cx="8" cy="29" r="1"></circle>
        <circle id="Oval" fill="#364BC9" cx="11" cy="29" r="1"></circle>
        <circle id="Oval" fill="#364BC9" cx="14" cy="29" r="1"></circle>
        <circle id="Oval" fill="#364BC9" cx="17" cy="29" r="1"></circle>
        <circle id="Oval" fill="#364BC9" cx="20" cy="29" r="1"></circle>
        <circle id="Oval" fill="#364BC9" cx="23" cy="29" r="1"></circle>
        <circle id="Oval" fill="#364BC9" cx="26" cy="29" r="1"></circle>
        <circle id="Oval" fill="#364BC9" cx="29" cy="29" r="1"></circle>
    </g>
</svg>