<svg xmlns="http://www.w3.org/2000/svg" width="430" height="180">
  <g fill="none" fill-rule="evenodd">
    <path fill="#2B307F" d="M0 111.447h364.202V.001H0z"/>
    <path fill="#F3775B" d="M371.514 111.447H430V.001h-58.486z"/>
    <path fill="#2B307F" d="M129.007 179.1h300.749v-60.604H129.007z"/>
    <path fill="#F3775B" d="M1.2 179.1h121.001v-60.604H1.2z"/>
    <path fill="#FFF" d="M150.072 167.1801c-.336 0-.562-.215-.562-.541v-29.521c0-.214-.114-.322-.336-.322h-6.003c-.34 0-.562-.219-.562-.541v-5.298c0-.326.222-.541.562-.541h20.031c.336 0 .561.215.561.541v5.298c0 .322-.225.541-.561.541h-6.004c-.225 0-.336.108-.336.322v29.521c0 .326-.225.541-.561.541h-6.229zm17.3979-5.7304c-.619-1.677-.787-3.19-.787-12.652 0-9.463.168-10.975.787-12.653 1.401-4.054 4.77-6.216 9.765-6.216 4.992 0 8.36 2.162 9.762 6.216.618 1.678.786 3.19.786 12.653 0 9.462-.168 10.975-.786 12.652-1.402 4.054-4.77 6.219-9.762 6.219-4.995 0-8.364-2.165-9.765-6.219m12.458-1.946c.278-.864.393-1.785.393-10.706 0-8.922-.115-9.839-.393-10.707-.337-1.025-1.291-1.781-2.693-1.781-1.405 0-2.356.756-2.696 1.781-.279.868-.393 1.785-.393 10.707 0 8.921.114 9.842.393 10.706.34 1.029 1.291 1.785 2.696 1.785 1.402 0 2.356-.756 2.693-1.785m34.8511 8.1633c-6.901 0-10.212-3.513-10.327-9.839 0-.326.115-.541.451-.595l6.003-.921c.394-.054.619.111.619.434.111 3.405 1.123 4.759 3.311 4.759 2.074 0 3.028-1.028 3.028-4.38 0-3.247-.671-4.38-3.536-5.462l-2.299-.864c-5.388-2-7.237-4.76-7.237-10.653 0-6.648 3.307-10.218 10.098-10.218 6.679 0 9.822 3.351 10.101 9.136 0 .326-.168.541-.504.595l-5.725.867c-.336.054-.615-.11-.615-.433-.057-2.649-1.012-4-3.032-4-1.963 0-2.918 1.19-2.918 3.677 0 2.756.619 3.62 3.59 4.756l2.303.865c5.217 1.946 7.237 4.651 7.237 10.867 0 7.516-2.971 11.409-10.548 11.409m21.7749-36.7115c.111-.326.283-.541.619-.541h6.618c.337 0 .562.215.619.541l8.192 35.686c.057.322-.111.537-.447.537h-6.229c-.393 0-.561-.215-.619-.537l-1.233-6.653h-7.237l-1.291 6.653c-.057.322-.225.537-.619.537h-6.228c-.337 0-.505-.215-.451-.537l8.306-35.686zm6.454 23.413l-2.413-12.761h-.168l-2.525 12.761h5.106zm18.5201 12.8116c-.336 0-.504-.215-.618-.541l-7.574-35.682c-.114-.326.057-.541.451-.541h6.34c.336 0 .561.161.614.541l3.873 23.248h.168l3.704-23.248c.058-.38.279-.541.616-.541h6.232c.39 0 .558.215.447.541l-7.631 35.682c-.057.326-.225.541-.561.541h-6.061zm18.7451-36.2246c0-.326.225-.541.562-.541h16.666c.336 0 .561.215.561.541v5.298c0 .326-.225.541-.561.541h-9.54c-.226 0-.337.107-.337.326v8.001c0 .214.111.325.337.325h8.249c.336 0 .562.216.562.538v5.301c0 .323-.226.538-.562.538h-8.249c-.226 0-.337.111-.337.326v8.327c0 .214.111.322.337.322h9.54c.336 0 .561.219.561.541v5.302c0 .322-.225.537-.561.537h-16.666c-.337 0-.562-.215-.562-.537v-35.686zm35.0757 0c0-.326.225-.541.561-.541h6.229c.336 0 .562.215.562.541v29.521c0 .214.11.322.335.322h9.651c.336 0 .561.219.561.541v5.302c0 .322-.225.537-.561.537h-16.777c-.336 0-.561-.215-.561-.537v-35.686zm22.7285 0c0-.326.226-.541.562-.541h6.229c.336 0 .561.215.561.541v35.686c0 .322-.225.537-.561.537h-6.229c-.336 0-.562-.215-.562-.537v-35.686zm20.0342 36.2246c-.336 0-.504-.215-.618-.541l-7.574-35.682c-.115-.326.053-.541.447-.541h6.344c.336 0 .56.161.614.541l3.873 23.248h.168l3.704-23.248c.058-.38.279-.541.615-.541h6.233c.389 0 .557.215.447.541l-7.631 35.682c-.058.326-.226.541-.561.541h-6.061zm18.7451-36.2246c0-.326.226-.541.562-.541h16.666c.336 0 .561.215.561.541v5.298c0 .326-.225.541-.561.541h-9.54c-.225 0-.336.107-.336.326v8.001c0 .214.111.325.336.325h8.25c.335 0 .56.216.56.538v5.301c0 .323-.225.538-.56.538h-8.25c-.225 0-.336.111-.336.326v8.327c0 .214.111.322.336.322h9.54c.336 0 .561.219.561.541v5.302c0 .322-.225.537-.561.537h-16.666c-.336 0-.562-.215-.562-.537v-35.686zm32.2129 36.7115c-6.901 0-10.212-3.513-10.326-9.839 0-.326.114-.541.45-.595l6.004-.921c.393-.054.618.111.618.434.11 3.405 1.123 4.759 3.311 4.759 2.074 0 3.029-1.028 3.029-4.38 0-3.247-.673-4.38-3.536-5.462l-2.3-.864c-5.389-2-7.237-4.76-7.237-10.653 0-6.648 3.307-10.218 10.097-10.218 6.68 0 9.823 3.351 10.102 9.136 0 .326-.168.541-.504.595l-5.725.867c-.336.054-.615-.11-.615-.433-.057-2.649-1.012-4-3.032-4-1.963 0-2.918 1.19-2.918 3.677 0 2.756.619 3.62 3.591 4.756l2.302.865c5.217 1.946 7.237 4.651 7.237 10.867 0 7.516-2.971 11.409-10.548 11.409M46.7946 95.2329c-.703 0-1.052-.229-1.284-.901l-9.002-29.09h-4.447c-.468 0-.7.222-.7.676l-.009 28.182c0 .679-.471 1.126-1.174 1.126l-12.985-.003c-.703 0-1.17-.45-1.17-1.126l.027-74.41c0-.676.467-1.126 1.17-1.126l18.952.007c14.159.003 23.285 6.434 23.278 23.456-.003 9.695-3.398 16.011-8.898 19.611l10.868 32.475c.235.565 0 1.13-.585 1.13l-14.041-.007zm-2.787-53.216c0-8-2.571-10.484-8.538-10.484l-3.395-.004c-.467 0-.702.229-.702.68l-.007 19.617c0 .448.235.673.702.673l3.392.003c5.97 0 8.545-2.363 8.548-10.485zM70.4597 19.707c0-.676.467-1.129 1.17-1.129l34.751.01c.703.003 1.17.453 1.17 1.129l-.004 11.05c0 .678-.47 1.126-1.173 1.126l-19.89-.004c-.467 0-.699.222-.699.676l-.007 16.683c0 .454.232.675.7.675l17.2.007c.703 0 1.17.45 1.17 1.13l-.003 11.045c0 .676-.471 1.13-1.17 1.13l-17.201-.007c-.467 0-.702.226-.702.679l-.007 17.359c0 .45.236.675.702.675l19.89.007c.703.004 1.17.451 1.17 1.13l-.003 11.049c0 .676-.467 1.126-1.17 1.126l-34.751-.013c-.703 0-1.17-.451-1.17-1.127l.027-74.406zm66.083 76.5713c-14.394-.007-21.291-7.338-21.523-20.529 0-.675.238-1.126.941-1.24l12.518-1.909c.82-.114 1.288.225 1.288.901.228 7.102 2.332 9.92 6.897 9.923 4.33.003 6.32-2.138 6.323-9.13.003-6.764-1.402-9.133-7.368-11.389l-4.797-1.805c-11.231-4.175-15.09-9.926-15.087-22.213.007-13.869 6.915-21.308 21.07-21.301 13.924.003 20.475 6.995 21.053 19.059 0 .676-.349 1.127-1.052 1.241l-11.936 1.795c-.703.114-1.288-.222-1.288-.901-.111-5.523-2.101-8.34-6.313-8.343-4.098 0-6.084 2.477-6.087 7.664-.004 5.751 1.284 7.553 7.486 9.923l4.796 1.805c10.878 4.064 15.09 9.701 15.083 22.667-.003 15.671-6.208 23.785-22.004 23.782m32.0664-12.9575c-1.284-3.496-1.634-6.649-1.627-26.381.006-19.728.356-22.885 1.647-26.377 2.928-8.458 9.95-12.962 20.364-12.962 10.414.003 17.429 4.518 20.354 12.975 1.283 3.493 1.637 6.649 1.627 26.377-.007 19.732-.36 22.886-1.648 26.382-2.927 8.457-9.949 12.965-20.363 12.962-10.414-.007-17.433-4.518-20.354-12.976m25.974-4.05c.588-1.802.823-3.719.83-22.324.004-18.599-.228-20.515-.813-22.317-.699-2.144-2.689-3.725-5.614-3.725-2.924-.003-4.915 1.577-5.617 3.722-.585 1.798-.82 3.717-.827 22.32-.007 18.603.225 20.519.81 22.32.703 2.145 2.693 3.721 5.617 3.724 2.925 0 4.915-1.579 5.614-3.72m27.2887-59.5135c0-.676.467-1.129 1.17-1.129l12.989.006c.702 0 1.17.447 1.17 1.126l-.024 61.556c0 .45.235.675.702.675l20.126.007c.702 0 1.169.45 1.169 1.13l-.003 11.049c0 .675-.47 1.126-1.173 1.126l-34.983-.014c-.703 0-1.17-.45-1.17-1.129l.027-74.403zm51.4575 75.5503c-.703 0-1.052-.451-1.284-1.129l-15.772-74.41c-.236-.676.118-1.129.938-1.129l13.221.006c.702 0 1.169.336 1.287 1.126l8.054 48.479h.353l7.738-48.475c.117-.787.585-1.127 1.287-1.127l12.99.007c.816 0 1.169.451.934 1.127l-15.937 74.402c-.118.676-.471 1.126-1.173 1.126l-12.636-.003zm38.0556-75.523c0-.676.468-1.126 1.17-1.126l34.751.01c.703 0 1.17.454 1.17 1.129l-.003 11.046c0 .679-.471 1.126-1.174 1.126l-19.89-.003c-.466 0-.702.222-.702.675l-.004 16.684c0 .45.233.679.7.679l17.201.006c.702 0 1.17.451 1.17 1.127l-.004 11.048c0 .676-.471 1.127-1.17 1.127l-17.2-.007c-.471 0-.703.225-.703.679l-.007 17.359c0 .45.235.679.703.679l19.889.006c.703 0 1.17.451 1.17 1.13l-.004 11.045c0 .676-.466 1.127-1.168 1.127l-34.751-.01c-.704 0-1.17-.451-1.17-1.126l.026-74.41z"/>
  </g>
</svg>
