<?xml version="1.0" encoding="UTF-8" standalone="no"?>
<!DOCTYPE svg PUBLIC "-//W3C//DTD SVG 1.1//EN" "http://www.w3.org/Graphics/SVG/1.1/DTD/svg11.dtd">
<svg width="100%" height="100%" viewBox="0 0 65 64" version="1.1" xmlns="http://www.w3.org/2000/svg" xmlns:xlink="http://www.w3.org/1999/xlink" xml:space="preserve" xmlns:serif="http://www.serif.com/" style="fill-rule:evenodd;clip-rule:evenodd;stroke-linejoin:round;stroke-miterlimit:2;">
    <rect id="_1-in-10-Deaths" serif:id="1-in-10-Deaths" x="0.738" y="0" width="64" height="64" style="fill:none;"/>
    <clipPath id="_clip1">
        <rect x="0.738" y="0" width="64" height="64"/>
    </clipPath>
    <g clip-path="url(#_clip1)">
        <g>
            <path d="M35.738,11.958L35.738,12.776C35.738,13.452 35.19,14 34.514,14C33.477,14 31.997,14 30.961,14C30.286,14 29.738,13.453 29.738,12.778L29.738,11.958L29.71,11.958C28.621,11.958 27.738,11.075 27.738,9.986L27.738,9.04C27.107,8.169 26.738,7.123 26.738,6C26.738,2.964 29.427,0.5 32.738,0.5C36.05,0.5 38.738,2.964 38.738,6C38.738,7.123 38.37,8.169 37.738,9.04L37.738,9.97C37.738,10.497 37.529,11.003 37.156,11.376C36.783,11.749 36.277,11.958 35.75,11.958L35.738,11.958ZM32.238,14L32.238,13L31.238,13L31.238,14L32.238,14ZM34.238,14L34.238,13L33.238,13L33.238,14L34.238,14ZM32.288,12L32.738,11.527L33.238,12C33.238,12 33.407,12 33.605,12C33.732,12 33.849,11.931 33.91,11.82C33.971,11.708 33.967,11.573 33.899,11.465C33.457,10.768 32.738,9.635 32.738,9.635C32.738,9.635 32.027,10.757 31.584,11.455C31.514,11.565 31.51,11.703 31.572,11.816C31.635,11.93 31.754,12 31.883,12L32.288,12ZM35.261,7.5C36.102,7.5 36.784,8.179 36.784,9.015C36.784,9.85 36.102,10.529 35.261,10.529C34.421,10.529 33.738,9.85 33.738,9.015C33.738,8.179 34.421,7.5 35.261,7.5ZM30.261,7.471C31.102,7.471 31.784,8.15 31.784,8.985C31.784,9.821 31.102,10.5 30.261,10.5C29.421,10.5 28.738,9.821 28.738,8.985C28.738,8.15 29.421,7.471 30.261,7.471Z" style="fill:#f3775b;"/>
        </g>
        <path d="M35.738,41.958L35.738,42.776C35.738,43.452 35.19,44 34.514,44C33.477,44 31.997,44 30.961,44C30.286,44 29.738,43.453 29.738,42.778L29.738,41.958L29.71,41.958C28.621,41.958 27.738,41.075 27.738,39.986L27.738,39.04C27.107,38.169 26.738,37.123 26.738,36C26.738,32.964 29.427,30.5 32.738,30.5C36.05,30.5 38.738,32.964 38.738,36C38.738,37.123 38.37,38.169 37.738,39.04L37.738,39.97C37.738,40.497 37.529,41.003 37.156,41.376C36.783,41.749 36.277,41.958 35.75,41.958L35.738,41.958ZM32.238,44L32.238,43L31.238,43L31.238,44L32.238,44ZM34.238,44L34.238,43L33.238,43L33.238,44L34.238,44ZM32.288,42L32.738,41.527L33.238,42C33.238,42 33.407,42 33.605,42C33.732,42 33.849,41.931 33.91,41.82C33.971,41.708 33.967,41.573 33.899,41.465C33.457,40.768 32.738,39.635 32.738,39.635C32.738,39.635 32.027,40.757 31.584,41.455C31.514,41.565 31.51,41.703 31.572,41.816C31.635,41.93 31.754,42 31.883,42L32.288,42ZM35.261,37.5C36.102,37.5 36.784,38.179 36.784,39.015C36.784,39.85 36.102,40.529 35.261,40.529C34.421,40.529 33.738,39.85 33.738,39.015C33.738,38.179 34.421,37.5 35.261,37.5ZM30.261,37.471C31.102,37.471 31.784,38.15 31.784,38.985C31.784,39.821 31.102,40.5 30.261,40.5C29.421,40.5 28.738,39.821 28.738,38.985C28.738,38.15 29.421,37.471 30.261,37.471Z" style="fill:#2b307e;"/>
        <path d="M44.738,26.458L44.738,27.276C44.738,27.952 44.19,28.5 43.514,28.5C42.477,28.5 40.997,28.5 39.961,28.5C39.286,28.5 38.738,27.953 38.738,27.278L38.738,26.458L38.71,26.458C37.621,26.458 36.738,25.575 36.738,24.486L36.738,23.54C36.107,22.669 35.738,21.623 35.738,20.5C35.738,17.464 38.427,15 41.738,15C45.05,15 47.738,17.464 47.738,20.5C47.738,21.623 47.37,22.669 46.738,23.54L46.738,24.47C46.738,24.997 46.529,25.503 46.156,25.876C45.783,26.249 45.277,26.458 44.75,26.458L44.738,26.458ZM41.238,28.5L41.238,27.5L40.238,27.5L40.238,28.5L41.238,28.5ZM43.238,28.5L43.238,27.5L42.238,27.5L42.238,28.5L43.238,28.5ZM41.288,26.5L41.738,26.027L42.238,26.5C42.238,26.5 42.407,26.5 42.605,26.5C42.732,26.5 42.849,26.431 42.91,26.32C42.971,26.208 42.967,26.073 42.899,25.965C42.457,25.268 41.738,24.135 41.738,24.135C41.738,24.135 41.027,25.257 40.584,25.955C40.514,26.065 40.51,26.203 40.572,26.316C40.635,26.43 40.754,26.5 40.883,26.5L41.288,26.5ZM44.261,22C45.102,22 45.784,22.679 45.784,23.515C45.784,24.35 45.102,25.029 44.261,25.029C43.421,25.029 42.738,24.35 42.738,23.515C42.738,22.679 43.421,22 44.261,22ZM39.261,21.971C40.102,21.971 40.784,22.65 40.784,23.485C40.784,24.321 40.102,25 39.261,25C38.421,25 37.738,24.321 37.738,23.485C37.738,22.65 38.421,21.971 39.261,21.971Z" style="fill:#2b307e;"/>
        <path d="M26.238,26.458L26.238,27.276C26.238,27.952 25.69,28.5 25.014,28.5C23.977,28.5 22.497,28.5 21.461,28.5C20.786,28.5 20.238,27.953 20.238,27.278L20.238,26.458L20.21,26.458C19.121,26.458 18.238,25.575 18.238,24.486L18.238,23.54C17.607,22.669 17.238,21.623 17.238,20.5C17.238,17.464 19.927,15 23.238,15C26.55,15 29.238,17.464 29.238,20.5C29.238,21.623 28.87,22.669 28.238,23.54L28.238,24.47C28.238,24.997 28.029,25.503 27.656,25.876C27.283,26.249 26.777,26.458 26.25,26.458L26.238,26.458ZM22.738,28.5L22.738,27.5L21.738,27.5L21.738,28.5L22.738,28.5ZM24.738,28.5L24.738,27.5L23.738,27.5L23.738,28.5L24.738,28.5ZM22.788,26.5L23.238,26.027L23.738,26.5C23.738,26.5 23.907,26.5 24.105,26.5C24.232,26.5 24.349,26.431 24.41,26.32C24.471,26.208 24.467,26.073 24.399,25.965C23.957,25.268 23.238,24.135 23.238,24.135C23.238,24.135 22.527,25.257 22.084,25.955C22.014,26.065 22.01,26.203 22.072,26.316C22.135,26.43 22.254,26.5 22.383,26.5L22.788,26.5ZM25.761,22C26.602,22 27.284,22.679 27.284,23.515C27.284,24.35 26.602,25.029 25.761,25.029C24.921,25.029 24.238,24.35 24.238,23.515C24.238,22.679 24.921,22 25.761,22ZM20.761,21.971C21.602,21.971 22.284,22.65 22.284,23.485C22.284,24.321 21.602,25 20.761,25C19.921,25 19.238,24.321 19.238,23.485C19.238,22.65 19.921,21.971 20.761,21.971Z" style="fill:#2b307e;"/>
        <path d="M44.238,58.208L44.238,59.026C44.238,59.702 43.69,60.25 43.014,60.25C41.977,60.25 40.497,60.25 39.461,60.25C38.786,60.25 38.238,59.703 38.238,59.028L38.238,58.208L38.21,58.208C37.121,58.208 36.238,57.325 36.238,56.236L36.238,55.29C35.607,54.419 35.238,53.373 35.238,52.25C35.238,49.214 37.927,46.75 41.238,46.75C44.55,46.75 47.238,49.214 47.238,52.25C47.238,53.373 46.87,54.419 46.238,55.29L46.238,56.22C46.238,56.747 46.029,57.253 45.656,57.626C45.283,57.999 44.777,58.208 44.25,58.208L44.238,58.208ZM40.738,60.25L40.738,59.25L39.738,59.25L39.738,60.25L40.738,60.25ZM42.738,60.25L42.738,59.25L41.738,59.25L41.738,60.25L42.738,60.25ZM40.788,58.25L41.238,57.777L41.738,58.25C41.738,58.25 41.907,58.25 42.105,58.25C42.232,58.25 42.349,58.181 42.41,58.07C42.471,57.958 42.467,57.823 42.399,57.715C41.957,57.018 41.238,55.885 41.238,55.885C41.238,55.885 40.527,57.007 40.084,57.705C40.014,57.815 40.01,57.953 40.072,58.066C40.135,58.18 40.254,58.25 40.383,58.25L40.788,58.25ZM43.761,53.75C44.602,53.75 45.284,54.429 45.284,55.265C45.284,56.1 44.602,56.779 43.761,56.779C42.921,56.779 42.238,56.1 42.238,55.265C42.238,54.429 42.921,53.75 43.761,53.75ZM38.761,53.721C39.602,53.721 40.284,54.4 40.284,55.235C40.284,56.071 39.602,56.75 38.761,56.75C37.921,56.75 37.238,56.071 37.238,55.235C37.238,54.4 37.921,53.721 38.761,53.721Z" style="fill:#2b307e;"/>
        <path d="M61.738,57.833L61.738,58.651C61.738,59.327 61.19,59.875 60.514,59.875C59.477,59.875 57.997,59.875 56.961,59.875C56.286,59.875 55.738,59.328 55.738,58.653L55.738,57.833L55.71,57.833C54.621,57.833 53.738,56.95 53.738,55.861L53.738,54.915C53.107,54.044 52.738,52.998 52.738,51.875C52.738,48.839 55.427,46.375 58.738,46.375C62.05,46.375 64.738,48.839 64.738,51.875C64.738,52.998 64.37,54.044 63.738,54.915L63.738,55.845C63.738,56.372 63.529,56.878 63.156,57.251C62.783,57.624 62.277,57.833 61.75,57.833L61.738,57.833ZM58.238,59.875L58.238,58.875L57.238,58.875L57.238,59.875L58.238,59.875ZM60.238,59.875L60.238,58.875L59.238,58.875L59.238,59.875L60.238,59.875ZM58.288,57.875L58.738,57.402L59.238,57.875C59.238,57.875 59.407,57.875 59.605,57.875C59.732,57.875 59.849,57.806 59.91,57.695C59.971,57.583 59.967,57.448 59.899,57.34C59.457,56.643 58.738,55.51 58.738,55.51C58.738,55.51 58.027,56.632 57.584,57.33C57.514,57.44 57.51,57.578 57.572,57.691C57.635,57.805 57.754,57.875 57.883,57.875L58.288,57.875ZM61.261,53.375C62.102,53.375 62.784,54.054 62.784,54.89C62.784,55.725 62.102,56.404 61.261,56.404C60.421,56.404 59.738,55.725 59.738,54.89C59.738,54.054 60.421,53.375 61.261,53.375ZM56.261,53.346C57.102,53.346 57.784,54.025 57.784,54.86C57.784,55.696 57.102,56.375 56.261,56.375C55.421,56.375 54.738,55.696 54.738,54.86C54.738,54.025 55.421,53.346 56.261,53.346Z" style="fill:#2b307e;"/>
        <path d="M26.238,57.458L26.238,58.276C26.238,58.952 25.69,59.5 25.014,59.5C23.977,59.5 22.497,59.5 21.461,59.5C20.786,59.5 20.238,58.953 20.238,58.278L20.238,57.458L20.21,57.458C19.121,57.458 18.238,56.575 18.238,55.486L18.238,54.54C17.607,53.669 17.238,52.623 17.238,51.5C17.238,48.464 19.927,46 23.238,46C26.55,46 29.238,48.464 29.238,51.5C29.238,52.623 28.87,53.669 28.238,54.54L28.238,55.47C28.238,55.997 28.029,56.503 27.656,56.876C27.283,57.249 26.777,57.458 26.25,57.458L26.238,57.458ZM22.738,59.5L22.738,58.5L21.738,58.5L21.738,59.5L22.738,59.5ZM24.738,59.5L24.738,58.5L23.738,58.5L23.738,59.5L24.738,59.5ZM22.788,57.5L23.238,57.027L23.738,57.5C23.738,57.5 23.907,57.5 24.105,57.5C24.232,57.5 24.349,57.431 24.41,57.32C24.471,57.208 24.467,57.073 24.399,56.965C23.957,56.268 23.238,55.135 23.238,55.135C23.238,55.135 22.527,56.257 22.084,56.955C22.014,57.065 22.01,57.203 22.072,57.316C22.135,57.43 22.254,57.5 22.383,57.5L22.788,57.5ZM25.761,53C26.602,53 27.284,53.679 27.284,54.515C27.284,55.35 26.602,56.029 25.761,56.029C24.921,56.029 24.238,55.35 24.238,54.515C24.238,53.679 24.921,53 25.761,53ZM20.761,52.971C21.602,52.971 22.284,53.65 22.284,54.485C22.284,55.321 21.602,56 20.761,56C19.921,56 19.238,55.321 19.238,54.485C19.238,53.65 19.921,52.971 20.761,52.971Z" style="fill:#2b307e;"/>
        <path d="M9.738,57.583L9.738,58.401C9.738,59.077 9.19,59.625 8.514,59.625C7.477,59.625 5.997,59.625 4.961,59.625C4.286,59.625 3.738,59.078 3.738,58.403L3.738,57.583L3.71,57.583C2.621,57.583 1.738,56.7 1.738,55.611L1.738,54.665C1.107,53.794 0.738,52.748 0.738,51.625C0.738,48.589 3.427,46.125 6.738,46.125C10.05,46.125 12.738,48.589 12.738,51.625C12.738,52.748 12.37,53.794 11.738,54.665L11.738,55.595C11.738,56.122 11.529,56.628 11.156,57.001C10.783,57.374 10.277,57.583 9.75,57.583L9.738,57.583ZM6.238,59.625L6.238,58.625L5.238,58.625L5.238,59.625L6.238,59.625ZM8.238,59.625L8.238,58.625L7.238,58.625L7.238,59.625L8.238,59.625ZM6.288,57.625L6.738,57.152L7.238,57.625C7.238,57.625 7.407,57.625 7.605,57.625C7.732,57.625 7.849,57.556 7.91,57.445C7.971,57.333 7.967,57.198 7.899,57.09C7.457,56.393 6.738,55.26 6.738,55.26C6.738,55.26 6.027,56.382 5.584,57.08C5.514,57.19 5.51,57.328 5.572,57.441C5.635,57.555 5.754,57.625 5.883,57.625L6.288,57.625ZM9.261,53.125C10.102,53.125 10.784,53.804 10.784,54.64C10.784,55.475 10.102,56.154 9.261,56.154C8.421,56.154 7.738,55.475 7.738,54.64C7.738,53.804 8.421,53.125 9.261,53.125ZM4.261,53.096C5.102,53.096 5.784,53.775 5.784,54.61C5.784,55.446 5.102,56.125 4.261,56.125C3.421,56.125 2.738,55.446 2.738,54.61C2.738,53.775 3.421,53.096 4.261,53.096Z" style="fill:#2b307e;"/>
        <path d="M17.738,41.958L17.738,42.776C17.738,43.452 17.19,44 16.514,44C15.477,44 13.997,44 12.961,44C12.286,44 11.738,43.453 11.738,42.778L11.738,41.958L11.71,41.958C10.621,41.958 9.738,41.075 9.738,39.986L9.738,39.04C9.107,38.169 8.738,37.123 8.738,36C8.738,32.964 11.427,30.5 14.738,30.5C18.05,30.5 20.738,32.964 20.738,36C20.738,37.123 20.37,38.169 19.738,39.04L19.738,39.97C19.738,40.497 19.529,41.003 19.156,41.376C18.783,41.749 18.277,41.958 17.75,41.958L17.738,41.958ZM14.238,44L14.238,43L13.238,43L13.238,44L14.238,44ZM16.238,44L16.238,43L15.238,43L15.238,44L16.238,44ZM14.288,42L14.738,41.527L15.238,42C15.238,42 15.407,42 15.605,42C15.732,42 15.849,41.931 15.91,41.82C15.971,41.708 15.967,41.573 15.899,41.465C15.457,40.768 14.738,39.635 14.738,39.635C14.738,39.635 14.027,40.757 13.584,41.455C13.514,41.565 13.51,41.703 13.572,41.816C13.635,41.93 13.754,42 13.883,42L14.288,42ZM17.261,37.5C18.102,37.5 18.784,38.179 18.784,39.015C18.784,39.85 18.102,40.529 17.261,40.529C16.421,40.529 15.738,39.85 15.738,39.015C15.738,38.179 16.421,37.5 17.261,37.5ZM12.261,37.471C13.102,37.471 13.784,38.15 13.784,38.985C13.784,39.821 13.102,40.5 12.261,40.5C11.421,40.5 10.738,39.821 10.738,38.985C10.738,38.15 11.421,37.471 12.261,37.471Z" style="fill:#2b307e;"/>
        <path d="M54.238,41.958L54.238,42.776C54.238,43.452 53.69,44 53.014,44C51.977,44 50.497,44 49.461,44C48.786,44 48.238,43.453 48.238,42.778L48.238,41.958L48.21,41.958C47.121,41.958 46.238,41.075 46.238,39.986L46.238,39.04C45.607,38.169 45.238,37.123 45.238,36C45.238,32.964 47.927,30.5 51.238,30.5C54.55,30.5 57.238,32.964 57.238,36C57.238,37.123 56.87,38.169 56.238,39.04L56.238,39.97C56.238,40.497 56.029,41.003 55.656,41.376C55.283,41.749 54.777,41.958 54.25,41.958L54.238,41.958ZM50.738,44L50.738,43L49.738,43L49.738,44L50.738,44ZM52.738,44L52.738,43L51.738,43L51.738,44L52.738,44ZM50.788,42L51.238,41.527L51.738,42C51.738,42 51.907,42 52.105,42C52.232,42 52.349,41.931 52.41,41.82C52.471,41.708 52.467,41.573 52.399,41.465C51.957,40.768 51.238,39.635 51.238,39.635C51.238,39.635 50.527,40.757 50.084,41.455C50.014,41.565 50.01,41.703 50.072,41.816C50.135,41.93 50.254,42 50.383,42L50.788,42ZM53.761,37.5C54.602,37.5 55.284,38.179 55.284,39.015C55.284,39.85 54.602,40.529 53.761,40.529C52.921,40.529 52.238,39.85 52.238,39.015C52.238,38.179 52.921,37.5 53.761,37.5ZM48.761,37.471C49.602,37.471 50.284,38.15 50.284,38.985C50.284,39.821 49.602,40.5 48.761,40.5C47.921,40.5 47.238,39.821 47.238,38.985C47.238,38.15 47.921,37.471 48.761,37.471Z" style="fill:#2b307e;"/>
    </g>
</svg>
