<?xml version="1.0" encoding="UTF-8" standalone="no"?>
<!DOCTYPE svg PUBLIC "-//W3C//DTD SVG 1.1//EN" "http://www.w3.org/Graphics/SVG/1.1/DTD/svg11.dtd">
<svg width="100%" height="100%" viewBox="0 0 64 64" version="1.1" xmlns="http://www.w3.org/2000/svg" xmlns:xlink="http://www.w3.org/1999/xlink" xml:space="preserve" xmlns:serif="http://www.serif.com/" style="fill-rule:evenodd;clip-rule:evenodd;stroke-linejoin:round;stroke-miterlimit:1.41421;">
    <rect id="_1-in-10-Deaths" serif:id="1-in-10-Deaths" x="0" y="0" width="64" height="64" style="fill:none;"/>
    <clipPath id="_clip1">
        <rect x="0" y="0" width="64" height="64"/>
    </clipPath>
    <g clip-path="url(#_clip1)">
        <g>
            <path d="M35,11.958L35,12.776C35,13.452 34.452,14 33.776,14C32.739,14 31.259,14 30.222,14C29.547,14 29,13.453 29,12.778L29,11.958L28.972,11.958C27.883,11.958 27,11.075 27,9.986L27,9.04C26.368,8.169 26,7.123 26,6C26,2.964 28.689,0.5 32,0.5C35.311,0.5 38,2.964 38,6C38,7.123 37.632,8.169 37,9.04L37,9.97C37,10.497 36.791,11.003 36.418,11.376C36.045,11.749 35.539,11.958 35.012,11.958L35,11.958ZM31.5,14L31.5,13L30.5,13L30.5,14L31.5,14ZM33.5,14L33.5,13L32.5,13L32.5,14L33.5,14ZM31.549,12L32,11.527L32.5,12C32.5,12 32.668,12 32.867,12C32.994,12 33.111,11.931 33.172,11.82C33.233,11.708 33.229,11.573 33.161,11.465C32.719,10.768 32,9.635 32,9.635C32,9.635 31.288,10.757 30.845,11.455C30.776,11.565 30.772,11.703 30.834,11.816C30.896,11.93 31.016,12 31.145,12L31.549,12ZM34.523,7.5C35.364,7.5 36.046,8.179 36.046,9.015C36.046,9.85 35.364,10.529 34.523,10.529C33.682,10.529 33,9.85 33,9.015C33,8.179 33.682,7.5 34.523,7.5ZM29.523,7.471C30.364,7.471 31.046,8.15 31.046,8.985C31.046,9.821 30.364,10.5 29.523,10.5C28.682,10.5 28,9.821 28,8.985C28,8.15 28.682,7.471 29.523,7.471Z" style="fill:#f3775b;"/>
        </g>
        <path d="M35,41.958L35,42.776C35,43.452 34.452,44 33.776,44C32.739,44 31.259,44 30.222,44C29.547,44 29,43.453 29,42.778L29,41.958L28.972,41.958C27.883,41.958 27,41.075 27,39.986L27,39.04C26.368,38.169 26,37.123 26,36C26,32.964 28.689,30.5 32,30.5C35.311,30.5 38,32.964 38,36C38,37.123 37.632,38.169 37,39.04L37,39.97C37,40.497 36.791,41.003 36.418,41.376C36.045,41.749 35.539,41.958 35.012,41.958L35,41.958ZM31.5,44L31.5,43L30.5,43L30.5,44L31.5,44ZM33.5,44L33.5,43L32.5,43L32.5,44L33.5,44ZM31.549,42L32,41.527L32.5,42C32.5,42 32.668,42 32.867,42C32.994,42 33.111,41.931 33.172,41.82C33.233,41.708 33.229,41.573 33.161,41.465C32.719,40.768 32,39.635 32,39.635C32,39.635 31.288,40.757 30.845,41.455C30.776,41.565 30.772,41.703 30.834,41.816C30.896,41.93 31.016,42 31.145,42L31.549,42ZM34.523,37.5C35.364,37.5 36.046,38.179 36.046,39.015C36.046,39.85 35.364,40.529 34.523,40.529C33.682,40.529 33,39.85 33,39.015C33,38.179 33.682,37.5 34.523,37.5ZM29.523,37.471C30.364,37.471 31.046,38.15 31.046,38.985C31.046,39.821 30.364,40.5 29.523,40.5C28.682,40.5 28,39.821 28,38.985C28,38.15 28.682,37.471 29.523,37.471Z" style="fill:#2b307e;"/>
        <path d="M44,26.458L44,27.276C44,27.952 43.452,28.5 42.776,28.5C41.739,28.5 40.259,28.5 39.222,28.5C38.547,28.5 38,27.953 38,27.278L38,26.458L37.972,26.458C36.883,26.458 36,25.575 36,24.486L36,23.54C35.368,22.669 35,21.623 35,20.5C35,17.464 37.689,15 41,15C44.311,15 47,17.464 47,20.5C47,21.623 46.632,22.669 46,23.54L46,24.47C46,24.997 45.791,25.503 45.418,25.876C45.045,26.249 44.539,26.458 44.012,26.458L44,26.458ZM40.5,28.5L40.5,27.5L39.5,27.5L39.5,28.5L40.5,28.5ZM42.5,28.5L42.5,27.5L41.5,27.5L41.5,28.5L42.5,28.5ZM40.549,26.5L41,26.027L41.5,26.5C41.5,26.5 41.668,26.5 41.867,26.5C41.994,26.5 42.111,26.431 42.172,26.32C42.233,26.208 42.229,26.073 42.161,25.965C41.719,25.268 41,24.135 41,24.135C41,24.135 40.288,25.257 39.845,25.955C39.776,26.065 39.772,26.203 39.834,26.316C39.896,26.43 40.016,26.5 40.145,26.5L40.549,26.5ZM43.523,22C44.364,22 45.046,22.679 45.046,23.515C45.046,24.35 44.364,25.029 43.523,25.029C42.682,25.029 42,24.35 42,23.515C42,22.679 42.682,22 43.523,22ZM38.523,21.971C39.364,21.971 40.046,22.65 40.046,23.485C40.046,24.321 39.364,25 38.523,25C37.682,25 37,24.321 37,23.485C37,22.65 37.682,21.971 38.523,21.971Z" style="fill:#2b307e;"/>
        <path d="M25.5,26.458L25.5,27.276C25.5,27.952 24.952,28.5 24.276,28.5C23.239,28.5 21.759,28.5 20.722,28.5C20.047,28.5 19.5,27.953 19.5,27.278L19.5,26.458L19.472,26.458C18.383,26.458 17.5,25.575 17.5,24.486L17.5,23.54C16.868,22.669 16.5,21.623 16.5,20.5C16.5,17.464 19.189,15 22.5,15C25.811,15 28.5,17.464 28.5,20.5C28.5,21.623 28.132,22.669 27.5,23.54L27.5,24.47C27.5,24.997 27.291,25.503 26.918,25.876C26.545,26.249 26.039,26.458 25.512,26.458L25.5,26.458ZM22,28.5L22,27.5L21,27.5L21,28.5L22,28.5ZM24,28.5L24,27.5L23,27.5L23,28.5L24,28.5ZM22.049,26.5L22.5,26.027L23,26.5C23,26.5 23.168,26.5 23.367,26.5C23.494,26.5 23.611,26.431 23.672,26.32C23.733,26.208 23.729,26.073 23.661,25.965C23.219,25.268 22.5,24.135 22.5,24.135C22.5,24.135 21.788,25.257 21.345,25.955C21.276,26.065 21.272,26.203 21.334,26.316C21.396,26.43 21.516,26.5 21.645,26.5L22.049,26.5ZM25.023,22C25.864,22 26.546,22.679 26.546,23.515C26.546,24.35 25.864,25.029 25.023,25.029C24.182,25.029 23.5,24.35 23.5,23.515C23.5,22.679 24.182,22 25.023,22ZM20.023,21.971C20.864,21.971 21.546,22.65 21.546,23.485C21.546,24.321 20.864,25 20.023,25C19.182,25 18.5,24.321 18.5,23.485C18.5,22.65 19.182,21.971 20.023,21.971Z" style="fill:#2b307e;"/>
        <path d="M43.5,58.208L43.5,59.026C43.5,59.702 42.952,60.25 42.276,60.25C41.239,60.25 39.759,60.25 38.722,60.25C38.047,60.25 37.5,59.703 37.5,59.028L37.5,58.208L37.472,58.208C36.383,58.208 35.5,57.325 35.5,56.236L35.5,55.29C34.868,54.419 34.5,53.373 34.5,52.25C34.5,49.214 37.189,46.75 40.5,46.75C43.811,46.75 46.5,49.214 46.5,52.25C46.5,53.373 46.132,54.419 45.5,55.29L45.5,56.22C45.5,56.747 45.291,57.253 44.918,57.626C44.545,57.999 44.039,58.208 43.512,58.208L43.5,58.208ZM40,60.25L40,59.25L39,59.25L39,60.25L40,60.25ZM42,60.25L42,59.25L41,59.25L41,60.25L42,60.25ZM40.049,58.25L40.5,57.777L41,58.25C41,58.25 41.168,58.25 41.367,58.25C41.494,58.25 41.611,58.181 41.672,58.07C41.733,57.958 41.729,57.823 41.661,57.715C41.219,57.018 40.5,55.885 40.5,55.885C40.5,55.885 39.788,57.007 39.345,57.705C39.276,57.815 39.272,57.953 39.334,58.066C39.396,58.18 39.516,58.25 39.645,58.25L40.049,58.25ZM43.023,53.75C43.864,53.75 44.546,54.429 44.546,55.265C44.546,56.1 43.864,56.779 43.023,56.779C42.182,56.779 41.5,56.1 41.5,55.265C41.5,54.429 42.182,53.75 43.023,53.75ZM38.023,53.721C38.864,53.721 39.546,54.4 39.546,55.235C39.546,56.071 38.864,56.75 38.023,56.75C37.182,56.75 36.5,56.071 36.5,55.235C36.5,54.4 37.182,53.721 38.023,53.721Z" style="fill:#2b307e;"/>
        <path d="M61,57.833L61,58.651C61,59.327 60.452,59.875 59.776,59.875C58.739,59.875 57.259,59.875 56.222,59.875C55.547,59.875 55,59.328 55,58.653L55,57.833L54.972,57.833C53.883,57.833 53,56.95 53,55.861L53,54.915C52.368,54.044 52,52.998 52,51.875C52,48.839 54.689,46.375 58,46.375C61.311,46.375 64,48.839 64,51.875C64,52.998 63.632,54.044 63,54.915L63,55.845C63,56.372 62.791,56.878 62.418,57.251C62.045,57.624 61.539,57.833 61.012,57.833L61,57.833ZM57.5,59.875L57.5,58.875L56.5,58.875L56.5,59.875L57.5,59.875ZM59.5,59.875L59.5,58.875L58.5,58.875L58.5,59.875L59.5,59.875ZM57.549,57.875L58,57.402L58.5,57.875C58.5,57.875 58.668,57.875 58.867,57.875C58.994,57.875 59.111,57.806 59.172,57.695C59.233,57.583 59.229,57.448 59.161,57.34C58.719,56.643 58,55.51 58,55.51C58,55.51 57.288,56.632 56.845,57.33C56.776,57.44 56.772,57.578 56.834,57.691C56.896,57.805 57.016,57.875 57.145,57.875L57.549,57.875ZM60.523,53.375C61.364,53.375 62.046,54.054 62.046,54.89C62.046,55.725 61.364,56.404 60.523,56.404C59.682,56.404 59,55.725 59,54.89C59,54.054 59.682,53.375 60.523,53.375ZM55.523,53.346C56.364,53.346 57.046,54.025 57.046,54.86C57.046,55.696 56.364,56.375 55.523,56.375C54.682,56.375 54,55.696 54,54.86C54,54.025 54.682,53.346 55.523,53.346Z" style="fill:#2b307e;"/>
        <path d="M25.5,57.458L25.5,58.276C25.5,58.952 24.952,59.5 24.276,59.5C23.239,59.5 21.759,59.5 20.722,59.5C20.047,59.5 19.5,58.953 19.5,58.278L19.5,57.458L19.472,57.458C18.383,57.458 17.5,56.575 17.5,55.486L17.5,54.54C16.868,53.669 16.5,52.623 16.5,51.5C16.5,48.464 19.189,46 22.5,46C25.811,46 28.5,48.464 28.5,51.5C28.5,52.623 28.132,53.669 27.5,54.54L27.5,55.47C27.5,55.997 27.291,56.503 26.918,56.876C26.545,57.249 26.039,57.458 25.512,57.458L25.5,57.458ZM22,59.5L22,58.5L21,58.5L21,59.5L22,59.5ZM24,59.5L24,58.5L23,58.5L23,59.5L24,59.5ZM22.049,57.5L22.5,57.027L23,57.5C23,57.5 23.168,57.5 23.367,57.5C23.494,57.5 23.611,57.431 23.672,57.32C23.733,57.208 23.729,57.073 23.661,56.965C23.219,56.268 22.5,55.135 22.5,55.135C22.5,55.135 21.788,56.257 21.345,56.955C21.276,57.065 21.272,57.203 21.334,57.316C21.396,57.43 21.516,57.5 21.645,57.5L22.049,57.5ZM25.023,53C25.864,53 26.546,53.679 26.546,54.515C26.546,55.35 25.864,56.029 25.023,56.029C24.182,56.029 23.5,55.35 23.5,54.515C23.5,53.679 24.182,53 25.023,53ZM20.023,52.971C20.864,52.971 21.546,53.65 21.546,54.485C21.546,55.321 20.864,56 20.023,56C19.182,56 18.5,55.321 18.5,54.485C18.5,53.65 19.182,52.971 20.023,52.971Z" style="fill:#2b307e;"/>
        <path d="M9,57.583L9,58.401C9,59.077 8.452,59.625 7.776,59.625C6.739,59.625 5.259,59.625 4.222,59.625C3.547,59.625 3,59.078 3,58.403L3,57.583L2.972,57.583C1.883,57.583 1,56.7 1,55.611L1,54.665C0.368,53.794 0,52.748 0,51.625C0,48.589 2.689,46.125 6,46.125C9.311,46.125 12,48.589 12,51.625C12,52.748 11.632,53.794 11,54.665L11,55.595C11,56.122 10.791,56.628 10.418,57.001C10.045,57.374 9.539,57.583 9.012,57.583L9,57.583ZM5.5,59.625L5.5,58.625L4.5,58.625L4.5,59.625L5.5,59.625ZM7.5,59.625L7.5,58.625L6.5,58.625L6.5,59.625L7.5,59.625ZM5.549,57.625L6,57.152L6.5,57.625C6.5,57.625 6.668,57.625 6.867,57.625C6.994,57.625 7.111,57.556 7.172,57.445C7.233,57.333 7.229,57.198 7.161,57.09C6.719,56.393 6,55.26 6,55.26C6,55.26 5.288,56.382 4.845,57.08C4.776,57.19 4.772,57.328 4.834,57.441C4.896,57.555 5.016,57.625 5.145,57.625L5.549,57.625ZM8.523,53.125C9.364,53.125 10.046,53.804 10.046,54.64C10.046,55.475 9.364,56.154 8.523,56.154C7.682,56.154 7,55.475 7,54.64C7,53.804 7.682,53.125 8.523,53.125ZM3.523,53.096C4.364,53.096 5.046,53.775 5.046,54.61C5.046,55.446 4.364,56.125 3.523,56.125C2.682,56.125 2,55.446 2,54.61C2,53.775 2.682,53.096 3.523,53.096Z" style="fill:#2b307e;"/>
        <path d="M17,41.958L17,42.776C17,43.452 16.452,44 15.776,44C14.739,44 13.259,44 12.222,44C11.547,44 11,43.453 11,42.778L11,41.958L10.972,41.958C9.883,41.958 9,41.075 9,39.986L9,39.04C8.368,38.169 8,37.123 8,36C8,32.964 10.689,30.5 14,30.5C17.311,30.5 20,32.964 20,36C20,37.123 19.632,38.169 19,39.04L19,39.97C19,40.497 18.791,41.003 18.418,41.376C18.045,41.749 17.539,41.958 17.012,41.958L17,41.958ZM13.5,44L13.5,43L12.5,43L12.5,44L13.5,44ZM15.5,44L15.5,43L14.5,43L14.5,44L15.5,44ZM13.549,42L14,41.527L14.5,42C14.5,42 14.668,42 14.867,42C14.994,42 15.111,41.931 15.172,41.82C15.233,41.708 15.229,41.573 15.161,41.465C14.719,40.768 14,39.635 14,39.635C14,39.635 13.288,40.757 12.845,41.455C12.776,41.565 12.772,41.703 12.834,41.816C12.896,41.93 13.016,42 13.145,42L13.549,42ZM16.523,37.5C17.364,37.5 18.046,38.179 18.046,39.015C18.046,39.85 17.364,40.529 16.523,40.529C15.682,40.529 15,39.85 15,39.015C15,38.179 15.682,37.5 16.523,37.5ZM11.523,37.471C12.364,37.471 13.046,38.15 13.046,38.985C13.046,39.821 12.364,40.5 11.523,40.5C10.682,40.5 10,39.821 10,38.985C10,38.15 10.682,37.471 11.523,37.471Z" style="fill:#2b307e;"/>
        <path d="M53.5,41.958L53.5,42.776C53.5,43.452 52.952,44 52.276,44C51.239,44 49.759,44 48.722,44C48.047,44 47.5,43.453 47.5,42.778L47.5,41.958L47.472,41.958C46.383,41.958 45.5,41.075 45.5,39.986L45.5,39.04C44.868,38.169 44.5,37.123 44.5,36C44.5,32.964 47.189,30.5 50.5,30.5C53.811,30.5 56.5,32.964 56.5,36C56.5,37.123 56.132,38.169 55.5,39.04L55.5,39.97C55.5,40.497 55.291,41.003 54.918,41.376C54.545,41.749 54.039,41.958 53.512,41.958L53.5,41.958ZM50,44L50,43L49,43L49,44L50,44ZM52,44L52,43L51,43L51,44L52,44ZM50.049,42L50.5,41.527L51,42C51,42 51.168,42 51.367,42C51.494,42 51.611,41.931 51.672,41.82C51.733,41.708 51.729,41.573 51.661,41.465C51.219,40.768 50.5,39.635 50.5,39.635C50.5,39.635 49.788,40.757 49.345,41.455C49.276,41.565 49.272,41.703 49.334,41.816C49.396,41.93 49.516,42 49.645,42L50.049,42ZM53.023,37.5C53.864,37.5 54.546,38.179 54.546,39.015C54.546,39.85 53.864,40.529 53.023,40.529C52.182,40.529 51.5,39.85 51.5,39.015C51.5,38.179 52.182,37.5 53.023,37.5ZM48.023,37.471C48.864,37.471 49.546,38.15 49.546,38.985C49.546,39.821 48.864,40.5 48.023,40.5C47.182,40.5 46.5,39.821 46.5,38.985C46.5,38.15 47.182,37.471 48.023,37.471Z" style="fill:#2b307e;"/>
    </g>
</svg>
