<?xml version="1.0" encoding="UTF-8" standalone="no"?>
<!DOCTYPE svg PUBLIC "-//W3C//DTD SVG 1.1//EN" "http://www.w3.org/Graphics/SVG/1.1/DTD/svg11.dtd">
<svg width="100%" height="100%" viewBox="0 0 64 65" version="1.1" xmlns="http://www.w3.org/2000/svg" xmlns:xlink="http://www.w3.org/1999/xlink" xml:space="preserve" xmlns:serif="http://www.serif.com/" style="fill-rule:evenodd;clip-rule:evenodd;stroke-linecap:round;stroke-miterlimit:1;">
    <rect id="Ambulance" x="0" y="0.709" width="64" height="64" style="fill:none;"/>
    <path d="M57.421,54.678L8.913,54.678L3.919,56.657L61.869,56.657L57.421,54.678Z" style="fill:#cecfeb;"/>
    <g>
        <path d="M39.955,15.119C39.955,14.5 39.709,13.906 39.271,13.467C38.833,13.029 38.239,12.783 37.619,12.783C37.619,12.783 37.618,12.783 37.618,12.783C36.999,12.783 36.404,13.029 35.966,13.467C35.528,13.906 35.282,14.5 35.282,15.119C35.282,16.663 35.282,18.402 35.282,18.402L39.955,18.402C39.955,18.402 39.955,16.663 39.955,15.119Z" style="fill:#3bbc53;"/>
        <rect x="33.523" y="17.865" width="8.192" height="1.601" style="fill:#2b307e;"/>
        <path d="M37.605,10.781L37.605,8.521" style="fill:none;stroke:#dfdff2;stroke-width:1px;"/>
        <path d="M44.679,17.731L46.939,17.731" style="fill:none;stroke:#dfdff2;stroke-width:1px;"/>
        <path d="M46.187,13.604L44.063,14.377" style="fill:none;stroke:#dfdff2;stroke-width:1px;"/>
        <path d="M28.621,13.604L30.744,14.377" style="fill:none;stroke:#dfdff2;stroke-width:1px;"/>
        <path d="M42.757,10.189L41.304,11.921" style="fill:none;stroke:#dfdff2;stroke-width:1px;"/>
        <path d="M32.051,10.189L33.503,11.921" style="fill:none;stroke:#dfdff2;stroke-width:1px;"/>
        <path d="M27.986,17.731L30.246,17.731" style="fill:none;stroke:#dfdff2;stroke-width:1px;"/>
        <ellipse cx="36.801" cy="15.178" rx="0.818" ry="1.074" style="fill:#fff;"/>
    </g>
    <path d="M58.49,50.675C59.348,50.675 60.164,50.308 60.733,49.667C61.303,49.025 61.571,48.171 61.469,47.32C61.087,44.117 60.534,39.474 60.279,37.337C60.191,36.594 59.828,35.911 59.261,35.422C58.762,34.99 58.153,34.464 57.729,34.098C57.387,33.802 57.116,33.433 56.937,33.018C56.053,30.973 53.243,24.472 51.861,21.276C51.386,20.177 50.304,19.466 49.107,19.466C41.739,19.466 15.79,19.466 6.919,19.466C6.123,19.466 5.36,19.782 4.797,20.344C4.235,20.907 3.919,21.67 3.919,22.466C3.919,28.429 3.919,41.711 3.919,47.675C3.919,48.471 4.235,49.234 4.797,49.796C5.36,50.359 6.123,50.675 6.919,50.675C16.772,50.675 48.107,50.675 58.49,50.675Z" style="fill:#3bbc53;"/>
    <clipPath id="_clip1">
        <path d="M58.49,50.675C59.348,50.675 60.164,50.308 60.733,49.667C61.303,49.025 61.571,48.171 61.469,47.32C61.087,44.117 60.534,39.474 60.279,37.337C60.191,36.594 59.828,35.911 59.261,35.422C58.762,34.99 58.153,34.464 57.729,34.098C57.387,33.802 57.116,33.433 56.937,33.018C56.053,30.973 53.243,24.472 51.861,21.276C51.386,20.177 50.304,19.466 49.107,19.466C41.739,19.466 15.79,19.466 6.919,19.466C6.123,19.466 5.36,19.782 4.797,20.344C4.235,20.907 3.919,21.67 3.919,22.466C3.919,28.429 3.919,41.711 3.919,47.675C3.919,48.471 4.235,49.234 4.797,49.796C5.36,50.359 6.123,50.675 6.919,50.675C16.772,50.675 48.107,50.675 58.49,50.675Z"/>
    </clipPath>
    <g clip-path="url(#_clip1)">
        <path d="M61.869,21.108L0.638,50.675L0.638,57.245L61.869,57.245L61.869,21.108Z" style="fill:#2b307e;fill-opacity:0.101961;"/>
    </g>
    <circle cx="16.888" cy="50.675" r="5.982" style="fill:#2b307e;"/>
    <circle cx="49.818" cy="50.675" r="5.982" style="fill:#2b307e;"/>
    <circle cx="16.888" cy="50.675" r="2.879" style="fill:#aaacdd;"/>
    <circle cx="49.818" cy="50.675" r="2.879" style="fill:#aaacdd;"/>
    <path d="M49.114,26.133C48.543,24.54 47.032,23.478 45.34,23.482C44.263,23.484 43.103,23.486 42.304,23.487C41.753,23.488 41.306,23.936 41.306,24.487C41.306,26.356 41.306,30.364 41.306,32.241C41.306,32.508 41.413,32.764 41.602,32.951C41.791,33.139 42.048,33.244 42.315,33.241C44.166,33.225 48.11,33.192 50.224,33.174C50.547,33.171 50.85,33.011 51.035,32.746C51.221,32.48 51.266,32.141 51.157,31.836C50.633,30.374 49.777,27.984 49.114,26.133Z" style="fill:#ededf8;"/>
    <clipPath id="_clip2">
        <path d="M49.114,26.133C48.543,24.54 47.032,23.478 45.34,23.482C44.263,23.484 43.103,23.486 42.304,23.487C41.753,23.488 41.306,23.936 41.306,24.487C41.306,26.356 41.306,30.364 41.306,32.241C41.306,32.508 41.413,32.764 41.602,32.951C41.791,33.139 42.048,33.244 42.315,33.241C44.166,33.225 48.11,33.192 50.224,33.174C50.547,33.171 50.85,33.011 51.035,32.746C51.221,32.48 51.266,32.141 51.157,31.836C50.633,30.374 49.777,27.984 49.114,26.133Z"/>
    </clipPath>
    <g clip-path="url(#_clip2)">
        <path d="M37.474,33.25L51.631,26.165L49.166,21.966L37.381,21.859L37.474,33.25Z" style="fill:#fff;"/>
    </g>
    <circle cx="24.818" cy="33.095" r="9.624" style="fill:#fff;"/>
    <clipPath id="_clip3">
        <circle cx="24.818" cy="33.095" r="9.624"/>
    </clipPath>
    <g clip-path="url(#_clip3)">
        <rect x="22.758" y="26.304" width="4.121" height="13.583" style="fill:#3bbc53;"/>
        <path d="M31.61,35.156L31.61,31.035L18.027,31.035L18.027,35.156L31.61,35.156Z" style="fill:#3bbc53;"/>
        <path d="M52.135,25.179L4.21,49.926L4.21,55.425L52.135,55.425L52.135,25.179Z" style="fill:#2b307e;fill-opacity:0.101961;"/>
    </g>
</svg>
