<?xml version="1.0" encoding="UTF-8" standalone="no"?>
<!DOCTYPE svg PUBLIC "-//W3C//DTD SVG 1.1//EN" "http://www.w3.org/Graphics/SVG/1.1/DTD/svg11.dtd">
<svg width="100%" height="100%" viewBox="0 0 64 65" version="1.1" xmlns="http://www.w3.org/2000/svg" xmlns:xlink="http://www.w3.org/1999/xlink" xml:space="preserve" xmlns:serif="http://www.serif.com/" style="fill-rule:evenodd;clip-rule:evenodd;stroke-linecap:round;stroke-miterlimit:1;">
    <rect id="Ambulance" x="0" y="0.961" width="64" height="64" style="fill:none;"/>
    <path d="M57.421,54.93L8.913,54.93L3.919,56.909L61.869,56.909L57.421,54.93Z" style="fill:#cecfeb;"/>
    <g>
        <path d="M39.955,15.371C39.955,14.752 39.709,14.158 39.271,13.719C38.833,13.281 38.239,13.035 37.619,13.035C37.619,13.035 37.618,13.035 37.618,13.035C36.999,13.035 36.404,13.281 35.966,13.719C35.528,14.158 35.282,14.752 35.282,15.371C35.282,16.915 35.282,18.654 35.282,18.654L39.955,18.654C39.955,18.654 39.955,16.915 39.955,15.371Z" style="fill:#f3775b;"/>
        <rect x="33.523" y="18.117" width="8.192" height="1.601" style="fill:#2b307e;"/>
        <path d="M37.605,11.033L37.605,8.773" style="fill:none;stroke:#dfdff2;stroke-width:1px;"/>
        <path d="M44.679,17.983L46.939,17.983" style="fill:none;stroke:#dfdff2;stroke-width:1px;"/>
        <path d="M46.187,13.856L44.063,14.629" style="fill:none;stroke:#dfdff2;stroke-width:1px;"/>
        <path d="M28.621,13.856L30.744,14.629" style="fill:none;stroke:#dfdff2;stroke-width:1px;"/>
        <path d="M42.757,10.441L41.304,12.172" style="fill:none;stroke:#dfdff2;stroke-width:1px;"/>
        <path d="M32.051,10.441L33.503,12.172" style="fill:none;stroke:#dfdff2;stroke-width:1px;"/>
        <path d="M27.986,17.983L30.246,17.983" style="fill:none;stroke:#dfdff2;stroke-width:1px;"/>
        <ellipse cx="36.801" cy="15.43" rx="0.818" ry="1.074" style="fill:#fff;"/>
    </g>
    <path d="M58.49,50.927C59.348,50.927 60.164,50.56 60.733,49.919C61.303,49.277 61.571,48.423 61.469,47.572C61.087,44.369 60.534,39.726 60.279,37.589C60.191,36.846 59.828,36.163 59.261,35.674C58.762,35.242 58.153,34.716 57.729,34.35C57.387,34.054 57.116,33.685 56.937,33.27C56.053,31.225 53.243,24.724 51.861,21.527C51.386,20.429 50.304,19.718 49.107,19.718C41.739,19.718 15.79,19.718 6.919,19.718C6.123,19.718 5.36,20.034 4.797,20.596C4.235,21.159 3.919,21.922 3.919,22.718C3.919,28.681 3.919,41.963 3.919,47.927C3.919,48.722 4.235,49.486 4.797,50.048C5.36,50.611 6.123,50.927 6.919,50.927C16.772,50.927 48.107,50.927 58.49,50.927Z" style="fill:#f3775b;"/>
    <clipPath id="_clip1">
        <path d="M58.49,50.927C59.348,50.927 60.164,50.56 60.733,49.919C61.303,49.277 61.571,48.423 61.469,47.572C61.087,44.369 60.534,39.726 60.279,37.589C60.191,36.846 59.828,36.163 59.261,35.674C58.762,35.242 58.153,34.716 57.729,34.35C57.387,34.054 57.116,33.685 56.937,33.27C56.053,31.225 53.243,24.724 51.861,21.527C51.386,20.429 50.304,19.718 49.107,19.718C41.739,19.718 15.79,19.718 6.919,19.718C6.123,19.718 5.36,20.034 4.797,20.596C4.235,21.159 3.919,21.922 3.919,22.718C3.919,28.681 3.919,41.963 3.919,47.927C3.919,48.722 4.235,49.486 4.797,50.048C5.36,50.611 6.123,50.927 6.919,50.927C16.772,50.927 48.107,50.927 58.49,50.927Z"/>
    </clipPath>
    <g clip-path="url(#_clip1)">
        <path d="M61.869,21.36L0.638,50.927L0.638,57.497L61.869,57.497L61.869,21.36Z" style="fill:#2b307e;fill-opacity:0.101961;"/>
    </g>
    <circle cx="16.888" cy="50.927" r="5.982" style="fill:#2b307e;"/>
    <circle cx="49.818" cy="50.927" r="5.982" style="fill:#2b307e;"/>
    <circle cx="16.888" cy="50.927" r="2.879" style="fill:#aaacdd;"/>
    <circle cx="49.818" cy="50.927" r="2.879" style="fill:#aaacdd;"/>
    <path d="M49.114,26.385C48.543,24.792 47.032,23.73 45.34,23.734C44.263,23.736 43.103,23.738 42.304,23.739C41.753,23.74 41.306,24.188 41.306,24.739C41.306,26.608 41.306,30.616 41.306,32.493C41.306,32.76 41.413,33.016 41.602,33.203C41.791,33.391 42.048,33.496 42.315,33.493C44.166,33.477 48.11,33.444 50.224,33.425C50.547,33.423 50.85,33.263 51.035,32.998C51.221,32.732 51.266,32.393 51.157,32.088C50.633,30.626 49.777,28.236 49.114,26.385Z" style="fill:#ededf8;"/>
    <clipPath id="_clip2">
        <path d="M49.114,26.385C48.543,24.792 47.032,23.73 45.34,23.734C44.263,23.736 43.103,23.738 42.304,23.739C41.753,23.74 41.306,24.188 41.306,24.739C41.306,26.608 41.306,30.616 41.306,32.493C41.306,32.76 41.413,33.016 41.602,33.203C41.791,33.391 42.048,33.496 42.315,33.493C44.166,33.477 48.11,33.444 50.224,33.425C50.547,33.423 50.85,33.263 51.035,32.998C51.221,32.732 51.266,32.393 51.157,32.088C50.633,30.626 49.777,28.236 49.114,26.385Z"/>
    </clipPath>
    <g clip-path="url(#_clip2)">
        <path d="M37.474,33.502L51.631,26.417L49.166,22.218L37.381,22.111L37.474,33.502Z" style="fill:#fff;"/>
    </g>
    <circle cx="24.818" cy="33.347" r="9.624" style="fill:#fff;"/>
    <clipPath id="_clip3">
        <circle cx="24.818" cy="33.347" r="9.624"/>
    </clipPath>
    <g clip-path="url(#_clip3)">
        <rect x="22.758" y="26.556" width="4.121" height="13.583" style="fill:#f3775b;"/>
        <path d="M31.61,35.408L31.61,31.287L18.027,31.287L18.027,35.408L31.61,35.408Z" style="fill:#f3775b;"/>
        <path d="M52.135,25.431L4.21,50.178L4.21,55.677L52.135,55.677L52.135,25.431Z" style="fill:#2b307e;fill-opacity:0.101961;"/>
    </g>
</svg>
