<?xml version="1.0" encoding="UTF-8" standalone="no"?>
<!DOCTYPE svg PUBLIC "-//W3C//DTD SVG 1.1//EN" "http://www.w3.org/Graphics/SVG/1.1/DTD/svg11.dtd">
<svg width="100%" height="100%" viewBox="0 0 65 64" version="1.1" xmlns="http://www.w3.org/2000/svg" xmlns:xlink="http://www.w3.org/1999/xlink" xml:space="preserve" xmlns:serif="http://www.serif.com/" style="fill-rule:evenodd;clip-rule:evenodd;stroke-linecap:round;stroke-miterlimit:1;">
    <rect id="Ambulance" x="0.738" y="0" width="64" height="64" style="fill:none;"/>
    <path d="M58.159,53.97L9.652,53.97L4.657,55.948L62.607,55.948L58.159,53.97Z" style="fill:#cecfeb;"/>
    <g>
        <path d="M40.693,14.411C40.693,13.791 40.447,13.197 40.009,12.759C39.571,12.321 38.977,12.075 38.357,12.075C38.357,12.075 38.357,12.075 38.356,12.075C37.737,12.075 37.143,12.321 36.705,12.759C36.266,13.197 36.02,13.791 36.02,14.411C36.02,15.954 36.02,17.694 36.02,17.694L40.693,17.694L40.693,14.411Z" style="fill:#f3775b;"/>
        <rect x="34.261" y="17.156" width="8.192" height="1.601" style="fill:#2b307e;"/>
        <path d="M38.343,10.072L38.343,7.812" style="fill:none;stroke:#dfdff2;stroke-width:1px;"/>
        <path d="M45.417,17.023L47.677,17.023" style="fill:none;stroke:#dfdff2;stroke-width:1px;"/>
        <path d="M46.925,12.895L44.802,13.668" style="fill:none;stroke:#dfdff2;stroke-width:1px;"/>
        <path d="M29.359,12.895L31.483,13.668" style="fill:none;stroke:#dfdff2;stroke-width:1px;"/>
        <path d="M43.495,9.481L42.043,11.212" style="fill:none;stroke:#dfdff2;stroke-width:1px;"/>
        <path d="M32.789,9.481L34.242,11.212" style="fill:none;stroke:#dfdff2;stroke-width:1px;"/>
        <path d="M28.724,17.023L30.984,17.023" style="fill:none;stroke:#dfdff2;stroke-width:1px;"/>
        <ellipse cx="37.539" cy="14.47" rx="0.818" ry="1.074" style="fill:#fff;"/>
    </g>
    <path d="M59.228,49.966C60.086,49.966 60.902,49.599 61.472,48.958C62.041,48.317 62.309,47.463 62.207,46.611C61.826,43.409 61.272,38.765 61.018,36.628C60.929,35.885 60.566,35.202 60,34.713C59.5,34.281 58.892,33.756 58.468,33.39C58.125,33.094 57.854,32.725 57.675,32.31C56.791,30.264 53.981,23.763 52.599,20.567C52.125,19.468 51.042,18.757 49.846,18.757C42.478,18.757 16.528,18.757 7.657,18.757C6.861,18.757 6.098,19.073 5.535,19.636C4.973,20.198 4.657,20.961 4.657,21.757C4.657,27.721 4.657,41.003 4.657,46.966C4.657,47.762 4.973,48.525 5.535,49.088C6.098,49.65 6.861,49.966 7.657,49.966C17.511,49.966 48.845,49.966 59.228,49.966Z" style="fill:#f3775b;"/>
    <clipPath id="_clip1">
        <path d="M59.228,49.966C60.086,49.966 60.902,49.599 61.472,48.958C62.041,48.317 62.309,47.463 62.207,46.611C61.826,43.409 61.272,38.765 61.018,36.628C60.929,35.885 60.566,35.202 60,34.713C59.5,34.281 58.892,33.756 58.468,33.39C58.125,33.094 57.854,32.725 57.675,32.31C56.791,30.264 53.981,23.763 52.599,20.567C52.125,19.468 51.042,18.757 49.846,18.757C42.478,18.757 16.528,18.757 7.657,18.757C6.861,18.757 6.098,19.073 5.535,19.636C4.973,20.198 4.657,20.961 4.657,21.757C4.657,27.721 4.657,41.003 4.657,46.966C4.657,47.762 4.973,48.525 5.535,49.088C6.098,49.65 6.861,49.966 7.657,49.966C17.511,49.966 48.845,49.966 59.228,49.966Z"/>
    </clipPath>
    <g clip-path="url(#_clip1)">
        <path d="M62.607,20.4L1.377,49.966L1.377,56.537L62.607,56.537L62.607,20.4Z" style="fill:#2b307e;fill-opacity:0.1;"/>
    </g>
    <circle cx="17.626" cy="49.966" r="5.982" style="fill:#2b307e;"/>
    <circle cx="50.556" cy="49.966" r="5.982" style="fill:#2b307e;"/>
    <circle cx="17.626" cy="49.966" r="2.879" style="fill:#aaacdd;"/>
    <circle cx="50.556" cy="49.966" r="2.879" style="fill:#aaacdd;"/>
    <path d="M49.852,25.424C49.281,23.831 47.77,22.77 46.078,22.773C45.001,22.775 43.841,22.777 43.043,22.779C42.491,22.78 42.044,23.227 42.044,23.779C42.044,25.648 42.044,29.656 42.044,31.533C42.044,31.799 42.151,32.055 42.34,32.243C42.53,32.431 42.786,32.535 43.053,32.533C44.904,32.517 48.848,32.483 50.962,32.465C51.286,32.462 51.588,32.303 51.774,32.037C51.959,31.772 52.004,31.433 51.895,31.128C51.371,29.666 50.515,27.275 49.852,25.424Z" style="fill:#ededf8;"/>
    <clipPath id="_clip2">
        <path d="M49.852,25.424C49.281,23.831 47.77,22.77 46.078,22.773C45.001,22.775 43.841,22.777 43.043,22.779C42.491,22.78 42.044,23.227 42.044,23.779C42.044,25.648 42.044,29.656 42.044,31.533C42.044,31.799 42.151,32.055 42.34,32.243C42.53,32.431 42.786,32.535 43.053,32.533C44.904,32.517 48.848,32.483 50.962,32.465C51.286,32.462 51.588,32.303 51.774,32.037C51.959,31.772 52.004,31.433 51.895,31.128C51.371,29.666 50.515,27.275 49.852,25.424Z"/>
    </clipPath>
    <g clip-path="url(#_clip2)">
        <path d="M38.212,32.541L52.369,25.457L49.904,21.258L38.119,21.15L38.212,32.541Z" style="fill:#fff;"/>
    </g>
    <circle cx="25.557" cy="32.387" r="9.624" style="fill:#fff;"/>
    <clipPath id="_clip3">
        <circle cx="25.557" cy="32.387" r="9.624"/>
    </clipPath>
    <g clip-path="url(#_clip3)">
        <rect x="23.496" y="25.595" width="4.121" height="13.583" style="fill:#f3775b;"/>
        <path d="M32.348,34.447L32.348,30.326L18.765,30.326L18.765,34.447L32.348,34.447Z" style="fill:#f3775b;"/>
        <path d="M52.874,24.471L4.948,49.217L4.948,54.716L52.874,54.716L52.874,24.471Z" style="fill:#2b307e;fill-opacity:0.1;"/>
    </g>
</svg>
