<?xml version="1.0" encoding="UTF-8" standalone="no"?>
<!DOCTYPE svg PUBLIC "-//W3C//DTD SVG 1.1//EN" "http://www.w3.org/Graphics/SVG/1.1/DTD/svg11.dtd">
<svg width="100%" height="100%" viewBox="0 0 64 65" version="1.1" xmlns="http://www.w3.org/2000/svg" xmlns:xlink="http://www.w3.org/1999/xlink" xml:space="preserve" xmlns:serif="http://www.serif.com/" style="fill-rule:evenodd;clip-rule:evenodd;stroke-linecap:round;stroke-miterlimit:1;">
    <rect id="Binoculars" x="0" y="0.156" width="64" height="64" style="fill:none;"/>
    <path d="M38.497,14.208C36.82,14.786 35.927,16.616 36.505,18.294C37.083,19.971 38.914,20.863 40.591,20.285C42.268,19.707 43.16,17.877 42.582,16.2C42.005,14.523 40.174,13.63 38.497,14.208Z" style="fill:#2b307e;"/>
    <clipPath id="_clip1">
        <path d="M38.497,14.208C36.82,14.786 35.927,16.616 36.505,18.294C37.083,19.971 38.914,20.863 40.591,20.285C42.268,19.707 43.16,17.877 42.582,16.2C42.005,14.523 40.174,13.63 38.497,14.208Z"/>
    </clipPath>
    <g clip-path="url(#_clip1)">
        <path d="M32.715,14.19L35.849,48.156L42,37.356L36,9.575L32.715,14.19Z" style="fill:#aaacdd;fill-opacity:0.75;"/>
    </g>
    <path d="M33.839,24.571C33.825,24.377 33.818,24.181 33.818,23.983C33.818,19.52 37.442,15.896 41.906,15.896C44.134,15.896 46.152,16.798 47.616,18.257L47.616,18.257L47.626,18.268C47.765,18.406 47.898,18.55 48.026,18.698L56.586,27.907L34.392,38.521L33.839,24.571L33.839,24.571Z" style="fill:#2b307e;"/>
    <clipPath id="_clip2">
        <path d="M33.839,24.571C33.825,24.377 33.818,24.181 33.818,23.983C33.818,19.52 37.442,15.896 41.906,15.896C44.134,15.896 46.152,16.798 47.616,18.257L47.616,18.257L47.626,18.268C47.765,18.406 47.898,18.55 48.026,18.698L56.586,27.907L34.392,38.521L33.839,24.571L33.839,24.571Z"/>
    </clipPath>
    <g clip-path="url(#_clip2)">
        <path d="M35.941,14.032L39.075,47.998L49.598,37.476L38.064,10.694L35.941,14.032Z" style="fill:#aaacdd;fill-opacity:0.75;"/>
    </g>
    <circle cx="47.612" cy="37.508" r="13.22" style="fill:#f3775b;"/>
    <path d="M47.783,24.289L47.953,24.292L48.123,24.298L48.292,24.305L48.46,24.315L48.628,24.327L48.796,24.34L48.963,24.356L49.129,24.374L49.295,24.394L49.46,24.416L49.624,24.44L49.788,24.466L49.951,24.495L50.113,24.525L50.275,24.557L50.436,24.591L50.596,24.627L50.755,24.665L50.914,24.704L51.072,24.746L51.229,24.79L51.386,24.835L51.541,24.883L51.696,24.932L51.85,24.983L52.003,25.036L52.155,25.091L52.307,25.147L52.457,25.206L52.607,25.266L52.756,25.327L52.903,25.391L53.05,25.456L53.196,25.524L53.341,25.592L53.485,25.663L53.628,25.735L53.77,25.809L53.911,25.884L54.051,25.962L54.19,26.04L54.328,26.121L54.465,26.203L54.6,26.287L54.735,26.372L54.869,26.459L55.001,26.547L55.132,26.637L55.262,26.728L55.392,26.821L55.519,26.916L55.646,27.012L55.772,27.109L55.896,27.208L56.019,27.308L56.141,27.41L56.261,27.513L56.381,27.618L56.499,27.724L56.615,27.831L56.731,27.94L56.845,28.05L56.958,28.162L57.069,28.275L57.179,28.389L57.288,28.504L57.396,28.621L57.502,28.739L57.606,28.858L57.709,28.979L57.811,29.101L57.912,29.224L58.01,29.348L58.108,29.473L58.204,29.6L58.298,29.728L58.391,29.857L58.483,29.987L58.573,30.118L58.661,30.251L58.748,30.384L58.833,30.519L58.917,30.655L58.999,30.792L59.079,30.93L59.158,31.068L59.235,31.208L59.311,31.349L59.384,31.491L59.457,31.634L59.527,31.778L59.596,31.923L59.663,32.069L59.728,32.216L59.792,32.364L59.854,32.513L59.914,32.662L59.972,32.813L60.029,32.964L60.084,33.116L60.136,33.27L60.188,33.423L60.237,33.578L60.284,33.734L60.33,33.89L60.373,34.047L60.415,34.205L60.455,34.364L60.493,34.524L60.529,34.684L60.563,34.845L60.595,35.006L60.625,35.169L60.653,35.332L60.679,35.495L60.703,35.66L60.725,35.825L60.745,35.99L60.763,36.157L60.779,36.324L60.793,36.491L60.805,36.659L60.814,36.828L60.822,36.997L60.827,37.167L60.83,37.337L60.832,37.508L60.83,37.678L60.827,37.849L60.822,38.018L60.814,38.187L60.805,38.356L60.793,38.524L60.779,38.691L60.763,38.858L60.745,39.025L60.725,39.19L60.703,39.355L60.679,39.52L60.653,39.683L60.625,39.846L60.595,40.009L60.563,40.17L60.529,40.331L60.493,40.491L60.455,40.651L60.415,40.81L60.373,40.968L60.33,41.125L60.284,41.281L60.237,41.437L60.188,41.592L60.136,41.746L60.084,41.899L60.029,42.051L59.972,42.202L59.914,42.353L59.854,42.502L59.792,42.651L59.728,42.799L59.663,42.946L59.596,43.092L59.527,43.237L59.457,43.381L59.384,43.524L59.311,43.666L59.235,43.807L59.158,43.947L59.079,44.085L58.999,44.223L58.917,44.36L58.833,44.496L58.748,44.631L58.661,44.764L58.573,44.897L58.483,45.028L58.391,45.158L58.298,45.287L58.204,45.415L58.108,45.542L58.01,45.667L57.912,45.791L57.811,45.914L57.709,46.036L57.606,46.157L57.502,46.276L57.396,46.394L57.288,46.511L57.179,46.626L57.069,46.741L56.958,46.853L56.845,46.965L56.731,47.075L56.615,47.184L56.499,47.291L56.381,47.397L56.261,47.502L56.141,47.605L56.019,47.707L55.896,47.807L55.772,47.906L55.646,48.003L55.519,48.099L55.392,48.194L55.262,48.287L55.132,48.378L55.001,48.468L54.869,48.556L54.735,48.643L54.6,48.728L54.465,48.812L54.328,48.894L54.19,48.975L54.051,49.053L53.911,49.131L53.77,49.206L53.628,49.28L53.485,49.352L53.341,49.423L53.196,49.491L53.05,49.559L52.903,49.624L52.756,49.688L52.607,49.749L52.457,49.81L52.307,49.868L52.155,49.924L52.003,49.979L51.85,50.032L51.696,50.083L51.541,50.132L51.386,50.18L51.229,50.225L51.072,50.269L50.914,50.311L50.755,50.35L50.596,50.388L50.436,50.424L50.275,50.458L50.113,50.49L49.951,50.52L49.788,50.549L49.624,50.575L49.46,50.599L49.295,50.621L49.129,50.641L48.963,50.659L48.796,50.675L48.628,50.689L48.46,50.7L48.292,50.71L48.123,50.717L47.953,50.723L47.783,50.726L47.612,50.727L47.441,50.726L47.271,50.723L47.101,50.717L46.932,50.71L46.764,50.7L46.595,50.689L46.428,50.675L46.261,50.659L46.095,50.641L45.929,50.621L45.764,50.599L45.6,50.575L45.436,50.549L45.273,50.52L45.111,50.49L44.949,50.458L44.788,50.424L44.628,50.388L44.469,50.35L44.31,50.311L44.152,50.269L43.995,50.225L43.838,50.18L43.683,50.132L43.528,50.083L43.374,50.032L43.221,49.979L43.069,49.924L42.917,49.868L42.767,49.81L42.617,49.749L42.468,49.688L42.321,49.624L42.174,49.559L42.028,49.491L41.883,49.423L41.739,49.352L41.596,49.28L41.454,49.206L41.313,49.131L41.173,49.053L41.034,48.975L40.896,48.894L40.759,48.812L40.624,48.728L40.489,48.643L40.355,48.556L40.223,48.468L40.092,48.378L39.961,48.287L39.832,48.194L39.705,48.099L39.578,48.003L39.452,47.906L39.328,47.807L39.205,47.707L39.083,47.605L38.963,47.502L38.843,47.397L38.725,47.291L38.609,47.184L38.493,47.075L38.379,46.965L38.266,46.853L38.155,46.741L38.045,46.626L37.936,46.511L37.828,46.394L37.722,46.276L37.618,46.157L37.514,46.036L37.413,45.914L37.312,45.791L37.213,45.667L37.116,45.542L37.02,45.415L36.926,45.287L36.833,45.158L36.741,45.028L36.651,44.897L36.563,44.764L36.476,44.631L36.391,44.496L36.307,44.36L36.225,44.223L36.145,44.085L36.066,43.947L35.989,43.807L35.913,43.666L35.84,43.524L35.767,43.381L35.697,43.237L35.628,43.092L35.561,42.946L35.496,42.799L35.432,42.651L35.37,42.502L35.31,42.353L35.252,42.202L35.195,42.051L35.14,41.899L35.087,41.746L35.036,41.592L34.987,41.437L34.94,41.281L34.894,41.125L34.851,40.968L34.809,40.81L34.769,40.651L34.731,40.491L34.695,40.331L34.661,40.17L34.629,40.009L34.599,39.846L34.571,39.683L34.545,39.52L34.521,39.355L34.499,39.19L34.479,39.025L34.461,38.858L34.445,38.691L34.431,38.524L34.419,38.356L34.41,38.187L34.402,38.018L34.397,37.849L34.393,37.678L34.392,37.508L34.393,37.337L34.397,37.167L34.402,36.997L34.41,36.828L34.419,36.659L34.431,36.491L34.445,36.324L34.461,36.157L34.479,35.99L34.499,35.825L34.521,35.66L34.545,35.495L34.571,35.332L34.599,35.169L34.629,35.006L34.661,34.845L34.695,34.684L34.731,34.524L34.769,34.364L34.809,34.205L34.851,34.047L34.894,33.89L34.94,33.734L34.987,33.578L35.036,33.423L35.087,33.27L35.14,33.116L35.195,32.964L35.252,32.813L35.31,32.662L35.37,32.513L35.432,32.364L35.496,32.216L35.561,32.069L35.628,31.923L35.697,31.778L35.767,31.634L35.84,31.491L35.913,31.349L35.989,31.208L36.066,31.068L36.145,30.93L36.225,30.792L36.307,30.655L36.391,30.519L36.476,30.384L36.563,30.251L36.651,30.118L36.741,29.987L36.833,29.857L36.926,29.728L37.02,29.6L37.116,29.473L37.213,29.348L37.312,29.224L37.413,29.101L37.514,28.979L37.618,28.858L37.722,28.739L37.828,28.621L37.936,28.504L38.045,28.389L38.155,28.275L38.266,28.162L38.379,28.05L38.493,27.94L38.609,27.831L38.725,27.724L38.843,27.618L38.963,27.513L39.083,27.41L39.205,27.308L39.328,27.208L39.452,27.109L39.578,27.012L39.705,26.916L39.832,26.821L39.961,26.728L40.092,26.637L40.223,26.547L40.355,26.459L40.489,26.372L40.624,26.287L40.759,26.203L40.896,26.121L41.034,26.04L41.173,25.962L41.313,25.884L41.454,25.809L41.596,25.735L41.739,25.663L41.883,25.592L42.028,25.524L42.174,25.456L42.321,25.391L42.468,25.327L42.617,25.266L42.767,25.206L42.917,25.147L43.069,25.091L43.221,25.036L43.374,24.983L43.528,24.932L43.683,24.883L43.838,24.835L43.995,24.79L44.152,24.746L44.31,24.704L44.469,24.665L44.628,24.627L44.788,24.591L44.949,24.557L45.111,24.525L45.273,24.495L45.436,24.466L45.6,24.44L45.764,24.416L45.929,24.394L46.095,24.374L46.261,24.356L46.428,24.34L46.595,24.327L46.764,24.315L46.932,24.305L47.101,24.298L47.271,24.292L47.441,24.289L47.612,24.288L47.783,24.289ZM47.466,26.289L47.322,26.292L47.177,26.296L47.033,26.303L46.89,26.311L46.747,26.321L46.605,26.333L46.464,26.346L46.322,26.361L46.182,26.378L46.042,26.397L45.902,26.417L45.763,26.44L45.625,26.463L45.488,26.489L45.35,26.516L45.214,26.545L45.078,26.575L44.943,26.608L44.809,26.641L44.675,26.677L44.541,26.714L44.409,26.752L44.277,26.792L44.146,26.834L44.016,26.877L43.886,26.922L43.757,26.969L43.629,27.016L43.501,27.066L43.374,27.117L43.248,27.169L43.123,27.223L42.998,27.279L42.874,27.336L42.751,27.394L42.629,27.454L42.508,27.515L42.388,27.578L42.268,27.642L42.149,27.707L42.031,27.774L41.915,27.842L41.798,27.912L41.683,27.983L41.569,28.055L41.455,28.129L41.343,28.204L41.231,28.28L41.121,28.358L41.011,28.437L40.902,28.517L40.795,28.599L40.688,28.681L40.583,28.765L40.479,28.85L40.375,28.937L40.272,29.025L40.171,29.114L40.071,29.204L39.972,29.295L39.873,29.388L39.776,29.481L39.68,29.576L39.586,29.672L39.492,29.769L39.4,29.867L39.308,29.966L39.218,30.066L39.129,30.168L39.042,30.27L38.955,30.374L38.87,30.479L38.786,30.584L38.703,30.691L38.622,30.798L38.541,30.907L38.462,31.016L38.385,31.127L38.309,31.238L38.234,31.351L38.16,31.464L38.087,31.579L38.016,31.694L37.947,31.81L37.878,31.927L37.812,32.045L37.746,32.163L37.682,32.283L37.619,32.404L37.558,32.525L37.498,32.647L37.44,32.77L37.383,32.894L37.328,33.018L37.274,33.144L37.221,33.269L37.17,33.396L37.121,33.524L37.073,33.652L37.027,33.781L36.982,33.911L36.939,34.041L36.897,34.173L36.857,34.305L36.818,34.437L36.781,34.57L36.746,34.704L36.712,34.839L36.68,34.974L36.649,35.11L36.62,35.246L36.593,35.383L36.568,35.521L36.544,35.659L36.522,35.798L36.502,35.937L36.483,36.078L36.466,36.218L36.451,36.359L36.437,36.501L36.425,36.643L36.415,36.785L36.407,36.929L36.401,37.073L36.396,37.218L36.393,37.362L36.392,37.508L36.393,37.653L36.396,37.797L36.401,37.942L36.407,38.086L36.415,38.23L36.425,38.372L36.437,38.514L36.451,38.656L36.466,38.797L36.483,38.937L36.502,39.078L36.522,39.217L36.544,39.356L36.568,39.494L36.593,39.632L36.62,39.769L36.649,39.905L36.68,40.041L36.712,40.176L36.746,40.311L36.781,40.445L36.818,40.578L36.857,40.71L36.897,40.842L36.939,40.974L36.982,41.104L37.027,41.234L37.073,41.363L37.121,41.491L37.17,41.619L37.221,41.746L37.274,41.872L37.328,41.997L37.383,42.121L37.44,42.245L37.498,42.368L37.558,42.49L37.619,42.611L37.682,42.732L37.746,42.852L37.812,42.97L37.878,43.088L37.947,43.205L38.017,43.321L38.087,43.436L38.16,43.551L38.234,43.665L38.309,43.777L38.385,43.888L38.462,43.999L38.541,44.108L38.622,44.217L38.703,44.325L38.786,44.431L38.87,44.536L38.955,44.641L39.042,44.745L39.129,44.847L39.218,44.949L39.308,45.049L39.4,45.148L39.492,45.246L39.586,45.343L39.68,45.439L39.776,45.534L39.873,45.628L39.972,45.72L40.071,45.811L40.171,45.901L40.272,45.99L40.375,46.078L40.479,46.165L40.583,46.25L40.688,46.334L40.795,46.416L40.902,46.498L41.011,46.578L41.121,46.657L41.231,46.735L41.343,46.811L41.455,46.886L41.569,46.96L41.683,47.032L41.798,47.103L41.915,47.173L42.031,47.241L42.149,47.308L42.268,47.373L42.388,47.437L42.508,47.5L42.629,47.561L42.751,47.621L42.874,47.679L42.998,47.736L43.123,47.792L43.248,47.846L43.374,47.898L43.501,47.949L43.629,47.999L43.757,48.047L43.886,48.093L44.015,48.138L44.146,48.181L44.277,48.223L44.409,48.263L44.542,48.301L44.675,48.338L44.809,48.374L44.943,48.408L45.078,48.44L45.214,48.47L45.351,48.499L45.488,48.526L45.625,48.552L45.763,48.575L45.902,48.598L46.042,48.618L46.182,48.637L46.322,48.654L46.464,48.669L46.605,48.683L46.747,48.694L46.89,48.704L47.034,48.712L47.177,48.719L47.322,48.723L47.467,48.726L47.612,48.727L47.757,48.726L47.902,48.723L48.047,48.719L48.19,48.712L48.334,48.704L48.476,48.694L48.619,48.683L48.76,48.669L48.902,48.654L49.042,48.637L49.182,48.618L49.322,48.598L49.46,48.575L49.599,48.552L49.736,48.526L49.873,48.499L50.01,48.47L50.146,48.44L50.281,48.408L50.415,48.374L50.549,48.338L50.682,48.301L50.815,48.263L50.947,48.223L51.078,48.181L51.208,48.138L51.338,48.093L51.467,48.047L51.595,47.999L51.723,47.949L51.85,47.898L51.976,47.846L52.101,47.792L52.226,47.736L52.35,47.679L52.472,47.621L52.595,47.561L52.716,47.5L52.837,47.437L52.956,47.373L53.075,47.308L53.193,47.241L53.31,47.173L53.426,47.103L53.541,47.032L53.655,46.96L53.769,46.886L53.881,46.811L53.993,46.735L54.103,46.657L54.213,46.578L54.322,46.498L54.429,46.416L54.535,46.334L54.641,46.25L54.746,46.164L54.849,46.078L54.951,45.99L55.053,45.901L55.153,45.811L55.253,45.72L55.351,45.627L55.448,45.534L55.544,45.439L55.639,45.343L55.732,45.246L55.824,45.148L55.916,45.049L56.006,44.948L56.095,44.847L56.182,44.745L56.269,44.641L56.354,44.537L56.438,44.431L56.521,44.324L56.603,44.217L56.683,44.108L56.761,43.999L56.839,43.888L56.916,43.776L56.991,43.664L57.064,43.551L57.137,43.436L57.208,43.321L57.277,43.205L57.345,43.088L57.412,42.97L57.478,42.852L57.542,42.732L57.605,42.611L57.666,42.49L57.725,42.368L57.784,42.245L57.841,42.121L57.896,41.997L57.95,41.872L58.003,41.745L58.054,41.618L58.103,41.491L58.151,41.363L58.197,41.234L58.242,41.104L58.285,40.974L58.327,40.843L58.367,40.711L58.406,40.578L58.443,40.445L58.478,40.311L58.512,40.176L58.544,40.041L58.575,39.905L58.603,39.769L58.631,39.632L58.656,39.494L58.68,39.356L58.702,39.217L58.723,39.078L58.741,38.938L58.758,38.797L58.773,38.656L58.787,38.515L58.799,38.372L58.809,38.229L58.817,38.086L58.823,37.942L58.828,37.798L58.831,37.653L58.831,37.508L58.831,37.362L58.828,37.217L58.823,37.073L58.817,36.929L58.809,36.786L58.799,36.643L58.787,36.5L58.773,36.359L58.758,36.218L58.741,36.077L58.723,35.938L58.702,35.798L58.68,35.659L58.656,35.521L58.631,35.383L58.603,35.246L58.575,35.11L58.544,34.974L58.512,34.839L58.478,34.704L58.443,34.57L58.406,34.437L58.367,34.304L58.327,34.173L58.285,34.041L58.242,33.911L58.197,33.781L58.151,33.652L58.103,33.524L58.054,33.397L58.003,33.27L57.95,33.144L57.896,33.018L57.841,32.894L57.784,32.77L57.726,32.647L57.666,32.525L57.605,32.404L57.542,32.283L57.478,32.163L57.412,32.045L57.345,31.927L57.277,31.81L57.208,31.694L57.136,31.579L57.064,31.464L56.991,31.351L56.916,31.239L56.839,31.127L56.761,31.016L56.683,30.907L56.603,30.798L56.521,30.691L56.438,30.584L56.354,30.478L56.269,30.374L56.182,30.27L56.095,30.168L56.006,30.067L55.916,29.966L55.824,29.867L55.732,29.769L55.639,29.672L55.544,29.576L55.448,29.481L55.351,29.388L55.252,29.295L55.153,29.204L55.053,29.114L54.951,29.025L54.849,28.937L54.746,28.851L54.641,28.766L54.535,28.681L54.429,28.599L54.322,28.517L54.213,28.437L54.103,28.358L53.993,28.28L53.881,28.204L53.769,28.129L53.655,28.055L53.541,27.983L53.426,27.912L53.31,27.842L53.192,27.774L53.075,27.707L52.956,27.642L52.836,27.578L52.716,27.515L52.595,27.454L52.472,27.394L52.35,27.336L52.226,27.279L52.101,27.223L51.976,27.169L51.85,27.117L51.723,27.066L51.595,27.016L51.467,26.969L51.338,26.922L51.208,26.877L51.078,26.834L50.947,26.792L50.815,26.752L50.682,26.714L50.549,26.677L50.415,26.641L50.281,26.608L50.146,26.575L50.01,26.545L49.874,26.516L49.736,26.489L49.599,26.463L49.461,26.44L49.322,26.417L49.182,26.397L49.042,26.378L48.902,26.361L48.76,26.346L48.619,26.333L48.476,26.321L48.334,26.311L48.191,26.303L48.047,26.296L47.902,26.292L47.758,26.289L47.612,26.288L47.466,26.289Z" style="fill:#2b307e;"/>
    <path d="M40.161,37.476C40.161,33.289 43.561,29.889 47.748,29.889" style="fill:none;stroke:#fff;stroke-opacity:0.698039;stroke-width:2.12px;"/>
    <path d="M24.732,14.177C26.409,14.755 27.301,16.585 26.723,18.262C26.146,19.939 24.315,20.832 22.638,20.254C20.961,19.676 20.068,17.846 20.646,16.168C21.224,14.491 23.055,13.599 24.732,14.177Z" style="fill:#2b307e;"/>
    <path d="M15.613,18.226C17.076,16.767 19.095,15.864 21.323,15.864C25.786,15.864 29.41,19.488 29.41,23.952C29.41,24.15 29.403,24.346 29.389,24.54L29.39,24.54L28.836,38.49L6.643,27.875L15.203,18.667C15.331,18.519 15.464,18.375 15.602,18.237L15.612,18.226L15.613,18.226Z" style="fill:#2b307e;"/>
    <clipPath id="_clip3">
        <path d="M15.613,18.226C17.076,16.767 19.095,15.864 21.323,15.864C25.786,15.864 29.41,19.488 29.41,23.952C29.41,24.15 29.403,24.346 29.389,24.54L29.39,24.54L28.836,38.49L6.643,27.875L15.203,18.667C15.331,18.519 15.464,18.375 15.602,18.237L15.612,18.226L15.613,18.226Z"/>
    </clipPath>
    <g clip-path="url(#_clip3)">
        <path d="M24.423,12.929L9.148,35.261C9.148,35.261 -0.251,28.363 -0.147,28.892C-0.043,29.421 14.713,12.983 14.713,12.983L24.423,12.929Z" style="fill:#aaacdd;fill-opacity:0.712161;"/>
    </g>
    <circle cx="15.617" cy="37.476" r="13.22" style="fill:#f3775b;"/>
    <path d="M15.787,24.258L15.958,24.261L16.127,24.266L16.297,24.274L16.465,24.284L16.633,24.295L16.801,24.309L16.968,24.325L17.134,24.343L17.299,24.363L17.464,24.385L17.629,24.409L17.792,24.435L17.955,24.463L18.118,24.494L18.279,24.526L18.44,24.56L18.601,24.596L18.76,24.633L18.919,24.673L19.077,24.715L19.234,24.759L19.39,24.804L19.546,24.852L19.701,24.901L19.855,24.952L20.008,25.005L20.16,25.06L20.311,25.116L20.462,25.174L20.612,25.234L20.76,25.296L20.908,25.36L21.055,25.425L21.201,25.492L21.346,25.561L21.49,25.632L21.633,25.704L21.775,25.778L21.916,25.853L22.056,25.93L22.195,26.009L22.333,26.09L22.469,26.172L22.605,26.255L22.74,26.341L22.873,26.427L23.006,26.516L23.137,26.606L23.267,26.697L23.396,26.79L23.524,26.884L23.651,26.98L23.776,27.078L23.9,27.177L24.024,27.277L24.145,27.379L24.266,27.482L24.385,27.587L24.503,27.693L24.62,27.8L24.736,27.909L24.85,28.019L24.962,28.131L25.074,28.243L25.184,28.358L25.293,28.473L25.4,28.59L25.506,28.708L25.611,28.827L25.714,28.948L25.816,29.07L25.916,29.193L26.015,29.317L26.113,29.442L26.209,29.569L26.303,29.697L26.396,29.826L26.487,29.956L26.577,30.087L26.666,30.22L26.752,30.353L26.838,30.488L26.921,30.624L27.003,30.761L27.084,30.898L27.163,31.037L27.24,31.177L27.315,31.318L27.389,31.46L27.461,31.603L27.532,31.747L27.601,31.892L27.668,32.038L27.733,32.185L27.797,32.333L27.859,32.481L27.919,32.631L27.977,32.782L28.034,32.933L28.088,33.085L28.141,33.238L28.192,33.392L28.242,33.547L28.289,33.703L28.334,33.859L28.378,34.016L28.42,34.174L28.46,34.333L28.497,34.492L28.533,34.653L28.567,34.814L28.6,34.975L28.63,35.138L28.658,35.301L28.684,35.464L28.708,35.629L28.73,35.794L28.75,35.959L28.768,36.126L28.784,36.292L28.798,36.46L28.809,36.628L28.819,36.797L28.827,36.966L28.832,37.135L28.835,37.306L28.836,37.476L28.835,37.647L28.832,37.817L28.827,37.987L28.819,38.156L28.809,38.325L28.798,38.493L28.784,38.66L28.768,38.827L28.75,38.993L28.73,39.159L28.708,39.324L28.684,39.488L28.658,39.652L28.63,39.815L28.6,39.978L28.567,40.139L28.533,40.3L28.497,40.46L28.46,40.62L28.42,40.779L28.378,40.936L28.334,41.094L28.289,41.25L28.242,41.406L28.192,41.56L28.141,41.714L28.088,41.867L28.034,42.02L27.977,42.171L27.919,42.322L27.859,42.471L27.797,42.62L27.733,42.768L27.668,42.915L27.601,43.061L27.532,43.205L27.461,43.349L27.389,43.492L27.315,43.634L27.24,43.775L27.163,43.915L27.084,44.054L27.003,44.192L26.921,44.329L26.838,44.465L26.752,44.599L26.666,44.733L26.577,44.865L26.487,44.997L26.396,45.127L26.303,45.256L26.209,45.384L26.113,45.51L26.015,45.636L25.916,45.76L25.816,45.883L25.714,46.005L25.611,46.126L25.506,46.245L25.4,46.363L25.293,46.48L25.184,46.595L25.074,46.709L24.962,46.822L24.85,46.934L24.736,47.044L24.62,47.153L24.503,47.26L24.385,47.366L24.266,47.471L24.145,47.574L24.024,47.676L23.9,47.776L23.776,47.875L23.651,47.972L23.524,48.068L23.396,48.163L23.267,48.256L23.137,48.347L23.006,48.437L22.873,48.525L22.74,48.612L22.605,48.697L22.469,48.781L22.333,48.863L22.195,48.943L22.056,49.022L21.916,49.099L21.775,49.175L21.633,49.249L21.49,49.321L21.346,49.392L21.201,49.46L21.055,49.527L20.908,49.593L20.76,49.656L20.612,49.718L20.462,49.778L20.311,49.837L20.16,49.893L20.008,49.948L19.855,50.001L19.701,50.052L19.546,50.101L19.39,50.149L19.234,50.194L19.077,50.238L18.919,50.279L18.76,50.319L18.601,50.357L18.44,50.393L18.279,50.427L18.118,50.459L17.955,50.489L17.792,50.517L17.629,50.544L17.464,50.568L17.299,50.59L17.134,50.61L16.968,50.628L16.801,50.644L16.633,50.657L16.465,50.669L16.297,50.679L16.127,50.686L15.958,50.692L15.787,50.695L15.617,50.696L15.446,50.695L15.276,50.692L15.106,50.686L14.937,50.679L14.768,50.669L14.6,50.657L14.433,50.644L14.266,50.628L14.1,50.61L13.934,50.59L13.769,50.568L13.605,50.544L13.441,50.517L13.278,50.489L13.116,50.459L12.954,50.427L12.793,50.393L12.633,50.357L12.473,50.319L12.315,50.279L12.157,50.238L11.999,50.194L11.843,50.149L11.687,50.101L11.533,50.052L11.379,50.001L11.226,49.948L11.073,49.893L10.922,49.837L10.771,49.778L10.622,49.718L10.473,49.656L10.325,49.593L10.178,49.527L10.033,49.46L9.888,49.392L9.744,49.321L9.601,49.249L9.459,49.175L9.318,49.099L9.178,49.022L9.039,48.943L8.901,48.863L8.764,48.781L8.628,48.697L8.494,48.612L8.36,48.525L8.228,48.437L8.096,48.347L7.966,48.256L7.837,48.163L7.709,48.068L7.583,47.972L7.457,47.875L7.333,47.776L7.21,47.676L7.088,47.574L6.967,47.471L6.848,47.366L6.73,47.26L6.613,47.153L6.498,47.044L6.384,46.934L6.271,46.822L6.159,46.709L6.049,46.595L5.94,46.48L5.833,46.363L5.727,46.245L5.622,46.126L5.519,46.005L5.417,45.883L5.317,45.76L5.218,45.636L5.121,45.51L5.025,45.384L4.93,45.256L4.837,45.127L4.746,44.997L4.656,44.865L4.568,44.733L4.481,44.599L4.396,44.465L4.312,44.329L4.23,44.192L4.15,44.054L4.071,43.915L3.994,43.775L3.918,43.634L3.844,43.492L3.772,43.349L3.702,43.205L3.633,43.061L3.566,42.915L3.5,42.768L3.437,42.62L3.375,42.471L3.315,42.322L3.256,42.171L3.2,42.02L3.145,41.867L3.092,41.714L3.041,41.56L2.992,41.406L2.944,41.25L2.899,41.094L2.855,40.936L2.814,40.779L2.774,40.62L2.736,40.46L2.7,40.3L2.666,40.139L2.634,39.978L2.604,39.815L2.576,39.652L2.55,39.488L2.525,39.324L2.503,39.159L2.483,38.993L2.465,38.827L2.45,38.66L2.436,38.493L2.424,38.325L2.414,38.156L2.407,37.987L2.401,37.817L2.398,37.647L2.397,37.476L2.398,37.306L2.401,37.135L2.407,36.966L2.414,36.797L2.424,36.628L2.436,36.46L2.45,36.292L2.465,36.126L2.483,35.959L2.503,35.794L2.525,35.629L2.55,35.464L2.576,35.301L2.604,35.138L2.634,34.975L2.666,34.814L2.7,34.653L2.736,34.492L2.774,34.333L2.814,34.174L2.855,34.016L2.899,33.859L2.944,33.703L2.992,33.547L3.041,33.392L3.092,33.238L3.145,33.085L3.2,32.933L3.256,32.782L3.315,32.631L3.375,32.481L3.437,32.333L3.5,32.185L3.566,32.038L3.633,31.892L3.702,31.747L3.772,31.603L3.844,31.46L3.918,31.318L3.994,31.177L4.071,31.037L4.15,30.898L4.23,30.761L4.312,30.624L4.396,30.488L4.481,30.353L4.568,30.22L4.656,30.087L4.746,29.956L4.837,29.826L4.93,29.697L5.025,29.569L5.121,29.442L5.218,29.317L5.317,29.193L5.417,29.07L5.519,28.948L5.622,28.827L5.727,28.708L5.833,28.59L5.94,28.473L6.049,28.358L6.159,28.243L6.271,28.131L6.384,28.019L6.498,27.909L6.613,27.8L6.73,27.693L6.848,27.587L6.967,27.482L7.088,27.379L7.21,27.277L7.333,27.177L7.457,27.078L7.583,26.98L7.709,26.884L7.837,26.79L7.966,26.697L8.096,26.606L8.228,26.516L8.36,26.427L8.494,26.341L8.628,26.255L8.764,26.172L8.901,26.09L9.039,26.009L9.178,25.93L9.318,25.853L9.459,25.778L9.601,25.704L9.744,25.632L9.888,25.561L10.033,25.492L10.178,25.425L10.325,25.36L10.473,25.296L10.622,25.234L10.771,25.174L10.922,25.116L11.073,25.06L11.226,25.005L11.379,24.952L11.533,24.901L11.687,24.852L11.843,24.804L11.999,24.759L12.157,24.715L12.315,24.673L12.473,24.633L12.633,24.596L12.793,24.56L12.954,24.526L13.116,24.494L13.278,24.463L13.441,24.435L13.605,24.409L13.769,24.385L13.934,24.363L14.1,24.343L14.266,24.325L14.433,24.309L14.6,24.295L14.768,24.284L14.937,24.274L15.106,24.266L15.276,24.261L15.446,24.258L15.617,24.257L15.787,24.258ZM15.471,26.258L15.326,26.261L15.182,26.265L15.038,26.271L14.895,26.28L14.752,26.29L14.61,26.301L14.468,26.315L14.327,26.33L14.186,26.347L14.046,26.366L13.907,26.386L13.768,26.408L13.63,26.432L13.493,26.458L13.355,26.485L13.219,26.514L13.083,26.544L12.948,26.576L12.813,26.61L12.679,26.645L12.546,26.682L12.414,26.721L12.282,26.761L12.151,26.803L12.02,26.846L11.89,26.891L11.762,26.937L11.633,26.985L11.505,27.035L11.379,27.086L11.253,27.138L11.128,27.192L11.003,27.248L10.879,27.304L10.756,27.363L10.634,27.423L10.513,27.484L10.392,27.547L10.273,27.611L10.154,27.676L10.036,27.743L9.919,27.811L9.803,27.881L9.688,27.952L9.573,28.024L9.46,28.098L9.348,28.173L9.236,28.249L9.125,28.327L9.016,28.406L8.907,28.486L8.8,28.568L8.693,28.65L8.587,28.734L8.483,28.82L8.38,28.906L8.277,28.994L8.176,29.083L8.075,29.173L7.976,29.264L7.878,29.357L7.781,29.45L7.685,29.545L7.59,29.641L7.497,29.738L7.405,29.836L7.313,29.935L7.223,30.036L7.134,30.137L7.046,30.239L6.96,30.343L6.875,30.447L6.791,30.553L6.708,30.66L6.626,30.767L6.546,30.876L6.467,30.985L6.39,31.096L6.313,31.207L6.238,31.32L6.164,31.433L6.092,31.547L6.021,31.663L5.952,31.778L5.883,31.896L5.816,32.014L5.751,32.132L5.687,32.252L5.624,32.373L5.563,32.494L5.503,32.616L5.445,32.739L5.388,32.863L5.332,32.987L5.279,33.112L5.226,33.239L5.175,33.366L5.126,33.493L5.078,33.621L5.031,33.75L4.986,33.88L4.943,34.01L4.902,34.141L4.861,34.273L4.823,34.406L4.786,34.539L4.75,34.673L4.717,34.808L4.685,34.943L4.654,35.078L4.625,35.215L4.598,35.352L4.573,35.49L4.549,35.628L4.527,35.767L4.506,35.906L4.487,36.046L4.47,36.187L4.455,36.328L4.442,36.469L4.43,36.612L4.42,36.755L4.412,36.898L4.405,37.042L4.401,37.186L4.398,37.331L4.397,37.476L4.398,37.622L4.401,37.767L4.405,37.911L4.412,38.055L4.42,38.198L4.43,38.341L4.442,38.484L4.455,38.625L4.47,38.766L4.487,38.907L4.506,39.046L4.527,39.186L4.549,39.325L4.573,39.463L4.598,39.601L4.625,39.738L4.654,39.874L4.685,40.01L4.717,40.145L4.75,40.28L4.786,40.414L4.823,40.547L4.861,40.679L4.902,40.811L4.943,40.942L4.986,41.073L5.031,41.202L5.078,41.332L5.126,41.46L5.175,41.587L5.226,41.714L5.279,41.84L5.332,41.966L5.388,42.09L5.445,42.214L5.503,42.337L5.563,42.459L5.624,42.58L5.687,42.701L5.751,42.82L5.816,42.939L5.883,43.057L5.952,43.174L6.021,43.29L6.092,43.405L6.165,43.52L6.238,43.633L6.313,43.746L6.39,43.857L6.467,43.968L6.546,44.077L6.626,44.186L6.708,44.293L6.791,44.4L6.875,44.506L6.96,44.61L7.046,44.713L7.134,44.816L7.223,44.917L7.313,45.017L7.405,45.117L7.497,45.215L7.59,45.312L7.685,45.408L7.781,45.503L7.878,45.596L7.976,45.689L8.075,45.78L8.176,45.87L8.277,45.959L8.38,46.047L8.483,46.133L8.587,46.218L8.693,46.302L8.8,46.385L8.907,46.467L9.016,46.547L9.125,46.626L9.236,46.703L9.348,46.78L9.46,46.855L9.573,46.929L9.688,47.001L9.803,47.072L9.919,47.141L10.036,47.21L10.154,47.277L10.273,47.342L10.392,47.406L10.513,47.469L10.634,47.53L10.756,47.59L10.879,47.648L11.003,47.705L11.128,47.761L11.253,47.815L11.379,47.867L11.505,47.918L11.633,47.967L11.761,48.015L11.89,48.062L12.02,48.107L12.151,48.15L12.282,48.192L12.414,48.232L12.546,48.27L12.68,48.307L12.814,48.343L12.948,48.376L13.083,48.408L13.219,48.439L13.355,48.468L13.493,48.495L13.63,48.521L13.768,48.544L13.907,48.566L14.046,48.587L14.187,48.606L14.327,48.623L14.468,48.638L14.61,48.651L14.752,48.663L14.895,48.673L15.038,48.681L15.182,48.688L15.326,48.692L15.471,48.695L15.617,48.696L15.762,48.695L15.907,48.692L16.051,48.688L16.195,48.681L16.339,48.673L16.481,48.663L16.623,48.651L16.765,48.638L16.906,48.623L17.047,48.606L17.187,48.587L17.327,48.566L17.465,48.544L17.603,48.521L17.741,48.495L17.878,48.468L18.015,48.439L18.15,48.408L18.286,48.376L18.42,48.343L18.554,48.307L18.687,48.27L18.82,48.232L18.951,48.192L19.083,48.15L19.213,48.107L19.343,48.062L19.472,48.015L19.6,47.967L19.728,47.918L19.855,47.867L19.981,47.815L20.106,47.761L20.23,47.705L20.354,47.648L20.477,47.59L20.599,47.53L20.721,47.469L20.841,47.406L20.96,47.342L21.079,47.277L21.197,47.21L21.314,47.142L21.431,47.072L21.546,47.001L21.66,46.929L21.773,46.855L21.886,46.78L21.997,46.703L22.108,46.626L22.218,46.547L22.326,46.467L22.434,46.385L22.54,46.302L22.646,46.218L22.75,46.133L22.854,46.047L22.956,45.959L23.058,45.87L23.158,45.78L23.257,45.689L23.355,45.596L23.453,45.502L23.548,45.408L23.643,45.312L23.737,45.215L23.829,45.117L23.92,45.018L24.01,44.918L24.099,44.816L24.187,44.713L24.273,44.61L24.359,44.505L24.443,44.4L24.526,44.293L24.607,44.186L24.687,44.077L24.766,43.967L24.844,43.857L24.92,43.746L24.995,43.633L25.069,43.52L25.141,43.405L25.212,43.29L25.282,43.174L25.35,43.057L25.417,42.939L25.482,42.82L25.547,42.701L25.609,42.58L25.67,42.459L25.73,42.337L25.789,42.214L25.845,42.09L25.901,41.966L25.955,41.84L26.007,41.714L26.058,41.588L26.108,41.46L26.156,41.331L26.202,41.202L26.247,41.073L26.29,40.942L26.332,40.811L26.372,40.679L26.411,40.547L26.448,40.414L26.483,40.28L26.517,40.145L26.549,40.01L26.579,39.874L26.608,39.738L26.635,39.601L26.661,39.463L26.685,39.325L26.707,39.186L26.727,39.047L26.746,38.906L26.763,38.766L26.778,38.625L26.792,38.483L26.803,38.341L26.813,38.198L26.822,38.055L26.828,37.911L26.833,37.766L26.835,37.621L26.836,37.476L26.835,37.331L26.833,37.186L26.828,37.042L26.822,36.898L26.813,36.754L26.803,36.612L26.792,36.47L26.778,36.328L26.763,36.187L26.746,36.047L26.727,35.906L26.707,35.767L26.685,35.628L26.661,35.49L26.635,35.352L26.608,35.215L26.579,35.078L26.549,34.943L26.517,34.808L26.483,34.673L26.448,34.539L26.411,34.406L26.372,34.274L26.332,34.142L26.29,34.01L26.247,33.88L26.202,33.75L26.156,33.621L26.108,33.493L26.058,33.365L26.007,33.238L25.955,33.112L25.901,32.987L25.846,32.863L25.789,32.739L25.73,32.616L25.67,32.494L25.609,32.373L25.547,32.252L25.482,32.132L25.417,32.014L25.35,31.896L25.282,31.779L25.212,31.662L25.141,31.547L25.069,31.433L24.995,31.319L24.92,31.207L24.844,31.096L24.766,30.985L24.687,30.876L24.607,30.767L24.526,30.659L24.443,30.553L24.359,30.447L24.273,30.343L24.187,30.239L24.099,30.137L24.01,30.035L23.92,29.935L23.829,29.836L23.737,29.738L23.643,29.641L23.548,29.545L23.452,29.45L23.355,29.356L23.257,29.264L23.158,29.173L23.058,29.083L22.956,28.994L22.854,28.906L22.75,28.819L22.646,28.734L22.54,28.65L22.434,28.568L22.326,28.486L22.218,28.406L22.108,28.327L21.997,28.249L21.886,28.173L21.773,28.098L21.66,28.024L21.546,27.952L21.43,27.881L21.314,27.811L21.197,27.743L21.079,27.676L20.96,27.61L20.841,27.546L20.721,27.484L20.599,27.423L20.477,27.363L20.354,27.305L20.23,27.247L20.106,27.192L19.981,27.138L19.855,27.086L19.728,27.035L19.6,26.985L19.472,26.937L19.343,26.891L19.213,26.846L19.083,26.803L18.951,26.761L18.82,26.721L18.687,26.682L18.554,26.646L18.42,26.61L18.286,26.576L18.15,26.544L18.015,26.514L17.878,26.485L17.741,26.458L17.604,26.432L17.465,26.408L17.326,26.386L17.187,26.366L17.047,26.347L16.906,26.33L16.765,26.315L16.623,26.301L16.481,26.29L16.339,26.28L16.195,26.271L16.051,26.265L15.907,26.261L15.762,26.258L15.617,26.257L15.471,26.258Z" style="fill:#2b307e;"/>
    <path d="M28.898,21.286C28.957,19.863 30.13,18.726 31.566,18.726C33.005,18.726 34.18,19.867 34.235,21.293L34.237,21.293L35.219,28.605L27.914,28.662L28.896,21.286L28.898,21.286Z" style="fill:#2b307e;"/>
    <clipPath id="_clip4">
        <path d="M28.898,21.286C28.957,19.863 30.13,18.726 31.566,18.726C33.005,18.726 34.18,19.867 34.235,21.293L34.237,21.293L35.219,28.605L27.914,28.662L28.896,21.286L28.898,21.286Z"/>
    </clipPath>
    <g clip-path="url(#_clip4)">
        <path d="M32,18.156L29.423,18.156L28,30.156L32,31.544L32,18.156Z" style="fill:#8a8dc5;"/>
    </g>
    <circle cx="31.566" cy="29.097" r="3.652" style="fill:#2b307e;"/>
    <path d="M8.029,37.476C8.029,33.289 11.429,29.889 15.617,29.889" style="fill:none;stroke:#fff;stroke-opacity:0.698039;stroke-width:2.12px;"/>
</svg>
