<?xml version="1.0" encoding="UTF-8" standalone="no"?>
<!DOCTYPE svg PUBLIC "-//W3C//DTD SVG 1.1//EN" "http://www.w3.org/Graphics/SVG/1.1/DTD/svg11.dtd">
<svg width="100%" height="100%" viewBox="0 0 65 65" version="1.1" xmlns="http://www.w3.org/2000/svg" xmlns:xlink="http://www.w3.org/1999/xlink" xml:space="preserve" xmlns:serif="http://www.serif.com/" style="fill-rule:evenodd;clip-rule:evenodd;stroke-linejoin:round;stroke-miterlimit:1.41421;">
    <rect id="Blood-pressure-taken" x="0.138" y="0.152" width="64" height="64" style="fill:none;"/>
    <path d="M55.474,17.191L45.632,17.191L45.632,30.015C45.632,30.015 49.815,30.015 52.727,30.015C53.456,30.015 54.154,29.726 54.67,29.211C55.185,28.696 55.474,27.997 55.474,27.268C55.474,23.5 55.474,17.191 55.474,17.191Z" style="fill:#a4a6cf;"/>
    <path d="M54.25,27.901C56.654,27.958 59.869,28.686 59.772,30.937C59.679,33.081 56.611,34.109 53.834,34.954C50.213,36.056 46.324,36.25 42.728,37.09C40.973,37.5 38.656,38.308 38.593,40.129C38.549,41.394 39.986,42.3 41.373,42.898C41.373,42.898 41.6,43.032 41.655,43.217C41.78,43.648 41.338,44.003 40.64,43.66C40.368,43.527 40.102,43.381 39.844,43.222C39.681,43.121 39.52,43.015 39.364,42.902C38.401,42.211 37.441,41.183 37.613,39.873C37.963,37.214 41.71,36.17 44.683,35.718C49.058,35.07 53.684,34.676 57.404,32.408C57.511,32.343 57.617,32.275 57.72,32.203C57.813,32.14 57.903,32.074 57.991,32.004C58.068,31.943 58.144,31.879 58.216,31.812C58.27,31.763 58.321,31.712 58.371,31.659C58.911,31.084 58.485,30.019 57.422,29.547C56.071,28.948 54.534,28.787 53.051,28.958C53.051,28.958 52.752,28.957 52.606,28.776C52.283,28.377 52.709,27.915 54.009,27.899C54.129,27.899 54.129,27.899 54.25,27.901Z" style="fill:#6d71aa;fill-rule:nonzero;"/>
    <path d="M56.131,16.447C56.301,16.076 56.27,15.644 56.049,15.3C55.828,14.957 55.448,14.749 55.039,14.749C52.741,14.749 48.826,14.749 46.245,14.749C44.678,14.749 43.256,15.663 42.606,17.088C41.117,20.35 38.452,26.189 37.138,29.067C36.969,29.438 37,29.87 37.221,30.214C37.441,30.557 37.822,30.765 38.23,30.765C40.528,30.765 44.443,30.765 47.025,30.765C48.591,30.765 50.013,29.851 50.663,28.426C52.153,25.164 54.818,19.325 56.131,16.447Z" style="fill:#dfdff2;"/>
    <path d="M53.273,17.868C53.33,17.743 53.319,17.598 53.245,17.483C53.171,17.367 53.043,17.298 52.906,17.298C51.382,17.298 47.476,17.298 45.667,17.298C45.09,17.298 44.567,17.634 44.327,18.159C43.347,20.305 40.816,25.851 39.997,27.646C39.94,27.771 39.95,27.916 40.024,28.031C40.098,28.147 40.226,28.216 40.363,28.216C41.887,28.216 45.793,28.216 47.603,28.216C48.179,28.216 48.703,27.88 48.942,27.355C49.922,25.209 52.453,19.663 53.273,17.868Z" style="fill:#2b307e;"/>
    <path id="Love" d="M46.248,20.785C46.225,20.785 46.201,20.785 46.178,20.785C45.737,20.809 45.203,21.066 44.775,21.453C44.38,21.815 44.129,22.249 44.102,22.623C44.067,23.068 44.297,23.466 44.502,23.817C44.547,23.899 44.592,23.981 44.631,24.051C44.772,24.309 44.919,24.555 45.059,24.789C45.142,24.917 45.219,25.058 45.296,25.198L45.38,25.351L45.606,25.21C46.249,24.812 46.912,24.367 47.58,23.887C47.648,23.841 47.72,23.782 47.799,23.735C48.294,23.384 48.917,22.951 49.245,22.424C49.508,21.991 49.591,21.57 49.47,21.265C49.356,20.973 49.067,20.809 48.672,20.809C48.648,20.809 48.637,20.809 48.613,20.809C47.974,20.832 47.461,21.148 47.114,21.429C47.035,21.137 46.807,20.785 46.248,20.785Z" style="fill:#f3775b;"/>
    <path d="M12.131,51.73C12.131,51.73 48.927,51.881 56.321,51.911C57.134,51.915 57.904,51.549 58.415,50.918C58.415,50.918 58.415,50.917 58.416,50.917C58.667,50.607 58.725,50.182 58.565,49.816C58.406,49.45 58.056,49.203 57.658,49.175C49.008,48.57 15.967,46.259 15.967,46.259L12.131,51.73Z" style="fill:#2b307e;fill-opacity:0.0980392;"/>
    <rect x="2.716" y="52.201" width="59.053" height="2.066" style="fill:#f8ae9d;"/>
    <clipPath id="_clip1">
        <rect x="2.716" y="52.201" width="59.053" height="2.066"/>
    </clipPath>
    <g clip-path="url(#_clip1)">
        <path d="M34.051,50.765L36.498,56.837C36.498,56.837 28.031,56.389 28.016,56.293C28.002,56.197 25.566,51.742 25.566,51.742L34.051,50.765Z" style="fill:#a46048;fill-opacity:0.537255;"/>
    </g>
    <path d="M45.524,45.136C45.524,45.136 47.142,46.481 45.257,49.514C43.646,52.107 42.533,51.407 42.533,51.407C42.533,51.407 40.055,50.556 41.523,46.996C42.371,44.942 43.565,44.46 45.524,45.136Z" style="fill:#2b307e;"/>
    <path d="M40.913,42.505C42.482,43.375 41.867,45.367 40.887,47.136C39.907,48.904 38.472,50.093 36.903,49.224C35.334,48.354 34.946,46.049 35.926,44.28C36.907,42.511 39.344,41.636 40.913,42.505Z" style="fill:#1f235c;"/>
    <path d="M5.948,58.518C5.948,58.518 4.019,49.283 2.803,43.459C2.568,42.331 2.858,41.158 3.592,40.27C4.325,39.383 5.423,38.877 6.575,38.896C9.857,38.95 14.021,39.019 16.243,39.055C17.193,39.071 18.044,39.649 18.409,40.526C20.28,45.029 25.881,58.506 25.881,58.506L5.948,58.518Z" style="fill:#f3775b;"/>
    <path d="M9.254,58.521C9.254,58.521 7.136,48.516 5.838,42.389C5.599,41.261 5.887,40.085 6.621,39.195C7.355,38.304 8.454,37.797 9.607,37.816C13.148,37.874 17.764,37.95 20.138,37.989C21.086,38.005 21.935,38.58 22.301,39.455C24.253,44.119 30.275,58.508 30.275,58.508L9.254,58.521Z" style="fill:#a35f47;"/>
    <path d="M11.258,58.521C11.258,58.521 9.217,50.369 9.5,42.641C9.831,33.608 15.348,31.042 19.093,30.833C25.775,30.459 28.699,34.337 31.464,37.177C36.038,41.876 40.143,44.553 40.143,44.553C40.143,44.553 48.55,47.382 52.879,45.463C54.848,44.589 55.958,43.364 56.439,42.722C56.507,42.617 56.626,42.556 56.751,42.563C56.876,42.57 56.988,42.643 57.045,42.755C57.203,43.179 57.32,43.827 56.866,44.58C56.779,44.725 58.152,43.533 58.813,41.565C58.873,41.383 59.04,41.258 59.231,41.251C59.422,41.243 59.597,41.355 59.671,41.531C60.206,42.962 60.707,45.473 58.515,47.521C54.532,51.245 43.635,50.026 41.925,49.86C37.343,49.416 29.072,43.479 29.072,43.479C29.072,43.479 29.046,43.628 29.102,43.877C30.598,50.532 27.212,58.572 27.212,58.572L11.258,58.521Z" style="fill:#f3775b;"/>
    <clipPath id="_clip2">
        <path d="M11.258,58.521C11.258,58.521 9.217,50.369 9.5,42.641C9.831,33.608 15.348,31.042 19.093,30.833C25.775,30.459 28.699,34.337 31.464,37.177C36.038,41.876 40.143,44.553 40.143,44.553C40.143,44.553 48.55,47.382 52.879,45.463C54.848,44.589 55.958,43.364 56.439,42.722C56.507,42.617 56.626,42.556 56.751,42.563C56.876,42.57 56.988,42.643 57.045,42.755C57.203,43.179 57.32,43.827 56.866,44.58C56.779,44.725 58.152,43.533 58.813,41.565C58.873,41.383 59.04,41.258 59.231,41.251C59.422,41.243 59.597,41.355 59.671,41.531C60.206,42.962 60.707,45.473 58.515,47.521C54.532,51.245 43.635,50.026 41.925,49.86C37.343,49.416 29.072,43.479 29.072,43.479C29.072,43.479 29.046,43.628 29.102,43.877C30.598,50.532 27.212,58.572 27.212,58.572L11.258,58.521Z"/>
    </clipPath>
    <g clip-path="url(#_clip2)">
        <path d="M58.277,42.418C57.257,44.035 56.443,45.223 55.967,45.704C55.967,45.704 56.279,46.69 55.267,47.591C55.267,47.591 57.82,46.78 58.277,42.418Z" style="fill:#a46048;"/>
    </g>
    <path d="M10.128,58.521C10.128,58.521 8.161,51.913 8.444,44.185C8.775,35.152 15.348,31.042 19.093,30.833C25.775,30.459 28.642,34.393 31.464,37.177C37.555,43.186 45.51,45.088 45.51,45.088C43.946,44.684 42.706,46.086 42.2,47.161C41.431,48.796 41.543,50.73 42.564,51.453C38.378,49.839 34.42,47.266 29.732,43.968C30.205,49.995 30.897,54.626 34.115,58.594L10.128,58.521Z" style="fill:#c1c2e6;"/>
    <clipPath id="_clip3">
        <path d="M10.128,58.521C10.128,58.521 8.161,51.913 8.444,44.185C8.775,35.152 15.348,31.042 19.093,30.833C25.775,30.459 28.642,34.393 31.464,37.177C37.555,43.186 45.51,45.088 45.51,45.088C43.946,44.684 42.706,46.086 42.2,47.161C41.431,48.796 41.543,50.73 42.564,51.453C38.378,49.839 34.42,47.266 29.732,43.968C30.205,49.995 30.897,54.626 34.115,58.594L10.128,58.521Z"/>
    </clipPath>
    <g clip-path="url(#_clip3)">
        <path d="M15.088,44.636C15.028,50.511 15.531,55.912 16.555,60.873L19.533,61.248C15.909,56.307 15.949,52.632 15.088,44.636Z" style="fill:#a4a6cf;"/>
        <path d="M20.931,31.868C20.931,31.868 23.471,41.261 18.777,43.365C18.777,43.365 24.723,41.562 22.266,31.772L20.931,31.868Z" style="fill:#a4a6cf;"/>
        <path d="M16.433,31.083C16.433,31.083 21.076,31.121 25.19,33.452C28.036,35.065 31.937,39.074 33.782,39.884C35.627,40.694 34.228,36.37 34.228,36.37C34.228,36.37 27.928,26.714 16.433,31.083Z" style="fill:#fff;fill-opacity:0.317647;"/>
        <path d="M41.639,43.48C41.639,43.48 38.939,42.661 38.378,45.976C37.918,48.699 39.775,50.509 39.775,50.509L32.762,47.689L36.13,40.466L41.639,43.48Z" style="fill:#a4a6cf;"/>
    </g>
    <path d="M16.433,26.799C17.22,29.213 17.624,31.095 17.151,31.761C17.877,33.961 19.64,35.26 21.712,36.291C22.161,35.741 22.847,34.522 23.109,32.61C23.431,30.255 23.601,29.817 25.879,27.099L16.433,26.799Z" style="fill:#f3775b;"/>
    <clipPath id="_clip4">
        <path d="M16.433,26.799C17.22,29.213 17.624,31.095 17.151,31.761C17.877,33.961 19.64,35.26 21.712,36.291C22.161,35.741 22.847,34.522 23.109,32.61C23.431,30.255 23.601,29.817 25.879,27.099L16.433,26.799Z"/>
    </clipPath>
    <g clip-path="url(#_clip4)">
        <path d="M16.363,28.247C16.363,28.247 23.203,31.259 22.849,33.894C21.929,40.741 27.218,29.251 27.218,29.251L16.363,28.247Z" style="fill:#664e39;fill-opacity:0.560784;"/>
    </g>
    <path d="M34.237,37.857C34.237,37.857 31.237,36.394 29.678,39.566C28.331,42.307 30.509,44.816 30.509,44.816C32.521,46.426 35.013,48.63 37.22,49.383C36.452,49.121 35.733,47.147 37.186,44.762C38.774,42.156 41.044,42.585 41.044,42.585C38.398,40.455 34.237,37.857 34.237,37.857Z" style="fill:#888bb6;"/>
    <clipPath id="_clip5">
        <path d="M34.237,37.857C34.237,37.857 31.237,36.394 29.678,39.566C28.331,42.307 30.509,44.816 30.509,44.816C32.521,46.426 35.013,48.63 37.22,49.383C36.452,49.121 35.733,47.147 37.186,44.762C38.774,42.156 41.044,42.585 41.044,42.585C38.398,40.455 34.237,37.857 34.237,37.857Z"/>
    </clipPath>
    <g clip-path="url(#_clip5)">
        <path d="M28.922,38.298C28.922,38.298 32.288,43.053 38.685,45.302L39.787,51.41L30.16,48.406L27.329,43.76L28.922,38.298Z" style="fill:#767aab;"/>
    </g>
    <path d="M20.657,10.392C22.582,10.392 28.188,10.808 27.912,17.601C27.758,21.368 30.162,23.702 30.162,23.702C26.69,25.2 27.739,30.028 20.657,29.884C16.753,29.805 13.582,25.517 13.582,20.138C13.582,14.759 16.752,10.392 20.657,10.392Z" style="fill:#f3775b;"/>
    <path d="M7.003,27.145C11.015,24.342 10.193,22.874 10.738,19.106C11.165,16.166 13.851,10.975 18.741,10.356C27.143,9.291 27.941,15.824 27.941,15.824C25.296,14.462 21.434,14.808 20.476,18.142C19.241,22.445 21.949,23.521 18.112,27.295C15.192,30.168 17.667,30.757 14.752,35.517C13.563,37.459 10.096,42.102 5.945,40.551C1.733,38.977 0.886,31.418 7.003,27.145Z" style="fill:#1f235c;"/>
</svg>
