<?xml version="1.0" encoding="UTF-8" standalone="no"?>
<!DOCTYPE svg PUBLIC "-//W3C//DTD SVG 1.1//EN" "http://www.w3.org/Graphics/SVG/1.1/DTD/svg11.dtd">
<svg width="100%" height="100%" viewBox="0 0 65 65" version="1.1" xmlns="http://www.w3.org/2000/svg" xmlns:xlink="http://www.w3.org/1999/xlink" xml:space="preserve" xmlns:serif="http://www.serif.com/" style="fill-rule:evenodd;clip-rule:evenodd;stroke-linejoin:round;stroke-miterlimit:1.41421;">
    <rect id="Blood-pressure-taken" x="0.329" y="0.152" width="64" height="64" style="fill:none;"/>
    <path d="M55.665,17.191L45.823,17.191L45.823,30.015C45.823,30.015 50.006,30.015 52.918,30.015C53.647,30.015 54.345,29.726 54.861,29.211C55.376,28.696 55.665,27.997 55.665,27.268C55.665,23.5 55.665,17.191 55.665,17.191Z" style="fill:#a4a6cf;"/>
    <path d="M54.441,27.901C56.845,27.958 60.06,28.686 59.963,30.937C59.87,33.081 56.802,34.109 54.025,34.954C50.404,36.056 46.515,36.25 42.919,37.09C41.164,37.5 38.847,38.308 38.784,40.129C38.74,41.394 40.176,42.3 41.564,42.898C41.564,42.898 41.791,43.032 41.846,43.217C41.971,43.648 41.529,44.003 40.831,43.66C40.559,43.527 40.293,43.381 40.035,43.222C39.872,43.121 39.711,43.015 39.555,42.902C38.592,42.211 37.631,41.183 37.804,39.873C38.154,37.214 41.901,36.17 44.874,35.718C49.249,35.07 53.875,34.676 57.595,32.408C57.702,32.343 57.808,32.275 57.911,32.203C58.004,32.14 58.094,32.074 58.182,32.004C58.259,31.943 58.335,31.879 58.407,31.812C58.461,31.763 58.512,31.712 58.562,31.659C59.102,31.084 58.676,30.019 57.613,29.547C56.262,28.948 54.725,28.787 53.242,28.958C53.242,28.958 52.943,28.957 52.797,28.776C52.474,28.377 52.9,27.915 54.2,27.899C54.32,27.899 54.32,27.899 54.441,27.901Z" style="fill:#6d71aa;fill-rule:nonzero;"/>
    <path d="M56.322,16.447C56.492,16.076 56.461,15.644 56.24,15.3C56.019,14.957 55.639,14.749 55.23,14.749C52.932,14.749 49.017,14.749 46.436,14.749C44.869,14.749 43.447,15.663 42.797,17.088C41.308,20.35 38.643,26.189 37.329,29.067C37.16,29.438 37.191,29.87 37.412,30.214C37.632,30.557 38.013,30.765 38.421,30.765C40.719,30.765 44.634,30.765 47.216,30.765C48.782,30.765 50.204,29.851 50.854,28.426C52.344,25.164 55.009,19.325 56.322,16.447Z" style="fill:#dfdff2;"/>
    <path d="M53.464,17.868C53.521,17.743 53.51,17.598 53.436,17.483C53.362,17.367 53.234,17.298 53.097,17.298C51.573,17.298 47.667,17.298 45.858,17.298C45.281,17.298 44.758,17.634 44.518,18.159C43.538,20.305 41.007,25.851 40.188,27.646C40.131,27.771 40.141,27.916 40.215,28.031C40.289,28.147 40.417,28.216 40.554,28.216C42.078,28.216 45.984,28.216 47.794,28.216C48.37,28.216 48.894,27.88 49.133,27.355C50.113,25.209 52.644,19.663 53.464,17.868Z" style="fill:#2b307e;"/>
    <path id="Love" d="M46.439,20.785C46.416,20.785 46.392,20.785 46.369,20.785C45.928,20.809 45.394,21.066 44.966,21.453C44.571,21.815 44.32,22.249 44.293,22.623C44.258,23.068 44.488,23.466 44.693,23.817C44.738,23.899 44.783,23.981 44.822,24.051C44.963,24.309 45.11,24.555 45.25,24.789C45.333,24.917 45.41,25.058 45.487,25.198L45.571,25.351L45.797,25.21C46.44,24.812 47.103,24.367 47.771,23.887C47.839,23.841 47.911,23.782 47.99,23.735C48.485,23.384 49.108,22.951 49.436,22.424C49.699,21.991 49.782,21.57 49.661,21.265C49.547,20.973 49.258,20.809 48.863,20.809C48.839,20.809 48.828,20.809 48.804,20.809C48.165,20.832 47.652,21.148 47.305,21.429C47.226,21.137 46.998,20.785 46.439,20.785Z" style="fill:#f3775b;"/>
    <path d="M12.322,51.73C12.322,51.73 49.118,51.881 56.512,51.911C57.325,51.915 58.095,51.549 58.606,50.918C58.606,50.918 58.606,50.917 58.607,50.917C58.858,50.607 58.916,50.182 58.756,49.816C58.597,49.45 58.247,49.203 57.849,49.175C49.199,48.57 16.158,46.259 16.158,46.259L12.322,51.73Z" style="fill:#2b307e;fill-opacity:0.0980392;"/>
    <rect x="2.907" y="52.201" width="59.053" height="2.066" style="fill:#f8ae9d;"/>
    <clipPath id="_clip1">
        <rect x="2.907" y="52.201" width="59.053" height="2.066"/>
    </clipPath>
    <g clip-path="url(#_clip1)">
        <path d="M34.242,50.765L36.689,56.837C36.689,56.837 28.222,56.389 28.207,56.293C28.193,56.197 25.757,51.742 25.757,51.742L34.242,50.765Z" style="fill:#a46048;fill-opacity:0.537255;"/>
    </g>
    <path d="M45.715,45.136C45.715,45.136 47.333,46.481 45.448,49.514C43.837,52.107 42.724,51.407 42.724,51.407C42.724,51.407 40.246,50.556 41.714,46.996C42.562,44.942 43.756,44.46 45.715,45.136Z" style="fill:#2b307e;"/>
    <path d="M41.104,42.505C42.673,43.375 42.058,45.367 41.078,47.136C40.098,48.904 38.663,50.093 37.094,49.224C35.525,48.354 35.137,46.049 36.117,44.28C37.098,42.511 39.535,41.636 41.104,42.505Z" style="fill:#1f235c;"/>
    <path d="M6.139,58.518C6.139,58.518 4.21,49.283 2.994,43.459C2.759,42.331 3.049,41.158 3.783,40.27C4.516,39.383 5.614,38.877 6.766,38.896C10.048,38.95 14.212,39.019 16.434,39.055C17.384,39.071 18.235,39.649 18.6,40.526C20.471,45.029 26.072,58.506 26.072,58.506L6.139,58.518Z" style="fill:#f3775b;"/>
    <path d="M9.445,58.521C9.445,58.521 7.327,48.516 6.029,42.389C5.79,41.261 6.078,40.085 6.812,39.195C7.546,38.304 8.645,37.797 9.798,37.816C13.339,37.874 17.955,37.95 20.329,37.989C21.277,38.005 22.126,38.58 22.492,39.455C24.444,44.119 30.466,58.508 30.466,58.508L9.445,58.521Z" style="fill:#a35f47;"/>
    <path d="M11.449,58.521C11.449,58.521 9.408,50.369 9.691,42.641C10.022,33.608 15.539,31.042 19.284,30.833C25.966,30.459 28.89,34.337 31.655,37.177C36.229,41.876 40.334,44.553 40.334,44.553C40.334,44.553 48.741,47.382 53.07,45.463C55.039,44.589 56.149,43.364 56.63,42.722C56.698,42.617 56.817,42.556 56.942,42.563C57.067,42.57 57.179,42.643 57.236,42.755C57.394,43.179 57.511,43.827 57.057,44.58C56.97,44.725 58.343,43.533 59.004,41.565C59.064,41.383 59.231,41.258 59.422,41.251C59.613,41.243 59.788,41.355 59.862,41.531C60.397,42.962 60.169,45.573 58.099,47.809C54.395,51.811 43.826,50.026 42.116,49.86C37.534,49.416 29.263,43.479 29.263,43.479C29.263,43.479 29.237,43.628 29.293,43.877C30.789,50.532 27.403,58.572 27.403,58.572L11.449,58.521Z" style="fill:#f3775b;"/>
    <clipPath id="_clip2">
        <path d="M11.449,58.521C11.449,58.521 9.408,50.369 9.691,42.641C10.022,33.608 15.539,31.042 19.284,30.833C25.966,30.459 28.89,34.337 31.655,37.177C36.229,41.876 40.334,44.553 40.334,44.553C40.334,44.553 48.741,47.382 53.07,45.463C55.039,44.589 56.149,43.364 56.63,42.722C56.698,42.617 56.817,42.556 56.942,42.563C57.067,42.57 57.179,42.643 57.236,42.755C57.394,43.179 57.511,43.827 57.057,44.58C56.97,44.725 58.343,43.533 59.004,41.565C59.064,41.383 59.231,41.258 59.422,41.251C59.613,41.243 59.788,41.355 59.862,41.531C60.397,42.962 60.169,45.573 58.099,47.809C54.395,51.811 43.826,50.026 42.116,49.86C37.534,49.416 29.263,43.479 29.263,43.479C29.263,43.479 29.237,43.628 29.293,43.877C30.789,50.532 27.403,58.572 27.403,58.572L11.449,58.521Z"/>
    </clipPath>
    <g clip-path="url(#_clip2)">
        <path d="M58.468,42.418C57.448,44.035 56.634,45.223 56.158,45.704C56.158,45.704 56.47,46.69 55.458,47.591C55.458,47.591 58.011,46.78 58.468,42.418Z" style="fill:#a46048;"/>
    </g>
    <path d="M10.319,58.521C10.319,58.521 8.352,51.913 8.635,44.185C8.966,35.152 15.539,31.042 19.284,30.833C25.966,30.459 28.833,34.393 31.655,37.177C37.746,43.186 45.701,45.088 45.701,45.088C44.137,44.684 42.897,46.086 42.391,47.161C41.622,48.796 41.734,50.73 42.755,51.453C38.569,49.839 34.611,47.266 29.923,43.968C30.396,49.995 31.088,54.626 34.306,58.594L10.319,58.521Z" style="fill:#c1c2e6;"/>
    <clipPath id="_clip3">
        <path d="M10.319,58.521C10.319,58.521 8.352,51.913 8.635,44.185C8.966,35.152 15.539,31.042 19.284,30.833C25.966,30.459 28.833,34.393 31.655,37.177C37.746,43.186 45.701,45.088 45.701,45.088C44.137,44.684 42.897,46.086 42.391,47.161C41.622,48.796 41.734,50.73 42.755,51.453C38.569,49.839 34.611,47.266 29.923,43.968C30.396,49.995 31.088,54.626 34.306,58.594L10.319,58.521Z"/>
    </clipPath>
    <g clip-path="url(#_clip3)">
        <path d="M15.279,44.636C15.219,50.511 15.722,55.912 16.746,60.873L19.724,61.248C16.1,56.307 16.14,52.632 15.279,44.636Z" style="fill:#a4a6cf;"/>
        <path d="M21.122,31.868C21.122,31.868 23.662,41.261 18.968,43.365C18.968,43.365 24.914,41.562 22.457,31.772L21.122,31.868Z" style="fill:#a4a6cf;"/>
        <path d="M16.624,31.083C16.624,31.083 21.267,31.121 25.381,33.452C28.227,35.065 32.128,39.074 33.973,39.884C35.818,40.694 34.419,36.37 34.419,36.37C34.419,36.37 28.119,26.714 16.624,31.083Z" style="fill:#fff;fill-opacity:0.317647;"/>
        <path d="M41.83,43.48C41.83,43.48 39.13,42.661 38.569,45.976C38.109,48.699 39.966,50.509 39.966,50.509L32.953,47.689L36.321,40.466L41.83,43.48Z" style="fill:#a4a6cf;"/>
    </g>
    <path d="M16.624,26.799C17.411,29.213 17.815,31.095 17.342,31.761C18.068,33.961 19.831,35.26 21.903,36.291C22.352,35.741 23.038,34.522 23.3,32.61C23.622,30.255 23.792,29.817 26.07,27.099L16.624,26.799Z" style="fill:#f3775b;"/>
    <clipPath id="_clip4">
        <path d="M16.624,26.799C17.411,29.213 17.815,31.095 17.342,31.761C18.068,33.961 19.831,35.26 21.903,36.291C22.352,35.741 23.038,34.522 23.3,32.61C23.622,30.255 23.792,29.817 26.07,27.099L16.624,26.799Z"/>
    </clipPath>
    <g clip-path="url(#_clip4)">
        <path d="M16.554,28.247C16.554,28.247 23.394,31.259 23.04,33.894C22.12,40.741 27.409,29.251 27.409,29.251L16.554,28.247Z" style="fill:#664e39;fill-opacity:0.560784;"/>
    </g>
    <path d="M34.428,37.857C34.428,37.857 31.428,36.394 29.869,39.566C28.522,42.307 30.7,44.816 30.7,44.816C32.712,46.426 35.204,48.63 37.411,49.383C36.643,49.121 35.924,47.147 37.377,44.762C38.965,42.156 41.235,42.585 41.235,42.585C38.589,40.455 34.428,37.857 34.428,37.857Z" style="fill:#888bb6;"/>
    <clipPath id="_clip5">
        <path d="M34.428,37.857C34.428,37.857 31.428,36.394 29.869,39.566C28.522,42.307 30.7,44.816 30.7,44.816C32.712,46.426 35.204,48.63 37.411,49.383C36.643,49.121 35.924,47.147 37.377,44.762C38.965,42.156 41.235,42.585 41.235,42.585C38.589,40.455 34.428,37.857 34.428,37.857Z"/>
    </clipPath>
    <g clip-path="url(#_clip5)">
        <path d="M29.113,38.298C29.113,38.298 32.479,43.053 38.876,45.302L39.978,51.41L30.351,48.406L27.52,43.76L29.113,38.298Z" style="fill:#767aab;"/>
    </g>
    <path d="M20.848,10.392C22.773,10.392 28.379,10.808 28.103,17.601C27.949,21.368 30.353,23.702 30.353,23.702C26.881,25.2 27.93,30.028 20.848,29.884C16.944,29.805 13.773,25.517 13.773,20.138C13.773,14.759 16.943,10.392 20.848,10.392Z" style="fill:#f3775b;"/>
    <path d="M7.194,27.145C11.206,24.342 10.384,22.874 10.929,19.106C11.356,16.166 14.042,10.975 18.932,10.356C27.334,9.291 28.132,15.824 28.132,15.824C25.487,14.462 21.625,14.808 20.667,18.142C19.432,22.445 22.14,23.521 18.303,27.295C15.383,30.168 17.858,30.757 14.943,35.517C13.754,37.459 10.287,42.102 6.136,40.551C1.924,38.977 1.077,31.418 7.194,27.145Z" style="fill:#1f235c;"/>
</svg>
