<?xml version="1.0" encoding="UTF-8" standalone="no"?>
<!DOCTYPE svg PUBLIC "-//W3C//DTD SVG 1.1//EN" "http://www.w3.org/Graphics/SVG/1.1/DTD/svg11.dtd">
<svg width="100%" height="100%" viewBox="0 0 64 65" version="1.1" xmlns="http://www.w3.org/2000/svg" xmlns:xlink="http://www.w3.org/1999/xlink" xml:space="preserve" xmlns:serif="http://www.serif.com/" style="fill-rule:evenodd;clip-rule:evenodd;stroke-linecap:round;stroke-linejoin:round;stroke-miterlimit:1.5;">
    <rect id="Blood-Pressure" serif:id="Blood Pressure" x="0" y="0.156" width="64" height="64" style="fill:none;"/>
    <path id="Love" d="M19.543,9.156C19.295,9.156 19.048,9.156 18.8,9.156C14.223,9.404 9.769,12.14 7.047,16.244C4.572,20.099 3.954,24.7 5.438,28.68C7.17,33.406 11.501,37.634 15.336,41.365C16.202,42.235 17.068,43.106 17.811,43.852C20.533,46.588 23.254,49.199 25.853,51.686C27.337,53.054 28.822,54.547 30.307,56.039L31.915,57.656L33.647,56.163C38.596,51.935 43.545,47.209 48.37,42.111C48.865,41.613 49.36,40.991 49.979,40.494C53.567,36.763 58.144,32.162 59.134,26.566C59.877,21.965 58.763,17.488 56.041,14.254C53.443,11.145 49.608,9.404 45.401,9.404C45.153,9.404 45.03,9.404 44.782,9.404C38.101,9.653 34.142,13.011 31.791,15.995C29.564,12.886 25.481,9.156 19.543,9.156Z" style="fill:#f3775b;"/>
    <clipPath id="_clip1">
        <path d="M19.543,9.156C19.295,9.156 19.048,9.156 18.8,9.156C14.223,9.404 9.769,12.14 7.047,16.244C4.572,20.099 3.954,24.7 5.438,28.68C7.17,33.406 11.501,37.634 15.336,41.365C16.202,42.235 17.068,43.106 17.811,43.852C20.533,46.588 23.254,49.199 25.853,51.686C27.337,53.054 28.822,54.547 30.307,56.039L31.915,57.656L33.647,56.163C38.596,51.935 43.545,47.209 48.37,42.111C48.865,41.613 49.36,40.991 49.979,40.494C53.567,36.763 58.144,32.162 59.134,26.566C59.877,21.965 58.763,17.488 56.041,14.254C53.443,11.145 49.608,9.404 45.401,9.404C45.153,9.404 45.03,9.404 44.782,9.404C38.101,9.653 34.142,13.011 31.791,15.995C29.564,12.886 25.481,9.156 19.543,9.156Z"/>
    </clipPath>
    <g clip-path="url(#_clip1)">
        <path d="M4.641,36.962L22.151,36.962L26.528,21.641L32,46.264L38.566,26.019L41.849,35.868L59.359,35.868" style="fill:none;stroke:#fff;stroke-width:2px;"/>
    </g>
</svg>
