<?xml version="1.0" encoding="UTF-8" standalone="no"?>
<!DOCTYPE svg PUBLIC "-//W3C//DTD SVG 1.1//EN" "http://www.w3.org/Graphics/SVG/1.1/DTD/svg11.dtd">
<svg width="100%" height="100%" viewBox="0 0 65 65" version="1.1" xmlns="http://www.w3.org/2000/svg" xmlns:xlink="http://www.w3.org/1999/xlink" xml:space="preserve" xmlns:serif="http://www.serif.com/" style="fill-rule:evenodd;clip-rule:evenodd;stroke-linejoin:round;stroke-miterlimit:2;">
    <rect id="Blood-pressure-taken" x="0.738" y="0.413" width="64" height="64" style="fill:none;"/>
    <clipPath id="_clip1">
        <rect x="0.738" y="0.413" width="64" height="64"/>
    </clipPath>
    <g clip-path="url(#_clip1)">
        <path d="M42.691,34.659C42.691,34.659 43.343,35.143 43.916,35.568C44.469,35.978 45.139,36.198 45.827,36.195C48.019,36.185 53.07,36.161 55.719,36.148C56.783,36.143 57.78,35.631 58.404,34.77C59.274,33.568 60.532,31.832 61.396,30.639C61.583,30.381 61.609,30.04 61.465,29.757C61.32,29.474 61.029,29.295 60.711,29.295C57.118,29.295 48.94,29.295 48.94,29.295L42.691,34.659Z" style="fill:#eaebf2;"/>
        <g>
            <path d="M57.376,21.331L47.533,21.331L39.455,33.312C39.455,33.312 40.079,33.896 40.612,34.395C41.092,34.844 41.724,35.094 42.381,35.094C44.619,35.094 49.942,35.094 52.318,35.094C53.064,35.094 53.769,34.752 54.23,34.167C54.96,33.242 56.067,31.837 56.755,30.964C57.157,30.454 57.376,29.823 57.376,29.174C57.376,26.857 57.376,21.331 57.376,21.331Z" style="fill:#a4a6cf;"/>
            <clipPath id="_clip2">
                <path d="M57.376,21.331L47.533,21.331L39.455,33.312C39.455,33.312 40.079,33.896 40.612,34.395C41.092,34.844 41.724,35.094 42.381,35.094C44.619,35.094 49.942,35.094 52.318,35.094C53.064,35.094 53.769,34.752 54.23,34.167C54.96,33.242 56.067,31.837 56.755,30.964C57.157,30.454 57.376,29.823 57.376,29.174C57.376,26.857 57.376,21.331 57.376,21.331Z"/>
            </clipPath>
            <g clip-path="url(#_clip2)">
                <path d="M58.296,16.799L66.486,35.667L60.19,37.675L52.827,36.131L50.366,32.292L58.296,16.799Z" style="fill:#5558a4;fill-opacity:0.45;"/>
            </g>
            <path d="M57.336,21.661C57.478,21.348 57.417,20.984 57.171,20.694C56.926,20.405 56.531,20.23 56.122,20.23C53.824,20.23 49.909,20.23 47.328,20.23C45.761,20.23 44.405,21 43.856,22.202C42.601,24.952 40.354,29.874 39.247,32.299C39.104,32.613 39.166,32.977 39.412,33.267C39.657,33.556 40.052,33.731 40.461,33.731C42.759,33.731 46.674,33.731 49.255,33.731C50.821,33.731 52.178,32.96 52.726,31.759C53.982,29.009 56.228,24.087 57.336,21.661Z" style="fill:#dfdff2;"/>
            <path d="M54.588,21.799C54.636,21.695 54.617,21.573 54.538,21.476C54.459,21.379 54.331,21.321 54.197,21.321C52.717,21.321 48.922,21.321 47.164,21.321C46.604,21.321 46.115,21.603 45.914,22.044C45.092,23.846 42.967,28.5 42.279,30.007C42.231,30.112 42.25,30.234 42.329,30.331C42.408,30.428 42.537,30.486 42.67,30.486C44.15,30.486 47.945,30.486 49.703,30.486C50.263,30.486 50.752,30.204 50.953,29.763C51.775,27.961 53.9,23.307 54.588,21.799Z" style="fill:#2b307e;"/>
            <path d="M44.808,31.848C44.858,31.738 44.849,31.61 44.783,31.508C44.718,31.406 44.605,31.345 44.484,31.345C43.874,31.345 42.906,31.345 42.347,31.345C42.081,31.345 41.839,31.5 41.729,31.742C41.729,31.742 41.728,31.742 41.728,31.742C41.681,31.846 41.69,31.967 41.752,32.062C41.813,32.158 41.919,32.216 42.033,32.216C42.653,32.216 43.674,32.216 44.237,32.216C44.483,32.216 44.706,32.072 44.808,31.849C44.808,31.849 44.808,31.849 44.808,31.848Z" style="fill:#be88be;"/>
            <path d="M48.471,31.848C48.522,31.738 48.512,31.61 48.447,31.508C48.381,31.406 48.269,31.345 48.148,31.345C47.538,31.345 46.569,31.345 46.01,31.345C45.744,31.345 45.502,31.5 45.392,31.742C45.392,31.742 45.392,31.742 45.392,31.742C45.345,31.846 45.354,31.967 45.415,32.062C45.477,32.158 45.583,32.216 45.697,32.216C46.316,32.216 47.338,32.216 47.901,32.216C48.146,32.216 48.369,32.072 48.471,31.849C48.471,31.849 48.471,31.849 48.471,31.848Z" style="fill:#be88be;"/>
            <path id="Love" d="M48.2,23.965L48.144,23.965C47.793,23.983 47.369,24.188 47.028,24.495C46.714,24.784 46.514,25.128 46.493,25.426C46.465,25.78 46.648,26.097 46.811,26.376C46.847,26.441 46.883,26.507 46.914,26.562C47.026,26.767 47.143,26.963 47.254,27.149C47.32,27.251 47.381,27.363 47.443,27.475L47.509,27.596L47.689,27.484C48.2,27.168 48.728,26.814 49.26,26.432C49.313,26.395 49.371,26.348 49.434,26.311C49.827,26.032 50.323,25.687 50.584,25.268C50.793,24.924 50.859,24.588 50.763,24.346C50.672,24.114 50.443,23.983 50.128,23.983L50.081,23.983C49.573,24.002 49.164,24.253 48.889,24.477C48.826,24.244 48.644,23.965 48.2,23.965Z" style="fill:#f3775b;"/>
        </g>
        <path d="M55.447,32.327C57.852,32.384 61.067,33.112 60.97,35.363C60.876,37.507 57.809,38.535 55.032,39.38C51.411,40.482 47.522,40.676 43.925,41.516C42.171,41.926 39.854,42.734 39.791,44.555C39.747,45.82 41.183,46.726 42.571,47.324C42.571,47.324 42.798,47.458 42.852,47.643C42.978,48.074 42.536,48.429 41.838,48.086C41.566,47.953 41.3,47.807 41.042,47.648C40.878,47.547 40.718,47.441 40.562,47.329C39.599,46.637 38.638,45.609 38.811,44.299C39.161,41.64 42.908,40.596 45.881,40.145C50.256,39.496 54.881,39.103 58.601,36.835C58.709,36.769 58.814,36.701 58.918,36.629C59.01,36.566 59.101,36.5 59.189,36.43C59.266,36.369 59.341,36.305 59.414,36.238C59.467,36.189 59.519,36.138 59.569,36.086C60.108,35.51 59.683,34.445 58.62,33.973C57.269,33.374 55.732,33.213 54.249,33.384C54.249,33.384 53.95,33.383 53.803,33.202C53.48,32.803 53.907,32.341 55.206,32.325C55.327,32.325 55.327,32.325 55.447,32.327Z" style="fill:#6d71aa;fill-rule:nonzero;"/>
        <path d="M12.731,49.48C12.731,49.48 49.527,49.631 56.921,49.662C57.734,49.665 58.504,49.3 59.015,48.668C59.015,48.668 59.015,48.668 59.016,48.668C59.267,48.357 59.325,47.933 59.166,47.566C59.006,47.2 58.656,46.953 58.258,46.925C49.608,46.32 16.567,44.009 16.567,44.009L12.731,49.48Z" style="fill:#2b307e;fill-opacity:0.1;"/>
        <rect x="3.316" y="49.951" width="59.053" height="2.066" style="fill:#f8ae9d;"/>
        <clipPath id="_clip3">
            <rect x="3.316" y="49.951" width="59.053" height="2.066"/>
        </clipPath>
        <g clip-path="url(#_clip3)">
            <path d="M34.651,48.515L37.098,54.587C37.098,54.587 28.631,54.14 28.616,54.044C28.602,53.948 26.166,49.493 26.166,49.493L34.651,48.515Z" style="fill:#a46048;fill-opacity:0.54;"/>
        </g>
        <path d="M46.124,42.886C46.124,42.886 47.742,44.231 45.857,47.264C44.246,49.857 43.133,49.157 43.133,49.157C43.133,49.157 40.655,48.306 42.123,44.747C42.971,42.692 44.165,42.21 46.124,42.886Z" style="fill:#2b307e;"/>
        <path d="M41.513,40.256C43.082,41.125 42.467,43.117 41.487,44.886C40.507,46.655 39.072,47.844 37.503,46.974C35.934,46.105 35.546,43.799 36.526,42.031C37.507,40.262 39.944,39.386 41.513,40.256Z" style="fill:#1f235c;"/>
        <path d="M8.683,64.425C8.683,64.425 5.269,49.205 3.488,41.265C3.234,40.132 3.513,38.944 4.247,38.044C4.98,37.143 6.086,36.628 7.247,36.647C10.485,36.701 14.553,36.768 16.775,36.804C17.76,36.821 18.633,37.44 18.975,38.363C21.12,44.158 28.616,64.413 28.616,64.413L8.683,64.425Z" style="fill:#f3775b;"/>
        <path d="M12.036,64.426C12.036,64.426 8.389,48.395 6.524,40.196C6.266,39.062 6.543,37.871 7.277,36.968C8.01,36.065 9.118,35.548 10.281,35.567C13.78,35.625 18.298,35.699 20.673,35.739C21.654,35.755 22.525,36.369 22.87,37.287C25.094,43.211 33.056,64.413 33.056,64.413L12.036,64.426Z" style="fill:#a35f47;"/>
        <path d="M11.858,56.272C11.858,56.272 9.817,48.12 10.1,40.391C10.431,31.358 15.948,28.793 19.693,28.583C26.375,28.21 29.299,32.087 32.064,34.927C36.638,39.627 40.897,42.581 52.899,44.415C53.681,44.535 54.425,43.71 55.32,43.49C56.718,43.146 57.456,41.414 57.963,41.574C58.082,41.611 58.2,41.654 58.256,41.765C58.414,42.189 58.283,43.256 57.828,44.009C57.778,44.093 59.875,43.579 61.135,42.543C61.786,42.007 62.38,42.354 62.603,42.71C62.988,43.324 62.206,46.236 59.254,47.655C57.878,48.316 56.175,48.488 53.305,48.553C40.604,48.844 29.672,41.229 29.672,41.229C29.672,41.229 29.646,41.378 29.702,41.627C31.198,48.282 27.812,56.322 27.812,56.322L11.858,56.272Z" style="fill:#f3775b;"/>
        <clipPath id="_clip4">
            <path d="M11.858,56.272C11.858,56.272 9.817,48.12 10.1,40.391C10.431,31.358 15.948,28.793 19.693,28.583C26.375,28.21 29.299,32.087 32.064,34.927C36.638,39.627 40.897,42.581 52.899,44.415C53.681,44.535 54.425,43.71 55.32,43.49C56.718,43.146 57.456,41.414 57.963,41.574C58.082,41.611 58.2,41.654 58.256,41.765C58.414,42.189 58.283,43.256 57.828,44.009C57.778,44.093 59.875,43.579 61.135,42.543C61.786,42.007 62.38,42.354 62.603,42.71C62.988,43.324 62.206,46.236 59.254,47.655C57.878,48.316 56.175,48.488 53.305,48.553C40.604,48.844 29.672,41.229 29.672,41.229C29.672,41.229 29.646,41.378 29.702,41.627C31.198,48.282 27.812,56.322 27.812,56.322L11.858,56.272Z"/>
        </clipPath>
        <g clip-path="url(#_clip4)">
            <path d="M60.618,40.077C59.375,42.047 58.383,43.495 57.804,44.081C57.804,44.081 57.524,45.619 55.674,46.504C55.674,46.504 57.06,46.692 58.914,44.612C59.846,43.566 60.378,42.365 60.618,40.077Z" style="fill:#a46048;"/>
            <path d="M41.625,43.227C41.625,43.227 50.315,45.088 52.212,45.193C54.108,45.298 54.678,45.045 55.465,44.433C56.816,43.383 58.997,41.218 59.167,40.004C59.336,38.79 42.821,38.842 42.821,38.842L41.625,43.227Z" style="fill:#f3ab9b;"/>
        </g>
        <path d="M9.394,26.606C12.472,22.801 13.434,21.569 13.98,17.801C14.406,14.861 16.85,10.888 21.756,10.406C29.877,9.61 28.533,13.988 28.533,13.988C25.888,12.626 23.35,15.621 22.85,16.895C21.214,21.063 23.411,19.326 19.573,23.101C16.653,25.973 20.129,28.676 17.214,33.437C16.163,35.151 13.336,38.974 9.831,38.775C9.367,38.748 8.892,38.652 8.407,38.47C4.194,36.896 4.689,32.423 9.394,26.606Z" style="fill:#1f235c;"/>
        <path d="M13.237,64.354C13.237,64.354 8.761,49.663 9.044,41.935C9.375,32.902 15.948,28.793 19.693,28.583C26.375,28.21 29.242,32.144 32.064,34.927C38.155,40.936 46.11,42.838 46.11,42.838C44.546,42.434 43.306,43.837 42.8,44.911C42.031,46.546 42.143,48.481 43.164,49.203C38.978,47.589 35.02,45.016 30.332,41.718C30.282,52.068 32.319,57.52 33.554,61.351C33.611,61.527 36.606,63.764 39.231,64.426L13.237,64.354Z" style="fill:#c1c2e6;"/>
        <clipPath id="_clip5">
            <path d="M13.237,64.354C13.237,64.354 8.761,49.663 9.044,41.935C9.375,32.902 15.948,28.793 19.693,28.583C26.375,28.21 29.242,32.144 32.064,34.927C38.155,40.936 46.11,42.838 46.11,42.838C44.546,42.434 43.306,43.837 42.8,44.911C42.031,46.546 42.143,48.481 43.164,49.203C38.978,47.589 35.02,45.016 30.332,41.718C30.282,52.068 32.319,57.52 33.554,61.351C33.611,61.527 36.606,63.764 39.231,64.426L13.237,64.354Z"/>
        </clipPath>
        <g clip-path="url(#_clip5)">
            <path d="M30.415,24.744C30.415,24.744 19.017,34.539 19.859,39.267C20.407,42.346 22.085,43.755 23.19,44.363C23.709,44.585 23.951,45.185 23.731,45.705C23.095,47.239 21.922,50.241 22.323,51.998C23.032,55.109 24.753,67.317 24.753,67.317C24.753,67.317 -0.484,69.055 0.019,67.608C0.523,66.161 -3.879,33.868 -3.879,33.868L30.415,24.744Z" style="fill:#a4a6cf;"/>
            <path d="M14.726,43.238C14.729,49.113 17.752,61.76 20.133,65.241L23.822,65.194C20.145,60.292 15.673,51.224 14.726,43.238Z" style="fill:#7a7db9;"/>
            <path d="M22.539,28.559C22.539,28.559 21.579,38.242 16.444,38.542C16.444,38.542 22.643,38.967 23.822,28.943L22.539,28.559Z" style="fill:#7a7db9;"/>
            <path d="M17.033,28.833C17.033,28.833 21.677,28.871 25.79,31.203C28.636,32.816 32.537,36.825 34.382,37.634C36.227,38.444 34.828,34.12 34.828,34.12C34.828,34.12 28.528,24.464 17.033,28.833Z" style="fill:#fff;fill-opacity:0.32;"/>
            <path d="M42.239,41.23C42.239,41.23 39.539,40.411 38.978,43.727C38.518,46.449 40.375,48.26 40.375,48.26L33.362,45.439L36.731,38.216L42.239,41.23Z" style="fill:#a4a6cf;"/>
        </g>
        <path d="M17.033,24.55C17.82,26.963 18.224,28.846 17.751,29.511C18.477,31.711 20.241,33.01 22.312,34.041C22.761,33.492 23.447,32.272 23.709,30.36C24.031,28.005 24.201,27.568 26.479,24.849L17.033,24.55Z" style="fill:#f3775b;"/>
        <clipPath id="_clip6">
            <path d="M17.033,24.55C17.82,26.963 18.224,28.846 17.751,29.511C18.477,31.711 20.241,33.01 22.312,34.041C22.761,33.492 23.447,32.272 23.709,30.36C24.031,28.005 24.201,27.568 26.479,24.849L17.033,24.55Z"/>
        </clipPath>
        <g clip-path="url(#_clip6)">
            <path d="M27.806,25.087C27.806,25.087 17.796,26.05 18.061,36.723C18.232,43.63 14.117,21.222 14.117,21.222L27.806,25.087Z" style="fill:#664e39;fill-opacity:0.56;"/>
        </g>
        <path d="M34.837,35.607C34.837,35.607 31.837,34.144 30.278,37.317C28.931,40.057 31.109,42.566 31.109,42.566C33.121,44.176 35.613,46.38 37.82,47.133C37.052,46.871 36.333,44.898 37.786,42.513C39.375,39.906 41.644,40.335 41.644,40.335C38.998,38.206 34.837,35.607 34.837,35.607Z" style="fill:#888bb6;"/>
        <clipPath id="_clip7">
            <path d="M34.837,35.607C34.837,35.607 31.837,34.144 30.278,37.317C28.931,40.057 31.109,42.566 31.109,42.566C33.121,44.176 35.613,46.38 37.82,47.133C37.052,46.871 36.333,44.898 37.786,42.513C39.375,39.906 41.644,40.335 41.644,40.335C38.998,38.206 34.837,35.607 34.837,35.607Z"/>
        </clipPath>
        <g clip-path="url(#_clip7)">
            <path d="M29.522,36.048C29.522,36.048 32.888,40.804 39.285,43.052L40.387,49.16L30.76,46.157L27.929,41.511L29.522,36.048Z" style="fill:#767aab;"/>
        </g>
        <path d="M23.176,8.061C25.093,8.235 30.459,10.397 29.282,16.287C28.7,19.197 29.117,20.754 29.591,21.559C29.769,21.716 29.86,21.95 29.834,22.186C29.809,22.423 29.67,22.632 29.462,22.747C27.008,24.372 27.792,28.184 21.413,27.474C17.532,27.043 14.762,22.485 15.248,17.128C15.735,11.771 19.287,7.708 23.176,8.061Z" style="fill:#f3775b;"/>
        <clipPath id="_clip8">
            <path d="M23.176,8.061C25.093,8.235 30.459,10.397 29.282,16.287C28.7,19.197 29.117,20.754 29.591,21.559C29.769,21.716 29.86,21.95 29.834,22.186C29.809,22.423 29.67,22.632 29.462,22.747C27.008,24.372 27.792,28.184 21.413,27.474C17.532,27.043 14.762,22.485 15.248,17.128C15.735,11.771 19.287,7.708 23.176,8.061Z"/>
        </clipPath>
        <g clip-path="url(#_clip8)">
            <path d="M38.026,6.96C38.026,6.96 23.793,10.465 24.629,20.447C25.16,26.784 22.499,27.226 18.963,28.991L28.796,33.474C28.796,33.474 47.447,13.205 27.951,3.53" style="fill:#f3ab9b;"/>
            <path d="M26.965,18.187C27.189,18.218 27.329,18.543 27.277,18.911C27.226,19.28 27.002,19.554 26.778,19.523C26.554,19.491 26.414,19.167 26.466,18.798C26.517,18.429 26.741,18.155 26.965,18.187Z" style="fill:#181b1d;fill-opacity:0.75;"/>
            <path d="M25.757,23.868L25.762,23.873L25.778,23.89L25.809,23.92L25.829,23.938L25.852,23.958L25.879,23.98L25.91,24.003L25.91,24.003L25.944,24.027L25.981,24.052L26.022,24.078L26.066,24.103L26.113,24.129L26.139,24.142L26.164,24.154L26.218,24.179L26.277,24.202L26.306,24.213L26.337,24.224L26.369,24.235L26.401,24.245L26.404,24.245L26.435,24.255L26.469,24.264L26.505,24.273L26.535,24.28L26.541,24.281L26.578,24.289L26.616,24.297L26.655,24.303L26.656,24.303L26.695,24.31L26.737,24.316L26.779,24.322L26.78,24.322L26.822,24.327L26.866,24.331L26.912,24.334L26.915,24.335L26.958,24.338L27.006,24.34L27.055,24.341L27.106,24.341L27.157,24.339L27.189,24.338L27.21,24.337L27.264,24.334L27.319,24.33L27.376,24.324L27.434,24.317L27.494,24.308L27.601,24.361L27.538,24.462L27.48,24.487L27.423,24.51L27.365,24.532L27.308,24.552L27.252,24.57L27.23,24.577L27.196,24.587L27.141,24.601L27.086,24.614L27.032,24.625L26.978,24.635L26.929,24.643L26.925,24.644L26.873,24.65L26.821,24.656L26.771,24.659L26.77,24.66L26.72,24.661L26.67,24.662L26.623,24.661L26.622,24.661L26.574,24.659L26.527,24.655L26.481,24.651L26.473,24.65L26.436,24.645L26.391,24.638L26.348,24.631L26.309,24.623L26.306,24.622L26.264,24.612L26.224,24.602L26.184,24.591L26.145,24.579L26.072,24.555L26.001,24.528L25.969,24.515L25.935,24.5L25.873,24.471L25.815,24.441L25.762,24.41L25.712,24.38L25.666,24.35L25.666,24.35L25.624,24.321L25.587,24.293L25.554,24.267L25.524,24.242L25.478,24.202L25.449,24.173L25.448,24.172L25.438,24.162L25.451,23.855L25.757,23.868Z" style="fill:#2f2826;fill-opacity:0.7;"/>
        </g>
        <path d="M9.394,26.606C12.472,22.801 12.755,21.608 12.731,17.801C12.71,14.494 15.027,8.381 20.968,8.04C26.853,7.702 28.573,10.415 28.981,11.323C29.05,11.536 29.026,11.768 28.914,11.962C26.328,16.72 23.655,14.755 22.174,17.801C19.775,22.735 19.754,21.325 18.015,23.025C15.419,25.563 18.665,24.535 15.75,29.295C14.7,31.01 4.689,32.423 9.394,26.606Z" style="fill:#1f235c;"/>
        <path d="M28.863,37.457C28.863,37.457 34.172,42.448 32.843,45.391C29.829,52.065 31.388,55.623 31.388,55.623C31.388,55.623 25.096,45.343 28.863,37.457Z" style="fill:#c1c2e6;"/>
        <path d="M24.446,18.436C25.133,17.93 26.123,18.157 26.342,18.576L26.349,20.151L24.452,20.151L24.446,18.436Z" style="fill:none;"/>
        <path d="M26.481,13.663C26.481,13.663 22.115,15.719 20.139,19.717C20.139,19.717 22.412,12.853 23.831,12.086C25.25,11.318 26.481,13.663 26.481,13.663Z" style="fill:#1f235c;"/>
        <path d="M28.945,11.871C28.945,11.871 28.439,16.341 22.946,18.146C22.946,18.146 25.097,15.749 26.72,12.101C27.271,10.862 28.945,11.871 28.945,11.871Z" style="fill:#1f235c;"/>
    </g>
</svg>
