<?xml version="1.0" encoding="UTF-8" standalone="no"?>
<!DOCTYPE svg PUBLIC "-//W3C//DTD SVG 1.1//EN" "http://www.w3.org/Graphics/SVG/1.1/DTD/svg11.dtd">
<svg width="100%" height="100%" viewBox="0 0 65 64" version="1.1" xmlns="http://www.w3.org/2000/svg" xmlns:xlink="http://www.w3.org/1999/xlink" xml:space="preserve" xmlns:serif="http://www.serif.com/" style="fill-rule:evenodd;clip-rule:evenodd;stroke-linecap:round;stroke-linejoin:round;stroke-miterlimit:1.5;">
    <rect id="Blood-Pressure" serif:id="Blood Pressure" x="0.738" y="0" width="64" height="64" style="fill:none;"/>
    <path id="Love" d="M20.281,9L19.539,9C14.961,9.249 10.507,11.985 7.785,16.088C5.31,19.944 4.692,24.545 6.177,28.524C7.909,33.25 12.239,37.478 16.074,41.209C16.94,42.079 17.807,42.95 18.549,43.696C21.271,46.432 23.993,49.044 26.591,51.531C28.076,52.899 29.56,54.391 31.045,55.883L32.653,57.5L34.385,56.008C39.334,51.779 44.283,47.054 49.109,41.955C49.603,41.458 50.098,40.836 50.717,40.338C54.305,36.608 58.883,32.006 59.873,26.41C60.615,21.809 59.501,17.332 56.779,14.099C54.181,10.99 50.346,9.249 46.139,9.249L45.521,9.249C38.84,9.497 34.88,12.855 32.53,15.84C30.303,12.731 26.22,9 20.281,9Z" style="fill:#f3775b;"/>
    <clipPath id="_clip1">
        <path d="M20.281,9L19.539,9C14.961,9.249 10.507,11.985 7.785,16.088C5.31,19.944 4.692,24.545 6.177,28.524C7.909,33.25 12.239,37.478 16.074,41.209C16.94,42.079 17.807,42.95 18.549,43.696C21.271,46.432 23.993,49.044 26.591,51.531C28.076,52.899 29.56,54.391 31.045,55.883L32.653,57.5L34.385,56.008C39.334,51.779 44.283,47.054 49.109,41.955C49.603,41.458 50.098,40.836 50.717,40.338C54.305,36.608 58.883,32.006 59.873,26.41C60.615,21.809 59.501,17.332 56.779,14.099C54.181,10.99 50.346,9.249 46.139,9.249L45.521,9.249C38.84,9.497 34.88,12.855 32.53,15.84C30.303,12.731 26.22,9 20.281,9Z"/>
    </clipPath>
    <g clip-path="url(#_clip1)">
        <path d="M5.379,36.807L22.889,36.807L27.266,21.486L32.738,46.109L39.304,25.863L42.588,35.712L60.097,35.712" style="fill:none;stroke:#fff;stroke-width:2px;"/>
    </g>
</svg>
