<?xml version="1.0" encoding="UTF-8" standalone="no"?><!DOCTYPE svg PUBLIC "-//W3C//DTD SVG 1.1//EN" "http://www.w3.org/Graphics/SVG/1.1/DTD/svg11.dtd"><svg width="125px" height="110px" version="1.1" xmlns="http://www.w3.org/2000/svg" xmlns:xlink="http://www.w3.org/1999/xlink" xml:space="preserve" xmlns:serif="http://www.serif.com/" style="fill-rule:evenodd;clip-rule:evenodd;stroke-linejoin:round;stroke-miterlimit:2;"><rect id="BP-Monitor-large" x="0.025" y="0" width="124.827" height="110" style="fill:none;"/><g><path d="M106.19,22.702l-49.769,0l0,72.405c0,0 20.353,-1.833 35.878,-7.557c3.457,-1.275 7.217,-1.464 9.822,-4.069c2.605,-2.605 4.069,-6.138 4.069,-9.822c0,-19.052 0,-50.957 0,-50.957Z" style="fill:#a4a6cf;"/><path d="M111.823,23.399c0.849,-1.861 0.631,-4.025 -0.579,-5.746c-1.21,-1.72 -3.246,-2.76 -5.403,-2.76c-12.144,0 -32.83,0 -46.47,0c-8.277,0 -15.676,4.579 -18.934,11.715c-7.457,16.339 -20.805,45.581 -27.383,59.993c-0.85,1.861 -0.631,4.025 0.578,5.746c1.21,1.72 3.246,2.76 5.404,2.76c12.143,0 32.829,0 46.47,0c8.276,0 15.676,-4.579 18.933,-11.715c7.458,-16.339 20.805,-45.581 27.384,-59.993Z" style="fill:#dfdff2;"/><path d="M99.382,31.371c0.818,-1.756 0.684,-3.809 -0.357,-5.443c-1.041,-1.633 -2.844,-2.623 -4.782,-2.623l-33.822,0c-6.092,0 -11.632,3.53 -14.207,9.051c-5.601,12.011 -15.405,33.036 -20.764,44.529c-0.819,1.756 -0.684,3.808 0.357,5.442c1.041,1.634 2.844,2.623 4.781,2.623l31.631,0c7.429,0 14.185,-4.304 17.325,-11.037c5.703,-12.231 14.763,-31.66 19.838,-42.542Z" style="fill:#2b307f;"/><path id="Love" d="M51.546,68.139l-0.169,0c-1.063,0.057 -2.349,0.677 -3.381,1.608c-0.95,0.874 -1.555,1.917 -1.62,2.82c-0.084,1.071 0.471,2.03 0.964,2.876c0.108,0.198 0.217,0.395 0.31,0.564c0.341,0.621 0.694,1.213 1.033,1.777c0.198,0.31 0.384,0.648 0.57,0.987l0.202,0.366l0.543,-0.338c1.549,-0.959 3.149,-2.03 4.757,-3.187c0.163,-0.112 0.338,-0.253 0.528,-0.366c1.191,-0.846 2.693,-1.89 3.483,-3.159c0.633,-1.043 0.832,-2.058 0.541,-2.791c-0.275,-0.705 -0.969,-1.1 -1.923,-1.1l-0.14,0c-1.54,0.056 -2.777,0.818 -3.611,1.494c-0.191,-0.705 -0.741,-1.551 -2.087,-1.551Z" style="fill:#f3775b;"/></g><g transform="matrix(0.286149,0,-0.133433,0.286149,-561.081,-734.93)"><g transform="matrix(59,0,0,59,3394.2,2712.06)"><path d="M0.1,-0.076l0.531,-0.303l-0.531,-0.303l-0.045,0.078l0.394,0.225l-0.394,0.225l0.045,0.078Zm0.481,0.076l-0.554,0l0,0.09l0.554,0l0,-0.09Z" style="fill:#f3775b;fill-rule:nonzero;"/></g><g transform="matrix(59,0,0,59,3431.33,2712.06)"><path d="M0.279,-0.69l0,0.042c0,0.046 -0.027,0.066 -0.074,0.066l-0.092,0l0,0.094l0.161,0l0,0.488l0.122,0l0,-0.69l-0.117,0Z" style="fill:#fff;fill-rule:nonzero;"/></g><g transform="matrix(59,0,0,59,3463.63,2712.06)"><path d="M0.291,-0.472l-0.004,0l0.138,-0.218l-0.142,0l-0.203,0.328c-0.026,0.038 -0.041,0.083 -0.041,0.131c0,0.133 0.113,0.241 0.252,0.241c0.138,0 0.251,-0.108 0.251,-0.241c0,-0.133 -0.113,-0.241 -0.251,-0.241Zm0,0.367c-0.073,0 -0.131,-0.057 -0.131,-0.126c0,-0.069 0.058,-0.126 0.131,-0.126c0.072,0 0.13,0.057 0.13,0.126c0,0.069 -0.058,0.126 -0.13,0.126Z" style="fill:#fff;fill-rule:nonzero;"/></g><g transform="matrix(59,0,0,59,3495.93,2712.06)"><path d="M0.295,0.01c0.185,0 0.232,-0.183 0.232,-0.354c0,-0.172 -0.049,-0.357 -0.239,-0.357c-0.209,0 -0.233,0.209 -0.233,0.356c0,0.146 0.026,0.355 0.24,0.355Zm-0.003,-0.117c-0.112,0 -0.115,-0.128 -0.115,-0.238c0,-0.111 0.003,-0.237 0.111,-0.237c0.108,0 0.111,0.125 0.111,0.236c0,0.108 -0.002,0.239 -0.107,0.239Z" style="fill:#fff;fill-rule:nonzero;"/></g></g><g transform="matrix(0.286149,0,-0.133433,0.286149,-569.99,-716.912)"><g transform="matrix(59,0,0,59,3394.2,2712.06)"><path d="M0.1,-0.076l0.531,-0.303l-0.531,-0.303l-0.045,0.078l0.394,0.225l-0.394,0.225l0.045,0.078Zm0.481,0.076l-0.554,0l0,0.09l0.554,0l0,-0.09Z" style="fill:#f3775b;fill-rule:nonzero;"/></g><g transform="matrix(59,0,0,59,3431.33,2712.06)"><path d="M0.279,-0.69l0,0.042c0,0.046 -0.027,0.066 -0.074,0.066l-0.092,0l0,0.094l0.161,0l0,0.488l0.122,0l0,-0.69l-0.117,0Z" style="fill:#fff;fill-rule:nonzero;"/></g><g transform="matrix(59,0,0,59,3463.63,2712.06)"><path d="M0.295,0.01c0.185,0 0.232,-0.183 0.232,-0.354c0,-0.172 -0.049,-0.357 -0.239,-0.357c-0.209,0 -0.233,0.209 -0.233,0.356c0,0.146 0.026,0.355 0.24,0.355Zm-0.003,-0.117c-0.112,0 -0.115,-0.128 -0.115,-0.238c0,-0.111 0.003,-0.237 0.111,-0.237c0.108,0 0.111,0.125 0.111,0.236c0,0.108 -0.002,0.239 -0.107,0.239Z" style="fill:#fff;fill-rule:nonzero;"/></g><g transform="matrix(59,0,0,59,3495.93,2712.06)"><path d="M0.295,0.01c0.185,0 0.232,-0.183 0.232,-0.354c0,-0.172 -0.049,-0.357 -0.239,-0.357c-0.209,0 -0.233,0.209 -0.233,0.356c0,0.146 0.026,0.355 0.24,0.355Zm-0.003,-0.117c-0.112,0 -0.115,-0.128 -0.115,-0.238c0,-0.111 0.003,-0.237 0.111,-0.237c0.108,0 0.111,0.125 0.111,0.236c0,0.108 -0.002,0.239 -0.107,0.239Z" style="fill:#fff;fill-rule:nonzero;"/></g></g></svg>