<?xml version="1.0" encoding="UTF-8" standalone="no"?>
<!DOCTYPE svg PUBLIC "-//W3C//DTD SVG 1.1//EN" "http://www.w3.org/Graphics/SVG/1.1/DTD/svg11.dtd">
<svg width="100%" height="100%" viewBox="0 0 65 64" version="1.1" xmlns="http://www.w3.org/2000/svg" xmlns:xlink="http://www.w3.org/1999/xlink" xml:space="preserve" xmlns:serif="http://www.serif.com/" style="fill-rule:evenodd;clip-rule:evenodd;stroke-linecap:round;stroke-miterlimit:1;">
    <rect id="BP-Monitor" x="0.738" y="0" width="64" height="64" style="fill:none;"/>
    <path d="M27.402,16.063C26.861,16.222 26.492,16.72 26.495,17.283C26.499,17.847 26.876,18.34 27.419,18.491C33.126,20.086 43.087,22.869 47.67,24.15C49.261,24.594 50.945,24.58 52.527,24.108C54.464,23.531 57.246,22.702 59.66,21.983C60.298,21.793 60.731,21.203 60.723,20.538C60.714,19.873 60.265,19.294 59.622,19.121C51.726,16.995 37.377,13.129 37.377,13.129C37.377,13.129 31.588,14.832 27.402,16.063Z" style="fill:#dadae8;"/>
    <path d="M30.428,14.262C32.328,14.267 33.356,17.246 29.767,17.263C23.841,17.316 17.577,17.279 12.414,19.339C11.08,19.871 9.859,20.563 10.739,21.402C12.203,22.8 14.313,23.457 16.356,24.135C29.008,28.338 44.131,26.996 53.12,33.595C54.674,34.736 56.207,36.484 55.088,38.613C53.641,41.367 49.835,41.815 46.214,42.292C42.449,42.789 38.648,42.93 34.848,42.951C34.445,42.953 32.037,42.005 33.312,40.488C33.888,39.803 35.01,39.951 35.931,39.939C41.229,39.858 46.944,40.145 51.478,37.915C52.158,37.581 53.51,37.7 51.483,36.119C45.807,31.692 36.904,31.274 29.928,30.249C23.178,29.247 16.142,28.233 10.387,24.831C8.651,23.806 6.865,22.18 7.439,20.038C8.376,16.547 12.79,15.907 15.761,15.356C20.578,14.462 25.537,14.256 30.428,14.262Z" style="fill:#8c90c9;"/>
    <path d="M30.822,15.201C30.822,15.201 14.852,15.017 10.299,18.19C3.424,22.982 22.338,27.379 33.449,28.636C53.196,30.871 66.995,40.756 34.461,40.89" style="fill:none;stroke:#ecedf5;stroke-opacity:0.5;stroke-width:1.05px;"/>
    <path d="M31.629,19.3C29.249,18.865 27.525,16.206 27.525,12.529C27.525,7.965 30.179,3.548 33.449,2.672C34.31,2.441 35.129,2.479 35.867,2.743L54.271,7.53L50.189,24.284L31.627,19.31L31.629,19.3Z" style="fill:#f3775b;"/>
    <clipPath id="_clip1">
        <path d="M31.629,19.3C29.249,18.865 27.525,16.206 27.525,12.529C27.525,7.965 30.179,3.548 33.449,2.672C34.31,2.441 35.129,2.479 35.867,2.743L54.271,7.53L50.189,24.284L31.627,19.31L31.629,19.3Z"/>
    </clipPath>
    <g clip-path="url(#_clip1)">
        <path d="M28.418,5.188C28.418,5.188 39.947,8.289 44.202,9.434C44.592,9.539 44.918,9.809 45.093,10.173C45.269,10.538 45.277,10.961 45.116,11.332C44.646,12.556 44.254,14.537 44.745,17.061C45.61,21.507 47.432,22.959 49.995,24.472" style="fill:none;stroke:#2b307e;stroke-opacity:0.5;stroke-width:1.05px;stroke-linejoin:round;"/>
    </g>
    <path d="M52.146,7.54C55.423,6.662 58.084,9.679 58.084,14.273C58.084,18.868 55.423,23.311 52.146,24.189C48.869,25.067 46.208,22.05 46.208,17.456C46.208,12.861 48.869,8.418 52.146,7.54Z" style="fill:#5f64b9;"/>
    <clipPath id="_clip2">
        <path d="M52.146,7.54C55.423,6.662 58.084,9.679 58.084,14.273C58.084,18.868 55.423,23.311 52.146,24.189C48.869,25.067 46.208,22.05 46.208,17.456C46.208,12.861 48.869,8.418 52.146,7.54Z"/>
    </clipPath>
    <g clip-path="url(#_clip2)">
        <path d="M49.486,0.579C53.668,-0.542 57.062,3.517 57.062,9.637C57.062,15.756 53.668,21.634 49.486,22.754C45.305,23.875 41.911,19.816 41.911,13.696C41.911,7.577 45.305,1.699 49.486,0.579Z" style="fill:#2b307e;"/>
    </g>
    <path d="M28.339,16.429C28.339,16.429 27.46,15.088 27.144,12.347C26.953,10.687 27.026,8.188 27.422,6.298C27.471,6.092 27.602,5.915 27.784,5.807C27.965,5.699 28.183,5.669 28.388,5.724C30.215,6.212 34.649,7.403 34.649,7.403L28.339,16.429Z" style="fill:#f3775b;"/>
    <g>
        <path d="M8.199,32.182C8.199,32.182 8.781,38.766 9.168,43.146C9.384,45.597 10.545,47.868 12.405,49.48C15.416,52.089 20.131,56.174 23.363,58.974C25.525,60.848 28.581,61.293 31.189,60.115C35.593,58.126 42.304,55.095 45.886,53.477C47.467,52.763 48.728,51.49 49.426,49.902C50.041,48.502 51.011,46.11 51.011,46.11C51.011,46.11 8.18,31.749 8.199,32.182Z" style="fill:#a4a6cf;"/>
        <clipPath id="_clip3">
            <path d="M8.199,32.182C8.199,32.182 8.781,38.766 9.168,43.146C9.384,45.597 10.545,47.868 12.405,49.48C15.416,52.089 20.131,56.174 23.363,58.974C25.525,60.848 28.581,61.293 31.189,60.115C35.593,58.126 42.304,55.095 45.886,53.477C47.467,52.763 48.728,51.49 49.426,49.902C50.041,48.502 51.011,46.11 51.011,46.11C51.011,46.11 8.18,31.749 8.199,32.182Z"/>
        </clipPath>
        <g clip-path="url(#_clip3)">
            <path d="M25.965,52.382L23.041,63.172L37.844,62.442L52.097,53.414L54.251,43.417L25.965,52.382Z" style="fill:#5558a4;"/>
        </g>
        <path d="M11.028,28.004C9.712,28.431 8.688,29.474 8.285,30.797C7.881,32.121 8.15,33.558 9.004,34.646C13.038,39.788 19.42,47.925 23.448,53.059C25.644,55.858 29.451,56.826 32.717,55.415C37.532,53.334 44.425,50.357 48.937,48.407C50.013,47.942 50.805,46.994 51.07,45.853C51.336,44.711 51.044,43.511 50.283,42.619C46.055,37.662 38.735,29.079 34.764,24.422C33.097,22.467 30.416,21.71 27.972,22.503C23.466,23.966 16.137,26.345 11.028,28.004Z" style="fill:#e7e7f4;"/>
        <clipPath id="_clip4">
            <path d="M11.028,28.004C9.712,28.431 8.688,29.474 8.285,30.797C7.881,32.121 8.15,33.558 9.004,34.646C13.038,39.788 19.42,47.925 23.448,53.059C25.644,55.858 29.451,56.826 32.717,55.415C37.532,53.334 44.425,50.357 48.937,48.407C50.013,47.942 50.805,46.994 51.07,45.853C51.336,44.711 51.044,43.511 50.283,42.619C46.055,37.662 38.735,29.079 34.764,24.422C33.097,22.467 30.416,21.71 27.972,22.503C23.466,23.966 16.137,26.345 11.028,28.004Z"/>
        </clipPath>
        <g clip-path="url(#_clip4)">
            <path d="M55.024,48.827C55.02,48.83 54.824,48.148 54.346,47.663C53.37,46.673 52.386,45.688 51.391,44.717C48.64,42.03 47.581,42.069 44.011,40.741C41.337,39.746 35.288,34.929 32.522,34.545C29.579,34.137 26.332,34.767 23.38,34.486C20.104,34.174 17.188,33.861 13.914,33.445C11.814,33.177 7.905,32.294 6.206,33.898C5.07,34.97 5.205,37.462 5.097,38.934C4.804,42.925 5.084,46.991 4.833,51.001C4.624,54.343 3.874,60.176 5.048,63.387C5.692,65.151 7.581,65.545 9.172,65.739C12.651,66.163 16.163,65.817 19.602,65.564C22.744,65.333 25.841,64.884 28.956,64.486C31.247,64.193 33.539,63.901 35.819,63.548C37.517,63.285 39.204,62.965 40.861,62.54C47.895,60.735 56.886,57.264 57.638,48.664C57.798,46.843 57.746,45.097 56.96,43.363L55.024,48.827Z" style="fill:#d1d2e8;"/>
        </g>
        <path d="M14.937,35.696C14.2,34.762 13.962,33.53 14.297,32.389C14.633,31.248 15.501,30.34 16.626,29.955C19.839,28.854 23.994,27.429 27.04,26.385C29.531,25.531 32.291,26.294 33.99,28.306C36.665,31.473 40.651,36.192 43.233,39.249C43.821,39.945 44.037,40.882 43.813,41.765C43.589,42.649 42.953,43.369 42.104,43.701C38.76,45.007 33.829,46.933 30.341,48.296C27.866,49.263 25.049,48.499 23.402,46.413C20.984,43.352 17.476,38.91 14.937,35.696Z" style="fill:#2b307e;"/>
        <clipPath id="_clip5">
            <path d="M14.937,35.696C14.2,34.762 13.962,33.53 14.297,32.389C14.633,31.248 15.501,30.34 16.626,29.955C19.839,28.854 23.994,27.429 27.04,26.385C29.531,25.531 32.291,26.294 33.99,28.306C36.665,31.473 40.651,36.192 43.233,39.249C43.821,39.945 44.037,40.882 43.813,41.765C43.589,42.649 42.953,43.369 42.104,43.701C38.76,45.007 33.829,46.933 30.341,48.296C27.866,49.263 25.049,48.499 23.402,46.413C20.984,43.352 17.476,38.91 14.937,35.696Z"/>
        </clipPath>
        <g clip-path="url(#_clip5)">
            <path d="M20.485,22.517C20.399,22.67 20.573,22.23 20.574,22.219C20.595,22.029 20.735,21.913 20.952,21.738C21.432,21.351 21.987,21.074 22.522,20.766C24.203,19.799 25.869,18.812 27.613,17.956C31.289,16.15 40.787,10.864 44.782,11.292C48.306,11.67 49.024,14.47 50.022,17.425C51.719,22.452 53.048,27.496 54.388,32.621C54.521,33.131 56.633,39.637 56.633,39.639C56.614,39.822 56.173,39.414 56.139,39.39C55.734,39.105 55.254,38.916 54.812,38.694C53.624,38.097 51.566,41.022 50.505,40.234C45.929,36.834 42.161,34.832 38.132,34.613C34.368,34.409 32.088,36.256 28.407,36.385C23.232,36.567 15.871,33.748 11.138,31.829C9.981,31.36 6.157,29.958 5.852,28.558C5.492,26.91 9.757,22.96 10.856,21.992C12.448,20.59 13.965,19.082 15.728,17.887" style="fill:#fff;fill-opacity:0.35;"/>
        </g>
        <path d="M39.14,47.474C38.768,47.318 38.355,47.298 38.049,47.419C37.21,47.749 35.465,48.438 34.086,48.982C33.69,49.138 33.498,49.461 33.583,49.827C33.669,50.192 34.019,50.543 34.497,50.743C34.497,50.743 34.497,50.743 34.497,50.743C34.869,50.898 35.282,50.919 35.589,50.798C36.427,50.467 38.172,49.779 39.551,49.235C39.947,49.079 40.139,48.756 40.054,48.39C39.968,48.024 39.619,47.674 39.14,47.474C39.14,47.474 39.14,47.474 39.14,47.474Z" style="fill:#be88be;"/>
        <path d="M46.681,44.529C46.309,44.374 45.896,44.353 45.59,44.474C44.751,44.805 43.006,45.493 41.627,46.037C41.231,46.193 41.039,46.517 41.124,46.882C41.21,47.248 41.56,47.599 42.038,47.799C42.038,47.799 42.038,47.799 42.038,47.799C42.41,47.954 42.823,47.974 43.13,47.853C43.968,47.523 45.713,46.835 47.092,46.291C47.488,46.135 47.68,45.811 47.595,45.446C47.509,45.08 47.159,44.729 46.681,44.529C46.681,44.529 46.681,44.529 46.681,44.529Z" style="fill:#be88be;"/>
    </g>
</svg>
