<?xml version="1.0" encoding="UTF-8" standalone="no"?>
<!DOCTYPE svg PUBLIC "-//W3C//DTD SVG 1.1//EN" "http://www.w3.org/Graphics/SVG/1.1/DTD/svg11.dtd">
<svg width="100%" height="100%" viewBox="0 0 65 64" version="1.1" xmlns="http://www.w3.org/2000/svg" xmlns:xlink="http://www.w3.org/1999/xlink" xml:space="preserve" xmlns:serif="http://www.serif.com/" style="fill-rule:evenodd;clip-rule:evenodd;stroke-linejoin:round;stroke-miterlimit:2;">
    <rect id="Calendar" x="0.738" y="0" width="64" height="64" style="fill:none;"/>
    <rect x="5.727" y="14.813" width="52" height="44.585" style="fill:#d1d2e2;"/>
    <rect x="7.411" y="9.311" width="52" height="51.357" style="fill:#d1d2e2;fill-opacity:0.75;"/>
    <path d="M57.727,14.813L5.727,14.813L5.727,59.398L45.066,59.398C52.058,59.398 57.727,53.73 57.727,46.737L57.727,14.813Z" style="fill:#f2f2fa;"/>
    <clipPath id="_clip1">
        <path d="M57.727,14.813L5.727,14.813L5.727,59.398L45.066,59.398C52.058,59.398 57.727,53.73 57.727,46.737L57.727,14.813Z"/>
    </clipPath>
    <g clip-path="url(#_clip1)">
        <path d="M46.291,59.416C49.133,57.256 50.775,54.588 50.134,50.956C53.983,50.537 56.262,49.278 57.665,47.551L59.01,60.553L46.291,59.416Z" style="fill:#717594;fill-opacity:0.64;"/>
    </g>
    <path d="M57.727,14.813L5.727,14.813L5.727,21.174L57.727,20.187L57.727,14.813Z" style="fill:#d1d2e2;"/>
    <rect x="5.727" y="7.398" width="52" height="12.093" style="fill:#f1765a;"/>
    <g>
        <circle cx="19.12" cy="13.018" r="3.403" style="fill:#c84f4d;"/>
        <circle cx="44.317" cy="13.018" r="3.403" style="fill:#c84f4d;"/>
    </g>
    <path d="M20.638,4.528C20.638,3.709 19.974,3.045 19.155,3.045C19.145,3.045 19.136,3.045 19.127,3.045C18.308,3.045 17.644,3.709 17.644,4.528C17.644,6.704 17.644,10.739 17.644,12.916C17.644,13.734 18.308,14.398 19.127,14.398C19.136,14.398 19.145,14.398 19.155,14.398C19.974,14.398 20.638,13.734 20.638,12.916C20.638,10.739 20.638,6.704 20.638,4.528Z" style="fill:#90b5bb;"/>
    <path d="M45.839,4.528C45.839,3.709 45.175,3.045 44.356,3.045C44.346,3.045 44.337,3.045 44.328,3.045C43.509,3.045 42.845,3.709 42.845,4.528C42.845,6.704 42.845,10.739 42.845,12.916C42.845,13.734 43.509,14.398 44.328,14.398C44.337,14.398 44.346,14.398 44.356,14.398C45.175,14.398 45.839,13.734 45.839,12.916C45.839,10.739 45.839,6.704 45.839,4.528Z" style="fill:#90b5bb;"/>
    <path d="M20.638,4.421C20.638,4.028 20.481,3.651 20.203,3.373C19.925,3.095 19.548,2.938 19.155,2.938C19.145,2.938 19.136,2.938 19.127,2.938C18.733,2.938 18.356,3.095 18.078,3.373C17.8,3.651 17.644,4.028 17.644,4.421C17.644,6.018 17.644,8.545 17.644,10.142C17.644,10.535 17.8,10.913 18.078,11.191C18.356,11.469 18.733,11.625 19.127,11.625C19.136,11.625 19.145,11.625 19.155,11.625C19.548,11.625 19.925,11.469 20.203,11.191C20.481,10.913 20.638,10.535 20.638,10.142C20.638,8.545 20.638,6.018 20.638,4.421Z" style="fill:#b0cacf;"/>
    <path d="M45.839,4.421C45.839,4.028 45.682,3.651 45.404,3.373C45.126,3.095 44.749,2.938 44.356,2.938C44.346,2.938 44.337,2.938 44.328,2.938C43.934,2.938 43.557,3.095 43.279,3.373C43.001,3.651 42.845,4.028 42.845,4.421C42.845,6.018 42.845,8.545 42.845,10.142C42.845,10.535 43.001,10.913 43.279,11.191C43.557,11.469 43.934,11.625 44.328,11.625C44.337,11.625 44.346,11.625 44.356,11.625C44.749,11.625 45.126,11.469 45.404,11.191C45.682,10.913 45.839,10.535 45.839,10.142C45.839,8.545 45.839,6.018 45.839,4.421Z" style="fill:#b0cacf;"/>
    <path d="M19.75,4.667C19.75,4.331 19.478,4.058 19.141,4.058C19.141,4.058 19.141,4.058 19.14,4.058C18.804,4.058 18.531,4.331 18.531,4.667C18.531,5.552 18.531,7.186 18.531,8.072C18.531,8.408 18.804,8.681 19.14,8.681C19.141,8.681 19.141,8.681 19.141,8.681C19.478,8.681 19.75,8.408 19.75,8.072C19.75,7.186 19.75,5.552 19.75,4.667Z" style="fill:#dfe4e5;fill-opacity:0.4;"/>
    <path d="M44.951,4.667C44.951,4.331 44.679,4.058 44.342,4.058C44.342,4.058 44.342,4.058 44.341,4.058C44.005,4.058 43.732,4.331 43.732,4.667C43.732,5.552 43.732,7.186 43.732,8.072C43.732,8.408 44.005,8.681 44.341,8.681C44.342,8.681 44.342,8.681 44.342,8.681C44.679,8.681 44.951,8.408 44.951,8.072C44.951,7.186 44.951,5.552 44.951,4.667Z" style="fill:#dfe4e5;fill-opacity:0.4;"/>
    <path d="M24.973,45.859C27.689,44.087 31.705,39.432 31.705,35.114C31.705,31.134 29.208,28.94 25.861,28.94C21.844,28.94 19.527,32.512 19.527,36.211L22.72,36.436C22.797,34.397 23.505,32.147 25.887,32.147C27.676,32.147 28.435,33.441 28.435,35.03C28.435,39.811 22.823,44.157 19.604,46.252L19.604,49.079L32.606,49.079L32.606,45.859L24.973,45.859Z" style="fill:#4e838f;fill-rule:nonzero;"/>
    <path d="M39.72,29.208L39.72,30.417C39.72,31.739 39.012,32.316 37.776,32.316L35.343,32.316L35.343,35.03L39.592,35.03L39.592,49.079L42.81,49.079L42.81,29.208L39.72,29.208Z" style="fill:#4e838f;fill-rule:nonzero;"/>
</svg>
