<?xml version="1.0" encoding="UTF-8" standalone="no"?>
<!DOCTYPE svg PUBLIC "-//W3C//DTD SVG 1.1//EN" "http://www.w3.org/Graphics/SVG/1.1/DTD/svg11.dtd">
<svg width="100%" height="100%" viewBox="0 0 65 65" version="1.1" xmlns="http://www.w3.org/2000/svg" xmlns:xlink="http://www.w3.org/1999/xlink" xml:space="preserve" xmlns:serif="http://www.serif.com/" style="fill-rule:evenodd;clip-rule:evenodd;stroke-linecap:round;stroke-linejoin:round;stroke-miterlimit:1;">
    <rect id="Canned-fish" x="0.778" y="0.82" width="64" height="64" style="fill:none;"/>
    <path d="M22.82,54.077C27.152,56.578 32.489,56.578 36.82,54.077C44.111,49.868 55.415,43.342 62.324,39.353C63.568,38.634 64.335,37.307 64.335,35.87C64.335,34.433 63.568,33.106 62.324,32.387C58.043,29.916 52.285,26.592 47.802,24.003C43.471,21.503 38.134,21.503 33.802,24.003C26.537,28.198 15.288,34.693 8.373,38.685C7.113,39.412 6.337,40.756 6.337,42.21C6.337,43.665 7.113,45.008 8.373,45.736C12.645,48.202 18.363,51.504 22.82,54.077Z" style="fill:#b8b9d3;fill-opacity:0.27;"/>
    <path d="M13.791,33.315L31.871,22.876C36.203,20.375 41.54,20.375 45.871,22.876L51.81,26.305L51.81,23.568L61.206,23.568L61.206,34.196L61.203,34.196C61.153,35.577 60.397,36.839 59.195,37.534C52.283,41.524 40.974,48.053 33.681,52.264C29.349,54.765 24.012,54.765 19.681,52.264C15.556,49.883 10.389,46.9 6.431,44.614C5.188,43.897 4.416,42.579 4.396,41.146L4.395,41.146L4.395,30.491L13.791,30.491L13.791,33.315Z" style="fill:#f1765a;"/>
    <clipPath id="_clip1">
        <path d="M13.791,33.315L31.871,22.876C36.203,20.375 41.54,20.375 45.871,22.876L51.81,26.305L51.81,23.568L61.206,23.568L61.206,34.196L61.203,34.196C61.153,35.577 60.397,36.839 59.195,37.534C52.283,41.524 40.974,48.053 33.681,52.264C29.349,54.765 24.012,54.765 19.681,52.264C15.556,49.883 10.389,46.9 6.431,44.614C5.188,43.897 4.416,42.579 4.396,41.146L4.395,41.146L4.395,30.491L13.791,30.491L13.791,33.315Z"/>
    </clipPath>
    <g clip-path="url(#_clip1)">
        <rect x="29.432" y="6.73" width="50.188" height="52.181" style="fill:#b6654c;"/>
        <path d="M7.395,19.927L0.03,15.675L0.03,48.763L7.395,53.015L7.395,19.927Z" style="fill:#f1b1af;"/>
    </g>
    <path d="M19.681,41.829C24.012,44.33 29.349,44.33 33.681,41.829C40.974,37.618 52.283,31.089 59.195,27.098C60.439,26.38 61.206,25.052 61.206,23.616C61.206,22.179 60.439,20.852 59.195,20.133C55.227,17.843 50.021,14.837 45.871,12.441C41.54,9.94 36.203,9.94 31.871,12.441C24.603,16.637 13.349,23.135 6.431,27.129C5.171,27.856 4.395,29.2 4.395,30.654C4.395,32.108 5.171,33.452 6.431,34.179C10.389,36.464 15.556,39.448 19.681,41.829Z" style="fill:#b8b9d3;"/>
    <clipPath id="_clip2">
        <path d="M19.681,41.829C24.012,44.33 29.349,44.33 33.681,41.829C40.974,37.618 52.283,31.089 59.195,27.098C60.439,26.38 61.206,25.052 61.206,23.616C61.206,22.179 60.439,20.852 59.195,20.133C55.227,17.843 50.021,14.837 45.871,12.441C41.54,9.94 36.203,9.94 31.871,12.441C24.603,16.637 13.349,23.135 6.431,27.129C5.171,27.856 4.395,29.2 4.395,30.654C4.395,32.108 5.171,33.452 6.431,34.179C10.389,36.464 15.556,39.448 19.681,41.829Z"/>
    </clipPath>
    <g clip-path="url(#_clip2)">
        <path d="M19.965,43.732C24.296,46.233 29.633,46.233 33.965,43.732C41.19,39.56 52.347,33.119 59.195,29.165C60.439,28.447 61.206,27.119 61.206,25.683C61.206,24.246 60.439,22.919 59.195,22.2C55.279,19.939 50.161,16.984 46.065,14.62C41.734,12.119 36.397,12.119 32.065,14.62C24.865,18.777 13.763,25.187 6.909,29.144C5.649,29.871 4.874,31.215 4.874,32.669C4.874,34.123 5.649,35.467 6.909,36.194C10.815,38.45 15.895,41.382 19.965,43.732Z" style="fill:#e4e4ed;"/>
        <path d="M21.553,40.174C24.356,41.792 27.81,41.792 30.613,40.174C37.378,36.268 49.91,29.032 55.413,25.855C55.973,25.532 56.317,24.936 56.317,24.29C56.317,23.645 55.973,23.048 55.413,22.725C52.538,21.065 47.932,18.406 44.395,16.364C41.299,14.576 37.484,14.576 34.388,16.364C27.47,20.358 15.237,27.421 9.928,30.486C9.397,30.793 9.069,31.36 9.069,31.974C9.069,32.588 9.397,33.155 9.928,33.462C12.92,35.19 17.909,38.07 21.553,40.174Z" style="fill:none;stroke:#c3c5d7;stroke-width:1.09px;"/>
    </g>
    <g>
        <path d="M46.908,36.951C50.278,35.005 53.013,35.259 53.013,35.713C53.013,36.546 50.278,39.581 46.908,41.526C43.538,43.472 40.802,44.026 40.802,42.763C40.802,41.501 43.538,38.896 46.908,36.951Z" style="fill:#b7b9dc;"/>
        <path d="M42.599,41.839L38.364,46.684L38.364,41.883L42.599,41.839Z" style="fill:#b7b9dc;"/>
        <path d="M48.878,36.629L44.643,41.474L44.643,36.673L48.878,36.629Z" style="fill:#b7b9dc;"/>
        <path d="M49.061,39.015L44.826,43.86L44.826,39.059L49.061,39.015Z" style="fill:#b7b9dc;"/>
    </g>
    <path d="M50.722,17.395C47.811,15.535 44.151,15.289 41.017,16.743C38.536,17.894 35.515,19.295 32.871,20.522C31.63,21.098 30.812,22.317 30.751,23.684C30.69,25.051 31.396,26.338 32.581,27.022C33.308,27.442 34.047,27.869 34.767,28.285C38.156,30.241 42.414,29.82 45.354,27.238C47.272,25.554 49.408,23.677 51.09,22.2C51.802,21.575 52.179,20.652 52.107,19.707C52.035,18.762 51.523,17.906 50.724,17.396C50.724,17.396 50.723,17.395 50.722,17.395ZM41.522,20.173C40.597,19.6 39.452,19.511 38.449,19.934C37.384,20.385 35.923,21.002 34.508,21.599C33.627,21.972 33.033,22.81 32.974,23.765C32.914,24.719 33.401,25.625 34.229,26.103C34.639,26.34 35.056,26.581 35.466,26.817C37.997,28.279 41.2,27.811 43.208,25.687C43.825,25.034 44.421,24.403 44.892,23.905C45.132,23.651 45.245,23.303 45.2,22.956C45.155,22.61 44.956,22.302 44.66,22.118C43.748,21.553 42.493,20.775 41.522,20.173ZM46.052,17.668C46.764,17.257 47.921,17.257 48.633,17.668C49.345,18.079 49.345,18.747 48.633,19.158C47.921,19.569 46.764,19.569 46.052,19.158C45.34,18.747 45.34,18.079 46.052,17.668Z" style="fill:#b8b9d3;"/>
    <path d="M50.722,16.4C47.811,14.54 44.151,14.294 41.017,15.748C38.536,16.899 35.515,18.3 32.871,19.527C31.63,20.103 30.812,21.322 30.751,22.689C30.69,24.056 31.396,25.343 32.581,26.028C33.308,26.447 34.047,26.874 34.767,27.29C38.156,29.246 42.414,28.825 45.354,26.244C47.272,24.559 49.408,22.683 51.09,21.206C51.802,20.58 52.179,19.657 52.107,18.712C52.035,17.767 51.523,16.911 50.724,16.401C50.724,16.401 50.723,16.4 50.722,16.4ZM41.522,19.179C40.597,18.605 39.452,18.516 38.449,18.94C37.384,19.39 35.923,20.007 34.508,20.605C33.627,20.977 33.033,21.816 32.974,22.77C32.914,23.724 33.401,24.63 34.229,25.108C34.639,25.345 35.056,25.586 35.466,25.823C37.997,27.284 41.2,26.816 43.208,24.692C43.825,24.039 44.421,23.408 44.892,22.91C45.132,22.656 45.245,22.308 45.2,21.962C45.155,21.615 44.956,21.308 44.66,21.124C43.748,20.558 42.493,19.78 41.522,19.179ZM46.052,16.674C46.764,16.262 47.921,16.262 48.633,16.674C49.345,17.085 49.345,17.752 48.633,18.163C47.921,18.575 46.764,18.575 46.052,18.163C45.34,17.752 45.34,17.085 46.052,16.674Z" style="fill:#f9f9fa;"/>
</svg>
