<?xml version="1.0" encoding="UTF-8" standalone="no"?>
<!DOCTYPE svg PUBLIC "-//W3C//DTD SVG 1.1//EN" "http://www.w3.org/Graphics/SVG/1.1/DTD/svg11.dtd">
<svg width="100%" height="100%" viewBox="0 0 65 64" version="1.1" xmlns="http://www.w3.org/2000/svg" xmlns:xlink="http://www.w3.org/1999/xlink" xml:space="preserve" xmlns:serif="http://www.serif.com/" style="fill-rule:evenodd;clip-rule:evenodd;stroke-linecap:round;stroke-linejoin:round;stroke-miterlimit:1.5;">
    <rect id="Cash" x="0.738" y="0" width="64" height="64" style="fill:none;"/>
    <path d="M50.738,12L15.738,12L5.738,32L60.738,32L50.738,12Z" style="fill:#f3775b;"/>
    <path d="M44.738,55L21.738,55L5.738,32L60.738,32L44.738,55Z" style="fill:#2b307e;"/>
    <clipPath id="_clip1">
        <path d="M44.738,55L21.738,55L5.738,32L60.738,32L44.738,55Z"/>
    </clipPath>
    <g clip-path="url(#_clip1)">
        <path d="M4.738,36L60.738,36" style="fill:none;stroke:#fff;stroke-opacity:0.34;stroke-width:1px;"/>
        <path d="M4.738,40.5L60.738,40.5" style="fill:none;stroke:#fff;stroke-opacity:0.24;stroke-width:1px;"/>
        <path d="M4.738,44.5L60.738,44.5" style="fill:none;stroke:#fff;stroke-opacity:0.14;stroke-width:1px;"/>
        <path d="M4.738,47L60.738,47" style="fill:none;stroke:#fff;stroke-opacity:0.07;stroke-width:1px;"/>
    </g>
    <path d="M35.221,14L32.433,14L32.433,15.712C29.145,16.009 27.208,17.424 27.208,19.31C27.208,21.354 29.38,22.332 33.108,23.048C35.662,23.555 36.748,24.026 36.748,24.847C36.748,25.651 35.75,26.227 34.047,26.227C31.992,26.227 30.906,25.581 30.818,24.376L26.738,24.376C26.826,26.437 28.734,27.939 32.433,28.271L32.433,30L35.221,30L35.221,28.288C38.48,28.026 40.828,26.751 40.828,24.638C40.828,22.803 39.272,21.721 34.898,20.847C32.403,20.323 31.288,20.026 31.288,19.1C31.288,18.262 32.169,17.79 33.607,17.79C35.016,17.79 36.043,18.332 36.102,19.31L40.182,19.31C40.035,17.231 38.186,16.026 35.221,15.729L35.221,14Z" style="fill:#fff;fill-rule:nonzero;"/>
    <path d="M45.738,55L61.738,42L36.738,42L21.738,55L45.738,55Z" style="fill:#2b307e;fill-opacity:0.23;"/>
</svg>
