<?xml version="1.0" encoding="UTF-8" standalone="no"?>
<!DOCTYPE svg PUBLIC "-//W3C//DTD SVG 1.1//EN" "http://www.w3.org/Graphics/SVG/1.1/DTD/svg11.dtd">
<svg width="100%" height="100%" viewBox="0 0 64 65" version="1.1" xmlns="http://www.w3.org/2000/svg" xmlns:xlink="http://www.w3.org/1999/xlink" xml:space="preserve" xmlns:serif="http://www.serif.com/" style="fill-rule:evenodd;clip-rule:evenodd;stroke-linecap:round;stroke-linejoin:round;stroke-miterlimit:1.5;">
    <rect id="Checklist" x="0" y="0.156" width="64" height="64" style="fill:none;"/>
    <path d="M52,16.156C52,14.564 51.368,13.038 50.243,11.913C49.117,10.788 47.591,10.156 46,10.156C38.5,10.156 25.731,10.156 18.158,10.156C16.525,10.156 14.959,10.804 13.804,11.959C12.649,13.114 12,14.681 12,16.314C12,25.967 12,44.544 12,54.12C12,57.453 14.702,60.156 18.036,60.156C25.583,60.156 38.428,60.156 45.972,60.156C49.301,60.156 52,57.457 52,54.128C52,44.501 52,25.765 52,16.156Z" style="fill:#f3775b;"/>
    <path d="M52,13.156C52,11.499 50.657,10.156 49,10.156C41.578,10.156 22.422,10.156 15,10.156C13.343,10.156 12,11.499 12,13.156C12,22.057 12,48.254 12,57.156C12,58.812 13.343,60.156 15,60.156C22.422,60.156 41.578,60.156 49,60.156C50.657,60.156 52,58.812 52,57.156C52,48.254 52,22.057 52,13.156Z" style="fill:#f3775b;"/>
    <path d="M41.5,13.656C41.5,8.409 37.247,4.156 32,4.156C32,4.156 32,4.156 32,4.156C26.753,4.156 22.5,8.409 22.5,13.656C22.5,13.972 22.5,14.156 22.5,14.156L41.5,14.156C41.5,14.156 41.5,13.972 41.5,13.656Z" style="fill:#2b307e;"/>
    <g>
        <path d="M18.5,38.812L20.5,40.812L26.157,35.156" style="fill:none;stroke:#fff;stroke-width:2px;"/>
        <rect x="29.5" y="37.656" width="16" height="2" style="fill:#fff;"/>
    </g>
    <g>
        <path d="M18.5,26.312L20.5,28.312L26.157,22.656" style="fill:none;stroke:#fff;stroke-width:2px;"/>
        <rect x="29.5" y="25.156" width="16" height="2" style="fill:#fff;"/>
    </g>
    <g>
        <path d="M18.5,49.844L20.5,51.856L26.157,46.167" style="fill:none;stroke:#fff;stroke-width:2px;"/>
        <rect x="29.5" y="48.681" width="16" height="2.011" style="fill:#fff;"/>
    </g>
    <path d="M58.649,31.791C59.12,31.32 59.385,30.68 59.385,30.013C59.385,29.347 59.12,28.707 58.649,28.236C58.648,28.235 58.648,28.235 58.648,28.235C58.176,27.763 57.537,27.498 56.87,27.498C56.203,27.498 55.564,27.763 55.092,28.235C49.311,34.016 31.414,51.913 31.414,51.913L30.364,56.52L34.971,55.469C34.971,55.469 52.868,37.572 58.649,31.791Z" style="fill:#2b307e;"/>
    <path d="M58.348,48.804C58.839,48.643 59.246,48.293 59.479,47.832C59.712,47.371 59.752,46.836 59.591,46.345C59.591,46.344 59.59,46.343 59.59,46.342C59.429,45.852 59.079,45.445 58.618,45.212C58.157,44.979 57.622,44.939 57.131,45.1C51.117,47.076 32.509,53.189 32.509,53.189L30.176,56.008L33.726,56.893C33.726,56.893 52.334,50.78 58.348,48.804Z" style="fill:#2b307e;fill-opacity:0.239216;"/>
</svg>
