<?xml version="1.0" encoding="UTF-8" standalone="no"?>
<!DOCTYPE svg PUBLIC "-//W3C//DTD SVG 1.1//EN" "http://www.w3.org/Graphics/SVG/1.1/DTD/svg11.dtd">
<svg width="100%" height="100%" viewBox="0 0 65 64" version="1.1" xmlns="http://www.w3.org/2000/svg" xmlns:xlink="http://www.w3.org/1999/xlink" xml:space="preserve" xmlns:serif="http://www.serif.com/" style="fill-rule:evenodd;clip-rule:evenodd;stroke-linejoin:round;stroke-miterlimit:2;">
    <rect id="Chef" x="0.738" y="0" width="64" height="64" style="fill:none;"/>
    <g>
        <path d="M15.749,57.793L15.749,35.288L49.716,35.288L49.716,57.996C49.716,59.316 42.093,60.388 32.702,60.388C23.312,60.388 15.689,59.316 15.689,57.996C15.689,57.928 15.709,57.86 15.749,57.793Z" style="fill:#d1cfe8;"/>
        <clipPath id="_clip1">
            <path d="M15.749,57.793L15.749,35.288L49.716,35.288L49.716,57.996C49.716,59.316 42.093,60.388 32.702,60.388C23.312,60.388 15.689,59.316 15.689,57.996C15.689,57.928 15.709,57.86 15.749,57.793Z"/>
        </clipPath>
        <g clip-path="url(#_clip1)">
            <rect x="32.135" y="43.942" width="14.353" height="19.735" style="fill:#e3e1f1;"/>
        </g>
        <circle cx="20.151" cy="26.622" r="16.124" style="fill:#d1cfe8;"/>
        <clipPath id="_clip2">
            <circle cx="20.151" cy="26.622" r="16.124"/>
        </clipPath>
        <g clip-path="url(#_clip2)">
            <circle cx="21.555" cy="13.319" r="16.124" style="fill:#e3e1f1;"/>
        </g>
        <circle cx="33.592" cy="19.736" r="16.124" style="fill:#d1cfe8;"/>
        <clipPath id="_clip3">
            <circle cx="33.592" cy="19.736" r="16.124"/>
        </clipPath>
        <g clip-path="url(#_clip3)">
            <circle cx="33.592" cy="9.148" r="16.124" style="fill:#e3e1f1;"/>
        </g>
        <circle cx="46.628" cy="27.75" r="16.309" style="fill:#d1cfe8;"/>
        <clipPath id="_clip4">
            <circle cx="46.628" cy="27.75" r="16.309"/>
        </clipPath>
        <g clip-path="url(#_clip4)">
            <circle cx="51.239" cy="17.376" r="16.309" style="fill:#e3e1f1;"/>
        </g>
        <path d="M18.015,42.586C18.013,42.583 18.011,42.58 18.009,42.578C18.006,42.573 15.8,40.029 14.402,35.843C14.279,35.471 14.456,35.067 14.812,34.904C15.168,34.74 15.589,34.871 15.791,35.207C17.597,38.181 20.529,41.702 24.988,43.839C18.743,43.417 18.073,42.674 18.015,42.586Z" style="fill:#9295ca;"/>
        <path d="M44.372,43.634C45.934,43.492 47.355,42.67 48.257,41.385C49.091,40.186 50.101,38.526 50.925,36.55C51.062,36.184 50.902,35.773 50.553,35.597C50.204,35.421 49.779,35.536 49.566,35.864C47.738,38.686 44.916,41.857 40.782,43.839C42.369,43.752 43.527,43.685 44.372,43.634Z" style="fill:#9295ca;"/>
        <path d="M26.752,43.839C26.752,43.839 25.39,41.657 24.199,38.149C24.075,37.777 24.248,37.37 24.602,37.201C24.956,37.033 25.381,37.155 25.591,37.486C26.891,40.217 28.368,42.915 29.495,43.839C29.495,43.839 27.963,43.96 26.752,43.839Z" style="fill:#9295ca;"/>
        <path d="M39.018,43.839C39.018,43.839 40.381,41.657 41.571,38.149C41.695,37.777 41.522,37.37 41.168,37.201C40.814,37.033 40.389,37.155 40.179,37.486C38.879,40.217 37.402,42.915 36.276,43.839C36.276,43.839 38.096,44.067 39.018,43.839Z" style="fill:#9295ca;"/>
        <path d="M23.942,26.568L23.949,26.602L23.958,26.649L23.98,26.747L24.012,26.884L24.054,27.058L24.108,27.268L24.139,27.385L24.174,27.511L24.212,27.645L24.253,27.788L24.297,27.938L24.345,28.096L24.378,28.2L24.396,28.261L24.449,28.434L24.506,28.615L24.566,28.802L24.631,28.997L24.699,29.198L24.771,29.405L24.847,29.62L24.928,29.84L25.013,30.067L25.066,30.207L25.1,30.3L25.191,30.539L25.285,30.784L25.384,31.034L25.478,31.267L25.487,31.29L25.592,31.553L25.702,31.82L25.816,32.092L25.916,32.326L25.935,32.37L26.054,32.654L26.178,32.943L26.242,33.088L26.307,33.235L26.361,33.355L26.373,33.383L26.439,33.533L26.506,33.685L26.574,33.837L26.58,33.85L26.641,33.991L26.71,34.146L26.779,34.303L26.792,34.329L26.848,34.461L26.918,34.621L26.989,34.781L27.009,34.827L27.059,34.944L27.13,35.108L27.203,35.273L27.247,35.373L27.275,35.439L27.348,35.608L27.421,35.777L27.497,35.947L27.573,36.118L27.651,36.291L27.731,36.464L27.777,36.562L27.811,36.638L27.891,36.815L27.972,36.992L28.055,37.17L28.14,37.349L28.226,37.529L28.314,37.71L28.359,37.801L28.402,37.892L28.491,38.075L28.582,38.259L28.674,38.444L28.768,38.63L28.864,38.817L28.959,38.999L28.962,39.004L29.059,39.193L29.158,39.383L29.259,39.574L29.361,39.765L29.466,39.957L29.572,40.15L29.68,40.343L29.79,40.537L29.901,40.732L30.015,40.927L30.018,40.933L30.129,41.124L30.244,41.322L30.362,41.52L30.464,41.689L30.482,41.719L30.441,42.005L30.156,41.959L30.132,41.932L30.001,41.784L29.847,41.609L29.695,41.433L29.55,41.263L29.545,41.258L29.399,41.081L29.254,40.905L29.112,40.729L28.971,40.552L28.831,40.377L28.694,40.201L28.558,40.025L28.425,39.85L28.293,39.675L28.162,39.501L28.159,39.496L28.036,39.325L27.911,39.15L27.788,38.975L27.666,38.801L27.546,38.627L27.428,38.453L27.37,38.367L27.313,38.28L27.2,38.106L27.089,37.933L26.979,37.76L26.872,37.588L26.765,37.416L26.661,37.246L26.616,37.171L26.559,37.074L26.461,36.903L26.364,36.733L26.268,36.564L26.174,36.395L26.082,36.227L25.991,36.059L25.956,35.993L25.904,35.892L25.819,35.725L25.736,35.559L25.677,35.44L25.655,35.393L25.577,35.228L25.501,35.063L25.439,34.927L25.427,34.899L25.356,34.735L25.287,34.572L25.226,34.425L25.22,34.411L25.156,34.249L25.093,34.089L25.032,33.93L25.02,33.899L24.974,33.771L24.917,33.613L24.862,33.456L24.756,33.148L24.654,32.844L24.639,32.797L24.562,32.545L24.475,32.25L24.392,31.962L24.314,31.679L24.307,31.654L24.243,31.402L24.177,31.131L24.114,30.866L24.055,30.608L24.033,30.508L24.002,30.356L23.954,30.111L23.909,29.872L23.867,29.641L23.829,29.418L23.793,29.202L23.76,28.993L23.73,28.792L23.703,28.6L23.678,28.415L23.67,28.35L23.657,28.238L23.638,28.069L23.622,27.909L23.607,27.758L23.595,27.615L23.584,27.481L23.574,27.355L23.56,27.134L23.55,26.949L23.544,26.803L23.54,26.696L23.54,26.647L23.539,26.611L23.719,26.388L23.942,26.568Z" style="fill:#fff;fill-opacity:0.75;"/>
        <path d="M14.519,29.032L14.533,29.064L14.552,29.108L14.594,29.2L14.654,29.327L14.732,29.488L14.828,29.682L14.883,29.79L14.944,29.906L15.009,30.029L15.079,30.16L15.154,30.297L15.234,30.442L15.288,30.537L15.318,30.593L15.406,30.751L15.5,30.915L15.598,31.086L15.702,31.263L15.811,31.445L15.925,31.633L16.045,31.826L16.169,32.025L16.3,32.229L16.382,32.355L16.435,32.438L16.573,32.653L16.717,32.873L16.866,33.097L17.007,33.305L17.021,33.326L17.178,33.56L17.342,33.799L17.51,34.041L17.657,34.248L17.684,34.287L17.861,34.54L18.043,34.796L18.136,34.925L18.23,35.055L18.308,35.161L18.326,35.186L18.422,35.319L18.519,35.453L18.617,35.588L18.626,35.599L18.715,35.724L18.815,35.862L18.916,36L18.933,36.023L19.017,36.14L19.118,36.282L19.221,36.424L19.251,36.464L19.324,36.568L19.428,36.713L19.533,36.859L19.598,36.948L19.639,37.007L19.745,37.156L19.853,37.306L19.962,37.457L20.073,37.609L20.186,37.761L20.3,37.913L20.365,37.999L20.415,38.067L20.53,38.223L20.647,38.379L20.765,38.536L20.885,38.693L21.007,38.851L21.131,39.009L21.194,39.088L21.256,39.168L21.381,39.329L21.509,39.49L21.638,39.652L21.769,39.814L21.901,39.976L22.032,40.134L22.036,40.139L22.171,40.303L22.307,40.468L22.446,40.633L22.586,40.799L22.729,40.965L22.873,41.131L23.019,41.297L23.167,41.464L23.317,41.631L23.469,41.798L23.474,41.803L23.622,41.967L23.777,42.136L23.933,42.305L24.068,42.448L24.092,42.474L24.112,42.762L23.824,42.777L23.795,42.756L23.635,42.639L23.448,42.499L23.263,42.36L23.085,42.224L23.08,42.22L22.899,42.078L22.721,41.936L22.544,41.793L22.37,41.651L22.197,41.508L22.026,41.365L21.856,41.222L21.689,41.079L21.523,40.935L21.359,40.792L21.354,40.788L21.198,40.647L21.039,40.502L20.882,40.357L20.727,40.212L20.573,40.067L20.421,39.922L20.346,39.85L20.272,39.776L20.125,39.63L19.98,39.484L19.837,39.338L19.695,39.193L19.556,39.047L19.418,38.902L19.358,38.839L19.282,38.756L19.15,38.609L19.02,38.463L18.891,38.318L18.763,38.172L18.638,38.027L18.514,37.883L18.466,37.826L18.393,37.737L18.275,37.592L18.159,37.447L18.077,37.343L18.045,37.302L17.934,37.156L17.825,37.011L17.736,36.891L17.718,36.867L17.615,36.721L17.514,36.577L17.422,36.445L17.414,36.432L17.317,36.288L17.222,36.145L17.129,36.002L17.111,35.975L17.039,35.859L16.951,35.716L16.864,35.574L16.695,35.295L16.532,35.02L16.507,34.977L16.379,34.746L16.232,34.477L16.091,34.212L15.955,33.952L15.943,33.929L15.827,33.696L15.706,33.444L15.589,33.199L15.477,32.959L15.435,32.866L15.372,32.724L15.274,32.494L15.18,32.27L15.091,32.053L15.006,31.843L14.926,31.639L14.85,31.442L14.779,31.252L14.711,31.069L14.648,30.894L14.627,30.832L14.59,30.725L14.537,30.564L14.487,30.411L14.441,30.266L14.399,30.129L14.36,30L14.325,29.88L14.264,29.666L14.215,29.487L14.179,29.346L14.153,29.242L14.142,29.194L14.134,29.159L14.263,28.903L14.519,29.032Z" style="fill:#fff;fill-opacity:0.75;"/>
    </g>
</svg>
