<?xml version="1.0" encoding="UTF-8" standalone="no"?>
<!DOCTYPE svg PUBLIC "-//W3C//DTD SVG 1.1//EN" "http://www.w3.org/Graphics/SVG/1.1/DTD/svg11.dtd">
<svg width="100%" height="100%" viewBox="0 0 682 520" version="1.1" xmlns="http://www.w3.org/2000/svg" xmlns:xlink="http://www.w3.org/1999/xlink" xml:space="preserve" xmlns:serif="http://www.serif.com/" style="fill-rule:evenodd;clip-rule:evenodd;stroke-linejoin:round;stroke-miterlimit:1.41421;">
    <rect id="Color-Palette" serif:id="Color Palette" x="0" y="0" width="681.166" height="520" style="fill:none;"/>
    <rect x="488.555" y="259.608" width="40" height="42" style="fill:#f2f3fb;"/>
    <rect x="476.103" y="59.51" width="40" height="42" style="fill:#ededf8;"/>
    <rect x="613.262" y="59.763" width="40" height="42" style="fill:#cdceeb;"/>
    <rect x="557.53" y="139.024" width="40" height="42" style="fill:#dadbf0;"/>
    <rect x="461.246" y="59.609" width="40" height="42" style="fill:#dadbf0;"/>
    <rect x="552.713" y="195.606" width="40" height="42" style="fill:#d9daf2;"/>
    <rect x="468.555" y="259.608" width="40" height="42" style="fill:#d9daf2;"/>
    <rect x="601.335" y="195.606" width="40" height="42" style="fill:#f2f3fb;"/>
    <rect x="228.055" y="59.763" width="40" height="42" style="fill:#cecfeb;"/>
    <rect x="228.055" y="116.792" width="40" height="42" style="fill:#f3775b;fill-opacity:0.596949;"/>
    <rect x="228.055" y="217.414" width="40" height="42" style="fill:#f2c84c;fill-opacity:0.596949;"/>
    <rect x="228.055" y="273.738" width="40" height="42" style="fill:#3fbc0e;fill-opacity:0.596949;"/>
    <rect x="181.389" y="59.763" width="40" height="42" style="fill:#aaacdd;"/>
    <rect x="447.131" y="59.763" width="40" height="42" style="fill:#aaacdd;"/>
    <rect x="591.951" y="59.763" width="40" height="42" style="fill:#aaacdd;"/>
    <rect x="591.951" y="59.763" width="40" height="42" style="fill:#aaacdd;"/>
    <rect x="508.555" y="139.024" width="40" height="42" style="fill:#aaacdd;"/>
    <rect x="508.555" y="195.606" width="40" height="42" style="fill:#a6a9e1;"/>
    <rect x="448.555" y="259.608" width="40" height="42" style="fill:#aeb1e2;"/>
    <rect x="456.103" y="195.606" width="40" height="42" style="fill:#666dcb;"/>
    <rect x="428.555" y="259.608" width="40" height="42" style="fill:#7077c1;"/>
    <rect x="461.246" y="139.024" width="40" height="42" style="fill:#696ec5;"/>
    <rect x="181.389" y="116.792" width="40" height="42" style="fill:#f3775b;fill-opacity:0.789486;"/>
    <rect x="181.389" y="217.414" width="40" height="42" style="fill:#f2c84c;fill-opacity:0.789486;"/>
    <rect x="181.389" y="273.738" width="40" height="42" style="fill:#3fbc0e;fill-opacity:0.789486;"/>
    <rect x="109.389" y="59.763" width="40" height="42" style="fill:#2b307f;"/>
    <rect x="109.389" y="59.763" width="40" height="42" style="fill:#2b307f;"/>
    <rect x="427.893" y="59.763" width="40" height="42" style="fill:#2b307f;fill-opacity:0.25098;"/>
    <rect x="572.713" y="59.763" width="40" height="42" style="fill:#2b307f;fill-opacity:0.4;"/>
    <rect x="408.555" y="139.024" width="40" height="42" style="fill:#2b307f;"/>
    <rect x="408.555" y="59.51" width="40" height="42" style="fill:#2b307f;"/>
    <rect x="408.555" y="195.606" width="40" height="42" style="fill:#2b307f;"/>
    <rect x="408.555" y="259.608" width="40" height="42" style="fill:#2b307f;"/>
    <rect x="109.389" y="116.792" width="40" height="42" style="fill:#f3775b;"/>
    <rect x="109.389" y="217.608" width="40" height="42" style="fill:#f2c84c;"/>
    <rect x="109.389" y="273.933" width="40" height="42" style="fill:#3fbc0e;"/>
    <rect x="274.722" y="59.763" width="40" height="42" style="fill:#dfdff2;"/>
    <rect x="274.722" y="116.792" width="40" height="42" style="fill:#f3775b;fill-opacity:0.399733;"/>
    <rect x="274.722" y="217.414" width="40" height="42" style="fill:#f2c84c;fill-opacity:0.399733;"/>
    <rect x="274.722" y="273.738" width="40" height="42" style="fill:#3fbc0e;fill-opacity:0.399733;"/>
    <rect x="611.951" y="139.024" width="40" height="42" style="fill:#ededf8;"/>
    <rect x="321.389" y="116.792" width="40" height="42" style="fill:#f3775b;fill-opacity:0.198914;"/>
    <rect x="321.389" y="217.414" width="40" height="42" style="fill:#f2c84c;fill-opacity:0.198914;"/>
    <rect x="321.389" y="273.738" width="40" height="42" style="fill:#3fbc0e;fill-opacity:0.198914;"/>
    <path d="M46.564,81.844L48.041,81.844L48.041,78.411L49.16,78.411C50.848,78.411 52.084,77.561 52.084,76.014C52.084,74.45 50.848,73.565 49.16,73.565L46.564,73.565L46.564,81.844ZM48.041,77.022L48.041,74.954L49.16,74.954C50.168,74.954 50.607,75.341 50.607,76.014C50.607,76.671 50.18,77.022 49.16,77.022L48.041,77.022Z" style="fill:#b3b3b3;fill-rule:nonzero;"/>
    <path d="M52.512,81.844L53.895,81.844L53.895,79.372C53.895,77.884 54.592,77.262 55.26,77.262C55.488,77.262 55.705,77.333 55.899,77.462L56.549,76.29C56.268,76.003 55.863,75.868 55.477,75.868C54.82,75.868 54.158,76.266 53.906,76.975L53.906,75.991L52.512,75.991L52.512,81.844Z" style="fill:#b3b3b3;fill-rule:nonzero;"/>
    <path d="M56.76,74.884L58.26,74.884L58.26,73.565L56.76,73.565L56.76,74.884ZM56.795,81.844L58.225,81.844L58.225,75.991L56.795,75.991L56.795,81.844Z" style="fill:#b3b3b3;fill-rule:nonzero;"/>
    <path d="M59.414,81.844L60.844,81.844L60.844,78.628C60.844,77.848 61.301,77.198 62.08,77.198C62.813,77.198 63.03,77.778 63.03,78.487L63.03,81.844L64.459,81.844L64.459,78.628C64.459,77.848 64.91,77.198 65.684,77.198C66.422,77.198 66.639,77.79 66.639,78.51L66.639,81.844L68.069,81.844L68.069,78.329C68.069,77.093 67.459,75.868 65.971,75.868C65.262,75.868 64.565,76.143 64.096,76.899C63.75,76.12 63.03,75.868 62.367,75.868C61.77,75.868 61.166,76.073 60.785,76.723L60.785,75.991L59.403,75.991L59.414,81.844Z" style="fill:#b3b3b3;fill-rule:nonzero;"/>
    <path d="M71.203,75.868C70.049,75.868 69.305,76.384 68.743,77.151L69.832,77.942C70.084,77.514 70.541,77.116 71.215,77.116C72.147,77.116 72.405,77.485 72.434,78.352L70.84,78.352C69.534,78.352 68.514,78.774 68.514,80.046C68.514,81.27 69.44,81.962 70.641,81.962C71.309,81.962 72.094,81.663 72.469,81.059L72.557,81.844L73.735,81.844L73.735,78.294C73.735,76.864 72.797,75.868 71.203,75.868ZM70.928,80.755C70.289,80.755 69.979,80.479 69.979,80.093C69.979,79.723 70.278,79.384 70.928,79.384L72.44,79.384L72.44,79.43C72.352,80.122 71.807,80.755 70.928,80.755Z" style="fill:#b3b3b3;fill-rule:nonzero;"/>
    <path d="M74.731,81.844L76.114,81.844L76.114,79.372C76.114,77.884 76.811,77.262 77.479,77.262C77.707,77.262 77.924,77.333 78.118,77.462L78.768,76.29C78.487,76.003 78.082,75.868 77.696,75.868C77.04,75.868 76.377,76.266 76.125,76.975L76.125,75.991L74.731,75.991L74.731,81.844Z" style="fill:#b3b3b3;fill-rule:nonzero;"/>
    <path d="M79.594,84.364L81.153,84.364L84.499,75.991L82.928,75.991L81.428,80.057L79.952,75.991L78.381,75.991L80.672,81.686L79.594,84.364Z" style="fill:#b3b3b3;fill-rule:nonzero;"/>
    <path d="M35.859,139.026C37.441,139.026 38.736,138.083 38.736,136.518C38.736,133.77 34.728,134.298 34.728,132.739C34.728,132.212 35.185,131.854 35.771,131.854C36.328,131.854 36.82,132.177 37.107,132.739L38.344,131.983C37.775,130.976 36.844,130.53 35.824,130.53C34.429,130.53 33.24,131.351 33.24,132.815C33.24,135.511 37.248,134.936 37.248,136.653C37.248,137.239 36.767,137.708 35.883,137.708C35.004,137.708 34.271,137.251 34.166,136.22L32.689,136.595C32.953,138.224 34.394,139.026 35.859,139.026Z" style="fill:#b3b3b3;fill-rule:nonzero;"/>
    <path d="M41.812,139.05C42.797,139.05 43.576,138.704 44.215,137.995L43.23,137.134C42.82,137.591 42.351,137.755 41.824,137.755C40.904,137.755 40.482,137.239 40.359,136.472L44.379,136.472C44.408,136.39 44.432,136.149 44.432,135.909C44.432,134.602 43.769,132.956 41.719,132.956C39.738,132.956 38.848,134.503 38.848,136.026C38.848,137.602 39.797,139.05 41.812,139.05ZM40.359,135.44C40.494,134.708 40.863,134.157 41.707,134.157C42.328,134.157 42.832,134.468 42.978,135.071C43.014,135.188 43.025,135.311 43.025,135.44L40.359,135.44Z" style="fill:#b3b3b3;fill-rule:nonzero;"/>
    <path d="M47.42,139.05C48.58,139.05 49.494,138.405 49.881,137.315L48.58,136.823C48.428,137.374 47.982,137.755 47.408,137.755C46.412,137.755 46.037,136.905 46.037,136.015C46.037,135.142 46.424,134.251 47.408,134.251C47.994,134.251 48.428,134.649 48.58,135.212L49.939,134.685C49.494,133.518 48.568,132.956 47.408,132.956C45.498,132.956 44.584,134.479 44.584,136.015C44.584,137.567 45.51,139.05 47.42,139.05Z" style="fill:#b3b3b3;fill-rule:nonzero;"/>
    <path d="M52.858,139.05C54.668,139.05 55.858,137.649 55.858,135.991C55.858,134.339 54.668,132.956 52.858,132.956C51.047,132.956 49.858,134.339 49.858,135.991C49.858,137.649 51.047,139.05 52.858,139.05ZM52.858,137.819C51.779,137.819 51.346,136.952 51.346,135.991C51.346,135.03 51.779,134.192 52.858,134.192C53.941,134.192 54.369,135.03 54.369,135.991C54.369,136.952 53.941,137.819 52.858,137.819Z" style="fill:#b3b3b3;fill-rule:nonzero;"/>
    <path d="M56.49,138.933L57.92,138.933L57.92,135.727C57.92,134.708 58.424,134.274 59.227,134.274C59.959,134.274 60.346,134.831 60.346,135.599L60.346,138.933L61.776,138.933L61.776,135.417C61.776,134.192 61.172,132.956 59.637,132.956C59.063,132.956 58.389,133.185 57.92,133.759L57.92,133.079L56.49,133.079L56.49,138.933Z" style="fill:#b3b3b3;fill-rule:nonzero;"/>
    <path d="M64.834,139.05C65.479,139.05 66.129,138.827 66.533,138.27L66.598,138.933L67.928,138.933L67.928,130.653L66.475,130.653L66.475,133.665C66.071,133.161 65.42,132.956 64.811,132.956C63.188,132.956 62.297,134.386 62.297,136.003C62.297,137.638 63.188,139.05 64.834,139.05ZM65.18,137.755C64.196,137.755 63.75,136.987 63.75,136.003C63.75,135.03 64.196,134.251 65.18,134.251C66.164,134.251 66.598,135.018 66.598,136.003C66.598,136.999 66.164,137.755 65.18,137.755Z" style="fill:#b3b3b3;fill-rule:nonzero;"/>
    <path d="M71.203,132.956C70.049,132.956 69.305,133.472 68.743,134.239L69.832,135.03C70.084,134.602 70.541,134.204 71.215,134.204C72.147,134.204 72.405,134.573 72.434,135.44L70.84,135.44C69.534,135.44 68.514,135.862 68.514,137.134C68.514,138.358 69.44,139.05 70.641,139.05C71.309,139.05 72.094,138.751 72.469,138.147L72.557,138.933L73.735,138.933L73.735,135.382C73.735,133.952 72.797,132.956 71.203,132.956ZM70.928,137.843C70.289,137.843 69.979,137.567 69.979,137.181C69.979,136.811 70.278,136.472 70.928,136.472L72.44,136.472L72.44,136.518C72.352,137.21 71.807,137.843 70.928,137.843Z" style="fill:#b3b3b3;fill-rule:nonzero;"/>
    <path d="M74.731,138.933L76.114,138.933L76.114,136.46C76.114,134.972 76.811,134.351 77.479,134.351C77.707,134.351 77.924,134.421 78.118,134.55L78.768,133.378C78.487,133.091 78.082,132.956 77.696,132.956C77.04,132.956 76.377,133.354 76.125,134.063L76.125,133.079L74.731,133.079L74.731,138.933Z" style="fill:#b3b3b3;fill-rule:nonzero;"/>
    <path d="M79.594,141.452L81.153,141.452L84.499,133.079L82.928,133.079L81.428,137.145L79.952,133.079L78.381,133.079L80.672,138.774L79.594,141.452Z" style="fill:#b3b3b3;fill-rule:nonzero;"/>
    <path d="M48.844,241.343L50.332,241.343L50.332,234.394L52.922,234.394L52.922,233.064L46.248,233.064L46.248,234.394L48.844,234.394L48.844,241.343Z" style="fill:#b3b3b3;fill-rule:nonzero;"/>
    <path d="M54.674,241.46C55.658,241.46 56.437,241.115 57.076,240.406L56.092,239.544C55.682,240.001 55.213,240.165 54.686,240.165C53.766,240.165 53.344,239.65 53.221,238.882L57.24,238.882C57.27,238.8 57.293,238.56 57.293,238.32C57.293,237.013 56.631,235.367 54.58,235.367C52.6,235.367 51.709,236.913 51.709,238.437C51.709,240.013 52.658,241.46 54.674,241.46ZM53.221,237.851C53.355,237.118 53.725,236.568 54.568,236.568C55.189,236.568 55.693,236.878 55.84,237.482C55.875,237.599 55.887,237.722 55.887,237.851L53.221,237.851Z" style="fill:#b3b3b3;fill-rule:nonzero;"/>
    <path d="M57.961,241.343L59.344,241.343L59.344,238.87C59.344,237.382 60.041,236.761 60.709,236.761C60.938,236.761 61.154,236.831 61.348,236.96L61.998,235.788C61.717,235.501 61.313,235.367 60.926,235.367C60.27,235.367 59.608,235.765 59.356,236.474L59.356,235.49L57.961,235.49L57.961,241.343Z" style="fill:#b3b3b3;fill-rule:nonzero;"/>
    <path d="M64.541,241.46C64.969,241.46 65.391,241.367 65.608,241.284L65.608,239.99C65.414,240.083 65.092,240.2 64.793,240.2C64.418,240.2 64.143,240.036 64.143,239.474L64.143,236.685L65.608,236.685L65.608,235.49L64.143,235.49L64.143,233.017L62.737,234.036L62.737,235.49L61.77,235.49L61.77,236.685L62.713,236.685L62.713,239.726C62.713,240.792 63.399,241.46 64.541,241.46Z" style="fill:#b3b3b3;fill-rule:nonzero;"/>
    <path d="M66.364,234.382L67.864,234.382L67.864,233.064L66.364,233.064L66.364,234.382ZM66.399,241.343L67.828,241.343L67.828,235.49L66.399,235.49L66.399,241.343Z" style="fill:#b3b3b3;fill-rule:nonzero;"/>
    <path d="M71.203,235.367C70.049,235.367 69.305,235.882 68.743,236.65L69.832,237.441C70.084,237.013 70.541,236.615 71.215,236.615C72.147,236.615 72.405,236.984 72.434,237.851L70.84,237.851C69.534,237.851 68.514,238.273 68.514,239.544C68.514,240.769 69.44,241.46 70.641,241.46C71.309,241.46 72.094,241.161 72.469,240.558L72.557,241.343L73.735,241.343L73.735,237.792C73.735,236.363 72.797,235.367 71.203,235.367ZM70.928,240.253C70.289,240.253 69.979,239.978 69.979,239.591C69.979,239.222 70.278,238.882 70.928,238.882L72.44,238.882L72.44,238.929C72.352,239.62 71.807,240.253 70.928,240.253Z" style="fill:#b3b3b3;fill-rule:nonzero;"/>
    <path d="M74.731,241.343L76.114,241.343L76.114,238.87C76.114,237.382 76.811,236.761 77.479,236.761C77.707,236.761 77.924,236.831 78.118,236.96L78.768,235.788C78.487,235.501 78.082,235.367 77.696,235.367C77.04,235.367 76.377,235.765 76.125,236.474L76.125,235.49L74.731,235.49L74.731,241.343Z" style="fill:#b3b3b3;fill-rule:nonzero;"/>
    <path d="M79.594,243.863L81.153,243.863L84.499,235.49L82.928,235.49L81.428,239.556L79.952,235.49L78.381,235.49L80.672,241.185L79.594,243.863Z" style="fill:#b3b3b3;fill-rule:nonzero;"/>
    <path d="M38.431,368.598C40.013,368.598 41.308,367.655 41.308,366.091C41.308,363.343 37.3,363.87 37.3,362.311C37.3,361.784 37.758,361.427 38.343,361.427C38.9,361.427 39.392,361.749 39.679,362.311L40.916,361.556C40.347,360.548 39.416,360.102 38.396,360.102C37.002,360.102 35.812,360.923 35.812,362.388C35.812,365.083 39.82,364.509 39.82,366.225C39.82,366.811 39.34,367.28 38.455,367.28C37.576,367.28 36.843,366.823 36.738,365.792L35.261,366.167C35.525,367.796 36.967,368.598 38.431,368.598Z" style="fill:#b3b3b3;fill-rule:nonzero;"/>
    <path d="M44.396,368.622C46.207,368.622 47.396,367.222 47.396,365.563C47.396,363.911 46.207,362.528 44.396,362.528C42.586,362.528 41.396,363.911 41.396,365.563C41.396,367.222 42.586,368.622 44.396,368.622ZM44.396,367.391C43.318,367.391 42.885,366.524 42.885,365.563C42.885,364.602 43.318,363.764 44.396,363.764C45.48,363.764 45.908,364.602 45.908,365.563C45.908,366.524 45.48,367.391 44.396,367.391Z" style="fill:#b3b3b3;fill-rule:nonzero;"/>
    <path d="M48.369,368.505L49.846,368.505L49.846,363.847L51.211,363.847L51.211,362.651L49.846,362.651L49.846,362.013C49.846,361.556 50.098,361.374 50.385,361.374C50.537,361.374 50.707,361.438 50.842,361.52L51.31,360.343C50.994,360.202 50.637,360.102 50.25,360.102C49.266,360.102 48.381,360.729 48.381,361.866L48.381,362.651L47.297,362.651L47.297,363.847L48.369,363.847L48.369,368.505Z" style="fill:#b3b3b3;fill-rule:nonzero;"/>
    <path d="M53.854,368.622C54.281,368.622 54.703,368.528 54.92,368.446L54.92,367.151C54.727,367.245 54.404,367.362 54.105,367.362C53.73,367.362 53.455,367.198 53.455,366.636L53.455,363.847L54.92,363.847L54.92,362.651L53.455,362.651L53.455,360.179L52.049,361.198L52.049,362.651L51.082,362.651L51.082,363.847L52.025,363.847L52.025,366.888C52.025,367.954 52.711,368.622 53.854,368.622Z" style="fill:#b3b3b3;fill-rule:nonzero;"/>
    <path d="M58.26,368.505L61.488,368.505C62.895,368.505 64.19,367.643 64.19,366.102C64.19,365.276 63.615,364.374 62.86,364.075C63.328,363.823 63.779,363.214 63.779,362.458C63.779,360.8 62.391,360.225 61.131,360.225L58.26,360.225L58.26,368.505ZM59.748,363.559L59.748,361.567L61.154,361.567C61.863,361.567 62.414,361.895 62.414,362.54C62.414,363.354 61.852,363.559 61.272,363.559L59.748,363.559ZM59.748,367.087L59.748,364.843L61.453,364.843C62.233,364.843 62.725,365.347 62.725,365.938C62.725,366.718 62.279,367.087 61.512,367.087L59.748,367.087Z" style="fill:#b3b3b3;fill-rule:nonzero;"/>
    <path d="M66.17,368.622C66.51,368.622 66.938,368.563 67.237,368.505L67.237,367.304C67.084,367.327 66.926,367.339 66.844,367.339C66.557,367.339 66.375,367.222 66.375,366.946L66.375,360.225L64.946,360.225L64.946,367.339C64.946,368.37 65.496,368.622 66.17,368.622Z" style="fill:#b3b3b3;fill-rule:nonzero;"/>
    <path d="M69.903,362.528C68.748,362.528 68.004,363.044 67.442,363.811L68.532,364.602C68.784,364.175 69.241,363.776 69.914,363.776C70.846,363.776 71.104,364.145 71.133,365.013L69.539,365.013C68.233,365.013 67.213,365.434 67.213,366.706C67.213,367.931 68.139,368.622 69.34,368.622C70.008,368.622 70.793,368.323 71.168,367.72L71.256,368.505L72.434,368.505L72.434,364.954C72.434,363.524 71.496,362.528 69.903,362.528ZM69.627,367.415C68.989,367.415 68.678,367.139 68.678,366.753C68.678,366.384 68.977,366.044 69.627,366.044L71.139,366.044L71.139,366.091C71.051,366.782 70.506,367.415 69.627,367.415Z" style="fill:#b3b3b3;fill-rule:nonzero;"/>
    <path d="M75.727,368.622C76.887,368.622 77.801,367.977 78.188,366.888L76.887,366.395C76.735,366.946 76.29,367.327 75.715,367.327C74.719,367.327 74.344,366.477 74.344,365.587C74.344,364.714 74.731,363.823 75.715,363.823C76.301,363.823 76.735,364.222 76.887,364.784L78.247,364.257C77.801,363.091 76.875,362.528 75.715,362.528C73.805,362.528 72.891,364.052 72.891,365.587C72.891,367.139 73.817,368.622 75.727,368.622Z" style="fill:#b3b3b3;fill-rule:nonzero;"/>
    <path d="M78.774,368.505L80.204,368.505L80.204,366.788L81.106,365.792L82.823,368.505L84.51,368.505L82.079,364.919L84.27,362.651L82.413,362.651L80.204,365.083L80.204,360.225L78.774,360.225L78.774,368.505Z" style="fill:#b3b3b3;fill-rule:nonzero;"/>
    <path d="M186.908,47.707L188.396,47.707L188.396,40.758L190.986,40.758L190.986,39.428L184.312,39.428L184.312,40.758L186.908,40.758L186.908,47.707Z" style="fill:#b3b3b3;fill-rule:nonzero;"/>
    <path d="M191.302,40.746L192.802,40.746L192.802,39.428L191.302,39.428L191.302,40.746ZM191.338,47.707L192.767,47.707L192.767,41.854L191.338,41.854L191.338,47.707Z" style="fill:#b3b3b3;fill-rule:nonzero;"/>
    <path d="M193.945,47.707L195.375,47.707L195.375,44.502C195.375,43.483 195.879,43.049 196.681,43.049C197.414,43.049 197.801,43.606 197.801,44.373L197.801,47.707L199.23,47.707L199.23,44.192C199.23,42.967 198.627,41.731 197.092,41.731C196.517,41.731 195.844,41.959 195.375,42.533L195.375,41.854L193.945,41.854L193.945,47.707Z" style="fill:#b3b3b3;fill-rule:nonzero;"/>
    <path d="M202.301,47.824C202.728,47.824 203.15,47.731 203.367,47.649L203.367,46.354C203.174,46.447 202.851,46.565 202.553,46.565C202.178,46.565 201.902,46.401 201.902,45.838L201.902,43.049L203.367,43.049L203.367,41.854L201.902,41.854L201.902,39.381L200.496,40.401L200.496,41.854L199.529,41.854L199.529,43.049L200.473,43.049L200.473,46.09C200.473,47.156 201.158,47.824 202.301,47.824Z" style="fill:#b3b3b3;fill-rule:nonzero;"/>
    <path d="M206.057,47.824C207.164,47.824 208.342,47.227 208.342,45.873C208.342,43.723 205.365,44.25 205.365,43.365C205.365,43.09 205.652,42.861 206.121,42.861C206.754,42.861 207.082,43.242 207.281,43.606L208.389,43.002C207.943,42.211 207.176,41.731 206.168,41.731C205.037,41.731 203.994,42.317 203.994,43.553C203.994,45.621 206.936,44.959 206.936,45.944C206.936,46.254 206.648,46.641 205.986,46.641C205.207,46.641 204.896,46.102 204.738,45.68L203.602,46.184C203.889,47.086 204.826,47.824 206.057,47.824Z" style="fill:#b3b3b3;fill-rule:nonzero;"/>
    <path d="M28.611,199.648L29.736,199.648L30.439,197.714L33.926,197.714L34.617,199.648L35.736,199.648L32.584,191.368L31.764,191.368L28.611,199.648ZM30.762,196.829L32.18,192.845L33.604,196.829L30.762,196.829Z" style="fill:#292929;fill-rule:nonzero;"/>
    <path d="M38.572,199.747C39.68,199.747 40.547,199.138 40.916,198.089L40.014,197.749C39.803,198.417 39.264,198.845 38.561,198.845C37.389,198.845 36.879,197.831 36.879,196.73C36.879,195.646 37.389,194.597 38.561,194.597C39.258,194.597 39.797,195.03 40.031,195.71L40.975,195.341C40.541,194.251 39.656,193.695 38.561,193.695C36.75,193.695 35.871,195.195 35.871,196.73C35.871,198.353 36.815,199.747 38.572,199.747Z" style="fill:#292929;fill-rule:nonzero;"/>
    <path d="M43.916,199.747C45.024,199.747 45.891,199.138 46.26,198.089L45.358,197.749C45.147,198.417 44.608,198.845 43.904,198.845C42.733,198.845 42.223,197.831 42.223,196.73C42.223,195.646 42.733,194.597 43.904,194.597C44.602,194.597 45.141,195.03 45.375,195.71L46.319,195.341C45.885,194.251 45,193.695 43.904,193.695C42.094,193.695 41.215,195.195 41.215,196.73C41.215,198.353 42.158,199.747 43.916,199.747Z" style="fill:#292929;fill-rule:nonzero;"/>
    <path d="M49.371,199.747C50.326,199.747 51.03,199.443 51.68,198.745L50.989,198.142C50.502,198.657 50.022,198.845 49.377,198.845C48.282,198.845 47.69,198.142 47.614,197.017L51.826,197.017C51.85,196.929 51.873,196.695 51.873,196.478C51.873,195.271 51.235,193.695 49.272,193.695C47.479,193.695 46.565,195.136 46.565,196.747C46.565,198.394 47.52,199.747 49.371,199.747ZM47.614,196.29C47.725,195.265 48.276,194.532 49.266,194.532C50.25,194.532 50.766,195.195 50.866,195.921C50.889,196.038 50.889,196.161 50.889,196.29L47.614,196.29Z" style="fill:#292929;fill-rule:nonzero;"/>
    <path d="M52.805,199.648L53.795,199.648L53.795,196.273C53.795,195.171 54.387,194.614 55.319,194.614C56.203,194.614 56.666,195.218 56.666,196.185L56.666,199.648L57.657,199.648L57.657,196.003C57.639,194.749 57.012,193.695 55.588,193.695C54.879,193.695 54.2,194.017 53.795,194.685L53.795,193.794L52.805,193.794L52.805,199.648Z" style="fill:#292929;fill-rule:nonzero;"/>
    <path d="M60.815,199.747C61.178,199.747 61.53,199.677 61.717,199.607L61.711,198.704C61.541,198.78 61.254,198.868 60.985,198.868C60.446,198.868 60.135,198.587 60.135,197.849L60.135,194.632L61.717,194.632L61.717,193.794L60.135,193.794L60.135,191.462L59.157,192.177L59.157,193.794L58.178,193.794L58.178,194.632L59.145,194.632L59.145,198.013C59.145,199.114 59.743,199.747 60.815,199.747Z" style="fill:#292929;fill-rule:nonzero;"/>
    <path d="M68.643,199.747C70.266,199.747 71.485,198.95 72.135,197.45L71.18,197.058C70.682,198.253 69.868,198.763 68.643,198.763C66.663,198.763 65.831,197.321 65.831,195.458C65.831,193.571 66.745,192.241 68.661,192.241C69.903,192.241 70.776,192.739 71.157,193.929L72.124,193.542C71.497,192.042 70.307,191.257 68.673,191.257C66.083,191.257 64.805,193.103 64.805,195.499C64.805,197.89 66.089,199.747 68.643,199.747Z" style="fill:#292929;fill-rule:nonzero;"/>
    <path d="M75.206,199.747C76.923,199.747 78.106,198.382 78.106,196.706C78.106,195.042 76.923,193.695 75.206,193.695C73.495,193.695 72.323,195.042 72.323,196.706C72.323,198.382 73.495,199.747 75.206,199.747ZM75.206,198.886C74.005,198.886 73.354,197.896 73.354,196.706C73.354,195.523 74.005,194.556 75.206,194.556C76.419,194.556 77.075,195.529 77.075,196.706C77.075,197.89 76.419,198.886 75.206,198.886Z" style="fill:#292929;fill-rule:nonzero;"/>
    <path d="M80.122,199.747C80.403,199.747 80.755,199.7 81.024,199.642L81.018,198.804C80.848,198.833 80.684,198.851 80.567,198.851C80.087,198.851 79.987,198.564 79.987,198.171L79.987,191.368L78.991,191.368L78.991,198.435C78.991,199.331 79.343,199.747 80.122,199.747Z" style="fill:#292929;fill-rule:nonzero;"/>
    <path d="M84.13,199.747C85.847,199.747 87.03,198.382 87.03,196.706C87.03,195.042 85.847,193.695 84.13,193.695C82.419,193.695 81.247,195.042 81.247,196.706C81.247,198.382 82.419,199.747 84.13,199.747ZM84.13,198.886C82.929,198.886 82.278,197.896 82.278,196.706C82.278,195.523 82.929,194.556 84.13,194.556C85.343,194.556 85.999,195.529 85.999,196.706C85.999,197.89 85.343,198.886 84.13,198.886Z" style="fill:#292929;fill-rule:nonzero;"/>
    <path d="M87.95,199.648L88.911,199.648L88.911,196.829C88.911,195.277 89.761,194.661 90.499,194.661C90.733,194.661 90.956,194.726 91.155,194.837L91.612,194.017C91.349,193.794 90.991,193.695 90.646,193.695C89.96,193.695 89.198,194.099 88.917,194.943L88.917,193.794L87.95,193.794L87.95,199.648Z" style="fill:#292929;fill-rule:nonzero;"/>
    <path d="M93.628,199.747C94.759,199.747 95.778,199.15 95.778,197.919C95.778,195.71 92.503,196.507 92.503,195.241C92.503,194.802 92.919,194.486 93.581,194.486C94.267,194.486 94.7,194.878 94.958,195.347L95.726,194.931C95.304,194.152 94.566,193.695 93.616,193.695C92.491,193.695 91.554,194.269 91.554,195.37C91.554,197.474 94.8,196.577 94.8,197.966C94.8,198.482 94.39,198.915 93.581,198.915C92.72,198.915 92.228,198.376 92.028,197.82L91.226,198.171C91.519,199.062 92.444,199.747 93.628,199.747Z" style="fill:#292929;fill-rule:nonzero;"/>
    <path d="M100.314,200.456L101.187,200.456C100.337,199.378 99.833,197.257 99.833,195.921C99.833,194.556 100.226,192.675 101.199,191.368L100.326,191.368C99.365,192.698 98.99,194.556 98.99,195.921C98.99,197.245 99.47,199.331 100.314,200.456Z" style="fill:#292929;fill-rule:nonzero;"/>
    <path d="M103.771,199.747C104.48,199.747 105.171,199.425 105.57,198.757L105.57,199.648L106.554,199.648L106.554,193.794L105.57,193.794L105.57,197.169C105.57,198.265 104.972,198.827 104.04,198.827C103.156,198.827 102.693,198.224 102.693,197.257L102.693,193.794L101.708,193.794L101.708,197.433C101.726,198.687 102.347,199.747 103.771,199.747Z" style="fill:#292929;fill-rule:nonzero;"/>
    <path d="M109.742,199.747C110.873,199.747 111.892,199.15 111.892,197.919C111.892,195.71 108.617,196.507 108.617,195.241C108.617,194.802 109.033,194.486 109.695,194.486C110.38,194.486 110.814,194.878 111.072,195.347L111.839,194.931C111.418,194.152 110.679,193.695 109.73,193.695C108.605,193.695 107.668,194.269 107.668,195.37C107.668,197.474 110.914,196.577 110.914,197.966C110.914,198.482 110.503,198.915 109.695,198.915C108.834,198.915 108.341,198.376 108.142,197.82L107.339,198.171C107.632,199.062 108.558,199.747 109.742,199.747Z" style="fill:#292929;fill-rule:nonzero;"/>
    <path d="M115.156,199.747C116.111,199.747 116.814,199.443 117.464,198.745L116.773,198.142C116.287,198.657 115.806,198.845 115.162,198.845C114.066,198.845 113.474,198.142 113.398,197.017L117.611,197.017C117.634,196.929 117.658,196.695 117.658,196.478C117.658,195.271 117.019,193.695 115.056,193.695C113.263,193.695 112.349,195.136 112.349,196.747C112.349,198.394 113.304,199.747 115.156,199.747ZM113.398,196.29C113.509,195.265 114.06,194.532 115.05,194.532C116.035,194.532 116.55,195.195 116.65,195.921C116.673,196.038 116.673,196.161 116.673,196.29L113.398,196.29Z" style="fill:#292929;fill-rule:nonzero;"/>
    <path d="M122.814,199.747C123.945,199.747 124.965,199.15 124.965,197.919C124.965,195.71 121.689,196.507 121.689,195.241C121.689,194.802 122.105,194.486 122.767,194.486C123.453,194.486 123.887,194.878 124.144,195.347L124.912,194.931C124.49,194.152 123.752,193.695 122.803,193.695C121.678,193.695 120.74,194.269 120.74,195.37C120.74,197.474 123.986,196.577 123.986,197.966C123.986,198.482 123.576,198.915 122.767,198.915C121.906,198.915 121.414,198.376 121.215,197.82L120.412,198.171C120.705,199.062 121.631,199.747 122.814,199.747Z" style="fill:#292929;fill-rule:nonzero;"/>
    <path d="M125.955,202.073L126.98,202.073L126.98,198.593C127.361,199.331 128.094,199.747 128.92,199.747C130.525,199.747 131.422,198.376 131.422,196.724C131.422,195.077 130.525,193.695 128.937,193.695C128.117,193.695 127.361,194.111 126.98,194.849L126.98,193.794L125.955,193.794L125.955,202.073ZM128.697,198.845C127.555,198.845 126.892,197.925 126.892,196.724C126.892,195.517 127.555,194.614 128.697,194.614C129.84,194.614 130.426,195.534 130.426,196.724C130.426,197.913 129.84,198.845 128.697,198.845Z" style="fill:#292929;fill-rule:nonzero;"/>
    <path d="M134.404,193.695C133.332,193.695 132.629,194.146 132.061,194.925L132.822,195.476C133.174,194.931 133.672,194.562 134.416,194.562C135.523,194.562 135.898,195.095 135.904,196.237L134.246,196.237C132.805,196.237 131.832,196.7 131.832,197.913C131.832,199.073 132.699,199.747 133.889,199.747C134.691,199.747 135.5,199.366 135.916,198.605L135.98,199.648L136.807,199.648L136.807,196.079C136.807,194.626 135.939,193.695 134.404,193.695ZM134.082,198.898C133.285,198.898 132.852,198.517 132.852,197.948C132.852,197.357 133.32,196.964 134.305,196.964L135.904,196.964L135.904,197.345C135.711,198.224 135.072,198.898 134.082,198.898Z" style="fill:#292929;fill-rule:nonzero;"/>
    <path d="M138.078,199.648L139.039,199.648L139.039,196.829C139.039,195.277 139.889,194.661 140.627,194.661C140.861,194.661 141.084,194.726 141.283,194.837L141.74,194.017C141.477,193.794 141.119,193.695 140.774,193.695C140.088,193.695 139.326,194.099 139.045,194.943L139.045,193.794L138.078,193.794L138.078,199.648Z" style="fill:#292929;fill-rule:nonzero;"/>
    <path d="M142.238,192.611L143.276,192.611L143.276,191.368L142.238,191.368L142.238,192.611ZM142.262,199.648L143.252,199.648L143.252,193.794L142.262,193.794L142.262,199.648Z" style="fill:#292929;fill-rule:nonzero;"/>
    <path d="M144.688,199.648L145.678,199.648L145.678,196.273C145.678,195.171 146.27,194.614 147.201,194.614C148.086,194.614 148.549,195.218 148.549,196.185L148.549,199.648L149.539,199.648L149.539,196.003C149.522,194.749 148.895,193.695 147.471,193.695C146.762,193.695 146.082,194.017 145.678,194.685L145.678,193.794L144.688,193.794L144.688,199.648Z" style="fill:#292929;fill-rule:nonzero;"/>
    <path d="M153.166,198.874C152.123,198.728 151.344,198.663 151.344,198.071C151.344,197.843 151.461,197.679 151.707,197.562C152.053,197.737 152.457,197.837 152.903,197.837C154.157,197.837 155.159,197.04 155.159,195.804C155.159,195.4 155.053,195.03 154.866,194.726L155.668,194.058L155.153,193.413L154.321,194.134C153.928,193.853 153.424,193.695 152.873,193.695C151.608,193.695 150.594,194.538 150.594,195.751C150.594,196.273 150.776,196.73 151.092,197.087C150.7,197.374 150.489,197.737 150.489,198.241C150.489,198.821 150.782,199.161 151.186,199.372L150.377,200.093C150.366,200.169 150.36,200.239 150.36,200.351C150.36,201.523 151.327,202.366 153.049,202.366C154.485,202.366 155.539,201.734 155.539,200.527C155.539,199.243 154.321,199.044 153.166,198.874ZM152.909,194.468C153.694,194.468 154.174,195.001 154.174,195.763C154.174,196.501 153.7,197.023 152.903,197.023C152.1,197.023 151.62,196.501 151.62,195.757C151.62,195.007 152.118,194.468 152.909,194.468ZM153.043,201.587C152.1,201.587 151.385,201.218 151.268,200.48L151.25,200.304L151.801,199.583C152.141,199.659 152.498,199.7 152.821,199.741C153.893,199.876 154.596,199.987 154.596,200.632C154.596,201.241 153.987,201.587 153.043,201.587Z" style="fill:#292929;fill-rule:nonzero;"/>
    <path d="M157.508,199.747C157.79,199.747 158.141,199.7 158.411,199.642L158.405,198.804C158.235,198.833 158.071,198.851 157.954,198.851C157.473,198.851 157.374,198.564 157.374,198.171L157.374,191.368L156.377,191.368L156.377,198.435C156.377,199.331 156.729,199.747 157.508,199.747Z" style="fill:#292929;fill-rule:nonzero;"/>
    <path d="M159.694,202.161L160.778,202.161L164.036,193.794L162.946,193.794L161.247,198.4L159.389,193.794L158.294,193.794L160.719,199.548L159.694,202.161Z" style="fill:#292929;fill-rule:nonzero;"/>
    <path d="M164.692,200.456C165.536,199.331 166.016,197.245 166.016,195.921C166.016,194.556 165.641,192.698 164.68,191.368L163.807,191.368C164.78,192.675 165.173,194.556 165.173,195.921C165.173,197.257 164.669,199.378 163.819,200.456L164.692,200.456Z" style="fill:#292929;fill-rule:nonzero;"/>
    <path d="M36.129,24.111L33.545,30.545L30.961,24.111L29.549,24.111L29.549,32.391L30.545,32.391L30.545,25.506L33.041,31.699L34.049,31.699L36.545,25.506L36.545,32.391L37.541,32.391L37.541,24.111L36.129,24.111Z" style="fill:#292929;fill-rule:nonzero;"/>
    <path d="M41.203,26.437C40.131,26.437 39.428,26.889 38.859,27.668L39.621,28.219C39.973,27.674 40.471,27.305 41.215,27.305C42.322,27.305 42.697,27.838 42.703,28.98L41.045,28.98C39.604,28.98 38.631,29.443 38.631,30.656C38.631,31.816 39.498,32.49 40.688,32.49C41.49,32.49 42.299,32.109 42.715,31.348L42.779,32.391L43.606,32.391L43.606,28.822C43.606,27.369 42.738,26.437 41.203,26.437ZM40.881,31.641C40.084,31.641 39.65,31.26 39.65,30.691C39.65,30.1 40.119,29.707 41.104,29.707L42.703,29.707L42.703,30.088C42.51,30.967 41.871,31.641 40.881,31.641Z" style="fill:#292929;fill-rule:nonzero;"/>
    <path d="M44.854,25.354L45.891,25.354L45.891,24.111L44.854,24.111L44.854,25.354ZM44.877,32.391L45.867,32.391L45.867,26.537L44.877,26.537L44.877,32.391Z" style="fill:#292929;fill-rule:nonzero;"/>
    <path d="M47.303,32.391L48.293,32.391L48.293,29.016C48.293,27.914 48.885,27.357 49.817,27.357C50.701,27.357 51.164,27.961 51.164,28.928L51.164,32.391L52.155,32.391L52.155,28.746C52.137,27.492 51.51,26.437 50.086,26.437C49.377,26.437 48.698,26.76 48.293,27.428L48.293,26.537L47.303,26.537L47.303,32.391Z" style="fill:#292929;fill-rule:nonzero;"/>
    <path d="M59.45,32.49C61.073,32.49 62.291,31.693 62.942,30.193L61.987,29.801C61.489,30.996 60.674,31.506 59.45,31.506C57.469,31.506 56.637,30.064 56.637,28.201C56.637,26.314 57.551,24.984 59.467,24.984C60.709,24.984 61.582,25.482 61.963,26.672L62.93,26.285C62.303,24.785 61.114,24 59.479,24C56.889,24 55.612,25.846 55.612,28.242C55.612,30.633 56.895,32.49 59.45,32.49Z" style="fill:#292929;fill-rule:nonzero;"/>
    <path d="M66.012,32.49C67.729,32.49 68.913,31.125 68.913,29.449C68.913,27.785 67.729,26.437 66.012,26.437C64.301,26.437 63.129,27.785 63.129,29.449C63.129,31.125 64.301,32.49 66.012,32.49ZM66.012,31.629C64.811,31.629 64.161,30.639 64.161,29.449C64.161,28.266 64.811,27.299 66.012,27.299C67.225,27.299 67.881,28.271 67.881,29.449C67.881,30.633 67.225,31.629 66.012,31.629Z" style="fill:#292929;fill-rule:nonzero;"/>
    <path d="M70.928,32.49C71.21,32.49 71.561,32.443 71.831,32.385L71.825,31.547C71.655,31.576 71.491,31.594 71.374,31.594C70.893,31.594 70.794,31.307 70.794,30.914L70.794,24.111L69.798,24.111L69.798,31.178C69.798,32.074 70.149,32.49 70.928,32.49Z" style="fill:#292929;fill-rule:nonzero;"/>
    <path d="M74.936,32.49C76.653,32.49 77.837,31.125 77.837,29.449C77.837,27.785 76.653,26.437 74.936,26.437C73.225,26.437 72.053,27.785 72.053,29.449C72.053,31.125 73.225,32.49 74.936,32.49ZM74.936,31.629C73.735,31.629 73.085,30.639 73.085,29.449C73.085,28.266 73.735,27.299 74.936,27.299C76.149,27.299 76.805,28.271 76.805,29.449C76.805,30.633 76.149,31.629 74.936,31.629Z" style="fill:#292929;fill-rule:nonzero;"/>
    <path d="M78.757,32.391L79.718,32.391L79.718,29.572C79.718,28.02 80.567,27.404 81.306,27.404C81.54,27.404 81.763,27.469 81.962,27.58L82.419,26.76C82.155,26.537 81.798,26.437 81.452,26.437C80.766,26.437 80.005,26.842 79.723,27.686L79.723,26.537L78.757,26.537L78.757,32.391Z" style="fill:#292929;fill-rule:nonzero;"/>
    <path d="M84.435,32.49C85.565,32.49 86.585,31.893 86.585,30.662C86.585,28.453 83.31,29.25 83.31,27.984C83.31,27.545 83.726,27.229 84.388,27.229C85.073,27.229 85.507,27.621 85.765,28.09L86.532,27.674C86.11,26.895 85.372,26.437 84.423,26.437C83.298,26.437 82.36,27.012 82.36,28.113C82.36,30.217 85.606,29.32 85.606,30.709C85.606,31.225 85.196,31.658 84.388,31.658C83.526,31.658 83.034,31.119 82.835,30.562L82.032,30.914C82.325,31.805 83.251,32.49 84.435,32.49Z" style="fill:#292929;fill-rule:nonzero;"/>
    <rect x="112.22" y="345.25" width="36.939" height="38.75" style="fill:#03441c;"/>
    <rect x="112.22" y="345.25" width="36.939" height="38.75" style="fill:#003947;"/>
    <rect x="181.936" y="345.25" width="36.939" height="38.75" style="fill:#45899a;"/>
    <rect x="232.71" y="345.25" width="36.939" height="38.75" style="fill:#b3c7cc;"/>
    <rect x="278.628" y="345.25" width="36.939" height="38.75" style="fill:#e3e7e8;"/>
</svg>
