<?xml version="1.0" encoding="UTF-8" standalone="no"?>
<!DOCTYPE svg PUBLIC "-//W3C//DTD SVG 1.1//EN" "http://www.w3.org/Graphics/SVG/1.1/DTD/svg11.dtd">
<svg width="100%" height="100%" viewBox="0 0 65 65" version="1.1" xmlns="http://www.w3.org/2000/svg" xmlns:xlink="http://www.w3.org/1999/xlink" xml:space="preserve" xmlns:serif="http://www.serif.com/" style="fill-rule:evenodd;clip-rule:evenodd;stroke-linecap:round;stroke-miterlimit:1;">
    <rect id="Communication" x="0.683" y="0.22" width="64" height="64" style="fill:none;"/>
    <clipPath id="_clip1">
        <rect x="0.683" y="0.22" width="64" height="64"/>
    </clipPath>
    <g clip-path="url(#_clip1)">
        <path d="M57.775,53.044C57.179,52.075 56.122,51.485 54.985,51.485C46.979,51.485 15.437,51.485 15.437,51.485C15.437,51.485 12.509,56.426 10.864,59.202C10.641,59.578 10.637,60.044 10.854,60.424C11.07,60.804 11.474,61.039 11.911,61.039C20.375,61.039 51.536,61.039 60.36,61.039C60.834,61.039 61.271,60.782 61.502,60.368C61.733,59.954 61.722,59.448 61.473,59.045C60.374,57.26 58.784,54.681 57.775,53.044Z" style="fill:#cecfeb;fill-opacity:0.51;"/>
        <path d="M10.291,3.22L-11.765,15.493L10.291,27.766L32.347,15.493L10.291,3.22ZM54.423,3.22L32.367,15.493L54.423,27.766L76.48,15.493L54.423,3.22Z" style="fill:none;"/>
        <clipPath id="_clip2">
            <path d="M10.291,3.22L-11.765,15.493L10.291,27.766L32.347,15.493L10.291,3.22ZM54.423,3.22L32.367,15.493L54.423,27.766L76.48,15.493L54.423,3.22Z"/>
        </clipPath>
        <g clip-path="url(#_clip2)">
            <g>
                <path d="M32.387,-5.463L32.523,-5.462L32.659,-5.459L32.795,-5.456L32.931,-5.452L33.066,-5.447L33.201,-5.442L33.336,-5.435L33.471,-5.428L33.605,-5.42L33.74,-5.411L33.874,-5.401L34.008,-5.39L34.141,-5.379L34.275,-5.366L34.408,-5.353L34.541,-5.339L34.674,-5.324L34.806,-5.308L34.938,-5.292L35.07,-5.275L35.202,-5.256L35.333,-5.238L35.465,-5.218L35.596,-5.197L35.726,-5.176L35.857,-5.154L35.987,-5.131L36.117,-5.107L36.246,-5.083L36.376,-5.057L36.505,-5.031L36.633,-5.004L36.762,-4.977L36.89,-4.948L37.018,-4.919L37.146,-4.889L37.273,-4.858L37.4,-4.827L37.526,-4.794L37.653,-4.761L37.779,-4.727L37.905,-4.693L38.03,-4.657L38.155,-4.621L38.28,-4.585L38.405,-4.547L38.529,-4.509L38.653,-4.47L38.776,-4.43L38.899,-4.389L39.022,-4.348L39.145,-4.306L39.267,-4.263L39.389,-4.22L39.512,-4.175L39.752,-4.085L39.993,-3.992L40.232,-3.895L40.469,-3.796L40.706,-3.695L40.94,-3.59L41.173,-3.483L41.405,-3.372L41.635,-3.26L41.863,-3.144L42.09,-3.026L42.315,-2.905L42.539,-2.782L42.761,-2.656L42.981,-2.527L43.199,-2.396L43.416,-2.262L43.631,-2.126L43.844,-1.987L44.056,-1.846L44.265,-1.702L44.473,-1.556L44.679,-1.407L44.883,-1.256L45.085,-1.103L45.286,-0.947L45.484,-0.789L45.68,-0.629L45.875,-0.466L46.067,-0.301L46.258,-0.134L46.446,0.035L46.632,0.207L46.817,0.381L46.999,0.557L47.179,0.735L47.357,0.915L47.532,1.098L47.706,1.282L47.877,1.469L48.046,1.657L48.213,1.848L48.378,2.041L48.54,2.235L48.7,2.432L48.858,2.63L49.014,2.831L49.167,3.033L49.317,3.237L49.466,3.443L49.611,3.651L49.755,3.861L49.896,4.073L50.034,4.286L50.17,4.501L50.304,4.718L50.434,4.937L50.563,5.157L50.688,5.379L50.812,5.602L50.932,5.828L51.05,6.055L51.165,6.283L51.277,6.513L51.387,6.745L51.494,6.978L51.598,7.213L51.7,7.449L51.799,7.686L51.894,7.925L51.987,8.166L52.077,8.406L52.122,8.529L52.165,8.651L52.207,8.773L52.249,8.896L52.29,9.019L52.331,9.142L52.37,9.265L52.409,9.389L52.447,9.513L52.485,9.638L52.521,9.762L52.557,9.888L52.592,10.013L52.627,10.139L52.66,10.265L52.693,10.391L52.725,10.518L52.757,10.645L52.787,10.772L52.817,10.899L52.846,11.027L52.874,11.155L52.902,11.284L52.928,11.412L52.954,11.541L52.979,11.671L53.004,11.8L53.027,11.93L53.05,12.06L53.072,12.19L53.093,12.321L53.114,12.452L53.133,12.583L53.152,12.714L53.17,12.846L53.187,12.978L53.203,13.11L53.219,13.242L53.233,13.375L53.247,13.508L53.26,13.641L53.272,13.774L53.284,13.908L53.294,14.041L53.304,14.175L53.313,14.31L53.321,14.444L53.328,14.579L53.334,14.714L53.34,14.849L53.344,14.984L53.348,15.119L53.351,15.255L53.353,15.391L53.354,15.527L53.355,15.663L53.354,15.799L53.353,15.935L53.351,16.071L53.347,16.207L53.343,16.342L53.339,16.478L53.333,16.613L53.327,16.748L53.319,16.882L53.311,17.017L53.302,17.151L53.292,17.285L53.281,17.418L53.27,17.552L53.257,17.685L53.244,17.818L53.23,17.951L53.215,18.084L53.2,18.216L53.183,18.348L53.166,18.48L53.148,18.611L53.129,18.743L53.109,18.874L53.089,19.005L53.067,19.135L53.045,19.265L53.022,19.395L52.999,19.525L52.974,19.655L52.949,19.784L52.923,19.913L52.896,20.041L52.868,20.17L52.84,20.298L52.811,20.425L52.781,20.553L52.75,20.68L52.718,20.807L52.686,20.933L52.653,21.06L52.619,21.186L52.585,21.311L52.55,21.437L52.513,21.562L52.477,21.686L52.439,21.811L52.401,21.935L52.362,22.058L52.322,22.182L52.282,22.305L52.24,22.428L52.198,22.55L52.156,22.672L52.112,22.794L52.067,22.917L51.978,23.157L51.884,23.397L51.788,23.636L51.689,23.873L51.588,24.109L51.483,24.343L51.376,24.576L51.266,24.808L51.153,25.037L51.038,25.265L50.92,25.492L50.799,25.717L50.676,25.94L50.55,26.162L50.421,26.382L50.29,26.6L50.157,26.817L50.02,27.031L49.882,27.244L49.741,27.456L49.597,27.665L49.451,27.873L49.303,28.078L49.152,28.282L48.999,28.484L48.843,28.684L48.685,28.882L48.525,29.079L48.363,29.273L48.198,29.465L48.031,29.655L47.862,29.843L47.69,30.029L47.516,30.213L47.341,30.395L47.163,30.575L46.983,30.753L46.8,30.929L46.616,31.102L46.43,31.273L46.241,31.442L46.051,31.609L45.859,31.773L45.664,31.935L45.468,32.095L45.27,32.253L45.069,32.408L44.867,32.561L44.663,32.712L44.457,32.86L44.25,33.005L44.04,33.149L43.829,33.289L43.616,33.428L43.401,33.563L43.184,33.697L42.966,33.827L42.746,33.956L42.524,34.081L42.301,34.204L42.076,34.325L41.849,34.442L41.621,34.557L41.391,34.67L41.159,34.779L40.927,34.886L40.692,34.99L40.456,35.092L40.219,35.19L39.98,35.286L39.74,35.379L39.5,35.468L39.377,35.513L39.255,35.556L39.133,35.599L39.011,35.64L38.888,35.681L38.765,35.722L38.642,35.761L38.518,35.8L38.394,35.838L38.27,35.876L38.145,35.912L38.02,35.948L37.895,35.983L37.769,36.017L37.643,36.051L37.517,36.084L37.391,36.116L37.264,36.147L37.137,36.178L37.009,36.208L36.882,36.237L36.754,36.265L36.625,36.292L36.497,36.319L36.368,36.345L36.239,36.37L36.109,36.394L35.98,36.418L35.85,36.44L35.72,36.462L35.589,36.483L35.458,36.504L35.327,36.523L35.196,36.542L35.065,36.56L34.933,36.577L34.801,36.593L34.669,36.609L34.536,36.623L34.404,36.637L34.271,36.65L34.138,36.662L34.004,36.674L33.871,36.684L33.737,36.694L33.603,36.703L33.468,36.711L33.334,36.718L33.199,36.724L33.064,36.73L32.929,36.734L32.794,36.738L32.658,36.741L32.523,36.743L32.387,36.744L32.251,36.745L32.115,36.744L31.979,36.743L31.843,36.741L31.707,36.737L31.572,36.733L31.437,36.729L31.302,36.723L31.167,36.716L31.033,36.709L30.899,36.701L30.765,36.692L30.631,36.682L30.497,36.671L30.364,36.66L30.231,36.648L30.098,36.634L29.965,36.62L29.833,36.605L29.701,36.59L29.569,36.573L29.437,36.556L29.306,36.538L29.174,36.519L29.043,36.499L28.913,36.479L28.782,36.458L28.652,36.436L28.522,36.413L28.393,36.389L28.263,36.364L28.134,36.339L28.006,36.313L27.877,36.286L27.749,36.259L27.621,36.23L27.493,36.201L27.366,36.171L27.239,36.141L27.112,36.109L26.986,36.077L26.86,36.044L26.734,36.01L26.609,35.976L26.483,35.94L26.358,35.904L26.234,35.868L26.11,35.83L25.986,35.792L25.862,35.753L25.739,35.713L25.616,35.673L25.493,35.631L25.371,35.59L25.249,35.547L25.128,35.504L25.005,35.459L24.765,35.369L24.525,35.276L24.287,35.18L24.049,35.081L23.814,34.979L23.58,34.875L23.347,34.768L23.116,34.658L22.886,34.545L22.659,34.43L22.432,34.312L22.207,34.192L21.984,34.068L21.763,33.943L21.543,33.814L21.325,33.683L21.109,33.55L20.894,33.414L20.682,33.275L20.471,33.134L20.262,32.991L20.054,32.845L19.849,32.697L19.645,32.546L19.443,32.393L19.243,32.238L19.046,32.08L18.85,31.92L18.656,31.758L18.464,31.593L18.274,31.426L18.086,31.257L17.9,31.086L17.716,30.913L17.534,30.737L17.354,30.559L17.177,30.379L17.002,30.197L16.828,30.013L16.657,29.827L16.489,29.639L16.322,29.449L16.158,29.257L15.996,29.062L15.836,28.866L15.679,28.668L15.523,28.468L15.371,28.266L15.22,28.062L15.072,27.857L14.927,27.649L14.784,27.44L14.643,27.229L14.505,27.016L14.369,26.801L14.236,26.585L14.106,26.367L13.978,26.147L13.852,25.925L13.729,25.702L13.609,25.478L13.492,25.251L13.377,25.023L13.264,24.794L13.155,24.562L13.048,24.33L12.944,24.096L12.843,23.86L12.744,23.623L12.649,23.384L12.556,23.144L12.467,22.905L12.422,22.782L12.379,22.66L12.336,22.538L12.295,22.416L12.254,22.294L12.213,22.171L12.174,22.047L12.135,21.924L12.097,21.8L12.06,21.676L12.023,21.551L11.987,21.426L11.952,21.301L11.918,21.176L11.884,21.05L11.852,20.924L11.82,20.798L11.788,20.671L11.758,20.544L11.728,20.417L11.699,20.289L11.671,20.161L11.644,20.033L11.617,19.905L11.591,19.776L11.566,19.647L11.542,19.518L11.518,19.388L11.496,19.259L11.474,19.128L11.453,18.998L11.432,18.868L11.413,18.737L11.394,18.606L11.376,18.474L11.359,18.343L11.343,18.211L11.327,18.079L11.313,17.946L11.299,17.814L11.286,17.681L11.274,17.548L11.262,17.415L11.252,17.281L11.242,17.148L11.233,17.014L11.225,16.88L11.218,16.745L11.212,16.611L11.207,16.476L11.202,16.341L11.198,16.206L11.195,16.07L11.193,15.935L11.192,15.799L11.192,15.663L11.192,15.527L11.194,15.391L11.196,15.256L11.199,15.12L11.203,14.985L11.208,14.85L11.213,14.716L11.22,14.581L11.227,14.447L11.235,14.313L11.244,14.179L11.254,14.045L11.265,13.912L11.276,13.778L11.289,13.645L11.302,13.513L11.316,13.38L11.331,13.248L11.346,13.116L11.363,12.984L11.38,12.852L11.398,12.721L11.417,12.59L11.437,12.459L11.457,12.329L11.478,12.199L11.5,12.069L11.523,11.939L11.547,11.809L11.571,11.68L11.597,11.551L11.623,11.423L11.649,11.294L11.677,11.166L11.705,11.039L11.735,10.911L11.764,10.784L11.795,10.657L11.827,10.53L11.859,10.404L11.892,10.278L11.925,10.152L11.96,10.027L11.995,9.902L12.031,9.777L12.068,9.653L12.105,9.529L12.143,9.405L12.182,9.282L12.222,9.158L12.262,9.036L12.304,8.913L12.346,8.791L12.388,8.669L12.431,8.548L12.476,8.425L12.566,8.186L12.659,7.946L12.755,7.708L12.853,7.471L12.955,7.235L13.059,7.001L13.166,6.769L13.276,6.538L13.388,6.309L13.504,6.081L13.621,5.855L13.742,5.631L13.865,5.408L13.991,5.187L14.119,4.967L14.25,4.75L14.383,4.533L14.519,4.319L14.657,4.107L14.798,3.896L14.941,3.687L15.087,3.48L15.235,3.274L15.386,3.071L15.538,2.87L15.694,2.67L15.851,2.472L16.011,2.276L16.173,2.083L16.338,1.891L16.504,1.701L16.673,1.513L16.844,1.328L17.017,1.144L17.193,0.962L17.37,0.783L17.55,0.606L17.732,0.43L17.916,0.257L18.102,0.087L18.29,-0.082L18.48,-0.248L18.672,-0.413L18.866,-0.574L19.062,-0.734L19.26,-0.891L19.459,-1.046L19.661,-1.199L19.865,-1.349L20.07,-1.497L20.277,-1.642L20.486,-1.785L20.697,-1.925L20.91,-2.063L21.124,-2.199L21.341,-2.332L21.558,-2.462L21.778,-2.59L21.999,-2.716L22.222,-2.838L22.447,-2.958L22.673,-3.076L22.901,-3.191L23.13,-3.303L23.361,-3.412L23.593,-3.519L23.827,-3.623L24.063,-3.724L24.299,-3.822L24.538,-3.918L24.777,-4.01L25.017,-4.1L25.14,-4.144L25.261,-4.187L25.383,-4.23L25.505,-4.271L25.627,-4.312L25.75,-4.353L25.873,-4.392L25.997,-4.431L26.12,-4.469L26.244,-4.506L26.369,-4.543L26.494,-4.578L26.619,-4.613L26.744,-4.648L26.869,-4.681L26.995,-4.714L27.122,-4.746L27.248,-4.777L27.375,-4.808L27.502,-4.837L27.63,-4.866L27.757,-4.894L27.885,-4.922L28.014,-4.948L28.142,-4.974L28.271,-4.999L28.4,-5.024L28.529,-5.047L28.659,-5.07L28.789,-5.092L28.919,-5.113L29.05,-5.133L29.18,-5.152L29.311,-5.171L29.442,-5.189L29.574,-5.206L29.706,-5.222L29.837,-5.238L29.97,-5.252L30.102,-5.266L30.235,-5.279L30.368,-5.291L30.501,-5.303L30.634,-5.313L30.768,-5.323L30.901,-5.332L31.035,-5.34L31.17,-5.347L31.304,-5.353L31.439,-5.358L31.573,-5.363L31.708,-5.367L31.844,-5.37L31.979,-5.372L32.115,-5.373L32.247,-5.373L32.251,-5.418L32.255,-5.464L32.387,-5.463ZM32.13,-3.053L32.009,-3.052L31.888,-3.05L31.767,-3.047L31.647,-3.044L31.527,-3.039L31.407,-3.034L31.287,-3.029L31.168,-3.022L31.048,-3.015L30.929,-3.007L30.81,-2.998L30.692,-2.988L30.573,-2.978L30.455,-2.967L30.337,-2.956L30.219,-2.943L30.102,-2.93L29.984,-2.916L29.867,-2.901L29.75,-2.886L29.634,-2.87L29.517,-2.853L29.401,-2.836L29.285,-2.817L29.169,-2.799L29.054,-2.779L28.939,-2.759L28.824,-2.738L28.709,-2.716L28.594,-2.693L28.48,-2.67L28.366,-2.647L28.253,-2.622L28.139,-2.597L28.026,-2.571L27.913,-2.544L27.8,-2.517L27.688,-2.489L27.576,-2.461L27.464,-2.431L27.352,-2.401L27.241,-2.371L27.13,-2.34L27.019,-2.308L26.909,-2.275L26.799,-2.242L26.689,-2.208L26.579,-2.173L26.47,-2.138L26.361,-2.102L26.252,-2.065L26.144,-2.028L26.035,-1.99L25.928,-1.952L25.822,-1.913L25.606,-1.833L25.393,-1.75L25.181,-1.665L24.971,-1.577L24.762,-1.487L24.554,-1.394L24.348,-1.299L24.143,-1.202L23.939,-1.102L23.737,-0.999L23.536,-0.895L23.337,-0.788L23.139,-0.678L22.942,-0.567L22.747,-0.453L22.554,-0.336L22.362,-0.218L22.171,-0.097L21.982,0.026L21.795,0.151L21.609,0.278L21.425,0.408L21.242,0.54L21.062,0.674L20.882,0.809L20.705,0.948L20.529,1.088L20.355,1.23L20.183,1.374L20.012,1.52L19.843,1.669L19.676,1.819L19.511,1.971L19.348,2.125L19.186,2.281L19.027,2.439L18.869,2.599L18.713,2.761L18.559,2.924L18.407,3.09L18.257,3.257L18.109,3.426L17.963,3.597L17.819,3.769L17.678,3.943L17.538,4.119L17.4,4.297L17.264,4.476L17.131,4.658L16.999,4.84L16.87,5.025L16.743,5.21L16.618,5.398L16.496,5.587L16.375,5.778L16.257,5.97L16.141,6.163L16.027,6.359L15.916,6.555L15.807,6.753L15.7,6.953L15.596,7.154L15.494,7.356L15.395,7.56L15.297,7.765L15.203,7.971L15.11,8.179L15.021,8.388L14.933,8.598L14.848,8.81L14.766,9.023L14.686,9.239L14.647,9.344L14.609,9.452L14.571,9.56L14.534,9.669L14.498,9.777L14.462,9.886L14.427,9.996L14.393,10.105L14.359,10.215L14.326,10.325L14.294,10.436L14.262,10.546L14.231,10.657L14.201,10.769L14.171,10.88L14.142,10.992L14.113,11.104L14.086,11.217L14.059,11.329L14.032,11.442L14.006,11.555L13.981,11.669L13.957,11.782L13.934,11.896L13.911,12.01L13.888,12.125L13.867,12.239L13.846,12.354L13.826,12.469L13.806,12.585L13.788,12.7L13.77,12.816L13.752,12.932L13.736,13.049L13.72,13.165L13.705,13.282L13.69,13.399L13.677,13.516L13.664,13.634L13.652,13.752L13.64,13.869L13.629,13.988L13.619,14.106L13.61,14.224L13.601,14.343L13.593,14.462L13.586,14.581L13.58,14.701L13.574,14.82L13.57,14.94L13.565,15.06L13.562,15.18L13.559,15.301L13.558,15.421L13.557,15.542L13.556,15.663L13.557,15.784L13.558,15.905L13.56,16.025L13.563,16.146L13.566,16.266L13.571,16.386L13.576,16.506L13.581,16.625L13.588,16.745L13.595,16.864L13.603,16.983L13.612,17.102L13.622,17.22L13.632,17.338L13.643,17.457L13.654,17.574L13.667,17.692L13.68,17.81L13.694,17.927L13.709,18.044L13.724,18.16L13.74,18.277L13.757,18.393L13.774,18.509L13.792,18.625L13.811,18.741L13.831,18.856L13.851,18.971L13.872,19.086L13.894,19.201L13.916,19.315L13.939,19.429L13.963,19.543L13.988,19.656L14.013,19.77L14.039,19.883L14.065,19.996L14.092,20.108L14.12,20.22L14.149,20.332L14.178,20.444L14.208,20.556L14.238,20.667L14.27,20.778L14.302,20.888L14.334,20.999L14.367,21.109L14.401,21.218L14.436,21.328L14.471,21.437L14.507,21.546L14.543,21.655L14.581,21.763L14.618,21.871L14.657,21.978L14.695,22.084L14.776,22.3L14.858,22.512L14.944,22.724L15.031,22.934L15.121,23.143L15.214,23.35L15.309,23.556L15.406,23.761L15.506,23.964L15.608,24.166L15.713,24.367L15.82,24.566L15.929,24.764L16.04,24.96L16.154,25.155L16.27,25.348L16.389,25.54L16.509,25.73L16.632,25.919L16.757,26.106L16.884,26.292L17.014,26.476L17.145,26.658L17.279,26.839L17.415,27.018L17.553,27.195L17.693,27.371L17.835,27.544L17.979,27.717L18.125,27.887L18.273,28.056L18.423,28.222L18.575,28.387L18.729,28.551L18.885,28.712L19.042,28.871L19.202,29.029L19.364,29.184L19.527,29.338L19.692,29.49L19.859,29.64L20.028,29.787L20.199,29.933L20.371,30.077L20.545,30.219L20.721,30.358L20.898,30.496L21.077,30.631L21.258,30.765L21.441,30.896L21.625,31.025L21.811,31.152L21.998,31.277L22.187,31.399L22.377,31.519L22.569,31.638L22.762,31.753L22.957,31.867L23.154,31.978L23.351,32.087L23.551,32.193L23.751,32.298L23.954,32.399L24.157,32.499L24.362,32.596L24.568,32.691L24.775,32.783L24.984,32.872L25.194,32.96L25.406,33.044L25.618,33.127L25.834,33.207L25.94,33.245L26.047,33.283L26.155,33.321L26.263,33.358L26.372,33.394L26.481,33.43L26.59,33.465L26.699,33.499L26.809,33.533L26.919,33.566L27.03,33.598L27.14,33.63L27.251,33.661L27.362,33.691L27.474,33.721L27.585,33.75L27.697,33.779L27.809,33.806L27.922,33.833L28.035,33.86L28.148,33.885L28.261,33.91L28.374,33.935L28.488,33.958L28.602,33.981L28.716,34.003L28.831,34.025L28.946,34.046L29.061,34.066L29.176,34.085L29.291,34.104L29.407,34.122L29.523,34.139L29.639,34.156L29.756,34.171L29.872,34.187L29.989,34.201L30.106,34.215L30.224,34.228L30.341,34.24L30.459,34.251L30.577,34.262L30.695,34.272L30.814,34.281L30.932,34.29L31.051,34.298L31.17,34.305L31.289,34.311L31.409,34.317L31.529,34.322L31.648,34.326L31.768,34.329L31.889,34.332L32.009,34.334L32.13,34.335L32.251,34.335L32.371,34.334L32.492,34.333L32.612,34.331L32.733,34.328L32.853,34.325L32.973,34.321L33.092,34.316L33.212,34.31L33.331,34.303L33.45,34.296L33.569,34.288L33.687,34.279L33.806,34.27L33.924,34.26L34.042,34.249L34.16,34.237L34.277,34.224L34.394,34.211L34.512,34.197L34.628,34.183L34.745,34.168L34.861,34.152L34.977,34.135L35.093,34.117L35.209,34.099L35.325,34.08L35.44,34.061L35.555,34.04L35.669,34.02L35.784,33.998L35.898,33.975L36.012,33.952L36.126,33.929L36.239,33.904L36.352,33.879L36.465,33.853L36.578,33.827L36.69,33.8L36.802,33.772L36.914,33.743L37.026,33.714L37.137,33.684L37.248,33.654L37.359,33.622L37.469,33.591L37.58,33.558L37.69,33.525L37.799,33.491L37.908,33.456L38.018,33.421L38.126,33.385L38.235,33.349L38.343,33.312L38.451,33.274L38.558,33.236L38.664,33.197L38.879,33.117L39.092,33.034L39.303,32.949L39.513,32.862L39.721,32.772L39.928,32.679L40.134,32.585L40.339,32.487L40.542,32.388L40.744,32.286L40.944,32.181L41.143,32.074L41.34,31.965L41.537,31.854L41.731,31.74L41.924,31.624L42.116,31.506L42.306,31.385L42.494,31.263L42.681,31.138L42.866,31.011L43.05,30.882L43.232,30.75L43.413,30.617L43.591,30.481L43.769,30.343L43.944,30.203L44.118,30.062L44.29,29.918L44.46,29.772L44.628,29.624L44.795,29.474L44.96,29.322L45.122,29.169L45.284,29.013L45.443,28.855L45.6,28.696L45.756,28.534L45.909,28.371L46.061,28.206L46.21,28.039L46.358,27.871L46.503,27.701L46.647,27.528L46.789,27.355L46.928,27.179L47.065,27.002L47.201,26.823L47.334,26.642L47.465,26.46L47.594,26.276L47.721,26.091L47.845,25.904L47.968,25.715L48.088,25.525L48.206,25.333L48.321,25.14L48.435,24.945L48.546,24.749L48.655,24.551L48.761,24.352L48.865,24.152L48.967,23.95L49.066,23.747L49.163,23.542L49.257,23.336L49.35,23.129L49.439,22.921L49.526,22.711L49.611,22.5L49.693,22.287L49.773,22.072L49.811,21.967L49.85,21.859L49.887,21.751L49.924,21.643L49.96,21.535L49.996,21.426L50.031,21.317L50.065,21.208L50.099,21.098L50.132,20.988L50.164,20.878L50.196,20.767L50.227,20.657L50.257,20.546L50.287,20.434L50.316,20.323L50.344,20.211L50.372,20.099L50.399,19.987L50.425,19.874L50.451,19.761L50.476,19.648L50.5,19.535L50.524,19.421L50.546,19.307L50.569,19.193L50.59,19.079L50.611,18.964L50.631,18.849L50.65,18.734L50.669,18.619L50.687,18.503L50.704,18.387L50.721,18.271L50.737,18.155L50.752,18.038L50.766,17.922L50.78,17.805L50.793,17.688L50.805,17.57L50.816,17.453L50.827,17.335L50.837,17.217L50.846,17.098L50.855,16.98L50.863,16.861L50.87,16.742L50.876,16.623L50.882,16.504L50.887,16.384L50.891,16.265L50.894,16.145L50.897,16.025L50.898,15.904L50.9,15.784L50.9,15.663L50.899,15.542L50.898,15.422L50.896,15.302L50.893,15.182L50.89,15.062L50.886,14.942L50.881,14.822L50.875,14.703L50.868,14.584L50.861,14.465L50.853,14.347L50.844,14.228L50.835,14.11L50.825,13.992L50.814,13.874L50.802,13.756L50.79,13.639L50.776,13.522L50.763,13.405L50.748,13.288L50.733,13.172L50.717,13.056L50.7,12.94L50.683,12.824L50.664,12.708L50.646,12.593L50.626,12.478L50.606,12.363L50.585,12.249L50.563,12.134L50.541,12.02L50.518,11.906L50.494,11.793L50.47,11.679L50.445,11.566L50.419,11.454L50.392,11.341L50.365,11.229L50.337,11.117L50.309,11.005L50.28,10.894L50.25,10.783L50.219,10.672L50.188,10.561L50.156,10.451L50.124,10.341L50.091,10.231L50.057,10.121L50.022,10.012L49.987,9.903L49.952,9.795L49.915,9.686L49.878,9.578L49.84,9.47L49.802,9.363L49.764,9.258L49.683,9.043L49.601,8.83L49.516,8.62L49.429,8.41L49.339,8.202L49.246,7.995L49.152,7.789L49.054,7.585L48.955,7.382L48.853,7.18L48.749,6.98L48.642,6.782L48.533,6.584L48.422,6.388L48.308,6.194L48.192,6.001L48.074,5.81L47.954,5.62L47.831,5.432L47.707,5.245L47.58,5.06L47.451,4.877L47.319,4.695L47.186,4.515L47.051,4.336L46.913,4.159L46.773,3.984L46.632,3.81L46.488,3.639L46.342,3.469L46.195,3.301L46.045,3.134L45.893,2.97L45.74,2.807L45.584,2.646L45.427,2.487L45.268,2.33L45.106,2.175L44.943,2.021L44.779,1.87L44.612,1.72L44.444,1.573L44.273,1.428L44.102,1.284L43.928,1.143L43.753,1.003L43.575,0.866L43.397,0.731L43.216,0.598L43.034,0.467L42.851,0.338L42.665,0.212L42.479,0.087L42.29,-0.035L42.1,-0.155L41.909,-0.273L41.716,-0.388L41.521,-0.501L41.326,-0.612L41.128,-0.721L40.929,-0.827L40.729,-0.931L40.528,-1.033L40.325,-1.132L40.12,-1.229L39.915,-1.323L39.708,-1.415L39.499,-1.505L39.29,-1.592L39.079,-1.676L38.867,-1.758L38.652,-1.838L38.546,-1.876L38.439,-1.915L38.331,-1.952L38.223,-1.989L38.115,-2.025L38.006,-2.061L37.898,-2.096L37.788,-2.13L37.679,-2.164L37.569,-2.196L37.459,-2.229L37.349,-2.26L37.238,-2.291L37.127,-2.322L37.016,-2.351L36.905,-2.38L36.793,-2.409L36.681,-2.436L36.569,-2.463L36.457,-2.489L36.344,-2.515L36.231,-2.54L36.118,-2.564L36.004,-2.588L35.89,-2.611L35.776,-2.633L35.662,-2.654L35.548,-2.675L35.433,-2.695L35.318,-2.714L35.203,-2.733L35.087,-2.751L34.972,-2.768L34.856,-2.785L34.739,-2.8L34.623,-2.816L34.507,-2.83L34.39,-2.844L34.273,-2.856L34.155,-2.869L34.038,-2.88L33.92,-2.891L33.802,-2.901L33.684,-2.91L33.566,-2.919L33.447,-2.927L33.328,-2.934L33.209,-2.94L33.09,-2.946L32.971,-2.95L32.851,-2.954L32.732,-2.958L32.612,-2.96L32.491,-2.962L32.371,-2.963L32.247,-2.964L32.247,-3.054L32.13,-3.053Z" style="fill:#cecfeb;"/>
                <path d="M32.45,0.243L32.648,0.247L32.846,0.254L33.043,0.263L33.239,0.274L33.435,0.288L33.63,0.304L33.825,0.323L34.019,0.344L34.212,0.368L34.405,0.393L34.596,0.422L34.787,0.452L34.977,0.485L35.167,0.521L35.355,0.558L35.543,0.598L35.73,0.64L35.916,0.685L36.101,0.731L36.286,0.78L36.469,0.831L36.652,0.885L36.833,0.94L37.014,0.998L37.193,1.057L37.372,1.119L37.549,1.183L37.726,1.249L37.902,1.318L38.076,1.388L38.25,1.46L38.422,1.535L38.593,1.611L38.763,1.69L38.932,1.77L39.1,1.852L39.267,1.937L39.432,2.023L39.597,2.111L39.76,2.201L39.922,2.293L40.082,2.387L40.242,2.483L40.4,2.581L40.557,2.68L40.713,2.782L40.867,2.885L41.02,2.99L41.171,3.096L41.322,3.205L41.471,3.315L41.618,3.427L41.764,3.541L41.909,3.656L42.052,3.773L42.194,3.892L42.334,4.012L42.473,4.134L42.611,4.258L42.747,4.383L42.881,4.51L43.014,4.639L43.145,4.769L43.275,4.9L43.403,5.033L43.53,5.168L43.655,5.304L43.778,5.442L43.9,5.581L44.02,5.721L44.138,5.863L44.255,6.007L44.37,6.152L44.484,6.298L44.595,6.446L44.705,6.595L44.813,6.745L44.92,6.897L45.024,7.05L45.127,7.204L45.228,7.36L45.327,7.517L45.425,7.675L45.52,7.835L45.614,7.996L45.705,8.158L45.795,8.321L45.883,8.485L45.969,8.651L46.053,8.818L46.135,8.986L46.215,9.155L46.293,9.325L46.369,9.496L46.443,9.669L46.515,9.842L46.585,10.016L46.653,10.192L46.719,10.369L46.782,10.546L46.844,10.725L46.903,10.904L46.96,11.085L47.016,11.266L47.068,11.449L47.119,11.632L47.168,11.816L47.214,12.001L47.258,12.187L47.3,12.374L47.339,12.562L47.376,12.75L47.411,12.939L47.444,13.129L47.474,13.32L47.502,13.512L47.527,13.704L47.551,13.897L47.571,14.091L47.59,14.285L47.606,14.48L47.619,14.676L47.63,14.872L47.639,15.069L47.645,15.266L47.648,15.465L47.649,15.663L47.648,15.862L47.644,16.06L47.638,16.257L47.629,16.454L47.617,16.65L47.603,16.846L47.587,17.041L47.568,17.235L47.547,17.429L47.524,17.622L47.498,17.814L47.47,18.005L47.439,18.196L47.406,18.386L47.371,18.575L47.333,18.763L47.294,18.951L47.252,19.138L47.207,19.323L47.161,19.508L47.112,19.692L47.061,19.875L47.008,20.058L46.952,20.239L46.895,20.419L46.835,20.598L46.773,20.777L46.709,20.954L46.643,21.131L46.575,21.306L46.505,21.48L46.433,21.653L46.358,21.825L46.282,21.996L46.204,22.166L46.123,22.335L46.041,22.503L45.957,22.669L45.871,22.834L45.783,22.998L45.693,23.161L45.601,23.323L45.507,23.483L45.411,23.643L45.314,23.801L45.214,23.957L45.113,24.113L45.01,24.267L44.905,24.419L44.799,24.571L44.691,24.721L44.581,24.87L44.469,25.017L44.355,25.163L44.24,25.307L44.123,25.45L44.005,25.592L43.884,25.732L43.763,25.871L43.639,26.008L43.514,26.144L43.387,26.278L43.259,26.411L43.129,26.542L42.998,26.671L42.865,26.799L42.731,26.926L42.595,27.051L42.457,27.174L42.318,27.295L42.178,27.415L42.036,27.534L41.893,27.65L41.748,27.765L41.602,27.878L41.455,27.99L41.306,28.1L41.155,28.208L41.004,28.314L40.851,28.418L40.697,28.521L40.541,28.622L40.385,28.721L40.227,28.818L40.067,28.913L39.907,29.007L39.745,29.098L39.582,29.188L39.418,29.276L39.252,29.361L39.086,29.445L38.918,29.527L38.749,29.607L38.58,29.685L38.409,29.761L38.236,29.835L38.063,29.907L37.889,29.977L37.714,30.044L37.537,30.11L37.36,30.174L37.182,30.235L37.002,30.294L36.822,30.351L36.641,30.406L36.459,30.459L36.276,30.51L36.092,30.558L35.907,30.604L35.721,30.648L35.535,30.69L35.348,30.73L35.159,30.767L34.97,30.802L34.781,30.834L34.59,30.864L34.399,30.892L34.207,30.918L34.014,30.941L33.821,30.961L33.627,30.98L33.432,30.996L33.237,31.009L33.041,31.02L32.844,31.029L32.647,31.035L32.449,31.038L32.251,31.039L32.052,31.038L31.855,31.034L31.657,31.028L31.461,31.019L31.265,31.007L31.069,30.993L30.875,30.977L30.681,30.958L30.487,30.937L30.295,30.914L30.103,30.888L29.912,30.86L29.721,30.829L29.532,30.797L29.343,30.761L29.155,30.724L28.968,30.684L28.781,30.642L28.596,30.598L28.411,30.551L28.227,30.503L28.045,30.452L27.863,30.398L27.682,30.343L27.502,30.286L27.322,30.226L27.144,30.164L26.967,30.101L26.791,30.035L26.616,29.967L26.442,29.897L26.269,29.824L26.097,29.75L25.927,29.674L25.757,29.596L25.589,29.516L25.421,29.433L25.255,29.349L25.09,29.263L24.926,29.175L24.763,29.085L24.602,28.994L24.442,28.9L24.283,28.805L24.125,28.707L23.969,28.608L23.814,28.507L23.66,28.404L23.507,28.299L23.356,28.193L23.206,28.085L23.058,27.975L22.911,27.863L22.765,27.75L22.621,27.635L22.478,27.518L22.336,27.4L22.196,27.28L22.058,27.158L21.921,27.035L21.785,26.91L21.651,26.784L21.519,26.655L21.388,26.526L21.259,26.395L21.131,26.262L21.004,26.128L20.88,25.992L20.757,25.855L20.635,25.716L20.516,25.576L20.398,25.434L20.281,25.291L20.166,25.147L20.053,25.001L19.942,24.854L19.832,24.705L19.725,24.555L19.619,24.404L19.514,24.251L19.412,24.097L19.311,23.942L19.212,23.785L19.115,23.627L19.02,23.468L18.927,23.308L18.835,23.146L18.746,22.984L18.658,22.82L18.572,22.655L18.489,22.488L18.407,22.321L18.327,22.152L18.249,21.983L18.173,21.812L18.1,21.64L18.028,21.467L17.958,21.293L17.89,21.118L17.825,20.942L17.761,20.765L17.7,20.587L17.641,20.408L17.584,20.228L17.529,20.047L17.476,19.865L17.426,19.682L17.377,19.499L17.331,19.314L17.287,19.129L17.246,18.943L17.206,18.755L17.169,18.568L17.134,18.379L17.102,18.189L17.072,17.999L17.044,17.808L17.019,17.616L16.995,17.424L16.975,17.231L16.956,17.037L16.941,16.843L16.927,16.648L16.916,16.452L16.908,16.256L16.902,16.059L16.898,15.861L16.897,15.663L16.898,15.465L16.902,15.268L16.909,15.071L16.918,14.874L16.929,14.679L16.943,14.484L16.959,14.289L16.978,14.096L16.999,13.903L17.022,13.71L17.048,13.519L17.076,13.328L17.107,13.138L17.139,12.948L17.175,12.76L17.212,12.572L17.252,12.385L17.294,12.199L17.338,12.014L17.384,11.829L17.433,11.646L17.484,11.463L17.537,11.282L17.592,11.101L17.649,10.921L17.709,10.742L17.771,10.564L17.834,10.388L17.9,10.212L17.968,10.037L18.038,9.863L18.11,9.691L18.184,9.519L18.26,9.349L18.338,9.179L18.418,9.011L18.5,8.844L18.584,8.678L18.67,8.513L18.758,8.349L18.848,8.187L18.94,8.026L19.033,7.866L19.129,7.707L19.226,7.55L19.325,7.393L19.426,7.238L19.528,7.085L19.633,6.933L19.739,6.782L19.847,6.632L19.957,6.484L20.068,6.337L20.181,6.191L20.296,6.047L20.413,5.905L20.531,5.763L20.651,5.624L20.772,5.485L20.895,5.349L21.02,5.213L21.147,5.079L21.274,4.947L21.404,4.816L21.535,4.687L21.667,4.56L21.801,4.433L21.937,4.309L22.074,4.186L22.213,4.065L22.353,3.945L22.494,3.827L22.637,3.711L22.781,3.597L22.927,3.484L23.074,3.373L23.222,3.263L23.372,3.155L23.523,3.05L23.675,2.945L23.829,2.843L23.984,2.743L24.141,2.644L24.298,2.547L24.457,2.452L24.617,2.359L24.778,2.267L24.941,2.178L25.104,2.09L25.269,2.005L25.435,1.921L25.603,1.84L25.771,1.76L25.94,1.682L26.111,1.607L26.282,1.533L26.455,1.461L26.629,1.392L26.804,1.324L26.979,1.259L27.156,1.195L27.334,1.134L27.513,1.075L27.692,1.018L27.873,0.963L28.055,0.91L28.237,0.86L28.421,0.812L28.605,0.766L28.79,0.722L28.976,0.68L29.163,0.641L29.35,0.604L29.539,0.569L29.728,0.537L29.918,0.507L30.109,0.479L30.3,0.453L30.492,0.43L30.685,0.41L30.879,0.391L31.073,0.376L31.268,0.362L31.463,0.351L31.659,0.343L31.856,0.337L32.053,0.333L32.243,0.332L32.251,0.287L32.259,0.242L32.45,0.243ZM32.082,2.653L31.915,2.656L31.747,2.662L31.581,2.669L31.415,2.679L31.249,2.691L31.084,2.705L30.92,2.72L30.756,2.738L30.593,2.758L30.431,2.78L30.269,2.804L30.108,2.83L29.948,2.858L29.788,2.887L29.629,2.919L29.471,2.953L29.314,2.988L29.157,3.026L29.001,3.065L28.846,3.106L28.691,3.149L28.537,3.194L28.384,3.241L28.232,3.289L28.081,3.34L27.931,3.392L27.781,3.446L27.632,3.502L27.484,3.559L27.337,3.619L27.191,3.68L27.046,3.742L26.901,3.807L26.758,3.873L26.616,3.941L26.474,4.01L26.333,4.081L26.194,4.154L26.055,4.229L25.918,4.305L25.781,4.382L25.646,4.462L25.511,4.542L25.378,4.625L25.245,4.709L25.114,4.794L24.984,4.881L24.855,4.97L24.727,5.06L24.6,5.152L24.474,5.245L24.35,5.339L24.226,5.435L24.104,5.533L23.983,5.632L23.863,5.732L23.745,5.834L23.628,5.937L23.511,6.041L23.397,6.147L23.283,6.254L23.171,6.363L23.06,6.473L22.95,6.584L22.842,6.696L22.735,6.81L22.63,6.925L22.525,7.041L22.423,7.159L22.321,7.277L22.221,7.397L22.123,7.519L22.026,7.641L21.93,7.764L21.836,7.889L21.743,8.015L21.652,8.142L21.562,8.27L21.474,8.399L21.387,8.53L21.302,8.661L21.218,8.794L21.136,8.927L21.055,9.062L20.976,9.197L20.899,9.334L20.823,9.472L20.749,9.61L20.677,9.75L20.606,9.891L20.537,10.032L20.469,10.175L20.404,10.318L20.34,10.463L20.277,10.608L20.217,10.754L20.158,10.901L20.101,11.049L20.045,11.198L19.992,11.347L19.94,11.498L19.89,11.649L19.842,11.801L19.795,11.954L19.751,12.108L19.708,12.262L19.667,12.417L19.628,12.573L19.591,12.73L19.556,12.887L19.523,13.045L19.492,13.204L19.462,13.364L19.435,13.524L19.409,13.685L19.386,13.846L19.364,14.008L19.345,14.171L19.327,14.335L19.312,14.499L19.299,14.663L19.287,14.828L19.278,14.994L19.271,15.161L19.266,15.328L19.263,15.495L19.262,15.663L19.263,15.831L19.266,15.999L19.272,16.166L19.279,16.332L19.289,16.498L19.301,16.663L19.314,16.827L19.33,16.991L19.348,17.155L19.368,17.317L19.39,17.48L19.414,17.641L19.439,17.802L19.467,17.962L19.497,18.121L19.529,18.28L19.562,18.438L19.598,18.595L19.635,18.751L19.674,18.907L19.715,19.062L19.758,19.216L19.803,19.37L19.85,19.523L19.898,19.674L19.949,19.825L20.001,19.976L20.055,20.125L20.11,20.274L20.168,20.421L20.227,20.568L20.288,20.714L20.35,20.859L20.415,21.003L20.481,21.146L20.548,21.288L20.618,21.43L20.689,21.57L20.762,21.709L20.836,21.848L20.912,21.985L20.989,22.121L21.068,22.257L21.149,22.391L21.231,22.524L21.315,22.656L21.401,22.787L21.488,22.917L21.576,23.046L21.666,23.174L21.757,23.301L21.85,23.426L21.945,23.55L22.041,23.674L22.138,23.795L22.237,23.916L22.337,24.036L22.438,24.154L22.541,24.271L22.645,24.387L22.751,24.502L22.858,24.615L22.966,24.727L23.076,24.838L23.187,24.947L23.299,25.055L23.413,25.162L23.528,25.267L23.644,25.371L23.761,25.474L23.879,25.575L23.999,25.675L24.12,25.773L24.242,25.87L24.366,25.966L24.49,26.06L24.616,26.153L24.743,26.244L24.871,26.333L25,26.422L25.13,26.508L25.261,26.593L25.393,26.677L25.526,26.759L25.661,26.839L25.796,26.918L25.933,26.995L26.07,27.071L26.208,27.145L26.348,27.217L26.488,27.288L26.63,27.357L26.772,27.424L26.915,27.49L27.059,27.553L27.204,27.616L27.35,27.676L27.497,27.735L27.644,27.792L27.793,27.847L27.942,27.901L28.093,27.953L28.244,28.002L28.395,28.051L28.548,28.097L28.701,28.141L28.855,28.184L29.01,28.225L29.166,28.263L29.322,28.3L29.48,28.336L29.637,28.369L29.796,28.4L29.955,28.429L30.115,28.457L30.276,28.482L30.437,28.506L30.599,28.527L30.761,28.546L30.924,28.564L31.088,28.579L31.252,28.593L31.417,28.604L31.583,28.613L31.749,28.621L31.916,28.626L32.083,28.629L32.251,28.63L32.418,28.628L32.586,28.625L32.752,28.619L32.918,28.612L33.084,28.602L33.249,28.591L33.413,28.577L33.577,28.561L33.74,28.543L33.902,28.523L34.064,28.502L34.225,28.478L34.385,28.452L34.545,28.424L34.704,28.395L34.863,28.363L35.02,28.33L35.177,28.294L35.334,28.257L35.489,28.218L35.644,28.177L35.798,28.134L35.951,28.089L36.103,28.042L36.255,27.994L36.406,27.944L36.556,27.892L36.705,27.838L36.853,27.782L37,27.725L37.147,27.666L37.293,27.605L37.437,27.543L37.581,27.478L37.724,27.413L37.866,27.345L38.007,27.276L38.147,27.205L38.286,27.132L38.424,27.058L38.561,26.982L38.698,26.905L38.833,26.826L38.967,26.745L39.1,26.663L39.232,26.579L39.362,26.494L39.492,26.407L39.621,26.319L39.748,26.229L39.875,26.138L40,26.045L40.124,25.951L40.247,25.855L40.369,25.758L40.489,25.66L40.609,25.56L40.727,25.459L40.844,25.356L40.959,25.252L41.074,25.146L41.187,25.039L41.299,24.931L41.409,24.822L41.519,24.711L41.626,24.599L41.733,24.486L41.838,24.371L41.942,24.255L42.044,24.138L42.146,24.02L42.245,23.9L42.343,23.779L42.44,23.657L42.536,23.534L42.63,23.41L42.722,23.285L42.813,23.158L42.902,23.03L42.99,22.902L43.077,22.772L43.162,22.641L43.245,22.509L43.327,22.376L43.407,22.241L43.486,22.106L43.563,21.97L43.638,21.833L43.712,21.695L43.784,21.556L43.855,21.415L43.924,21.274L43.991,21.132L44.056,20.989L44.12,20.846L44.182,20.701L44.243,20.555L44.302,20.409L44.358,20.261L44.414,20.113L44.467,19.964L44.519,19.814L44.568,19.663L44.616,19.512L44.663,19.359L44.707,19.206L44.75,19.052L44.79,18.898L44.829,18.742L44.866,18.586L44.901,18.429L44.934,18.272L44.965,18.114L44.995,17.955L45.022,17.795L45.047,17.635L45.071,17.474L45.092,17.312L45.112,17.15L45.129,16.987L45.144,16.824L45.158,16.66L45.169,16.495L45.178,16.33L45.185,16.164L45.191,15.998L45.194,15.831L45.194,15.663L45.193,15.496L45.19,15.329L45.184,15.162L45.177,14.997L45.167,14.831L45.156,14.667L45.142,14.503L45.126,14.339L45.108,14.177L45.089,14.014L45.067,13.853L45.043,13.692L45.017,13.532L44.99,13.372L44.96,13.214L44.928,13.056L44.895,12.898L44.86,12.741L44.822,12.585L44.783,12.43L44.742,12.276L44.699,12.122L44.655,11.969L44.608,11.817L44.56,11.666L44.51,11.515L44.458,11.366L44.404,11.217L44.349,11.069L44.291,10.922L44.233,10.775L44.172,10.63L44.109,10.485L44.045,10.342L43.98,10.199L43.912,10.057L43.843,9.917L43.772,9.777L43.7,9.638L43.626,9.5L43.55,9.363L43.473,9.227L43.394,9.093L43.314,8.959L43.232,8.826L43.148,8.694L43.063,8.564L42.976,8.434L42.888,8.306L42.798,8.178L42.707,8.052L42.615,7.927L42.521,7.803L42.425,7.681L42.328,7.559L42.23,7.439L42.13,7.32L42.029,7.202L41.926,7.085L41.822,6.969L41.717,6.855L41.611,6.742L41.503,6.631L41.393,6.52L41.283,6.411L41.171,6.304L41.058,6.197L40.943,6.092L40.828,5.989L40.711,5.886L40.593,5.785L40.473,5.686L40.353,5.588L40.231,5.491L40.108,5.396L39.984,5.302L39.859,5.21L39.732,5.119L39.605,5.03L39.476,4.942L39.347,4.856L39.216,4.771L39.084,4.688L38.951,4.606L38.817,4.526L38.683,4.448L38.547,4.371L38.41,4.295L38.272,4.222L38.133,4.15L37.993,4.079L37.852,4.01L37.71,3.943L37.568,3.878L37.424,3.814L37.28,3.752L37.134,3.692L36.988,3.633L36.841,3.576L36.693,3.521L36.544,3.468L36.394,3.416L36.244,3.367L36.093,3.319L35.94,3.273L35.788,3.228L35.634,3.186L35.48,3.145L35.325,3.107L35.169,3.07L35.012,3.035L34.855,3.002L34.697,2.971L34.538,2.941L34.379,2.914L34.219,2.889L34.058,2.865L33.897,2.844L33.735,2.825L33.572,2.807L33.409,2.792L33.245,2.778L33.081,2.767L32.916,2.758L32.751,2.751L32.584,2.746L32.418,2.743L32.243,2.742L32.243,2.652L32.082,2.653Z" style="fill:#cecfeb;"/>
                <path d="M32.381,5.527L32.512,5.53L32.641,5.534L32.771,5.54L32.9,5.548L33.029,5.557L33.157,5.568L33.285,5.58L33.412,5.594L33.539,5.61L33.666,5.627L33.792,5.645L33.917,5.666L34.042,5.687L34.167,5.711L34.291,5.735L34.414,5.762L34.537,5.789L34.66,5.819L34.781,5.849L34.902,5.882L35.023,5.915L35.143,5.95L35.262,5.987L35.381,6.025L35.499,6.064L35.616,6.105L35.733,6.147L35.849,6.191L35.965,6.236L36.079,6.282L36.193,6.329L36.307,6.378L36.419,6.429L36.531,6.48L36.642,6.533L36.752,6.587L36.862,6.643L36.971,6.7L37.079,6.758L37.186,6.817L37.292,6.878L37.398,6.939L37.502,7.002L37.606,7.067L37.709,7.132L37.812,7.199L37.913,7.266L38.013,7.335L38.113,7.406L38.212,7.477L38.309,7.549L38.406,7.623L38.502,7.698L38.597,7.773L38.691,7.85L38.785,7.928L38.877,8.008L38.968,8.088L39.058,8.169L39.147,8.251L39.236,8.335L39.323,8.419L39.409,8.505L39.494,8.591L39.578,8.679L39.662,8.767L39.744,8.857L39.825,8.947L39.905,9.038L39.983,9.131L40.061,9.224L40.138,9.318L40.213,9.414L40.288,9.51L40.361,9.607L40.433,9.705L40.504,9.804L40.574,9.903L40.643,10.004L40.71,10.105L40.777,10.208L40.842,10.311L40.906,10.415L40.968,10.52L41.03,10.625L41.09,10.732L41.149,10.839L41.206,10.947L41.263,11.056L41.318,11.166L41.372,11.276L41.424,11.387L41.476,11.499L41.526,11.611L41.574,11.725L41.621,11.839L41.667,11.953L41.712,12.069L41.755,12.185L41.797,12.302L41.837,12.419L41.876,12.537L41.914,12.656L41.95,12.775L41.984,12.895L42.018,13.015L42.049,13.136L42.08,13.258L42.109,13.38L42.136,13.503L42.162,13.626L42.186,13.75L42.209,13.874L42.231,13.999L42.25,14.125L42.269,14.25L42.285,14.377L42.3,14.504L42.314,14.631L42.326,14.758L42.336,14.886L42.345,15.015L42.352,15.144L42.358,15.273L42.362,15.403L42.364,15.533L42.365,15.663L42.364,15.793L42.361,15.923L42.357,16.053L42.351,16.182L42.343,16.311L42.334,16.44L42.323,16.568L42.311,16.695L42.297,16.822L42.282,16.949L42.265,17.075L42.246,17.201L42.226,17.326L42.204,17.451L42.181,17.575L42.156,17.699L42.13,17.822L42.102,17.945L42.073,18.067L42.042,18.188L42.01,18.309L41.977,18.429L41.942,18.549L41.905,18.668L41.867,18.787L41.828,18.904L41.788,19.021L41.745,19.138L41.702,19.254L41.657,19.369L41.611,19.483L41.564,19.597L41.515,19.71L41.465,19.822L41.413,19.934L41.36,20.045L41.306,20.155L41.251,20.264L41.194,20.373L41.136,20.48L41.077,20.587L41.017,20.693L40.955,20.799L40.892,20.903L40.828,21.007L40.763,21.11L40.696,21.212L40.629,21.313L40.56,21.413L40.49,21.512L40.419,21.611L40.346,21.708L40.273,21.805L40.198,21.901L40.123,21.996L40.046,22.09L39.968,22.182L39.889,22.274L39.809,22.365L39.728,22.455L39.646,22.545L39.563,22.633L39.478,22.72L39.393,22.806L39.307,22.891L39.22,22.975L39.131,23.058L39.042,23.139L38.952,23.22L38.861,23.3L38.768,23.379L38.675,23.456L38.581,23.533L38.486,23.608L38.39,23.682L38.293,23.756L38.196,23.828L38.097,23.898L37.998,23.968L37.897,24.037L37.796,24.104L37.694,24.17L37.591,24.235L37.487,24.299L37.383,24.361L37.277,24.423L37.171,24.483L37.064,24.541L36.956,24.599L36.847,24.655L36.738,24.71L36.628,24.764L36.517,24.816L36.406,24.868L36.293,24.917L36.18,24.966L36.066,25.013L35.952,25.059L35.837,25.103L35.721,25.146L35.605,25.188L35.488,25.228L35.37,25.267L35.251,25.305L35.132,25.341L35.013,25.375L34.893,25.408L34.772,25.44L34.65,25.47L34.529,25.499L34.406,25.527L34.283,25.552L34.159,25.577L34.035,25.599L33.911,25.621L33.786,25.641L33.66,25.659L33.534,25.675L33.408,25.691L33.281,25.704L33.153,25.716L33.026,25.726L32.897,25.735L32.769,25.742L32.64,25.748L32.51,25.752L32.381,25.754L32.251,25.755L32.121,25.754L31.991,25.751L31.862,25.747L31.733,25.741L31.604,25.733L31.476,25.724L31.348,25.713L31.221,25.701L31.094,25.687L30.968,25.672L30.842,25.655L30.716,25.636L30.591,25.616L30.467,25.594L30.343,25.571L30.219,25.547L30.096,25.52L29.974,25.493L29.852,25.464L29.731,25.433L29.611,25.401L29.491,25.368L29.371,25.333L29.252,25.296L29.134,25.259L29.017,25.219L28.9,25.179L28.784,25.137L28.668,25.093L28.553,25.049L28.439,25.003L28.325,24.955L28.213,24.907L28.101,24.856L27.989,24.805L27.879,24.752L27.769,24.698L27.66,24.643L27.552,24.587L27.444,24.529L27.337,24.47L27.232,24.41L27.126,24.348L27.022,24.285L26.919,24.221L26.816,24.156L26.714,24.09L26.614,24.022L26.514,23.954L26.414,23.884L26.316,23.813L26.219,23.741L26.122,23.668L26.027,23.593L25.932,23.518L25.839,23.441L25.746,23.363L25.654,23.285L25.563,23.205L25.473,23.124L25.385,23.042L25.297,22.959L25.21,22.875L25.124,22.79L25.039,22.704L24.955,22.617L24.873,22.528L24.791,22.439L24.71,22.349L24.631,22.258L24.552,22.166L24.475,22.073L24.399,21.98L24.323,21.885L24.249,21.789L24.176,21.692L24.104,21.595L24.034,21.497L23.964,21.397L23.896,21.297L23.829,21.196L23.763,21.094L23.698,20.991L23.634,20.888L23.572,20.784L23.511,20.678L23.451,20.572L23.392,20.466L23.335,20.358L23.279,20.25L23.224,20.141L23.17,20.031L23.118,19.92L23.067,19.809L23.017,19.697L22.969,19.584L22.922,19.47L22.876,19.356L22.832,19.241L22.789,19.126L22.747,19.01L22.707,18.893L22.668,18.775L22.631,18.657L22.595,18.539L22.56,18.419L22.527,18.299L22.495,18.179L22.465,18.058L22.437,17.936L22.409,17.814L22.383,17.691L22.359,17.568L22.336,17.444L22.315,17.32L22.296,17.195L22.277,17.07L22.261,16.944L22.246,16.818L22.232,16.691L22.22,16.564L22.21,16.436L22.201,16.308L22.194,16.18L22.188,16.051L22.185,15.922L22.182,15.793L22.182,15.663L22.183,15.533L22.185,15.404L22.19,15.275L22.195,15.146L22.203,15.018L22.212,14.89L22.223,14.763L22.235,14.636L22.249,14.509L22.264,14.383L22.281,14.257L22.3,14.132L22.32,14.007L22.341,13.883L22.365,13.76L22.389,13.636L22.415,13.514L22.443,13.392L22.472,13.27L22.502,13.149L22.534,13.029L22.568,12.909L22.603,12.79L22.639,12.672L22.677,12.554L22.716,12.436L22.756,12.32L22.798,12.204L22.841,12.089L22.886,11.974L22.932,11.86L22.979,11.747L23.028,11.634L23.078,11.522L23.129,11.411L23.182,11.301L23.235,11.192L23.291,11.083L23.347,10.975L23.405,10.867L23.464,10.761L23.524,10.655L23.585,10.55L23.648,10.446L23.711,10.343L23.776,10.241L23.843,10.139L23.91,10.039L23.978,9.939L24.048,9.84L24.119,9.742L24.191,9.645L24.264,9.549L24.338,9.453L24.414,9.359L24.49,9.265L24.568,9.173L24.646,9.081L24.726,8.991L24.807,8.901L24.888,8.812L24.971,8.725L25.055,8.638L25.14,8.552L25.226,8.468L25.313,8.384L25.401,8.302L25.49,8.22L25.579,8.14L25.67,8.06L25.762,7.982L25.855,7.905L25.948,7.829L26.043,7.754L26.138,7.68L26.235,7.607L26.332,7.535L26.43,7.465L26.529,7.395L26.629,7.327L26.73,7.26L26.832,7.194L26.934,7.129L27.038,7.066L27.142,7.004L27.247,6.943L27.352,6.883L27.459,6.824L27.566,6.767L27.674,6.711L27.783,6.656L27.893,6.603L28.003,6.551L28.114,6.5L28.226,6.45L28.339,6.402L28.452,6.355L28.566,6.309L28.68,6.265L28.796,6.222L28.912,6.181L29.028,6.141L29.145,6.102L29.263,6.065L29.382,6.029L29.501,5.994L29.62,5.961L29.741,5.93L29.861,5.9L29.983,5.871L30.105,5.844L30.227,5.818L30.35,5.794L30.474,5.771L30.598,5.75L30.722,5.73L30.847,5.712L30.973,5.696L31.099,5.681L31.225,5.667L31.352,5.655L31.479,5.645L31.607,5.636L31.735,5.629L31.863,5.623L31.992,5.62L32.121,5.617L32.243,5.617L32.251,5.572L32.259,5.527L32.381,5.527ZM32.151,7.937L32.051,7.939L31.951,7.943L31.852,7.947L31.754,7.953L31.655,7.96L31.558,7.968L31.46,7.978L31.363,7.988L31.266,8L31.17,8.013L31.074,8.028L30.978,8.043L30.883,8.06L30.788,8.077L30.694,8.096L30.6,8.116L30.507,8.137L30.414,8.16L30.321,8.183L30.229,8.208L30.137,8.233L30.046,8.26L29.955,8.288L29.865,8.317L29.775,8.347L29.686,8.378L29.597,8.41L29.509,8.443L29.421,8.477L29.334,8.512L29.247,8.549L29.161,8.586L29.075,8.624L28.99,8.664L28.906,8.704L28.822,8.745L28.738,8.787L28.656,8.831L28.573,8.875L28.492,8.92L28.411,8.966L28.33,9.013L28.251,9.062L28.171,9.111L28.093,9.16L28.015,9.211L27.938,9.263L27.861,9.316L27.785,9.369L27.71,9.424L27.635,9.479L27.561,9.535L27.488,9.592L27.416,9.65L27.344,9.709L27.273,9.769L27.202,9.829L27.133,9.89L27.064,9.952L26.996,10.015L26.929,10.079L26.862,10.143L26.796,10.209L26.731,10.275L26.667,10.342L26.603,10.409L26.541,10.477L26.479,10.546L26.418,10.616L26.358,10.687L26.299,10.758L26.24,10.83L26.182,10.903L26.126,10.976L26.07,11.05L26.015,11.125L25.961,11.2L25.907,11.277L25.855,11.353L25.804,11.431L25.753,11.509L25.704,11.587L25.655,11.667L25.607,11.747L25.56,11.827L25.515,11.908L25.47,11.99L25.426,12.072L25.383,12.155L25.341,12.239L25.3,12.323L25.26,12.407L25.221,12.492L25.183,12.578L25.146,12.664L25.11,12.751L25.076,12.838L25.042,12.926L25.009,13.014L24.977,13.103L24.947,13.192L24.917,13.282L24.889,13.372L24.861,13.463L24.835,13.554L24.81,13.645L24.785,13.737L24.762,13.83L24.741,13.923L24.72,14.016L24.7,14.11L24.682,14.204L24.664,14.299L24.648,14.394L24.633,14.489L24.619,14.585L24.607,14.681L24.595,14.778L24.585,14.875L24.576,14.972L24.568,15.07L24.561,15.168L24.556,15.266L24.551,15.365L24.548,15.464L24.547,15.563L24.546,15.663L24.547,15.763L24.549,15.862L24.553,15.961L24.557,16.06L24.563,16.159L24.57,16.257L24.578,16.354L24.588,16.451L24.598,16.548L24.61,16.645L24.623,16.741L24.637,16.837L24.653,16.932L24.669,17.027L24.687,17.121L24.706,17.215L24.726,17.309L24.747,17.402L24.769,17.495L24.792,17.587L24.817,17.679L24.842,17.77L24.869,17.861L24.897,17.952L24.926,18.042L24.956,18.131L24.986,18.22L25.018,18.309L25.052,18.397L25.086,18.484L25.121,18.571L25.157,18.658L25.194,18.744L25.232,18.829L25.271,18.914L25.312,18.998L25.353,19.082L25.395,19.165L25.438,19.248L25.482,19.33L25.527,19.411L25.573,19.492L25.62,19.572L25.668,19.651L25.717,19.73L25.767,19.809L25.818,19.886L25.869,19.963L25.922,20.04L25.975,20.116L26.029,20.191L26.085,20.265L26.141,20.339L26.197,20.412L26.255,20.484L26.314,20.556L26.373,20.626L26.433,20.697L26.495,20.766L26.556,20.835L26.619,20.903L26.683,20.97L26.747,21.036L26.812,21.102L26.878,21.166L26.945,21.231L27.012,21.294L27.08,21.356L27.149,21.418L27.219,21.479L27.289,21.539L27.36,21.598L27.432,21.656L27.504,21.714L27.577,21.77L27.651,21.826L27.726,21.881L27.801,21.935L27.877,21.988L27.953,22.04L28.031,22.091L28.108,22.142L28.187,22.191L28.266,22.24L28.346,22.287L28.426,22.334L28.507,22.379L28.588,22.424L28.67,22.468L28.753,22.511L28.836,22.553L28.92,22.593L29.004,22.633L29.089,22.672L29.174,22.71L29.26,22.747L29.347,22.782L29.434,22.817L29.521,22.851L29.609,22.884L29.698,22.915L29.787,22.946L29.876,22.975L29.966,23.004L30.056,23.031L30.147,23.057L30.239,23.082L30.33,23.106L30.423,23.129L30.515,23.151L30.608,23.172L30.702,23.192L30.796,23.21L30.89,23.227L30.985,23.243L31.08,23.258L31.175,23.272L31.271,23.285L31.368,23.296L31.464,23.307L31.561,23.316L31.659,23.323L31.757,23.33L31.855,23.336L31.953,23.34L32.052,23.343L32.151,23.344L32.251,23.345L32.35,23.344L32.449,23.342L32.548,23.339L32.647,23.334L32.745,23.328L32.842,23.321L32.94,23.313L33.037,23.304L33.133,23.293L33.229,23.281L33.325,23.268L33.421,23.254L33.516,23.239L33.61,23.222L33.704,23.205L33.798,23.186L33.892,23.166L33.985,23.145L34.077,23.123L34.169,23.099L34.261,23.075L34.352,23.05L34.442,23.023L34.533,22.995L34.622,22.967L34.712,22.937L34.8,22.906L34.889,22.874L34.976,22.841L35.064,22.807L35.15,22.772L35.236,22.736L35.322,22.699L35.407,22.661L35.492,22.622L35.576,22.582L35.659,22.541L35.742,22.499L35.825,22.456L35.906,22.412L35.987,22.367L36.068,22.321L36.148,22.274L36.227,22.226L36.306,22.177L36.384,22.128L36.462,22.077L36.538,22.026L36.614,21.973L36.69,21.92L36.765,21.866L36.839,21.811L36.912,21.755L36.985,21.699L37.057,21.641L37.129,21.583L37.199,21.523L37.269,21.463L37.338,21.402L37.407,21.341L37.475,21.278L37.542,21.215L37.608,21.151L37.673,21.086L37.738,21.02L37.802,20.954L37.865,20.886L37.927,20.818L37.988,20.75L38.049,20.68L38.109,20.61L38.168,20.539L38.226,20.468L38.283,20.396L38.34,20.323L38.395,20.249L38.45,20.175L38.504,20.1L38.557,20.024L38.609,19.948L38.66,19.871L38.71,19.793L38.759,19.715L38.808,19.636L38.855,19.557L38.902,19.477L38.947,19.396L38.992,19.315L39.035,19.233L39.078,19.151L39.12,19.068L39.161,18.984L39.2,18.9L39.239,18.815L39.277,18.73L39.313,18.645L39.349,18.558L39.384,18.472L39.417,18.384L39.45,18.297L39.481,18.209L39.512,18.12L39.541,18.031L39.57,17.941L39.597,17.851L39.623,17.76L39.648,17.669L39.672,17.578L39.695,17.486L39.717,17.393L39.737,17.301L39.757,17.207L39.775,17.114L39.793,17.02L39.809,16.925L39.824,16.83L39.837,16.735L39.85,16.64L39.861,16.544L39.872,16.447L39.881,16.35L39.888,16.253L39.895,16.156L39.901,16.058L39.905,15.96L39.908,15.861L39.909,15.762L39.91,15.663L39.909,15.564L39.907,15.465L39.904,15.367L39.899,15.268L39.893,15.171L39.886,15.073L39.878,14.976L39.869,14.879L39.858,14.783L39.846,14.687L39.833,14.592L39.819,14.496L39.804,14.402L39.788,14.307L39.77,14.214L39.751,14.12L39.731,14.027L39.71,13.934L39.688,13.842L39.665,13.75L39.641,13.659L39.615,13.568L39.589,13.478L39.561,13.388L39.533,13.298L39.503,13.209L39.472,13.121L39.44,13.033L39.408,12.945L39.374,12.859L39.339,12.772L39.303,12.686L39.266,12.601L39.228,12.516L39.189,12.431L39.149,12.348L39.108,12.264L39.066,12.182L39.023,12.1L38.979,12.018L38.934,11.937L38.889,11.857L38.842,11.777L38.794,11.698L38.746,11.62L38.696,11.542L38.646,11.465L38.595,11.388L38.542,11.312L38.489,11.237L38.435,11.162L38.381,11.088L38.325,11.015L38.268,10.942L38.211,10.871L38.153,10.799L38.094,10.729L38.034,10.659L37.973,10.59L37.911,10.522L37.849,10.454L37.786,10.388L37.722,10.322L37.657,10.256L37.592,10.192L37.526,10.128L37.459,10.065L37.391,10.003L37.322,9.942L37.253,9.882L37.183,9.822L37.113,9.763L37.041,9.705L36.969,9.648L36.896,9.592L36.823,9.536L36.749,9.482L36.674,9.428L36.599,9.376L36.523,9.324L36.446,9.273L36.369,9.223L36.291,9.173L36.212,9.125L36.133,9.078L36.053,9.032L35.973,8.986L35.892,8.942L35.81,8.898L35.728,8.856L35.645,8.814L35.562,8.774L35.478,8.734L35.394,8.695L35.309,8.658L35.223,8.621L35.137,8.586L35.051,8.551L34.964,8.518L34.876,8.485L34.789,8.454L34.7,8.423L34.611,8.394L34.522,8.366L34.432,8.339L34.342,8.312L34.251,8.287L34.16,8.263L34.068,8.241L33.976,8.219L33.883,8.198L33.79,8.179L33.697,8.161L33.603,8.143L33.509,8.127L33.415,8.112L33.32,8.099L33.224,8.086L33.128,8.075L33.032,8.065L32.936,8.056L32.839,8.048L32.742,8.041L32.644,8.036L32.546,8.032L32.448,8.029L32.35,8.027L32.243,8.026L32.243,7.936L32.151,7.937Z" style="fill:#cecfeb;"/>
            </g>
        </g>
        <path d="M51.576,30.187C51.235,29.591 50.601,29.224 49.914,29.224C44.458,29.224 20.519,29.224 14.715,29.224C13.929,29.224 13.204,29.645 12.815,30.327C11.59,32.473 9.008,36.999 9.008,36.999L55.535,37.106C55.535,37.106 52.78,32.291 51.576,30.187Z" style="fill:#f1765a;"/>
        <clipPath id="_clip3">
            <path d="M51.576,30.187C51.235,29.591 50.601,29.224 49.914,29.224C44.458,29.224 20.519,29.224 14.715,29.224C13.929,29.224 13.204,29.645 12.815,30.327C11.59,32.473 9.008,36.999 9.008,36.999L55.535,37.106C55.535,37.106 52.78,32.291 51.576,30.187Z"/>
        </clipPath>
        <g clip-path="url(#_clip3)">
            <path d="M46.223,25.48L54.02,39.927L59.766,40.645C59.766,40.645 53.599,26.636 52.94,26.456C52.281,26.275 46.223,25.48 46.223,25.48Z" style="fill:#f1b1af;fill-opacity:0.5;"/>
        </g>
        <path d="M55.838,38.373C55.886,37.797 55.69,37.226 55.299,36.801C54.907,36.375 54.355,36.133 53.776,36.133C45.744,36.133 18.524,36.133 10.616,36.133C10.057,36.133 9.524,36.367 9.145,36.778C8.767,37.189 8.578,37.74 8.625,38.296C9.01,42.923 9.91,53.718 10.28,58.165C10.373,59.277 11.303,60.133 12.419,60.133C19.692,60.133 44.932,60.133 52.108,60.133C53.191,60.133 54.094,59.302 54.184,58.223C54.549,53.836 55.447,43.062 55.838,38.373Z" style="fill:#cacce5;"/>
        <path d="M53.776,36.133L53.831,36.133L53.885,36.136L53.938,36.139L53.992,36.144L54.045,36.15L54.098,36.158L54.151,36.167L54.203,36.177L54.255,36.189L54.307,36.202L54.358,36.216L54.409,36.232L54.459,36.249L54.509,36.267L54.559,36.286L54.608,36.307L54.656,36.329L54.704,36.352L54.751,36.377L54.797,36.402L54.843,36.429L54.889,36.457L54.933,36.486L54.977,36.517L55.02,36.548L55.062,36.581L55.104,36.615L55.145,36.65L55.184,36.686L55.223,36.723L55.262,36.761L55.299,36.801L55.335,36.841L55.37,36.882L55.404,36.924L55.436,36.967L55.468,37.01L55.498,37.054L55.527,37.099L55.555,37.145L55.582,37.191L55.607,37.238L55.631,37.285L55.654,37.333L55.676,37.382L55.696,37.431L55.715,37.48L55.733,37.53L55.75,37.581L55.765,37.632L55.779,37.683L55.792,37.734L55.803,37.786L55.813,37.839L55.822,37.891L55.829,37.944L55.835,37.997L55.84,38.05L55.843,38.104L55.845,38.157L55.845,38.211L55.844,38.265L55.842,38.319L55.838,38.373L54.184,58.223L54.179,58.273L54.173,58.323L54.166,58.373L54.158,58.422L54.148,58.471L54.138,58.519L54.126,58.567L54.113,58.615L54.099,58.662L54.085,58.708L54.069,58.754L54.052,58.8L54.034,58.845L54.015,58.889L53.995,58.933L53.974,58.976L53.952,59.019L53.929,59.061L53.905,59.103L53.881,59.144L53.855,59.184L53.829,59.224L53.801,59.263L53.773,59.301L53.744,59.339L53.714,59.376L53.683,59.412L53.652,59.448L53.62,59.483L53.587,59.517L53.553,59.55L53.518,59.582L53.483,59.614L53.447,59.645L53.41,59.675L53.373,59.704L53.335,59.733L53.296,59.76L53.257,59.787L53.217,59.813L53.177,59.838L53.135,59.862L53.094,59.885L53.051,59.907L53.008,59.928L52.965,59.949L52.921,59.968L52.877,59.986L52.832,60.003L52.786,60.02L52.74,60.035L52.694,60.049L52.647,60.062L52.6,60.074L52.552,60.085L52.504,60.095L52.456,60.104L52.407,60.111L52.358,60.118L52.309,60.123L52.259,60.127L52.209,60.13L52.158,60.132L52.108,60.133L12.419,60.133L12.367,60.132L12.315,60.13L12.264,60.127L12.212,60.123L12.161,60.117L12.111,60.111L12.061,60.103L12.011,60.094L11.961,60.084L11.912,60.072L11.864,60.06L11.815,60.046L11.768,60.032L11.72,60.016L11.674,59.999L11.627,59.982L11.581,59.963L11.536,59.943L11.491,59.922L11.447,59.9L11.404,59.877L11.361,59.854L11.318,59.829L11.276,59.803L11.235,59.777L11.195,59.749L11.155,59.721L11.116,59.692L11.077,59.661L11.039,59.63L11.002,59.598L10.966,59.566L10.93,59.532L10.896,59.498L10.862,59.463L10.828,59.427L10.796,59.39L10.764,59.353L10.733,59.315L10.704,59.276L10.675,59.237L10.646,59.196L10.619,59.156L10.593,59.114L10.567,59.072L10.543,59.029L10.519,58.985L10.497,58.941L10.475,58.897L10.455,58.852L10.435,58.806L10.417,58.759L10.399,58.712L10.383,58.665L10.367,58.617L10.353,58.569L10.34,58.52L10.328,58.47L10.317,58.42L10.307,58.37L10.299,58.319L10.292,58.268L10.285,58.217L10.28,58.165L8.625,38.296L8.621,38.244L8.619,38.192L8.618,38.14L8.618,38.088L8.62,38.036L8.623,37.985L8.628,37.933L8.633,37.882L8.64,37.831L8.649,37.78L8.658,37.73L8.669,37.68L8.682,37.63L8.695,37.58L8.71,37.531L8.726,37.482L8.743,37.434L8.762,37.386L8.781,37.339L8.802,37.292L8.824,37.246L8.848,37.2L8.872,37.155L8.898,37.11L8.925,37.066L8.953,37.023L8.982,36.98L9.013,36.938L9.044,36.897L9.077,36.856L9.111,36.817L9.145,36.778L9.181,36.74L9.218,36.703L9.256,36.667L9.294,36.632L9.334,36.598L9.374,36.566L9.415,36.534L9.456,36.504L9.499,36.474L9.542,36.446L9.585,36.419L9.63,36.393L9.674,36.368L9.72,36.345L9.766,36.322L9.813,36.301L9.86,36.281L9.908,36.262L9.956,36.245L10.005,36.228L10.054,36.213L10.103,36.199L10.153,36.187L10.203,36.176L10.254,36.166L10.305,36.157L10.356,36.15L10.408,36.144L10.459,36.139L10.511,36.135L10.563,36.133L10.616,36.133L53.776,36.133ZM10.629,38.133L10.618,38.133L10.619,38.14L12.272,57.985L12.274,58.001L12.276,58.014L12.277,58.022L12.28,58.031L12.284,58.042L12.29,58.055L12.295,58.064L12.301,58.072L12.304,58.077L12.312,58.086L12.319,58.093L12.325,58.098L12.334,58.105L12.343,58.111L12.355,58.118L12.362,58.121L12.371,58.125L12.383,58.128L12.396,58.131L12.407,58.132L12.415,58.133L12.431,58.133L52.095,58.133L52.11,58.133L52.113,58.132L52.116,58.132L52.118,58.132L52.12,58.132L52.123,58.132L52.123,58.131L52.124,58.131L52.127,58.131L52.13,58.13L52.13,58.13L52.131,58.13L52.134,58.129L52.134,58.129L52.137,58.128L52.139,58.127L52.141,58.126L52.142,58.126L52.145,58.124L52.147,58.123L52.148,58.122L52.149,58.122L52.154,58.119L52.156,58.117L52.157,58.117L52.16,58.114L52.165,58.11L52.165,58.11L52.165,58.109L52.17,58.104L52.172,58.102L52.175,58.098L52.175,58.098L52.176,58.098L52.178,58.094C52.178,58.094 52.18,58.091 52.18,58.091L52.182,58.088L52.183,58.086L52.184,58.083L52.186,58.08L52.186,58.079L52.187,58.076L52.188,58.073L52.188,58.071L52.189,58.067L52.19,58.06L52.191,58.046L53.844,38.219L53.845,38.205L53.845,38.2L53.845,38.198L53.845,38.196L53.844,38.193L53.844,38.19L53.844,38.188L53.843,38.186L53.842,38.182L53.841,38.179L53.84,38.176L53.838,38.172L53.837,38.17L53.836,38.167L53.835,38.165L53.834,38.164L53.832,38.162L53.832,38.161L53.829,38.157L53.828,38.157L53.825,38.153L53.823,38.152L53.822,38.151L53.822,38.15L53.819,38.148L53.815,38.145L53.814,38.144L53.813,38.143L53.812,38.143L53.81,38.141L53.808,38.14L53.807,38.14L53.803,38.138L53.802,38.138L53.802,38.138L53.8,38.137L53.798,38.136L53.794,38.135L53.793,38.135L53.793,38.135L53.791,38.134L53.789,38.134L53.787,38.134L53.786,38.133L53.784,38.133L53.782,38.133L53.78,38.133L53.778,38.133L53.763,38.133L10.629,38.133Z" style="fill:#b0472f;"/>
        <path d="M42.252,40.721C46.608,40.039 50.652,42.734 51.279,46.735C51.906,50.737 48.879,54.539 44.524,55.221C40.168,55.904 36.124,53.209 35.497,49.208C34.87,45.206 37.897,41.404 42.252,40.721Z" style="fill:#494d94;"/>
        <path d="M19.803,49.773C21.471,49.778 22.821,51.027 22.817,52.56C22.812,54.092 21.453,55.332 19.785,55.327C18.117,55.322 16.766,54.073 16.771,52.54C16.776,51.007 18.134,49.767 19.803,49.773Z" style="fill:#494d94;fill-opacity:0.51;"/>
        <path d="M27.89,49.773C29.558,49.778 30.909,51.027 30.904,52.56C30.899,54.092 29.54,55.332 27.872,55.327C26.204,55.322 24.853,54.073 24.858,52.54C24.863,51.007 26.221,49.767 27.89,49.773Z" style="fill:#494d94;fill-opacity:0.51;"/>
        <path d="M14.133,33.254L34.58,15.392" style="fill:none;stroke:#494d94;stroke-width:2px;"/>
        <path d="M33.339,41.864L14.133,41.864L14.568,47.62L33.198,47.6L33.339,41.864Z" style="fill:#494d94;fill-opacity:0.51;"/>
        <path d="M33.339,41.864L14.133,41.864L14.568,47.62L33.198,47.6L33.339,41.864Z" style="fill:none;"/>
        <clipPath id="_clip4">
            <path d="M33.339,41.864L14.133,41.864L14.568,47.62L33.198,47.6L33.339,41.864Z"/>
        </clipPath>
        <g clip-path="url(#_clip4)">
            <path d="M13.319,44.581L34.308,44.62" style="fill:none;stroke:#fff;stroke-width:1px;stroke-linecap:butt;stroke-linejoin:bevel;"/>
        </g>
    </g>
</svg>
