<?xml version="1.0" encoding="UTF-8" standalone="no"?>
<!DOCTYPE svg PUBLIC "-//W3C//DTD SVG 1.1//EN" "http://www.w3.org/Graphics/SVG/1.1/DTD/svg11.dtd">
<svg width="100%" height="100%" viewBox="0 0 65 65" version="1.1" xmlns="http://www.w3.org/2000/svg" xmlns:xlink="http://www.w3.org/1999/xlink" xml:space="preserve" xmlns:serif="http://www.serif.com/" style="fill-rule:evenodd;clip-rule:evenodd;stroke-linecap:round;stroke-linejoin:round;stroke-miterlimit:1;">
    <rect id="Curry" x="0.741" y="0.787" width="64" height="64" style="fill:none;"/>
    <ellipse cx="35.119" cy="46.343" rx="22.578" ry="11.097" style="fill:#f2f2fa;"/>
    <path d="M61.04,30.441C61.04,43.861 48.36,54.756 32.741,54.756C17.122,54.756 4.442,43.861 4.442,30.441L61.04,30.441Z" style="fill:none;stroke:#fff;stroke-width:1.17px;"/>
    <path d="M61.04,30.441C61.04,43.861 48.36,54.756 32.741,54.756C17.122,54.756 4.442,43.861 4.442,30.441L61.04,30.441Z" style="fill:#2b307f;"/>
    <ellipse cx="32.741" cy="30.441" rx="28.299" ry="14.557" style="fill:#9598bf;"/>
    <clipPath id="_clip1">
        <ellipse cx="32.741" cy="30.441" rx="28.299" ry="14.557"/>
    </clipPath>
    <g clip-path="url(#_clip1)">
        <ellipse cx="20.347" cy="29.153" rx="28.299" ry="16.937" style="fill:#797ca6;"/>
        <ellipse cx="32.741" cy="33.753" rx="21.859" ry="11.245" style="fill:#f1765a;"/>
        <clipPath id="_clip2">
            <ellipse cx="32.741" cy="33.753" rx="21.859" ry="11.245"/>
        </clipPath>
        <g clip-path="url(#_clip2)">
            <path d="M51.414,42.987C51.576,42.788 51.56,42.499 51.376,42.32C50.804,41.761 49.604,40.591 48.877,39.881C48.519,39.532 47.978,39.451 47.534,39.681C47.167,39.872 46.801,40.061 46.801,40.061C46.801,40.061 45.265,39.856 44.099,39.7C43.28,39.591 42.453,39.84 41.831,40.384C41.609,40.578 41.37,40.786 41.14,40.988C40.457,41.585 40.357,42.611 40.912,43.328C40.912,43.328 40.912,43.328 40.913,43.329C42.038,44.782 44.098,45.115 45.623,44.089C46.022,43.82 46.302,43.632 46.302,43.632C46.302,43.632 46.817,43.834 47.449,44.084C48.832,44.629 50.409,44.218 51.349,43.066C51.371,43.039 51.393,43.012 51.414,42.987Z" style="fill:#d25950;"/>
            <path d="M19.39,43.37C19.567,43.242 19.625,43.004 19.528,42.808C19.181,42.111 18.38,40.5 17.895,39.523C17.662,39.054 17.142,38.799 16.628,38.903C16.258,38.977 15.91,39.047 15.91,39.047C15.91,39.047 14.652,38.422 13.636,37.917C12.837,37.52 11.9,37.517 11.099,37.908C10.859,38.025 10.607,38.148 10.363,38.267C9.563,38.658 9.179,39.583 9.467,40.425C9.467,40.426 9.467,40.426 9.467,40.427C10.098,42.275 12.101,43.268 13.954,42.652C14.232,42.559 14.409,42.5 14.409,42.5C14.409,42.5 14.754,42.8 15.202,43.189C16.385,44.216 18.12,44.292 19.388,43.372C19.389,43.371 19.389,43.371 19.39,43.37Z" style="fill:#d25950;"/>
            <path d="M50.269,26.5C50.677,26.82 50.824,27.372 50.627,27.852C50.561,28.015 50.493,28.182 50.431,28.334C50.298,28.658 49.942,28.83 49.606,28.731C49.268,28.632 48.85,28.509 48.539,28.418C48.245,28.332 47.936,28.306 47.632,28.341C47.332,28.376 46.931,28.423 46.567,28.465C45.965,28.535 45.356,28.409 44.83,28.106C44.83,28.106 44.83,28.106 44.829,28.106C44.614,27.982 44.49,27.744 44.511,27.497C44.533,27.249 44.695,27.036 44.929,26.95C45.174,26.86 45.407,26.775 45.579,26.712C45.763,26.644 45.958,26.611 46.155,26.613C46.63,26.617 47.509,26.626 47.509,26.626C47.509,26.626 48.161,26.414 48.732,26.228C49.258,26.058 49.833,26.16 50.268,26.5C50.268,26.5 50.269,26.5 50.269,26.5Z" style="fill:#ebaea2;"/>
        </g>
        <path d="M32.745,38.268C32.567,38.209 32.438,38.055 32.411,37.87C32.384,37.685 32.463,37.5 32.617,37.393C33.104,37.052 33.701,36.635 34.073,36.374C34.303,36.214 34.582,36.142 34.86,36.172C35.355,36.224 36.101,36.303 36.101,36.303C36.101,36.303 37.695,36.032 38.84,35.837C39.56,35.714 40.184,35.265 40.529,34.621C40.536,34.608 40.543,34.595 40.55,34.582C40.735,34.236 41.063,33.988 41.446,33.904C41.446,33.904 41.447,33.904 41.447,33.904C41.911,33.802 42.384,34.035 42.584,34.466C42.713,34.744 42.863,35.065 43.004,35.367C43.303,36.01 43.164,36.772 42.658,37.268C42.658,37.268 42.657,37.268 42.657,37.268C41.895,38.015 40.824,38.355 39.771,38.186C38.688,38.012 37.478,37.817 37.478,37.817C37.478,37.817 36.286,38.185 35.369,38.468C34.691,38.677 33.966,38.67 33.292,38.448C33.111,38.388 32.924,38.326 32.745,38.268Z" style="fill:#d25950;"/>
        <path d="M23.198,34.938C23.274,34.885 23.318,34.798 23.316,34.706C23.314,34.614 23.266,34.528 23.187,34.48C22.917,34.311 22.542,34.077 22.247,33.893C21.951,33.708 21.587,33.666 21.257,33.779C21.046,33.852 20.851,33.918 20.851,33.918C20.851,33.918 19.64,33.879 18.972,33.858C18.689,33.849 18.409,33.913 18.159,34.044C17.973,34.142 17.741,34.263 17.515,34.381C17.319,34.484 17.186,34.677 17.159,34.898C17.132,35.118 17.215,35.337 17.381,35.484C17.381,35.485 17.381,35.485 17.382,35.485C17.831,35.883 18.468,35.987 19.021,35.753C19.616,35.501 20.286,35.217 20.286,35.217C20.286,35.217 20.655,35.291 21.07,35.374C21.809,35.523 22.576,35.366 23.196,34.938C23.197,34.938 23.197,34.938 23.198,34.938Z" style="fill:#d25950;"/>
        <path d="M53.185,34.366C53.323,34.22 53.359,34.004 53.276,33.821C53.192,33.638 53.006,33.523 52.804,33.532C52.21,33.558 51.552,33.586 51.209,33.601C51.052,33.608 50.896,33.583 50.749,33.527C50.301,33.358 49.334,32.993 49.334,32.993C49.334,32.993 49.189,33.179 49.001,33.42C48.476,34.094 47.676,34.499 46.821,34.524C46.568,34.532 46.306,34.539 46.065,34.546C45.861,34.552 45.678,34.669 45.587,34.851C45.496,35.033 45.512,35.25 45.63,35.416C45.63,35.417 45.63,35.417 45.631,35.418C45.889,35.783 46.29,36.022 46.734,36.074C47.659,36.182 49.174,36.36 49.174,36.36C49.174,36.36 49.319,36.371 49.53,36.387C50.556,36.466 51.563,36.077 52.271,35.331C52.575,35.01 52.899,34.668 53.185,34.366Z" style="fill:#d25950;"/>
        <path d="M37.062,43.129C37.166,42.995 37.156,42.806 37.04,42.684C36.697,42.321 35.994,41.58 35.564,41.126C35.335,40.884 35.012,40.753 34.679,40.765C34.269,40.781 33.768,40.8 33.768,40.8C33.768,40.8 31.941,40.226 31.037,39.943C30.713,39.841 30.369,39.82 30.034,39.881C29.849,39.915 29.628,39.956 29.394,39.999C28.97,40.077 28.614,40.362 28.447,40.759C28.28,41.156 28.323,41.61 28.563,41.968C28.564,41.969 28.565,41.97 28.565,41.971C28.845,42.388 29.333,42.617 29.834,42.565C30.847,42.459 32.448,42.292 32.448,42.292C32.448,42.292 32.461,42.329 32.485,42.396C32.809,43.305 33.603,43.966 34.556,44.119C35.509,44.271 36.47,43.892 37.062,43.129C37.062,43.129 37.062,43.129 37.062,43.129Z" style="fill:#d25950;"/>
        <path d="M14.44,36.278C14.475,36.235 14.486,36.178 14.47,36.126C14.408,35.926 14.246,35.403 14.107,34.955C13.968,34.508 13.575,34.188 13.109,34.144C13.105,34.143 13.102,34.143 13.102,34.143C13.102,34.143 12.361,33.585 11.921,33.255C11.719,33.103 11.465,33.035 11.213,33.067C11.088,33.083 10.944,33.101 10.797,33.119C10.548,33.151 10.323,33.281 10.172,33.481C10.022,33.681 9.958,33.933 9.997,34.181C9.997,34.181 9.997,34.181 9.997,34.182C10.097,34.833 10.66,35.311 11.319,35.305C11.721,35.302 12.075,35.298 12.075,35.298C12.075,35.298 12.074,35.335 12.071,35.4C12.053,35.973 12.403,36.493 12.94,36.692C13.477,36.891 14.081,36.725 14.44,36.279C14.44,36.279 14.44,36.278 14.44,36.278Z" style="fill:#f1765a;"/>
        <path d="M24.863,30.633C24.695,30.686 24.568,30.824 24.53,30.996C24.491,31.167 24.547,31.347 24.676,31.466C25.01,31.776 25.409,32.147 25.692,32.409C25.922,32.623 26.23,32.734 26.544,32.717C26.933,32.695 27.412,32.669 27.412,32.669C27.412,32.669 29.098,33.121 29.979,33.357C30.322,33.449 30.682,33.462 31.031,33.395C31.148,33.373 31.278,33.348 31.416,33.321C31.838,33.24 32.188,32.946 32.341,32.544C32.494,32.142 32.427,31.689 32.165,31.348C32.165,31.347 32.165,31.347 32.164,31.347C31.967,31.09 31.679,30.919 31.36,30.869C30.133,30.678 27.065,30.198 27.065,30.198C27.065,30.198 26.742,30.218 26.458,30.235C26.179,30.252 25.902,30.304 25.635,30.388C25.413,30.459 25.129,30.549 24.863,30.633Z" style="fill:#d25950;"/>
        <path d="M20.636,36.642C20.593,36.653 20.557,36.683 20.538,36.724C20.519,36.764 20.519,36.811 20.538,36.851C20.647,37.087 20.856,37.534 21.029,37.906C21.206,38.286 21.574,38.541 21.991,38.573C22.085,38.58 22.151,38.585 22.151,38.585C22.151,38.585 23.094,39.154 23.578,39.446C23.76,39.555 23.972,39.601 24.182,39.577C24.392,39.552 24.675,39.52 24.941,39.489C25.132,39.467 25.304,39.362 25.411,39.202C25.518,39.042 25.549,38.843 25.496,38.657C25.496,38.657 25.496,38.657 25.496,38.656C25.299,37.967 24.665,37.495 23.949,37.504C23.516,37.51 23.134,37.515 23.134,37.515C23.134,37.515 22.969,37.363 22.758,37.168C22.187,36.641 21.387,36.443 20.637,36.642C20.636,36.642 20.636,36.642 20.636,36.642Z" style="fill:#d25950;"/>
        <path d="M26.712,28.463C26.676,28.492 26.654,28.535 26.653,28.581C26.652,28.628 26.672,28.672 26.708,28.702C26.968,28.922 27.527,29.393 27.942,29.743C28.255,30.008 28.685,30.087 29.072,29.951C29.266,29.884 29.429,29.827 29.429,29.827C29.429,29.827 30.867,29.994 31.542,30.072C31.763,30.098 31.987,30.052 32.18,29.94C32.407,29.81 32.731,29.623 33.036,29.447C33.244,29.327 33.387,29.121 33.428,28.884C33.468,28.647 33.401,28.405 33.244,28.223C33.244,28.223 33.244,28.223 33.244,28.223C32.687,27.576 31.771,27.372 30.992,27.723C30.48,27.954 30.013,28.165 30.013,28.165C30.013,28.165 29.766,28.084 29.442,27.98C28.509,27.676 27.486,27.857 26.713,28.462C26.713,28.463 26.712,28.463 26.712,28.463Z" style="fill:#ebaea2;"/>
        <path d="M33.088,24.709C33.051,24.738 33.029,24.781 33.029,24.828C33.028,24.874 33.048,24.918 33.083,24.948C33.344,25.168 33.903,25.64 34.317,25.989C34.631,26.254 35.061,26.333 35.448,26.198C35.641,26.13 35.804,26.073 35.804,26.073C35.804,26.073 37.243,26.24 37.917,26.318C38.138,26.344 38.362,26.298 38.555,26.187C38.782,26.056 39.106,25.869 39.411,25.693C39.619,25.573 39.763,25.367 39.803,25.13C39.843,24.894 39.776,24.651 39.62,24.469C39.62,24.469 39.619,24.469 39.619,24.469C39.063,23.822 38.146,23.618 37.368,23.969C36.855,24.2 36.388,24.411 36.388,24.411C36.388,24.411 36.141,24.331 35.818,24.226C34.884,23.923 33.861,24.104 33.088,24.709C33.088,24.709 33.088,24.709 33.088,24.709Z" style="fill:#ebaea2;"/>
        <path d="M40.793,30.086C40.751,30.133 40.744,30.201 40.774,30.256C40.952,30.581 41.567,31.703 42.012,32.517C42.292,33.027 42.906,33.251 43.448,33.04C43.474,33.031 43.488,33.025 43.488,33.025C43.488,33.025 44.023,33.262 44.589,33.512C45.395,33.868 46.331,33.753 47.026,33.213C47.026,33.213 47.027,33.213 47.027,33.213C47.561,32.797 47.755,32.078 47.501,31.451C47.478,31.395 47.455,31.338 47.432,31.281C47.189,30.682 46.701,30.217 46.091,30.003C45.482,29.79 44.81,29.849 44.247,30.166C44.187,30.199 44.153,30.218 44.153,30.218C44.153,30.218 43.974,30.07 43.723,29.862C42.845,29.136 41.551,29.235 40.793,30.086C40.793,30.086 40.793,30.086 40.793,30.086Z" style="fill:#ebaea2;"/>
        <path d="M40.815,23.286C40.775,23.333 40.768,23.399 40.797,23.453C40.955,23.753 41.478,24.745 41.86,25.469C42.102,25.929 42.653,26.131 43.135,25.937C43.136,25.936 43.136,25.936 43.136,25.936C43.136,25.936 43.542,26.124 43.996,26.334C44.74,26.679 45.616,26.57 46.255,26.054C46.255,26.054 46.255,26.054 46.255,26.054C46.674,25.715 46.826,25.143 46.63,24.641C46.587,24.532 46.542,24.416 46.496,24.298C46.296,23.787 45.883,23.389 45.365,23.209C44.847,23.029 44.276,23.084 43.802,23.361C43.739,23.398 43.702,23.419 43.702,23.419C43.702,23.419 43.545,23.284 43.326,23.095C42.968,22.786 42.502,22.633 42.031,22.668C41.56,22.704 41.122,22.927 40.815,23.286C40.815,23.286 40.815,23.286 40.815,23.286Z" style="fill:#f1765a;"/>
        <path d="M33.902,34.386C33.902,34.386 34.205,34.016 34.465,33.701C34.699,33.416 35.026,33.222 35.388,33.154C35.781,33.079 36.236,32.993 36.236,32.993L38.093,32.993C38.249,32.993 38.395,33.068 38.487,33.194C38.579,33.32 38.604,33.483 38.556,33.631C38.54,33.681 38.524,33.731 38.508,33.78C38.384,34.161 37.994,34.388 37.602,34.309C37.521,34.292 37.436,34.275 37.349,34.258C36.444,34.074 35.504,34.271 34.748,34.801C34.457,35.004 34.147,35.221 33.862,35.422C33.757,35.495 33.615,35.484 33.523,35.397C33.43,35.309 33.412,35.168 33.48,35.06C33.707,34.697 33.902,34.386 33.902,34.386Z" style="fill:#ebaea2;"/>
        <path d="M21.582,26.841C21.582,26.841 21.744,26.391 21.883,26.007C22.008,25.66 22.251,25.368 22.569,25.182C22.915,24.98 23.315,24.746 23.315,24.746C23.315,24.746 24.358,24.375 25.064,24.124C25.211,24.072 25.374,24.093 25.503,24.182C25.631,24.27 25.71,24.414 25.714,24.57C25.716,24.622 25.717,24.675 25.718,24.727C25.729,25.127 25.438,25.472 25.042,25.528C24.96,25.54 24.874,25.553 24.787,25.565C23.873,25.696 23.053,26.196 22.518,26.948C22.312,27.238 22.093,27.546 21.891,27.83C21.817,27.934 21.68,27.972 21.563,27.92C21.447,27.869 21.383,27.742 21.41,27.617C21.502,27.199 21.582,26.841 21.582,26.841Z" style="fill:#ebaea2;"/>
        <path d="M16.89,37.356C16.89,37.356 17.369,37.358 17.777,37.359C18.146,37.361 18.502,37.491 18.785,37.728C19.091,37.986 19.446,38.284 19.446,38.284C19.446,38.284 20.146,39.142 20.62,39.722C20.719,39.843 20.754,40.003 20.714,40.154C20.674,40.305 20.564,40.428 20.419,40.484C20.37,40.503 20.321,40.522 20.273,40.541C19.9,40.686 19.477,40.528 19.291,40.174C19.252,40.101 19.211,40.024 19.17,39.945C18.74,39.129 17.993,38.525 17.104,38.274C16.763,38.178 16.398,38.075 16.063,37.981C15.94,37.946 15.858,37.83 15.868,37.702C15.877,37.575 15.975,37.472 16.102,37.456C16.527,37.402 16.89,37.356 16.89,37.356Z" style="fill:#ebaea2;"/>
        <path d="M15.28,29.007C15.28,29.007 15.716,28.81 16.088,28.641C16.424,28.489 16.803,28.46 17.158,28.559C17.544,28.666 17.99,28.79 17.99,28.79C17.99,28.79 18.984,29.279 19.655,29.61C19.795,29.679 19.894,29.811 19.92,29.965C19.947,30.119 19.898,30.276 19.789,30.387C19.753,30.425 19.716,30.462 19.679,30.5C19.4,30.787 18.95,30.818 18.633,30.574C18.568,30.523 18.499,30.47 18.429,30.416C17.698,29.851 16.768,29.612 15.856,29.753C15.505,29.807 15.131,29.865 14.786,29.918C14.66,29.938 14.538,29.866 14.494,29.746C14.449,29.626 14.496,29.492 14.604,29.425C14.968,29.2 15.28,29.007 15.28,29.007Z" style="fill:#ebaea2;"/>
        <path d="M31.815,38.749C31.815,38.749 31.512,38.38 31.252,38.064C31.018,37.779 30.691,37.586 30.329,37.517C29.936,37.443 29.48,37.356 29.48,37.356L27.624,37.356C27.468,37.356 27.321,37.431 27.23,37.557C27.138,37.683 27.112,37.846 27.161,37.994C27.177,38.044 27.193,38.094 27.209,38.144C27.333,38.524 27.723,38.751 28.115,38.672C28.196,38.656 28.281,38.638 28.368,38.621C29.273,38.438 30.213,38.634 30.969,39.164C31.26,39.368 31.57,39.585 31.855,39.785C31.96,39.858 32.101,39.848 32.194,39.76C32.287,39.672 32.304,39.531 32.237,39.423C32.01,39.06 31.815,38.749 31.815,38.749Z" style="fill:#ebaea2;"/>
        <path d="M14.27,30.874C14.27,30.874 14.718,30.707 15.1,30.564C15.446,30.435 15.825,30.431 16.173,30.553C16.551,30.686 16.988,30.84 16.988,30.84C16.988,30.84 17.947,31.395 18.594,31.77C18.729,31.848 18.819,31.986 18.835,32.141C18.851,32.297 18.792,32.45 18.676,32.554C18.56,32.658 18.441,32.765 18.337,32.858C18.148,33.027 17.889,33.095 17.641,33.041C16.991,32.897 15.759,32.624 15.655,32.601C15.65,32.6 15.646,32.599 15.641,32.597C15.525,32.571 14.024,32.232 13.106,32.024C12.996,32 12.914,31.909 12.899,31.798C12.884,31.687 12.94,31.578 13.039,31.526C13.581,31.239 14.27,30.874 14.27,30.874Z" style="fill:#d25950;"/>
        <path d="M15.736,25.707C15.736,25.707 16.261,25.001 16.625,24.512C16.846,24.216 17.163,24.007 17.521,23.921C18.105,23.78 18.939,23.58 18.939,23.58C18.939,23.58 20.805,23.49 21.839,23.439C21.995,23.432 22.145,23.499 22.243,23.621C22.34,23.743 22.374,23.904 22.333,24.054C22.239,24.398 22.127,24.809 22.047,25.104C21.98,25.35 21.799,25.547 21.561,25.636C20.734,25.943 18.832,26.649 18.704,26.697C18.699,26.698 18.695,26.7 18.69,26.702C18.546,26.754 16.156,27.63 14.953,28.071C14.848,28.109 14.73,28.078 14.657,27.993C14.584,27.907 14.572,27.786 14.627,27.688C15.06,26.914 15.736,25.707 15.736,25.707Z" style="fill:#f1765a;"/>
        <path d="M30.459,22.418C30.459,22.418 30.854,22.149 31.191,21.919C31.495,21.711 31.863,21.617 32.23,21.652C32.629,21.691 33.09,21.735 33.09,21.735C33.09,21.735 34.153,22.045 34.872,22.255C35.022,22.299 35.142,22.412 35.194,22.558C35.247,22.705 35.226,22.868 35.138,22.997C35.051,23.125 34.961,23.258 34.882,23.373C34.739,23.583 34.504,23.711 34.25,23.717C33.585,23.732 32.323,23.761 32.216,23.764C32.211,23.764 32.207,23.764 32.202,23.764C32.083,23.766 30.545,23.796 29.603,23.813C29.491,23.816 29.389,23.748 29.348,23.643C29.307,23.539 29.336,23.42 29.42,23.345C29.877,22.937 30.459,22.418 30.459,22.418Z" style="fill:#f1765a;"/>
    </g>
    <path d="M18.17,9.28C21.448,9.415 23.178,13.731 24.188,17.3C24.227,17.441 24.245,17.587 24.239,17.733C24.193,18.929 22.224,19.655 21.563,18.224C20.425,15.543 19.614,11.702 17.746,12.099C15.516,12.626 13.3,13.22 11.116,13.913C10.631,14.082 10.353,14.65 10.522,15.137C11.399,17.453 12.89,19.636 13.396,21.974C13.663,23.212 11.546,24.535 10.75,22.813L7.97,16.264C7.175,14.303 8.27,11.891 10.333,11.237C12.965,10.48 15.399,9.226 18.17,9.28Z" style="fill:#797ca6;"/>
    <path d="M59.641,31.6C61.317,31.687 62.523,33.66 61.573,35.234C59.954,37.696 58.326,40.947 56.92,40.957C55.91,40.964 55.103,39.802 55.761,38.774L58.461,34.844C55.612,35.944 52.455,36.63 50.861,39.071C49.602,41.064 48.609,43.262 47.182,45.028C47.088,45.144 46.976,45.245 46.85,45.325C46.7,45.422 46.531,45.489 46.355,45.522C45.315,45.717 44.306,44.479 44.91,43.422C47.183,39.727 48.903,35.662 52.7,34.082C55.027,33.144 57.162,31.568 59.641,31.6Z" style="fill:#2b307f;"/>
</svg>
