<?xml version="1.0" encoding="UTF-8" standalone="no"?>
<!DOCTYPE svg PUBLIC "-//W3C//DTD SVG 1.1//EN" "http://www.w3.org/Graphics/SVG/1.1/DTD/svg11.dtd">
<svg width="100%" height="100%" viewBox="0 0 65 64" version="1.1" xmlns="http://www.w3.org/2000/svg" xmlns:xlink="http://www.w3.org/1999/xlink" xml:space="preserve" xmlns:serif="http://www.serif.com/" style="fill-rule:evenodd;clip-rule:evenodd;stroke-linecap:round;stroke-linejoin:round;stroke-miterlimit:1;">
    <rect id="CVHOs" x="0.738" y="0" width="64" height="64" style="fill:none;"/>
    <g>
        <path d="M38.22,37.785C37.321,33.558 34.164,30.067 29.87,28.553C29.87,28.553 29.87,28.553 29.87,28.553C27.634,27.765 25.265,27.361 22.877,27.361C21.829,27.361 20.688,27.361 19.65,27.361C17.371,27.361 15.11,27.746 12.975,28.499C12.975,28.499 12.975,28.499 12.975,28.499C8.586,30.046 5.358,33.615 4.439,37.936C3.866,40.628 3.346,43.075 3.346,43.075L39.346,43.075C39.346,43.075 38.806,40.536 38.22,37.785Z" style="fill:#dfdff2;"/>
        <clipPath id="_clip1">
            <path d="M38.22,37.785C37.321,33.558 34.164,30.067 29.87,28.553C29.87,28.553 29.87,28.553 29.87,28.553C27.634,27.765 25.265,27.361 22.877,27.361C21.829,27.361 20.688,27.361 19.65,27.361C17.371,27.361 15.11,27.746 12.975,28.499C12.975,28.499 12.975,28.499 12.975,28.499C8.586,30.046 5.358,33.615 4.439,37.936C3.866,40.628 3.346,43.075 3.346,43.075L39.346,43.075C39.346,43.075 38.806,40.536 38.22,37.785Z"/>
        </clipPath>
        <g clip-path="url(#_clip1)">
            <path d="M28.896,25.147L13.796,25.147L13.796,31.851C13.796,31.851 13.796,31.852 13.797,31.852C18.313,34.358 24.379,34.358 28.895,31.852C28.896,31.852 28.896,31.851 28.896,31.851L28.896,25.147Z" style="fill:#f58f78;"/>
        </g>
        <path d="M25.846,23.147L16.846,23.147L16.846,28.289C16.846,28.289 16.846,28.29 16.846,28.29C19.538,30.212 23.154,30.212 25.845,28.29C25.846,28.29 25.846,28.289 25.846,28.289L25.846,23.147Z" style="fill:#f58f78;"/>
        <path d="M29.06,14.789C29.06,10.529 25.606,7.075 21.346,7.075C21.346,7.075 21.346,7.075 21.346,7.075C17.085,7.075 13.632,10.529 13.632,14.789C13.632,16.06 13.632,17.376 13.632,18.647C13.632,22.907 17.085,26.361 21.346,26.361C21.346,26.361 21.346,26.361 21.346,26.361C25.606,26.361 29.06,22.907 29.06,18.647C29.06,17.376 29.06,16.06 29.06,14.789Z" style="fill:#f8ae9e;"/>
    </g>
    <g>
        <path d="M61.602,37.449C60.702,32.952 57.545,29.239 53.251,27.629C53.251,27.629 53.251,27.629 53.251,27.629C51.015,26.79 48.647,23 46.259,23C45.211,23 44.069,23 43.031,23C40.752,23 38.491,26.771 36.356,27.571C36.356,27.571 36.356,27.571 36.356,27.571C31.967,29.217 28.739,33.013 27.82,37.609C27.247,40.472 26.727,43.075 26.727,43.075L62.727,43.075C62.727,43.075 62.187,40.374 61.602,37.449Z" style="fill:#dfdff2;"/>
        <clipPath id="_clip2">
            <path d="M61.602,37.449C60.702,32.952 57.545,29.239 53.251,27.629C53.251,27.629 53.251,27.629 53.251,27.629C51.015,26.79 48.647,23 46.259,23C45.211,23 44.069,23 43.031,23C40.752,23 38.491,26.771 36.356,27.571C36.356,27.571 36.356,27.571 36.356,27.571C31.967,29.217 28.739,33.013 27.82,37.609C27.247,40.472 26.727,43.075 26.727,43.075L62.727,43.075C62.727,43.075 62.187,40.374 61.602,37.449Z"/>
        </clipPath>
        <g clip-path="url(#_clip2)">
            <path d="M51,33L48,31L45,33L40.906,30.43L39,34" style="fill:none;stroke:#9497c6;stroke-width:0.9px;"/>
        </g>
        <path d="M49.227,23.147L40.227,23.147C40.227,23.147 40.227,26.289 40.227,26.29C40.213,28.539 45,32 45,32C45,32 49.237,28.639 49.226,26.29C49.226,26.289 49.227,23.147 49.227,23.147Z" style="fill:#f58f78;"/>
        <path d="M52.441,14.789C52.441,10.529 48.987,7.075 44.727,7.075C44.727,7.075 44.727,7.075 44.727,7.075C40.466,7.075 37.013,10.529 37.013,14.789C37.013,16.06 37.013,17.376 37.013,18.647C37.013,22.907 40.466,26.361 44.727,26.361C44.727,26.361 44.727,26.361 44.727,26.361C48.987,26.361 52.441,22.907 52.441,18.647C52.441,17.376 52.441,16.06 52.441,14.789Z" style="fill:#f8ae9e;"/>
    </g>
    <g>
        <path d="M28.238,41.838C26.292,40.438 25.024,38.153 25.024,35.571C25.024,34.301 25.024,32.984 25.024,31.714C25.024,27.454 28.478,24 32.738,24C32.738,24 32.738,24 32.738,24C36.999,24 40.453,27.454 40.453,31.714C40.453,32.984 40.453,34.301 40.453,35.571C40.453,38.153 39.185,40.438 37.238,41.838L37.238,43.508C38.61,43.715 39.959,44.065 41.262,44.554C41.262,44.554 41.263,44.554 41.263,44.554C45.556,46.164 48.714,49.877 49.613,54.373L50.738,60L14.738,60C14.738,60 15.259,57.397 15.831,54.534C16.751,49.938 19.978,46.142 24.367,44.496C24.367,44.496 24.367,44.496 24.368,44.496C25.621,44.026 26.919,43.69 28.238,43.494L28.238,41.838Z" style="fill:#fff;fill-opacity:0.69;stroke:#fff;stroke-width:3.5px;stroke-miterlimit:1.5;"/>
        <path d="M49.613,54.71C48.714,50.483 45.556,46.992 41.263,45.478C41.263,45.478 41.262,45.478 41.262,45.478C39.026,44.69 36.658,44.286 34.27,44.286C33.222,44.286 32.08,44.286 31.043,44.286C28.763,44.286 26.502,44.671 24.368,45.424C24.367,45.424 24.367,45.424 24.367,45.424C19.978,46.971 16.751,50.54 15.831,54.861C15.259,57.553 14.738,60 14.738,60L50.738,60C50.738,60 50.198,57.461 49.613,54.71Z" style="fill:#6b6fb0;"/>
        <clipPath id="_clip3">
            <path d="M49.613,54.71C48.714,50.483 45.556,46.992 41.263,45.478C41.263,45.478 41.262,45.478 41.262,45.478C39.026,44.69 36.658,44.286 34.27,44.286C33.222,44.286 32.08,44.286 31.043,44.286C28.763,44.286 26.502,44.671 24.368,45.424C24.367,45.424 24.367,45.424 24.367,45.424C19.978,46.971 16.751,50.54 15.831,54.861C15.259,57.553 14.738,60 14.738,60L50.738,60C50.738,60 50.198,57.461 49.613,54.71Z"/>
        </clipPath>
        <g clip-path="url(#_clip3)">
            <path d="M34.238,43.204L31.138,43.204L31.138,54.695C31.138,54.695 31.138,54.696 31.138,54.696C32.065,58.992 33.311,58.992 34.238,54.696C34.238,54.696 34.238,54.695 34.238,54.695L34.238,43.204Z" style="fill:#9fa1c3;"/>
            <path d="M40.238,42.204L25.138,42.204L25.138,48.508C25.138,48.508 25.138,47.508 25.139,47.508C26.415,48.695 30.084,50.285 32.75,50.275C35.375,50.266 38.997,48.677 40.237,47.508C40.238,47.508 40.238,48.508 40.238,48.508L40.238,42.204Z" style="fill:#f3775b;"/>
            <path d="M25.829,41.286C25.829,41.286 21.805,56.116 31.747,61.286L36.982,61.286C36.982,61.286 24.421,58.732 25.829,41.286Z" style="fill:#2b307e;"/>
        </g>
        <path d="M37.238,40.071L28.238,40.071L28.238,45.214C28.238,45.214 28.238,45.214 28.239,45.215C30.93,47.137 34.546,47.137 37.238,45.215C37.238,45.214 37.238,45.214 37.238,45.214L37.238,40.071Z" style="fill:#f3775b;"/>
        <path d="M28.238,44.026L28.238,42L37.238,42L37.238,45.272C36.407,44.782 34.388,45.214 32.738,45.214C31.117,45.214 29.579,44.783 28.238,44.026Z" style="fill:#664e39;fill-opacity:0.56;"/>
        <path d="M40.453,31.714C40.453,27.454 36.999,24 32.738,24C32.738,24 32.738,24 32.738,24C28.478,24 25.024,27.454 25.024,31.714C25.024,32.984 25.024,34.301 25.024,35.571C25.024,39.832 28.478,43.286 32.738,43.286C32.738,43.286 32.738,43.286 32.738,43.286C36.999,43.286 40.453,39.832 40.453,35.571C40.453,34.301 40.453,32.984 40.453,31.714Z" style="fill:#f3775b;"/>
    </g>
</svg>
