<?xml version="1.0" encoding="UTF-8" standalone="no"?>
<!DOCTYPE svg PUBLIC "-//W3C//DTD SVG 1.1//EN" "http://www.w3.org/Graphics/SVG/1.1/DTD/svg11.dtd">
<svg width="100%" height="100%" viewBox="0 0 65 65" version="1.1" xmlns="http://www.w3.org/2000/svg" xmlns:xlink="http://www.w3.org/1999/xlink" xml:space="preserve" xmlns:serif="http://www.serif.com/" style="fill-rule:evenodd;clip-rule:evenodd;stroke-linejoin:round;stroke-miterlimit:1.41421;">
    <rect id="Delivery" x="0.262" y="0.766" width="64" height="64" style="fill:none;"/>
    <path d="M57.682,54.735L9.175,54.735L4.18,56.714L62.131,56.714L57.682,54.735Z" style="fill:#cecfeb;"/>
    <path d="M59.835,50.732C60.413,50.732 60.963,50.482 61.343,50.046C61.723,49.61 61.895,49.031 61.816,48.458C61.459,45.872 60.887,41.734 60.592,39.604C60.472,38.737 59.98,37.966 59.245,37.493C58.541,37.039 57.67,36.478 57.094,36.107C56.685,35.844 56.346,35.484 56.107,35.06C55.153,33.371 52.562,28.785 51.202,26.376C50.67,25.434 49.672,24.851 48.59,24.851C41.646,24.851 15.997,24.851 7.18,24.851C6.385,24.851 5.622,25.167 5.059,25.73C4.496,26.292 4.18,27.055 4.18,27.851C4.18,33.192 4.18,44.213 4.18,48.732C4.18,49.262 4.391,49.771 4.766,50.146C5.141,50.521 5.65,50.732 6.18,50.732C15.005,50.732 50.441,50.732 59.835,50.732Z" style="fill:#3fbc0e;"/>
    <clipPath id="_clip1">
        <path d="M59.835,50.732C60.413,50.732 60.963,50.482 61.343,50.046C61.723,49.61 61.895,49.031 61.816,48.458C61.459,45.872 60.887,41.734 60.592,39.604C60.472,38.737 59.98,37.966 59.245,37.493C58.541,37.039 57.67,36.478 57.094,36.107C56.685,35.844 56.346,35.484 56.107,35.06C55.153,33.371 52.562,28.785 51.202,26.376C50.67,25.434 49.672,24.851 48.59,24.851C41.646,24.851 15.997,24.851 7.18,24.851C6.385,24.851 5.622,25.167 5.059,25.73C4.496,26.292 4.18,27.055 4.18,27.851C4.18,33.192 4.18,44.213 4.18,48.732C4.18,49.262 4.391,49.771 4.766,50.146C5.141,50.521 5.65,50.732 6.18,50.732C15.005,50.732 50.441,50.732 59.835,50.732Z"/>
    </clipPath>
    <g clip-path="url(#_clip1)">
        <path d="M62.131,21.165L0.9,50.732L0.9,57.302L62.131,57.302L62.131,21.165Z" style="fill:#2b307e;fill-opacity:0.101961;"/>
    </g>
    <circle cx="17.15" cy="50.732" r="5.982" style="fill:#2b307e;"/>
    <circle cx="50.079" cy="50.732" r="5.982" style="fill:#2b307e;"/>
    <circle cx="17.15" cy="50.732" r="2.879" style="fill:#aaacdd;"/>
    <circle cx="50.079" cy="50.732" r="2.879" style="fill:#aaacdd;"/>
    <path d="M49.527,30.148C48.843,28.806 47.464,27.963 45.958,27.966C45.292,27.967 44.609,27.968 44.075,27.969C43.523,27.97 43.076,28.417 43.076,28.969C43.076,30.325 43.076,32.735 43.076,34.096C43.076,34.362 43.183,34.618 43.372,34.805C43.561,34.993 43.817,35.098 44.083,35.096C45.62,35.085 48.564,35.063 50.403,35.05C50.75,35.048 51.071,34.866 51.251,34.569C51.431,34.273 51.444,33.904 51.287,33.596C50.781,32.604 50.1,31.269 49.527,30.148Z" style="fill:#ededf8;"/>
    <clipPath id="_clip2">
        <path d="M49.527,30.148C48.843,28.806 47.464,27.963 45.958,27.966C45.292,27.967 44.609,27.968 44.075,27.969C43.523,27.97 43.076,28.417 43.076,28.969C43.076,30.325 43.076,32.735 43.076,34.096C43.076,34.362 43.183,34.618 43.372,34.805C43.561,34.993 43.817,35.098 44.083,35.096C45.62,35.085 48.564,35.063 50.403,35.05C50.75,35.048 51.071,34.866 51.251,34.569C51.431,34.273 51.444,33.904 51.287,33.596C50.781,32.604 50.1,31.269 49.527,30.148Z"/>
    </clipPath>
    <g clip-path="url(#_clip2)">
        <path d="M37.145,33.605L51.303,26.521L48.838,22.322L37.053,22.214L37.145,33.605Z" style="fill:#fff;"/>
    </g>
    <path d="M43.076,19.215C43.076,17.558 41.733,16.215 40.076,16.215C32.466,16.215 12.562,16.215 6.18,16.215C5.076,16.215 4.18,17.111 4.18,18.215C4.18,22.222 4.18,30.851 4.18,30.851L43.076,30.851C43.076,30.851 43.076,23.498 43.076,19.215Z" style="fill:#4ebe22;"/>
</svg>
