<?xml version="1.0" encoding="UTF-8" standalone="no"?>
<!DOCTYPE svg PUBLIC "-//W3C//DTD SVG 1.1//EN" "http://www.w3.org/Graphics/SVG/1.1/DTD/svg11.dtd">
<svg width="100%" height="100%" viewBox="0 0 65 64" version="1.1" xmlns="http://www.w3.org/2000/svg" xmlns:xlink="http://www.w3.org/1999/xlink" xml:space="preserve" xmlns:serif="http://www.serif.com/" style="fill-rule:evenodd;clip-rule:evenodd;stroke-linejoin:round;stroke-miterlimit:2;">
    <rect id="Diastolic" x="0.738" y="0" width="64" height="64" style="fill:none;"/>
    <g>
        <g>
            <path id="Love" d="M20.014,8.551L19.268,8.551C14.667,8.801 10.19,11.551 7.454,15.676C4.967,19.551 4.345,24.176 5.837,28.176C7.578,32.925 11.931,37.175 15.786,40.925C16.656,41.8 17.527,42.675 18.273,43.425C21.009,46.175 23.744,48.799 26.356,51.299C27.848,52.674 29.34,54.174 30.833,55.674L32.449,57.299L34.19,55.799C39.164,51.549 44.139,46.8 48.988,41.675C49.486,41.175 49.983,40.55 50.605,40.05C54.211,36.3 58.813,31.675 59.807,26.051C60.554,21.426 59.434,16.926 56.699,13.676C54.087,10.551 50.232,8.801 46.004,8.801L45.382,8.801C38.667,9.051 34.688,12.426 32.325,15.426C30.087,12.301 25.983,8.551 20.014,8.551Z" style="fill:#f3775b;"/>
        </g>
        <path d="M31.663,36.363L28.031,39.598L26.465,37.841L32.848,32.155L39.23,37.841L37.664,39.598L34.032,36.363L34.032,49.377L31.663,49.377L31.663,36.363Z" style="fill:#fff;"/>
        <path d="M38.444,24.764L39.432,19.99L37.122,19.512L35.385,27.901L43.519,30.592L44.26,28.352L39.632,26.821L50.929,20.299L49.741,18.242L38.444,24.764Z" style="fill:#fff;"/>
        <path d="M26.994,24.76L26.006,19.99L28.315,19.512L30.051,27.895L21.922,30.584L21.182,28.346L25.807,26.816L14.518,20.298L15.705,18.243L26.994,24.76Z" style="fill:#fff;"/>
    </g>
</svg>
