<?xml version="1.0" encoding="UTF-8" standalone="no"?>
<!DOCTYPE svg PUBLIC "-//W3C//DTD SVG 1.1//EN" "http://www.w3.org/Graphics/SVG/1.1/DTD/svg11.dtd">
<svg width="100%" height="100%" viewBox="0 0 65 65" version="1.1" xmlns="http://www.w3.org/2000/svg" xmlns:xlink="http://www.w3.org/1999/xlink" xml:space="preserve" xmlns:serif="http://www.serif.com/" style="fill-rule:evenodd;clip-rule:evenodd;stroke-linejoin:round;stroke-miterlimit:1.41421;">
    <rect id="Diastolic" x="0.32" y="0.173" width="64" height="64" style="fill:none;"/>
    <g>
        <g>
            <path id="Love" d="M19.595,8.724C19.346,8.724 19.098,8.724 18.849,8.724C14.248,8.974 9.771,11.724 7.035,15.849C4.548,19.723 3.926,24.348 5.419,28.348C7.16,33.098 11.512,37.348 15.367,41.097C16.238,41.972 17.108,42.847 17.854,43.597C20.59,46.347 23.326,48.972 25.937,51.472C27.429,52.847 28.922,54.347 30.414,55.847L32.031,57.472L33.772,55.972C38.746,51.722 43.72,46.972 48.57,41.847C49.067,41.347 49.565,40.722 50.186,40.222C53.793,36.473 58.394,31.848 59.389,26.223C60.135,21.598 59.016,17.099 56.28,13.849C53.668,10.724 49.813,8.974 45.585,8.974C45.337,8.974 45.212,8.974 44.964,8.974C38.248,9.224 34.269,12.599 31.906,15.599C29.668,12.474 25.564,8.724 19.595,8.724Z" style="fill:#f3775b;"/>
        </g>
        <path d="M31.244,36.535L27.612,39.771L26.047,38.014L32.429,32.328L38.811,38.014L37.246,39.771L33.614,36.535L33.614,49.55L31.244,49.55L31.244,36.535Z" style="fill:#fff;"/>
        <path d="M38.025,24.937L39.014,20.163L36.704,19.684L34.967,28.074L43.101,30.765L43.842,28.525L39.213,26.994L50.51,20.471L49.322,18.414L38.025,24.937Z" style="fill:#fff;"/>
        <path d="M26.575,24.933L25.588,20.162L27.896,19.684L29.632,28.068L21.503,30.757L20.763,28.519L25.389,26.989L14.099,20.471L15.286,18.415L26.575,24.933Z" style="fill:#fff;"/>
    </g>
</svg>
