<?xml version="1.0" encoding="UTF-8" standalone="no"?>
<!DOCTYPE svg PUBLIC "-//W3C//DTD SVG 1.1//EN" "http://www.w3.org/Graphics/SVG/1.1/DTD/svg11.dtd">
<svg width="100%" height="100%" viewBox="0 0 64 65" version="1.1" xmlns="http://www.w3.org/2000/svg" xmlns:xlink="http://www.w3.org/1999/xlink" xml:space="preserve" xmlns:serif="http://www.serif.com/" style="fill-rule:evenodd;clip-rule:evenodd;stroke-linecap:round;stroke-miterlimit:1;">
    <rect id="Emergency-Response-PE" x="0" y="0.428" width="64" height="64" style="fill:none;"/>
    <path d="M57.421,54.397L8.913,54.397L3.919,56.376L61.869,56.376L57.421,54.397Z" style="fill:#cecfeb;"/>
    <g>
        <path d="M39.955,14.838C39.955,14.219 39.709,13.624 39.271,13.186C38.833,12.748 38.239,12.502 37.619,12.502C37.619,12.502 37.618,12.502 37.618,12.502C36.999,12.502 36.404,12.748 35.966,13.186C35.528,13.624 35.282,14.219 35.282,14.838C35.282,16.382 35.282,18.121 35.282,18.121L39.955,18.121C39.955,18.121 39.955,16.382 39.955,14.838Z" style="fill:#39b54a;"/>
        <rect x="33.523" y="17.584" width="8.192" height="1.601" style="fill:#2b307e;"/>
        <path d="M37.605,10.5L37.605,8.24" style="fill:none;stroke:#dfdff2;stroke-width:1px;"/>
        <path d="M44.679,17.45L46.939,17.45" style="fill:none;stroke:#dfdff2;stroke-width:1px;"/>
        <path d="M46.187,13.323L44.063,14.096" style="fill:none;stroke:#dfdff2;stroke-width:1px;"/>
        <path d="M28.621,13.323L30.744,14.096" style="fill:none;stroke:#dfdff2;stroke-width:1px;"/>
        <path d="M42.757,9.908L41.304,11.639" style="fill:none;stroke:#dfdff2;stroke-width:1px;"/>
        <path d="M32.051,9.908L33.503,11.639" style="fill:none;stroke:#dfdff2;stroke-width:1px;"/>
        <path d="M27.986,17.45L30.246,17.45" style="fill:none;stroke:#dfdff2;stroke-width:1px;"/>
        <ellipse cx="36.801" cy="14.897" rx="0.818" ry="1.074" style="fill:#fff;"/>
    </g>
    <path d="M58.49,50.394C59.348,50.394 60.164,50.027 60.733,49.386C61.303,48.744 61.571,47.89 61.469,47.039C61.087,43.836 60.534,39.193 60.279,37.056C60.191,36.313 59.828,35.63 59.261,35.141C58.762,34.709 58.153,34.183 57.729,33.817C57.387,33.521 57.116,33.152 56.937,32.737C56.053,30.692 53.243,24.191 51.861,20.994C51.386,19.896 50.304,19.185 49.107,19.185C41.739,19.185 15.79,19.185 6.919,19.185C6.123,19.185 5.36,19.501 4.797,20.063C4.235,20.626 3.919,21.389 3.919,22.185C3.919,28.148 3.919,41.43 3.919,47.394C3.919,48.189 4.235,48.952 4.797,49.515C5.36,50.078 6.123,50.394 6.919,50.394C16.772,50.394 48.107,50.394 58.49,50.394Z" style="fill:#39b54a;"/>
    <clipPath id="_clip1">
        <path d="M58.49,50.394C59.348,50.394 60.164,50.027 60.733,49.386C61.303,48.744 61.571,47.89 61.469,47.039C61.087,43.836 60.534,39.193 60.279,37.056C60.191,36.313 59.828,35.63 59.261,35.141C58.762,34.709 58.153,34.183 57.729,33.817C57.387,33.521 57.116,33.152 56.937,32.737C56.053,30.692 53.243,24.191 51.861,20.994C51.386,19.896 50.304,19.185 49.107,19.185C41.739,19.185 15.79,19.185 6.919,19.185C6.123,19.185 5.36,19.501 4.797,20.063C4.235,20.626 3.919,21.389 3.919,22.185C3.919,28.148 3.919,41.43 3.919,47.394C3.919,48.189 4.235,48.952 4.797,49.515C5.36,50.078 6.123,50.394 6.919,50.394C16.772,50.394 48.107,50.394 58.49,50.394Z"/>
    </clipPath>
    <g clip-path="url(#_clip1)">
        <path d="M61.869,20.827L0.638,50.394L0.638,56.964L61.869,56.964L61.869,20.827Z" style="fill:#2b307e;fill-opacity:0.101961;"/>
    </g>
    <circle cx="16.888" cy="50.394" r="5.982" style="fill:#2b307e;"/>
    <circle cx="49.818" cy="50.394" r="5.982" style="fill:#2b307e;"/>
    <circle cx="16.888" cy="50.394" r="2.879" style="fill:#aaacdd;"/>
    <circle cx="49.818" cy="50.394" r="2.879" style="fill:#aaacdd;"/>
    <path d="M49.114,25.852C48.543,24.259 47.032,23.197 45.34,23.201C44.263,23.203 43.103,23.205 42.304,23.206C41.753,23.207 41.306,23.655 41.306,24.206C41.306,26.075 41.306,30.083 41.306,31.96C41.306,32.227 41.413,32.483 41.602,32.67C41.791,32.858 42.048,32.963 42.315,32.96C44.166,32.944 48.11,32.911 50.224,32.892C50.547,32.89 50.85,32.73 51.035,32.465C51.221,32.199 51.266,31.86 51.157,31.555C50.633,30.093 49.777,27.703 49.114,25.852Z" style="fill:#ededf8;"/>
    <clipPath id="_clip2">
        <path d="M49.114,25.852C48.543,24.259 47.032,23.197 45.34,23.201C44.263,23.203 43.103,23.205 42.304,23.206C41.753,23.207 41.306,23.655 41.306,24.206C41.306,26.075 41.306,30.083 41.306,31.96C41.306,32.227 41.413,32.483 41.602,32.67C41.791,32.858 42.048,32.963 42.315,32.96C44.166,32.944 48.11,32.911 50.224,32.892C50.547,32.89 50.85,32.73 51.035,32.465C51.221,32.199 51.266,31.86 51.157,31.555C50.633,30.093 49.777,27.703 49.114,25.852Z"/>
    </clipPath>
    <g clip-path="url(#_clip2)">
        <path d="M37.474,32.969L51.631,25.884L49.166,21.685L37.381,21.578L37.474,32.969Z" style="fill:#fff;"/>
    </g>
    <circle cx="24.818" cy="32.814" r="9.624" style="fill:#fff;"/>
    <clipPath id="_clip3">
        <circle cx="24.818" cy="32.814" r="9.624"/>
    </clipPath>
    <g clip-path="url(#_clip3)">
        <rect x="22.758" y="26.023" width="4.121" height="13.583" style="fill:#3bbc53;"/>
        <path d="M31.61,34.875L31.61,30.754L18.027,30.754L18.027,34.875L31.61,34.875Z" style="fill:#3bbc53;"/>
        <path d="M52.135,24.898L4.21,49.645L4.21,55.144L52.135,55.144L52.135,24.898Z" style="fill:#2b307e;fill-opacity:0.101961;"/>
    </g>
</svg>
