<?xml version="1.0" encoding="UTF-8" standalone="no"?>
<!DOCTYPE svg PUBLIC "-//W3C//DTD SVG 1.1//EN" "http://www.w3.org/Graphics/SVG/1.1/DTD/svg11.dtd">
<svg width="100%" height="100%" viewBox="0 0 64 65" version="1.1" xmlns="http://www.w3.org/2000/svg" xmlns:xlink="http://www.w3.org/1999/xlink" xml:space="preserve" xmlns:serif="http://www.serif.com/" style="fill-rule:evenodd;clip-rule:evenodd;stroke-linecap:round;stroke-miterlimit:1;">
    <rect id="Emergency-Response--muted" serif:id="Emergency Response- muted" x="0" y="0.732" width="64" height="64" style="fill:none;"/>
    <path d="M57.421,54.702L8.913,54.702L3.919,56.68L61.869,56.68L57.421,54.702Z" style="fill:#e1e4e6;"/>
    <g>
        <path d="M39.955,15.143C39.955,14.523 39.709,13.929 39.271,13.491C38.833,13.053 38.239,12.807 37.619,12.807C37.619,12.807 37.618,12.807 37.618,12.807C36.999,12.807 36.404,13.053 35.966,13.491C35.528,13.929 35.282,14.523 35.282,15.143C35.282,16.686 35.282,18.426 35.282,18.426L39.955,18.426C39.955,18.426 39.955,16.686 39.955,15.143Z" style="fill:#407bbf;"/>
        <rect x="33.523" y="17.889" width="8.192" height="1.601" style="fill:#324b95;"/>
        <path d="M37.605,10.804L37.605,8.544" style="fill:none;stroke:#dfdff2;stroke-width:1px;"/>
        <path d="M44.679,17.755L46.939,17.755" style="fill:none;stroke:#dfdff2;stroke-width:1px;"/>
        <path d="M46.187,13.627L44.063,14.4" style="fill:none;stroke:#dfdff2;stroke-width:1px;"/>
        <path d="M28.621,13.627L30.744,14.4" style="fill:none;stroke:#dfdff2;stroke-width:1px;"/>
        <path d="M42.757,10.213L41.304,11.944" style="fill:none;stroke:#dfdff2;stroke-width:1px;"/>
        <path d="M32.051,10.213L33.503,11.944" style="fill:none;stroke:#dfdff2;stroke-width:1px;"/>
        <path d="M27.986,17.755L30.246,17.755" style="fill:none;stroke:#dfdff2;stroke-width:1px;"/>
        <ellipse cx="36.801" cy="15.202" rx="0.818" ry="1.074" style="fill:#fff;"/>
    </g>
    <path d="M52.859,50.698C55.146,50.698 57.323,49.72 58.841,48.01C60.359,46.3 61.073,44.022 60.803,41.752C60.674,40.675 60.552,39.652 60.449,38.785C60.251,37.125 59.441,35.6 58.176,34.507C58.176,34.507 58.176,34.507 58.176,34.507C57.54,33.958 57.036,33.272 56.703,32.5C55.933,30.719 54.425,27.232 53.165,24.315C51.899,21.386 49.013,19.489 45.821,19.489C37.586,19.489 21.589,19.489 11.919,19.489C9.797,19.489 7.762,20.332 6.262,21.832C4.761,23.333 3.919,25.367 3.919,27.489C3.919,32.158 3.919,38.029 3.919,42.698C3.919,47.117 7.5,50.698 11.919,50.698C22.646,50.698 41.639,50.698 52.859,50.698Z" style="fill:#c7ccd1;"/>
    <clipPath id="_clip1">
        <path d="M52.859,50.698C55.146,50.698 57.323,49.72 58.841,48.01C60.359,46.3 61.073,44.022 60.803,41.752C60.674,40.675 60.552,39.652 60.449,38.785C60.251,37.125 59.441,35.6 58.176,34.507C58.176,34.507 58.176,34.507 58.176,34.507C57.54,33.958 57.036,33.272 56.703,32.5C55.933,30.719 54.425,27.232 53.165,24.315C51.899,21.386 49.013,19.489 45.821,19.489C37.586,19.489 21.589,19.489 11.919,19.489C9.797,19.489 7.762,20.332 6.262,21.832C4.761,23.333 3.919,25.367 3.919,27.489C3.919,32.158 3.919,38.029 3.919,42.698C3.919,47.117 7.5,50.698 11.919,50.698C22.646,50.698 41.639,50.698 52.859,50.698Z"/>
    </clipPath>
    <g clip-path="url(#_clip1)">
        <path d="M61.869,21.132L0.638,50.698L0.638,57.269L61.869,57.269L61.869,21.132Z" style="fill:#2b307e;fill-opacity:0.152941;"/>
    </g>
    <circle cx="16.888" cy="50.698" r="5.982" style="fill:none;stroke:#407bbf;stroke-width:2.16px;"/>
    <circle cx="16.888" cy="50.698" r="5.982" style="fill:#407bbf;"/>
    <circle cx="49.818" cy="50.698" r="5.982" style="fill:none;stroke:#407bbf;stroke-width:2.16px;"/>
    <circle cx="49.818" cy="50.698" r="5.982" style="fill:#407bbf;"/>
    <circle cx="16.888" cy="50.698" r="2.879" style="fill:#d5d6ee;"/>
    <circle cx="49.818" cy="50.698" r="2.879" style="fill:#d5d6ee;"/>
    <path d="M49.114,26.156C48.543,24.563 47.032,23.502 45.34,23.505C44.263,23.507 43.103,23.509 42.304,23.511C41.753,23.512 41.306,23.959 41.306,24.511C41.306,26.38 41.306,30.388 41.306,32.265C41.306,32.531 41.413,32.787 41.602,32.975C41.791,33.163 42.048,33.267 42.315,33.265C44.166,33.249 48.11,33.215 50.224,33.197C50.547,33.194 50.85,33.035 51.035,32.769C51.221,32.504 51.266,32.165 51.157,31.86C50.633,30.398 49.777,28.007 49.114,26.156Z" style="fill:#ededf8;"/>
    <clipPath id="_clip2">
        <path d="M49.114,26.156C48.543,24.563 47.032,23.502 45.34,23.505C44.263,23.507 43.103,23.509 42.304,23.511C41.753,23.512 41.306,23.959 41.306,24.511C41.306,26.38 41.306,30.388 41.306,32.265C41.306,32.531 41.413,32.787 41.602,32.975C41.791,33.163 42.048,33.267 42.315,33.265C44.166,33.249 48.11,33.215 50.224,33.197C50.547,33.194 50.85,33.035 51.035,32.769C51.221,32.504 51.266,32.165 51.157,31.86C50.633,30.398 49.777,28.007 49.114,26.156Z"/>
    </clipPath>
    <g clip-path="url(#_clip2)">
        <path d="M37.474,33.273L51.631,26.189L49.166,21.99L37.381,21.882L37.474,33.273Z" style="fill:#fff;"/>
    </g>
    <circle cx="24.818" cy="33.119" r="9.624" style="fill:#fff;"/>
    <clipPath id="_clip3">
        <circle cx="24.818" cy="33.119" r="9.624"/>
    </clipPath>
    <g clip-path="url(#_clip3)">
        <rect x="22.758" y="26.327" width="4.121" height="13.583" style="fill:#407bbf;"/>
        <path d="M31.61,35.179L31.61,31.058L18.027,31.058L18.027,35.179L31.61,35.179Z" style="fill:#407bbf;"/>
        <path d="M52.135,25.203L4.21,49.949L4.21,55.448L52.135,55.448L52.135,25.203Z" style="fill:#2b307e;fill-opacity:0.101961;"/>
    </g>
</svg>
