<?xml version="1.0" encoding="UTF-8" standalone="no"?>
<!DOCTYPE svg PUBLIC "-//W3C//DTD SVG 1.1//EN" "http://www.w3.org/Graphics/SVG/1.1/DTD/svg11.dtd">
<svg width="100%" height="100%" viewBox="0 0 64 64" version="1.1" xmlns="http://www.w3.org/2000/svg" xmlns:xlink="http://www.w3.org/1999/xlink" xml:space="preserve" xmlns:serif="http://www.serif.com/" style="fill-rule:evenodd;clip-rule:evenodd;stroke-linejoin:round;stroke-miterlimit:1.41421;">
    <rect id="Epidemic" x="0" y="0" width="64" height="64" style="fill:none;"/>
    <path d="M58.25,51.248C56.851,44.253 51.939,38.477 45.26,35.973C45.26,35.972 45.26,35.972 45.26,35.972C41.782,34.668 38.097,34 34.383,34C32.752,34 30.977,34 29.362,34C25.816,34 22.299,34.638 18.979,35.883C18.979,35.883 18.979,35.883 18.978,35.883C12.151,38.443 7.13,44.348 5.701,51.497C4.81,55.951 4,60 4,60L60,60C60,60 59.16,55.799 58.25,51.248Z" style="fill:#f3775b;"/>
    <clipPath id="_clip1">
        <path d="M58.25,51.248C56.851,44.253 51.939,38.477 45.26,35.973C45.26,35.972 45.26,35.972 45.26,35.972C41.782,34.668 38.097,34 34.383,34C32.752,34 30.977,34 29.362,34C25.816,34 22.299,34.638 18.979,35.883C18.979,35.883 18.979,35.883 18.978,35.883C12.151,38.443 7.13,44.348 5.701,51.497C4.81,55.951 4,60 4,60L60,60C60,60 59.16,55.799 58.25,51.248Z"/>
    </clipPath>
    <g clip-path="url(#_clip1)">
        <rect x="15.62" y="51.322" width="32.723" height="9.826" style="fill:#dfdff2;"/>
    </g>
    <path d="M9.403,39.785C11.512,37.656 19.292,34 29.362,34C30.977,34 32.752,34 34.383,34C44.667,34 52.679,37.732 54.759,39.857C50.738,45.508 40.993,50.338 32.106,50.338C23.182,50.338 13.408,45.475 9.403,39.785Z" style="fill:#dfdff2;"/>
    <path d="M39,29L25,29L25,37C25,37 25,37 25.001,37.001C29.188,39.991 34.812,39.991 38.999,37.001C39,37 39,37 39,37L39,29Z" style="fill:#dfdff2;"/>
    <path d="M25,35.545L25,29.724L39,29.724L39,35.715C38.108,36.503 34.567,37.233 32,37.233C29.245,37.233 26.279,36.365 25,35.545Z" style="fill:#2b307e;fill-opacity:0.341176;"/>
    <path d="M44,13.8C44,8.388 39.612,4 34.2,4C32.748,4 31.252,4 29.8,4C24.388,4 20,8.388 20,13.8C20,16.839 20,20.203 20,23.3C20,26.138 21.127,28.859 23.134,30.866C25.141,32.873 27.862,34 30.7,34C31.564,34 32.436,34 33.3,34C36.138,34 38.859,32.873 40.866,30.866C42.873,28.859 44,26.138 44,23.3C44,20.203 44,16.839 44,13.8Z" style="fill:#dfdff2;"/>
    <clipPath id="_clip2">
        <path d="M44,13.8C44,8.388 39.612,4 34.2,4C32.748,4 31.252,4 29.8,4C24.388,4 20,8.388 20,13.8C20,16.839 20,20.203 20,23.3C20,26.138 21.127,28.859 23.134,30.866C25.141,32.873 27.862,34 30.7,34C31.564,34 32.436,34 33.3,34C36.138,34 38.859,32.873 40.866,30.866C42.873,28.859 44,26.138 44,23.3C44,20.203 44,16.839 44,13.8Z"/>
    </clipPath>
    <g clip-path="url(#_clip2)">
        <rect x="32.197" y="-0.716" width="23.484" height="40.501" style="fill:#a2a3ca;fill-opacity:0.380392;"/>
    </g>
    <path d="M40.957,14.797L41.076,14.802L41.194,14.809L41.311,14.82L41.428,14.833L41.544,14.849L41.659,14.868L41.773,14.89L41.886,14.915L41.999,14.942L42.11,14.972L42.22,15.005L42.329,15.04L42.436,15.078L42.542,15.119L42.648,15.162L42.751,15.207L42.854,15.255L42.955,15.305L43.055,15.358L43.153,15.412L43.249,15.469L43.344,15.529L43.438,15.591L43.53,15.654L43.62,15.72L43.708,15.788L43.795,15.857L43.881,15.93L43.964,16.004L44.044,16.079L44.124,16.157L44.203,16.237L44.278,16.318L44.352,16.401L44.424,16.486L44.494,16.574L44.562,16.662L44.627,16.752L44.692,16.844L44.753,16.938L44.812,17.032L44.869,17.128L44.924,17.227L44.977,17.327L45.027,17.427L45.075,17.53L45.12,17.634L45.163,17.739L45.204,17.846L45.242,17.954L45.277,18.062L45.309,18.172L45.34,18.283L45.367,18.396L45.392,18.509L45.414,18.623L45.433,18.738L45.449,18.853L45.462,18.97L45.473,19.088L45.48,19.207L45.484,19.325L45.486,19.434L45.486,19.451L45.485,19.532L45.484,19.618L45.481,19.705L45.477,19.791L45.472,19.874L45.467,19.959L45.46,20.045L45.452,20.129L45.442,20.214L45.432,20.297L45.421,20.381L45.409,20.466L45.396,20.548L45.381,20.63L45.366,20.714L45.35,20.795L45.333,20.877L45.314,20.958L45.295,21.039L45.275,21.12L45.254,21.2L45.231,21.28L45.209,21.358L45.185,21.438L45.16,21.517L45.133,21.596L45.107,21.673L45.079,21.749L45.05,21.827L45.021,21.903L44.99,21.979L44.958,22.056L44.926,22.131L44.894,22.204L44.86,22.278L44.825,22.351L44.789,22.425L44.752,22.498L44.714,22.57L44.676,22.641L44.638,22.711L44.597,22.783L44.556,22.853L44.515,22.922L44.473,22.99L44.43,23.058L44.385,23.127L44.34,23.194L44.296,23.259L44.247,23.329L44.154,23.456L44.056,23.584L43.956,23.709L43.852,23.831L43.745,23.952L43.636,24.069L43.524,24.184L43.409,24.296L43.291,24.406L43.171,24.512L43.049,24.616L42.923,24.717L42.796,24.814L42.669,24.907L42.6,24.955L42.533,25.001L42.465,25.046L42.398,25.09L42.331,25.133L42.261,25.175L42.192,25.217L42.121,25.258L42.051,25.298L41.981,25.337L41.909,25.375L41.838,25.412L41.764,25.449L41.691,25.485L41.618,25.52L41.544,25.554L41.469,25.587L41.394,25.619L41.319,25.65L41.243,25.681L41.166,25.711L41.09,25.739L41.012,25.767L40.935,25.794L40.857,25.82L40.778,25.845L40.699,25.869L40.619,25.892L40.539,25.914L40.459,25.935L40.379,25.956L40.298,25.975L40.216,25.993L40.135,26.01L40.052,26.027L39.97,26.042L39.888,26.056L39.804,26.069L39.721,26.081L39.637,26.093L39.553,26.103L39.469,26.112L39.385,26.12L39.3,26.127L39.215,26.133L39.129,26.138L39.044,26.141L38.958,26.144L38.872,26.146L38.791,26.146L38.779,26.146L38.682,26.146L38.58,26.144L38.478,26.141L38.377,26.136L38.275,26.131L38.174,26.124L38.073,26.116L37.972,26.106L37.872,26.096L37.771,26.084L37.671,26.071L37.571,26.056L37.472,26.041L37.372,26.024L37.273,26.006L37.175,25.987L37.076,25.967L36.978,25.945L36.88,25.923L36.783,25.899L36.685,25.874L36.588,25.847L36.492,25.82L36.396,25.791L36.3,25.762L36.205,25.731L36.11,25.699L36.015,25.666L35.921,25.631L35.828,25.596L35.735,25.559L35.642,25.522L35.549,25.483L35.458,25.443L35.367,25.401L35.276,25.359L35.185,25.316L35.096,25.271L35.006,25.226L34.918,25.179L34.829,25.131L34.742,25.083L34.655,25.033L34.568,24.982L34.483,24.93L34.398,24.877L34.313,24.822L34.229,24.767L34.145,24.711L34.063,24.653L33.981,24.595L33.899,24.535L33.818,24.475L33.739,24.413L33.659,24.351L33.58,24.287L33.502,24.222L33.426,24.157L33.349,24.09L33.273,24.022L33.198,23.954L33.124,23.884L33.051,23.813L32.977,23.741L32.884,23.646L32.791,23.548L32.699,23.449L32.611,23.349L32.523,23.248L32.437,23.144L32.353,23.04L32.271,22.935L32.19,22.829L32.112,22.721L32.035,22.612L31.96,22.502L31.893,22.4L31.838,22.483L31.763,22.594L31.685,22.705L31.606,22.815L31.525,22.923L31.441,23.03L31.356,23.136L31.269,23.24L31.181,23.343L31.09,23.445L30.998,23.545L30.903,23.644L30.809,23.74L30.735,23.813L30.661,23.884L30.587,23.954L30.513,24.022L30.437,24.09L30.361,24.156L30.283,24.223L30.205,24.287L30.127,24.351L30.048,24.413L29.968,24.475L29.886,24.536L29.805,24.595L29.723,24.653L29.641,24.71L29.557,24.767L29.473,24.822L29.389,24.876L29.303,24.93L29.217,24.982L29.131,25.033L29.044,25.083L28.956,25.131L28.868,25.179L28.78,25.226L28.69,25.271L28.6,25.316L28.51,25.359L28.419,25.401L28.328,25.443L28.236,25.483L28.144,25.521L28.051,25.559L27.958,25.596L27.865,25.631L27.77,25.666L27.676,25.699L27.581,25.731L27.486,25.762L27.39,25.791L27.294,25.82L27.197,25.847L27.101,25.874L27.003,25.899L26.906,25.923L26.808,25.945L26.71,25.967L26.612,25.987L26.513,26.006L26.414,26.024L26.314,26.041L26.214,26.056L26.115,26.071L26.015,26.084L25.914,26.096L25.814,26.106L25.713,26.116L25.612,26.124L25.511,26.131L25.409,26.136L25.308,26.141L25.206,26.144L25.104,26.146L25.007,26.146L24.995,26.146L24.914,26.146L24.828,26.144L24.742,26.141L24.656,26.138L24.571,26.133L24.486,26.127L24.401,26.12L24.317,26.112L24.232,26.103L24.148,26.093L24.065,26.081L23.982,26.069L23.899,26.056L23.816,26.042L23.733,26.026L23.651,26.01L23.57,25.993L23.489,25.975L23.407,25.956L23.327,25.935L23.246,25.914L23.167,25.892L23.087,25.869L23.008,25.845L22.93,25.82L22.851,25.794L22.774,25.767L22.697,25.74L22.619,25.711L22.543,25.681L22.467,25.651L22.391,25.619L22.316,25.587L22.242,25.554L22.168,25.52L22.095,25.485L22.022,25.449L21.949,25.413L21.877,25.375L21.805,25.337L21.734,25.297L21.664,25.258L21.594,25.217L21.525,25.176L21.456,25.133L21.387,25.089L21.32,25.046L21.254,25.002L21.186,24.955L21.117,24.907L20.991,24.815L20.862,24.717L20.737,24.616L20.615,24.512L20.495,24.406L20.377,24.296L20.262,24.184L20.15,24.069L20.041,23.951L19.934,23.831L19.831,23.709L19.73,23.584L19.631,23.456L19.54,23.33L19.491,23.26L19.445,23.194L19.4,23.126L19.356,23.058L19.313,22.99L19.271,22.922L19.23,22.853L19.188,22.782L19.149,22.712L19.109,22.641L19.071,22.569L19.034,22.498L18.997,22.425L18.961,22.351L18.927,22.279L18.893,22.205L18.859,22.129L18.827,22.054L18.796,21.98L18.765,21.903L18.735,21.826L18.707,21.751L18.679,21.673L18.652,21.594L18.626,21.517L18.601,21.438L18.578,21.36L18.554,21.28L18.532,21.2L18.511,21.12L18.491,21.039L18.471,20.958L18.453,20.877L18.436,20.795L18.42,20.712L18.405,20.632L18.39,20.548L18.377,20.464L18.365,20.381L18.354,20.297L18.344,20.214L18.334,20.129L18.326,20.045L18.32,19.961L18.314,19.876L18.309,19.791L18.305,19.705L18.302,19.618L18.301,19.532L18.3,19.451L18.3,19.434L18.301,19.325L18.306,19.206L18.313,19.087L18.324,18.97L18.337,18.854L18.353,18.738L18.372,18.623L18.394,18.509L18.419,18.395L18.446,18.284L18.476,18.172L18.509,18.062L18.544,17.954L18.583,17.845L18.623,17.739L18.666,17.634L18.711,17.53L18.759,17.427L18.809,17.327L18.861,17.228L18.916,17.13L18.974,17.032L19.033,16.937L19.094,16.844L19.158,16.753L19.224,16.661L19.292,16.573L19.362,16.486L19.433,16.402L19.507,16.318L19.584,16.236L19.661,16.158L19.741,16.08L19.823,16.003L19.906,15.929L19.991,15.858L20.077,15.788L20.166,15.72L20.257,15.654L20.348,15.59L20.442,15.529L20.537,15.469L20.633,15.412L20.731,15.358L20.831,15.305L20.932,15.255L21.034,15.207L21.138,15.162L21.243,15.119L21.35,15.078L21.458,15.04L21.566,15.005L21.676,14.972L21.787,14.942L21.899,14.915L22.013,14.89L22.127,14.868L22.242,14.849L22.358,14.833L22.475,14.82L22.592,14.809L22.71,14.802L22.829,14.797L22.939,14.796L40.847,14.796L40.957,14.797ZM22.948,16.296L22.867,16.297L22.786,16.3L22.706,16.305L22.626,16.312L22.547,16.321L22.469,16.332L22.391,16.345L22.314,16.36L22.237,16.376L22.161,16.395L22.086,16.415L22.012,16.437L21.938,16.461L21.866,16.487L21.794,16.514L21.723,16.543L21.652,16.574L21.583,16.606L21.515,16.64L21.447,16.676L21.381,16.713L21.316,16.752L21.251,16.792L21.188,16.833L21.126,16.877L21.064,16.921L21.004,16.967L20.946,17.015L20.888,17.063L20.831,17.114L20.776,17.165L20.722,17.218L20.669,17.272L20.618,17.327L20.568,17.384L20.519,17.441L20.471,17.5L20.425,17.56L20.381,17.621L20.338,17.684L20.296,17.747L20.256,17.811L20.217,17.877L20.18,17.943L20.144,18.011L20.11,18.079L20.078,18.148L20.047,18.218L20.018,18.29L19.991,18.361L19.965,18.434L19.942,18.508L19.919,18.582L19.899,18.657L19.881,18.733L19.864,18.809L19.849,18.887L19.836,18.964L19.825,19.043L19.816,19.122L19.809,19.202L19.804,19.282L19.801,19.363L19.8,19.444L19.8,19.514L19.802,19.581L19.804,19.647L19.807,19.714L19.811,19.78L19.815,19.846L19.821,19.912L19.827,19.978L19.834,20.043L19.842,20.109L19.85,20.174L19.86,20.238L19.87,20.303L19.881,20.367L19.893,20.431L19.906,20.494L19.919,20.558L19.933,20.621L19.948,20.683L19.964,20.746L19.98,20.808L19.997,20.87L20.015,20.931L20.034,20.993L20.053,21.054L20.073,21.114L20.094,21.174L20.116,21.234L20.138,21.294L20.161,21.353L20.184,21.412L20.209,21.47L20.234,21.529L20.259,21.586L20.286,21.644L20.313,21.701L20.34,21.757L20.369,21.814L20.398,21.87L20.428,21.925L20.458,21.98L20.489,22.035L20.521,22.089L20.553,22.143L20.586,22.196L20.619,22.249L20.653,22.302L20.688,22.354L20.723,22.405L20.759,22.457L20.833,22.558L20.909,22.657L20.987,22.754L21.068,22.849L21.151,22.943L21.236,23.034L21.323,23.123L21.412,23.21L21.504,23.295L21.597,23.378L21.692,23.459L21.79,23.537L21.889,23.613L21.99,23.687L22.041,23.723L22.093,23.758L22.145,23.793L22.197,23.827L22.25,23.861L22.304,23.894L22.357,23.926L22.412,23.957L22.466,23.988L22.521,24.019L22.577,24.048L22.633,24.077L22.689,24.106L22.746,24.134L22.803,24.161L22.86,24.187L22.918,24.213L22.976,24.238L23.034,24.262L23.093,24.286L23.153,24.309L23.212,24.331L23.272,24.352L23.332,24.373L23.393,24.393L23.454,24.413L23.515,24.431L23.576,24.449L23.638,24.466L23.7,24.483L23.763,24.498L23.826,24.513L23.889,24.527L23.952,24.541L24.016,24.553L24.08,24.565L24.144,24.576L24.208,24.586L24.273,24.596L24.338,24.605L24.403,24.612L24.468,24.619L24.534,24.626L24.6,24.631L24.666,24.636L24.732,24.64L24.799,24.643L24.866,24.645L24.933,24.646L25.002,24.646L25.086,24.646L25.169,24.644L25.252,24.642L25.335,24.638L25.418,24.633L25.501,24.628L25.583,24.621L25.665,24.613L25.748,24.605L25.83,24.595L25.911,24.584L25.993,24.573L26.075,24.56L26.156,24.546L26.237,24.532L26.317,24.516L26.398,24.5L26.478,24.482L26.558,24.463L26.638,24.444L26.717,24.423L26.796,24.402L26.875,24.38L26.954,24.356L27.032,24.332L27.11,24.307L27.187,24.281L27.265,24.253L27.342,24.225L27.418,24.196L27.494,24.166L27.57,24.136L27.645,24.104L27.72,24.071L27.795,24.037L27.869,24.003L27.943,23.968L28.016,23.931L28.089,23.894L28.162,23.856L28.234,23.817L28.306,23.777L28.377,23.736L28.447,23.694L28.517,23.652L28.587,23.608L28.656,23.564L28.725,23.519L28.793,23.473L28.861,23.426L28.928,23.378L28.994,23.33L29.06,23.28L29.126,23.23L29.19,23.179L29.255,23.127L29.318,23.074L29.381,23.02L29.444,22.966L29.506,22.91L29.567,22.854L29.628,22.797L29.688,22.74L29.747,22.681L29.825,22.601L29.902,22.52L29.978,22.438L30.052,22.355L30.124,22.271L30.195,22.186L30.265,22.099L30.333,22.012L30.399,21.923L30.464,21.834L30.528,21.744L30.589,21.652L30.65,21.56L30.708,21.467L30.765,21.373L30.821,21.278L30.875,21.182L30.927,21.085L30.978,20.988L31.027,20.89L31.075,20.791L31.121,20.691L31.165,20.59L31.207,20.489L31.248,20.387L31.288,20.285L31.325,20.182L31.361,20.078L31.395,19.973L31.428,19.868L31.458,19.763L31.487,19.657L31.497,19.625L31.509,19.594L31.524,19.565L31.54,19.537L31.559,19.511L31.58,19.487L31.602,19.464L31.627,19.444L31.653,19.425L31.68,19.409L31.709,19.395L31.739,19.383L31.77,19.374L31.801,19.367L31.834,19.362L31.867,19.361L31.868,19.363L31.888,19.363L31.907,19.364L31.926,19.366L31.945,19.369L31.963,19.373L31.982,19.377L32,19.382L32.018,19.388L32.035,19.394L32.052,19.401L32.069,19.409L32.086,19.418L32.118,19.437L32.148,19.458L32.176,19.482L32.202,19.508L32.215,19.521L32.227,19.536L32.238,19.551L32.249,19.566L32.259,19.582L32.268,19.598L32.277,19.614L32.285,19.632L32.293,19.649L32.299,19.667L32.305,19.685L32.311,19.704L32.34,19.808L32.371,19.912L32.404,20.015L32.438,20.118L32.474,20.22L32.512,20.322L32.551,20.423L32.592,20.523L32.635,20.622L32.679,20.721L32.725,20.819L32.772,20.917L32.821,21.014L32.871,21.109L32.923,21.205L32.977,21.299L33.032,21.392L33.089,21.485L33.147,21.577L33.207,21.668L33.268,21.757L33.331,21.846L33.395,21.935L33.461,22.022L33.528,22.108L33.597,22.193L33.667,22.277L33.738,22.36L33.811,22.442L33.886,22.523L33.962,22.602L34.039,22.681L34.098,22.74L34.158,22.797L34.219,22.854L34.28,22.91L34.342,22.966L34.404,23.02L34.468,23.074L34.531,23.127L34.595,23.179L34.66,23.23L34.726,23.28L34.792,23.33L34.858,23.378L34.925,23.426L34.993,23.473L35.061,23.519L35.13,23.564L35.199,23.608L35.268,23.652L35.339,23.694L35.409,23.736L35.48,23.777L35.552,23.817L35.624,23.856L35.697,23.894L35.769,23.931L35.843,23.968L35.917,24.003L35.991,24.037L36.065,24.071L36.14,24.104L36.216,24.136L36.292,24.166L36.368,24.196L36.444,24.225L36.521,24.253L36.598,24.281L36.676,24.307L36.754,24.332L36.832,24.356L36.911,24.38L36.99,24.402L37.069,24.423L37.148,24.444L37.228,24.463L37.308,24.482L37.388,24.5L37.469,24.516L37.549,24.532L37.63,24.546L37.711,24.56L37.793,24.573L37.874,24.584L37.956,24.595L38.038,24.605L38.12,24.613L38.203,24.621L38.285,24.628L38.368,24.633L38.451,24.638L38.534,24.642L38.617,24.644L38.7,24.646L38.786,24.646L38.853,24.646L38.92,24.645L38.987,24.643L39.054,24.64L39.12,24.636L39.186,24.631L39.252,24.626L39.318,24.619L39.383,24.612L39.448,24.605L39.513,24.596L39.578,24.586L39.642,24.576L39.706,24.565L39.77,24.553L39.834,24.541L39.897,24.527L39.96,24.513L40.023,24.498L40.085,24.483L40.148,24.466L40.209,24.449L40.271,24.431L40.332,24.413L40.393,24.393L40.454,24.373L40.514,24.352L40.574,24.331L40.633,24.309L40.693,24.286L40.751,24.262L40.81,24.238L40.868,24.213L40.926,24.187L40.983,24.161L41.04,24.134L41.097,24.106L41.153,24.077L41.209,24.048L41.265,24.019L41.32,23.988L41.374,23.957L41.428,23.926L41.482,23.894L41.536,23.861L41.589,23.827L41.641,23.793L41.693,23.758L41.745,23.723L41.796,23.687L41.897,23.613L41.996,23.537L42.094,23.459L42.189,23.378L42.282,23.295L42.374,23.21L42.463,23.123L42.55,23.034L42.635,22.943L42.718,22.849L42.798,22.754L42.877,22.657L42.953,22.558L43.027,22.457L43.063,22.405L43.098,22.354L43.133,22.302L43.167,22.249L43.2,22.196L43.233,22.143L43.265,22.089L43.297,22.035L43.328,21.98L43.358,21.925L43.388,21.87L43.417,21.814L43.445,21.757L43.473,21.701L43.5,21.644L43.527,21.586L43.552,21.529L43.577,21.47L43.602,21.412L43.625,21.353L43.648,21.294L43.67,21.234L43.692,21.174L43.713,21.114L43.733,21.054L43.752,20.993L43.771,20.931L43.789,20.87L43.806,20.808L43.822,20.746L43.838,20.683L43.853,20.621L43.867,20.558L43.88,20.494L43.893,20.431L43.905,20.367L43.916,20.303L43.926,20.238L43.935,20.174L43.944,20.109L43.952,20.043L43.959,19.978L43.965,19.912L43.971,19.846L43.975,19.78L43.979,19.714L43.982,19.647L43.984,19.581L43.986,19.514L43.986,19.446L43.986,19.444L43.985,19.363L43.982,19.282L43.977,19.202L43.97,19.122L43.961,19.043L43.95,18.964L43.937,18.887L43.922,18.809L43.905,18.733L43.887,18.657L43.867,18.582L43.844,18.508L43.821,18.434L43.795,18.361L43.768,18.289L43.739,18.218L43.708,18.148L43.676,18.079L43.642,18.011L43.606,17.943L43.569,17.877L43.53,17.811L43.49,17.747L43.448,17.684L43.405,17.621L43.361,17.56L43.315,17.5L43.267,17.441L43.218,17.384L43.168,17.327L43.117,17.272L43.064,17.218L43.01,17.165L42.955,17.114L42.898,17.063L42.84,17.015L42.781,16.967L42.721,16.921L42.66,16.877L42.598,16.833L42.535,16.792L42.47,16.752L42.405,16.713L42.338,16.676L42.271,16.64L42.203,16.606L42.133,16.574L42.063,16.543L41.992,16.514L41.92,16.487L41.848,16.461L41.774,16.437L41.7,16.415L41.625,16.395L41.549,16.376L41.472,16.36L41.395,16.345L41.317,16.332L41.239,16.321L41.16,16.312L41.08,16.305L41,16.3L40.919,16.297L40.838,16.296L22.948,16.296Z" style="fill:#fff;"/>
    <path d="M22.948,16.296L40.838,16.296C42.577,16.296 43.986,17.705 43.986,19.444C43.986,19.445 43.986,19.445 43.986,19.446C43.986,22.318 41.658,24.646 38.786,24.646C38.785,24.646 38.784,24.646 38.784,24.646C37.004,24.646 35.297,23.939 34.039,22.681C33.207,21.849 32.616,20.82 32.311,19.704C32.258,19.503 32.076,19.363 31.868,19.363C31.868,19.361 31.868,19.361 31.867,19.361C31.688,19.361 31.532,19.483 31.487,19.657C31.187,20.791 30.591,21.837 29.747,22.681C28.489,23.939 26.782,24.646 25.002,24.646C25.001,24.646 25.001,24.646 25,24.646C22.128,24.646 19.8,22.318 19.8,19.446C19.8,19.445 19.8,19.445 19.8,19.444C19.8,17.705 21.209,16.296 22.948,16.296Z" style="fill:#2b307e;"/>
</svg>
