<?xml version="1.0" encoding="UTF-8" standalone="no"?>
<!DOCTYPE svg PUBLIC "-//W3C//DTD SVG 1.1//EN" "http://www.w3.org/Graphics/SVG/1.1/DTD/svg11.dtd">
<svg width="100%" height="100%" viewBox="0 0 65 64" version="1.1" xmlns="http://www.w3.org/2000/svg" xmlns:xlink="http://www.w3.org/1999/xlink" xml:space="preserve" xmlns:serif="http://www.serif.com/" style="fill-rule:evenodd;clip-rule:evenodd;stroke-linejoin:round;stroke-miterlimit:2;">
    <rect id="Epidemic" x="0.738" y="0" width="64" height="64" style="fill:none;"/>
    <path d="M58.988,51.248C57.589,44.253 52.677,38.477 45.998,35.973C45.998,35.972 45.998,35.972 45.998,35.972C42.52,34.668 38.836,34 35.121,34C33.491,34 31.715,34 30.101,34C26.555,34 23.038,34.638 19.717,35.883C19.717,35.883 19.717,35.883 19.717,35.883C12.89,38.443 7.869,44.348 6.439,51.497C5.548,55.951 4.738,60 4.738,60L60.738,60C60.738,60 59.898,55.799 58.988,51.248Z" style="fill:#f3775b;"/>
    <clipPath id="_clip1">
        <path d="M58.988,51.248C57.589,44.253 52.677,38.477 45.998,35.973C45.998,35.972 45.998,35.972 45.998,35.972C42.52,34.668 38.836,34 35.121,34C33.491,34 31.715,34 30.101,34C26.555,34 23.038,34.638 19.717,35.883C19.717,35.883 19.717,35.883 19.717,35.883C12.89,38.443 7.869,44.348 6.439,51.497C5.548,55.951 4.738,60 4.738,60L60.738,60C60.738,60 59.898,55.799 58.988,51.248Z"/>
    </clipPath>
    <g clip-path="url(#_clip1)">
        <rect x="16.359" y="51.322" width="32.723" height="9.826" style="fill:#dfdff2;"/>
    </g>
    <path d="M10.141,39.785C12.251,37.656 20.03,34 30.101,34C31.715,34 33.491,34 35.121,34C45.405,34 53.417,37.732 55.497,39.857C51.477,45.508 41.731,50.338 32.845,50.338C23.92,50.338 14.147,45.475 10.141,39.785Z" style="fill:#dfdff2;"/>
    <path d="M39.738,29L25.738,29L25.738,37C25.738,37 25.739,37 25.739,37.001C29.926,39.991 35.551,39.991 39.738,37.001C39.738,37 39.738,37 39.738,37L39.738,29Z" style="fill:#dfdff2;"/>
    <path d="M25.738,35.545L25.738,29.724L39.738,29.724L39.738,35.715C38.846,36.503 35.305,37.233 32.738,37.233C29.983,37.233 27.017,36.365 25.738,35.545Z" style="fill:#2b307e;fill-opacity:0.34;"/>
    <path d="M44.738,13.8C44.738,8.388 40.351,4 34.938,4C33.486,4 31.99,4 30.538,4C25.126,4 20.738,8.388 20.738,13.8C20.738,16.839 20.738,20.203 20.738,23.3C20.738,26.138 21.866,28.859 23.872,30.866C25.879,32.873 28.6,34 31.438,34C32.302,34 33.175,34 34.038,34C36.876,34 39.598,32.873 41.604,30.866C43.611,28.859 44.738,26.138 44.738,23.3C44.738,20.203 44.738,16.839 44.738,13.8Z" style="fill:#dfdff2;"/>
    <clipPath id="_clip2">
        <path d="M44.738,13.8C44.738,8.388 40.351,4 34.938,4C33.486,4 31.99,4 30.538,4C25.126,4 20.738,8.388 20.738,13.8C20.738,16.839 20.738,20.203 20.738,23.3C20.738,26.138 21.866,28.859 23.872,30.866C25.879,32.873 28.6,34 31.438,34C32.302,34 33.175,34 34.038,34C36.876,34 39.598,32.873 41.604,30.866C43.611,28.859 44.738,26.138 44.738,23.3C44.738,20.203 44.738,16.839 44.738,13.8Z"/>
    </clipPath>
    <g clip-path="url(#_clip2)">
        <rect x="32.935" y="-0.716" width="23.484" height="40.501" style="fill:#a2a3ca;fill-opacity:0.38;"/>
    </g>
    <path d="M41.695,14.797L41.814,14.802L41.932,14.809L42.05,14.82L42.166,14.833L42.282,14.849L42.397,14.868L42.511,14.89L42.625,14.915L42.737,14.942L42.848,14.972L42.958,15.005L43.067,15.04L43.174,15.078L43.281,15.119L43.386,15.162L43.49,15.207L43.592,15.255L43.693,15.305L43.792,15.357L43.891,15.412L43.988,15.47L44.082,15.529L44.176,15.59L44.268,15.654L44.358,15.72L44.446,15.788L44.534,15.858L44.619,15.93L44.701,16.003L44.783,16.079L44.863,16.158L44.94,16.236L45.016,16.318L45.09,16.401L45.163,16.487L45.232,16.574L45.3,16.661L45.366,16.753L45.43,16.844L45.491,16.937L45.55,17.032L45.608,17.13L45.662,17.227L45.715,17.327L45.765,17.429L45.813,17.53L45.858,17.634L45.901,17.739L45.941,17.845L45.98,17.953L46.015,18.062L46.048,18.173L46.078,18.283L46.105,18.395L46.13,18.509L46.152,18.623L46.171,18.738L46.187,18.854L46.2,18.971L46.211,19.087L46.218,19.206L46.223,19.325L46.224,19.434L46.224,19.451L46.224,19.532L46.222,19.618L46.219,19.705L46.215,19.791L46.211,19.874L46.205,19.959L46.198,20.046L46.19,20.129L46.181,20.212L46.17,20.299L46.159,20.381L46.147,20.464L46.134,20.548L46.119,20.632L46.104,20.714L46.088,20.794L46.071,20.877L46.053,20.958L46.034,21.039L46.013,21.121L45.992,21.2L45.97,21.278L45.947,21.36L45.922,21.439L45.898,21.515L45.872,21.594L45.845,21.673L45.818,21.749L45.788,21.827L45.759,21.903L45.729,21.979L45.697,22.056L45.664,22.131L45.632,22.204L45.598,22.278L45.562,22.353L45.527,22.425L45.49,22.498L45.453,22.57L45.415,22.641L45.375,22.712L45.336,22.782L45.295,22.852L45.253,22.922L45.211,22.99L45.168,23.058L45.124,23.127L45.079,23.194L45.033,23.26L44.985,23.33L44.893,23.456L44.795,23.584L44.694,23.709L44.59,23.832L44.484,23.951L44.374,24.069L44.262,24.184L44.147,24.296L44.029,24.406L43.909,24.512L43.787,24.616L43.662,24.717L43.534,24.814L43.407,24.907L43.337,24.956L43.271,25.001L43.204,25.046L43.137,25.09L43.069,25.133L43,25.175L42.93,25.217L42.86,25.258L42.789,25.298L42.719,25.337L42.648,25.375L42.575,25.413L42.503,25.449L42.43,25.485L42.356,25.52L42.283,25.553L42.208,25.587L42.132,25.619L42.057,25.651L41.981,25.681L41.905,25.71L41.828,25.74L41.75,25.767L41.673,25.794L41.594,25.82L41.516,25.845L41.437,25.869L41.358,25.892L41.278,25.914L41.198,25.935L41.117,25.956L41.036,25.975L40.955,25.993L40.873,26.01L40.791,26.027L40.709,26.042L40.626,26.056L40.543,26.069L40.459,26.081L40.376,26.093L40.292,26.103L40.208,26.112L40.123,26.12L40.038,26.127L39.953,26.133L39.868,26.138L39.782,26.141L39.696,26.144L39.61,26.146L39.529,26.146L39.517,26.146L39.42,26.146L39.318,26.144L39.216,26.141L39.115,26.136L39.014,26.131L38.912,26.124L38.811,26.116L38.711,26.106L38.61,26.096L38.51,26.084L38.409,26.071L38.31,26.056L38.21,26.041L38.11,26.024L38.011,26.006L37.913,25.987L37.814,25.967L37.716,25.945L37.618,25.923L37.52,25.899L37.424,25.874L37.327,25.847L37.23,25.82L37.134,25.791L37.039,25.762L36.943,25.731L36.848,25.699L36.754,25.666L36.66,25.631L36.566,25.596L36.473,25.559L36.38,25.521L36.288,25.482L36.196,25.443L36.105,25.401L36.014,25.359L35.923,25.316L35.834,25.271L35.745,25.226L35.656,25.179L35.568,25.131L35.48,25.083L35.393,25.033L35.307,24.982L35.221,24.93L35.135,24.876L35.051,24.822L34.967,24.767L34.884,24.711L34.801,24.653L34.719,24.595L34.637,24.535L34.557,24.475L34.477,24.413L34.397,24.351L34.319,24.287L34.241,24.223L34.164,24.157L34.087,24.09L34.011,24.022L33.937,23.954L33.863,23.884L33.789,23.813L33.715,23.741L33.622,23.646L33.529,23.548L33.438,23.449L33.349,23.349L33.261,23.247L33.176,23.145L33.091,23.04L33.009,22.935L32.929,22.829L32.85,22.721L32.773,22.612L32.698,22.502L32.631,22.4L32.577,22.483L32.501,22.594L32.423,22.705L32.344,22.815L32.263,22.923L32.18,23.03L32.094,23.136L32.007,23.24L31.919,23.343L31.829,23.444L31.736,23.545L31.642,23.644L31.547,23.74L31.473,23.813L31.4,23.884L31.326,23.954L31.251,24.022L31.176,24.09L31.099,24.157L31.021,24.223L30.944,24.287L30.865,24.351L30.786,24.413L30.706,24.475L30.625,24.535L30.543,24.595L30.461,24.653L30.379,24.711L30.295,24.767L30.212,24.822L30.127,24.876L30.042,24.93L29.955,24.982L29.869,25.033L29.782,25.083L29.695,25.131L29.607,25.179L29.517,25.226L29.429,25.271L29.339,25.316L29.248,25.359L29.158,25.401L29.066,25.443L28.975,25.482L28.883,25.521L28.79,25.559L28.697,25.596L28.603,25.631L28.509,25.666L28.414,25.699L28.319,25.731L28.224,25.762L28.128,25.791L28.032,25.82L27.936,25.847L27.839,25.874L27.742,25.899L27.644,25.923L27.546,25.945L27.448,25.967L27.35,25.987L27.251,26.006L27.152,26.024L27.052,26.041L26.953,26.056L26.853,26.071L26.753,26.084L26.652,26.096L26.552,26.106L26.451,26.116L26.35,26.124L26.249,26.131L26.147,26.136L26.046,26.141L25.944,26.144L25.843,26.146L25.745,26.146L25.733,26.146L25.652,26.146L25.566,26.144L25.48,26.141L25.395,26.138L25.309,26.133L25.225,26.127L25.14,26.12L25.055,26.112L24.971,26.103L24.887,26.093L24.803,26.081L24.72,26.069L24.636,26.056L24.554,26.042L24.472,26.027L24.39,26.01L24.308,25.993L24.226,25.975L24.145,25.956L24.065,25.935L23.985,25.914L23.905,25.892L23.825,25.869L23.747,25.845L23.668,25.82L23.589,25.794L23.512,25.767L23.435,25.74L23.358,25.711L23.281,25.681L23.205,25.65L23.13,25.619L23.055,25.587L22.98,25.554L22.906,25.52L22.832,25.485L22.76,25.449L22.687,25.413L22.615,25.375L22.544,25.337L22.473,25.298L22.403,25.258L22.332,25.217L22.263,25.175L22.194,25.133L22.126,25.09L22.058,25.046L21.991,25.001L21.925,24.956L21.855,24.907L21.728,24.814L21.601,24.717L21.476,24.616L21.353,24.512L21.233,24.406L21.115,24.296L21.001,24.184L20.888,24.069L20.779,23.951L20.673,23.832L20.569,23.709L20.468,23.584L20.37,23.456L20.278,23.33L20.229,23.26L20.184,23.194L20.139,23.127L20.094,23.058L20.051,22.99L20.009,22.922L19.967,22.852L19.927,22.782L19.887,22.712L19.848,22.642L19.81,22.57L19.771,22.496L19.735,22.425L19.7,22.353L19.664,22.278L19.631,22.204L19.598,22.131L19.566,22.056L19.534,21.979L19.503,21.903L19.474,21.827L19.445,21.749L19.418,21.673L19.39,21.594L19.364,21.515L19.34,21.439L19.316,21.36L19.292,21.278L19.271,21.2L19.25,21.121L19.229,21.039L19.21,20.958L19.192,20.877L19.174,20.794L19.158,20.714L19.143,20.632L19.129,20.548L19.115,20.464L19.103,20.381L19.092,20.299L19.082,20.212L19.073,20.129L19.065,20.046L19.058,19.959L19.052,19.874L19.047,19.791L19.043,19.705L19.04,19.618L19.039,19.532L19.038,19.451L19.038,19.434L19.04,19.325L19.044,19.206L19.052,19.088L19.062,18.971L19.075,18.853L19.092,18.738L19.111,18.623L19.133,18.509L19.157,18.395L19.185,18.283L19.214,18.173L19.247,18.062L19.283,17.953L19.321,17.846L19.361,17.739L19.405,17.633L19.449,17.53L19.497,17.429L19.547,17.328L19.6,17.227L19.655,17.128L19.712,17.032L19.772,16.937L19.833,16.844L19.896,16.753L19.963,16.661L20.03,16.574L20.1,16.487L20.172,16.401L20.246,16.318L20.322,16.236L20.4,16.157L20.479,16.079L20.561,16.003L20.644,15.93L20.729,15.858L20.816,15.788L20.904,15.72L20.995,15.654L21.087,15.59L21.18,15.529L21.275,15.47L21.372,15.412L21.47,15.358L21.569,15.305L21.671,15.255L21.773,15.207L21.876,15.162L21.982,15.119L22.088,15.078L22.196,15.04L22.305,15.005L22.415,14.972L22.526,14.942L22.638,14.915L22.751,14.89L22.865,14.868L22.98,14.849L23.096,14.833L23.213,14.82L23.33,14.809L23.448,14.802L23.567,14.797L23.677,14.796L41.586,14.796L41.695,14.797ZM23.686,16.296L23.605,16.297L23.524,16.3L23.444,16.305L23.364,16.312L23.285,16.321L23.207,16.332L23.129,16.345L23.052,16.36L22.975,16.376L22.9,16.395L22.824,16.415L22.75,16.437L22.677,16.461L22.604,16.487L22.532,16.514L22.461,16.543L22.391,16.574L22.321,16.606L22.253,16.64L22.186,16.676L22.119,16.713L22.054,16.752L21.99,16.792L21.926,16.833L21.864,16.877L21.803,16.921L21.743,16.967L21.684,17.015L21.626,17.063L21.57,17.114L21.514,17.165L21.46,17.218L21.408,17.272L21.356,17.327L21.306,17.384L21.257,17.441L21.21,17.5L21.164,17.56L21.119,17.621L21.076,17.684L21.034,17.747L20.994,17.811L20.955,17.877L20.918,17.943L20.883,18.011L20.849,18.079L20.816,18.148L20.786,18.218L20.757,18.29L20.729,18.361L20.704,18.434L20.68,18.508L20.658,18.582L20.637,18.657L20.619,18.733L20.602,18.809L20.587,18.887L20.575,18.964L20.564,19.043L20.555,19.122L20.547,19.202L20.542,19.282L20.539,19.363L20.538,19.444L20.539,19.514L20.54,19.581L20.542,19.647L20.545,19.714L20.549,19.78L20.553,19.846L20.559,19.912L20.565,19.978L20.572,20.043L20.58,20.109L20.589,20.174L20.598,20.238L20.608,20.303L20.619,20.367L20.631,20.431L20.644,20.494L20.657,20.558L20.671,20.621L20.686,20.683L20.702,20.746L20.718,20.808L20.736,20.87L20.753,20.931L20.772,20.993L20.791,21.054L20.811,21.114L20.832,21.174L20.854,21.234L20.876,21.294L20.899,21.353L20.923,21.412L20.947,21.47L20.972,21.529L20.998,21.586L21.024,21.644L21.051,21.701L21.079,21.757L21.107,21.814L21.136,21.87L21.166,21.925L21.196,21.98L21.227,22.035L21.259,22.089L21.291,22.143L21.324,22.196L21.357,22.249L21.392,22.302L21.426,22.354L21.462,22.405L21.498,22.457L21.571,22.558L21.647,22.657L21.726,22.754L21.806,22.849L21.889,22.943L21.974,23.034L22.061,23.123L22.151,23.21L22.242,23.295L22.335,23.378L22.431,23.459L22.528,23.537L22.627,23.613L22.728,23.687L22.779,23.723L22.831,23.758L22.883,23.793L22.936,23.827L22.988,23.861L23.042,23.894L23.096,23.926L23.15,23.957L23.205,23.988L23.26,24.019L23.315,24.048L23.371,24.077L23.427,24.106L23.484,24.134L23.541,24.161L23.598,24.187L23.656,24.213L23.714,24.238L23.773,24.262L23.832,24.286L23.891,24.309L23.95,24.331L24.01,24.352L24.07,24.373L24.131,24.393L24.192,24.413L24.253,24.431L24.315,24.449L24.377,24.466L24.439,24.483L24.501,24.498L24.564,24.513L24.627,24.527L24.69,24.541L24.754,24.553L24.818,24.565L24.882,24.576L24.946,24.586L25.011,24.596L25.076,24.605L25.141,24.612L25.207,24.619L25.272,24.626L25.338,24.631L25.404,24.636L25.471,24.64L25.537,24.643L25.604,24.645L25.671,24.646L25.741,24.646L25.824,24.646L25.907,24.644L25.99,24.642L26.073,24.638L26.156,24.633L26.239,24.628L26.321,24.621L26.404,24.613L26.486,24.605L26.568,24.595L26.65,24.584L26.731,24.573L26.813,24.56L26.894,24.546L26.975,24.532L27.056,24.516L27.136,24.5L27.216,24.482L27.296,24.463L27.376,24.444L27.456,24.423L27.535,24.402L27.613,24.38L27.692,24.356L27.77,24.332L27.848,24.307L27.926,24.281L28.003,24.253L28.08,24.225L28.156,24.196L28.233,24.166L28.308,24.136L28.384,24.104L28.459,24.071L28.533,24.037L28.608,24.003L28.681,23.968L28.755,23.931L28.828,23.894L28.9,23.856L28.972,23.817L29.044,23.777L29.115,23.736L29.186,23.694L29.256,23.652L29.325,23.608L29.395,23.564L29.463,23.519L29.531,23.473L29.599,23.426L29.666,23.378L29.733,23.33L29.799,23.28L29.864,23.23L29.929,23.179L29.993,23.127L30.057,23.074L30.12,23.02L30.182,22.966L30.244,22.91L30.305,22.854L30.366,22.797L30.426,22.74L30.485,22.681L30.564,22.601L30.641,22.52L30.716,22.438L30.79,22.355L30.863,22.271L30.934,22.186L31.003,22.099L31.071,22.012L31.137,21.923L31.202,21.834L31.266,21.744L31.328,21.652L31.388,21.56L31.447,21.467L31.504,21.373L31.559,21.278L31.613,21.182L31.666,21.085L31.716,20.988L31.766,20.89L31.813,20.791L31.859,20.691L31.903,20.59L31.946,20.489L31.987,20.387L32.026,20.285L32.063,20.182L32.099,20.078L32.133,19.973L32.166,19.868L32.197,19.763L32.226,19.657L32.235,19.625L32.247,19.594L32.262,19.565L32.279,19.537L32.297,19.511L32.318,19.487L32.341,19.464L32.365,19.444L32.391,19.425L32.418,19.409L32.447,19.395L32.477,19.383L32.508,19.374L32.54,19.367L32.572,19.362L32.606,19.361L32.607,19.363L32.626,19.363L32.645,19.364L32.664,19.366L32.683,19.369L32.702,19.373L32.72,19.377L32.738,19.382L32.756,19.388L32.774,19.394L32.791,19.401L32.808,19.409L32.824,19.418L32.856,19.437L32.886,19.458L32.914,19.482L32.941,19.508L32.953,19.521L32.965,19.536L32.976,19.551L32.987,19.566L32.997,19.582L33.006,19.598L33.015,19.614L33.023,19.632L33.031,19.649L33.038,19.667L33.044,19.685L33.049,19.704L33.078,19.808L33.109,19.912L33.142,20.015L33.177,20.118L33.213,20.22L33.25,20.322L33.29,20.423L33.331,20.523L33.373,20.622L33.417,20.721L33.463,20.819L33.51,20.917L33.559,21.014L33.61,21.109L33.662,21.205L33.715,21.299L33.77,21.392L33.827,21.485L33.885,21.577L33.945,21.668L34.006,21.757L34.069,21.846L34.133,21.935L34.199,22.022L34.266,22.108L34.335,22.193L34.405,22.277L34.477,22.36L34.55,22.442L34.624,22.523L34.7,22.602L34.777,22.681L34.837,22.74L34.897,22.797L34.957,22.854L35.018,22.91L35.08,22.966L35.143,23.02L35.206,23.074L35.269,23.127L35.334,23.179L35.399,23.23L35.464,23.28L35.53,23.33L35.596,23.378L35.664,23.426L35.731,23.473L35.799,23.519L35.868,23.564L35.937,23.608L36.007,23.652L36.077,23.694L36.148,23.736L36.219,23.777L36.29,23.817L36.362,23.856L36.435,23.894L36.508,23.931L36.581,23.968L36.655,24.003L36.729,24.037L36.804,24.071L36.879,24.104L36.954,24.136L37.03,24.166L37.106,24.196L37.183,24.225L37.26,24.253L37.337,24.281L37.414,24.307L37.492,24.332L37.57,24.356L37.649,24.38L37.728,24.402L37.807,24.423L37.886,24.444L37.966,24.463L38.046,24.482L38.126,24.5L38.207,24.516L38.288,24.532L38.369,24.546L38.45,24.56L38.531,24.573L38.613,24.584L38.695,24.595L38.777,24.605L38.859,24.613L38.941,24.621L39.024,24.628L39.106,24.633L39.189,24.638L39.272,24.642L39.355,24.644L39.439,24.646L39.524,24.646L39.591,24.646L39.658,24.645L39.725,24.643L39.792,24.64L39.858,24.636L39.924,24.631L39.99,24.626L40.056,24.619L40.121,24.612L40.186,24.605L40.251,24.596L40.316,24.586L40.381,24.576L40.445,24.565L40.509,24.553L40.572,24.541L40.636,24.527L40.699,24.513L40.761,24.498L40.824,24.483L40.886,24.466L40.948,24.449L41.009,24.431L41.071,24.413L41.131,24.393L41.192,24.373L41.252,24.352L41.312,24.331L41.372,24.309L41.431,24.286L41.49,24.262L41.548,24.238L41.606,24.213L41.664,24.187L41.722,24.161L41.779,24.134L41.835,24.106L41.892,24.077L41.947,24.048L42.003,24.019L42.058,23.988L42.113,23.957L42.167,23.926L42.221,23.894L42.274,23.861L42.327,23.827L42.379,23.793L42.432,23.758L42.483,23.723L42.534,23.687L42.635,23.613L42.735,23.537L42.832,23.459L42.927,23.378L43.021,23.295L43.112,23.21L43.201,23.123L43.288,23.034L43.373,22.943L43.456,22.849L43.537,22.754L43.615,22.657L43.691,22.558L43.765,22.457L43.801,22.405L43.836,22.354L43.871,22.302L43.905,22.249L43.938,22.196L43.971,22.143L44.004,22.089L44.035,22.035L44.066,21.98L44.097,21.925L44.126,21.87L44.155,21.814L44.184,21.757L44.211,21.701L44.238,21.644L44.265,21.586L44.291,21.529L44.316,21.47L44.34,21.412L44.364,21.353L44.386,21.294L44.409,21.234L44.43,21.174L44.451,21.114L44.471,21.054L44.49,20.993L44.509,20.931L44.527,20.87L44.544,20.808L44.56,20.746L44.576,20.683L44.591,20.621L44.605,20.558L44.619,20.494L44.631,20.431L44.643,20.367L44.654,20.303L44.664,20.238L44.674,20.174L44.682,20.109L44.69,20.043L44.697,19.978L44.704,19.912L44.709,19.846L44.714,19.78L44.717,19.714L44.72,19.647L44.723,19.581L44.724,19.514L44.724,19.446L44.724,19.444L44.723,19.363L44.72,19.282L44.715,19.202L44.708,19.122L44.699,19.043L44.688,18.964L44.675,18.887L44.66,18.809L44.644,18.733L44.625,18.657L44.605,18.582L44.583,18.508L44.559,18.434L44.533,18.361L44.506,18.289L44.477,18.218L44.446,18.148L44.414,18.079L44.38,18.011L44.344,17.943L44.307,17.877L44.268,17.811L44.228,17.747L44.187,17.684L44.143,17.621L44.099,17.56L44.053,17.5L44.005,17.441L43.957,17.384L43.906,17.327L43.855,17.272L43.802,17.218L43.748,17.165L43.693,17.114L43.636,17.063L43.579,17.015L43.52,16.967L43.46,16.921L43.399,16.877L43.336,16.833L43.273,16.792L43.209,16.752L43.143,16.713L43.077,16.676L43.009,16.64L42.941,16.606L42.872,16.574L42.802,16.543L42.731,16.514L42.659,16.487L42.586,16.461L42.512,16.437L42.438,16.415L42.363,16.395L42.287,16.376L42.211,16.36L42.133,16.345L42.056,16.332L41.977,16.321L41.898,16.312L41.818,16.305L41.738,16.3L41.657,16.297L41.576,16.296L23.686,16.296Z" style="fill:#fff;"/>
    <path d="M23.686,16.296L41.576,16.296C43.315,16.296 44.724,17.705 44.724,19.444C44.724,19.445 44.724,19.445 44.724,19.446C44.724,22.318 42.396,24.646 39.524,24.646C39.523,24.646 39.523,24.646 39.522,24.646C37.742,24.646 36.036,23.939 34.777,22.681C33.945,21.849 33.354,20.82 33.049,19.704C32.996,19.503 32.815,19.363 32.607,19.363C32.606,19.361 32.606,19.361 32.606,19.361C32.426,19.361 32.27,19.483 32.226,19.657C31.925,20.791 31.329,21.837 30.485,22.681C29.227,23.939 27.52,24.646 25.741,24.646C25.74,24.646 25.739,24.646 25.738,24.646C22.866,24.646 20.538,22.318 20.538,19.446C20.538,19.445 20.538,19.445 20.538,19.444C20.538,17.705 21.948,16.296 23.686,16.296Z" style="fill:#2b307e;"/>
</svg>
