<?xml version="1.0" encoding="UTF-8" standalone="no"?>
<!DOCTYPE svg PUBLIC "-//W3C//DTD SVG 1.1//EN" "http://www.w3.org/Graphics/SVG/1.1/DTD/svg11.dtd">
<svg width="100%" height="100%" viewBox="0 0 65 64" version="1.1" xmlns="http://www.w3.org/2000/svg" xmlns:xlink="http://www.w3.org/1999/xlink" xml:space="preserve" xmlns:serif="http://www.serif.com/" style="fill-rule:evenodd;clip-rule:evenodd;stroke-linejoin:round;stroke-miterlimit:2;">
    <rect id="Epidemic-Deaths" serif:id="Epidemic Deaths" x="0.738" y="0" width="64" height="64" style="fill:none;"/>
    <path d="M45.558,52.118L45.558,55.612C45.558,58.501 43.216,60.843 40.327,60.844C35.895,60.844 29.572,60.844 25.142,60.844C22.257,60.844 19.919,58.505 19.919,55.62L19.919,52.118L19.798,52.118C15.145,52.118 11.373,48.346 11.373,43.693L11.373,39.647C8.673,35.925 7.1,31.459 7.1,26.659C7.1,13.687 18.588,3.156 32.738,3.156C46.889,3.156 58.377,13.687 58.377,26.659C58.377,31.459 56.803,35.925 54.104,39.647L54.104,43.622C54.104,45.876 53.209,48.036 51.616,49.63C50.022,51.223 47.862,52.118 45.608,52.118L45.558,52.118ZM30.602,60.844L30.602,56.57L26.329,56.57L26.329,60.844L30.602,60.844ZM39.148,60.844L39.148,56.57L34.875,56.57L34.875,60.844L39.148,60.844ZM30.813,52.297L32.738,50.276L34.875,52.297C34.875,52.297 35.594,52.297 36.443,52.297C36.986,52.297 37.485,52.002 37.746,51.527C38.008,51.051 37.99,50.471 37.699,50.013C35.809,47.032 32.738,42.191 32.738,42.191C32.738,42.191 29.697,46.986 27.805,49.97C27.509,50.437 27.49,51.028 27.756,51.512C28.023,51.996 28.532,52.297 29.084,52.297L30.813,52.297ZM43.52,33.068C47.112,33.068 50.028,35.968 50.028,39.54C50.028,43.112 47.112,46.012 43.52,46.012C39.928,46.012 37.011,43.112 37.011,39.54C37.011,35.968 39.928,33.068 43.52,33.068ZM22.154,32.944C25.746,32.944 28.662,35.844 28.662,39.416C28.662,42.988 25.746,45.888 22.154,45.888C18.562,45.888 15.646,42.988 15.646,39.416C15.646,35.844 18.562,32.944 22.154,32.944Z" style="fill:#f3775b;"/>
    <clipPath id="_clip1">
        <path d="M45.558,52.118L45.558,55.612C45.558,58.501 43.216,60.843 40.327,60.844C35.895,60.844 29.572,60.844 25.142,60.844C22.257,60.844 19.919,58.505 19.919,55.62L19.919,52.118L19.798,52.118C15.145,52.118 11.373,48.346 11.373,43.693L11.373,39.647C8.673,35.925 7.1,31.459 7.1,26.659C7.1,13.687 18.588,3.156 32.738,3.156C46.889,3.156 58.377,13.687 58.377,26.659C58.377,31.459 56.803,35.925 54.104,39.647L54.104,43.622C54.104,45.876 53.209,48.036 51.616,49.63C50.022,51.223 47.862,52.118 45.608,52.118L45.558,52.118ZM30.602,60.844L30.602,56.57L26.329,56.57L26.329,60.844L30.602,60.844ZM39.148,60.844L39.148,56.57L34.875,56.57L34.875,60.844L39.148,60.844ZM30.813,52.297L32.738,50.276L34.875,52.297C34.875,52.297 35.594,52.297 36.443,52.297C36.986,52.297 37.485,52.002 37.746,51.527C38.008,51.051 37.99,50.471 37.699,50.013C35.809,47.032 32.738,42.191 32.738,42.191C32.738,42.191 29.697,46.986 27.805,49.97C27.509,50.437 27.49,51.028 27.756,51.512C28.023,51.996 28.532,52.297 29.084,52.297L30.813,52.297ZM43.52,33.068C47.112,33.068 50.028,35.968 50.028,39.54C50.028,43.112 47.112,46.012 43.52,46.012C39.928,46.012 37.011,43.112 37.011,39.54C37.011,35.968 39.928,33.068 43.52,33.068ZM22.154,32.944C25.746,32.944 28.662,35.844 28.662,39.416C28.662,42.988 25.746,45.888 22.154,45.888C18.562,45.888 15.646,42.988 15.646,39.416C15.646,35.844 18.562,32.944 22.154,32.944Z"/>
    </clipPath>
    <g clip-path="url(#_clip1)">
        <g>
            <circle cx="23.865" cy="28.437" r="18.44" style="fill:#e8735a;"/>
            <circle cx="39.833" cy="28.112" r="18.44" style="fill:#e8735a;"/>
            <circle cx="30.815" cy="44.522" r="18.44" style="fill:#e8735a;"/>
            <circle cx="51.883" cy="17.002" r="6.26" style="fill:#e8735a;"/>
            <circle cx="15.443" cy="48.987" r="11.921" style="fill:#eea59c;fill-opacity:0.65;"/>
            <circle cx="30.768" cy="30.507" r="6.007" style="fill:#f1b1af;"/>
            <circle cx="18.307" cy="12.29" r="8.838" style="fill:#eea59c;fill-opacity:0.65;"/>
            <circle cx="36.79" cy="42.609" r="3.314" style="fill:#f1b1af;"/>
            <circle cx="41.531" cy="29.85" r="3.314" style="fill:#f1b1af;fill-opacity:0.59;"/>
            <circle cx="2.266" cy="37.663" r="3.314" style="fill:#f1998c;fill-opacity:0.59;"/>
            <circle cx="49.531" cy="40.38" r="3.314" style="fill:#f08972;"/>
            <circle cx="45.624" cy="54.838" r="6.879" style="fill:#ef928f;"/>
            <circle cx="54.503" cy="46.476" r="4.173" style="fill:#ef928f;"/>
            <circle cx="45.012" cy="17.621" r="6.879" style="fill:#ef928f;"/>
            <circle cx="22.97" cy="24.334" r="2.9" style="fill:#c84f4d;fill-opacity:0.69;"/>
            <circle cx="33.96" cy="54.487" r="4.785" style="fill:#c84f4d;fill-opacity:0.34;"/>
            <circle cx="25.87" cy="59.623" r="4.785" style="fill:#c84f4d;fill-opacity:0.34;"/>
            <circle cx="56.332" cy="28.918" r="8.149" style="fill:#c84f4d;"/>
            <circle cx="12.216" cy="29.133" r="7.393" style="fill:#c84f4d;fill-opacity:0.3;"/>
            <circle cx="38.133" cy="15.188" r="4.173" style="fill:#e8735a;"/>
            <circle cx="33.476" cy="5.255" r="4.173" style="fill:#c84f4d;fill-opacity:0.58;"/>
        </g>
    </g>
</svg>
