<?xml version="1.0" encoding="UTF-8" standalone="no"?>
<!DOCTYPE svg PUBLIC "-//W3C//DTD SVG 1.1//EN" "http://www.w3.org/Graphics/SVG/1.1/DTD/svg11.dtd">
<svg width="100%" height="100%" viewBox="0 0 64 65" version="1.1" xmlns="http://www.w3.org/2000/svg" xmlns:xlink="http://www.w3.org/1999/xlink" xml:space="preserve" xmlns:serif="http://www.serif.com/" style="fill-rule:evenodd;clip-rule:evenodd;stroke-linejoin:round;stroke-miterlimit:1.41421;">
    <rect id="Epidemic-Deaths" serif:id="Epidemic Deaths" x="0" y="0.297" width="64" height="64" style="fill:none;"/>
    <path d="M44.819,52.415L44.819,55.909C44.819,58.798 42.477,61.14 39.588,61.14C35.156,61.14 28.834,61.14 24.404,61.14C21.519,61.14 19.181,58.802 19.181,55.917L19.181,52.415L19.06,52.415C14.406,52.415 10.634,48.643 10.634,43.99L10.634,39.944C7.935,36.222 6.361,31.756 6.361,26.955C6.361,13.984 17.85,3.453 32,3.453C46.15,3.453 57.639,13.984 57.639,26.955C57.639,31.756 56.065,36.222 53.366,39.944L53.366,43.919C53.366,46.172 52.47,48.333 50.877,49.927C49.284,51.52 47.123,52.415 44.87,52.415L44.819,52.415ZM29.863,61.14L29.863,56.867L25.59,56.867L25.59,61.14L29.863,61.14ZM38.41,61.14L38.41,56.867L34.137,56.867L34.137,61.14L38.41,61.14ZM30.075,52.594L32,50.573L34.137,52.594C34.137,52.594 34.856,52.594 35.705,52.594C36.247,52.594 36.747,52.299 37.008,51.823C37.27,51.348 37.251,50.768 36.961,50.31C35.07,47.329 32,42.488 32,42.488C32,42.488 28.959,47.283 27.066,50.267C26.77,50.734 26.752,51.325 27.018,51.809C27.284,52.293 27.793,52.594 28.346,52.594L30.075,52.594ZM42.781,33.365C46.373,33.365 49.289,36.265 49.289,39.837C49.289,43.409 46.373,46.309 42.781,46.309C39.189,46.309 36.273,43.409 36.273,39.837C36.273,36.265 39.189,33.365 42.781,33.365ZM21.416,33.241C25.008,33.241 27.924,36.141 27.924,39.713C27.924,43.285 25.008,46.184 21.416,46.184C17.824,46.184 14.908,43.285 14.908,39.713C14.908,36.141 17.824,33.241 21.416,33.241Z" style="fill:#f3775b;"/>
    <clipPath id="_clip1">
        <path d="M44.819,52.415L44.819,55.909C44.819,58.798 42.477,61.14 39.588,61.14C35.156,61.14 28.834,61.14 24.404,61.14C21.519,61.14 19.181,58.802 19.181,55.917L19.181,52.415L19.06,52.415C14.406,52.415 10.634,48.643 10.634,43.99L10.634,39.944C7.935,36.222 6.361,31.756 6.361,26.955C6.361,13.984 17.85,3.453 32,3.453C46.15,3.453 57.639,13.984 57.639,26.955C57.639,31.756 56.065,36.222 53.366,39.944L53.366,43.919C53.366,46.172 52.47,48.333 50.877,49.927C49.284,51.52 47.123,52.415 44.87,52.415L44.819,52.415ZM29.863,61.14L29.863,56.867L25.59,56.867L25.59,61.14L29.863,61.14ZM38.41,61.14L38.41,56.867L34.137,56.867L34.137,61.14L38.41,61.14ZM30.075,52.594L32,50.573L34.137,52.594C34.137,52.594 34.856,52.594 35.705,52.594C36.247,52.594 36.747,52.299 37.008,51.823C37.27,51.348 37.251,50.768 36.961,50.31C35.07,47.329 32,42.488 32,42.488C32,42.488 28.959,47.283 27.066,50.267C26.77,50.734 26.752,51.325 27.018,51.809C27.284,52.293 27.793,52.594 28.346,52.594L30.075,52.594ZM42.781,33.365C46.373,33.365 49.289,36.265 49.289,39.837C49.289,43.409 46.373,46.309 42.781,46.309C39.189,46.309 36.273,43.409 36.273,39.837C36.273,36.265 39.189,33.365 42.781,33.365ZM21.416,33.241C25.008,33.241 27.924,36.141 27.924,39.713C27.924,43.285 25.008,46.184 21.416,46.184C17.824,46.184 14.908,43.285 14.908,39.713C14.908,36.141 17.824,33.241 21.416,33.241Z"/>
    </clipPath>
    <g clip-path="url(#_clip1)">
        <g>
            <circle cx="23.127" cy="28.734" r="18.44" style="fill:#e8735a;"/>
            <circle cx="39.095" cy="28.409" r="18.44" style="fill:#e8735a;"/>
            <circle cx="30.076" cy="44.819" r="18.44" style="fill:#e8735a;"/>
            <circle cx="51.145" cy="17.299" r="6.26" style="fill:#e8735a;"/>
            <circle cx="14.705" cy="49.284" r="11.921" style="fill:#eea59c;fill-opacity:0.654902;"/>
            <circle cx="30.03" cy="30.804" r="6.007" style="fill:#f1b1af;"/>
            <circle cx="17.569" cy="12.586" r="8.838" style="fill:#eea59c;fill-opacity:0.654902;"/>
            <circle cx="36.052" cy="42.906" r="3.314" style="fill:#f1b1af;"/>
            <circle cx="40.793" cy="30.147" r="3.314" style="fill:#f1b1af;fill-opacity:0.588235;"/>
            <circle cx="1.528" cy="37.96" r="3.314" style="fill:#f1998c;fill-opacity:0.588235;"/>
            <circle cx="48.792" cy="40.677" r="3.314" style="fill:#f08972;"/>
            <circle cx="44.886" cy="55.134" r="6.879" style="fill:#ef928f;"/>
            <circle cx="53.764" cy="46.773" r="4.173" style="fill:#ef928f;"/>
            <circle cx="44.273" cy="17.918" r="6.879" style="fill:#ef928f;"/>
            <circle cx="22.232" cy="24.631" r="2.9" style="fill:#c84f4d;fill-opacity:0.686275;"/>
            <circle cx="33.221" cy="54.783" r="4.785" style="fill:#c84f4d;fill-opacity:0.341176;"/>
            <circle cx="25.132" cy="59.92" r="4.785" style="fill:#c84f4d;fill-opacity:0.341176;"/>
            <circle cx="55.594" cy="29.215" r="8.149" style="fill:#c84f4d;"/>
            <circle cx="11.478" cy="29.43" r="7.393" style="fill:#c84f4d;fill-opacity:0.298039;"/>
            <circle cx="37.395" cy="15.485" r="4.173" style="fill:#e8735a;"/>
            <circle cx="32.738" cy="5.552" r="4.173" style="fill:#c84f4d;fill-opacity:0.584314;"/>
        </g>
    </g>
</svg>
