<?xml version="1.0" encoding="UTF-8" standalone="no"?>
<!DOCTYPE svg PUBLIC "-//W3C//DTD SVG 1.1//EN" "http://www.w3.org/Graphics/SVG/1.1/DTD/svg11.dtd">
<svg width="100%" height="100%" viewBox="0 0 65 65" version="1.1" xmlns="http://www.w3.org/2000/svg" xmlns:xlink="http://www.w3.org/1999/xlink" xml:space="preserve" xmlns:serif="http://www.serif.com/" style="fill-rule:evenodd;clip-rule:evenodd;stroke-linejoin:round;stroke-miterlimit:2;">
    <rect id="First-Aid" x="0.738" y="0.413" width="64" height="64" style="fill:none;"/>
    <path d="M61.621,56.803C60.235,56.187 58.735,55.868 57.218,55.868C48.7,55.868 19.101,55.868 12.377,55.868C11.475,55.868 10.581,56.039 9.742,56.371C9.312,56.541 8.817,56.737 8.332,56.93C8.12,57.014 7.998,57.236 8.04,57.46C8.083,57.684 8.279,57.847 8.507,57.847C17.989,57.847 51.788,57.847 61.4,57.847C61.658,57.847 61.88,57.666 61.933,57.415C61.987,57.163 61.857,56.908 61.622,56.804C61.622,56.803 61.621,56.803 61.621,56.803Z" style="fill:#cecfeb;"/>
    <rect x="10.414" y="53.678" width="11.869" height="3.345" style="fill:#c36663;"/>
    <rect x="42.043" y="53.678" width="11.869" height="3.345" style="fill:#c36663;"/>
    <path d="M37.798,10.084C39.641,10.153 41.249,11.713 41.332,13.617C41.365,18.216 41.899,23.24 38.867,25.986C36.729,27.921 33.545,27.945 30.427,27.925C26.568,27.854 23.115,24.492 22.995,20.586C22.899,15.883 22.093,10.249 26.528,10.084C30.284,10.037 34.041,10.038 37.798,10.084ZM26.627,13.083C26.291,13.087 26.005,13.363 25.993,13.693C25.951,16.617 25.495,19.862 26.278,21.979C27.456,25.167 32.775,25.55 35.298,24.681C38.709,23.505 38.601,18.283 38.331,13.659C38.304,13.362 38.056,13.111 37.754,13.084C34.052,12.856 30.336,13.083 26.627,13.083Z" style="fill:#2b307e;"/>
    <path d="M54.163,55.306C55.82,55.306 57.163,53.963 57.163,52.306C57.163,45.201 57.163,27.411 57.163,20.306C57.163,18.649 55.82,17.306 54.163,17.306C45.261,17.306 19.064,17.306 10.163,17.306C8.506,17.306 7.163,18.649 7.163,20.306C7.163,27.411 7.163,45.201 7.163,52.306C7.163,53.963 8.506,55.306 10.163,55.306C19.064,55.306 45.261,55.306 54.163,55.306Z" style="fill:#f3775b;"/>
    <clipPath id="_clip1">
        <path d="M54.163,55.306C55.82,55.306 57.163,53.963 57.163,52.306C57.163,45.201 57.163,27.411 57.163,20.306C57.163,18.649 55.82,17.306 54.163,17.306C45.261,17.306 19.064,17.306 10.163,17.306C8.506,17.306 7.163,18.649 7.163,20.306C7.163,27.411 7.163,45.201 7.163,52.306C7.163,53.963 8.506,55.306 10.163,55.306C19.064,55.306 45.261,55.306 54.163,55.306Z"/>
    </clipPath>
    <g clip-path="url(#_clip1)">
        <path d="M60.163,19.306L4.163,55.306L4.163,63.306L60.163,63.306L60.163,19.306Z" style="fill:#df705f;"/>
    </g>
    <path d="M22.283,33.308L29.165,33.308L29.165,26.426L35.16,26.426L35.16,33.308L42.043,33.308L42.043,39.303L35.16,39.303L35.16,46.186L29.165,46.186L29.165,39.303L22.283,39.303L22.283,33.308Z" style="fill:#fff;"/>
    <clipPath id="_clip2">
        <path d="M22.283,33.308L29.165,33.308L29.165,26.426L35.16,26.426L35.16,33.308L42.043,33.308L42.043,39.303L35.16,39.303L35.16,46.186L29.165,46.186L29.165,39.303L22.283,39.303L22.283,33.308Z"/>
    </clipPath>
    <g clip-path="url(#_clip2)">
        <path d="M60.163,19.306L4.163,55.306L4.163,63.306L60.163,63.306L60.163,19.306Z" style="fill:#2b307e;fill-opacity:0.1;"/>
    </g>
    <path d="M22.283,17.306L13.146,17.306L13.146,20.349C13.146,20.673 13.274,20.983 13.503,21.211C13.732,21.44 14.042,21.569 14.365,21.569C16.114,21.569 19.316,21.569 21.064,21.569C21.387,21.569 21.697,21.44 21.926,21.212C22.154,20.983 22.283,20.673 22.283,20.35C22.283,19.091 22.283,17.306 22.283,17.306Z" style="fill:#f4c3bd;"/>
    <path d="M51.18,17.306L42.043,17.306L42.043,20.35C42.043,21.023 42.588,21.569 43.262,21.569C45.008,21.569 48.204,21.569 49.954,21.569C50.631,21.569 51.18,21.02 51.18,20.343C51.18,19.084 51.18,17.306 51.18,17.306Z" style="fill:#f4c3bd;"/>
    <path d="M22.283,17.306L13.146,17.306L13.146,19.077C13.146,19.4 13.274,19.71 13.503,19.939C13.732,20.168 14.042,20.296 14.365,20.296C16.114,20.296 19.316,20.296 21.064,20.296C21.737,20.296 22.283,19.751 22.283,19.078C22.283,18.25 22.283,17.306 22.283,17.306Z" style="fill:#2b307e;"/>
    <path d="M51.18,17.306L42.043,17.306L42.043,19.077C42.043,19.75 42.588,20.296 43.262,20.296C45.008,20.296 48.204,20.296 49.954,20.296C50.631,20.296 51.18,19.747 51.18,19.071C51.18,18.245 51.18,17.306 51.18,17.306Z" style="fill:#2b307e;"/>
</svg>
