<?xml version="1.0" encoding="UTF-8" standalone="no"?>
<!DOCTYPE svg PUBLIC "-//W3C//DTD SVG 1.1//EN" "http://www.w3.org/Graphics/SVG/1.1/DTD/svg11.dtd">
<svg width="100%" height="100%" viewBox="0 0 65 65" version="1.1" xmlns="http://www.w3.org/2000/svg" xmlns:xlink="http://www.w3.org/1999/xlink" xml:space="preserve" xmlns:serif="http://www.serif.com/" style="fill-rule:evenodd;clip-rule:evenodd;stroke-linecap:round;stroke-linejoin:round;stroke-miterlimit:1;">
    <rect id="Food-Service" x="0.738" y="0.458" width="64" height="64" style="fill:none;"/>
    <path d="M27.26,48.558L31.693,34.786L35.398,34.809L34.116,47.129L27.26,48.558Z" style="fill:#c84f4d;"/>
    <circle cx="32.87" cy="11.934" r="3.796" style="fill:none;stroke:#bec0e6;stroke-width:1.5px;"/>
    <path d="M53.42,31.84L12.056,31.84C12.056,20.425 21.324,11.158 32.738,11.158C44.153,11.158 53.42,20.425 53.42,31.84Z" style="fill:#cecfeb;"/>
    <clipPath id="_clip1">
        <path d="M53.42,31.84L12.056,31.84C12.056,20.425 21.324,11.158 32.738,11.158C44.153,11.158 53.42,20.425 53.42,31.84Z"/>
    </clipPath>
    <g clip-path="url(#_clip1)">
        <path d="M39.278,11.877C39.278,11.877 46.77,16.505 46.817,31.714L58.704,31.84C58.704,31.84 51.114,11.877 39.278,11.877Z" style="fill:#aaacdd;"/>
    </g>
    <path d="M29.232,17.192L29.191,17.211L29.105,17.249L29.11,17.247L28.983,17.304L28.989,17.303L28.863,17.361L28.868,17.36L28.743,17.419L28.749,17.417L28.624,17.477L28.63,17.476L28.506,17.537L28.512,17.535L28.474,17.554L28.388,17.594L28.394,17.592L28.27,17.649L28.276,17.647L28.152,17.706L28.159,17.704L28.036,17.764L28.042,17.761L27.92,17.822L27.927,17.82L27.805,17.882L27.812,17.879L27.691,17.942L27.698,17.94L27.577,18.004L27.584,18.001L27.528,18.031L27.463,18.063L27.47,18.06L27.349,18.12L27.356,18.117L27.235,18.178L27.242,18.175L27.122,18.237L27.129,18.234L27.023,18.29L27.01,18.296L27.017,18.293L26.896,18.353L26.904,18.35L26.784,18.41L26.791,18.407L26.779,18.413L26.67,18.466L26.677,18.463L26.557,18.522L26.564,18.519L26.53,18.536L26.443,18.577L26.45,18.574L26.33,18.632L26.337,18.629L26.217,18.688L26.224,18.685L26.105,18.745L26.111,18.742L25.993,18.803L26,18.8L25.881,18.862L25.888,18.859L25.771,18.922L25.778,18.919L25.661,18.983L25.667,18.979L25.551,19.045L25.558,19.041L25.474,19.09L25.442,19.108L25.449,19.104L25.333,19.17L25.339,19.166L25.224,19.233L25.231,19.229L25.116,19.298L25.123,19.294L25.009,19.363L25.015,19.359L24.902,19.429L24.909,19.425L24.796,19.496L24.802,19.492L24.691,19.565L24.697,19.56L24.586,19.634L24.592,19.629L24.481,19.703L24.487,19.699L24.377,19.774L24.383,19.77L24.274,19.846L24.28,19.841L24.216,19.887L24.172,19.918L24.178,19.914L24.069,19.991L24.075,19.986L23.967,20.064L23.973,20.06L23.866,20.139L23.872,20.134L23.765,20.214L23.771,20.209L23.666,20.29L23.671,20.285L23.566,20.367L23.572,20.362L23.468,20.445L23.473,20.44L23.37,20.524L23.375,20.519L23.272,20.603L23.278,20.599L23.176,20.684L23.181,20.679L23.08,20.765L23.085,20.76L22.985,20.847L22.99,20.843L22.89,20.93L22.895,20.926L22.796,21.014L22.801,21.01L22.703,21.099L22.708,21.094L22.611,21.184L22.616,21.18L22.519,21.271L22.524,21.266L22.428,21.358L22.433,21.353L22.338,21.446L22.343,21.441L22.249,21.535L22.253,21.53L22.16,21.624L22.165,21.619L22.072,21.715L22.076,21.71L21.985,21.806L21.989,21.801L21.898,21.898L21.903,21.893L21.813,21.991L21.817,21.986L21.728,22.084L21.732,22.079L21.644,22.178L21.648,22.173L21.581,22.25L21.56,22.273L21.564,22.268L21.477,22.369L21.481,22.364L21.395,22.465L21.399,22.46L21.314,22.562L21.317,22.557L21.233,22.659L21.237,22.654L21.153,22.758L21.157,22.753L21.074,22.857L21.078,22.852L20.996,22.957L20.999,22.952L20.919,23.057L20.922,23.052L20.842,23.159L20.845,23.154L20.766,23.261L20.77,23.256L20.691,23.364L20.695,23.359L20.618,23.467L20.621,23.462L20.544,23.571L20.548,23.566L20.472,23.676L20.475,23.671L20.401,23.782L20.404,23.777L20.33,23.888L20.333,23.883L20.261,23.995L20.264,23.99L20.192,24.103L20.195,24.098L20.124,24.211L20.127,24.206L20.057,24.32L20.06,24.315L19.991,24.43L19.994,24.425L19.926,24.541L19.929,24.536L19.862,24.652L19.865,24.647L19.799,24.763L19.802,24.758L19.737,24.876L19.739,24.871L19.675,24.989L19.678,24.984L19.615,25.102L19.618,25.097L19.556,25.217L19.558,25.212L19.505,25.316L19.497,25.332L19.5,25.327L19.44,25.447L19.442,25.442L19.383,25.563L19.385,25.558L19.327,25.68L19.329,25.675L19.272,25.797L19.274,25.792L19.218,25.915L19.22,25.91L19.165,26.033L19.167,26.029L19.114,26.153L19.115,26.148L19.063,26.272L19.065,26.267L19.013,26.393L19.015,26.388L18.964,26.513L18.966,26.509L18.917,26.635L18.918,26.63L18.87,26.757L18.871,26.752L18.824,26.88L18.826,26.875L18.78,27.003L18.781,26.998L18.736,27.127L18.738,27.122L18.694,27.251L18.695,27.246L18.652,27.376L18.654,27.371L18.612,27.501L18.613,27.497L18.573,27.627L18.574,27.623L18.535,27.754L18.536,27.749L18.497,27.881L18.499,27.876L18.462,28.008L18.463,28.004L18.427,28.137L18.428,28.132L18.411,28.195L18.393,28.265L17.812,28.635L17.442,28.054L17.455,27.982L17.467,27.918L17.468,27.914L17.494,27.779L17.495,27.775L17.522,27.641L17.523,27.636L17.552,27.502L17.553,27.498L17.583,27.364L17.584,27.36L17.615,27.227L17.616,27.222L17.648,27.089L17.649,27.085L17.682,26.953L17.684,26.948L17.718,26.816L17.719,26.812L17.755,26.68L17.756,26.676L17.793,26.545L17.795,26.54L17.832,26.41L17.834,26.405L17.873,26.275L17.874,26.27L17.914,26.141L17.916,26.136L17.957,26.007L17.959,26.002L18.001,25.874L18.003,25.869L18.047,25.741L18.048,25.736L18.093,25.609L18.095,25.604L18.14,25.477L18.142,25.472L18.189,25.346L18.191,25.341L18.239,25.215L18.241,25.21L18.29,25.085L18.292,25.08L18.342,24.955L18.344,24.95L18.395,24.825L18.398,24.821L18.404,24.805L18.45,24.697L18.452,24.692L18.506,24.569L18.508,24.564L18.563,24.441L18.565,24.436L18.621,24.314L18.623,24.309L18.68,24.188L18.683,24.183L18.74,24.062L18.743,24.057L18.802,23.937L18.804,23.932L18.864,23.812L18.867,23.807L18.927,23.688L18.93,23.683L18.992,23.564L18.995,23.559L19.058,23.441L19.061,23.437L19.124,23.319L19.127,23.314L19.192,23.197L19.195,23.192L19.261,23.076L19.264,23.071L19.331,22.956L19.334,22.951L19.402,22.836L19.405,22.831L19.474,22.717L19.477,22.712L19.547,22.598L19.55,22.593L19.621,22.48L19.625,22.475L19.696,22.363L19.7,22.358L19.772,22.247L19.776,22.242L19.849,22.131L19.853,22.126L19.928,22.016L19.931,22.011L20.007,21.901L20.01,21.896L20.087,21.787L20.091,21.782L20.168,21.674L20.172,21.669L20.25,21.562L20.254,21.557L20.333,21.45L20.337,21.445L20.417,21.339L20.421,21.334L20.441,21.309L20.503,21.229L20.507,21.224L20.589,21.12L20.594,21.115L20.677,21.011L20.681,21.007L20.765,20.904L20.77,20.899L20.855,20.797L20.859,20.792L20.945,20.691L20.95,20.686L21.037,20.586L21.041,20.581L21.129,20.481L21.133,20.476L21.222,20.377L21.227,20.373L21.316,20.275L21.321,20.27L21.411,20.172L21.416,20.168L21.507,20.071L21.512,20.066L21.604,19.971L21.609,19.966L21.701,19.871L21.706,19.866L21.8,19.772L21.805,19.767L21.899,19.674L21.904,19.669L22,19.577L22.005,19.572L22.101,19.48L22.106,19.476L22.203,19.385L22.208,19.38L22.306,19.29L22.311,19.286L22.41,19.196L22.415,19.192L22.514,19.104L22.52,19.099L22.62,19.012L22.625,19.007L22.726,18.92L22.732,18.916L22.833,18.83L22.839,18.826L22.941,18.741L22.947,18.736L23.05,18.652L23.056,18.648L23.16,18.565L23.166,18.56L23.208,18.527L23.271,18.479L23.277,18.474L23.383,18.394L23.389,18.39L23.495,18.31L23.501,18.306L23.609,18.227L23.615,18.223L23.723,18.145L23.729,18.141L23.838,18.064L23.844,18.06L23.954,17.984L23.96,17.98L24.07,17.905L24.077,17.901L24.188,17.827L24.194,17.823L24.306,17.75L24.312,17.746L24.424,17.674L24.431,17.67L24.544,17.599L24.551,17.595L24.582,17.576L24.665,17.526L24.671,17.522L24.786,17.454L24.793,17.45L24.909,17.383L24.916,17.379L25.032,17.313L25.039,17.31L25.156,17.245L25.163,17.241L25.28,17.177L25.287,17.174L25.405,17.111L25.412,17.107L25.531,17.045L25.538,17.042L25.657,16.981L25.665,16.977L25.751,16.934L25.785,16.918L25.792,16.915L25.914,16.859L25.921,16.856L26.031,16.807L26.044,16.801L26.051,16.798L26.176,16.748L26.183,16.745L26.308,16.695L26.316,16.692L26.329,16.687L26.443,16.648L26.45,16.645L26.578,16.602L26.585,16.599L26.714,16.557L26.721,16.554L26.85,16.514L26.857,16.511L26.925,16.49L26.987,16.474L26.994,16.472L27.126,16.439L27.133,16.437L27.266,16.406L27.272,16.403L27.405,16.374L27.412,16.371L27.545,16.343L27.552,16.34L27.686,16.313L27.692,16.311L27.826,16.284L27.832,16.282L27.967,16.257L27.973,16.255L28.066,16.239L28.108,16.233L28.114,16.231L28.251,16.214L28.257,16.213L28.394,16.197L28.4,16.195L28.537,16.181L28.543,16.179L28.68,16.166L28.686,16.164L28.824,16.152L28.829,16.151L28.922,16.144L28.967,16.141L28.972,16.14L29.112,16.134L29.116,16.133L29.256,16.129L29.867,16.487L29.477,17.078L29.349,17.135L29.354,17.134L29.227,17.193L29.232,17.192Z" style="fill:#fff;"/>
    <path d="M17.917,28.159C19.164,22.428 23.655,17.902 29.366,16.603" style="fill:none;"/>
    <clipPath id="_clip2">
        <path d="M17.917,28.159C19.164,22.428 23.655,17.902 29.366,16.603"/>
    </clipPath>
    <g clip-path="url(#_clip2)">
        <rect x="32.738" y="10.343" width="17.6" height="24.178" style="fill:#cecfeb;"/>
    </g>
    <path d="M57.851,34.273L7.626,34.273C7.626,34.273 9.253,35.227 10.553,35.989C11.591,36.597 12.772,36.918 13.974,36.918C20.801,36.918 44.675,36.918 51.502,36.918C52.705,36.918 53.886,36.597 54.923,35.989C56.223,35.227 57.851,34.273 57.851,34.273Z" style="fill:#cecfeb;"/>
    <clipPath id="_clip3">
        <path d="M57.851,34.273L7.626,34.273C7.626,34.273 9.253,35.227 10.553,35.989C11.591,36.597 12.772,36.918 13.974,36.918C20.801,36.918 44.675,36.918 51.502,36.918C52.705,36.918 53.886,36.597 54.923,35.989C56.223,35.227 57.851,34.273 57.851,34.273Z"/>
    </clipPath>
    <g clip-path="url(#_clip3)">
        <rect x="1.538" y="23.618" width="69.578" height="11.978" style="fill:#aaacdd;"/>
    </g>
    <path d="M59.946,33.734C59.946,33.36 59.642,33.056 59.268,33.056C53.451,33.056 12.026,33.056 6.209,33.056C5.834,33.056 5.531,33.36 5.531,33.734C5.531,33.734 5.531,33.734 5.531,33.734C5.531,34.109 5.834,34.412 6.209,34.412C12.026,34.412 53.451,34.412 59.268,34.412C59.642,34.412 59.946,34.109 59.946,33.734C59.946,33.734 59.946,33.734 59.946,33.734Z" style="fill:#e1e2f3;"/>
    <path d="M14.475,48.08C14.475,48.08 16.724,45.922 18.201,44.505C19.003,43.736 19.437,42.662 19.396,41.553C19.35,40.332 19.291,38.722 19.248,37.58C19.217,36.738 19.739,35.974 20.536,35.697C20.536,35.697 20.536,35.697 20.537,35.697C21.218,35.46 21.97,35.755 22.309,36.392C22.943,37.582 23.974,39.52 24.825,41.118C25.669,42.703 27.493,43.498 29.228,43.038C30.575,42.681 32.098,42.278 33.146,42C33.986,41.777 34.755,41.339 35.374,40.728C36.51,39.61 38.433,37.715 39.802,36.366C40.841,35.344 42.198,34.708 43.648,34.565C43.977,34.533 44.315,34.5 44.638,34.468C44.977,34.434 45.304,34.607 45.467,34.905C45.631,35.204 45.601,35.572 45.39,35.84C43.307,38.491 39.097,43.85 36.865,46.691C35.895,47.925 34.709,48.973 33.364,49.782C29.137,52.325 19.794,57.947 19.794,57.947L14.475,48.08Z" style="fill:#f3775b;"/>
    <clipPath id="_clip4">
        <path d="M14.475,48.08C14.475,48.08 16.724,45.922 18.201,44.505C19.003,43.736 19.437,42.662 19.396,41.553C19.35,40.332 19.291,38.722 19.248,37.58C19.217,36.738 19.739,35.974 20.536,35.697C20.536,35.697 20.536,35.697 20.537,35.697C21.218,35.46 21.97,35.755 22.309,36.392C22.943,37.582 23.974,39.52 24.825,41.118C25.669,42.703 27.493,43.498 29.228,43.038C30.575,42.681 32.098,42.278 33.146,42C33.986,41.777 34.755,41.339 35.374,40.728C36.51,39.61 38.433,37.715 39.802,36.366C40.841,35.344 42.198,34.708 43.648,34.565C43.977,34.533 44.315,34.5 44.638,34.468C44.977,34.434 45.304,34.607 45.467,34.905C45.631,35.204 45.601,35.572 45.39,35.84C43.307,38.491 39.097,43.85 36.865,46.691C35.895,47.925 34.709,48.973 33.364,49.782C29.137,52.325 19.794,57.947 19.794,57.947L14.475,48.08Z"/>
    </clipPath>
    <g clip-path="url(#_clip4)">
        <path d="M-12.528,64.458C-12.528,64.458 17.424,52.721 29.417,48.022C32.626,46.764 35.501,44.783 37.819,42.233C42.778,36.778 51.216,27.494 51.216,27.494L43.404,54.58L15.477,63.578L-12.528,64.458Z" style="fill:#c84f4d;"/>
    </g>
    <path d="M14.624,46.617L9.876,49.358L16.329,60.536L21.077,57.795L14.624,46.617Z" style="fill:#e1e2f3;"/>
    <clipPath id="_clip5">
        <path d="M14.624,46.617L9.876,49.358L16.329,60.536L21.077,57.795L14.624,46.617Z"/>
    </clipPath>
    <g clip-path="url(#_clip5)">
        <path d="M22.036,50.719L0.738,58.387L13.799,67.546L27.263,59.773L22.036,50.719Z" style="fill:#cecfeb;"/>
    </g>
    <circle cx="17.912" cy="57.513" r="0.711" style="fill:#fff;"/>
</svg>
