<?xml version="1.0" encoding="UTF-8" standalone="no"?><!DOCTYPE svg PUBLIC "-//W3C//DTD SVG 1.1//EN" "http://www.w3.org/Graphics/SVG/1.1/DTD/svg11.dtd"><svg width="125px" height="73px" version="1.1" xmlns="http://www.w3.org/2000/svg" xmlns:xlink="http://www.w3.org/1999/xlink" xml:space="preserve" xmlns:serif="http://www.serif.com/" style="fill-rule:evenodd;clip-rule:evenodd;stroke-linejoin:round;stroke-miterlimit:2;"><rect id="hand-with-salt-spoon" x="0" y="0.295" width="124.827" height="71.884" style="fill:none;"/><clipPath id="_clip1"><rect x="0" y="0.295" width="124.827" height="71.884"/></clipPath><g clip-path="url(#_clip1)"><path d="M-0.988,12.607c0,0 10.499,0.79 18.273,2.149c7.774,1.36 16.509,3.741 22.417,7.216c5.908,3.474 17.181,11.366 21.872,14.496c6.465,4.314 1.543,13.698 -2.538,14.345c-4.08,0.647 -60.024,-24.531 -60.024,-24.531l0,-13.675Z" style="fill:#f3775b;"/><path d="M25.686,40.299c0,0 31.051,0.774 46.773,5.517c13.89,4.189 15.048,7.537 26.603,13.485c6.508,3.35 22.237,3.076 25.212,-2.528c1.375,-2.589 -21.677,-1.029 -29.24,-3.544c-5.51,-1.833 -18.787,-11.317 -37.668,-12.464c-15.168,-0.922 -31.68,-0.466 -31.68,-0.466Z" style="fill:#9598bf;"/><clipPath id="_clip2"><path d="M25.686,40.299c0,0 31.051,0.774 46.773,5.517c13.89,4.189 15.048,7.537 26.603,13.485c6.508,3.35 22.237,3.076 25.212,-2.528c1.375,-2.589 -21.677,-1.029 -29.24,-3.544c-5.51,-1.833 -18.787,-11.317 -37.668,-12.464c-15.168,-0.922 -31.68,-0.466 -31.68,-0.466Z"/></clipPath><g clip-path="url(#_clip2)"><path d="M66.149,38.37c0,0 -1.069,4.23 4.762,5.901c6.954,1.992 11.364,3.872 18.699,7.763c6.666,3.537 10.806,-5.978 11.091,-9.246c0.285,-3.267 -34.552,-4.418 -34.552,-4.418Z" style="fill:#c4c6db;"/><path d="M84.165,50.832c0,0 13.995,9.608 28.403,8.415c15.767,-1.305 18.355,-5.024 18.355,-5.024l-2.329,11.874l-43.368,1.94l-1.061,-17.205Z" style="fill:#656aa2;"/><path d="M41.902,38.612c0,0 18.812,0.198 21.613,1.698c2.801,1.5 1.442,3.498 12.726,7.403l-34.795,-4.691l0.456,-4.41Z" style="fill:#717496;"/></g><path d="M-0.988,2.865c0,0 25.739,5.053 32.705,10.594c6.967,5.542 21.042,16.568 23.327,17.728c2.286,1.16 8.692,3.398 8.692,3.398c0,0 1.474,6.395 -6.072,7.415c-7.545,1.019 -4.642,1.546 -7.758,-0.126c0,0 2.885,5.11 -2.152,9.434c-5.037,4.323 -9.855,0.124 -9.855,0.124c0,0 0.342,2.71 -4.368,5.537c-4.71,2.826 -10.504,-1.276 -10.504,-1.276c0,0 1.307,10.37 -24.015,5.614l0,-58.442Z" style="fill:#f3ab9b;"/><clipPath id="_clip3"><path d="M-0.988,2.865c0,0 25.739,5.053 32.705,10.594c6.967,5.542 21.042,16.568 23.327,17.728c2.286,1.16 8.692,3.398 8.692,3.398c0,0 1.474,6.395 -6.072,7.415c-7.545,1.019 -4.642,1.546 -7.758,-0.126c0,0 2.885,5.11 -2.152,9.434c-5.037,4.323 -9.855,0.124 -9.855,0.124c0,0 0.342,2.71 -4.368,5.537c-4.71,2.826 -10.504,-1.276 -10.504,-1.276c0,0 1.307,10.37 -24.015,5.614l0,-58.442Z"/></clipPath><g clip-path="url(#_clip3)"><path d="M-9.834,70.635l-4.07,-77.37c0,0 1.665,18.002 34.225,20.377c3.334,0.244 11.584,3.231 20.086,9.664c18.295,13.843 30.388,4.631 30.388,4.631l-3.15,19.776c0,0 -8.456,-0.095 -17.365,-4.905c-6.203,-3.349 -14.26,-14.576 -24.985,-14.871c0,0 7.281,1.015 12.267,8.3c2.93,4.282 8.192,4.206 11.041,6.57c1.206,1.001 2.605,10.829 2.605,10.829l-61.042,16.999Z" style="fill:#f3775b;"/><clipPath id="_clip4"><path d="M-9.834,70.635l-4.07,-77.37c0,0 1.665,18.002 34.225,20.377c3.334,0.244 11.584,3.231 20.086,9.664c18.295,13.843 30.388,4.631 30.388,4.631l-3.15,19.776c0,0 -8.456,-0.095 -17.365,-4.905c-6.203,-3.349 -14.26,-14.576 -24.985,-14.871c0,0 7.281,1.015 12.267,8.3c2.93,4.282 8.192,4.206 11.041,6.57c1.206,1.001 2.605,10.829 2.605,10.829l-61.042,16.999Z"/></clipPath><g clip-path="url(#_clip4)"><path d="M40.529,36.26c0,0 16.532,6.154 26.003,-2.69c9.472,-8.843 -4.119,18.219 -4.119,18.219l-17.583,-11.879l-4.301,-3.65Z" style="fill:#e1594f;"/></g><path d="M64.896,33.535c0,0 -4.265,0.982 -7.799,-1.927c-1.848,0.098 -3.307,0.785 -4.465,1.931c-0.211,0.215 -0.289,0.526 -0.206,0.815c0.084,0.288 0.316,0.51 0.609,0.578c2.83,0.705 9.543,1.957 11.861,-1.397Z" style="fill:#f5b9ac;"/><path d="M-0.988,63.327l18.273,2.23c-1.848,-0.035 -22.806,-14.531 -16.155,-20.711c4.198,-3.903 11.775,0.819 11.775,0.819c0,0 -4.983,-6.256 -0.729,-9.428c4.253,-3.171 14.317,5.053 14.317,5.053c-5.263,-5.324 -7.661,-9.482 -4.377,-12.635c0,0 -9.496,7.007 -34.162,-0.162c-17.159,-4.987 5.175,24.953 11.058,34.834Z" style="fill:#e1594f;"/><path d="M2.012,53.45c0,0 16.176,12.688 20.437,1.833l-10.118,-10.04c0,0 17.277,14.533 25.936,6.473l-10.385,-9.029c0,0 14.919,12.502 24.511,3.007c4.395,-4.35 -6.2,24.941 -6.2,24.941l-50.98,3.309l6.799,-20.494Z" style="fill:#e1594f;"/></g><path d="M2.203,45.417c-2.347,1.746 -0.342,4.596 1.231,6.282c0.936,1.004 2.374,1.364 3.673,0.921c1.3,-0.426 2.114,-1.137 3.045,-2.748c0.508,-0.737 0.359,-1.741 -0.341,-2.299c-1.755,-1.44 -5.361,-3.828 -7.608,-2.156Z" style="fill:#f5937d;fill-opacity:0.52;"/><g><path d="M110.472,50.687c4.851,0.139 12.489,3.266 12.398,5.197c-0.09,1.932 -8.69,2.851 -15.577,2.495c-6.887,-0.356 -9.47,-1.853 -9.38,-3.785c0.09,-1.932 7.362,-4.055 12.559,-3.907Z" style="fill:#f9f9fb;"/><clipPath id="_clip5"><path d="M110.472,50.687c4.851,0.139 12.489,3.266 12.398,5.197c-0.09,1.932 -8.69,2.851 -15.577,2.495c-6.887,-0.356 -9.47,-1.853 -9.38,-3.785c0.09,-1.932 7.362,-4.055 12.559,-3.907Z"/></clipPath><g clip-path="url(#_clip5)"><path d="M104.451,60.129c0,0 11.433,-3.339 7.916,-12.669l14.322,4.95l-1.952,10.377l-20.286,-2.658Z" style="fill:#d2d4ea;"/></g><g><path d="M112.152,54.095c0.28,0.047 0.471,0.307 0.425,0.581c-0.046,0.274 -0.31,0.459 -0.59,0.412c-0.28,-0.046 -0.471,-0.307 -0.425,-0.581c0.045,-0.274 0.31,-0.459 0.59,-0.412Z" style="fill:#f9f9fb;"/><path d="M113.897,52.865c0.28,0.047 0.47,0.307 0.425,0.581c-0.046,0.274 -0.31,0.459 -0.59,0.412c-0.281,-0.046 -0.471,-0.307 -0.425,-0.581c0.045,-0.274 0.31,-0.459 0.59,-0.412Z" style="fill:#f9f9fb;"/><path d="M115.136,53.549c0.28,0.046 0.47,0.307 0.425,0.581c-0.046,0.274 -0.311,0.459 -0.591,0.412c-0.28,-0.046 -0.47,-0.307 -0.425,-0.581c0.046,-0.274 0.31,-0.459 0.591,-0.412Z" style="fill:#f9f9fb;"/><path d="M109.356,53.423c0.28,0.046 0.471,0.307 0.425,0.581c-0.046,0.274 -0.31,0.459 -0.59,0.412c-0.28,-0.046 -0.471,-0.307 -0.425,-0.581c0.045,-0.274 0.31,-0.459 0.59,-0.412Z" style="fill:#f9f9fb;"/><path d="M112.906,52.7c0.28,0.047 0.47,0.307 0.425,0.581c-0.046,0.274 -0.31,0.459 -0.59,0.413c-0.281,-0.047 -0.471,-0.308 -0.425,-0.582c0.045,-0.274 0.31,-0.459 0.59,-0.412Z" style="fill:#f9f9fb;"/><path d="M113.096,51.407c0.28,0.046 0.471,0.307 0.425,0.581c-0.045,0.274 -0.31,0.459 -0.59,0.412c-0.28,-0.047 -0.471,-0.307 -0.425,-0.581c0.046,-0.274 0.31,-0.459 0.59,-0.412Z" style="fill:#f9f9fb;"/><path d="M114.076,54.925c0.28,0.047 0.47,0.308 0.425,0.582c-0.046,0.274 -0.31,0.459 -0.591,0.412c-0.28,-0.047 -0.47,-0.307 -0.425,-0.581c0.046,-0.274 0.31,-0.459 0.591,-0.413Z" style="fill:#f9f9fb;"/><path d="M110.895,55.212c0.28,0.047 0.47,0.307 0.425,0.581c-0.046,0.275 -0.31,0.459 -0.591,0.413c-0.28,-0.047 -0.47,-0.307 -0.425,-0.582c0.046,-0.274 0.311,-0.458 0.591,-0.412Z" style="fill:#f9f9fb;"/><path d="M109.293,55.623c0.174,0.029 0.292,0.191 0.264,0.362c-0.028,0.17 -0.193,0.285 -0.367,0.256c-0.174,-0.029 -0.292,-0.191 -0.264,-0.361c0.029,-0.171 0.193,-0.285 0.367,-0.257Z" style="fill:#d6d7e6;"/><path d="M106.595,55.175c0.174,0.028 0.292,0.19 0.264,0.361c-0.028,0.17 -0.193,0.285 -0.367,0.256c-0.174,-0.029 -0.292,-0.191 -0.264,-0.361c0.029,-0.171 0.193,-0.285 0.367,-0.256Z" style="fill:#d6d7e6;"/><path d="M111.232,53.354c0.28,0.047 0.471,0.307 0.425,0.581c-0.046,0.275 -0.31,0.459 -0.59,0.413c-0.281,-0.047 -0.471,-0.307 -0.425,-0.582c0.045,-0.274 0.31,-0.458 0.59,-0.412Z" style="fill:#d6d7e6;"/><path d="M111.161,56.832c0.28,0.047 0.47,0.307 0.425,0.581c-0.046,0.274 -0.31,0.459 -0.591,0.413c-0.28,-0.047 -0.47,-0.308 -0.424,-0.582c0.045,-0.274 0.31,-0.459 0.59,-0.412Z" style="fill:#f9f9fb;"/><path d="M107.974,52.381c0.28,0.046 0.47,0.307 0.425,0.581c-0.046,0.274 -0.311,0.459 -0.591,0.412c-0.28,-0.046 -0.47,-0.307 -0.425,-0.581c0.046,-0.274 0.31,-0.459 0.591,-0.412Z" style="fill:#fff;"/><path d="M104.134,52.298c0.28,0.047 0.471,0.307 0.425,0.581c-0.046,0.275 -0.31,0.459 -0.59,0.413c-0.28,-0.047 -0.471,-0.307 -0.425,-0.582c0.045,-0.274 0.31,-0.458 0.59,-0.412Z" style="fill:#fff;"/><path d="M105.874,51.329c0.28,0.047 0.47,0.307 0.425,0.581c-0.046,0.274 -0.31,0.459 -0.591,0.413c-0.28,-0.047 -0.47,-0.308 -0.424,-0.582c0.045,-0.274 0.31,-0.459 0.59,-0.412Z" style="fill:#fff;"/><path d="M109.972,51.418c0.281,0.046 0.471,0.307 0.425,0.581c-0.045,0.274 -0.31,0.459 -0.59,0.412c-0.28,-0.047 -0.47,-0.307 -0.425,-0.581c0.046,-0.274 0.31,-0.459 0.59,-0.412Z" style="fill:#fff;"/><path d="M108.499,57.258c0.281,0.046 0.471,0.307 0.425,0.581c-0.045,0.274 -0.31,0.459 -0.59,0.412c-0.28,-0.046 -0.47,-0.307 -0.425,-0.581c0.046,-0.274 0.31,-0.459 0.59,-0.412Z" style="fill:#f9f9fb;"/><path d="M109.257,56.729c0.179,0.03 0.301,0.197 0.272,0.373c-0.029,0.175 -0.199,0.294 -0.378,0.264c-0.18,-0.03 -0.302,-0.197 -0.273,-0.373c0.029,-0.176 0.199,-0.294 0.379,-0.264Z" style="fill:#f9f9fb;"/></g></g><path d="M23.487,29.271c-3.072,2.131 -0.28,5.958 1.569,7.974c0.845,0.919 2.119,1.315 3.337,1.037c2.096,-0.44 3.224,-1.263 4.664,-3.679c0.492,-0.715 0.37,-1.686 -0.282,-2.258c-1.965,-1.744 -6.418,-5.065 -9.288,-3.074Z" style="fill:#f69b89;"/><path d="M13.135,37.128c-3.133,2.042 -0.451,5.948 1.339,8.015c0.819,0.944 2.081,1.377 3.307,1.133c2.107,-0.38 3.258,-1.17 4.767,-3.544c0.512,-0.701 0.418,-1.674 -0.218,-2.265c-1.914,-1.8 -6.27,-5.246 -9.195,-3.339Z" style="fill:#f5937d;fill-opacity:0.69;"/><path d="M45.369,46.509c0.077,0.77 0.609,1.418 1.349,1.644c2.424,0.848 9.614,2.991 12.224,2.679c4.816,-0.575 5.885,-6.852 5.885,-6.852c-4.023,-0.823 -9.651,-1.661 -14.749,-2.104c-1.731,-0.734 -4.997,1.822 -4.709,4.633Z" style="fill:#f3775b;"/><clipPath id="_clip6"><path d="M45.369,46.509c0.077,0.77 0.609,1.418 1.349,1.644c2.424,0.848 9.614,2.991 12.224,2.679c4.816,-0.575 5.885,-6.852 5.885,-6.852c-4.023,-0.823 -9.651,-1.661 -14.749,-2.104c-1.731,-0.734 -4.997,1.822 -4.709,4.633Z"/></clipPath><g clip-path="url(#_clip6)"><path d="M40.447,51.781c0,0 3.134,-5.006 5.01,-4.893c6.387,0.385 18.813,2.29 21.775,-3.613c3.83,-7.637 -3.273,15.864 -3.273,15.864l-23.512,-7.358Z" style="fill:#e1594f;"/><path d="M44.71,49.881c0,0 3.58,-0.264 8.771,0.93c2.068,-0.292 3.466,-3.599 3.284,-5.98c-0.055,-0.52 -0.402,-0.964 -0.893,-1.145c-2.364,-0.828 -9.708,-2.602 -11.162,6.195Z" style="fill:#f5947e;"/></g></g></svg>