<?xml version="1.0" encoding="UTF-8" standalone="no"?>
<!DOCTYPE svg PUBLIC "-//W3C//DTD SVG 1.1//EN" "http://www.w3.org/Graphics/SVG/1.1/DTD/svg11.dtd">
<svg width="100%" height="100%" viewBox="0 0 64 64" version="1.1" xmlns="http://www.w3.org/2000/svg" xmlns:xlink="http://www.w3.org/1999/xlink" xml:space="preserve" xmlns:serif="http://www.serif.com/" style="fill-rule:evenodd;clip-rule:evenodd;stroke-linecap:round;stroke-linejoin:round;stroke-miterlimit:1.5;">
    <rect id="HCW" x="0" y="0" width="64" height="64" style="fill:none;"/>
    <path d="M58.25,51.248C56.851,44.253 51.939,38.477 45.26,35.973C45.26,35.972 45.26,35.972 45.26,35.972C41.782,34.668 38.097,34 34.383,34C32.752,34 30.977,34 29.362,34C25.816,34 22.299,34.638 18.979,35.883C18.979,35.883 18.979,35.883 18.978,35.883C12.151,38.443 7.13,44.348 5.701,51.497C4.81,55.951 4,60 4,60L60,60C60,60 59.16,55.799 58.25,51.248Z" style="fill:#2b307e;"/>
    <path d="M58.25,51.248C56.851,44.253 51.939,38.477 45.26,35.973C45.26,35.972 45.26,35.972 45.26,35.972C41.782,34.668 38.097,34 34.383,34C32.752,34 30.977,34 29.362,34C25.816,34 22.299,34.638 18.979,35.883C18.979,35.883 18.979,35.883 18.978,35.883C12.151,38.443 7.13,44.348 5.701,51.497C4.81,55.951 4,60 4,60L60,60C60,60 59.16,55.799 58.25,51.248Z" style="fill:#2b307e;"/>
    <path d="M49,54C49,54 49,51.274 49,48.668C49,46.09 46.91,44 44.332,44C44.331,44 44.331,44 44.33,44C41.386,44 39,46.386 39,49.33C39,51.715 39,54 39,54" style="fill:none;stroke:#fff;stroke-width:2px;"/>
    <path d="M44,44C44,44 44,43.031 44,41.644C44,39.086 42.984,36.633 41.175,34.825C39.367,33.016 36.914,32 34.356,32C34.356,32 34.355,32 34.355,32C26.22,32 19.625,38.595 19.625,46.73C19.625,48.107 19.625,49 19.625,49" style="fill:none;stroke:#fff;stroke-width:2px;"/>
    <circle cx="19.625" cy="49" r="4" style="fill:#fff;"/>
    <circle cx="19.625" cy="49" r="2" style="fill:#aaacdd;"/>
    <circle cx="39" cy="53" r="2.5" style="fill:#fff;"/>
    <circle cx="49" cy="53" r="2.5" style="fill:#fff;"/>
    <path d="M39,29L25,29L25,37C25,37 25,37 25.001,37.001C29.188,39.991 34.812,39.991 38.999,37.001C39,37 39,37 39,37L39,29Z" style="fill:#f3775b;"/>
    <path d="M25,35.152L25,32L39,32L39,37.09C37.495,36.928 34.567,37 32,37C29.478,37 27.085,36.329 25,35.152Z" style="fill:#664e39;fill-opacity:0.560784;"/>
    <path d="M44,16.698C44,13.33 42.662,10.1 40.281,7.719C37.899,5.338 34.67,4 31.302,4C31.301,4 31.301,4 31.3,4C25.059,4 20,9.059 20,15.3C20,18.16 20,21.211 20,24.002C20,29.524 24.476,34 29.998,34L36.186,34C38.258,34 40.246,33.177 41.711,31.711C43.177,30.246 44,28.258 44,26.186C44,23.287 44,19.92 44,16.698Z" style="fill:#f3775b;"/>
</svg>
