<?xml version="1.0" encoding="UTF-8" standalone="no"?>
<!DOCTYPE svg PUBLIC "-//W3C//DTD SVG 1.1//EN" "http://www.w3.org/Graphics/SVG/1.1/DTD/svg11.dtd">
<svg width="100%" height="100%" viewBox="0 0 65 64" version="1.1" xmlns="http://www.w3.org/2000/svg" xmlns:xlink="http://www.w3.org/1999/xlink" xml:space="preserve" xmlns:serif="http://www.serif.com/" style="fill-rule:evenodd;clip-rule:evenodd;stroke-linecap:round;stroke-linejoin:round;stroke-miterlimit:1.5;">
    <rect id="HCW" x="0.738" y="0" width="64" height="64" style="fill:none;"/>
    <path d="M58.988,51.248C57.589,44.253 52.677,38.477 45.998,35.973C45.998,35.972 45.998,35.972 45.998,35.972C42.52,34.668 38.836,34 35.121,34C33.491,34 31.715,34 30.101,34C26.555,34 23.038,34.638 19.717,35.883C19.717,35.883 19.717,35.883 19.717,35.883C12.89,38.443 7.869,44.348 6.439,51.497C5.548,55.951 4.738,60 4.738,60L60.738,60C60.738,60 59.898,55.799 58.988,51.248Z" style="fill:#2b307e;"/>
    <path d="M58.988,51.248C57.589,44.253 52.677,38.477 45.998,35.973C45.998,35.972 45.998,35.972 45.998,35.972C42.52,34.668 38.836,34 35.121,34C33.491,34 31.715,34 30.101,34C26.555,34 23.038,34.638 19.717,35.883C19.717,35.883 19.717,35.883 19.717,35.883C12.89,38.443 7.869,44.348 6.439,51.497C5.548,55.951 4.738,60 4.738,60L60.738,60C60.738,60 59.898,55.799 58.988,51.248Z" style="fill:#2b307e;"/>
    <path d="M49.738,54L49.738,48.724C49.738,47.471 49.241,46.27 48.355,45.384C47.469,44.498 46.267,44 45.014,44L45.012,44C42.1,44 39.738,46.361 39.738,49.274L39.738,54" style="fill:none;stroke:#fff;stroke-width:2px;"/>
    <path d="M44.738,44L44.738,41.644C44.738,39.086 43.722,36.633 41.914,34.825C40.105,33.016 37.652,32 35.094,32C35.094,32 35.094,32 35.093,32C26.958,32 20.363,38.595 20.363,46.73C20.363,48.107 20.363,49 20.363,49" style="fill:none;stroke:#fff;stroke-width:2px;"/>
    <circle cx="20.363" cy="49" r="4" style="fill:#fff;"/>
    <circle cx="20.363" cy="49" r="2" style="fill:#aaacdd;"/>
    <circle cx="39.738" cy="53" r="2.5" style="fill:#fff;"/>
    <circle cx="49.738" cy="53" r="2.5" style="fill:#fff;"/>
    <path d="M39.738,29L25.738,29L25.738,37C25.738,37 25.739,37 25.739,37.001C29.926,39.991 35.551,39.991 39.738,37.001C39.738,37 39.738,37 39.738,37L39.738,29Z" style="fill:#f3775b;"/>
    <path d="M25.738,35.152L25.738,32L39.738,32L39.738,37.09C38.234,36.928 35.305,37 32.738,37C30.216,37 27.824,36.329 25.738,35.152Z" style="fill:#664e39;fill-opacity:0.56;"/>
    <path d="M44.738,16C44.738,9.373 39.366,4 32.738,4C32.738,4 32.738,4 32.738,4C26.111,4 20.738,9.373 20.738,16C20.738,17.976 20.738,20.024 20.738,22C20.738,28.627 26.111,34 32.738,34C32.738,34 32.738,34 32.738,34C39.366,34 44.738,28.627 44.738,22C44.738,20.024 44.738,17.976 44.738,16Z" style="fill:#f3775b;"/>
</svg>
