<?xml version="1.0" encoding="UTF-8" standalone="no"?>
<!DOCTYPE svg PUBLIC "-//W3C//DTD SVG 1.1//EN" "http://www.w3.org/Graphics/SVG/1.1/DTD/svg11.dtd">
<svg width="100%" height="100%" viewBox="0 0 65 65" version="1.1" xmlns="http://www.w3.org/2000/svg" xmlns:xlink="http://www.w3.org/1999/xlink" xml:space="preserve" xmlns:serif="http://www.serif.com/" style="fill-rule:evenodd;clip-rule:evenodd;stroke-linecap:round;stroke-linejoin:round;stroke-miterlimit:1;">
    <rect id="Instant-noodles" x="0.012" y="0.16" width="64" height="64" style="fill:none;"/>
    <ellipse cx="32.012" cy="52.368" rx="30.664" ry="3.286" style="fill:#2b307e;fill-opacity:0.08;"/>
    <path d="M57.428,10.46L55.854,14.836L37.295,14.829L57.428,10.46Z" style="fill:#f1b1af;"/>
    <path d="M8.348,14.88L6.852,10.46L1.638,11.779L5.01,24.701L3.244,29.161L4.661,47.592L2.278,51.547L6.55,54.047L8.17,49.484L9.845,24.791L8.348,14.88Z" style="fill:#d25950;"/>
    <clipPath id="_clip1">
        <path d="M8.348,14.88L6.852,10.46L1.638,11.779L5.01,24.701L3.244,29.161L4.661,47.592L2.278,51.547L6.55,54.047L8.17,49.484L9.845,24.791L8.348,14.88Z"/>
    </clipPath>
    <g clip-path="url(#_clip1)">
        <path d="M0.012,52.55L6.631,49.115L3.156,45.639L0.012,52.55Z" style="fill:#f1765a;"/>
        <path d="M1.418,29.814L8.024,26.133L0.851,14.836L1.418,29.814Z" style="fill:#f1765a;"/>
    </g>
    <path d="M55.854,14.88L57.35,10.46L62.563,11.779L57.64,24.155L60.176,29.629L59.541,47.592L62.967,50.223L58.861,53.915L55.854,49.484L54.27,24.355L55.854,14.88Z" style="fill:#d25950;"/>
    <clipPath id="_clip2">
        <path d="M55.854,14.88L57.35,10.46L62.563,11.779L57.64,24.155L60.176,29.629L59.541,47.592L62.967,50.223L58.861,53.915L55.854,49.484L54.27,24.355L55.854,14.88Z"/>
    </clipPath>
    <g clip-path="url(#_clip2)">
        <path d="M58.065,24.256L56.617,27.93L61.507,29.814L58.065,24.256Z" style="fill:#f1765a;"/>
    </g>
    <path d="M6.679,10.46L18.147,14.25L40.749,14.836L8.17,14.836L6.679,10.46Z" style="fill:#f1b1af;"/>
    <path d="M55.854,49.484L58.901,53.915L46.236,50.117L34.726,49.676L18.248,49.946L6.55,54.047L8.17,49.484L8.17,29.23L8.919,24.247L8.17,21.055L8.17,14.836L7.393,12.648L18.609,14.836L41.888,14.836L56.683,12.648L55.854,14.836L55.854,20.767L54.744,24.318L55.854,28.908L55.854,49.484Z" style="fill:#f1765a;"/>
    <clipPath id="_clip3">
        <path d="M55.854,49.484L58.901,53.915L46.236,50.117L34.726,49.676L18.248,49.946L6.55,54.047L8.17,49.484L8.17,29.23L8.919,24.247L8.17,21.055L8.17,14.836L7.393,12.648L18.609,14.836L41.888,14.836L56.683,12.648L55.854,14.836L55.854,20.767L54.744,24.318L55.854,28.908L55.854,49.484Z"/>
    </clipPath>
    <g clip-path="url(#_clip3)">
        <rect x="-5.946" y="43.022" width="91.793" height="25.548" style="fill:#e6674b;"/>
        <g>
            <path d="M52.232,35.496C52.232,45.735 43.56,54.047 32.879,54.047C22.199,54.047 13.527,45.735 13.527,35.496L52.232,35.496Z" style="fill:#2b307f;"/>
            <ellipse cx="32.879" cy="35.496" rx="19.352" ry="5.062" style="fill:#937cb5;"/>
        </g>
        <g>
            <path d="M15.691,34.887C15.691,34.887 16.209,28.735 21.507,27.21C27.614,25.452 31.666,31.055 31.666,31.055" style="fill:none;stroke:#faedea;stroke-width:1.43px;"/>
            <path d="M19.011,33.837C19.011,33.837 19.314,30.243 22.41,29.352C25.978,28.324 28.346,31.598 28.346,31.598" style="fill:none;stroke:#faedea;stroke-width:1px;"/>
            <path d="M21.69,33.49C21.69,33.49 21.82,31.959 23.138,31.579C24.658,31.142 25.667,32.536 25.667,32.536" style="fill:none;stroke:#faedea;stroke-width:1px;"/>
        </g>
        <g>
            <path d="M24.136,38.688C24.136,38.688 25.831,33.568 31.353,33.31C37.719,33.012 40.027,38.688 40.027,38.688" style="fill:none;stroke:#faedea;stroke-width:1.42px;"/>
            <path d="M27.267,39.168C27.267,39.168 28.464,35.748 31.691,35.597C35.41,35.423 36.884,39.149 36.884,39.149" style="fill:none;stroke:#faedea;stroke-width:1px;"/>
            <path d="M29.953,39.45C29.953,39.45 30.463,37.993 31.837,37.929C33.422,37.855 34.05,39.442 34.05,39.442" style="fill:none;stroke:#faedea;stroke-width:1px;"/>
        </g>
        <g>
            <path d="M33.785,31.832C33.785,31.832 36.877,27.273 42.21,28.48C48.358,29.872 49.54,36.069 49.54,36.069" style="fill:none;stroke:#faedea;stroke-width:1.33px;"/>
            <path d="M37.169,32.515C37.169,32.515 38.975,29.852 42.091,30.557C45.683,31.37 46.374,34.991 46.374,34.991" style="fill:none;stroke:#faedea;stroke-width:1px;"/>
            <path d="M39.684,33.456C39.684,33.456 40.454,32.322 41.781,32.622C43.311,32.969 43.605,34.511 43.605,34.511" style="fill:none;stroke:#faedea;stroke-width:1px;"/>
        </g>
        <path d="M18,37.383C18,37.383 19.303,34.432 23.047,35.67" style="fill:none;stroke:#faedea;stroke-width:1.4px;"/>
        <path d="M45.869,38.086C45.869,38.086 44.566,35.135 40.822,36.373" style="fill:none;stroke:#faedea;stroke-width:1.4px;"/>
        <g>
            <path d="M37.484,29.828L121.863,-18.402L123.656,-11.298L38.07,30.878L37.484,29.828Z" style="fill:#2b307f;"/>
            <path d="M35.842,27.817L115.108,-28.423L117.586,-21.528L36.528,28.805L35.842,27.817Z" style="fill:#2b307f;"/>
        </g>
        <path d="M5.823,54.531L13.165,49.806L20.104,50.03L5.823,54.531Z" style="fill:#d25950;"/>
        <path d="M60.325,54.531L50.085,50.111L42.34,50.03L60.325,54.531Z" style="fill:#d25950;"/>
    </g>
    <path d="M9.618,13.879C9.468,13.847 9.313,13.898 9.212,14.013C9.112,14.129 9.082,14.29 9.135,14.433C9.279,14.827 9.457,15.311 9.598,15.698C9.749,16.108 10.126,16.391 10.561,16.422C12.769,16.579 19.56,17.061 23.525,17.342C23.637,17.35 23.736,17.271 23.752,17.16C23.768,17.049 23.695,16.945 23.586,16.921C19.42,16.014 11.985,14.395 9.618,13.879Z" style="fill:#fff;fill-opacity:0.44;"/>
    <path d="M54.598,13.864C54.747,13.834 54.9,13.887 54.999,14.002C55.098,14.117 55.127,14.277 55.074,14.419C54.934,14.803 54.76,15.277 54.619,15.662C54.462,16.09 54.059,16.378 53.603,16.389C51.605,16.435 46.117,16.562 42.898,16.636C42.787,16.639 42.693,16.556 42.68,16.446C42.668,16.336 42.742,16.235 42.851,16.213C46.3,15.523 52.483,14.287 54.598,13.864Z" style="fill:#fff;fill-opacity:0.44;"/>
</svg>
