<?xml version="1.0" encoding="UTF-8" standalone="no"?>
<!DOCTYPE svg PUBLIC "-//W3C//DTD SVG 1.1//EN" "http://www.w3.org/Graphics/SVG/1.1/DTD/svg11.dtd">
<svg width="100%" height="100%" viewBox="0 0 65 64" version="1.1" xmlns="http://www.w3.org/2000/svg" xmlns:xlink="http://www.w3.org/1999/xlink" xml:space="preserve" xmlns:serif="http://www.serif.com/" style="fill-rule:evenodd;clip-rule:evenodd;stroke-linecap:round;stroke-miterlimit:1;">
    <rect id="Investigate" x="0.738" y="0" width="64" height="64" style="fill:none;"/>
    <path d="M58.988,51.248C57.589,44.253 52.677,38.477 45.998,35.973C45.998,35.972 45.998,35.972 45.998,35.972C42.52,34.668 38.836,34 35.121,34C33.491,34 31.715,34 30.101,34C26.555,34 23.038,34.638 19.717,35.883C19.717,35.883 19.717,35.883 19.717,35.883C12.89,38.443 7.869,44.348 6.439,51.497C5.548,55.951 4.738,60 4.738,60L60.738,60C60.738,60 59.898,55.799 58.988,51.248Z" style="fill:#2b307e;"/>
    <path d="M58.988,51.248C57.589,44.253 52.677,38.477 45.998,35.973C45.998,35.972 45.998,35.972 45.998,35.972C42.52,34.668 38.836,34 35.121,34C33.491,34 31.715,34 30.101,34C26.555,34 23.038,34.638 19.717,35.883C19.717,35.883 19.717,35.883 19.717,35.883C12.89,38.443 7.869,44.348 6.439,51.497C5.548,55.951 4.738,60 4.738,60L60.738,60C60.738,60 59.898,55.799 58.988,51.248Z" style="fill:#2b307e;"/>
    <path d="M39.738,29L25.738,29L25.738,37C25.738,37 25.739,37 25.739,37.001C29.926,39.991 35.551,39.991 39.738,37.001C39.738,37 39.738,37 39.738,37L39.738,29Z" style="fill:#f3775b;"/>
    <path d="M25.738,35.152L25.738,32L39.738,32L39.738,37.09C38.234,36.928 35.305,37 32.738,37C30.216,37 27.824,36.329 25.738,35.152Z" style="fill:#664e39;fill-opacity:0.56;"/>
    <path d="M44.738,16C44.738,9.373 39.366,4 32.738,4C32.738,4 32.738,4 32.738,4C26.111,4 20.738,9.373 20.738,16C20.738,17.976 20.738,20.024 20.738,22C20.738,28.627 26.111,34 32.738,34C32.738,34 32.738,34 32.738,34C39.366,34 44.738,28.627 44.738,22C44.738,20.024 44.738,17.976 44.738,16Z" style="fill:#f3775b;"/>
    <g>
        <path d="M15.113,44.375L24.738,56.16" style="fill:none;stroke:#fff;stroke-width:3px;"/>
        <path d="M15.113,44.375L24.738,56.16" style="fill:none;"/>
        <circle cx="13.113" cy="42.375" r="8.375" style="fill:#fff;"/>
        <circle cx="13.113" cy="42.375" r="4.973" style="fill:#aaacdd;"/>
        <path d="M28.278,52L48.738,60L30.738,55.599L28.278,52Z" style="fill:#aaacdd;fill-opacity:0.7;"/>
        <path d="M21.371,60C21.371,60 20.689,59.025 20.041,58.098C19.338,57.093 19.247,55.782 19.804,54.69C19.826,54.646 19.849,54.601 19.871,54.557C20.869,52.601 22.852,51.343 25.046,51.275C25.046,51.275 25.046,51.275 25.046,51.275C27.283,51.214 29.479,51.882 31.302,53.179C32.377,53.948 33.392,54.9 33.866,56C35.123,58.922 34.738,60 34.738,60L21.371,60Z" style="fill:#f3775b;"/>
        <clipPath id="_clip1">
            <path d="M21.371,60C21.371,60 20.689,59.025 20.041,58.098C19.338,57.093 19.247,55.782 19.804,54.69C19.826,54.646 19.849,54.601 19.871,54.557C20.869,52.601 22.852,51.343 25.046,51.275C25.046,51.275 25.046,51.275 25.046,51.275C27.283,51.214 29.479,51.882 31.302,53.179C32.377,53.948 33.392,54.9 33.866,56C35.123,58.922 34.738,60 34.738,60L21.371,60Z"/>
        </clipPath>
        <g clip-path="url(#_clip1)">
            <path d="M19.926,50L29.989,62.51L16.474,62L16.672,55.599L19.926,50Z" style="fill:#a46048;fill-opacity:0.57;"/>
        </g>
    </g>
</svg>
