<?xml version="1.0" encoding="UTF-8" standalone="no"?>
<!DOCTYPE svg PUBLIC "-//W3C//DTD SVG 1.1//EN" "http://www.w3.org/Graphics/SVG/1.1/DTD/svg11.dtd">
<svg width="100%" height="100%" viewBox="0 0 64 64" version="1.1" xmlns="http://www.w3.org/2000/svg" xmlns:xlink="http://www.w3.org/1999/xlink" xml:space="preserve" xmlns:serif="http://www.serif.com/" style="fill-rule:evenodd;clip-rule:evenodd;stroke-linecap:round;stroke-miterlimit:1;">
    <rect id="Investigate" x="0" y="0" width="64" height="64" style="fill:none;"/>
    <path d="M58.25,51.248C56.851,44.253 51.939,38.477 45.26,35.973C45.26,35.972 45.26,35.972 45.26,35.972C41.782,34.668 38.097,34 34.383,34C32.752,34 30.977,34 29.362,34C25.816,34 22.299,34.638 18.979,35.883C18.979,35.883 18.979,35.883 18.978,35.883C12.151,38.443 7.13,44.348 5.701,51.497C4.81,55.951 4,60 4,60L60,60C60,60 59.16,55.799 58.25,51.248Z" style="fill:#2b307e;"/>
    <path d="M58.25,51.248C56.851,44.253 51.939,38.477 45.26,35.973C45.26,35.972 45.26,35.972 45.26,35.972C41.782,34.668 38.097,34 34.383,34C32.752,34 30.977,34 29.362,34C25.816,34 22.299,34.638 18.979,35.883C18.979,35.883 18.979,35.883 18.978,35.883C12.151,38.443 7.13,44.348 5.701,51.497C4.81,55.951 4,60 4,60L60,60C60,60 59.16,55.799 58.25,51.248Z" style="fill:#2b307e;"/>
    <path d="M39,29L25,29L25,37C25,37 25,37 25.001,37.001C29.188,39.991 34.812,39.991 38.999,37.001C39,37 39,37 39,37L39,29Z" style="fill:#f3775b;"/>
    <path d="M25,35.152L25,32L39,32L39,37.09C37.495,36.928 34.567,37 32,37C29.478,37 27.085,36.329 25,35.152Z" style="fill:#664e39;fill-opacity:0.560784;"/>
    <path d="M44,15.798C44,9.282 38.718,4 32.202,4C32.067,4 31.933,4 31.798,4C25.282,4 20,9.282 20,15.798C20,17.903 20,20.097 20,22.202C20,28.718 25.282,34 31.798,34L34.24,34C39.63,34 44,29.63 44,24.24C44,21.546 44,18.594 44,15.798Z" style="fill:#f3775b;"/>
    <g>
        <path d="M14.375,44.375L24,56.16" style="fill:none;stroke:#fff;stroke-width:3px;"/>
        <path d="M14.375,44.375L24,56.16" style="fill:#fff;"/>
        <circle cx="12.375" cy="42.375" r="8.375" style="fill:#fff;"/>
        <circle cx="12.375" cy="42.375" r="4.973" style="fill:#aaacdd;"/>
        <path d="M27.54,52L48,60L30,55.599L27.54,52Z" style="fill:#aaacdd;fill-opacity:0.701961;"/>
        <path d="M20.633,60C20.633,60 19.95,59.025 19.303,58.098C18.6,57.093 18.508,55.782 19.065,54.69C19.088,54.646 19.11,54.601 19.133,54.557C20.13,52.601 22.114,51.343 24.308,51.275C24.308,51.275 24.308,51.275 24.308,51.275C26.545,51.214 28.74,51.882 30.563,53.179C31.639,53.948 32.654,54.9 33.127,56C34.385,58.922 34,60 34,60L20.633,60Z" style="fill:#f3775b;"/>
        <clipPath id="_clip1">
            <path d="M20.633,60C20.633,60 19.95,59.025 19.303,58.098C18.6,57.093 18.508,55.782 19.065,54.69C19.088,54.646 19.11,54.601 19.133,54.557C20.13,52.601 22.114,51.343 24.308,51.275C24.308,51.275 24.308,51.275 24.308,51.275C26.545,51.214 28.74,51.882 30.563,53.179C31.639,53.948 32.654,54.9 33.127,56C34.385,58.922 34,60 34,60L20.633,60Z"/>
        </clipPath>
        <g clip-path="url(#_clip1)">
            <path d="M19.187,50L29.251,62.51L15.736,62L15.934,55.599L19.187,50Z" style="fill:#a46048;fill-opacity:0.568627;"/>
        </g>
    </g>
</svg>
