<?xml version="1.0" encoding="UTF-8" standalone="no"?>
<!DOCTYPE svg PUBLIC "-//W3C//DTD SVG 1.1//EN" "http://www.w3.org/Graphics/SVG/1.1/DTD/svg11.dtd">
<svg width="100%" height="100%" viewBox="0 0 64 64" version="1.1" xmlns="http://www.w3.org/2000/svg" xmlns:xlink="http://www.w3.org/1999/xlink" xml:space="preserve" xmlns:serif="http://www.serif.com/" style="fill-rule:evenodd;clip-rule:evenodd;stroke-linejoin:round;stroke-miterlimit:1.41421;">
    <rect id="Labe-PE" x="0" y="-0.001" width="64" height="64" style="fill:none;"/>
    <path d="M51.5,59.699L48.433,56.999L18.5,56.999L11.5,59.819L11.5,61.499L51.5,61.499L51.5,59.699Z" style="fill:#39b54a;"/>
    <path d="M31,21.999C31,21.999 36.205,25.469 40.768,28.511C44.974,31.315 47.5,36.035 47.5,41.09C47.5,41.939 47.5,42.499 47.5,42.499L40,42.499C40,42.499 40,41.711 40,40.645C40,37.041 38.515,33.597 35.895,31.123C33.522,28.881 31,26.499 31,26.499L31,21.999Z" style="fill:#39b54a;"/>
    <clipPath id="_clip1">
        <path d="M31,21.999C31,21.999 36.205,25.469 40.768,28.511C44.974,31.315 47.5,36.035 47.5,41.09C47.5,41.939 47.5,42.499 47.5,42.499L40,42.499C40,42.499 40,41.711 40,40.645C40,37.041 38.515,33.597 35.895,31.123C33.522,28.881 31,26.499 31,26.499L31,21.999Z"/>
    </clipPath>
    <g clip-path="url(#_clip1)">
        <rect x="30" y="18.999" width="6.5" height="18" style="fill:#2b307e;fill-opacity:0.247059;"/>
    </g>
    <path d="M47.5,40.999C47.5,40.999 42.009,40.999 38.164,40.999C36.141,40.999 34.5,42.64 34.5,44.664C34.5,50.437 34.5,60.999 34.5,60.999L47.5,60.999L47.5,40.999Z" style="fill:#39b54a;"/>
    <rect x="10.5" y="42.999" width="24" height="2" style="fill:#2b307e;"/>
    <path d="M41.632,0.403L23.404,18.631L27.272,22.499L45.5,4.271L41.632,0.403Z" style="fill:#39b54a;"/>
    <clipPath id="_clip2">
        <path d="M41.632,0.403L23.404,18.631L27.272,22.499L45.5,4.271L41.632,0.403Z"/>
    </clipPath>
    <g clip-path="url(#_clip2)">
        <path d="M42.732,-2.733L36.296,3.703L43.458,10.866L49.895,4.429L42.732,-2.733Z" style="fill:#2b307e;"/>
        <path d="M47,-0.712L26.901,19.387L34.063,26.549L54.162,6.45L47,-0.712Z" style="fill:#2b307e;fill-opacity:0.25098;"/>
    </g>
    <g>
        <path d="M31,20.999C31,17.409 28.09,14.499 24.5,14.499C24.499,14.499 24.499,14.499 24.498,14.499C22.775,14.499 21.122,15.184 19.903,16.402C18.685,17.621 18,19.274 18,20.997C18,23.822 18,26.499 18,26.499L31,26.499C31,26.499 31,23.824 31,20.999Z" style="fill:#39b54a;"/>
        <clipPath id="_clip3">
            <path d="M31,20.999C31,17.409 28.09,14.499 24.5,14.499C24.499,14.499 24.499,14.499 24.498,14.499C22.775,14.499 21.122,15.184 19.903,16.402C18.685,17.621 18,19.274 18,20.997C18,23.822 18,26.499 18,26.499L31,26.499C31,26.499 31,23.824 31,20.999Z"/>
        </clipPath>
        <g clip-path="url(#_clip3)">
            <rect x="15" y="20.999" width="17" height="1" style="fill:#2b307e;fill-opacity:0.247059;"/>
        </g>
        <path d="M24.5,30.499L31,26.499L18,26.499L24.5,30.499Z" style="fill:#39b54a;"/>
        <path d="M24.5,30.499L31,26.499L18,26.499L24.5,30.499Z" style="fill:#39b54a;fill-opacity:0.247059;"/>
    </g>
    <g>
        <path d="M26.46,28.512L22.46,28.512C22.46,28.512 22.46,29.84 22.46,31.054C22.46,31.573 22.667,32.071 23.034,32.438C23.401,32.806 23.899,33.012 24.419,33.012C24.425,33.012 24.431,33.012 24.437,33.012C25.555,33.012 26.46,32.106 26.46,30.989C26.46,29.794 26.46,28.512 26.46,28.512Z" style="fill:#2b307e;"/>
    </g>
    <circle cx="41" cy="47.499" r="4" style="fill:#2b307e;"/>
    <path d="M30,54.975C30,52.227 27.772,49.999 25.025,49.999C24.698,49.999 24.37,49.999 24.043,49.999C22.705,49.999 21.423,50.53 20.477,51.476C19.531,52.422 19,53.705 19,55.042C19,56.149 19,56.999 19,56.999L30,56.999C30,56.999 30,56.115 30,54.975Z" style="fill:#2b307e;"/>
</svg>
