<?xml version="1.0" encoding="UTF-8" standalone="no"?>
<!DOCTYPE svg PUBLIC "-//W3C//DTD SVG 1.1//EN" "http://www.w3.org/Graphics/SVG/1.1/DTD/svg11.dtd">
<svg width="100%" height="100%" viewBox="0 0 65 64" version="1.1" xmlns="http://www.w3.org/2000/svg" xmlns:xlink="http://www.w3.org/1999/xlink" xml:space="preserve" xmlns:serif="http://www.serif.com/" style="fill-rule:evenodd;clip-rule:evenodd;stroke-linejoin:round;stroke-miterlimit:2;">
    <rect id="Laboratory" x="0.738" y="0" width="64" height="64" style="fill:none;"/>
    <path d="M52.238,59.7L49.171,57L19.238,57L12.238,59.82L12.238,61.5L52.238,61.5L52.238,59.7Z" style="fill:#f3775b;"/>
    <path d="M31.738,22C31.738,22 36.943,25.47 41.507,28.512C45.712,31.316 48.238,36.036 48.238,41.09C48.238,41.939 48.238,42.5 48.238,42.5L40.738,42.5L40.738,40.646C40.738,37.042 39.254,33.598 36.634,31.123C34.26,28.882 31.738,26.5 31.738,26.5L31.738,22Z" style="fill:#f3775b;"/>
    <clipPath id="_clip1">
        <path d="M31.738,22C31.738,22 36.943,25.47 41.507,28.512C45.712,31.316 48.238,36.036 48.238,41.09C48.238,41.939 48.238,42.5 48.238,42.5L40.738,42.5L40.738,40.646C40.738,37.042 39.254,33.598 36.634,31.123C34.26,28.882 31.738,26.5 31.738,26.5L31.738,22Z"/>
    </clipPath>
    <g clip-path="url(#_clip1)">
        <rect x="30.738" y="19" width="6.5" height="18" style="fill:#2b307e;fill-opacity:0.25;"/>
    </g>
    <path d="M48.238,41L38.903,41C36.879,41 35.238,42.641 35.238,44.664C35.238,50.437 35.238,61 35.238,61L48.238,61L48.238,41Z" style="fill:#f3775b;"/>
    <rect x="11.238" y="43" width="24" height="2" style="fill:#2b307e;"/>
    <path d="M42.37,0.404L24.142,18.632L28.01,22.5L46.238,4.272L42.37,0.404Z" style="fill:#f3775b;"/>
    <clipPath id="_clip2">
        <path d="M42.37,0.404L24.142,18.632L28.01,22.5L46.238,4.272L42.37,0.404Z"/>
    </clipPath>
    <g clip-path="url(#_clip2)">
        <path d="M43.471,-2.732L37.034,3.704L44.196,10.866L50.633,4.43L43.471,-2.732Z" style="fill:#2b307e;"/>
        <path d="M47.738,-0.711L27.64,19.387L34.802,26.549L54.9,6.451L47.738,-0.711Z" style="fill:#2b307e;fill-opacity:0.25;"/>
    </g>
    <g>
        <path d="M31.738,21C31.738,17.41 28.828,14.5 25.238,14.5C25.238,14.5 25.238,14.5 25.238,14.5C21.648,14.5 18.738,17.41 18.738,21C18.738,23.824 18.738,26.5 18.738,26.5L31.738,26.5L31.738,21Z" style="fill:#f3775b;"/>
        <clipPath id="_clip3">
            <path d="M31.738,21C31.738,17.41 28.828,14.5 25.238,14.5C25.238,14.5 25.238,14.5 25.238,14.5C21.648,14.5 18.738,17.41 18.738,21C18.738,23.824 18.738,26.5 18.738,26.5L31.738,26.5L31.738,21Z"/>
        </clipPath>
        <g clip-path="url(#_clip3)">
            <rect x="15.738" y="21" width="17" height="1" style="fill:#2b307e;fill-opacity:0.25;"/>
        </g>
        <path d="M25.238,30.5L31.738,26.5L18.738,26.5L25.238,30.5Z" style="fill:#f3775b;"/>
        <path d="M25.238,30.5L31.738,26.5L18.738,26.5L25.238,30.5Z" style="fill:#2b307e;fill-opacity:0.25;"/>
    </g>
    <g>
        <path d="M27.199,28.513L23.199,28.513L23.199,31.054C23.199,31.574 23.405,32.072 23.772,32.439C24.14,32.807 24.638,33.013 25.157,33.013C25.163,33.013 25.169,33.013 25.176,33.013C26.293,33.013 27.199,32.107 27.199,30.99C27.199,29.795 27.199,28.513 27.199,28.513Z" style="fill:#2b307e;"/>
    </g>
    <circle cx="41.738" cy="47.5" r="4" style="fill:#2b307e;"/>
    <path d="M30.738,54.975C30.738,52.228 28.511,50 25.763,50C25.437,50 25.108,50 24.781,50C23.444,50 22.161,50.531 21.215,51.477C20.27,52.423 19.738,53.705 19.738,55.043C19.738,56.15 19.738,57 19.738,57L30.738,57L30.738,54.975Z" style="fill:#2b307e;"/>
</svg>
