<?xml version="1.0" encoding="UTF-8" standalone="no"?>
<!DOCTYPE svg PUBLIC "-//W3C//DTD SVG 1.1//EN" "http://www.w3.org/Graphics/SVG/1.1/DTD/svg11.dtd">
<svg width="100%" height="100%" viewBox="0 0 64 65" version="1.1" xmlns="http://www.w3.org/2000/svg" xmlns:xlink="http://www.w3.org/1999/xlink" xml:space="preserve" xmlns:serif="http://www.serif.com/" style="fill-rule:evenodd;clip-rule:evenodd;stroke-linejoin:round;stroke-miterlimit:1.41421;">
    <rect id="Laboratory" x="0" y="0.484" width="64" height="64" style="fill:none;"/>
    <path d="M51.5,60.184L48.433,57.484L18.5,57.484L11.5,60.304L11.5,61.984L51.5,61.984L51.5,60.184Z" style="fill:#3bbc53;"/>
    <path d="M31,22.484C31,22.484 36.205,25.954 40.768,28.996C44.974,31.8 47.5,36.52 47.5,41.574C47.5,42.423 47.5,42.984 47.5,42.984L40,42.984C40,42.984 40,42.196 40,41.13C40,37.526 38.515,34.082 35.895,31.607C33.522,29.366 31,26.984 31,26.984L31,22.484Z" style="fill:#3bbc53;"/>
    <clipPath id="_clip1">
        <path d="M31,22.484C31,22.484 36.205,25.954 40.768,28.996C44.974,31.8 47.5,36.52 47.5,41.574C47.5,42.423 47.5,42.984 47.5,42.984L40,42.984C40,42.984 40,42.196 40,41.13C40,37.526 38.515,34.082 35.895,31.607C33.522,29.366 31,26.984 31,26.984L31,22.484Z"/>
    </clipPath>
    <g clip-path="url(#_clip1)">
        <rect x="30" y="19.484" width="6.5" height="18" style="fill:#2b307e;fill-opacity:0.247059;"/>
    </g>
    <path d="M47.5,41.484C47.5,41.484 42.009,41.484 38.164,41.484C36.141,41.484 34.5,43.125 34.5,45.148C34.5,50.921 34.5,61.484 34.5,61.484L47.5,61.484L47.5,41.484Z" style="fill:#3bbc53;"/>
    <rect x="10.5" y="43.484" width="24" height="2" style="fill:#2b307e;"/>
    <path d="M41.632,0.888L23.404,19.116L27.272,22.984L45.5,4.756L41.632,0.888Z" style="fill:#3bbc53;"/>
    <clipPath id="_clip2">
        <path d="M41.632,0.888L23.404,19.116L27.272,22.984L45.5,4.756L41.632,0.888Z"/>
    </clipPath>
    <g clip-path="url(#_clip2)">
        <path d="M42.732,-2.248L36.296,4.188L43.458,11.35L49.895,4.914L42.732,-2.248Z" style="fill:#2b307e;"/>
        <path d="M47,-0.227L26.901,19.871L34.063,27.033L54.162,6.935L47,-0.227Z" style="fill:#2b307e;fill-opacity:0.25098;"/>
    </g>
    <g>
        <path d="M31,21.484C31,17.894 28.09,14.984 24.5,14.984C24.5,14.984 24.5,14.984 24.5,14.984C20.91,14.984 18,17.894 18,21.484C18,24.308 18,26.984 18,26.984L31,26.984C31,26.984 31,24.308 31,21.484Z" style="fill:#3bbc53;"/>
        <clipPath id="_clip3">
            <path d="M31,21.484C31,17.894 28.09,14.984 24.5,14.984C24.5,14.984 24.5,14.984 24.5,14.984C20.91,14.984 18,17.894 18,21.484C18,24.308 18,26.984 18,26.984L31,26.984C31,26.984 31,24.308 31,21.484Z"/>
        </clipPath>
        <g clip-path="url(#_clip3)">
            <rect x="15" y="21.484" width="17" height="1" style="fill:#2b307e;fill-opacity:0.247059;"/>
        </g>
        <path d="M24.5,30.984L31,26.984L18,26.984L24.5,30.984Z" style="fill:#3bbc53;"/>
        <path d="M24.5,30.984L31,26.984L18,26.984L24.5,30.984Z" style="fill:#3bbc53;fill-opacity:0.247059;"/>
    </g>
    <g>
        <path d="M26.46,28.997L22.46,28.997C22.46,28.997 22.46,30.325 22.46,31.538C22.46,32.058 22.667,32.556 23.034,32.923C23.401,33.291 23.899,33.497 24.419,33.497C24.425,33.497 24.431,33.497 24.437,33.497C25.555,33.497 26.46,32.591 26.46,31.474C26.46,30.279 26.46,28.997 26.46,28.997Z" style="fill:#2b307e;"/>
    </g>
    <circle cx="41" cy="47.984" r="4" style="fill:#2b307e;"/>
    <path d="M30,55.459C30,52.712 27.772,50.484 25.025,50.484C24.698,50.484 24.37,50.484 24.043,50.484C22.705,50.484 21.423,51.015 20.477,51.961C19.531,52.907 19,54.189 19,55.527C19,56.634 19,57.484 19,57.484L30,57.484C30,57.484 30,56.6 30,55.459Z" style="fill:#2b307e;"/>
</svg>
