<?xml version="1.0" encoding="UTF-8" standalone="no"?>
<!DOCTYPE svg PUBLIC "-//W3C//DTD SVG 1.1//EN" "http://www.w3.org/Graphics/SVG/1.1/DTD/svg11.dtd">
<svg width="100%" height="100%" viewBox="0 0 64 65" version="1.1" xmlns="http://www.w3.org/2000/svg" xmlns:xlink="http://www.w3.org/1999/xlink" xml:space="preserve" xmlns:serif="http://www.serif.com/" style="fill-rule:evenodd;clip-rule:evenodd;stroke-linejoin:round;stroke-miterlimit:1.41421;">
    <rect id="Laboratory" x="0" y="0.961" width="64" height="64" style="fill:none;"/>
    <path d="M51.5,60.661L48.433,57.961L18.5,57.961L11.5,60.78L11.5,62.461L51.5,62.461L51.5,60.661Z" style="fill:#f3775b;"/>
    <path d="M31,22.961C31,22.961 36.205,26.431 40.768,29.473C44.974,32.277 47.5,36.997 47.5,42.051C47.5,42.9 47.5,43.461 47.5,43.461L40,43.461C40,43.461 40,42.672 40,41.606C40,38.003 38.515,34.558 35.895,32.084C33.522,29.842 31,27.461 31,27.461L31,22.961Z" style="fill:#f3775b;"/>
    <clipPath id="_clip1">
        <path d="M31,22.961C31,22.961 36.205,26.431 40.768,29.473C44.974,32.277 47.5,36.997 47.5,42.051C47.5,42.9 47.5,43.461 47.5,43.461L40,43.461C40,43.461 40,42.672 40,41.606C40,38.003 38.515,34.558 35.895,32.084C33.522,29.842 31,27.461 31,27.461L31,22.961Z"/>
    </clipPath>
    <g clip-path="url(#_clip1)">
        <rect x="30" y="19.961" width="6.5" height="18" style="fill:#2b307e;fill-opacity:0.247059;"/>
    </g>
    <path d="M47.5,41.961C47.5,41.961 42.009,41.961 38.164,41.961C36.141,41.961 34.5,43.601 34.5,45.625C34.5,51.398 34.5,61.961 34.5,61.961L47.5,61.961L47.5,41.961Z" style="fill:#f3775b;"/>
    <rect x="10.5" y="43.961" width="24" height="2" style="fill:#2b307e;"/>
    <path d="M41.632,1.364L23.404,19.592L27.272,23.461L45.5,5.233L41.632,1.364Z" style="fill:#f3775b;"/>
    <clipPath id="_clip2">
        <path d="M41.632,1.364L23.404,19.592L27.272,23.461L45.5,5.233L41.632,1.364Z"/>
    </clipPath>
    <g clip-path="url(#_clip2)">
        <path d="M42.732,-1.772L36.296,4.665L43.458,11.827L49.895,5.39L42.732,-1.772Z" style="fill:#2b307e;"/>
        <path d="M47,0.249L26.901,20.348L34.063,27.51L54.162,7.411L47,0.249Z" style="fill:#2b307e;fill-opacity:0.25098;"/>
    </g>
    <g>
        <path d="M31,21.961C31,18.371 28.09,15.461 24.5,15.461C24.5,15.461 24.5,15.461 24.5,15.461C20.91,15.461 18,18.371 18,21.961C18,24.785 18,27.461 18,27.461L31,27.461C31,27.461 31,24.785 31,21.961Z" style="fill:#f3775b;"/>
        <clipPath id="_clip3">
            <path d="M31,21.961C31,18.371 28.09,15.461 24.5,15.461C24.5,15.461 24.5,15.461 24.5,15.461C20.91,15.461 18,18.371 18,21.961C18,24.785 18,27.461 18,27.461L31,27.461C31,27.461 31,24.785 31,21.961Z"/>
        </clipPath>
        <g clip-path="url(#_clip3)">
            <rect x="15" y="21.961" width="17" height="1" style="fill:#2b307e;fill-opacity:0.247059;"/>
        </g>
        <path d="M24.5,31.461L31,27.461L18,27.461L24.5,31.461Z" style="fill:#f3775b;"/>
        <path d="M24.5,31.461L31,27.461L18,27.461L24.5,31.461Z" style="fill:#2b307e;fill-opacity:0.247059;"/>
    </g>
    <g>
        <path d="M26.46,29.473L22.46,29.473C22.46,29.473 22.46,30.802 22.46,32.015C22.46,32.534 22.667,33.033 23.034,33.4C23.401,33.767 23.899,33.973 24.419,33.973C24.425,33.973 24.431,33.973 24.437,33.973C25.555,33.973 26.46,33.068 26.46,31.95C26.46,30.755 26.46,29.473 26.46,29.473Z" style="fill:#2b307e;"/>
    </g>
    <circle cx="41" cy="48.461" r="4" style="fill:#2b307e;"/>
    <path d="M30,55.936C30,53.188 27.772,50.961 25.025,50.961C24.698,50.961 24.37,50.961 24.043,50.961C22.705,50.961 21.423,51.492 20.477,52.438C19.531,53.383 19,54.666 19,56.003C19,57.111 19,57.961 19,57.961L30,57.961C30,57.961 30,57.076 30,55.936Z" style="fill:#2b307e;"/>
</svg>
