<?xml version="1.0" encoding="UTF-8" standalone="no"?>
<!DOCTYPE svg PUBLIC "-//W3C//DTD SVG 1.1//EN" "http://www.w3.org/Graphics/SVG/1.1/DTD/svg11.dtd">
<svg width="100%" height="100%" viewBox="0 0 65 65" version="1.1" xmlns="http://www.w3.org/2000/svg" xmlns:xlink="http://www.w3.org/1999/xlink" xml:space="preserve" xmlns:serif="http://www.serif.com/" style="fill-rule:evenodd;clip-rule:evenodd;stroke-linejoin:round;stroke-miterlimit:2;">
    <rect id="Legal" x="0.738" y="0.458" width="64" height="64" style="fill:none;"/>
    <path d="M56.581,56.969L9.028,56.969C8.398,56.969 7.773,57.088 7.187,57.321C6.485,57.598 5.488,57.993 4.651,58.325C4.507,58.382 4.424,58.533 4.453,58.685C4.482,58.837 4.615,58.947 4.77,58.947C14.316,58.947 61.029,58.947 61.029,58.947L56.581,56.969Z" style="fill:#cecfeb;fill-opacity:0.39;"/>
    <path d="M60.738,60.458C60.738,57.697 58.5,55.458 55.738,55.458C49.3,55.458 38.176,55.458 31.738,55.458C28.977,55.458 26.738,57.697 26.738,60.458C26.738,60.458 26.738,60.458 26.738,60.458L60.738,60.458L60.738,60.458Z" style="fill:#f1765a;"/>
    <clipPath id="_clip1">
        <path d="M60.738,60.458C60.738,57.697 58.5,55.458 55.738,55.458C49.3,55.458 38.176,55.458 31.738,55.458C28.977,55.458 26.738,57.697 26.738,60.458C26.738,60.458 26.738,60.458 26.738,60.458L60.738,60.458L60.738,60.458Z"/>
    </clipPath>
    <g clip-path="url(#_clip1)">
        <path d="M64.068,61.183C64.068,58.422 61.829,56.183 59.068,56.183C52.629,56.183 41.506,56.183 35.068,56.183C32.306,56.183 30.068,58.422 30.068,61.183C30.068,61.183 30.068,61.183 30.068,61.183L64.068,61.183L64.068,61.183Z" style="fill:#c26564;"/>
    </g>
    <path d="M32.193,10.316L22.039,20.469L39.222,37.652L49.375,27.499L32.193,10.316Z" style="fill:#f1765a;"/>
    <clipPath id="_clip2">
        <path d="M32.193,10.316L22.039,20.469L39.222,37.652L49.375,27.499L32.193,10.316Z"/>
    </clipPath>
    <g clip-path="url(#_clip2)">
        <path d="M38.53,-1.419L24.59,12.521L48.181,36.112L62.122,22.172L38.53,-1.419Z" style="fill:#f19580;"/>
        <path d="M39.188,8.154L21.695,25.647L14,17.952L31.493,0.458L39.188,8.154ZM15.414,17.952L21.695,24.233L37.774,8.154L31.493,1.873L15.414,17.952Z"/>
        <path d="M31.493,0.458L14,17.952L21.695,25.647L39.188,8.154L31.493,0.458Z" style="fill:#c26564;"/>
    </g>
    <path d="M29.85,25.156C29.85,25.156 13.873,41.132 7.467,47.538C6.775,48.23 6.386,49.169 6.386,50.148C6.386,51.128 6.775,52.067 7.467,52.759C7.468,52.76 7.469,52.761 7.47,52.761C8.615,53.906 10.471,53.906 11.616,52.761C17.61,46.767 34.536,29.842 34.536,29.842L29.85,25.156Z" style="fill:#c26564;"/>
    <clipPath id="_clip3">
        <path d="M29.85,25.156C29.85,25.156 13.873,41.132 7.467,47.538C6.775,48.23 6.386,49.169 6.386,50.148C6.386,51.128 6.775,52.067 7.467,52.759C7.468,52.76 7.469,52.761 7.47,52.761C8.615,53.906 10.471,53.906 11.616,52.761C17.61,46.767 34.536,29.842 34.536,29.842L29.85,25.156Z"/>
    </clipPath>
    <g clip-path="url(#_clip3)">
        <path d="M28.899,21.949C28.899,21.949 12.923,37.926 6.517,44.331C5.825,45.024 5.436,45.963 5.436,46.942C5.436,47.921 5.825,48.86 6.517,49.553C6.518,49.553 6.519,49.554 6.52,49.555C7.665,50.7 9.521,50.7 10.666,49.555C16.66,43.561 33.586,26.635 33.586,26.635L28.899,21.949Z" style="fill:#f1765a;"/>
    </g>
    <path d="M33.153,7.871C32.373,7.091 31.108,7.091 30.327,7.871C27.653,10.545 21.876,16.323 19.155,19.043C18.341,19.857 18.341,21.177 19.155,21.99C19.156,21.991 19.156,21.991 19.157,21.992C19.516,22.351 20.002,22.552 20.51,22.552C21.018,22.552 21.504,22.351 21.863,21.992C24.53,19.325 30.439,13.416 33.154,10.701C33.935,9.92 33.935,8.654 33.154,7.873C33.154,7.872 33.153,7.872 33.153,7.871Z" style="fill:#f1765a;"/>
    <clipPath id="_clip4">
        <path d="M33.153,7.871C32.373,7.091 31.108,7.091 30.327,7.871C27.653,10.545 21.876,16.323 19.155,19.043C18.341,19.857 18.341,21.177 19.155,21.99C19.156,21.991 19.156,21.991 19.157,21.992C19.516,22.351 20.002,22.552 20.51,22.552C21.018,22.552 21.504,22.351 21.863,21.992C24.53,19.325 30.439,13.416 33.154,10.701C33.935,9.92 33.935,8.654 33.154,7.873C33.154,7.872 33.153,7.872 33.153,7.871Z"/>
    </clipPath>
    <g clip-path="url(#_clip4)">
        <path d="M33.803,9.445C33.023,8.664 31.758,8.664 30.977,9.445C28.303,12.119 22.526,17.896 19.805,20.617C18.992,21.431 18.992,22.75 19.805,23.564C19.806,23.564 19.806,23.565 19.807,23.565C20.166,23.924 20.653,24.126 21.16,24.126C21.668,24.126 22.155,23.924 22.514,23.565C25.18,20.899 31.089,14.99 33.805,12.275C34.586,11.494 34.586,10.227 33.805,9.446C33.804,9.446 33.804,9.445 33.803,9.445Z" style="fill:#c26564;fill-opacity:0.41;"/>
    </g>
    <path d="M51.912,26.404C51.54,26.032 51.034,25.822 50.507,25.822C49.979,25.822 49.474,26.032 49.101,26.404C46.459,29.047 40.769,34.736 38.011,37.494C37.596,37.909 37.364,38.471 37.364,39.057C37.364,39.643 37.596,40.205 38.011,40.62C38.011,40.62 38.012,40.621 38.012,40.621C38.711,41.319 39.843,41.319 40.541,40.621C43.16,38.002 49.165,31.997 51.914,29.248C52.291,28.871 52.503,28.36 52.503,27.827C52.503,27.294 52.291,26.783 51.914,26.406C51.913,26.405 51.913,26.405 51.912,26.404Z" style="fill:#f1765a;"/>
    <clipPath id="_clip5">
        <path d="M51.912,26.404C51.54,26.032 51.034,25.822 50.507,25.822C49.979,25.822 49.474,26.032 49.101,26.404C46.459,29.047 40.769,34.736 38.011,37.494C37.596,37.909 37.364,38.471 37.364,39.057C37.364,39.643 37.596,40.205 38.011,40.62C38.011,40.62 38.012,40.621 38.012,40.621C38.711,41.319 39.843,41.319 40.541,40.621C43.16,38.002 49.165,31.997 51.914,29.248C52.291,28.871 52.503,28.36 52.503,27.827C52.503,27.294 52.291,26.783 51.914,26.406C51.913,26.405 51.913,26.405 51.912,26.404Z"/>
    </clipPath>
    <g clip-path="url(#_clip5)">
        <path d="M52.595,28.411C52.215,28.032 51.7,27.818 51.163,27.818C50.627,27.818 50.112,28.032 49.732,28.411C47.079,31.064 41.417,36.726 38.668,39.476C38.253,39.89 38.02,40.452 38.02,41.038C38.02,41.625 38.253,42.187 38.668,42.601C38.668,42.602 38.669,42.602 38.669,42.603C39.367,43.301 40.499,43.301 41.198,42.603C43.825,39.975 49.859,33.941 52.596,31.204C52.966,30.834 53.174,30.332 53.174,29.808C53.174,29.285 52.966,28.783 52.596,28.413C52.596,28.412 52.595,28.412 52.595,28.411Z" style="fill:#c26564;"/>
    </g>
    <path d="M36.892,15.015L26.738,25.168L34.585,33.015L44.738,22.862L36.892,15.015Z" style="fill:#e2e3f1;"/>
    <path d="M31.976,19.931L26.738,25.168L34.585,33.015L39.823,27.777L31.976,19.931Z" style="fill:#2b307e;fill-opacity:0.24;"/>
    <path d="M28.41,29.451C28.306,29.347 28.164,29.288 28.016,29.288C27.868,29.288 27.726,29.347 27.621,29.451C25.152,31.92 11.854,45.218 9.385,47.687C9.281,47.792 9.222,47.934 9.222,48.082C9.222,48.23 9.281,48.372 9.385,48.476C9.385,48.476 9.385,48.476 9.385,48.476C9.49,48.581 9.632,48.64 9.78,48.64C9.928,48.64 10.07,48.581 10.174,48.476C12.643,46.007 25.941,32.709 28.41,30.24C28.515,30.136 28.574,29.994 28.574,29.846C28.574,29.698 28.515,29.556 28.41,29.451C28.41,29.451 28.41,29.451 28.41,29.451Z" style="fill:#f19580;"/>
</svg>
