<?xml version="1.0" encoding="UTF-8" standalone="no"?>
<!DOCTYPE svg PUBLIC "-//W3C//DTD SVG 1.1//EN" "http://www.w3.org/Graphics/SVG/1.1/DTD/svg11.dtd">
<svg width="100%" height="100%" viewBox="0 0 64 65" version="1.1" xmlns="http://www.w3.org/2000/svg" xmlns:xlink="http://www.w3.org/1999/xlink" xml:space="preserve" xmlns:serif="http://www.serif.com/" style="fill-rule:evenodd;clip-rule:evenodd;stroke-linejoin:round;stroke-miterlimit:1.41421;">
    <rect id="Legal-muted" x="0" y="0.732" width="64" height="64" style="fill:none;"/>
    <path d="M60,60.732C60,57.971 57.761,55.732 55,55.732C48.561,55.732 37.436,55.732 30.998,55.732C29.672,55.732 28.401,56.259 27.464,57.196C26.527,58.133 26,59.404 26,60.73C26,60.731 26,60.732 26,60.732L60,60.732C60,60.732 60,60.732 60,60.732Z" style="fill:#c7ccd1;"/>
    <g>
        <path d="M31.454,10.59L21.301,20.743L38.484,37.926L48.637,27.772L31.454,10.59Z" style="fill:#c7ccd1;"/>
        <clipPath id="_clip1">
            <path d="M31.454,10.59L21.301,20.743L38.484,37.926L48.637,27.772L31.454,10.59Z"/>
        </clipPath>
        <g clip-path="url(#_clip1)">
            <path d="M35.779,4.49L17.544,22.724L20.249,25.429L38.484,7.195L35.779,4.49Z" style="fill:#afb4c4;"/>
        </g>
        <path d="M29.111,25.429C29.111,25.429 13.135,41.406 6.729,47.811C6.037,48.504 5.648,49.443 5.648,50.422C5.648,51.401 6.037,52.34 6.729,53.033C6.73,53.033 6.731,53.034 6.731,53.035C7.876,54.18 9.733,54.18 10.878,53.035C16.872,47.041 33.797,30.115 33.797,30.115L29.111,25.429Z" style="fill:#afb4c4;"/>
        <path d="M32.441,8.172C31.646,7.377 30.357,7.377 29.562,8.172C26.876,10.858 21.128,16.605 18.417,19.317C17.603,20.131 17.603,21.45 18.417,22.264C18.417,22.265 18.418,22.265 18.418,22.266C18.777,22.624 19.264,22.826 19.772,22.826C20.279,22.826 20.766,22.624 21.125,22.266C23.801,19.59 29.74,13.651 32.443,10.948C33.209,10.182 33.209,8.939 32.443,8.173C32.442,8.173 32.442,8.172 32.441,8.172Z" style="fill:#c7ccd1;"/>
        <path d="M51.2,26.704C50.82,26.324 50.305,26.111 49.768,26.111C49.232,26.111 48.717,26.324 48.337,26.704C45.684,29.357 40.022,35.019 37.273,37.768C36.858,38.183 36.625,38.745 36.625,39.331C36.625,39.917 36.858,40.479 37.273,40.894C37.273,40.894 37.274,40.894 37.274,40.895C37.972,41.593 39.104,41.593 39.803,40.895C42.43,38.267 48.464,32.234 51.201,29.497C51.571,29.126 51.779,28.624 51.779,28.101C51.779,27.577 51.571,27.075 51.201,26.705C51.2,26.704 51.2,26.704 51.2,26.704Z" style="fill:#c7ccd1;"/>
        <path d="M36.153,15.289L26,25.442L33.847,33.289L44,23.135L36.153,15.289Z" style="fill:#407bbf;"/>
        <path d="M24.773,18.796L22.063,21.506L37.84,37.282L40.55,34.572L24.773,18.796Z" style="fill:#a2a7bd;"/>
        <path d="M28.71,22.732L26,25.442L33.847,33.289L36.557,30.579L28.71,22.732Z" style="fill:#324b95;"/>
    </g>
    <rect x="32" y="52.732" width="22" height="4.837" style="fill:#c7ccd1;"/>
</svg>
