<?xml version="1.0" encoding="UTF-8" standalone="no"?>
<!DOCTYPE svg PUBLIC "-//W3C//DTD SVG 1.1//EN" "http://www.w3.org/Graphics/SVG/1.1/DTD/svg11.dtd">
<svg width="100%" height="100%" viewBox="0 0 65 64" version="1.1" xmlns="http://www.w3.org/2000/svg" xmlns:xlink="http://www.w3.org/1999/xlink" xml:space="preserve" xmlns:serif="http://www.serif.com/" style="fill-rule:evenodd;clip-rule:evenodd;stroke-linejoin:round;stroke-miterlimit:2;">
    <rect id="Legal" x="0.738" y="0" width="64" height="64" style="fill:none;"/>
    <path d="M60.738,60C60.738,57.239 58.5,55 55.738,55C49.3,55 38.176,55 31.738,55C28.977,55 26.738,57.239 26.738,60C26.738,60 26.738,60 26.738,60L60.738,60L60.738,60Z" style="fill:#2b307e;"/>
    <g>
        <path d="M32.193,9.858L22.039,20.011L39.222,37.194L49.375,27.04L32.193,9.858Z" style="fill:#2b307e;"/>
        <path d="M29.85,24.697C29.85,24.697 13.873,40.674 7.467,47.079C6.775,47.772 6.386,48.711 6.386,49.69C6.386,50.669 6.775,51.608 7.467,52.301C7.468,52.301 7.469,52.302 7.47,52.303C8.615,53.448 10.471,53.448 11.616,52.303C17.61,46.309 34.536,29.383 34.536,29.383L29.85,24.697Z" style="fill:#2b307e;"/>
        <path d="M33.127,7.387C32.361,6.621 31.119,6.621 30.353,7.387C27.69,10.05 21.884,15.856 19.155,18.585C18.341,19.399 18.341,20.718 19.155,21.532C19.156,21.533 19.156,21.533 19.157,21.533C19.516,21.892 20.002,22.094 20.51,22.094C21.018,22.094 21.504,21.892 21.863,21.534C24.522,18.875 30.403,12.994 33.129,10.268C33.924,9.473 33.924,8.184 33.129,7.389C33.128,7.388 33.128,7.388 33.127,7.387Z" style="fill:#2b307e;"/>
        <path d="M51.912,25.946C51.54,25.573 51.034,25.364 50.507,25.364C49.979,25.364 49.474,25.573 49.101,25.946C46.459,28.588 40.769,34.278 38.011,37.036C37.596,37.451 37.364,38.013 37.364,38.599C37.364,39.185 37.596,39.747 38.011,40.161C38.011,40.162 38.012,40.162 38.012,40.163C38.711,40.861 39.843,40.861 40.541,40.163C43.16,37.543 49.165,31.539 51.914,28.79C52.291,28.413 52.503,27.902 52.503,27.369C52.503,26.836 52.291,26.324 51.914,25.947C51.913,25.947 51.913,25.946 51.912,25.946Z" style="fill:#2b307e;"/>
        <path d="M36.892,14.557L26.738,24.71L34.585,32.557L44.738,22.403L36.892,14.557Z" style="fill:#f3775b;"/>
        <path d="M29.448,22L26.738,24.71L34.585,32.557L37.295,29.847L29.448,22Z" style="fill:#2b307e;fill-opacity:0.24;"/>
    </g>
    <rect x="32.738" y="52" width="22" height="4.837" style="fill:#2b307e;"/>
</svg>
