<?xml version="1.0" encoding="UTF-8" standalone="no"?>
<!DOCTYPE svg PUBLIC "-//W3C//DTD SVG 1.1//EN" "http://www.w3.org/Graphics/SVG/1.1/DTD/svg11.dtd">
<svg width="100%" height="100%" viewBox="0 0 65 65" version="1.1" xmlns="http://www.w3.org/2000/svg" xmlns:xlink="http://www.w3.org/1999/xlink" xml:space="preserve" xmlns:serif="http://www.serif.com/" style="fill-rule:evenodd;clip-rule:evenodd;stroke-linejoin:round;stroke-miterlimit:2;">
    <rect id="Low-Sodium-Salt" x="0.217" y="0.573" width="64" height="64" style="fill:none;"/>
    <path d="M34.974,49.656C46.194,49.656 59,52.467 59,55.929C59,59.391 46.194,62.202 34.974,62.202C23.753,62.202 18.34,59.391 18.34,55.929C18.34,52.467 23.753,49.656 34.974,49.656Z" style="fill:#b5b8e2;fill-opacity:0.18;"/>
    <g>
        <path d="M47.242,55.542C47.242,58.394 40.422,60.709 32.021,60.709C23.621,60.709 16.801,58.394 16.801,55.542L16.801,6.791L47.242,6.791L47.242,55.542Z" style="fill:#1a2499;fill-opacity:0.75;"/>
        <clipPath id="_clip1">
            <path d="M47.242,55.542C47.242,58.394 40.422,60.709 32.021,60.709C23.621,60.709 16.801,58.394 16.801,55.542L16.801,6.791L47.242,6.791L47.242,55.542Z"/>
        </clipPath>
        <g clip-path="url(#_clip1)">
            <rect x="16.801" y="-10.917" width="19.912" height="83.947" style="fill:#868cd4;"/>
            <rect x="18.429" y="-18.055" width="3.139" height="91.084" style="fill:#fff;fill-opacity:0.33;"/>
        </g>
        <ellipse cx="32.021" cy="6.791" rx="15.22" ry="3.721" style="fill:#c4c6ea;"/>
        <clipPath id="_clip2">
            <ellipse cx="32.021" cy="6.791" rx="15.22" ry="3.721"/>
        </clipPath>
        <g clip-path="url(#_clip2)">
            <ellipse cx="32.021" cy="8.335" rx="15.22" ry="3.721" style="fill:#f0f0f9;"/>
            <path d="M30.612,6.264C31.242,5.925 32,5.925 32.629,6.264C34.042,7.024 36.671,8.44 38.762,9.566C39.12,9.759 39.3,10.17 39.201,10.563C39.102,10.957 38.748,11.233 38.342,11.233C34.575,11.233 28.63,11.233 24.873,11.233C24.47,11.233 24.119,10.959 24.02,10.568C23.922,10.178 24.101,9.77 24.456,9.579C26.551,8.451 29.195,7.027 30.612,6.264Z" style="fill:#c4c6ea;"/>
            <path d="M31.378,6.542C32.021,6.184 32.805,6.184 33.448,6.542C34.746,7.266 37.027,8.536 38.887,9.572C39.239,9.769 39.415,10.179 39.313,10.569C39.212,10.96 38.859,11.233 38.456,11.233C35.025,11.233 29.766,11.233 26.344,11.233C25.944,11.233 25.594,10.962 25.493,10.574C25.392,10.187 25.566,9.78 25.916,9.585C27.781,8.546 30.075,7.268 31.378,6.542Z" style="fill:#f2f2f6;"/>
            <g>
                <ellipse cx="32.021" cy="8.024" rx="1.143" ry="0.28" style="fill:#fff;"/>
                <ellipse cx="32.021" cy="9.74" rx="1.143" ry="0.28" style="fill:#fff;"/>
                <ellipse cx="30.588" cy="8.882" rx="1.143" ry="0.28" style="fill:#fff;"/>
                <ellipse cx="29.303" cy="9.74" rx="1.143" ry="0.28" style="fill:#fff;"/>
                <ellipse cx="34.74" cy="9.74" rx="1.143" ry="0.28" style="fill:#fff;"/>
                <ellipse cx="33.455" cy="8.882" rx="1.143" ry="0.28" style="fill:#fff;"/>
                <ellipse cx="32.021" cy="7.831" rx="1.143" ry="0.28" style="fill:#7e81af;"/>
                <ellipse cx="32.021" cy="9.547" rx="1.143" ry="0.28" style="fill:#7e81af;"/>
                <ellipse cx="30.588" cy="8.689" rx="1.143" ry="0.28" style="fill:#7e81af;"/>
                <ellipse cx="29.303" cy="9.547" rx="1.143" ry="0.28" style="fill:#7e81af;"/>
                <ellipse cx="34.74" cy="9.547" rx="1.143" ry="0.28" style="fill:#7e81af;"/>
                <ellipse cx="33.455" cy="8.689" rx="1.143" ry="0.28" style="fill:#7e81af;"/>
            </g>
        </g>
    </g>
    <g id="Layer-1" serif:id="Layer 1">
        <path d="M30.234,40.183L31.782,40.218L33.034,46.673L31.891,46.648L31.593,45.084L30.27,45.055L29.982,46.605L28.929,46.583L30.234,40.183ZM33.664,40.225L34.788,40.175L34.788,45.622L36.612,45.541L36.612,46.514L33.664,46.644L33.664,40.225ZM25.237,44.548L26.294,44.611C26.339,45.057 26.464,45.527 26.921,45.57C27.324,45.608 27.449,45.269 27.449,44.944C27.449,44.584 27.225,44.257 26.858,43.862L26.222,43.137C25.675,42.555 25.335,42.001 25.335,41.325C25.335,40.461 25.873,39.774 26.947,39.874C27.727,39.947 28.425,40.427 28.479,41.755L27.485,41.698C27.431,41.189 27.297,40.825 26.894,40.787C26.562,40.756 26.383,40.991 26.383,41.343C26.383,41.694 26.724,42.059 27.037,42.403L27.628,43.062C28.219,43.702 28.551,44.282 28.551,44.993C28.551,45.921 27.942,46.584 26.912,46.487C25.9,46.393 25.299,45.661 25.237,44.548ZM37.702,40.95L36.493,41.076L36.493,40.113L40.04,39.744L40.04,40.708L38.84,40.832L38.84,46.288L37.702,46.406L37.702,40.95ZM31.413,44.162L30.954,41.487L30.927,41.486L30.45,44.141L31.413,44.162ZM33.164,31.168L34.298,31.143L34.298,37.562L33.164,37.587L33.164,31.168ZM28.93,31.101L30.703,31.149C31.639,31.174 32.387,31.68 32.387,32.689L32.387,36.029C32.387,37.109 31.639,37.593 30.685,37.567L28.93,37.52L28.93,31.101ZM35.086,36.009L35.086,31.138L36.234,31.052L36.234,35.869C36.234,36.346 36.503,36.551 36.862,36.524C37.266,36.494 37.473,36.199 37.473,35.785L37.473,30.96L38.549,30.879L38.549,35.714C38.558,36.793 37.805,37.452 36.791,37.529C35.75,37.607 35.086,37.134 35.086,36.009ZM24.601,35.504L24.601,32.282C24.601,31.174 25.372,30.669 26.384,30.774C27.369,30.877 28.157,31.481 28.157,32.615L28.157,35.847C28.157,37.008 27.369,37.484 26.375,37.381C25.318,37.272 24.601,36.657 24.601,35.504ZM39.384,30.815L40.791,30.553L41.552,33.022L41.57,33.019L42.349,30.263L43.694,30.013L43.694,36.432L42.703,36.616L42.703,31.962L42.685,31.965L41.924,34.826L41.163,34.967L40.384,32.402L40.366,32.406L40.366,37.051L39.384,37.234L39.384,30.815ZM20.739,34.64L21.778,34.826C21.822,35.276 21.945,35.762 22.394,35.857C22.79,35.942 22.914,35.617 22.914,35.293C22.914,34.932 22.694,34.58 22.333,34.142L21.707,33.343C21.17,32.698 20.836,32.104 20.836,31.429C20.836,30.565 21.364,29.939 22.421,30.164C23.187,30.328 23.873,30.888 23.926,32.223L22.949,32.05C22.896,31.535 22.764,31.156 22.368,31.071C22.042,31.002 21.866,31.216 21.866,31.567C21.866,31.918 22.2,32.323 22.509,32.704L23.09,33.431C23.671,34.14 23.996,34.759 23.996,35.47C23.996,36.397 23.398,36.99 22.385,36.774C21.39,36.561 20.801,35.761 20.739,34.64ZM30.586,36.592C31.063,36.605 31.234,36.259 31.234,35.934L31.234,32.775C31.234,32.405 31.027,32.13 30.577,32.117L30.055,32.103L30.055,36.578L30.586,36.592ZM27.011,35.773L27.011,32.469C27.011,32.073 26.769,31.805 26.375,31.764C25.954,31.72 25.748,31.969 25.748,32.356L25.748,35.642C25.748,36.029 25.963,36.339 26.384,36.383C26.805,36.427 27.011,36.151 27.011,35.773ZM29.242,26.849L29.242,23.626C29.242,22.519 30.017,21.949 31.034,21.97C32.024,21.99 32.816,22.528 32.816,23.663L32.816,26.895C32.816,28.056 32.024,28.598 31.025,28.578C29.962,28.556 29.242,28.001 29.242,26.849ZM33.213,22.142L34.337,22.075L34.867,26.095L34.885,26.094L35.496,22.006L36.583,21.942L37.168,25.94L37.186,25.939L37.707,21.875L38.713,21.815L37.716,28.329L36.655,28.392L36.008,24.136L35.972,24.139L35.307,28.472L34.229,28.537L33.213,22.142ZM25.811,21.742L25.811,28.161L28.754,28.422L28.754,27.449L26.932,27.288L26.932,21.842L25.811,21.742ZM31.664,26.916L31.664,23.612C31.664,23.216 31.421,22.968 31.025,22.96C30.602,22.952 30.394,23.217 30.394,23.604L30.394,26.891C30.394,27.277 30.611,27.57 31.034,27.579C31.457,27.587 31.664,27.294 31.664,26.916Z" style="fill:#fff;fill-rule:nonzero;"/>
        <clipPath id="_clip3">
            <path d="M30.234,40.183L31.782,40.218L33.034,46.673L31.891,46.648L31.593,45.084L30.27,45.055L29.982,46.605L28.929,46.583L30.234,40.183ZM33.664,40.225L34.788,40.175L34.788,45.622L36.612,45.541L36.612,46.514L33.664,46.644L33.664,40.225ZM25.237,44.548L26.294,44.611C26.339,45.057 26.464,45.527 26.921,45.57C27.324,45.608 27.449,45.269 27.449,44.944C27.449,44.584 27.225,44.257 26.858,43.862L26.222,43.137C25.675,42.555 25.335,42.001 25.335,41.325C25.335,40.461 25.873,39.774 26.947,39.874C27.727,39.947 28.425,40.427 28.479,41.755L27.485,41.698C27.431,41.189 27.297,40.825 26.894,40.787C26.562,40.756 26.383,40.991 26.383,41.343C26.383,41.694 26.724,42.059 27.037,42.403L27.628,43.062C28.219,43.702 28.551,44.282 28.551,44.993C28.551,45.921 27.942,46.584 26.912,46.487C25.9,46.393 25.299,45.661 25.237,44.548ZM37.702,40.95L36.493,41.076L36.493,40.113L40.04,39.744L40.04,40.708L38.84,40.832L38.84,46.288L37.702,46.406L37.702,40.95ZM31.413,44.162L30.954,41.487L30.927,41.486L30.45,44.141L31.413,44.162ZM33.164,31.168L34.298,31.143L34.298,37.562L33.164,37.587L33.164,31.168ZM28.93,31.101L30.703,31.149C31.639,31.174 32.387,31.68 32.387,32.689L32.387,36.029C32.387,37.109 31.639,37.593 30.685,37.567L28.93,37.52L28.93,31.101ZM35.086,36.009L35.086,31.138L36.234,31.052L36.234,35.869C36.234,36.346 36.503,36.551 36.862,36.524C37.266,36.494 37.473,36.199 37.473,35.785L37.473,30.96L38.549,30.879L38.549,35.714C38.558,36.793 37.805,37.452 36.791,37.529C35.75,37.607 35.086,37.134 35.086,36.009ZM24.601,35.504L24.601,32.282C24.601,31.174 25.372,30.669 26.384,30.774C27.369,30.877 28.157,31.481 28.157,32.615L28.157,35.847C28.157,37.008 27.369,37.484 26.375,37.381C25.318,37.272 24.601,36.657 24.601,35.504ZM39.384,30.815L40.791,30.553L41.552,33.022L41.57,33.019L42.349,30.263L43.694,30.013L43.694,36.432L42.703,36.616L42.703,31.962L42.685,31.965L41.924,34.826L41.163,34.967L40.384,32.402L40.366,32.406L40.366,37.051L39.384,37.234L39.384,30.815ZM20.739,34.64L21.778,34.826C21.822,35.276 21.945,35.762 22.394,35.857C22.79,35.942 22.914,35.617 22.914,35.293C22.914,34.932 22.694,34.58 22.333,34.142L21.707,33.343C21.17,32.698 20.836,32.104 20.836,31.429C20.836,30.565 21.364,29.939 22.421,30.164C23.187,30.328 23.873,30.888 23.926,32.223L22.949,32.05C22.896,31.535 22.764,31.156 22.368,31.071C22.042,31.002 21.866,31.216 21.866,31.567C21.866,31.918 22.2,32.323 22.509,32.704L23.09,33.431C23.671,34.14 23.996,34.759 23.996,35.47C23.996,36.397 23.398,36.99 22.385,36.774C21.39,36.561 20.801,35.761 20.739,34.64ZM30.586,36.592C31.063,36.605 31.234,36.259 31.234,35.934L31.234,32.775C31.234,32.405 31.027,32.13 30.577,32.117L30.055,32.103L30.055,36.578L30.586,36.592ZM27.011,35.773L27.011,32.469C27.011,32.073 26.769,31.805 26.375,31.764C25.954,31.72 25.748,31.969 25.748,32.356L25.748,35.642C25.748,36.029 25.963,36.339 26.384,36.383C26.805,36.427 27.011,36.151 27.011,35.773ZM29.242,26.849L29.242,23.626C29.242,22.519 30.017,21.949 31.034,21.97C32.024,21.99 32.816,22.528 32.816,23.663L32.816,26.895C32.816,28.056 32.024,28.598 31.025,28.578C29.962,28.556 29.242,28.001 29.242,26.849ZM33.213,22.142L34.337,22.075L34.867,26.095L34.885,26.094L35.496,22.006L36.583,21.942L37.168,25.94L37.186,25.939L37.707,21.875L38.713,21.815L37.716,28.329L36.655,28.392L36.008,24.136L35.972,24.139L35.307,28.472L34.229,28.537L33.213,22.142ZM25.811,21.742L25.811,28.161L28.754,28.422L28.754,27.449L26.932,27.288L26.932,21.842L25.811,21.742ZM31.664,26.916L31.664,23.612C31.664,23.216 31.421,22.968 31.025,22.96C30.602,22.952 30.394,23.217 30.394,23.604L30.394,26.891C30.394,27.277 30.611,27.57 31.034,27.579C31.457,27.587 31.664,27.294 31.664,26.916Z" clip-rule="nonzero"/>
        </clipPath>
        <g clip-path="url(#_clip3)">
            <rect x="36.991" y="-9.401" width="19.912" height="83.947" style="fill:#868cd4;fill-opacity:0.29;"/>
        </g>
    </g>
</svg>
