<?xml version="1.0" encoding="UTF-8" standalone="no"?>
<!DOCTYPE svg PUBLIC "-//W3C//DTD SVG 1.1//EN" "http://www.w3.org/Graphics/SVG/1.1/DTD/svg11.dtd">
<svg width="100%" height="100%" viewBox="0 0 65 65" version="1.1" xmlns="http://www.w3.org/2000/svg" xmlns:xlink="http://www.w3.org/1999/xlink" xml:space="preserve" xmlns:serif="http://www.serif.com/" style="fill-rule:evenodd;clip-rule:evenodd;stroke-linejoin:round;stroke-miterlimit:2;">
    <rect id="Low-Sodium-Salt" x="0.217" y="0.618" width="64" height="64" style="fill:none;"/>
    <path d="M34.974,49.702C46.194,49.702 59,52.512 59,55.975C59,59.437 46.194,62.247 34.974,62.247C23.753,62.247 18.34,59.437 18.34,55.975C18.34,52.512 23.753,49.702 34.974,49.702Z" style="fill:#b5b8e2;fill-opacity:0.18;"/>
    <g>
        <path d="M47.242,55.588C47.242,58.44 40.422,60.755 32.021,60.755C23.621,60.755 16.801,58.44 16.801,55.588L16.801,6.836L47.242,6.836L47.242,55.588Z" style="fill:#666fcc;"/>
        <clipPath id="_clip1">
            <path d="M47.242,55.588C47.242,58.44 40.422,60.755 32.021,60.755C23.621,60.755 16.801,58.44 16.801,55.588L16.801,6.836L47.242,6.836L47.242,55.588Z"/>
        </clipPath>
        <g clip-path="url(#_clip1)">
            <rect x="16.801" y="-10.871" width="19.912" height="83.947" style="fill:#868cd4;"/>
            <rect x="18.429" y="-18.009" width="3.139" height="91.084" style="fill:#b3b7e4;"/>
        </g>
        <ellipse cx="32.021" cy="6.836" rx="15.22" ry="3.721" style="fill:#c4c6ea;"/>
        <clipPath id="_clip2">
            <ellipse cx="32.021" cy="6.836" rx="15.22" ry="3.721"/>
        </clipPath>
        <g clip-path="url(#_clip2)">
            <ellipse cx="32.021" cy="8.38" rx="15.22" ry="3.721" style="fill:#f0f0f9;"/>
            <path d="M30.612,6.31C31.242,5.971 32,5.971 32.629,6.31C34.042,7.07 36.671,8.486 38.762,9.612C39.12,9.805 39.3,10.215 39.201,10.609C39.102,11.003 38.748,11.278 38.342,11.278C34.575,11.278 28.63,11.278 24.873,11.278C24.47,11.278 24.119,11.005 24.02,10.614C23.922,10.223 24.101,9.816 24.456,9.625C26.551,8.496 29.195,7.073 30.612,6.31Z" style="fill:#c4c6ea;"/>
            <path d="M31.378,6.588C32.021,6.23 32.805,6.23 33.448,6.588C34.746,7.311 37.027,8.582 38.887,9.618C39.239,9.815 39.415,10.224 39.313,10.615C39.212,11.006 38.859,11.278 38.456,11.278C35.025,11.278 29.766,11.278 26.344,11.278C25.944,11.278 25.594,11.008 25.493,10.62C25.392,10.232 25.566,9.826 25.916,9.631C27.781,8.592 30.075,7.314 31.378,6.588Z" style="fill:#f2f2f6;"/>
            <g>
                <ellipse cx="32.021" cy="8.07" rx="1.143" ry="0.28" style="fill:#fff;"/>
                <ellipse cx="32.021" cy="9.786" rx="1.143" ry="0.28" style="fill:#fff;"/>
                <ellipse cx="30.588" cy="8.928" rx="1.143" ry="0.28" style="fill:#fff;"/>
                <ellipse cx="29.303" cy="9.786" rx="1.143" ry="0.28" style="fill:#fff;"/>
                <ellipse cx="34.74" cy="9.786" rx="1.143" ry="0.28" style="fill:#fff;"/>
                <ellipse cx="33.455" cy="8.928" rx="1.143" ry="0.28" style="fill:#fff;"/>
                <ellipse cx="32.021" cy="7.877" rx="1.143" ry="0.28" style="fill:#7e81af;"/>
                <ellipse cx="32.021" cy="9.593" rx="1.143" ry="0.28" style="fill:#7e81af;"/>
                <ellipse cx="30.588" cy="8.735" rx="1.143" ry="0.28" style="fill:#7e81af;"/>
                <ellipse cx="29.303" cy="9.593" rx="1.143" ry="0.28" style="fill:#7e81af;"/>
                <ellipse cx="34.74" cy="9.593" rx="1.143" ry="0.28" style="fill:#7e81af;"/>
                <ellipse cx="33.455" cy="8.735" rx="1.143" ry="0.28" style="fill:#7e81af;"/>
            </g>
        </g>
    </g>
    <g id="Layer-1" serif:id="Layer 1">
        <path d="M30.234,40.229L31.782,40.264L33.034,46.719L31.891,46.694L31.593,45.13L30.27,45.101L29.982,46.651L28.929,46.629L30.234,40.229ZM33.664,40.271L34.788,40.221L34.788,45.668L36.612,45.587L36.612,46.56L33.664,46.69L33.664,40.271ZM25.237,44.594L26.294,44.657C26.339,45.103 26.464,45.573 26.921,45.616C27.324,45.654 27.449,45.315 27.449,44.99C27.449,44.63 27.225,44.303 26.858,43.908L26.222,43.183C25.675,42.601 25.335,42.047 25.335,41.371C25.335,40.507 25.873,39.82 26.947,39.92C27.727,39.993 28.425,40.473 28.479,41.801L27.485,41.744C27.431,41.235 27.297,40.871 26.894,40.833C26.562,40.802 26.383,41.037 26.383,41.389C26.383,41.74 26.724,42.105 27.037,42.449L27.628,43.108C28.219,43.748 28.551,44.328 28.551,45.039C28.551,45.967 27.942,46.63 26.912,46.533C25.9,46.439 25.299,45.707 25.237,44.594ZM37.702,40.996L36.493,41.122L36.493,40.159L40.04,39.79L40.04,40.754L38.84,40.878L38.84,46.334L37.702,46.452L37.702,40.996ZM31.413,44.208L30.954,41.533L30.927,41.532L30.45,44.187L31.413,44.208ZM33.164,31.214L34.298,31.189L34.298,37.608L33.164,37.633L33.164,31.214ZM28.93,31.147L30.703,31.195C31.639,31.22 32.387,31.726 32.387,32.735L32.387,36.075C32.387,37.155 31.639,37.639 30.685,37.613L28.93,37.566L28.93,31.147ZM35.086,36.055L35.086,31.184L36.234,31.098L36.234,35.915C36.234,36.392 36.503,36.597 36.862,36.57C37.266,36.54 37.473,36.245 37.473,35.831L37.473,31.006L38.549,30.925L38.549,35.76C38.558,36.839 37.805,37.498 36.791,37.575C35.75,37.653 35.086,37.18 35.086,36.055ZM24.601,35.55L24.601,32.328C24.601,31.22 25.372,30.715 26.384,30.82C27.369,30.923 28.157,31.527 28.157,32.661L28.157,35.893C28.157,37.054 27.369,37.53 26.375,37.427C25.318,37.318 24.601,36.703 24.601,35.55ZM39.384,30.861L40.791,30.599L41.552,33.068L41.57,33.065L42.349,30.309L43.694,30.059L43.694,36.478L42.703,36.662L42.703,32.008L42.685,32.011L41.924,34.872L41.163,35.013L40.384,32.448L40.366,32.452L40.366,37.097L39.384,37.28L39.384,30.861ZM20.739,34.686L21.778,34.872C21.822,35.322 21.945,35.808 22.394,35.903C22.79,35.988 22.914,35.663 22.914,35.339C22.914,34.978 22.694,34.626 22.333,34.188L21.707,33.389C21.17,32.744 20.836,32.15 20.836,31.475C20.836,30.611 21.364,29.985 22.421,30.21C23.187,30.374 23.873,30.934 23.926,32.269L22.949,32.096C22.896,31.581 22.764,31.202 22.368,31.117C22.042,31.048 21.866,31.262 21.866,31.613C21.866,31.964 22.2,32.369 22.509,32.75L23.09,33.477C23.671,34.186 23.996,34.805 23.996,35.516C23.996,36.443 23.398,37.036 22.385,36.82C21.39,36.607 20.801,35.807 20.739,34.686ZM30.586,36.638C31.063,36.651 31.234,36.305 31.234,35.98L31.234,32.821C31.234,32.451 31.027,32.176 30.577,32.163L30.055,32.149L30.055,36.624L30.586,36.638ZM27.011,35.819L27.011,32.515C27.011,32.119 26.769,31.851 26.375,31.81C25.954,31.766 25.748,32.015 25.748,32.402L25.748,35.688C25.748,36.075 25.963,36.385 26.384,36.429C26.805,36.473 27.011,36.197 27.011,35.819ZM29.242,26.895L29.242,23.672C29.242,22.565 30.017,21.995 31.034,22.016C32.024,22.036 32.816,22.574 32.816,23.709L32.816,26.941C32.816,28.102 32.024,28.644 31.025,28.624C29.962,28.602 29.242,28.047 29.242,26.895ZM33.213,22.188L34.337,22.121L34.867,26.141L34.885,26.14L35.496,22.052L36.583,21.988L37.168,25.986L37.186,25.985L37.707,21.921L38.713,21.861L37.716,28.375L36.655,28.438L36.008,24.182L35.972,24.185L35.307,28.518L34.229,28.583L33.213,22.188ZM25.811,21.788L25.811,28.207L28.754,28.468L28.754,27.495L26.932,27.334L26.932,21.888L25.811,21.788ZM31.664,26.962L31.664,23.658C31.664,23.262 31.421,23.014 31.025,23.006C30.602,22.998 30.394,23.263 30.394,23.65L30.394,26.937C30.394,27.323 30.611,27.616 31.034,27.625C31.457,27.633 31.664,27.34 31.664,26.962Z" style="fill:#fff;fill-rule:nonzero;"/>
        <clipPath id="_clip3">
            <path d="M30.234,40.229L31.782,40.264L33.034,46.719L31.891,46.694L31.593,45.13L30.27,45.101L29.982,46.651L28.929,46.629L30.234,40.229ZM33.664,40.271L34.788,40.221L34.788,45.668L36.612,45.587L36.612,46.56L33.664,46.69L33.664,40.271ZM25.237,44.594L26.294,44.657C26.339,45.103 26.464,45.573 26.921,45.616C27.324,45.654 27.449,45.315 27.449,44.99C27.449,44.63 27.225,44.303 26.858,43.908L26.222,43.183C25.675,42.601 25.335,42.047 25.335,41.371C25.335,40.507 25.873,39.82 26.947,39.92C27.727,39.993 28.425,40.473 28.479,41.801L27.485,41.744C27.431,41.235 27.297,40.871 26.894,40.833C26.562,40.802 26.383,41.037 26.383,41.389C26.383,41.74 26.724,42.105 27.037,42.449L27.628,43.108C28.219,43.748 28.551,44.328 28.551,45.039C28.551,45.967 27.942,46.63 26.912,46.533C25.9,46.439 25.299,45.707 25.237,44.594ZM37.702,40.996L36.493,41.122L36.493,40.159L40.04,39.79L40.04,40.754L38.84,40.878L38.84,46.334L37.702,46.452L37.702,40.996ZM31.413,44.208L30.954,41.533L30.927,41.532L30.45,44.187L31.413,44.208ZM33.164,31.214L34.298,31.189L34.298,37.608L33.164,37.633L33.164,31.214ZM28.93,31.147L30.703,31.195C31.639,31.22 32.387,31.726 32.387,32.735L32.387,36.075C32.387,37.155 31.639,37.639 30.685,37.613L28.93,37.566L28.93,31.147ZM35.086,36.055L35.086,31.184L36.234,31.098L36.234,35.915C36.234,36.392 36.503,36.597 36.862,36.57C37.266,36.54 37.473,36.245 37.473,35.831L37.473,31.006L38.549,30.925L38.549,35.76C38.558,36.839 37.805,37.498 36.791,37.575C35.75,37.653 35.086,37.18 35.086,36.055ZM24.601,35.55L24.601,32.328C24.601,31.22 25.372,30.715 26.384,30.82C27.369,30.923 28.157,31.527 28.157,32.661L28.157,35.893C28.157,37.054 27.369,37.53 26.375,37.427C25.318,37.318 24.601,36.703 24.601,35.55ZM39.384,30.861L40.791,30.599L41.552,33.068L41.57,33.065L42.349,30.309L43.694,30.059L43.694,36.478L42.703,36.662L42.703,32.008L42.685,32.011L41.924,34.872L41.163,35.013L40.384,32.448L40.366,32.452L40.366,37.097L39.384,37.28L39.384,30.861ZM20.739,34.686L21.778,34.872C21.822,35.322 21.945,35.808 22.394,35.903C22.79,35.988 22.914,35.663 22.914,35.339C22.914,34.978 22.694,34.626 22.333,34.188L21.707,33.389C21.17,32.744 20.836,32.15 20.836,31.475C20.836,30.611 21.364,29.985 22.421,30.21C23.187,30.374 23.873,30.934 23.926,32.269L22.949,32.096C22.896,31.581 22.764,31.202 22.368,31.117C22.042,31.048 21.866,31.262 21.866,31.613C21.866,31.964 22.2,32.369 22.509,32.75L23.09,33.477C23.671,34.186 23.996,34.805 23.996,35.516C23.996,36.443 23.398,37.036 22.385,36.82C21.39,36.607 20.801,35.807 20.739,34.686ZM30.586,36.638C31.063,36.651 31.234,36.305 31.234,35.98L31.234,32.821C31.234,32.451 31.027,32.176 30.577,32.163L30.055,32.149L30.055,36.624L30.586,36.638ZM27.011,35.819L27.011,32.515C27.011,32.119 26.769,31.851 26.375,31.81C25.954,31.766 25.748,32.015 25.748,32.402L25.748,35.688C25.748,36.075 25.963,36.385 26.384,36.429C26.805,36.473 27.011,36.197 27.011,35.819ZM29.242,26.895L29.242,23.672C29.242,22.565 30.017,21.995 31.034,22.016C32.024,22.036 32.816,22.574 32.816,23.709L32.816,26.941C32.816,28.102 32.024,28.644 31.025,28.624C29.962,28.602 29.242,28.047 29.242,26.895ZM33.213,22.188L34.337,22.121L34.867,26.141L34.885,26.14L35.496,22.052L36.583,21.988L37.168,25.986L37.186,25.985L37.707,21.921L38.713,21.861L37.716,28.375L36.655,28.438L36.008,24.182L35.972,24.185L35.307,28.518L34.229,28.583L33.213,22.188ZM25.811,21.788L25.811,28.207L28.754,28.468L28.754,27.495L26.932,27.334L26.932,21.888L25.811,21.788ZM31.664,26.962L31.664,23.658C31.664,23.262 31.421,23.014 31.025,23.006C30.602,22.998 30.394,23.263 30.394,23.65L30.394,26.937C30.394,27.323 30.611,27.616 31.034,27.625C31.457,27.633 31.664,27.34 31.664,26.962Z" clip-rule="nonzero"/>
        </clipPath>
        <g clip-path="url(#_clip3)">
            <rect x="36.991" y="-9.355" width="19.912" height="83.947" style="fill:#868cd4;fill-opacity:0.29;"/>
        </g>
    </g>
</svg>
