<?xml version="1.0" encoding="UTF-8" standalone="no"?>
<!DOCTYPE svg PUBLIC "-//W3C//DTD SVG 1.1//EN" "http://www.w3.org/Graphics/SVG/1.1/DTD/svg11.dtd">
<svg width="100%" height="100%" viewBox="0 0 64 64" version="1.1" xmlns="http://www.w3.org/2000/svg" xmlns:xlink="http://www.w3.org/1999/xlink" xml:space="preserve" xmlns:serif="http://www.serif.com/" style="fill-rule:evenodd;clip-rule:evenodd;stroke-linecap:round;stroke-miterlimit:1;">
    <rect id="Map" x="0" y="0" width="64" height="64" style="fill:none;"/>
    <path d="M6.295,58L12,19.313L50,18L56,60L41.704,58L22,60L6.295,58Z" style="fill:#cecfeb;"/>
    <path d="M9.283,6.114L3.292,52.82L21.836,59.886L23.932,10.463L9.283,6.114Z" style="fill:#f3775b;fill-rule:nonzero;"/>
    <path d="M38.95,6.114L23.932,10.463L21.836,59.886L40.98,52.82L38.95,6.114Z" style="fill:#f3775b;fill-rule:nonzero;"/>
    <path d="M38.772,6.114L40.753,52.82L60.322,58.472L57.079,33.186L54.052,9.597L38.772,6.114Z" style="fill:#f3775b;fill-rule:nonzero;"/>
    <path d="M9.283,6.114L3.292,52.82L21.836,59.886L23.932,10.463L9.283,6.114Z" style="fill:#2b307e;fill-opacity:0.227451;fill-rule:nonzero;"/>
    <path d="M38.772,6.114L40.753,52.82L60.322,58.472L57.079,33.186L54.052,9.597L38.772,6.114Z" style="fill:#2b307e;fill-opacity:0.227451;fill-rule:nonzero;"/>
    <path d="M10.072,34.113L18,40C18,40 21.923,44.273 22.51,44C23.096,43.727 34,38 34,38L36,30L40,26L44,24" style="fill:none;stroke:#fff;stroke-width:1.5px;stroke-dasharray:3,3,0,0;"/>
    <g>
        <path d="M43.372,21.204C43.5,21.214 43.621,21.26 43.727,21.34C45.633,22.945 47.456,24.67 49.321,26.336C49.596,26.597 49.565,26.715 49.572,26.891C49.593,27.436 48.993,27.887 48.524,27.537C46.618,25.932 44.795,24.206 42.93,22.541C42.695,22.318 42.707,22.214 42.687,22.071C42.624,21.631 42.865,21.196 43.372,21.204Z" style="fill:#fff;fill-rule:nonzero;"/>
        <path d="M48.378,20.556C49.381,20.668 49.092,21.367 48.876,21.736C47.451,23.883 45.92,25.938 44.441,28.039C44.21,28.349 44.105,28.314 43.949,28.322C43.465,28.346 43.065,27.67 43.376,27.141C44.8,24.994 46.331,22.939 47.81,20.838C47.952,20.648 48.066,20.541 48.378,20.556Z" style="fill:#fff;fill-rule:nonzero;"/>
    </g>
    <path d="M12,10L9.521,31.404C9.521,31.404 16.88,33.477 19.552,27.869C22.225,22.261 22.894,17.948 26.853,17.134C34.657,15.528 34.513,10.272 34.513,10.272L23.956,13.381L12,10Z" style="fill:#2b307e;"/>
    <clipPath id="_clip1">
        <path d="M12,10L9.521,31.404C9.521,31.404 16.88,33.477 19.552,27.869C22.225,22.261 22.894,17.948 26.853,17.134C34.657,15.528 34.513,10.272 34.513,10.272L23.956,13.381L12,10Z"/>
    </clipPath>
    <g clip-path="url(#_clip1)">
        <path d="M24.331,6.051L22.965,29.888L37.483,20.728L37.064,3.412L24.331,6.051Z" style="fill:#aaacdd;fill-opacity:0.662745;"/>
    </g>
    <path d="M57.944,54.927L40.591,50.282L26.267,55.614C26.267,55.614 27.597,43.607 34.877,44.668C39.24,45.304 40.457,44.095 40.457,44.095C40.457,44.095 44.51,46.625 45.928,46.083C51.826,43.829 56.233,47.497 57.944,54.927Z" style="fill:#2b307e;"/>
    <clipPath id="_clip2">
        <path d="M57.944,54.927L40.591,50.282L26.267,55.614C26.267,55.614 27.597,43.607 34.877,44.668C39.24,45.304 40.457,44.095 40.457,44.095C40.457,44.095 44.51,46.625 45.928,46.083C51.826,43.829 56.233,47.497 57.944,54.927Z"/>
    </clipPath>
    <g clip-path="url(#_clip2)">
        <path d="M40.154,37.291L40.927,54.51L23.487,62.806L23.577,43.768L40.154,37.291Z" style="fill:#7f82bd;"/>
    </g>
</svg>
