<?xml version="1.0" encoding="UTF-8" standalone="no"?>
<!DOCTYPE svg PUBLIC "-//W3C//DTD SVG 1.1//EN" "http://www.w3.org/Graphics/SVG/1.1/DTD/svg11.dtd">
<svg width="100%" height="100%" viewBox="0 0 64 64" version="1.1" xmlns="http://www.w3.org/2000/svg" xmlns:xlink="http://www.w3.org/1999/xlink" xml:space="preserve" xmlns:serif="http://www.serif.com/" style="fill-rule:evenodd;clip-rule:evenodd;stroke-linecap:round;stroke-linejoin:round;stroke-miterlimit:1.5;">
    <rect id="Medication" x="0" y="0" width="64" height="64" style="fill:none;"/>
    <g>
        <path d="M55.07,10.421C53.035,8.385 50.274,7.242 47.395,7.242C44.517,7.242 41.756,8.385 39.72,10.421C31.412,18.729 18.238,31.903 9.93,40.211C7.894,42.247 6.751,45.008 6.751,47.886C6.751,50.765 7.894,53.526 9.93,55.561C9.93,55.561 9.93,55.562 9.93,55.562C11.966,57.597 14.726,58.741 17.605,58.741C20.484,58.741 23.244,57.597 25.28,55.562C33.589,47.253 46.762,34.079 55.071,25.771C57.106,23.735 58.25,20.975 58.25,18.096C58.25,15.217 57.106,12.457 55.071,10.421C55.071,10.421 55.07,10.421 55.07,10.421Z" style="fill:none;"/>
        <clipPath id="_clip1">
            <path d="M55.07,10.421C53.035,8.385 50.274,7.242 47.395,7.242C44.517,7.242 41.756,8.385 39.72,10.421C31.412,18.729 18.238,31.903 9.93,40.211C7.894,42.247 6.751,45.008 6.751,47.886C6.751,50.765 7.894,53.526 9.93,55.561C9.93,55.561 9.93,55.562 9.93,55.562C11.966,57.597 14.726,58.741 17.605,58.741C20.484,58.741 23.244,57.597 25.28,55.562C33.589,47.253 46.762,34.079 55.071,25.771C57.106,23.735 58.25,20.975 58.25,18.096C58.25,15.217 57.106,12.457 55.071,10.421C55.071,10.421 55.07,10.421 55.07,10.421Z"/>
        </clipPath>
        <g clip-path="url(#_clip1)">
            <path d="M55.07,10.421C53.035,8.385 50.274,7.242 47.395,7.242C44.517,7.242 41.756,8.385 39.72,10.421C31.412,18.729 18.238,31.903 9.93,40.211C7.894,42.247 6.751,45.008 6.751,47.886C6.751,50.765 7.894,53.526 9.93,55.561C9.93,55.561 9.93,55.562 9.93,55.562C11.966,57.597 14.726,58.741 17.605,58.741C20.484,58.741 23.244,57.597 25.28,55.562C33.589,47.253 46.762,34.079 55.071,25.771C57.106,23.735 58.25,20.975 58.25,18.096C58.25,15.217 57.106,12.457 55.071,10.421C55.071,10.421 55.07,10.421 55.07,10.421Z" style="fill:#2b307f;fill-opacity:0.0131579;"/>
            <path d="M55.07,10.421C53.035,8.385 50.274,7.242 47.395,7.242C44.517,7.242 41.756,8.385 39.72,10.421C31.412,18.729 18.238,31.903 9.93,40.211C7.894,42.247 6.751,45.008 6.751,47.886C6.751,50.765 7.894,53.526 9.93,55.561C9.93,55.561 9.93,55.562 9.93,55.562C11.966,57.597 14.726,58.741 17.605,58.741C20.484,58.741 23.244,57.597 25.28,55.562C33.589,47.253 46.762,34.079 55.071,25.771C57.106,23.735 58.25,20.975 58.25,18.096C58.25,15.217 57.106,12.457 55.071,10.421C55.071,10.421 55.07,10.421 55.07,10.421Z" style="fill:#2b307e;"/>
            <path d="M22.693,25L0,48L18.825,64.825L40,43C40,43 40.36,35.976 35.346,30.881C29.858,25.303 22.693,25 22.693,25Z" style="fill:none;"/>
            <clipPath id="_clip2">
                <path d="M22.693,25L0,48L18.825,64.825L40,43C40,43 40.36,35.976 35.346,30.881C29.858,25.303 22.693,25 22.693,25Z"/>
            </clipPath>
            <g clip-path="url(#_clip2)">
                <path d="M55.07,10.421C53.035,8.385 50.274,7.242 47.395,7.242C44.517,7.242 41.756,8.385 39.72,10.421C31.412,18.729 18.238,31.903 9.93,40.211C7.894,42.247 6.751,45.008 6.751,47.886C6.751,50.765 7.894,53.526 9.93,55.561C9.93,55.561 9.93,55.562 9.93,55.562C11.966,57.597 14.726,58.741 17.605,58.741C20.484,58.741 23.244,57.597 25.28,55.562C33.589,47.253 46.762,34.079 55.071,25.771C57.106,23.735 58.25,20.975 58.25,18.096C58.25,15.217 57.106,12.457 55.071,10.421C55.071,10.421 55.07,10.421 55.07,10.421Z" style="fill:#f3775b;"/>
            </g>
            <path d="M54.411,9.813C54.637,10.005 54.857,10.207 55.07,10.421C55.07,10.421 55.071,10.421 55.071,10.421C59.31,14.66 59.31,21.532 55.071,25.771C46.762,34.079 33.589,47.253 25.28,55.562C21.041,59.8 14.169,59.8 9.93,55.562C9.93,55.562 9.93,55.561 9.93,55.561C8.594,54.225 7.679,52.627 7.185,50.933C11.449,54.553 17.85,54.35 21.875,50.325C30.184,42.017 43.358,28.843 51.666,20.534C54.569,17.632 55.484,13.494 54.411,9.813Z" style="fill:#2b307e;fill-opacity:0.239216;"/>
            <path d="M14.534,42.692L43.657,13.569L14.534,42.692Z" style="fill:#2b307f;fill-opacity:0.14902;stroke:#fff;stroke-width:2.5px;"/>
        </g>
    </g>
</svg>
