<?xml version="1.0" encoding="UTF-8" standalone="no"?>
<!DOCTYPE svg PUBLIC "-//W3C//DTD SVG 1.1//EN" "http://www.w3.org/Graphics/SVG/1.1/DTD/svg11.dtd">
<svg width="100%" height="100%" viewBox="0 0 64 64" version="1.1" xmlns="http://www.w3.org/2000/svg" xmlns:xlink="http://www.w3.org/1999/xlink" xml:space="preserve" xmlns:serif="http://www.serif.com/" style="fill-rule:evenodd;clip-rule:evenodd;stroke-linejoin:round;stroke-miterlimit:2;">
    <rect id="medication" x="0" y="0" width="64" height="64" style="fill:none;"/>
    <path d="M47.122,4.988C47.122,2.779 45.332,0.988 43.122,0.988L11.122,0.988C8.913,0.988 7.122,2.779 7.122,4.988L7.122,52.988C7.122,55.197 8.913,56.988 11.122,56.988L43.122,56.988C45.332,56.988 47.122,55.197 47.122,52.988L47.122,4.988Z" style="fill:#e6e6f5;"/>
    <g>
        <g>
            <circle cx="17.987" cy="13.461" r="4.645" style="fill:#2b307f;fill-opacity:0.35;"/>
            <circle cx="17.987" cy="11.789" r="4.645" style="fill:#f2f2fa;"/>
            <path d="M17.852,9.053L17.847,9.054L17.768,9.058L17.698,9.063L17.629,9.07L17.559,9.08L17.572,9.077L17.49,9.089L17.503,9.086L17.422,9.099L17.435,9.097L17.354,9.112L17.367,9.109L17.287,9.126L17.3,9.123L17.29,9.125L17.22,9.14L17.232,9.137L17.153,9.156L17.166,9.152L17.087,9.173L17.099,9.169L17.021,9.192L17.033,9.187L16.956,9.212L16.968,9.208L16.891,9.234L16.903,9.229L16.827,9.258L16.839,9.253L16.764,9.283L16.775,9.278L16.718,9.302L16.701,9.309L16.712,9.304L16.638,9.336L16.649,9.33L16.576,9.364L16.586,9.358L16.514,9.394L16.524,9.387L16.453,9.425L16.462,9.418L16.392,9.457L16.402,9.451L16.332,9.491L16.342,9.485L16.274,9.527L16.282,9.521L16.215,9.564L16.224,9.558L16.183,9.586L16.158,9.602L16.166,9.596L16.1,9.641L16.108,9.634L16.043,9.682L16.051,9.675L15.988,9.723L15.995,9.716L15.933,9.767L15.94,9.76L15.879,9.811L15.885,9.804L15.826,9.857L15.832,9.85L15.773,9.905L15.78,9.898L15.722,9.954L15.728,9.947L15.708,9.968L15.672,10.003L15.677,9.996L15.621,10.054L15.627,10.047L15.572,10.106L15.577,10.099L15.524,10.159L15.529,10.152L15.477,10.214L15.482,10.207L15.431,10.27L15.436,10.263L15.387,10.327L15.391,10.321L15.343,10.386L15.347,10.379L15.301,10.446L15.305,10.44L15.261,10.507L15.264,10.501L15.221,10.57L15.224,10.564L15.183,10.634L15.186,10.628L15.147,10.699L15.149,10.693L15.112,10.765L15.114,10.759L15.078,10.833L15.08,10.827L15.046,10.902L15.047,10.896L15.04,10.913L15.014,10.971L15.016,10.966L14.984,11.042L14.985,11.037L14.955,11.114L14.956,11.109L14.928,11.188L14.929,11.183L14.903,11.262L14.904,11.257L14.879,11.338L14.88,11.333L14.858,11.414L14.858,11.41L14.838,11.492L14.838,11.489L14.82,11.572L14.82,11.568L14.803,11.652L14.803,11.648L14.789,11.733L14.789,11.73L14.78,11.793L14.777,11.815L14.668,11.922L14.562,11.813L14.559,11.791L14.551,11.727L14.551,11.724L14.544,11.639L14.544,11.635L14.538,11.55L14.538,11.546L14.535,11.462L14.535,11.458L14.534,11.373L14.534,11.369L14.535,11.285L14.535,11.281L14.538,11.197L14.539,11.192L14.544,11.109L14.545,11.104L14.552,11.021L14.553,11.016L14.562,10.934L14.563,10.928L14.575,10.846L14.576,10.841L14.586,10.778L14.589,10.76L14.591,10.754L14.607,10.674L14.609,10.668L14.628,10.588L14.63,10.582L14.65,10.503L14.652,10.497L14.674,10.419L14.677,10.412L14.701,10.335L14.704,10.328L14.729,10.251L14.732,10.245L14.76,10.169L14.763,10.162L14.793,10.087L14.796,10.08L14.827,10.006L14.831,9.999L14.864,9.925L14.868,9.918L14.903,9.846L14.907,9.839L14.944,9.767L14.948,9.76L14.986,9.689L14.991,9.682L15.031,9.612L15.036,9.605L15.077,9.536L15.083,9.529L15.11,9.486L15.126,9.462L15.132,9.454L15.178,9.389L15.184,9.382L15.231,9.317L15.238,9.31L15.286,9.246L15.293,9.239L15.343,9.177L15.35,9.17L15.402,9.109L15.409,9.102L15.462,9.042L15.47,9.035L15.525,8.977L15.532,8.97L15.588,8.913L15.597,8.906L15.618,8.885L15.655,8.851L15.663,8.844L15.723,8.791L15.731,8.784L15.792,8.732L15.801,8.726L15.864,8.675L15.873,8.669L15.936,8.62L15.946,8.614L16.011,8.566L16.021,8.56L16.087,8.514L16.097,8.508L16.164,8.463L16.174,8.458L16.243,8.415L16.253,8.409L16.27,8.4L16.323,8.369L16.334,8.364L16.406,8.326L16.417,8.321L16.489,8.285L16.501,8.28L16.574,8.245L16.586,8.24L16.66,8.208L16.673,8.203L16.748,8.172L16.76,8.168L16.836,8.139L16.849,8.135L16.926,8.107L16.939,8.104L17.007,8.082L17.017,8.079L17.03,8.075L17.109,8.053L17.123,8.05L17.203,8.03L17.216,8.028L17.297,8.01L17.31,8.007L17.392,7.991L17.392,7.991L17.406,7.989L17.488,7.977L17.502,7.975L17.585,7.965L17.599,7.963L17.683,7.955L17.697,7.954L17.777,7.948L17.781,7.948L17.796,7.947L17.881,7.945L17.895,7.945L17.994,7.945L18.094,7.947L18.193,7.953L18.277,7.961L18.291,7.962L18.374,7.973L18.388,7.974L18.471,7.987L18.484,7.988L18.567,8.003L18.58,8.005L18.627,8.015L18.661,8.022L18.675,8.025L18.755,8.045L18.768,8.048L18.847,8.07L18.86,8.073L18.939,8.098L18.951,8.101L19.029,8.127L19.042,8.13L19.118,8.158L19.13,8.162L19.206,8.192L19.218,8.196L19.293,8.228L19.305,8.232L19.379,8.265L19.39,8.27L19.463,8.305L19.474,8.309L19.539,8.343L19.546,8.346L19.557,8.351L19.627,8.391L19.638,8.396L19.707,8.438L19.717,8.443L19.785,8.486L19.795,8.492L19.862,8.536L19.871,8.542L19.937,8.588L19.946,8.594L20.011,8.642L20.02,8.647L20.083,8.697L20.092,8.703L20.154,8.753L20.162,8.759L20.223,8.812L20.231,8.818L20.291,8.871L20.298,8.877L20.356,8.932L20.364,8.939L20.368,8.942L20.42,8.996L20.427,9.002L20.482,9.061L20.489,9.067L20.542,9.127L20.549,9.133L20.601,9.194L20.607,9.2L20.658,9.263L20.664,9.269L20.713,9.332L20.719,9.339L20.766,9.404L20.771,9.41L20.817,9.476L20.823,9.482L20.867,9.549L20.872,9.555L20.915,9.623L20.919,9.63L20.96,9.699L20.965,9.705L20.968,9.71L21.004,9.776L21.008,9.782L21.045,9.853L21.049,9.86L21.084,9.932L21.088,9.938L21.121,10.012L21.125,10.018L21.157,10.092L21.16,10.098L21.19,10.173L21.193,10.179L21.221,10.255L21.224,10.261L21.251,10.338L21.253,10.344L21.278,10.421L21.28,10.427L21.303,10.505L21.305,10.51L21.326,10.589L21.328,10.595L21.347,10.674L21.348,10.68L21.365,10.76L21.367,10.765L21.382,10.846L21.383,10.851L21.397,10.932L21.398,10.937L21.409,11.019L21.41,11.024L21.419,11.106L21.42,11.111L21.426,11.186L21.427,11.194L21.427,11.198L21.432,11.282L21.432,11.286L21.434,11.37L21.435,11.374L21.434,11.458L21.435,11.462L21.433,11.547L21.433,11.55L21.428,11.635L21.428,11.639L21.422,11.724L21.422,11.727L21.415,11.789L21.413,11.813L21.307,11.925L21.198,11.815L21.195,11.791L21.187,11.73L21.187,11.733L21.174,11.648L21.174,11.652L21.158,11.568L21.159,11.571L21.141,11.488L21.142,11.492L21.123,11.41L21.123,11.414L21.102,11.332L21.103,11.336L21.079,11.256L21.08,11.26L21.078,11.253L21.056,11.181L21.057,11.185L21.031,11.106L21.032,11.111L21.004,11.033L21.005,11.038L20.975,10.961L20.977,10.967L20.945,10.891L20.947,10.896L20.913,10.821L20.915,10.826L20.88,10.753L20.882,10.758L20.845,10.685L20.847,10.691L20.809,10.619L20.811,10.625L20.771,10.555L20.773,10.561L20.732,10.491L20.734,10.497L20.691,10.429L20.694,10.435L20.649,10.368L20.652,10.374L20.606,10.308L20.609,10.314L20.561,10.25L20.565,10.256L20.516,10.193L20.52,10.199L20.469,10.137L20.473,10.144L20.424,10.087L20.421,10.083L20.425,10.089L20.372,10.029L20.377,10.036L20.322,9.977L20.328,9.983L20.272,9.926L20.277,9.932L20.22,9.876L20.226,9.883L20.167,9.828L20.173,9.835L20.113,9.782L20.12,9.788L20.059,9.736L20.065,9.743L20.003,9.692L20.01,9.699L19.946,9.65L19.953,9.656L19.889,9.609L19.896,9.615L19.834,9.572L19.831,9.57L19.838,9.576L19.772,9.531L19.78,9.537L19.713,9.494L19.721,9.5L19.653,9.458L19.661,9.464L19.592,9.424L19.601,9.429L19.53,9.391L19.539,9.397L19.468,9.36L19.477,9.365L19.405,9.33L19.415,9.336L19.342,9.302L19.352,9.307L19.277,9.276L19.288,9.281L19.213,9.251L19.223,9.256L19.147,9.228L19.158,9.232L19.151,9.23L19.082,9.205L19.093,9.209L19.017,9.183L19.028,9.188L18.95,9.163L18.962,9.168L18.884,9.145L18.895,9.149L18.816,9.129L18.828,9.132L18.749,9.114L18.761,9.117L18.681,9.1L18.693,9.104L18.612,9.089L18.625,9.092L18.543,9.079L18.556,9.082L18.474,9.071L18.487,9.073L18.452,9.07L18.404,9.064L18.418,9.066L18.335,9.057L18.348,9.059L18.265,9.052L18.278,9.054L18.194,9.049L18.208,9.051L18.123,9.048L18.123,9.048L18.137,9.049L18.052,9.047L18.066,9.047L17.98,9.047L17.994,9.047L17.909,9.05L17.923,9.049L17.838,9.054L17.852,9.053Z" style="fill:#fff;"/>
            <path d="M14.586,13.298L14.635,13.382L14.633,13.377L14.683,13.459L14.681,13.455L14.733,13.535L14.731,13.531L14.785,13.61L14.782,13.605L14.838,13.683L14.835,13.679L14.893,13.755L14.89,13.75L14.946,13.82L14.95,13.825L14.946,13.82L15.007,13.894L15.004,13.889L15.066,13.962L15.062,13.957L15.127,14.028L15.123,14.023L15.189,14.092L15.184,14.087L15.252,14.155L15.248,14.15L15.317,14.216L15.312,14.211L15.383,14.276L15.378,14.271L15.45,14.333L15.445,14.329L15.519,14.389L15.513,14.385L15.588,14.444L15.583,14.439L15.655,14.493L15.659,14.496L15.654,14.492L15.731,14.548L15.725,14.543L15.804,14.598L15.798,14.593L15.878,14.645L15.872,14.641L15.953,14.692L15.946,14.687L16.029,14.736L16.022,14.731L16.106,14.778L16.099,14.774L16.184,14.819L16.177,14.814L16.263,14.857L16.256,14.853L16.343,14.894L16.335,14.89L16.424,14.928L16.416,14.925L16.506,14.961L16.498,14.957L16.506,14.961L16.588,14.993L16.579,14.989L16.67,15.022L16.662,15.019L16.754,15.05L16.745,15.047L16.838,15.076L16.83,15.073L16.924,15.1L16.915,15.097L17.009,15.121L17,15.119L17.096,15.141L17.087,15.138L17.183,15.158L17.174,15.156L17.271,15.173L17.261,15.171L17.359,15.186L17.349,15.185L17.392,15.19L17.448,15.198L17.438,15.196L17.537,15.208L17.527,15.207L17.627,15.216L17.617,15.215L17.718,15.221L17.708,15.221L17.809,15.225L17.798,15.224L17.891,15.227L17.983,15.227L18.075,15.225L18.167,15.221L18.171,15.221L18.264,15.215L18.354,15.208L18.444,15.198L18.535,15.186L18.525,15.188L18.623,15.173L18.613,15.175L18.711,15.158L18.701,15.16L18.798,15.141L18.788,15.143L18.884,15.121L18.874,15.124L18.886,15.121L18.97,15.101L18.96,15.104L19.055,15.079L19.045,15.082L19.139,15.055L19.13,15.058L19.223,15.029L19.213,15.032L19.305,15L19.296,15.004L19.387,14.97L19.379,14.974L19.469,14.938L19.46,14.942L19.549,14.904L19.54,14.908L19.608,14.877L19.628,14.868L19.62,14.872L19.707,14.832L19.699,14.836L19.786,14.793L19.778,14.797L19.863,14.753L19.855,14.757L19.939,14.71L19.932,14.715L20.014,14.666L20.007,14.671L20.088,14.62L20.082,14.625L20.162,14.572L20.155,14.577L20.234,14.523L20.227,14.528L20.275,14.493L20.305,14.472L20.298,14.477L20.375,14.42L20.369,14.425L20.444,14.366L20.439,14.371L20.512,14.31L20.507,14.315L20.579,14.253L20.574,14.258L20.645,14.194L20.639,14.199L20.709,14.133L20.704,14.138L20.771,14.071L20.767,14.076L20.833,14.007L20.828,14.012L20.852,13.986L20.893,13.942L20.889,13.947L20.953,13.876L20.949,13.881L21.011,13.808L21.007,13.813L21.067,13.738L21.064,13.744L21.122,13.667L21.119,13.673L21.176,13.595L21.172,13.6L21.227,13.521L21.224,13.526L21.277,13.446L21.275,13.451L21.326,13.369L21.323,13.374L21.372,13.291L21.37,13.295L21.417,13.211L21.415,13.216L21.46,13.13L21.458,13.135L21.501,13.047L21.5,13.052L21.541,12.964L21.539,12.968L21.578,12.879L21.577,12.883L21.614,12.792L21.612,12.797L21.62,12.776L21.648,12.705L21.647,12.709L21.68,12.617L21.679,12.621L21.71,12.527L21.709,12.531L21.738,12.436L21.738,12.439L21.764,12.343L21.764,12.347L21.788,12.25L21.788,12.253L21.81,12.155L21.809,12.158L21.829,12.059L21.829,12.062L21.846,11.962L21.846,11.965L21.861,11.864L21.861,11.867L21.873,11.765L21.873,11.768L21.88,11.692L21.883,11.665L21.965,11.585L22.045,11.667L22.047,11.694L22.052,11.77L22.052,11.772L22.056,11.874L22.056,11.877L22.058,11.979L22.058,11.981L22.057,12.083L22.057,12.086L22.054,12.186L22.054,12.189L22.048,12.29L22.047,12.293L22.039,12.393L22.039,12.396L22.028,12.495L22.027,12.499L22.014,12.597L22.013,12.601L21.998,12.698L21.997,12.702L21.979,12.799L21.978,12.803L21.962,12.878L21.957,12.899L21.956,12.904L21.933,12.999L21.931,13.003L21.905,13.097L21.904,13.102L21.876,13.195L21.874,13.2L21.844,13.292L21.842,13.297L21.809,13.388L21.807,13.393L21.773,13.484L21.77,13.488L21.734,13.578L21.731,13.583L21.692,13.671L21.69,13.676L21.649,13.764L21.646,13.769L21.603,13.855L21.6,13.86L21.555,13.945L21.552,13.95L21.505,14.034L21.501,14.039L21.452,14.122L21.449,14.127L21.398,14.208L21.394,14.214L21.341,14.294L21.337,14.299L21.302,14.349L21.282,14.378L21.278,14.383L21.22,14.46L21.216,14.465L21.157,14.54L21.152,14.545L21.091,14.619L21.086,14.625L21.023,14.697L21.018,14.702L20.954,14.773L20.948,14.778L20.882,14.847L20.876,14.853L20.809,14.92L20.803,14.925L20.734,14.991L20.727,14.996L20.701,15.021L20.656,15.06L20.65,15.065L20.577,15.127L20.57,15.132L20.495,15.192L20.489,15.197L20.413,15.255L20.405,15.26L20.328,15.317L20.321,15.321L20.242,15.376L20.234,15.381L20.154,15.434L20.146,15.438L20.065,15.489L20.057,15.493L19.974,15.542L19.965,15.546L19.946,15.557L19.881,15.593L19.872,15.597L19.786,15.64L19.778,15.644L19.69,15.686L19.681,15.69L19.593,15.729L19.584,15.733L19.494,15.77L19.485,15.774L19.394,15.809L19.385,15.812L19.293,15.845L19.284,15.848L19.191,15.879L19.181,15.882L19.099,15.907L19.087,15.911L19.077,15.913L18.982,15.938L18.972,15.941L18.876,15.964L18.866,15.966L18.769,15.986L18.758,15.988L18.661,16.006L18.66,16.006L18.65,16.008L18.551,16.022L18.541,16.023L18.441,16.036L18.43,16.037L18.33,16.046L18.319,16.047L18.224,16.054L18.218,16.054L18.208,16.055L18.106,16.057L18.095,16.058L17.992,16.058L17.982,16.058L17.879,16.056L17.869,16.056L17.767,16.051L17.756,16.05L17.655,16.041L17.645,16.041L17.545,16.029L17.534,16.028L17.435,16.015L17.425,16.013L17.326,15.997L17.316,15.996L17.26,15.985L17.218,15.976L17.208,15.975L17.111,15.952L17.102,15.95L17.006,15.926L16.996,15.923L16.901,15.896L16.892,15.894L16.798,15.865L16.789,15.862L16.696,15.831L16.687,15.828L16.595,15.794L16.586,15.791L16.496,15.755L16.487,15.752L16.398,15.714L16.389,15.711L16.301,15.671L16.292,15.667L16.213,15.629L16.205,15.625L16.197,15.621L16.112,15.576L16.104,15.572L16.02,15.525L16.012,15.521L15.929,15.472L15.922,15.468L15.84,15.417L15.833,15.412L15.753,15.359L15.746,15.355L15.667,15.3L15.66,15.296L15.583,15.239L15.576,15.235L15.5,15.176L15.494,15.172L15.42,15.111L15.413,15.107L15.34,15.045L15.335,15.04L15.263,14.977L15.257,14.972L15.253,14.968L15.188,14.906L15.183,14.901L15.115,14.834L15.11,14.829L15.044,14.76L15.039,14.755L14.974,14.684L14.969,14.679L14.907,14.607L14.902,14.602L14.841,14.528L14.837,14.524L14.777,14.448L14.773,14.444L14.716,14.367L14.712,14.362L14.656,14.284L14.652,14.279L14.599,14.2L14.595,14.195L14.543,14.115L14.54,14.11L14.536,14.104L14.49,14.027L14.487,14.023L14.44,13.939L14.437,13.934L14.391,13.85L14.388,13.845L14.345,13.759L14.342,13.754L14.301,13.667L14.298,13.663L14.259,13.574L14.257,13.57L14.22,13.481L14.218,13.476L14.183,13.386L14.181,13.382L14.148,13.29L14.146,13.286L14.115,13.194L14.113,13.19L14.085,13.096L14.083,13.092L14.057,12.998L14.056,12.994L14.032,12.899L14.031,12.895L14.009,12.8L14.008,12.796L13.989,12.699L13.988,12.696L13.971,12.598L13.97,12.595L13.955,12.497L13.954,12.493L13.943,12.404L13.942,12.391L13.933,12.292L13.932,12.289L13.926,12.189L13.925,12.186L13.921,12.085L13.921,12.082L13.919,11.981L13.919,11.978L13.92,11.877L13.92,11.874L13.923,11.772L13.923,11.77L13.928,11.696L13.93,11.667L14.01,11.583L14.092,11.665L14.094,11.694L14.101,11.768L14.101,11.765L14.112,11.867L14.112,11.865L14.126,11.965L14.125,11.963L14.142,12.063L14.142,12.06L14.16,12.159L14.16,12.156L14.181,12.254L14.181,12.251L14.204,12.348L14.203,12.345L14.206,12.353L14.229,12.441L14.228,12.437L14.255,12.533L14.255,12.529L14.284,12.623L14.284,12.619L14.315,12.713L14.314,12.709L14.349,12.801L14.347,12.797L14.384,12.888L14.382,12.884L14.421,12.973L14.419,12.969L14.46,13.058L14.458,13.053L14.501,13.141L14.499,13.136L14.544,13.222L14.542,13.218L14.589,13.303L14.586,13.298Z" style="fill:#c1c2dd;fill-opacity:0.3;"/>
        </g>
        <g>
            <circle cx="17.987" cy="29.824" r="4.645" style="fill:#2b307f;fill-opacity:0.35;"/>
            <circle cx="17.987" cy="28.152" r="4.645" style="fill:#f2f2fa;"/>
            <path d="M17.852,25.416L17.847,25.416L17.768,25.421L17.698,25.426L17.629,25.433L17.559,25.442L17.572,25.44L17.49,25.452L17.503,25.449L17.422,25.462L17.435,25.46L17.354,25.475L17.367,25.472L17.287,25.489L17.3,25.486L17.29,25.488L17.22,25.503L17.232,25.499L17.153,25.519L17.166,25.515L17.087,25.536L17.099,25.532L17.021,25.555L17.033,25.55L16.956,25.575L16.968,25.57L16.891,25.597L16.903,25.592L16.827,25.621L16.839,25.616L16.764,25.646L16.775,25.641L16.718,25.665L16.701,25.672L16.712,25.667L16.638,25.699L16.649,25.693L16.576,25.727L16.586,25.721L16.514,25.756L16.524,25.75L16.453,25.788L16.462,25.781L16.392,25.82L16.402,25.814L16.332,25.854L16.342,25.848L16.274,25.89L16.282,25.883L16.215,25.927L16.224,25.92L16.183,25.949L16.158,25.965L16.166,25.958L16.1,26.004L16.108,25.997L16.043,26.044L16.051,26.037L15.988,26.086L15.995,26.079L15.933,26.129L15.94,26.122L15.879,26.174L15.885,26.167L15.826,26.22L15.832,26.213L15.773,26.268L15.78,26.261L15.722,26.316L15.728,26.309L15.708,26.33L15.672,26.366L15.677,26.359L15.621,26.417L15.627,26.41L15.572,26.469L15.577,26.462L15.524,26.522L15.529,26.515L15.477,26.577L15.482,26.57L15.431,26.633L15.436,26.626L15.387,26.69L15.391,26.683L15.343,26.749L15.347,26.742L15.301,26.809L15.305,26.802L15.261,26.87L15.264,26.864L15.221,26.933L15.224,26.927L15.183,26.997L15.186,26.991L15.147,27.062L15.149,27.056L15.112,27.128L15.114,27.122L15.078,27.196L15.08,27.19L15.046,27.265L15.047,27.259L15.04,27.276L15.014,27.334L15.016,27.329L14.984,27.405L14.985,27.4L14.955,27.477L14.956,27.472L14.928,27.55L14.929,27.546L14.903,27.625L14.904,27.62L14.879,27.7L14.88,27.696L14.858,27.777L14.858,27.773L14.838,27.855L14.838,27.851L14.82,27.934L14.82,27.931L14.803,28.015L14.803,28.011L14.789,28.096L14.789,28.093L14.78,28.156L14.777,28.178L14.668,28.285L14.562,28.176L14.559,28.153L14.551,28.09L14.551,28.087L14.544,28.001L14.544,27.998L14.538,27.913L14.538,27.909L14.535,27.824L14.535,27.821L14.534,27.736L14.534,27.732L14.535,27.648L14.535,27.643L14.538,27.56L14.539,27.555L14.544,27.472L14.545,27.467L14.552,27.384L14.553,27.379L14.562,27.296L14.563,27.291L14.575,27.209L14.576,27.204L14.586,27.141L14.589,27.123L14.591,27.117L14.607,27.036L14.609,27.031L14.628,26.951L14.63,26.945L14.65,26.866L14.652,26.86L14.674,26.781L14.677,26.775L14.701,26.697L14.704,26.691L14.729,26.614L14.732,26.608L14.76,26.532L14.763,26.525L14.793,26.45L14.796,26.443L14.827,26.368L14.831,26.362L14.864,26.288L14.868,26.281L14.903,26.208L14.907,26.201L14.944,26.13L14.948,26.123L14.986,26.052L14.991,26.045L15.031,25.975L15.036,25.968L15.077,25.899L15.083,25.892L15.11,25.849L15.126,25.824L15.132,25.817L15.178,25.752L15.184,25.744L15.231,25.68L15.238,25.673L15.286,25.609L15.293,25.602L15.343,25.54L15.35,25.533L15.402,25.472L15.409,25.465L15.462,25.405L15.47,25.398L15.525,25.34L15.532,25.333L15.588,25.276L15.597,25.269L15.618,25.248L15.655,25.214L15.663,25.207L15.723,25.154L15.731,25.147L15.792,25.095L15.801,25.088L15.864,25.038L15.873,25.032L15.936,24.983L15.946,24.976L16.011,24.929L16.021,24.923L16.087,24.877L16.097,24.871L16.164,24.826L16.174,24.821L16.243,24.778L16.253,24.772L16.27,24.762L16.323,24.732L16.334,24.727L16.406,24.689L16.417,24.684L16.489,24.647L16.501,24.642L16.574,24.608L16.586,24.603L16.66,24.571L16.673,24.566L16.748,24.535L16.76,24.531L16.836,24.502L16.849,24.498L16.926,24.47L16.939,24.467L17.007,24.444L17.017,24.441L17.03,24.438L17.109,24.416L17.123,24.413L17.203,24.393L17.216,24.39L17.297,24.372L17.31,24.37L17.392,24.354L17.392,24.354L17.406,24.352L17.488,24.34L17.502,24.338L17.585,24.327L17.599,24.326L17.683,24.318L17.697,24.317L17.777,24.311L17.781,24.31L17.796,24.31L17.881,24.308L17.895,24.307L17.994,24.308L18.094,24.31L18.193,24.315L18.277,24.324L18.291,24.325L18.374,24.335L18.388,24.337L18.471,24.349L18.484,24.351L18.567,24.366L18.58,24.368L18.627,24.377L18.661,24.385L18.675,24.388L18.755,24.408L18.768,24.411L18.847,24.433L18.86,24.436L18.939,24.46L18.951,24.464L19.029,24.49L19.042,24.493L19.118,24.521L19.13,24.525L19.206,24.555L19.218,24.559L19.293,24.59L19.305,24.595L19.379,24.628L19.39,24.632L19.463,24.668L19.474,24.672L19.539,24.706L19.546,24.709L19.557,24.714L19.627,24.754L19.638,24.759L19.707,24.801L19.717,24.806L19.785,24.849L19.795,24.854L19.862,24.899L19.871,24.905L19.937,24.951L19.946,24.957L20.011,25.004L20.02,25.01L20.083,25.06L20.092,25.065L20.154,25.116L20.162,25.122L20.223,25.174L20.231,25.181L20.291,25.234L20.298,25.24L20.356,25.295L20.364,25.302L20.368,25.305L20.42,25.359L20.427,25.365L20.482,25.423L20.489,25.43L20.542,25.489L20.549,25.496L20.601,25.557L20.607,25.563L20.658,25.625L20.664,25.632L20.713,25.695L20.719,25.702L20.766,25.766L20.771,25.773L20.817,25.839L20.823,25.845L20.867,25.912L20.872,25.918L20.915,25.986L20.919,25.993L20.96,26.061L20.965,26.068L20.968,26.073L21.004,26.138L21.008,26.145L21.045,26.216L21.049,26.223L21.084,26.295L21.088,26.301L21.121,26.375L21.125,26.381L21.157,26.455L21.16,26.461L21.19,26.536L21.193,26.542L21.221,26.618L21.224,26.624L21.251,26.701L21.253,26.706L21.278,26.784L21.28,26.79L21.303,26.868L21.305,26.873L21.326,26.952L21.328,26.958L21.347,27.037L21.348,27.043L21.365,27.123L21.367,27.128L21.382,27.209L21.383,27.214L21.397,27.295L21.398,27.3L21.409,27.382L21.41,27.387L21.419,27.469L21.42,27.474L21.426,27.549L21.427,27.557L21.427,27.561L21.432,27.645L21.432,27.649L21.434,27.733L21.435,27.737L21.434,27.821L21.435,27.825L21.433,27.91L21.433,27.913L21.428,27.998L21.428,28.001L21.422,28.087L21.422,28.09L21.415,28.151L21.413,28.176L21.307,28.287L21.198,28.178L21.195,28.154L21.187,28.093L21.187,28.096L21.174,28.011L21.174,28.014L21.158,27.931L21.159,27.934L21.141,27.851L21.142,27.855L21.123,27.772L21.123,27.776L21.102,27.695L21.103,27.699L21.079,27.619L21.08,27.623L21.078,27.616L21.056,27.544L21.057,27.548L21.031,27.469L21.032,27.474L21.004,27.396L21.005,27.401L20.975,27.324L20.977,27.329L20.945,27.254L20.947,27.259L20.913,27.184L20.915,27.189L20.88,27.116L20.882,27.121L20.845,27.048L20.847,27.054L20.809,26.982L20.811,26.988L20.771,26.918L20.773,26.923L20.732,26.854L20.734,26.86L20.691,26.792L20.694,26.798L20.649,26.731L20.652,26.737L20.606,26.671L20.609,26.677L20.561,26.613L20.565,26.619L20.516,26.556L20.52,26.562L20.469,26.5L20.473,26.506L20.424,26.45L20.421,26.446L20.425,26.452L20.372,26.392L20.377,26.398L20.322,26.34L20.328,26.346L20.272,26.289L20.277,26.295L20.22,26.239L20.226,26.246L20.167,26.191L20.173,26.198L20.113,26.144L20.12,26.151L20.059,26.099L20.065,26.106L20.003,26.055L20.01,26.062L19.946,26.013L19.953,26.019L19.889,25.972L19.896,25.978L19.834,25.935L19.831,25.932L19.838,25.939L19.772,25.894L19.78,25.9L19.713,25.856L19.721,25.863L19.653,25.821L19.661,25.827L19.592,25.786L19.601,25.792L19.53,25.754L19.539,25.759L19.468,25.722L19.477,25.728L19.405,25.693L19.415,25.698L19.342,25.665L19.352,25.67L19.277,25.638L19.288,25.644L19.213,25.614L19.223,25.619L19.147,25.59L19.158,25.595L19.151,25.593L19.082,25.567L19.093,25.572L19.017,25.546L19.028,25.55L18.95,25.526L18.962,25.53L18.884,25.508L18.895,25.512L18.816,25.491L18.828,25.495L18.749,25.476L18.761,25.48L18.681,25.463L18.693,25.467L18.612,25.452L18.625,25.455L18.543,25.442L18.556,25.445L18.474,25.434L18.487,25.436L18.452,25.433L18.404,25.426L18.418,25.429L18.335,25.42L18.348,25.422L18.265,25.415L18.278,25.417L18.194,25.412L18.208,25.413L18.123,25.411L18.123,25.411L18.137,25.412L18.052,25.41L18.066,25.41L17.98,25.41L17.994,25.41L17.909,25.413L17.923,25.412L17.838,25.417L17.852,25.416Z" style="fill:#fff;"/>
            <path d="M14.586,29.661L14.635,29.745L14.633,29.74L14.683,29.822L14.681,29.818L14.733,29.898L14.731,29.894L14.785,29.973L14.782,29.968L14.838,30.046L14.835,30.041L14.893,30.118L14.89,30.113L14.946,30.183L14.95,30.188L14.946,30.183L15.007,30.257L15.004,30.252L15.066,30.325L15.062,30.32L15.127,30.391L15.123,30.386L15.189,30.455L15.184,30.45L15.252,30.518L15.248,30.513L15.317,30.579L15.312,30.574L15.383,30.638L15.378,30.634L15.45,30.696L15.445,30.691L15.519,30.752L15.513,30.747L15.588,30.807L15.583,30.802L15.655,30.856L15.659,30.859L15.654,30.855L15.731,30.911L15.725,30.906L15.804,30.96L15.798,30.956L15.878,31.008L15.872,31.004L15.953,31.054L15.946,31.05L16.029,31.099L16.022,31.094L16.106,31.141L16.099,31.137L16.184,31.181L16.177,31.177L16.263,31.22L16.256,31.216L16.343,31.257L16.335,31.253L16.424,31.291L16.416,31.287L16.506,31.324L16.498,31.32L16.506,31.323L16.588,31.356L16.579,31.352L16.67,31.385L16.662,31.382L16.754,31.413L16.745,31.41L16.838,31.439L16.83,31.436L16.924,31.463L16.915,31.46L17.009,31.484L17,31.481L17.096,31.504L17.087,31.501L17.183,31.521L17.174,31.519L17.271,31.536L17.261,31.534L17.359,31.549L17.349,31.547L17.392,31.553L17.448,31.561L17.438,31.559L17.537,31.571L17.527,31.57L17.627,31.579L17.617,31.578L17.718,31.584L17.708,31.583L17.809,31.587L17.798,31.587L17.891,31.59L17.983,31.59L18.075,31.588L18.167,31.584L18.171,31.583L18.264,31.578L18.354,31.571L18.444,31.561L18.535,31.549L18.525,31.55L18.623,31.536L18.613,31.538L18.711,31.521L18.701,31.523L18.798,31.504L18.788,31.506L18.884,31.484L18.874,31.487L18.886,31.484L18.97,31.464L18.96,31.467L19.055,31.442L19.045,31.445L19.139,31.418L19.13,31.421L19.223,31.392L19.213,31.395L19.305,31.363L19.296,31.367L19.387,31.333L19.379,31.337L19.469,31.301L19.46,31.305L19.549,31.267L19.54,31.271L19.608,31.24L19.628,31.231L19.62,31.235L19.707,31.194L19.699,31.199L19.786,31.156L19.778,31.16L19.863,31.115L19.855,31.12L19.939,31.073L19.932,31.078L20.014,31.029L20.007,31.034L20.088,30.983L20.082,30.988L20.162,30.935L20.155,30.94L20.234,30.886L20.227,30.891L20.275,30.855L20.305,30.835L20.298,30.84L20.375,30.782L20.369,30.788L20.444,30.728L20.439,30.734L20.512,30.673L20.507,30.678L20.579,30.616L20.574,30.621L20.645,30.557L20.639,30.562L20.709,30.496L20.704,30.501L20.771,30.434L20.767,30.439L20.833,30.37L20.828,30.375L20.852,30.349L20.893,30.305L20.889,30.31L20.953,30.238L20.949,30.244L21.011,30.171L21.007,30.176L21.067,30.101L21.064,30.106L21.122,30.03L21.119,30.035L21.176,29.958L21.172,29.963L21.227,29.884L21.224,29.889L21.277,29.808L21.275,29.814L21.326,29.732L21.323,29.737L21.372,29.653L21.37,29.658L21.417,29.574L21.415,29.579L21.46,29.493L21.458,29.497L21.501,29.41L21.5,29.415L21.541,29.327L21.539,29.331L21.578,29.242L21.577,29.246L21.614,29.155L21.612,29.16L21.62,29.139L21.648,29.068L21.647,29.072L21.68,28.979L21.679,28.983L21.71,28.89L21.709,28.893L21.738,28.799L21.738,28.802L21.764,28.706L21.764,28.71L21.788,28.613L21.788,28.616L21.81,28.518L21.809,28.521L21.829,28.422L21.829,28.425L21.846,28.325L21.846,28.328L21.861,28.227L21.861,28.23L21.873,28.128L21.873,28.13L21.88,28.055L21.883,28.028L21.965,27.948L22.045,28.03L22.047,28.057L22.052,28.133L22.052,28.135L22.056,28.237L22.056,28.24L22.058,28.341L22.058,28.344L22.057,28.445L22.057,28.448L22.054,28.549L22.054,28.552L22.048,28.652L22.047,28.656L22.039,28.755L22.039,28.759L22.028,28.858L22.027,28.861L22.014,28.96L22.013,28.964L21.998,29.061L21.997,29.065L21.979,29.162L21.978,29.166L21.962,29.241L21.957,29.262L21.956,29.267L21.933,29.362L21.931,29.366L21.905,29.46L21.904,29.465L21.876,29.558L21.874,29.563L21.844,29.655L21.842,29.66L21.809,29.751L21.807,29.756L21.773,29.846L21.77,29.851L21.734,29.941L21.731,29.946L21.692,30.034L21.69,30.039L21.649,30.126L21.646,30.131L21.603,30.218L21.6,30.223L21.555,30.308L21.552,30.313L21.505,30.397L21.501,30.402L21.452,30.485L21.449,30.49L21.398,30.571L21.394,30.577L21.341,30.657L21.337,30.662L21.302,30.712L21.282,30.74L21.278,30.746L21.22,30.822L21.216,30.828L21.157,30.903L21.152,30.908L21.091,30.982L21.086,30.987L21.023,31.06L21.018,31.065L20.954,31.136L20.948,31.141L20.882,31.21L20.876,31.215L20.809,31.283L20.803,31.288L20.734,31.354L20.727,31.359L20.701,31.383L20.656,31.423L20.65,31.428L20.577,31.49L20.57,31.495L20.495,31.555L20.489,31.56L20.413,31.618L20.405,31.623L20.328,31.68L20.321,31.684L20.242,31.739L20.234,31.744L20.154,31.796L20.146,31.801L20.065,31.852L20.057,31.856L19.974,31.905L19.965,31.909L19.946,31.92L19.881,31.955L19.872,31.959L19.786,32.003L19.778,32.007L19.69,32.049L19.681,32.052L19.593,32.092L19.584,32.096L19.494,32.133L19.485,32.136L19.394,32.172L19.385,32.175L19.293,32.208L19.284,32.211L19.191,32.242L19.181,32.245L19.099,32.27L19.087,32.274L19.077,32.276L18.982,32.301L18.972,32.304L18.876,32.326L18.866,32.328L18.769,32.349L18.758,32.351L18.661,32.369L18.66,32.369L18.65,32.37L18.551,32.385L18.541,32.386L18.441,32.398L18.43,32.399L18.33,32.409L18.319,32.41L18.224,32.416L18.218,32.417L18.208,32.417L18.106,32.42L18.095,32.421L17.992,32.421L17.982,32.421L17.879,32.419L17.869,32.418L17.767,32.414L17.756,32.413L17.655,32.404L17.645,32.404L17.545,32.392L17.534,32.391L17.435,32.377L17.425,32.376L17.326,32.36L17.316,32.358L17.26,32.348L17.218,32.339L17.208,32.337L17.111,32.315L17.102,32.313L17.006,32.288L16.996,32.286L16.901,32.259L16.892,32.257L16.798,32.228L16.789,32.225L16.696,32.193L16.687,32.191L16.595,32.157L16.586,32.154L16.496,32.118L16.487,32.115L16.398,32.077L16.389,32.074L16.301,32.034L16.292,32.03L16.213,31.992L16.205,31.988L16.197,31.984L16.112,31.939L16.104,31.935L16.02,31.888L16.012,31.884L15.929,31.835L15.922,31.831L15.84,31.779L15.833,31.775L15.753,31.722L15.746,31.718L15.667,31.663L15.66,31.659L15.583,31.602L15.576,31.598L15.5,31.539L15.494,31.535L15.42,31.474L15.413,31.47L15.34,31.408L15.335,31.403L15.263,31.339L15.257,31.335L15.253,31.331L15.188,31.269L15.183,31.264L15.115,31.196L15.11,31.192L15.044,31.122L15.039,31.118L14.974,31.047L14.969,31.042L14.907,30.97L14.902,30.965L14.841,30.891L14.837,30.886L14.777,30.811L14.773,30.806L14.716,30.73L14.712,30.725L14.656,30.647L14.652,30.642L14.599,30.563L14.595,30.558L14.543,30.477L14.54,30.473L14.536,30.467L14.49,30.39L14.487,30.385L14.44,30.302L14.437,30.297L14.391,30.212L14.388,30.208L14.345,30.122L14.342,30.117L14.301,30.03L14.298,30.025L14.259,29.937L14.257,29.933L14.22,29.844L14.218,29.839L14.183,29.749L14.181,29.744L14.148,29.653L14.146,29.649L14.115,29.557L14.113,29.552L14.085,29.459L14.083,29.455L14.057,29.361L14.056,29.357L14.032,29.262L14.031,29.258L14.009,29.163L14.008,29.159L13.989,29.062L13.988,29.059L13.971,28.961L13.97,28.958L13.955,28.86L13.954,28.856L13.943,28.766L13.942,28.754L13.933,28.655L13.932,28.652L13.926,28.552L13.925,28.549L13.921,28.448L13.921,28.445L13.919,28.344L13.919,28.341L13.92,28.24L13.92,28.237L13.923,28.135L13.923,28.133L13.928,28.059L13.93,28.03L14.01,27.946L14.092,28.028L14.094,28.057L14.101,28.13L14.101,28.128L14.112,28.23L14.112,28.227L14.126,28.328L14.125,28.326L14.142,28.425L14.142,28.423L14.16,28.522L14.16,28.519L14.181,28.617L14.181,28.614L14.204,28.711L14.203,28.707L14.206,28.716L14.229,28.804L14.228,28.8L14.255,28.895L14.255,28.892L14.284,28.986L14.284,28.982L14.315,29.075L14.314,29.072L14.349,29.164L14.347,29.16L14.384,29.251L14.382,29.246L14.421,29.336L14.419,29.332L14.46,29.421L14.458,29.416L14.501,29.504L14.499,29.499L14.544,29.585L14.542,29.581L14.589,29.666L14.586,29.661Z" style="fill:#c1c2dd;fill-opacity:0.3;"/>
        </g>
        <g>
            <circle cx="17.987" cy="46.187" r="4.645" style="fill:#2b307f;fill-opacity:0.35;"/>
            <circle cx="17.987" cy="44.515" r="4.645" style="fill:#f2f2fa;"/>
            <path d="M17.852,41.779L17.847,41.779L17.768,41.783L17.698,41.789L17.629,41.796L17.559,41.805L17.572,41.803L17.49,41.814L17.503,41.812L17.422,41.825L17.435,41.822L17.354,41.838L17.367,41.835L17.287,41.852L17.3,41.848L17.29,41.851L17.22,41.866L17.232,41.862L17.153,41.882L17.166,41.878L17.087,41.899L17.099,41.895L17.021,41.918L17.033,41.913L16.956,41.938L16.968,41.933L16.891,41.96L16.903,41.955L16.827,41.984L16.839,41.978L16.764,42.009L16.775,42.003L16.718,42.028L16.701,42.035L16.712,42.029L16.638,42.062L16.649,42.056L16.576,42.09L16.586,42.084L16.514,42.119L16.524,42.113L16.453,42.15L16.462,42.144L16.392,42.183L16.402,42.177L16.332,42.217L16.342,42.211L16.274,42.253L16.282,42.246L16.215,42.29L16.224,42.283L16.183,42.312L16.158,42.328L16.166,42.321L16.1,42.367L16.108,42.36L16.043,42.407L16.051,42.4L15.988,42.449L15.995,42.442L15.933,42.492L15.94,42.485L15.879,42.537L15.885,42.53L15.826,42.583L15.832,42.576L15.773,42.631L15.78,42.623L15.722,42.679L15.728,42.672L15.708,42.693L15.672,42.729L15.677,42.722L15.621,42.78L15.627,42.772L15.572,42.832L15.577,42.824L15.524,42.885L15.529,42.878L15.477,42.94L15.482,42.933L15.431,42.996L15.436,42.989L15.387,43.053L15.391,43.046L15.343,43.112L15.347,43.105L15.301,43.172L15.305,43.165L15.261,43.233L15.264,43.227L15.221,43.296L15.224,43.289L15.183,43.36L15.186,43.353L15.147,43.425L15.149,43.419L15.112,43.491L15.114,43.485L15.078,43.559L15.08,43.553L15.046,43.627L15.047,43.622L15.04,43.639L15.014,43.697L15.016,43.692L14.984,43.768L14.985,43.763L14.955,43.84L14.956,43.835L14.928,43.913L14.929,43.908L14.903,43.988L14.904,43.983L14.879,44.063L14.88,44.059L14.858,44.14L14.858,44.136L14.838,44.218L14.838,44.214L14.82,44.297L14.82,44.294L14.803,44.377L14.803,44.374L14.789,44.459L14.789,44.456L14.78,44.519L14.777,44.541L14.668,44.647L14.562,44.538L14.559,44.516L14.551,44.453L14.551,44.45L14.544,44.364L14.544,44.361L14.538,44.276L14.538,44.272L14.535,44.187L14.535,44.183L14.534,44.099L14.534,44.095L14.535,44.011L14.535,44.006L14.538,43.922L14.539,43.918L14.544,43.835L14.545,43.83L14.552,43.747L14.553,43.742L14.562,43.659L14.563,43.654L14.575,43.572L14.576,43.567L14.586,43.503L14.589,43.485L14.591,43.48L14.607,43.399L14.609,43.394L14.628,43.314L14.63,43.308L14.65,43.229L14.652,43.223L14.674,43.144L14.677,43.138L14.701,43.06L14.704,43.054L14.729,42.977L14.732,42.971L14.76,42.894L14.763,42.888L14.793,42.812L14.796,42.806L14.827,42.731L14.831,42.724L14.864,42.651L14.868,42.644L14.903,42.571L14.907,42.564L14.944,42.493L14.948,42.486L14.986,42.415L14.991,42.408L15.031,42.338L15.036,42.331L15.077,42.262L15.083,42.255L15.11,42.212L15.126,42.187L15.132,42.18L15.178,42.114L15.184,42.107L15.231,42.043L15.238,42.036L15.286,41.972L15.293,41.965L15.343,41.903L15.35,41.896L15.402,41.835L15.409,41.828L15.462,41.768L15.47,41.761L15.525,41.703L15.532,41.696L15.588,41.638L15.597,41.632L15.618,41.611L15.655,41.576L15.663,41.57L15.723,41.516L15.731,41.51L15.792,41.458L15.801,41.451L15.864,41.401L15.873,41.394L15.936,41.345L15.946,41.339L16.011,41.292L16.021,41.286L16.087,41.24L16.097,41.234L16.164,41.189L16.174,41.183L16.243,41.14L16.253,41.135L16.27,41.125L16.323,41.095L16.334,41.09L16.406,41.052L16.417,41.046L16.489,41.01L16.501,41.005L16.574,40.971L16.586,40.966L16.66,40.933L16.673,40.929L16.748,40.898L16.76,40.894L16.836,40.864L16.849,40.861L16.926,40.833L16.939,40.829L17.007,40.807L17.017,40.804L17.03,40.801L17.109,40.779L17.123,40.776L17.203,40.756L17.216,40.753L17.297,40.735L17.31,40.733L17.392,40.717L17.392,40.717L17.406,40.715L17.488,40.702L17.502,40.701L17.585,40.69L17.599,40.689L17.683,40.68L17.697,40.679L17.777,40.674L17.781,40.673L17.796,40.673L17.881,40.671L17.895,40.67L17.994,40.67L18.094,40.673L18.193,40.678L18.277,40.687L18.291,40.688L18.374,40.698L18.388,40.7L18.471,40.712L18.484,40.714L18.567,40.729L18.58,40.731L18.627,40.74L18.661,40.748L18.675,40.75L18.755,40.771L18.768,40.774L18.847,40.796L18.86,40.799L18.939,40.823L18.951,40.826L19.029,40.853L19.042,40.856L19.118,40.884L19.13,40.888L19.206,40.918L19.218,40.922L19.293,40.953L19.305,40.958L19.379,40.991L19.39,40.995L19.463,41.03L19.474,41.035L19.539,41.068L19.546,41.072L19.557,41.077L19.627,41.117L19.638,41.122L19.707,41.163L19.717,41.169L19.785,41.212L19.795,41.217L19.862,41.262L19.871,41.268L19.937,41.314L19.946,41.319L20.011,41.367L20.02,41.373L20.083,41.422L20.092,41.428L20.154,41.479L20.162,41.485L20.223,41.537L20.231,41.543L20.291,41.597L20.298,41.603L20.356,41.658L20.364,41.664L20.368,41.668L20.42,41.721L20.427,41.728L20.482,41.786L20.489,41.793L20.542,41.852L20.549,41.859L20.601,41.92L20.607,41.926L20.658,41.988L20.664,41.995L20.713,42.058L20.719,42.065L20.766,42.129L20.771,42.136L20.817,42.201L20.823,42.208L20.867,42.275L20.872,42.281L20.915,42.349L20.919,42.355L20.96,42.424L20.965,42.431L20.968,42.436L21.004,42.501L21.008,42.508L21.045,42.579L21.049,42.585L21.084,42.658L21.088,42.664L21.121,42.737L21.125,42.744L21.157,42.818L21.16,42.824L21.19,42.899L21.193,42.905L21.221,42.981L21.224,42.987L21.251,43.063L21.253,43.069L21.278,43.147L21.28,43.152L21.303,43.231L21.305,43.236L21.326,43.315L21.328,43.321L21.347,43.4L21.348,43.405L21.365,43.486L21.367,43.491L21.382,43.572L21.383,43.577L21.397,43.658L21.398,43.663L21.409,43.745L21.41,43.75L21.419,43.832L21.42,43.837L21.426,43.912L21.427,43.92L21.427,43.924L21.432,44.008L21.432,44.012L21.434,44.096L21.435,44.1L21.434,44.184L21.435,44.188L21.433,44.273L21.433,44.276L21.428,44.361L21.428,44.364L21.422,44.45L21.422,44.453L21.415,44.514L21.413,44.538L21.307,44.65L21.198,44.541L21.195,44.517L21.187,44.456L21.187,44.459L21.174,44.374L21.174,44.377L21.158,44.293L21.159,44.297L21.141,44.214L21.142,44.218L21.123,44.135L21.123,44.139L21.102,44.058L21.103,44.062L21.079,43.982L21.08,43.986L21.078,43.979L21.056,43.906L21.057,43.911L21.031,43.832L21.032,43.837L21.004,43.759L21.005,43.764L20.975,43.687L20.977,43.692L20.945,43.616L20.947,43.622L20.913,43.547L20.915,43.552L20.88,43.478L20.882,43.484L20.845,43.411L20.847,43.417L20.809,43.345L20.811,43.351L20.771,43.28L20.773,43.286L20.732,43.217L20.734,43.223L20.691,43.155L20.694,43.161L20.649,43.094L20.652,43.1L20.606,43.034L20.609,43.04L20.561,42.976L20.565,42.982L20.516,42.918L20.52,42.925L20.469,42.863L20.473,42.869L20.424,42.813L20.421,42.808L20.425,42.815L20.372,42.755L20.377,42.761L20.322,42.702L20.328,42.709L20.272,42.652L20.277,42.658L20.22,42.602L20.226,42.609L20.167,42.554L20.173,42.56L20.113,42.507L20.12,42.514L20.059,42.462L20.065,42.468L20.003,42.418L20.01,42.425L19.946,42.376L19.953,42.382L19.889,42.335L19.896,42.341L19.834,42.298L19.831,42.295L19.838,42.302L19.772,42.257L19.78,42.263L19.713,42.219L19.721,42.225L19.653,42.183L19.661,42.19L19.592,42.149L19.601,42.155L19.53,42.117L19.539,42.122L19.468,42.085L19.477,42.091L19.405,42.056L19.415,42.061L19.342,42.028L19.352,42.033L19.277,42.001L19.288,42.006L19.213,41.976L19.223,41.981L19.147,41.953L19.158,41.958L19.151,41.956L19.082,41.93L19.093,41.935L19.017,41.909L19.028,41.913L18.95,41.889L18.962,41.893L18.884,41.871L18.895,41.875L18.816,41.854L18.828,41.858L18.749,41.839L18.761,41.843L18.681,41.826L18.693,41.829L18.612,41.815L18.625,41.818L18.543,41.805L18.556,41.807L18.474,41.797L18.487,41.799L18.452,41.795L18.404,41.789L18.418,41.791L18.335,41.783L18.348,41.785L18.265,41.778L18.278,41.78L18.194,41.775L18.208,41.776L18.123,41.774L18.123,41.774L18.137,41.775L18.052,41.773L18.066,41.773L17.98,41.773L17.994,41.773L17.909,41.775L17.923,41.775L17.838,41.78L17.852,41.779Z" style="fill:#fff;"/>
            <path d="M14.586,46.024L14.635,46.107L14.633,46.103L14.683,46.185L14.681,46.18L14.733,46.261L14.731,46.256L14.785,46.336L14.782,46.331L14.838,46.409L14.835,46.404L14.893,46.481L14.89,46.476L14.946,46.546L14.95,46.551L14.946,46.546L15.007,46.62L15.004,46.615L15.066,46.688L15.062,46.683L15.127,46.753L15.123,46.749L15.189,46.818L15.184,46.813L15.252,46.881L15.248,46.876L15.317,46.942L15.312,46.937L15.383,47.001L15.378,46.996L15.45,47.059L15.445,47.054L15.519,47.115L15.513,47.11L15.588,47.17L15.583,47.165L15.655,47.219L15.659,47.222L15.654,47.217L15.731,47.274L15.725,47.269L15.804,47.323L15.798,47.319L15.878,47.371L15.872,47.367L15.953,47.417L15.946,47.413L16.029,47.461L16.022,47.457L16.106,47.504L16.099,47.5L16.184,47.544L16.177,47.54L16.263,47.583L16.256,47.579L16.343,47.619L16.335,47.615L16.424,47.654L16.416,47.65L16.506,47.687L16.498,47.683L16.506,47.686L16.588,47.718L16.579,47.715L16.67,47.748L16.662,47.745L16.754,47.776L16.745,47.773L16.838,47.802L16.83,47.799L16.924,47.825L16.915,47.823L17.009,47.847L17,47.844L17.096,47.866L17.087,47.864L17.183,47.884L17.174,47.882L17.271,47.899L17.261,47.897L17.359,47.912L17.349,47.91L17.392,47.916L17.448,47.924L17.438,47.922L17.537,47.934L17.527,47.932L17.627,47.942L17.617,47.94L17.718,47.947L17.708,47.946L17.809,47.95L17.798,47.95L17.891,47.953L17.983,47.953L18.075,47.951L18.167,47.947L18.171,47.946L18.264,47.941L18.354,47.934L18.444,47.924L18.535,47.912L18.525,47.913L18.623,47.899L18.613,47.901L18.711,47.884L18.701,47.886L18.798,47.866L18.788,47.869L18.884,47.847L18.874,47.85L18.886,47.847L18.97,47.827L18.96,47.83L19.055,47.805L19.045,47.808L19.139,47.781L19.13,47.784L19.223,47.754L19.213,47.758L19.305,47.726L19.296,47.73L19.387,47.696L19.379,47.7L19.469,47.664L19.46,47.668L19.549,47.63L19.54,47.634L19.608,47.603L19.628,47.594L19.62,47.598L19.707,47.557L19.699,47.562L19.786,47.519L19.778,47.523L19.863,47.478L19.855,47.483L19.939,47.436L19.932,47.441L20.014,47.392L20.007,47.397L20.088,47.346L20.082,47.351L20.162,47.298L20.155,47.303L20.234,47.248L20.227,47.253L20.275,47.218L20.305,47.197L20.298,47.203L20.375,47.145L20.369,47.15L20.444,47.091L20.439,47.097L20.512,47.036L20.507,47.041L20.579,46.978L20.574,46.984L20.645,46.919L20.639,46.925L20.709,46.859L20.704,46.864L20.771,46.796L20.767,46.802L20.833,46.733L20.828,46.738L20.852,46.712L20.893,46.668L20.889,46.673L20.953,46.601L20.949,46.607L21.011,46.533L21.007,46.539L21.067,46.464L21.064,46.469L21.122,46.393L21.119,46.398L21.176,46.321L21.172,46.326L21.227,46.247L21.224,46.252L21.277,46.171L21.275,46.176L21.326,46.094L21.323,46.099L21.372,46.016L21.37,46.021L21.417,45.937L21.415,45.941L21.46,45.856L21.458,45.86L21.501,45.773L21.5,45.778L21.541,45.689L21.539,45.694L21.578,45.604L21.577,45.609L21.614,45.518L21.612,45.522L21.62,45.502L21.648,45.431L21.647,45.435L21.68,45.342L21.679,45.346L21.71,45.252L21.709,45.256L21.738,45.161L21.738,45.165L21.764,45.069L21.764,45.073L21.788,44.976L21.788,44.979L21.81,44.881L21.809,44.884L21.829,44.785L21.829,44.788L21.846,44.688L21.846,44.691L21.861,44.59L21.861,44.593L21.873,44.491L21.873,44.493L21.88,44.417L21.883,44.391L21.965,44.311L22.045,44.393L22.047,44.42L22.052,44.496L22.052,44.498L22.056,44.6L22.056,44.603L22.058,44.704L22.058,44.707L22.057,44.808L22.057,44.811L22.054,44.912L22.054,44.915L22.048,45.015L22.047,45.019L22.039,45.118L22.039,45.122L22.028,45.221L22.027,45.224L22.014,45.323L22.013,45.326L21.998,45.424L21.997,45.428L21.979,45.525L21.978,45.529L21.962,45.604L21.957,45.625L21.956,45.629L21.933,45.724L21.931,45.729L21.905,45.823L21.904,45.828L21.876,45.921L21.874,45.925L21.844,46.018L21.842,46.023L21.809,46.114L21.807,46.119L21.773,46.209L21.77,46.214L21.734,46.304L21.731,46.309L21.692,46.397L21.69,46.402L21.649,46.489L21.646,46.494L21.603,46.58L21.6,46.586L21.555,46.671L21.552,46.676L21.505,46.76L21.501,46.765L21.452,46.848L21.449,46.853L21.398,46.934L21.394,46.939L21.341,47.02L21.337,47.025L21.302,47.075L21.282,47.103L21.278,47.109L21.22,47.185L21.216,47.191L21.157,47.266L21.152,47.271L21.091,47.345L21.086,47.35L21.023,47.423L21.018,47.428L20.954,47.499L20.948,47.504L20.882,47.573L20.876,47.578L20.809,47.646L20.803,47.651L20.734,47.717L20.727,47.722L20.701,47.746L20.656,47.786L20.65,47.791L20.577,47.853L20.57,47.858L20.495,47.918L20.489,47.923L20.413,47.981L20.405,47.986L20.328,48.042L20.321,48.047L20.242,48.102L20.234,48.106L20.154,48.159L20.146,48.164L20.065,48.215L20.057,48.219L19.974,48.268L19.965,48.272L19.946,48.283L19.881,48.318L19.872,48.322L19.786,48.366L19.778,48.37L19.69,48.412L19.681,48.415L19.593,48.455L19.584,48.458L19.494,48.496L19.485,48.499L19.394,48.535L19.385,48.538L19.293,48.571L19.284,48.574L19.191,48.605L19.181,48.608L19.099,48.633L19.087,48.636L19.077,48.639L18.982,48.664L18.972,48.666L18.876,48.689L18.866,48.691L18.769,48.712L18.758,48.714L18.661,48.732L18.66,48.732L18.65,48.733L18.551,48.748L18.541,48.749L18.441,48.761L18.43,48.762L18.33,48.772L18.319,48.773L18.224,48.779L18.218,48.78L18.208,48.78L18.106,48.783L18.095,48.783L17.992,48.784L17.982,48.784L17.879,48.782L17.869,48.781L17.767,48.776L17.756,48.776L17.655,48.767L17.645,48.766L17.545,48.755L17.534,48.754L17.435,48.74L17.425,48.739L17.326,48.723L17.316,48.721L17.26,48.711L17.218,48.702L17.208,48.7L17.111,48.678L17.102,48.676L17.006,48.651L16.996,48.649L16.901,48.622L16.892,48.62L16.798,48.59L16.789,48.588L16.696,48.556L16.687,48.553L16.595,48.52L16.586,48.517L16.496,48.481L16.487,48.478L16.398,48.44L16.389,48.436L16.301,48.396L16.292,48.393L16.213,48.355L16.205,48.351L16.197,48.347L16.112,48.302L16.104,48.298L16.02,48.251L16.012,48.247L15.929,48.197L15.922,48.193L15.84,48.142L15.833,48.138L15.753,48.085L15.746,48.081L15.667,48.026L15.66,48.022L15.583,47.965L15.576,47.96L15.5,47.902L15.494,47.897L15.42,47.837L15.413,47.833L15.34,47.771L15.335,47.766L15.263,47.702L15.257,47.697L15.253,47.693L15.188,47.632L15.183,47.627L15.115,47.559L15.11,47.554L15.044,47.485L15.039,47.48L14.974,47.41L14.969,47.405L14.907,47.333L14.902,47.328L14.841,47.254L14.837,47.249L14.777,47.174L14.773,47.169L14.716,47.093L14.712,47.088L14.656,47.01L14.652,47.005L14.599,46.926L14.595,46.921L14.543,46.84L14.54,46.835L14.536,46.83L14.49,46.753L14.487,46.748L14.44,46.665L14.437,46.66L14.391,46.575L14.388,46.57L14.345,46.485L14.342,46.48L14.301,46.393L14.298,46.388L14.259,46.3L14.257,46.296L14.22,46.206L14.218,46.202L14.183,46.112L14.181,46.107L14.148,46.016L14.146,46.012L14.115,45.919L14.113,45.915L14.085,45.822L14.083,45.818L14.057,45.724L14.056,45.72L14.032,45.625L14.031,45.621L14.009,45.525L14.008,45.522L13.989,45.425L13.988,45.421L13.971,45.324L13.97,45.321L13.955,45.223L13.954,45.219L13.943,45.129L13.942,45.117L13.933,45.018L13.932,45.015L13.926,44.914L13.925,44.911L13.921,44.811L13.921,44.808L13.919,44.707L13.919,44.704L13.92,44.602L13.92,44.6L13.923,44.498L13.923,44.496L13.928,44.422L13.93,44.393L14.01,44.309L14.092,44.391L14.094,44.42L14.101,44.493L14.101,44.491L14.112,44.593L14.112,44.59L14.126,44.691L14.125,44.688L14.142,44.788L14.142,44.786L14.16,44.885L14.16,44.882L14.181,44.98L14.181,44.977L14.204,45.074L14.203,45.07L14.206,45.079L14.229,45.167L14.228,45.163L14.255,45.258L14.255,45.255L14.284,45.349L14.284,45.345L14.315,45.438L14.314,45.434L14.349,45.526L14.347,45.523L14.384,45.613L14.382,45.609L14.421,45.699L14.419,45.695L14.46,45.783L14.458,45.779L14.501,45.866L14.499,45.862L14.544,45.948L14.542,45.944L14.589,46.028L14.586,46.024Z" style="fill:#c1c2dd;fill-opacity:0.3;"/>
        </g>
        <g>
            <circle cx="36.258" cy="13.461" r="4.645" style="fill:#2b307f;fill-opacity:0.35;"/>
            <circle cx="36.258" cy="11.789" r="4.645" style="fill:#f2f2fa;"/>
            <path d="M36.122,9.053L36.117,9.054L36.039,9.058L35.969,9.063L35.899,9.07L35.829,9.08L35.843,9.077L35.76,9.089L35.774,9.086L35.692,9.099L35.705,9.097L35.624,9.112L35.638,9.109L35.557,9.126L35.57,9.123L35.56,9.125L35.49,9.14L35.503,9.137L35.423,9.156L35.436,9.152L35.357,9.173L35.37,9.169L35.292,9.192L35.304,9.187L35.226,9.212L35.238,9.208L35.162,9.234L35.173,9.229L35.098,9.258L35.109,9.253L35.034,9.283L35.045,9.278L34.989,9.302L34.971,9.309L34.982,9.304L34.908,9.336L34.919,9.33L34.846,9.364L34.856,9.358L34.784,9.394L34.794,9.387L34.723,9.425L34.733,9.418L34.663,9.457L34.672,9.451L34.603,9.491L34.612,9.485L34.544,9.527L34.553,9.521L34.486,9.564L34.494,9.558L34.453,9.586L34.428,9.602L34.436,9.596L34.371,9.641L34.378,9.634L34.314,9.682L34.321,9.675L34.258,9.723L34.265,9.716L34.203,9.767L34.21,9.76L34.149,9.811L34.156,9.804L34.096,9.857L34.102,9.85L34.044,9.905L34.05,9.898L33.993,9.954L33.999,9.947L33.978,9.968L33.942,10.003L33.948,9.996L33.892,10.054L33.897,10.047L33.843,10.106L33.848,10.099L33.794,10.159L33.799,10.152L33.748,10.214L33.752,10.207L33.702,10.27L33.706,10.263L33.657,10.327L33.661,10.321L33.614,10.386L33.617,10.379L33.572,10.446L33.575,10.44L33.531,10.507L33.534,10.501L33.492,10.57L33.495,10.564L33.454,10.634L33.456,10.628L33.417,10.699L33.419,10.693L33.382,10.765L33.384,10.759L33.348,10.833L33.35,10.827L33.316,10.902L33.318,10.896L33.311,10.913L33.285,10.971L33.286,10.966L33.254,11.042L33.256,11.037L33.226,11.114L33.227,11.109L33.199,11.188L33.2,11.183L33.173,11.262L33.174,11.257L33.15,11.338L33.15,11.333L33.128,11.414L33.128,11.41L33.108,11.492L33.108,11.489L33.09,11.572L33.09,11.568L33.074,11.652L33.074,11.648L33.059,11.733L33.059,11.73L33.05,11.793L33.047,11.815L32.938,11.922L32.832,11.813L32.829,11.791L32.822,11.727L32.822,11.724L32.814,11.639L32.814,11.635L32.808,11.55L32.809,11.546L32.805,11.462L32.805,11.458L32.804,11.373L32.804,11.369L32.805,11.285L32.806,11.281L32.809,11.197L32.809,11.192L32.814,11.109L32.815,11.104L32.822,11.021L32.823,11.016L32.833,10.934L32.834,10.928L32.845,10.846L32.846,10.841L32.857,10.778L32.86,10.76L32.862,10.754L32.878,10.674L32.88,10.668L32.898,10.588L32.9,10.582L32.92,10.503L32.923,10.497L32.945,10.419L32.947,10.412L32.971,10.335L32.974,10.328L33,10.251L33.003,10.245L33.03,10.169L33.034,10.162L33.063,10.087L33.067,10.08L33.098,10.006L33.102,9.999L33.134,9.925L33.139,9.918L33.173,9.846L33.178,9.839L33.214,9.767L33.219,9.76L33.257,9.689L33.262,9.682L33.301,9.612L33.306,9.605L33.348,9.536L33.353,9.529L33.38,9.486L33.397,9.462L33.402,9.454L33.448,9.389L33.454,9.382L33.502,9.317L33.508,9.31L33.557,9.246L33.563,9.239L33.614,9.177L33.621,9.17L33.672,9.109L33.68,9.102L33.733,9.042L33.74,9.035L33.795,8.977L33.803,8.97L33.859,8.913L33.867,8.906L33.888,8.885L33.925,8.851L33.933,8.844L33.993,8.791L34.002,8.784L34.063,8.732L34.072,8.726L34.134,8.675L34.143,8.669L34.207,8.62L34.216,8.614L34.281,8.566L34.291,8.56L34.357,8.514L34.367,8.508L34.434,8.463L34.445,8.458L34.513,8.415L34.524,8.409L34.54,8.4L34.594,8.369L34.605,8.364L34.676,8.326L34.688,8.321L34.76,8.285L34.771,8.28L34.845,8.245L34.857,8.24L34.931,8.208L34.943,8.203L35.018,8.172L35.031,8.168L35.107,8.139L35.119,8.135L35.196,8.107L35.209,8.104L35.277,8.082L35.287,8.079L35.3,8.075L35.38,8.053L35.393,8.05L35.473,8.03L35.486,8.028L35.567,8.01L35.581,8.007L35.662,7.991L35.663,7.991L35.676,7.989L35.759,7.977L35.773,7.975L35.856,7.965L35.87,7.963L35.953,7.955L35.967,7.954L36.047,7.948L36.052,7.948L36.066,7.947L36.151,7.945L36.165,7.945L36.265,7.945L36.364,7.947L36.463,7.953L36.547,7.961L36.561,7.962L36.645,7.973L36.658,7.974L36.741,7.987L36.755,7.988L36.837,8.003L36.85,8.005L36.897,8.015L36.932,8.022L36.945,8.025L37.025,8.045L37.038,8.048L37.118,8.07L37.131,8.073L37.209,8.098L37.222,8.101L37.3,8.127L37.312,8.13L37.389,8.158L37.401,8.162L37.477,8.192L37.489,8.196L37.564,8.228L37.575,8.232L37.649,8.265L37.661,8.27L37.734,8.305L37.745,8.309L37.81,8.343L37.817,8.346L37.827,8.351L37.898,8.391L37.908,8.396L37.977,8.438L37.987,8.443L38.055,8.486L38.065,8.492L38.132,8.536L38.142,8.542L38.207,8.588L38.217,8.594L38.281,8.642L38.29,8.647L38.353,8.697L38.362,8.703L38.424,8.753L38.433,8.759L38.493,8.812L38.502,8.818L38.561,8.871L38.569,8.877L38.627,8.932L38.634,8.939L38.638,8.942L38.691,8.996L38.698,9.002L38.753,9.061L38.76,9.067L38.813,9.127L38.819,9.133L38.871,9.194L38.878,9.2L38.928,9.263L38.934,9.269L38.983,9.332L38.989,9.339L39.036,9.404L39.042,9.41L39.088,9.476L39.093,9.482L39.137,9.549L39.142,9.555L39.185,9.623L39.19,9.63L39.231,9.699L39.235,9.705L39.238,9.71L39.274,9.776L39.278,9.782L39.315,9.853L39.319,9.86L39.355,9.932L39.358,9.938L39.392,10.012L39.395,10.018L39.427,10.092L39.43,10.098L39.46,10.173L39.463,10.179L39.492,10.255L39.495,10.261L39.521,10.338L39.524,10.344L39.548,10.421L39.55,10.427L39.573,10.505L39.575,10.51L39.596,10.589L39.598,10.595L39.617,10.674L39.619,10.68L39.636,10.76L39.637,10.765L39.652,10.846L39.654,10.851L39.667,10.932L39.668,10.937L39.679,11.019L39.68,11.024L39.689,11.106L39.69,11.111L39.697,11.186L39.697,11.194L39.698,11.198L39.702,11.282L39.703,11.286L39.705,11.37L39.705,11.374L39.705,11.458L39.705,11.462L39.703,11.547L39.703,11.55L39.699,11.635L39.699,11.639L39.692,11.724L39.692,11.727L39.686,11.789L39.683,11.813L39.577,11.925L39.468,11.815L39.465,11.791L39.457,11.73L39.457,11.733L39.444,11.648L39.444,11.652L39.429,11.568L39.429,11.571L39.412,11.488L39.412,11.492L39.393,11.41L39.393,11.414L39.372,11.332L39.373,11.336L39.35,11.256L39.351,11.26L39.348,11.253L39.326,11.181L39.327,11.185L39.301,11.106L39.302,11.111L39.274,11.033L39.275,11.038L39.246,10.961L39.247,10.967L39.215,10.891L39.217,10.896L39.184,10.821L39.185,10.826L39.15,10.753L39.152,10.758L39.115,10.685L39.118,10.691L39.079,10.619L39.081,10.625L39.041,10.555L39.044,10.561L39.002,10.491L39.005,10.497L38.961,10.429L38.965,10.435L38.92,10.368L38.923,10.374L38.876,10.308L38.88,10.314L38.832,10.25L38.836,10.256L38.786,10.193L38.79,10.199L38.739,10.137L38.743,10.144L38.695,10.087L38.691,10.083L38.696,10.089L38.642,10.029L38.647,10.036L38.593,9.977L38.598,9.983L38.542,9.926L38.548,9.932L38.49,9.876L38.496,9.883L38.438,9.828L38.444,9.835L38.384,9.782L38.39,9.788L38.329,9.736L38.336,9.743L38.273,9.692L38.28,9.699L38.217,9.65L38.224,9.656L38.159,9.609L38.167,9.615L38.105,9.572L38.101,9.57L38.109,9.576L38.042,9.531L38.05,9.537L37.983,9.494L37.991,9.5L37.923,9.458L37.932,9.464L37.862,9.424L37.871,9.429L37.801,9.391L37.81,9.397L37.738,9.36L37.748,9.365L37.676,9.33L37.685,9.336L37.612,9.302L37.622,9.307L37.548,9.276L37.558,9.281L37.483,9.251L37.494,9.256L37.418,9.228L37.429,9.232L37.421,9.23L37.353,9.205L37.364,9.209L37.287,9.183L37.298,9.188L37.221,9.163L37.232,9.168L37.154,9.145L37.166,9.149L37.087,9.129L37.099,9.132L37.019,9.114L37.031,9.117L36.951,9.1L36.964,9.104L36.883,9.089L36.895,9.092L36.814,9.079L36.827,9.082L36.744,9.071L36.757,9.073L36.722,9.07L36.675,9.064L36.688,9.066L36.605,9.057L36.619,9.059L36.535,9.052L36.549,9.054L36.464,9.049L36.478,9.051L36.394,9.048L36.393,9.048L36.407,9.049L36.322,9.047L36.336,9.047L36.251,9.047L36.265,9.047L36.179,9.05L36.193,9.049L36.108,9.054L36.122,9.053Z" style="fill:#fff;"/>
            <path d="M32.857,13.298L32.906,13.382L32.903,13.377L32.954,13.459L32.951,13.455L33.004,13.535L33.001,13.531L33.056,13.61L33.053,13.605L33.109,13.683L33.106,13.679L33.164,13.755L33.161,13.75L33.216,13.82L33.22,13.825L33.217,13.82L33.278,13.894L33.274,13.889L33.337,13.962L33.333,13.957L33.397,14.028L33.393,14.023L33.459,14.092L33.455,14.087L33.522,14.155L33.518,14.15L33.587,14.216L33.582,14.211L33.653,14.276L33.648,14.271L33.72,14.333L33.715,14.329L33.789,14.389L33.784,14.385L33.859,14.444L33.853,14.439L33.925,14.493L33.93,14.496L33.924,14.492L34.001,14.548L33.996,14.543L34.074,14.598L34.068,14.593L34.148,14.645L34.142,14.641L34.223,14.692L34.217,14.687L34.299,14.736L34.293,14.731L34.376,14.778L34.369,14.774L34.455,14.819L34.447,14.814L34.534,14.857L34.526,14.853L34.614,14.894L34.606,14.89L34.694,14.928L34.686,14.925L34.776,14.961L34.768,14.957L34.776,14.961L34.858,14.993L34.85,14.989L34.941,15.022L34.932,15.019L35.024,15.05L35.016,15.047L35.109,15.076L35.1,15.073L35.194,15.1L35.185,15.097L35.28,15.121L35.271,15.119L35.366,15.141L35.357,15.138L35.454,15.158L35.444,15.156L35.541,15.173L35.532,15.171L35.63,15.186L35.62,15.185L35.662,15.19L35.719,15.198L35.708,15.196L35.808,15.208L35.798,15.207L35.898,15.216L35.888,15.215L35.988,15.221L35.978,15.221L36.079,15.225L36.069,15.224L36.162,15.227L36.254,15.227L36.346,15.225L36.437,15.221L36.442,15.221L36.535,15.215L36.625,15.208L36.714,15.198L36.805,15.186L36.795,15.188L36.894,15.173L36.883,15.175L36.981,15.158L36.971,15.16L37.068,15.141L37.058,15.143L37.154,15.121L37.144,15.124L37.157,15.121L37.24,15.101L37.23,15.104L37.325,15.079L37.316,15.082L37.409,15.055L37.4,15.058L37.493,15.029L37.484,15.032L37.576,15L37.567,15.004L37.658,14.97L37.649,14.974L37.739,14.938L37.73,14.942L37.819,14.904L37.811,14.908L37.878,14.877L37.899,14.868L37.89,14.872L37.978,14.832L37.97,14.836L38.056,14.793L38.048,14.797L38.133,14.753L38.126,14.757L38.209,14.71L38.202,14.715L38.285,14.666L38.278,14.671L38.359,14.62L38.352,14.625L38.432,14.572L38.425,14.577L38.504,14.523L38.498,14.528L38.546,14.493L38.575,14.472L38.569,14.477L38.645,14.42L38.64,14.425L38.715,14.366L38.709,14.371L38.783,14.31L38.777,14.315L38.849,14.253L38.844,14.258L38.915,14.194L38.91,14.199L38.979,14.133L38.974,14.138L39.042,14.071L39.037,14.076L39.103,14.007L39.099,14.012L39.122,13.986L39.164,13.942L39.16,13.947L39.223,13.876L39.219,13.881L39.281,13.808L39.277,13.813L39.338,13.738L39.334,13.744L39.393,13.667L39.389,13.673L39.446,13.595L39.443,13.6L39.498,13.521L39.495,13.526L39.548,13.446L39.545,13.451L39.596,13.369L39.594,13.374L39.643,13.291L39.64,13.295L39.688,13.211L39.685,13.216L39.731,13.13L39.729,13.135L39.772,13.047L39.77,13.052L39.811,12.964L39.81,12.968L39.849,12.879L39.847,12.883L39.884,12.792L39.883,12.797L39.89,12.776L39.918,12.705L39.917,12.709L39.95,12.617L39.949,12.621L39.981,12.527L39.98,12.531L40.009,12.436L40.008,12.439L40.035,12.343L40.034,12.347L40.059,12.25L40.058,12.253L40.08,12.155L40.08,12.158L40.1,12.059L40.099,12.062L40.117,11.962L40.116,11.965L40.131,11.864L40.131,11.867L40.143,11.765L40.143,11.768L40.15,11.692L40.153,11.665L40.235,11.585L40.315,11.667L40.317,11.694L40.322,11.77L40.322,11.772L40.327,11.874L40.327,11.877L40.329,11.979L40.328,11.981L40.328,12.083L40.328,12.086L40.324,12.186L40.324,12.189L40.318,12.29L40.318,12.293L40.31,12.393L40.309,12.396L40.298,12.495L40.298,12.499L40.285,12.597L40.284,12.601L40.268,12.698L40.267,12.702L40.249,12.799L40.248,12.803L40.232,12.878L40.228,12.899L40.226,12.904L40.203,12.999L40.202,13.003L40.176,13.097L40.174,13.102L40.146,13.195L40.144,13.2L40.114,13.292L40.112,13.297L40.08,13.388L40.078,13.393L40.043,13.484L40.041,13.488L40.004,13.578L40.002,13.583L39.963,13.671L39.96,13.676L39.919,13.764L39.916,13.769L39.873,13.855L39.87,13.86L39.825,13.945L39.822,13.95L39.775,14.034L39.772,14.039L39.723,14.122L39.719,14.127L39.668,14.208L39.664,14.214L39.611,14.294L39.607,14.299L39.573,14.349L39.552,14.378L39.548,14.383L39.491,14.46L39.486,14.465L39.427,14.54L39.422,14.545L39.361,14.619L39.356,14.625L39.294,14.697L39.288,14.702L39.224,14.773L39.218,14.778L39.153,14.847L39.147,14.853L39.079,14.92L39.073,14.925L39.004,14.991L38.998,14.996L38.971,15.021L38.927,15.06L38.92,15.065L38.847,15.127L38.84,15.132L38.766,15.192L38.759,15.197L38.683,15.255L38.676,15.26L38.598,15.317L38.591,15.321L38.512,15.376L38.505,15.381L38.424,15.434L38.417,15.438L38.335,15.489L38.327,15.493L38.244,15.542L38.236,15.546L38.216,15.557L38.151,15.593L38.143,15.597L38.057,15.64L38.048,15.644L37.961,15.686L37.952,15.69L37.863,15.729L37.854,15.733L37.765,15.77L37.756,15.774L37.665,15.809L37.655,15.812L37.564,15.845L37.554,15.848L37.461,15.879L37.451,15.882L37.37,15.907L37.357,15.911L37.348,15.913L37.252,15.938L37.242,15.941L37.146,15.964L37.136,15.966L37.039,15.986L37.029,15.988L36.931,16.006L36.931,16.006L36.92,16.008L36.821,16.022L36.811,16.023L36.711,16.036L36.701,16.037L36.6,16.046L36.59,16.047L36.495,16.054L36.489,16.054L36.478,16.055L36.376,16.057L36.365,16.058L36.263,16.058L36.252,16.058L36.15,16.056L36.139,16.056L36.037,16.051L36.027,16.05L35.926,16.041L35.915,16.041L35.815,16.029L35.805,16.028L35.705,16.015L35.695,16.013L35.596,15.997L35.586,15.996L35.53,15.985L35.488,15.976L35.478,15.975L35.382,15.952L35.372,15.95L35.276,15.926L35.267,15.923L35.172,15.896L35.162,15.894L35.068,15.865L35.059,15.862L34.966,15.831L34.957,15.828L34.866,15.794L34.857,15.791L34.766,15.755L34.757,15.752L34.668,15.714L34.659,15.711L34.571,15.671L34.563,15.667L34.484,15.629L34.476,15.625L34.468,15.621L34.382,15.576L34.374,15.572L34.29,15.525L34.282,15.521L34.2,15.472L34.192,15.468L34.111,15.417L34.103,15.412L34.023,15.359L34.016,15.355L33.937,15.3L33.931,15.296L33.853,15.239L33.847,15.235L33.771,15.176L33.764,15.172L33.69,15.111L33.684,15.107L33.611,15.045L33.605,15.04L33.534,14.977L33.528,14.972L33.524,14.968L33.458,14.906L33.453,14.901L33.385,14.834L33.38,14.829L33.314,14.76L33.309,14.755L33.245,14.684L33.24,14.679L33.177,14.607L33.172,14.602L33.111,14.528L33.107,14.524L33.048,14.448L33.044,14.444L32.986,14.367L32.982,14.362L32.927,14.284L32.923,14.279L32.869,14.2L32.865,14.195L32.814,14.115L32.81,14.11L32.807,14.104L32.761,14.027L32.757,14.023L32.71,13.939L32.707,13.934L32.662,13.85L32.659,13.845L32.615,13.759L32.613,13.754L32.571,13.667L32.569,13.663L32.53,13.574L32.527,13.57L32.49,13.481L32.488,13.476L32.453,13.386L32.451,13.382L32.418,13.29L32.416,13.286L32.386,13.194L32.384,13.19L32.355,13.096L32.354,13.092L32.328,12.998L32.326,12.994L32.302,12.899L32.301,12.895L32.279,12.8L32.278,12.796L32.259,12.699L32.258,12.696L32.241,12.598L32.24,12.595L32.226,12.497L32.225,12.493L32.214,12.404L32.212,12.391L32.203,12.292L32.203,12.289L32.196,12.189L32.196,12.186L32.191,12.085L32.191,12.082L32.19,11.981L32.189,11.978L32.19,11.877L32.19,11.874L32.194,11.772L32.194,11.77L32.198,11.696L32.2,11.667L32.28,11.583L32.362,11.665L32.365,11.694L32.371,11.768L32.371,11.765L32.382,11.867L32.382,11.865L32.396,11.965L32.396,11.963L32.412,12.063L32.412,12.06L32.431,12.159L32.43,12.156L32.451,12.254L32.451,12.251L32.474,12.348L32.474,12.345L32.476,12.353L32.499,12.441L32.498,12.437L32.526,12.533L32.525,12.529L32.555,12.623L32.554,12.619L32.586,12.713L32.585,12.709L32.619,12.801L32.618,12.797L32.654,12.888L32.653,12.884L32.691,12.973L32.69,12.969L32.73,13.058L32.729,13.053L32.771,13.141L32.77,13.136L32.814,13.222L32.812,13.218L32.859,13.303L32.857,13.298Z" style="fill:#c1c2dd;fill-opacity:0.3;"/>
        </g>
        <g>
            <circle cx="36.258" cy="29.824" r="4.645" style="fill:#2b307f;fill-opacity:0.35;"/>
            <circle cx="36.258" cy="28.152" r="4.645" style="fill:#f2f2fa;"/>
            <path d="M36.122,25.416L36.117,25.416L36.039,25.421L35.969,25.426L35.899,25.433L35.829,25.442L35.843,25.44L35.76,25.452L35.774,25.449L35.692,25.462L35.705,25.46L35.624,25.475L35.638,25.472L35.557,25.489L35.57,25.486L35.56,25.488L35.49,25.503L35.503,25.499L35.423,25.519L35.436,25.515L35.357,25.536L35.37,25.532L35.292,25.555L35.304,25.55L35.226,25.575L35.238,25.57L35.162,25.597L35.173,25.592L35.098,25.621L35.109,25.616L35.034,25.646L35.045,25.641L34.989,25.665L34.971,25.672L34.982,25.667L34.908,25.699L34.919,25.693L34.846,25.727L34.856,25.721L34.784,25.756L34.794,25.75L34.723,25.788L34.733,25.781L34.663,25.82L34.672,25.814L34.603,25.854L34.612,25.848L34.544,25.89L34.553,25.883L34.486,25.927L34.494,25.92L34.453,25.949L34.428,25.965L34.436,25.958L34.371,26.004L34.378,25.997L34.314,26.044L34.321,26.037L34.258,26.086L34.265,26.079L34.203,26.129L34.21,26.122L34.149,26.174L34.156,26.167L34.096,26.22L34.102,26.213L34.044,26.268L34.05,26.261L33.993,26.316L33.999,26.309L33.978,26.33L33.942,26.366L33.948,26.359L33.892,26.417L33.897,26.41L33.843,26.469L33.848,26.462L33.794,26.522L33.799,26.515L33.748,26.577L33.752,26.57L33.702,26.633L33.706,26.626L33.657,26.69L33.661,26.683L33.614,26.749L33.617,26.742L33.572,26.809L33.575,26.802L33.531,26.87L33.534,26.864L33.492,26.933L33.495,26.927L33.454,26.997L33.456,26.991L33.417,27.062L33.419,27.056L33.382,27.128L33.384,27.122L33.348,27.196L33.35,27.19L33.316,27.265L33.318,27.259L33.311,27.276L33.285,27.334L33.286,27.329L33.254,27.405L33.256,27.4L33.226,27.477L33.227,27.472L33.199,27.55L33.2,27.546L33.173,27.625L33.174,27.62L33.15,27.7L33.15,27.696L33.128,27.777L33.128,27.773L33.108,27.855L33.108,27.851L33.09,27.934L33.09,27.931L33.074,28.015L33.074,28.011L33.059,28.096L33.059,28.093L33.05,28.156L33.047,28.178L32.938,28.285L32.832,28.176L32.829,28.153L32.822,28.09L32.822,28.087L32.814,28.001L32.814,27.998L32.808,27.913L32.809,27.909L32.805,27.824L32.805,27.821L32.804,27.736L32.804,27.732L32.805,27.648L32.806,27.643L32.809,27.56L32.809,27.555L32.814,27.472L32.815,27.467L32.822,27.384L32.823,27.379L32.833,27.296L32.834,27.291L32.845,27.209L32.846,27.204L32.857,27.141L32.86,27.123L32.862,27.117L32.878,27.036L32.88,27.031L32.898,26.951L32.9,26.945L32.92,26.866L32.923,26.86L32.945,26.781L32.947,26.775L32.971,26.697L32.974,26.691L33,26.614L33.003,26.608L33.03,26.532L33.034,26.525L33.063,26.45L33.067,26.443L33.098,26.368L33.102,26.362L33.134,26.288L33.139,26.281L33.173,26.208L33.178,26.201L33.214,26.13L33.219,26.123L33.257,26.052L33.262,26.045L33.301,25.975L33.306,25.968L33.348,25.899L33.353,25.892L33.38,25.849L33.397,25.824L33.402,25.817L33.448,25.752L33.454,25.744L33.502,25.68L33.508,25.673L33.557,25.609L33.563,25.602L33.614,25.54L33.621,25.533L33.672,25.472L33.68,25.465L33.733,25.405L33.74,25.398L33.795,25.34L33.803,25.333L33.859,25.276L33.867,25.269L33.888,25.248L33.925,25.214L33.933,25.207L33.993,25.154L34.002,25.147L34.063,25.095L34.072,25.088L34.134,25.038L34.143,25.032L34.207,24.983L34.216,24.976L34.281,24.929L34.291,24.923L34.357,24.877L34.367,24.871L34.434,24.826L34.445,24.821L34.513,24.778L34.524,24.772L34.54,24.762L34.594,24.732L34.605,24.727L34.676,24.689L34.688,24.684L34.76,24.647L34.771,24.642L34.845,24.608L34.857,24.603L34.931,24.571L34.943,24.566L35.018,24.535L35.031,24.531L35.107,24.502L35.119,24.498L35.196,24.47L35.209,24.467L35.277,24.444L35.287,24.441L35.3,24.438L35.38,24.416L35.393,24.413L35.473,24.393L35.486,24.39L35.567,24.372L35.581,24.37L35.662,24.354L35.663,24.354L35.676,24.352L35.759,24.34L35.773,24.338L35.856,24.327L35.87,24.326L35.953,24.318L35.967,24.317L36.047,24.311L36.052,24.31L36.066,24.31L36.151,24.308L36.165,24.307L36.265,24.308L36.364,24.31L36.463,24.315L36.547,24.324L36.561,24.325L36.645,24.335L36.658,24.337L36.741,24.349L36.755,24.351L36.837,24.366L36.85,24.368L36.897,24.377L36.932,24.385L36.945,24.388L37.025,24.408L37.038,24.411L37.118,24.433L37.131,24.436L37.209,24.46L37.222,24.464L37.3,24.49L37.312,24.493L37.389,24.521L37.401,24.525L37.477,24.555L37.489,24.559L37.564,24.59L37.575,24.595L37.649,24.628L37.661,24.632L37.734,24.668L37.745,24.672L37.81,24.706L37.817,24.709L37.827,24.714L37.898,24.754L37.908,24.759L37.977,24.801L37.987,24.806L38.055,24.849L38.065,24.854L38.132,24.899L38.142,24.905L38.207,24.951L38.217,24.957L38.281,25.004L38.29,25.01L38.353,25.06L38.362,25.065L38.424,25.116L38.433,25.122L38.493,25.174L38.502,25.181L38.561,25.234L38.569,25.24L38.627,25.295L38.634,25.302L38.638,25.305L38.691,25.359L38.698,25.365L38.753,25.423L38.76,25.43L38.813,25.489L38.819,25.496L38.871,25.557L38.878,25.563L38.928,25.625L38.934,25.632L38.983,25.695L38.989,25.702L39.036,25.766L39.042,25.773L39.088,25.839L39.093,25.845L39.137,25.912L39.142,25.918L39.185,25.986L39.19,25.993L39.231,26.061L39.235,26.068L39.238,26.073L39.274,26.138L39.278,26.145L39.315,26.216L39.319,26.223L39.355,26.295L39.358,26.301L39.392,26.375L39.395,26.381L39.427,26.455L39.43,26.461L39.46,26.536L39.463,26.542L39.492,26.618L39.495,26.624L39.521,26.701L39.524,26.706L39.548,26.784L39.55,26.79L39.573,26.868L39.575,26.873L39.596,26.952L39.598,26.958L39.617,27.037L39.619,27.043L39.636,27.123L39.637,27.128L39.652,27.209L39.654,27.214L39.667,27.295L39.668,27.3L39.679,27.382L39.68,27.387L39.689,27.469L39.69,27.474L39.697,27.549L39.697,27.557L39.698,27.561L39.702,27.645L39.703,27.649L39.705,27.733L39.705,27.737L39.705,27.821L39.705,27.825L39.703,27.91L39.703,27.913L39.699,27.998L39.699,28.001L39.692,28.087L39.692,28.09L39.686,28.151L39.683,28.176L39.577,28.287L39.468,28.178L39.465,28.154L39.457,28.093L39.457,28.096L39.444,28.011L39.444,28.014L39.429,27.931L39.429,27.934L39.412,27.851L39.412,27.855L39.393,27.772L39.393,27.776L39.372,27.695L39.373,27.699L39.35,27.619L39.351,27.623L39.348,27.616L39.326,27.544L39.327,27.548L39.301,27.469L39.302,27.474L39.274,27.396L39.275,27.401L39.246,27.324L39.247,27.329L39.215,27.254L39.217,27.259L39.184,27.184L39.185,27.189L39.15,27.116L39.152,27.121L39.115,27.048L39.118,27.054L39.079,26.982L39.081,26.988L39.041,26.918L39.044,26.923L39.002,26.854L39.005,26.86L38.961,26.792L38.965,26.798L38.92,26.731L38.923,26.737L38.876,26.671L38.88,26.677L38.832,26.613L38.836,26.619L38.786,26.556L38.79,26.562L38.739,26.5L38.743,26.506L38.695,26.45L38.691,26.446L38.696,26.452L38.642,26.392L38.647,26.398L38.593,26.34L38.598,26.346L38.542,26.289L38.548,26.295L38.49,26.239L38.496,26.246L38.438,26.191L38.444,26.198L38.384,26.144L38.39,26.151L38.329,26.099L38.336,26.106L38.273,26.055L38.28,26.062L38.217,26.013L38.224,26.019L38.159,25.972L38.167,25.978L38.105,25.935L38.101,25.932L38.109,25.939L38.042,25.894L38.05,25.9L37.983,25.856L37.991,25.863L37.923,25.821L37.932,25.827L37.862,25.786L37.871,25.792L37.801,25.754L37.81,25.759L37.738,25.722L37.748,25.728L37.676,25.693L37.685,25.698L37.612,25.665L37.622,25.67L37.548,25.638L37.558,25.644L37.483,25.614L37.494,25.619L37.418,25.59L37.429,25.595L37.421,25.593L37.353,25.567L37.364,25.572L37.287,25.546L37.298,25.55L37.221,25.526L37.232,25.53L37.154,25.508L37.166,25.512L37.087,25.491L37.099,25.495L37.019,25.476L37.031,25.48L36.951,25.463L36.964,25.467L36.883,25.452L36.895,25.455L36.814,25.442L36.827,25.445L36.744,25.434L36.757,25.436L36.722,25.433L36.675,25.426L36.688,25.429L36.605,25.42L36.619,25.422L36.535,25.415L36.549,25.417L36.464,25.412L36.478,25.413L36.394,25.411L36.393,25.411L36.407,25.412L36.322,25.41L36.336,25.41L36.251,25.41L36.265,25.41L36.179,25.413L36.193,25.412L36.108,25.417L36.122,25.416Z" style="fill:#fff;"/>
            <path d="M32.857,29.661L32.906,29.745L32.903,29.74L32.954,29.822L32.951,29.818L33.004,29.898L33.001,29.894L33.056,29.973L33.053,29.968L33.109,30.046L33.106,30.041L33.164,30.118L33.161,30.113L33.216,30.183L33.22,30.188L33.217,30.183L33.278,30.257L33.274,30.252L33.337,30.325L33.333,30.32L33.397,30.391L33.393,30.386L33.459,30.455L33.455,30.45L33.522,30.518L33.518,30.513L33.587,30.579L33.582,30.574L33.653,30.638L33.648,30.634L33.72,30.696L33.715,30.691L33.789,30.752L33.784,30.747L33.859,30.807L33.853,30.802L33.925,30.856L33.93,30.859L33.924,30.855L34.001,30.911L33.996,30.906L34.074,30.96L34.068,30.956L34.148,31.008L34.142,31.004L34.223,31.054L34.217,31.05L34.299,31.099L34.293,31.094L34.376,31.141L34.369,31.137L34.455,31.181L34.447,31.177L34.534,31.22L34.526,31.216L34.614,31.257L34.606,31.253L34.694,31.291L34.686,31.287L34.776,31.324L34.768,31.32L34.776,31.323L34.858,31.356L34.85,31.352L34.941,31.385L34.932,31.382L35.024,31.413L35.016,31.41L35.109,31.439L35.1,31.436L35.194,31.463L35.185,31.46L35.28,31.484L35.271,31.481L35.366,31.504L35.357,31.501L35.454,31.521L35.444,31.519L35.541,31.536L35.532,31.534L35.63,31.549L35.62,31.547L35.662,31.553L35.719,31.561L35.708,31.559L35.808,31.571L35.798,31.57L35.898,31.579L35.888,31.578L35.988,31.584L35.978,31.583L36.079,31.587L36.069,31.587L36.162,31.59L36.254,31.59L36.346,31.588L36.437,31.584L36.442,31.583L36.535,31.578L36.625,31.571L36.714,31.561L36.805,31.549L36.795,31.55L36.894,31.536L36.883,31.538L36.981,31.521L36.971,31.523L37.068,31.504L37.058,31.506L37.154,31.484L37.144,31.487L37.157,31.484L37.24,31.464L37.23,31.467L37.325,31.442L37.316,31.445L37.409,31.418L37.4,31.421L37.493,31.392L37.484,31.395L37.576,31.363L37.567,31.367L37.658,31.333L37.649,31.337L37.739,31.301L37.73,31.305L37.819,31.267L37.811,31.271L37.878,31.24L37.899,31.231L37.89,31.235L37.978,31.194L37.97,31.199L38.056,31.156L38.048,31.16L38.133,31.115L38.126,31.12L38.209,31.073L38.202,31.078L38.285,31.029L38.278,31.034L38.359,30.983L38.352,30.988L38.432,30.935L38.425,30.94L38.504,30.886L38.498,30.891L38.546,30.855L38.575,30.835L38.569,30.84L38.645,30.782L38.64,30.788L38.715,30.728L38.709,30.734L38.783,30.673L38.777,30.678L38.849,30.616L38.844,30.621L38.915,30.557L38.91,30.562L38.979,30.496L38.974,30.501L39.042,30.434L39.037,30.439L39.103,30.37L39.099,30.375L39.122,30.349L39.164,30.305L39.16,30.31L39.223,30.238L39.219,30.244L39.281,30.171L39.277,30.176L39.338,30.101L39.334,30.106L39.393,30.03L39.389,30.035L39.446,29.958L39.443,29.963L39.498,29.884L39.495,29.889L39.548,29.808L39.545,29.814L39.596,29.732L39.594,29.737L39.643,29.653L39.64,29.658L39.688,29.574L39.685,29.579L39.731,29.493L39.729,29.497L39.772,29.41L39.77,29.415L39.811,29.327L39.81,29.331L39.849,29.242L39.847,29.246L39.884,29.155L39.883,29.16L39.89,29.139L39.918,29.068L39.917,29.072L39.95,28.979L39.949,28.983L39.981,28.89L39.98,28.893L40.009,28.799L40.008,28.802L40.035,28.706L40.034,28.71L40.059,28.613L40.058,28.616L40.08,28.518L40.08,28.521L40.1,28.422L40.099,28.425L40.117,28.325L40.116,28.328L40.131,28.227L40.131,28.23L40.143,28.128L40.143,28.13L40.15,28.055L40.153,28.028L40.235,27.948L40.315,28.03L40.317,28.057L40.322,28.133L40.322,28.135L40.327,28.237L40.327,28.24L40.329,28.341L40.328,28.344L40.328,28.445L40.328,28.448L40.324,28.549L40.324,28.552L40.318,28.652L40.318,28.656L40.31,28.755L40.309,28.759L40.298,28.858L40.298,28.861L40.285,28.96L40.284,28.964L40.268,29.061L40.267,29.065L40.249,29.162L40.248,29.166L40.232,29.241L40.228,29.262L40.226,29.267L40.203,29.362L40.202,29.366L40.176,29.46L40.174,29.465L40.146,29.558L40.144,29.563L40.114,29.655L40.112,29.66L40.08,29.751L40.078,29.756L40.043,29.846L40.041,29.851L40.004,29.941L40.002,29.946L39.963,30.034L39.96,30.039L39.919,30.126L39.916,30.131L39.873,30.218L39.87,30.223L39.825,30.308L39.822,30.313L39.775,30.397L39.772,30.402L39.723,30.485L39.719,30.49L39.668,30.571L39.664,30.577L39.611,30.657L39.607,30.662L39.573,30.712L39.552,30.74L39.548,30.746L39.491,30.822L39.486,30.828L39.427,30.903L39.422,30.908L39.361,30.982L39.356,30.987L39.294,31.06L39.288,31.065L39.224,31.136L39.218,31.141L39.153,31.21L39.147,31.215L39.079,31.283L39.073,31.288L39.004,31.354L38.998,31.359L38.971,31.383L38.927,31.423L38.92,31.428L38.847,31.49L38.84,31.495L38.766,31.555L38.759,31.56L38.683,31.618L38.676,31.623L38.598,31.68L38.591,31.684L38.512,31.739L38.505,31.744L38.424,31.796L38.417,31.801L38.335,31.852L38.327,31.856L38.244,31.905L38.236,31.909L38.216,31.92L38.151,31.955L38.143,31.959L38.057,32.003L38.048,32.007L37.961,32.049L37.952,32.052L37.863,32.092L37.854,32.096L37.765,32.133L37.756,32.136L37.665,32.172L37.655,32.175L37.564,32.208L37.554,32.211L37.461,32.242L37.451,32.245L37.37,32.27L37.357,32.274L37.348,32.276L37.252,32.301L37.242,32.304L37.146,32.326L37.136,32.328L37.039,32.349L37.029,32.351L36.931,32.369L36.931,32.369L36.92,32.37L36.821,32.385L36.811,32.386L36.711,32.398L36.701,32.399L36.6,32.409L36.59,32.41L36.495,32.416L36.489,32.417L36.478,32.417L36.376,32.42L36.365,32.421L36.263,32.421L36.252,32.421L36.15,32.419L36.139,32.418L36.037,32.414L36.027,32.413L35.926,32.404L35.915,32.404L35.815,32.392L35.805,32.391L35.705,32.377L35.695,32.376L35.596,32.36L35.586,32.358L35.53,32.348L35.488,32.339L35.478,32.337L35.382,32.315L35.372,32.313L35.276,32.288L35.267,32.286L35.172,32.259L35.162,32.257L35.068,32.228L35.059,32.225L34.966,32.193L34.957,32.191L34.866,32.157L34.857,32.154L34.766,32.118L34.757,32.115L34.668,32.077L34.659,32.074L34.571,32.034L34.563,32.03L34.484,31.992L34.476,31.988L34.468,31.984L34.382,31.939L34.374,31.935L34.29,31.888L34.282,31.884L34.2,31.835L34.192,31.831L34.111,31.779L34.103,31.775L34.023,31.722L34.016,31.718L33.937,31.663L33.931,31.659L33.853,31.602L33.847,31.598L33.771,31.539L33.764,31.535L33.69,31.474L33.684,31.47L33.611,31.408L33.605,31.403L33.534,31.339L33.528,31.335L33.524,31.331L33.458,31.269L33.453,31.264L33.385,31.196L33.38,31.192L33.314,31.122L33.309,31.118L33.245,31.047L33.24,31.042L33.177,30.97L33.172,30.965L33.111,30.891L33.107,30.886L33.048,30.811L33.044,30.806L32.986,30.73L32.982,30.725L32.927,30.647L32.923,30.642L32.869,30.563L32.865,30.558L32.814,30.477L32.81,30.473L32.807,30.467L32.761,30.39L32.757,30.385L32.71,30.302L32.707,30.297L32.662,30.212L32.659,30.208L32.615,30.122L32.613,30.117L32.571,30.03L32.569,30.025L32.53,29.937L32.527,29.933L32.49,29.844L32.488,29.839L32.453,29.749L32.451,29.744L32.418,29.653L32.416,29.649L32.386,29.557L32.384,29.552L32.355,29.459L32.354,29.455L32.328,29.361L32.326,29.357L32.302,29.262L32.301,29.258L32.279,29.163L32.278,29.159L32.259,29.062L32.258,29.059L32.241,28.961L32.24,28.958L32.226,28.86L32.225,28.856L32.214,28.766L32.212,28.754L32.203,28.655L32.203,28.652L32.196,28.552L32.196,28.549L32.191,28.448L32.191,28.445L32.19,28.344L32.189,28.341L32.19,28.24L32.19,28.237L32.194,28.135L32.194,28.133L32.198,28.059L32.2,28.03L32.28,27.946L32.362,28.028L32.365,28.057L32.371,28.13L32.371,28.128L32.382,28.23L32.382,28.227L32.396,28.328L32.396,28.326L32.412,28.425L32.412,28.423L32.431,28.522L32.43,28.519L32.451,28.617L32.451,28.614L32.474,28.711L32.474,28.707L32.476,28.716L32.499,28.804L32.498,28.8L32.526,28.895L32.525,28.892L32.555,28.986L32.554,28.982L32.586,29.075L32.585,29.072L32.619,29.164L32.618,29.16L32.654,29.251L32.653,29.246L32.691,29.336L32.69,29.332L32.73,29.421L32.729,29.416L32.771,29.504L32.77,29.499L32.814,29.585L32.812,29.581L32.859,29.666L32.857,29.661Z" style="fill:#c1c2dd;fill-opacity:0.3;"/>
        </g>
        <g>
            <circle cx="36.258" cy="46.187" r="4.645" style="fill:#2b307f;fill-opacity:0.35;"/>
            <circle cx="36.258" cy="44.515" r="4.645" style="fill:#f2f2fa;"/>
            <path d="M36.122,41.779L36.117,41.779L36.039,41.783L35.969,41.789L35.899,41.796L35.829,41.805L35.843,41.803L35.76,41.814L35.774,41.812L35.692,41.825L35.705,41.822L35.624,41.838L35.638,41.835L35.557,41.852L35.57,41.848L35.56,41.851L35.49,41.866L35.503,41.862L35.423,41.882L35.436,41.878L35.357,41.899L35.37,41.895L35.292,41.918L35.304,41.913L35.226,41.938L35.238,41.933L35.162,41.96L35.173,41.955L35.098,41.984L35.109,41.978L35.034,42.009L35.045,42.003L34.989,42.028L34.971,42.035L34.982,42.029L34.908,42.062L34.919,42.056L34.846,42.09L34.856,42.084L34.784,42.119L34.794,42.113L34.723,42.15L34.733,42.144L34.663,42.183L34.672,42.177L34.603,42.217L34.612,42.211L34.544,42.253L34.553,42.246L34.486,42.29L34.494,42.283L34.453,42.312L34.428,42.328L34.436,42.321L34.371,42.367L34.378,42.36L34.314,42.407L34.321,42.4L34.258,42.449L34.265,42.442L34.203,42.492L34.21,42.485L34.149,42.537L34.156,42.53L34.096,42.583L34.102,42.576L34.044,42.631L34.05,42.623L33.993,42.679L33.999,42.672L33.978,42.693L33.942,42.729L33.948,42.722L33.892,42.78L33.897,42.772L33.843,42.832L33.848,42.824L33.794,42.885L33.799,42.878L33.748,42.94L33.752,42.933L33.702,42.996L33.706,42.989L33.657,43.053L33.661,43.046L33.614,43.112L33.617,43.105L33.572,43.172L33.575,43.165L33.531,43.233L33.534,43.227L33.492,43.296L33.495,43.289L33.454,43.36L33.456,43.353L33.417,43.425L33.419,43.419L33.382,43.491L33.384,43.485L33.348,43.559L33.35,43.553L33.316,43.627L33.318,43.622L33.311,43.639L33.285,43.697L33.286,43.692L33.254,43.768L33.256,43.763L33.226,43.84L33.227,43.835L33.199,43.913L33.2,43.908L33.173,43.988L33.174,43.983L33.15,44.063L33.15,44.059L33.128,44.14L33.128,44.136L33.108,44.218L33.108,44.214L33.09,44.297L33.09,44.294L33.074,44.377L33.074,44.374L33.059,44.459L33.059,44.456L33.05,44.519L33.047,44.541L32.938,44.647L32.832,44.538L32.829,44.516L32.822,44.453L32.822,44.45L32.814,44.364L32.814,44.361L32.808,44.276L32.809,44.272L32.805,44.187L32.805,44.183L32.804,44.099L32.804,44.095L32.805,44.011L32.806,44.006L32.809,43.922L32.809,43.918L32.814,43.835L32.815,43.83L32.822,43.747L32.823,43.742L32.833,43.659L32.834,43.654L32.845,43.572L32.846,43.567L32.857,43.503L32.86,43.485L32.862,43.48L32.878,43.399L32.88,43.394L32.898,43.314L32.9,43.308L32.92,43.229L32.923,43.223L32.945,43.144L32.947,43.138L32.971,43.06L32.974,43.054L33,42.977L33.003,42.971L33.03,42.894L33.034,42.888L33.063,42.812L33.067,42.806L33.098,42.731L33.102,42.724L33.134,42.651L33.139,42.644L33.173,42.571L33.178,42.564L33.214,42.493L33.219,42.486L33.257,42.415L33.262,42.408L33.301,42.338L33.306,42.331L33.348,42.262L33.353,42.255L33.38,42.212L33.397,42.187L33.402,42.18L33.448,42.114L33.454,42.107L33.502,42.043L33.508,42.036L33.557,41.972L33.563,41.965L33.614,41.903L33.621,41.896L33.672,41.835L33.68,41.828L33.733,41.768L33.74,41.761L33.795,41.703L33.803,41.696L33.859,41.638L33.867,41.632L33.888,41.611L33.925,41.576L33.933,41.57L33.993,41.516L34.002,41.51L34.063,41.458L34.072,41.451L34.134,41.401L34.143,41.394L34.207,41.345L34.216,41.339L34.281,41.292L34.291,41.286L34.357,41.24L34.367,41.234L34.434,41.189L34.445,41.183L34.513,41.14L34.524,41.135L34.54,41.125L34.594,41.095L34.605,41.09L34.676,41.052L34.688,41.046L34.76,41.01L34.771,41.005L34.845,40.971L34.857,40.966L34.931,40.933L34.943,40.929L35.018,40.898L35.031,40.894L35.107,40.864L35.119,40.861L35.196,40.833L35.209,40.829L35.277,40.807L35.287,40.804L35.3,40.801L35.38,40.779L35.393,40.776L35.473,40.756L35.486,40.753L35.567,40.735L35.581,40.733L35.662,40.717L35.663,40.717L35.676,40.715L35.759,40.702L35.773,40.701L35.856,40.69L35.87,40.689L35.953,40.68L35.967,40.679L36.047,40.674L36.052,40.673L36.066,40.673L36.151,40.671L36.165,40.67L36.265,40.67L36.364,40.673L36.463,40.678L36.547,40.687L36.561,40.688L36.645,40.698L36.658,40.7L36.741,40.712L36.755,40.714L36.837,40.729L36.85,40.731L36.897,40.74L36.932,40.748L36.945,40.75L37.025,40.771L37.038,40.774L37.118,40.796L37.131,40.799L37.209,40.823L37.222,40.826L37.3,40.853L37.312,40.856L37.389,40.884L37.401,40.888L37.477,40.918L37.489,40.922L37.564,40.953L37.575,40.958L37.649,40.991L37.661,40.995L37.734,41.03L37.745,41.035L37.81,41.068L37.817,41.072L37.827,41.077L37.898,41.117L37.908,41.122L37.977,41.163L37.987,41.169L38.055,41.212L38.065,41.217L38.132,41.262L38.142,41.268L38.207,41.314L38.217,41.319L38.281,41.367L38.29,41.373L38.353,41.422L38.362,41.428L38.424,41.479L38.433,41.485L38.493,41.537L38.502,41.543L38.561,41.597L38.569,41.603L38.627,41.658L38.634,41.664L38.638,41.668L38.691,41.721L38.698,41.728L38.753,41.786L38.76,41.793L38.813,41.852L38.819,41.859L38.871,41.92L38.878,41.926L38.928,41.988L38.934,41.995L38.983,42.058L38.989,42.065L39.036,42.129L39.042,42.136L39.088,42.201L39.093,42.208L39.137,42.275L39.142,42.281L39.185,42.349L39.19,42.355L39.231,42.424L39.235,42.431L39.238,42.436L39.274,42.501L39.278,42.508L39.315,42.579L39.319,42.585L39.355,42.658L39.358,42.664L39.392,42.737L39.395,42.744L39.427,42.818L39.43,42.824L39.46,42.899L39.463,42.905L39.492,42.981L39.495,42.987L39.521,43.063L39.524,43.069L39.548,43.147L39.55,43.152L39.573,43.231L39.575,43.236L39.596,43.315L39.598,43.321L39.617,43.4L39.619,43.405L39.636,43.486L39.637,43.491L39.652,43.572L39.654,43.577L39.667,43.658L39.668,43.663L39.679,43.745L39.68,43.75L39.689,43.832L39.69,43.837L39.697,43.912L39.697,43.92L39.698,43.924L39.702,44.008L39.703,44.012L39.705,44.096L39.705,44.1L39.705,44.184L39.705,44.188L39.703,44.273L39.703,44.276L39.699,44.361L39.699,44.364L39.692,44.45L39.692,44.453L39.686,44.514L39.683,44.538L39.577,44.65L39.468,44.541L39.465,44.517L39.457,44.456L39.457,44.459L39.444,44.374L39.444,44.377L39.429,44.293L39.429,44.297L39.412,44.214L39.412,44.218L39.393,44.135L39.393,44.139L39.372,44.058L39.373,44.062L39.35,43.982L39.351,43.986L39.348,43.979L39.326,43.906L39.327,43.911L39.301,43.832L39.302,43.837L39.274,43.759L39.275,43.764L39.246,43.687L39.247,43.692L39.215,43.616L39.217,43.622L39.184,43.547L39.185,43.552L39.15,43.478L39.152,43.484L39.115,43.411L39.118,43.417L39.079,43.345L39.081,43.351L39.041,43.28L39.044,43.286L39.002,43.217L39.005,43.223L38.961,43.155L38.965,43.161L38.92,43.094L38.923,43.1L38.876,43.034L38.88,43.04L38.832,42.976L38.836,42.982L38.786,42.918L38.79,42.925L38.739,42.863L38.743,42.869L38.695,42.813L38.691,42.808L38.696,42.815L38.642,42.755L38.647,42.761L38.593,42.702L38.598,42.709L38.542,42.652L38.548,42.658L38.49,42.602L38.496,42.609L38.438,42.554L38.444,42.56L38.384,42.507L38.39,42.514L38.329,42.462L38.336,42.468L38.273,42.418L38.28,42.425L38.217,42.376L38.224,42.382L38.159,42.335L38.167,42.341L38.105,42.298L38.101,42.295L38.109,42.302L38.042,42.257L38.05,42.263L37.983,42.219L37.991,42.225L37.923,42.183L37.932,42.19L37.862,42.149L37.871,42.155L37.801,42.117L37.81,42.122L37.738,42.085L37.748,42.091L37.676,42.056L37.685,42.061L37.612,42.028L37.622,42.033L37.548,42.001L37.558,42.006L37.483,41.976L37.494,41.981L37.418,41.953L37.429,41.958L37.421,41.956L37.353,41.93L37.364,41.935L37.287,41.909L37.298,41.913L37.221,41.889L37.232,41.893L37.154,41.871L37.166,41.875L37.087,41.854L37.099,41.858L37.019,41.839L37.031,41.843L36.951,41.826L36.964,41.829L36.883,41.815L36.895,41.818L36.814,41.805L36.827,41.807L36.744,41.797L36.757,41.799L36.722,41.795L36.675,41.789L36.688,41.791L36.605,41.783L36.619,41.785L36.535,41.778L36.549,41.78L36.464,41.775L36.478,41.776L36.394,41.774L36.393,41.774L36.407,41.775L36.322,41.773L36.336,41.773L36.251,41.773L36.265,41.773L36.179,41.775L36.193,41.775L36.108,41.78L36.122,41.779Z" style="fill:#fff;"/>
            <path d="M32.857,46.024L32.906,46.107L32.903,46.103L32.954,46.185L32.951,46.18L33.004,46.261L33.001,46.256L33.056,46.336L33.053,46.331L33.109,46.409L33.106,46.404L33.164,46.481L33.161,46.476L33.216,46.546L33.22,46.551L33.217,46.546L33.278,46.62L33.274,46.615L33.337,46.688L33.333,46.683L33.397,46.753L33.393,46.749L33.459,46.818L33.455,46.813L33.522,46.881L33.518,46.876L33.587,46.942L33.582,46.937L33.653,47.001L33.648,46.996L33.72,47.059L33.715,47.054L33.789,47.115L33.784,47.11L33.859,47.17L33.853,47.165L33.925,47.219L33.93,47.222L33.924,47.217L34.001,47.274L33.996,47.269L34.074,47.323L34.068,47.319L34.148,47.371L34.142,47.367L34.223,47.417L34.217,47.413L34.299,47.461L34.293,47.457L34.376,47.504L34.369,47.5L34.455,47.544L34.447,47.54L34.534,47.583L34.526,47.579L34.614,47.619L34.606,47.615L34.694,47.654L34.686,47.65L34.776,47.687L34.768,47.683L34.776,47.686L34.858,47.718L34.85,47.715L34.941,47.748L34.932,47.745L35.024,47.776L35.016,47.773L35.109,47.802L35.1,47.799L35.194,47.825L35.185,47.823L35.28,47.847L35.271,47.844L35.366,47.866L35.357,47.864L35.454,47.884L35.444,47.882L35.541,47.899L35.532,47.897L35.63,47.912L35.62,47.91L35.662,47.916L35.719,47.924L35.708,47.922L35.808,47.934L35.798,47.932L35.898,47.942L35.888,47.94L35.988,47.947L35.978,47.946L36.079,47.95L36.069,47.95L36.162,47.953L36.254,47.953L36.346,47.951L36.437,47.947L36.442,47.946L36.535,47.941L36.625,47.934L36.714,47.924L36.805,47.912L36.795,47.913L36.894,47.899L36.883,47.901L36.981,47.884L36.971,47.886L37.068,47.866L37.058,47.869L37.154,47.847L37.144,47.85L37.157,47.847L37.24,47.827L37.23,47.83L37.325,47.805L37.316,47.808L37.409,47.781L37.4,47.784L37.493,47.754L37.484,47.758L37.576,47.726L37.567,47.73L37.658,47.696L37.649,47.7L37.739,47.664L37.73,47.668L37.819,47.63L37.811,47.634L37.878,47.603L37.899,47.594L37.89,47.598L37.978,47.557L37.97,47.562L38.056,47.519L38.048,47.523L38.133,47.478L38.126,47.483L38.209,47.436L38.202,47.441L38.285,47.392L38.278,47.397L38.359,47.346L38.352,47.351L38.432,47.298L38.425,47.303L38.504,47.248L38.498,47.253L38.546,47.218L38.575,47.197L38.569,47.203L38.645,47.145L38.64,47.15L38.715,47.091L38.709,47.097L38.783,47.036L38.777,47.041L38.849,46.978L38.844,46.984L38.915,46.919L38.91,46.925L38.979,46.859L38.974,46.864L39.042,46.796L39.037,46.802L39.103,46.733L39.099,46.738L39.122,46.712L39.164,46.668L39.16,46.673L39.223,46.601L39.219,46.607L39.281,46.533L39.277,46.539L39.338,46.464L39.334,46.469L39.393,46.393L39.389,46.398L39.446,46.321L39.443,46.326L39.498,46.247L39.495,46.252L39.548,46.171L39.545,46.176L39.596,46.094L39.594,46.099L39.643,46.016L39.64,46.021L39.688,45.937L39.685,45.941L39.731,45.856L39.729,45.86L39.772,45.773L39.77,45.778L39.811,45.689L39.81,45.694L39.849,45.604L39.847,45.609L39.884,45.518L39.883,45.522L39.89,45.502L39.918,45.431L39.917,45.435L39.95,45.342L39.949,45.346L39.981,45.252L39.98,45.256L40.009,45.161L40.008,45.165L40.035,45.069L40.034,45.073L40.059,44.976L40.058,44.979L40.08,44.881L40.08,44.884L40.1,44.785L40.099,44.788L40.117,44.688L40.116,44.691L40.131,44.59L40.131,44.593L40.143,44.491L40.143,44.493L40.15,44.417L40.153,44.391L40.235,44.311L40.315,44.393L40.317,44.42L40.322,44.496L40.322,44.498L40.327,44.6L40.327,44.603L40.329,44.704L40.328,44.707L40.328,44.808L40.328,44.811L40.324,44.912L40.324,44.915L40.318,45.015L40.318,45.019L40.31,45.118L40.309,45.122L40.298,45.221L40.298,45.224L40.285,45.323L40.284,45.326L40.268,45.424L40.267,45.428L40.249,45.525L40.248,45.529L40.232,45.604L40.228,45.625L40.226,45.629L40.203,45.724L40.202,45.729L40.176,45.823L40.174,45.828L40.146,45.921L40.144,45.925L40.114,46.018L40.112,46.023L40.08,46.114L40.078,46.119L40.043,46.209L40.041,46.214L40.004,46.304L40.002,46.309L39.963,46.397L39.96,46.402L39.919,46.489L39.916,46.494L39.873,46.58L39.87,46.586L39.825,46.671L39.822,46.676L39.775,46.76L39.772,46.765L39.723,46.848L39.719,46.853L39.668,46.934L39.664,46.939L39.611,47.02L39.607,47.025L39.573,47.075L39.552,47.103L39.548,47.109L39.491,47.185L39.486,47.191L39.427,47.266L39.422,47.271L39.361,47.345L39.356,47.35L39.294,47.423L39.288,47.428L39.224,47.499L39.218,47.504L39.153,47.573L39.147,47.578L39.079,47.646L39.073,47.651L39.004,47.717L38.998,47.722L38.971,47.746L38.927,47.786L38.92,47.791L38.847,47.853L38.84,47.858L38.766,47.918L38.759,47.923L38.683,47.981L38.676,47.986L38.598,48.042L38.591,48.047L38.512,48.102L38.505,48.106L38.424,48.159L38.417,48.164L38.335,48.215L38.327,48.219L38.244,48.268L38.236,48.272L38.216,48.283L38.151,48.318L38.143,48.322L38.057,48.366L38.048,48.37L37.961,48.412L37.952,48.415L37.863,48.455L37.854,48.458L37.765,48.496L37.756,48.499L37.665,48.535L37.655,48.538L37.564,48.571L37.554,48.574L37.461,48.605L37.451,48.608L37.37,48.633L37.357,48.636L37.348,48.639L37.252,48.664L37.242,48.666L37.146,48.689L37.136,48.691L37.039,48.712L37.029,48.714L36.931,48.732L36.931,48.732L36.92,48.733L36.821,48.748L36.811,48.749L36.711,48.761L36.701,48.762L36.6,48.772L36.59,48.773L36.495,48.779L36.489,48.78L36.478,48.78L36.376,48.783L36.365,48.783L36.263,48.784L36.252,48.784L36.15,48.782L36.139,48.781L36.037,48.776L36.027,48.776L35.926,48.767L35.915,48.766L35.815,48.755L35.805,48.754L35.705,48.74L35.695,48.739L35.596,48.723L35.586,48.721L35.53,48.711L35.488,48.702L35.478,48.7L35.382,48.678L35.372,48.676L35.276,48.651L35.267,48.649L35.172,48.622L35.162,48.62L35.068,48.59L35.059,48.588L34.966,48.556L34.957,48.553L34.866,48.52L34.857,48.517L34.766,48.481L34.757,48.478L34.668,48.44L34.659,48.436L34.571,48.396L34.563,48.393L34.484,48.355L34.476,48.351L34.468,48.347L34.382,48.302L34.374,48.298L34.29,48.251L34.282,48.247L34.2,48.197L34.192,48.193L34.111,48.142L34.103,48.138L34.023,48.085L34.016,48.081L33.937,48.026L33.931,48.022L33.853,47.965L33.847,47.96L33.771,47.902L33.764,47.897L33.69,47.837L33.684,47.833L33.611,47.771L33.605,47.766L33.534,47.702L33.528,47.697L33.524,47.693L33.458,47.632L33.453,47.627L33.385,47.559L33.38,47.554L33.314,47.485L33.309,47.48L33.245,47.41L33.24,47.405L33.177,47.333L33.172,47.328L33.111,47.254L33.107,47.249L33.048,47.174L33.044,47.169L32.986,47.093L32.982,47.088L32.927,47.01L32.923,47.005L32.869,46.926L32.865,46.921L32.814,46.84L32.81,46.835L32.807,46.83L32.761,46.753L32.757,46.748L32.71,46.665L32.707,46.66L32.662,46.575L32.659,46.57L32.615,46.485L32.613,46.48L32.571,46.393L32.569,46.388L32.53,46.3L32.527,46.296L32.49,46.206L32.488,46.202L32.453,46.112L32.451,46.107L32.418,46.016L32.416,46.012L32.386,45.919L32.384,45.915L32.355,45.822L32.354,45.818L32.328,45.724L32.326,45.72L32.302,45.625L32.301,45.621L32.279,45.525L32.278,45.522L32.259,45.425L32.258,45.421L32.241,45.324L32.24,45.321L32.226,45.223L32.225,45.219L32.214,45.129L32.212,45.117L32.203,45.018L32.203,45.015L32.196,44.914L32.196,44.911L32.191,44.811L32.191,44.808L32.19,44.707L32.189,44.704L32.19,44.602L32.19,44.6L32.194,44.498L32.194,44.496L32.198,44.422L32.2,44.393L32.28,44.309L32.362,44.391L32.365,44.42L32.371,44.493L32.371,44.491L32.382,44.593L32.382,44.59L32.396,44.691L32.396,44.688L32.412,44.788L32.412,44.786L32.431,44.885L32.43,44.882L32.451,44.98L32.451,44.977L32.474,45.074L32.474,45.07L32.476,45.079L32.499,45.167L32.498,45.163L32.526,45.258L32.525,45.255L32.555,45.349L32.554,45.345L32.586,45.438L32.585,45.434L32.619,45.526L32.618,45.523L32.654,45.613L32.653,45.609L32.691,45.699L32.69,45.695L32.73,45.783L32.729,45.779L32.771,45.866L32.77,45.862L32.814,45.948L32.812,45.944L32.859,46.028L32.857,46.024Z" style="fill:#c1c2dd;fill-opacity:0.3;"/>
        </g>
    </g>
    <g>
        <ellipse cx="39.91" cy="56.84" rx="5.382" ry="1.926" style="fill:#d5d6e6;fill-opacity:0.75;"/>
        <g>
            <ellipse cx="37.565" cy="57.001" rx="5.382" ry="1.926" style="fill:#f1765a;"/>
            <rect x="32.183" y="53.883" width="10.764" height="3.178" style="fill:#f1765a;"/>
            <ellipse cx="37.565" cy="53.899" rx="5.382" ry="1.926" style="fill:#fac9be;"/>
        </g>
    </g>
    <g>
        <ellipse cx="49.387" cy="60.353" rx="5.382" ry="1.926" style="fill:#d5d6e6;fill-opacity:0.75;"/>
        <g>
            <ellipse cx="47.042" cy="60.514" rx="5.382" ry="1.926" style="fill:#f1765a;"/>
            <rect x="41.66" y="57.396" width="10.764" height="3.178" style="fill:#f1765a;"/>
            <ellipse cx="47.042" cy="57.412" rx="5.382" ry="1.926" style="fill:#fac9be;"/>
        </g>
    </g>
</svg>
