<?xml version="1.0" encoding="UTF-8" standalone="no"?>
<!DOCTYPE svg PUBLIC "-//W3C//DTD SVG 1.1//EN" "http://www.w3.org/Graphics/SVG/1.1/DTD/svg11.dtd">
<svg width="100%" height="100%" viewBox="0 0 65 64" version="1.1" xmlns="http://www.w3.org/2000/svg" xmlns:xlink="http://www.w3.org/1999/xlink" xml:space="preserve" xmlns:serif="http://www.serif.com/" style="fill-rule:evenodd;clip-rule:evenodd;stroke-linejoin:round;stroke-miterlimit:2;">
    <rect id="medication" x="0.738" y="0" width="64" height="64" style="fill:none;"/>
    <path d="M47.861,4.988C47.861,2.779 46.07,0.988 43.861,0.988L11.861,0.988C9.652,0.988 7.861,2.779 7.861,4.988L7.861,52.988C7.861,55.197 9.652,56.988 11.861,56.988L43.861,56.988C46.07,56.988 47.861,55.197 47.861,52.988L47.861,4.988Z" style="fill:#e6e6f5;"/>
    <g>
        <g>
            <circle cx="18.725" cy="13.461" r="4.645" style="fill:#2b307f;fill-opacity:0.35;"/>
            <circle cx="18.725" cy="11.789" r="4.645" style="fill:#f2f2fa;"/>
            <path d="M18.59,9.053L18.585,9.054L18.506,9.058L18.436,9.063L18.367,9.07L18.297,9.08L18.31,9.077L18.228,9.089L18.242,9.086L18.16,9.099L18.173,9.097L18.092,9.112L18.105,9.109L18.025,9.126L18.038,9.123L18.028,9.125L17.958,9.14L17.971,9.137L17.891,9.156L17.904,9.152L17.825,9.173L17.837,9.169L17.759,9.192L17.772,9.187L17.694,9.212L17.706,9.208L17.63,9.234L17.641,9.229L17.566,9.258L17.577,9.253L17.502,9.283L17.513,9.278L17.457,9.302L17.439,9.309L17.45,9.304L17.376,9.336L17.387,9.33L17.314,9.364L17.324,9.358L17.252,9.394L17.262,9.387L17.191,9.425L17.201,9.418L17.13,9.457L17.14,9.451L17.071,9.491L17.08,9.485L17.012,9.527L17.021,9.521L16.954,9.564L16.962,9.558L16.921,9.586L16.896,9.602L16.904,9.596L16.838,9.641L16.846,9.634L16.782,9.682L16.789,9.675L16.726,9.723L16.733,9.716L16.671,9.767L16.678,9.76L16.617,9.811L16.624,9.804L16.564,9.857L16.57,9.85L16.512,9.905L16.518,9.898L16.461,9.954L16.467,9.947L16.446,9.968L16.41,10.003L16.415,9.996L16.36,10.054L16.365,10.047L16.31,10.106L16.315,10.099L16.262,10.159L16.267,10.152L16.215,10.214L16.22,10.207L16.17,10.27L16.174,10.263L16.125,10.327L16.129,10.321L16.082,10.386L16.085,10.379L16.04,10.446L16.043,10.44L15.999,10.507L16.002,10.501L15.96,10.57L15.962,10.564L15.922,10.634L15.924,10.628L15.885,10.699L15.887,10.693L15.85,10.765L15.852,10.759L15.816,10.833L15.818,10.827L15.784,10.902L15.786,10.896L15.779,10.913L15.752,10.971L15.754,10.966L15.722,11.042L15.723,11.037L15.694,11.114L15.695,11.109L15.667,11.188L15.667,11.183L15.641,11.262L15.642,11.257L15.618,11.338L15.618,11.333L15.596,11.414L15.596,11.41L15.576,11.492L15.576,11.489L15.558,11.572L15.558,11.568L15.542,11.652L15.542,11.648L15.527,11.733L15.527,11.73L15.518,11.793L15.515,11.815L15.406,11.922L15.3,11.813L15.297,11.791L15.29,11.727L15.29,11.724L15.282,11.639L15.282,11.635L15.276,11.55L15.276,11.546L15.273,11.462L15.273,11.458L15.272,11.373L15.272,11.369L15.273,11.285L15.274,11.281L15.277,11.197L15.277,11.192L15.282,11.109L15.283,11.104L15.29,11.021L15.291,11.016L15.3,10.934L15.302,10.928L15.313,10.846L15.314,10.841L15.324,10.778L15.328,10.76L15.329,10.754L15.346,10.674L15.348,10.668L15.366,10.588L15.368,10.582L15.388,10.503L15.39,10.497L15.413,10.419L15.415,10.412L15.439,10.335L15.442,10.328L15.468,10.251L15.471,10.245L15.498,10.169L15.502,10.162L15.531,10.087L15.535,10.08L15.566,10.006L15.57,9.999L15.602,9.925L15.607,9.918L15.641,9.846L15.646,9.839L15.682,9.767L15.686,9.76L15.724,9.689L15.729,9.682L15.769,9.612L15.774,9.605L15.816,9.536L15.821,9.529L15.848,9.486L15.864,9.462L15.87,9.454L15.916,9.389L15.922,9.382L15.969,9.317L15.976,9.31L16.025,9.246L16.031,9.239L16.081,9.177L16.088,9.17L16.14,9.109L16.147,9.102L16.201,9.042L16.208,9.035L16.263,8.977L16.271,8.97L16.327,8.913L16.335,8.906L16.356,8.885L16.393,8.851L16.401,8.844L16.461,8.791L16.47,8.784L16.531,8.732L16.54,8.726L16.602,8.675L16.611,8.669L16.675,8.62L16.684,8.614L16.749,8.566L16.759,8.56L16.825,8.514L16.835,8.508L16.902,8.463L16.913,8.458L16.981,8.415L16.992,8.409L17.008,8.4L17.062,8.369L17.073,8.364L17.144,8.326L17.155,8.321L17.228,8.285L17.239,8.28L17.313,8.245L17.324,8.24L17.399,8.208L17.411,8.203L17.486,8.172L17.498,8.168L17.575,8.139L17.587,8.135L17.664,8.107L17.677,8.104L17.745,8.082L17.755,8.079L17.768,8.075L17.848,8.053L17.861,8.05L17.941,8.03L17.954,8.028L18.035,8.01L18.049,8.007L18.13,7.991L18.13,7.991L18.144,7.989L18.227,7.977L18.24,7.975L18.324,7.965L18.338,7.963L18.421,7.955L18.435,7.954L18.515,7.948L18.52,7.948L18.534,7.947L18.619,7.945L18.633,7.945L18.732,7.945L18.832,7.947L18.931,7.953L19.015,7.961L19.029,7.962L19.113,7.973L19.126,7.974L19.209,7.987L19.223,7.988L19.305,8.003L19.318,8.005L19.365,8.015L19.4,8.022L19.413,8.025L19.493,8.045L19.506,8.048L19.586,8.07L19.599,8.073L19.677,8.098L19.69,8.101L19.768,8.127L19.78,8.13L19.857,8.158L19.869,8.162L19.945,8.192L19.957,8.196L20.032,8.228L20.043,8.232L20.117,8.265L20.128,8.27L20.201,8.305L20.212,8.309L20.278,8.343L20.284,8.346L20.295,8.351L20.365,8.391L20.376,8.396L20.445,8.438L20.455,8.443L20.523,8.486L20.533,8.492L20.6,8.536L20.61,8.542L20.675,8.588L20.685,8.594L20.749,8.642L20.758,8.647L20.821,8.697L20.83,8.703L20.892,8.753L20.901,8.759L20.961,8.812L20.969,8.818L21.029,8.871L21.037,8.877L21.095,8.932L21.102,8.939L21.106,8.942L21.158,8.996L21.166,9.002L21.22,9.061L21.227,9.067L21.281,9.127L21.287,9.133L21.339,9.194L21.346,9.2L21.396,9.263L21.402,9.269L21.451,9.332L21.457,9.339L21.504,9.404L21.51,9.41L21.556,9.476L21.561,9.482L21.605,9.549L21.61,9.555L21.653,9.623L21.658,9.63L21.699,9.699L21.703,9.705L21.706,9.71L21.742,9.776L21.746,9.782L21.783,9.853L21.787,9.86L21.822,9.932L21.826,9.938L21.86,10.012L21.863,10.018L21.895,10.092L21.898,10.098L21.928,10.173L21.931,10.179L21.96,10.255L21.962,10.261L21.989,10.338L21.991,10.344L22.016,10.421L22.018,10.427L22.041,10.505L22.043,10.51L22.064,10.589L22.066,10.595L22.085,10.674L22.087,10.68L22.104,10.76L22.105,10.765L22.12,10.846L22.122,10.851L22.135,10.932L22.136,10.937L22.147,11.019L22.148,11.024L22.157,11.106L22.158,11.111L22.164,11.186L22.165,11.194L22.166,11.198L22.17,11.282L22.17,11.286L22.172,11.37L22.173,11.374L22.173,11.458L22.173,11.462L22.171,11.547L22.171,11.55L22.167,11.635L22.167,11.639L22.16,11.724L22.16,11.727L22.154,11.789L22.151,11.813L22.045,11.925L21.936,11.815L21.933,11.791L21.925,11.73L21.925,11.733L21.912,11.648L21.912,11.652L21.897,11.568L21.897,11.571L21.88,11.488L21.88,11.492L21.861,11.41L21.861,11.414L21.84,11.332L21.841,11.336L21.818,11.256L21.818,11.26L21.816,11.253L21.794,11.181L21.795,11.185L21.769,11.106L21.77,11.111L21.742,11.033L21.743,11.038L21.713,10.961L21.715,10.967L21.683,10.891L21.685,10.896L21.651,10.821L21.653,10.826L21.618,10.753L21.62,10.758L21.583,10.685L21.585,10.691L21.547,10.619L21.549,10.625L21.509,10.555L21.512,10.561L21.47,10.491L21.473,10.497L21.429,10.429L21.432,10.435L21.387,10.368L21.391,10.374L21.344,10.308L21.348,10.314L21.3,10.25L21.303,10.256L21.254,10.193L21.258,10.199L21.207,10.137L21.211,10.144L21.162,10.087L21.159,10.083L21.163,10.089L21.11,10.029L21.115,10.036L21.061,9.977L21.066,9.983L21.01,9.926L21.015,9.932L20.958,9.876L20.964,9.883L20.906,9.828L20.911,9.835L20.852,9.782L20.858,9.788L20.797,9.736L20.803,9.743L20.741,9.692L20.748,9.699L20.685,9.65L20.692,9.656L20.627,9.609L20.634,9.615L20.573,9.572L20.569,9.57L20.576,9.576L20.51,9.531L20.518,9.537L20.451,9.494L20.459,9.5L20.391,9.458L20.399,9.464L20.33,9.424L20.339,9.429L20.269,9.391L20.278,9.397L20.206,9.36L20.216,9.365L20.143,9.33L20.153,9.336L20.08,9.302L20.09,9.307L20.016,9.276L20.026,9.281L19.951,9.251L19.962,9.256L19.886,9.228L19.897,9.232L19.889,9.23L19.821,9.205L19.832,9.209L19.755,9.183L19.766,9.188L19.689,9.163L19.7,9.168L19.622,9.145L19.634,9.149L19.555,9.129L19.567,9.132L19.487,9.114L19.499,9.117L19.419,9.1L19.431,9.104L19.35,9.089L19.363,9.092L19.281,9.079L19.294,9.082L19.212,9.071L19.225,9.073L19.19,9.07L19.143,9.064L19.156,9.066L19.073,9.057L19.086,9.059L19.003,9.052L19.016,9.054L18.932,9.049L18.946,9.051L18.861,9.048L18.861,9.048L18.875,9.049L18.79,9.047L18.804,9.047L18.719,9.047L18.732,9.047L18.647,9.05L18.661,9.049L18.576,9.054L18.59,9.053Z" style="fill:#fff;"/>
            <path d="M15.325,13.298L15.373,13.382L15.371,13.377L15.422,13.459L15.419,13.455L15.472,13.535L15.469,13.531L15.523,13.61L15.521,13.605L15.577,13.683L15.574,13.679L15.632,13.755L15.628,13.75L15.684,13.82L15.688,13.825L15.685,13.82L15.746,13.894L15.742,13.889L15.805,13.962L15.801,13.957L15.865,14.028L15.861,14.023L15.927,14.092L15.923,14.087L15.99,14.155L15.986,14.15L16.055,14.216L16.05,14.211L16.121,14.276L16.116,14.271L16.188,14.333L16.183,14.329L16.257,14.389L16.252,14.385L16.327,14.444L16.321,14.439L16.393,14.493L16.398,14.496L16.392,14.492L16.469,14.548L16.463,14.543L16.542,14.598L16.536,14.593L16.616,14.645L16.61,14.641L16.691,14.692L16.685,14.687L16.767,14.736L16.76,14.731L16.844,14.778L16.837,14.774L16.922,14.819L16.915,14.814L17.001,14.857L16.994,14.853L17.081,14.894L17.074,14.89L17.162,14.928L17.154,14.925L17.244,14.961L17.236,14.957L17.244,14.961L17.326,14.993L17.318,14.989L17.409,15.022L17.4,15.019L17.492,15.05L17.484,15.047L17.577,15.076L17.568,15.073L17.662,15.1L17.653,15.097L17.748,15.121L17.738,15.119L17.834,15.141L17.825,15.138L17.921,15.158L17.912,15.156L18.009,15.173L17.999,15.171L18.098,15.186L18.088,15.185L18.13,15.19L18.186,15.198L18.176,15.196L18.276,15.208L18.266,15.207L18.366,15.216L18.355,15.215L18.456,15.221L18.446,15.221L18.547,15.225L18.537,15.224L18.63,15.227L18.722,15.227L18.814,15.225L18.905,15.221L18.91,15.221L19.002,15.215L19.093,15.208L19.182,15.198L19.273,15.186L19.263,15.188L19.361,15.173L19.351,15.175L19.449,15.158L19.439,15.16L19.536,15.141L19.526,15.143L19.622,15.121L19.612,15.124L19.625,15.121L19.708,15.101L19.698,15.104L19.793,15.079L19.783,15.082L19.877,15.055L19.868,15.058L19.961,15.029L19.952,15.032L20.044,15L20.035,15.004L20.126,14.97L20.117,14.974L20.207,14.938L20.198,14.942L20.287,14.904L20.279,14.908L20.346,14.877L20.367,14.868L20.358,14.872L20.446,14.832L20.438,14.836L20.524,14.793L20.516,14.797L20.601,14.753L20.594,14.757L20.677,14.71L20.67,14.715L20.753,14.666L20.745,14.671L20.827,14.62L20.82,14.625L20.9,14.572L20.893,14.577L20.972,14.523L20.965,14.528L21.014,14.493L21.043,14.472L21.037,14.477L21.113,14.42L21.107,14.425L21.183,14.366L21.177,14.371L21.251,14.31L21.245,14.315L21.317,14.253L21.312,14.258L21.383,14.194L21.378,14.199L21.447,14.133L21.442,14.138L21.51,14.071L21.505,14.076L21.571,14.007L21.567,14.012L21.59,13.986L21.632,13.942L21.627,13.947L21.691,13.876L21.687,13.881L21.749,13.808L21.745,13.813L21.806,13.738L21.802,13.744L21.86,13.667L21.857,13.673L21.914,13.595L21.911,13.6L21.966,13.521L21.963,13.526L22.016,13.446L22.013,13.451L22.064,13.369L22.061,13.374L22.111,13.291L22.108,13.295L22.155,13.211L22.153,13.216L22.199,13.13L22.197,13.135L22.24,13.047L22.238,13.052L22.279,12.964L22.277,12.968L22.316,12.879L22.315,12.883L22.352,12.792L22.351,12.797L22.358,12.776L22.386,12.705L22.385,12.709L22.418,12.617L22.417,12.621L22.449,12.527L22.448,12.531L22.477,12.436L22.476,12.439L22.503,12.343L22.502,12.347L22.527,12.25L22.526,12.253L22.548,12.155L22.548,12.158L22.567,12.059L22.567,12.062L22.584,11.962L22.584,11.965L22.599,11.864L22.599,11.867L22.611,11.765L22.611,11.768L22.618,11.692L22.621,11.665L22.703,11.585L22.783,11.667L22.785,11.694L22.79,11.77L22.79,11.772L22.795,11.874L22.795,11.877L22.797,11.979L22.796,11.981L22.796,12.083L22.795,12.086L22.792,12.186L22.792,12.189L22.786,12.29L22.786,12.293L22.778,12.393L22.777,12.396L22.766,12.495L22.766,12.499L22.752,12.597L22.752,12.601L22.736,12.698L22.735,12.702L22.717,12.799L22.716,12.803L22.7,12.878L22.696,12.899L22.694,12.904L22.671,12.999L22.669,13.003L22.644,13.097L22.642,13.102L22.614,13.195L22.612,13.2L22.582,13.292L22.58,13.297L22.548,13.388L22.546,13.393L22.511,13.484L22.509,13.488L22.472,13.578L22.469,13.583L22.431,13.671L22.428,13.676L22.387,13.764L22.384,13.769L22.341,13.855L22.338,13.86L22.293,13.945L22.29,13.95L22.243,14.034L22.239,14.039L22.191,14.122L22.187,14.127L22.136,14.208L22.132,14.214L22.079,14.294L22.075,14.299L22.041,14.349L22.02,14.378L22.016,14.383L21.959,14.46L21.954,14.465L21.895,14.54L21.89,14.545L21.829,14.619L21.824,14.625L21.761,14.697L21.756,14.702L21.692,14.773L21.686,14.778L21.62,14.847L21.615,14.853L21.547,14.92L21.541,14.925L21.472,14.991L21.466,14.996L21.439,15.021L21.394,15.06L21.388,15.065L21.315,15.127L21.308,15.132L21.234,15.192L21.227,15.197L21.151,15.255L21.144,15.26L21.066,15.317L21.059,15.321L20.98,15.376L20.973,15.381L20.892,15.434L20.885,15.438L20.803,15.489L20.795,15.493L20.712,15.542L20.704,15.546L20.684,15.557L20.619,15.593L20.611,15.597L20.524,15.64L20.516,15.644L20.429,15.686L20.42,15.69L20.331,15.729L20.322,15.733L20.233,15.77L20.223,15.774L20.133,15.809L20.123,15.812L20.031,15.845L20.022,15.848L19.929,15.879L19.919,15.882L19.838,15.907L19.825,15.911L19.816,15.913L19.72,15.938L19.71,15.941L19.614,15.964L19.604,15.966L19.507,15.986L19.497,15.988L19.399,16.006L19.399,16.006L19.388,16.008L19.289,16.022L19.279,16.023L19.179,16.036L19.169,16.037L19.068,16.046L19.058,16.047L18.962,16.054L18.956,16.054L18.946,16.055L18.844,16.057L18.833,16.058L18.731,16.058L18.72,16.058L18.618,16.056L18.607,16.056L18.505,16.051L18.495,16.05L18.394,16.041L18.383,16.041L18.283,16.029L18.273,16.028L18.173,16.015L18.163,16.013L18.064,15.997L18.054,15.996L17.998,15.985L17.956,15.976L17.946,15.975L17.85,15.952L17.84,15.95L17.744,15.926L17.734,15.923L17.64,15.896L17.63,15.894L17.536,15.865L17.527,15.862L17.434,15.831L17.425,15.828L17.334,15.794L17.325,15.791L17.234,15.755L17.225,15.752L17.136,15.714L17.127,15.711L17.039,15.671L17.031,15.667L16.952,15.629L16.944,15.625L16.935,15.621L16.85,15.576L16.842,15.572L16.758,15.525L16.75,15.521L16.667,15.472L16.66,15.468L16.578,15.417L16.571,15.412L16.491,15.359L16.484,15.355L16.405,15.3L16.398,15.296L16.321,15.239L16.315,15.235L16.239,15.176L16.232,15.172L16.158,15.111L16.152,15.107L16.079,15.045L16.073,15.04L16.001,14.977L15.996,14.972L15.991,14.968L15.926,14.906L15.921,14.901L15.853,14.834L15.848,14.829L15.782,14.76L15.777,14.755L15.712,14.684L15.708,14.679L15.645,14.607L15.64,14.602L15.579,14.528L15.575,14.524L15.516,14.448L15.511,14.444L15.454,14.367L15.45,14.362L15.394,14.284L15.391,14.279L15.337,14.2L15.333,14.195L15.281,14.115L15.278,14.11L15.274,14.104L15.229,14.027L15.225,14.023L15.178,13.939L15.175,13.934L15.13,13.85L15.127,13.845L15.083,13.759L15.081,13.754L15.039,13.667L15.037,13.663L14.998,13.574L14.995,13.57L14.958,13.481L14.956,13.476L14.921,13.386L14.919,13.382L14.886,13.29L14.884,13.286L14.853,13.194L14.852,13.19L14.823,13.096L14.822,13.092L14.795,12.998L14.794,12.994L14.77,12.899L14.769,12.895L14.747,12.8L14.746,12.796L14.727,12.699L14.726,12.696L14.709,12.598L14.708,12.595L14.693,12.497L14.693,12.493L14.682,12.404L14.68,12.391L14.671,12.292L14.67,12.289L14.664,12.189L14.663,12.186L14.659,12.085L14.659,12.082L14.657,11.981L14.657,11.978L14.658,11.877L14.658,11.874L14.662,11.772L14.662,11.77L14.666,11.696L14.668,11.667L14.748,11.583L14.83,11.665L14.833,11.694L14.839,11.768L14.839,11.765L14.85,11.867L14.85,11.865L14.864,11.965L14.864,11.963L14.88,12.063L14.88,12.06L14.899,12.159L14.898,12.156L14.919,12.254L14.919,12.251L14.942,12.348L14.942,12.345L14.944,12.353L14.967,12.441L14.966,12.437L14.994,12.533L14.993,12.529L15.023,12.623L15.022,12.619L15.054,12.713L15.053,12.709L15.087,12.801L15.086,12.797L15.122,12.888L15.121,12.884L15.159,12.973L15.158,12.969L15.198,13.058L15.197,13.053L15.239,13.141L15.237,13.136L15.282,13.222L15.28,13.218L15.327,13.303L15.325,13.298Z" style="fill:#c1c2dd;fill-opacity:0.3;"/>
        </g>
        <g>
            <circle cx="18.725" cy="29.824" r="4.645" style="fill:#2b307f;fill-opacity:0.35;"/>
            <circle cx="18.725" cy="28.152" r="4.645" style="fill:#f2f2fa;"/>
            <path d="M18.59,25.416L18.585,25.416L18.506,25.421L18.436,25.426L18.367,25.433L18.297,25.442L18.31,25.44L18.228,25.452L18.242,25.449L18.16,25.462L18.173,25.46L18.092,25.475L18.105,25.472L18.025,25.489L18.038,25.486L18.028,25.488L17.958,25.503L17.971,25.499L17.891,25.519L17.904,25.515L17.825,25.536L17.837,25.532L17.759,25.555L17.772,25.55L17.694,25.575L17.706,25.57L17.63,25.597L17.641,25.592L17.566,25.621L17.577,25.616L17.502,25.646L17.513,25.641L17.457,25.665L17.439,25.672L17.45,25.667L17.376,25.699L17.387,25.693L17.314,25.727L17.324,25.721L17.252,25.756L17.262,25.75L17.191,25.788L17.201,25.781L17.13,25.82L17.14,25.814L17.071,25.854L17.08,25.848L17.012,25.89L17.021,25.883L16.954,25.927L16.962,25.92L16.921,25.949L16.896,25.965L16.904,25.958L16.838,26.004L16.846,25.997L16.782,26.044L16.789,26.037L16.726,26.086L16.733,26.079L16.671,26.129L16.678,26.122L16.617,26.174L16.624,26.167L16.564,26.22L16.57,26.213L16.512,26.268L16.518,26.261L16.461,26.316L16.467,26.309L16.446,26.33L16.41,26.366L16.415,26.359L16.36,26.417L16.365,26.41L16.31,26.469L16.315,26.462L16.262,26.522L16.267,26.515L16.215,26.577L16.22,26.57L16.17,26.633L16.174,26.626L16.125,26.69L16.129,26.683L16.082,26.749L16.085,26.742L16.04,26.809L16.043,26.802L15.999,26.87L16.002,26.864L15.96,26.933L15.962,26.927L15.922,26.997L15.924,26.991L15.885,27.062L15.887,27.056L15.85,27.128L15.852,27.122L15.816,27.196L15.818,27.19L15.784,27.265L15.786,27.259L15.779,27.276L15.752,27.334L15.754,27.329L15.722,27.405L15.723,27.4L15.694,27.477L15.695,27.472L15.667,27.55L15.667,27.546L15.641,27.625L15.642,27.62L15.618,27.7L15.618,27.696L15.596,27.777L15.596,27.773L15.576,27.855L15.576,27.851L15.558,27.934L15.558,27.931L15.542,28.015L15.542,28.011L15.527,28.096L15.527,28.093L15.518,28.156L15.515,28.178L15.406,28.285L15.3,28.176L15.297,28.153L15.29,28.09L15.29,28.087L15.282,28.001L15.282,27.998L15.276,27.913L15.276,27.909L15.273,27.824L15.273,27.821L15.272,27.736L15.272,27.732L15.273,27.648L15.274,27.643L15.277,27.56L15.277,27.555L15.282,27.472L15.283,27.467L15.29,27.384L15.291,27.379L15.3,27.296L15.302,27.291L15.313,27.209L15.314,27.204L15.324,27.141L15.328,27.123L15.329,27.117L15.346,27.036L15.348,27.031L15.366,26.951L15.368,26.945L15.388,26.866L15.39,26.86L15.413,26.781L15.415,26.775L15.439,26.697L15.442,26.691L15.468,26.614L15.471,26.608L15.498,26.532L15.502,26.525L15.531,26.45L15.535,26.443L15.566,26.368L15.57,26.362L15.602,26.288L15.607,26.281L15.641,26.208L15.646,26.201L15.682,26.13L15.686,26.123L15.724,26.052L15.729,26.045L15.769,25.975L15.774,25.968L15.816,25.899L15.821,25.892L15.848,25.849L15.864,25.824L15.87,25.817L15.916,25.752L15.922,25.744L15.969,25.68L15.976,25.673L16.025,25.609L16.031,25.602L16.081,25.54L16.088,25.533L16.14,25.472L16.147,25.465L16.201,25.405L16.208,25.398L16.263,25.34L16.271,25.333L16.327,25.276L16.335,25.269L16.356,25.248L16.393,25.214L16.401,25.207L16.461,25.154L16.47,25.147L16.531,25.095L16.54,25.088L16.602,25.038L16.611,25.032L16.675,24.983L16.684,24.976L16.749,24.929L16.759,24.923L16.825,24.877L16.835,24.871L16.902,24.826L16.913,24.821L16.981,24.778L16.992,24.772L17.008,24.762L17.062,24.732L17.073,24.727L17.144,24.689L17.155,24.684L17.228,24.647L17.239,24.642L17.313,24.608L17.324,24.603L17.399,24.571L17.411,24.566L17.486,24.535L17.498,24.531L17.575,24.502L17.587,24.498L17.664,24.47L17.677,24.467L17.745,24.444L17.755,24.441L17.768,24.438L17.848,24.416L17.861,24.413L17.941,24.393L17.954,24.39L18.035,24.372L18.049,24.37L18.13,24.354L18.13,24.354L18.144,24.352L18.227,24.34L18.24,24.338L18.324,24.327L18.338,24.326L18.421,24.318L18.435,24.317L18.515,24.311L18.52,24.31L18.534,24.31L18.619,24.308L18.633,24.307L18.732,24.308L18.832,24.31L18.931,24.315L19.015,24.324L19.029,24.325L19.113,24.335L19.126,24.337L19.209,24.349L19.223,24.351L19.305,24.366L19.318,24.368L19.365,24.377L19.4,24.385L19.413,24.388L19.493,24.408L19.506,24.411L19.586,24.433L19.599,24.436L19.677,24.46L19.69,24.464L19.768,24.49L19.78,24.493L19.857,24.521L19.869,24.525L19.945,24.555L19.957,24.559L20.032,24.59L20.043,24.595L20.117,24.628L20.128,24.632L20.201,24.668L20.212,24.672L20.278,24.706L20.284,24.709L20.295,24.714L20.365,24.754L20.376,24.759L20.445,24.801L20.455,24.806L20.523,24.849L20.533,24.854L20.6,24.899L20.61,24.905L20.675,24.951L20.685,24.957L20.749,25.004L20.758,25.01L20.821,25.06L20.83,25.065L20.892,25.116L20.901,25.122L20.961,25.174L20.969,25.181L21.029,25.234L21.037,25.24L21.095,25.295L21.102,25.302L21.106,25.305L21.158,25.359L21.166,25.365L21.22,25.423L21.227,25.43L21.281,25.489L21.287,25.496L21.339,25.557L21.346,25.563L21.396,25.625L21.402,25.632L21.451,25.695L21.457,25.702L21.504,25.766L21.51,25.773L21.556,25.839L21.561,25.845L21.605,25.912L21.61,25.918L21.653,25.986L21.658,25.993L21.699,26.061L21.703,26.068L21.706,26.073L21.742,26.138L21.746,26.145L21.783,26.216L21.787,26.223L21.822,26.295L21.826,26.301L21.86,26.375L21.863,26.381L21.895,26.455L21.898,26.461L21.928,26.536L21.931,26.542L21.96,26.618L21.962,26.624L21.989,26.701L21.991,26.706L22.016,26.784L22.018,26.79L22.041,26.868L22.043,26.873L22.064,26.952L22.066,26.958L22.085,27.037L22.087,27.043L22.104,27.123L22.105,27.128L22.12,27.209L22.122,27.214L22.135,27.295L22.136,27.3L22.147,27.382L22.148,27.387L22.157,27.469L22.158,27.474L22.164,27.549L22.165,27.557L22.166,27.561L22.17,27.645L22.17,27.649L22.172,27.733L22.173,27.737L22.173,27.821L22.173,27.825L22.171,27.91L22.171,27.913L22.167,27.998L22.167,28.001L22.16,28.087L22.16,28.09L22.154,28.151L22.151,28.176L22.045,28.287L21.936,28.178L21.933,28.154L21.925,28.093L21.925,28.096L21.912,28.011L21.912,28.014L21.897,27.931L21.897,27.934L21.88,27.851L21.88,27.855L21.861,27.772L21.861,27.776L21.84,27.695L21.841,27.699L21.818,27.619L21.818,27.623L21.816,27.616L21.794,27.544L21.795,27.548L21.769,27.469L21.77,27.474L21.742,27.396L21.743,27.401L21.713,27.324L21.715,27.329L21.683,27.254L21.685,27.259L21.651,27.184L21.653,27.189L21.618,27.116L21.62,27.121L21.583,27.048L21.585,27.054L21.547,26.982L21.549,26.988L21.509,26.918L21.512,26.923L21.47,26.854L21.473,26.86L21.429,26.792L21.432,26.798L21.387,26.731L21.391,26.737L21.344,26.671L21.348,26.677L21.3,26.613L21.303,26.619L21.254,26.556L21.258,26.562L21.207,26.5L21.211,26.506L21.162,26.45L21.159,26.446L21.163,26.452L21.11,26.392L21.115,26.398L21.061,26.34L21.066,26.346L21.01,26.289L21.015,26.295L20.958,26.239L20.964,26.246L20.906,26.191L20.911,26.198L20.852,26.144L20.858,26.151L20.797,26.099L20.803,26.106L20.741,26.055L20.748,26.062L20.685,26.013L20.692,26.019L20.627,25.972L20.634,25.978L20.573,25.935L20.569,25.932L20.576,25.939L20.51,25.894L20.518,25.9L20.451,25.856L20.459,25.863L20.391,25.821L20.399,25.827L20.33,25.786L20.339,25.792L20.269,25.754L20.278,25.759L20.206,25.722L20.216,25.728L20.143,25.693L20.153,25.698L20.08,25.665L20.09,25.67L20.016,25.638L20.026,25.644L19.951,25.614L19.962,25.619L19.886,25.59L19.897,25.595L19.889,25.593L19.821,25.567L19.832,25.572L19.755,25.546L19.766,25.55L19.689,25.526L19.7,25.53L19.622,25.508L19.634,25.512L19.555,25.491L19.567,25.495L19.487,25.476L19.499,25.48L19.419,25.463L19.431,25.467L19.35,25.452L19.363,25.455L19.281,25.442L19.294,25.445L19.212,25.434L19.225,25.436L19.19,25.433L19.143,25.426L19.156,25.429L19.073,25.42L19.086,25.422L19.003,25.415L19.016,25.417L18.932,25.412L18.946,25.413L18.861,25.411L18.861,25.411L18.875,25.412L18.79,25.41L18.804,25.41L18.719,25.41L18.732,25.41L18.647,25.413L18.661,25.412L18.576,25.417L18.59,25.416Z" style="fill:#fff;"/>
            <path d="M15.325,29.661L15.373,29.745L15.371,29.74L15.422,29.822L15.419,29.818L15.472,29.898L15.469,29.894L15.523,29.973L15.521,29.968L15.577,30.046L15.574,30.041L15.632,30.118L15.628,30.113L15.684,30.183L15.688,30.188L15.685,30.183L15.746,30.257L15.742,30.252L15.805,30.325L15.801,30.32L15.865,30.391L15.861,30.386L15.927,30.455L15.923,30.45L15.99,30.518L15.986,30.513L16.055,30.579L16.05,30.574L16.121,30.638L16.116,30.634L16.188,30.696L16.183,30.691L16.257,30.752L16.252,30.747L16.327,30.807L16.321,30.802L16.393,30.856L16.398,30.859L16.392,30.855L16.469,30.911L16.463,30.906L16.542,30.96L16.536,30.956L16.616,31.008L16.61,31.004L16.691,31.054L16.685,31.05L16.767,31.099L16.76,31.094L16.844,31.141L16.837,31.137L16.922,31.181L16.915,31.177L17.001,31.22L16.994,31.216L17.081,31.257L17.074,31.253L17.162,31.291L17.154,31.287L17.244,31.324L17.236,31.32L17.244,31.323L17.326,31.356L17.318,31.352L17.409,31.385L17.4,31.382L17.492,31.413L17.484,31.41L17.577,31.439L17.568,31.436L17.662,31.463L17.653,31.46L17.748,31.484L17.738,31.481L17.834,31.504L17.825,31.501L17.921,31.521L17.912,31.519L18.009,31.536L17.999,31.534L18.098,31.549L18.088,31.547L18.13,31.553L18.186,31.561L18.176,31.559L18.276,31.571L18.266,31.57L18.366,31.579L18.355,31.578L18.456,31.584L18.446,31.583L18.547,31.587L18.537,31.587L18.63,31.59L18.722,31.59L18.814,31.588L18.905,31.584L18.91,31.583L19.002,31.578L19.093,31.571L19.182,31.561L19.273,31.549L19.263,31.55L19.361,31.536L19.351,31.538L19.449,31.521L19.439,31.523L19.536,31.504L19.526,31.506L19.622,31.484L19.612,31.487L19.625,31.484L19.708,31.464L19.698,31.467L19.793,31.442L19.783,31.445L19.877,31.418L19.868,31.421L19.961,31.392L19.952,31.395L20.044,31.363L20.035,31.367L20.126,31.333L20.117,31.337L20.207,31.301L20.198,31.305L20.287,31.267L20.279,31.271L20.346,31.24L20.367,31.231L20.358,31.235L20.446,31.194L20.438,31.199L20.524,31.156L20.516,31.16L20.601,31.115L20.594,31.12L20.677,31.073L20.67,31.078L20.753,31.029L20.745,31.034L20.827,30.983L20.82,30.988L20.9,30.935L20.893,30.94L20.972,30.886L20.965,30.891L21.014,30.855L21.043,30.835L21.037,30.84L21.113,30.782L21.107,30.788L21.183,30.728L21.177,30.734L21.251,30.673L21.245,30.678L21.317,30.616L21.312,30.621L21.383,30.557L21.378,30.562L21.447,30.496L21.442,30.501L21.51,30.434L21.505,30.439L21.571,30.37L21.567,30.375L21.59,30.349L21.632,30.305L21.627,30.31L21.691,30.238L21.687,30.244L21.749,30.171L21.745,30.176L21.806,30.101L21.802,30.106L21.86,30.03L21.857,30.035L21.914,29.958L21.911,29.963L21.966,29.884L21.963,29.889L22.016,29.808L22.013,29.814L22.064,29.732L22.061,29.737L22.111,29.653L22.108,29.658L22.155,29.574L22.153,29.579L22.199,29.493L22.197,29.497L22.24,29.41L22.238,29.415L22.279,29.327L22.277,29.331L22.316,29.242L22.315,29.246L22.352,29.155L22.351,29.16L22.358,29.139L22.386,29.068L22.385,29.072L22.418,28.979L22.417,28.983L22.449,28.89L22.448,28.893L22.477,28.799L22.476,28.802L22.503,28.706L22.502,28.71L22.527,28.613L22.526,28.616L22.548,28.518L22.548,28.521L22.567,28.422L22.567,28.425L22.584,28.325L22.584,28.328L22.599,28.227L22.599,28.23L22.611,28.128L22.611,28.13L22.618,28.055L22.621,28.028L22.703,27.948L22.783,28.03L22.785,28.057L22.79,28.133L22.79,28.135L22.795,28.237L22.795,28.24L22.797,28.341L22.796,28.344L22.796,28.445L22.795,28.448L22.792,28.549L22.792,28.552L22.786,28.652L22.786,28.656L22.778,28.755L22.777,28.759L22.766,28.858L22.766,28.861L22.752,28.96L22.752,28.964L22.736,29.061L22.735,29.065L22.717,29.162L22.716,29.166L22.7,29.241L22.696,29.262L22.694,29.267L22.671,29.362L22.669,29.366L22.644,29.46L22.642,29.465L22.614,29.558L22.612,29.563L22.582,29.655L22.58,29.66L22.548,29.751L22.546,29.756L22.511,29.846L22.509,29.851L22.472,29.941L22.469,29.946L22.431,30.034L22.428,30.039L22.387,30.126L22.384,30.131L22.341,30.218L22.338,30.223L22.293,30.308L22.29,30.313L22.243,30.397L22.239,30.402L22.191,30.485L22.187,30.49L22.136,30.571L22.132,30.577L22.079,30.657L22.075,30.662L22.041,30.712L22.02,30.74L22.016,30.746L21.959,30.822L21.954,30.828L21.895,30.903L21.89,30.908L21.829,30.982L21.824,30.987L21.761,31.06L21.756,31.065L21.692,31.136L21.686,31.141L21.62,31.21L21.615,31.215L21.547,31.283L21.541,31.288L21.472,31.354L21.466,31.359L21.439,31.383L21.394,31.423L21.388,31.428L21.315,31.49L21.308,31.495L21.234,31.555L21.227,31.56L21.151,31.618L21.144,31.623L21.066,31.68L21.059,31.684L20.98,31.739L20.973,31.744L20.892,31.796L20.885,31.801L20.803,31.852L20.795,31.856L20.712,31.905L20.704,31.909L20.684,31.92L20.619,31.955L20.611,31.959L20.524,32.003L20.516,32.007L20.429,32.049L20.42,32.052L20.331,32.092L20.322,32.096L20.233,32.133L20.223,32.136L20.133,32.172L20.123,32.175L20.031,32.208L20.022,32.211L19.929,32.242L19.919,32.245L19.838,32.27L19.825,32.274L19.816,32.276L19.72,32.301L19.71,32.304L19.614,32.326L19.604,32.328L19.507,32.349L19.497,32.351L19.399,32.369L19.399,32.369L19.388,32.37L19.289,32.385L19.279,32.386L19.179,32.398L19.169,32.399L19.068,32.409L19.058,32.41L18.962,32.416L18.956,32.417L18.946,32.417L18.844,32.42L18.833,32.421L18.731,32.421L18.72,32.421L18.618,32.419L18.607,32.418L18.505,32.414L18.495,32.413L18.394,32.404L18.383,32.404L18.283,32.392L18.273,32.391L18.173,32.377L18.163,32.376L18.064,32.36L18.054,32.358L17.998,32.348L17.956,32.339L17.946,32.337L17.85,32.315L17.84,32.313L17.744,32.288L17.734,32.286L17.64,32.259L17.63,32.257L17.536,32.228L17.527,32.225L17.434,32.193L17.425,32.191L17.334,32.157L17.325,32.154L17.234,32.118L17.225,32.115L17.136,32.077L17.127,32.074L17.039,32.034L17.031,32.03L16.952,31.992L16.944,31.988L16.935,31.984L16.85,31.939L16.842,31.935L16.758,31.888L16.75,31.884L16.667,31.835L16.66,31.831L16.578,31.779L16.571,31.775L16.491,31.722L16.484,31.718L16.405,31.663L16.398,31.659L16.321,31.602L16.315,31.598L16.239,31.539L16.232,31.535L16.158,31.474L16.152,31.47L16.079,31.408L16.073,31.403L16.001,31.339L15.996,31.335L15.991,31.331L15.926,31.269L15.921,31.264L15.853,31.196L15.848,31.192L15.782,31.122L15.777,31.118L15.712,31.047L15.708,31.042L15.645,30.97L15.64,30.965L15.579,30.891L15.575,30.886L15.516,30.811L15.511,30.806L15.454,30.73L15.45,30.725L15.394,30.647L15.391,30.642L15.337,30.563L15.333,30.558L15.281,30.477L15.278,30.473L15.274,30.467L15.229,30.39L15.225,30.385L15.178,30.302L15.175,30.297L15.13,30.212L15.127,30.208L15.083,30.122L15.081,30.117L15.039,30.03L15.037,30.025L14.998,29.937L14.995,29.933L14.958,29.844L14.956,29.839L14.921,29.749L14.919,29.744L14.886,29.653L14.884,29.649L14.853,29.557L14.852,29.552L14.823,29.459L14.822,29.455L14.795,29.361L14.794,29.357L14.77,29.262L14.769,29.258L14.747,29.163L14.746,29.159L14.727,29.062L14.726,29.059L14.709,28.961L14.708,28.958L14.693,28.86L14.693,28.856L14.682,28.766L14.68,28.754L14.671,28.655L14.67,28.652L14.664,28.552L14.663,28.549L14.659,28.448L14.659,28.445L14.657,28.344L14.657,28.341L14.658,28.24L14.658,28.237L14.662,28.135L14.662,28.133L14.666,28.059L14.668,28.03L14.748,27.946L14.83,28.028L14.833,28.057L14.839,28.13L14.839,28.128L14.85,28.23L14.85,28.227L14.864,28.328L14.864,28.326L14.88,28.425L14.88,28.423L14.899,28.522L14.898,28.519L14.919,28.617L14.919,28.614L14.942,28.711L14.942,28.707L14.944,28.716L14.967,28.804L14.966,28.8L14.994,28.895L14.993,28.892L15.023,28.986L15.022,28.982L15.054,29.075L15.053,29.072L15.087,29.164L15.086,29.16L15.122,29.251L15.121,29.246L15.159,29.336L15.158,29.332L15.198,29.421L15.197,29.416L15.239,29.504L15.237,29.499L15.282,29.585L15.28,29.581L15.327,29.666L15.325,29.661Z" style="fill:#c1c2dd;fill-opacity:0.3;"/>
        </g>
        <g>
            <circle cx="18.725" cy="46.187" r="4.645" style="fill:#2b307f;fill-opacity:0.35;"/>
            <circle cx="18.725" cy="44.515" r="4.645" style="fill:#f2f2fa;"/>
            <path d="M18.59,41.779L18.585,41.779L18.506,41.783L18.436,41.789L18.367,41.796L18.297,41.805L18.31,41.803L18.228,41.814L18.242,41.812L18.16,41.825L18.173,41.822L18.092,41.838L18.105,41.835L18.025,41.852L18.038,41.848L18.028,41.851L17.958,41.866L17.971,41.862L17.891,41.882L17.904,41.878L17.825,41.899L17.837,41.895L17.759,41.918L17.772,41.913L17.694,41.938L17.706,41.933L17.63,41.96L17.641,41.955L17.566,41.984L17.577,41.978L17.502,42.009L17.513,42.003L17.457,42.028L17.439,42.035L17.45,42.029L17.376,42.062L17.387,42.056L17.314,42.09L17.324,42.084L17.252,42.119L17.262,42.113L17.191,42.15L17.201,42.144L17.13,42.183L17.14,42.177L17.071,42.217L17.08,42.211L17.012,42.253L17.021,42.246L16.954,42.29L16.962,42.283L16.921,42.312L16.896,42.328L16.904,42.321L16.838,42.367L16.846,42.36L16.782,42.407L16.789,42.4L16.726,42.449L16.733,42.442L16.671,42.492L16.678,42.485L16.617,42.537L16.624,42.53L16.564,42.583L16.57,42.576L16.512,42.631L16.518,42.623L16.461,42.679L16.467,42.672L16.446,42.693L16.41,42.729L16.415,42.722L16.36,42.78L16.365,42.772L16.31,42.832L16.315,42.824L16.262,42.885L16.267,42.878L16.215,42.94L16.22,42.933L16.17,42.996L16.174,42.989L16.125,43.053L16.129,43.046L16.082,43.112L16.085,43.105L16.04,43.172L16.043,43.165L15.999,43.233L16.002,43.227L15.96,43.296L15.962,43.289L15.922,43.36L15.924,43.353L15.885,43.425L15.887,43.419L15.85,43.491L15.852,43.485L15.816,43.559L15.818,43.553L15.784,43.627L15.786,43.622L15.779,43.639L15.752,43.697L15.754,43.692L15.722,43.768L15.723,43.763L15.694,43.84L15.695,43.835L15.667,43.913L15.667,43.908L15.641,43.988L15.642,43.983L15.618,44.063L15.618,44.059L15.596,44.14L15.596,44.136L15.576,44.218L15.576,44.214L15.558,44.297L15.558,44.294L15.542,44.377L15.542,44.374L15.527,44.459L15.527,44.456L15.518,44.519L15.515,44.541L15.406,44.647L15.3,44.538L15.297,44.516L15.29,44.453L15.29,44.45L15.282,44.364L15.282,44.361L15.276,44.276L15.276,44.272L15.273,44.187L15.273,44.183L15.272,44.099L15.272,44.095L15.273,44.011L15.274,44.006L15.277,43.922L15.277,43.918L15.282,43.835L15.283,43.83L15.29,43.747L15.291,43.742L15.3,43.659L15.302,43.654L15.313,43.572L15.314,43.567L15.324,43.503L15.328,43.485L15.329,43.48L15.346,43.399L15.348,43.394L15.366,43.314L15.368,43.308L15.388,43.229L15.39,43.223L15.413,43.144L15.415,43.138L15.439,43.06L15.442,43.054L15.468,42.977L15.471,42.971L15.498,42.894L15.502,42.888L15.531,42.812L15.535,42.806L15.566,42.731L15.57,42.724L15.602,42.651L15.607,42.644L15.641,42.571L15.646,42.564L15.682,42.493L15.686,42.486L15.724,42.415L15.729,42.408L15.769,42.338L15.774,42.331L15.816,42.262L15.821,42.255L15.848,42.212L15.864,42.187L15.87,42.18L15.916,42.114L15.922,42.107L15.969,42.043L15.976,42.036L16.025,41.972L16.031,41.965L16.081,41.903L16.088,41.896L16.14,41.835L16.147,41.828L16.201,41.768L16.208,41.761L16.263,41.703L16.271,41.696L16.327,41.638L16.335,41.632L16.356,41.611L16.393,41.576L16.401,41.57L16.461,41.516L16.47,41.51L16.531,41.458L16.54,41.451L16.602,41.401L16.611,41.394L16.675,41.345L16.684,41.339L16.749,41.292L16.759,41.286L16.825,41.24L16.835,41.234L16.902,41.189L16.913,41.183L16.981,41.14L16.992,41.135L17.008,41.125L17.062,41.095L17.073,41.09L17.144,41.052L17.155,41.046L17.228,41.01L17.239,41.005L17.313,40.971L17.324,40.966L17.399,40.933L17.411,40.929L17.486,40.898L17.498,40.894L17.575,40.864L17.587,40.861L17.664,40.833L17.677,40.829L17.745,40.807L17.755,40.804L17.768,40.801L17.848,40.779L17.861,40.776L17.941,40.756L17.954,40.753L18.035,40.735L18.049,40.733L18.13,40.717L18.13,40.717L18.144,40.715L18.227,40.702L18.24,40.701L18.324,40.69L18.338,40.689L18.421,40.68L18.435,40.679L18.515,40.674L18.52,40.673L18.534,40.673L18.619,40.671L18.633,40.67L18.732,40.67L18.832,40.673L18.931,40.678L19.015,40.687L19.029,40.688L19.113,40.698L19.126,40.7L19.209,40.712L19.223,40.714L19.305,40.729L19.318,40.731L19.365,40.74L19.4,40.748L19.413,40.75L19.493,40.771L19.506,40.774L19.586,40.796L19.599,40.799L19.677,40.823L19.69,40.826L19.768,40.853L19.78,40.856L19.857,40.884L19.869,40.888L19.945,40.918L19.957,40.922L20.032,40.953L20.043,40.958L20.117,40.991L20.128,40.995L20.201,41.03L20.212,41.035L20.278,41.068L20.284,41.072L20.295,41.077L20.365,41.117L20.376,41.122L20.445,41.163L20.455,41.169L20.523,41.212L20.533,41.217L20.6,41.262L20.61,41.268L20.675,41.314L20.685,41.319L20.749,41.367L20.758,41.373L20.821,41.422L20.83,41.428L20.892,41.479L20.901,41.485L20.961,41.537L20.969,41.543L21.029,41.597L21.037,41.603L21.095,41.658L21.102,41.664L21.106,41.668L21.158,41.721L21.166,41.728L21.22,41.786L21.227,41.793L21.281,41.852L21.287,41.859L21.339,41.92L21.346,41.926L21.396,41.988L21.402,41.995L21.451,42.058L21.457,42.065L21.504,42.129L21.51,42.136L21.556,42.201L21.561,42.208L21.605,42.275L21.61,42.281L21.653,42.349L21.658,42.355L21.699,42.424L21.703,42.431L21.706,42.436L21.742,42.501L21.746,42.508L21.783,42.579L21.787,42.585L21.822,42.658L21.826,42.664L21.86,42.737L21.863,42.744L21.895,42.818L21.898,42.824L21.928,42.899L21.931,42.905L21.96,42.981L21.962,42.987L21.989,43.063L21.991,43.069L22.016,43.147L22.018,43.152L22.041,43.231L22.043,43.236L22.064,43.315L22.066,43.321L22.085,43.4L22.087,43.405L22.104,43.486L22.105,43.491L22.12,43.572L22.122,43.577L22.135,43.658L22.136,43.663L22.147,43.745L22.148,43.75L22.157,43.832L22.158,43.837L22.164,43.912L22.165,43.92L22.166,43.924L22.17,44.008L22.17,44.012L22.172,44.096L22.173,44.1L22.173,44.184L22.173,44.188L22.171,44.273L22.171,44.276L22.167,44.361L22.167,44.364L22.16,44.45L22.16,44.453L22.154,44.514L22.151,44.538L22.045,44.65L21.936,44.541L21.933,44.517L21.925,44.456L21.925,44.459L21.912,44.374L21.912,44.377L21.897,44.293L21.897,44.297L21.88,44.214L21.88,44.218L21.861,44.135L21.861,44.139L21.84,44.058L21.841,44.062L21.818,43.982L21.818,43.986L21.816,43.979L21.794,43.906L21.795,43.911L21.769,43.832L21.77,43.837L21.742,43.759L21.743,43.764L21.713,43.687L21.715,43.692L21.683,43.616L21.685,43.622L21.651,43.547L21.653,43.552L21.618,43.478L21.62,43.484L21.583,43.411L21.585,43.417L21.547,43.345L21.549,43.351L21.509,43.28L21.512,43.286L21.47,43.217L21.473,43.223L21.429,43.155L21.432,43.161L21.387,43.094L21.391,43.1L21.344,43.034L21.348,43.04L21.3,42.976L21.303,42.982L21.254,42.918L21.258,42.925L21.207,42.863L21.211,42.869L21.162,42.813L21.159,42.808L21.163,42.815L21.11,42.755L21.115,42.761L21.061,42.702L21.066,42.709L21.01,42.652L21.015,42.658L20.958,42.602L20.964,42.609L20.906,42.554L20.911,42.56L20.852,42.507L20.858,42.514L20.797,42.462L20.803,42.468L20.741,42.418L20.748,42.425L20.685,42.376L20.692,42.382L20.627,42.335L20.634,42.341L20.573,42.298L20.569,42.295L20.576,42.302L20.51,42.257L20.518,42.263L20.451,42.219L20.459,42.225L20.391,42.183L20.399,42.19L20.33,42.149L20.339,42.155L20.269,42.117L20.278,42.122L20.206,42.085L20.216,42.091L20.143,42.056L20.153,42.061L20.08,42.028L20.09,42.033L20.016,42.001L20.026,42.006L19.951,41.976L19.962,41.981L19.886,41.953L19.897,41.958L19.889,41.956L19.821,41.93L19.832,41.935L19.755,41.909L19.766,41.913L19.689,41.889L19.7,41.893L19.622,41.871L19.634,41.875L19.555,41.854L19.567,41.858L19.487,41.839L19.499,41.843L19.419,41.826L19.431,41.829L19.35,41.815L19.363,41.818L19.281,41.805L19.294,41.807L19.212,41.797L19.225,41.799L19.19,41.795L19.143,41.789L19.156,41.791L19.073,41.783L19.086,41.785L19.003,41.778L19.016,41.78L18.932,41.775L18.946,41.776L18.861,41.774L18.861,41.774L18.875,41.775L18.79,41.773L18.804,41.773L18.719,41.773L18.732,41.773L18.647,41.775L18.661,41.775L18.576,41.78L18.59,41.779Z" style="fill:#fff;"/>
            <path d="M15.325,46.024L15.373,46.107L15.371,46.103L15.422,46.185L15.419,46.18L15.472,46.261L15.469,46.256L15.523,46.336L15.521,46.331L15.577,46.409L15.574,46.404L15.632,46.481L15.628,46.476L15.684,46.546L15.688,46.551L15.685,46.546L15.746,46.62L15.742,46.615L15.805,46.688L15.801,46.683L15.865,46.753L15.861,46.749L15.927,46.818L15.923,46.813L15.99,46.881L15.986,46.876L16.055,46.942L16.05,46.937L16.121,47.001L16.116,46.996L16.188,47.059L16.183,47.054L16.257,47.115L16.252,47.11L16.327,47.17L16.321,47.165L16.393,47.219L16.398,47.222L16.392,47.217L16.469,47.274L16.463,47.269L16.542,47.323L16.536,47.319L16.616,47.371L16.61,47.367L16.691,47.417L16.685,47.413L16.767,47.461L16.76,47.457L16.844,47.504L16.837,47.5L16.922,47.544L16.915,47.54L17.001,47.583L16.994,47.579L17.081,47.619L17.074,47.615L17.162,47.654L17.154,47.65L17.244,47.687L17.236,47.683L17.244,47.686L17.326,47.718L17.318,47.715L17.409,47.748L17.4,47.745L17.492,47.776L17.484,47.773L17.577,47.802L17.568,47.799L17.662,47.825L17.653,47.823L17.748,47.847L17.738,47.844L17.834,47.866L17.825,47.864L17.921,47.884L17.912,47.882L18.009,47.899L17.999,47.897L18.098,47.912L18.088,47.91L18.13,47.916L18.186,47.924L18.176,47.922L18.276,47.934L18.266,47.932L18.366,47.942L18.355,47.94L18.456,47.947L18.446,47.946L18.547,47.95L18.537,47.95L18.63,47.953L18.722,47.953L18.814,47.951L18.905,47.947L18.91,47.946L19.002,47.941L19.093,47.934L19.182,47.924L19.273,47.912L19.263,47.913L19.361,47.899L19.351,47.901L19.449,47.884L19.439,47.886L19.536,47.866L19.526,47.869L19.622,47.847L19.612,47.85L19.625,47.847L19.708,47.827L19.698,47.83L19.793,47.805L19.783,47.808L19.877,47.781L19.868,47.784L19.961,47.754L19.952,47.758L20.044,47.726L20.035,47.73L20.126,47.696L20.117,47.7L20.207,47.664L20.198,47.668L20.287,47.63L20.279,47.634L20.346,47.603L20.367,47.594L20.358,47.598L20.446,47.557L20.438,47.562L20.524,47.519L20.516,47.523L20.601,47.478L20.594,47.483L20.677,47.436L20.67,47.441L20.753,47.392L20.745,47.397L20.827,47.346L20.82,47.351L20.9,47.298L20.893,47.303L20.972,47.248L20.965,47.253L21.014,47.218L21.043,47.197L21.037,47.203L21.113,47.145L21.107,47.15L21.183,47.091L21.177,47.097L21.251,47.036L21.245,47.041L21.317,46.978L21.312,46.984L21.383,46.919L21.378,46.925L21.447,46.859L21.442,46.864L21.51,46.796L21.505,46.802L21.571,46.733L21.567,46.738L21.59,46.712L21.632,46.668L21.627,46.673L21.691,46.601L21.687,46.607L21.749,46.533L21.745,46.539L21.806,46.464L21.802,46.469L21.86,46.393L21.857,46.398L21.914,46.321L21.911,46.326L21.966,46.247L21.963,46.252L22.016,46.171L22.013,46.176L22.064,46.094L22.061,46.099L22.111,46.016L22.108,46.021L22.155,45.937L22.153,45.941L22.199,45.856L22.197,45.86L22.24,45.773L22.238,45.778L22.279,45.689L22.277,45.694L22.316,45.604L22.315,45.609L22.352,45.518L22.351,45.522L22.358,45.502L22.386,45.431L22.385,45.435L22.418,45.342L22.417,45.346L22.449,45.252L22.448,45.256L22.477,45.161L22.476,45.165L22.503,45.069L22.502,45.073L22.527,44.976L22.526,44.979L22.548,44.881L22.548,44.884L22.567,44.785L22.567,44.788L22.584,44.688L22.584,44.691L22.599,44.59L22.599,44.593L22.611,44.491L22.611,44.493L22.618,44.417L22.621,44.391L22.703,44.311L22.783,44.393L22.785,44.42L22.79,44.496L22.79,44.498L22.795,44.6L22.795,44.603L22.797,44.704L22.796,44.707L22.796,44.808L22.795,44.811L22.792,44.912L22.792,44.915L22.786,45.015L22.786,45.019L22.778,45.118L22.777,45.122L22.766,45.221L22.766,45.224L22.752,45.323L22.752,45.326L22.736,45.424L22.735,45.428L22.717,45.525L22.716,45.529L22.7,45.604L22.696,45.625L22.694,45.629L22.671,45.724L22.669,45.729L22.644,45.823L22.642,45.828L22.614,45.921L22.612,45.925L22.582,46.018L22.58,46.023L22.548,46.114L22.546,46.119L22.511,46.209L22.509,46.214L22.472,46.304L22.469,46.309L22.431,46.397L22.428,46.402L22.387,46.489L22.384,46.494L22.341,46.58L22.338,46.586L22.293,46.671L22.29,46.676L22.243,46.76L22.239,46.765L22.191,46.848L22.187,46.853L22.136,46.934L22.132,46.939L22.079,47.02L22.075,47.025L22.041,47.075L22.02,47.103L22.016,47.109L21.959,47.185L21.954,47.191L21.895,47.266L21.89,47.271L21.829,47.345L21.824,47.35L21.761,47.423L21.756,47.428L21.692,47.499L21.686,47.504L21.62,47.573L21.615,47.578L21.547,47.646L21.541,47.651L21.472,47.717L21.466,47.722L21.439,47.746L21.394,47.786L21.388,47.791L21.315,47.853L21.308,47.858L21.234,47.918L21.227,47.923L21.151,47.981L21.144,47.986L21.066,48.042L21.059,48.047L20.98,48.102L20.973,48.106L20.892,48.159L20.885,48.164L20.803,48.215L20.795,48.219L20.712,48.268L20.704,48.272L20.684,48.283L20.619,48.318L20.611,48.322L20.524,48.366L20.516,48.37L20.429,48.412L20.42,48.415L20.331,48.455L20.322,48.458L20.233,48.496L20.223,48.499L20.133,48.535L20.123,48.538L20.031,48.571L20.022,48.574L19.929,48.605L19.919,48.608L19.838,48.633L19.825,48.636L19.816,48.639L19.72,48.664L19.71,48.666L19.614,48.689L19.604,48.691L19.507,48.712L19.497,48.714L19.399,48.732L19.399,48.732L19.388,48.733L19.289,48.748L19.279,48.749L19.179,48.761L19.169,48.762L19.068,48.772L19.058,48.773L18.962,48.779L18.956,48.78L18.946,48.78L18.844,48.783L18.833,48.783L18.731,48.784L18.72,48.784L18.618,48.782L18.607,48.781L18.505,48.776L18.495,48.776L18.394,48.767L18.383,48.766L18.283,48.755L18.273,48.754L18.173,48.74L18.163,48.739L18.064,48.723L18.054,48.721L17.998,48.711L17.956,48.702L17.946,48.7L17.85,48.678L17.84,48.676L17.744,48.651L17.734,48.649L17.64,48.622L17.63,48.62L17.536,48.59L17.527,48.588L17.434,48.556L17.425,48.553L17.334,48.52L17.325,48.517L17.234,48.481L17.225,48.478L17.136,48.44L17.127,48.436L17.039,48.396L17.031,48.393L16.952,48.355L16.944,48.351L16.935,48.347L16.85,48.302L16.842,48.298L16.758,48.251L16.75,48.247L16.667,48.197L16.66,48.193L16.578,48.142L16.571,48.138L16.491,48.085L16.484,48.081L16.405,48.026L16.398,48.022L16.321,47.965L16.315,47.96L16.239,47.902L16.232,47.897L16.158,47.837L16.152,47.833L16.079,47.771L16.073,47.766L16.001,47.702L15.996,47.697L15.991,47.693L15.926,47.632L15.921,47.627L15.853,47.559L15.848,47.554L15.782,47.485L15.777,47.48L15.712,47.41L15.708,47.405L15.645,47.333L15.64,47.328L15.579,47.254L15.575,47.249L15.516,47.174L15.511,47.169L15.454,47.093L15.45,47.088L15.394,47.01L15.391,47.005L15.337,46.926L15.333,46.921L15.281,46.84L15.278,46.835L15.274,46.83L15.229,46.753L15.225,46.748L15.178,46.665L15.175,46.66L15.13,46.575L15.127,46.57L15.083,46.485L15.081,46.48L15.039,46.393L15.037,46.388L14.998,46.3L14.995,46.296L14.958,46.206L14.956,46.202L14.921,46.112L14.919,46.107L14.886,46.016L14.884,46.012L14.853,45.919L14.852,45.915L14.823,45.822L14.822,45.818L14.795,45.724L14.794,45.72L14.77,45.625L14.769,45.621L14.747,45.525L14.746,45.522L14.727,45.425L14.726,45.421L14.709,45.324L14.708,45.321L14.693,45.223L14.693,45.219L14.682,45.129L14.68,45.117L14.671,45.018L14.67,45.015L14.664,44.914L14.663,44.911L14.659,44.811L14.659,44.808L14.657,44.707L14.657,44.704L14.658,44.602L14.658,44.6L14.662,44.498L14.662,44.496L14.666,44.422L14.668,44.393L14.748,44.309L14.83,44.391L14.833,44.42L14.839,44.493L14.839,44.491L14.85,44.593L14.85,44.59L14.864,44.691L14.864,44.688L14.88,44.788L14.88,44.786L14.899,44.885L14.898,44.882L14.919,44.98L14.919,44.977L14.942,45.074L14.942,45.07L14.944,45.079L14.967,45.167L14.966,45.163L14.994,45.258L14.993,45.255L15.023,45.349L15.022,45.345L15.054,45.438L15.053,45.434L15.087,45.526L15.086,45.523L15.122,45.613L15.121,45.609L15.159,45.699L15.158,45.695L15.198,45.783L15.197,45.779L15.239,45.866L15.237,45.862L15.282,45.948L15.28,45.944L15.327,46.028L15.325,46.024Z" style="fill:#c1c2dd;fill-opacity:0.3;"/>
        </g>
        <g>
            <circle cx="36.996" cy="13.461" r="4.645" style="fill:#2b307f;fill-opacity:0.35;"/>
            <circle cx="36.996" cy="11.789" r="4.645" style="fill:#f2f2fa;"/>
            <path d="M36.86,9.053L36.855,9.054L36.777,9.058L36.707,9.063L36.637,9.07L36.567,9.08L36.581,9.077L36.499,9.089L36.512,9.086L36.43,9.099L36.444,9.097L36.363,9.112L36.376,9.109L36.295,9.126L36.308,9.123L36.298,9.125L36.228,9.14L36.241,9.137L36.162,9.156L36.174,9.152L36.095,9.173L36.108,9.169L36.03,9.192L36.042,9.187L35.965,9.212L35.977,9.208L35.9,9.234L35.912,9.229L35.836,9.258L35.847,9.253L35.773,9.283L35.784,9.278L35.727,9.302L35.71,9.309L35.721,9.304L35.647,9.336L35.657,9.33L35.584,9.364L35.595,9.358L35.522,9.394L35.532,9.387L35.461,9.425L35.471,9.418L35.401,9.457L35.41,9.451L35.341,9.491L35.35,9.485L35.282,9.527L35.291,9.521L35.224,9.564L35.233,9.558L35.191,9.586L35.166,9.602L35.175,9.596L35.109,9.641L35.117,9.634L35.052,9.682L35.06,9.675L34.996,9.723L35.004,9.716L34.941,9.767L34.948,9.76L34.887,9.811L34.894,9.804L34.834,9.857L34.841,9.85L34.782,9.905L34.788,9.898L34.731,9.954L34.737,9.947L34.716,9.968L34.68,10.003L34.686,9.996L34.63,10.054L34.635,10.047L34.581,10.106L34.586,10.099L34.533,10.159L34.537,10.152L34.486,10.214L34.49,10.207L34.44,10.27L34.444,10.263L34.395,10.327L34.399,10.321L34.352,10.386L34.356,10.379L34.31,10.446L34.313,10.44L34.269,10.507L34.272,10.501L34.23,10.57L34.233,10.564L34.192,10.634L34.195,10.628L34.155,10.699L34.158,10.693L34.12,10.765L34.122,10.759L34.087,10.833L34.088,10.827L34.054,10.902L34.056,10.896L34.049,10.913L34.023,10.971L34.024,10.966L33.993,11.042L33.994,11.037L33.964,11.114L33.965,11.109L33.937,11.188L33.938,11.183L33.912,11.262L33.912,11.257L33.888,11.338L33.889,11.333L33.866,11.414L33.867,11.41L33.846,11.492L33.847,11.489L33.828,11.572L33.828,11.568L33.812,11.652L33.812,11.648L33.798,11.733L33.798,11.73L33.789,11.793L33.785,11.815L33.676,11.922L33.57,11.813L33.568,11.791L33.56,11.727L33.56,11.724L33.552,11.639L33.552,11.635L33.547,11.55L33.547,11.546L33.543,11.462L33.544,11.458L33.542,11.373L33.543,11.369L33.543,11.285L33.544,11.281L33.547,11.197L33.548,11.192L33.553,11.109L33.554,11.104L33.561,11.021L33.562,11.016L33.571,10.934L33.572,10.928L33.583,10.846L33.585,10.841L33.595,10.778L33.598,10.76L33.6,10.754L33.616,10.674L33.618,10.668L33.636,10.588L33.638,10.582L33.659,10.503L33.661,10.497L33.683,10.419L33.686,10.412L33.709,10.335L33.712,10.328L33.738,10.251L33.741,10.245L33.769,10.169L33.772,10.162L33.801,10.087L33.805,10.08L33.836,10.006L33.84,9.999L33.873,9.925L33.877,9.918L33.911,9.846L33.916,9.839L33.952,9.767L33.957,9.76L33.995,9.689L34,9.682L34.039,9.612L34.045,9.605L34.086,9.536L34.092,9.529L34.119,9.486L34.135,9.462L34.141,9.454L34.186,9.389L34.193,9.382L34.24,9.317L34.246,9.31L34.295,9.246L34.302,9.239L34.352,9.177L34.359,9.17L34.411,9.109L34.418,9.102L34.471,9.042L34.479,9.035L34.533,8.977L34.541,8.97L34.597,8.913L34.605,8.906L34.627,8.885L34.663,8.851L34.672,8.844L34.731,8.791L34.74,8.784L34.801,8.732L34.81,8.726L34.872,8.675L34.882,8.669L34.945,8.62L34.955,8.614L35.019,8.566L35.029,8.56L35.095,8.514L35.105,8.508L35.172,8.463L35.183,8.458L35.251,8.415L35.262,8.409L35.278,8.4L35.332,8.369L35.343,8.364L35.414,8.326L35.426,8.321L35.498,8.285L35.51,8.28L35.583,8.245L35.595,8.24L35.669,8.208L35.681,8.203L35.757,8.172L35.769,8.168L35.845,8.139L35.858,8.135L35.935,8.107L35.948,8.104L36.016,8.082L36.026,8.079L36.039,8.075L36.118,8.053L36.131,8.05L36.211,8.03L36.225,8.028L36.306,8.01L36.319,8.007L36.401,7.991L36.401,7.991L36.414,7.989L36.497,7.977L36.511,7.975L36.594,7.965L36.608,7.963L36.692,7.955L36.706,7.954L36.785,7.948L36.79,7.948L36.804,7.947L36.889,7.945L36.903,7.945L37.003,7.945L37.102,7.947L37.201,7.953L37.286,7.961L37.299,7.962L37.383,7.973L37.397,7.974L37.48,7.987L37.493,7.988L37.575,8.003L37.589,8.005L37.635,8.015L37.67,8.022L37.683,8.025L37.764,8.045L37.777,8.048L37.856,8.07L37.869,8.073L37.948,8.098L37.96,8.101L38.038,8.127L38.05,8.13L38.127,8.158L38.139,8.162L38.215,8.192L38.227,8.196L38.302,8.228L38.313,8.232L38.388,8.265L38.399,8.27L38.472,8.305L38.483,8.309L38.548,8.343L38.555,8.346L38.566,8.351L38.636,8.391L38.646,8.396L38.716,8.438L38.726,8.443L38.794,8.486L38.804,8.492L38.87,8.536L38.88,8.542L38.946,8.588L38.955,8.594L39.02,8.642L39.029,8.647L39.092,8.697L39.1,8.703L39.162,8.753L39.171,8.759L39.232,8.812L39.24,8.818L39.299,8.871L39.307,8.877L39.365,8.932L39.373,8.939L39.376,8.942L39.429,8.996L39.436,9.002L39.491,9.061L39.498,9.067L39.551,9.127L39.558,9.133L39.61,9.194L39.616,9.2L39.666,9.263L39.672,9.269L39.721,9.332L39.727,9.339L39.775,9.404L39.78,9.41L39.826,9.476L39.831,9.482L39.876,9.549L39.881,9.555L39.923,9.623L39.928,9.63L39.969,9.699L39.974,9.705L39.976,9.71L40.012,9.776L40.017,9.782L40.054,9.853L40.058,9.86L40.093,9.932L40.097,9.938L40.13,10.012L40.134,10.018L40.165,10.092L40.169,10.098L40.199,10.173L40.202,10.179L40.23,10.255L40.233,10.261L40.259,10.338L40.262,10.344L40.286,10.421L40.289,10.427L40.311,10.505L40.314,10.51L40.334,10.589L40.336,10.595L40.355,10.674L40.357,10.68L40.374,10.76L40.376,10.765L40.391,10.846L40.392,10.851L40.405,10.932L40.406,10.937L40.417,11.019L40.419,11.024L40.428,11.106L40.428,11.111L40.435,11.186L40.435,11.194L40.436,11.198L40.44,11.282L40.441,11.286L40.443,11.37L40.443,11.374L40.443,11.458L40.443,11.462L40.441,11.547L40.441,11.55L40.437,11.635L40.437,11.639L40.43,11.724L40.431,11.727L40.424,11.789L40.422,11.813L40.315,11.925L40.206,11.815L40.203,11.791L40.195,11.73L40.195,11.733L40.182,11.648L40.182,11.652L40.167,11.568L40.167,11.571L40.15,11.488L40.151,11.492L40.131,11.41L40.132,11.414L40.111,11.332L40.111,11.336L40.088,11.256L40.089,11.26L40.087,11.253L40.065,11.181L40.065,11.185L40.039,11.106L40.04,11.111L40.012,11.033L40.014,11.038L39.984,10.961L39.985,10.967L39.954,10.891L39.955,10.896L39.922,10.821L39.924,10.826L39.889,10.753L39.891,10.758L39.854,10.685L39.856,10.691L39.817,10.619L39.82,10.625L39.78,10.555L39.782,10.561L39.74,10.491L39.743,10.497L39.7,10.429L39.703,10.435L39.658,10.368L39.661,10.374L39.615,10.308L39.618,10.314L39.57,10.25L39.574,10.256L39.524,10.193L39.528,10.199L39.477,10.137L39.482,10.144L39.433,10.087L39.429,10.083L39.434,10.089L39.381,10.029L39.386,10.036L39.331,9.977L39.336,9.983L39.28,9.926L39.286,9.932L39.229,9.876L39.234,9.883L39.176,9.828L39.182,9.835L39.122,9.782L39.128,9.788L39.067,9.736L39.074,9.743L39.012,9.692L39.018,9.699L38.955,9.65L38.962,9.656L38.898,9.609L38.905,9.615L38.843,9.572L38.839,9.57L38.847,9.576L38.781,9.531L38.789,9.537L38.721,9.494L38.73,9.5L38.661,9.458L38.67,9.464L38.601,9.424L38.609,9.429L38.539,9.391L38.548,9.397L38.477,9.36L38.486,9.365L38.414,9.33L38.423,9.336L38.35,9.302L38.36,9.307L38.286,9.276L38.296,9.281L38.221,9.251L38.232,9.256L38.156,9.228L38.167,9.232L38.16,9.23L38.091,9.205L38.102,9.209L38.025,9.183L38.037,9.188L37.959,9.163L37.971,9.168L37.892,9.145L37.904,9.149L37.825,9.129L37.837,9.132L37.757,9.114L37.77,9.117L37.689,9.1L37.702,9.104L37.621,9.089L37.634,9.092L37.552,9.079L37.565,9.082L37.483,9.071L37.496,9.073L37.46,9.07L37.413,9.064L37.426,9.066L37.343,9.057L37.357,9.059L37.273,9.052L37.287,9.054L37.203,9.049L37.216,9.051L37.132,9.048L37.132,9.048L37.146,9.049L37.061,9.047L37.075,9.047L36.989,9.047L37.003,9.047L36.917,9.05L36.931,9.049L36.846,9.054L36.86,9.053Z" style="fill:#fff;"/>
            <path d="M33.595,13.298L33.644,13.382L33.642,13.377L33.692,13.459L33.69,13.455L33.742,13.535L33.739,13.531L33.794,13.61L33.791,13.605L33.847,13.683L33.844,13.679L33.902,13.755L33.899,13.75L33.954,13.82L33.959,13.825L33.955,13.82L34.016,13.894L34.012,13.889L34.075,13.962L34.071,13.957L34.135,14.028L34.131,14.023L34.197,14.092L34.193,14.087L34.261,14.155L34.256,14.15L34.325,14.216L34.321,14.211L34.391,14.276L34.386,14.271L34.459,14.333L34.454,14.329L34.527,14.389L34.522,14.385L34.597,14.444L34.592,14.439L34.663,14.493L34.668,14.496L34.662,14.492L34.74,14.548L34.734,14.543L34.813,14.598L34.806,14.593L34.887,14.645L34.88,14.641L34.962,14.692L34.955,14.687L35.038,14.736L35.031,14.731L35.115,14.778L35.108,14.774L35.193,14.819L35.186,14.814L35.272,14.857L35.264,14.853L35.352,14.894L35.344,14.89L35.433,14.928L35.425,14.925L35.514,14.961L35.506,14.957L35.515,14.961L35.596,14.993L35.588,14.989L35.679,15.022L35.671,15.019L35.763,15.05L35.754,15.047L35.847,15.076L35.838,15.073L35.932,15.1L35.923,15.097L36.018,15.121L36.009,15.119L36.105,15.141L36.095,15.138L36.192,15.158L36.182,15.156L36.28,15.173L36.27,15.171L36.368,15.186L36.358,15.185L36.4,15.19L36.457,15.198L36.447,15.196L36.546,15.208L36.536,15.207L36.636,15.216L36.626,15.215L36.727,15.221L36.716,15.221L36.817,15.225L36.807,15.224L36.9,15.227L36.992,15.227L37.084,15.225L37.175,15.221L37.18,15.221L37.273,15.215L37.363,15.208L37.452,15.198L37.544,15.186L37.534,15.188L37.632,15.173L37.622,15.175L37.719,15.158L37.709,15.16L37.806,15.141L37.796,15.143L37.892,15.121L37.883,15.124L37.895,15.121L37.978,15.101L37.969,15.104L38.063,15.079L38.054,15.082L38.148,15.055L38.138,15.058L38.231,15.029L38.222,15.032L38.314,15L38.305,15.004L38.396,14.97L38.387,14.974L38.477,14.938L38.469,14.942L38.557,14.904L38.549,14.908L38.616,14.877L38.637,14.868L38.629,14.872L38.716,14.832L38.708,14.836L38.794,14.793L38.786,14.797L38.871,14.753L38.864,14.757L38.948,14.71L38.94,14.715L39.023,14.666L39.016,14.671L39.097,14.62L39.09,14.625L39.17,14.572L39.164,14.577L39.242,14.523L39.236,14.528L39.284,14.493L39.313,14.472L39.307,14.477L39.384,14.42L39.378,14.425L39.453,14.366L39.447,14.371L39.521,14.31L39.515,14.315L39.588,14.253L39.582,14.258L39.653,14.194L39.648,14.199L39.717,14.133L39.712,14.138L39.78,14.071L39.775,14.076L39.841,14.007L39.837,14.012L39.861,13.986L39.902,13.942L39.898,13.947L39.961,13.876L39.958,13.881L40.019,13.808L40.016,13.813L40.076,13.738L40.072,13.744L40.131,13.667L40.128,13.673L40.184,13.595L40.181,13.6L40.236,13.521L40.233,13.526L40.286,13.446L40.283,13.451L40.334,13.369L40.332,13.374L40.381,13.291L40.379,13.295L40.426,13.211L40.424,13.216L40.469,13.13L40.467,13.135L40.51,13.047L40.508,13.052L40.549,12.964L40.548,12.968L40.587,12.879L40.585,12.883L40.622,12.792L40.621,12.797L40.629,12.776L40.656,12.705L40.655,12.709L40.689,12.617L40.688,12.621L40.719,12.527L40.718,12.531L40.747,12.436L40.746,12.439L40.773,12.343L40.773,12.347L40.797,12.25L40.796,12.253L40.819,12.155L40.818,12.158L40.838,12.059L40.838,12.062L40.855,11.962L40.855,11.965L40.869,11.864L40.869,11.867L40.882,11.765L40.882,11.768L40.889,11.692L40.891,11.665L40.973,11.585L41.053,11.667L41.055,11.694L41.061,11.77L41.061,11.772L41.065,11.874L41.065,11.877L41.067,11.979L41.067,11.981L41.066,12.083L41.066,12.086L41.063,12.186L41.062,12.189L41.057,12.29L41.056,12.293L41.048,12.393L41.047,12.396L41.037,12.495L41.036,12.499L41.023,12.597L41.022,12.601L41.006,12.698L41.005,12.702L40.988,12.799L40.986,12.803L40.971,12.878L40.966,12.899L40.965,12.904L40.941,12.999L40.94,13.003L40.914,13.097L40.912,13.102L40.884,13.195L40.883,13.2L40.852,13.292L40.85,13.297L40.818,13.388L40.816,13.393L40.781,13.484L40.779,13.488L40.742,13.578L40.74,13.583L40.701,13.671L40.698,13.676L40.657,13.764L40.655,13.769L40.612,13.855L40.609,13.86L40.564,13.945L40.56,13.95L40.513,14.034L40.51,14.039L40.461,14.122L40.457,14.127L40.406,14.208L40.402,14.214L40.35,14.294L40.346,14.299L40.311,14.349L40.291,14.378L40.286,14.383L40.229,14.46L40.224,14.465L40.165,14.54L40.16,14.545L40.1,14.619L40.094,14.625L40.032,14.697L40.027,14.702L39.962,14.773L39.957,14.778L39.891,14.847L39.885,14.853L39.817,14.92L39.811,14.925L39.742,14.991L39.736,14.996L39.71,15.021L39.665,15.06L39.658,15.065L39.585,15.127L39.579,15.132L39.504,15.192L39.497,15.197L39.421,15.255L39.414,15.26L39.337,15.317L39.329,15.321L39.25,15.376L39.243,15.381L39.163,15.434L39.155,15.438L39.073,15.489L39.065,15.493L38.982,15.542L38.974,15.546L38.955,15.557L38.889,15.593L38.881,15.597L38.795,15.64L38.786,15.644L38.699,15.686L38.69,15.69L38.602,15.729L38.593,15.733L38.503,15.77L38.494,15.774L38.403,15.809L38.394,15.812L38.302,15.845L38.292,15.848L38.199,15.879L38.19,15.882L38.108,15.907L38.096,15.911L38.086,15.913L37.991,15.938L37.981,15.941L37.884,15.964L37.874,15.966L37.777,15.986L37.767,15.988L37.669,16.006L37.669,16.006L37.659,16.008L37.56,16.022L37.549,16.023L37.45,16.036L37.439,16.037L37.339,16.046L37.328,16.047L37.233,16.054L37.227,16.054L37.216,16.055L37.114,16.057L37.104,16.058L37.001,16.058L36.991,16.058L36.888,16.056L36.878,16.056L36.776,16.051L36.765,16.05L36.664,16.041L36.654,16.041L36.553,16.029L36.543,16.028L36.443,16.015L36.433,16.013L36.335,15.997L36.325,15.996L36.269,15.985L36.227,15.976L36.217,15.975L36.12,15.952L36.11,15.95L36.014,15.926L36.005,15.923L35.91,15.896L35.901,15.894L35.807,15.865L35.798,15.862L35.705,15.831L35.696,15.828L35.604,15.794L35.595,15.791L35.504,15.755L35.496,15.752L35.406,15.714L35.398,15.711L35.309,15.671L35.301,15.667L35.222,15.629L35.214,15.625L35.206,15.621L35.12,15.576L35.112,15.572L35.028,15.525L35.021,15.521L34.938,15.472L34.93,15.468L34.849,15.417L34.842,15.412L34.761,15.359L34.754,15.355L34.676,15.3L34.669,15.296L34.591,15.239L34.585,15.235L34.509,15.176L34.503,15.172L34.428,15.111L34.422,15.107L34.349,15.045L34.343,15.04L34.272,14.977L34.266,14.972L34.262,14.968L34.197,14.906L34.191,14.901L34.124,14.834L34.118,14.829L34.052,14.76L34.047,14.755L33.983,14.684L33.978,14.679L33.915,14.607L33.911,14.602L33.85,14.528L33.845,14.524L33.786,14.448L33.782,14.444L33.724,14.367L33.72,14.362L33.665,14.284L33.661,14.279L33.607,14.2L33.604,14.195L33.552,14.115L33.548,14.11L33.545,14.104L33.499,14.027L33.496,14.023L33.448,13.939L33.445,13.934L33.4,13.85L33.397,13.845L33.354,13.759L33.351,13.754L33.31,13.667L33.307,13.663L33.268,13.574L33.266,13.57L33.228,13.481L33.226,13.476L33.191,13.386L33.189,13.382L33.156,13.29L33.155,13.286L33.124,13.194L33.122,13.19L33.094,13.096L33.092,13.092L33.066,12.998L33.065,12.994L33.041,12.899L33.039,12.895L33.018,12.8L33.017,12.796L32.997,12.699L32.996,12.696L32.979,12.598L32.978,12.595L32.964,12.497L32.963,12.493L32.952,12.404L32.95,12.391L32.941,12.292L32.941,12.289L32.934,12.189L32.934,12.186L32.93,12.085L32.929,12.082L32.928,11.981L32.928,11.978L32.929,11.877L32.929,11.874L32.932,11.772L32.932,11.77L32.937,11.696L32.938,11.667L33.018,11.583L33.1,11.665L33.103,11.694L33.109,11.768L33.109,11.765L33.121,11.867L33.121,11.865L33.134,11.965L33.134,11.963L33.15,12.063L33.15,12.06L33.169,12.159L33.169,12.156L33.19,12.254L33.189,12.251L33.213,12.348L33.212,12.345L33.214,12.353L33.237,12.441L33.237,12.437L33.264,12.533L33.263,12.529L33.293,12.623L33.292,12.619L33.324,12.713L33.323,12.709L33.357,12.801L33.356,12.797L33.392,12.888L33.391,12.884L33.43,12.973L33.428,12.969L33.469,13.058L33.467,13.053L33.51,13.141L33.508,13.136L33.553,13.222L33.551,13.218L33.597,13.303L33.595,13.298Z" style="fill:#c1c2dd;fill-opacity:0.3;"/>
        </g>
        <g>
            <circle cx="36.996" cy="29.824" r="4.645" style="fill:#2b307f;fill-opacity:0.35;"/>
            <circle cx="36.996" cy="28.152" r="4.645" style="fill:#f2f2fa;"/>
            <path d="M36.86,25.416L36.855,25.416L36.777,25.421L36.707,25.426L36.637,25.433L36.567,25.442L36.581,25.44L36.499,25.452L36.512,25.449L36.43,25.462L36.444,25.46L36.363,25.475L36.376,25.472L36.295,25.489L36.308,25.486L36.298,25.488L36.228,25.503L36.241,25.499L36.162,25.519L36.174,25.515L36.095,25.536L36.108,25.532L36.03,25.555L36.042,25.55L35.965,25.575L35.977,25.57L35.9,25.597L35.912,25.592L35.836,25.621L35.847,25.616L35.773,25.646L35.784,25.641L35.727,25.665L35.71,25.672L35.721,25.667L35.647,25.699L35.657,25.693L35.584,25.727L35.595,25.721L35.522,25.756L35.532,25.75L35.461,25.788L35.471,25.781L35.401,25.82L35.41,25.814L35.341,25.854L35.35,25.848L35.282,25.89L35.291,25.883L35.224,25.927L35.233,25.92L35.191,25.949L35.166,25.965L35.175,25.958L35.109,26.004L35.117,25.997L35.052,26.044L35.06,26.037L34.996,26.086L35.004,26.079L34.941,26.129L34.948,26.122L34.887,26.174L34.894,26.167L34.834,26.22L34.841,26.213L34.782,26.268L34.788,26.261L34.731,26.316L34.737,26.309L34.716,26.33L34.68,26.366L34.686,26.359L34.63,26.417L34.635,26.41L34.581,26.469L34.586,26.462L34.533,26.522L34.537,26.515L34.486,26.577L34.49,26.57L34.44,26.633L34.444,26.626L34.395,26.69L34.399,26.683L34.352,26.749L34.356,26.742L34.31,26.809L34.313,26.802L34.269,26.87L34.272,26.864L34.23,26.933L34.233,26.927L34.192,26.997L34.195,26.991L34.155,27.062L34.158,27.056L34.12,27.128L34.122,27.122L34.087,27.196L34.088,27.19L34.054,27.265L34.056,27.259L34.049,27.276L34.023,27.334L34.024,27.329L33.993,27.405L33.994,27.4L33.964,27.477L33.965,27.472L33.937,27.55L33.938,27.546L33.912,27.625L33.912,27.62L33.888,27.7L33.889,27.696L33.866,27.777L33.867,27.773L33.846,27.855L33.847,27.851L33.828,27.934L33.828,27.931L33.812,28.015L33.812,28.011L33.798,28.096L33.798,28.093L33.789,28.156L33.785,28.178L33.676,28.285L33.57,28.176L33.568,28.153L33.56,28.09L33.56,28.087L33.552,28.001L33.552,27.998L33.547,27.913L33.547,27.909L33.543,27.824L33.544,27.821L33.542,27.736L33.543,27.732L33.543,27.648L33.544,27.643L33.547,27.56L33.548,27.555L33.553,27.472L33.554,27.467L33.561,27.384L33.562,27.379L33.571,27.296L33.572,27.291L33.583,27.209L33.585,27.204L33.595,27.141L33.598,27.123L33.6,27.117L33.616,27.036L33.618,27.031L33.636,26.951L33.638,26.945L33.659,26.866L33.661,26.86L33.683,26.781L33.686,26.775L33.709,26.697L33.712,26.691L33.738,26.614L33.741,26.608L33.769,26.532L33.772,26.525L33.801,26.45L33.805,26.443L33.836,26.368L33.84,26.362L33.873,26.288L33.877,26.281L33.911,26.208L33.916,26.201L33.952,26.13L33.957,26.123L33.995,26.052L34,26.045L34.039,25.975L34.045,25.968L34.086,25.899L34.092,25.892L34.119,25.849L34.135,25.824L34.141,25.817L34.186,25.752L34.193,25.744L34.24,25.68L34.246,25.673L34.295,25.609L34.302,25.602L34.352,25.54L34.359,25.533L34.411,25.472L34.418,25.465L34.471,25.405L34.479,25.398L34.533,25.34L34.541,25.333L34.597,25.276L34.605,25.269L34.627,25.248L34.663,25.214L34.672,25.207L34.731,25.154L34.74,25.147L34.801,25.095L34.81,25.088L34.872,25.038L34.882,25.032L34.945,24.983L34.955,24.976L35.019,24.929L35.029,24.923L35.095,24.877L35.105,24.871L35.172,24.826L35.183,24.821L35.251,24.778L35.262,24.772L35.278,24.762L35.332,24.732L35.343,24.727L35.414,24.689L35.426,24.684L35.498,24.647L35.51,24.642L35.583,24.608L35.595,24.603L35.669,24.571L35.681,24.566L35.757,24.535L35.769,24.531L35.845,24.502L35.858,24.498L35.935,24.47L35.948,24.467L36.016,24.444L36.026,24.441L36.039,24.438L36.118,24.416L36.131,24.413L36.211,24.393L36.225,24.39L36.306,24.372L36.319,24.37L36.401,24.354L36.401,24.354L36.414,24.352L36.497,24.34L36.511,24.338L36.594,24.327L36.608,24.326L36.692,24.318L36.706,24.317L36.785,24.311L36.79,24.31L36.804,24.31L36.889,24.308L36.903,24.307L37.003,24.308L37.102,24.31L37.201,24.315L37.286,24.324L37.299,24.325L37.383,24.335L37.397,24.337L37.48,24.349L37.493,24.351L37.575,24.366L37.589,24.368L37.635,24.377L37.67,24.385L37.683,24.388L37.764,24.408L37.777,24.411L37.856,24.433L37.869,24.436L37.948,24.46L37.96,24.464L38.038,24.49L38.05,24.493L38.127,24.521L38.139,24.525L38.215,24.555L38.227,24.559L38.302,24.59L38.313,24.595L38.388,24.628L38.399,24.632L38.472,24.668L38.483,24.672L38.548,24.706L38.555,24.709L38.566,24.714L38.636,24.754L38.646,24.759L38.716,24.801L38.726,24.806L38.794,24.849L38.804,24.854L38.87,24.899L38.88,24.905L38.946,24.951L38.955,24.957L39.02,25.004L39.029,25.01L39.092,25.06L39.1,25.065L39.162,25.116L39.171,25.122L39.232,25.174L39.24,25.181L39.299,25.234L39.307,25.24L39.365,25.295L39.373,25.302L39.376,25.305L39.429,25.359L39.436,25.365L39.491,25.423L39.498,25.43L39.551,25.489L39.558,25.496L39.61,25.557L39.616,25.563L39.666,25.625L39.672,25.632L39.721,25.695L39.727,25.702L39.775,25.766L39.78,25.773L39.826,25.839L39.831,25.845L39.876,25.912L39.881,25.918L39.923,25.986L39.928,25.993L39.969,26.061L39.974,26.068L39.976,26.073L40.012,26.138L40.017,26.145L40.054,26.216L40.058,26.223L40.093,26.295L40.097,26.301L40.13,26.375L40.134,26.381L40.165,26.455L40.169,26.461L40.199,26.536L40.202,26.542L40.23,26.618L40.233,26.624L40.259,26.701L40.262,26.706L40.286,26.784L40.289,26.79L40.311,26.868L40.314,26.873L40.334,26.952L40.336,26.958L40.355,27.037L40.357,27.043L40.374,27.123L40.376,27.128L40.391,27.209L40.392,27.214L40.405,27.295L40.406,27.3L40.417,27.382L40.419,27.387L40.428,27.469L40.428,27.474L40.435,27.549L40.435,27.557L40.436,27.561L40.44,27.645L40.441,27.649L40.443,27.733L40.443,27.737L40.443,27.821L40.443,27.825L40.441,27.91L40.441,27.913L40.437,27.998L40.437,28.001L40.43,28.087L40.431,28.09L40.424,28.151L40.422,28.176L40.315,28.287L40.206,28.178L40.203,28.154L40.195,28.093L40.195,28.096L40.182,28.011L40.182,28.014L40.167,27.931L40.167,27.934L40.15,27.851L40.151,27.855L40.131,27.772L40.132,27.776L40.111,27.695L40.111,27.699L40.088,27.619L40.089,27.623L40.087,27.616L40.065,27.544L40.065,27.548L40.039,27.469L40.04,27.474L40.012,27.396L40.014,27.401L39.984,27.324L39.985,27.329L39.954,27.254L39.955,27.259L39.922,27.184L39.924,27.189L39.889,27.116L39.891,27.121L39.854,27.048L39.856,27.054L39.817,26.982L39.82,26.988L39.78,26.918L39.782,26.923L39.74,26.854L39.743,26.86L39.7,26.792L39.703,26.798L39.658,26.731L39.661,26.737L39.615,26.671L39.618,26.677L39.57,26.613L39.574,26.619L39.524,26.556L39.528,26.562L39.477,26.5L39.482,26.506L39.433,26.45L39.429,26.446L39.434,26.452L39.381,26.392L39.386,26.398L39.331,26.34L39.336,26.346L39.28,26.289L39.286,26.295L39.229,26.239L39.234,26.246L39.176,26.191L39.182,26.198L39.122,26.144L39.128,26.151L39.067,26.099L39.074,26.106L39.012,26.055L39.018,26.062L38.955,26.013L38.962,26.019L38.898,25.972L38.905,25.978L38.843,25.935L38.839,25.932L38.847,25.939L38.781,25.894L38.789,25.9L38.721,25.856L38.73,25.863L38.661,25.821L38.67,25.827L38.601,25.786L38.609,25.792L38.539,25.754L38.548,25.759L38.477,25.722L38.486,25.728L38.414,25.693L38.423,25.698L38.35,25.665L38.36,25.67L38.286,25.638L38.296,25.644L38.221,25.614L38.232,25.619L38.156,25.59L38.167,25.595L38.16,25.593L38.091,25.567L38.102,25.572L38.025,25.546L38.037,25.55L37.959,25.526L37.971,25.53L37.892,25.508L37.904,25.512L37.825,25.491L37.837,25.495L37.757,25.476L37.77,25.48L37.689,25.463L37.702,25.467L37.621,25.452L37.634,25.455L37.552,25.442L37.565,25.445L37.483,25.434L37.496,25.436L37.46,25.433L37.413,25.426L37.426,25.429L37.343,25.42L37.357,25.422L37.273,25.415L37.287,25.417L37.203,25.412L37.216,25.413L37.132,25.411L37.132,25.411L37.146,25.412L37.061,25.41L37.075,25.41L36.989,25.41L37.003,25.41L36.917,25.413L36.931,25.412L36.846,25.417L36.86,25.416Z" style="fill:#fff;"/>
            <path d="M33.595,29.661L33.644,29.745L33.642,29.74L33.692,29.822L33.69,29.818L33.742,29.898L33.739,29.894L33.794,29.973L33.791,29.968L33.847,30.046L33.844,30.041L33.902,30.118L33.899,30.113L33.954,30.183L33.959,30.188L33.955,30.183L34.016,30.257L34.012,30.252L34.075,30.325L34.071,30.32L34.135,30.391L34.131,30.386L34.197,30.455L34.193,30.45L34.261,30.518L34.256,30.513L34.325,30.579L34.321,30.574L34.391,30.638L34.386,30.634L34.459,30.696L34.454,30.691L34.527,30.752L34.522,30.747L34.597,30.807L34.592,30.802L34.663,30.856L34.668,30.859L34.662,30.855L34.74,30.911L34.734,30.906L34.813,30.96L34.806,30.956L34.887,31.008L34.88,31.004L34.962,31.054L34.955,31.05L35.038,31.099L35.031,31.094L35.115,31.141L35.108,31.137L35.193,31.181L35.186,31.177L35.272,31.22L35.264,31.216L35.352,31.257L35.344,31.253L35.433,31.291L35.425,31.287L35.514,31.324L35.506,31.32L35.515,31.323L35.596,31.356L35.588,31.352L35.679,31.385L35.671,31.382L35.763,31.413L35.754,31.41L35.847,31.439L35.838,31.436L35.932,31.463L35.923,31.46L36.018,31.484L36.009,31.481L36.105,31.504L36.095,31.501L36.192,31.521L36.182,31.519L36.28,31.536L36.27,31.534L36.368,31.549L36.358,31.547L36.4,31.553L36.457,31.561L36.447,31.559L36.546,31.571L36.536,31.57L36.636,31.579L36.626,31.578L36.727,31.584L36.716,31.583L36.817,31.587L36.807,31.587L36.9,31.59L36.992,31.59L37.084,31.588L37.175,31.584L37.18,31.583L37.273,31.578L37.363,31.571L37.452,31.561L37.544,31.549L37.534,31.55L37.632,31.536L37.622,31.538L37.719,31.521L37.709,31.523L37.806,31.504L37.796,31.506L37.892,31.484L37.883,31.487L37.895,31.484L37.978,31.464L37.969,31.467L38.063,31.442L38.054,31.445L38.148,31.418L38.138,31.421L38.231,31.392L38.222,31.395L38.314,31.363L38.305,31.367L38.396,31.333L38.387,31.337L38.477,31.301L38.469,31.305L38.557,31.267L38.549,31.271L38.616,31.24L38.637,31.231L38.629,31.235L38.716,31.194L38.708,31.199L38.794,31.156L38.786,31.16L38.871,31.115L38.864,31.12L38.948,31.073L38.94,31.078L39.023,31.029L39.016,31.034L39.097,30.983L39.09,30.988L39.17,30.935L39.164,30.94L39.242,30.886L39.236,30.891L39.284,30.855L39.313,30.835L39.307,30.84L39.384,30.782L39.378,30.788L39.453,30.728L39.447,30.734L39.521,30.673L39.515,30.678L39.588,30.616L39.582,30.621L39.653,30.557L39.648,30.562L39.717,30.496L39.712,30.501L39.78,30.434L39.775,30.439L39.841,30.37L39.837,30.375L39.861,30.349L39.902,30.305L39.898,30.31L39.961,30.238L39.958,30.244L40.019,30.171L40.016,30.176L40.076,30.101L40.072,30.106L40.131,30.03L40.128,30.035L40.184,29.958L40.181,29.963L40.236,29.884L40.233,29.889L40.286,29.808L40.283,29.814L40.334,29.732L40.332,29.737L40.381,29.653L40.379,29.658L40.426,29.574L40.424,29.579L40.469,29.493L40.467,29.497L40.51,29.41L40.508,29.415L40.549,29.327L40.548,29.331L40.587,29.242L40.585,29.246L40.622,29.155L40.621,29.16L40.629,29.139L40.656,29.068L40.655,29.072L40.689,28.979L40.688,28.983L40.719,28.89L40.718,28.893L40.747,28.799L40.746,28.802L40.773,28.706L40.773,28.71L40.797,28.613L40.796,28.616L40.819,28.518L40.818,28.521L40.838,28.422L40.838,28.425L40.855,28.325L40.855,28.328L40.869,28.227L40.869,28.23L40.882,28.128L40.882,28.13L40.889,28.055L40.891,28.028L40.973,27.948L41.053,28.03L41.055,28.057L41.061,28.133L41.061,28.135L41.065,28.237L41.065,28.24L41.067,28.341L41.067,28.344L41.066,28.445L41.066,28.448L41.063,28.549L41.062,28.552L41.057,28.652L41.056,28.656L41.048,28.755L41.047,28.759L41.037,28.858L41.036,28.861L41.023,28.96L41.022,28.964L41.006,29.061L41.005,29.065L40.988,29.162L40.986,29.166L40.971,29.241L40.966,29.262L40.965,29.267L40.941,29.362L40.94,29.366L40.914,29.46L40.912,29.465L40.884,29.558L40.883,29.563L40.852,29.655L40.85,29.66L40.818,29.751L40.816,29.756L40.781,29.846L40.779,29.851L40.742,29.941L40.74,29.946L40.701,30.034L40.698,30.039L40.657,30.126L40.655,30.131L40.612,30.218L40.609,30.223L40.564,30.308L40.56,30.313L40.513,30.397L40.51,30.402L40.461,30.485L40.457,30.49L40.406,30.571L40.402,30.577L40.35,30.657L40.346,30.662L40.311,30.712L40.291,30.74L40.286,30.746L40.229,30.822L40.224,30.828L40.165,30.903L40.16,30.908L40.1,30.982L40.094,30.987L40.032,31.06L40.027,31.065L39.962,31.136L39.957,31.141L39.891,31.21L39.885,31.215L39.817,31.283L39.811,31.288L39.742,31.354L39.736,31.359L39.71,31.383L39.665,31.423L39.658,31.428L39.585,31.49L39.579,31.495L39.504,31.555L39.497,31.56L39.421,31.618L39.414,31.623L39.337,31.68L39.329,31.684L39.25,31.739L39.243,31.744L39.163,31.796L39.155,31.801L39.073,31.852L39.065,31.856L38.982,31.905L38.974,31.909L38.955,31.92L38.889,31.955L38.881,31.959L38.795,32.003L38.786,32.007L38.699,32.049L38.69,32.052L38.602,32.092L38.593,32.096L38.503,32.133L38.494,32.136L38.403,32.172L38.394,32.175L38.302,32.208L38.292,32.211L38.199,32.242L38.19,32.245L38.108,32.27L38.096,32.274L38.086,32.276L37.991,32.301L37.981,32.304L37.884,32.326L37.874,32.328L37.777,32.349L37.767,32.351L37.669,32.369L37.669,32.369L37.659,32.37L37.56,32.385L37.549,32.386L37.45,32.398L37.439,32.399L37.339,32.409L37.328,32.41L37.233,32.416L37.227,32.417L37.216,32.417L37.114,32.42L37.104,32.421L37.001,32.421L36.991,32.421L36.888,32.419L36.878,32.418L36.776,32.414L36.765,32.413L36.664,32.404L36.654,32.404L36.553,32.392L36.543,32.391L36.443,32.377L36.433,32.376L36.335,32.36L36.325,32.358L36.269,32.348L36.227,32.339L36.217,32.337L36.12,32.315L36.11,32.313L36.014,32.288L36.005,32.286L35.91,32.259L35.901,32.257L35.807,32.228L35.798,32.225L35.705,32.193L35.696,32.191L35.604,32.157L35.595,32.154L35.504,32.118L35.496,32.115L35.406,32.077L35.398,32.074L35.309,32.034L35.301,32.03L35.222,31.992L35.214,31.988L35.206,31.984L35.12,31.939L35.112,31.935L35.028,31.888L35.021,31.884L34.938,31.835L34.93,31.831L34.849,31.779L34.842,31.775L34.761,31.722L34.754,31.718L34.676,31.663L34.669,31.659L34.591,31.602L34.585,31.598L34.509,31.539L34.503,31.535L34.428,31.474L34.422,31.47L34.349,31.408L34.343,31.403L34.272,31.339L34.266,31.335L34.262,31.331L34.197,31.269L34.191,31.264L34.124,31.196L34.118,31.192L34.052,31.122L34.047,31.118L33.983,31.047L33.978,31.042L33.915,30.97L33.911,30.965L33.85,30.891L33.845,30.886L33.786,30.811L33.782,30.806L33.724,30.73L33.72,30.725L33.665,30.647L33.661,30.642L33.607,30.563L33.604,30.558L33.552,30.477L33.548,30.473L33.545,30.467L33.499,30.39L33.496,30.385L33.448,30.302L33.445,30.297L33.4,30.212L33.397,30.208L33.354,30.122L33.351,30.117L33.31,30.03L33.307,30.025L33.268,29.937L33.266,29.933L33.228,29.844L33.226,29.839L33.191,29.749L33.189,29.744L33.156,29.653L33.155,29.649L33.124,29.557L33.122,29.552L33.094,29.459L33.092,29.455L33.066,29.361L33.065,29.357L33.041,29.262L33.039,29.258L33.018,29.163L33.017,29.159L32.997,29.062L32.996,29.059L32.979,28.961L32.978,28.958L32.964,28.86L32.963,28.856L32.952,28.766L32.95,28.754L32.941,28.655L32.941,28.652L32.934,28.552L32.934,28.549L32.93,28.448L32.929,28.445L32.928,28.344L32.928,28.341L32.929,28.24L32.929,28.237L32.932,28.135L32.932,28.133L32.937,28.059L32.938,28.03L33.018,27.946L33.1,28.028L33.103,28.057L33.109,28.13L33.109,28.128L33.121,28.23L33.121,28.227L33.134,28.328L33.134,28.326L33.15,28.425L33.15,28.423L33.169,28.522L33.169,28.519L33.19,28.617L33.189,28.614L33.213,28.711L33.212,28.707L33.214,28.716L33.237,28.804L33.237,28.8L33.264,28.895L33.263,28.892L33.293,28.986L33.292,28.982L33.324,29.075L33.323,29.072L33.357,29.164L33.356,29.16L33.392,29.251L33.391,29.246L33.43,29.336L33.428,29.332L33.469,29.421L33.467,29.416L33.51,29.504L33.508,29.499L33.553,29.585L33.551,29.581L33.597,29.666L33.595,29.661Z" style="fill:#c1c2dd;fill-opacity:0.3;"/>
        </g>
        <g>
            <circle cx="36.996" cy="46.187" r="4.645" style="fill:#2b307f;fill-opacity:0.35;"/>
            <circle cx="36.996" cy="44.515" r="4.645" style="fill:#f2f2fa;"/>
            <path d="M36.86,41.779L36.855,41.779L36.777,41.783L36.707,41.789L36.637,41.796L36.567,41.805L36.581,41.803L36.499,41.814L36.512,41.812L36.43,41.825L36.444,41.822L36.363,41.838L36.376,41.835L36.295,41.852L36.308,41.848L36.298,41.851L36.228,41.866L36.241,41.862L36.162,41.882L36.174,41.878L36.095,41.899L36.108,41.895L36.03,41.918L36.042,41.913L35.965,41.938L35.977,41.933L35.9,41.96L35.912,41.955L35.836,41.984L35.847,41.978L35.773,42.009L35.784,42.003L35.727,42.028L35.71,42.035L35.721,42.029L35.647,42.062L35.657,42.056L35.584,42.09L35.595,42.084L35.522,42.119L35.532,42.113L35.461,42.15L35.471,42.144L35.401,42.183L35.41,42.177L35.341,42.217L35.35,42.211L35.282,42.253L35.291,42.246L35.224,42.29L35.233,42.283L35.191,42.312L35.166,42.328L35.175,42.321L35.109,42.367L35.117,42.36L35.052,42.407L35.06,42.4L34.996,42.449L35.004,42.442L34.941,42.492L34.948,42.485L34.887,42.537L34.894,42.53L34.834,42.583L34.841,42.576L34.782,42.631L34.788,42.623L34.731,42.679L34.737,42.672L34.716,42.693L34.68,42.729L34.686,42.722L34.63,42.78L34.635,42.772L34.581,42.832L34.586,42.824L34.533,42.885L34.537,42.878L34.486,42.94L34.49,42.933L34.44,42.996L34.444,42.989L34.395,43.053L34.399,43.046L34.352,43.112L34.356,43.105L34.31,43.172L34.313,43.165L34.269,43.233L34.272,43.227L34.23,43.296L34.233,43.289L34.192,43.36L34.195,43.353L34.155,43.425L34.158,43.419L34.12,43.491L34.122,43.485L34.087,43.559L34.088,43.553L34.054,43.627L34.056,43.622L34.049,43.639L34.023,43.697L34.024,43.692L33.993,43.768L33.994,43.763L33.964,43.84L33.965,43.835L33.937,43.913L33.938,43.908L33.912,43.988L33.912,43.983L33.888,44.063L33.889,44.059L33.866,44.14L33.867,44.136L33.846,44.218L33.847,44.214L33.828,44.297L33.828,44.294L33.812,44.377L33.812,44.374L33.798,44.459L33.798,44.456L33.789,44.519L33.785,44.541L33.676,44.647L33.57,44.538L33.568,44.516L33.56,44.453L33.56,44.45L33.552,44.364L33.552,44.361L33.547,44.276L33.547,44.272L33.543,44.187L33.544,44.183L33.542,44.099L33.543,44.095L33.543,44.011L33.544,44.006L33.547,43.922L33.548,43.918L33.553,43.835L33.554,43.83L33.561,43.747L33.562,43.742L33.571,43.659L33.572,43.654L33.583,43.572L33.585,43.567L33.595,43.503L33.598,43.485L33.6,43.48L33.616,43.399L33.618,43.394L33.636,43.314L33.638,43.308L33.659,43.229L33.661,43.223L33.683,43.144L33.686,43.138L33.709,43.06L33.712,43.054L33.738,42.977L33.741,42.971L33.769,42.894L33.772,42.888L33.801,42.812L33.805,42.806L33.836,42.731L33.84,42.724L33.873,42.651L33.877,42.644L33.911,42.571L33.916,42.564L33.952,42.493L33.957,42.486L33.995,42.415L34,42.408L34.039,42.338L34.045,42.331L34.086,42.262L34.092,42.255L34.119,42.212L34.135,42.187L34.141,42.18L34.186,42.114L34.193,42.107L34.24,42.043L34.246,42.036L34.295,41.972L34.302,41.965L34.352,41.903L34.359,41.896L34.411,41.835L34.418,41.828L34.471,41.768L34.479,41.761L34.533,41.703L34.541,41.696L34.597,41.638L34.605,41.632L34.627,41.611L34.663,41.576L34.672,41.57L34.731,41.516L34.74,41.51L34.801,41.458L34.81,41.451L34.872,41.401L34.882,41.394L34.945,41.345L34.955,41.339L35.019,41.292L35.029,41.286L35.095,41.24L35.105,41.234L35.172,41.189L35.183,41.183L35.251,41.14L35.262,41.135L35.278,41.125L35.332,41.095L35.343,41.09L35.414,41.052L35.426,41.046L35.498,41.01L35.51,41.005L35.583,40.971L35.595,40.966L35.669,40.933L35.681,40.929L35.757,40.898L35.769,40.894L35.845,40.864L35.858,40.861L35.935,40.833L35.948,40.829L36.016,40.807L36.026,40.804L36.039,40.801L36.118,40.779L36.131,40.776L36.211,40.756L36.225,40.753L36.306,40.735L36.319,40.733L36.401,40.717L36.401,40.717L36.414,40.715L36.497,40.702L36.511,40.701L36.594,40.69L36.608,40.689L36.692,40.68L36.706,40.679L36.785,40.674L36.79,40.673L36.804,40.673L36.889,40.671L36.903,40.67L37.003,40.67L37.102,40.673L37.201,40.678L37.286,40.687L37.299,40.688L37.383,40.698L37.397,40.7L37.48,40.712L37.493,40.714L37.575,40.729L37.589,40.731L37.635,40.74L37.67,40.748L37.683,40.75L37.764,40.771L37.777,40.774L37.856,40.796L37.869,40.799L37.948,40.823L37.96,40.826L38.038,40.853L38.05,40.856L38.127,40.884L38.139,40.888L38.215,40.918L38.227,40.922L38.302,40.953L38.313,40.958L38.388,40.991L38.399,40.995L38.472,41.03L38.483,41.035L38.548,41.068L38.555,41.072L38.566,41.077L38.636,41.117L38.646,41.122L38.716,41.163L38.726,41.169L38.794,41.212L38.804,41.217L38.87,41.262L38.88,41.268L38.946,41.314L38.955,41.319L39.02,41.367L39.029,41.373L39.092,41.422L39.1,41.428L39.162,41.479L39.171,41.485L39.232,41.537L39.24,41.543L39.299,41.597L39.307,41.603L39.365,41.658L39.373,41.664L39.376,41.668L39.429,41.721L39.436,41.728L39.491,41.786L39.498,41.793L39.551,41.852L39.558,41.859L39.61,41.92L39.616,41.926L39.666,41.988L39.672,41.995L39.721,42.058L39.727,42.065L39.775,42.129L39.78,42.136L39.826,42.201L39.831,42.208L39.876,42.275L39.881,42.281L39.923,42.349L39.928,42.355L39.969,42.424L39.974,42.431L39.976,42.436L40.012,42.501L40.017,42.508L40.054,42.579L40.058,42.585L40.093,42.658L40.097,42.664L40.13,42.737L40.134,42.744L40.165,42.818L40.169,42.824L40.199,42.899L40.202,42.905L40.23,42.981L40.233,42.987L40.259,43.063L40.262,43.069L40.286,43.147L40.289,43.152L40.311,43.231L40.314,43.236L40.334,43.315L40.336,43.321L40.355,43.4L40.357,43.405L40.374,43.486L40.376,43.491L40.391,43.572L40.392,43.577L40.405,43.658L40.406,43.663L40.417,43.745L40.419,43.75L40.428,43.832L40.428,43.837L40.435,43.912L40.435,43.92L40.436,43.924L40.44,44.008L40.441,44.012L40.443,44.096L40.443,44.1L40.443,44.184L40.443,44.188L40.441,44.273L40.441,44.276L40.437,44.361L40.437,44.364L40.43,44.45L40.431,44.453L40.424,44.514L40.422,44.538L40.315,44.65L40.206,44.541L40.203,44.517L40.195,44.456L40.195,44.459L40.182,44.374L40.182,44.377L40.167,44.293L40.167,44.297L40.15,44.214L40.151,44.218L40.131,44.135L40.132,44.139L40.111,44.058L40.111,44.062L40.088,43.982L40.089,43.986L40.087,43.979L40.065,43.906L40.065,43.911L40.039,43.832L40.04,43.837L40.012,43.759L40.014,43.764L39.984,43.687L39.985,43.692L39.954,43.616L39.955,43.622L39.922,43.547L39.924,43.552L39.889,43.478L39.891,43.484L39.854,43.411L39.856,43.417L39.817,43.345L39.82,43.351L39.78,43.28L39.782,43.286L39.74,43.217L39.743,43.223L39.7,43.155L39.703,43.161L39.658,43.094L39.661,43.1L39.615,43.034L39.618,43.04L39.57,42.976L39.574,42.982L39.524,42.918L39.528,42.925L39.477,42.863L39.482,42.869L39.433,42.813L39.429,42.808L39.434,42.815L39.381,42.755L39.386,42.761L39.331,42.702L39.336,42.709L39.28,42.652L39.286,42.658L39.229,42.602L39.234,42.609L39.176,42.554L39.182,42.56L39.122,42.507L39.128,42.514L39.067,42.462L39.074,42.468L39.012,42.418L39.018,42.425L38.955,42.376L38.962,42.382L38.898,42.335L38.905,42.341L38.843,42.298L38.839,42.295L38.847,42.302L38.781,42.257L38.789,42.263L38.721,42.219L38.73,42.225L38.661,42.183L38.67,42.19L38.601,42.149L38.609,42.155L38.539,42.117L38.548,42.122L38.477,42.085L38.486,42.091L38.414,42.056L38.423,42.061L38.35,42.028L38.36,42.033L38.286,42.001L38.296,42.006L38.221,41.976L38.232,41.981L38.156,41.953L38.167,41.958L38.16,41.956L38.091,41.93L38.102,41.935L38.025,41.909L38.037,41.913L37.959,41.889L37.971,41.893L37.892,41.871L37.904,41.875L37.825,41.854L37.837,41.858L37.757,41.839L37.77,41.843L37.689,41.826L37.702,41.829L37.621,41.815L37.634,41.818L37.552,41.805L37.565,41.807L37.483,41.797L37.496,41.799L37.46,41.795L37.413,41.789L37.426,41.791L37.343,41.783L37.357,41.785L37.273,41.778L37.287,41.78L37.203,41.775L37.216,41.776L37.132,41.774L37.132,41.774L37.146,41.775L37.061,41.773L37.075,41.773L36.989,41.773L37.003,41.773L36.917,41.775L36.931,41.775L36.846,41.78L36.86,41.779Z" style="fill:#fff;"/>
            <path d="M33.595,46.024L33.644,46.107L33.642,46.103L33.692,46.185L33.69,46.18L33.742,46.261L33.739,46.256L33.794,46.336L33.791,46.331L33.847,46.409L33.844,46.404L33.902,46.481L33.899,46.476L33.954,46.546L33.959,46.551L33.955,46.546L34.016,46.62L34.012,46.615L34.075,46.688L34.071,46.683L34.135,46.753L34.131,46.749L34.197,46.818L34.193,46.813L34.261,46.881L34.256,46.876L34.325,46.942L34.321,46.937L34.391,47.001L34.386,46.996L34.459,47.059L34.454,47.054L34.527,47.115L34.522,47.11L34.597,47.17L34.592,47.165L34.663,47.219L34.668,47.222L34.662,47.217L34.74,47.274L34.734,47.269L34.813,47.323L34.806,47.319L34.887,47.371L34.88,47.367L34.962,47.417L34.955,47.413L35.038,47.461L35.031,47.457L35.115,47.504L35.108,47.5L35.193,47.544L35.186,47.54L35.272,47.583L35.264,47.579L35.352,47.619L35.344,47.615L35.433,47.654L35.425,47.65L35.514,47.687L35.506,47.683L35.515,47.686L35.596,47.718L35.588,47.715L35.679,47.748L35.671,47.745L35.763,47.776L35.754,47.773L35.847,47.802L35.838,47.799L35.932,47.825L35.923,47.823L36.018,47.847L36.009,47.844L36.105,47.866L36.095,47.864L36.192,47.884L36.182,47.882L36.28,47.899L36.27,47.897L36.368,47.912L36.358,47.91L36.4,47.916L36.457,47.924L36.447,47.922L36.546,47.934L36.536,47.932L36.636,47.942L36.626,47.94L36.727,47.947L36.716,47.946L36.817,47.95L36.807,47.95L36.9,47.953L36.992,47.953L37.084,47.951L37.175,47.947L37.18,47.946L37.273,47.941L37.363,47.934L37.452,47.924L37.544,47.912L37.534,47.913L37.632,47.899L37.622,47.901L37.719,47.884L37.709,47.886L37.806,47.866L37.796,47.869L37.892,47.847L37.883,47.85L37.895,47.847L37.978,47.827L37.969,47.83L38.063,47.805L38.054,47.808L38.148,47.781L38.138,47.784L38.231,47.754L38.222,47.758L38.314,47.726L38.305,47.73L38.396,47.696L38.387,47.7L38.477,47.664L38.469,47.668L38.557,47.63L38.549,47.634L38.616,47.603L38.637,47.594L38.629,47.598L38.716,47.557L38.708,47.562L38.794,47.519L38.786,47.523L38.871,47.478L38.864,47.483L38.948,47.436L38.94,47.441L39.023,47.392L39.016,47.397L39.097,47.346L39.09,47.351L39.17,47.298L39.164,47.303L39.242,47.248L39.236,47.253L39.284,47.218L39.313,47.197L39.307,47.203L39.384,47.145L39.378,47.15L39.453,47.091L39.447,47.097L39.521,47.036L39.515,47.041L39.588,46.978L39.582,46.984L39.653,46.919L39.648,46.925L39.717,46.859L39.712,46.864L39.78,46.796L39.775,46.802L39.841,46.733L39.837,46.738L39.861,46.712L39.902,46.668L39.898,46.673L39.961,46.601L39.958,46.607L40.019,46.533L40.016,46.539L40.076,46.464L40.072,46.469L40.131,46.393L40.128,46.398L40.184,46.321L40.181,46.326L40.236,46.247L40.233,46.252L40.286,46.171L40.283,46.176L40.334,46.094L40.332,46.099L40.381,46.016L40.379,46.021L40.426,45.937L40.424,45.941L40.469,45.856L40.467,45.86L40.51,45.773L40.508,45.778L40.549,45.689L40.548,45.694L40.587,45.604L40.585,45.609L40.622,45.518L40.621,45.522L40.629,45.502L40.656,45.431L40.655,45.435L40.689,45.342L40.688,45.346L40.719,45.252L40.718,45.256L40.747,45.161L40.746,45.165L40.773,45.069L40.773,45.073L40.797,44.976L40.796,44.979L40.819,44.881L40.818,44.884L40.838,44.785L40.838,44.788L40.855,44.688L40.855,44.691L40.869,44.59L40.869,44.593L40.882,44.491L40.882,44.493L40.889,44.417L40.891,44.391L40.973,44.311L41.053,44.393L41.055,44.42L41.061,44.496L41.061,44.498L41.065,44.6L41.065,44.603L41.067,44.704L41.067,44.707L41.066,44.808L41.066,44.811L41.063,44.912L41.062,44.915L41.057,45.015L41.056,45.019L41.048,45.118L41.047,45.122L41.037,45.221L41.036,45.224L41.023,45.323L41.022,45.326L41.006,45.424L41.005,45.428L40.988,45.525L40.986,45.529L40.971,45.604L40.966,45.625L40.965,45.629L40.941,45.724L40.94,45.729L40.914,45.823L40.912,45.828L40.884,45.921L40.883,45.925L40.852,46.018L40.85,46.023L40.818,46.114L40.816,46.119L40.781,46.209L40.779,46.214L40.742,46.304L40.74,46.309L40.701,46.397L40.698,46.402L40.657,46.489L40.655,46.494L40.612,46.58L40.609,46.586L40.564,46.671L40.56,46.676L40.513,46.76L40.51,46.765L40.461,46.848L40.457,46.853L40.406,46.934L40.402,46.939L40.35,47.02L40.346,47.025L40.311,47.075L40.291,47.103L40.286,47.109L40.229,47.185L40.224,47.191L40.165,47.266L40.16,47.271L40.1,47.345L40.094,47.35L40.032,47.423L40.027,47.428L39.962,47.499L39.957,47.504L39.891,47.573L39.885,47.578L39.817,47.646L39.811,47.651L39.742,47.717L39.736,47.722L39.71,47.746L39.665,47.786L39.658,47.791L39.585,47.853L39.579,47.858L39.504,47.918L39.497,47.923L39.421,47.981L39.414,47.986L39.337,48.042L39.329,48.047L39.25,48.102L39.243,48.106L39.163,48.159L39.155,48.164L39.073,48.215L39.065,48.219L38.982,48.268L38.974,48.272L38.955,48.283L38.889,48.318L38.881,48.322L38.795,48.366L38.786,48.37L38.699,48.412L38.69,48.415L38.602,48.455L38.593,48.458L38.503,48.496L38.494,48.499L38.403,48.535L38.394,48.538L38.302,48.571L38.292,48.574L38.199,48.605L38.19,48.608L38.108,48.633L38.096,48.636L38.086,48.639L37.991,48.664L37.981,48.666L37.884,48.689L37.874,48.691L37.777,48.712L37.767,48.714L37.669,48.732L37.669,48.732L37.659,48.733L37.56,48.748L37.549,48.749L37.45,48.761L37.439,48.762L37.339,48.772L37.328,48.773L37.233,48.779L37.227,48.78L37.216,48.78L37.114,48.783L37.104,48.783L37.001,48.784L36.991,48.784L36.888,48.782L36.878,48.781L36.776,48.776L36.765,48.776L36.664,48.767L36.654,48.766L36.553,48.755L36.543,48.754L36.443,48.74L36.433,48.739L36.335,48.723L36.325,48.721L36.269,48.711L36.227,48.702L36.217,48.7L36.12,48.678L36.11,48.676L36.014,48.651L36.005,48.649L35.91,48.622L35.901,48.62L35.807,48.59L35.798,48.588L35.705,48.556L35.696,48.553L35.604,48.52L35.595,48.517L35.504,48.481L35.496,48.478L35.406,48.44L35.398,48.436L35.309,48.396L35.301,48.393L35.222,48.355L35.214,48.351L35.206,48.347L35.12,48.302L35.112,48.298L35.028,48.251L35.021,48.247L34.938,48.197L34.93,48.193L34.849,48.142L34.842,48.138L34.761,48.085L34.754,48.081L34.676,48.026L34.669,48.022L34.591,47.965L34.585,47.96L34.509,47.902L34.503,47.897L34.428,47.837L34.422,47.833L34.349,47.771L34.343,47.766L34.272,47.702L34.266,47.697L34.262,47.693L34.197,47.632L34.191,47.627L34.124,47.559L34.118,47.554L34.052,47.485L34.047,47.48L33.983,47.41L33.978,47.405L33.915,47.333L33.911,47.328L33.85,47.254L33.845,47.249L33.786,47.174L33.782,47.169L33.724,47.093L33.72,47.088L33.665,47.01L33.661,47.005L33.607,46.926L33.604,46.921L33.552,46.84L33.548,46.835L33.545,46.83L33.499,46.753L33.496,46.748L33.448,46.665L33.445,46.66L33.4,46.575L33.397,46.57L33.354,46.485L33.351,46.48L33.31,46.393L33.307,46.388L33.268,46.3L33.266,46.296L33.228,46.206L33.226,46.202L33.191,46.112L33.189,46.107L33.156,46.016L33.155,46.012L33.124,45.919L33.122,45.915L33.094,45.822L33.092,45.818L33.066,45.724L33.065,45.72L33.041,45.625L33.039,45.621L33.018,45.525L33.017,45.522L32.997,45.425L32.996,45.421L32.979,45.324L32.978,45.321L32.964,45.223L32.963,45.219L32.952,45.129L32.95,45.117L32.941,45.018L32.941,45.015L32.934,44.914L32.934,44.911L32.93,44.811L32.929,44.808L32.928,44.707L32.928,44.704L32.929,44.602L32.929,44.6L32.932,44.498L32.932,44.496L32.937,44.422L32.938,44.393L33.018,44.309L33.1,44.391L33.103,44.42L33.109,44.493L33.109,44.491L33.121,44.593L33.121,44.59L33.134,44.691L33.134,44.688L33.15,44.788L33.15,44.786L33.169,44.885L33.169,44.882L33.19,44.98L33.189,44.977L33.213,45.074L33.212,45.07L33.214,45.079L33.237,45.167L33.237,45.163L33.264,45.258L33.263,45.255L33.293,45.349L33.292,45.345L33.324,45.438L33.323,45.434L33.357,45.526L33.356,45.523L33.392,45.613L33.391,45.609L33.43,45.699L33.428,45.695L33.469,45.783L33.467,45.779L33.51,45.866L33.508,45.862L33.553,45.948L33.551,45.944L33.597,46.028L33.595,46.024Z" style="fill:#c1c2dd;fill-opacity:0.3;"/>
        </g>
    </g>
    <g>
        <ellipse cx="40.648" cy="56.84" rx="5.382" ry="1.926" style="fill:#d5d6e6;fill-opacity:0.75;"/>
        <g>
            <ellipse cx="38.303" cy="57.001" rx="5.382" ry="1.926" style="fill:#f1765a;"/>
            <rect x="32.921" y="53.883" width="10.764" height="3.178" style="fill:#f1765a;"/>
            <ellipse cx="38.303" cy="53.899" rx="5.382" ry="1.926" style="fill:#fac9be;"/>
        </g>
    </g>
    <g>
        <ellipse cx="50.125" cy="60.353" rx="5.382" ry="1.926" style="fill:#d5d6e6;fill-opacity:0.75;"/>
        <g>
            <ellipse cx="47.78" cy="60.514" rx="5.382" ry="1.926" style="fill:#f1765a;"/>
            <rect x="42.399" y="57.396" width="10.764" height="3.178" style="fill:#f1765a;"/>
            <ellipse cx="47.78" cy="57.412" rx="5.382" ry="1.926" style="fill:#fac9be;"/>
        </g>
    </g>
</svg>
