<?xml version="1.0" encoding="UTF-8" standalone="no"?><!DOCTYPE svg PUBLIC "-//W3C//DTD SVG 1.1//EN" "http://www.w3.org/Graphics/SVG/1.1/DTD/svg11.dtd"><svg width="235px" height="113px" version="1.1" xmlns="http://www.w3.org/2000/svg" xmlns:xlink="http://www.w3.org/1999/xlink" xml:space="preserve" xmlns:serif="http://www.serif.com/" style="fill-rule:evenodd;clip-rule:evenodd;stroke-linecap:round;stroke-linejoin:round;stroke-miterlimit:1.5;"><rect id="Medications" x="0.738" y="0" width="233.626" height="112.872" style="fill:none;"/><g><g><path d="M200.099,73.504c-0.278,-1.6 -1.697,-2.933 -3.946,-3.707c-2.249,-0.775 -5.144,-0.927 -8.046,-0.422c-11.848,2.058 -30.634,5.323 -42.482,7.381c-2.903,0.505 -5.576,1.624 -7.432,3.111c-1.856,1.488 -2.743,3.222 -2.465,4.822c0,0 0,0 0,0c0.278,1.6 1.698,2.933 3.947,3.708c2.249,0.774 5.143,0.926 8.045,0.421c11.849,-2.058 30.634,-5.323 42.483,-7.381c2.902,-0.505 5.576,-1.624 7.432,-3.111c1.856,-1.488 2.742,-3.222 2.464,-4.822c0,0 0,0 0,0Z" style="fill:#e0e0ec;"/><clipPath id="_clip1"><path d="M200.099,73.504c-0.278,-1.6 -1.697,-2.933 -3.946,-3.707c-2.249,-0.775 -5.144,-0.927 -8.046,-0.422c-11.848,2.058 -30.634,5.323 -42.482,7.381c-2.903,0.505 -5.576,1.624 -7.432,3.111c-1.856,1.488 -2.743,3.222 -2.465,4.822c0,0 0,0 0,0c0.278,1.6 1.698,2.933 3.947,3.708c2.249,0.774 5.143,0.926 8.045,0.421c11.849,-2.058 30.634,-5.323 42.483,-7.381c2.902,-0.505 5.576,-1.624 7.432,-3.111c1.856,-1.488 2.742,-3.222 2.464,-4.822c0,0 0,0 0,0Z"/></clipPath><g clip-path="url(#_clip1)"><path d="M200.099,73.504c-0.278,-1.6 -1.697,-2.933 -3.946,-3.707c-2.249,-0.775 -5.144,-0.927 -8.046,-0.422c-11.848,2.058 -30.634,5.323 -42.482,7.381c-2.903,0.505 -5.576,1.624 -7.432,3.111c-1.856,1.488 -2.743,3.222 -2.465,4.822c0,0 0,0 0,0c0.278,1.6 1.698,2.933 3.947,3.708c2.249,0.774 5.143,0.926 8.045,0.421c11.849,-2.058 30.634,-5.323 42.483,-7.381c2.902,-0.505 5.576,-1.624 7.432,-3.111c1.856,-1.488 2.742,-3.222 2.464,-4.822c0,0 0,0 0,0Z" style="fill:#dadcf1;fill-opacity:0.75;"/><path d="M200.099,73.504c-0.278,-1.6 -1.697,-2.933 -3.946,-3.707c-2.249,-0.775 -5.144,-0.927 -8.046,-0.422c-11.848,2.058 -30.634,5.323 -42.482,7.381c-2.903,0.505 -5.576,1.624 -7.432,3.111c-1.856,1.488 -2.743,3.222 -2.465,4.822c0,0 0,0 0,0c0.278,1.6 1.698,2.933 3.947,3.708c2.249,0.774 5.143,0.926 8.045,0.421c11.849,-2.058 30.634,-5.323 42.483,-7.381c2.902,-0.505 5.576,-1.624 7.432,-3.111c1.856,-1.488 2.742,-3.222 2.464,-4.822c0,0 0,0 0,0Z" style="fill:#2b307f;fill-opacity:0.01;"/><path d="M165.403,72.329l-32.558,5.781l3.86,13.759l30.615,-5.583c0,0 4.809,-3.533 4.178,-7.515c-0.692,-4.358 -6.095,-6.442 -6.095,-6.442Z" style="fill:none;"/></g></g><ellipse cx="134.496" cy="67.423" rx="24.576" ry="8.795" style="fill:#d5d6e6;fill-opacity:0.75;"/><ellipse cx="109.181" cy="40.664" rx="13.885" ry="4.969" style="fill:#d5d6e6;fill-opacity:0.75;"/><g><ellipse cx="103.85" cy="42.21" rx="12.682" ry="4.901" style="fill:#aeb1e0;"/><rect x="91.167" y="34.275" width="25.365" height="8.087" style="fill:#aeb1e0;"/><ellipse cx="103.85" cy="34.315" rx="12.682" ry="4.901" style="fill:#dadcf1;"/></g><g><ellipse cx="123.687" cy="68.189" rx="22.759" ry="8.795" style="fill:#aeb1e0;"/><rect x="100.928" y="53.95" width="45.517" height="14.512" style="fill:#aeb1e0;"/><ellipse cx="123.687" cy="54.022" rx="22.759" ry="8.795" style="fill:#dadcf1;"/></g><g><g><path d="M195.396,67.253c-0.504,-2.903 -2.141,-5.487 -4.55,-7.182c-2.409,-1.696 -5.393,-2.366 -8.296,-1.861c-11.848,2.058 -30.634,5.322 -42.482,7.381c-2.902,0.504 -5.486,2.141 -7.182,4.55c-1.696,2.41 -2.365,5.394 -1.861,8.296c0,0.001 0,0.001 0,0.001c0.505,2.903 2.142,5.486 4.551,7.182c2.409,1.696 5.393,2.365 8.296,1.861c11.848,-2.059 30.634,-5.323 42.482,-7.382c2.902,-0.504 5.486,-2.141 7.182,-4.55c1.696,-2.409 2.365,-5.393 1.861,-8.296c-0.001,0 -0.001,0 -0.001,0Z" style="fill:none;"/><clipPath id="_clip2"><path d="M195.396,67.253c-0.504,-2.903 -2.141,-5.487 -4.55,-7.182c-2.409,-1.696 -5.393,-2.366 -8.296,-1.861c-11.848,2.058 -30.634,5.322 -42.482,7.381c-2.902,0.504 -5.486,2.141 -7.182,4.55c-1.696,2.41 -2.365,5.394 -1.861,8.296c0,0.001 0,0.001 0,0.001c0.505,2.903 2.142,5.486 4.551,7.182c2.409,1.696 5.393,2.365 8.296,1.861c11.848,-2.059 30.634,-5.323 42.482,-7.382c2.902,-0.504 5.486,-2.141 7.182,-4.55c1.696,-2.409 2.365,-5.393 1.861,-8.296c-0.001,0 -0.001,0 -0.001,0Z"/></clipPath><g clip-path="url(#_clip2)"><path d="M195.396,67.253c-0.504,-2.903 -2.141,-5.487 -4.55,-7.182c-2.409,-1.696 -5.393,-2.366 -8.296,-1.861c-11.848,2.058 -30.634,5.322 -42.482,7.381c-2.902,0.504 -5.486,2.141 -7.182,4.55c-1.696,2.41 -2.365,5.394 -1.861,8.296c0,0.001 0,0.001 0,0.001c0.505,2.903 2.142,5.486 4.551,7.182c2.409,1.696 5.393,2.365 8.296,1.861c11.848,-2.059 30.634,-5.323 42.482,-7.382c2.902,-0.504 5.486,-2.141 7.182,-4.55c1.696,-2.409 2.365,-5.393 1.861,-8.296c-0.001,0 -0.001,0 -0.001,0Z" style="fill:#2b307f;fill-opacity:0.01;"/><path d="M195.396,67.253c-0.504,-2.903 -2.141,-5.487 -4.55,-7.182c-2.409,-1.696 -5.393,-2.366 -8.296,-1.861c-11.848,2.058 -30.634,5.322 -42.482,7.381c-2.902,0.504 -5.486,2.141 -7.182,4.55c-1.696,2.41 -2.365,5.394 -1.861,8.296c0,0.001 0,0.001 0,0.001c0.505,2.903 2.142,5.486 4.551,7.182c2.409,1.696 5.393,2.365 8.296,1.861c11.848,-2.059 30.634,-5.323 42.482,-7.382c2.902,-0.504 5.486,-2.141 7.182,-4.55c1.696,-2.409 2.365,-5.393 1.861,-8.296c-0.001,0 -0.001,0 -0.001,0Z" style="fill:#dadcf1;"/><path d="M159.711,60.38l-32.541,5.88l5.842,25.17l30.579,-5.79c0,0 4.439,-5.667 3.245,-12.884c-1.307,-7.901 -7.125,-12.376 -7.125,-12.376Z" style="fill:none;"/><clipPath id="_clip3"><path d="M159.711,60.38l-32.541,5.88l5.842,25.17l30.579,-5.79c0,0 4.439,-5.667 3.245,-12.884c-1.307,-7.901 -7.125,-12.376 -7.125,-12.376Z"/></clipPath><g clip-path="url(#_clip3)"><path d="M195.396,67.252c-0.504,-2.903 -2.141,-5.486 -4.55,-7.182c-2.409,-1.695 -5.393,-2.365 -8.295,-1.86c-11.848,2.058 -30.635,5.323 -42.483,7.381c-2.903,0.505 -5.486,2.141 -7.182,4.55c-1.696,2.409 -2.365,5.393 -1.861,8.296c0,0 0,0.001 0.001,0.002c0.504,2.902 2.141,5.485 4.55,7.181c2.409,1.696 5.393,2.365 8.295,1.861c11.848,-2.059 30.635,-5.323 42.483,-7.382c2.903,-0.504 5.486,-2.141 7.182,-4.55c1.696,-2.409 2.365,-5.393 1.861,-8.295c0,-0.001 -0.001,-0.001 -0.001,-0.002Z" style="fill:#676fcb;fill-opacity:0.75;"/></g><path d="M195.202,66.355c0.077,0.294 0.142,0.593 0.194,0.898c0,0 0,0 0.001,0c1.05,6.045 -2.999,11.796 -9.043,12.846c-11.848,2.059 -30.634,5.323 -42.482,7.382c-6.045,1.05 -11.796,-2.998 -12.847,-9.043c0,0 0,0 0,-0.001c-0.331,-1.905 -0.155,-3.781 0.43,-5.49c1.436,5.542 6.912,9.143 12.652,8.146c11.848,-2.059 30.634,-5.323 42.482,-7.382c4.139,-0.719 7.343,-3.643 8.613,-7.356Z" style="fill:#2b307e;fill-opacity:0.24;"/><path d="M142.46,70.379l41.53,-7.216l-41.53,7.216Z" style="fill:#2b307f;fill-opacity:0.15;stroke:#fff;stroke-width:2.56px;"/></g></g></g><ellipse cx="62.088" cy="66.508" rx="20.915" ry="7.485" style="fill:#d5d6e6;fill-opacity:0.75;"/><g><ellipse cx="54.057" cy="68.836" rx="19.104" ry="7.383" style="fill:#aeb1e0;"/><rect x="34.953" y="56.883" width="38.207" height="12.181" style="fill:#aeb1e0;"/><ellipse cx="54.057" cy="56.944" rx="19.104" ry="7.383" style="fill:#dadcf1;"/></g><ellipse cx="96.181" cy="86.047" rx="24.576" ry="8.795" style="fill:#d5d6e6;fill-opacity:0.75;"/><g><ellipse cx="85.473" cy="86.782" rx="24.576" ry="8.795" style="fill:#f1765a;"/><rect x="60.897" y="72.543" width="49.152" height="14.512" style="fill:#f1765a;"/><ellipse cx="85.473" cy="72.615" rx="24.576" ry="8.795" style="fill:#fac9be;"/></g><g><ellipse cx="85.473" cy="86.782" rx="24.576" ry="8.795" style="fill:#f1765a;"/><rect x="60.897" y="72.543" width="49.152" height="14.512" style="fill:#f1765a;"/><ellipse cx="85.473" cy="72.615" rx="24.576" ry="8.795" style="fill:#fac9be;"/></g></g></svg>