<?xml version="1.0" encoding="UTF-8" standalone="no"?>
<!DOCTYPE svg PUBLIC "-//W3C//DTD SVG 1.1//EN" "http://www.w3.org/Graphics/SVG/1.1/DTD/svg11.dtd">
<svg width="100%" height="100%" viewBox="0 0 65 65" version="1.1" xmlns="http://www.w3.org/2000/svg" xmlns:xlink="http://www.w3.org/1999/xlink" xml:space="preserve" xmlns:serif="http://www.serif.com/" style="fill-rule:evenodd;clip-rule:evenodd;stroke-linecap:round;stroke-linejoin:round;stroke-miterlimit:1;">
    <rect id="Oil-Processing" serif:id="Oil Processing" x="0.877" y="0.885" width="64" height="64" style="fill:none;"/>
    <path d="M19.605,37.683C19.605,37.683 19.605,30.108 19.605,25.498C19.605,24.579 19.97,23.697 20.62,23.047C21.27,22.397 22.152,22.031 23.071,22.031C26.673,22.031 31.79,22.031 31.79,22.031" style="fill:none;stroke:#aaacdd;stroke-width:3.5px;"/>
    <path d="M18.605,36.683C18.605,36.683 18.605,29.108 18.605,24.498C18.605,23.579 18.97,22.697 19.62,22.047C20.27,21.397 21.152,21.031 22.071,21.031C25.673,21.031 30.79,21.031 30.79,21.031" style="fill:none;stroke:#e1e2f3;stroke-width:1.5px;"/>
    <path d="M42.133,19.817C42.133,15.411 38.562,11.839 34.155,11.839C34.155,11.839 34.155,11.839 34.155,11.839C29.749,11.839 26.177,15.411 26.177,19.817C26.177,28.319 26.177,40.567 26.177,40.567L42.133,40.567C42.133,40.567 42.133,28.319 42.133,19.817Z" style="fill:#e1e2f3;"/>
    <clipPath id="_clip1">
        <path d="M42.133,19.817C42.133,15.411 38.562,11.839 34.155,11.839C34.155,11.839 34.155,11.839 34.155,11.839C29.749,11.839 26.177,15.411 26.177,19.817C26.177,28.319 26.177,40.567 26.177,40.567L42.133,40.567C42.133,40.567 42.133,28.319 42.133,19.817Z"/>
    </clipPath>
    <g clip-path="url(#_clip1)">
        <path d="M40.189,19.66L28.343,19.66C28.343,16.391 30.997,13.737 34.266,13.737C37.535,13.737 40.189,16.391 40.189,19.66Z" style="fill:#fff;"/>
        <rect x="36.04" y="5.275" width="19.268" height="51.513" style="fill:#aaacdd;"/>
    </g>
    <path d="M60.258,19.817C60.258,15.411 56.686,11.839 52.28,11.839C52.28,11.839 52.28,11.839 52.28,11.839C47.874,11.839 44.302,15.411 44.302,19.817C44.302,28.319 44.302,40.567 44.302,40.567L60.258,40.567C60.258,40.567 60.258,28.319 60.258,19.817Z" style="fill:#e1e2f3;"/>
    <clipPath id="_clip2">
        <path d="M60.258,19.817C60.258,15.411 56.686,11.839 52.28,11.839C52.28,11.839 52.28,11.839 52.28,11.839C47.874,11.839 44.302,15.411 44.302,19.817C44.302,28.319 44.302,40.567 44.302,40.567L60.258,40.567C60.258,40.567 60.258,28.319 60.258,19.817Z"/>
    </clipPath>
    <g clip-path="url(#_clip2)">
        <path d="M58.314,19.66L46.468,19.66C46.468,16.391 49.122,13.737 52.391,13.737C55.66,13.737 58.314,16.391 58.314,19.66Z" style="fill:#fff;"/>
        <rect x="54.165" y="5.275" width="19.268" height="51.513" style="fill:#aaacdd;"/>
    </g>
    <rect x="5.495" y="38.962" width="54.763" height="20.652" style="fill:#f3775b;"/>
    <g>
        <rect x="44.534" y="43.417" width="4.954" height="5.87" style="fill:#2b307e;"/>
        <rect x="51.411" y="43.417" width="4.954" height="5.87" style="fill:#2b307e;"/>
        <rect x="23.903" y="43.417" width="4.954" height="5.87" style="fill:#2b307e;"/>
        <rect x="23.903" y="43.417" width="4.954" height="5.87" style="fill:#2b307e;"/>
        <rect x="30.78" y="43.417" width="4.954" height="5.87" style="fill:#2b307e;"/>
        <rect x="37.657" y="43.417" width="4.954" height="5.87" style="fill:#2b307e;"/>
    </g>
    <path d="M10.94,5.382L7.015,5.382L5.495,39.038L12.46,39.038L10.94,5.382Z" style="fill:#f3775b;"/>
    <clipPath id="_clip3">
        <path d="M10.94,5.382L7.015,5.382L5.495,39.038L12.46,39.038L10.94,5.382Z"/>
    </clipPath>
    <g clip-path="url(#_clip3)">
        <rect x="9.817" y="1.843" width="6.231" height="37.26" style="fill:#379a16;"/>
    </g>
    <rect x="8.977" y="50.061" width="12.462" height="9.552" style="fill:#2b307e;"/>
    <path d="M22.845,29.734L16.629,29.734L14.707,39.15L22.845,39.15L22.845,29.734Z" style="fill:#f3775b;"/>
</svg>
