<?xml version="1.0" encoding="UTF-8" standalone="no"?>
<!DOCTYPE svg PUBLIC "-//W3C//DTD SVG 1.1//EN" "http://www.w3.org/Graphics/SVG/1.1/DTD/svg11.dtd">
<svg width="100%" height="100%" viewBox="0 0 65 65" version="1.1" xmlns="http://www.w3.org/2000/svg" xmlns:xlink="http://www.w3.org/1999/xlink" xml:space="preserve" xmlns:serif="http://www.serif.com/" style="fill-rule:evenodd;clip-rule:evenodd;stroke-miterlimit:10;">
    <rect id="Patient-Centered-Care" x="0.035" y="0.897" width="64" height="64" style="fill:none;"/>
    <path d="M25.008,35.634C25.008,35.634 27.746,34.028 32.039,34.028C36.332,34.028 40.334,35.634 40.334,35.634L39.813,20.71L31.505,17.43L23.683,25.543L25.008,35.634Z" style="fill:#1f235c;"/>
    <circle cx="32.035" cy="32.897" r="24.328" style="fill:none;stroke:#dfdff2;stroke-width:1.33px;"/>
    <circle cx="32.035" cy="32.897" r="24.328" style="fill:none;"/>
    <clipPath id="_clip1">
        <circle cx="32.035" cy="32.897" r="24.328"/>
    </clipPath>
    <g clip-path="url(#_clip1)">
        <path d="M49.322,47.393C48.422,42.896 45.265,39.183 40.971,37.573C40.971,37.573 40.971,37.573 40.971,37.573C38.735,36.734 36.366,36.305 33.979,36.305C32.93,36.305 31.789,36.305 30.751,36.305C28.472,36.305 26.211,36.715 24.076,37.515C24.076,37.515 24.076,37.515 24.076,37.515C19.687,39.161 16.459,42.957 15.54,47.553C14.967,50.416 14.447,63.946 14.447,63.946L50.447,63.946C50.447,63.946 49.907,50.318 49.322,47.393Z" style="fill:#dfdff2;"/>
        <clipPath id="_clip2">
            <path d="M49.322,47.393C48.422,42.896 45.265,39.183 40.971,37.573C40.971,37.573 40.971,37.573 40.971,37.573C38.735,36.734 36.366,36.305 33.979,36.305C32.93,36.305 31.789,36.305 30.751,36.305C28.472,36.305 26.211,36.715 24.076,37.515C24.076,37.515 24.076,37.515 24.076,37.515C19.687,39.161 16.459,42.957 15.54,47.553C14.967,50.416 14.447,63.946 14.447,63.946L50.447,63.946C50.447,63.946 49.907,50.318 49.322,47.393Z"/>
        </clipPath>
        <g clip-path="url(#_clip2)">
            <path d="M31.247,36.034C31.247,36.034 20.059,40.259 23.336,64.897L59.97,64.345L52.604,37.676L31.247,36.034Z" style="fill:#c7c7e8;"/>
        </g>
        <path d="M37.202,32.181L27.72,32.181L27.72,37.599C27.72,37.599 27.721,37.599 27.721,37.6C28.301,40.098 30.8,43.359 32.461,43.359C34.123,43.359 37.056,40.307 37.202,37.6C37.202,37.599 37.202,37.599 37.202,37.599L37.202,32.181Z" style="fill:#f3775b;"/>
        <path d="M27.72,36.348L27.72,30.288L37.202,30.288L37.202,37.66C36.326,37.144 34.2,37.599 32.461,37.599C30.753,37.599 29.133,37.145 27.72,36.348Z" style="fill:#664e39;fill-opacity:0.56;"/>
        <path d="M40.086,23.376C40.086,18.888 36.672,15.249 32.461,15.249C32.461,15.249 32.461,15.249 32.461,15.249C28.25,15.249 24.837,18.888 24.837,23.376C24.837,24.715 24.426,26.167 24.837,27.44C26.464,32.486 28.25,35.568 32.461,35.568C32.461,35.568 32.461,35.568 32.461,35.568C36.672,35.568 38.723,32.227 40.086,27.44C40.453,26.153 40.086,24.715 40.086,23.376Z" style="fill:#f3775b;"/>
        <clipPath id="_clip3">
            <path d="M40.086,23.376C40.086,18.888 36.672,15.249 32.461,15.249C32.461,15.249 32.461,15.249 32.461,15.249C28.25,15.249 24.837,18.888 24.837,23.376C24.837,24.715 24.426,26.167 24.837,27.44C26.464,32.486 28.25,35.568 32.461,35.568C32.461,35.568 32.461,35.568 32.461,35.568C36.672,35.568 38.723,32.227 40.086,27.44C40.453,26.153 40.086,24.715 40.086,23.376Z"/>
        </clipPath>
        <g clip-path="url(#_clip3)">
            <path d="M30.245,18.549C30.245,18.549 23.205,27.954 31.183,37.66C31.183,37.66 18.754,36.311 19.04,35.634C19.325,34.957 20.439,18.337 20.439,18.337L30.245,18.549Z" style="fill:#f3ab9b;"/>
        </g>
        <path d="M30.339,22.005C30.339,22.005 21.664,23.044 25.587,37.277C25.587,37.277 18.391,36.095 22.483,21.505C23.598,17.529 27.212,13.415 32.28,13.415C36.983,13.415 39.928,16.456 41.204,20.182C46.398,35.347 39.441,37.277 39.441,37.277C40.864,23.033 36.759,20.176 36.759,20.176C36.759,20.176 34.044,23.633 28.613,23.741C28.959,23.37 29.77,22.768 30.339,22.005Z" style="fill:#4f538b;"/>
        <clipPath id="_clip4">
            <path d="M30.339,22.005C30.339,22.005 21.664,23.044 25.587,37.277C25.587,37.277 18.391,36.095 22.483,21.505C23.598,17.529 27.212,13.415 32.28,13.415C36.983,13.415 39.928,16.456 41.204,20.182C46.398,35.347 39.441,37.277 39.441,37.277C40.864,23.033 36.759,20.176 36.759,20.176C36.759,20.176 34.044,23.633 28.613,23.741C28.959,23.37 29.77,22.768 30.339,22.005Z"/>
        </clipPath>
        <g clip-path="url(#_clip4)">
            <path d="M35.207,11.803C35.207,11.803 34.956,15.021 32.482,18.38C30.908,20.517 27.881,23.323 26.512,25.079C23.585,28.833 25.661,38.722 25.661,38.722L35.959,40.362L49.643,37.102L40.771,12.59L35.207,11.803Z" style="fill:#1f235c;"/>
        </g>
        <ellipse cx="29.052" cy="26.328" rx="0.614" ry="0.685" style="fill:#181b1d;fill-opacity:0.75;"/>
        <ellipse cx="35.912" cy="26.328" rx="0.614" ry="0.685" style="fill:#181b1d;fill-opacity:0.75;"/>
        <path d="M31.585,30.124L31.586,30.125L31.606,30.139L31.645,30.164L31.668,30.178L31.697,30.193L31.73,30.21L31.766,30.228L31.766,30.228L31.806,30.246L31.85,30.264L31.897,30.282L31.948,30.299L32.002,30.316L32.032,30.323L32.06,30.331L32.121,30.345L32.186,30.358L32.219,30.363L32.253,30.368L32.288,30.372L32.324,30.375L32.326,30.375L32.361,30.379L32.398,30.381L32.436,30.383L32.469,30.384L32.476,30.384L32.516,30.384L32.557,30.384L32.598,30.383L32.599,30.383L32.641,30.382L32.685,30.379L32.73,30.376L32.731,30.376L32.775,30.372L32.822,30.368L32.87,30.362L32.873,30.361L32.919,30.355L32.968,30.347L33.019,30.338L33.071,30.328L33.124,30.316L33.156,30.307L33.178,30.302L33.233,30.288L33.29,30.272L33.347,30.254L33.405,30.235L33.466,30.213L33.587,30.246L33.543,30.363L33.489,30.401L33.434,30.437L33.379,30.471L33.325,30.504L33.27,30.534L33.249,30.546L33.216,30.563L33.162,30.589L33.108,30.614L33.054,30.637L33.001,30.659L32.952,30.677L32.948,30.679L32.895,30.696L32.843,30.712L32.792,30.726L32.791,30.727L32.74,30.739L32.689,30.75L32.639,30.76L32.638,30.76L32.588,30.767L32.539,30.773L32.491,30.778L32.482,30.779L32.443,30.782L32.396,30.784L32.349,30.785L32.307,30.785L32.304,30.785L32.259,30.784L32.215,30.781L32.172,30.778L32.129,30.774L32.048,30.764L31.97,30.752L31.934,30.744L31.896,30.736L31.826,30.719L31.76,30.7L31.698,30.68L31.64,30.659L31.586,30.638L31.586,30.637L31.538,30.616L31.493,30.595L31.453,30.575L31.417,30.556L31.362,30.523L31.325,30.5L31.324,30.499L31.312,30.49L31.261,30.171L31.58,30.12L31.585,30.124Z" style="fill:#7d4836;fill-opacity:0.7;"/>
        <path d="M30.662,31.901L30.663,31.902L30.678,31.913L30.701,31.928L30.732,31.948L30.77,31.972L30.815,31.998L30.868,32.027L30.927,32.057L30.993,32.089L31.066,32.121L31.104,32.137L31.144,32.153L31.186,32.169L31.23,32.185L31.275,32.2L31.321,32.215L31.369,32.23L31.419,32.244L31.47,32.258L31.473,32.258L31.523,32.271L31.577,32.284L31.633,32.296L31.69,32.307L31.748,32.317L31.808,32.326L31.87,32.334L31.932,32.341L31.997,32.346L32.001,32.347L32.062,32.351L32.129,32.355L32.198,32.357L32.256,32.358L32.268,32.358L32.339,32.358L32.412,32.356L32.487,32.353L32.488,32.353L32.562,32.349L32.64,32.343L32.719,32.335L32.721,32.334L32.799,32.326L32.881,32.315L32.965,32.302L32.972,32.301L33.051,32.287L33.138,32.271L33.226,32.252L33.317,32.23L33.408,32.206L33.464,32.19L33.502,32.179L33.597,32.151L33.694,32.119L33.793,32.085L33.893,32.047L33.996,32.006L34.143,32.046L34.089,32.188L33.994,32.249L33.898,32.307L33.802,32.361L33.707,32.413L33.613,32.462L33.576,32.48L33.519,32.507L33.426,32.548L33.333,32.587L33.241,32.623L33.15,32.657L33.066,32.685L33.059,32.687L32.969,32.714L32.88,32.739L32.795,32.761L32.792,32.761L32.705,32.78L32.619,32.796L32.535,32.81L32.533,32.811L32.449,32.822L32.366,32.83L32.285,32.837L32.27,32.838L32.204,32.842L32.125,32.844L32.047,32.845L31.976,32.844L31.971,32.844L31.896,32.841L31.822,32.836L31.75,32.83L31.679,32.823L31.61,32.814L31.543,32.805L31.477,32.794L31.412,32.782L31.352,32.77L31.349,32.769L31.288,32.755L31.229,32.74L31.171,32.725L31.115,32.709L31.061,32.692L31.009,32.675L30.958,32.657L30.909,32.64L30.861,32.621L30.773,32.586L30.772,32.585L30.692,32.55L30.618,32.514L30.552,32.48L30.494,32.449L30.444,32.419L30.402,32.394L30.368,32.372L30.342,32.354L30.34,32.353L30.322,32.34L30.261,31.953L30.649,31.892L30.662,31.901Z" style="fill:#2f2826;fill-opacity:0.7;"/>
    </g>
    <g>
        <g>
            <path d="M61.64,33.234C61.218,31.086 59.738,29.312 57.725,28.543C57.724,28.543 57.724,28.543 57.724,28.543C56.676,28.143 55.565,27.937 54.446,27.937L52.932,27.937C51.863,27.937 50.803,28.133 49.802,28.516C49.802,28.516 49.802,28.516 49.802,28.516C47.744,29.302 46.231,31.115 45.8,33.31C45.531,34.678 45.287,35.921 45.287,35.921L62.168,35.921C62.168,35.921 61.915,34.631 61.64,33.234Z" style="fill:#777ec7;"/>
            <g>
                <path d="M57.087,30.666C57.969,30.699 58.736,31.473 58.769,32.379C58.776,32.934 58.769,33.488 58.769,34.043C58.759,34.363 58.199,34.412 58.167,34.062C58.14,33.192 58.356,32.25 57.912,31.698C57.299,30.935 55.796,31.446 55.755,32.558C55.747,33.253 55.911,34.111 55.615,34.302C55.439,34.416 55.174,34.289 55.153,34.062C55.123,33.1 55.029,32.085 55.555,31.402C55.916,30.935 56.493,30.658 57.087,30.666Z" style="fill:#fff;fill-rule:nonzero;"/>
                <path d="M49.352,31.308C49.386,30.951 49.448,30.6 49.561,30.261C50.19,28.366 52.056,26.993 54.052,26.98C54.066,26.98 54.08,26.981 54.093,26.981C55.752,27.012 57.232,28.498 57.262,30.208C57.265,30.628 57.356,31.105 57.103,31.243C56.922,31.342 56.67,31.205 56.659,30.972C56.659,30.42 56.687,29.846 56.496,29.323C55.991,27.94 54.306,27.293 52.773,27.8C51.275,28.295 50.141,29.708 49.945,31.326C50.449,31.473 50.819,31.947 50.819,32.508C50.819,33.185 50.278,33.736 49.613,33.736C48.947,33.736 48.407,33.185 48.407,32.508C48.407,31.921 48.812,31.43 49.352,31.308Z" style="fill:#fff;fill-rule:nonzero;"/>
                <ellipse cx="49.613" cy="32.508" rx="0.603" ry="0.614" style="fill:#777ec7;"/>
                <ellipse cx="55.453" cy="33.736" rx="0.754" ry="0.768" style="fill:#fff;"/>
                <ellipse cx="58.468" cy="33.736" rx="0.754" ry="0.768" style="fill:#fff;"/>
            </g>
            <path d="M55.837,26.402L51.617,26.402L51.617,28.859C51.617,28.859 51.617,28.859 51.617,28.859C52.88,29.777 54.575,29.777 55.837,28.859C55.837,28.859 55.837,28.859 55.837,28.859L55.837,26.402Z" style="fill:#a35f47;"/>
            <path d="M57.345,22.41C57.345,20.375 55.725,18.726 53.727,18.726C53.727,18.726 53.727,18.726 53.727,18.726C51.73,18.726 50.11,20.375 50.11,22.41C50.11,23.017 50.11,23.646 50.11,24.253C50.11,26.288 51.73,27.937 53.727,27.937C53.727,27.937 53.727,27.937 53.727,27.937C55.725,27.937 57.345,26.288 57.345,24.253C57.345,23.646 57.345,23.017 57.345,22.41Z" style="fill:#f3775b;"/>
        </g>
        <path d="M53.843,17.634C52.763,17.634 52.09,17.972 51.588,18.34C50.774,18.936 50.915,19.607 50.778,19.607C50.64,19.607 50.644,19.137 50.644,19.137C49.749,19.607 49.866,20.938 50.096,23.192C50.35,21.519 50.627,21.085 51.126,20.916C51.577,20.764 52.202,20.828 52.823,20.892C53.174,20.929 53.524,20.965 53.839,20.962C54.472,20.956 54.911,20.784 55.472,20.784C57.128,20.784 57.031,21.817 57.361,23.192C57.472,22.627 57.524,22.071 57.525,21.553L57.525,21.53C57.523,20.222 57.196,19.16 56.691,18.795C56.066,18.345 54.923,17.634 53.843,17.634Z" style="fill:#1f235c;fill-rule:nonzero;"/>
    </g>
    <g>
        <g>
            <g>
                <ellipse cx="9.815" cy="20.353" rx="4.147" ry="1.484" style="fill:#f1765a;"/>
                <rect x="5.668" y="17.95" width="8.294" height="2.449" style="fill:#f1765a;"/>
                <ellipse cx="9.815" cy="17.962" rx="4.147" ry="1.484" style="fill:#fac9be;"/>
            </g>
        </g>
        <g>
            <ellipse cx="14.551" cy="24.401" rx="4.147" ry="1.484" style="fill:#d5d6e6;fill-opacity:0.75;"/>
            <g>
                <ellipse cx="12.744" cy="24.525" rx="4.147" ry="1.484" style="fill:#f1765a;"/>
                <rect x="8.597" y="22.122" width="8.294" height="2.449" style="fill:#f1765a;"/>
                <ellipse cx="12.744" cy="22.134" rx="4.147" ry="1.484" style="fill:#fac9be;"/>
            </g>
        </g>
    </g>
    <g>
        <path d="M40.581,62.305C40.581,62.305 42.412,62.736 43.468,62.985C43.941,63.096 44.437,63.055 44.885,62.866C46.523,62.178 50.674,60.433 52.835,59.524C53.113,59.408 53.308,59.151 53.344,58.851C53.381,58.552 53.255,58.256 53.013,58.075C50.281,56.033 43.74,51.146 43.74,51.146L40.581,62.305Z" style="fill:#dadae8;"/>
        <path d="M11.412,52.654C11.165,52.726 10.996,52.954 10.997,53.212C10.999,53.47 11.171,53.695 11.42,53.765C14.031,54.494 18.587,55.767 20.684,56.353C21.412,56.556 22.182,56.55 22.906,56.334C23.792,56.07 25.065,55.691 26.169,55.362C26.461,55.275 26.659,55.005 26.655,54.701C26.651,54.397 26.446,54.132 26.152,54.053C22.54,53.08 15.975,51.312 15.975,51.312C15.975,51.312 13.327,52.091 11.412,52.654Z" style="fill:#7e80b0;fill-opacity:0.33;"/>
        <path d="M20.998,50.243C21.789,49.883 22.784,50.927 21.294,51.617C18.839,52.767 16.226,53.944 14.471,55.783C14.017,56.259 13.773,56.716 14.296,56.904C14.823,57.094 16.044,57.135 17.023,57.028C23.086,56.368 29.122,52.932 34.117,53.966C34.981,54.145 36.023,54.598 35.963,55.697C35.891,57.013 32.795,57.866 34.257,56.076C34.476,55.807 34.551,55.479 33.917,55.328C30.713,54.564 26.93,56.087 23.833,56.988C20.834,57.856 17.714,58.773 14.673,58.454C13.755,58.358 12.703,58.021 12.534,57.021C12.259,55.39 13.974,54.284 15.105,53.489C16.938,52.201 18.962,51.171 20.998,50.243Z" style="fill:#8c90c9;"/>
        <path d="M21.34,50.558C21.34,50.558 14.662,53.522 13.372,55.708C11.424,59.01 20.129,57.239 24.991,55.647C29.895,54.041 34.471,53.826 35.041,55.082" style="fill:none;stroke:#ecedf5;stroke-opacity:0.5;stroke-width:0.48px;stroke-linecap:round;stroke-miterlimit:1;"/>
        <path d="M11.049,53.654C9.873,53.439 8.965,51.725 8.697,49.962C8.594,49.286 8.685,48.067 8.753,47.369C8.776,47.11 8.975,46.901 9.233,46.865C9.563,47 9.947,47.081 9.947,47.079C10.064,46.248 11.175,45.645 11.949,45.438C12.374,45.324 12.778,45.342 13.143,45.473L22.237,47.838L20.22,56.117L11.048,53.659L11.049,53.654Z" style="fill:#f3775b;"/>
        <clipPath id="_clip5">
            <path d="M11.049,53.654C9.873,53.439 8.965,51.725 8.697,49.962C8.594,49.286 8.685,48.067 8.753,47.369C8.776,47.11 8.975,46.901 9.233,46.865C9.563,47 9.947,47.081 9.947,47.079C10.064,46.248 11.175,45.645 11.949,45.438C12.374,45.324 12.778,45.342 13.143,45.473L22.237,47.838L20.22,56.117L11.048,53.659L11.049,53.654Z"/>
        </clipPath>
        <g clip-path="url(#_clip5)">
            <path d="M9.483,45.667L22.552,49.044L24.728,46.372L11.597,43.46L9.483,45.667Z" style="fill:#fac9be;fill-opacity:0.55;"/>
            <path d="M6.998,46.939L17.704,49.63L17.604,48.862L7.498,46.423L6.998,46.939Z" style="fill:#f7a491;"/>
            <path d="M9.463,46.681C9.463,46.681 14.171,47.947 16.606,48.603C16.964,48.699 17.268,48.934 17.452,49.255C17.636,49.576 17.684,49.957 17.586,50.314C17.408,50.883 17.355,51.645 17.53,52.548C17.957,54.745 18.858,55.462 20.124,56.21" style="fill:none;stroke:#b85050;stroke-width:0.52px;stroke-linecap:round;stroke-linejoin:round;stroke-miterlimit:1;"/>
            <path d="M6.998,50.151L17.704,52.863C17.48,52.206 17.419,51.285 17.704,49.808L19.305,50.236L22.83,58.354L6.555,54.818L6.998,50.151Z" style="fill:#b85050;fill-opacity:0.38;"/>
        </g>
        <path d="M21.187,47.843C22.807,47.409 24.121,48.9 24.121,51.17C24.121,53.441 22.807,55.636 21.187,56.07C19.568,56.504 18.253,55.013 18.253,52.743C18.253,50.472 19.568,48.277 21.187,47.843Z" style="fill:#5f64b9;"/>
        <clipPath id="_clip6">
            <path d="M21.187,47.843C22.807,47.409 24.121,48.9 24.121,51.17C24.121,53.441 22.807,55.636 21.187,56.07C19.568,56.504 18.253,55.013 18.253,52.743C18.253,50.472 19.568,48.277 21.187,47.843Z"/>
        </clipPath>
        <g clip-path="url(#_clip6)">
            <path d="M19.873,44.403C21.939,43.85 23.616,45.855 23.616,48.879C23.616,51.903 21.939,54.807 19.873,55.361C17.807,55.915 16.13,53.909 16.13,50.885C16.13,47.861 17.807,44.957 19.873,44.403Z" style="fill:#2b307e;"/>
        </g>
        <g>
            <path d="M32.061,49.696C32.061,49.696 32.327,52.708 32.504,54.712C32.603,55.833 33.134,56.872 33.985,57.609C35.363,58.802 37.519,60.671 38.998,61.952C39.987,62.809 41.385,63.013 42.578,62.474C44.593,61.564 47.663,60.178 49.302,59.438C50.025,59.111 50.602,58.529 50.921,57.802C51.203,57.162 51.646,56.067 51.646,56.067C51.646,56.067 32.052,49.498 32.061,49.696Z" style="fill:#a4a6cf;"/>
            <clipPath id="_clip7">
                <path d="M32.061,49.696C32.061,49.696 32.327,52.708 32.504,54.712C32.603,55.833 33.134,56.872 33.985,57.609C35.363,58.802 37.519,60.671 38.998,61.952C39.987,62.809 41.385,63.013 42.578,62.474C44.593,61.564 47.663,60.178 49.302,59.438C50.025,59.111 50.602,58.529 50.921,57.802C51.203,57.162 51.646,56.067 51.646,56.067C51.646,56.067 32.052,49.498 32.061,49.696Z"/>
            </clipPath>
            <g clip-path="url(#_clip7)">
                <path d="M40.188,58.937L38.851,63.873L45.623,63.539L52.143,59.409L53.128,54.836L40.188,58.937Z" style="fill:#5558a4;"/>
            </g>
            <path d="M33.355,47.785C32.753,47.98 32.285,48.457 32.1,49.062C31.916,49.668 32.038,50.325 32.429,50.823C34.274,53.175 37.194,56.898 39.037,59.246C40.042,60.527 41.783,60.97 43.277,60.324C45.48,59.372 48.633,58.01 50.697,57.118C51.19,56.906 51.552,56.472 51.673,55.95C51.795,55.427 51.661,54.879 51.313,54.471C49.379,52.203 46.03,48.276 44.214,46.146C43.451,45.252 42.224,44.905 41.107,45.268C39.045,45.937 35.692,47.026 33.355,47.785Z" style="fill:#e7e7f4;"/>
            <clipPath id="_clip8">
                <path d="M33.355,47.785C32.753,47.98 32.285,48.457 32.1,49.062C31.916,49.668 32.038,50.325 32.429,50.823C34.274,53.175 37.194,56.898 39.037,59.246C40.042,60.527 41.783,60.97 43.277,60.324C45.48,59.372 48.633,58.01 50.697,57.118C51.19,56.906 51.552,56.472 51.673,55.95C51.795,55.427 51.661,54.879 51.313,54.471C49.379,52.203 46.03,48.276 44.214,46.146C43.451,45.252 42.224,44.905 41.107,45.268C39.045,45.937 35.692,47.026 33.355,47.785Z"/>
            </clipPath>
            <g clip-path="url(#_clip8)">
                <path d="M54.367,54.811C54.367,54.811 53.39,57 53.172,56.778C52.725,56.325 53.19,55.417 52.735,54.972C51.476,53.743 49.691,51.624 47.986,51.261C45.848,50.806 43.996,51.867 42.73,51.692C41.384,51.505 40.356,50.878 39.006,50.75C37.507,50.607 36.173,50.464 34.675,50.273C33.715,50.151 31.927,49.747 31.149,50.481C30.63,50.971 30.691,52.111 30.642,52.785C30.508,54.611 30.636,56.47 30.521,58.305C30.426,59.834 30.082,62.502 30.619,63.971C30.914,64.778 31.778,64.958 32.506,65.047C34.098,65.241 35.704,65.083 37.278,64.967C38.715,64.861 40.132,64.656 41.557,64.474C42.605,64.34 43.653,64.206 44.696,64.045C45.473,63.925 46.245,63.778 47.003,63.584C50.221,62.758 54.334,61.17 54.678,57.236C54.751,56.403 54.727,55.604 54.367,54.811Z" style="fill:#d1d2e8;"/>
            </g>
            <path d="M35.144,51.303C34.806,50.876 34.697,50.312 34.851,49.79C35.004,49.268 35.401,48.853 35.916,48.677C37.386,48.173 39.287,47.522 40.68,47.044C41.82,46.653 43.082,47.002 43.859,47.923C45.083,49.371 46.907,51.53 48.088,52.929C48.357,53.247 48.456,53.676 48.353,54.08C48.251,54.484 47.96,54.814 47.571,54.965C46.042,55.563 43.786,56.444 42.19,57.067C41.058,57.51 39.769,57.16 39.016,56.206C37.91,54.806 36.305,52.774 35.144,51.303Z" style="fill:#2b307e;"/>
            <clipPath id="_clip9">
                <path d="M35.144,51.303C34.806,50.876 34.697,50.312 34.851,49.79C35.004,49.268 35.401,48.853 35.916,48.677C37.386,48.173 39.287,47.522 40.68,47.044C41.82,46.653 43.082,47.002 43.859,47.923C45.083,49.371 46.907,51.53 48.088,52.929C48.357,53.247 48.456,53.676 48.353,54.08C48.251,54.484 47.96,54.814 47.571,54.965C46.042,55.563 43.786,56.444 42.19,57.067C41.058,57.51 39.769,57.16 39.016,56.206C37.91,54.806 36.305,52.774 35.144,51.303Z"/>
            </clipPath>
            <g clip-path="url(#_clip9)">
                <path d="M37.681,45.275C37.642,45.345 37.722,45.143 37.722,45.138C37.732,45.051 37.796,44.998 37.895,44.918C38.115,44.741 38.369,44.614 38.613,44.473C39.382,44.031 40.144,43.58 40.942,43.188C42.624,42.362 46.969,39.943 48.796,40.139C50.409,40.312 50.737,41.593 51.193,42.945C51.97,45.245 52.578,47.552 53.191,49.897C53.252,50.13 54.218,53.106 54.218,53.107C54.209,53.191 54.007,53.004 53.992,52.993C53.807,52.863 53.587,52.777 53.385,52.675C52.841,52.402 51.9,53.74 51.415,53.379C49.321,51.824 47.598,50.908 45.755,50.808C44.032,50.715 42.99,51.559 41.305,51.619C38.938,51.702 36.028,49.765 32.948,49.802C32.377,49.809 31.127,48.679 30.987,48.038C30.822,47.284 32.774,45.477 33.277,45.034C34.005,44.393 34.699,43.703 35.505,43.156" style="fill:#fff;fill-opacity:0.35;"/>
            </g>
            <path d="M46.215,56.691C46.045,56.62 45.857,56.611 45.716,56.666C45.333,56.817 44.534,57.132 43.903,57.381C43.722,57.452 43.634,57.6 43.674,57.768C43.713,57.935 43.873,58.095 44.092,58.187C44.092,58.187 44.092,58.187 44.092,58.187C44.262,58.258 44.45,58.267 44.591,58.212C44.974,58.061 45.773,57.746 46.404,57.497C46.585,57.426 46.673,57.278 46.633,57.11C46.594,56.943 46.434,56.783 46.215,56.691C46.215,56.691 46.215,56.691 46.215,56.691Z" style="fill:#be88be;"/>
            <path d="M49.665,55.344C49.495,55.273 49.306,55.264 49.166,55.319C48.782,55.47 47.984,55.785 47.353,56.034C47.172,56.106 47.084,56.253 47.123,56.421C47.162,56.588 47.322,56.748 47.541,56.84C47.541,56.84 47.541,56.84 47.541,56.84C47.711,56.911 47.9,56.92 48.041,56.865C48.424,56.714 49.222,56.399 49.853,56.15C50.034,56.079 50.122,55.931 50.083,55.763C50.044,55.596 49.884,55.436 49.665,55.344C49.665,55.344 49.665,55.344 49.665,55.344Z" style="fill:#be88be;"/>
        </g>
    </g>
</svg>
