<?xml version="1.0" encoding="UTF-8" standalone="no"?>
<!DOCTYPE svg PUBLIC "-//W3C//DTD SVG 1.1//EN" "http://www.w3.org/Graphics/SVG/1.1/DTD/svg11.dtd">
<svg width="100%" height="100%" viewBox="0 0 65 64" version="1.1" xmlns="http://www.w3.org/2000/svg" xmlns:xlink="http://www.w3.org/1999/xlink" xml:space="preserve" xmlns:serif="http://www.serif.com/" style="fill-rule:evenodd;clip-rule:evenodd;stroke-linecap:round;stroke-linejoin:round;stroke-miterlimit:1.5;">
    <rect id="Pill" x="0.738" y="0" width="64" height="64" style="fill:none;"/>
    <g>
        <path d="M55.809,10.421C53.773,8.385 51.012,7.242 48.134,7.242C45.255,7.242 42.494,8.385 40.459,10.421C32.15,18.729 18.976,31.903 10.668,40.211C8.632,42.247 7.489,45.008 7.489,47.886C7.489,50.765 8.632,53.526 10.668,55.561C10.668,55.561 10.668,55.562 10.668,55.562C12.704,57.597 15.465,58.741 18.343,58.741C21.222,58.741 23.983,57.597 26.018,55.562C34.327,47.253 47.501,34.079 55.809,25.771C57.845,23.735 58.988,20.975 58.988,18.096C58.988,15.217 57.845,12.457 55.809,10.421C55.809,10.421 55.809,10.421 55.809,10.421Z" style="fill:none;"/>
        <clipPath id="_clip1">
            <path d="M55.809,10.421C53.773,8.385 51.012,7.242 48.134,7.242C45.255,7.242 42.494,8.385 40.459,10.421C32.15,18.729 18.976,31.903 10.668,40.211C8.632,42.247 7.489,45.008 7.489,47.886C7.489,50.765 8.632,53.526 10.668,55.561C10.668,55.561 10.668,55.562 10.668,55.562C12.704,57.597 15.465,58.741 18.343,58.741C21.222,58.741 23.983,57.597 26.018,55.562C34.327,47.253 47.501,34.079 55.809,25.771C57.845,23.735 58.988,20.975 58.988,18.096C58.988,15.217 57.845,12.457 55.809,10.421C55.809,10.421 55.809,10.421 55.809,10.421Z"/>
        </clipPath>
        <g clip-path="url(#_clip1)">
            <path d="M55.809,10.421C53.773,8.385 51.012,7.242 48.134,7.242C45.255,7.242 42.494,8.385 40.459,10.421C32.15,18.729 18.976,31.903 10.668,40.211C8.632,42.247 7.489,45.008 7.489,47.886C7.489,50.765 8.632,53.526 10.668,55.561C10.668,55.561 10.668,55.562 10.668,55.562C12.704,57.597 15.465,58.741 18.343,58.741C21.222,58.741 23.983,57.597 26.018,55.562C34.327,47.253 47.501,34.079 55.809,25.771C57.845,23.735 58.988,20.975 58.988,18.096C58.988,15.217 57.845,12.457 55.809,10.421C55.809,10.421 55.809,10.421 55.809,10.421Z" style="fill:#2b307f;fill-opacity:0.01;"/>
            <path d="M55.809,10.421C53.773,8.385 51.012,7.242 48.134,7.242C45.255,7.242 42.494,8.385 40.459,10.421C32.15,18.729 18.976,31.903 10.668,40.211C8.632,42.247 7.489,45.008 7.489,47.886C7.489,50.765 8.632,53.526 10.668,55.561C10.668,55.561 10.668,55.562 10.668,55.562C12.704,57.597 15.465,58.741 18.343,58.741C21.222,58.741 23.983,57.597 26.018,55.562C34.327,47.253 47.501,34.079 55.809,25.771C57.845,23.735 58.988,20.975 58.988,18.096C58.988,15.217 57.845,12.457 55.809,10.421C55.809,10.421 55.809,10.421 55.809,10.421Z" style="fill:#2b307e;"/>
            <path d="M23.431,25L0.738,48L19.563,64.825L40.738,43C40.738,43 41.098,35.976 36.084,30.881C30.596,25.303 23.431,25 23.431,25Z" style="fill:none;"/>
            <clipPath id="_clip2">
                <path d="M23.431,25L0.738,48L19.563,64.825L40.738,43C40.738,43 41.098,35.976 36.084,30.881C30.596,25.303 23.431,25 23.431,25Z"/>
            </clipPath>
            <g clip-path="url(#_clip2)">
                <path d="M55.809,10.421C53.773,8.385 51.012,7.242 48.134,7.242C45.255,7.242 42.494,8.385 40.459,10.421C32.15,18.729 18.976,31.903 10.668,40.211C8.632,42.247 7.489,45.008 7.489,47.886C7.489,50.765 8.632,53.526 10.668,55.561C10.668,55.561 10.668,55.562 10.668,55.562C12.704,57.597 15.465,58.741 18.343,58.741C21.222,58.741 23.983,57.597 26.018,55.562C34.327,47.253 47.501,34.079 55.809,25.771C57.845,23.735 58.988,20.975 58.988,18.096C58.988,15.217 57.845,12.457 55.809,10.421C55.809,10.421 55.809,10.421 55.809,10.421Z" style="fill:#f3775b;"/>
            </g>
            <path d="M55.149,9.813C55.375,10.005 55.595,10.207 55.809,10.421C55.809,10.421 55.809,10.421 55.809,10.421C60.048,14.66 60.048,21.532 55.809,25.771C47.501,34.079 34.327,47.253 26.018,55.562C21.78,59.8 14.907,59.8 10.668,55.562C10.668,55.562 10.668,55.561 10.668,55.561C9.332,54.225 8.417,52.627 7.923,50.933C12.188,54.553 18.588,54.35 22.614,50.325C30.922,42.017 44.096,28.843 52.404,20.534C55.307,17.632 56.222,13.494 55.149,9.813Z" style="fill:#2b307e;fill-opacity:0.24;"/>
            <path d="M15.272,42.692L44.395,13.569L15.272,42.692Z" style="fill:#2b307f;fill-opacity:0.15;stroke:#fff;stroke-width:2.5px;"/>
        </g>
    </g>
</svg>
