<?xml version="1.0" encoding="UTF-8" standalone="no"?>
<!DOCTYPE svg PUBLIC "-//W3C//DTD SVG 1.1//EN" "http://www.w3.org/Graphics/SVG/1.1/DTD/svg11.dtd">
<svg width="100%" height="100%" viewBox="0 0 64 65" version="1.1" xmlns="http://www.w3.org/2000/svg" xmlns:xlink="http://www.w3.org/1999/xlink" xml:space="preserve" xmlns:serif="http://www.serif.com/" style="fill-rule:evenodd;clip-rule:evenodd;stroke-linecap:round;stroke-linejoin:round;stroke-miterlimit:1.5;">
    <rect id="Preparedness-PE" x="0" y="0.853" width="64" height="64" style="fill:none;"/>
    <path d="M52,16.853C52,15.262 51.368,13.736 50.243,12.611C49.117,11.485 47.591,10.853 46,10.853C38.5,10.853 25.731,10.853 18.158,10.853C16.525,10.853 14.959,11.502 13.804,12.657C12.649,13.812 12,15.378 12,17.012C12,26.664 12,45.241 12,54.818C12,58.151 14.702,60.853 18.036,60.853C25.583,60.853 38.428,60.853 45.972,60.853C49.301,60.853 52,58.154 52,54.825C52,45.199 52,26.462 52,16.853Z" style="fill:#f3775b;"/>
    <rect x="12" y="10.853" width="40" height="50" style="fill:#dde0e3;"/>
    <path d="M41.5,9.853C41.5,7.092 39.261,4.853 36.5,4.853C33.722,4.853 30.278,4.853 27.5,4.853C24.739,4.853 22.5,7.092 22.5,9.853C22.5,12.353 22.5,14.853 22.5,14.853L41.5,14.853C41.5,14.853 41.5,12.353 41.5,9.853Z" style="fill:#3bbc53;"/>
    <g>
        <path d="M18.5,39.51L20.5,41.51L26.157,35.853" style="fill:none;stroke:#3bbc53;stroke-width:2px;"/>
        <rect x="29.5" y="38.353" width="16" height="2" style="fill:#6b737d;"/>
    </g>
    <g>
        <path d="M18.5,27.01L20.5,29.01L26.157,23.353" style="fill:none;stroke:#3bbc53;stroke-width:2px;"/>
        <rect x="29.5" y="25.853" width="16" height="2" style="fill:#6b737d;"/>
    </g>
    <g>
        <path d="M18.5,50.542L20.5,52.553L26.157,46.864" style="fill:none;stroke:#3bbc53;stroke-width:2px;"/>
        <rect x="29.5" y="49.378" width="16" height="2.011" style="fill:#6b737d;"/>
    </g>
    <path d="M58.649,32.489C59.12,32.017 59.385,31.378 59.385,30.711C59.385,30.044 59.12,29.405 58.649,28.933C58.648,28.933 58.648,28.933 58.648,28.932C58.176,28.461 57.537,28.196 56.87,28.196C56.203,28.196 55.564,28.461 55.092,28.932C49.311,34.714 31.414,52.61 31.414,52.61L30.364,57.217L34.971,56.167C34.971,56.167 52.868,38.27 58.649,32.489Z" style="fill:#3bbc53;"/>
    <path d="M58.348,49.502C58.839,49.34 59.246,48.991 59.479,48.53C59.712,48.068 59.752,47.534 59.591,47.043C59.591,47.042 59.59,47.041 59.59,47.04C59.429,46.549 59.079,46.143 58.618,45.909C58.157,45.676 57.622,45.636 57.131,45.797C51.117,47.773 32.509,53.887 32.509,53.887L30.176,56.705L33.726,57.591C33.726,57.591 52.334,51.477 58.348,49.502Z" style="fill:#2b307e;fill-opacity:0.239216;"/>
</svg>
