<?xml version="1.0" encoding="UTF-8" standalone="no"?>
<!DOCTYPE svg PUBLIC "-//W3C//DTD SVG 1.1//EN" "http://www.w3.org/Graphics/SVG/1.1/DTD/svg11.dtd">
<svg width="100%" height="100%" viewBox="0 0 64 65" version="1.1" xmlns="http://www.w3.org/2000/svg" xmlns:xlink="http://www.w3.org/1999/xlink" xml:space="preserve" xmlns:serif="http://www.serif.com/" style="fill-rule:evenodd;clip-rule:evenodd;stroke-linecap:round;stroke-linejoin:round;stroke-miterlimit:1.5;">
    <rect id="Prepareness" x="0" y="0.728" width="64" height="64" style="fill:none;"/>
    <path d="M52,16.728C52,15.137 51.368,13.611 50.243,12.486C49.117,11.361 47.591,10.728 46,10.728C38.5,10.728 25.731,10.728 18.158,10.728C16.525,10.728 14.959,11.377 13.804,12.532C12.649,13.687 12,15.254 12,16.887C12,26.54 12,45.117 12,54.693C12,58.026 14.702,60.728 18.036,60.728C25.583,60.728 38.428,60.728 45.972,60.728C49.301,60.728 52,58.03 52,54.701C52,45.074 52,26.338 52,16.728Z" style="fill:#f3775b;"/>
    <rect x="12" y="10.728" width="40" height="50" style="fill:#f3775b;"/>
    <path d="M41.5,9.728C41.5,6.967 39.261,4.728 36.5,4.728C33.722,4.728 30.278,4.728 27.5,4.728C24.739,4.728 22.5,6.967 22.5,9.728C22.5,12.228 22.5,14.728 22.5,14.728L41.5,14.728C41.5,14.728 41.5,12.228 41.5,9.728Z" style="fill:#2b307e;"/>
    <g>
        <path d="M18.5,39.385L20.5,41.385L26.157,35.728" style="fill:none;stroke:#fff;stroke-width:2px;"/>
        <rect x="29.5" y="38.228" width="16" height="2" style="fill:#fff;"/>
    </g>
    <g>
        <path d="M18.5,26.885L20.5,28.885L26.157,23.228" style="fill:none;stroke:#fff;stroke-width:2px;"/>
        <rect x="29.5" y="25.728" width="16" height="2" style="fill:#fff;"/>
    </g>
    <g>
        <path d="M18.5,50.417L20.5,52.428L26.157,46.74" style="fill:none;stroke:#fff;stroke-width:2px;"/>
        <rect x="29.5" y="49.254" width="16" height="2.011" style="fill:#fff;"/>
    </g>
    <path d="M58.649,32.364C59.12,31.893 59.385,31.253 59.385,30.586C59.385,29.92 59.12,29.28 58.649,28.809C58.648,28.808 58.648,28.808 58.648,28.808C58.176,28.336 57.537,28.071 56.87,28.071C56.203,28.071 55.564,28.336 55.092,28.808C49.311,34.589 31.414,52.486 31.414,52.486L30.364,57.092L34.971,56.042C34.971,56.042 52.868,38.145 58.649,32.364Z" style="fill:#2b307e;"/>
    <path d="M58.348,49.377C58.839,49.216 59.246,48.866 59.479,48.405C59.712,47.944 59.752,47.409 59.591,46.918C59.591,46.917 59.59,46.916 59.59,46.915C59.429,46.425 59.079,46.018 58.618,45.785C58.157,45.552 57.622,45.511 57.131,45.673C51.117,47.649 32.509,53.762 32.509,53.762L30.176,56.581L33.726,57.466C33.726,57.466 52.334,51.353 58.348,49.377Z" style="fill:#2b307e;fill-opacity:0.239216;"/>
</svg>
