<?xml version="1.0" encoding="UTF-8" standalone="no"?>
<!DOCTYPE svg PUBLIC "-//W3C//DTD SVG 1.1//EN" "http://www.w3.org/Graphics/SVG/1.1/DTD/svg11.dtd">
<svg width="100%" height="100%" viewBox="0 0 64 64" version="1.1" xmlns="http://www.w3.org/2000/svg" xmlns:xlink="http://www.w3.org/1999/xlink" xml:space="preserve" xmlns:serif="http://www.serif.com/" style="fill-rule:evenodd;clip-rule:evenodd;stroke-linecap:round;stroke-linejoin:round;stroke-miterlimit:1.5;">
    <rect id="Prepareness" x="0" y="0" width="64" height="64" style="fill:none;"/>
    <path d="M52,16C52,14.409 51.368,12.883 50.243,11.757C49.117,10.632 47.591,10 46,10C38.5,10 25.731,10 18.158,10C16.525,10 14.959,10.649 13.804,11.804C12.649,12.959 12,14.525 12,16.158C12,25.811 12,44.388 12,53.964C12,57.298 14.702,60 18.036,60C25.583,60 38.428,60 45.972,60C49.301,60 52,57.301 52,53.972C52,44.345 52,25.609 52,16Z" style="fill:#f3775b;"/>
    <rect x="12" y="10" width="40" height="50" style="fill:#f3775b;"/>
    <path d="M41.5,9C41.5,6.239 39.261,4 36.5,4C33.722,4 30.278,4 27.5,4C24.739,4 22.5,6.239 22.5,9C22.5,11.5 22.5,14 22.5,14L41.5,14C41.5,14 41.5,11.5 41.5,9Z" style="fill:#2b307e;"/>
    <g>
        <path d="M18.5,38.657L20.5,40.657L26.157,35" style="fill:none;stroke:#fff;stroke-width:2px;"/>
        <rect x="29.5" y="37.5" width="16" height="2" style="fill:#fff;"/>
    </g>
    <g>
        <path d="M18.5,26.157L20.5,28.157L26.157,22.5" style="fill:none;stroke:#fff;stroke-width:2px;"/>
        <rect x="29.5" y="25" width="16" height="2" style="fill:#fff;"/>
    </g>
    <g>
        <path d="M18.5,49.689L20.5,51.7L26.157,46.011" style="fill:none;stroke:#fff;stroke-width:2px;"/>
        <rect x="29.5" y="48.525" width="16" height="2.011" style="fill:#fff;"/>
    </g>
    <path d="M58.649,31.636C59.12,31.164 59.385,30.525 59.385,29.858C59.385,29.191 59.12,28.552 58.649,28.08C58.648,28.08 58.648,28.08 58.648,28.079C58.176,27.608 57.537,27.343 56.87,27.343C56.203,27.343 55.564,27.608 55.092,28.079C49.311,33.86 31.414,51.757 31.414,51.757L30.364,56.364L34.971,55.314C34.971,55.314 52.868,37.417 58.649,31.636Z" style="fill:#2b307e;"/>
    <path d="M58.348,48.648C58.839,48.487 59.246,48.138 59.479,47.676C59.712,47.215 59.752,46.681 59.591,46.19C59.591,46.189 59.59,46.188 59.59,46.187C59.429,45.696 59.079,45.289 58.618,45.056C58.157,44.823 57.622,44.783 57.131,44.944C51.117,46.92 32.509,53.034 32.509,53.034L30.176,55.852L33.726,56.738C33.726,56.738 52.334,50.624 58.348,48.648Z" style="fill:#2b307e;fill-opacity:0.239216;"/>
</svg>
