<?xml version="1.0" encoding="UTF-8" standalone="no"?>
<!DOCTYPE svg PUBLIC "-//W3C//DTD SVG 1.1//EN" "http://www.w3.org/Graphics/SVG/1.1/DTD/svg11.dtd">
<svg width="100%" height="100%" viewBox="0 0 64 65" version="1.1" xmlns="http://www.w3.org/2000/svg" xmlns:xlink="http://www.w3.org/1999/xlink" xml:space="preserve" xmlns:serif="http://www.serif.com/" style="fill-rule:evenodd;clip-rule:evenodd;stroke-linecap:round;stroke-linejoin:round;stroke-miterlimit:1.5;">
    <rect id="Preparedness-muted" x="0" y="0.732" width="64" height="64" style="fill:none;"/>
    <path d="M52,16.732C52,15.141 51.368,13.615 50.243,12.489C49.117,11.364 47.591,10.732 46,10.732C38.5,10.732 25.731,10.732 18.158,10.732C16.525,10.732 14.959,11.381 13.804,12.536C12.649,13.691 12,15.257 12,16.89C12,26.543 12,45.12 12,54.696C12,58.03 14.702,60.732 18.036,60.732C25.583,60.732 38.428,60.732 45.972,60.732C49.301,60.732 52,58.033 52,54.704C52,45.077 52,26.341 52,16.732Z" style="fill:#f3775b;"/>
    <path d="M52,16.732C52,15.141 51.368,13.615 50.243,12.489C49.117,11.364 47.591,10.732 46,10.732C38.5,10.732 25.731,10.732 18.158,10.732C16.525,10.732 14.959,11.381 13.804,12.536C12.649,13.691 12,15.257 12,16.89C12,26.543 12,45.12 12,54.696C12,58.03 14.702,60.732 18.036,60.732C25.583,60.732 38.428,60.732 45.972,60.732C49.301,60.732 52,58.033 52,54.704C52,45.077 52,26.341 52,16.732Z" style="fill:#c7ccd1;"/>
    <path d="M41.5,14.232C41.5,8.985 37.247,4.732 32,4.732C31.999,4.732 31.999,4.732 31.998,4.732C26.752,4.732 22.5,8.984 22.5,14.23C22.5,14.548 22.5,14.732 22.5,14.732L41.5,14.732C41.5,14.732 41.5,14.549 41.5,14.232Z" style="fill:#324b95;"/>
    <g>
        <path d="M18.5,39.389L20.5,41.389L26.157,35.732" style="fill:none;stroke:#fff;stroke-width:2px;"/>
        <rect x="29.5" y="38.232" width="16" height="2" style="fill:#407bbf;"/>
    </g>
    <g>
        <path d="M18.5,26.889L20.5,28.889L26.157,23.232" style="fill:none;stroke:#fff;stroke-width:2px;"/>
        <rect x="29.5" y="25.732" width="16" height="2" style="fill:#407bbf;"/>
    </g>
    <g>
        <path d="M18.5,50.421L20.5,52.432L26.157,46.743" style="fill:none;stroke:#fff;stroke-width:2px;"/>
        <rect x="29.5" y="49.257" width="16" height="2.011" style="fill:#407bbf;"/>
    </g>
    <path d="M58.649,32.368C59.12,31.896 59.385,31.257 59.385,30.59C59.385,29.923 59.12,29.284 58.649,28.812C58.648,28.812 58.648,28.812 58.648,28.811C58.176,28.34 57.537,28.075 56.87,28.075C56.203,28.075 55.564,28.34 55.092,28.811C49.311,34.592 31.414,52.489 31.414,52.489L30.364,57.096L34.971,56.046C34.971,56.046 52.868,38.149 58.649,32.368Z" style="fill:#324b95;"/>
    <path d="M58.348,49.38C58.839,49.219 59.246,48.87 59.479,48.408C59.712,47.947 59.752,47.413 59.591,46.922C59.591,46.921 59.59,46.92 59.59,46.919C59.429,46.428 59.079,46.021 58.618,45.788C58.157,45.555 57.622,45.515 57.131,45.676C51.117,47.652 32.509,53.766 32.509,53.766L30.176,56.584L33.726,57.47C33.726,57.47 52.334,51.356 58.348,49.38Z" style="fill:#2b307e;fill-opacity:0.239216;"/>
</svg>
