<?xml version="1.0" encoding="UTF-8" standalone="no"?>
<!DOCTYPE svg PUBLIC "-//W3C//DTD SVG 1.1//EN" "http://www.w3.org/Graphics/SVG/1.1/DTD/svg11.dtd">
<svg width="100%" height="100%" viewBox="0 0 64 65" version="1.1" xmlns="http://www.w3.org/2000/svg" xmlns:xlink="http://www.w3.org/1999/xlink" xml:space="preserve" xmlns:serif="http://www.serif.com/" style="fill-rule:evenodd;clip-rule:evenodd;stroke-linecap:round;stroke-miterlimit:1;">
    <rect id="Radio" x="0" y="0.961" width="64" height="64" style="fill:none;"/>
    <clipPath id="_clip1">
        <rect x="0" y="0.961" width="64" height="64"/>
    </clipPath>
    <g clip-path="url(#_clip1)">
        <path d="M10.056,0.415L-12,12.688L10.056,24.961L32.113,12.688L10.056,0.415ZM54.189,0.415L32.132,12.688L54.189,24.961L76.245,12.688L54.189,0.415Z" style="fill:none;"/>
        <clipPath id="_clip2">
            <path d="M10.056,0.415L-12,12.688L10.056,24.961L32.113,12.688L10.056,0.415ZM54.189,0.415L32.132,12.688L54.189,24.961L76.245,12.688L54.189,0.415Z"/>
        </clipPath>
        <g clip-path="url(#_clip2)">
            <g>
                <path d="M32.152,-8.268L32.289,-8.267L32.425,-8.265L32.56,-8.261L32.696,-8.258L32.831,-8.253L32.967,-8.247L33.102,-8.241L33.236,-8.233L33.371,-8.225L33.505,-8.216L33.639,-8.206L33.773,-8.195L33.907,-8.184L34.04,-8.171L34.173,-8.158L34.306,-8.144L34.439,-8.129L34.572,-8.114L34.704,-8.097L34.836,-8.08L34.967,-8.062L35.099,-8.043L35.23,-8.023L35.361,-8.002L35.492,-7.981L35.622,-7.959L35.752,-7.936L35.882,-7.912L36.012,-7.888L36.141,-7.862L36.27,-7.836L36.399,-7.809L36.527,-7.782L36.656,-7.753L36.783,-7.724L36.911,-7.694L37.038,-7.663L37.165,-7.632L37.292,-7.6L37.418,-7.566L37.544,-7.533L37.67,-7.498L37.796,-7.463L37.921,-7.427L38.046,-7.39L38.17,-7.352L38.294,-7.314L38.418,-7.275L38.542,-7.235L38.665,-7.194L38.788,-7.153L38.91,-7.111L39.032,-7.068L39.154,-7.025L39.278,-6.98L39.518,-6.89L39.758,-6.797L39.997,-6.701L40.235,-6.602L40.471,-6.5L40.706,-6.395L40.939,-6.288L41.17,-6.178L41.4,-6.065L41.629,-5.949L41.856,-5.831L42.081,-5.71L42.304,-5.587L42.526,-5.461L42.746,-5.332L42.965,-5.201L43.182,-5.067L43.397,-4.931L43.61,-4.792L43.821,-4.651L44.031,-4.507L44.239,-4.361L44.445,-4.212L44.649,-4.061L44.851,-3.908L45.051,-3.752L45.249,-3.594L45.446,-3.434L45.64,-3.271L45.833,-3.106L46.023,-2.939L46.211,-2.77L46.398,-2.598L46.582,-2.424L46.764,-2.248L46.944,-2.07L47.122,-1.89L47.298,-1.708L47.471,-1.523L47.643,-1.337L47.812,-1.148L47.979,-0.957L48.143,-0.765L48.306,-0.57L48.466,-0.374L48.624,-0.175L48.779,0.025L48.932,0.228L49.083,0.432L49.231,0.638L49.377,0.846L49.52,1.056L49.661,1.267L49.8,1.481L49.936,1.696L50.069,1.913L50.2,2.131L50.328,2.352L50.454,2.574L50.577,2.797L50.697,3.022L50.815,3.249L50.93,3.478L51.043,3.708L51.153,3.939L51.26,4.173L51.364,4.407L51.465,4.643L51.564,4.881L51.66,5.12L51.753,5.361L51.842,5.601L51.887,5.724L51.93,5.846L51.973,5.968L52.015,6.09L52.056,6.213L52.096,6.336L52.136,6.46L52.175,6.584L52.213,6.708L52.25,6.832L52.287,6.957L52.323,7.082L52.358,7.208L52.392,7.333L52.426,7.459L52.459,7.586L52.491,7.712L52.522,7.839L52.553,7.967L52.583,8.094L52.612,8.222L52.64,8.35L52.667,8.479L52.694,8.607L52.72,8.736L52.745,8.865L52.769,8.995L52.793,9.125L52.816,9.255L52.838,9.385L52.859,9.516L52.879,9.647L52.899,9.778L52.917,9.909L52.935,10.041L52.952,10.173L52.969,10.305L52.984,10.437L52.999,10.57L53.013,10.702L53.026,10.836L53.038,10.969L53.049,11.102L53.06,11.236L53.069,11.37L53.078,11.504L53.086,11.639L53.093,11.773L53.1,11.908L53.105,12.043L53.11,12.179L53.114,12.314L53.117,12.45L53.119,12.586L53.12,12.722L53.12,12.858L53.12,12.994L53.118,13.13L53.116,13.266L53.113,13.402L53.109,13.537L53.104,13.672L53.099,13.807L53.092,13.942L53.085,14.077L53.076,14.211L53.067,14.345L53.058,14.479L53.047,14.613L53.035,14.747L53.023,14.88L53.01,15.013L52.996,15.146L52.981,15.278L52.965,15.411L52.949,15.543L52.931,15.675L52.913,15.806L52.894,15.937L52.875,16.068L52.854,16.199L52.833,16.33L52.811,16.46L52.788,16.59L52.764,16.72L52.74,16.849L52.714,16.978L52.688,17.107L52.661,17.236L52.634,17.364L52.605,17.492L52.576,17.62L52.546,17.748L52.515,17.875L52.484,18.002L52.452,18.128L52.419,18.254L52.385,18.38L52.35,18.506L52.315,18.631L52.279,18.756L52.242,18.881L52.205,19.005L52.166,19.129L52.127,19.253L52.088,19.377L52.047,19.5L52.006,19.622L51.964,19.745L51.921,19.867L51.878,19.988L51.833,20.112L51.743,20.351L51.65,20.592L51.554,20.831L51.455,21.068L51.353,21.304L51.249,21.538L51.141,21.771L51.031,22.002L50.919,22.232L50.803,22.46L50.685,22.687L50.564,22.912L50.441,23.135L50.315,23.357L50.187,23.577L50.056,23.795L49.922,24.011L49.786,24.226L49.647,24.439L49.506,24.65L49.363,24.86L49.217,25.067L49.068,25.273L48.917,25.477L48.764,25.679L48.609,25.879L48.451,26.077L48.291,26.273L48.128,26.467L47.963,26.66L47.796,26.85L47.627,27.038L47.456,27.224L47.282,27.408L47.106,27.59L46.928,27.77L46.748,27.948L46.566,28.123L46.382,28.297L46.195,28.468L46.007,28.637L45.817,28.804L45.624,28.968L45.43,29.13L45.233,29.29L45.035,29.448L44.835,29.603L44.633,29.756L44.429,29.906L44.223,30.054L44.015,30.2L43.806,30.343L43.594,30.484L43.381,30.622L43.166,30.758L42.95,30.892L42.731,31.022L42.511,31.15L42.289,31.276L42.066,31.399L41.841,31.519L41.614,31.637L41.386,31.752L41.156,31.864L40.925,31.974L40.692,32.081L40.458,32.185L40.222,32.286L39.984,32.385L39.746,32.481L39.505,32.574L39.265,32.663L39.142,32.708L39.021,32.751L38.899,32.793L38.776,32.835L38.654,32.876L38.531,32.916L38.407,32.956L38.284,32.995L38.159,33.033L38.035,33.07L37.911,33.107L37.786,33.143L37.66,33.178L37.535,33.212L37.409,33.246L37.283,33.279L37.156,33.311L37.029,33.342L36.902,33.373L36.775,33.402L36.647,33.431L36.519,33.46L36.391,33.487L36.262,33.514L36.133,33.54L36.004,33.565L35.875,33.589L35.745,33.612L35.615,33.635L35.485,33.657L35.355,33.678L35.224,33.699L35.093,33.718L34.962,33.737L34.83,33.755L34.699,33.772L34.567,33.788L34.434,33.804L34.302,33.818L34.169,33.832L34.036,33.845L33.903,33.857L33.77,33.869L33.636,33.879L33.502,33.889L33.368,33.898L33.234,33.906L33.099,33.913L32.965,33.919L32.83,33.925L32.695,33.929L32.559,33.933L32.424,33.936L32.288,33.938L32.152,33.939L32.016,33.939L31.88,33.939L31.744,33.938L31.608,33.935L31.473,33.932L31.338,33.928L31.202,33.923L31.068,33.918L30.933,33.911L30.798,33.904L30.664,33.896L30.53,33.887L30.396,33.877L30.263,33.866L30.129,33.855L29.996,33.842L29.863,33.829L29.731,33.815L29.598,33.8L29.466,33.785L29.334,33.768L29.202,33.751L29.071,33.733L28.94,33.714L28.809,33.694L28.678,33.674L28.548,33.652L28.418,33.63L28.288,33.607L28.158,33.584L28.029,33.559L27.9,33.534L27.771,33.508L27.643,33.481L27.514,33.453L27.387,33.425L27.259,33.396L27.132,33.366L27.005,33.335L26.878,33.304L26.751,33.272L26.625,33.239L26.5,33.205L26.374,33.17L26.249,33.135L26.124,33.099L25.999,33.062L25.875,33.025L25.751,32.987L25.628,32.948L25.504,32.908L25.382,32.867L25.259,32.826L25.137,32.784L25.015,32.742L24.893,32.698L24.77,32.654L24.531,32.564L24.291,32.471L24.052,32.375L23.815,32.276L23.579,32.174L23.345,32.07L23.113,31.963L22.881,31.853L22.652,31.74L22.424,31.625L22.198,31.507L21.973,31.386L21.75,31.263L21.529,31.137L21.309,31.009L21.091,30.878L20.875,30.745L20.66,30.609L20.447,30.47L20.236,30.329L20.027,30.186L19.82,30.04L19.614,29.892L19.411,29.741L19.209,29.588L19.009,29.433L18.811,29.275L18.615,29.115L18.421,28.953L18.229,28.788L18.039,28.621L17.851,28.452L17.665,28.281L17.481,28.107L17.3,27.932L17.12,27.754L16.942,27.574L16.767,27.392L16.594,27.208L16.423,27.022L16.254,26.834L16.088,26.644L15.923,26.451L15.761,26.257L15.601,26.061L15.444,25.863L15.289,25.663L15.136,25.461L14.986,25.257L14.838,25.052L14.692,24.844L14.549,24.635L14.409,24.424L14.271,24.211L14.135,23.996L14.002,23.78L13.871,23.561L13.743,23.342L13.618,23.12L13.495,22.897L13.375,22.672L13.257,22.446L13.142,22.218L13.03,21.988L12.92,21.757L12.814,21.525L12.71,21.29L12.608,21.055L12.51,20.818L12.414,20.579L12.321,20.339L12.232,20.099L12.188,19.977L12.144,19.855L12.102,19.733L12.06,19.611L12.019,19.488L11.979,19.365L11.939,19.242L11.901,19.119L11.863,18.995L11.825,18.871L11.789,18.746L11.753,18.621L11.718,18.496L11.684,18.371L11.65,18.245L11.617,18.119L11.585,17.992L11.554,17.866L11.523,17.739L11.494,17.611L11.465,17.484L11.436,17.356L11.409,17.228L11.382,17.099L11.357,16.971L11.332,16.842L11.307,16.713L11.284,16.583L11.261,16.453L11.239,16.323L11.218,16.193L11.198,16.062L11.178,15.931L11.16,15.8L11.142,15.669L11.125,15.537L11.108,15.406L11.093,15.274L11.078,15.141L11.064,15.009L11.051,14.876L11.039,14.743L11.028,14.61L11.017,14.476L11.008,14.342L10.999,14.209L10.991,14.074L10.984,13.94L10.977,13.805L10.972,13.671L10.967,13.536L10.964,13.401L10.961,13.265L10.959,13.13L10.957,12.994L10.957,12.858L10.958,12.722L10.959,12.586L10.961,12.451L10.964,12.315L10.968,12.18L10.973,12.045L10.979,11.91L10.985,11.776L10.993,11.641L11.001,11.507L11.01,11.373L11.02,11.24L11.03,11.106L11.042,10.973L11.054,10.84L11.067,10.707L11.081,10.575L11.096,10.443L11.112,10.311L11.128,10.179L11.145,10.047L11.164,9.916L11.182,9.785L11.202,9.654L11.223,9.524L11.244,9.393L11.266,9.263L11.289,9.134L11.312,9.004L11.337,8.875L11.362,8.746L11.388,8.617L11.415,8.489L11.443,8.361L11.471,8.233L11.5,8.106L11.53,7.979L11.561,7.852L11.592,7.725L11.624,7.599L11.657,7.473L11.691,7.347L11.725,7.222L11.761,7.097L11.797,6.972L11.833,6.848L11.871,6.724L11.909,6.6L11.948,6.476L11.988,6.353L12.028,6.23L12.069,6.108L12.111,5.986L12.154,5.864L12.197,5.743L12.242,5.62L12.331,5.38L12.424,5.141L12.52,4.902L12.619,4.665L12.72,4.43L12.825,4.196L12.932,3.964L13.042,3.733L13.154,3.504L13.269,3.276L13.387,3.05L13.507,2.826L13.63,2.603L13.756,2.382L13.884,2.162L14.015,1.944L14.148,1.728L14.284,1.514L14.423,1.301L14.563,1.091L14.707,0.882L14.852,0.675L15.001,0.469L15.151,0.266L15.304,0.064L15.459,-0.135L15.617,-0.333L15.776,-0.529L15.939,-0.723L16.103,-0.914L16.27,-1.104L16.439,-1.292L16.61,-1.478L16.783,-1.661L16.958,-1.843L17.136,-2.022L17.316,-2.2L17.497,-2.375L17.681,-2.548L17.867,-2.719L18.055,-2.887L18.245,-3.054L18.437,-3.218L18.631,-3.38L18.827,-3.539L19.025,-3.696L19.225,-3.851L19.427,-4.004L19.63,-4.154L19.836,-4.302L20.043,-4.447L20.252,-4.59L20.463,-4.731L20.675,-4.869L20.89,-5.004L21.106,-5.137L21.324,-5.268L21.544,-5.396L21.765,-5.521L21.988,-5.644L22.212,-5.764L22.438,-5.881L22.666,-5.996L22.895,-6.108L23.126,-6.217L23.359,-6.324L23.593,-6.428L23.828,-6.529L24.065,-6.627L24.303,-6.723L24.543,-6.816L24.782,-6.905L24.905,-6.949L25.027,-6.993L25.148,-7.035L25.27,-7.077L25.393,-7.118L25.516,-7.158L25.639,-7.197L25.762,-7.236L25.886,-7.274L26.01,-7.311L26.134,-7.348L26.259,-7.384L26.384,-7.419L26.509,-7.453L26.635,-7.486L26.761,-7.519L26.887,-7.551L27.014,-7.582L27.141,-7.613L27.268,-7.643L27.395,-7.672L27.523,-7.7L27.651,-7.727L27.779,-7.754L27.908,-7.78L28.036,-7.805L28.166,-7.829L28.295,-7.852L28.425,-7.875L28.554,-7.897L28.685,-7.918L28.815,-7.938L28.946,-7.958L29.077,-7.976L29.208,-7.994L29.339,-8.011L29.471,-8.028L29.603,-8.043L29.735,-8.058L29.868,-8.071L30,-8.084L30.133,-8.096L30.266,-8.108L30.4,-8.118L30.533,-8.128L30.667,-8.137L30.801,-8.145L30.935,-8.152L31.069,-8.158L31.204,-8.164L31.339,-8.168L31.474,-8.172L31.609,-8.175L31.745,-8.177L31.88,-8.178L32.012,-8.179L32.016,-8.224L32.02,-8.269L32.152,-8.268ZM31.895,-5.858L31.774,-5.857L31.653,-5.855L31.533,-5.852L31.413,-5.849L31.292,-5.845L31.172,-5.84L31.053,-5.834L30.933,-5.827L30.814,-5.82L30.695,-5.812L30.576,-5.803L30.457,-5.794L30.339,-5.783L30.221,-5.772L30.103,-5.761L29.985,-5.748L29.867,-5.735L29.75,-5.721L29.633,-5.707L29.516,-5.691L29.399,-5.675L29.283,-5.658L29.166,-5.641L29.051,-5.623L28.935,-5.604L28.819,-5.584L28.704,-5.564L28.589,-5.543L28.474,-5.521L28.36,-5.499L28.246,-5.476L28.132,-5.452L28.018,-5.427L27.905,-5.402L27.791,-5.376L27.678,-5.35L27.566,-5.322L27.453,-5.294L27.341,-5.266L27.229,-5.237L27.118,-5.207L27.006,-5.176L26.895,-5.145L26.785,-5.113L26.674,-5.08L26.564,-5.047L26.454,-5.013L26.345,-4.978L26.235,-4.943L26.126,-4.907L26.017,-4.871L25.909,-4.834L25.801,-4.796L25.693,-4.757L25.587,-4.719L25.371,-4.638L25.159,-4.555L24.947,-4.47L24.737,-4.382L24.528,-4.292L24.32,-4.2L24.113,-4.104L23.908,-4.007L23.705,-3.907L23.503,-3.805L23.302,-3.7L23.102,-3.593L22.904,-3.484L22.708,-3.372L22.513,-3.258L22.319,-3.142L22.127,-3.023L21.937,-2.902L21.748,-2.779L21.56,-2.654L21.375,-2.527L21.19,-2.397L21.008,-2.266L20.827,-2.132L20.648,-1.996L20.47,-1.858L20.294,-1.718L20.12,-1.575L19.948,-1.431L19.777,-1.285L19.609,-1.137L19.442,-0.987L19.276,-0.834L19.113,-0.68L18.952,-0.524L18.792,-0.366L18.634,-0.206L18.479,-0.045L18.325,0.119L18.173,0.284L18.023,0.452L17.875,0.621L17.729,0.791L17.585,0.964L17.443,1.138L17.303,1.314L17.165,1.492L17.03,1.671L16.896,1.852L16.765,2.035L16.636,2.219L16.509,2.405L16.384,2.593L16.261,2.782L16.141,2.972L16.022,3.164L15.907,3.358L15.793,3.553L15.682,3.75L15.573,3.948L15.466,4.147L15.362,4.348L15.26,4.551L15.16,4.754L15.063,4.96L14.968,5.166L14.876,5.374L14.786,5.583L14.699,5.793L14.614,6.005L14.532,6.218L14.451,6.433L14.413,6.539L14.375,6.647L14.337,6.755L14.3,6.863L14.264,6.972L14.228,7.081L14.193,7.19L14.158,7.3L14.125,7.41L14.092,7.52L14.059,7.631L14.027,7.741L13.996,7.852L13.966,7.963L13.936,8.075L13.907,8.187L13.879,8.299L13.851,8.411L13.824,8.524L13.798,8.637L13.772,8.75L13.747,8.863L13.723,8.977L13.699,9.091L13.676,9.205L13.654,9.319L13.632,9.434L13.612,9.549L13.591,9.664L13.572,9.78L13.553,9.895L13.535,10.011L13.518,10.127L13.501,10.243L13.486,10.36L13.47,10.477L13.456,10.594L13.442,10.711L13.429,10.829L13.417,10.946L13.405,11.064L13.395,11.182L13.385,11.301L13.375,11.419L13.367,11.538L13.359,11.657L13.352,11.776L13.345,11.896L13.34,12.015L13.335,12.135L13.331,12.255L13.328,12.375L13.325,12.496L13.323,12.616L13.322,12.737L13.322,12.858L13.322,12.979L13.324,13.1L13.326,13.22L13.328,13.341L13.332,13.461L13.336,13.581L13.341,13.701L13.347,13.82L13.353,13.939L13.361,14.059L13.369,14.178L13.378,14.296L13.387,14.415L13.397,14.533L13.408,14.651L13.42,14.769L13.432,14.887L13.446,15.004L13.459,15.121L13.474,15.238L13.489,15.355L13.505,15.472L13.522,15.588L13.54,15.704L13.558,15.82L13.577,15.935L13.596,16.051L13.617,16.166L13.638,16.281L13.659,16.395L13.682,16.51L13.705,16.624L13.729,16.738L13.753,16.851L13.778,16.964L13.804,17.078L13.831,17.19L13.858,17.303L13.886,17.415L13.914,17.527L13.943,17.639L13.973,17.75L14.004,17.861L14.035,17.972L14.067,18.083L14.1,18.193L14.133,18.303L14.167,18.413L14.201,18.523L14.236,18.632L14.272,18.741L14.309,18.849L14.346,18.958L14.384,19.066L14.422,19.173L14.461,19.279L14.541,19.495L14.624,19.707L14.709,19.918L14.797,20.129L14.887,20.337L14.979,20.545L15.074,20.751L15.172,20.956L15.271,21.159L15.374,21.361L15.478,21.562L15.585,21.761L15.694,21.959L15.806,22.155L15.92,22.35L16.036,22.543L16.154,22.735L16.275,22.925L16.398,23.114L16.523,23.301L16.65,23.487L16.779,23.671L16.911,23.853L17.045,24.033L17.18,24.212L17.318,24.39L17.458,24.565L17.6,24.739L17.744,24.911L17.89,25.082L18.038,25.25L18.188,25.417L18.34,25.582L18.494,25.745L18.65,25.907L18.808,26.066L18.968,26.224L19.129,26.379L19.293,26.533L19.458,26.685L19.625,26.834L19.794,26.982L19.964,27.128L20.136,27.272L20.311,27.413L20.486,27.553L20.664,27.691L20.843,27.826L21.024,27.959L21.206,28.091L21.39,28.22L21.576,28.347L21.763,28.471L21.952,28.594L22.143,28.714L22.334,28.832L22.528,28.948L22.723,29.062L22.919,29.173L23.117,29.282L23.316,29.388L23.517,29.492L23.719,29.594L23.922,29.694L24.127,29.791L24.333,29.885L24.541,29.977L24.75,30.067L24.96,30.154L25.171,30.239L25.384,30.321L25.599,30.402L25.705,30.44L25.813,30.478L25.921,30.516L26.029,30.553L26.138,30.589L26.246,30.625L26.356,30.66L26.465,30.694L26.575,30.728L26.685,30.761L26.795,30.793L26.906,30.825L27.016,30.856L27.128,30.886L27.239,30.916L27.351,30.945L27.463,30.973L27.575,31.001L27.687,31.028L27.8,31.054L27.913,31.08L28.026,31.105L28.14,31.129L28.254,31.153L28.368,31.176L28.482,31.198L28.596,31.219L28.711,31.24L28.826,31.26L28.941,31.28L29.057,31.298L29.173,31.316L29.289,31.334L29.405,31.35L29.521,31.366L29.638,31.381L29.755,31.396L29.872,31.409L29.989,31.422L30.107,31.435L30.225,31.446L30.343,31.457L30.461,31.467L30.579,31.476L30.698,31.485L30.817,31.493L30.936,31.5L31.055,31.506L31.174,31.512L31.294,31.516L31.414,31.521L31.534,31.524L31.654,31.526L31.775,31.528L31.895,31.529L32.016,31.53L32.137,31.529L32.258,31.528L32.378,31.526L32.498,31.523L32.618,31.52L32.738,31.515L32.858,31.51L32.977,31.505L33.096,31.498L33.215,31.491L33.334,31.483L33.453,31.474L33.571,31.465L33.689,31.454L33.807,31.443L33.925,31.432L34.043,31.419L34.16,31.406L34.277,31.392L34.394,31.378L34.51,31.362L34.627,31.346L34.743,31.33L34.859,31.312L34.975,31.294L35.09,31.275L35.205,31.256L35.32,31.235L35.435,31.214L35.549,31.193L35.663,31.17L35.777,31.147L35.891,31.123L36.005,31.099L36.118,31.074L36.231,31.048L36.343,31.022L36.456,30.994L36.568,30.966L36.68,30.938L36.791,30.909L36.903,30.879L37.014,30.848L37.124,30.817L37.235,30.785L37.345,30.753L37.455,30.72L37.565,30.686L37.674,30.651L37.783,30.616L37.892,30.58L38,30.544L38.108,30.507L38.216,30.469L38.324,30.431L38.429,30.392L38.645,30.312L38.857,30.229L39.068,30.144L39.278,30.057L39.487,29.967L39.694,29.874L39.9,29.779L40.104,29.682L40.307,29.582L40.509,29.48L40.709,29.376L40.908,29.269L41.106,29.16L41.302,29.049L41.497,28.935L41.69,28.819L41.881,28.701L42.071,28.58L42.26,28.457L42.447,28.333L42.632,28.206L42.816,28.076L42.998,27.945L43.178,27.811L43.357,27.676L43.534,27.538L43.709,27.398L43.883,27.256L44.055,27.113L44.225,26.967L44.394,26.819L44.56,26.669L44.725,26.517L44.888,26.363L45.049,26.208L45.208,26.05L45.366,25.891L45.521,25.729L45.675,25.566L45.826,25.401L45.976,25.234L46.123,25.066L46.269,24.895L46.412,24.723L46.554,24.549L46.694,24.374L46.831,24.196L46.966,24.017L47.099,23.837L47.231,23.655L47.359,23.471L47.486,23.285L47.611,23.098L47.733,22.91L47.853,22.72L47.971,22.528L48.087,22.335L48.2,22.14L48.311,21.944L48.42,21.746L48.526,21.547L48.631,21.347L48.732,21.145L48.832,20.942L48.928,20.737L49.023,20.531L49.115,20.324L49.205,20.115L49.292,19.906L49.376,19.695L49.458,19.482L49.539,19.267L49.577,19.161L49.615,19.054L49.653,18.946L49.69,18.838L49.726,18.729L49.761,18.621L49.796,18.512L49.831,18.402L49.864,18.293L49.897,18.183L49.93,18.073L49.961,17.962L49.992,17.851L50.023,17.74L50.052,17.629L50.081,17.518L50.11,17.406L50.137,17.294L50.164,17.181L50.191,17.069L50.216,16.956L50.241,16.843L50.265,16.729L50.289,16.616L50.312,16.502L50.334,16.388L50.356,16.273L50.376,16.159L50.396,16.044L50.416,15.929L50.434,15.814L50.452,15.698L50.47,15.582L50.486,15.466L50.502,15.35L50.517,15.233L50.532,15.116L50.545,15L50.558,14.882L50.57,14.765L50.582,14.647L50.593,14.529L50.603,14.411L50.612,14.293L50.62,14.175L50.628,14.056L50.635,13.937L50.642,13.818L50.647,13.699L50.652,13.579L50.656,13.459L50.66,13.339L50.662,13.219L50.664,13.099L50.665,12.979L50.665,12.858L50.665,12.737L50.664,12.617L50.662,12.496L50.659,12.376L50.655,12.256L50.651,12.137L50.646,12.017L50.64,11.898L50.634,11.779L50.626,11.66L50.618,11.541L50.61,11.423L50.6,11.305L50.59,11.187L50.579,11.069L50.567,10.951L50.555,10.834L50.542,10.717L50.528,10.6L50.513,10.483L50.498,10.367L50.482,10.25L50.465,10.134L50.448,10.019L50.43,9.903L50.411,9.788L50.392,9.673L50.371,9.558L50.35,9.443L50.329,9.329L50.306,9.215L50.283,9.101L50.26,8.988L50.235,8.874L50.21,8.761L50.184,8.648L50.158,8.536L50.131,8.424L50.103,8.312L50.074,8.2L50.045,8.088L50.015,7.977L49.985,7.866L49.954,7.756L49.922,7.645L49.889,7.535L49.856,7.426L49.822,7.316L49.788,7.207L49.753,7.098L49.717,6.989L49.681,6.881L49.644,6.773L49.606,6.665L49.568,6.558L49.529,6.452L49.449,6.237L49.366,6.025L49.281,5.814L49.194,5.605L49.104,5.397L49.012,5.19L48.917,4.984L48.82,4.78L48.72,4.577L48.618,4.375L48.514,4.175L48.408,3.976L48.299,3.779L48.187,3.583L48.074,3.389L47.958,3.196L47.84,3.005L47.719,2.815L47.597,2.627L47.472,2.44L47.345,2.255L47.216,2.071L47.085,1.89L46.952,1.709L46.816,1.531L46.679,1.354L46.539,1.179L46.397,1.005L46.254,0.833L46.108,0.664L45.96,0.495L45.81,0.329L45.659,0.164L45.505,0.002L45.35,-0.159L45.192,-0.318L45.033,-0.475L44.872,-0.631L44.709,-0.784L44.544,-0.935L44.378,-1.085L44.209,-1.232L44.039,-1.378L43.867,-1.521L43.693,-1.663L43.518,-1.802L43.341,-1.939L43.162,-2.074L42.982,-2.207L42.8,-2.338L42.616,-2.467L42.431,-2.594L42.244,-2.718L42.056,-2.84L41.866,-2.96L41.674,-3.078L41.481,-3.193L41.287,-3.307L41.091,-3.418L40.894,-3.526L40.695,-3.633L40.495,-3.736L40.293,-3.838L40.09,-3.937L39.886,-4.034L39.68,-4.128L39.473,-4.22L39.265,-4.31L39.055,-4.397L38.844,-4.481L38.632,-4.563L38.417,-4.644L38.312,-4.682L38.205,-4.72L38.097,-4.757L37.989,-4.794L37.88,-4.83L37.772,-4.866L37.663,-4.901L37.554,-4.935L37.444,-4.969L37.335,-5.002L37.225,-5.034L37.114,-5.066L37.004,-5.097L36.893,-5.127L36.782,-5.157L36.67,-5.186L36.559,-5.214L36.447,-5.241L36.334,-5.268L36.222,-5.295L36.109,-5.32L35.996,-5.345L35.883,-5.369L35.77,-5.393L35.656,-5.416L35.542,-5.438L35.428,-5.459L35.313,-5.48L35.198,-5.5L35.083,-5.52L34.968,-5.538L34.853,-5.556L34.737,-5.573L34.621,-5.59L34.505,-5.606L34.389,-5.621L34.272,-5.635L34.155,-5.649L34.038,-5.662L33.921,-5.674L33.803,-5.685L33.686,-5.696L33.568,-5.706L33.45,-5.715L33.331,-5.724L33.213,-5.732L33.094,-5.739L32.975,-5.745L32.856,-5.751L32.736,-5.756L32.617,-5.76L32.497,-5.763L32.377,-5.766L32.257,-5.767L32.137,-5.768L32.012,-5.769L32.012,-5.859L31.895,-5.858Z" style="fill:#cecfeb;"/>
                <path d="M32.215,-2.562L32.413,-2.558L32.611,-2.552L32.808,-2.543L33.005,-2.531L33.201,-2.517L33.396,-2.501L33.59,-2.482L33.784,-2.461L33.978,-2.438L34.17,-2.412L34.362,-2.383L34.553,-2.353L34.743,-2.32L34.932,-2.285L35.121,-2.247L35.309,-2.207L35.496,-2.165L35.682,-2.121L35.867,-2.074L36.051,-2.025L36.235,-1.974L36.417,-1.921L36.599,-1.865L36.779,-1.808L36.959,-1.748L37.137,-1.686L37.315,-1.622L37.492,-1.556L37.667,-1.488L37.842,-1.417L38.015,-1.345L38.187,-1.271L38.359,-1.194L38.529,-1.116L38.698,-1.035L38.866,-0.953L39.032,-0.869L39.198,-0.782L39.362,-0.694L39.525,-0.604L39.687,-0.512L39.848,-0.418L40.007,-0.322L40.166,-0.224L40.322,-0.125L40.478,-0.024L40.632,0.08L40.785,0.184L40.937,0.291L41.087,0.4L41.236,0.51L41.384,0.622L41.53,0.735L41.674,0.851L41.818,0.968L41.959,1.087L42.1,1.207L42.239,1.329L42.376,1.453L42.512,1.578L42.646,1.705L42.779,1.833L42.911,1.963L43.04,2.095L43.169,2.228L43.295,2.363L43.42,2.499L43.544,2.636L43.665,2.776L43.786,2.916L43.904,3.058L44.021,3.202L44.136,3.346L44.249,3.493L44.361,3.64L44.471,3.79L44.579,3.94L44.685,4.092L44.79,4.245L44.893,4.399L44.994,4.555L45.093,4.712L45.19,4.87L45.286,5.03L45.379,5.191L45.471,5.353L45.561,5.516L45.649,5.68L45.735,5.846L45.819,6.013L45.901,6.18L45.981,6.349L46.059,6.52L46.135,6.691L46.209,6.863L46.281,7.037L46.351,7.211L46.418,7.387L46.484,7.563L46.548,7.741L46.609,7.92L46.669,8.099L46.726,8.28L46.781,8.461L46.834,8.643L46.885,8.827L46.933,9.011L46.979,9.196L47.023,9.382L47.065,9.569L47.105,9.756L47.142,9.945L47.177,10.134L47.209,10.324L47.24,10.515L47.267,10.707L47.293,10.899L47.316,11.092L47.337,11.285L47.355,11.48L47.371,11.675L47.385,11.871L47.396,12.067L47.404,12.264L47.41,12.461L47.414,12.659L47.415,12.858L47.413,13.056L47.409,13.255L47.403,13.452L47.394,13.649L47.383,13.845L47.369,14.041L47.353,14.236L47.334,14.43L47.313,14.624L47.289,14.816L47.263,15.009L47.235,15.2L47.205,15.391L47.172,15.581L47.136,15.77L47.099,15.958L47.059,16.146L47.017,16.332L46.973,16.518L46.926,16.703L46.877,16.887L46.826,17.07L46.773,17.252L46.718,17.434L46.66,17.614L46.6,17.793L46.539,17.972L46.475,18.149L46.409,18.325L46.341,18.501L46.27,18.675L46.198,18.848L46.124,19.02L46.048,19.191L45.969,19.361L45.889,19.53L45.807,19.697L45.722,19.864L45.636,20.029L45.548,20.193L45.458,20.356L45.366,20.518L45.272,20.678L45.177,20.837L45.079,20.995L44.98,21.152L44.879,21.307L44.776,21.461L44.671,21.614L44.564,21.766L44.456,21.916L44.346,22.064L44.234,22.212L44.121,22.357L44.006,22.502L43.889,22.645L43.77,22.787L43.65,22.927L43.528,23.066L43.405,23.203L43.28,23.338L43.153,23.473L43.025,23.605L42.895,23.737L42.763,23.866L42.63,23.994L42.496,24.121L42.36,24.245L42.223,24.369L42.084,24.49L41.943,24.61L41.802,24.728L41.658,24.845L41.514,24.96L41.367,25.073L41.22,25.185L41.071,25.294L40.921,25.402L40.769,25.508L40.617,25.613L40.462,25.716L40.307,25.816L40.15,25.915L39.992,26.013L39.833,26.108L39.672,26.201L39.51,26.293L39.347,26.383L39.183,26.47L39.018,26.556L38.851,26.64L38.684,26.722L38.515,26.802L38.345,26.88L38.174,26.956L38.002,27.03L37.829,27.102L37.654,27.171L37.479,27.239L37.303,27.305L37.126,27.368L36.947,27.43L36.768,27.489L36.588,27.546L36.407,27.601L36.224,27.654L36.041,27.705L35.857,27.753L35.673,27.799L35.487,27.843L35.3,27.885L35.113,27.924L34.925,27.961L34.736,27.996L34.546,28.029L34.356,28.059L34.164,28.087L33.972,28.112L33.78,28.135L33.586,28.156L33.392,28.174L33.197,28.19L33.002,28.204L32.806,28.215L32.609,28.223L32.412,28.229L32.214,28.233L32.016,28.234L31.818,28.233L31.62,28.229L31.423,28.222L31.226,28.213L31.03,28.202L30.835,28.188L30.64,28.172L30.446,28.153L30.253,28.132L30.06,28.109L29.868,28.083L29.677,28.055L29.487,28.024L29.297,27.991L29.108,27.956L28.92,27.919L28.733,27.879L28.547,27.837L28.361,27.793L28.177,27.746L27.993,27.697L27.81,27.646L27.628,27.593L27.447,27.538L27.267,27.48L27.088,27.421L26.91,27.359L26.733,27.295L26.557,27.229L26.382,27.161L26.208,27.091L26.035,27.019L25.863,26.945L25.692,26.869L25.523,26.791L25.354,26.71L25.187,26.628L25.02,26.544L24.855,26.458L24.692,26.37L24.529,26.28L24.367,26.188L24.207,26.095L24.048,25.999L23.891,25.902L23.734,25.803L23.579,25.702L23.425,25.599L23.273,25.494L23.121,25.388L22.972,25.28L22.823,25.17L22.676,25.058L22.53,24.945L22.386,24.83L22.243,24.713L22.102,24.595L21.962,24.475L21.823,24.353L21.686,24.23L21.551,24.105L21.417,23.978L21.284,23.85L21.153,23.721L21.024,23.589L20.896,23.457L20.77,23.322L20.645,23.187L20.522,23.049L20.401,22.911L20.281,22.771L20.163,22.629L20.047,22.486L19.932,22.341L19.819,22.196L19.708,22.048L19.598,21.9L19.49,21.75L19.384,21.598L19.28,21.446L19.177,21.292L19.077,21.136L18.978,20.98L18.881,20.822L18.785,20.663L18.692,20.503L18.601,20.341L18.511,20.178L18.424,20.015L18.338,19.849L18.254,19.683L18.172,19.516L18.092,19.347L18.015,19.178L17.939,19.007L17.865,18.835L17.793,18.662L17.724,18.488L17.656,18.313L17.59,18.137L17.527,17.96L17.466,17.782L17.406,17.603L17.349,17.423L17.294,17.242L17.242,17.06L17.191,16.877L17.143,16.694L17.097,16.509L17.053,16.324L17.011,16.137L16.972,15.95L16.935,15.762L16.9,15.574L16.867,15.384L16.837,15.194L16.809,15.003L16.784,14.811L16.761,14.619L16.74,14.426L16.722,14.232L16.706,14.037L16.693,13.842L16.682,13.647L16.673,13.45L16.667,13.253L16.663,13.056L16.662,12.858L16.664,12.66L16.668,12.462L16.674,12.265L16.683,12.069L16.694,11.874L16.708,11.678L16.725,11.484L16.743,11.29L16.764,11.097L16.788,10.905L16.813,10.713L16.842,10.522L16.872,10.332L16.905,10.143L16.94,9.954L16.977,9.767L17.017,9.58L17.059,9.394L17.103,9.208L17.15,9.024L17.198,8.841L17.249,8.658L17.302,8.476L17.358,8.296L17.415,8.116L17.474,7.937L17.536,7.759L17.6,7.582L17.666,7.407L17.734,7.232L17.804,7.058L17.876,6.885L17.95,6.714L18.026,6.543L18.104,6.374L18.184,6.206L18.266,6.038L18.35,5.873L18.436,5.708L18.524,5.544L18.613,5.382L18.705,5.22L18.799,5.06L18.894,4.902L18.991,4.744L19.09,4.588L19.191,4.433L19.294,4.28L19.398,4.127L19.505,3.976L19.613,3.827L19.722,3.678L19.834,3.532L19.947,3.386L20.062,3.242L20.178,3.099L20.297,2.958L20.416,2.818L20.538,2.68L20.661,2.543L20.786,2.408L20.912,2.274L21.04,2.142L21.169,2.011L21.3,1.882L21.433,1.754L21.567,1.628L21.702,1.504L21.84,1.381L21.978,1.26L22.118,1.14L22.259,1.022L22.402,0.906L22.546,0.791L22.692,0.679L22.839,0.567L22.988,0.458L23.137,0.35L23.288,0.244L23.441,0.14L23.595,0.038L23.75,-0.063L23.906,-0.161L24.064,-0.258L24.222,-0.353L24.382,-0.447L24.544,-0.538L24.706,-0.627L24.87,-0.715L25.035,-0.8L25.201,-0.884L25.368,-0.966L25.536,-1.045L25.706,-1.123L25.876,-1.199L26.048,-1.272L26.221,-1.344L26.394,-1.414L26.569,-1.481L26.745,-1.547L26.922,-1.61L27.099,-1.671L27.278,-1.73L27.458,-1.787L27.639,-1.842L27.82,-1.895L28.003,-1.945L28.186,-1.994L28.37,-2.04L28.555,-2.083L28.741,-2.125L28.928,-2.164L29.116,-2.201L29.304,-2.236L29.493,-2.269L29.683,-2.299L29.874,-2.326L30.066,-2.352L30.258,-2.375L30.451,-2.396L30.644,-2.414L30.838,-2.43L31.033,-2.443L31.228,-2.454L31.425,-2.463L31.621,-2.469L31.818,-2.472L32.009,-2.473L32.024,-2.563L32.215,-2.562ZM31.848,-0.152L31.68,-0.149L31.513,-0.143L31.346,-0.136L31.18,-0.126L31.015,-0.115L30.85,-0.101L30.686,-0.085L30.522,-0.067L30.359,-0.047L30.197,-0.025L30.035,-0.001L29.874,0.024L29.714,0.052L29.554,0.082L29.395,0.114L29.237,0.147L29.079,0.183L28.922,0.22L28.766,0.26L28.611,0.301L28.457,0.344L28.303,0.389L28.15,0.436L27.998,0.484L27.847,0.535L27.696,0.587L27.546,0.641L27.398,0.697L27.25,0.754L27.103,0.813L26.957,0.874L26.811,0.937L26.667,1.001L26.524,1.068L26.381,1.135L26.24,1.205L26.099,1.276L25.959,1.349L25.821,1.423L25.683,1.499L25.547,1.577L25.411,1.656L25.277,1.737L25.143,1.82L25.011,1.904L24.879,1.989L24.749,2.076L24.62,2.165L24.492,2.255L24.365,2.346L24.24,2.44L24.115,2.534L23.992,2.63L23.87,2.728L23.749,2.826L23.629,2.927L23.51,3.028L23.393,3.131L23.277,3.236L23.162,3.342L23.049,3.449L22.936,3.557L22.826,3.667L22.716,3.778L22.608,3.891L22.501,4.005L22.395,4.12L22.291,4.236L22.188,4.353L22.087,4.472L21.987,4.592L21.888,4.713L21.791,4.836L21.695,4.959L21.601,5.084L21.508,5.21L21.417,5.337L21.327,5.465L21.239,5.594L21.152,5.724L21.067,5.856L20.983,5.988L20.901,6.122L20.821,6.257L20.742,6.392L20.665,6.529L20.589,6.667L20.515,6.805L20.442,6.945L20.372,7.085L20.302,7.227L20.235,7.37L20.169,7.513L20.105,7.657L20.043,7.803L19.982,7.949L19.923,8.096L19.866,8.244L19.811,8.392L19.757,8.542L19.705,8.693L19.655,8.844L19.607,8.996L19.561,9.149L19.516,9.302L19.474,9.457L19.433,9.612L19.394,9.768L19.357,9.925L19.322,10.082L19.288,10.24L19.257,10.399L19.228,10.558L19.2,10.719L19.175,10.879L19.151,11.041L19.13,11.203L19.11,11.366L19.093,11.529L19.077,11.693L19.064,11.858L19.053,12.023L19.043,12.189L19.036,12.355L19.031,12.522L19.028,12.69L19.027,12.858L19.028,13.026L19.032,13.193L19.037,13.36L19.045,13.527L19.054,13.692L19.066,13.858L19.08,14.022L19.096,14.186L19.114,14.35L19.133,14.512L19.155,14.674L19.179,14.836L19.205,14.996L19.233,15.156L19.262,15.316L19.294,15.475L19.328,15.632L19.363,15.79L19.401,15.946L19.44,16.102L19.481,16.257L19.524,16.411L19.569,16.565L19.615,16.717L19.664,16.869L19.714,17.02L19.766,17.17L19.82,17.32L19.876,17.468L19.933,17.616L19.992,17.763L20.053,17.909L20.116,18.054L20.18,18.198L20.246,18.341L20.314,18.483L20.383,18.624L20.454,18.765L20.527,18.904L20.601,19.042L20.677,19.18L20.755,19.316L20.834,19.451L20.915,19.586L20.997,19.719L21.081,19.851L21.166,19.982L21.253,20.112L21.342,20.241L21.431,20.369L21.523,20.495L21.616,20.621L21.71,20.745L21.806,20.868L21.903,20.99L22.002,21.111L22.102,21.231L22.204,21.349L22.307,21.466L22.411,21.582L22.516,21.696L22.623,21.81L22.732,21.922L22.841,22.033L22.952,22.142L23.065,22.25L23.178,22.357L23.293,22.462L23.409,22.566L23.526,22.669L23.645,22.77L23.765,22.87L23.886,22.968L24.008,23.065L24.131,23.161L24.256,23.255L24.381,23.347L24.508,23.439L24.636,23.528L24.765,23.616L24.895,23.703L25.026,23.788L25.159,23.871L25.292,23.953L25.426,24.034L25.562,24.113L25.698,24.19L25.836,24.265L25.974,24.339L26.113,24.412L26.254,24.482L26.395,24.551L26.537,24.619L26.68,24.684L26.825,24.748L26.97,24.81L27.116,24.871L27.262,24.93L27.41,24.987L27.558,25.042L27.708,25.096L27.858,25.147L28.009,25.197L28.161,25.245L28.313,25.292L28.467,25.336L28.621,25.379L28.776,25.419L28.931,25.458L29.088,25.495L29.245,25.53L29.403,25.564L29.561,25.595L29.721,25.624L29.88,25.651L30.041,25.677L30.202,25.7L30.364,25.722L30.527,25.741L30.69,25.759L30.854,25.774L31.018,25.787L31.183,25.799L31.348,25.808L31.514,25.815L31.681,25.82L31.848,25.823L32.016,25.824L32.184,25.823L32.351,25.82L32.518,25.814L32.684,25.807L32.849,25.797L33.014,25.785L33.178,25.772L33.342,25.756L33.505,25.738L33.668,25.718L33.829,25.696L33.991,25.673L34.151,25.647L34.311,25.619L34.47,25.589L34.628,25.558L34.786,25.524L34.943,25.489L35.099,25.452L35.255,25.412L35.409,25.371L35.563,25.328L35.716,25.284L35.869,25.237L36.02,25.189L36.171,25.138L36.321,25.086L36.47,25.033L36.619,24.977L36.766,24.92L36.912,24.861L37.058,24.8L37.203,24.737L37.347,24.673L37.49,24.607L37.632,24.54L37.773,24.47L37.913,24.4L38.052,24.327L38.19,24.253L38.327,24.177L38.463,24.1L38.598,24.021L38.732,23.94L38.865,23.858L38.997,23.774L39.128,23.689L39.258,23.602L39.386,23.514L39.514,23.424L39.64,23.333L39.766,23.24L39.89,23.146L40.013,23.05L40.134,22.953L40.255,22.855L40.374,22.755L40.492,22.653L40.609,22.551L40.725,22.446L40.839,22.341L40.952,22.234L41.064,22.126L41.175,22.017L41.284,21.906L41.392,21.794L41.498,21.68L41.604,21.566L41.707,21.45L41.81,21.333L41.911,21.214L42.011,21.095L42.109,20.974L42.206,20.852L42.301,20.729L42.395,20.605L42.487,20.479L42.578,20.353L42.668,20.225L42.756,20.096L42.842,19.966L42.927,19.835L43.011,19.703L43.092,19.57L43.173,19.436L43.251,19.301L43.328,19.165L43.404,19.028L43.478,18.89L43.55,18.75L43.62,18.61L43.689,18.469L43.756,18.327L43.822,18.184L43.886,18.04L43.948,17.896L44.008,17.75L44.067,17.603L44.124,17.456L44.179,17.308L44.233,17.159L44.284,17.009L44.334,16.858L44.382,16.706L44.428,16.554L44.473,16.401L44.515,16.247L44.556,16.093L44.595,15.937L44.631,15.781L44.667,15.624L44.7,15.467L44.731,15.308L44.76,15.149L44.787,14.99L44.813,14.83L44.836,14.669L44.858,14.507L44.877,14.345L44.894,14.182L44.91,14.018L44.923,13.854L44.935,13.69L44.944,13.524L44.951,13.359L44.956,13.192L44.959,13.025L44.96,12.858L44.959,12.69L44.955,12.523L44.95,12.357L44.942,12.191L44.933,12.026L44.921,11.862L44.907,11.698L44.892,11.534L44.874,11.371L44.854,11.209L44.832,11.048L44.808,10.887L44.783,10.727L44.755,10.567L44.725,10.408L44.694,10.25L44.66,10.093L44.625,9.936L44.588,9.78L44.549,9.625L44.508,9.471L44.465,9.317L44.42,9.164L44.374,9.012L44.325,8.861L44.275,8.71L44.223,8.56L44.17,8.411L44.114,8.263L44.057,8.116L43.998,7.97L43.937,7.825L43.875,7.68L43.811,7.537L43.745,7.394L43.678,7.252L43.608,7.111L43.538,6.972L43.465,6.833L43.391,6.695L43.316,6.558L43.238,6.422L43.159,6.287L43.079,6.154L42.997,6.021L42.913,5.889L42.828,5.758L42.742,5.629L42.654,5.501L42.564,5.373L42.473,5.247L42.38,5.122L42.286,4.998L42.191,4.875L42.094,4.754L41.995,4.633L41.896,4.514L41.794,4.396L41.692,4.28L41.588,4.164L41.483,4.05L41.376,3.937L41.268,3.825L41.159,3.715L41.048,3.606L40.936,3.498L40.823,3.392L40.709,3.287L40.593,3.183L40.476,3.081L40.358,2.98L40.239,2.881L40.118,2.783L39.996,2.686L39.874,2.591L39.75,2.497L39.624,2.405L39.498,2.314L39.371,2.225L39.242,2.137L39.112,2.051L38.982,1.966L38.85,1.883L38.717,1.801L38.583,1.721L38.448,1.642L38.312,1.565L38.175,1.49L38.037,1.416L37.898,1.344L37.758,1.274L37.618,1.205L37.476,1.138L37.333,1.073L37.19,1.009L37.045,0.947L36.9,0.887L36.753,0.828L36.606,0.771L36.458,0.716L36.309,0.663L36.16,0.611L36.009,0.561L35.858,0.514L35.706,0.467L35.553,0.423L35.399,0.381L35.245,0.34L35.09,0.301L34.934,0.264L34.778,0.23L34.62,0.196L34.462,0.165L34.304,0.136L34.144,0.109L33.984,0.083L33.824,0.06L33.662,0.039L33.5,0.019L33.338,0.002L33.175,-0.013L33.011,-0.027L32.847,-0.038L32.682,-0.047L32.516,-0.054L32.35,-0.06L32.183,-0.063L32.008,-0.063L32.009,-0.154L31.848,-0.152Z" style="fill:#cecfeb;"/>
                <path d="M32.147,2.722L32.277,2.725L32.407,2.729L32.536,2.735L32.666,2.743L32.794,2.752L32.923,2.763L33.05,2.775L33.178,2.789L33.305,2.804L33.431,2.822L33.557,2.84L33.683,2.86L33.808,2.882L33.932,2.905L34.056,2.93L34.18,2.956L34.303,2.984L34.425,3.013L34.547,3.044L34.668,3.076L34.788,3.11L34.908,3.145L35.028,3.182L35.146,3.22L35.265,3.259L35.382,3.3L35.499,3.342L35.615,3.385L35.73,3.43L35.845,3.477L35.959,3.524L36.072,3.573L36.185,3.623L36.296,3.675L36.407,3.728L36.518,3.782L36.627,3.838L36.736,3.894L36.844,3.952L36.951,4.012L37.058,4.072L37.163,4.134L37.268,4.197L37.372,4.261L37.475,4.327L37.577,4.393L37.678,4.461L37.779,4.53L37.878,4.6L37.977,4.672L38.075,4.744L38.172,4.818L38.268,4.892L38.363,4.968L38.457,5.045L38.55,5.123L38.642,5.202L38.733,5.283L38.824,5.364L38.913,5.446L39.001,5.53L39.088,5.614L39.175,5.699L39.26,5.786L39.344,5.873L39.427,5.962L39.509,6.051L39.59,6.142L39.67,6.233L39.749,6.326L39.827,6.419L39.903,6.513L39.979,6.608L40.053,6.704L40.127,6.802L40.199,6.899L40.27,6.998L40.34,7.098L40.408,7.199L40.476,7.3L40.542,7.402L40.607,7.506L40.671,7.61L40.734,7.714L40.795,7.82L40.855,7.927L40.914,8.034L40.972,8.142L41.028,8.251L41.083,8.36L41.137,8.471L41.19,8.582L41.241,8.694L41.291,8.806L41.34,8.92L41.387,9.033L41.433,9.148L41.477,9.264L41.52,9.38L41.562,9.496L41.603,9.614L41.642,9.732L41.679,9.85L41.715,9.97L41.75,10.089L41.783,10.21L41.815,10.331L41.845,10.453L41.874,10.575L41.902,10.698L41.927,10.821L41.952,10.945L41.975,11.069L41.996,11.194L42.016,11.319L42.034,11.445L42.051,11.572L42.066,11.698L42.079,11.825L42.091,11.953L42.102,12.081L42.111,12.21L42.118,12.339L42.123,12.468L42.127,12.598L42.13,12.728L42.13,12.858L42.129,12.988L42.127,13.118L42.122,13.248L42.116,13.377L42.109,13.506L42.1,13.634L42.089,13.762L42.077,13.89L42.063,14.017L42.047,14.144L42.03,14.27L42.011,14.396L41.991,14.521L41.97,14.646L41.946,14.77L41.922,14.894L41.895,15.017L41.868,15.139L41.839,15.261L41.808,15.383L41.776,15.504L41.742,15.624L41.707,15.744L41.671,15.863L41.633,15.981L41.594,16.099L41.553,16.216L41.511,16.333L41.467,16.448L41.423,16.564L41.377,16.678L41.329,16.792L41.28,16.905L41.23,17.017L41.179,17.129L41.126,17.239L41.072,17.35L41.016,17.459L40.96,17.567L40.902,17.675L40.843,17.782L40.782,17.888L40.72,17.993L40.658,18.098L40.594,18.202L40.528,18.304L40.462,18.406L40.394,18.508L40.325,18.608L40.255,18.707L40.184,18.806L40.112,18.903L40.038,19L39.964,19.096L39.888,19.19L39.811,19.284L39.734,19.377L39.655,19.469L39.575,19.56L39.493,19.65L39.411,19.739L39.328,19.827L39.244,19.914L39.159,20L39.072,20.085L38.985,20.169L38.897,20.252L38.808,20.334L38.717,20.415L38.626,20.495L38.534,20.573L38.441,20.651L38.347,20.728L38.252,20.803L38.156,20.877L38.059,20.95L37.961,21.022L37.863,21.093L37.763,21.163L37.663,21.231L37.561,21.299L37.459,21.365L37.356,21.43L37.253,21.494L37.148,21.556L37.043,21.617L36.936,21.677L36.829,21.736L36.722,21.794L36.613,21.85L36.504,21.905L36.393,21.959L36.283,22.011L36.171,22.062L36.059,22.112L35.946,22.161L35.832,22.208L35.718,22.254L35.602,22.298L35.487,22.341L35.37,22.383L35.253,22.423L35.135,22.462L35.017,22.499L34.898,22.535L34.778,22.57L34.658,22.603L34.537,22.635L34.416,22.665L34.294,22.694L34.172,22.721L34.049,22.747L33.925,22.771L33.801,22.794L33.676,22.816L33.551,22.835L33.426,22.854L33.3,22.87L33.173,22.885L33.046,22.899L32.919,22.911L32.791,22.921L32.663,22.93L32.534,22.937L32.405,22.943L32.276,22.947L32.146,22.949L32.016,22.949L31.886,22.948L31.756,22.946L31.627,22.941L31.498,22.936L31.369,22.928L31.241,22.919L31.114,22.908L30.986,22.896L30.859,22.882L30.733,22.867L30.607,22.85L30.482,22.831L30.357,22.811L30.232,22.789L30.108,22.766L29.985,22.741L29.862,22.715L29.74,22.688L29.618,22.658L29.497,22.628L29.376,22.596L29.256,22.562L29.137,22.527L29.018,22.491L28.9,22.453L28.782,22.414L28.665,22.374L28.549,22.332L28.434,22.288L28.319,22.243L28.204,22.197L28.091,22.15L27.978,22.101L27.866,22.051L27.755,22L27.644,21.947L27.534,21.893L27.425,21.838L27.317,21.781L27.21,21.724L27.103,21.665L26.997,21.604L26.892,21.543L26.788,21.48L26.684,21.416L26.582,21.351L26.48,21.285L26.379,21.217L26.279,21.149L26.18,21.079L26.082,21.008L25.984,20.936L25.888,20.862L25.792,20.788L25.698,20.712L25.604,20.636L25.511,20.558L25.42,20.479L25.329,20.399L25.239,20.319L25.15,20.237L25.062,20.154L24.975,20.07L24.889,19.984L24.805,19.898L24.721,19.811L24.638,19.723L24.556,19.634L24.476,19.544L24.396,19.453L24.318,19.361L24.24,19.268L24.164,19.174L24.089,19.08L24.015,18.984L23.942,18.887L23.87,18.79L23.799,18.691L23.73,18.592L23.661,18.492L23.594,18.391L23.528,18.289L23.463,18.186L23.4,18.083L23.337,17.978L23.276,17.873L23.216,17.767L23.158,17.66L23.1,17.553L23.044,17.444L22.989,17.335L22.936,17.225L22.883,17.115L22.832,17.004L22.783,16.891L22.734,16.779L22.687,16.665L22.641,16.551L22.597,16.436L22.554,16.321L22.513,16.204L22.472,16.088L22.434,15.97L22.396,15.852L22.36,15.733L22.326,15.614L22.293,15.494L22.261,15.373L22.231,15.252L22.202,15.131L22.175,15.009L22.149,14.886L22.125,14.762L22.102,14.639L22.081,14.514L22.061,14.39L22.043,14.264L22.026,14.139L22.011,14.012L21.998,13.886L21.986,13.759L21.975,13.631L21.967,13.503L21.959,13.375L21.954,13.246L21.95,13.117L21.948,12.988L21.947,12.858L21.948,12.728L21.951,12.599L21.955,12.47L21.961,12.341L21.968,12.213L21.978,12.085L21.988,11.957L22.001,11.83L22.014,11.704L22.03,11.578L22.047,11.452L22.065,11.327L22.085,11.202L22.107,11.078L22.13,10.954L22.155,10.831L22.181,10.709L22.208,10.587L22.237,10.465L22.268,10.344L22.3,10.224L22.333,10.104L22.368,9.985L22.404,9.866L22.442,9.748L22.481,9.631L22.522,9.515L22.564,9.399L22.607,9.283L22.651,9.169L22.697,9.055L22.745,8.942L22.793,8.829L22.843,8.717L22.895,8.606L22.947,8.496L23.001,8.386L23.056,8.278L23.112,8.169L23.17,8.062L23.229,7.956L23.289,7.85L23.351,7.745L23.413,7.641L23.477,7.538L23.542,7.436L23.608,7.334L23.675,7.233L23.744,7.134L23.814,7.035L23.885,6.937L23.956,6.84L24.03,6.743L24.104,6.648L24.179,6.554L24.256,6.46L24.333,6.368L24.412,6.276L24.491,6.185L24.572,6.096L24.654,6.007L24.737,5.92L24.821,5.833L24.905,5.747L24.991,5.663L25.078,5.579L25.166,5.496L25.255,5.415L25.345,5.334L25.436,5.255L25.527,5.177L25.62,5.099L25.714,5.023L25.808,4.948L25.904,4.874L26,4.802L26.098,4.73L26.196,4.659L26.295,4.59L26.395,4.522L26.496,4.455L26.597,4.389L26.7,4.324L26.803,4.261L26.907,4.199L27.012,4.138L27.118,4.078L27.224,4.019L27.332,3.962L27.44,3.906L27.549,3.851L27.658,3.798L27.769,3.745L27.88,3.695L27.992,3.645L28.104,3.597L28.217,3.55L28.331,3.504L28.446,3.46L28.561,3.417L28.677,3.376L28.794,3.336L28.911,3.297L29.029,3.26L29.147,3.224L29.266,3.189L29.386,3.156L29.506,3.125L29.627,3.094L29.748,3.066L29.87,3.039L29.993,3.013L30.116,2.989L30.239,2.966L30.363,2.945L30.488,2.925L30.613,2.907L30.738,2.89L30.864,2.875L30.991,2.862L31.117,2.85L31.245,2.84L31.372,2.831L31.5,2.824L31.629,2.818L31.757,2.814L31.887,2.812L32.009,2.811L32.016,2.766L32.024,2.721L32.147,2.722ZM31.916,5.132L31.816,5.134L31.717,5.137L31.618,5.142L31.519,5.148L31.421,5.155L31.323,5.163L31.226,5.172L31.128,5.183L31.032,5.195L30.935,5.208L30.839,5.222L30.744,5.238L30.648,5.254L30.554,5.272L30.459,5.291L30.366,5.311L30.272,5.332L30.179,5.354L30.086,5.378L29.994,5.402L29.903,5.428L29.811,5.455L29.721,5.483L29.63,5.511L29.541,5.541L29.451,5.572L29.363,5.605L29.274,5.638L29.187,5.672L29.099,5.707L29.013,5.743L28.927,5.781L28.841,5.819L28.756,5.858L28.671,5.899L28.587,5.94L28.504,5.982L28.421,6.026L28.339,6.07L28.257,6.115L28.176,6.161L28.096,6.208L28.016,6.256L27.937,6.305L27.858,6.355L27.78,6.406L27.703,6.458L27.627,6.51L27.551,6.564L27.475,6.618L27.401,6.674L27.327,6.73L27.254,6.787L27.181,6.845L27.109,6.904L27.038,6.963L26.968,7.024L26.898,7.085L26.829,7.147L26.761,7.21L26.694,7.274L26.627,7.338L26.562,7.403L26.497,7.469L26.432,7.536L26.369,7.604L26.306,7.672L26.244,7.741L26.184,7.811L26.123,7.882L26.064,7.953L26.006,8.025L25.948,8.098L25.891,8.171L25.835,8.245L25.78,8.32L25.726,8.395L25.673,8.471L25.621,8.548L25.569,8.625L25.519,8.703L25.469,8.782L25.42,8.861L25.373,8.941L25.326,9.022L25.28,9.103L25.235,9.185L25.191,9.267L25.148,9.35L25.107,9.433L25.066,9.517L25.026,9.602L24.987,9.687L24.949,9.773L24.912,9.859L24.876,9.946L24.841,10.033L24.807,10.121L24.775,10.209L24.743,10.297L24.712,10.387L24.683,10.476L24.654,10.567L24.627,10.657L24.6,10.748L24.575,10.84L24.551,10.932L24.528,11.025L24.506,11.117L24.485,11.211L24.466,11.305L24.447,11.399L24.43,11.493L24.414,11.588L24.399,11.684L24.385,11.78L24.372,11.876L24.361,11.972L24.35,12.069L24.341,12.167L24.333,12.264L24.327,12.362L24.321,12.461L24.317,12.56L24.314,12.659L24.312,12.758L24.312,12.858L24.313,12.958L24.315,13.057L24.318,13.156L24.323,13.255L24.328,13.353L24.335,13.451L24.344,13.549L24.353,13.646L24.364,13.743L24.376,13.84L24.389,13.936L24.403,14.031L24.418,14.127L24.435,14.222L24.452,14.316L24.471,14.41L24.491,14.504L24.512,14.597L24.535,14.69L24.558,14.782L24.582,14.874L24.608,14.965L24.635,15.056L24.662,15.147L24.691,15.237L24.721,15.326L24.752,15.415L24.784,15.504L24.817,15.592L24.851,15.679L24.886,15.766L24.922,15.852L24.96,15.938L24.998,16.024L25.037,16.109L25.077,16.193L25.118,16.277L25.161,16.36L25.204,16.442L25.248,16.524L25.293,16.606L25.339,16.686L25.386,16.767L25.434,16.846L25.483,16.925L25.532,17.004L25.583,17.081L25.635,17.158L25.687,17.235L25.741,17.31L25.795,17.385L25.85,17.46L25.906,17.533L25.963,17.606L26.021,17.679L26.079,17.75L26.139,17.821L26.199,17.891L26.26,17.961L26.322,18.029L26.385,18.097L26.448,18.164L26.512,18.231L26.578,18.296L26.643,18.361L26.71,18.425L26.777,18.489L26.846,18.551L26.914,18.613L26.984,18.673L27.054,18.733L27.125,18.793L27.197,18.851L27.27,18.908L27.343,18.965L27.417,19.021L27.491,19.075L27.566,19.129L27.642,19.183L27.719,19.235L27.796,19.286L27.874,19.336L27.952,19.386L28.031,19.434L28.111,19.482L28.191,19.528L28.272,19.574L28.354,19.619L28.436,19.663L28.518,19.705L28.602,19.747L28.685,19.788L28.77,19.828L28.854,19.867L28.94,19.905L29.026,19.941L29.112,19.977L29.199,20.012L29.287,20.046L29.375,20.078L29.463,20.11L29.552,20.14L29.642,20.17L29.732,20.198L29.822,20.226L29.913,20.252L30.004,20.277L30.096,20.301L30.188,20.324L30.281,20.346L30.374,20.367L30.467,20.386L30.561,20.405L30.656,20.422L30.75,20.438L30.845,20.453L30.941,20.467L31.037,20.48L31.133,20.491L31.23,20.501L31.327,20.51L31.424,20.518L31.522,20.525L31.62,20.53L31.719,20.535L31.817,20.537L31.917,20.539L32.016,20.54L32.116,20.539L32.215,20.537L32.314,20.533L32.412,20.529L32.51,20.523L32.608,20.516L32.705,20.508L32.802,20.498L32.899,20.488L32.995,20.476L33.091,20.463L33.186,20.449L33.281,20.433L33.376,20.417L33.47,20.399L33.564,20.381L33.657,20.361L33.75,20.34L33.842,20.317L33.935,20.294L34.026,20.27L34.117,20.244L34.208,20.218L34.298,20.19L34.388,20.161L34.477,20.132L34.566,20.101L34.654,20.069L34.742,20.036L34.829,20.002L34.916,19.967L35.002,19.931L35.088,19.894L35.173,19.856L35.257,19.817L35.341,19.776L35.425,19.735L35.508,19.693L35.59,19.65L35.672,19.606L35.753,19.561L35.833,19.516L35.913,19.469L35.993,19.421L36.071,19.372L36.15,19.323L36.227,19.272L36.304,19.221L36.38,19.168L36.455,19.115L36.53,19.061L36.604,19.006L36.678,18.95L36.751,18.893L36.823,18.836L36.894,18.777L36.965,18.718L37.035,18.658L37.104,18.597L37.172,18.535L37.24,18.473L37.307,18.409L37.373,18.345L37.439,18.28L37.503,18.215L37.567,18.148L37.63,18.081L37.693,18.013L37.754,17.945L37.815,17.875L37.874,17.805L37.933,17.734L37.992,17.663L38.049,17.59L38.105,17.517L38.161,17.444L38.215,17.369L38.269,17.294L38.322,17.219L38.374,17.143L38.425,17.066L38.476,16.988L38.525,16.91L38.573,16.831L38.621,16.751L38.667,16.671L38.713,16.591L38.757,16.51L38.801,16.428L38.844,16.345L38.885,16.262L38.926,16.179L38.966,16.095L39.004,16.01L39.042,15.925L39.079,15.839L39.114,15.753L39.149,15.666L39.183,15.579L39.215,15.491L39.247,15.403L39.277,15.315L39.307,15.225L39.335,15.136L39.362,15.046L39.389,14.955L39.414,14.864L39.438,14.772L39.46,14.681L39.482,14.588L39.503,14.495L39.522,14.402L39.541,14.309L39.558,14.214L39.574,14.12L39.589,14.025L39.603,13.93L39.615,13.834L39.627,13.738L39.637,13.642L39.646,13.545L39.654,13.448L39.661,13.351L39.666,13.253L39.67,13.155L39.673,13.056L39.675,12.957L39.675,12.858L39.674,12.759L39.672,12.66L39.669,12.561L39.665,12.463L39.659,12.365L39.652,12.268L39.644,12.171L39.634,12.074L39.624,11.978L39.612,11.882L39.599,11.786L39.585,11.691L39.569,11.597L39.553,11.502L39.535,11.408L39.517,11.315L39.497,11.222L39.476,11.129L39.454,11.037L39.431,10.945L39.406,10.854L39.381,10.763L39.354,10.673L39.327,10.583L39.298,10.493L39.268,10.404L39.238,10.316L39.206,10.228L39.173,10.14L39.139,10.053L39.104,9.967L39.068,9.881L39.031,9.795L38.993,9.711L38.954,9.626L38.914,9.542L38.873,9.459L38.832,9.377L38.789,9.295L38.745,9.213L38.7,9.132L38.654,9.052L38.607,8.972L38.56,8.893L38.511,8.814L38.462,8.737L38.411,8.659L38.36,8.583L38.308,8.507L38.255,8.432L38.201,8.357L38.146,8.283L38.09,8.21L38.034,8.137L37.976,8.065L37.918,7.994L37.859,7.924L37.799,7.854L37.738,7.785L37.677,7.717L37.615,7.649L37.551,7.582L37.487,7.516L37.423,7.451L37.357,7.387L37.291,7.323L37.224,7.26L37.156,7.198L37.088,7.137L37.019,7.076L36.949,7.017L36.878,6.958L36.807,6.9L36.735,6.843L36.662,6.787L36.588,6.731L36.514,6.677L36.44,6.623L36.364,6.57L36.288,6.518L36.211,6.467L36.134,6.417L36.056,6.368L35.977,6.32L35.898,6.273L35.818,6.226L35.738,6.181L35.657,6.136L35.575,6.093L35.493,6.05L35.411,6.009L35.327,5.968L35.243,5.929L35.159,5.89L35.074,5.853L34.989,5.816L34.903,5.78L34.816,5.746L34.729,5.712L34.642,5.68L34.554,5.648L34.466,5.618L34.377,5.589L34.287,5.56L34.197,5.533L34.107,5.507L34.016,5.482L33.925,5.458L33.833,5.435L33.741,5.414L33.649,5.393L33.556,5.374L33.462,5.355L33.369,5.338L33.275,5.322L33.18,5.307L33.085,5.293L32.99,5.281L32.894,5.27L32.798,5.259L32.701,5.25L32.605,5.242L32.507,5.236L32.41,5.23L32.312,5.226L32.214,5.223L32.115,5.222L32.008,5.221L32.009,5.131L31.916,5.132Z" style="fill:#cecfeb;"/>
            </g>
        </g>
        <path d="M10,29.754L35,16.473" style="fill:none;stroke:#aaacdd;stroke-width:2px;"/>
        <path d="M54,60.754C54.796,60.754 55.559,60.438 56.121,59.876C56.684,59.313 57,58.55 57,57.754C57,51.308 57,36.2 57,29.754C57,28.959 56.684,28.196 56.121,27.633C55.559,27.07 54.796,26.754 54,26.754C45.098,26.754 18.902,26.754 10,26.754C9.204,26.754 8.441,27.07 7.879,27.633C7.316,28.196 7,28.959 7,29.754C7,36.2 7,51.308 7,57.754C7,58.55 7.316,59.313 7.879,59.876C8.441,60.438 9.204,60.754 10,60.754C18.902,60.754 45.098,60.754 54,60.754Z" style="fill:#f3775b;"/>
        <clipPath id="_clip3">
            <path d="M54,60.754C54.796,60.754 55.559,60.438 56.121,59.876C56.684,59.313 57,58.55 57,57.754C57,51.308 57,36.2 57,29.754C57,28.959 56.684,28.196 56.121,27.633C55.559,27.07 54.796,26.754 54,26.754C45.098,26.754 18.902,26.754 10,26.754C9.204,26.754 8.441,27.07 7.879,27.633C7.316,28.196 7,28.959 7,29.754C7,36.2 7,51.308 7,57.754C7,58.55 7.316,59.313 7.879,59.876C8.441,60.438 9.204,60.754 10,60.754C18.902,60.754 45.098,60.754 54,60.754Z"/>
        </clipPath>
        <g clip-path="url(#_clip3)">
            <path d="M60,28.544L4,60.754L4,67.912L60,67.912L60,28.544Z" style="fill:#2b307e;fill-opacity:0.152941;"/>
        </g>
        <circle cx="42" cy="43.754" r="10" style="fill:#7f82bd;"/>
        <clipPath id="_clip4">
            <circle cx="42" cy="43.754" r="10"/>
        </clipPath>
        <g clip-path="url(#_clip4)">
            <path d="M60,28.544L4,60.754L4,67.912L60,67.912L60,28.544Z" style="fill:#2b307e;fill-opacity:0.643137;"/>
        </g>
        <rect x="10.741" y="36.295" width="17.259" height="2.998" style="fill:#2b307e;"/>
        <rect x="10.741" y="42.363" width="17.259" height="2.998" style="fill:#2b307e;"/>
        <rect x="10.741" y="48.216" width="17.259" height="2.998" style="fill:#2b307e;"/>
    </g>
</svg>
