<?xml version="1.0" encoding="UTF-8" standalone="no"?>
<!DOCTYPE svg PUBLIC "-//W3C//DTD SVG 1.1//EN" "http://www.w3.org/Graphics/SVG/1.1/DTD/svg11.dtd">
<svg width="100%" height="100%" viewBox="0 0 65 64" version="1.1" xmlns="http://www.w3.org/2000/svg" xmlns:xlink="http://www.w3.org/1999/xlink" xml:space="preserve" xmlns:serif="http://www.serif.com/" style="fill-rule:evenodd;clip-rule:evenodd;stroke-linecap:round;stroke-miterlimit:1;">
    <rect id="REPLACE-Surveillance" x="0.012" y="0" width="64" height="64" style="fill:none;"/>
    <path d="M39.292,12.757C37.495,13.376 36.539,15.338 37.158,17.134C37.777,18.931 39.739,19.887 41.535,19.268C43.332,18.649 44.288,16.688 43.669,14.891C43.05,13.094 41.089,12.138 39.292,12.757Z" style="fill:#2b307e;"/>
    <clipPath id="_clip1">
        <path d="M39.292,12.757C37.495,13.376 36.539,15.338 37.158,17.134C37.777,18.931 39.739,19.887 41.535,19.268C43.332,18.649 44.288,16.688 43.669,14.891C43.05,13.094 41.089,12.138 39.292,12.757Z"/>
    </clipPath>
    <g clip-path="url(#_clip1)">
        <path d="M33.098,12.738L36.456,49.127L43.045,37.556L36.617,7.794L33.098,12.738Z" style="fill:#a6a9db;fill-opacity:0.75;"/>
    </g>
    <path d="M34.302,23.86C34.287,23.652 34.28,23.442 34.28,23.23C34.28,18.448 38.162,14.565 42.945,14.565C45.331,14.565 47.494,15.532 49.061,17.096L49.062,17.095L49.073,17.107C49.221,17.255 49.364,17.409 49.501,17.568L58.672,27.433L34.895,38.804L34.302,23.86L34.302,23.86Z" style="fill:#329f46;"/>
    <clipPath id="_clip2">
        <path d="M34.302,23.86C34.287,23.652 34.28,23.442 34.28,23.23C34.28,18.448 38.162,14.565 42.945,14.565C45.331,14.565 47.494,15.532 49.061,17.096L49.062,17.095L49.073,17.107C49.221,17.255 49.364,17.409 49.501,17.568L58.672,27.433L34.895,38.804L34.302,23.86L34.302,23.86Z"/>
    </clipPath>
    <g clip-path="url(#_clip2)">
        <path d="M36.554,12.569L39.912,48.957L51.185,37.686L38.828,8.993L36.554,12.569Z" style="fill:#52c824;fill-opacity:0.75;"/>
    </g>
    <path d="M24.545,12.724C26.342,13.343 27.298,15.304 26.679,17.101C26.06,18.898 24.099,19.854 22.302,19.235C20.505,18.616 19.549,16.654 20.168,14.858C20.787,13.061 22.748,12.105 24.545,12.724Z" style="fill:#2b307e;"/>
    <clipPath id="_clip3">
        <path d="M24.545,12.724C26.342,13.343 27.298,15.304 26.679,17.101C26.06,18.898 24.099,19.854 22.302,19.235C20.505,18.616 19.549,16.654 20.168,14.858C20.787,13.061 22.748,12.105 24.545,12.724Z"/>
    </clipPath>
    <g clip-path="url(#_clip3)">
        <path d="M24.244,11.53L20.041,17.074L17.362,11.83L24.244,11.53Z" style="fill:#878bc4;"/>
    </g>
    <path d="M14.776,17.062C16.344,15.499 18.506,14.532 20.893,14.532C25.675,14.532 29.557,18.414 29.557,23.197C29.557,23.408 29.55,23.618 29.535,23.826L29.535,23.827L28.942,38.771L5.166,27.4L14.336,17.534C14.473,17.376 14.616,17.222 14.765,17.074L14.775,17.062L14.776,17.062Z" style="fill:#329f46;"/>
    <clipPath id="_clip4">
        <path d="M14.776,17.062C16.344,15.499 18.506,14.532 20.893,14.532C25.675,14.532 29.557,18.414 29.557,23.197C29.557,23.408 29.55,23.618 29.535,23.826L29.535,23.827L28.942,38.771L5.166,27.4L14.336,17.534C14.473,17.376 14.616,17.222 14.765,17.074L14.775,17.062L14.776,17.062Z"/>
    </clipPath>
    <g clip-path="url(#_clip4)">
        <path d="M24.214,11.387L7.85,35.312C7.85,35.312 -2.22,27.922 -2.109,28.489C-1.998,29.055 13.811,11.445 13.811,11.445L24.214,11.387Z" style="fill:#52c824;fill-opacity:0.71;"/>
    </g>
    <path d="M29.009,20.34C29.071,18.816 30.328,17.598 31.867,17.598C33.409,17.598 34.667,18.82 34.726,20.348L34.728,20.348L35.78,28.181L27.954,28.243L29.007,20.34L29.009,20.34Z" style="fill:#2b307e;"/>
    <clipPath id="_clip5">
        <path d="M29.009,20.34C29.071,18.816 30.328,17.598 31.867,17.598C33.409,17.598 34.667,18.82 34.726,20.348L34.728,20.348L35.78,28.181L27.954,28.243L29.007,20.34L29.009,20.34Z"/>
    </clipPath>
    <g clip-path="url(#_clip5)">
        <path d="M32.332,16.986L29.571,16.986L28.046,29.842L32.332,31.33L32.332,16.986Z" style="fill:#878bc4;"/>
    </g>
    <circle cx="31.867" cy="28.708" r="3.913" style="fill:#2b307e;"/>
    <g>
        <circle cx="14.78" cy="37.686" r="14.163" style="fill:#288038;"/>
        <circle cx="14.78" cy="37.686" r="12.088" style="fill:#cecfeb;"/>
        <clipPath id="_clip6">
            <circle cx="14.78" cy="37.686" r="12.088"/>
        </clipPath>
        <g clip-path="url(#_clip6)">
            <circle cx="22.252" cy="46.108" r="14.108" style="fill:#a6a9db;"/>
            <path d="M6.651,37.686C6.651,33.199 10.293,29.557 14.78,29.557" style="fill:none;stroke:#fff;stroke-opacity:0.7;stroke-width:2.27px;"/>
        </g>
    </g>
    <g>
        <circle cx="49.052" cy="37.686" r="14.163" style="fill:#288038;"/>
        <circle cx="49.052" cy="37.686" r="12.088" style="fill:#cecfeb;"/>
        <clipPath id="_clip7">
            <circle cx="49.052" cy="37.686" r="12.088"/>
        </clipPath>
        <g clip-path="url(#_clip7)">
            <circle cx="56.525" cy="46.108" r="14.108" style="fill:#a6a9db;"/>
            <path d="M40.924,37.686C40.924,33.199 44.566,29.557 49.052,29.557" style="fill:none;stroke:#fff;stroke-opacity:0.7;stroke-width:2.27px;"/>
        </g>
    </g>
</svg>
