<?xml version="1.0" encoding="UTF-8" standalone="no"?>
<!DOCTYPE svg PUBLIC "-//W3C//DTD SVG 1.1//EN" "http://www.w3.org/Graphics/SVG/1.1/DTD/svg11.dtd">
<svg width="100%" height="100%" viewBox="0 0 65 64" version="1.1" xmlns="http://www.w3.org/2000/svg" xmlns:xlink="http://www.w3.org/1999/xlink" xml:space="preserve" xmlns:serif="http://www.serif.com/" style="fill-rule:evenodd;clip-rule:evenodd;stroke-linejoin:round;stroke-miterlimit:2;">
    <rect id="REPLACE-Transfats-1" x="0.015" y="0" width="64" height="64" style="fill:none;"/>
    <path d="M4.613,34.712L6.368,37.404L5.437,44.194L2.982,46.617L1.264,46.358L2.895,34.453L4.613,34.712Z" style="fill:#2c327e;"/>
    <clipPath id="_clip1">
        <path d="M4.613,34.712L6.368,37.404L5.437,44.194L2.982,46.617L1.264,46.358L2.895,34.453L4.613,34.712Z"/>
    </clipPath>
    <g clip-path="url(#_clip1)">
        <path d="M38.729,43.114L39.51,37.421L-11.26,30.457L-12.041,36.15L38.729,43.114Z" style="fill:#adacd6;fill-opacity:0.82;"/>
    </g>
    <g>
        <g>
            <path d="M33.571,45.918C48.469,45.918 62.769,47.769 62.769,50.048C62.769,52.327 60.313,54.177 45.415,54.177C13.931,54.177 2.02,48.271 2.02,45.992C2.02,43.712 18.673,45.918 33.571,45.918Z" style="fill:#b5b8e2;fill-opacity:0.18;"/>
            <path d="M59.551,6.737L31.278,6.737C33.392,21.204 33.397,35.49 31.278,49.595L59.551,49.595C57.344,35.623 57.266,21.338 59.551,6.737Z" style="fill:#4ebe22;"/>
            <clipPath id="_clip2">
                <path d="M59.551,6.737L31.278,6.737C33.392,21.204 33.397,35.49 31.278,49.595L59.551,49.595C57.344,35.623 57.266,21.338 59.551,6.737Z"/>
            </clipPath>
            <g clip-path="url(#_clip2)">
                <rect x="27.308" y="3.085" width="38.566" height="5.457" style="fill:#389d15;fill-opacity:0.76;"/>
                <rect x="27.308" y="48.384" width="38.566" height="5.457" style="fill:#a7da94;fill-opacity:0.76;"/>
                <path id="_-Curve-" serif:id="(Curve)" d="M32.447,48.656C32.447,48.656 36.875,44.027 45.415,44.027C53.955,44.027 58.74,48.153 58.74,48.153C58.74,48.153 51.145,46.573 45.415,46.573C39.685,46.573 35.309,47.627 32.447,48.656Z" style="fill:#389d15;"/>
                <circle cx="45.593" cy="22.562" r="10.468" style="fill:#ececf6;"/>
                <path d="M32.447,9.184C32.447,9.184 37.004,15.36 45.544,15.36C54.084,15.36 58.74,8.828 58.74,8.828C58.74,8.828 51.145,12.197 45.415,12.197C39.685,12.197 35.309,10.585 32.447,9.184Z" style="fill:#fff;fill-opacity:0.39;"/>
                <path d="M34.576,15.002C34.576,15.002 33.244,25.696 45.593,27.644C45.593,27.644 37.164,22.842 34.576,15.002Z" style="fill:#fff;fill-opacity:0.39;"/>
                <path d="M57.199,29.711C57.199,29.711 58.532,40.406 46.182,42.354C46.182,42.354 54.612,37.551 57.199,29.711Z" style="fill:#389d15;fill-opacity:0.39;"/>
                <path d="M45.74,55.675L9.707,50.733C7.886,50.483 6.798,47.442 7.277,43.945C7.757,40.449 9.624,37.813 11.445,38.063L47.478,43.005C48.057,43.085 48.513,43.712 48.799,44.69L49.994,43.51L51.712,43.77L50.081,55.675L48.364,55.415L47.581,54.215C47.015,55.2 46.361,55.76 45.74,55.675Z" style="fill:#2c327e;fill-opacity:0.21;"/>
            </g>
        </g>
    </g>
    <path d="M42.572,21.884C44.651,21.884 49.13,18.876 49.13,20.186C49.13,21.495 47.608,26.301 43.261,26.767C41.227,26.984 37.755,25.028 38.462,22.023C38.552,21.642 40.492,21.884 42.572,21.884Z" style="fill:#449355;"/>
    <path d="M47.173,20.186C50.92,17.719 50.969,16.782 51.254,16.984C53.08,18.271 54.986,22.448 50.811,24.971C46.757,27.421 39.133,23.455 38.496,22.111C38.001,21.069 43.069,22.888 47.173,20.186Z" style="fill:#8eca7c;"/>
    <path d="M6.359,47.715C4.538,47.465 3.45,44.424 3.929,40.928C4.409,37.431 6.276,34.796 8.097,35.045C8.097,35.045 44.13,39.988 44.13,39.988L42.392,52.658L6.359,47.715Z" style="fill:#2c327e;"/>
    <clipPath id="_clip3">
        <path d="M6.359,47.715C4.538,47.465 3.45,44.424 3.929,40.928C4.409,37.431 6.276,34.796 8.097,35.045C8.097,35.045 44.13,39.988 44.13,39.988L42.392,52.658L6.359,47.715Z"/>
    </clipPath>
    <g clip-path="url(#_clip3)">
        <path d="M47.841,45.595L48.622,39.902L-2.149,32.938L-2.929,38.631L47.841,45.595Z" style="fill:#928fc0;"/>
        <g>
            <path d="M21.724,38.425C17.595,39.334 14.746,42.356 15.365,45.172C15.985,47.987 19.839,49.534 23.968,48.626C28.097,47.718 30.946,44.695 30.327,41.88C29.707,39.065 25.853,37.517 21.724,38.425Z" style="fill:#54b947;"/>
            <clipPath id="_clip4">
                <path d="M21.724,38.425C17.595,39.334 14.746,42.356 15.365,45.172C15.985,47.987 19.839,49.534 23.968,48.626C28.097,47.718 30.946,44.695 30.327,41.88C29.707,39.065 25.853,37.517 21.724,38.425Z"/>
            </clipPath>
            <g clip-path="url(#_clip4)">
                <path d="M21.394,36.927C17.63,37.755 15.077,40.713 15.696,43.528C16.315,46.343 19.874,47.956 23.639,47.128C27.403,46.3 29.956,43.342 29.337,40.527C28.718,37.712 25.159,36.099 21.394,36.927Z" style="fill:#8eca7c;"/>
                <path d="M47.841,45.595L48.622,39.902L-2.149,32.938L-2.929,38.631L47.841,45.595Z" style="fill:#fff;fill-opacity:0.44;"/>
            </g>
            <g>
                <path d="M25.872,42.649C25.881,42.463 26.039,42.319 26.226,42.328C26.491,42.34 26.86,42.358 27.126,42.37C27.312,42.379 27.456,42.537 27.448,42.724C27.448,42.724 27.448,42.724 27.448,42.724C27.439,42.91 27.281,43.054 27.094,43.045C26.828,43.033 26.46,43.015 26.194,43.003C26.007,42.994 25.863,42.836 25.872,42.649C25.872,42.649 25.872,42.649 25.872,42.649Z" style="fill:#24245b;fill-opacity:0.67;"/>
                <path d="M16.92,43.038C16.788,42.906 16.787,42.692 16.918,42.56C17.047,42.43 17.205,42.27 17.334,42.141C17.465,42.008 17.679,42.007 17.812,42.139C17.812,42.139 17.812,42.139 17.812,42.139C17.944,42.27 17.945,42.484 17.814,42.617C17.685,42.746 17.527,42.906 17.398,43.036C17.267,43.168 17.053,43.169 16.92,43.038C16.92,43.038 16.92,43.038 16.92,43.038Z" style="fill:#24245b;fill-opacity:0.67;"/>
                <path d="M21.178,40.922C21.162,40.736 21.299,40.572 21.485,40.555C21.667,40.539 21.891,40.52 22.073,40.504C22.259,40.487 22.423,40.625 22.439,40.811C22.439,40.811 22.439,40.811 22.439,40.811C22.456,40.997 22.318,41.161 22.132,41.177C21.951,41.193 21.727,41.213 21.545,41.229C21.359,41.245 21.195,41.108 21.178,40.922C21.178,40.922 21.178,40.922 21.178,40.922Z" style="fill:#24245b;fill-opacity:0.67;"/>
                <path d="M21.607,42.928C21.602,42.865 21.621,42.802 21.662,42.753C21.703,42.704 21.762,42.674 21.825,42.668C21.986,42.654 22.196,42.636 22.357,42.621C22.42,42.616 22.483,42.636 22.532,42.677C22.581,42.717 22.611,42.776 22.617,42.839C22.617,42.84 22.617,42.84 22.617,42.841C22.623,42.904 22.603,42.967 22.562,43.016C22.521,43.065 22.462,43.095 22.399,43.101C22.238,43.115 22.028,43.134 21.867,43.148C21.804,43.153 21.741,43.134 21.692,43.093C21.643,43.052 21.613,42.993 21.607,42.93C21.607,42.929 21.607,42.929 21.607,42.928Z" style="fill:#24245b;"/>
                <path d="M27.239,40.751C27.194,40.707 27.167,40.646 27.166,40.583C27.166,40.519 27.19,40.458 27.234,40.412C27.347,40.296 27.494,40.145 27.606,40.029C27.651,39.984 27.711,39.958 27.775,39.957C27.839,39.956 27.9,39.98 27.946,40.025C27.946,40.025 27.946,40.025 27.947,40.026C27.992,40.07 28.019,40.131 28.019,40.194C28.02,40.258 27.996,40.319 27.952,40.365C27.839,40.481 27.692,40.632 27.58,40.748C27.535,40.793 27.475,40.819 27.411,40.82C27.347,40.821 27.286,40.797 27.24,40.752C27.24,40.752 27.24,40.752 27.239,40.751Z" style="fill:#24245b;"/>
                <path d="M18,44.385C17.955,44.341 17.929,44.28 17.928,44.217C17.927,44.153 17.951,44.092 17.996,44.046C18.108,43.93 18.255,43.779 18.367,43.663C18.412,43.618 18.473,43.592 18.536,43.591C18.6,43.59 18.661,43.614 18.707,43.659C18.707,43.659 18.708,43.659 18.708,43.66C18.754,43.704 18.78,43.765 18.781,43.828C18.782,43.892 18.757,43.953 18.713,43.999C18.6,44.114 18.453,44.266 18.341,44.382C18.296,44.427 18.236,44.453 18.172,44.454C18.108,44.455 18.047,44.431 18.001,44.386C18.001,44.386 18.001,44.386 18,44.385Z" style="fill:#24245b;"/>
            </g>
            <g>
                <path d="M25.084,39.459C25.09,39.646 24.943,39.802 24.757,39.807C24.491,39.816 24.122,39.827 23.856,39.835C23.669,39.841 23.513,39.694 23.508,39.507C23.508,39.507 23.508,39.507 23.508,39.507C23.502,39.321 23.649,39.165 23.835,39.159C24.101,39.151 24.47,39.14 24.736,39.132C24.923,39.126 25.079,39.273 25.084,39.459C25.084,39.459 25.084,39.459 25.084,39.459Z" style="fill:#24245b;fill-opacity:0.67;"/>
                <path d="M22.05,44.627C22.055,44.813 21.909,44.969 21.722,44.975C21.456,44.983 21.087,44.994 20.821,45.003C20.635,45.008 20.479,44.862 20.473,44.675C20.473,44.675 20.473,44.675 20.473,44.675C20.467,44.488 20.614,44.333 20.801,44.327C21.067,44.319 21.436,44.307 21.702,44.299C21.888,44.294 22.044,44.44 22.05,44.627C22.05,44.627 22.05,44.627 22.05,44.627Z" style="fill:#24245b;fill-opacity:0.67;"/>
                <path d="M29.522,43.204C29.664,43.325 29.682,43.538 29.561,43.68C29.443,43.82 29.298,43.991 29.18,44.13C29.059,44.273 28.846,44.29 28.703,44.17C28.703,44.17 28.703,44.169 28.703,44.169C28.561,44.049 28.543,43.835 28.664,43.693C28.782,43.554 28.928,43.382 29.046,43.243C29.166,43.101 29.38,43.083 29.522,43.204C29.522,43.204 29.522,43.204 29.522,43.204Z" style="fill:#24245b;fill-opacity:0.67;"/>
                <path d="M25.441,45.644C25.472,45.828 25.347,46.002 25.163,46.033C24.983,46.063 24.761,46.1 24.581,46.13C24.397,46.161 24.223,46.036 24.192,45.852C24.192,45.852 24.192,45.852 24.192,45.852C24.162,45.668 24.286,45.494 24.47,45.463C24.65,45.433 24.872,45.396 25.052,45.366C25.236,45.335 25.41,45.46 25.441,45.644C25.441,45.644 25.441,45.644 25.441,45.644Z" style="fill:#24245b;fill-opacity:0.67;"/>
                <path d="M24.886,44.098C24.896,44.16 24.882,44.225 24.845,44.277C24.808,44.328 24.751,44.363 24.689,44.374C24.53,44.4 24.321,44.435 24.162,44.462C24.1,44.472 24.035,44.457 23.983,44.42C23.932,44.383 23.897,44.327 23.886,44.265C23.886,44.264 23.886,44.264 23.886,44.263C23.875,44.2 23.89,44.136 23.927,44.084C23.964,44.032 24.02,43.997 24.083,43.987C24.242,43.96 24.451,43.925 24.609,43.899C24.672,43.888 24.737,43.903 24.788,43.94C24.84,43.977 24.875,44.033 24.886,44.096C24.886,44.097 24.886,44.097 24.886,44.098Z" style="fill:#24245b;"/>
                <path d="M19.412,46.283C19.461,46.324 19.491,46.383 19.497,46.446C19.503,46.509 19.483,46.573 19.443,46.621C19.34,46.745 19.204,46.908 19.101,47.032C19.061,47.081 19.002,47.111 18.939,47.117C18.876,47.123 18.812,47.104 18.763,47.063C18.763,47.063 18.763,47.062 18.762,47.062C18.713,47.021 18.683,46.963 18.677,46.899C18.671,46.836 18.691,46.773 18.731,46.724C18.834,46.6 18.969,46.437 19.072,46.314C19.113,46.265 19.172,46.234 19.235,46.228C19.298,46.222 19.362,46.242 19.41,46.283C19.411,46.283 19.411,46.283 19.412,46.283Z" style="fill:#24245b;"/>
                <path d="M23.051,47.375C23.02,47.43 22.968,47.471 22.907,47.488C22.845,47.505 22.78,47.497 22.724,47.466C22.584,47.387 22.4,47.283 22.259,47.204C22.204,47.173 22.163,47.121 22.146,47.06C22.129,46.998 22.137,46.933 22.168,46.877C22.168,46.877 22.169,46.876 22.169,46.876C22.2,46.82 22.252,46.78 22.313,46.763C22.375,46.745 22.44,46.753 22.496,46.785C22.636,46.864 22.82,46.967 22.961,47.046C23.016,47.078 23.057,47.13 23.074,47.191C23.091,47.252 23.083,47.318 23.052,47.373C23.052,47.374 23.052,47.374 23.051,47.375Z" style="fill:#24245b;"/>
            </g>
        </g>
    </g>
    <path d="M45.636,46.648C45.157,50.145 43.703,52.837 42.392,52.658C41.081,52.478 40.405,49.493 40.885,45.997C41.365,42.5 42.818,39.808 44.13,39.988C45.441,40.168 46.116,43.152 45.636,46.648Z" style="fill:#2c327e;"/>
    <path d="M45.016,52.398L43.261,49.706L44.191,42.916L46.646,40.493L48.364,40.752L46.733,52.658L45.016,52.398Z" style="fill:#2c327e;"/>
    <clipPath id="_clip5">
        <path d="M45.016,52.398L43.261,49.706L44.191,42.916L46.646,40.493L48.364,40.752L46.733,52.658L45.016,52.398Z"/>
    </clipPath>
    <g clip-path="url(#_clip5)">
        <path d="M84.858,49.578L85.638,43.885L34.868,36.921L34.087,42.614L84.858,49.578Z" style="fill:#adacd6;fill-opacity:0.82;"/>
    </g>
    <path d="M45.016,52.398L43.261,49.706L44.191,42.916L46.646,40.493L48.364,40.752L46.733,52.658L45.016,52.398Z" style="fill:#2c327e;"/>
    <clipPath id="_clip6">
        <path d="M45.016,52.398L43.261,49.706L44.191,42.916L46.646,40.493L48.364,40.752L46.733,52.658L45.016,52.398Z"/>
    </clipPath>
    <g clip-path="url(#_clip6)">
        <path d="M84.858,49.578L85.638,43.885L34.868,36.921L34.087,42.614L84.858,49.578Z" style="fill:#adacd6;fill-opacity:0.82;"/>
    </g>
</svg>
