<?xml version="1.0" encoding="UTF-8" standalone="no"?>
<!DOCTYPE svg PUBLIC "-//W3C//DTD SVG 1.1//EN" "http://www.w3.org/Graphics/SVG/1.1/DTD/svg11.dtd">
<svg width="100%" height="100%" viewBox="0 0 65 64" version="1.1" xmlns="http://www.w3.org/2000/svg" xmlns:xlink="http://www.w3.org/1999/xlink" xml:space="preserve" xmlns:serif="http://www.serif.com/" style="fill-rule:evenodd;clip-rule:evenodd;stroke-linejoin:round;stroke-miterlimit:1;">
    <rect id="REPLACE-Oil-replacement" x="0.015" y="0" width="64" height="64" style="fill:none;"/>
    <path d="M31.621,12.541C31.621,12.541 19.054,31.026 19.054,38.948C19.054,45.884 24.685,51.515 31.621,51.515C38.557,51.515 44.188,45.884 44.188,38.948C44.188,31.026 31.621,12.541 31.621,12.541Z" style="fill:#389d15;"/>
    <clipPath id="_clip1">
        <path d="M31.621,12.541C31.621,12.541 19.054,31.026 19.054,38.948C19.054,45.884 24.685,51.515 31.621,51.515C38.557,51.515 44.188,45.884 44.188,38.948C44.188,31.026 31.621,12.541 31.621,12.541Z"/>
    </clipPath>
    <g clip-path="url(#_clip1)">
        <path d="M32.675,9.45C32.675,9.45 21.339,26.125 21.339,33.272C21.339,39.529 26.418,44.609 32.675,44.609C38.932,44.609 44.012,39.529 44.012,33.272C44.012,26.125 32.675,9.45 32.675,9.45Z" style="fill:#4ebe22;"/>
        <path d="M32.353,18.994L32.378,19.03L32.721,19.522L32.72,19.522L33.175,20.174L33.175,20.175L33.342,20.414L33.697,20.942L33.698,20.943L34.279,21.808L34.279,21.809L34.583,22.263L34.589,22.273L34.59,22.274L34.902,22.761L34.903,22.763L35.224,23.267L35.225,23.268L35.236,23.286L35.546,23.792L35.547,23.794L35.874,24.33L36.194,24.886L36.195,24.889L36.481,25.388L36.517,25.453L36.518,25.456L36.762,25.907L36.828,26.034L36.83,26.037L37.025,26.416L37.128,26.627L37.13,26.631L37.287,26.956L37.413,27.232L37.415,27.235L37.561,27.558L37.683,27.844L37.685,27.848L37.944,28.459L37.945,28.462L38.073,28.767L38.074,28.769L38.128,28.899L38.197,29.075L38.198,29.077L38.318,29.382L38.319,29.384L38.437,29.688L38.438,29.691L38.555,29.993L38.556,29.995L38.671,30.295L38.672,30.298L38.687,30.337L38.782,30.597L38.783,30.6L38.89,30.896L38.892,30.899L38.997,31.193L38.998,31.196L39.101,31.487L39.102,31.49L39.197,31.762L39.203,31.778L39.204,31.781L39.299,32.066L39.3,32.07L39.392,32.351L39.394,32.354L39.483,32.632L39.485,32.635L39.571,32.908L39.573,32.912L39.656,33.18L39.658,33.183L39.738,33.447L39.74,33.451L39.817,33.709L39.818,33.713L39.892,33.965L39.894,33.969L39.946,34.154L39.963,34.216L39.965,34.221L40.029,34.462L40.031,34.467L40.092,34.702L40.094,34.707L40.15,34.936L40.152,34.941L40.194,35.118L40.205,35.163L39.898,35.817L39.246,35.504L39.226,35.462L39.146,35.298L39.148,35.303L39.044,35.092L39.045,35.097L38.935,34.88L38.937,34.884L38.822,34.662L38.824,34.666L38.794,34.609L38.706,34.438L38.708,34.442L38.586,34.209L38.587,34.213L38.461,33.975L38.463,33.979L38.332,33.736L38.334,33.74L38.199,33.493L38.201,33.497L38.062,33.246L38.064,33.25L37.921,32.995L37.923,32.998L37.777,32.74L37.779,32.744L37.63,32.482L37.631,32.485L37.623,32.471L37.482,32.22L37.484,32.223L37.332,31.954L37.333,31.957L37.179,31.685L37.18,31.688L37.023,31.414L37.025,31.417L36.886,31.178L36.866,31.141L36.867,31.144L36.709,30.864L36.71,30.867L36.55,30.585L36.552,30.588L36.39,30.305L36.391,30.307L36.228,30.023L36.229,30.026L36.134,29.863L36.066,29.74L36.067,29.742L35.907,29.453L35.908,29.456L35.584,28.878L35.586,28.882L35.432,28.611L35.265,28.3L35.267,28.304L35.122,28.037L34.956,27.717L34.958,27.72L34.85,27.512L34.662,27.129L34.663,27.133L34.6,27.004L34.38,26.541L34.381,26.544L34.349,26.477L34.113,25.953L34.114,25.956L33.851,25.379L33.849,25.374L33.85,25.376L33.602,24.799L33.603,24.801L33.367,24.258L33.359,24.238L33.36,24.24L33.13,23.688L33.131,23.69L32.908,23.156L32.909,23.157L32.904,23.147L32.702,22.639L32.703,22.641L32.315,21.674L32.316,21.675L32.078,21.085L31.973,20.813L31.973,20.814L31.686,20.072L31.686,20.071L31.47,19.512L31.455,19.471L31.665,18.783L32.353,18.994Z" style="fill:#fff;"/>
    </g>
    <g>
        <path d="M31.8,59.277C17.009,59.277 5,47.268 5,32.476C5,22.473 10.492,13.742 18.623,9.138" style="fill:none;stroke:#a6a9db;stroke-width:3px;"/>
        <path d="M18.87,15.872L18.87,7.993L10.992,7.993" style="fill:none;stroke:#a6a9db;stroke-width:3px;"/>
    </g>
    <g>
        <path d="M31.682,5.598C46.474,5.598 58.483,17.607 58.483,32.398C58.483,42.402 52.991,51.132 44.86,55.737" style="fill:none;stroke:#a6a9db;stroke-width:3px;"/>
        <path d="M44.613,48.997L44.613,56.882L52.497,56.882" style="fill:none;stroke:#a6a9db;stroke-width:3px;"/>
    </g>
</svg>
