<?xml version="1.0" encoding="UTF-8" standalone="no"?>
<!DOCTYPE svg PUBLIC "-//W3C//DTD SVG 1.1//EN" "http://www.w3.org/Graphics/SVG/1.1/DTD/svg11.dtd">
<svg width="100%" height="100%" viewBox="0 0 65 64" version="1.1" xmlns="http://www.w3.org/2000/svg" xmlns:xlink="http://www.w3.org/1999/xlink" xml:space="preserve" xmlns:serif="http://www.serif.com/" style="fill-rule:evenodd;clip-rule:evenodd;stroke-linecap:round;stroke-linejoin:round;stroke-miterlimit:1;">
    <rect id="Restaurants" x="0.738" y="0" width="64" height="64" style="fill:none;"/>
    <circle cx="34.321" cy="35" r="20.682" style="fill:#aaacdd;fill-opacity:0.33;"/>
    <circle cx="32.738" cy="32" r="20.682" style="fill:#f3775b;"/>
    <path d="M18.742,32C19.307,39.232 25.362,44.933 32.738,44.933C40.115,44.933 46.17,39.232 46.735,32C46.764,32.365 46.778,32.735 46.778,33.107C46.778,40.856 40.487,47.147 32.738,47.147C24.99,47.147 18.698,40.856 18.698,33.107C18.698,32.735 18.713,32.365 18.742,32Z" style="fill:#fff;fill-opacity:0.48;"/>
    <path d="M18.796,33.661C18.732,33.116 18.698,32.562 18.698,32C18.698,24.251 24.99,17.96 32.738,17.96C40.487,17.96 46.778,24.251 46.778,32C46.778,32.562 46.745,33.116 46.681,33.661C45.858,26.693 39.925,21.281 32.738,21.281C25.551,21.281 19.618,26.693 18.796,33.661Z" style="fill:#379a16;"/>
    <path d="M8.786,24.913C8.759,24.078 8.075,23.414 7.239,23.414C7.238,23.414 7.238,23.414 7.238,23.414C6.402,23.414 5.717,24.078 5.69,24.913C5.531,29.905 5.017,46.002 4.818,52.235C4.797,52.89 5.043,53.525 5.498,53.996C5.954,54.467 6.582,54.732 7.237,54.732C7.238,54.732 7.239,54.732 7.24,54.732C7.895,54.732 8.522,54.467 8.978,53.996C9.434,53.525 9.679,52.89 9.659,52.235C9.46,46.002 8.946,29.905 8.786,24.913Z" style="fill:#c5c6e1;"/>
    <path d="M61.657,24.414L61.379,24.414C59.799,24.414 58.489,25.64 58.385,27.217C58.001,33.046 57.12,46.405 56.745,52.091C56.699,52.775 56.94,53.447 57.408,53.948C57.877,54.448 58.532,54.732 59.217,54.732C59.218,54.732 59.218,54.732 59.219,54.732C60.565,54.732 61.657,53.641 61.657,52.294C61.657,45.093 61.657,24.414 61.657,24.414Z" style="fill:#c5c6e1;"/>
    <path d="M6.837,26.754L6.288,52.161" style="fill:none;stroke:#fff;stroke-width:0.5px;"/>
    <path d="M59.485,26.754L58.027,52.161" style="fill:none;stroke:#fff;stroke-width:0.5px;"/>
    <path d="M11.738,8.81L2.738,8.81L2.738,21.31C2.738,23.796 4.753,25.81 7.238,25.81C7.238,25.81 7.238,25.81 7.238,25.81C9.724,25.81 11.738,23.796 11.738,21.31C11.738,16.274 11.738,8.81 11.738,8.81Z" style="fill:#c5c6e1;"/>
    <path d="M61.657,8C61.657,8 61.657,8 61.657,8C58.979,10.117 57.293,13.246 56.999,16.647C56.625,20.96 56.11,26.905 55.79,30.597C55.714,31.472 56.009,32.338 56.602,32.985C57.196,33.632 58.033,34 58.911,34C60.332,34 61.657,34 61.657,34L61.657,8Z" style="fill:#c5c6e1;"/>
    <path d="M6.288,7.81L4.399,7.81L4.399,19.146C4.399,19.396 4.498,19.636 4.676,19.814C4.853,19.991 5.093,20.09 5.343,20.09C5.343,20.09 5.344,20.09 5.344,20.09C5.595,20.09 5.835,19.991 6.012,19.814C6.189,19.636 6.288,19.396 6.288,19.146C6.288,16.27 6.288,7.81 6.288,7.81Z" style="fill:#fff;"/>
    <path d="M10.078,7.81L8.188,7.81L8.188,19.146C8.188,19.396 8.288,19.636 8.465,19.814C8.642,19.991 8.882,20.09 9.132,20.09C9.133,20.09 9.133,20.09 9.134,20.09C9.384,20.09 9.624,19.991 9.801,19.814C9.978,19.636 10.078,19.396 10.078,19.146C10.078,16.27 10.078,7.81 10.078,7.81Z" style="fill:#fff;"/>
</svg>
