<?xml version="1.0" encoding="UTF-8" standalone="no"?>
<!DOCTYPE svg PUBLIC "-//W3C//DTD SVG 1.1//EN" "http://www.w3.org/Graphics/SVG/1.1/DTD/svg11.dtd">
<svg width="100%" height="100%" viewBox="0 0 64 65" version="1.1" xmlns="http://www.w3.org/2000/svg" xmlns:xlink="http://www.w3.org/1999/xlink" xml:space="preserve" xmlns:serif="http://www.serif.com/" style="fill-rule:evenodd;clip-rule:evenodd;stroke-linecap:round;stroke-miterlimit:1;">
    <rect id="Risk-Communication-muted" serif:id="Risk Communication-muted" x="0" y="0.732" width="64" height="64" style="fill:none;"/>
    <clipPath id="_clip1">
        <rect x="0" y="0.732" width="64" height="64"/>
    </clipPath>
    <g clip-path="url(#_clip1)">
        <path d="M10.056,0.187L-12,12.459L10.056,24.732L32.113,12.459L10.056,0.187ZM54.189,0.187L32.132,12.459L54.189,24.732L76.245,12.459L54.189,0.187Z" style="fill:none;"/>
        <clipPath id="_clip2">
            <path d="M10.056,0.187L-12,12.459L10.056,24.732L32.113,12.459L10.056,0.187ZM54.189,0.187L32.132,12.459L54.189,24.732L76.245,12.459L54.189,0.187Z"/>
        </clipPath>
        <g clip-path="url(#_clip2)">
            <g>
                <path d="M32.152,-8.497L32.289,-8.495L32.425,-8.493L32.56,-8.49L32.696,-8.486L32.831,-8.481L32.967,-8.476L33.102,-8.469L33.236,-8.462L33.371,-8.453L33.505,-8.444L33.639,-8.435L33.773,-8.424L33.907,-8.412L34.04,-8.4L34.173,-8.387L34.306,-8.373L34.439,-8.358L34.572,-8.342L34.704,-8.326L34.836,-8.308L34.967,-8.29L35.099,-8.271L35.23,-8.252L35.361,-8.231L35.492,-8.21L35.622,-8.188L35.752,-8.165L35.882,-8.141L36.012,-8.116L36.141,-8.091L36.27,-8.065L36.399,-8.038L36.527,-8.01L36.656,-7.982L36.783,-7.953L36.911,-7.923L37.038,-7.892L37.165,-7.86L37.292,-7.828L37.418,-7.795L37.544,-7.761L37.67,-7.727L37.796,-7.691L37.921,-7.655L38.046,-7.618L38.17,-7.581L38.294,-7.542L38.418,-7.503L38.542,-7.464L38.665,-7.423L38.788,-7.382L38.91,-7.34L39.032,-7.297L39.154,-7.253L39.278,-7.209L39.518,-7.119L39.758,-7.025L39.997,-6.929L40.235,-6.83L40.471,-6.728L40.706,-6.624L40.939,-6.516L41.17,-6.406L41.4,-6.293L41.629,-6.178L41.856,-6.06L42.081,-5.939L42.304,-5.815L42.526,-5.689L42.746,-5.561L42.965,-5.429L43.182,-5.296L43.397,-5.159L43.61,-5.021L43.821,-4.879L44.031,-4.736L44.239,-4.589L44.445,-4.441L44.649,-4.29L44.851,-4.137L45.051,-3.981L45.249,-3.823L45.446,-3.662L45.64,-3.5L45.833,-3.335L46.023,-3.168L46.211,-2.998L46.398,-2.827L46.582,-2.653L46.764,-2.477L46.944,-2.299L47.122,-2.118L47.298,-1.936L47.471,-1.752L47.643,-1.565L47.812,-1.376L47.979,-1.186L48.143,-0.993L48.306,-0.799L48.466,-0.602L48.624,-0.404L48.779,-0.203L48.932,-0.001L49.083,0.203L49.231,0.41L49.377,0.618L49.52,0.827L49.661,1.039L49.8,1.252L49.936,1.467L50.069,1.684L50.2,1.903L50.328,2.123L50.454,2.345L50.577,2.569L50.697,2.794L50.815,3.021L50.93,3.249L51.043,3.479L51.153,3.711L51.26,3.944L51.364,4.179L51.465,4.415L51.564,4.653L51.66,4.892L51.753,5.132L51.842,5.372L51.887,5.495L51.93,5.617L51.973,5.739L52.015,5.862L52.056,5.985L52.096,6.108L52.136,6.231L52.175,6.355L52.213,6.479L52.25,6.604L52.287,6.729L52.323,6.854L52.358,6.979L52.392,7.105L52.426,7.231L52.459,7.357L52.491,7.484L52.522,7.611L52.553,7.738L52.583,7.866L52.612,7.994L52.64,8.122L52.667,8.25L52.694,8.379L52.72,8.508L52.745,8.637L52.769,8.766L52.793,8.896L52.816,9.026L52.838,9.157L52.859,9.287L52.879,9.418L52.899,9.549L52.917,9.681L52.935,9.812L52.952,9.944L52.969,10.076L52.984,10.209L52.999,10.341L53.013,10.474L53.026,10.607L53.038,10.74L53.049,10.874L53.06,11.008L53.069,11.142L53.078,11.276L53.086,11.41L53.093,11.545L53.1,11.68L53.105,11.815L53.11,11.95L53.114,12.086L53.117,12.221L53.119,12.357L53.12,12.493L53.12,12.629L53.12,12.766L53.118,12.902L53.116,13.038L53.113,13.173L53.109,13.309L53.104,13.444L53.099,13.579L53.092,13.714L53.085,13.848L53.076,13.983L53.067,14.117L53.058,14.251L53.047,14.385L53.035,14.518L53.023,14.651L53.01,14.784L52.996,14.917L52.981,15.05L52.965,15.182L52.949,15.314L52.931,15.446L52.913,15.578L52.894,15.709L52.875,15.84L52.854,15.971L52.833,16.101L52.811,16.232L52.788,16.362L52.764,16.491L52.74,16.621L52.714,16.75L52.688,16.879L52.661,17.007L52.634,17.136L52.605,17.264L52.576,17.392L52.546,17.519L52.515,17.646L52.484,17.773L52.452,17.9L52.419,18.026L52.385,18.152L52.35,18.277L52.315,18.403L52.279,18.528L52.242,18.652L52.205,18.777L52.166,18.901L52.127,19.025L52.088,19.148L52.047,19.271L52.006,19.394L51.964,19.516L51.921,19.638L51.878,19.76L51.833,19.883L51.743,20.123L51.65,20.363L51.554,20.602L51.455,20.839L51.353,21.075L51.249,21.31L51.141,21.542L51.031,21.774L50.919,22.004L50.803,22.232L50.685,22.458L50.564,22.683L50.441,22.907L50.315,23.128L50.187,23.348L50.056,23.566L49.922,23.783L49.786,23.998L49.647,24.211L49.506,24.422L49.363,24.631L49.217,24.839L49.068,25.045L48.917,25.248L48.764,25.45L48.609,25.65L48.451,25.849L48.291,26.045L48.128,26.239L47.963,26.431L47.796,26.621L47.627,26.81L47.456,26.996L47.282,27.18L47.106,27.362L46.928,27.541L46.748,27.719L46.566,27.895L46.382,28.068L46.195,28.239L46.007,28.408L45.817,28.575L45.624,28.739L45.43,28.902L45.233,29.062L45.035,29.219L44.835,29.374L44.633,29.527L44.429,29.678L44.223,29.826L44.015,29.972L43.806,30.115L43.594,30.256L43.381,30.394L43.166,30.53L42.95,30.663L42.731,30.794L42.511,30.922L42.289,31.047L42.066,31.17L41.841,31.291L41.614,31.408L41.386,31.524L41.156,31.636L40.925,31.745L40.692,31.852L40.458,31.956L40.222,32.058L39.984,32.156L39.746,32.252L39.505,32.345L39.265,32.434L39.142,32.479L39.021,32.522L38.899,32.565L38.776,32.607L38.654,32.648L38.531,32.688L38.407,32.728L38.284,32.766L38.159,32.804L38.035,32.842L37.911,32.878L37.786,32.914L37.66,32.949L37.535,32.984L37.409,33.017L37.283,33.05L37.156,33.082L37.029,33.113L36.902,33.144L36.775,33.174L36.647,33.203L36.519,33.231L36.391,33.258L36.262,33.285L36.133,33.311L36.004,33.336L35.875,33.36L35.745,33.384L35.615,33.407L35.485,33.429L35.355,33.45L35.224,33.47L35.093,33.49L34.962,33.508L34.83,33.526L34.699,33.543L34.567,33.56L34.434,33.575L34.302,33.59L34.169,33.603L34.036,33.616L33.903,33.629L33.77,33.64L33.636,33.651L33.502,33.66L33.368,33.669L33.234,33.677L33.099,33.684L32.965,33.691L32.83,33.696L32.695,33.701L32.559,33.704L32.424,33.707L32.288,33.709L32.152,33.711L32.016,33.711L31.88,33.71L31.744,33.709L31.608,33.707L31.473,33.704L31.338,33.7L31.202,33.695L31.068,33.689L30.933,33.683L30.798,33.675L30.664,33.667L30.53,33.658L30.396,33.648L30.263,33.638L30.129,33.626L29.996,33.614L29.863,33.601L29.731,33.587L29.598,33.572L29.466,33.556L29.334,33.54L29.202,33.522L29.071,33.504L28.94,33.485L28.809,33.466L28.678,33.445L28.548,33.424L28.418,33.402L28.288,33.379L28.158,33.355L28.029,33.331L27.9,33.305L27.771,33.279L27.643,33.253L27.514,33.225L27.387,33.197L27.259,33.167L27.132,33.137L27.005,33.107L26.878,33.075L26.751,33.043L26.625,33.01L26.5,32.976L26.374,32.942L26.249,32.907L26.124,32.871L25.999,32.834L25.875,32.796L25.751,32.758L25.628,32.719L25.504,32.679L25.382,32.639L25.259,32.598L25.137,32.556L25.015,32.513L24.893,32.47L24.77,32.425L24.531,32.335L24.291,32.242L24.052,32.146L23.815,32.047L23.579,31.946L23.345,31.841L23.113,31.734L22.881,31.624L22.652,31.512L22.424,31.396L22.198,31.278L21.973,31.158L21.75,31.035L21.529,30.909L21.309,30.781L21.091,30.65L20.875,30.516L20.66,30.38L20.447,30.242L20.236,30.101L20.027,29.957L19.82,29.811L19.614,29.663L19.411,29.513L19.209,29.359L19.009,29.204L18.811,29.046L18.615,28.886L18.421,28.724L18.229,28.56L18.039,28.393L17.851,28.224L17.665,28.052L17.481,27.879L17.3,27.703L17.12,27.526L16.942,27.346L16.767,27.164L16.594,26.98L16.423,26.793L16.254,26.605L16.088,26.415L15.923,26.223L15.761,26.029L15.601,25.833L15.444,25.634L15.289,25.434L15.136,25.232L14.986,25.029L14.838,24.823L14.692,24.615L14.549,24.406L14.409,24.195L14.271,23.982L14.135,23.767L14.002,23.551L13.871,23.333L13.743,23.113L13.618,22.892L13.495,22.669L13.375,22.444L13.257,22.217L13.142,21.989L13.03,21.76L12.92,21.529L12.814,21.296L12.71,21.062L12.608,20.826L12.51,20.589L12.414,20.351L12.321,20.111L12.232,19.871L12.188,19.748L12.144,19.626L12.102,19.505L12.06,19.382L12.019,19.26L11.979,19.137L11.939,19.014L11.901,18.89L11.863,18.766L11.825,18.642L11.789,18.517L11.753,18.393L11.718,18.267L11.684,18.142L11.65,18.016L11.617,17.89L11.585,17.764L11.554,17.637L11.523,17.51L11.494,17.383L11.465,17.255L11.436,17.127L11.409,16.999L11.382,16.871L11.357,16.742L11.332,16.613L11.307,16.484L11.284,16.355L11.261,16.225L11.239,16.095L11.218,15.964L11.198,15.834L11.178,15.703L11.16,15.572L11.142,15.441L11.125,15.309L11.108,15.177L11.093,15.045L11.078,14.913L11.064,14.78L11.051,14.647L11.039,14.514L11.028,14.381L11.017,14.248L11.008,14.114L10.999,13.98L10.991,13.846L10.984,13.712L10.977,13.577L10.972,13.442L10.967,13.307L10.964,13.172L10.961,13.037L10.959,12.901L10.957,12.765L10.957,12.629L10.958,12.493L10.959,12.358L10.961,12.222L10.964,12.087L10.968,11.952L10.973,11.817L10.979,11.682L10.985,11.547L10.993,11.413L11.001,11.279L11.01,11.145L11.02,11.011L11.03,10.878L11.042,10.745L11.054,10.612L11.067,10.479L11.081,10.346L11.096,10.214L11.112,10.082L11.128,9.95L11.145,9.819L11.164,9.687L11.182,9.556L11.202,9.426L11.223,9.295L11.244,9.165L11.266,9.035L11.289,8.905L11.312,8.776L11.337,8.646L11.362,8.518L11.388,8.389L11.415,8.261L11.443,8.133L11.471,8.005L11.5,7.877L11.53,7.75L11.561,7.623L11.592,7.497L11.624,7.37L11.657,7.244L11.691,7.119L11.725,6.993L11.761,6.868L11.797,6.744L11.833,6.619L11.871,6.495L11.909,6.371L11.948,6.248L11.988,6.125L12.028,6.002L12.069,5.879L12.111,5.757L12.154,5.636L12.197,5.514L12.242,5.391L12.331,5.152L12.424,4.912L12.52,4.674L12.619,4.437L12.72,4.202L12.825,3.968L12.932,3.735L13.042,3.505L13.154,3.275L13.269,3.048L13.387,2.821L13.507,2.597L13.63,2.374L13.756,2.153L13.884,1.934L14.015,1.716L14.148,1.5L14.284,1.285L14.423,1.073L14.563,0.862L14.707,0.653L14.852,0.446L15.001,0.241L15.151,0.037L15.304,-0.164L15.459,-0.364L15.617,-0.562L15.776,-0.757L15.939,-0.951L16.103,-1.143L16.27,-1.333L16.439,-1.52L16.61,-1.706L16.783,-1.89L16.958,-2.071L17.136,-2.251L17.316,-2.428L17.497,-2.603L17.681,-2.776L17.867,-2.947L18.055,-3.116L18.245,-3.282L18.437,-3.446L18.631,-3.608L18.827,-3.768L19.025,-3.925L19.225,-4.08L19.427,-4.232L19.63,-4.383L19.836,-4.53L20.043,-4.676L20.252,-4.819L20.463,-4.959L20.675,-5.097L20.89,-5.233L21.106,-5.366L21.324,-5.496L21.544,-5.624L21.765,-5.749L21.988,-5.872L22.212,-5.992L22.438,-6.11L22.666,-6.224L22.895,-6.336L23.126,-6.446L23.359,-6.553L23.593,-6.656L23.828,-6.758L24.065,-6.856L24.303,-6.952L24.543,-7.044L24.782,-7.133L24.905,-7.178L25.027,-7.221L25.148,-7.263L25.27,-7.305L25.393,-7.346L25.516,-7.386L25.639,-7.426L25.762,-7.465L25.886,-7.503L26.01,-7.54L26.134,-7.576L26.259,-7.612L26.384,-7.647L26.509,-7.681L26.635,-7.715L26.761,-7.748L26.887,-7.78L27.014,-7.811L27.141,-7.841L27.268,-7.871L27.395,-7.9L27.523,-7.928L27.651,-7.956L27.779,-7.982L27.908,-8.008L28.036,-8.033L28.166,-8.057L28.295,-8.081L28.425,-8.103L28.554,-8.125L28.685,-8.146L28.815,-8.167L28.946,-8.186L29.077,-8.205L29.208,-8.223L29.339,-8.24L29.471,-8.256L29.603,-8.271L29.735,-8.286L29.868,-8.3L30,-8.313L30.133,-8.325L30.266,-8.336L30.4,-8.347L30.533,-8.356L30.667,-8.365L30.801,-8.373L30.935,-8.38L31.069,-8.387L31.204,-8.392L31.339,-8.397L31.474,-8.401L31.609,-8.403L31.745,-8.406L31.88,-8.407L32.012,-8.407L32.02,-8.497L32.152,-8.497ZM31.895,-6.087L31.774,-6.086L31.653,-6.084L31.533,-6.081L31.413,-6.077L31.292,-6.073L31.172,-6.068L31.053,-6.062L30.933,-6.056L30.814,-6.049L30.695,-6.04L30.576,-6.032L30.457,-6.022L30.339,-6.012L30.221,-6.001L30.103,-5.989L29.985,-5.977L29.867,-5.964L29.75,-5.95L29.633,-5.935L29.516,-5.92L29.399,-5.904L29.283,-5.887L29.166,-5.869L29.051,-5.851L28.935,-5.832L28.819,-5.813L28.704,-5.792L28.589,-5.771L28.474,-5.75L28.36,-5.727L28.246,-5.704L28.132,-5.68L28.018,-5.656L27.905,-5.631L27.791,-5.605L27.678,-5.578L27.566,-5.551L27.453,-5.523L27.341,-5.494L27.229,-5.465L27.118,-5.435L27.006,-5.405L26.895,-5.373L26.785,-5.341L26.674,-5.309L26.564,-5.275L26.454,-5.242L26.345,-5.207L26.235,-5.172L26.126,-5.136L26.017,-5.099L25.909,-5.062L25.801,-5.024L25.693,-4.986L25.587,-4.947L25.371,-4.866L25.159,-4.784L24.947,-4.699L24.737,-4.611L24.528,-4.521L24.32,-4.428L24.113,-4.333L23.908,-4.235L23.705,-4.136L23.503,-4.033L23.302,-3.929L23.102,-3.822L22.904,-3.712L22.708,-3.6L22.513,-3.486L22.319,-3.37L22.127,-3.252L21.937,-3.131L21.748,-3.008L21.56,-2.883L21.375,-2.755L21.19,-2.626L21.008,-2.494L20.827,-2.36L20.648,-2.224L20.47,-2.086L20.294,-1.946L20.12,-1.804L19.948,-1.66L19.777,-1.513L19.609,-1.365L19.442,-1.215L19.276,-1.063L19.113,-0.909L18.952,-0.753L18.792,-0.595L18.634,-0.435L18.479,-0.273L18.325,-0.11L18.173,0.056L18.023,0.223L17.875,0.392L17.729,0.563L17.585,0.735L17.443,0.91L17.303,1.086L17.165,1.263L17.03,1.443L16.896,1.624L16.765,1.806L16.636,1.991L16.509,2.177L16.384,2.364L16.261,2.553L16.141,2.744L16.022,2.936L15.907,3.13L15.793,3.325L15.682,3.521L15.573,3.719L15.466,3.919L15.362,4.12L15.26,4.322L15.16,4.526L15.063,4.731L14.968,4.937L14.876,5.145L14.786,5.354L14.699,5.565L14.614,5.776L14.532,5.989L14.451,6.205L14.413,6.311L14.375,6.418L14.337,6.527L14.3,6.635L14.264,6.744L14.228,6.853L14.193,6.962L14.158,7.072L14.125,7.181L14.092,7.292L14.059,7.402L14.027,7.513L13.996,7.624L13.966,7.735L13.936,7.846L13.907,7.958L13.879,8.07L13.851,8.183L13.824,8.295L13.798,8.408L13.772,8.521L13.747,8.635L13.723,8.748L13.699,8.862L13.676,8.976L13.654,9.091L13.632,9.206L13.612,9.32L13.591,9.436L13.572,9.551L13.553,9.667L13.535,9.783L13.518,9.899L13.501,10.015L13.486,10.132L13.47,10.248L13.456,10.365L13.442,10.483L13.429,10.6L13.417,10.718L13.405,10.836L13.395,10.954L13.385,11.072L13.375,11.191L13.367,11.309L13.359,11.428L13.352,11.548L13.345,11.667L13.34,11.787L13.335,11.906L13.331,12.026L13.328,12.147L13.325,12.267L13.323,12.388L13.322,12.508L13.322,12.629L13.322,12.75L13.324,12.871L13.326,12.992L13.328,13.112L13.332,13.232L13.336,13.352L13.341,13.472L13.347,13.592L13.353,13.711L13.361,13.83L13.369,13.949L13.378,14.068L13.387,14.186L13.397,14.305L13.408,14.423L13.42,14.541L13.432,14.658L13.446,14.776L13.459,14.893L13.474,15.01L13.489,15.127L13.505,15.243L13.522,15.36L13.54,15.476L13.558,15.591L13.577,15.707L13.596,15.822L13.617,15.937L13.638,16.052L13.659,16.167L13.682,16.281L13.705,16.395L13.729,16.509L13.753,16.623L13.778,16.736L13.804,16.849L13.831,16.962L13.858,17.074L13.886,17.187L13.914,17.299L13.943,17.41L13.973,17.522L14.004,17.633L14.035,17.744L14.067,17.854L14.1,17.965L14.133,18.075L14.167,18.185L14.201,18.294L14.236,18.403L14.272,18.512L14.309,18.621L14.346,18.729L14.384,18.837L14.422,18.945L14.461,19.05L14.541,19.266L14.624,19.479L14.709,19.69L14.797,19.9L14.887,20.109L14.979,20.316L15.074,20.522L15.172,20.727L15.271,20.931L15.374,21.133L15.478,21.333L15.585,21.532L15.694,21.73L15.806,21.926L15.92,22.121L16.036,22.315L16.154,22.506L16.275,22.697L16.398,22.885L16.523,23.073L16.65,23.258L16.779,23.442L16.911,23.624L17.045,23.805L17.18,23.984L17.318,24.161L17.458,24.337L17.6,24.511L17.744,24.683L17.89,24.853L18.038,25.022L18.188,25.189L18.34,25.354L18.494,25.517L18.65,25.678L18.808,25.837L18.968,25.995L19.129,26.151L19.293,26.304L19.458,26.456L19.625,26.606L19.794,26.754L19.964,26.899L20.136,27.043L20.311,27.185L20.486,27.325L20.664,27.462L20.843,27.598L21.024,27.731L21.206,27.862L21.39,27.991L21.576,28.118L21.763,28.243L21.952,28.365L22.143,28.486L22.334,28.604L22.528,28.72L22.723,28.833L22.919,28.944L23.117,29.053L23.316,29.16L23.517,29.264L23.719,29.366L23.922,29.465L24.127,29.562L24.333,29.657L24.541,29.749L24.75,29.839L24.96,29.926L25.171,30.011L25.384,30.093L25.599,30.173L25.705,30.211L25.813,30.25L25.921,30.287L26.029,30.324L26.138,30.36L26.246,30.396L26.356,30.431L26.465,30.465L26.575,30.499L26.685,30.532L26.795,30.565L26.906,30.596L27.016,30.627L27.128,30.658L27.239,30.687L27.351,30.716L27.463,30.745L27.575,30.773L27.687,30.8L27.8,30.826L27.913,30.852L28.026,30.876L28.14,30.901L28.254,30.924L28.368,30.947L28.482,30.969L28.596,30.991L28.711,31.012L28.826,31.032L28.941,31.051L29.057,31.07L29.173,31.088L29.289,31.105L29.405,31.122L29.521,31.138L29.638,31.153L29.755,31.167L29.872,31.181L29.989,31.194L30.107,31.206L30.225,31.218L30.343,31.228L30.461,31.238L30.579,31.248L30.698,31.256L30.817,31.264L30.936,31.271L31.055,31.277L31.174,31.283L31.294,31.288L31.414,31.292L31.534,31.295L31.654,31.298L31.775,31.3L31.895,31.301L32.016,31.301L32.137,31.301L32.258,31.299L32.378,31.297L32.498,31.295L32.618,31.291L32.738,31.287L32.858,31.282L32.977,31.276L33.096,31.27L33.215,31.262L33.334,31.254L33.453,31.245L33.571,31.236L33.689,31.226L33.807,31.215L33.925,31.203L34.043,31.191L34.16,31.178L34.277,31.164L34.394,31.149L34.51,31.134L34.627,31.118L34.743,31.101L34.859,31.084L34.975,31.065L35.09,31.047L35.205,31.027L35.32,31.007L35.435,30.986L35.549,30.964L35.663,30.942L35.777,30.919L35.891,30.895L36.005,30.87L36.118,30.845L36.231,30.819L36.343,30.793L36.456,30.766L36.568,30.738L36.68,30.709L36.791,30.68L36.903,30.65L37.014,30.62L37.124,30.589L37.235,30.557L37.345,30.524L37.455,30.491L37.565,30.457L37.674,30.423L37.783,30.388L37.892,30.352L38,30.315L38.108,30.278L38.216,30.24L38.324,30.202L38.429,30.164L38.645,30.083L38.857,30.001L39.068,29.916L39.278,29.828L39.487,29.738L39.694,29.646L39.9,29.551L40.104,29.454L40.307,29.354L40.509,29.252L40.709,29.147L40.908,29.041L41.106,28.931L41.302,28.82L41.497,28.706L41.69,28.59L41.881,28.472L42.071,28.352L42.26,28.229L42.447,28.104L42.632,27.977L42.816,27.848L42.998,27.716L43.178,27.583L43.357,27.447L43.534,27.31L43.709,27.17L43.883,27.028L44.055,26.884L44.225,26.738L44.394,26.59L44.56,26.44L44.725,26.289L44.888,26.135L45.049,25.979L45.208,25.822L45.366,25.662L45.521,25.501L45.675,25.338L45.826,25.173L45.976,25.006L46.123,24.837L46.269,24.667L46.412,24.495L46.554,24.321L46.694,24.145L46.831,23.968L46.966,23.789L47.099,23.608L47.231,23.426L47.359,23.242L47.486,23.057L47.611,22.87L47.733,22.681L47.853,22.491L47.971,22.299L48.087,22.106L48.2,21.911L48.311,21.715L48.42,21.518L48.526,21.319L48.631,21.118L48.732,20.916L48.832,20.713L48.928,20.509L49.023,20.303L49.115,20.095L49.205,19.887L49.292,19.677L49.376,19.466L49.458,19.254L49.539,19.038L49.577,18.933L49.615,18.825L49.653,18.717L49.69,18.609L49.726,18.501L49.761,18.392L49.796,18.283L49.831,18.174L49.864,18.064L49.897,17.954L49.93,17.844L49.961,17.734L49.992,17.623L50.023,17.512L50.052,17.401L50.081,17.289L50.11,17.177L50.137,17.065L50.164,16.953L50.191,16.84L50.216,16.727L50.241,16.614L50.265,16.501L50.289,16.387L50.312,16.273L50.334,16.159L50.356,16.045L50.376,15.93L50.396,15.815L50.416,15.7L50.434,15.585L50.452,15.469L50.47,15.354L50.486,15.238L50.502,15.121L50.517,15.005L50.532,14.888L50.545,14.771L50.558,14.654L50.57,14.536L50.582,14.419L50.593,14.301L50.603,14.183L50.612,14.065L50.62,13.946L50.628,13.827L50.635,13.708L50.642,13.589L50.647,13.47L50.652,13.351L50.656,13.231L50.66,13.111L50.662,12.991L50.664,12.871L50.665,12.75L50.665,12.629L50.665,12.509L50.664,12.388L50.662,12.268L50.659,12.148L50.655,12.028L50.651,11.908L50.646,11.789L50.64,11.669L50.634,11.55L50.626,11.431L50.618,11.313L50.61,11.194L50.6,11.076L50.59,10.958L50.579,10.84L50.567,10.723L50.555,10.605L50.542,10.488L50.528,10.371L50.513,10.254L50.498,10.138L50.482,10.022L50.465,9.906L50.448,9.79L50.43,9.674L50.411,9.559L50.392,9.444L50.371,9.329L50.35,9.215L50.329,9.1L50.306,8.986L50.283,8.873L50.26,8.759L50.235,8.646L50.21,8.533L50.184,8.42L50.158,8.307L50.131,8.195L50.103,8.083L50.074,7.971L50.045,7.86L50.015,7.749L49.985,7.638L49.954,7.527L49.922,7.417L49.889,7.307L49.856,7.197L49.822,7.088L49.788,6.978L49.753,6.869L49.717,6.761L49.681,6.652L49.644,6.544L49.606,6.437L49.568,6.329L49.529,6.224L49.449,6.009L49.366,5.797L49.281,5.586L49.194,5.376L49.104,5.168L49.012,4.961L48.917,4.755L48.82,4.551L48.72,4.348L48.618,4.147L48.514,3.947L48.408,3.748L48.299,3.551L48.187,3.355L48.074,3.16L47.958,2.968L47.84,2.776L47.719,2.586L47.597,2.398L47.472,2.211L47.345,2.026L47.216,1.843L47.085,1.661L46.952,1.481L46.816,1.302L46.679,1.125L46.539,0.95L46.397,0.777L46.254,0.605L46.108,0.435L45.96,0.267L45.81,0.1L45.659,-0.064L45.505,-0.227L45.35,-0.388L45.192,-0.547L45.033,-0.704L44.872,-0.859L44.709,-1.013L44.544,-1.164L44.378,-1.313L44.209,-1.461L44.039,-1.606L43.867,-1.75L43.693,-1.891L43.518,-2.03L43.341,-2.168L43.162,-2.303L42.982,-2.436L42.8,-2.567L42.616,-2.695L42.431,-2.822L42.244,-2.947L42.056,-3.069L41.866,-3.189L41.674,-3.306L41.481,-3.422L41.287,-3.535L41.091,-3.646L40.894,-3.755L40.695,-3.861L40.495,-3.965L40.293,-4.067L40.09,-4.166L39.886,-4.263L39.68,-4.357L39.473,-4.449L39.265,-4.538L39.055,-4.625L38.844,-4.71L38.632,-4.792L38.417,-4.872L38.312,-4.91L38.205,-4.948L38.097,-4.986L37.989,-5.023L37.88,-5.059L37.772,-5.094L37.663,-5.129L37.554,-5.164L37.444,-5.197L37.335,-5.23L37.225,-5.263L37.114,-5.294L37.004,-5.325L36.893,-5.355L36.782,-5.385L36.67,-5.414L36.559,-5.442L36.447,-5.47L36.334,-5.497L36.222,-5.523L36.109,-5.549L35.996,-5.574L35.883,-5.598L35.77,-5.621L35.656,-5.644L35.542,-5.666L35.428,-5.688L35.313,-5.709L35.198,-5.729L35.083,-5.748L34.968,-5.767L34.853,-5.785L34.737,-5.802L34.621,-5.818L34.505,-5.834L34.389,-5.849L34.272,-5.864L34.155,-5.877L34.038,-5.89L33.921,-5.902L33.803,-5.914L33.686,-5.925L33.568,-5.935L33.45,-5.944L33.331,-5.953L33.213,-5.96L33.094,-5.967L32.975,-5.974L32.856,-5.979L32.736,-5.984L32.617,-5.988L32.497,-5.992L32.377,-5.994L32.257,-5.996L32.137,-5.997L32.012,-5.997L32.012,-6.087L31.895,-6.087Z" style="fill:#cecfeb;"/>
                <path d="M32.215,-2.791L32.413,-2.787L32.611,-2.78L32.808,-2.771L33.005,-2.76L33.201,-2.746L33.396,-2.73L33.59,-2.711L33.784,-2.69L33.978,-2.666L34.17,-2.64L34.362,-2.612L34.553,-2.581L34.743,-2.548L34.932,-2.513L35.121,-2.476L35.309,-2.436L35.496,-2.394L35.682,-2.349L35.867,-2.302L36.051,-2.254L36.235,-2.203L36.417,-2.149L36.599,-2.094L36.779,-2.036L36.959,-1.976L37.137,-1.914L37.315,-1.85L37.492,-1.784L37.667,-1.716L37.842,-1.646L38.015,-1.573L38.187,-1.499L38.359,-1.423L38.529,-1.344L38.698,-1.264L38.866,-1.181L39.032,-1.097L39.198,-1.011L39.362,-0.923L39.525,-0.832L39.687,-0.74L39.848,-0.646L40.007,-0.551L40.166,-0.453L40.322,-0.353L40.478,-0.252L40.632,-0.149L40.785,-0.044L40.937,0.063L41.087,0.171L41.236,0.281L41.384,0.393L41.53,0.507L41.674,0.622L41.818,0.739L41.959,0.858L42.1,0.978L42.239,1.101L42.376,1.224L42.512,1.349L42.646,1.476L42.779,1.605L42.911,1.735L43.04,1.866L43.169,1.999L43.295,2.134L43.42,2.27L43.544,2.408L43.665,2.547L43.786,2.688L43.904,2.83L44.021,2.973L44.136,3.118L44.249,3.264L44.361,3.412L44.471,3.561L44.579,3.711L44.685,3.863L44.79,4.016L44.893,4.171L44.994,4.326L45.093,4.483L45.19,4.642L45.286,4.801L45.379,4.962L45.471,5.124L45.561,5.287L45.649,5.452L45.735,5.617L45.819,5.784L45.901,5.952L45.981,6.121L46.059,6.291L46.135,6.462L46.209,6.635L46.281,6.808L46.351,6.983L46.418,7.158L46.484,7.335L46.548,7.512L46.609,7.691L46.669,7.871L46.726,8.051L46.781,8.233L46.834,8.415L46.885,8.598L46.933,8.782L46.979,8.968L47.023,9.153L47.065,9.34L47.105,9.528L47.142,9.716L47.177,9.906L47.209,10.096L47.24,10.286L47.267,10.478L47.293,10.67L47.316,10.863L47.337,11.057L47.355,11.251L47.371,11.446L47.385,11.642L47.396,11.838L47.404,12.035L47.41,12.233L47.414,12.431L47.415,12.629L47.413,12.828L47.409,13.026L47.403,13.223L47.394,13.42L47.383,13.617L47.369,13.812L47.353,14.007L47.334,14.201L47.313,14.395L47.289,14.588L47.263,14.78L47.235,14.972L47.205,15.162L47.172,15.352L47.136,15.541L47.099,15.73L47.059,15.917L47.017,16.104L46.973,16.29L46.926,16.474L46.877,16.659L46.826,16.842L46.773,17.024L46.718,17.205L46.66,17.385L46.6,17.565L46.539,17.743L46.475,17.92L46.409,18.097L46.341,18.272L46.27,18.446L46.198,18.619L46.124,18.792L46.048,18.963L45.969,19.132L45.889,19.301L45.807,19.469L45.722,19.635L45.636,19.801L45.548,19.965L45.458,20.128L45.366,20.289L45.272,20.45L45.177,20.609L45.079,20.767L44.98,20.923L44.879,21.079L44.776,21.233L44.671,21.386L44.564,21.537L44.456,21.687L44.346,21.836L44.234,21.983L44.121,22.129L44.006,22.273L43.889,22.417L43.77,22.558L43.65,22.698L43.528,22.837L43.405,22.974L43.28,23.11L43.153,23.244L43.025,23.377L42.895,23.508L42.763,23.638L42.63,23.766L42.496,23.892L42.36,24.017L42.223,24.14L42.084,24.262L41.943,24.382L41.802,24.5L41.658,24.616L41.514,24.731L41.367,24.845L41.22,24.956L41.071,25.066L40.921,25.174L40.769,25.28L40.617,25.384L40.462,25.487L40.307,25.588L40.15,25.687L39.992,25.784L39.833,25.879L39.672,25.973L39.51,26.064L39.347,26.154L39.183,26.242L39.018,26.328L38.851,26.412L38.684,26.493L38.515,26.573L38.345,26.651L38.174,26.727L38.002,26.801L37.829,26.873L37.654,26.943L37.479,27.011L37.303,27.076L37.126,27.14L36.947,27.201L36.768,27.261L36.588,27.318L36.407,27.373L36.224,27.426L36.041,27.476L35.857,27.525L35.673,27.571L35.487,27.615L35.3,27.656L35.113,27.696L34.925,27.733L34.736,27.768L34.546,27.8L34.356,27.83L34.164,27.858L33.972,27.884L33.78,27.907L33.586,27.928L33.392,27.946L33.197,27.962L33.002,27.975L32.806,27.986L32.609,27.995L32.412,28.001L32.214,28.005L32.016,28.006L31.818,28.004L31.62,28L31.423,27.994L31.226,27.985L31.03,27.973L30.835,27.96L30.64,27.943L30.446,27.925L30.253,27.904L30.06,27.88L29.868,27.854L29.677,27.826L29.487,27.796L29.297,27.763L29.108,27.728L28.92,27.69L28.733,27.65L28.547,27.608L28.361,27.564L28.177,27.518L27.993,27.469L27.81,27.418L27.628,27.365L27.447,27.309L27.267,27.252L27.088,27.192L26.91,27.131L26.733,27.067L26.557,27.001L26.382,26.933L26.208,26.863L26.035,26.791L25.863,26.716L25.692,26.64L25.523,26.562L25.354,26.482L25.187,26.4L25.02,26.316L24.855,26.23L24.692,26.142L24.529,26.052L24.367,25.96L24.207,25.866L24.048,25.771L23.891,25.673L23.734,25.574L23.579,25.473L23.425,25.37L23.273,25.266L23.121,25.159L22.972,25.051L22.823,24.941L22.676,24.83L22.53,24.716L22.386,24.601L22.243,24.485L22.102,24.366L21.962,24.246L21.823,24.124L21.686,24.001L21.551,23.876L21.417,23.75L21.284,23.622L21.153,23.492L21.024,23.361L20.896,23.228L20.77,23.094L20.645,22.958L20.522,22.821L20.401,22.682L20.281,22.542L20.163,22.4L20.047,22.257L19.932,22.113L19.819,21.967L19.708,21.82L19.598,21.671L19.49,21.521L19.384,21.37L19.28,21.217L19.177,21.063L19.077,20.908L18.978,20.751L18.881,20.594L18.785,20.435L18.692,20.274L18.601,20.113L18.511,19.95L18.424,19.786L18.338,19.621L18.254,19.455L18.172,19.287L18.092,19.119L18.015,18.949L17.939,18.778L17.865,18.606L17.793,18.433L17.724,18.259L17.656,18.084L17.59,17.908L17.527,17.731L17.466,17.553L17.406,17.374L17.349,17.194L17.294,17.013L17.242,16.831L17.191,16.649L17.143,16.465L17.097,16.28L17.053,16.095L17.011,15.909L16.972,15.722L16.935,15.534L16.9,15.345L16.867,15.156L16.837,14.965L16.809,14.774L16.784,14.583L16.761,14.39L16.74,14.197L16.722,14.003L16.706,13.809L16.693,13.614L16.682,13.418L16.673,13.222L16.667,13.025L16.663,12.827L16.662,12.629L16.664,12.431L16.668,12.234L16.674,12.037L16.683,11.841L16.694,11.645L16.708,11.45L16.725,11.256L16.743,11.062L16.764,10.869L16.788,10.676L16.813,10.485L16.842,10.294L16.872,10.104L16.905,9.914L16.94,9.726L16.977,9.538L17.017,9.351L17.059,9.165L17.103,8.98L17.15,8.795L17.198,8.612L17.249,8.429L17.302,8.248L17.358,8.067L17.415,7.887L17.474,7.708L17.536,7.531L17.6,7.354L17.666,7.178L17.734,7.003L17.804,6.829L17.876,6.657L17.95,6.485L18.026,6.315L18.104,6.145L18.184,5.977L18.266,5.81L18.35,5.644L18.436,5.479L18.524,5.316L18.613,5.153L18.705,4.992L18.799,4.832L18.894,4.673L18.991,4.516L19.09,4.36L19.191,4.205L19.294,4.051L19.398,3.899L19.505,3.748L19.613,3.598L19.722,3.45L19.834,3.303L19.947,3.158L20.062,3.014L20.178,2.871L20.297,2.73L20.416,2.59L20.538,2.452L20.661,2.315L20.786,2.179L20.912,2.046L21.04,1.913L21.169,1.783L21.3,1.653L21.433,1.526L21.567,1.4L21.702,1.275L21.84,1.152L21.978,1.031L22.118,0.912L22.259,0.794L22.402,0.677L22.546,0.563L22.692,0.45L22.839,0.339L22.988,0.229L23.137,0.122L23.288,0.016L23.441,-0.088L23.595,-0.191L23.75,-0.291L23.906,-0.39L24.064,-0.487L24.222,-0.582L24.382,-0.675L24.544,-0.766L24.706,-0.856L24.87,-0.943L25.035,-1.029L25.201,-1.112L25.368,-1.194L25.536,-1.274L25.706,-1.352L25.876,-1.427L26.048,-1.501L26.221,-1.573L26.394,-1.642L26.569,-1.71L26.745,-1.775L26.922,-1.839L27.099,-1.9L27.278,-1.959L27.458,-2.016L27.639,-2.071L27.82,-2.123L28.003,-2.174L28.186,-2.222L28.37,-2.268L28.555,-2.312L28.741,-2.354L28.928,-2.393L29.116,-2.43L29.304,-2.465L29.493,-2.497L29.683,-2.527L29.874,-2.555L30.066,-2.58L30.258,-2.603L30.451,-2.624L30.644,-2.642L30.838,-2.658L31.033,-2.672L31.228,-2.683L31.425,-2.691L31.621,-2.697L31.818,-2.701L32.009,-2.702L32.016,-2.747L32.024,-2.792L32.215,-2.791ZM31.848,-0.381L31.68,-0.377L31.513,-0.372L31.346,-0.364L31.18,-0.355L31.015,-0.343L30.85,-0.329L30.686,-0.313L30.522,-0.296L30.359,-0.276L30.197,-0.254L30.035,-0.23L29.874,-0.204L29.714,-0.176L29.554,-0.146L29.395,-0.115L29.237,-0.081L29.079,-0.046L28.922,-0.008L28.766,0.031L28.611,0.072L28.457,0.115L28.303,0.16L28.15,0.207L27.998,0.256L27.847,0.306L27.696,0.358L27.546,0.412L27.398,0.468L27.25,0.526L27.103,0.585L26.957,0.646L26.811,0.709L26.667,0.773L26.524,0.839L26.381,0.907L26.24,0.976L26.099,1.048L25.959,1.12L25.821,1.195L25.683,1.271L25.547,1.349L25.411,1.428L25.277,1.509L25.143,1.591L25.011,1.675L24.879,1.761L24.749,1.848L24.62,1.936L24.492,2.026L24.365,2.118L24.24,2.211L24.115,2.306L23.992,2.402L23.87,2.499L23.749,2.598L23.629,2.698L23.51,2.8L23.393,2.903L23.277,3.007L23.162,3.113L23.049,3.22L22.936,3.329L22.826,3.439L22.716,3.55L22.608,3.662L22.501,3.776L22.395,3.891L22.291,4.007L22.188,4.125L22.087,4.244L21.987,4.364L21.888,4.485L21.791,4.607L21.695,4.731L21.601,4.855L21.508,4.981L21.417,5.108L21.327,5.236L21.239,5.366L21.152,5.496L21.067,5.627L20.983,5.76L20.901,5.893L20.821,6.028L20.742,6.164L20.665,6.3L20.589,6.438L20.515,6.577L20.442,6.716L20.372,6.857L20.302,6.999L20.235,7.141L20.169,7.284L20.105,7.429L20.043,7.574L19.982,7.72L19.923,7.867L19.866,8.015L19.811,8.164L19.757,8.314L19.705,8.464L19.655,8.615L19.607,8.767L19.561,8.92L19.516,9.074L19.474,9.228L19.433,9.383L19.394,9.539L19.357,9.696L19.322,9.853L19.288,10.012L19.257,10.17L19.228,10.33L19.2,10.49L19.175,10.651L19.151,10.812L19.13,10.975L19.11,11.137L19.093,11.301L19.077,11.465L19.064,11.629L19.053,11.795L19.043,11.96L19.036,12.127L19.031,12.294L19.028,12.461L19.027,12.629L19.028,12.797L19.032,12.965L19.037,13.132L19.045,13.298L19.054,13.464L19.066,13.629L19.08,13.794L19.096,13.958L19.114,14.121L19.133,14.284L19.155,14.446L19.179,14.607L19.205,14.768L19.233,14.928L19.262,15.087L19.294,15.246L19.328,15.404L19.363,15.561L19.401,15.718L19.44,15.873L19.481,16.028L19.524,16.183L19.569,16.336L19.615,16.489L19.664,16.641L19.714,16.792L19.766,16.942L19.82,17.091L19.876,17.24L19.933,17.387L19.992,17.534L20.053,17.68L20.116,17.825L20.18,17.969L20.246,18.112L20.314,18.255L20.383,18.396L20.454,18.536L20.527,18.676L20.601,18.814L20.677,18.951L20.755,19.088L20.834,19.223L20.915,19.357L20.997,19.49L21.081,19.622L21.166,19.754L21.253,19.884L21.342,20.012L21.431,20.14L21.523,20.267L21.616,20.392L21.71,20.517L21.806,20.64L21.903,20.762L22.002,20.882L22.102,21.002L22.204,21.12L22.307,21.237L22.411,21.353L22.516,21.468L22.623,21.581L22.732,21.693L22.841,21.804L22.952,21.913L23.065,22.021L23.178,22.128L23.293,22.234L23.409,22.338L23.526,22.44L23.645,22.541L23.765,22.641L23.886,22.74L24.008,22.837L24.131,22.932L24.256,23.026L24.381,23.119L24.508,23.21L24.636,23.3L24.765,23.388L24.895,23.474L25.026,23.559L25.159,23.643L25.292,23.725L25.426,23.805L25.562,23.884L25.698,23.961L25.836,24.037L25.974,24.111L26.113,24.183L26.254,24.254L26.395,24.323L26.537,24.39L26.68,24.456L26.825,24.52L26.97,24.582L27.116,24.642L27.262,24.701L27.41,24.758L27.558,24.814L27.708,24.867L27.858,24.919L28.009,24.969L28.161,25.017L28.313,25.063L28.467,25.108L28.621,25.15L28.776,25.191L28.931,25.23L29.088,25.267L29.245,25.302L29.403,25.335L29.561,25.366L29.721,25.396L29.88,25.423L30.041,25.448L30.202,25.472L30.364,25.493L30.527,25.513L30.69,25.53L30.854,25.546L31.018,25.559L31.183,25.57L31.348,25.58L31.514,25.587L31.681,25.592L31.848,25.595L32.016,25.596L32.184,25.594L32.351,25.591L32.518,25.586L32.684,25.578L32.849,25.568L33.014,25.557L33.178,25.543L33.342,25.527L33.505,25.509L33.668,25.49L33.829,25.468L33.991,25.444L34.151,25.418L34.311,25.391L34.47,25.361L34.628,25.329L34.786,25.296L34.943,25.26L35.099,25.223L35.255,25.184L35.409,25.143L35.563,25.1L35.716,25.055L35.869,25.009L36.02,24.96L36.171,24.91L36.321,24.858L36.47,24.804L36.619,24.749L36.766,24.691L36.912,24.632L37.058,24.571L37.203,24.509L37.347,24.445L37.49,24.379L37.632,24.311L37.773,24.242L37.913,24.171L38.052,24.098L38.19,24.024L38.327,23.948L38.463,23.871L38.598,23.792L38.732,23.712L38.865,23.629L38.997,23.546L39.128,23.46L39.258,23.374L39.386,23.285L39.514,23.196L39.64,23.104L39.766,23.012L39.89,22.917L40.013,22.822L40.134,22.725L40.255,22.626L40.374,22.526L40.492,22.425L40.609,22.322L40.725,22.218L40.839,22.112L40.952,22.006L41.064,21.898L41.175,21.788L41.284,21.677L41.392,21.565L41.498,21.452L41.604,21.337L41.707,21.221L41.81,21.104L41.911,20.986L42.011,20.866L42.109,20.746L42.206,20.624L42.301,20.501L42.395,20.376L42.487,20.251L42.578,20.124L42.668,19.997L42.756,19.868L42.842,19.738L42.927,19.607L43.011,19.475L43.092,19.342L43.173,19.208L43.251,19.073L43.328,18.936L43.404,18.799L43.478,18.661L43.55,18.522L43.62,18.382L43.689,18.241L43.756,18.099L43.822,17.956L43.886,17.812L43.948,17.667L44.008,17.521L44.067,17.375L44.124,17.227L44.179,17.079L44.233,16.93L44.284,16.78L44.334,16.629L44.382,16.478L44.428,16.326L44.473,16.173L44.515,16.019L44.556,15.864L44.595,15.709L44.631,15.553L44.667,15.396L44.7,15.238L44.731,15.08L44.76,14.921L44.787,14.761L44.813,14.601L44.836,14.44L44.858,14.278L44.877,14.116L44.894,13.953L44.91,13.79L44.923,13.626L44.935,13.461L44.944,13.296L44.951,13.13L44.956,12.964L44.959,12.797L44.96,12.629L44.959,12.462L44.955,12.295L44.95,12.129L44.942,11.963L44.933,11.798L44.921,11.633L44.907,11.469L44.892,11.306L44.874,11.143L44.854,10.981L44.832,10.819L44.808,10.658L44.783,10.498L44.755,10.339L44.725,10.18L44.694,10.022L44.66,9.864L44.625,9.708L44.588,9.552L44.549,9.397L44.508,9.242L44.465,9.088L44.42,8.935L44.374,8.783L44.325,8.632L44.275,8.481L44.223,8.332L44.17,8.183L44.114,8.035L44.057,7.888L43.998,7.742L43.937,7.596L43.875,7.452L43.811,7.308L43.745,7.165L43.678,7.024L43.608,6.883L43.538,6.743L43.465,6.604L43.391,6.466L43.316,6.33L43.238,6.194L43.159,6.059L43.079,5.925L42.997,5.792L42.913,5.661L42.828,5.53L42.742,5.4L42.654,5.272L42.564,5.145L42.473,5.019L42.38,4.893L42.286,4.77L42.191,4.647L42.094,4.525L41.995,4.405L41.896,4.286L41.794,4.168L41.692,4.051L41.588,3.936L41.483,3.822L41.376,3.709L41.268,3.597L41.159,3.487L41.048,3.378L40.936,3.27L40.823,3.164L40.709,3.059L40.593,2.955L40.476,2.853L40.358,2.752L40.239,2.652L40.118,2.554L39.996,2.457L39.874,2.362L39.75,2.269L39.624,2.176L39.498,2.085L39.371,1.996L39.242,1.908L39.112,1.822L38.982,1.737L38.85,1.654L38.717,1.572L38.583,1.492L38.448,1.414L38.312,1.337L38.175,1.262L38.037,1.188L37.898,1.116L37.758,1.045L37.618,0.977L37.476,0.909L37.333,0.844L37.19,0.78L37.045,0.718L36.9,0.658L36.753,0.599L36.606,0.543L36.458,0.488L36.309,0.434L36.16,0.383L36.009,0.333L35.858,0.285L35.706,0.239L35.553,0.195L35.399,0.152L35.245,0.112L35.09,0.073L34.934,0.036L34.778,0.001L34.62,-0.032L34.462,-0.063L34.304,-0.092L34.144,-0.12L33.984,-0.145L33.824,-0.168L33.662,-0.19L33.5,-0.209L33.338,-0.227L33.175,-0.242L33.011,-0.255L32.847,-0.267L32.682,-0.276L32.516,-0.283L32.35,-0.288L32.183,-0.291L32.008,-0.292L32.009,-0.382L31.848,-0.381Z" style="fill:#cecfeb;"/>
                <path d="M32.147,2.494L32.277,2.496L32.407,2.501L32.536,2.507L32.666,2.514L32.794,2.523L32.923,2.534L33.05,2.546L33.178,2.56L33.305,2.576L33.431,2.593L33.557,2.612L33.683,2.632L33.808,2.654L33.932,2.677L34.056,2.702L34.18,2.728L34.303,2.756L34.425,2.785L34.547,2.816L34.668,2.848L34.788,2.882L34.908,2.917L35.028,2.953L35.146,2.991L35.265,3.03L35.382,3.071L35.499,3.113L35.615,3.157L35.73,3.202L35.845,3.248L35.959,3.296L36.072,3.345L36.185,3.395L36.296,3.447L36.407,3.499L36.518,3.554L36.627,3.609L36.736,3.666L36.844,3.724L36.951,3.783L37.058,3.844L37.163,3.906L37.268,3.969L37.372,4.033L37.475,4.098L37.577,4.165L37.678,4.233L37.779,4.302L37.878,4.372L37.977,4.443L38.075,4.516L38.172,4.589L38.268,4.664L38.363,4.74L38.457,4.817L38.55,4.895L38.642,4.974L38.733,5.054L38.824,5.135L38.913,5.218L39.001,5.301L39.088,5.385L39.175,5.471L39.26,5.557L39.344,5.645L39.427,5.733L39.509,5.823L39.59,5.913L39.67,6.005L39.749,6.097L39.827,6.19L39.903,6.285L39.979,6.38L40.053,6.476L40.127,6.573L40.199,6.671L40.27,6.77L40.34,6.87L40.408,6.97L40.476,7.072L40.542,7.174L40.607,7.277L40.671,7.381L40.734,7.486L40.795,7.592L40.855,7.698L40.914,7.805L40.972,7.913L41.028,8.022L41.083,8.132L41.137,8.242L41.19,8.353L41.241,8.465L41.291,8.578L41.34,8.691L41.387,8.805L41.433,8.92L41.477,9.035L41.52,9.151L41.562,9.268L41.603,9.385L41.642,9.503L41.679,9.622L41.715,9.741L41.75,9.861L41.783,9.981L41.815,10.103L41.845,10.224L41.874,10.346L41.902,10.469L41.927,10.592L41.952,10.716L41.975,10.841L41.996,10.965L42.016,11.091L42.034,11.217L42.051,11.343L42.066,11.47L42.079,11.597L42.091,11.725L42.102,11.853L42.111,11.981L42.118,12.11L42.123,12.239L42.127,12.369L42.13,12.499L42.13,12.629L42.129,12.76L42.127,12.89L42.122,13.019L42.116,13.149L42.109,13.277L42.1,13.406L42.089,13.534L42.077,13.661L42.063,13.789L42.047,13.915L42.03,14.041L42.011,14.167L41.991,14.292L41.97,14.417L41.946,14.541L41.922,14.665L41.895,14.788L41.868,14.911L41.839,15.033L41.808,15.154L41.776,15.275L41.742,15.396L41.707,15.515L41.671,15.634L41.633,15.753L41.594,15.871L41.553,15.988L41.511,16.104L41.467,16.22L41.423,16.335L41.377,16.45L41.329,16.563L41.28,16.676L41.23,16.789L41.179,16.9L41.126,17.011L41.072,17.121L41.016,17.23L40.96,17.339L40.902,17.447L40.843,17.554L40.782,17.66L40.72,17.765L40.658,17.869L40.594,17.973L40.528,18.076L40.462,18.178L40.394,18.279L40.325,18.379L40.255,18.479L40.184,18.577L40.112,18.675L40.038,18.771L39.964,18.867L39.888,18.962L39.811,19.056L39.734,19.149L39.655,19.241L39.575,19.332L39.493,19.422L39.411,19.511L39.328,19.599L39.244,19.686L39.159,19.772L39.072,19.857L38.985,19.941L38.897,20.024L38.808,20.106L38.717,20.187L38.626,20.266L38.534,20.345L38.441,20.423L38.347,20.499L38.252,20.574L38.156,20.649L38.059,20.722L37.961,20.794L37.863,20.865L37.763,20.934L37.663,21.003L37.561,21.07L37.459,21.136L37.356,21.201L37.253,21.265L37.148,21.328L37.043,21.389L36.936,21.449L36.829,21.508L36.722,21.565L36.613,21.622L36.504,21.677L36.393,21.73L36.283,21.783L36.171,21.834L36.059,21.884L35.946,21.932L35.832,21.979L35.718,22.025L35.602,22.069L35.487,22.112L35.37,22.154L35.253,22.194L35.135,22.233L35.017,22.271L34.898,22.307L34.778,22.341L34.658,22.375L34.537,22.406L34.416,22.437L34.294,22.465L34.172,22.493L34.049,22.519L33.925,22.543L33.801,22.566L33.676,22.587L33.551,22.607L33.426,22.625L33.3,22.642L33.173,22.657L33.046,22.67L32.919,22.682L32.791,22.693L32.663,22.701L32.534,22.709L32.405,22.714L32.276,22.718L32.146,22.72L32.016,22.721L31.886,22.72L31.756,22.717L31.627,22.713L31.498,22.707L31.369,22.7L31.241,22.69L31.114,22.68L30.986,22.667L30.859,22.653L30.733,22.638L30.607,22.621L30.482,22.602L30.357,22.582L30.232,22.561L30.108,22.538L29.985,22.513L29.862,22.487L29.74,22.459L29.618,22.43L29.497,22.399L29.376,22.367L29.256,22.334L29.137,22.299L29.018,22.263L28.9,22.225L28.782,22.186L28.665,22.145L28.549,22.103L28.434,22.06L28.319,22.015L28.204,21.969L28.091,21.922L27.978,21.873L27.866,21.823L27.755,21.771L27.644,21.719L27.534,21.665L27.425,21.609L27.317,21.553L27.21,21.495L27.103,21.436L26.997,21.376L26.892,21.314L26.788,21.252L26.684,21.188L26.582,21.123L26.48,21.056L26.379,20.989L26.279,20.92L26.18,20.85L26.082,20.779L25.984,20.707L25.888,20.634L25.792,20.559L25.698,20.484L25.604,20.407L25.511,20.33L25.42,20.251L25.329,20.171L25.239,20.09L25.15,20.008L25.062,19.925L24.975,19.841L24.889,19.756L24.805,19.67L24.721,19.583L24.638,19.495L24.556,19.406L24.476,19.316L24.396,19.225L24.318,19.133L24.24,19.04L24.164,18.946L24.089,18.851L24.015,18.755L23.942,18.659L23.87,18.561L23.799,18.463L23.73,18.364L23.661,18.263L23.594,18.162L23.528,18.06L23.463,17.958L23.4,17.854L23.337,17.75L23.276,17.645L23.216,17.539L23.158,17.432L23.1,17.324L23.044,17.216L22.989,17.107L22.936,16.997L22.883,16.886L22.832,16.775L22.783,16.663L22.734,16.55L22.687,16.437L22.641,16.323L22.597,16.208L22.554,16.092L22.513,15.976L22.472,15.859L22.434,15.742L22.396,15.623L22.36,15.505L22.326,15.385L22.293,15.265L22.261,15.145L22.231,15.024L22.202,14.902L22.175,14.78L22.149,14.657L22.125,14.534L22.102,14.41L22.081,14.286L22.061,14.161L22.043,14.036L22.026,13.91L22.011,13.784L21.998,13.657L21.986,13.53L21.975,13.403L21.967,13.275L21.959,13.146L21.954,13.018L21.95,12.889L21.948,12.759L21.947,12.629L21.948,12.5L21.951,12.37L21.955,12.241L21.961,12.112L21.968,11.984L21.978,11.856L21.988,11.729L22.001,11.602L22.014,11.475L22.03,11.349L22.047,11.223L22.065,11.098L22.085,10.974L22.107,10.849L22.13,10.726L22.155,10.603L22.181,10.48L22.208,10.358L22.237,10.236L22.268,10.116L22.3,9.995L22.333,9.875L22.368,9.756L22.404,9.638L22.442,9.52L22.481,9.403L22.522,9.286L22.564,9.17L22.607,9.055L22.651,8.94L22.697,8.826L22.745,8.713L22.793,8.601L22.843,8.489L22.895,8.378L22.947,8.267L23.001,8.158L23.056,8.049L23.112,7.941L23.17,7.834L23.229,7.727L23.289,7.622L23.351,7.517L23.413,7.413L23.477,7.309L23.542,7.207L23.608,7.106L23.675,7.005L23.744,6.905L23.814,6.806L23.885,6.708L23.956,6.611L24.03,6.515L24.104,6.419L24.179,6.325L24.256,6.232L24.333,6.139L24.412,6.048L24.491,5.957L24.572,5.867L24.654,5.779L24.737,5.691L24.821,5.604L24.905,5.519L24.991,5.434L25.078,5.35L25.166,5.268L25.255,5.186L25.345,5.106L25.436,5.027L25.527,4.948L25.62,4.871L25.714,4.795L25.808,4.72L25.904,4.646L26,4.573L26.098,4.501L26.196,4.431L26.295,4.361L26.395,4.293L26.496,4.226L26.597,4.16L26.7,4.096L26.803,4.032L26.907,3.97L27.012,3.909L27.118,3.849L27.224,3.791L27.332,3.733L27.44,3.677L27.549,3.623L27.658,3.569L27.769,3.517L27.88,3.466L27.992,3.416L28.104,3.368L28.217,3.321L28.331,3.276L28.446,3.231L28.561,3.189L28.677,3.147L28.794,3.107L28.911,3.068L29.029,3.031L29.147,2.995L29.266,2.961L29.386,2.928L29.506,2.896L29.627,2.866L29.748,2.837L29.87,2.81L29.993,2.784L30.116,2.76L30.239,2.737L30.363,2.716L30.488,2.697L30.613,2.678L30.738,2.662L30.864,2.647L30.991,2.633L31.117,2.621L31.245,2.611L31.372,2.602L31.5,2.595L31.629,2.59L31.757,2.586L31.887,2.584L32.009,2.583L32.016,2.538L32.024,2.493L32.147,2.494ZM31.916,4.903L31.816,4.905L31.717,4.909L31.618,4.913L31.519,4.919L31.421,4.926L31.323,4.934L31.226,4.944L31.128,4.955L31.032,4.967L30.935,4.98L30.839,4.994L30.744,5.009L30.648,5.026L30.554,5.044L30.459,5.062L30.366,5.083L30.272,5.104L30.179,5.126L30.086,5.149L29.994,5.174L29.903,5.2L29.811,5.226L29.721,5.254L29.63,5.283L29.541,5.313L29.451,5.344L29.363,5.376L29.274,5.409L29.187,5.443L29.099,5.479L29.013,5.515L28.927,5.552L28.841,5.59L28.756,5.63L28.671,5.67L28.587,5.711L28.504,5.754L28.421,5.797L28.339,5.841L28.257,5.886L28.176,5.933L28.096,5.98L28.016,6.028L27.937,6.077L27.858,6.127L27.78,6.178L27.703,6.229L27.627,6.282L27.551,6.335L27.475,6.39L27.401,6.445L27.327,6.501L27.254,6.558L27.181,6.616L27.109,6.675L27.038,6.735L26.968,6.795L26.898,6.856L26.829,6.919L26.761,6.981L26.694,7.045L26.627,7.11L26.562,7.175L26.497,7.241L26.432,7.308L26.369,7.375L26.306,7.444L26.244,7.513L26.184,7.583L26.123,7.653L26.064,7.724L26.006,7.796L25.948,7.869L25.891,7.942L25.835,8.016L25.78,8.091L25.726,8.167L25.673,8.243L25.621,8.319L25.569,8.397L25.519,8.475L25.469,8.554L25.42,8.633L25.373,8.713L25.326,8.793L25.28,8.874L25.235,8.956L25.191,9.038L25.148,9.121L25.107,9.205L25.066,9.289L25.026,9.373L24.987,9.458L24.949,9.544L24.912,9.63L24.876,9.717L24.841,9.804L24.807,9.892L24.775,9.98L24.743,10.069L24.712,10.158L24.683,10.248L24.654,10.338L24.627,10.429L24.6,10.52L24.575,10.611L24.551,10.704L24.528,10.796L24.506,10.889L24.485,10.982L24.466,11.076L24.447,11.17L24.43,11.265L24.414,11.36L24.399,11.455L24.385,11.551L24.372,11.647L24.361,11.744L24.35,11.841L24.341,11.938L24.333,12.036L24.327,12.134L24.321,12.232L24.317,12.331L24.314,12.43L24.312,12.53L24.312,12.629L24.313,12.729L24.315,12.829L24.318,12.928L24.323,13.026L24.328,13.125L24.335,13.223L24.344,13.32L24.353,13.418L24.364,13.515L24.376,13.611L24.389,13.707L24.403,13.803L24.418,13.898L24.435,13.993L24.452,14.087L24.471,14.182L24.491,14.275L24.512,14.368L24.535,14.461L24.558,14.553L24.582,14.645L24.608,14.737L24.635,14.828L24.662,14.918L24.691,15.008L24.721,15.098L24.752,15.187L24.784,15.275L24.817,15.363L24.851,15.451L24.886,15.537L24.922,15.624L24.96,15.71L24.998,15.795L25.037,15.88L25.077,15.964L25.118,16.048L25.161,16.131L25.204,16.214L25.248,16.296L25.293,16.377L25.339,16.458L25.386,16.538L25.434,16.618L25.483,16.697L25.532,16.775L25.583,16.853L25.635,16.93L25.687,17.006L25.741,17.082L25.795,17.157L25.85,17.231L25.906,17.305L25.963,17.378L26.021,17.45L26.079,17.522L26.139,17.593L26.199,17.663L26.26,17.732L26.322,17.801L26.385,17.869L26.448,17.936L26.512,18.002L26.578,18.068L26.643,18.133L26.71,18.197L26.777,18.26L26.846,18.322L26.914,18.384L26.984,18.445L27.054,18.505L27.125,18.564L27.197,18.622L27.27,18.68L27.343,18.736L27.417,18.792L27.491,18.847L27.566,18.901L27.642,18.954L27.719,19.006L27.796,19.057L27.874,19.108L27.952,19.157L28.031,19.206L28.111,19.253L28.191,19.3L28.272,19.346L28.354,19.39L28.436,19.434L28.518,19.477L28.602,19.519L28.685,19.56L28.77,19.599L28.854,19.638L28.94,19.676L29.026,19.713L29.112,19.749L29.199,19.783L29.287,19.817L29.375,19.85L29.463,19.881L29.552,19.912L29.642,19.941L29.732,19.97L29.822,19.997L29.913,20.023L30.004,20.049L30.096,20.073L30.188,20.096L30.281,20.117L30.374,20.138L30.467,20.158L30.561,20.176L30.656,20.194L30.75,20.21L30.845,20.225L30.941,20.238L31.037,20.251L31.133,20.263L31.23,20.273L31.327,20.282L31.424,20.29L31.522,20.296L31.62,20.302L31.719,20.306L31.817,20.309L31.917,20.311L32.016,20.311L32.116,20.31L32.215,20.308L32.314,20.305L32.412,20.3L32.51,20.295L32.608,20.288L32.705,20.279L32.802,20.27L32.899,20.259L32.995,20.247L33.091,20.234L33.186,20.22L33.281,20.205L33.376,20.188L33.47,20.171L33.564,20.152L33.657,20.132L33.75,20.111L33.842,20.089L33.935,20.066L34.026,20.041L34.117,20.016L34.208,19.989L34.298,19.962L34.388,19.933L34.477,19.903L34.566,19.872L34.654,19.84L34.742,19.807L34.829,19.773L34.916,19.738L35.002,19.702L35.088,19.665L35.173,19.627L35.257,19.588L35.341,19.548L35.425,19.507L35.508,19.465L35.59,19.422L35.672,19.378L35.753,19.333L35.833,19.287L35.913,19.24L35.993,19.192L36.071,19.144L36.15,19.094L36.227,19.044L36.304,18.992L36.38,18.94L36.455,18.886L36.53,18.832L36.604,18.777L36.678,18.721L36.751,18.665L36.823,18.607L36.894,18.549L36.965,18.49L37.035,18.429L37.104,18.369L37.172,18.307L37.24,18.244L37.307,18.181L37.373,18.117L37.439,18.052L37.503,17.986L37.567,17.92L37.63,17.853L37.693,17.785L37.754,17.716L37.815,17.647L37.874,17.577L37.933,17.506L37.992,17.434L38.049,17.362L38.105,17.289L38.161,17.215L38.215,17.141L38.269,17.066L38.322,16.99L38.374,16.914L38.425,16.837L38.476,16.759L38.525,16.681L38.573,16.602L38.621,16.523L38.667,16.443L38.713,16.362L38.757,16.281L38.801,16.199L38.844,16.117L38.885,16.034L38.926,15.95L38.966,15.866L39.004,15.782L39.042,15.697L39.079,15.611L39.114,15.525L39.149,15.438L39.183,15.351L39.215,15.263L39.247,15.175L39.277,15.086L39.307,14.997L39.335,14.907L39.362,14.817L39.389,14.726L39.414,14.635L39.438,14.544L39.46,14.452L39.482,14.36L39.503,14.267L39.522,14.174L39.541,14.08L39.558,13.986L39.574,13.892L39.589,13.797L39.603,13.701L39.615,13.606L39.627,13.51L39.637,13.413L39.646,13.317L39.654,13.22L39.661,13.122L39.666,13.024L39.67,12.926L39.673,12.827L39.675,12.729L39.675,12.629L39.674,12.53L39.672,12.431L39.669,12.333L39.665,12.235L39.659,12.137L39.652,12.039L39.644,11.942L39.634,11.846L39.624,11.749L39.612,11.653L39.599,11.558L39.585,11.463L39.569,11.368L39.553,11.274L39.535,11.18L39.517,11.086L39.497,10.993L39.476,10.901L39.454,10.808L39.431,10.717L39.406,10.625L39.381,10.534L39.354,10.444L39.327,10.354L39.298,10.265L39.268,10.176L39.238,10.087L39.206,9.999L39.173,9.912L39.139,9.825L39.104,9.738L39.068,9.652L39.031,9.567L38.993,9.482L38.954,9.398L38.914,9.314L38.873,9.231L38.832,9.148L38.789,9.066L38.745,8.984L38.7,8.904L38.654,8.823L38.607,8.744L38.56,8.664L38.511,8.586L38.462,8.508L38.411,8.431L38.36,8.354L38.308,8.278L38.255,8.203L38.201,8.128L38.146,8.055L38.09,7.981L38.034,7.909L37.976,7.837L37.918,7.766L37.859,7.695L37.799,7.625L37.738,7.556L37.677,7.488L37.615,7.421L37.551,7.354L37.487,7.288L37.423,7.223L37.357,7.158L37.291,7.095L37.224,7.032L37.156,6.97L37.088,6.908L37.019,6.848L36.949,6.788L36.878,6.729L36.807,6.671L36.735,6.614L36.662,6.558L36.588,6.503L36.514,6.448L36.44,6.395L36.364,6.342L36.288,6.29L36.211,6.239L36.134,6.189L36.056,6.14L35.977,6.091L35.898,6.044L35.818,5.998L35.738,5.952L35.657,5.908L35.575,5.864L35.493,5.822L35.411,5.78L35.327,5.74L35.243,5.7L35.159,5.662L35.074,5.624L34.989,5.587L34.903,5.552L34.816,5.517L34.729,5.484L34.642,5.451L34.554,5.42L34.466,5.389L34.377,5.36L34.287,5.332L34.197,5.305L34.107,5.279L34.016,5.254L33.925,5.23L33.833,5.207L33.741,5.185L33.649,5.165L33.556,5.145L33.462,5.127L33.369,5.11L33.275,5.094L33.18,5.079L33.085,5.065L32.99,5.052L32.894,5.041L32.798,5.031L32.701,5.022L32.605,5.014L32.507,5.007L32.41,5.002L32.312,4.998L32.214,4.995L32.115,4.993L32.008,4.993L32.009,4.903L31.916,4.903Z" style="fill:#cecfeb;"/>
            </g>
        </g>
        <path d="M10,29.526L35,16.244" style="fill:none;stroke:#407bbf;stroke-width:2px;"/>
        <path d="M51,60.526C52.591,60.526 54.117,59.894 55.243,58.768C56.368,57.643 57,56.117 57,54.526C57,48.383 57,38.883 57,32.684C57,31.051 56.351,29.484 55.196,28.329C54.041,27.175 52.475,26.526 50.842,26.526C41.189,26.526 22.612,26.526 13.036,26.526C9.702,26.526 7,29.228 7,32.561C7,38.748 7,48.314 7,54.498C7,57.827 9.699,60.526 13.028,60.526C22.655,60.526 41.391,60.526 51,60.526Z" style="fill:#c7ccd1;"/>
        <clipPath id="_clip3">
            <path d="M51,60.526C52.591,60.526 54.117,59.894 55.243,58.768C56.368,57.643 57,56.117 57,54.526C57,48.383 57,38.883 57,32.684C57,31.051 56.351,29.484 55.196,28.329C54.041,27.175 52.475,26.526 50.842,26.526C41.189,26.526 22.612,26.526 13.036,26.526C9.702,26.526 7,29.228 7,32.561C7,38.748 7,48.314 7,54.498C7,57.827 9.699,60.526 13.028,60.526C22.655,60.526 41.391,60.526 51,60.526Z"/>
        </clipPath>
        <g clip-path="url(#_clip3)">
            <path d="M60,28.315L4,60.526L4,67.684L60,67.684L60,28.315Z" style="fill:#2b307e;fill-opacity:0.152941;"/>
        </g>
        <circle cx="42" cy="43.526" r="10" style="fill:#407bbf;"/>
        <clipPath id="_clip4">
            <circle cx="42" cy="43.526" r="10"/>
        </clipPath>
        <g clip-path="url(#_clip4)">
            <path d="M60,28.315L4,60.526L4,67.684L60,67.684L60,28.315Z" style="fill:#2b307e;fill-opacity:0.643137;"/>
        </g>
        <rect x="10.741" y="36.066" width="17.259" height="2.998" style="fill:#324b95;"/>
        <rect x="10.741" y="42.134" width="17.259" height="2.998" style="fill:#324b95;"/>
        <rect x="10.741" y="47.987" width="17.259" height="2.998" style="fill:#324b95;"/>
    </g>
</svg>
