<?xml version="1.0" encoding="UTF-8" standalone="no"?>
<!DOCTYPE svg PUBLIC "-//W3C//DTD SVG 1.1//EN" "http://www.w3.org/Graphics/SVG/1.1/DTD/svg11.dtd">
<svg width="100%" height="100%" viewBox="0 0 64 65" version="1.1" xmlns="http://www.w3.org/2000/svg" xmlns:xlink="http://www.w3.org/1999/xlink" xml:space="preserve" xmlns:serif="http://www.serif.com/" style="fill-rule:evenodd;clip-rule:evenodd;stroke-linecap:round;stroke-miterlimit:1;">
    <rect id="Risk-Communication-PE" serif:id="Risk Communication-PE" x="0" y="0.853" width="64" height="64" style="fill:none;"/>
    <clipPath id="_clip1">
        <rect x="0" y="0.853" width="64" height="64"/>
    </clipPath>
    <g clip-path="url(#_clip1)">
        <path d="M10.056,0.308L-12,12.58L10.056,24.853L32.113,12.58L10.056,0.308ZM54.189,0.308L32.132,12.58L54.189,24.853L76.245,12.58L54.189,0.308Z" style="fill:none;"/>
        <clipPath id="_clip2">
            <path d="M10.056,0.308L-12,12.58L10.056,24.853L32.113,12.58L10.056,0.308ZM54.189,0.308L32.132,12.58L54.189,24.853L76.245,12.58L54.189,0.308Z"/>
        </clipPath>
        <g clip-path="url(#_clip2)">
            <g>
                <path d="M32.152,-8.376L32.289,-8.374L32.425,-8.372L32.56,-8.369L32.696,-8.365L32.831,-8.36L32.967,-8.354L33.102,-8.348L33.236,-8.341L33.371,-8.332L33.505,-8.323L33.639,-8.313L33.773,-8.303L33.907,-8.291L34.04,-8.279L34.173,-8.266L34.306,-8.252L34.439,-8.237L34.572,-8.221L34.704,-8.205L34.836,-8.187L34.967,-8.169L35.099,-8.15L35.23,-8.13L35.361,-8.11L35.492,-8.089L35.622,-8.066L35.752,-8.043L35.882,-8.02L36.012,-7.995L36.141,-7.97L36.27,-7.944L36.399,-7.917L36.527,-7.889L36.656,-7.861L36.783,-7.832L36.911,-7.802L37.038,-7.771L37.165,-7.739L37.292,-7.707L37.418,-7.674L37.544,-7.64L37.67,-7.605L37.796,-7.57L37.921,-7.534L38.046,-7.497L38.17,-7.46L38.294,-7.421L38.418,-7.382L38.542,-7.342L38.665,-7.302L38.788,-7.261L38.91,-7.219L39.032,-7.176L39.154,-7.132L39.278,-7.088L39.518,-6.998L39.758,-6.904L39.997,-6.808L40.235,-6.709L40.471,-6.607L40.706,-6.503L40.939,-6.395L41.17,-6.285L41.4,-6.172L41.629,-6.057L41.856,-5.939L42.081,-5.818L42.304,-5.694L42.526,-5.568L42.746,-5.44L42.965,-5.308L43.182,-5.175L43.397,-5.038L43.61,-4.9L43.821,-4.758L44.031,-4.615L44.239,-4.468L44.445,-4.32L44.649,-4.169L44.851,-4.015L45.051,-3.86L45.249,-3.702L45.446,-3.541L45.64,-3.379L45.833,-3.214L46.023,-3.047L46.211,-2.877L46.398,-2.706L46.582,-2.532L46.764,-2.356L46.944,-2.178L47.122,-1.997L47.298,-1.815L47.471,-1.631L47.643,-1.444L47.812,-1.255L47.979,-1.065L48.143,-0.872L48.306,-0.678L48.466,-0.481L48.624,-0.282L48.779,-0.082L48.932,0.12L49.083,0.325L49.231,0.531L49.377,0.739L49.52,0.948L49.661,1.16L49.8,1.373L49.936,1.588L50.069,1.805L50.2,2.024L50.328,2.244L50.454,2.466L50.577,2.69L50.697,2.915L50.815,3.142L50.93,3.37L51.043,3.6L51.153,3.832L51.26,4.065L51.364,4.3L51.465,4.536L51.564,4.774L51.66,5.013L51.753,5.253L51.842,5.493L51.887,5.617L51.93,5.738L51.973,5.861L52.015,5.983L52.056,6.106L52.096,6.229L52.136,6.353L52.175,6.476L52.213,6.6L52.25,6.725L52.287,6.85L52.323,6.975L52.358,7.1L52.392,7.226L52.426,7.352L52.459,7.478L52.491,7.605L52.522,7.732L52.553,7.859L52.583,7.987L52.612,8.115L52.64,8.243L52.667,8.371L52.694,8.5L52.72,8.629L52.745,8.758L52.769,8.888L52.793,9.017L52.816,9.147L52.838,9.278L52.859,9.408L52.879,9.539L52.899,9.67L52.917,9.802L52.935,9.933L52.952,10.065L52.969,10.197L52.984,10.33L52.999,10.462L53.013,10.595L53.026,10.728L53.038,10.861L53.049,10.995L53.06,11.129L53.069,11.263L53.078,11.397L53.086,11.531L53.093,11.666L53.1,11.801L53.105,11.936L53.11,12.071L53.114,12.207L53.117,12.342L53.119,12.478L53.12,12.614L53.12,12.75L53.12,12.887L53.118,13.023L53.116,13.159L53.113,13.294L53.109,13.43L53.104,13.565L53.099,13.7L53.092,13.835L53.085,13.969L53.076,14.104L53.067,14.238L53.058,14.372L53.047,14.506L53.035,14.639L53.023,14.773L53.01,14.906L52.996,15.038L52.981,15.171L52.965,15.303L52.949,15.435L52.931,15.567L52.913,15.699L52.894,15.83L52.875,15.961L52.854,16.092L52.833,16.222L52.811,16.353L52.788,16.483L52.764,16.612L52.74,16.742L52.714,16.871L52.688,17L52.661,17.129L52.634,17.257L52.605,17.385L52.576,17.513L52.546,17.64L52.515,17.767L52.484,17.894L52.452,18.021L52.419,18.147L52.385,18.273L52.35,18.399L52.315,18.524L52.279,18.649L52.242,18.774L52.205,18.898L52.166,19.022L52.127,19.146L52.088,19.269L52.047,19.392L52.006,19.515L51.964,19.637L51.921,19.759L51.878,19.881L51.833,20.004L51.743,20.244L51.65,20.484L51.554,20.723L51.455,20.96L51.353,21.196L51.249,21.431L51.141,21.664L51.031,21.895L50.919,22.125L50.803,22.353L50.685,22.579L50.564,22.804L50.441,23.028L50.315,23.249L50.187,23.469L50.056,23.687L49.922,23.904L49.786,24.119L49.647,24.332L49.506,24.543L49.363,24.752L49.217,24.96L49.068,25.166L48.917,25.37L48.764,25.572L48.609,25.772L48.451,25.97L48.291,26.166L48.128,26.36L47.963,26.552L47.796,26.742L47.627,26.931L47.456,27.117L47.282,27.301L47.106,27.483L46.928,27.663L46.748,27.84L46.566,28.016L46.382,28.189L46.195,28.36L46.007,28.529L45.817,28.696L45.624,28.861L45.43,29.023L45.233,29.183L45.035,29.34L44.835,29.495L44.633,29.648L44.429,29.799L44.223,29.947L44.015,30.093L43.806,30.236L43.594,30.377L43.381,30.515L43.166,30.651L42.95,30.784L42.731,30.915L42.511,31.043L42.289,31.169L42.066,31.292L41.841,31.412L41.614,31.53L41.386,31.645L41.156,31.757L40.925,31.867L40.692,31.973L40.458,32.078L40.222,32.179L39.984,32.278L39.746,32.373L39.505,32.466L39.265,32.556L39.142,32.6L39.021,32.643L38.899,32.686L38.776,32.728L38.654,32.769L38.531,32.809L38.407,32.849L38.284,32.887L38.159,32.926L38.035,32.963L37.911,32.999L37.786,33.035L37.66,33.07L37.535,33.105L37.409,33.138L37.283,33.171L37.156,33.203L37.029,33.235L36.902,33.265L36.775,33.295L36.647,33.324L36.519,33.352L36.391,33.38L36.262,33.406L36.133,33.432L36.004,33.457L35.875,33.481L35.745,33.505L35.615,33.528L35.485,33.55L35.355,33.571L35.224,33.591L35.093,33.611L34.962,33.629L34.83,33.647L34.699,33.664L34.567,33.681L34.434,33.696L34.302,33.711L34.169,33.725L34.036,33.738L33.903,33.75L33.77,33.761L33.636,33.772L33.502,33.781L33.368,33.79L33.234,33.798L33.099,33.805L32.965,33.812L32.83,33.817L32.695,33.822L32.559,33.825L32.424,33.828L32.288,33.83L32.152,33.832L32.016,33.832L31.88,33.831L31.744,33.83L31.608,33.828L31.473,33.825L31.338,33.821L31.202,33.816L31.068,33.81L30.933,33.804L30.798,33.796L30.664,33.788L30.53,33.779L30.396,33.769L30.263,33.759L30.129,33.747L29.996,33.735L29.863,33.722L29.731,33.708L29.598,33.693L29.466,33.677L29.334,33.661L29.202,33.643L29.071,33.625L28.94,33.606L28.809,33.587L28.678,33.566L28.548,33.545L28.418,33.523L28.288,33.5L28.158,33.476L28.029,33.452L27.9,33.427L27.771,33.401L27.643,33.374L27.514,33.346L27.387,33.318L27.259,33.289L27.132,33.259L27.005,33.228L26.878,33.196L26.751,33.164L26.625,33.131L26.5,33.097L26.374,33.063L26.249,33.028L26.124,32.992L25.999,32.955L25.875,32.917L25.751,32.879L25.628,32.84L25.504,32.8L25.382,32.76L25.259,32.719L25.137,32.677L25.015,32.634L24.893,32.591L24.77,32.546L24.531,32.456L24.291,32.363L24.052,32.267L23.815,32.168L23.579,32.067L23.345,31.962L23.113,31.855L22.881,31.745L22.652,31.633L22.424,31.518L22.198,31.4L21.973,31.279L21.75,31.156L21.529,31.03L21.309,30.902L21.091,30.771L20.875,30.637L20.66,30.501L20.447,30.363L20.236,30.222L20.027,30.078L19.82,29.933L19.614,29.784L19.411,29.634L19.209,29.481L19.009,29.325L18.811,29.168L18.615,29.007L18.421,28.845L18.229,28.681L18.039,28.514L17.851,28.345L17.665,28.173L17.481,28L17.3,27.824L17.12,27.647L16.942,27.467L16.767,27.285L16.594,27.101L16.423,26.915L16.254,26.726L16.088,26.536L15.923,26.344L15.761,26.15L15.601,25.954L15.444,25.756L15.289,25.555L15.136,25.354L14.986,25.15L14.838,24.944L14.692,24.737L14.549,24.527L14.409,24.316L14.271,24.103L14.135,23.889L14.002,23.672L13.871,23.454L13.743,23.234L13.618,23.013L13.495,22.79L13.375,22.565L13.257,22.338L13.142,22.11L13.03,21.881L12.92,21.65L12.814,21.417L12.71,21.183L12.608,20.947L12.51,20.71L12.414,20.472L12.321,20.232L12.232,19.992L12.188,19.869L12.144,19.748L12.102,19.626L12.06,19.503L12.019,19.381L11.979,19.258L11.939,19.135L11.901,19.011L11.863,18.887L11.825,18.763L11.789,18.639L11.753,18.514L11.718,18.389L11.684,18.263L11.65,18.137L11.617,18.011L11.585,17.885L11.554,17.758L11.523,17.631L11.494,17.504L11.465,17.376L11.436,17.249L11.409,17.12L11.382,16.992L11.357,16.863L11.332,16.734L11.307,16.605L11.284,16.476L11.261,16.346L11.239,16.216L11.218,16.085L11.198,15.955L11.178,15.824L11.16,15.693L11.142,15.562L11.125,15.43L11.108,15.298L11.093,15.166L11.078,15.034L11.064,14.901L11.051,14.768L11.039,14.635L11.028,14.502L11.017,14.369L11.008,14.235L10.999,14.101L10.991,13.967L10.984,13.833L10.977,13.698L10.972,13.563L10.967,13.428L10.964,13.293L10.961,13.158L10.959,13.022L10.957,12.886L10.957,12.75L10.958,12.614L10.959,12.479L10.961,12.343L10.964,12.208L10.968,12.073L10.973,11.938L10.979,11.803L10.985,11.668L10.993,11.534L11.001,11.4L11.01,11.266L11.02,11.132L11.03,10.999L11.042,10.866L11.054,10.733L11.067,10.6L11.081,10.467L11.096,10.335L11.112,10.203L11.128,10.071L11.145,9.94L11.164,9.808L11.182,9.677L11.202,9.547L11.223,9.416L11.244,9.286L11.266,9.156L11.289,9.026L11.312,8.897L11.337,8.768L11.362,8.639L11.388,8.51L11.415,8.382L11.443,8.254L11.471,8.126L11.5,7.998L11.53,7.871L11.561,7.744L11.592,7.618L11.624,7.491L11.657,7.365L11.691,7.24L11.725,7.114L11.761,6.989L11.797,6.865L11.833,6.74L11.871,6.616L11.909,6.492L11.948,6.369L11.988,6.246L12.028,6.123L12.069,6.001L12.111,5.878L12.154,5.757L12.197,5.635L12.242,5.512L12.331,5.273L12.424,5.033L12.52,4.795L12.619,4.558L12.72,4.323L12.825,4.089L12.932,3.856L13.042,3.626L13.154,3.396L13.269,3.169L13.387,2.943L13.507,2.718L13.63,2.495L13.756,2.274L13.884,2.055L14.015,1.837L14.148,1.621L14.284,1.406L14.423,1.194L14.563,0.983L14.707,0.774L14.852,0.567L15.001,0.362L15.151,0.158L15.304,-0.043L15.459,-0.243L15.617,-0.44L15.776,-0.636L15.939,-0.83L16.103,-1.022L16.27,-1.212L16.439,-1.399L16.61,-1.585L16.783,-1.769L16.958,-1.95L17.136,-2.13L17.316,-2.307L17.497,-2.482L17.681,-2.655L17.867,-2.826L18.055,-2.995L18.245,-3.161L18.437,-3.325L18.631,-3.487L18.827,-3.647L19.025,-3.804L19.225,-3.959L19.427,-4.111L19.63,-4.262L19.836,-4.409L20.043,-4.555L20.252,-4.698L20.463,-4.838L20.675,-4.976L20.89,-5.112L21.106,-5.245L21.324,-5.375L21.544,-5.503L21.765,-5.628L21.988,-5.751L22.212,-5.871L22.438,-5.989L22.666,-6.103L22.895,-6.215L23.126,-6.325L23.359,-6.431L23.593,-6.535L23.828,-6.637L24.065,-6.735L24.303,-6.83L24.543,-6.923L24.782,-7.012L24.905,-7.057L25.027,-7.1L25.148,-7.142L25.27,-7.184L25.393,-7.225L25.516,-7.265L25.639,-7.305L25.762,-7.343L25.886,-7.381L26.01,-7.419L26.134,-7.455L26.259,-7.491L26.384,-7.526L26.509,-7.56L26.635,-7.594L26.761,-7.627L26.887,-7.659L27.014,-7.69L27.141,-7.72L27.268,-7.75L27.395,-7.779L27.523,-7.807L27.651,-7.835L27.779,-7.861L27.908,-7.887L28.036,-7.912L28.166,-7.936L28.295,-7.96L28.425,-7.982L28.554,-8.004L28.685,-8.025L28.815,-8.046L28.946,-8.065L29.077,-8.084L29.208,-8.102L29.339,-8.119L29.471,-8.135L29.603,-8.15L29.735,-8.165L29.868,-8.179L30,-8.192L30.133,-8.204L30.266,-8.215L30.4,-8.226L30.533,-8.235L30.667,-8.244L30.801,-8.252L30.935,-8.259L31.069,-8.266L31.204,-8.271L31.339,-8.276L31.474,-8.279L31.609,-8.282L31.745,-8.284L31.88,-8.286L32.012,-8.286L32.02,-8.376L32.152,-8.376ZM31.895,-5.966L31.774,-5.965L31.653,-5.963L31.533,-5.96L31.413,-5.956L31.292,-5.952L31.172,-5.947L31.053,-5.941L30.933,-5.935L30.814,-5.927L30.695,-5.919L30.576,-5.911L30.457,-5.901L30.339,-5.891L30.221,-5.88L30.103,-5.868L29.985,-5.856L29.867,-5.843L29.75,-5.829L29.633,-5.814L29.516,-5.799L29.399,-5.783L29.283,-5.766L29.166,-5.748L29.051,-5.73L28.935,-5.711L28.819,-5.692L28.704,-5.671L28.589,-5.65L28.474,-5.629L28.36,-5.606L28.246,-5.583L28.132,-5.559L28.018,-5.535L27.905,-5.509L27.791,-5.484L27.678,-5.457L27.566,-5.43L27.453,-5.402L27.341,-5.373L27.229,-5.344L27.118,-5.314L27.006,-5.283L26.895,-5.252L26.785,-5.22L26.674,-5.188L26.564,-5.154L26.454,-5.12L26.345,-5.086L26.235,-5.051L26.126,-5.015L26.017,-4.978L25.909,-4.941L25.801,-4.903L25.693,-4.865L25.587,-4.826L25.371,-4.745L25.159,-4.663L24.947,-4.577L24.737,-4.49L24.528,-4.4L24.32,-4.307L24.113,-4.212L23.908,-4.114L23.705,-4.014L23.503,-3.912L23.302,-3.807L23.102,-3.7L22.904,-3.591L22.708,-3.479L22.513,-3.365L22.319,-3.249L22.127,-3.131L21.937,-3.01L21.748,-2.887L21.56,-2.762L21.375,-2.634L21.19,-2.505L21.008,-2.373L20.827,-2.239L20.648,-2.103L20.47,-1.965L20.294,-1.825L20.12,-1.683L19.948,-1.539L19.777,-1.392L19.609,-1.244L19.442,-1.094L19.276,-0.942L19.113,-0.788L18.952,-0.632L18.792,-0.474L18.634,-0.314L18.479,-0.152L18.325,0.012L18.173,0.177L18.023,0.344L17.875,0.513L17.729,0.684L17.585,0.856L17.443,1.031L17.303,1.207L17.165,1.384L17.03,1.564L16.896,1.745L16.765,1.928L16.636,2.112L16.509,2.298L16.384,2.485L16.261,2.674L16.141,2.865L16.022,3.057L15.907,3.251L15.793,3.446L15.682,3.642L15.573,3.841L15.466,4.04L15.362,4.241L15.26,4.443L15.16,4.647L15.063,4.852L14.968,5.059L14.876,5.266L14.786,5.475L14.699,5.686L14.614,5.897L14.532,6.11L14.451,6.326L14.413,6.432L14.375,6.54L14.337,6.648L14.3,6.756L14.264,6.865L14.228,6.974L14.193,7.083L14.158,7.193L14.125,7.303L14.092,7.413L14.059,7.523L14.027,7.634L13.996,7.745L13.966,7.856L13.936,7.968L13.907,8.079L13.879,8.191L13.851,8.304L13.824,8.416L13.798,8.529L13.772,8.642L13.747,8.756L13.723,8.87L13.699,8.983L13.676,9.098L13.654,9.212L13.632,9.327L13.612,9.442L13.591,9.557L13.572,9.672L13.553,9.788L13.535,9.904L13.518,10.02L13.501,10.136L13.486,10.253L13.47,10.369L13.456,10.486L13.442,10.604L13.429,10.721L13.417,10.839L13.405,10.957L13.395,11.075L13.385,11.193L13.375,11.312L13.367,11.431L13.359,11.55L13.352,11.669L13.345,11.788L13.34,11.908L13.335,12.028L13.331,12.148L13.328,12.268L13.325,12.388L13.323,12.509L13.322,12.629L13.322,12.75L13.322,12.871L13.324,12.992L13.326,13.113L13.328,13.233L13.332,13.353L13.336,13.473L13.341,13.593L13.347,13.713L13.353,13.832L13.361,13.951L13.369,14.07L13.378,14.189L13.387,14.307L13.397,14.426L13.408,14.544L13.42,14.662L13.432,14.779L13.446,14.897L13.459,15.014L13.474,15.131L13.489,15.248L13.505,15.364L13.522,15.481L13.54,15.597L13.558,15.712L13.577,15.828L13.596,15.943L13.617,16.058L13.638,16.173L13.659,16.288L13.682,16.402L13.705,16.516L13.729,16.63L13.753,16.744L13.778,16.857L13.804,16.97L13.831,17.083L13.858,17.195L13.886,17.308L13.914,17.42L13.943,17.531L13.973,17.643L14.004,17.754L14.035,17.865L14.067,17.976L14.1,18.086L14.133,18.196L14.167,18.306L14.201,18.415L14.236,18.524L14.272,18.633L14.309,18.742L14.346,18.85L14.384,18.958L14.422,19.066L14.461,19.172L14.541,19.387L14.624,19.6L14.709,19.811L14.797,20.021L14.887,20.23L14.979,20.437L15.074,20.644L15.172,20.848L15.271,21.052L15.374,21.254L15.478,21.454L15.585,21.654L15.694,21.851L15.806,22.048L15.92,22.242L16.036,22.436L16.154,22.628L16.275,22.818L16.398,23.006L16.523,23.194L16.65,23.379L16.779,23.563L16.911,23.745L17.045,23.926L17.18,24.105L17.318,24.282L17.458,24.458L17.6,24.632L17.744,24.804L17.89,24.974L18.038,25.143L18.188,25.31L18.34,25.475L18.494,25.638L18.65,25.799L18.808,25.959L18.968,26.116L19.129,26.272L19.293,26.425L19.458,26.577L19.625,26.727L19.794,26.875L19.964,27.02L20.136,27.164L20.311,27.306L20.486,27.446L20.664,27.583L20.843,27.719L21.024,27.852L21.206,27.983L21.39,28.112L21.576,28.239L21.763,28.364L21.952,28.487L22.143,28.607L22.334,28.725L22.528,28.841L22.723,28.954L22.919,29.065L23.117,29.174L23.316,29.281L23.517,29.385L23.719,29.487L23.922,29.586L24.127,29.683L24.333,29.778L24.541,29.87L24.75,29.96L24.96,30.047L25.171,30.132L25.384,30.214L25.599,30.294L25.705,30.332L25.813,30.371L25.921,30.408L26.029,30.445L26.138,30.482L26.246,30.517L26.356,30.552L26.465,30.587L26.575,30.62L26.685,30.653L26.795,30.686L26.906,30.717L27.016,30.748L27.128,30.779L27.239,30.809L27.351,30.838L27.463,30.866L27.575,30.894L27.687,30.921L27.8,30.947L27.913,30.973L28.026,30.998L28.14,31.022L28.254,31.045L28.368,31.068L28.482,31.091L28.596,31.112L28.711,31.133L28.826,31.153L28.941,31.172L29.057,31.191L29.173,31.209L29.289,31.226L29.405,31.243L29.521,31.259L29.638,31.274L29.755,31.288L29.872,31.302L29.989,31.315L30.107,31.327L30.225,31.339L30.343,31.349L30.461,31.359L30.579,31.369L30.698,31.377L30.817,31.385L30.936,31.392L31.055,31.399L31.174,31.404L31.294,31.409L31.414,31.413L31.534,31.416L31.654,31.419L31.775,31.421L31.895,31.422L32.016,31.422L32.137,31.422L32.258,31.42L32.378,31.418L32.498,31.416L32.618,31.412L32.738,31.408L32.858,31.403L32.977,31.397L33.096,31.391L33.215,31.383L33.334,31.375L33.453,31.367L33.571,31.357L33.689,31.347L33.807,31.336L33.925,31.324L34.043,31.312L34.16,31.299L34.277,31.285L34.394,31.27L34.51,31.255L34.627,31.239L34.743,31.222L34.859,31.205L34.975,31.187L35.09,31.168L35.205,31.148L35.32,31.128L35.435,31.107L35.549,31.085L35.663,31.063L35.777,31.04L35.891,31.016L36.005,30.992L36.118,30.966L36.231,30.941L36.343,30.914L36.456,30.887L36.568,30.859L36.68,30.831L36.791,30.801L36.903,30.771L37.014,30.741L37.124,30.71L37.235,30.678L37.345,30.645L37.455,30.612L37.565,30.578L37.674,30.544L37.783,30.509L37.892,30.473L38,30.436L38.108,30.399L38.216,30.362L38.324,30.323L38.429,30.285L38.645,30.204L38.857,30.122L39.068,30.037L39.278,29.949L39.487,29.859L39.694,29.767L39.9,29.672L40.104,29.575L40.307,29.475L40.509,29.373L40.709,29.268L40.908,29.162L41.106,29.053L41.302,28.941L41.497,28.827L41.69,28.711L41.881,28.593L42.071,28.473L42.26,28.35L42.447,28.225L42.632,28.098L42.816,27.969L42.998,27.837L43.178,27.704L43.357,27.568L43.534,27.431L43.709,27.291L43.883,27.149L44.055,27.005L44.225,26.859L44.394,26.711L44.56,26.561L44.725,26.41L44.888,26.256L45.049,26.1L45.208,25.943L45.366,25.783L45.521,25.622L45.675,25.459L45.826,25.294L45.976,25.127L46.123,24.958L46.269,24.788L46.412,24.616L46.554,24.442L46.694,24.266L46.831,24.089L46.966,23.91L47.099,23.729L47.231,23.547L47.359,23.363L47.486,23.178L47.611,22.991L47.733,22.802L47.853,22.612L47.971,22.42L48.087,22.227L48.2,22.033L48.311,21.836L48.42,21.639L48.526,21.44L48.631,21.239L48.732,21.038L48.832,20.834L48.928,20.63L49.023,20.424L49.115,20.217L49.205,20.008L49.292,19.798L49.376,19.587L49.458,19.375L49.539,19.159L49.577,19.054L49.615,18.946L49.653,18.839L49.69,18.73L49.726,18.622L49.761,18.513L49.796,18.404L49.831,18.295L49.864,18.185L49.897,18.075L49.93,17.965L49.961,17.855L49.992,17.744L50.023,17.633L50.052,17.522L50.081,17.41L50.11,17.298L50.137,17.186L50.164,17.074L50.191,16.961L50.216,16.849L50.241,16.735L50.265,16.622L50.289,16.508L50.312,16.395L50.334,16.28L50.356,16.166L50.376,16.051L50.396,15.937L50.416,15.821L50.434,15.706L50.452,15.59L50.47,15.475L50.486,15.359L50.502,15.242L50.517,15.126L50.532,15.009L50.545,14.892L50.558,14.775L50.57,14.657L50.582,14.54L50.593,14.422L50.603,14.304L50.612,14.186L50.62,14.067L50.628,13.948L50.635,13.83L50.642,13.71L50.647,13.591L50.652,13.472L50.656,13.352L50.66,13.232L50.662,13.112L50.664,12.992L50.665,12.871L50.665,12.75L50.665,12.63L50.664,12.509L50.662,12.389L50.659,12.269L50.655,12.149L50.651,12.029L50.646,11.91L50.64,11.791L50.634,11.671L50.626,11.553L50.618,11.434L50.61,11.315L50.6,11.197L50.59,11.079L50.579,10.961L50.567,10.844L50.555,10.726L50.542,10.609L50.528,10.492L50.513,10.376L50.498,10.259L50.482,10.143L50.465,10.027L50.448,9.911L50.43,9.796L50.411,9.68L50.392,9.565L50.371,9.45L50.35,9.336L50.329,9.222L50.306,9.107L50.283,8.994L50.26,8.88L50.235,8.767L50.21,8.654L50.184,8.541L50.158,8.428L50.131,8.316L50.103,8.204L50.074,8.092L50.045,7.981L50.015,7.87L49.985,7.759L49.954,7.648L49.922,7.538L49.889,7.428L49.856,7.318L49.822,7.209L49.788,7.099L49.753,6.99L49.717,6.882L49.681,6.774L49.644,6.666L49.606,6.558L49.568,6.45L49.529,6.345L49.449,6.13L49.366,5.918L49.281,5.707L49.194,5.497L49.104,5.289L49.012,5.082L48.917,4.876L48.82,4.672L48.72,4.469L48.618,4.268L48.514,4.068L48.408,3.869L48.299,3.672L48.187,3.476L48.074,3.281L47.958,3.089L47.84,2.897L47.719,2.707L47.597,2.519L47.472,2.333L47.345,2.147L47.216,1.964L47.085,1.782L46.952,1.602L46.816,1.423L46.679,1.246L46.539,1.071L46.397,0.898L46.254,0.726L46.108,0.556L45.96,0.388L45.81,0.222L45.659,0.057L45.505,-0.106L45.35,-0.267L45.192,-0.426L45.033,-0.583L44.872,-0.738L44.709,-0.891L44.544,-1.043L44.378,-1.192L44.209,-1.34L44.039,-1.485L43.867,-1.629L43.693,-1.77L43.518,-1.909L43.341,-2.046L43.162,-2.182L42.982,-2.315L42.8,-2.446L42.616,-2.574L42.431,-2.701L42.244,-2.825L42.056,-2.948L41.866,-3.068L41.674,-3.185L41.481,-3.301L41.287,-3.414L41.091,-3.525L40.894,-3.634L40.695,-3.74L40.495,-3.844L40.293,-3.945L40.09,-4.045L39.886,-4.141L39.68,-4.236L39.473,-4.328L39.265,-4.417L39.055,-4.504L38.844,-4.589L38.632,-4.671L38.417,-4.751L38.312,-4.789L38.205,-4.827L38.097,-4.865L37.989,-4.902L37.88,-4.938L37.772,-4.973L37.663,-5.008L37.554,-5.043L37.444,-5.076L37.335,-5.109L37.225,-5.141L37.114,-5.173L37.004,-5.204L36.893,-5.234L36.782,-5.264L36.67,-5.293L36.559,-5.321L36.447,-5.349L36.334,-5.376L36.222,-5.402L36.109,-5.428L35.996,-5.453L35.883,-5.477L35.77,-5.5L35.656,-5.523L35.542,-5.545L35.428,-5.567L35.313,-5.588L35.198,-5.608L35.083,-5.627L34.968,-5.646L34.853,-5.664L34.737,-5.681L34.621,-5.697L34.505,-5.713L34.389,-5.728L34.272,-5.743L34.155,-5.756L34.038,-5.769L33.921,-5.781L33.803,-5.793L33.686,-5.804L33.568,-5.814L33.45,-5.823L33.331,-5.831L33.213,-5.839L33.094,-5.846L32.975,-5.853L32.856,-5.858L32.736,-5.863L32.617,-5.867L32.497,-5.87L32.377,-5.873L32.257,-5.875L32.137,-5.876L32.012,-5.876L32.012,-5.966L31.895,-5.966Z" style="fill:#a8e2b3;"/>
                <path d="M32.215,-2.669L32.413,-2.665L32.611,-2.659L32.808,-2.65L33.005,-2.639L33.201,-2.625L33.396,-2.609L33.59,-2.59L33.784,-2.569L33.978,-2.545L34.17,-2.519L34.362,-2.491L34.553,-2.46L34.743,-2.427L34.932,-2.392L35.121,-2.354L35.309,-2.315L35.496,-2.272L35.682,-2.228L35.867,-2.181L36.051,-2.133L36.235,-2.081L36.417,-2.028L36.599,-1.973L36.779,-1.915L36.959,-1.855L37.137,-1.793L37.315,-1.729L37.492,-1.663L37.667,-1.595L37.842,-1.525L38.015,-1.452L38.187,-1.378L38.359,-1.302L38.529,-1.223L38.698,-1.143L38.866,-1.06L39.032,-0.976L39.198,-0.89L39.362,-0.801L39.525,-0.711L39.687,-0.619L39.848,-0.525L40.007,-0.429L40.166,-0.332L40.322,-0.232L40.478,-0.131L40.632,-0.028L40.785,0.077L40.937,0.184L41.087,0.292L41.236,0.402L41.384,0.514L41.53,0.628L41.674,0.743L41.818,0.86L41.959,0.979L42.1,1.1L42.239,1.222L42.376,1.345L42.512,1.471L42.646,1.597L42.779,1.726L42.911,1.856L43.04,1.987L43.169,2.121L43.295,2.255L43.42,2.391L43.544,2.529L43.665,2.668L43.786,2.809L43.904,2.951L44.021,3.094L44.136,3.239L44.249,3.385L44.361,3.533L44.471,3.682L44.579,3.833L44.685,3.984L44.79,4.137L44.893,4.292L44.994,4.448L45.093,4.605L45.19,4.763L45.286,4.922L45.379,5.083L45.471,5.245L45.561,5.408L45.649,5.573L45.735,5.738L45.819,5.905L45.901,6.073L45.981,6.242L46.059,6.412L46.135,6.584L46.209,6.756L46.281,6.929L46.351,7.104L46.418,7.279L46.484,7.456L46.548,7.634L46.609,7.812L46.669,7.992L46.726,8.172L46.781,8.354L46.834,8.536L46.885,8.719L46.933,8.904L46.979,9.089L47.023,9.275L47.065,9.461L47.105,9.649L47.142,9.837L47.177,10.027L47.209,10.217L47.24,10.408L47.267,10.599L47.293,10.791L47.316,10.984L47.337,11.178L47.355,11.372L47.371,11.567L47.385,11.763L47.396,11.959L47.404,12.156L47.41,12.354L47.414,12.552L47.415,12.75L47.413,12.949L47.409,13.147L47.403,13.345L47.394,13.541L47.383,13.738L47.369,13.933L47.353,14.128L47.334,14.323L47.313,14.516L47.289,14.709L47.263,14.901L47.235,15.093L47.205,15.283L47.172,15.473L47.136,15.662L47.099,15.851L47.059,16.038L47.017,16.225L46.973,16.411L46.926,16.596L46.877,16.78L46.826,16.963L46.773,17.145L46.718,17.326L46.66,17.506L46.6,17.686L46.539,17.864L46.475,18.042L46.409,18.218L46.341,18.393L46.27,18.567L46.198,18.741L46.124,18.913L46.048,19.084L45.969,19.254L45.889,19.422L45.807,19.59L45.722,19.756L45.636,19.922L45.548,20.086L45.458,20.249L45.366,20.41L45.272,20.571L45.177,20.73L45.079,20.888L44.98,21.045L44.879,21.2L44.776,21.354L44.671,21.507L44.564,21.658L44.456,21.808L44.346,21.957L44.234,22.104L44.121,22.25L44.006,22.395L43.889,22.538L43.77,22.679L43.65,22.819L43.528,22.958L43.405,23.095L43.28,23.231L43.153,23.365L43.025,23.498L42.895,23.629L42.763,23.759L42.63,23.887L42.496,24.013L42.36,24.138L42.223,24.261L42.084,24.383L41.943,24.503L41.802,24.621L41.658,24.738L41.514,24.852L41.367,24.966L41.22,25.077L41.071,25.187L40.921,25.295L40.769,25.401L40.617,25.506L40.462,25.608L40.307,25.709L40.15,25.808L39.992,25.905L39.833,26.001L39.672,26.094L39.51,26.186L39.347,26.275L39.183,26.363L39.018,26.449L38.851,26.533L38.684,26.615L38.515,26.695L38.345,26.772L38.174,26.848L38.002,26.922L37.829,26.994L37.654,27.064L37.479,27.132L37.303,27.197L37.126,27.261L36.947,27.322L36.768,27.382L36.588,27.439L36.407,27.494L36.224,27.547L36.041,27.597L35.857,27.646L35.673,27.692L35.487,27.736L35.3,27.777L35.113,27.817L34.925,27.854L34.736,27.889L34.546,27.921L34.356,27.952L34.164,27.979L33.972,28.005L33.78,28.028L33.586,28.049L33.392,28.067L33.197,28.083L33.002,28.096L32.806,28.107L32.609,28.116L32.412,28.122L32.214,28.126L32.016,28.127L31.818,28.125L31.62,28.121L31.423,28.115L31.226,28.106L31.03,28.095L30.835,28.081L30.64,28.064L30.446,28.046L30.253,28.025L30.06,28.001L29.868,27.975L29.677,27.947L29.487,27.917L29.297,27.884L29.108,27.849L28.92,27.811L28.733,27.771L28.547,27.729L28.361,27.685L28.177,27.639L27.993,27.59L27.81,27.539L27.628,27.486L27.447,27.431L27.267,27.373L27.088,27.313L26.91,27.252L26.733,27.188L26.557,27.122L26.382,27.054L26.208,26.984L26.035,26.912L25.863,26.838L25.692,26.761L25.523,26.683L25.354,26.603L25.187,26.521L25.02,26.437L24.855,26.351L24.692,26.263L24.529,26.173L24.367,26.081L24.207,25.987L24.048,25.892L23.891,25.794L23.734,25.695L23.579,25.594L23.425,25.491L23.273,25.387L23.121,25.28L22.972,25.172L22.823,25.062L22.676,24.951L22.53,24.837L22.386,24.722L22.243,24.606L22.102,24.487L21.962,24.367L21.823,24.246L21.686,24.122L21.551,23.997L21.417,23.871L21.284,23.743L21.153,23.613L21.024,23.482L20.896,23.349L20.77,23.215L20.645,23.079L20.522,22.942L20.401,22.803L20.281,22.663L20.163,22.522L20.047,22.378L19.932,22.234L19.819,22.088L19.708,21.941L19.598,21.792L19.49,21.642L19.384,21.491L19.28,21.338L19.177,21.184L19.077,21.029L18.978,20.873L18.881,20.715L18.785,20.556L18.692,20.395L18.601,20.234L18.511,20.071L18.424,19.907L18.338,19.742L18.254,19.576L18.172,19.408L18.092,19.24L18.015,19.07L17.939,18.899L17.865,18.727L17.793,18.555L17.724,18.381L17.656,18.206L17.59,18.029L17.527,17.852L17.466,17.674L17.406,17.495L17.349,17.315L17.294,17.134L17.242,16.953L17.191,16.77L17.143,16.586L17.097,16.402L17.053,16.216L17.011,16.03L16.972,15.843L16.935,15.655L16.9,15.466L16.867,15.277L16.837,15.087L16.809,14.896L16.784,14.704L16.761,14.511L16.74,14.318L16.722,14.124L16.706,13.93L16.693,13.735L16.682,13.539L16.673,13.343L16.667,13.146L16.663,12.948L16.662,12.75L16.664,12.552L16.668,12.355L16.674,12.158L16.683,11.962L16.694,11.766L16.708,11.571L16.725,11.377L16.743,11.183L16.764,10.99L16.788,10.798L16.813,10.606L16.842,10.415L16.872,10.225L16.905,10.036L16.94,9.847L16.977,9.659L17.017,9.472L17.059,9.286L17.103,9.101L17.15,8.917L17.198,8.733L17.249,8.551L17.302,8.369L17.358,8.188L17.415,8.008L17.474,7.83L17.536,7.652L17.6,7.475L17.666,7.299L17.734,7.124L17.804,6.951L17.876,6.778L17.95,6.606L18.026,6.436L18.104,6.266L18.184,6.098L18.266,5.931L18.35,5.765L18.436,5.6L18.524,5.437L18.613,5.274L18.705,5.113L18.799,4.953L18.894,4.794L18.991,4.637L19.09,4.481L19.191,4.326L19.294,4.172L19.398,4.02L19.505,3.869L19.613,3.719L19.722,3.571L19.834,3.424L19.947,3.279L20.062,3.135L20.178,2.992L20.297,2.851L20.416,2.711L20.538,2.573L20.661,2.436L20.786,2.301L20.912,2.167L21.04,2.034L21.169,1.904L21.3,1.775L21.433,1.647L21.567,1.521L21.702,1.396L21.84,1.274L21.978,1.152L22.118,1.033L22.259,0.915L22.402,0.799L22.546,0.684L22.692,0.571L22.839,0.46L22.988,0.351L23.137,0.243L23.288,0.137L23.441,0.033L23.595,-0.07L23.75,-0.17L23.906,-0.269L24.064,-0.366L24.222,-0.461L24.382,-0.554L24.544,-0.645L24.706,-0.735L24.87,-0.822L25.035,-0.908L25.201,-0.991L25.368,-1.073L25.536,-1.153L25.706,-1.23L25.876,-1.306L26.048,-1.38L26.221,-1.451L26.394,-1.521L26.569,-1.589L26.745,-1.654L26.922,-1.717L27.099,-1.779L27.278,-1.838L27.458,-1.895L27.639,-1.95L27.82,-2.002L28.003,-2.053L28.186,-2.101L28.37,-2.147L28.555,-2.191L28.741,-2.232L28.928,-2.272L29.116,-2.309L29.304,-2.344L29.493,-2.376L29.683,-2.406L29.874,-2.434L30.066,-2.459L30.258,-2.482L30.451,-2.503L30.644,-2.521L30.838,-2.537L31.033,-2.55L31.228,-2.561L31.425,-2.57L31.621,-2.576L31.818,-2.58L32.009,-2.581L32.016,-2.626L32.024,-2.671L32.215,-2.669ZM31.848,-0.26L31.68,-0.256L31.513,-0.251L31.346,-0.243L31.18,-0.234L31.015,-0.222L30.85,-0.208L30.686,-0.192L30.522,-0.174L30.359,-0.155L30.197,-0.133L30.035,-0.109L29.874,-0.083L29.714,-0.055L29.554,-0.025L29.395,0.006L29.237,0.04L29.079,0.076L28.922,0.113L28.766,0.152L28.611,0.194L28.457,0.237L28.303,0.281L28.15,0.328L27.998,0.377L27.847,0.427L27.696,0.479L27.546,0.533L27.398,0.589L27.25,0.647L27.103,0.706L26.957,0.767L26.811,0.83L26.667,0.894L26.524,0.96L26.381,1.028L26.24,1.098L26.099,1.169L25.959,1.241L25.821,1.316L25.683,1.392L25.547,1.47L25.411,1.549L25.277,1.63L25.143,1.712L25.011,1.796L24.879,1.882L24.749,1.969L24.62,2.057L24.492,2.147L24.365,2.239L24.24,2.332L24.115,2.427L23.992,2.523L23.87,2.62L23.749,2.719L23.629,2.819L23.51,2.921L23.393,3.024L23.277,3.129L23.162,3.234L23.049,3.342L22.936,3.45L22.826,3.56L22.716,3.671L22.608,3.783L22.501,3.897L22.395,4.012L22.291,4.129L22.188,4.246L22.087,4.365L21.987,4.485L21.888,4.606L21.791,4.728L21.695,4.852L21.601,4.977L21.508,5.102L21.417,5.229L21.327,5.357L21.239,5.487L21.152,5.617L21.067,5.748L20.983,5.881L20.901,6.015L20.821,6.149L20.742,6.285L20.665,6.421L20.589,6.559L20.515,6.698L20.442,6.837L20.372,6.978L20.302,7.12L20.235,7.262L20.169,7.406L20.105,7.55L20.043,7.695L19.982,7.841L19.923,7.988L19.866,8.136L19.811,8.285L19.757,8.435L19.705,8.585L19.655,8.736L19.607,8.888L19.561,9.041L19.516,9.195L19.474,9.349L19.433,9.505L19.394,9.66L19.357,9.817L19.322,9.975L19.288,10.133L19.257,10.291L19.228,10.451L19.2,10.611L19.175,10.772L19.151,10.933L19.13,11.096L19.11,11.258L19.093,11.422L19.077,11.586L19.064,11.751L19.053,11.916L19.043,12.082L19.036,12.248L19.031,12.415L19.028,12.582L19.027,12.75L19.028,12.919L19.032,13.086L19.037,13.253L19.045,13.419L19.054,13.585L19.066,13.75L19.08,13.915L19.096,14.079L19.114,14.242L19.133,14.405L19.155,14.567L19.179,14.728L19.205,14.889L19.233,15.049L19.262,15.208L19.294,15.367L19.328,15.525L19.363,15.682L19.401,15.839L19.44,15.995L19.481,16.15L19.524,16.304L19.569,16.457L19.615,16.61L19.664,16.762L19.714,16.913L19.766,17.063L19.82,17.212L19.876,17.361L19.933,17.509L19.992,17.655L20.053,17.801L20.116,17.946L20.18,18.09L20.246,18.233L20.314,18.376L20.383,18.517L20.454,18.657L20.527,18.797L20.601,18.935L20.677,19.072L20.755,19.209L20.834,19.344L20.915,19.478L20.997,19.611L21.081,19.744L21.166,19.875L21.253,20.005L21.342,20.134L21.431,20.261L21.523,20.388L21.616,20.513L21.71,20.638L21.806,20.761L21.903,20.883L22.002,21.004L22.102,21.123L22.204,21.241L22.307,21.359L22.411,21.474L22.516,21.589L22.623,21.702L22.732,21.814L22.841,21.925L22.952,22.034L23.065,22.143L23.178,22.249L23.293,22.355L23.409,22.459L23.526,22.561L23.645,22.663L23.765,22.762L23.886,22.861L24.008,22.958L24.131,23.053L24.256,23.147L24.381,23.24L24.508,23.331L24.636,23.421L24.765,23.509L24.895,23.595L25.026,23.681L25.159,23.764L25.292,23.846L25.426,23.926L25.562,24.005L25.698,24.082L25.836,24.158L25.974,24.232L26.113,24.304L26.254,24.375L26.395,24.444L26.537,24.511L26.68,24.577L26.825,24.641L26.97,24.703L27.116,24.764L27.262,24.822L27.41,24.879L27.558,24.935L27.708,24.988L27.858,25.04L28.009,25.09L28.161,25.138L28.313,25.184L28.467,25.229L28.621,25.271L28.776,25.312L28.931,25.351L29.088,25.388L29.245,25.423L29.403,25.456L29.561,25.487L29.721,25.517L29.88,25.544L30.041,25.569L30.202,25.593L30.364,25.614L30.527,25.634L30.69,25.651L30.854,25.667L31.018,25.68L31.183,25.691L31.348,25.701L31.514,25.708L31.681,25.713L31.848,25.716L32.016,25.717L32.184,25.716L32.351,25.712L32.518,25.707L32.684,25.699L32.849,25.69L33.014,25.678L33.178,25.664L33.342,25.648L33.505,25.631L33.668,25.611L33.829,25.589L33.991,25.565L34.151,25.539L34.311,25.512L34.47,25.482L34.628,25.45L34.786,25.417L34.943,25.381L35.099,25.344L35.255,25.305L35.409,25.264L35.563,25.221L35.716,25.176L35.869,25.13L36.02,25.081L36.171,25.031L36.321,24.979L36.47,24.925L36.619,24.87L36.766,24.812L36.912,24.753L37.058,24.692L37.203,24.63L37.347,24.566L37.49,24.5L37.632,24.432L37.773,24.363L37.913,24.292L38.052,24.22L38.19,24.145L38.327,24.07L38.463,23.992L38.598,23.913L38.732,23.833L38.865,23.75L38.997,23.667L39.128,23.582L39.258,23.495L39.386,23.406L39.514,23.317L39.64,23.225L39.766,23.133L39.89,23.038L40.013,22.943L40.134,22.846L40.255,22.747L40.374,22.647L40.492,22.546L40.609,22.443L40.725,22.339L40.839,22.234L40.952,22.127L41.064,22.019L41.175,21.909L41.284,21.798L41.392,21.686L41.498,21.573L41.604,21.458L41.707,21.342L41.81,21.225L41.911,21.107L42.011,20.987L42.109,20.867L42.206,20.745L42.301,20.622L42.395,20.497L42.487,20.372L42.578,20.245L42.668,20.118L42.756,19.989L42.842,19.859L42.927,19.728L43.011,19.596L43.092,19.463L43.173,19.329L43.251,19.194L43.328,19.057L43.404,18.92L43.478,18.782L43.55,18.643L43.62,18.503L43.689,18.362L43.756,18.22L43.822,18.077L43.886,17.933L43.948,17.788L44.008,17.642L44.067,17.496L44.124,17.349L44.179,17.2L44.233,17.051L44.284,16.901L44.334,16.751L44.382,16.599L44.428,16.447L44.473,16.294L44.515,16.14L44.556,15.985L44.595,15.83L44.631,15.674L44.667,15.517L44.7,15.359L44.731,15.201L44.76,15.042L44.787,14.882L44.813,14.722L44.836,14.561L44.858,14.4L44.877,14.237L44.894,14.075L44.91,13.911L44.923,13.747L44.935,13.582L44.944,13.417L44.951,13.251L44.956,13.085L44.959,12.918L44.96,12.75L44.959,12.583L44.955,12.416L44.95,12.25L44.942,12.084L44.933,11.919L44.921,11.754L44.907,11.59L44.892,11.427L44.874,11.264L44.854,11.102L44.832,10.94L44.808,10.779L44.783,10.619L44.755,10.46L44.725,10.301L44.694,10.143L44.66,9.985L44.625,9.829L44.588,9.673L44.549,9.518L44.508,9.363L44.465,9.209L44.42,9.057L44.374,8.904L44.325,8.753L44.275,8.603L44.223,8.453L44.17,8.304L44.114,8.156L44.057,8.009L43.998,7.863L43.937,7.717L43.875,7.573L43.811,7.429L43.745,7.287L43.678,7.145L43.608,7.004L43.538,6.864L43.465,6.725L43.391,6.587L43.316,6.451L43.238,6.315L43.159,6.18L43.079,6.046L42.997,5.913L42.913,5.782L42.828,5.651L42.742,5.522L42.654,5.393L42.564,5.266L42.473,5.14L42.38,5.015L42.286,4.891L42.191,4.768L42.094,4.646L41.995,4.526L41.896,4.407L41.794,4.289L41.692,4.172L41.588,4.057L41.483,3.943L41.376,3.83L41.268,3.718L41.159,3.608L41.048,3.499L40.936,3.391L40.823,3.285L40.709,3.18L40.593,3.076L40.476,2.974L40.358,2.873L40.239,2.773L40.118,2.675L39.996,2.579L39.874,2.483L39.75,2.39L39.624,2.297L39.498,2.207L39.371,2.117L39.242,2.029L39.112,1.943L38.982,1.858L38.85,1.775L38.717,1.693L38.583,1.613L38.448,1.535L38.312,1.458L38.175,1.383L38.037,1.309L37.898,1.237L37.758,1.166L37.618,1.098L37.476,1.031L37.333,0.965L37.19,0.901L37.045,0.839L36.9,0.779L36.753,0.721L36.606,0.664L36.458,0.609L36.309,0.555L36.16,0.504L36.009,0.454L35.858,0.406L35.706,0.36L35.553,0.316L35.399,0.273L35.245,0.233L35.09,0.194L34.934,0.157L34.778,0.122L34.62,0.089L34.462,0.058L34.304,0.029L34.144,0.001L33.984,-0.024L33.824,-0.047L33.662,-0.069L33.5,-0.088L33.338,-0.105L33.175,-0.121L33.011,-0.134L32.847,-0.145L32.682,-0.155L32.516,-0.162L32.35,-0.167L32.183,-0.17L32.008,-0.171L32.009,-0.261L31.848,-0.26Z" style="fill:#a8e2b3;"/>
                <path d="M32.147,2.615L32.277,2.617L32.407,2.622L32.536,2.628L32.666,2.635L32.794,2.644L32.923,2.655L33.05,2.668L33.178,2.682L33.305,2.697L33.431,2.714L33.557,2.733L33.683,2.753L33.808,2.775L33.932,2.798L34.056,2.823L34.18,2.849L34.303,2.877L34.425,2.906L34.547,2.937L34.668,2.969L34.788,3.003L34.908,3.038L35.028,3.074L35.146,3.112L35.265,3.152L35.382,3.192L35.499,3.234L35.615,3.278L35.73,3.323L35.845,3.369L35.959,3.417L36.072,3.466L36.185,3.516L36.296,3.568L36.407,3.621L36.518,3.675L36.627,3.73L36.736,3.787L36.844,3.845L36.951,3.904L37.058,3.965L37.163,4.027L37.268,4.09L37.372,4.154L37.475,4.219L37.577,4.286L37.678,4.354L37.779,4.423L37.878,4.493L37.977,4.564L38.075,4.637L38.172,4.71L38.268,4.785L38.363,4.861L38.457,4.938L38.55,5.016L38.642,5.095L38.733,5.175L38.824,5.256L38.913,5.339L39.001,5.422L39.088,5.507L39.175,5.592L39.26,5.678L39.344,5.766L39.427,5.854L39.509,5.944L39.59,6.034L39.67,6.126L39.749,6.218L39.827,6.311L39.903,6.406L39.979,6.501L40.053,6.597L40.127,6.694L40.199,6.792L40.27,6.891L40.34,6.991L40.408,7.091L40.476,7.193L40.542,7.295L40.607,7.398L40.671,7.502L40.734,7.607L40.795,7.713L40.855,7.819L40.914,7.926L40.972,8.034L41.028,8.143L41.083,8.253L41.137,8.363L41.19,8.474L41.241,8.586L41.291,8.699L41.34,8.812L41.387,8.926L41.433,9.041L41.477,9.156L41.52,9.272L41.562,9.389L41.603,9.506L41.642,9.624L41.679,9.743L41.715,9.862L41.75,9.982L41.783,10.103L41.815,10.224L41.845,10.345L41.874,10.467L41.902,10.59L41.927,10.714L41.952,10.837L41.975,10.962L41.996,11.087L42.016,11.212L42.034,11.338L42.051,11.464L42.066,11.591L42.079,11.718L42.091,11.846L42.102,11.974L42.111,12.102L42.118,12.231L42.123,12.36L42.127,12.49L42.13,12.62L42.13,12.75L42.129,12.881L42.127,13.011L42.122,13.14L42.116,13.27L42.109,13.399L42.1,13.527L42.089,13.655L42.077,13.783L42.063,13.91L42.047,14.036L42.03,14.163L42.011,14.288L41.991,14.414L41.97,14.538L41.946,14.663L41.922,14.786L41.895,14.909L41.868,15.032L41.839,15.154L41.808,15.276L41.776,15.396L41.742,15.517L41.707,15.636L41.671,15.755L41.633,15.874L41.594,15.992L41.553,16.109L41.511,16.225L41.467,16.341L41.423,16.456L41.377,16.571L41.329,16.684L41.28,16.797L41.23,16.91L41.179,17.021L41.126,17.132L41.072,17.242L41.016,17.351L40.96,17.46L40.902,17.568L40.843,17.675L40.782,17.781L40.72,17.886L40.658,17.991L40.594,18.094L40.528,18.197L40.462,18.299L40.394,18.4L40.325,18.5L40.255,18.6L40.184,18.698L40.112,18.796L40.038,18.892L39.964,18.988L39.888,19.083L39.811,19.177L39.734,19.27L39.655,19.362L39.575,19.453L39.493,19.543L39.411,19.632L39.328,19.72L39.244,19.807L39.159,19.893L39.072,19.978L38.985,20.062L38.897,20.145L38.808,20.227L38.717,20.308L38.626,20.387L38.534,20.466L38.441,20.544L38.347,20.62L38.252,20.696L38.156,20.77L38.059,20.843L37.961,20.915L37.863,20.986L37.763,21.055L37.663,21.124L37.561,21.191L37.459,21.257L37.356,21.322L37.253,21.386L37.148,21.449L37.043,21.51L36.936,21.57L36.829,21.629L36.722,21.686L36.613,21.743L36.504,21.798L36.393,21.851L36.283,21.904L36.171,21.955L36.059,22.005L35.946,22.053L35.832,22.1L35.718,22.146L35.602,22.191L35.487,22.234L35.37,22.275L35.253,22.316L35.135,22.354L35.017,22.392L34.898,22.428L34.778,22.463L34.658,22.496L34.537,22.527L34.416,22.558L34.294,22.587L34.172,22.614L34.049,22.64L33.925,22.664L33.801,22.687L33.676,22.708L33.551,22.728L33.426,22.746L33.3,22.763L33.173,22.778L33.046,22.791L32.919,22.803L32.791,22.814L32.663,22.822L32.534,22.83L32.405,22.835L32.276,22.839L32.146,22.841L32.016,22.842L31.886,22.841L31.756,22.838L31.627,22.834L31.498,22.828L31.369,22.821L31.241,22.812L31.114,22.801L30.986,22.788L30.859,22.775L30.733,22.759L30.607,22.742L30.482,22.724L30.357,22.703L30.232,22.682L30.108,22.659L29.985,22.634L29.862,22.608L29.74,22.58L29.618,22.551L29.497,22.52L29.376,22.488L29.256,22.455L29.137,22.42L29.018,22.384L28.9,22.346L28.782,22.307L28.665,22.266L28.549,22.224L28.434,22.181L28.319,22.136L28.204,22.09L28.091,22.043L27.978,21.994L27.866,21.944L27.755,21.892L27.644,21.84L27.534,21.786L27.425,21.731L27.317,21.674L27.21,21.616L27.103,21.557L26.997,21.497L26.892,21.435L26.788,21.373L26.684,21.309L26.582,21.244L26.48,21.177L26.379,21.11L26.279,21.041L26.18,20.971L26.082,20.9L25.984,20.828L25.888,20.755L25.792,20.68L25.698,20.605L25.604,20.528L25.511,20.451L25.42,20.372L25.329,20.292L25.239,20.211L25.15,20.129L25.062,20.046L24.975,19.962L24.889,19.877L24.805,19.791L24.721,19.704L24.638,19.616L24.556,19.527L24.476,19.437L24.396,19.346L24.318,19.254L24.24,19.161L24.164,19.067L24.089,18.972L24.015,18.876L23.942,18.78L23.87,18.682L23.799,18.584L23.73,18.485L23.661,18.384L23.594,18.283L23.528,18.182L23.463,18.079L23.4,17.975L23.337,17.871L23.276,17.766L23.216,17.66L23.158,17.553L23.1,17.445L23.044,17.337L22.989,17.228L22.936,17.118L22.883,17.007L22.832,16.896L22.783,16.784L22.734,16.671L22.687,16.558L22.641,16.444L22.597,16.329L22.554,16.213L22.513,16.097L22.472,15.98L22.434,15.863L22.396,15.745L22.36,15.626L22.326,15.507L22.293,15.387L22.261,15.266L22.231,15.145L22.202,15.023L22.175,14.901L22.149,14.778L22.125,14.655L22.102,14.531L22.081,14.407L22.061,14.282L22.043,14.157L22.026,14.031L22.011,13.905L21.998,13.778L21.986,13.651L21.975,13.524L21.967,13.396L21.959,13.267L21.954,13.139L21.95,13.01L21.948,12.88L21.947,12.75L21.948,12.621L21.951,12.491L21.955,12.362L21.961,12.234L21.968,12.105L21.978,11.977L21.988,11.85L22.001,11.723L22.014,11.596L22.03,11.47L22.047,11.345L22.065,11.219L22.085,11.095L22.107,10.971L22.13,10.847L22.155,10.724L22.181,10.601L22.208,10.479L22.237,10.358L22.268,10.237L22.3,10.116L22.333,9.997L22.368,9.877L22.404,9.759L22.442,9.641L22.481,9.524L22.522,9.407L22.564,9.291L22.607,9.176L22.651,9.061L22.697,8.947L22.745,8.834L22.793,8.722L22.843,8.61L22.895,8.499L22.947,8.388L23.001,8.279L23.056,8.17L23.112,8.062L23.17,7.955L23.229,7.848L23.289,7.743L23.351,7.638L23.413,7.534L23.477,7.431L23.542,7.328L23.608,7.227L23.675,7.126L23.744,7.026L23.814,6.927L23.885,6.829L23.956,6.732L24.03,6.636L24.104,6.541L24.179,6.446L24.256,6.353L24.333,6.26L24.412,6.169L24.491,6.078L24.572,5.988L24.654,5.9L24.737,5.812L24.821,5.725L24.905,5.64L24.991,5.555L25.078,5.472L25.166,5.389L25.255,5.307L25.345,5.227L25.436,5.148L25.527,5.069L25.62,4.992L25.714,4.916L25.808,4.841L25.904,4.767L26,4.694L26.098,4.622L26.196,4.552L26.295,4.483L26.395,4.414L26.496,4.347L26.597,4.281L26.7,4.217L26.803,4.153L26.907,4.091L27.012,4.03L27.118,3.97L27.224,3.912L27.332,3.854L27.44,3.798L27.549,3.744L27.658,3.69L27.769,3.638L27.88,3.587L27.992,3.538L28.104,3.489L28.217,3.442L28.331,3.397L28.446,3.353L28.561,3.31L28.677,3.268L28.794,3.228L28.911,3.189L29.029,3.152L29.147,3.116L29.266,3.082L29.386,3.049L29.506,3.017L29.627,2.987L29.748,2.958L29.87,2.931L29.993,2.905L30.116,2.881L30.239,2.859L30.363,2.837L30.488,2.818L30.613,2.8L30.738,2.783L30.864,2.768L30.991,2.754L31.117,2.743L31.245,2.732L31.372,2.723L31.5,2.716L31.629,2.711L31.757,2.707L31.887,2.705L32.009,2.704L32.016,2.659L32.024,2.614L32.147,2.615ZM31.916,5.024L31.816,5.027L31.717,5.03L31.618,5.034L31.519,5.04L31.421,5.047L31.323,5.056L31.226,5.065L31.128,5.076L31.032,5.088L30.935,5.101L30.839,5.115L30.744,5.13L30.648,5.147L30.554,5.165L30.459,5.184L30.366,5.204L30.272,5.225L30.179,5.247L30.086,5.27L29.994,5.295L29.903,5.321L29.811,5.347L29.721,5.375L29.63,5.404L29.541,5.434L29.451,5.465L29.363,5.497L29.274,5.53L29.187,5.565L29.099,5.6L29.013,5.636L28.927,5.673L28.841,5.712L28.756,5.751L28.671,5.791L28.587,5.833L28.504,5.875L28.421,5.918L28.339,5.962L28.257,6.008L28.176,6.054L28.096,6.101L28.016,6.149L27.937,6.198L27.858,6.248L27.78,6.299L27.703,6.35L27.627,6.403L27.551,6.457L27.475,6.511L27.401,6.566L27.327,6.623L27.254,6.68L27.181,6.737L27.109,6.796L27.038,6.856L26.968,6.916L26.898,6.978L26.829,7.04L26.761,7.103L26.694,7.166L26.627,7.231L26.562,7.296L26.497,7.362L26.432,7.429L26.369,7.496L26.306,7.565L26.244,7.634L26.184,7.704L26.123,7.774L26.064,7.845L26.006,7.917L25.948,7.99L25.891,8.064L25.835,8.138L25.78,8.212L25.726,8.288L25.673,8.364L25.621,8.441L25.569,8.518L25.519,8.596L25.469,8.675L25.42,8.754L25.373,8.834L25.326,8.914L25.28,8.996L25.235,9.077L25.191,9.16L25.148,9.242L25.107,9.326L25.066,9.41L25.026,9.494L24.987,9.58L24.949,9.665L24.912,9.751L24.876,9.838L24.841,9.925L24.807,10.013L24.775,10.101L24.743,10.19L24.712,10.279L24.683,10.369L24.654,10.459L24.627,10.55L24.6,10.641L24.575,10.733L24.551,10.825L24.528,10.917L24.506,11.01L24.485,11.103L24.466,11.197L24.447,11.291L24.43,11.386L24.414,11.481L24.399,11.576L24.385,11.672L24.372,11.768L24.361,11.865L24.35,11.962L24.341,12.059L24.333,12.157L24.327,12.255L24.321,12.353L24.317,12.452L24.314,12.551L24.312,12.651L24.312,12.75L24.313,12.85L24.315,12.95L24.318,13.049L24.323,13.147L24.328,13.246L24.335,13.344L24.344,13.442L24.353,13.539L24.364,13.636L24.376,13.732L24.389,13.828L24.403,13.924L24.418,14.019L24.435,14.114L24.452,14.209L24.471,14.303L24.491,14.396L24.512,14.489L24.535,14.582L24.558,14.674L24.582,14.766L24.608,14.858L24.635,14.949L24.662,15.039L24.691,15.129L24.721,15.219L24.752,15.308L24.784,15.396L24.817,15.484L24.851,15.572L24.886,15.659L24.922,15.745L24.96,15.831L24.998,15.916L25.037,16.001L25.077,16.085L25.118,16.169L25.161,16.252L25.204,16.335L25.248,16.417L25.293,16.498L25.339,16.579L25.386,16.659L25.434,16.739L25.483,16.818L25.532,16.896L25.583,16.974L25.635,17.051L25.687,17.127L25.741,17.203L25.795,17.278L25.85,17.352L25.906,17.426L25.963,17.499L26.021,17.571L26.079,17.643L26.139,17.714L26.199,17.784L26.26,17.853L26.322,17.922L26.385,17.99L26.448,18.057L26.512,18.123L26.578,18.189L26.643,18.254L26.71,18.318L26.777,18.381L26.846,18.444L26.914,18.505L26.984,18.566L27.054,18.626L27.125,18.685L27.197,18.743L27.27,18.801L27.343,18.857L27.417,18.913L27.491,18.968L27.566,19.022L27.642,19.075L27.719,19.127L27.796,19.179L27.874,19.229L27.952,19.278L28.031,19.327L28.111,19.374L28.191,19.421L28.272,19.467L28.354,19.511L28.436,19.555L28.518,19.598L28.602,19.64L28.685,19.681L28.77,19.72L28.854,19.759L28.94,19.797L29.026,19.834L29.112,19.87L29.199,19.904L29.287,19.938L29.375,19.971L29.463,20.002L29.552,20.033L29.642,20.063L29.732,20.091L29.822,20.118L29.913,20.145L30.004,20.17L30.096,20.194L30.188,20.217L30.281,20.239L30.374,20.259L30.467,20.279L30.561,20.297L30.656,20.315L30.75,20.331L30.845,20.346L30.941,20.36L31.037,20.372L31.133,20.384L31.23,20.394L31.327,20.403L31.424,20.411L31.522,20.417L31.62,20.423L31.719,20.427L31.817,20.43L31.917,20.432L32.016,20.432L32.116,20.431L32.215,20.429L32.314,20.426L32.412,20.421L32.51,20.416L32.608,20.409L32.705,20.4L32.802,20.391L32.899,20.38L32.995,20.369L33.091,20.356L33.186,20.341L33.281,20.326L33.376,20.31L33.47,20.292L33.564,20.273L33.657,20.253L33.75,20.232L33.842,20.21L33.935,20.187L34.026,20.162L34.117,20.137L34.208,20.11L34.298,20.083L34.388,20.054L34.477,20.024L34.566,19.993L34.654,19.961L34.742,19.928L34.829,19.894L34.916,19.859L35.002,19.823L35.088,19.786L35.173,19.748L35.257,19.709L35.341,19.669L35.425,19.628L35.508,19.586L35.59,19.543L35.672,19.499L35.753,19.454L35.833,19.408L35.913,19.361L35.993,19.313L36.071,19.265L36.15,19.215L36.227,19.165L36.304,19.113L36.38,19.061L36.455,19.008L36.53,18.953L36.604,18.898L36.678,18.843L36.751,18.786L36.823,18.728L36.894,18.67L36.965,18.611L37.035,18.551L37.104,18.49L37.172,18.428L37.24,18.365L37.307,18.302L37.373,18.238L37.439,18.173L37.503,18.107L37.567,18.041L37.63,17.974L37.693,17.906L37.754,17.837L37.815,17.768L37.874,17.698L37.933,17.627L37.992,17.555L38.049,17.483L38.105,17.41L38.161,17.336L38.215,17.262L38.269,17.187L38.322,17.111L38.374,17.035L38.425,16.958L38.476,16.881L38.525,16.802L38.573,16.724L38.621,16.644L38.667,16.564L38.713,16.483L38.757,16.402L38.801,16.32L38.844,16.238L38.885,16.155L38.926,16.071L38.966,15.987L39.004,15.903L39.042,15.818L39.079,15.732L39.114,15.646L39.149,15.559L39.183,15.472L39.215,15.384L39.247,15.296L39.277,15.207L39.307,15.118L39.335,15.028L39.362,14.938L39.389,14.848L39.414,14.757L39.438,14.665L39.46,14.573L39.482,14.481L39.503,14.388L39.522,14.295L39.541,14.201L39.558,14.107L39.574,14.013L39.589,13.918L39.603,13.823L39.615,13.727L39.627,13.631L39.637,13.534L39.646,13.438L39.654,13.341L39.661,13.243L39.666,13.145L39.67,13.047L39.673,12.949L39.675,12.85L39.675,12.75L39.674,12.651L39.672,12.552L39.669,12.454L39.665,12.356L39.659,12.258L39.652,12.16L39.644,12.063L39.634,11.967L39.624,11.87L39.612,11.774L39.599,11.679L39.585,11.584L39.569,11.489L39.553,11.395L39.535,11.301L39.517,11.207L39.497,11.114L39.476,11.022L39.454,10.929L39.431,10.838L39.406,10.746L39.381,10.656L39.354,10.565L39.327,10.475L39.298,10.386L39.268,10.297L39.238,10.208L39.206,10.12L39.173,10.033L39.139,9.946L39.104,9.859L39.068,9.773L39.031,9.688L38.993,9.603L38.954,9.519L38.914,9.435L38.873,9.352L38.832,9.269L38.789,9.187L38.745,9.106L38.7,9.025L38.654,8.944L38.607,8.865L38.56,8.786L38.511,8.707L38.462,8.629L38.411,8.552L38.36,8.475L38.308,8.399L38.255,8.324L38.201,8.25L38.146,8.176L38.09,8.102L38.034,8.03L37.976,7.958L37.918,7.887L37.859,7.816L37.799,7.747L37.738,7.678L37.677,7.609L37.615,7.542L37.551,7.475L37.487,7.409L37.423,7.344L37.357,7.279L37.291,7.216L37.224,7.153L37.156,7.091L37.088,7.029L37.019,6.969L36.949,6.909L36.878,6.851L36.807,6.793L36.735,6.735L36.662,6.679L36.588,6.624L36.514,6.569L36.44,6.516L36.364,6.463L36.288,6.411L36.211,6.36L36.134,6.31L36.056,6.261L35.977,6.213L35.898,6.165L35.818,6.119L35.738,6.074L35.657,6.029L35.575,5.986L35.493,5.943L35.411,5.901L35.327,5.861L35.243,5.821L35.159,5.783L35.074,5.745L34.989,5.709L34.903,5.673L34.816,5.638L34.729,5.605L34.642,5.572L34.554,5.541L34.466,5.511L34.377,5.481L34.287,5.453L34.197,5.426L34.107,5.4L34.016,5.375L33.925,5.351L33.833,5.328L33.741,5.306L33.649,5.286L33.556,5.266L33.462,5.248L33.369,5.231L33.275,5.215L33.18,5.2L33.085,5.186L32.99,5.173L32.894,5.162L32.798,5.152L32.701,5.143L32.605,5.135L32.507,5.128L32.41,5.123L32.312,5.119L32.214,5.116L32.115,5.114L32.008,5.114L32.009,5.024L31.916,5.024Z" style="fill:#a8e2b3;"/>
            </g>
        </g>
        <path d="M10,29.647L35,16.366" style="fill:none;stroke:#9298a6;stroke-width:2px;"/>
        <path d="M54,60.647C54.796,60.647 55.559,60.331 56.121,59.768C56.684,59.206 57,58.442 57,57.647C57,51.201 57,36.093 57,29.647C57,28.851 56.684,28.088 56.121,27.525C55.559,26.963 54.796,26.647 54,26.647C45.098,26.647 18.902,26.647 10,26.647C9.204,26.647 8.441,26.963 7.879,27.525C7.316,28.088 7,28.851 7,29.647C7,36.093 7,51.201 7,57.647C7,58.442 7.316,59.206 7.879,59.768C8.441,60.331 9.204,60.647 10,60.647C18.902,60.647 45.098,60.647 54,60.647Z" style="fill:#c7ccd1;"/>
        <clipPath id="_clip3">
            <path d="M54,60.647C54.796,60.647 55.559,60.331 56.121,59.768C56.684,59.206 57,58.442 57,57.647C57,51.201 57,36.093 57,29.647C57,28.851 56.684,28.088 56.121,27.525C55.559,26.963 54.796,26.647 54,26.647C45.098,26.647 18.902,26.647 10,26.647C9.204,26.647 8.441,26.963 7.879,27.525C7.316,28.088 7,28.851 7,29.647C7,36.093 7,51.201 7,57.647C7,58.442 7.316,59.206 7.879,59.768C8.441,60.331 9.204,60.647 10,60.647C18.902,60.647 45.098,60.647 54,60.647Z"/>
        </clipPath>
        <g clip-path="url(#_clip3)">
            <path d="M60,28.436L4,60.647L4,67.805L60,67.805L60,28.436Z" style="fill:#afb4c4;"/>
        </g>
        <circle cx="42" cy="43.647" r="10" style="fill:#3bbc53;"/>
        <clipPath id="_clip4">
            <circle cx="42" cy="43.647" r="10"/>
        </clipPath>
        <g clip-path="url(#_clip4)">
            <path d="M60,28.436L4,60.647L4,67.805L60,67.805L60,28.436Z" style="fill:#2a843a;fill-opacity:0.643137;"/>
        </g>
        <rect x="10.741" y="36.187" width="17.259" height="2.998" style="fill:#329f46;"/>
        <rect x="10.741" y="42.256" width="17.259" height="2.998" style="fill:#329f46;"/>
        <rect x="10.741" y="48.108" width="17.259" height="2.998" style="fill:#329f46;"/>
    </g>
</svg>
