<?xml version="1.0" encoding="UTF-8" standalone="no"?>
<!DOCTYPE svg PUBLIC "-//W3C//DTD SVG 1.1//EN" "http://www.w3.org/Graphics/SVG/1.1/DTD/svg11.dtd">
<svg width="100%" height="100%" viewBox="0 0 65 65" version="1.1" xmlns="http://www.w3.org/2000/svg" xmlns:xlink="http://www.w3.org/1999/xlink" xml:space="preserve" xmlns:serif="http://www.serif.com/" style="fill-rule:evenodd;clip-rule:evenodd;stroke-linecap:round;stroke-linejoin:round;stroke-miterlimit:1;">
    <rect id="Salt-bowl" x="0.247" y="0.82" width="64" height="64" style="fill:none;"/>
    <ellipse cx="36.586" cy="53.308" rx="22.3" ry="6.007" style="fill:#f2f2fa;"/>
    <ellipse cx="33.562" cy="53.308" rx="16.643" ry="4.985" style="fill:#d8d8f0;"/>
    <path d="M60.198,31.062C60.198,45.85 47.673,57.856 32.247,57.856C16.821,57.856 4.297,45.85 4.297,31.062L60.198,31.062Z" style="fill:#d25950;"/>
    <clipPath id="_clip1">
        <path d="M60.198,31.062C60.198,45.85 47.673,57.856 32.247,57.856C16.821,57.856 4.297,45.85 4.297,31.062L60.198,31.062Z"/>
    </clipPath>
    <g clip-path="url(#_clip1)">
        <path d="M54.204,23.262C54.204,38.05 41.68,50.056 26.254,50.056C10.828,50.056 -1.697,38.05 -1.697,23.262L54.204,23.262Z" style="fill:#f1765a;"/>
        <path d="M60.198,36.659C60.198,40.964 47.673,44.459 32.247,44.459C16.821,44.459 4.297,40.964 4.297,36.659" style="fill:none;stroke:#4f59c9;stroke-opacity:0.75;stroke-width:1.26px;"/>
    </g>
    <ellipse cx="32.247" cy="31.062" rx="27.95" ry="7.311" style="fill:#f1b1af;"/>
    <clipPath id="_clip2">
        <ellipse cx="32.247" cy="31.062" rx="27.95" ry="7.311"/>
    </clipPath>
    <g clip-path="url(#_clip2)">
        <ellipse cx="40.995" cy="29.85" rx="27.95" ry="7.311" style="fill:#ee8b74;"/>
    </g>
    <path d="M32.247,15.246C36.245,15.246 55.692,25.967 55.692,29.674C55.692,33.38 45.187,36.389 32.247,36.389C19.308,36.389 8.802,33.38 8.802,29.674C8.802,25.967 28.25,15.246 32.247,15.246Z" style="fill:#f9f9fb;"/>
    <clipPath id="_clip3">
        <path d="M32.247,15.246C36.245,15.246 55.692,25.967 55.692,29.674C55.692,33.38 45.187,36.389 32.247,36.389C19.308,36.389 8.802,33.38 8.802,29.674C8.802,25.967 28.25,15.246 32.247,15.246Z"/>
    </clipPath>
    <g clip-path="url(#_clip3)">
        <path d="M21.54,39.619C21.54,39.619 42.677,32.098 35.268,14.59L62.546,22.645L59.795,42.699L21.54,39.619Z" style="fill:#d2d4ea;"/>
    </g>
    <g>
        <path d="M18.984,21.651C19.008,20.296 18.489,18.988 17.542,18.018C13.716,14.097 4.796,4.962 4.796,4.962C3.333,3.274 4.993,2.513 5.518,2.574C6.478,2.684 7.635,4.315 7.945,4.609L21.267,18.252C22.837,18.588 25.004,20.588 26.975,22.608C29.961,25.665 32.951,29.149 30.244,30.355C28.084,31.317 22.8,30.134 20.471,26.552C19.303,24.756 18.965,23.028 18.984,21.651Z" style="fill:#898cc2;"/>
        <path d="M20.135,21.043C19.615,19.562 18.777,18.214 17.681,17.091C13.623,12.929 5.326,4.432 5.326,4.432C3.687,2.641 5.275,2.499 5.762,2.597C6.653,2.775 7.884,4.06 8.192,4.356C8.192,4.356 18.545,14.958 21.095,17.57C21.49,17.974 21.992,18.259 22.542,18.392C24.058,18.852 25.984,20.146 27.771,21.976C30.757,25.034 32.235,28.44 31.07,29.577C29.906,30.714 26.536,29.155 23.551,26.097C21.86,24.366 20.653,22.522 20.135,21.043Z" style="fill:#e0e0eb;"/>
    </g>
    <path d="M24.306,30.886C24.306,30.886 26.341,23.868 31.12,23.484C35.899,23.101 32.282,32.189 32.282,32.189L24.306,30.886Z" style="fill:#f9f9fb;"/>
    <path d="M23.849,23.944C23.849,23.944 25.274,26.638 27.828,27.831L30.059,25.817C30.059,25.817 29.413,25.545 23.849,23.944Z" style="fill:#f9f9fb;"/>
    <g>
        <circle cx="35.62" cy="27.894" r="0.965" style="fill:#f9f9fb;"/>
        <circle cx="38.47" cy="25.019" r="0.965" style="fill:#f9f9fb;"/>
        <circle cx="37.505" cy="20.583" r="0.965" style="fill:#f9f9fb;"/>
        <circle cx="36.539" cy="18.38" r="0.965" style="fill:#f9f9fb;"/>
        <circle cx="36.586" cy="25.019" r="0.965" style="fill:#f9f9fb;"/>
        <circle cx="36.539" cy="22.513" r="0.965" style="fill:#f9f9fb;"/>
        <circle cx="39.435" cy="28.859" r="0.965" style="fill:#f9f9fb;"/>
        <circle cx="33.638" cy="30.402" r="0.965" style="fill:#f9f9fb;"/>
        <circle cx="30.801" cy="31.318" r="0.6" style="fill:#d6d7e6;"/>
        <circle cx="25.67" cy="31.318" r="0.6" style="fill:#d6d7e6;"/>
        <circle cx="33.69" cy="26.783" r="0.965" style="fill:#d6d7e6;"/>
        <circle cx="34.629" cy="33.381" r="0.965" style="fill:#f9f9fb;"/>
        <circle cx="29.836" cy="20.311" r="0.965" style="fill:#fff;"/>
        <circle cx="32.039" cy="17.415" r="0.965" style="fill:#fff;"/>
        <circle cx="26.333" cy="18.651" r="0.965" style="fill:#fff;"/>
        <circle cx="30.763" cy="23.517" r="0.965" style="fill:#fff;"/>
        <circle cx="29.836" cy="35.024" r="0.965" style="fill:#f9f9fb;"/>
        <circle cx="31.074" cy="33.439" r="0.619" style="fill:#f9f9fb;"/>
    </g>
    <path d="M22.515,20.262L22.519,20.263L22.586,20.264L22.59,20.265L22.617,20.266L22.661,20.269L22.665,20.27L22.738,20.275L22.743,20.276L22.819,20.282L22.824,20.283L22.903,20.292L22.908,20.293L22.991,20.302L22.996,20.304L23.082,20.315L23.087,20.316L23.176,20.329L23.181,20.331L23.273,20.346L23.278,20.348L23.373,20.364L23.378,20.366L23.476,20.385L23.482,20.387L23.576,20.407L23.583,20.408L23.589,20.41L23.692,20.436L23.697,20.438L23.803,20.466L23.809,20.469L23.918,20.499L23.924,20.502L24.035,20.535L24.042,20.538L24.081,20.55L24.155,20.575L24.162,20.578L24.277,20.619L24.284,20.622L24.402,20.666L24.409,20.669L24.53,20.716L24.537,20.72L24.573,20.734L24.659,20.772L24.666,20.776L24.79,20.833L24.797,20.836L24.923,20.897L24.93,20.901L25.032,20.951L25.059,20.965L25.066,20.969L25.194,21.042L25.201,21.046L25.331,21.122L25.338,21.126L25.451,21.194L25.47,21.207L25.477,21.211L25.607,21.303L25.613,21.307L25.745,21.403L25.751,21.407L25.868,21.495L25.884,21.508L25.89,21.512L26.021,21.622L26.027,21.627L26.159,21.742L26.165,21.746L26.298,21.865L26.304,21.87L26.314,21.879L26.436,21.997L26.441,22.001L26.574,22.134L26.579,22.138L26.714,22.276L26.718,22.28L26.745,22.308L26.852,22.425L26.856,22.428L26.99,22.579L26.994,22.583L27.13,22.738L27.133,22.742L27.138,22.748L27.267,22.905L27.27,22.908L27.404,23.078L27.407,23.08L27.542,23.255L27.545,23.258L27.681,23.438L27.683,23.44L27.729,23.503L27.818,23.628L27.82,23.63L27.954,23.824L27.973,24.096L27.703,24.063L27.515,23.919L27.517,23.921L27.395,23.829L27.333,23.781L27.335,23.784L27.155,23.648L27.157,23.65L26.979,23.52L26.982,23.523L26.806,23.397L26.809,23.4L26.642,23.284L26.635,23.28L26.639,23.283L26.47,23.165L26.474,23.168L26.307,23.055L26.311,23.058L26.179,22.971L26.147,22.949L26.152,22.953L25.992,22.846L25.996,22.85L25.838,22.748L25.844,22.752L25.7,22.662L25.688,22.654L25.694,22.658L25.543,22.561L25.549,22.565L25.401,22.472L25.407,22.476L25.26,22.388L25.267,22.392L25.249,22.382L25.126,22.302L25.133,22.307L24.995,22.22L25.002,22.225L24.866,22.142L24.873,22.146L24.853,22.134L24.744,22.061L24.751,22.066L24.624,21.983L24.631,21.987L24.506,21.909L24.513,21.913L24.487,21.897L24.393,21.835L24.4,21.839L24.282,21.763L24.289,21.767L24.173,21.695L24.18,21.698L24.099,21.649L24.066,21.629L24.073,21.632L23.963,21.564L23.969,21.567L23.861,21.502L23.868,21.505L23.762,21.444L23.768,21.447L23.7,21.408L23.664,21.388L23.671,21.39L23.57,21.333L23.576,21.335L23.477,21.281L23.483,21.284L23.387,21.232L23.393,21.235L23.298,21.186L23.304,21.189L23.297,21.185L23.213,21.141L23.218,21.143L23.129,21.098L23.135,21.1L23.048,21.058L23.053,21.06L22.969,21.021L22.974,21.022L22.892,20.985L22.897,20.987L22.817,20.953L22.822,20.954L22.745,20.922L22.75,20.923L22.675,20.894L22.68,20.895L22.608,20.868L22.612,20.869L22.543,20.844L22.547,20.844L22.505,20.83L22.48,20.821L22.484,20.822L22.421,20.8L22.425,20.8L22.364,20.78L22.368,20.78L22.31,20.762L22.313,20.763L22.258,20.746L22.262,20.746L22.209,20.731L22.213,20.732L22.163,20.719L22.168,20.719L22.079,20.697L22.085,20.697L22.008,20.68L22.014,20.68L21.95,20.668L21.955,20.668L21.905,20.66L21.909,20.66L21.873,20.655L21.878,20.655L21.876,20.654L21.849,20.651L21.667,20.486L21.833,20.305L21.859,20.299L21.862,20.299L21.867,20.298L21.903,20.292L21.908,20.292L21.958,20.285L21.963,20.285L22.028,20.277L22.033,20.277L22.111,20.27L22.117,20.27L22.209,20.264L22.213,20.265L22.264,20.262L22.268,20.263L22.322,20.261L22.325,20.261L22.383,20.26L22.386,20.261L22.447,20.261L22.451,20.261L22.515,20.262Z" style="fill:#acaed2;"/>
</svg>
