<?xml version="1.0" encoding="UTF-8" standalone="no"?><!DOCTYPE svg PUBLIC "-//W3C//DTD SVG 1.1//EN" "http://www.w3.org/Graphics/SVG/1.1/DTD/svg11.dtd"><svg width="103px" height="29px" version="1.1" xmlns="http://www.w3.org/2000/svg" xmlns:xlink="http://www.w3.org/1999/xlink" xml:space="preserve" xmlns:serif="http://www.serif.com/" style="fill-rule:evenodd;clip-rule:evenodd;stroke-linejoin:round;stroke-miterlimit:2;"><rect id="Salt-spoon-red" x="0" y="0.666" width="102.485" height="28.113" style="fill:none;"/><g><path d="M2.263,5.605c-1.785,2.201 0.156,4.117 2.957,4.68c8.44,1.694 32.012,-2.724 43.816,0.836c13.89,4.19 15.048,7.537 26.603,13.486c6.508,3.35 22.236,3.076 25.212,-2.528c1.375,-2.589 -21.677,-1.029 -29.24,-3.544c-5.51,-1.833 -13.182,-9.12 -36.552,-11.914c-15.088,-1.803 -31.126,-3.076 -32.796,-1.016Z" style="fill:#f1765a;"/><clipPath id="_clip1"><path d="M2.263,5.605c-1.785,2.201 0.156,4.117 2.957,4.68c8.44,1.694 32.012,-2.724 43.816,0.836c13.89,4.19 15.048,7.537 26.603,13.486c6.508,3.35 22.236,3.076 25.212,-2.528c1.375,-2.589 -21.677,-1.029 -29.24,-3.544c-5.51,-1.833 -13.182,-9.12 -36.552,-11.914c-15.088,-1.803 -31.126,-3.076 -32.796,-1.016Z"/></clipPath><g clip-path="url(#_clip1)"><path d="M-4.074,-0.521c0,0 6.722,8.539 20.874,8.38c10.197,-0.114 16.559,-0.818 30.688,1.718c7.119,1.277 11.364,3.872 18.699,7.763c6.666,3.537 18.854,-4.22 19.139,-7.488c0.285,-3.267 -89.4,-10.373 -89.4,-10.373Z" style="fill:#f19586;"/><path d="M60.742,16.138c0,0 13.995,9.608 28.403,8.415c15.766,-1.305 18.355,-5.024 18.355,-5.024l-2.329,11.874l-43.369,1.94l-1.06,-17.205Z" style="fill:#b6654c;"/><path d="M1.379,5.567c0,0 3.248,3.587 19.221,3.168c3.176,-0.084 23.304,-1.675 36.979,5.402l-59.048,-2.69l2.848,-5.88Z" style="fill:#b6654c;"/></g><g><path d="M86.961,15.993c4.853,0.03 12.559,2.986 12.512,4.919c-0.048,1.933 -8.625,3.044 -15.518,2.842c-6.894,-0.202 -9.509,-1.641 -9.462,-3.574c0.047,-1.934 7.269,-4.219 12.468,-4.187Z" style="fill:#f9f9fb;"/><clipPath id="_clip2"><path d="M86.961,15.993c4.853,0.03 12.559,2.986 12.512,4.919c-0.048,1.933 -8.625,3.044 -15.518,2.842c-6.894,-0.202 -9.509,-1.641 -9.462,-3.574c0.047,-1.934 7.269,-4.219 12.468,-4.187Z"/></clipPath><g clip-path="url(#_clip2)"><path d="M81.152,25.567c0,0 11.356,-3.594 7.631,-12.843l14.43,4.629l-1.72,10.418l-20.341,-2.204Z" style="fill:#d2d4ea;"/></g><g><path d="M88.717,19.362c0.281,0.041 0.477,0.297 0.438,0.572c-0.04,0.275 -0.3,0.465 -0.581,0.425c-0.281,-0.04 -0.478,-0.296 -0.438,-0.571c0.039,-0.276 0.3,-0.466 0.581,-0.426Z" style="fill:#f9f9fb;"/><path d="M90.434,18.094c0.281,0.04 0.477,0.296 0.438,0.571c-0.04,0.275 -0.3,0.466 -0.581,0.426c-0.282,-0.041 -0.478,-0.297 -0.438,-0.572c0.039,-0.275 0.3,-0.466 0.581,-0.425Z" style="fill:#f9f9fb;"/><path d="M91.687,18.75c0.282,0.04 0.478,0.296 0.438,0.571c-0.039,0.275 -0.3,0.466 -0.581,0.426c-0.281,-0.041 -0.477,-0.297 -0.438,-0.572c0.04,-0.275 0.3,-0.466 0.581,-0.425Z" style="fill:#f9f9fb;"/><path d="M85.907,18.753c0.281,0.04 0.477,0.296 0.437,0.571c-0.039,0.275 -0.299,0.466 -0.581,0.426c-0.281,-0.041 -0.477,-0.297 -0.437,-0.572c0.039,-0.275 0.299,-0.466 0.581,-0.425Z" style="fill:#f9f9fb;"/><path d="M89.439,17.951c0.281,0.04 0.478,0.296 0.438,0.572c-0.039,0.275 -0.3,0.465 -0.581,0.425c-0.281,-0.041 -0.477,-0.297 -0.438,-0.572c0.04,-0.275 0.3,-0.465 0.581,-0.425Z" style="fill:#f9f9fb;"/><path d="M89.601,16.653c0.281,0.041 0.477,0.297 0.438,0.572c-0.04,0.275 -0.3,0.466 -0.581,0.425c-0.282,-0.04 -0.478,-0.296 -0.438,-0.571c0.039,-0.275 0.3,-0.466 0.581,-0.426Z" style="fill:#f9f9fb;"/><path d="M90.659,20.15c0.281,0.04 0.477,0.296 0.437,0.571c-0.039,0.275 -0.299,0.466 -0.581,0.426c-0.281,-0.041 -0.477,-0.297 -0.437,-0.572c0.039,-0.275 0.299,-0.466 0.581,-0.425Z" style="fill:#f9f9fb;"/><path d="M87.485,20.507c0.281,0.041 0.477,0.297 0.438,0.572c-0.04,0.275 -0.3,0.466 -0.581,0.425c-0.281,-0.04 -0.478,-0.296 -0.438,-0.571c0.039,-0.275 0.3,-0.466 0.581,-0.426Z" style="fill:#f9f9fb;"/><path d="M85.893,20.954c0.174,0.025 0.296,0.184 0.272,0.355c-0.025,0.171 -0.187,0.29 -0.361,0.265c-0.175,-0.025 -0.297,-0.185 -0.272,-0.355c0.024,-0.171 0.186,-0.29 0.361,-0.265Z" style="fill:#d6d7e6;"/><path d="M83.185,20.566c0.175,0.025 0.297,0.184 0.272,0.355c-0.024,0.171 -0.186,0.289 -0.361,0.264c-0.174,-0.025 -0.296,-0.184 -0.272,-0.355c0.025,-0.171 0.187,-0.289 0.361,-0.264Z" style="fill:#d6d7e6;"/><path d="M87.78,18.642c0.282,0.041 0.478,0.297 0.438,0.572c-0.039,0.275 -0.3,0.466 -0.581,0.425c-0.281,-0.04 -0.477,-0.296 -0.438,-0.571c0.04,-0.275 0.3,-0.466 0.581,-0.426Z" style="fill:#d6d7e6;"/><path d="M87.787,22.121c0.281,0.04 0.477,0.296 0.438,0.571c-0.04,0.276 -0.3,0.466 -0.581,0.426c-0.281,-0.041 -0.477,-0.297 -0.438,-0.572c0.04,-0.275 0.3,-0.465 0.581,-0.425Z" style="fill:#f9f9fb;"/><path d="M84.501,17.742c0.281,0.04 0.477,0.296 0.438,0.572c-0.04,0.275 -0.3,0.465 -0.581,0.425c-0.281,-0.041 -0.477,-0.297 -0.438,-0.572c0.04,-0.275 0.3,-0.465 0.581,-0.425Z" style="fill:#fff;"/><path d="M80.661,17.745c0.281,0.04 0.477,0.297 0.438,0.572c-0.04,0.275 -0.3,0.465 -0.581,0.425c-0.281,-0.04 -0.478,-0.297 -0.438,-0.572c0.039,-0.275 0.3,-0.465 0.581,-0.425Z" style="fill:#fff;"/><path d="M82.378,16.737c0.282,0.041 0.478,0.297 0.438,0.572c-0.039,0.275 -0.3,0.466 -0.581,0.425c-0.281,-0.04 -0.477,-0.296 -0.438,-0.571c0.04,-0.275 0.3,-0.466 0.581,-0.426Z" style="fill:#fff;"/><path d="M86.478,16.734c0.281,0.041 0.477,0.297 0.438,0.572c-0.04,0.275 -0.3,0.466 -0.581,0.425c-0.281,-0.04 -0.477,-0.296 -0.438,-0.571c0.04,-0.275 0.3,-0.466 0.581,-0.426Z" style="fill:#fff;"/><path d="M85.136,22.606c0.281,0.04 0.477,0.296 0.438,0.571c-0.04,0.276 -0.3,0.466 -0.581,0.426c-0.281,-0.041 -0.478,-0.297 -0.438,-0.572c0.039,-0.275 0.3,-0.465 0.581,-0.425Z" style="fill:#f9f9fb;"/><path d="M85.881,22.06c0.18,0.026 0.306,0.19 0.281,0.367c-0.026,0.176 -0.193,0.299 -0.373,0.273c-0.18,-0.026 -0.306,-0.191 -0.281,-0.367c0.026,-0.176 0.193,-0.299 0.373,-0.273Z" style="fill:#f9f9fb;"/></g></g></g></svg>