<?xml version="1.0" encoding="UTF-8" standalone="no"?>
<!DOCTYPE svg PUBLIC "-//W3C//DTD SVG 1.1//EN" "http://www.w3.org/Graphics/SVG/1.1/DTD/svg11.dtd">
<svg width="100%" height="100%" viewBox="0 0 65 64" version="1.1" xmlns="http://www.w3.org/2000/svg" xmlns:xlink="http://www.w3.org/1999/xlink" xml:space="preserve" xmlns:serif="http://www.serif.com/" style="fill-rule:evenodd;clip-rule:evenodd;stroke-linejoin:round;stroke-miterlimit:2;">
    <rect id="Smartphone-simpleapp" x="0.738" y="0" width="64" height="64" style="fill:none;"/>
    <path d="M14.527,35.558C13.464,35.482 12.415,35.831 11.61,36.528C10.804,37.225 10.309,38.214 10.233,39.276C10.228,39.338 10.224,39.399 10.22,39.461C10.143,40.523 10.492,41.572 11.189,42.377C11.887,43.183 12.875,43.678 13.938,43.754C20.428,44.221 32.523,45.09 32.523,45.09L33.112,36.894C33.112,36.894 21.017,36.025 14.527,35.558Z" style="fill:#c06564;"/>
    <clipPath id="_clip1">
        <path d="M14.527,35.558C13.464,35.482 12.415,35.831 11.61,36.528C10.804,37.225 10.309,38.214 10.233,39.276C10.228,39.338 10.224,39.399 10.22,39.461C10.143,40.523 10.492,41.572 11.189,42.377C11.887,43.183 12.875,43.678 13.938,43.754C20.428,44.221 32.523,45.09 32.523,45.09L33.112,36.894C33.112,36.894 21.017,36.025 14.527,35.558Z"/>
    </clipPath>
    <g clip-path="url(#_clip1)">
        <path d="M12.237,35.47C14.434,35.63 16.093,37.529 15.955,39.727C15.951,39.788 15.947,39.85 15.944,39.911C15.877,40.981 15.385,41.98 14.577,42.685C13.77,43.39 12.714,43.743 11.645,43.666C11.442,43.651 11.241,43.636 11.043,43.622C9.487,43.509 8.312,42.164 8.41,40.607C8.461,39.792 8.517,38.902 8.568,38.085C8.615,37.327 8.964,36.619 9.536,36.12C10.108,35.62 10.855,35.37 11.613,35.425C11.818,35.44 12.027,35.455 12.237,35.47Z" style="fill:#f3775b;"/>
    </g>
    <path d="M12.927,25.614C11.872,25.464 10.801,25.739 9.95,26.378C9.098,27.018 8.535,27.97 8.385,29.025C8.377,29.085 8.368,29.146 8.359,29.207C8.209,30.262 8.484,31.333 9.124,32.185C9.764,33.036 10.716,33.599 11.77,33.749C17.668,34.588 28.046,36.063 28.046,36.063L29.203,27.928C29.203,27.928 18.825,26.452 12.927,25.614Z" style="fill:#c06564;"/>
    <clipPath id="_clip2">
        <path d="M12.927,25.614C11.872,25.464 10.801,25.739 9.95,26.378C9.098,27.018 8.535,27.97 8.385,29.025C8.377,29.085 8.368,29.146 8.359,29.207C8.209,30.262 8.484,31.333 9.124,32.185C9.764,33.036 10.716,33.599 11.77,33.749C17.668,34.588 28.046,36.063 28.046,36.063L29.203,27.928C29.203,27.928 18.825,26.452 12.927,25.614Z"/>
    </clipPath>
    <g clip-path="url(#_clip2)">
        <path d="M11.482,25.347C13.663,25.657 15.187,27.666 14.898,29.85C14.89,29.91 14.882,29.971 14.874,30.032C14.734,31.095 14.174,32.057 13.32,32.705C12.466,33.353 11.388,33.633 10.327,33.482C10.126,33.453 9.926,33.425 9.73,33.397C8.185,33.177 7.106,31.754 7.31,30.207C7.417,29.398 7.534,28.514 7.642,27.702C7.741,26.949 8.138,26.267 8.743,25.809C9.348,25.35 10.111,25.152 10.863,25.259C11.066,25.288 11.274,25.317 11.482,25.347Z" style="fill:#f3775b;"/>
    </g>
    <path d="M36.26,12.088C36.26,12.088 47.783,27.606 53.73,35.614C55.977,38.641 57.18,42.315 57.157,46.084C57.121,51.962 57.072,60.189 57.072,60.189L35.817,60.143L36.26,12.088Z" style="fill:#f3775b;"/>
    <clipPath id="_clip3">
        <path d="M36.26,12.088C36.26,12.088 47.783,27.606 53.73,35.614C55.977,38.641 57.18,42.315 57.157,46.084C57.121,51.962 57.072,60.189 57.072,60.189L35.817,60.143L36.26,12.088Z"/>
    </clipPath>
    <g clip-path="url(#_clip3)">
        <path d="M47.207,23.001L50.909,24.543C50.222,28.452 50.016,33.12 50.759,39.289C55.604,42.264 54.875,50.822 54.942,52.069L45.671,44.272L47.207,23.001Z" style="fill:#c06564;"/>
    </g>
    <rect x="18.159" y="8.628" width="29.032" height="47.375" style="fill:#fff;"/>
    <clipPath id="_clip4">
        <rect x="18.159" y="8.628" width="29.032" height="47.375"/>
    </clipPath>
    <g clip-path="url(#_clip4)">
        <path d="M33.782,46.904C33.319,47.059 32.95,47.416 32.78,47.874C32.61,48.332 32.656,48.843 32.906,49.263C33.549,50.404 34.591,51.65 35.976,51.811C39.707,52.247 41.1,50.001 41.1,50.001L44.899,51.692C44.899,51.692 44.44,59.449 46.772,62.015L54.244,62.025L54.13,50.718C54.13,50.718 52.676,48.471 51.558,46.744C50.739,45.479 49.514,44.533 48.084,44.06C46.512,43.541 44.409,42.847 42.831,42.325C41.538,41.899 40.116,42.251 39.172,43.23C37.99,44.439 36.123,46.018 33.782,46.904Z" style="fill:#cfd0e2;"/>
    </g>
    <path d="M17.476,5.414C18.304,4.475 19.491,3.848 20.802,3.799C28.487,3.703 36.174,3.703 43.859,3.799C46.221,3.887 48.288,5.893 48.378,8.319C48.5,18.111 48.471,27.905 48.432,37.699C48.408,43.664 48.38,49.63 48.38,55.595C48.35,58.002 46.323,60.138 43.859,60.23C36.212,60.325 28.564,60.232 20.917,60.232C18.51,60.202 16.374,58.175 16.282,55.71C16.087,39.953 16.281,24.193 16.281,8.434C16.294,7.342 16.719,6.306 17.408,5.491L17.408,5.414L17.476,5.414ZM46.436,11.471C46.428,10.751 45.843,10.172 45.124,10.172C40.413,10.172 24.248,10.172 19.537,10.172C18.818,10.172 18.232,10.751 18.225,11.471C18.078,25.237 18.079,39.006 18.227,52.772C18.235,53.491 18.82,54.07 19.539,54.07C24.25,54.07 40.411,54.07 45.121,54.07C45.841,54.07 46.426,53.491 46.434,52.772C46.582,39.006 46.583,25.237 46.436,11.471Z" style="fill:#636693;fill-rule:nonzero;"/>
    <clipPath id="_clip5">
        <path d="M17.476,5.414C18.304,4.475 19.491,3.848 20.802,3.799C28.487,3.703 36.174,3.703 43.859,3.799C46.221,3.887 48.288,5.893 48.378,8.319C48.5,18.111 48.471,27.905 48.432,37.699C48.408,43.664 48.38,49.63 48.38,55.595C48.35,58.002 46.323,60.138 43.859,60.23C36.212,60.325 28.564,60.232 20.917,60.232C18.51,60.202 16.374,58.175 16.282,55.71C16.087,39.953 16.281,24.193 16.281,8.434C16.294,7.342 16.719,6.306 17.408,5.491L17.408,5.414L17.476,5.414ZM46.436,11.471C46.428,10.751 45.843,10.172 45.124,10.172C40.413,10.172 24.248,10.172 19.537,10.172C18.818,10.172 18.232,10.751 18.225,11.471C18.078,25.237 18.079,39.006 18.227,52.772C18.235,53.491 18.82,54.07 19.539,54.07C24.25,54.07 40.411,54.07 45.121,54.07C45.841,54.07 46.426,53.491 46.434,52.772C46.582,39.006 46.583,25.237 46.436,11.471Z" clip-rule="nonzero"/>
    </clipPath>
    <g clip-path="url(#_clip5)">
        <path d="M53.928,0.01L11.995,41.247L12.287,67.171L53.928,67.171L53.928,0.01Z" style="fill:#2b307e;"/>
    </g>
    <circle cx="31.925" cy="7.345" r="1.286" style="fill:#fff;fill-opacity:0.25;"/>
    <circle cx="31.925" cy="6.913" r="1.286" style="fill:#1c2053;"/>
    <path d="M33.477,45.04C32.971,45.188 32.568,45.573 32.398,46.072C32.227,46.572 32.31,47.123 32.62,47.55C33.382,48.642 34.553,49.775 36.085,49.929C40.425,50.364 42.045,48.119 42.045,48.119L47.477,51.793C47.477,51.793 45.93,57.567 48.642,60.132L56.449,59.122L56.403,56.548L56.271,49.227C56.271,49.227 55.072,47.083 54.071,45.292C53.217,43.765 51.793,42.639 50.11,42.161C48.084,41.586 45.325,40.803 43.471,40.276C42.287,39.94 41.013,40.243 40.107,41.076C38.75,42.317 36.436,44.09 33.477,45.04Z" style="fill:#f3775b;"/>
    <clipPath id="_clip6">
        <path d="M33.477,45.04C32.971,45.188 32.568,45.573 32.398,46.072C32.227,46.572 32.31,47.123 32.62,47.55C33.382,48.642 34.553,49.775 36.085,49.929C40.425,50.364 42.045,48.119 42.045,48.119L47.477,51.793C47.477,51.793 45.93,57.567 48.642,60.132L56.449,59.122L56.403,56.548L56.271,49.227C56.271,49.227 55.072,47.083 54.071,45.292C53.217,43.765 51.793,42.639 50.11,42.161C48.084,41.586 45.325,40.803 43.471,40.276C42.287,39.94 41.013,40.243 40.107,41.076C38.75,42.317 36.436,44.09 33.477,45.04Z"/>
    </clipPath>
    <g clip-path="url(#_clip6)">
        <path d="M32.706,45.194C32.706,45.194 34.912,44.829 36.441,43.187C37.59,43.095 38.496,43.507 39.227,44.28C39.227,44.28 36.937,47.807 32.706,45.194Z" style="fill:#f7a390;"/>
    </g>
    <path d="M14.51,45.475C16.713,45.505 18.48,47.304 18.471,49.507C18.471,49.568 18.471,49.63 18.47,49.691C18.466,50.763 18.033,51.789 17.268,52.54C16.504,53.291 15.47,53.706 14.398,53.691C14.195,53.688 13.994,53.685 13.795,53.682C12.235,53.661 10.984,52.387 10.99,50.826C10.993,50.01 10.997,49.119 11,48.299C11.003,47.54 11.31,46.813 11.852,46.281C12.393,45.749 13.125,45.456 13.884,45.466C14.09,45.469 14.3,45.472 14.51,45.475Z" style="fill:#f3775b;"/>
    <clipPath id="_clip7">
        <path d="M14.51,45.475C16.713,45.505 18.48,47.304 18.471,49.507C18.471,49.568 18.471,49.63 18.47,49.691C18.466,50.763 18.033,51.789 17.268,52.54C16.504,53.291 15.47,53.706 14.398,53.691C14.195,53.688 13.994,53.685 13.795,53.682C12.235,53.661 10.984,52.387 10.99,50.826C10.993,50.01 10.997,49.119 11,48.299C11.003,47.54 11.31,46.813 11.852,46.281C12.393,45.749 13.125,45.456 13.884,45.466C14.09,45.469 14.3,45.472 14.51,45.475Z"/>
    </clipPath>
    <g clip-path="url(#_clip7)">
        <path d="M19.317,47.28L15.002,47.28C13.671,47.28 12.592,48.359 12.592,49.69C12.592,49.692 12.592,49.693 12.592,49.694C12.592,51.025 13.671,52.104 15.002,52.104C16.932,52.104 19.317,52.104 19.317,52.104L19.317,47.28Z" style="fill:#f7a390;"/>
    </g>
    <clipPath id="_clip8">
        <rect x="19.908" y="13.088" width="25.082" height="25.082"/>
    </clipPath>
    <g clip-path="url(#_clip8)">
        <g id="icon">
            <rect id="bounds" x="5.732" y="-1.088" width="53.435" height="53.435" style="fill:none;"/>
            <path id="Oval" d="M32.586,37.898C37.479,37.898 41.446,33.903 41.446,28.975C41.446,24.203 38.492,18.998 32.586,13.361C26.679,18.998 23.725,24.203 23.725,28.975C23.725,33.903 27.692,37.898 32.586,37.898Z" style="fill:#f35;fill-rule:nonzero;"/>
            <path id="Path-2" d="M27.242,32.889C26.856,32.409 26.934,31.709 27.416,31.326C27.898,30.942 28.602,31.02 28.987,31.499C30.577,33.476 33.477,33.797 35.464,32.215C35.73,32.004 35.971,31.764 36.184,31.499C36.569,31.02 37.273,30.942 37.755,31.326C38.237,31.709 38.315,32.409 37.929,32.889C37.614,33.281 37.255,33.638 36.861,33.952C33.909,36.301 29.603,35.825 27.242,32.889Z" style="fill:#fff;fill-rule:nonzero;"/>
        </g>
    </g>
</svg>
