<?xml version="1.0" encoding="UTF-8" standalone="no"?>
<!DOCTYPE svg PUBLIC "-//W3C//DTD SVG 1.1//EN" "http://www.w3.org/Graphics/SVG/1.1/DTD/svg11.dtd">
<svg width="100%" height="100%" viewBox="0 0 65 64" version="1.1" xmlns="http://www.w3.org/2000/svg" xmlns:xlink="http://www.w3.org/1999/xlink" xml:space="preserve" xmlns:serif="http://www.serif.com/" style="fill-rule:evenodd;clip-rule:evenodd;stroke-linecap:round;stroke-linejoin:round;stroke-miterlimit:1.5;">
    <rect id="Smartphone-with-hands-1" x="0.738" y="0" width="64" height="64" style="fill:none;"/>
    <clipPath id="_clip1">
        <rect x="0.738" y="0" width="64" height="64"/>
    </clipPath>
    <g clip-path="url(#_clip1)">
        <path d="M71.032,20.257C69.278,19.18 66.984,19.729 65.907,21.483C65.906,21.484 65.906,21.485 65.905,21.485C64.829,23.239 65.377,25.533 67.131,26.61C71.719,29.427 79.659,34.302 79.659,34.302L83.56,27.949C83.56,27.949 75.62,23.074 71.032,20.257Z" style="fill:#f3775b;"/>
        <path d="M15.847,35.792C14.785,35.715 13.736,36.064 12.931,36.762C12.125,37.459 11.63,38.447 11.554,39.51C11.549,39.571 11.545,39.633 11.54,39.694C11.464,40.756 11.813,41.806 12.51,42.611C13.207,43.416 14.196,43.911 15.258,43.988C21.749,44.454 33.844,45.324 33.844,45.324L34.433,37.127C34.433,37.127 22.338,36.258 15.847,35.792Z" style="fill:#c06564;"/>
        <clipPath id="_clip2">
            <path d="M15.847,35.792C14.785,35.715 13.736,36.064 12.931,36.762C12.125,37.459 11.63,38.447 11.554,39.51C11.549,39.571 11.545,39.633 11.54,39.694C11.464,40.756 11.813,41.806 12.51,42.611C13.207,43.416 14.196,43.911 15.258,43.988C21.749,44.454 33.844,45.324 33.844,45.324L34.433,37.127C34.433,37.127 22.338,36.258 15.847,35.792Z"/>
        </clipPath>
        <g clip-path="url(#_clip2)">
            <path d="M13.558,35.704C15.755,35.863 17.414,37.762 17.276,39.961C17.272,40.022 17.268,40.083 17.264,40.145C17.197,41.215 16.705,42.213 15.898,42.918C15.091,43.624 14.035,43.977 12.966,43.899C12.763,43.885 12.562,43.87 12.364,43.856C10.808,43.743 9.633,42.398 9.731,40.84C9.782,40.026 9.837,39.136 9.889,38.318C9.936,37.56 10.285,36.853 10.856,36.353C11.428,35.854 12.176,35.604 12.934,35.659C13.139,35.673 13.348,35.689 13.558,35.704Z" style="fill:#f3775b;"/>
        </g>
        <path d="M14.248,25.847C13.193,25.697 12.122,25.972 11.271,26.612C10.419,27.252 9.856,28.203 9.706,29.258C9.697,29.319 9.689,29.38 9.68,29.441C9.53,30.495 9.805,31.566 10.445,32.418C11.085,33.27 12.036,33.833 13.091,33.983C18.989,34.821 29.367,36.297 29.367,36.297L30.524,28.162C30.524,28.162 20.146,26.686 14.248,25.847Z" style="fill:#c06564;"/>
        <clipPath id="_clip3">
            <path d="M14.248,25.847C13.193,25.697 12.122,25.972 11.271,26.612C10.419,27.252 9.856,28.203 9.706,29.258C9.697,29.319 9.689,29.38 9.68,29.441C9.53,30.495 9.805,31.566 10.445,32.418C11.085,33.27 12.036,33.833 13.091,33.983C18.989,34.821 29.367,36.297 29.367,36.297L30.524,28.162C30.524,28.162 20.146,26.686 14.248,25.847Z"/>
        </clipPath>
        <g clip-path="url(#_clip3)">
            <path d="M12.803,25.58C14.984,25.89 16.508,27.899 16.219,30.083C16.211,30.144 16.203,30.205 16.195,30.266C16.054,31.329 15.495,32.291 14.641,32.939C13.787,33.587 12.709,33.866 11.648,33.715C11.447,33.687 11.247,33.658 11.051,33.63C9.506,33.411 8.427,31.988 8.631,30.441C8.738,29.632 8.855,28.748 8.963,27.935C9.062,27.183 9.459,26.501 10.063,26.042C10.668,25.583 11.432,25.385 12.183,25.492C12.387,25.521 12.595,25.551 12.803,25.58Z" style="fill:#f3775b;"/>
        </g>
        <path d="M37.581,12.322C37.581,12.322 49.104,27.839 55.051,35.848C57.298,38.874 58.5,42.549 58.478,46.318C58.442,52.195 58.393,60.423 58.393,60.423L37.138,60.376L37.581,12.322Z" style="fill:#f3775b;"/>
        <clipPath id="_clip4">
            <path d="M37.581,12.322C37.581,12.322 49.104,27.839 55.051,35.848C57.298,38.874 58.5,42.549 58.478,46.318C58.442,52.195 58.393,60.423 58.393,60.423L37.138,60.376L37.581,12.322Z"/>
        </clipPath>
        <g clip-path="url(#_clip4)">
            <path d="M48.528,23.234L52.23,24.777C51.543,28.685 51.336,33.353 52.08,39.523C56.925,42.497 56.196,51.056 56.263,52.302L46.992,44.506L48.528,23.234Z" style="fill:#c06564;"/>
        </g>
        <rect x="19.48" y="8.861" width="29.032" height="47.375" style="fill:#fff;"/>
        <clipPath id="_clip5">
            <rect x="19.48" y="8.861" width="29.032" height="47.375"/>
        </clipPath>
        <g clip-path="url(#_clip5)">
            <path d="M35.103,47.137C34.64,47.292 34.271,47.649 34.101,48.107C33.93,48.566 33.977,49.077 34.226,49.497C34.87,50.638 35.912,51.883 37.296,52.045C41.028,52.48 42.421,50.235 42.421,50.235L46.22,51.926C46.22,51.926 45.761,59.683 48.093,62.248L55.564,62.259L55.451,50.952C55.451,50.952 53.996,48.704 52.878,46.977C52.06,45.713 50.834,44.766 49.404,44.294C47.833,43.775 45.729,43.08 44.151,42.559C42.859,42.133 41.437,42.484 40.492,43.463C39.311,44.672 37.444,46.251 35.103,47.137Z" style="fill:#cfd0e2;"/>
        </g>
        <path d="M18.796,5.647C19.625,4.708 20.812,4.081 22.123,4.032C29.808,3.937 37.495,3.937 45.179,4.032C47.542,4.12 49.609,6.127 49.699,8.552C49.821,18.345 49.792,28.139 49.752,37.932C49.728,43.898 49.701,49.863 49.701,55.829C49.671,58.236 47.644,60.372 45.179,60.464C37.533,60.558 29.885,60.465 22.238,60.465C19.831,60.435 17.695,58.408 17.603,55.944C17.408,40.186 17.602,24.426 17.602,8.667C17.615,7.576 18.04,6.54 18.729,5.725L18.729,5.647L18.796,5.647ZM47.757,11.704C47.749,10.985 47.164,10.406 46.445,10.406C41.734,10.406 25.569,10.406 20.858,10.406C20.138,10.406 19.553,10.985 19.545,11.704C19.399,25.471 19.4,39.239 19.548,53.006C19.555,53.725 20.141,54.304 20.86,54.304C25.57,54.304 41.732,54.304 46.442,54.304C47.162,54.304 47.747,53.725 47.755,53.006C47.903,39.239 47.904,25.471 47.757,11.704Z" style="fill:#636693;fill-rule:nonzero;"/>
        <clipPath id="_clip6">
            <path d="M18.796,5.647C19.625,4.708 20.812,4.081 22.123,4.032C29.808,3.937 37.495,3.937 45.179,4.032C47.542,4.12 49.609,6.127 49.699,8.552C49.821,18.345 49.792,28.139 49.752,37.932C49.728,43.898 49.701,49.863 49.701,55.829C49.671,58.236 47.644,60.372 45.179,60.464C37.533,60.558 29.885,60.465 22.238,60.465C19.831,60.435 17.695,58.408 17.603,55.944C17.408,40.186 17.602,24.426 17.602,8.667C17.615,7.576 18.04,6.54 18.729,5.725L18.729,5.647L18.796,5.647ZM47.757,11.704C47.749,10.985 47.164,10.406 46.445,10.406C41.734,10.406 25.569,10.406 20.858,10.406C20.138,10.406 19.553,10.985 19.545,11.704C19.399,25.471 19.4,39.239 19.548,53.006C19.555,53.725 20.141,54.304 20.86,54.304C25.57,54.304 41.732,54.304 46.442,54.304C47.162,54.304 47.747,53.725 47.755,53.006C47.903,39.239 47.904,25.471 47.757,11.704Z" clip-rule="nonzero"/>
        </clipPath>
        <g clip-path="url(#_clip6)">
            <path d="M55.249,0.243L13.316,41.48L13.608,67.404L55.249,67.404L55.249,0.243Z" style="fill:#2b307e;"/>
        </g>
        <g>
            <rect x="27.73" y="36.384" width="12.001" height="1.377" style="fill:#2b307e;fill-opacity:0.35;"/>
            <rect x="29.591" y="40.082" width="8.279" height="1.377" style="fill:#2b307e;fill-opacity:0.35;"/>
            <path id="Love" d="M29.397,16.378L29.133,16.378C27.504,16.466 25.919,17.44 24.95,18.9C24.069,20.272 23.849,21.91 24.377,23.326C24.994,25.008 26.535,26.512 27.9,27.84C28.208,28.15 28.516,28.46 28.781,28.725C29.749,29.699 30.718,30.628 31.643,31.513C32.171,32 32.699,32.531 33.228,33.062L33.8,33.638L34.416,33.107C36.178,31.602 37.939,29.92 39.656,28.106C39.832,27.928 40.008,27.707 40.228,27.53C41.505,26.202 43.134,24.565 43.487,22.573C43.751,20.936 43.355,19.343 42.386,18.192C41.461,17.086 40.096,16.466 38.599,16.466L38.379,16.466C36.002,16.555 34.593,17.75 33.756,18.812C32.963,17.705 31.51,16.378 29.397,16.378Z" style="fill:#f3775b;"/>
            <clipPath id="_clip7">
                <path d="M29.397,16.378L29.133,16.378C27.504,16.466 25.919,17.44 24.95,18.9C24.069,20.272 23.849,21.91 24.377,23.326C24.994,25.008 26.535,26.512 27.9,27.84C28.208,28.15 28.516,28.46 28.781,28.725C29.749,29.699 30.718,30.628 31.643,31.513C32.171,32 32.699,32.531 33.228,33.062L33.8,33.638L34.416,33.107C36.178,31.602 37.939,29.92 39.656,28.106C39.832,27.928 40.008,27.707 40.228,27.53C41.505,26.202 43.134,24.565 43.487,22.573C43.751,20.936 43.355,19.343 42.386,18.192C41.461,17.086 40.096,16.466 38.599,16.466L38.379,16.466C36.002,16.555 34.593,17.75 33.756,18.812C32.963,17.705 31.51,16.378 29.397,16.378Z"/>
            </clipPath>
            <g clip-path="url(#_clip7)">
                <path d="M24.094,26.273L30.325,26.273L31.883,20.821L33.83,29.584L36.167,22.379L37.335,25.884L43.567,25.884" style="fill:none;stroke:#fff;stroke-width:0.8px;"/>
            </g>
        </g>
        <circle cx="33.245" cy="7.579" r="1.286" style="fill:#fff;fill-opacity:0.25;"/>
        <circle cx="33.245" cy="7.146" r="1.286" style="fill:#1c2053;"/>
        <path d="M34.798,45.273C34.291,45.421 33.889,45.807 33.718,46.306C33.548,46.805 33.631,47.356 33.941,47.783C34.703,48.875 35.874,50.009 37.405,50.162C41.746,50.598 43.366,48.352 43.366,48.352L48.798,52.027C48.798,52.027 47.25,57.8 49.963,60.366L57.77,59.355L57.724,56.782L57.592,49.461C57.592,49.461 56.393,47.316 55.392,45.526C54.538,43.999 53.113,42.873 51.43,42.395C49.405,41.82 46.646,41.036 44.792,40.51C43.608,40.174 42.334,40.476 41.428,41.309C40.071,42.55 37.757,44.323 34.798,45.273Z" style="fill:#f3775b;"/>
        <clipPath id="_clip8">
            <path d="M34.798,45.273C34.291,45.421 33.889,45.807 33.718,46.306C33.548,46.805 33.631,47.356 33.941,47.783C34.703,48.875 35.874,50.009 37.405,50.162C41.746,50.598 43.366,48.352 43.366,48.352L48.798,52.027C48.798,52.027 47.25,57.8 49.963,60.366L57.77,59.355L57.724,56.782L57.592,49.461C57.592,49.461 56.393,47.316 55.392,45.526C54.538,43.999 53.113,42.873 51.43,42.395C49.405,41.82 46.646,41.036 44.792,40.51C43.608,40.174 42.334,40.476 41.428,41.309C40.071,42.55 37.757,44.323 34.798,45.273Z"/>
        </clipPath>
        <g clip-path="url(#_clip8)">
            <path d="M34.027,45.428C34.027,45.428 36.233,45.063 37.761,43.421C38.91,43.329 39.817,43.74 40.548,44.514C40.548,44.514 38.258,48.04 34.027,45.428Z" style="fill:#f7a390;"/>
        </g>
        <path d="M15.831,45.708C18.034,45.739 19.801,47.538 19.792,49.74C19.792,49.802 19.791,49.863 19.791,49.925C19.787,50.997 19.354,52.022 18.589,52.774C17.825,53.525 16.791,53.939 15.719,53.924C15.516,53.921 15.314,53.919 15.116,53.916C13.556,53.894 12.305,52.62 12.311,51.06C12.314,50.244 12.318,49.352 12.321,48.533C12.324,47.773 12.631,47.047 13.172,46.515C13.714,45.982 14.446,45.689 15.205,45.7C15.411,45.702 15.621,45.705 15.831,45.708Z" style="fill:#f3775b;"/>
        <clipPath id="_clip9">
            <path d="M15.831,45.708C18.034,45.739 19.801,47.538 19.792,49.74C19.792,49.802 19.791,49.863 19.791,49.925C19.787,50.997 19.354,52.022 18.589,52.774C17.825,53.525 16.791,53.939 15.719,53.924C15.516,53.921 15.314,53.919 15.116,53.916C13.556,53.894 12.305,52.62 12.311,51.06C12.314,50.244 12.318,49.352 12.321,48.533C12.324,47.773 12.631,47.047 13.172,46.515C13.714,45.982 14.446,45.689 15.205,45.7C15.411,45.702 15.621,45.705 15.831,45.708Z"/>
        </clipPath>
        <g clip-path="url(#_clip9)">
            <path d="M20.638,47.514L16.323,47.514C14.992,47.514 13.913,48.593 13.913,49.924C13.913,49.925 13.913,49.927 13.913,49.928C13.913,51.259 14.992,52.338 16.323,52.338C18.253,52.338 20.638,52.338 20.638,52.338L20.638,47.514Z" style="fill:#f7a390;"/>
        </g>
    </g>
</svg>
