<?xml version="1.0" encoding="UTF-8" standalone="no"?>
<!DOCTYPE svg PUBLIC "-//W3C//DTD SVG 1.1//EN" "http://www.w3.org/Graphics/SVG/1.1/DTD/svg11.dtd">
<svg width="100%" height="100%" viewBox="0 0 65 64" version="1.1" xmlns="http://www.w3.org/2000/svg" xmlns:xlink="http://www.w3.org/1999/xlink" xml:space="preserve" xmlns:serif="http://www.serif.com/" style="fill-rule:evenodd;clip-rule:evenodd;stroke-linejoin:round;stroke-miterlimit:2;">
    <rect id="Smartphone-with-hands-blank" x="0.818" y="0" width="64" height="64" style="fill:none;"/>
    <clipPath id="_clip1">
        <rect x="0.818" y="0" width="64" height="64"/>
    </clipPath>
    <g clip-path="url(#_clip1)">
        <path d="M71.111,20.257C69.357,19.18 67.063,19.729 65.986,21.483C65.986,21.484 65.985,21.485 65.985,21.485C64.908,23.239 65.457,25.533 67.21,26.61C71.799,29.427 79.739,34.302 79.739,34.302L83.64,27.949C83.64,27.949 75.699,23.074 71.111,20.257Z" style="fill:#f3775b;"/>
        <path d="M15.927,35.792C14.864,35.715 13.815,36.064 13.01,36.762C12.205,37.459 11.709,38.447 11.633,39.51C11.629,39.571 11.624,39.633 11.62,39.694C11.544,40.756 11.892,41.806 12.59,42.611C13.287,43.416 14.275,43.911 15.338,43.988C21.828,44.454 33.923,45.324 33.923,45.324L34.512,37.127C34.512,37.127 22.417,36.258 15.927,35.792Z" style="fill:#c06564;"/>
        <clipPath id="_clip2">
            <path d="M15.927,35.792C14.864,35.715 13.815,36.064 13.01,36.762C12.205,37.459 11.709,38.447 11.633,39.51C11.629,39.571 11.624,39.633 11.62,39.694C11.544,40.756 11.892,41.806 12.59,42.611C13.287,43.416 14.275,43.911 15.338,43.988C21.828,44.454 33.923,45.324 33.923,45.324L34.512,37.127C34.512,37.127 22.417,36.258 15.927,35.792Z"/>
        </clipPath>
        <g clip-path="url(#_clip2)">
            <path d="M13.637,35.704C15.834,35.863 17.493,37.762 17.355,39.961C17.351,40.022 17.348,40.083 17.344,40.145C17.277,41.215 16.785,42.213 15.977,42.918C15.17,43.624 14.114,43.977 13.045,43.899C12.842,43.885 12.641,43.87 12.444,43.856C10.887,43.743 9.713,42.398 9.81,40.84C9.861,40.026 9.917,39.136 9.968,38.318C10.016,37.56 10.364,36.853 10.936,36.353C11.508,35.854 12.256,35.604 13.013,35.659C13.218,35.673 13.427,35.689 13.637,35.704Z" style="fill:#f3775b;"/>
        </g>
        <path d="M14.327,25.847C13.273,25.697 12.202,25.972 11.35,26.612C10.498,27.252 9.936,28.203 9.786,29.258C9.777,29.319 9.768,29.38 9.76,29.441C9.61,30.495 9.885,31.566 10.524,32.418C11.164,33.27 12.116,33.833 13.17,33.983C19.068,34.821 29.446,36.297 29.446,36.297L30.603,28.162C30.603,28.162 20.225,26.686 14.327,25.847Z" style="fill:#c06564;"/>
        <clipPath id="_clip3">
            <path d="M14.327,25.847C13.273,25.697 12.202,25.972 11.35,26.612C10.498,27.252 9.936,28.203 9.786,29.258C9.777,29.319 9.768,29.38 9.76,29.441C9.61,30.495 9.885,31.566 10.524,32.418C11.164,33.27 12.116,33.833 13.17,33.983C19.068,34.821 29.446,36.297 29.446,36.297L30.603,28.162C30.603,28.162 20.225,26.686 14.327,25.847Z"/>
        </clipPath>
        <g clip-path="url(#_clip3)">
            <path d="M12.883,25.58C15.063,25.89 16.587,27.899 16.299,30.083C16.29,30.144 16.282,30.205 16.274,30.266C16.134,31.329 15.574,32.291 14.72,32.939C13.866,33.587 12.788,33.866 11.727,33.715C11.526,33.687 11.326,33.658 11.13,33.63C9.585,33.411 8.506,31.988 8.711,30.441C8.818,29.632 8.935,28.748 9.042,27.935C9.142,27.183 9.538,26.501 10.143,26.042C10.748,25.583 11.511,25.385 12.263,25.492C12.467,25.521 12.674,25.551 12.883,25.58Z" style="fill:#f3775b;"/>
        </g>
        <path d="M37.66,12.322C37.66,12.322 49.183,27.839 55.13,35.848C57.377,38.874 58.58,42.549 58.557,46.318C58.522,52.195 58.472,60.423 58.472,60.423L37.218,60.376L37.66,12.322Z" style="fill:#f3775b;"/>
        <clipPath id="_clip4">
            <path d="M37.66,12.322C37.66,12.322 49.183,27.839 55.13,35.848C57.377,38.874 58.58,42.549 58.557,46.318C58.522,52.195 58.472,60.423 58.472,60.423L37.218,60.376L37.66,12.322Z"/>
        </clipPath>
        <g clip-path="url(#_clip4)">
            <path d="M48.607,23.234L52.309,24.777C51.622,28.685 51.416,33.353 52.16,39.523C57.004,42.497 56.275,51.056 56.342,52.302L47.072,44.506L48.607,23.234Z" style="fill:#c06564;"/>
        </g>
        <rect x="19.56" y="8.861" width="29.032" height="47.375" style="fill:#fff;"/>
        <clipPath id="_clip5">
            <rect x="19.56" y="8.861" width="29.032" height="47.375"/>
        </clipPath>
        <g clip-path="url(#_clip5)">
            <path d="M35.183,47.137C34.719,47.292 34.35,47.649 34.18,48.107C34.01,48.566 34.056,49.077 34.306,49.497C34.949,50.638 35.991,51.883 37.376,52.045C41.108,52.48 42.5,50.235 42.5,50.235L46.299,51.926C46.299,51.926 45.84,59.683 48.172,62.248L55.644,62.259L55.531,50.952C55.531,50.952 54.076,48.704 52.958,46.977C52.14,45.713 50.914,44.766 49.484,44.294C47.912,43.775 45.809,43.08 44.231,42.559C42.939,42.133 41.517,42.484 40.572,43.463C39.39,44.672 37.523,46.251 35.183,47.137Z" style="fill:#cfd0e2;"/>
        </g>
        <path d="M18.876,5.647C19.704,4.708 20.892,4.081 22.202,4.032C29.887,3.937 37.574,3.937 45.259,4.032C47.621,4.12 49.688,6.127 49.779,8.552C49.9,18.345 49.871,28.139 49.832,37.932C49.808,43.898 49.78,49.863 49.78,55.829C49.75,58.236 47.723,60.372 45.259,60.464C37.612,60.558 29.965,60.465 22.318,60.465C19.911,60.435 17.774,58.408 17.683,55.944C17.487,40.186 17.681,24.426 17.681,8.667C17.695,7.576 18.119,6.54 18.809,5.725L18.809,5.647L18.876,5.647ZM47.836,11.704C47.829,10.985 47.243,10.406 46.524,10.406C41.813,10.406 25.648,10.406 20.937,10.406C20.218,10.406 19.633,10.985 19.625,11.704C19.478,25.471 19.479,39.239 19.627,53.006C19.635,53.725 20.22,54.304 20.94,54.304C25.65,54.304 41.811,54.304 46.522,54.304C47.241,54.304 47.826,53.725 47.834,53.006C47.982,39.239 47.983,25.471 47.836,11.704Z" style="fill:#636693;fill-rule:nonzero;"/>
        <clipPath id="_clip6">
            <path d="M18.876,5.647C19.704,4.708 20.892,4.081 22.202,4.032C29.887,3.937 37.574,3.937 45.259,4.032C47.621,4.12 49.688,6.127 49.779,8.552C49.9,18.345 49.871,28.139 49.832,37.932C49.808,43.898 49.78,49.863 49.78,55.829C49.75,58.236 47.723,60.372 45.259,60.464C37.612,60.558 29.965,60.465 22.318,60.465C19.911,60.435 17.774,58.408 17.683,55.944C17.487,40.186 17.681,24.426 17.681,8.667C17.695,7.576 18.119,6.54 18.809,5.725L18.809,5.647L18.876,5.647ZM47.836,11.704C47.829,10.985 47.243,10.406 46.524,10.406C41.813,10.406 25.648,10.406 20.937,10.406C20.218,10.406 19.633,10.985 19.625,11.704C19.478,25.471 19.479,39.239 19.627,53.006C19.635,53.725 20.22,54.304 20.94,54.304C25.65,54.304 41.811,54.304 46.522,54.304C47.241,54.304 47.826,53.725 47.834,53.006C47.982,39.239 47.983,25.471 47.836,11.704Z" clip-rule="nonzero"/>
        </clipPath>
        <g clip-path="url(#_clip6)">
            <path d="M55.328,0.243L13.396,41.48L13.687,67.404L55.328,67.404L55.328,0.243Z" style="fill:#2b307e;"/>
        </g>
        <circle cx="33.325" cy="7.579" r="1.286" style="fill:#fff;fill-opacity:0.25;"/>
        <circle cx="33.325" cy="7.146" r="1.286" style="fill:#1c2053;"/>
        <path d="M34.877,45.273C34.371,45.421 33.968,45.807 33.798,46.306C33.627,46.805 33.71,47.356 34.02,47.783C34.783,48.875 35.954,50.009 37.485,50.162C41.826,50.598 43.445,48.352 43.445,48.352L48.877,52.027C48.877,52.027 47.33,57.8 50.043,60.366L57.85,59.355L57.803,56.782L57.672,49.461C57.672,49.461 56.473,47.316 55.471,45.526C54.617,43.999 53.193,42.873 51.51,42.395C49.484,41.82 46.725,41.036 44.871,40.51C43.687,40.174 42.414,40.476 41.507,41.309C40.15,42.55 37.836,44.323 34.877,45.273Z" style="fill:#f3775b;"/>
        <clipPath id="_clip7">
            <path d="M34.877,45.273C34.371,45.421 33.968,45.807 33.798,46.306C33.627,46.805 33.71,47.356 34.02,47.783C34.783,48.875 35.954,50.009 37.485,50.162C41.826,50.598 43.445,48.352 43.445,48.352L48.877,52.027C48.877,52.027 47.33,57.8 50.043,60.366L57.85,59.355L57.803,56.782L57.672,49.461C57.672,49.461 56.473,47.316 55.471,45.526C54.617,43.999 53.193,42.873 51.51,42.395C49.484,41.82 46.725,41.036 44.871,40.51C43.687,40.174 42.414,40.476 41.507,41.309C40.15,42.55 37.836,44.323 34.877,45.273Z"/>
        </clipPath>
        <g clip-path="url(#_clip7)">
            <path d="M34.106,45.428C34.106,45.428 36.313,45.063 37.841,43.421C38.99,43.329 39.896,43.74 40.628,44.514C40.628,44.514 38.337,48.04 34.106,45.428Z" style="fill:#f7a390;"/>
        </g>
        <path d="M15.911,45.708C18.113,45.739 19.88,47.538 19.871,49.74C19.871,49.802 19.871,49.863 19.871,49.925C19.866,50.997 19.434,52.022 18.669,52.774C17.904,53.525 16.871,53.939 15.799,53.924C15.596,53.921 15.394,53.919 15.196,53.916C13.636,53.894 12.384,52.62 12.39,51.06C12.394,50.244 12.397,49.352 12.401,48.533C12.404,47.773 12.71,47.047 13.252,46.515C13.794,45.982 14.525,45.689 15.285,45.7C15.491,45.702 15.7,45.705 15.911,45.708Z" style="fill:#f3775b;"/>
        <clipPath id="_clip8">
            <path d="M15.911,45.708C18.113,45.739 19.88,47.538 19.871,49.74C19.871,49.802 19.871,49.863 19.871,49.925C19.866,50.997 19.434,52.022 18.669,52.774C17.904,53.525 16.871,53.939 15.799,53.924C15.596,53.921 15.394,53.919 15.196,53.916C13.636,53.894 12.384,52.62 12.39,51.06C12.394,50.244 12.397,49.352 12.401,48.533C12.404,47.773 12.71,47.047 13.252,46.515C13.794,45.982 14.525,45.689 15.285,45.7C15.491,45.702 15.7,45.705 15.911,45.708Z"/>
        </clipPath>
        <g clip-path="url(#_clip8)">
            <path d="M20.718,47.514L16.403,47.514C15.072,47.514 13.993,48.593 13.993,49.924C13.993,49.925 13.993,49.927 13.993,49.928C13.993,51.259 15.072,52.338 16.403,52.338C18.332,52.338 20.718,52.338 20.718,52.338L20.718,47.514Z" style="fill:#f7a390;"/>
        </g>
    </g>
</svg>
