<?xml version="1.0" encoding="UTF-8" standalone="no"?>
<!DOCTYPE svg PUBLIC "-//W3C//DTD SVG 1.1//EN" "http://www.w3.org/Graphics/SVG/1.1/DTD/svg11.dtd">
<svg width="100%" height="100%" viewBox="0 0 65 64" version="1.1" xmlns="http://www.w3.org/2000/svg" xmlns:xlink="http://www.w3.org/1999/xlink" xml:space="preserve" xmlns:serif="http://www.serif.com/" style="fill-rule:evenodd;clip-rule:evenodd;stroke-linejoin:round;stroke-miterlimit:2;">
    <rect id="Smartphone-blank" x="0.073" y="0" width="64" height="64" style="fill:none;"/>
    <path d="M50.726,60.318C49.911,59.807 48.968,59.536 48.005,59.536C42.152,59.536 20.631,59.536 15.955,59.536C15.365,59.536 14.784,59.687 14.269,59.974C13.699,60.292 12.93,60.721 12.349,61.045C12.25,61.101 12.2,61.217 12.229,61.327C12.258,61.437 12.357,61.514 12.471,61.514C18.07,61.514 46.42,61.514 51.765,61.514C51.877,61.514 51.975,61.44 52.006,61.333C52.036,61.226 51.992,61.111 51.898,61.052C51.549,60.833 51.123,60.566 50.726,60.318Z" style="fill:#cecfeb;"/>
    <path d="M17.464,5.666C18.302,4.717 19.502,4.082 20.828,4.033C28.597,3.937 36.369,3.937 44.138,4.033C46.527,4.122 48.617,6.151 48.708,8.603C48.905,24.534 48.709,40.468 48.709,56.401C48.679,58.834 46.63,60.994 44.138,61.087C36.407,61.182 28.675,61.088 20.944,61.088C18.51,61.058 16.351,59.008 16.258,56.517C16.06,40.586 16.256,24.652 16.256,8.719C16.27,7.615 16.699,6.568 17.396,5.744L17.396,5.666L17.464,5.666ZM46.744,11.775C46.736,11.056 46.151,10.477 45.432,10.477C40.682,10.477 24.283,10.477 19.534,10.477C18.815,10.477 18.229,11.056 18.222,11.775C18.073,25.703 18.074,39.633 18.224,53.561C18.232,54.28 18.817,54.859 19.536,54.859C24.285,54.859 40.681,54.859 45.429,54.859C46.149,54.859 46.734,54.28 46.742,53.561C46.892,39.633 46.892,25.703 46.744,11.775Z" style="fill:#636693;fill-rule:nonzero;"/>
    <clipPath id="_clip1">
        <path d="M17.464,5.666C18.302,4.717 19.502,4.082 20.828,4.033C28.597,3.937 36.369,3.937 44.138,4.033C46.527,4.122 48.617,6.151 48.708,8.603C48.905,24.534 48.709,40.468 48.709,56.401C48.679,58.834 46.63,60.994 44.138,61.087C36.407,61.182 28.675,61.088 20.944,61.088C18.51,61.058 16.351,59.008 16.258,56.517C16.06,40.586 16.256,24.652 16.256,8.719C16.27,7.615 16.699,6.568 17.396,5.744L17.396,5.666L17.464,5.666ZM46.744,11.775C46.736,11.056 46.151,10.477 45.432,10.477C40.682,10.477 24.283,10.477 19.534,10.477C18.815,10.477 18.229,11.056 18.222,11.775C18.073,25.703 18.074,39.633 18.224,53.561C18.232,54.28 18.817,54.859 19.536,54.859C24.285,54.859 40.681,54.859 45.429,54.859C46.149,54.859 46.734,54.28 46.742,53.561C46.892,39.633 46.892,25.703 46.744,11.775Z" clip-rule="nonzero"/>
    </clipPath>
    <g clip-path="url(#_clip1)">
        <path d="M54.318,0.202L11.924,41.894L12.218,68.103L54.318,68.103L54.318,0.202Z" style="fill:#2b307e;"/>
    </g>
    <circle cx="32.073" cy="7.619" r="1.3" style="fill:#fff;fill-opacity:0.25;"/>
    <circle cx="32.073" cy="7.181" r="1.3" style="fill:#1c2053;"/>
</svg>
