<?xml version="1.0" encoding="UTF-8" standalone="no"?>
<!DOCTYPE svg PUBLIC "-//W3C//DTD SVG 1.1//EN" "http://www.w3.org/Graphics/SVG/1.1/DTD/svg11.dtd">
<svg width="100%" height="100%" viewBox="0 0 65 64" version="1.1" xmlns="http://www.w3.org/2000/svg" xmlns:xlink="http://www.w3.org/1999/xlink" xml:space="preserve" xmlns:serif="http://www.serif.com/" style="fill-rule:evenodd;clip-rule:evenodd;stroke-linejoin:round;stroke-miterlimit:2;">
    <rect id="Sun-Accent" x="0.738" y="0" width="64" height="64" style="fill:none;"/>
    <path d="M34.238,51.944L34.238,59.426C34.19,60.252 33.406,60.866 32.636,60.874L32.623,60.874C32.296,60.875 31.972,60.766 31.709,60.517C31.43,60.254 31.276,60.07 31.238,59.426L31.238,51.944C31.734,51.981 32.234,52 32.738,52C33.243,52 33.743,51.981 34.238,51.944ZM43.831,48.64L47.537,55.059C48.27,56.502 46.063,58.283 44.939,56.559L41.219,50.115C42.129,49.688 43.002,49.194 43.831,48.64ZM21.645,48.64C22.474,49.194 23.347,49.688 24.258,50.115L20.537,56.559C19.653,57.915 17.008,56.895 17.939,55.059L21.645,48.64ZM50.598,41.005L56.871,44.627C57.711,45.175 57.635,45.575 57.62,45.98C57.583,47 56.356,47.725 55.371,47.225L49.047,43.574C49.625,42.761 50.144,41.902 50.598,41.005ZM14.879,41.005C15.332,41.902 15.851,42.761 16.43,43.574L10.106,47.225C8.683,47.947 6.777,45.819 8.606,44.627L14.879,41.005ZM52.71,30.926L59.738,30.926L59.912,30.936C61.45,31.207 61.693,33.812 59.738,33.926L52.647,33.926C52.707,33.292 52.738,32.65 52.738,32C52.738,31.64 52.729,31.282 52.71,30.926ZM12.767,30.926C12.748,31.282 12.738,31.64 12.738,32C12.738,32.65 12.769,33.292 12.83,33.926L5.738,33.926C3.393,33.79 4.023,32.058 4.647,31.397C4.926,31.101 5.324,30.95 5.738,30.926L12.767,30.926ZM49.465,21.037L55.371,17.627C55.904,17.357 55.703,17.394 56.31,17.438C57.569,17.668 58.034,19.467 56.871,20.225L50.92,23.661C50.499,22.747 50.012,21.871 49.465,21.037ZM14.557,23.661L8.606,20.225C7.446,19.469 7.9,17.375 9.491,17.432C9.776,17.474 9.849,17.497 10.106,17.627L16.012,21.037C15.464,21.871 14.977,22.747 14.557,23.661ZM41.604,14.07L44.939,8.293C45.414,7.565 45.54,7.476 46.454,7.559C47.445,7.758 47.999,8.883 47.537,9.793L44.184,15.601C43.367,15.029 42.505,14.517 41.604,14.07ZM21.292,15.601L17.939,9.793C17.437,8.803 18.116,7.525 19.347,7.547C20.094,7.642 20.15,7.699 20.537,8.293L23.873,14.07C22.972,14.517 22.11,15.029 21.292,15.601ZM31.238,12.056L31.238,5.426C31.286,4.605 31.935,3.937 32.799,3.937L32.81,3.937C32.872,3.938 32.935,3.941 32.999,3.949C33.697,4.115 34.182,4.455 34.238,5.426L34.238,12.056C33.743,12.019 33.243,12 32.738,12C32.234,12 31.734,12.019 31.238,12.056Z" style="fill:#f2ad4c;fill-opacity:0.75;fill-rule:nonzero;"/>
    <circle cx="32.738" cy="32" r="16" style="fill:#f2ad4c;"/>
</svg>
