<?xml version="1.0" encoding="UTF-8" standalone="no"?>
<!DOCTYPE svg PUBLIC "-//W3C//DTD SVG 1.1//EN" "http://www.w3.org/Graphics/SVG/1.1/DTD/svg11.dtd">
<svg width="100%" height="100%" viewBox="0 0 65 64" version="1.1" xmlns="http://www.w3.org/2000/svg" xmlns:xlink="http://www.w3.org/1999/xlink" xml:space="preserve" xmlns:serif="http://www.serif.com/" style="fill-rule:evenodd;clip-rule:evenodd;">
    <rect id="Supermarket" x="0.738" y="0" width="64" height="64" style="fill:none;"/>
    <path id="abandonedcart-a" d="M12.748,20.31L58.707,26.31L56.22,41.277C55.885,43.29 53.957,44.922 51.924,44.922L16.763,44.922L12.748,20.31Z" style="fill:#f3775b;"/>
    <g opacity="0.72">
        <path d="M57.662,29.967L15.288,27.328L15.212,28.556L57.585,31.195L57.662,29.967Z" style="fill:#fff;"/>
        <path d="M57.673,34.089L15.232,32.997L15.2,34.227L57.641,35.319L57.673,34.089Z" style="fill:#fff;"/>
        <path d="M57.67,38.702L15.218,38.173L15.203,39.403L57.655,39.932L57.67,38.702Z" style="fill:#fff;"/>
        <rect x="34.899" y="22.156" width="1.231" height="20.92" style="fill:#fff;"/>
        <rect x="29.976" y="22.156" width="1.231" height="20.92" style="fill:#fff;"/>
        <path d="M24.439,22.156L25.669,22.156L26.284,43.076L25.054,43.076L24.439,22.156Z" style="fill:#fff;"/>
        <path d="M52.127,22.156L53.357,22.156L50.896,43.076L49.666,43.076L52.127,22.156Z" style="fill:#fff;"/>
        <path d="M18.286,22.156L19.516,22.156L21.362,43.076L20.131,43.076L18.286,22.156Z" style="fill:#fff;"/>
        <path d="M45.974,22.156L47.204,22.156L45.974,43.076L44.743,43.076L45.974,22.156Z" style="fill:#fff;"/>
        <rect x="39.821" y="22.156" width="1.231" height="20.92" style="fill:#fff;"/>
    </g>
    <path d="M57.485,24.941C57.94,24.993 58.354,25.23 58.63,25.595C58.906,25.961 59.019,26.424 58.944,26.876C58.25,31.056 56.541,41.339 56.541,41.339C56.419,42.018 56.32,42.212 56.114,42.612C55.324,44.146 53.675,45.227 51.932,45.249L16.477,45.249L12.51,19.805C27.501,21.517 42.493,23.229 57.485,24.941ZM18.617,42.749C29.748,42.749 40.887,43.179 52.009,42.747C53.005,42.684 53.902,41.893 54.078,40.913L56.335,27.326L15.485,22.661C16.529,29.357 17.573,36.053 18.617,42.749Z" style="fill:#aaacdd;fill-rule:nonzero;"/>
    <path d="M4.825,11.91L4.975,11.928C10.233,12.849 13.538,12.926 14.264,16.28C16.204,26.828 17.624,37.486 19.511,48.011C19.728,49.082 20.746,49.935 21.857,49.949L51.978,49.949C52.885,50.004 53.008,50.39 53.147,50.756C53.432,51.508 52.844,52.397 51.978,52.449L21.841,52.449C19.582,52.42 17.506,50.702 17.055,48.481C15.169,37.958 14.076,27.232 11.807,16.749C11.625,16.027 10.804,15.527 9.976,15.389L4.523,14.387C3.292,14.083 3.028,11.909 4.825,11.91Z" style="fill:#aaacdd;fill-rule:nonzero;"/>
    <clipPath id="_clip1">
        <path d="M4.825,11.91L4.975,11.928C10.233,12.849 13.538,12.926 14.264,16.28C16.204,26.828 17.624,37.486 19.511,48.011C19.728,49.082 20.746,49.935 21.857,49.949L51.978,49.949C52.885,50.004 53.008,50.39 53.147,50.756C53.432,51.508 52.844,52.397 51.978,52.449L21.841,52.449C19.582,52.42 17.506,50.702 17.055,48.481C15.169,37.958 14.076,27.232 11.807,16.749C11.625,16.027 10.804,15.527 9.976,15.389L4.523,14.387C3.292,14.083 3.028,11.909 4.825,11.91Z" clip-rule="nonzero"/>
    </clipPath>
    <g clip-path="url(#_clip1)">
        <path d="M12.349,10.074L2.482,8.452L1.127,16.692L10.995,18.314L12.349,10.074Z" style="fill:#f3775b;"/>
    </g>
    <circle id="abandonedcart-b" cx="25.054" cy="54.921" r="4.307" style="fill:#b0eafd;"/>
    <circle cx="25.054" cy="54.921" r="3.384" style="fill:none;stroke:#2b307e;stroke-width:1.85px;"/>
    <circle id="abandonedcart-c" cx="46.589" cy="54.921" r="4.307" style="fill:#b0eafd;"/>
    <circle cx="46.589" cy="54.921" r="3.384" style="fill:none;stroke:#2b307e;stroke-width:1.85px;"/>
    <path d="M15.473,21.013L57.322,25.714" style="fill:none;stroke:#fff;stroke-opacity:0.7;stroke-width:0.5px;stroke-linecap:round;stroke-linejoin:round;stroke-miterlimit:1;"/>
    <path d="M4.476,12.653C4.476,12.653 8.066,13.373 10.588,13.878C12.044,14.17 13.168,15.331 13.413,16.796C13.56,17.674 13.69,18.453 13.69,18.453" style="fill:none;stroke:#fff;stroke-opacity:0.7;stroke-width:0.5px;stroke-linecap:round;stroke-linejoin:round;stroke-miterlimit:1;"/>
</svg>
