<?xml version="1.0" encoding="UTF-8" standalone="no"?>
<!DOCTYPE svg PUBLIC "-//W3C//DTD SVG 1.1//EN" "http://www.w3.org/Graphics/SVG/1.1/DTD/svg11.dtd">
<svg width="100%" height="100%" viewBox="0 0 65 64" version="1.1" xmlns="http://www.w3.org/2000/svg" xmlns:xlink="http://www.w3.org/1999/xlink" xml:space="preserve" xmlns:serif="http://www.serif.com/" style="fill-rule:evenodd;clip-rule:evenodd;stroke-linecap:round;stroke-miterlimit:1;">
    <rect id="Surveillance" x="0.738" y="0" width="64" height="64" style="fill:none;"/>
    <path d="M7.033,58L12.738,19.313L50.738,18L56.738,60L42.442,58L22.738,60L7.033,58Z" style="fill:#cecfeb;"/>
    <path d="M10.021,6.114L4.03,52.82L22.575,59.886L24.67,10.463L10.021,6.114Z" style="fill:#f3775b;fill-rule:nonzero;"/>
    <path d="M39.689,6.114L24.67,10.463L22.574,59.886L41.718,52.82L39.689,6.114Z" style="fill:#f3775b;fill-rule:nonzero;"/>
    <path d="M39.51,6.114L41.491,52.82L61.06,58.472L57.817,33.186L54.791,9.597L39.51,6.114Z" style="fill:#f3775b;fill-rule:nonzero;"/>
    <path d="M10.021,6.114L4.03,52.82L22.575,59.886L24.67,10.463L10.021,6.114Z" style="fill:#2b307e;fill-opacity:0.23;fill-rule:nonzero;"/>
    <path d="M39.51,6.114L41.491,52.82L61.06,58.472L57.817,33.186L54.791,9.597L39.51,6.114Z" style="fill:#2b307e;fill-opacity:0.23;fill-rule:nonzero;"/>
    <path d="M46.324,29.668L40.685,29.056L32.738,33.668L27.544,28.168L30.588,24.113" style="fill:none;stroke:#fff;stroke-opacity:0.88;stroke-width:1.5px;stroke-dasharray:3,3,0,0;"/>
    <path d="M30.824,34.668L29.77,40L23.441,39.447L17.184,37.744L15.756,42.19" style="fill:none;stroke:#fff;stroke-opacity:0.88;stroke-width:1.5px;stroke-dasharray:3,3,0,0;"/>
    <path d="M12.738,10L10.259,31.404C10.259,31.404 17.618,33.477 20.291,27.869C22.964,22.261 23.632,17.948 27.591,17.134C35.396,15.528 35.252,10.272 35.252,10.272L24.694,13.381L12.738,10Z" style="fill:#2b307e;"/>
    <clipPath id="_clip1">
        <path d="M12.738,10L10.259,31.404C10.259,31.404 17.618,33.477 20.291,27.869C22.964,22.261 23.632,17.948 27.591,17.134C35.396,15.528 35.252,10.272 35.252,10.272L24.694,13.381L12.738,10Z"/>
    </clipPath>
    <g clip-path="url(#_clip1)">
        <path d="M25.069,6.051L23.704,29.888L38.221,20.728L37.802,3.412L25.069,6.051Z" style="fill:#aaacdd;fill-opacity:0.66;"/>
    </g>
    <path d="M58.683,54.927L41.33,50.282L27.005,55.614C27.005,55.614 28.335,43.607 35.615,44.668C39.979,45.304 41.196,44.095 41.196,44.095C41.196,44.095 45.248,46.625 46.666,46.083C52.564,43.829 56.971,47.497 58.683,54.927Z" style="fill:#2b307e;"/>
    <clipPath id="_clip2">
        <path d="M58.683,54.927L41.33,50.282L27.005,55.614C27.005,55.614 28.335,43.607 35.615,44.668C39.979,45.304 41.196,44.095 41.196,44.095C41.196,44.095 45.248,46.625 46.666,46.083C52.564,43.829 56.971,47.497 58.683,54.927Z"/>
    </clipPath>
    <g clip-path="url(#_clip2)">
        <path d="M40.892,37.291L41.665,54.51L24.225,62.806L24.315,43.768L40.892,37.291Z" style="fill:#7f82bd;"/>
    </g>
    <path d="M50.739,28.286C52.197,27.864 53.755,28.812 54.216,30.403C54.676,31.993 53.867,33.627 52.409,34.049C50.951,34.472 49.393,33.523 48.933,31.933C48.472,30.343 49.282,28.709 50.739,28.286Z" style="fill:none;stroke:#ededf8;stroke-width:1.43px;"/>
    <path d="M11.614,41.555C12.967,41.286 14.327,42.387 14.649,44.011C14.972,45.635 14.134,47.172 12.781,47.44C11.427,47.709 10.067,46.608 9.745,44.984C9.423,43.36 10.26,41.823 11.614,41.555Z" style="fill:none;stroke:#ededf8;stroke-width:1.36px;"/>
    <path d="M30.588,18.298C31.451,16.885 33.115,16.326 34.301,17.05C35.488,17.775 35.751,19.51 34.888,20.923C34.025,22.337 32.362,22.896 31.175,22.171C29.989,21.447 29.726,19.712 30.588,18.298Z" style="fill:none;stroke:#fff;stroke-width:1.41px;"/>
</svg>
