<?xml version="1.0" encoding="UTF-8" standalone="no"?>
<!DOCTYPE svg PUBLIC "-//W3C//DTD SVG 1.1//EN" "http://www.w3.org/Graphics/SVG/1.1/DTD/svg11.dtd">
<svg width="100%" height="100%" viewBox="0 0 64 65" version="1.1" xmlns="http://www.w3.org/2000/svg" xmlns:xlink="http://www.w3.org/1999/xlink" xml:space="preserve" xmlns:serif="http://www.serif.com/" style="fill-rule:evenodd;clip-rule:evenodd;stroke-linecap:round;stroke-miterlimit:1;">
    <rect id="Surveillance-PE" x="0" y="0.68" width="64" height="64" style="fill:none;"/>
    <path d="M6.295,58.68L12,19.993L50,18.68L56,60.68L41.704,58.68L22,60.68L6.295,58.68Z" style="fill:#c7ccd1;fill-opacity:0.239216;"/>
    <path d="M9.283,6.794L3.292,53.5L21.836,60.566L23.932,11.143L9.283,6.794Z" style="fill:#00974e;fill-rule:nonzero;"/>
    <path d="M38.95,6.794L23.932,11.143L21.836,60.566L40.98,53.5L38.95,6.794Z" style="fill:#39b54a;fill-rule:nonzero;"/>
    <path d="M38.772,6.794L40.753,53.5L60.322,59.151L57.079,33.866L54.052,10.277L38.772,6.794Z" style="fill:#00974e;fill-rule:nonzero;"/>
    <path d="M45.586,30.348L39.947,29.735L32,34.348L26.805,28.848L29.85,24.793" style="fill:none;stroke:#fff;stroke-width:1.5px;stroke-dasharray:3,3,0,0;"/>
    <path d="M30.086,35.348L29.032,40.68L22.703,40.127L16.446,38.424L15.018,42.87" style="fill:none;stroke:#fff;stroke-width:1.5px;stroke-dasharray:3,3,0,0;"/>
    <path d="M12,10.68L9.521,32.084C9.521,32.084 16.88,34.157 19.552,28.549C22.225,22.941 21.06,17.997 25.019,17.182C32.824,15.576 34.513,10.952 34.513,10.952L23.956,14.061L12,10.68Z" style="fill:#c4c0e0;"/>
    <clipPath id="_clip1">
        <path d="M12,10.68L9.521,32.084C9.521,32.084 16.88,34.157 19.552,28.549C22.225,22.941 21.06,17.997 25.019,17.182C32.824,15.576 34.513,10.952 34.513,10.952L23.956,14.061L12,10.68Z"/>
    </clipPath>
    <g clip-path="url(#_clip1)">
        <path d="M24.331,6.731L22.965,30.568L37.483,21.408L37.064,4.092L24.331,6.731Z" style="fill:#d9def0;"/>
    </g>
    <path d="M57.944,55.607L40.591,50.961L26.267,56.294C26.267,56.294 27.597,44.287 34.877,45.348C39.24,45.984 40.457,44.775 40.457,44.775C40.457,44.775 44.51,47.305 45.928,46.763C51.826,44.509 56.233,48.177 57.944,55.607Z" style="fill:#c3c0e7;"/>
    <clipPath id="_clip2">
        <path d="M57.944,55.607L40.591,50.961L26.267,56.294C26.267,56.294 27.597,44.287 34.877,45.348C39.24,45.984 40.457,44.775 40.457,44.775C40.457,44.775 44.51,47.305 45.928,46.763C51.826,44.509 56.233,48.177 57.944,55.607Z"/>
    </clipPath>
    <g clip-path="url(#_clip2)">
        <path d="M40.154,37.971L40.927,55.19L23.487,63.486L23.577,44.448L40.154,37.971Z" style="fill:#e1deef;"/>
    </g>
    <path d="M50.001,28.966C51.459,28.544 53.017,29.492 53.477,31.083C53.938,32.673 53.128,34.307 51.671,34.729C50.213,35.152 48.655,34.203 48.194,32.613C47.734,31.023 48.543,29.389 50.001,28.966Z" style="fill:none;stroke:#fff;stroke-width:1.43px;"/>
    <path d="M10.875,42.235C12.229,41.966 13.589,43.067 13.911,44.691C14.233,46.315 13.396,47.852 12.043,48.12C10.689,48.388 9.329,47.288 9.007,45.664C8.685,44.04 9.522,42.503 10.875,42.235Z" style="fill:none;stroke:#fff;stroke-width:1.36px;"/>
    <path d="M29.85,18.978C30.713,17.565 32.377,17.006 33.563,17.73C34.75,18.455 35.013,20.19 34.15,21.603C33.287,23.016 31.623,23.576 30.437,22.851C29.25,22.127 28.987,20.392 29.85,18.978Z" style="fill:none;stroke:#fff;stroke-width:1.41px;"/>
</svg>
