<?xml version="1.0" encoding="UTF-8" standalone="no"?>
<!DOCTYPE svg PUBLIC "-//W3C//DTD SVG 1.1//EN" "http://www.w3.org/Graphics/SVG/1.1/DTD/svg11.dtd">
<svg width="100%" height="100%" viewBox="0 0 64 65" version="1.1" xmlns="http://www.w3.org/2000/svg" xmlns:xlink="http://www.w3.org/1999/xlink" xml:space="preserve" xmlns:serif="http://www.serif.com/" style="fill-rule:evenodd;clip-rule:evenodd;stroke-linecap:round;stroke-miterlimit:1;">
    <rect id="Surveillance-PE" x="0" y="0.888" width="64" height="64" style="fill:none;"/>
    <path d="M6.295,58.888L12,20.201L50,18.888L56,60.888L41.704,58.888L22,60.888L6.295,58.888Z" style="fill:#c7ccd1;fill-opacity:0.239216;"/>
    <path d="M9.283,7.001L3.292,53.707L21.836,60.774L23.932,11.35L9.283,7.001Z" style="fill:#cbccd1;fill-rule:nonzero;"/>
    <path d="M38.95,7.001L23.932,11.35L21.836,60.774L40.98,53.707L38.95,7.001Z" style="fill:#e3e6e8;fill-rule:nonzero;"/>
    <path d="M38.772,7.001L40.753,53.707L60.322,59.359L57.079,34.074L54.052,10.484L38.772,7.001Z" style="fill:#ced0d8;fill-rule:nonzero;"/>
    <path d="M45.586,30.555L39.947,29.943L32,34.555L26.805,29.055L29.85,25.001" style="fill:none;stroke:#329f46;stroke-width:1.5px;stroke-dasharray:3,3,0,0;"/>
    <path d="M30.086,35.555L29.032,40.888L22.703,40.335L16.446,38.632L15.018,43.077" style="fill:none;stroke:#329f46;stroke-width:1.5px;stroke-dasharray:3,3,0,0;"/>
    <path d="M12,10.888L9.521,32.292C9.521,32.292 16.88,34.365 19.552,28.757C22.225,23.149 22.894,18.836 26.853,18.021C34.657,16.415 34.513,11.159 34.513,11.159L23.956,14.269L12,10.888Z" style="fill:#d7def2;"/>
    <clipPath id="_clip1">
        <path d="M12,10.888L9.521,32.292C9.521,32.292 16.88,34.365 19.552,28.757C22.225,23.149 22.894,18.836 26.853,18.021C34.657,16.415 34.513,11.159 34.513,11.159L23.956,14.269L12,10.888Z"/>
    </clipPath>
    <g clip-path="url(#_clip1)">
        <path d="M24.331,6.938L22.965,30.775L37.483,21.616L37.064,4.3L24.331,6.938Z" style="fill:#fff;"/>
    </g>
    <path d="M57.944,55.815L40.591,51.169L26.267,56.502C26.267,56.502 27.597,44.495 34.877,45.556C39.24,46.192 40.457,44.983 40.457,44.983C40.457,44.983 44.51,47.512 45.928,46.97C51.826,44.717 56.233,48.384 57.944,55.815Z" style="fill:#d7def2;"/>
    <clipPath id="_clip2">
        <path d="M57.944,55.815L40.591,51.169L26.267,56.502C26.267,56.502 27.597,44.495 34.877,45.556C39.24,46.192 40.457,44.983 40.457,44.983C40.457,44.983 44.51,47.512 45.928,46.97C51.826,44.717 56.233,48.384 57.944,55.815Z"/>
    </clipPath>
    <g clip-path="url(#_clip2)">
        <path d="M40.154,38.178L40.927,55.397L23.487,63.694L23.577,44.655L40.154,38.178Z" style="fill:#fff;"/>
    </g>
    <path d="M50.001,29.174C51.459,28.752 53.017,29.7 53.477,31.29C53.938,32.881 53.128,34.515 51.671,34.937C50.213,35.359 48.655,34.411 48.194,32.821C47.734,31.23 48.543,29.596 50.001,29.174Z" style="fill:none;stroke:#329f46;stroke-width:1.43px;"/>
    <path d="M10.875,42.442C12.229,42.174 13.589,43.275 13.911,44.899C14.233,46.523 13.396,48.059 12.043,48.328C10.689,48.596 9.329,47.495 9.007,45.871C8.685,44.247 9.522,42.711 10.875,42.442Z" style="fill:none;stroke:#329f46;stroke-width:1.36px;"/>
    <path d="M29.85,19.186C30.713,17.773 32.377,17.214 33.563,17.938C34.75,18.662 35.013,20.398 34.15,21.811C33.287,23.224 31.623,23.783 30.437,23.059C29.25,22.335 28.987,20.599 29.85,19.186Z" style="fill:none;stroke:#329f46;stroke-width:1.41px;"/>
</svg>
