<?xml version="1.0" encoding="UTF-8" standalone="no"?>
<!DOCTYPE svg PUBLIC "-//W3C//DTD SVG 1.1//EN" "http://www.w3.org/Graphics/SVG/1.1/DTD/svg11.dtd">
<svg width="100%" height="100%" viewBox="0 0 64 65" version="1.1" xmlns="http://www.w3.org/2000/svg" xmlns:xlink="http://www.w3.org/1999/xlink" xml:space="preserve" xmlns:serif="http://www.serif.com/" style="fill-rule:evenodd;clip-rule:evenodd;stroke-linecap:round;stroke-miterlimit:1;">
    <rect id="Surveillance-muted" x="0" y="0.03" width="64" height="64" style="fill:none;"/>
    <path d="M6.295,58.03L12,19.343L50,18.03L56,60.03L41.704,58.03L22,60.03L6.295,58.03Z" style="fill:#c7ccd1;fill-opacity:0.239216;"/>
    <path d="M9.283,6.144L3.292,52.85L21.836,59.916L23.932,10.493L9.283,6.144Z" style="fill:#329f46;fill-rule:nonzero;"/>
    <path d="M38.95,6.144L23.932,10.493L21.836,59.916L40.98,52.85L38.95,6.144Z" style="fill:#3bbc53;fill-rule:nonzero;"/>
    <path d="M38.772,6.144L40.753,52.85L60.322,58.502L57.079,33.217L54.052,9.627L38.772,6.144Z" style="fill:#329f46;fill-rule:nonzero;"/>
    <path d="M45.586,29.698L39.947,29.086L32,33.698L26.805,28.198L29.85,24.144" style="fill:none;stroke:#fff;stroke-width:1.5px;stroke-dasharray:3,3,0,0;"/>
    <path d="M30.086,34.698L29.032,40.03L22.703,39.477L16.446,37.775L15.018,42.22" style="fill:none;stroke:#fff;stroke-width:1.5px;stroke-dasharray:3,3,0,0;"/>
    <path d="M12,10.03L9.521,31.434C9.521,31.434 16.88,33.507 19.552,27.899C22.225,22.292 22.894,17.978 26.853,17.164C34.657,15.558 34.513,10.302 34.513,10.302L23.956,13.412L12,10.03Z" style="fill:#d7def2;"/>
    <clipPath id="_clip1">
        <path d="M12,10.03L9.521,31.434C9.521,31.434 16.88,33.507 19.552,27.899C22.225,22.292 22.894,17.978 26.853,17.164C34.657,15.558 34.513,10.302 34.513,10.302L23.956,13.412L12,10.03Z"/>
    </clipPath>
    <g clip-path="url(#_clip1)">
        <path d="M24.331,6.081L22.965,29.918L37.483,20.758L37.064,3.442L24.331,6.081Z" style="fill:#fff;"/>
    </g>
    <path d="M57.944,54.958L40.591,50.312L26.267,55.644C26.267,55.644 27.597,43.638 34.877,44.699C39.24,45.335 40.457,44.125 40.457,44.125C40.457,44.125 44.51,46.655 45.928,46.113C51.826,43.859 56.233,47.527 57.944,54.958Z" style="fill:#d7def2;"/>
    <clipPath id="_clip2">
        <path d="M57.944,54.958L40.591,50.312L26.267,55.644C26.267,55.644 27.597,43.638 34.877,44.699C39.24,45.335 40.457,44.125 40.457,44.125C40.457,44.125 44.51,46.655 45.928,46.113C51.826,43.859 56.233,47.527 57.944,54.958Z"/>
    </clipPath>
    <g clip-path="url(#_clip2)">
        <path d="M40.154,37.321L40.927,54.54L23.487,62.837L23.577,43.798L40.154,37.321Z" style="fill:#fff;"/>
    </g>
    <path d="M50.001,28.317C51.459,27.894 53.017,28.843 53.477,30.433C53.938,32.023 53.128,33.657 51.671,34.08C50.213,34.502 48.655,33.554 48.194,31.963C47.734,30.373 48.543,28.739 50.001,28.317Z" style="fill:none;stroke:#fff;stroke-width:1.43px;"/>
    <path d="M10.875,41.585C12.229,41.317 13.589,42.417 13.911,44.041C14.233,45.665 13.396,47.202 12.043,47.47C10.689,47.739 9.329,46.638 9.007,45.014C8.685,43.39 9.522,41.853 10.875,41.585Z" style="fill:none;stroke:#fff;stroke-width:1.36px;"/>
    <path d="M29.85,18.329C30.713,16.915 32.377,16.356 33.563,17.081C34.75,17.805 35.013,19.54 34.15,20.954C33.287,22.367 31.623,22.926 30.437,22.202C29.25,21.477 28.987,19.742 29.85,18.329Z" style="fill:none;stroke:#fff;stroke-width:1.41px;"/>
</svg>
