<?xml version="1.0" encoding="UTF-8" standalone="no"?>
<!DOCTYPE svg PUBLIC "-//W3C//DTD SVG 1.1//EN" "http://www.w3.org/Graphics/SVG/1.1/DTD/svg11.dtd">
<svg width="100%" height="100%" viewBox="0 0 64 65" version="1.1" xmlns="http://www.w3.org/2000/svg" xmlns:xlink="http://www.w3.org/1999/xlink" xml:space="preserve" xmlns:serif="http://www.serif.com/" style="fill-rule:evenodd;clip-rule:evenodd;stroke-linecap:round;stroke-miterlimit:1;">
    <rect id="Surveillance-muted" x="0" y="0.732" width="64" height="64" style="fill:none;"/>
    <path d="M6.295,58.732L12,20.045L50,18.732L56,60.732L41.704,58.732L22,60.732L6.295,58.732Z" style="fill:#c7ccd1;fill-opacity:0.239216;"/>
    <path d="M9.283,6.846L3.292,53.552L21.836,60.618L23.932,11.195L9.283,6.846Z" style="fill:#cdd0da;fill-rule:nonzero;"/>
    <path d="M38.95,6.846L23.932,11.195L21.836,60.618L40.98,53.552L38.95,6.846Z" style="fill:#e3e6e8;fill-rule:nonzero;"/>
    <path d="M38.772,6.846L40.753,53.552L60.322,59.204L57.079,33.918L54.052,10.329L38.772,6.846Z" style="fill:#cdd0da;fill-rule:nonzero;"/>
    <path d="M45.586,30.4L39.947,29.788L32,34.4L26.805,28.9L29.85,24.845" style="fill:none;stroke:#407bbf;stroke-opacity:0.878431;stroke-width:1.5px;stroke-dasharray:3,3,0,0;"/>
    <path d="M30.086,35.4L29.032,40.732L22.703,40.179L16.446,38.476L15.018,42.922" style="fill:none;stroke:#407bbf;stroke-opacity:0.878431;stroke-width:1.5px;stroke-dasharray:3,3,0,0;"/>
    <path d="M12,10.732L9.521,32.136C9.521,32.136 16.88,34.209 19.552,28.601C22.225,22.994 22.894,18.68 26.853,17.866C34.657,16.26 34.513,11.004 34.513,11.004L23.956,14.114L12,10.732Z" style="fill:#d7def2;"/>
    <clipPath id="_clip1">
        <path d="M12,10.732L9.521,32.136C9.521,32.136 16.88,34.209 19.552,28.601C22.225,22.994 22.894,18.68 26.853,17.866C34.657,16.26 34.513,11.004 34.513,11.004L23.956,14.114L12,10.732Z"/>
    </clipPath>
    <g clip-path="url(#_clip1)">
        <path d="M24.331,6.783L22.965,30.62L37.483,21.46L37.064,4.144L24.331,6.783Z" style="fill:#fff;fill-opacity:0.662745;"/>
    </g>
    <path d="M57.944,55.659L40.591,51.014L26.267,56.346C26.267,56.346 27.597,44.339 34.877,45.4C39.24,46.036 40.457,44.827 40.457,44.827C40.457,44.827 44.51,47.357 45.928,46.815C51.826,44.561 56.233,48.229 57.944,55.659Z" style="fill:#d7def2;"/>
    <clipPath id="_clip2">
        <path d="M57.944,55.659L40.591,51.014L26.267,56.346C26.267,56.346 27.597,44.339 34.877,45.4C39.24,46.036 40.457,44.827 40.457,44.827C40.457,44.827 44.51,47.357 45.928,46.815C51.826,44.561 56.233,48.229 57.944,55.659Z"/>
    </clipPath>
    <g clip-path="url(#_clip2)">
        <path d="M40.154,38.023L40.927,55.242L23.487,63.538L23.577,44.5L40.154,38.023Z" style="fill:#fff;"/>
    </g>
    <path d="M50.001,29.018C51.459,28.596 53.017,29.544 53.477,31.135C53.938,32.725 53.128,34.359 51.671,34.781C50.213,35.204 48.655,34.255 48.194,32.665C47.734,31.075 48.543,29.441 50.001,29.018Z" style="fill:none;stroke:#407bbf;stroke-width:1.43px;"/>
    <path d="M10.875,42.287C12.229,42.018 13.589,43.119 13.911,44.743C14.233,46.367 13.396,47.904 12.043,48.172C10.689,48.441 9.329,47.34 9.007,45.716C8.685,44.092 9.522,42.555 10.875,42.287Z" style="fill:none;stroke:#407bbf;stroke-width:1.36px;"/>
    <path d="M29.85,19.031C30.713,17.617 32.377,17.058 33.563,17.782C34.75,18.507 35.013,20.242 34.15,21.655C33.287,23.069 31.623,23.628 30.437,22.904C29.25,22.179 28.987,20.444 29.85,19.031Z" style="fill:none;stroke:#407bbf;stroke-width:1.41px;"/>
</svg>
