<?xml version="1.0" encoding="UTF-8" standalone="no"?>
<!DOCTYPE svg PUBLIC "-//W3C//DTD SVG 1.1//EN" "http://www.w3.org/Graphics/SVG/1.1/DTD/svg11.dtd">
<svg width="100%" height="100%" viewBox="0 0 64 65" version="1.1" xmlns="http://www.w3.org/2000/svg" xmlns:xlink="http://www.w3.org/1999/xlink" xml:space="preserve" xmlns:serif="http://www.serif.com/" style="fill-rule:evenodd;clip-rule:evenodd;stroke-linecap:round;stroke-miterlimit:1;">
    <rect id="Surveillance-muted" x="0" y="0.825" width="64" height="64" style="fill:none;"/>
    <path d="M6.295,58.825L12,20.138L50,18.825L56,60.825L41.704,58.825L22,60.825L6.295,58.825Z" style="fill:#c7ccd1;fill-opacity:0.239216;"/>
    <path d="M9.283,6.938L3.292,53.644L21.836,60.711L23.932,11.287L9.283,6.938Z" style="fill:#329f46;fill-rule:nonzero;"/>
    <path d="M38.95,6.938L23.932,11.287L21.836,60.711L40.98,53.644L38.95,6.938Z" style="fill:#3bbc53;fill-rule:nonzero;"/>
    <path d="M38.772,6.938L40.753,53.644L60.322,59.296L57.079,34.011L54.052,10.421L38.772,6.938Z" style="fill:#329f46;fill-rule:nonzero;"/>
    <path d="M45.586,30.492L39.947,29.88L32,34.492L26.805,28.992L29.85,24.938" style="fill:none;stroke:#fff;stroke-width:1.5px;stroke-dasharray:3,3,0,0;"/>
    <path d="M30.086,35.492L29.032,40.825L22.703,40.272L16.446,38.569L15.018,43.014" style="fill:none;stroke:#fff;stroke-width:1.5px;stroke-dasharray:3,3,0,0;"/>
    <path d="M12,10.825L9.521,32.229C9.521,32.229 16.88,34.302 19.552,28.694C22.225,23.086 22.894,18.773 26.853,17.958C34.657,16.352 34.513,11.096 34.513,11.096L23.956,14.206L12,10.825Z" style="fill:#d7def2;"/>
    <clipPath id="_clip1">
        <path d="M12,10.825L9.521,32.229C9.521,32.229 16.88,34.302 19.552,28.694C22.225,23.086 22.894,18.773 26.853,17.958C34.657,16.352 34.513,11.096 34.513,11.096L23.956,14.206L12,10.825Z"/>
    </clipPath>
    <g clip-path="url(#_clip1)">
        <path d="M24.331,6.875L22.965,30.712L37.483,21.553L37.064,4.237L24.331,6.875Z" style="fill:#fff;"/>
    </g>
    <path d="M57.944,55.752L40.591,51.106L26.267,56.439C26.267,56.439 27.597,44.432 34.877,45.493C39.24,46.129 40.457,44.92 40.457,44.92C40.457,44.92 44.51,47.449 45.928,46.907C51.826,44.654 56.233,48.321 57.944,55.752Z" style="fill:#d7def2;"/>
    <clipPath id="_clip2">
        <path d="M57.944,55.752L40.591,51.106L26.267,56.439C26.267,56.439 27.597,44.432 34.877,45.493C39.24,46.129 40.457,44.92 40.457,44.92C40.457,44.92 44.51,47.449 45.928,46.907C51.826,44.654 56.233,48.321 57.944,55.752Z"/>
    </clipPath>
    <g clip-path="url(#_clip2)">
        <path d="M40.154,38.115L40.927,55.334L23.487,63.631L23.577,44.592L40.154,38.115Z" style="fill:#fff;"/>
    </g>
    <path d="M50.001,29.111C51.459,28.689 53.017,29.637 53.477,31.227C53.938,32.818 53.128,34.452 51.671,34.874C50.213,35.296 48.655,34.348 48.194,32.758C47.734,31.167 48.543,29.533 50.001,29.111Z" style="fill:none;stroke:#fff;stroke-width:1.43px;"/>
    <path d="M10.875,42.379C12.229,42.111 13.589,43.212 13.911,44.836C14.233,46.46 13.396,47.996 12.043,48.265C10.689,48.533 9.329,47.432 9.007,45.808C8.685,44.184 9.522,42.648 10.875,42.379Z" style="fill:none;stroke:#fff;stroke-width:1.36px;"/>
    <path d="M29.85,19.123C30.713,17.71 32.377,17.151 33.563,17.875C34.75,18.599 35.013,20.335 34.15,21.748C33.287,23.161 31.623,23.72 30.437,22.996C29.25,22.272 28.987,20.536 29.85,19.123Z" style="fill:none;stroke:#fff;stroke-width:1.41px;"/>
</svg>
