<?xml version="1.0" encoding="UTF-8" standalone="no"?>
<!DOCTYPE svg PUBLIC "-//W3C//DTD SVG 1.1//EN" "http://www.w3.org/Graphics/SVG/1.1/DTD/svg11.dtd">
<svg width="100%" height="100%" viewBox="0 0 65 65" version="1.1" xmlns="http://www.w3.org/2000/svg" xmlns:xlink="http://www.w3.org/1999/xlink" xml:space="preserve" xmlns:serif="http://www.serif.com/" style="fill-rule:evenodd;clip-rule:evenodd;stroke-linejoin:round;stroke-miterlimit:1.41421;">
    <rect id="Systolic" x="0.626" y="0.024" width="64" height="64" style="fill:none;"/>
    <g>
        <g>
            <path id="Love" d="M20.17,8.575C19.921,8.575 19.672,8.575 19.423,8.575C14.822,8.825 10.346,11.575 7.61,15.7C5.123,19.575 4.501,24.199 5.993,28.199C7.734,32.949 12.087,37.199 15.942,40.948C16.812,41.823 17.683,42.698 18.429,43.448C21.164,46.198 23.9,48.823 26.512,51.323C28.004,52.698 29.496,54.198 30.989,55.698L32.605,57.323L34.346,55.823C39.32,51.573 44.294,46.823 49.144,41.698C49.642,41.198 50.139,40.573 50.761,40.074C54.367,36.324 58.968,31.699 59.963,26.074C60.709,21.449 59.59,16.95 56.854,13.7C54.243,10.575 50.388,8.825 46.16,8.825C45.911,8.825 45.787,8.825 45.538,8.825C38.823,9.075 34.844,12.45 32.481,15.45C30.242,12.325 26.139,8.575 20.17,8.575Z" style="fill:#f3775b;"/>
        </g>
        <path d="M31.822,47.821L28.199,44.594L26.638,46.347L33.003,52.018L39.369,46.347L37.808,44.594L34.185,47.821L34.185,34.841L31.822,34.841L31.822,47.821Z" style="fill:#fff;"/>
        <path d="M52.616,19.847L51.624,24.637L53.942,25.117L55.684,16.7L47.523,14L46.78,16.247L51.424,17.783L40.089,24.328L41.281,26.391L52.616,19.847Z" style="fill:#fff;"/>
        <path d="M13.221,19.814L14.203,24.554L11.909,25.028L10.185,16.7L18.26,14.029L18.996,16.252L14.4,17.772L25.616,24.247L24.437,26.289L13.221,19.814Z" style="fill:#fff;"/>
    </g>
</svg>
