<?xml version="1.0" encoding="UTF-8" standalone="no"?>
<!DOCTYPE svg PUBLIC "-//W3C//DTD SVG 1.1//EN" "http://www.w3.org/Graphics/SVG/1.1/DTD/svg11.dtd">
<svg width="100%" height="100%" viewBox="0 0 65 64" version="1.1" xmlns="http://www.w3.org/2000/svg" xmlns:xlink="http://www.w3.org/1999/xlink" xml:space="preserve" xmlns:serif="http://www.serif.com/" style="fill-rule:evenodd;clip-rule:evenodd;stroke-linejoin:round;stroke-miterlimit:2;">
    <rect id="Tax-Percentage" x="0.738" y="0" width="64" height="64" style="fill:none;"/>
    <circle cx="32.738" cy="32" r="28" style="fill:#2b307e;"/>
    <clipPath id="_clip1">
        <circle cx="32.738" cy="32" r="28"/>
    </clipPath>
    <g clip-path="url(#_clip1)">
        <path d="M33.051,32L77.026,9.452L77.075,54.452L33.051,32Z" style="fill:#f3775b;"/>
    </g>
    <path d="M42.998,18.852L38.577,18.852L23.064,46L27.486,46L42.998,18.852ZM24.073,18.348C20.194,18.348 17.363,21.257 17.363,25.174C17.363,29.091 20.194,31.961 24.073,31.961C27.835,31.961 30.704,29.091 30.704,25.174C30.704,21.257 27.835,18.348 24.073,18.348ZM24.034,21.606C25.934,21.606 27.253,23.118 27.253,25.174C27.253,27.152 25.934,28.703 24.034,28.703C22.134,28.703 20.776,27.152 20.776,25.174C20.776,23.118 22.134,21.606 24.034,21.606ZM42.068,32.892C38.228,32.892 35.358,35.839 35.358,39.756C35.358,43.673 38.228,46.504 42.068,46.504C45.83,46.504 48.738,43.673 48.738,39.756C48.738,35.839 45.83,32.892 42.068,32.892ZM42.068,36.149C43.929,36.149 45.287,37.701 45.287,39.717C45.287,41.734 43.929,43.246 42.068,43.246C40.129,43.246 38.771,41.734 38.771,39.717C38.771,37.701 40.129,36.149 42.068,36.149Z" style="fill:#fff;fill-rule:nonzero;"/>
</svg>
