<?xml version="1.0" encoding="UTF-8" standalone="no"?>
<!DOCTYPE svg PUBLIC "-//W3C//DTD SVG 1.1//EN" "http://www.w3.org/Graphics/SVG/1.1/DTD/svg11.dtd">
<svg width="100%" height="100%" viewBox="0 0 64 64" version="1.1" xmlns="http://www.w3.org/2000/svg" xmlns:xlink="http://www.w3.org/1999/xlink" xml:space="preserve" xmlns:serif="http://www.serif.com/" style="fill-rule:evenodd;clip-rule:evenodd;stroke-linejoin:round;stroke-miterlimit:1.41421;">
    <rect id="Tax-Percentage" x="0" y="0" width="64" height="64" style="fill:none;"/>
    <circle cx="32" cy="32" r="28" style="fill:#2b307e;"/>
    <clipPath id="_clip1">
        <circle cx="32" cy="32" r="28"/>
    </clipPath>
    <g clip-path="url(#_clip1)">
        <path d="M32.313,32L76.288,9.452L76.337,54.452L32.313,32Z" style="fill:#f3775b;"/>
    </g>
    <path d="M42.26,18.852L37.839,18.852L22.326,46L26.747,46L42.26,18.852ZM23.334,18.348C19.456,18.348 16.625,21.257 16.625,25.174C16.625,29.091 19.456,31.961 23.334,31.961C27.096,31.961 29.966,29.091 29.966,25.174C29.966,21.257 27.096,18.348 23.334,18.348ZM23.296,21.606C25.196,21.606 26.515,23.118 26.515,25.174C26.515,27.152 25.196,28.703 23.296,28.703C21.395,28.703 20.038,27.152 20.038,25.174C20.038,23.118 21.395,21.606 23.296,21.606ZM41.329,32.892C37.49,32.892 34.62,35.839 34.62,39.756C34.62,43.673 37.49,46.504 41.329,46.504C45.091,46.504 48,43.673 48,39.756C48,35.839 45.091,32.892 41.329,32.892ZM41.329,36.149C43.191,36.149 44.548,37.701 44.548,39.717C44.548,41.734 43.191,43.246 41.329,43.246C39.39,43.246 38.033,41.734 38.033,39.717C38.033,37.701 39.39,36.149 41.329,36.149Z" style="fill:#fff;fill-rule:nonzero;"/>
</svg>
