<?xml version="1.0" encoding="UTF-8" standalone="no"?>
<!DOCTYPE svg PUBLIC "-//W3C//DTD SVG 1.1//EN" "http://www.w3.org/Graphics/SVG/1.1/DTD/svg11.dtd">
<svg width="100%" height="100%" viewBox="0 0 65 64" version="1.1" xmlns="http://www.w3.org/2000/svg" xmlns:xlink="http://www.w3.org/1999/xlink" xml:space="preserve" xmlns:serif="http://www.serif.com/" style="fill-rule:evenodd;clip-rule:evenodd;stroke-linejoin:round;stroke-miterlimit:2;">
    <rect id="Tax-Dollar" x="0.137" y="0" width="64" height="64" style="fill:none;"/>
    <circle cx="32.137" cy="32" r="28" style="fill:#f1765a;"/>
    <path d="M34.156,14.819L31.015,14.819L31.015,18.426C26.671,18.969 24.189,22.149 24.189,26.143C24.189,30.603 26.982,32.62 31.752,34.288C35.514,35.568 37.065,36.692 37.065,38.786C37.065,41.036 35.553,42.665 32.76,42.665C29.696,42.665 27.99,40.958 27.874,37.856L23.491,37.856C23.569,42.471 26.128,45.806 31.015,46.388L31.015,50.033L34.156,50.033L34.156,46.388C38.422,45.884 41.447,43.053 41.447,38.476C41.447,34.443 39.314,32.271 33.691,30.293C30.201,28.975 28.572,28.199 28.572,25.794C28.572,23.545 30.007,22.226 32.256,22.226C34.544,22.226 36.134,23.661 36.173,26.221L40.594,26.221C40.4,21.683 37.996,19.085 34.156,18.465L34.156,14.819Z" style="fill:#fff;fill-rule:nonzero;"/>
</svg>
