<?xml version="1.0" encoding="UTF-8" standalone="no"?>
<!DOCTYPE svg PUBLIC "-//W3C//DTD SVG 1.1//EN" "http://www.w3.org/Graphics/SVG/1.1/DTD/svg11.dtd">
<svg width="100%" height="100%" viewBox="0 0 65 65" version="1.1" xmlns="http://www.w3.org/2000/svg" xmlns:xlink="http://www.w3.org/1999/xlink" xml:space="preserve" xmlns:serif="http://www.serif.com/" style="fill-rule:evenodd;clip-rule:evenodd;stroke-linejoin:round;stroke-miterlimit:2;">
    <rect id="Teaspoon-salt" x="0.777" y="0.82" width="64" height="64" style="fill:none;"/>
    <path d="M14.83,42.353C19.442,39.853 21.986,38.326 24.334,36.024C33.713,26.833 28.199,12.092 26.453,7.567C25.9,6.135 26.536,4.428 27.348,3.487C28.16,2.545 29.342,2.004 30.585,2.004L34.968,2.004C36.211,2.004 37.393,2.545 38.205,3.487C39.017,4.428 39.653,6.135 39.1,7.567C37.354,12.092 31.84,26.833 41.219,36.024C43.567,38.326 46.111,39.853 50.723,42.353L32.777,49.444L14.83,42.353Z" style="fill:#f1765a;"/>
    <clipPath id="_clip1">
        <path d="M14.83,42.353C19.442,39.853 21.986,38.326 24.334,36.024C33.713,26.833 28.199,12.092 26.453,7.567C25.9,6.135 26.536,4.428 27.348,3.487C28.16,2.545 29.342,2.004 30.585,2.004L34.968,2.004C36.211,2.004 37.393,2.545 38.205,3.487C39.017,4.428 39.653,6.135 39.1,7.567C37.354,12.092 31.84,26.833 41.219,36.024C43.567,38.326 46.111,39.853 50.723,42.353L32.777,49.444L14.83,42.353Z"/>
    </clipPath>
    <g clip-path="url(#_clip1)">
        <path d="M41.005,2.004C41.005,2.004 36.861,2.574 35.72,6.801C34.55,11.136 33.802,15.167 34.152,24.77C34.503,34.373 36.071,38.857 53.181,42.349C63.736,44.503 44.157,0.82 44.157,0.82L41.005,2.004Z" style="fill:#d25950;"/>
    </g>
    <path d="M32.777,38.936C46.22,38.936 57.134,43.644 57.134,49.444C57.134,55.243 46.22,63.636 32.777,63.636C19.333,63.636 8.419,55.243 8.419,49.444C8.419,43.644 19.333,38.936 32.777,38.936Z" style="fill:#f1765a;"/>
    <clipPath id="_clip2">
        <path d="M32.777,38.936C46.22,38.936 57.134,43.644 57.134,49.444C57.134,55.243 46.22,63.636 32.777,63.636C19.333,63.636 8.419,55.243 8.419,49.444C8.419,43.644 19.333,38.936 32.777,38.936Z"/>
    </clipPath>
    <g clip-path="url(#_clip2)">
        <path d="M12.211,58.635C12.211,58.635 53.058,65.509 59.077,44.453L60.681,66.536L12.734,66.411L12.211,58.635Z" style="fill:#d25950;"/>
    </g>
    <path d="M61.932,23.316L4.006,23.316L4.006,44.789C4.006,44.789 9.684,54.968 32.969,54.968C55.272,54.968 61.932,44.789 61.932,44.789L61.932,23.316Z" style="fill:none;"/>
    <clipPath id="_clip3">
        <path d="M61.932,23.316L4.006,23.316L4.006,44.789C4.006,44.789 9.684,54.968 32.969,54.968C55.272,54.968 61.932,44.789 61.932,44.789L61.932,23.316Z"/>
    </clipPath>
    <g clip-path="url(#_clip3)">
        <g>
            <ellipse cx="32.843" cy="48.28" rx="22.829" ry="7.175" style="fill:#d25950;"/>
            <path d="M32.969,38.115C36.31,38.115 52.566,47.077 52.566,50.175C52.566,53.273 43.785,55.788 32.969,55.788C22.153,55.788 13.372,53.273 13.372,50.175C13.372,47.077 29.628,38.115 32.969,38.115Z" style="fill:#f9f9fb;"/>
            <clipPath id="_clip4">
                <path d="M32.969,38.115C36.31,38.115 52.566,47.077 52.566,50.175C52.566,53.273 43.785,55.788 32.969,55.788C22.153,55.788 13.372,53.273 13.372,50.175C13.372,47.077 29.628,38.115 32.969,38.115Z"/>
            </clipPath>
            <g clip-path="url(#_clip4)">
                <path d="M24.019,58.489C24.019,58.489 41.687,52.202 35.494,37.567L58.295,44.301L55.995,61.063L24.019,58.489Z" style="fill:#d2d4ea;"/>
            </g>
            <g>
                <circle cx="35.788" cy="48.688" r="0.807" style="fill:#f9f9fb;"/>
                <circle cx="38.17" cy="46.285" r="0.807" style="fill:#f9f9fb;"/>
                <circle cx="37.364" cy="42.576" r="0.807" style="fill:#f9f9fb;"/>
                <circle cx="36.557" cy="40.735" r="0.807" style="fill:#f9f9fb;"/>
                <circle cx="36.595" cy="46.285" r="0.807" style="fill:#f9f9fb;"/>
                <circle cx="36.557" cy="44.19" r="0.807" style="fill:#f9f9fb;"/>
                <circle cx="38.977" cy="49.494" r="0.807" style="fill:#f9f9fb;"/>
                <circle cx="34.131" cy="50.784" r="0.807" style="fill:#f9f9fb;"/>
                <circle cx="31.76" cy="51.55" r="0.501" style="fill:#d6d7e6;"/>
                <circle cx="27.471" cy="51.55" r="0.501" style="fill:#d6d7e6;"/>
                <circle cx="34.175" cy="47.759" r="0.807" style="fill:#d6d7e6;"/>
                <circle cx="34.96" cy="53.275" r="0.807" style="fill:#f9f9fb;"/>
                <circle cx="30.953" cy="42.349" r="0.807" style="fill:#fff;"/>
                <circle cx="32.795" cy="39.928" r="0.807" style="fill:#fff;"/>
                <circle cx="28.026" cy="40.961" r="0.807" style="fill:#fff;"/>
                <circle cx="31.728" cy="45.029" r="0.807" style="fill:#fff;"/>
                <circle cx="30.953" cy="54.647" r="0.807" style="fill:#f9f9fb;"/>
                <circle cx="31.988" cy="53.323" r="0.518" style="fill:#f9f9fb;"/>
            </g>
        </g>
    </g>
    <path d="M29.955,14.051L29.957,14.059L29.906,13.869L29.909,13.877L29.868,13.732L29.857,13.689L29.859,13.697L29.81,13.511L29.812,13.518L29.761,13.334L29.763,13.341L29.712,13.16L29.714,13.167L29.691,13.09L29.664,12.987L29.666,12.994L29.617,12.816L29.619,12.822L29.569,12.646L29.571,12.653L29.52,12.479L29.523,12.486L29.471,12.315L29.473,12.321L29.421,12.152L29.423,12.158L29.37,11.992L29.373,11.998L29.323,11.847L29.32,11.834L29.322,11.84L29.272,11.676L29.275,11.682L29.225,11.521L29.227,11.526L29.177,11.368L29.179,11.373L29.128,11.218L29.13,11.223L29.079,11.069L29.081,11.074L29.029,10.923L29.032,10.928L28.98,10.78L28.982,10.785L28.949,10.694L28.931,10.638L28.933,10.643L28.884,10.498L28.886,10.503L28.838,10.36L28.84,10.365L28.791,10.225L28.792,10.229L28.743,10.093L28.745,10.096L28.696,9.962L28.698,9.966L28.649,9.835L28.651,9.838L28.602,9.71L28.604,9.713L28.578,9.648L28.557,9.586L28.558,9.59L28.513,9.465L28.515,9.468L28.47,9.346L28.472,9.349L28.427,9.23L28.429,9.234L28.341,9.004L28.344,9.009L28.257,8.791L28.26,8.796L28.175,8.589L28.177,8.594L28.095,8.399L28.097,8.403L28.017,8.22L28.02,8.224L27.943,8.054L27.945,8.057L27.911,7.983L27.875,7.898L27.877,7.901L27.812,7.754L27.814,7.757L27.753,7.622L27.755,7.625L27.699,7.504L27.701,7.506L27.65,7.398L27.651,7.4L27.606,7.306L27.607,7.308L27.567,7.228L27.568,7.23L27.535,7.164L27.537,7.166L27.49,7.078L27.49,7.078L27.492,7.08L27.476,7.05L27.512,6.766L27.796,6.801L27.821,6.824L27.824,6.827L27.896,6.896L27.897,6.898L27.95,6.949L27.952,6.951L28.015,7.014L28.016,7.016L28.09,7.09L28.091,7.092L28.174,7.177L28.175,7.18L28.268,7.276L28.269,7.279L28.37,7.386L28.372,7.389L28.481,7.508L28.482,7.511L28.544,7.58L28.597,7.642L28.599,7.645L28.718,7.789L28.721,7.792L28.846,7.947L28.849,7.951L28.98,8.116L28.983,8.121L29.12,8.297L29.122,8.302L29.265,8.489L29.268,8.495L29.414,8.693L29.417,8.697L29.492,8.8L29.493,8.803L29.569,8.909L29.571,8.912L29.648,9.02L29.649,9.024L29.687,9.078L29.725,9.136L29.727,9.139L29.802,9.255L29.804,9.258L29.879,9.376L29.881,9.38L29.957,9.501L29.959,9.505L30.036,9.628L30.038,9.632L30.115,9.758L30.117,9.763L30.194,9.891L30.196,9.896L30.274,10.027L30.276,10.031L30.306,10.081L30.353,10.166L30.355,10.171L30.43,10.309L30.432,10.313L30.507,10.454L30.509,10.459L30.584,10.602L30.587,10.607L30.662,10.753L30.664,10.758L30.739,10.906L30.742,10.912L30.817,11.062L30.819,11.068L30.894,11.221L30.896,11.227L30.902,11.239L30.967,11.384L30.969,11.39L31.039,11.55L31.041,11.556L31.111,11.719L31.113,11.725L31.182,11.89L31.185,11.896L31.253,12.063L31.256,12.07L31.324,12.239L31.326,12.246L31.394,12.418L31.396,12.425L31.434,12.525L31.461,12.6L31.463,12.607L31.525,12.785L31.527,12.793L31.588,12.973L31.59,12.98L31.65,13.163L31.652,13.171L31.666,13.213L31.709,13.357L31.711,13.364L31.766,13.553L31.768,13.561L31.821,13.751L31.823,13.759L31.866,13.917L31.877,13.96L31.925,14.156L31.927,14.164L31.973,14.363L31.975,14.371L32.019,14.572L32.021,14.58L32.052,14.723L32.063,14.783L32.065,14.791L32.104,14.996L32.106,15.005L32.143,15.212L32.145,15.221L32.18,15.43L32.182,15.439L32.216,15.651L32.218,15.659L32.222,15.686L32.247,15.873L32.249,15.882L32.277,16.098L32.278,16.107L32.304,16.325L32.305,16.333L32.329,16.554L32.33,16.562L32.352,16.785L32.353,16.793L32.373,17.017L32.374,17.026L32.392,17.252L32.393,17.261L32.409,17.489L32.41,17.497L32.424,17.727L32.424,17.736L32.435,17.945L32.436,17.968L32.436,17.976L32.443,18.21L32.444,18.218L32.448,18.454L32.448,18.462L32.45,18.7L32.451,18.708L32.45,18.948L32.451,18.956L32.448,19.197L32.448,19.205L32.442,19.448L32.442,19.456L32.434,19.7L32.434,19.708L32.423,19.955L32.423,19.963L32.41,20.211L32.41,20.218L32.393,20.468L32.393,20.476L32.372,20.727L32.372,20.735L32.348,20.987L32.348,20.995L32.321,21.249L32.32,21.257L32.291,21.513L32.29,21.52L32.257,21.778L32.257,21.785L32.221,22.044L32.22,22.051L32.181,22.312L32.18,22.318L32.138,22.581L32.137,22.586L32.115,22.717L32.114,22.72L32.091,22.852L32.09,22.856L32.066,22.988L32.065,22.999L32.04,23.124L32.04,23.127L32.013,23.26L32.013,23.263L31.985,23.397L31.985,23.4L31.957,23.533L31.956,23.536L31.927,23.671L31.926,23.674L31.896,23.808L31.896,23.811L31.865,23.946L31.864,23.949L31.833,24.084L31.832,24.087L31.799,24.222L31.799,24.225L31.765,24.361L31.765,24.363L31.73,24.499L31.73,24.502L31.694,24.639L31.694,24.641L31.657,24.778L31.657,24.781L31.619,24.918L31.619,24.92L31.58,25.058L31.58,25.06L31.541,25.198L31.54,25.2L31.5,25.338L31.499,25.341L31.458,25.479L31.458,25.482L31.416,25.62L31.415,25.623L31.372,25.762L31.371,25.764L31.327,25.903L31.327,25.905L31.282,26.045L31.281,26.047L31.235,26.187L31.234,26.189L31.187,26.329L31.187,26.332L31.139,26.472L31.138,26.474L31.089,26.615L31.088,26.617L31.038,26.758L31.038,26.76L30.987,26.901L30.986,26.903L30.934,27.045L30.933,27.047L30.906,27.12L30.88,27.189L30.879,27.19L30.824,27.332L30.824,27.334L30.768,27.476L30.767,27.478L30.71,27.621L30.71,27.622L30.652,27.765L30.651,27.767L30.592,27.91L30.592,27.911L30.531,28.055L30.531,28.056L30.47,28.2L30.469,28.201L30.407,28.345L30.406,28.347L30.343,28.491L30.342,28.492L30.277,28.637L30.277,28.638L30.241,28.717L30.211,28.782L29.948,28.905L29.832,28.639L29.853,28.57L29.879,28.487L29.878,28.488L29.924,28.336L29.923,28.338L29.968,28.186L29.967,28.188L30.01,28.037L30.01,28.038L30.052,27.888L30.052,27.889L30.093,27.739L30.093,27.74L30.133,27.591L30.132,27.592L30.171,27.443L30.171,27.445L30.209,27.296L30.209,27.297L30.246,27.149L30.245,27.151L30.281,27.003L30.281,27.004L30.298,26.933L30.316,26.857L30.316,26.859L30.35,26.712L30.35,26.714L30.383,26.567L30.383,26.569L30.416,26.423L30.415,26.425L30.447,26.279L30.446,26.281L30.477,26.136L30.477,26.138L30.506,25.993L30.506,25.995L30.535,25.851L30.534,25.853L30.562,25.709L30.561,25.711L30.588,25.567L30.588,25.57L30.614,25.426L30.613,25.429L30.638,25.286L30.638,25.288L30.662,25.146L30.661,25.148L30.685,25.007L30.684,25.009L30.707,24.868L30.706,24.87L30.727,24.729L30.727,24.732L30.747,24.591L30.747,24.594L30.767,24.453L30.766,24.456L30.785,24.316L30.784,24.319L30.802,24.18L30.802,24.183L30.819,24.044L30.818,24.047L30.834,23.908L30.834,23.911L30.849,23.773L30.849,23.776L30.863,23.639L30.863,23.642L30.876,23.504L30.876,23.507L30.889,23.371L30.888,23.374L30.9,23.238L30.9,23.241L30.911,23.105L30.911,23.108L30.921,22.973L30.92,22.976L30.929,22.849L30.93,22.841L30.93,22.845L30.939,22.71L30.939,22.714L30.947,22.58L30.947,22.583L30.955,22.45L30.954,22.455L30.968,22.19L30.967,22.196L30.978,21.933L30.977,21.94L30.985,21.678L30.984,21.686L30.989,21.426L30.988,21.433L30.99,21.175L30.989,21.183L30.988,20.927L30.988,20.934L30.984,20.68L30.984,20.688L30.977,20.436L30.977,20.436L30.977,20.443L30.969,20.193L30.969,20.201L30.958,19.953L30.958,19.961L30.946,19.714L30.946,19.722L30.93,19.478L30.93,19.486L30.912,19.244L30.913,19.252L30.892,19.012L30.893,19.02L30.87,18.781L30.87,18.79L30.845,18.553L30.846,18.562L30.819,18.327L30.819,18.336L30.79,18.103L30.791,18.112L30.788,18.089L30.761,17.881L30.762,17.89L30.731,17.661L30.732,17.67L30.699,17.443L30.7,17.452L30.664,17.227L30.665,17.236L30.628,17.014L30.63,17.022L30.591,16.802L30.592,16.81L30.551,16.592L30.552,16.601L30.51,16.385L30.511,16.393L30.467,16.18L30.469,16.188L30.428,16.003L30.423,15.976L30.425,15.985L30.38,15.775L30.382,15.783L30.335,15.575L30.337,15.584L30.289,15.378L30.291,15.386L30.242,15.183L30.244,15.191L30.229,15.132L30.195,14.989L30.197,14.997L30.148,14.798L30.15,14.806L30.1,14.608L30.102,14.616L30.051,14.421L30.053,14.429L30.043,14.394L30.003,14.235L30.005,14.243L29.955,14.051Z" style="fill:#fff;fill-opacity:0.49;"/>
    <path d="M28.202,4.733C28.202,4.733 30.479,2.07 36.502,3.636" style="fill:none;"/>
</svg>
