<?xml version="1.0" encoding="UTF-8" standalone="no"?>
<!DOCTYPE svg PUBLIC "-//W3C//DTD SVG 1.1//EN" "http://www.w3.org/Graphics/SVG/1.1/DTD/svg11.dtd">
<svg width="100%" height="100%" viewBox="0 0 65 65" version="1.1" xmlns="http://www.w3.org/2000/svg" xmlns:xlink="http://www.w3.org/1999/xlink" xml:space="preserve" xmlns:serif="http://www.serif.com/" style="fill-rule:evenodd;clip-rule:evenodd;stroke-linejoin:round;stroke-miterlimit:2;">
    <rect id="Teaspoon-salt" x="0.012" y="0.641" width="64" height="64" style="fill:none;"/>
    <clipPath id="_clip1">
        <rect x="0.012" y="0.641" width="64" height="64"/>
    </clipPath>
    <g clip-path="url(#_clip1)">
        <path d="M27.065,64.905C27.065,56.681 24.249,48.706 19.087,42.305C15.698,38.165 13.616,32.395 13.616,26.024C13.616,13.345 21.859,3.052 32.012,3.052C42.165,3.052 50.408,13.345 50.408,26.024C50.408,32.395 48.326,38.165 44.966,42.328C39.808,48.722 36.996,56.69 36.996,64.905C36.959,64.905 36.959,64.906 36.959,64.906L27.065,64.906L27.065,64.905Z" style="fill:#f1765a;"/>
        <clipPath id="_clip2">
            <path d="M27.065,64.905C27.065,56.681 24.249,48.706 19.087,42.305C15.698,38.165 13.616,32.395 13.616,26.024C13.616,13.345 21.859,3.052 32.012,3.052C42.165,3.052 50.408,13.345 50.408,26.024C50.408,32.395 48.326,38.165 44.966,42.328C39.808,48.722 36.996,56.69 36.996,64.905C36.959,64.905 36.959,64.906 36.959,64.906L27.065,64.906L27.065,64.905Z"/>
        </clipPath>
        <g clip-path="url(#_clip2)">
            <path d="M36.537,3.052C36.537,3.052 20.104,3.386 15.799,19.629C9.962,41.651 29.126,72.839 29.126,72.839L6.897,70.311L8.261,1.898C22.299,-0.657 29.079,1.413 36.537,3.052Z" style="fill:#f1b1af;"/>
            <path d="M6.897,70.311C6.897,70.311 11.396,2.663 10.969,19.461C10.408,41.53 28.802,48.533 29.773,59.976C30.805,72.131 29.126,72.839 29.126,72.839L6.897,70.311Z" style="fill:#d25950;"/>
            <path d="M32.012,1.763C32.012,1.763 51.818,9.013 48.792,26.495C45.668,44.545 36.624,44.124 35.395,59.976C34.452,72.139 36.042,72.839 36.042,72.839L58.271,70.311L56.907,1.898L32.012,1.763Z" style="fill:#d25950;"/>
        </g>
        <path d="M35.098,9.263C29.407,9.263 32.686,16.774 32.686,26.466C32.686,36.157 23.061,45.132 33.696,44.69C39.382,44.454 45.408,36.514 45.408,26.823C45.408,17.131 40.788,9.263 35.098,9.263Z" style="fill:#f1b1af;fill-opacity:0.52;"/>
        <path d="M28.394,9.263C34.085,9.263 30.806,16.774 30.806,26.466C30.806,36.157 34.729,44.688 31.085,44.706C25.394,44.735 18.084,36.514 18.084,26.823C18.084,17.131 22.704,9.263 28.394,9.263Z" style="fill:#d25950;"/>
        <ellipse cx="32.012" cy="24.198" rx="13.928" ry="16.899" style="fill:#d2d4ea;"/>
        <clipPath id="_clip3">
            <ellipse cx="32.012" cy="24.198" rx="13.928" ry="16.899"/>
        </clipPath>
        <g clip-path="url(#_clip3)">
            <path d="M26.207,4.551C33.895,4.551 37.918,11.453 37.918,20.78C37.918,30.107 33.118,40.442 25.431,40.442C17.744,40.442 12.279,30.777 12.279,21.45C12.279,12.123 18.52,4.551 26.207,4.551Z" style="fill:#f9f9fb;"/>
        </g>
        <g>
            <ellipse cx="38.905" cy="26.941" rx="1.153" ry="1.209" style="fill:#f9f9fb;"/>
            <ellipse cx="37.256" cy="20.565" rx="1.153" ry="1.209" style="fill:#f9f9fb;"/>
            <ellipse cx="37.011" cy="16.1" rx="1.153" ry="1.209" style="fill:#f9f9fb;"/>
            <ellipse cx="35.982" cy="12.754" rx="1.153" ry="1.209" style="fill:#f9f9fb;"/>
            <ellipse cx="34.417" cy="9.181" rx="1.153" ry="1.209" style="fill:#f9f9fb;"/>
            <ellipse cx="42.31" cy="23.341" rx="1.153" ry="1.209" style="fill:#f9f9fb;"/>
            <ellipse cx="41.157" cy="17.785" rx="1.153" ry="1.209" style="fill:#f9f9fb;"/>
            <ellipse cx="40.004" cy="15.026" rx="1.153" ry="1.209" style="fill:#f9f9fb;"/>
            <ellipse cx="40.059" cy="23.341" rx="1.153" ry="1.209" style="fill:#f9f9fb;"/>
            <ellipse cx="40.004" cy="20.203" rx="1.153" ry="1.209" style="fill:#f9f9fb;"/>
            <ellipse cx="43.463" cy="28.15" rx="1.153" ry="1.209" style="fill:#f9f9fb;"/>
            <ellipse cx="36.537" cy="30.083" rx="1.153" ry="1.209" style="fill:#f9f9fb;"/>
            <ellipse cx="37.433" cy="27.836" rx="1.153" ry="1.209" style="fill:#f9f9fb;"/>
            <ellipse cx="35.094" cy="34.025" rx="1.153" ry="1.209" style="fill:#f9f9fb;"/>
            <ellipse cx="30.509" cy="37.587" rx="1.153" ry="1.209" style="fill:#f9f9fb;"/>
            <ellipse cx="33.148" cy="32.641" rx="0.716" ry="0.751" style="fill:#d6d7e6;"/>
            <ellipse cx="27.018" cy="31.23" rx="0.716" ry="0.751" style="fill:#d6d7e6;"/>
            <ellipse cx="37.014" cy="22.735" rx="0.716" ry="0.751" style="fill:#d6d7e6;"/>
            <ellipse cx="37.536" cy="18.143" rx="0.716" ry="0.751" style="fill:#d6d7e6;"/>
            <ellipse cx="35.501" cy="17.327" rx="0.716" ry="0.751" style="fill:#d6d7e6;"/>
            <ellipse cx="36.793" cy="14.206" rx="0.716" ry="0.751" style="fill:#d6d7e6;"/>
            <ellipse cx="35.565" cy="10.89" rx="0.716" ry="0.751" style="fill:#d6d7e6;"/>
            <ellipse cx="36.599" cy="25.55" rx="1.153" ry="1.209" style="fill:#d6d7e6;"/>
            <ellipse cx="33.704" cy="28.584" rx="1.153" ry="1.209" style="fill:#d6d7e6;"/>
            <ellipse cx="37.721" cy="33.814" rx="1.153" ry="1.209" style="fill:#f9f9fb;"/>
            <ellipse cx="31.995" cy="17.444" rx="1.153" ry="1.209" style="fill:#fff;"/>
            <ellipse cx="34.627" cy="13.817" rx="1.153" ry="1.209" style="fill:#fff;"/>
            <ellipse cx="27.81" cy="15.365" rx="1.153" ry="1.209" style="fill:#fff;"/>
            <ellipse cx="30.152" cy="10.886" rx="1.153" ry="1.209" style="fill:#fff;"/>
            <ellipse cx="23.114" cy="15.889" rx="1.153" ry="1.209" style="fill:#fff;"/>
            <ellipse cx="26.793" cy="21.287" rx="1.153" ry="1.209" style="fill:#fff;"/>
            <ellipse cx="26.565" cy="14" rx="1.153" ry="1.209" style="fill:#fff;"/>
            <ellipse cx="31.339" cy="15.587" rx="1.153" ry="1.209" style="fill:#fff;"/>
            <ellipse cx="27.656" cy="11.963" rx="1.153" ry="1.209" style="fill:#fff;"/>
            <ellipse cx="29.711" cy="14.113" rx="1.153" ry="1.209" style="fill:#fff;"/>
            <ellipse cx="26" cy="19.445" rx="1.153" ry="1.209" style="fill:#fff;"/>
            <ellipse cx="23.455" cy="20.623" rx="1.153" ry="1.209" style="fill:#fff;"/>
            <ellipse cx="27.593" cy="22.799" rx="1.153" ry="1.209" style="fill:#fff;"/>
            <ellipse cx="26.195" cy="16.292" rx="1.153" ry="1.209" style="fill:#fff;"/>
            <ellipse cx="33.102" cy="21.46" rx="1.153" ry="1.209" style="fill:#fff;"/>
            <ellipse cx="32.431" cy="37.001" rx="1.153" ry="1.209" style="fill:#f9f9fb;"/>
            <ellipse cx="33.474" cy="33.887" rx="0.74" ry="0.775" style="fill:#f9f9fb;"/>
        </g>
        <path d="M26.463,47.952L26.467,47.958L26.349,47.801L26.354,47.808L26.263,47.689L26.236,47.653L26.241,47.659L26.125,47.505L26.13,47.511L26.014,47.36L26.019,47.366L25.903,47.217L25.908,47.222L25.858,47.16L25.794,47.074L25.798,47.08L25.686,46.933L25.691,46.938L25.578,46.794L25.583,46.799L25.471,46.657L25.475,46.662L25.364,46.523L25.368,46.528L25.256,46.391L25.261,46.396L25.149,46.261L25.154,46.266L25.051,46.144L25.043,46.134L25.047,46.138L24.94,46.005L24.945,46.01L24.838,45.879L24.842,45.884L24.736,45.756L24.74,45.76L24.635,45.634L24.639,45.638L24.534,45.515L24.537,45.519L24.433,45.398L24.437,45.402L24.333,45.284L24.337,45.287L24.273,45.215L24.235,45.171L24.239,45.174L24.14,45.058L24.143,45.061L24.045,44.948L24.048,44.951L23.95,44.84L23.954,44.843L23.857,44.735L23.86,44.738L23.764,44.632L23.767,44.635L23.673,44.531L23.676,44.534L23.582,44.433L23.585,44.435L23.538,44.385L23.494,44.336L23.497,44.338L23.408,44.239L23.411,44.241L23.324,44.145L23.326,44.147L23.24,44.053L23.244,44.056L23.076,43.876L23.081,43.88L22.918,43.71L22.923,43.713L22.767,43.554L22.771,43.557L22.621,43.407L22.625,43.41L22.483,43.271L22.486,43.273L22.352,43.144L22.355,43.146L22.296,43.091L22.23,43.025L22.233,43.027L22.118,42.915L22.121,42.917L22.014,42.815L22.017,42.816L21.919,42.725L21.922,42.727L21.834,42.646L21.836,42.647L21.759,42.577L21.761,42.578L21.694,42.519L21.696,42.52L21.64,42.472L21.642,42.473L21.566,42.408L21.566,42.408L21.569,42.41L21.543,42.388L21.47,42.111L21.747,42.038L21.779,42.049L21.781,42.051L21.874,42.088L21.877,42.089L21.945,42.117L21.947,42.118L22.029,42.153L22.031,42.154L22.127,42.195L22.129,42.197L22.238,42.245L22.24,42.246L22.361,42.301L22.364,42.303L22.497,42.365L22.5,42.367L22.645,42.436L22.648,42.438L22.732,42.479L22.804,42.517L22.807,42.519L22.971,42.608L22.975,42.61L23.149,42.707L23.153,42.71L23.337,42.814L23.341,42.817L23.534,42.929L23.538,42.933L23.74,43.053L23.745,43.057L23.955,43.186L23.959,43.189L24.067,43.256L24.069,43.259L24.179,43.328L24.182,43.33L24.294,43.402L24.297,43.405L24.352,43.44L24.409,43.48L24.412,43.483L24.525,43.562L24.528,43.564L24.642,43.646L24.645,43.648L24.761,43.732L24.764,43.735L24.881,43.821L24.885,43.824L25.003,43.912L25.007,43.915L25.127,44.005L25.13,44.008L25.252,44.101L25.256,44.104L25.302,44.14L25.377,44.201L25.38,44.204L25.501,44.304L25.505,44.308L25.628,44.41L25.631,44.414L25.755,44.518L25.759,44.522L25.883,44.629L25.887,44.633L26.012,44.742L26.016,44.746L26.143,44.858L26.147,44.862L26.274,44.976L26.278,44.981L26.288,44.99L26.402,45.1L26.407,45.105L26.531,45.227L26.536,45.232L26.661,45.356L26.665,45.361L26.791,45.488L26.796,45.493L26.922,45.623L26.927,45.628L27.053,45.76L27.058,45.765L27.185,45.899L27.19,45.905L27.262,45.983L27.315,46.043L27.32,46.049L27.444,46.191L27.449,46.197L27.573,46.341L27.578,46.347L27.702,46.494L27.707,46.5L27.735,46.535L27.829,46.652L27.834,46.658L27.955,46.812L27.96,46.819L28.081,46.975L28.086,46.982L28.185,47.112L28.211,47.148L28.328,47.312L28.333,47.319L28.45,47.486L28.455,47.493L28.571,47.662L28.576,47.669L28.658,47.79L28.691,47.841L28.696,47.848L28.809,48.024L28.814,48.031L28.926,48.21L28.931,48.217L29.042,48.398L29.047,48.405L29.158,48.589L29.162,48.596L29.176,48.619L29.27,48.784L29.275,48.791L29.381,48.981L29.386,48.989L29.492,49.181L29.496,49.189L29.601,49.384L29.605,49.391L29.709,49.589L29.713,49.597L29.815,49.797L29.819,49.805L29.921,50.008L29.925,50.015L30.025,50.221L30.029,50.228L30.128,50.437L30.131,50.444L30.219,50.634L30.229,50.655L30.232,50.663L30.326,50.877L30.33,50.885L30.422,51.102L30.426,51.109L30.517,51.329L30.52,51.336L30.609,51.558L30.613,51.566L30.7,51.79L30.703,51.798L30.789,52.025L30.792,52.033L30.876,52.262L30.879,52.27L30.961,52.502L30.964,52.51L31.044,52.745L31.047,52.752L31.125,52.99L31.128,52.997L31.203,53.238L31.205,53.245L31.278,53.488L31.28,53.495L31.351,53.741L31.353,53.748L31.421,53.997L31.424,54.004L31.489,54.255L31.492,54.262L31.555,54.516L31.557,54.522L31.618,54.779L31.62,54.785L31.679,55.044L31.68,55.049L31.709,55.18L31.71,55.183L31.738,55.314L31.738,55.317L31.766,55.449L31.768,55.46L31.792,55.585L31.793,55.588L31.818,55.721L31.819,55.724L31.844,55.858L31.844,55.861L31.868,55.996L31.869,55.999L31.892,56.134L31.893,56.137L31.915,56.273L31.916,56.276L31.937,56.412L31.938,56.415L31.959,56.552L31.96,56.555L31.98,56.693L31.981,56.696L32,56.834L32.001,56.837L32.02,56.976L32.02,56.979L32.038,57.119L32.039,57.121L32.056,57.262L32.057,57.264L32.073,57.405L32.074,57.408L32.09,57.55L32.09,57.552L32.105,57.695L32.106,57.697L32.12,57.84L32.121,57.843L32.134,57.986L32.135,57.989L32.148,58.133L32.148,58.136L32.16,58.281L32.16,58.283L32.172,58.429L32.172,58.431L32.182,58.577L32.183,58.579L32.192,58.726L32.193,58.729L32.201,58.876L32.202,58.878L32.21,59.027L32.21,59.029L32.217,59.178L32.217,59.18L32.224,59.329L32.224,59.331L32.229,59.482L32.23,59.484L32.234,59.635L32.234,59.636L32.236,59.715L32.238,59.788L32.238,59.79L32.24,59.942L32.24,59.944L32.242,60.097L32.242,60.099L32.243,60.252L32.243,60.254L32.242,60.408L32.242,60.41L32.241,60.565L32.241,60.566L32.239,60.722L32.239,60.723L32.236,60.879L32.236,60.881L32.232,61.038L32.232,61.039L32.227,61.197L32.227,61.198L32.221,61.356L32.221,61.357L32.218,61.444L32.214,61.516L32.016,61.728L31.809,61.525L31.803,61.453L31.795,61.367L31.795,61.368L31.781,61.21L31.781,61.212L31.765,61.055L31.766,61.056L31.749,60.9L31.749,60.901L31.732,60.746L31.732,60.747L31.714,60.593L31.714,60.594L31.696,60.441L31.696,60.442L31.676,60.289L31.676,60.291L31.656,60.139L31.656,60.14L31.635,59.989L31.635,59.99L31.613,59.84L31.613,59.842L31.602,59.769L31.591,59.692L31.591,59.693L31.568,59.544L31.569,59.546L31.545,59.398L31.545,59.399L31.521,59.252L31.521,59.254L31.496,59.107L31.496,59.109L31.47,58.963L31.471,58.965L31.444,58.819L31.444,58.821L31.417,58.677L31.417,58.679L31.389,58.535L31.389,58.537L31.361,58.394L31.361,58.396L31.332,58.254L31.332,58.256L31.302,58.114L31.302,58.117L31.271,57.975L31.272,57.978L31.24,57.838L31.241,57.84L31.208,57.701L31.209,57.703L31.176,57.564L31.176,57.567L31.143,57.429L31.143,57.432L31.109,57.294L31.109,57.297L31.075,57.16L31.075,57.163L31.04,57.027L31.04,57.03L31.004,56.895L31.005,56.898L30.968,56.763L30.968,56.766L30.931,56.632L30.932,56.635L30.894,56.502L30.894,56.505L30.856,56.373L30.856,56.376L30.817,56.245L30.818,56.248L30.778,56.117L30.779,56.12L30.738,55.99L30.739,55.993L30.698,55.864L30.699,55.867L30.659,55.746L30.657,55.738L30.658,55.741L30.617,55.613L30.617,55.616L30.575,55.489L30.576,55.492L30.534,55.366L30.535,55.371L30.448,55.12L30.45,55.126L30.361,54.878L30.363,54.885L30.272,54.639L30.274,54.646L30.181,54.404L30.184,54.41L30.089,54.171L30.091,54.178L29.994,53.941L29.997,53.948L29.898,53.714L29.901,53.721L29.8,53.49L29.8,53.49L29.803,53.497L29.702,53.268L29.705,53.275L29.602,53.049L29.605,53.056L29.501,52.833L29.504,52.84L29.398,52.619L29.401,52.627L29.294,52.409L29.297,52.416L29.188,52.201L29.192,52.208L29.081,51.996L29.085,52.003L28.973,51.793L28.977,51.801L28.864,51.594L28.868,51.601L28.754,51.397L28.757,51.404L28.746,51.385L28.644,51.202L28.648,51.209L28.533,51.009L28.537,51.017L28.422,50.819L28.426,50.827L28.309,50.632L28.313,50.639L28.196,50.447L28.2,50.454L28.081,50.265L28.086,50.272L27.966,50.085L27.971,50.093L27.85,49.908L27.855,49.916L27.734,49.734L27.738,49.741L27.632,49.585L27.617,49.562L27.622,49.569L27.502,49.391L27.506,49.398L27.386,49.223L27.39,49.23L27.269,49.057L27.274,49.064L27.152,48.894L27.157,48.901L27.121,48.851L27.036,48.732L27.041,48.739L26.921,48.572L26.926,48.579L26.805,48.414L26.81,48.421L26.689,48.259L26.694,48.266L26.672,48.237L26.576,48.105L26.581,48.111L26.463,47.952Z" style="fill:#fff;fill-opacity:0.49;"/>
    </g>
</svg>
