<?xml version="1.0" encoding="UTF-8" standalone="no"?>
<!DOCTYPE svg PUBLIC "-//W3C//DTD SVG 1.1//EN" "http://www.w3.org/Graphics/SVG/1.1/DTD/svg11.dtd">
<svg width="100%" height="100%" viewBox="0 0 65 65" version="1.1" xmlns="http://www.w3.org/2000/svg" xmlns:xlink="http://www.w3.org/1999/xlink" xml:space="preserve" xmlns:serif="http://www.serif.com/" style="fill-rule:evenodd;clip-rule:evenodd;stroke-linejoin:round;stroke-miterlimit:2;">
    <rect id="Tobacco-Alcohol" x="0.333" y="0.675" width="64" height="64" style="fill:none;"/>
    <path d="M21.781,61.485L33.281,61.672L39.448,57.734L15.575,54.109L21.781,61.485Z" style="fill:#f5f5f9;"/>
    <ellipse cx="46.967" cy="56.423" rx="16.671" ry="4.3" style="fill:#f5f5f9;"/>
    <ellipse cx="43.886" cy="55.572" rx="11.363" ry="2.931" style="fill:#d5d7e8;"/>
    <path d="M53.439,4.593C53.439,4.593 57.233,12.135 58.477,21.528C58.915,24.841 56.626,27.451 54.125,29.12C51.465,30.895 48.718,31.4 47.407,31.789C45.964,32.217 44.956,32.461 44.956,42.29L44.956,51.382C44.956,52.247 45.458,53.015 46.02,53.605C47.812,53.815 49.06,54.281 49.06,54.821C49.06,55.558 46.742,56.156 43.886,56.156C41.03,56.156 38.712,55.558 38.712,54.821C38.712,54.281 39.959,53.815 41.752,53.605C42.314,53.015 42.816,52.247 42.816,51.382L42.816,42.29C42.816,32.461 41.808,32.217 40.365,31.789C39.054,31.4 36.307,30.895 33.647,29.12C31.146,27.451 28.857,24.841 29.295,21.528C30.539,12.135 34.333,4.593 34.333,4.593L43.886,4.517L53.439,4.593Z" style="fill:#eff1f7;"/>
    <path d="M43.633,29.007C46.221,22.974 46.706,14.948 44.652,4.517L53.439,4.593C53.439,4.593 57.233,12.135 58.477,21.528C58.915,24.841 56.626,27.451 54.125,29.12C51.465,30.895 48.718,31.4 47.407,31.789C45.964,32.217 44.956,32.461 44.956,42.29L44.956,51.382C44.956,52.247 45.458,53.015 46.02,53.605C47.812,53.815 49.06,54.281 49.06,54.821C49.06,55.402 47.619,55.897 45.609,56.08C45.382,56.101 44.455,55.876 44.094,54.966C43.6,53.716 43.681,51.665 43.633,51.665L43.633,29.007Z" style="fill:#d5d7e8;"/>
    <ellipse cx="43.925" cy="4.517" rx="9.544" ry="1.198" style="fill:#e1e2ee;"/>
    <path d="M43.848,30.658C40.37,30.658 35.548,28.877 33.471,26.844C29.801,23.25 31.41,17.364 31.41,17.364L43.937,17.307L56.389,17.364C56.389,17.364 58.241,23.536 54.34,26.844C51.632,29.141 47.326,30.658 43.848,30.658Z" style="fill:#b96448;"/>
    <clipPath id="_clip1">
        <path d="M43.848,30.658C40.37,30.658 35.548,28.877 33.471,26.844C29.801,23.25 31.41,17.364 31.41,17.364L43.937,17.307L56.389,17.364C56.389,17.364 58.241,23.536 54.34,26.844C51.632,29.141 47.326,30.658 43.848,30.658Z"/>
    </clipPath>
    <g clip-path="url(#_clip1)">
        <path d="M45.337,18.395C45.337,18.395 46.349,25.885 43.625,31.466C43.625,31.466 57.41,32.958 58.165,21.902C58.921,10.846 57.097,14.616 57.097,14.616L45.337,18.395Z" style="fill:#a46048;"/>
    </g>
    <ellipse cx="43.925" cy="17.479" rx="12.494" ry="2.181" style="fill:#f1765a;"/>
    <path d="M38.286,7.023L38.269,7.078L38.265,7.092L38.239,7.176L38.205,7.295L38.161,7.446L38.11,7.63L38.051,7.846L37.986,8.094L37.915,8.374L37.869,8.559L37.836,8.683L37.751,9.023L37.707,9.203L37.662,9.391L37.615,9.587L37.568,9.79L37.521,10L37.472,10.217L37.423,10.441L37.409,10.504L37.371,10.671L37.317,10.909L37.263,11.153L37.209,11.404L37.178,11.551L37.153,11.661L37.094,11.924L37.036,12.195L36.977,12.472L36.949,12.606L36.915,12.754L36.851,13.043L36.786,13.338L36.722,13.639L36.722,13.64L36.651,13.946L36.579,14.258L36.508,14.577L36.499,14.617L36.426,14.899L36.343,15.228L36.259,15.563L36.237,15.656L36.17,15.902L36.077,16.247L35.985,16.599L35.924,16.838L35.891,16.956L35.794,17.318L35.696,17.686L35.599,18.061L35.595,18.079L35.499,18.441L35.399,18.827L35.299,19.219L35.28,19.294L35.197,19.616L35.094,20.019L34.993,20.428L34.892,20.843L34.793,21.264L34.785,21.295L34.69,21.69L34.589,22.123L34.311,22.375L34.108,22.059L34.122,21.613L34.138,21.204L34.14,21.172L34.163,20.736L34.189,20.306L34.216,19.88L34.246,19.46L34.271,19.124L34.278,19.046L34.316,18.638L34.356,18.235L34.395,17.856L34.397,17.838L34.444,17.448L34.493,17.063L34.542,16.684L34.559,16.56L34.597,16.311L34.656,15.946L34.715,15.586L34.758,15.329L34.777,15.233L34.847,14.887L34.918,14.548L34.98,14.256L34.991,14.216L35.074,13.892L35.157,13.575L35.24,13.264L35.24,13.263L35.33,12.962L35.42,12.666L35.509,12.377L35.556,12.229L35.6,12.096L35.693,11.822L35.785,11.554L35.876,11.294L35.915,11.185L35.968,11.041L36.06,10.795L36.151,10.556L36.24,10.325L36.304,10.161L36.329,10.1L36.418,9.884L36.505,9.674L36.59,9.472L36.674,9.276L36.755,9.088L36.834,8.907L36.91,8.733L37.056,8.409L37.111,8.289L37.193,8.114L37.321,7.849L37.436,7.614L37.538,7.409L37.627,7.235L37.701,7.092L37.76,6.979L37.803,6.898L37.811,6.885L37.839,6.833L38.158,6.705L38.286,7.023Z" style="fill:#fff;fill-opacity:0.73;"/>
    <g>
        <path d="M3.846,27.379L7.013,26.144L5.742,30.584L3.846,27.379Z" style="fill:#a9accf;"/>
        <path d="M8.527,31.835L5.317,23.867L21.402,22.578L27.343,25.594L26.158,32.273L24.935,36.656L8.527,31.835Z" style="fill:#834c3a;"/>
        <path d="M5.317,23.867L10.882,20.037L28.207,21.726L29.32,29.178L26.158,32.273L23.774,25.612L5.317,23.867Z" style="fill:#e65e3f;"/>
        <clipPath id="_clip2">
            <path d="M5.317,23.867L10.882,20.037L28.207,21.726L29.32,29.178L26.158,32.273L23.774,25.612L5.317,23.867Z"/>
        </clipPath>
        <g clip-path="url(#_clip2)">
            <path d="M21.057,28.218L30.972,19.405L32.419,32.273L24.171,37.959L21.057,28.218Z" style="fill:#a46048;"/>
        </g>
        <g>
            <g>
                <rect x="4.815" y="22.913" width="3.092" height="21.323" style="fill:#e7e9f3;"/>
                <clipPath id="_clip3">
                    <rect x="4.815" y="22.913" width="3.092" height="21.323"/>
                </clipPath>
                <g clip-path="url(#_clip3)">
                    <rect x="6.254" y="22.913" width="3.092" height="23.881" style="fill:#bfc1db;"/>
                    <path d="M8.737,28.14L7.907,28.14C7.907,28.323 7.214,28.471 6.361,28.471C5.508,28.471 4.815,28.323 4.815,28.14L3.945,28.14L3.945,22.287L8.737,22.287L8.737,28.14Z" style="fill:#f1b1af;"/>
                    <clipPath id="_clip4">
                        <path d="M8.737,28.14L7.907,28.14C7.907,28.323 7.214,28.471 6.361,28.471C5.508,28.471 4.815,28.323 4.815,28.14L3.945,28.14L3.945,22.287L8.737,22.287L8.737,28.14Z"/>
                    </clipPath>
                    <g clip-path="url(#_clip4)">
                        <rect x="6.247" y="22.712" width="3.092" height="14.631" style="fill:#e65e3f;"/>
                    </g>
                </g>
                <ellipse cx="6.361" cy="22.913" rx="1.546" ry="0.33" style="fill:#e7e9f3;"/>
            </g>
            <g>
                <rect x="7.599" y="18.707" width="3.092" height="21.323" style="fill:#f1f3f8;"/>
                <clipPath id="_clip5">
                    <rect x="7.599" y="18.707" width="3.092" height="21.323"/>
                </clipPath>
                <g clip-path="url(#_clip5)">
                    <rect x="9.038" y="18.707" width="3.092" height="23.881" style="fill:#bfc1db;"/>
                    <path d="M11.521,23.935L10.691,23.935C10.691,24.117 9.998,24.265 9.145,24.265C8.292,24.265 7.599,24.117 7.599,23.935L6.729,23.935L6.729,18.081L11.521,18.081L11.521,23.935Z" style="fill:#f1b1af;"/>
                    <clipPath id="_clip6">
                        <path d="M11.521,23.935L10.691,23.935C10.691,24.117 9.998,24.265 9.145,24.265C8.292,24.265 7.599,24.117 7.599,23.935L6.729,23.935L6.729,18.081L11.521,18.081L11.521,23.935Z"/>
                    </clipPath>
                    <g clip-path="url(#_clip6)">
                        <rect x="9.031" y="18.506" width="3.092" height="14.631" style="fill:#e65e3f;"/>
                    </g>
                </g>
                <ellipse cx="9.145" cy="18.707" rx="1.546" ry="0.33" style="fill:#e7e9f3;"/>
            </g>
            <g>
                <rect x="10.224" y="21.628" width="3.092" height="21.323" style="fill:#f1f2f8;"/>
                <clipPath id="_clip7">
                    <rect x="10.224" y="21.628" width="3.092" height="21.323"/>
                </clipPath>
                <g clip-path="url(#_clip7)">
                    <rect x="11.663" y="21.628" width="3.092" height="23.881" style="fill:#bfc1db;"/>
                    <path d="M14.146,26.856L13.316,26.856C13.316,27.039 12.623,27.187 11.77,27.187C10.917,27.187 10.224,27.039 10.224,26.856L9.354,26.856L9.354,21.002L14.146,21.002L14.146,26.856Z" style="fill:#f1b1af;"/>
                    <clipPath id="_clip8">
                        <path d="M14.146,26.856L13.316,26.856C13.316,27.039 12.623,27.187 11.77,27.187C10.917,27.187 10.224,27.039 10.224,26.856L9.354,26.856L9.354,21.002L14.146,21.002L14.146,26.856Z"/>
                    </clipPath>
                    <g clip-path="url(#_clip8)">
                        <rect x="11.655" y="21.428" width="3.092" height="14.631" style="fill:#e65e3f;"/>
                    </g>
                </g>
                <ellipse cx="11.77" cy="21.628" rx="1.546" ry="0.33" style="fill:#e7e9f3;"/>
            </g>
            <g>
                <rect x="13.008" y="23.494" width="3.092" height="21.323" style="fill:#f1f2f8;"/>
                <clipPath id="_clip9">
                    <rect x="13.008" y="23.494" width="3.092" height="21.323"/>
                </clipPath>
                <g clip-path="url(#_clip9)">
                    <rect x="14.447" y="23.494" width="3.092" height="23.881" style="fill:#bfc1db;"/>
                    <path d="M16.93,28.722L16.1,28.722C16.1,28.905 15.407,29.053 14.554,29.053C13.701,29.053 13.008,28.905 13.008,28.722L12.138,28.722L12.138,22.868L16.93,22.868L16.93,28.722Z" style="fill:#f1b1af;"/>
                    <clipPath id="_clip10">
                        <path d="M16.93,28.722L16.1,28.722C16.1,28.905 15.407,29.053 14.554,29.053C13.701,29.053 13.008,28.905 13.008,28.722L12.138,28.722L12.138,22.868L16.93,22.868L16.93,28.722Z"/>
                    </clipPath>
                    <g clip-path="url(#_clip10)">
                        <rect x="14.439" y="23.294" width="3.092" height="14.631" style="fill:#e65e3f;"/>
                    </g>
                </g>
                <ellipse cx="14.554" cy="23.494" rx="1.546" ry="0.33" style="fill:#e7e9f3;"/>
            </g>
            <g>
                <rect x="15.655" y="26.147" width="3.092" height="21.323" style="fill:#e7e9f3;"/>
                <clipPath id="_clip11">
                    <rect x="15.655" y="26.147" width="3.092" height="21.323"/>
                </clipPath>
                <g clip-path="url(#_clip11)">
                    <rect x="17.094" y="26.147" width="3.092" height="23.881" style="fill:#bfc1db;"/>
                    <path d="M19.577,31.374L18.747,31.374C18.747,31.557 18.054,31.705 17.201,31.705C16.348,31.705 15.655,31.557 15.655,31.374L14.785,31.374L14.785,25.521L19.577,25.521L19.577,31.374Z" style="fill:#f1b1af;"/>
                    <clipPath id="_clip12">
                        <path d="M19.577,31.374L18.747,31.374C18.747,31.557 18.054,31.705 17.201,31.705C16.348,31.705 15.655,31.557 15.655,31.374L14.785,31.374L14.785,25.521L19.577,25.521L19.577,31.374Z"/>
                    </clipPath>
                    <g clip-path="url(#_clip12)">
                        <rect x="17.087" y="25.946" width="3.092" height="14.631" style="fill:#e65e3f;"/>
                    </g>
                </g>
                <ellipse cx="17.201" cy="26.147" rx="1.546" ry="0.33" style="fill:#e7e9f3;"/>
            </g>
            <g>
                <rect x="18.595" y="26.673" width="3.092" height="21.323" style="fill:#e7e9f3;"/>
                <clipPath id="_clip13">
                    <rect x="18.595" y="26.673" width="3.092" height="21.323"/>
                </clipPath>
                <g clip-path="url(#_clip13)">
                    <rect x="20.035" y="26.673" width="3.092" height="23.881" style="fill:#bfc1db;"/>
                    <path d="M22.517,31.901L21.687,31.901C21.687,32.084 20.995,32.232 20.141,32.232C19.288,32.232 18.595,32.084 18.595,31.901L17.725,31.901L17.725,26.047L22.517,26.047L22.517,31.901Z" style="fill:#f1b1af;"/>
                    <clipPath id="_clip14">
                        <path d="M22.517,31.901L21.687,31.901C21.687,32.084 20.995,32.232 20.141,32.232C19.288,32.232 18.595,32.084 18.595,31.901L17.725,31.901L17.725,26.047L22.517,26.047L22.517,31.901Z"/>
                    </clipPath>
                    <g clip-path="url(#_clip14)">
                        <rect x="20.027" y="26.473" width="3.092" height="14.631" style="fill:#e65e3f;"/>
                    </g>
                </g>
                <ellipse cx="20.141" cy="26.673" rx="1.546" ry="0.33" style="fill:#e7e9f3;"/>
            </g>
        </g>
        <path d="M5.55,36.223L5.169,28.24L7.485,29.39L9.721,33.187L16.33,34.014L20.906,30.684L23.399,30.085L22.153,38.446L5.55,36.223Z" style="fill:#898ebd;fill-opacity:0.35;"/>
        <clipPath id="_clip15">
            <path d="M5.55,36.223L5.169,28.24L7.485,29.39L9.721,33.187L16.33,34.014L20.906,30.684L23.399,30.085L22.153,38.446L5.55,36.223Z"/>
        </clipPath>
        <g clip-path="url(#_clip15)">
            <rect x="21.719" y="12.885" width="13.764" height="49.663" style="fill:#bfc1db;"/>
            <path d="M21.984,27.569L26.007,33.026L27.239,32.195L24.976,27.199L21.984,27.569Z" style="fill:#a9accf;"/>
        </g>
        <path d="M4.198,35.272L3.817,27.289L6.132,28.439L8.396,33.726L17.075,34.931L19.553,29.733L22.047,29.134L24.773,28.218L26.158,32.273L22.673,39.537L4.198,35.272Z" style="fill:#eff1f7;"/>
        <clipPath id="_clip16">
            <path d="M4.198,35.272L3.817,27.289L6.132,28.439L8.396,33.726L17.075,34.931L19.553,29.733L22.047,29.134L24.773,28.218L26.158,32.273L22.673,39.537L4.198,35.272Z"/>
        </clipPath>
        <g clip-path="url(#_clip16)">
            <rect x="21.719" y="12.885" width="13.764" height="49.663" style="fill:#bfc1db;"/>
            <path d="M21.984,27.569L26.007,33.026L27.239,32.195L24.976,27.199L21.984,27.569Z" style="fill:#a9accf;"/>
        </g>
        <path d="M4.315,58.21L22.158,61.599L26.155,59.149L26.158,32.273L21.865,36.995L3.817,34.664L4.315,58.21Z" style="fill:#f1765a;"/>
        <clipPath id="_clip17">
            <path d="M4.315,58.21L22.158,61.599L26.155,59.149L26.158,32.273L21.865,36.995L3.817,34.664L4.315,58.21Z"/>
        </clipPath>
        <g clip-path="url(#_clip17)">
            <rect x="21.642" y="23.025" width="13.764" height="49.663" style="fill:#a46048;"/>
        </g>
    </g>
</svg>
