<?xml version="1.0" encoding="UTF-8" standalone="no"?>
<!DOCTYPE svg PUBLIC "-//W3C//DTD SVG 1.1//EN" "http://www.w3.org/Graphics/SVG/1.1/DTD/svg11.dtd">
<svg width="100%" height="100%" viewBox="0 0 65 65" version="1.1" xmlns="http://www.w3.org/2000/svg" xmlns:xlink="http://www.w3.org/1999/xlink" xml:space="preserve" xmlns:serif="http://www.serif.com/" style="fill-rule:evenodd;clip-rule:evenodd;stroke-linejoin:round;stroke-miterlimit:2;">
    <rect id="Too-much-salt" x="0.012" y="0.16" width="64" height="64" style="fill:none;"/>
    <g>
        <ellipse cx="40.823" cy="54.816" rx="20.183" ry="7.344" style="fill:#2b307e;fill-opacity:0.08;"/>
        <path d="M32.012,7.985L39.792,7.985C40.571,13.436 41.712,16.971 44.451,19.176C47.183,21.375 49.048,22.973 49.048,26.76L49.048,52.311C49.048,53.577 48.336,54.735 47.206,55.306C47.206,55.306 39.535,59.182 35.094,61.426C33.156,62.405 30.868,62.405 28.93,61.426C24.489,59.182 16.818,55.306 16.818,55.306C15.688,54.735 14.976,53.577 14.976,52.311L14.976,26.76L14.976,26.671C15.005,22.948 16.862,21.358 19.572,19.176C22.312,16.971 23.453,13.436 24.231,7.985L32.012,7.985Z" style="fill:#d6d7f0;"/>
        <clipPath id="_clip1">
            <path d="M32.012,7.985L39.792,7.985C40.571,13.436 41.712,16.971 44.451,19.176C47.183,21.375 49.048,22.973 49.048,26.76L49.048,52.311C49.048,53.577 48.336,54.735 47.206,55.306C47.206,55.306 39.535,59.182 35.094,61.426C33.156,62.405 30.868,62.405 28.93,61.426C24.489,59.182 16.818,55.306 16.818,55.306C15.688,54.735 14.976,53.577 14.976,52.311L14.976,26.76L14.976,26.671C15.005,22.948 16.862,21.358 19.572,19.176C22.312,16.971 23.453,13.436 24.231,7.985L32.012,7.985Z"/>
        </clipPath>
        <g clip-path="url(#_clip1)">
            <ellipse cx="32.012" cy="12.719" rx="9.84" ry="3.063" style="fill:#2b307f;fill-opacity:0.41;"/>
            <rect x="32.226" y="-1.535" width="19.252" height="69.3" style="fill:#2b307f;fill-opacity:0.17;"/>
        </g>
        <ellipse cx="32.012" cy="11.048" rx="11.372" ry="3.063" style="fill:#bebfe5;"/>
        <path d="M24.052,15.303L24.129,15.343L24.124,15.339L24.164,15.359L24.204,15.379L24.199,15.376L24.281,15.415L24.276,15.412L24.362,15.45L24.357,15.447L24.446,15.484L24.441,15.481L24.534,15.516L24.528,15.513L24.624,15.548L24.619,15.545L24.717,15.579L24.712,15.576L24.813,15.608L24.808,15.606L24.827,15.612L24.911,15.639L24.906,15.637L25.012,15.669L25.006,15.667L25.115,15.698L25.11,15.696L25.221,15.726L25.216,15.724L25.274,15.739L25.329,15.755L25.324,15.753L25.439,15.783L25.434,15.781L25.551,15.811L25.546,15.809L25.666,15.837L25.661,15.836L25.764,15.859L25.783,15.864L25.778,15.862L25.902,15.892L25.897,15.89L26.022,15.919L26.017,15.918L26.144,15.946L26.14,15.944L26.269,15.971L26.264,15.97L26.266,15.97L26.394,16.001L26.389,16L26.521,16.03L26.516,16.029L26.65,16.058L26.645,16.057L26.769,16.082L26.78,16.085L26.776,16.084L26.911,16.117L26.907,16.116L27.044,16.148L27.04,16.147L27.178,16.178L27.174,16.177L27.314,16.207L27.31,16.206L27.317,16.207L27.451,16.238L27.447,16.237L27.589,16.268L27.585,16.267L27.729,16.297L27.725,16.297L27.869,16.325L27.866,16.325L27.958,16.343L28.011,16.354L28.007,16.353L28.154,16.383L28.15,16.382L28.297,16.411L28.294,16.411L28.442,16.438L28.439,16.438L28.587,16.464L28.584,16.464L28.734,16.489L28.73,16.489L28.881,16.513L28.877,16.513L29.028,16.536L29.025,16.536L29.176,16.557L29.173,16.557L29.325,16.578L29.322,16.578L29.382,16.585L29.474,16.599L29.471,16.598L29.623,16.619L29.621,16.619L29.773,16.638L29.77,16.638L29.923,16.656L29.92,16.656L30.073,16.673L30.07,16.672L30.222,16.688L30.22,16.688L30.372,16.702L30.37,16.702L30.522,16.715L30.52,16.715L30.672,16.726L30.67,16.726L30.812,16.736L30.821,16.737L30.819,16.737L30.97,16.746L30.968,16.747L31.119,16.755L31.117,16.755L31.267,16.762L31.265,16.762L31.415,16.768L31.413,16.768L31.562,16.772L31.56,16.772L31.708,16.775L31.706,16.775L31.854,16.776L31.852,16.776L31.964,16.776L31.999,16.776L32.173,16.924L32.025,17.099L31.99,17.104L31.88,17.122L31.879,17.122L31.733,17.144L31.731,17.144L31.584,17.165L31.582,17.165L31.434,17.184L31.432,17.184L31.283,17.202L31.281,17.202L31.132,17.219L31.13,17.219L30.979,17.234L30.977,17.234L30.826,17.248L30.824,17.248L30.814,17.249L30.672,17.26L30.67,17.26L30.518,17.27L30.515,17.27L30.363,17.279L30.36,17.279L30.207,17.287L30.205,17.287L30.052,17.293L30.049,17.293L29.896,17.298L29.893,17.298L29.739,17.302L29.737,17.302L29.583,17.305L29.58,17.305L29.427,17.306L29.424,17.306L29.331,17.306L29.271,17.305L29.268,17.305L29.115,17.302L29.112,17.301L28.959,17.297L28.956,17.297L28.804,17.291L28.801,17.291L28.649,17.284L28.645,17.283L28.494,17.275L28.491,17.275L28.34,17.266L28.337,17.265L28.186,17.255L28.183,17.254L28.033,17.243L28.03,17.242L27.881,17.229L27.878,17.229L27.823,17.224L27.73,17.213L27.727,17.213L27.58,17.195L27.577,17.194L27.431,17.175L27.428,17.175L27.283,17.154L27.28,17.154L27.144,17.134L27.137,17.132L27.133,17.132L26.992,17.106L26.988,17.106L26.848,17.079L26.844,17.078L26.706,17.051L26.702,17.05L26.565,17.022L26.561,17.02L26.549,17.018L26.427,16.986L26.422,16.985L26.291,16.949L26.286,16.948L26.156,16.911L26.152,16.91L26.025,16.872L26.024,16.872L26.019,16.871L25.894,16.827L25.889,16.825L25.767,16.781L25.762,16.779L25.642,16.734L25.637,16.733L25.519,16.686L25.514,16.685L25.495,16.677L25.399,16.635L25.394,16.633L25.282,16.582L25.277,16.581L25.167,16.529L25.162,16.527L25.055,16.475L25.05,16.473L24.998,16.447L24.946,16.419L24.941,16.417L24.84,16.361L24.835,16.359L24.737,16.302L24.732,16.3L24.636,16.244L24.631,16.241L24.556,16.194L24.539,16.184L24.534,16.181L24.446,16.121L24.441,16.118L24.356,16.058L24.351,16.056L24.27,15.995L24.264,15.992L24.186,15.932L24.181,15.928L24.106,15.868L24.101,15.864L24.029,15.803L24.024,15.8L23.956,15.739L23.951,15.735L23.919,15.704L23.887,15.673L23.883,15.669L23.823,15.606L23.818,15.602L23.762,15.539L23.758,15.535L23.706,15.472L23.679,15.234L23.918,15.227L23.988,15.27L23.983,15.266L24.057,15.307L24.052,15.303Z" style="fill:#fff;fill-opacity:0.8;"/>
        <path d="M22.786,11.625L22.897,11.67L22.893,11.668L23.008,11.712L23.004,11.71L23.124,11.754L23.12,11.752L23.208,11.783L23.243,11.795L23.24,11.794L23.366,11.838L23.363,11.836L23.493,11.879L23.49,11.878L23.624,11.921L23.621,11.92L23.758,11.961L23.756,11.96L23.896,12.001L23.893,12L24.037,12.04L24.035,12.039L24.182,12.079L24.179,12.078L24.329,12.117L24.326,12.116L24.345,12.12L24.478,12.156L24.476,12.155L24.631,12.194L24.628,12.194L24.785,12.232L24.783,12.232L24.923,12.265L24.942,12.27L24.94,12.269L25.101,12.309L25.099,12.308L25.262,12.347L25.26,12.346L25.425,12.385L25.423,12.384L25.448,12.39L25.589,12.424L25.587,12.423L25.755,12.463L25.753,12.463L25.923,12.501L25.92,12.501L26.092,12.539L26.09,12.538L26.097,12.54L26.262,12.577L26.26,12.576L26.434,12.614L26.431,12.613L26.606,12.649L26.604,12.649L26.78,12.684L26.777,12.684L26.841,12.696L26.954,12.719L26.952,12.719L27.129,12.753L27.126,12.753L27.304,12.786L27.302,12.786L27.48,12.818L27.478,12.818L27.656,12.849L27.654,12.849L27.832,12.878L27.83,12.878L28.008,12.906L28.006,12.906L28.185,12.933L28.183,12.933L28.361,12.958L28.358,12.958L28.487,12.975L28.536,12.982L28.534,12.982L28.711,13.006L28.709,13.006L28.885,13.029L28.883,13.028L29.058,13.049L29.056,13.049L29.231,13.069L29.229,13.069L29.402,13.086L29.4,13.086L29.572,13.102L29.57,13.102L29.741,13.117L29.739,13.117L29.908,13.129L29.906,13.129L30.074,13.14L30.072,13.14L30.238,13.15L30.235,13.149L30.399,13.157L30.397,13.157L30.559,13.162L30.557,13.162L30.717,13.166L30.715,13.166L30.872,13.168L30.87,13.168L31.025,13.167L31.023,13.168L31.175,13.165L31.173,13.165L31.323,13.161L31.32,13.161L31.421,13.157L31.467,13.155L31.642,13.304L31.493,13.478L31.447,13.483L31.347,13.495L31.344,13.495L31.195,13.51L31.193,13.51L31.041,13.523L31.038,13.523L30.884,13.534L30.881,13.534L30.724,13.544L30.722,13.544L30.562,13.551L30.56,13.551L30.398,13.557L30.396,13.557L30.231,13.561L30.229,13.561L30.063,13.564L30.061,13.564L29.893,13.564L29.891,13.564L29.721,13.563L29.719,13.563L29.547,13.561L29.545,13.561L29.372,13.557L29.37,13.557L29.196,13.551L29.194,13.551L29.019,13.544L29.017,13.543L28.84,13.535L28.838,13.535L28.661,13.524L28.659,13.524L28.481,13.513L28.478,13.512L28.429,13.509L28.3,13.498L28.298,13.498L28.119,13.482L28.117,13.482L27.937,13.464L27.935,13.464L27.756,13.445L27.754,13.445L27.574,13.425L27.572,13.425L27.392,13.403L27.39,13.403L27.211,13.381L27.209,13.38L27.03,13.356L27.027,13.356L26.849,13.331L26.847,13.331L26.733,13.314L26.669,13.304L26.667,13.303L26.49,13.274L26.488,13.274L26.312,13.244L26.309,13.243L26.134,13.212L26.132,13.211L25.966,13.18L25.958,13.179L25.956,13.178L25.784,13.143L25.782,13.143L25.611,13.106L25.609,13.106L25.44,13.069L25.437,13.068L25.296,13.036L25.27,13.03L25.268,13.029L25.103,12.986L25.101,12.986L24.938,12.943L24.936,12.942L24.776,12.898L24.773,12.897L24.754,12.892L24.616,12.85L24.613,12.849L24.458,12.8L24.456,12.799L24.304,12.75L24.301,12.749L24.17,12.706L24.152,12.699L24.149,12.698L24.003,12.646L24,12.645L23.858,12.591L23.855,12.59L23.715,12.536L23.712,12.535L23.576,12.481L23.573,12.48L23.441,12.425L23.437,12.424L23.308,12.369L23.305,12.368L23.18,12.313L23.176,12.311L23.055,12.256L23.051,12.254L23.018,12.238L22.934,12.197L22.931,12.196L22.818,12.138L22.815,12.136L22.706,12.078L22.702,12.076L22.598,12.018L22.594,12.016L22.495,11.958L22.491,11.956L22.396,11.898L22.392,11.896L22.301,11.838L22.297,11.835L22.212,11.777L22.207,11.775L22.127,11.717L22.124,11.714L22.086,11.686L22.083,11.684L22.046,11.655L22.044,11.653L22.008,11.624L22.006,11.623L21.972,11.594L21.969,11.592L21.936,11.563L21.933,11.561L21.902,11.532L21.899,11.53L21.869,11.502L21.866,11.499L21.838,11.471L21.821,11.24L22.052,11.227L22.084,11.252L22.081,11.249L22.114,11.274L22.111,11.272L22.146,11.296L22.143,11.294L22.179,11.318L22.177,11.316L22.214,11.341L22.212,11.339L22.251,11.363L22.248,11.361L22.288,11.385L22.286,11.383L22.327,11.407L22.324,11.405L22.41,11.452L22.406,11.45L22.498,11.496L22.494,11.494L22.59,11.54L22.586,11.538L22.688,11.584L22.684,11.582L22.79,11.627L22.786,11.625Z" style="fill:#fff;fill-opacity:0.8;"/>
        <ellipse cx="32.012" cy="7.795" rx="12.439" ry="4.794" style="fill:#7072ac;"/>
        <path d="M32.012,2.31C38.877,2.31 44.451,5.11 44.451,6.96C44.451,8.809 38.877,10.311 32.012,10.311C25.146,10.311 19.572,8.809 19.572,6.96C19.572,5.11 25.146,2.31 32.012,2.31Z" style="fill:#bebfe5;"/>
        <clipPath id="_clip2">
            <path d="M32.012,2.31C38.877,2.31 44.451,5.11 44.451,6.96C44.451,8.809 38.877,10.311 32.012,10.311C25.146,10.311 19.572,8.809 19.572,6.96C19.572,5.11 25.146,2.31 32.012,2.31Z"/>
        </clipPath>
        <g clip-path="url(#_clip2)">
            <path d="M27.041,2.003C30.786,1.517 33.971,2.233 34.149,3.6C34.326,4.968 31.43,6.473 27.684,6.96C23.939,7.446 20.754,6.73 20.577,5.363C20.399,3.995 23.296,2.49 27.041,2.003Z" style="fill:#fff;fill-opacity:0.47;"/>
        </g>
        <g>
            <ellipse cx="32.012" cy="7.352" rx="1.113" ry="0.633" style="fill:#fff;"/>
            <ellipse cx="35.029" cy="5.51" rx="1.113" ry="0.543" style="fill:#fff;"/>
            <path d="M39.932,5.442C40.532,5.574 40.977,5.871 40.926,6.106C40.874,6.34 40.345,6.423 39.745,6.292C39.145,6.16 38.7,5.862 38.752,5.628C38.803,5.393 39.332,5.31 39.932,5.442Z" style="fill:#fff;"/>
            <path d="M24.092,5.442C23.492,5.574 23.047,5.871 23.098,6.106C23.15,6.34 23.679,6.423 24.279,6.292C24.878,6.16 25.324,5.862 25.272,5.628C25.221,5.393 24.692,5.31 24.092,5.442Z" style="fill:#fff;"/>
            <ellipse cx="28.995" cy="5.51" rx="1.113" ry="0.543" style="fill:#fff;"/>
            <ellipse cx="32.012" cy="3.801" rx="1.113" ry="0.389" style="fill:#fff;"/>
            <path d="M27.075,3.568C27.676,3.441 28.186,3.443 28.213,3.571C28.24,3.7 27.775,3.907 27.174,4.034C26.573,4.161 26.063,4.16 26.036,4.031C26.008,3.903 26.474,3.695 27.075,3.568Z" style="fill:#fff;"/>
            <path d="M37.281,3.568C36.68,3.441 36.17,3.443 36.143,3.571C36.116,3.7 36.581,3.907 37.182,4.034C37.783,4.161 38.293,4.16 38.32,4.031C38.348,3.903 37.882,3.695 37.281,3.568Z" style="fill:#fff;"/>
        </g>
        <path d="M45.529,32.784C45.529,26.727 32.012,23.136 32.012,23.136C32.012,23.136 18.494,27.564 18.494,32.784L18.494,40.631L45.529,40.631L45.529,32.784Z" style="fill:#f3f3fa;"/>
        <g>
            <ellipse cx="32.012" cy="7.108" rx="1.113" ry="0.633" style="fill:#2b307e;"/>
            <ellipse cx="35.029" cy="5.265" rx="1.113" ry="0.543" style="fill:#2b307e;"/>
            <path d="M39.932,5.198C40.532,5.329 40.977,5.627 40.926,5.861C40.874,6.096 40.345,6.179 39.745,6.047C39.145,5.916 38.7,5.618 38.752,5.384C38.803,5.149 39.332,5.066 39.932,5.198Z" style="fill:#2b307e;"/>
            <path d="M24.092,5.198C23.492,5.329 23.047,5.627 23.098,5.861C23.15,6.096 23.679,6.179 24.279,6.047C24.878,5.916 25.324,5.618 25.272,5.384C25.221,5.149 24.692,5.066 24.092,5.198Z" style="fill:#2b307e;"/>
            <ellipse cx="28.995" cy="5.265" rx="1.113" ry="0.543" style="fill:#2b307e;"/>
            <ellipse cx="32.012" cy="3.557" rx="1.113" ry="0.389" style="fill:#2b307e;"/>
            <path d="M27.075,3.324C27.676,3.197 28.186,3.198 28.213,3.327C28.24,3.456 27.775,3.663 27.174,3.79C26.573,3.917 26.063,3.916 26.036,3.787C26.008,3.659 26.474,3.451 27.075,3.324Z" style="fill:#2b307e;"/>
            <path d="M37.281,3.324C36.68,3.197 36.17,3.198 36.143,3.327C36.116,3.456 36.581,3.663 37.182,3.79C37.783,3.917 38.293,3.916 38.32,3.787C38.348,3.659 37.882,3.451 37.281,3.324Z" style="fill:#2b307e;"/>
        </g>
        <path d="M20.09,52.37C19.112,51.882 18.494,50.883 18.494,49.791L18.494,32.16C18.494,32.16 26.045,35.374 29.86,36.997C31.235,37.583 32.789,37.583 34.164,36.997C37.979,35.374 45.529,32.16 45.529,32.16L45.529,49.335C45.529,50.707 44.754,51.961 43.526,52.574C41.178,53.746 37.276,55.694 34.674,56.993C32.998,57.83 31.026,57.83 29.349,56.993C25.835,55.238 20.09,52.37 20.09,52.37Z" style="fill:#fff;"/>
        <clipPath id="_clip3">
            <path d="M20.09,52.37C19.112,51.882 18.494,50.883 18.494,49.791L18.494,32.16C18.494,32.16 26.045,35.374 29.86,36.997C31.235,37.583 32.789,37.583 34.164,36.997C37.979,35.374 45.529,32.16 45.529,32.16L45.529,49.335C45.529,50.707 44.754,51.961 43.526,52.574C41.178,53.746 37.276,55.694 34.674,56.993C32.998,57.83 31.026,57.83 29.349,56.993C25.835,55.238 20.09,52.37 20.09,52.37Z"/>
        </clipPath>
        <g clip-path="url(#_clip3)">
            <path d="M32.012,31.563L50.437,23.721L50.437,50.723C50.437,52.095 49.661,53.349 48.433,53.962C43.66,56.345 32.012,62.16 32.012,62.16L32.012,31.563Z" style="fill:#e2e3f3;"/>
        </g>
        <path d="M29.026,43.197L29.026,43.198L29.006,41.904L29.001,41.573L29.001,41.574L28.979,39.959L28.979,39.96L28.961,38.723L28.957,38.368L28.957,38.369L28.939,36.811L28.939,36.812L28.927,35.904L28.922,35.303L28.922,35.304L28.909,33.854L28.909,33.855L28.897,32.781L28.895,32.477L28.895,32.479L28.884,31.186L28.885,31.187L28.878,30.576L28.878,30.577L28.872,29.992L28.872,29.994L28.865,29.478L28.864,29.436L28.864,29.437L28.859,28.908L28.859,28.91L28.853,28.412L28.853,28.414L28.845,27.947L28.846,27.949L28.838,27.517L28.838,27.519L28.829,27.122L28.829,27.125L28.82,26.764L28.82,26.768L28.81,26.446L28.81,26.451L28.799,26.168L28.799,26.173L28.793,26.047L28.793,26.052L28.787,25.936L28.788,25.942L28.781,25.837L28.782,25.844L28.775,25.75L28.776,25.758L28.769,25.675L28.77,25.687L28.763,25.615L28.765,25.631L28.76,25.585L28.736,25.535L28.742,25.546L28.675,25.409L28.679,25.417L28.643,25.346L28.646,25.352L28.609,25.28L28.612,25.285L28.573,25.212L28.576,25.217L28.536,25.143L28.539,25.148L28.497,25.073L28.5,25.078L28.457,25.002L28.46,25.008L28.415,24.93L28.419,24.936L28.373,24.858L28.376,24.863L28.328,24.784L28.332,24.79L28.282,24.71L28.286,24.715L28.235,24.635L28.239,24.641L28.187,24.56L28.19,24.565L28.136,24.484L28.14,24.489L28.085,24.407L28.089,24.413L28.032,24.331L28.036,24.336L27.978,24.254L27.982,24.259L27.922,24.176L27.926,24.182L27.865,24.099L27.869,24.104L27.806,24.021L27.811,24.027L27.747,23.943L27.751,23.949L27.685,23.866L27.69,23.871L27.622,23.788L27.627,23.794L27.558,23.711L27.563,23.716L27.493,23.633L27.498,23.639L27.455,23.59L27.426,23.556L27.431,23.562L27.358,23.479L27.363,23.485L27.288,23.402L27.294,23.408L27.217,23.326L27.223,23.332L27.145,23.25L27.151,23.256L27.071,23.175L27.077,23.181L26.996,23.1L27.002,23.106L26.92,23.026L26.926,23.032L26.842,22.953L26.848,22.959L26.762,22.881L26.769,22.886L26.682,22.809L26.688,22.814L26.599,22.738L26.606,22.744L26.516,22.668L26.523,22.674L26.431,22.6L26.438,22.605L26.345,22.532L26.352,22.537L26.257,22.465L26.264,22.471L26.168,22.4L26.175,22.405L26.077,22.336L26.085,22.341L25.985,22.273L25.993,22.278L25.891,22.211L25.9,22.216L25.797,22.151L25.805,22.156L25.7,22.092L25.709,22.097L25.603,22.035L25.612,22.04L25.503,21.98L25.513,21.984L25.403,21.926L25.412,21.93L25.301,21.873L25.31,21.878L25.197,21.823L25.207,21.827L25.092,21.774L25.102,21.778L24.986,21.727L24.995,21.731L24.878,21.682L24.888,21.685L24.768,21.638L24.778,21.642L24.657,21.597L24.667,21.601L24.544,21.558L24.555,21.561L24.43,21.521L24.441,21.524L24.315,21.486L24.325,21.489L24.197,21.453L24.207,21.456L24.116,21.432L24.124,21.434L24.033,21.412L24.041,21.414L23.952,21.394L23.96,21.395L23.871,21.377L23.879,21.378L23.791,21.361L23.799,21.363L23.711,21.347L23.719,21.348L23.632,21.335L23.64,21.336L23.554,21.324L23.562,21.324L23.476,21.314L23.484,21.314L23.399,21.305L23.407,21.306L23.323,21.298L23.331,21.299L23.247,21.292L23.255,21.293L23.172,21.288L23.18,21.288L23.097,21.285L23.105,21.285L23.023,21.283L23.031,21.282L22.95,21.282L22.958,21.281L22.877,21.282L22.885,21.282L22.805,21.284L22.813,21.283L22.734,21.286L22.741,21.286L22.663,21.29L22.67,21.289L22.593,21.295L22.6,21.294L22.523,21.301L22.53,21.3L22.454,21.308L22.461,21.307L22.396,21.315L22.385,21.316L22.392,21.315L22.317,21.325L22.324,21.324L22.25,21.335L22.257,21.334L22.183,21.346L22.19,21.345L22.117,21.358L22.123,21.357L22.051,21.371L22.058,21.369L21.986,21.385L21.992,21.383L21.921,21.4L21.928,21.398L21.857,21.415L21.863,21.413L21.793,21.432L21.8,21.43L21.731,21.449L21.737,21.447L21.668,21.467L21.674,21.465L21.606,21.486L21.612,21.484L21.545,21.506L21.551,21.504L21.484,21.527L21.49,21.524L21.424,21.548L21.43,21.546L21.365,21.57L21.37,21.568L21.306,21.593L21.311,21.591L21.247,21.616L21.252,21.614L21.189,21.641L21.194,21.638L21.132,21.665L21.137,21.663L21.075,21.691L21.08,21.688L21.019,21.717L21.023,21.714L20.963,21.744L20.968,21.741L20.908,21.771L20.913,21.768L20.854,21.799L20.858,21.796L20.8,21.827L20.804,21.824L20.746,21.856L20.75,21.853L20.694,21.885L20.7,21.881L20.588,21.946L20.596,21.942L20.487,22.008L20.494,22.003L20.388,22.072L20.395,22.067L20.291,22.136L20.298,22.131L20.197,22.202L20.204,22.197L20.106,22.269L20.112,22.264L20.017,22.337L20.022,22.332L19.93,22.405L19.936,22.401L19.847,22.474L19.852,22.47L19.765,22.543L19.77,22.539L19.687,22.613L19.691,22.608L19.611,22.682L19.615,22.678L19.537,22.751L19.541,22.747L19.467,22.819L19.47,22.815L19.399,22.887L19.402,22.883L19.333,22.954L19.337,22.95L19.271,23.02L19.274,23.016L19.211,23.085L19.214,23.081L19.154,23.148L19.157,23.145L19.1,23.21L19.103,23.207L19.049,23.27L19.052,23.267L19.001,23.328L19.003,23.325L18.955,23.384L18.958,23.381L18.913,23.437L18.916,23.433L18.835,23.538L18.839,23.532L18.771,23.625L18.774,23.62L18.718,23.7L18.721,23.695L18.696,23.731L18.677,23.759L18.68,23.754L18.649,23.802L18.652,23.797L18.627,23.837L18.179,23.952L18.064,23.504L18.087,23.462L18.09,23.457L18.119,23.407L18.122,23.403L18.139,23.374L18.162,23.336L18.165,23.331L18.217,23.249L18.221,23.243L18.284,23.147L18.288,23.141L18.363,23.032L18.366,23.027L18.408,22.968L18.41,22.965L18.455,22.904L18.457,22.901L18.505,22.837L18.507,22.833L18.558,22.767L18.56,22.764L18.613,22.696L18.616,22.692L18.672,22.622L18.675,22.619L18.735,22.547L18.738,22.543L18.8,22.47L18.803,22.466L18.868,22.392L18.871,22.388L18.939,22.312L18.943,22.309L19.013,22.232L19.017,22.228L19.091,22.151L19.095,22.147L19.171,22.069L19.176,22.065L19.255,21.987L19.26,21.982L19.342,21.904L19.347,21.9L19.432,21.822L19.437,21.817L19.525,21.739L19.53,21.735L19.621,21.657L19.627,21.652L19.721,21.575L19.727,21.571L19.823,21.495L19.83,21.49L19.929,21.415L19.936,21.41L20.039,21.336L20.046,21.331L20.151,21.258L20.159,21.253L20.267,21.182L20.273,21.179L20.328,21.144L20.332,21.141L20.388,21.107L20.392,21.104L20.449,21.07L20.453,21.068L20.511,21.034L20.515,21.032L20.573,20.999L20.578,20.997L20.636,20.964L20.641,20.962L20.701,20.93L20.706,20.928L20.766,20.896L20.771,20.894L20.832,20.864L20.837,20.861L20.898,20.831L20.904,20.829L20.966,20.8L20.971,20.797L21.034,20.769L21.04,20.767L21.104,20.739L21.109,20.736L21.174,20.709L21.179,20.707L21.245,20.681L21.25,20.679L21.316,20.653L21.322,20.651L21.389,20.626L21.395,20.624L21.462,20.6L21.469,20.599L21.537,20.575L21.543,20.574L21.612,20.551L21.618,20.55L21.688,20.528L21.694,20.527L21.765,20.506L21.771,20.505L21.842,20.485L21.849,20.484L21.921,20.465L21.928,20.464L22,20.446L22.007,20.445L22.08,20.429L22.087,20.427L22.161,20.412L22.169,20.411L22.243,20.396L22.25,20.395L22.261,20.393L22.326,20.382L22.333,20.381L22.409,20.369L22.417,20.369L22.493,20.358L22.501,20.357L22.579,20.347L22.586,20.347L22.664,20.338L22.672,20.338L22.751,20.331L22.759,20.33L22.838,20.324L22.846,20.324L22.927,20.319L22.934,20.319L23.016,20.316L23.023,20.316L23.105,20.314L23.113,20.314L23.196,20.313L23.204,20.313L23.287,20.314L23.295,20.314L23.379,20.316L23.387,20.317L23.472,20.32L23.48,20.321L23.565,20.325L23.573,20.326L23.66,20.332L23.668,20.333L23.754,20.341L23.762,20.342L23.85,20.351L23.858,20.352L23.946,20.363L23.954,20.364L24.044,20.377L24.052,20.378L24.141,20.392L24.149,20.393L24.24,20.409L24.248,20.411L24.339,20.428L24.347,20.429L24.439,20.448L24.448,20.45L24.578,20.479L24.588,20.482L24.716,20.513L24.727,20.516L24.853,20.55L24.864,20.554L24.989,20.59L24.999,20.593L25.122,20.632L25.133,20.635L25.255,20.676L25.265,20.68L25.385,20.723L25.395,20.727L25.514,20.772L25.524,20.776L25.641,20.823L25.651,20.828L25.766,20.877L25.776,20.881L25.89,20.933L25.899,20.937L26.012,20.99L26.021,20.995L26.132,21.05L26.141,21.055L26.251,21.111L26.26,21.116L26.368,21.174L26.376,21.179L26.483,21.239L26.491,21.245L26.596,21.306L26.605,21.311L26.708,21.374L26.716,21.38L26.818,21.444L26.826,21.449L26.926,21.515L26.934,21.521L27.033,21.588L27.04,21.593L27.138,21.662L27.145,21.667L27.241,21.737L27.248,21.742L27.342,21.813L27.349,21.818L27.442,21.89L27.449,21.896L27.54,21.969L27.547,21.974L27.636,22.048L27.643,22.054L27.731,22.128L27.737,22.134L27.824,22.209L27.83,22.215L27.915,22.291L27.921,22.297L28.004,22.373L28.01,22.379L28.092,22.456L28.098,22.462L28.178,22.54L28.184,22.546L28.263,22.624L28.268,22.63L28.345,22.709L28.351,22.714L28.381,22.746L28.426,22.794L28.431,22.799L28.506,22.879L28.51,22.885L28.583,22.965L28.588,22.97L28.659,23.051L28.663,23.056L28.733,23.136L28.737,23.142L28.805,23.222L28.81,23.228L28.876,23.308L28.881,23.314L28.945,23.394L28.95,23.4L29.013,23.48L29.017,23.485L29.079,23.565L29.083,23.57L29.143,23.65L29.147,23.656L29.206,23.735L29.21,23.74L29.267,23.819L29.271,23.825L29.326,23.903L29.33,23.908L29.384,23.986L29.388,23.992L29.44,24.069L29.444,24.075L29.495,24.151L29.499,24.157L29.548,24.233L29.551,24.238L29.6,24.313L29.603,24.319L29.649,24.393L29.653,24.398L29.698,24.472L29.701,24.477L29.744,24.55L29.748,24.555L29.79,24.627L29.793,24.632L29.833,24.703L29.836,24.708L29.875,24.778L29.88,24.786L29.953,24.921L29.959,24.932L30.026,25.062L30.045,25.104L30.05,25.115L30.069,25.167L30.073,25.18L30.087,25.229L30.096,25.265L30.104,25.303L30.114,25.351L30.118,25.374L30.128,25.433L30.13,25.449L30.14,25.52L30.141,25.531L30.152,25.614L30.153,25.622L30.163,25.715L30.164,25.722L30.175,25.826L30.175,25.832L30.187,25.947L30.187,25.951L30.198,26.077L30.199,26.082L30.222,26.364L30.223,26.369L30.247,26.691L30.247,26.695L30.272,27.055L30.273,27.059L30.299,27.456L30.299,27.458L30.325,27.89L30.326,27.892L30.353,28.358L30.353,28.36L30.381,28.857L30.381,28.859L30.41,29.387L30.412,29.431L30.437,29.946L30.437,29.947L30.464,30.531L30.464,30.532L30.492,31.143L30.492,31.144L30.548,32.436L30.548,32.438L30.561,32.741L30.6,33.815L30.6,33.816L30.652,35.265L30.652,35.266L30.673,35.868L30.699,36.775L30.699,36.776L30.742,38.333L30.742,38.334L30.752,38.69L30.781,39.926L30.781,39.926L30.817,41.541L30.824,41.873L30.849,43.167L30.879,44.79L30.887,45.253L30.905,46.398L30.938,48.666L30.949,49.521L30.977,51.947L30.981,52.436L31.001,54.933L31.002,55.044L31.01,57.245L31.011,57.459L31.005,58.941L31.005,58.941L31.004,59.361L30.758,59.991L30.519,60.415L30.514,60.423L30.191,60.758L29.86,60.431L29.856,60.423L29.606,60.005L29.345,59.381L29.333,58.962L29.333,58.962L29.29,57.481L29.285,57.268L29.285,57.268L29.234,55.067L29.234,55.068L29.231,54.958L29.182,52.461L29.182,52.462L29.172,51.974L29.129,49.547L29.129,49.548L29.113,48.694L29.077,46.426L29.077,46.427L29.057,45.282L29.051,44.819L29.051,44.82L29.026,43.197ZM28.762,25.594L28.761,25.587L28.761,25.587L28.762,25.594Z" style="fill:#fff;"/>
        <path d="M39.911,21.685L39.812,21.699L39.827,21.697L39.727,21.713L39.742,21.711L39.642,21.728L39.657,21.726L39.557,21.745L39.572,21.743L39.558,21.746L39.47,21.762L39.486,21.759L39.384,21.78L39.399,21.777L39.297,21.799L39.312,21.796L39.209,21.82L39.224,21.817L39.121,21.843L39.136,21.84L39.072,21.857L39.033,21.867L39.048,21.863L38.943,21.891L38.958,21.887L38.853,21.917L38.868,21.913L38.763,21.945L38.778,21.941L38.672,21.975L38.687,21.97L38.614,21.995L38.58,22.006L38.595,22.001L38.487,22.036L38.499,22.032L38.392,22.069L38.402,22.065L38.296,22.104L38.306,22.1L38.201,22.139L38.211,22.135L38.127,22.168L38.108,22.175L38.118,22.171L38.014,22.209L38.024,22.205L37.922,22.245L37.931,22.24L37.83,22.281L37.84,22.276L37.74,22.318L37.75,22.313L37.651,22.356L37.66,22.351L37.598,22.379L37.562,22.393L37.571,22.389L37.474,22.43L37.483,22.426L37.386,22.468L37.395,22.464L37.3,22.507L37.309,22.502L37.214,22.546L37.223,22.541L37.13,22.586L37.138,22.581L37.046,22.627L37.055,22.622L36.964,22.668L36.972,22.664L36.882,22.711L36.89,22.706L36.801,22.753L36.809,22.749L36.721,22.797L36.729,22.792L36.642,22.841L36.65,22.836L36.564,22.886L36.572,22.881L36.487,22.931L36.495,22.926L36.48,22.935L36.41,22.976L36.417,22.971L36.334,23.02L36.34,23.015L36.258,23.066L36.265,23.061L36.183,23.112L36.19,23.107L36.109,23.158L36.116,23.153L36.036,23.205L36.042,23.2L35.964,23.253L35.97,23.248L35.893,23.301L35.898,23.296L35.822,23.349L35.828,23.344L35.752,23.398L35.758,23.394L35.684,23.448L35.689,23.443L35.616,23.498L35.621,23.493L35.549,23.548L35.554,23.543L35.482,23.599L35.487,23.594L35.417,23.65L35.422,23.645L35.37,23.687L35.352,23.701L35.357,23.696L35.288,23.751L35.292,23.747L35.224,23.803L35.228,23.798L35.161,23.854L35.165,23.85L35.099,23.906L35.103,23.901L35.037,23.958L35.041,23.954L34.977,24.01L34.981,24.006L34.917,24.063L34.923,24.056L34.799,24.17L34.806,24.162L34.685,24.277L34.692,24.269L34.575,24.383L34.581,24.376L34.468,24.491L34.474,24.484L34.382,24.58L34.364,24.598L34.369,24.591L34.262,24.704L34.267,24.698L34.163,24.811L34.167,24.804L34.067,24.917L34.071,24.911L33.974,25.022L33.978,25.017L33.885,25.127L33.888,25.122L33.798,25.232L33.801,25.227L33.715,25.335L33.718,25.33L33.635,25.438L33.638,25.433L33.558,25.539L33.561,25.535L33.484,25.639L33.487,25.635L33.413,25.737L33.416,25.733L33.346,25.834L33.348,25.83L33.281,25.928L33.283,25.925L33.22,26.021L33.221,26.017L33.161,26.111L33.163,26.108L33.105,26.199L33.107,26.196L33.053,26.284L33.054,26.281L33.016,26.345L33.003,26.366L33.004,26.363L32.955,26.445L32.956,26.442L32.911,26.521L32.911,26.518L32.869,26.593L32.87,26.591L32.83,26.662L32.831,26.659L32.76,26.79L32.761,26.786L32.702,26.901L32.703,26.897L32.655,26.994L32.656,26.991L32.62,27.068L32.62,27.066L32.594,27.123L32.595,27.12L32.589,27.135L32.574,27.167L32.372,27.281L32.263,27.076L32.269,27.041L32.271,27.025L32.272,27.022L32.283,26.96L32.284,26.958L32.301,26.873L32.302,26.87L32.324,26.765L32.325,26.762L32.355,26.636L32.356,26.633L32.392,26.488L32.393,26.485L32.414,26.406L32.415,26.404L32.438,26.321L32.439,26.319L32.464,26.232L32.465,26.229L32.493,26.138L32.494,26.135L32.501,26.112L32.524,26.041L32.525,26.038L32.558,25.94L32.559,25.937L32.595,25.835L32.596,25.832L32.634,25.728L32.635,25.724L32.675,25.616L32.677,25.613L32.72,25.502L32.722,25.498L32.767,25.385L32.77,25.381L32.818,25.264L32.82,25.26L32.871,25.141L32.873,25.137L32.927,25.016L32.93,25.011L32.987,24.887L32.99,24.883L33.05,24.757L33.053,24.752L33.116,24.625L33.119,24.619L33.185,24.49L33.189,24.484L33.258,24.354L33.262,24.348L33.335,24.216L33.339,24.209L33.415,24.076L33.42,24.069L33.499,23.935L33.505,23.928L33.518,23.907L33.589,23.794L33.595,23.787L33.683,23.652L33.689,23.644L33.78,23.509L33.787,23.501L33.882,23.365L33.889,23.358L33.989,23.221L33.994,23.215L34.045,23.147L34.049,23.143L34.101,23.075L34.105,23.071L34.158,23.002L34.162,22.998L34.216,22.93L34.22,22.926L34.275,22.858L34.28,22.853L34.336,22.785L34.34,22.781L34.397,22.713L34.402,22.708L34.417,22.691L34.461,22.641L34.465,22.637L34.525,22.57L34.53,22.565L34.591,22.499L34.596,22.494L34.658,22.428L34.664,22.423L34.727,22.357L34.732,22.352L34.796,22.286L34.802,22.281L34.867,22.215L34.873,22.21L34.939,22.145L34.945,22.14L35.012,22.075L35.018,22.07L35.087,22.005L35.093,22L35.162,21.935L35.169,21.931L35.239,21.866L35.246,21.861L35.317,21.797L35.324,21.792L35.397,21.729L35.404,21.724L35.478,21.661L35.485,21.656L35.546,21.604L35.56,21.593L35.567,21.588L35.645,21.528L35.652,21.523L35.731,21.462L35.738,21.457L35.818,21.398L35.826,21.393L35.907,21.334L35.915,21.329L35.997,21.27L36.005,21.265L36.088,21.207L36.096,21.202L36.181,21.145L36.189,21.14L36.274,21.083L36.283,21.078L36.37,21.022L36.378,21.017L36.466,20.962L36.475,20.957L36.564,20.902L36.573,20.897L36.664,20.843L36.673,20.838L36.765,20.785L36.774,20.78L36.808,20.761L36.867,20.729L36.877,20.724L36.972,20.674L36.982,20.67L37.078,20.621L37.088,20.617L37.186,20.568L37.195,20.564L37.294,20.517L37.304,20.513L37.404,20.466L37.414,20.462L37.434,20.453L37.517,20.418L37.527,20.414L37.631,20.372L37.641,20.368L37.746,20.326L37.756,20.323L37.862,20.282L37.875,20.278L37.981,20.239L37.996,20.234L38.029,20.222L38.102,20.199L38.117,20.194L38.224,20.162L38.239,20.158L38.345,20.128L38.36,20.124L38.465,20.096L38.48,20.092L38.585,20.066L38.6,20.062L38.64,20.053L38.705,20.039L38.72,20.036L38.825,20.016L38.84,20.013L38.944,19.995L38.959,19.992L39.062,19.975L39.077,19.973L39.18,19.958L39.195,19.956L39.283,19.945L39.297,19.944L39.312,19.942L39.414,19.933L39.429,19.931L39.531,19.925L39.545,19.923L39.646,19.918L39.661,19.917L39.761,19.913L39.775,19.912L39.875,19.911L39.889,19.91L39.988,19.91L40.002,19.909L40.1,19.911L40.115,19.91L40.212,19.914L40.226,19.913L40.323,19.918L40.337,19.918L40.433,19.925L40.446,19.925L40.542,19.933L40.555,19.933L40.644,19.942L40.65,19.943L40.663,19.943L40.757,19.956L40.77,19.957L40.863,19.971L40.876,19.972L40.969,19.988L40.981,19.989L41.073,20.006L41.085,20.008L41.176,20.026L41.189,20.028L41.279,20.047L41.291,20.049L41.38,20.07L41.392,20.071L41.481,20.093L41.492,20.095L41.58,20.119L41.591,20.121L41.678,20.145L41.689,20.147L41.776,20.173L41.786,20.175L41.872,20.202L41.882,20.204L41.967,20.232L41.977,20.234L41.989,20.238L42.061,20.264L42.071,20.267L42.154,20.298L42.164,20.3L42.246,20.333L42.255,20.335L42.337,20.368L42.346,20.371L42.426,20.405L42.435,20.408L42.515,20.443L42.523,20.446L42.603,20.481L42.611,20.484L42.689,20.521L42.697,20.524L42.775,20.561L42.782,20.564L42.859,20.602L42.866,20.605L42.942,20.643L42.949,20.646L43.025,20.686L43.032,20.689L43.106,20.729L43.113,20.732L43.186,20.772L43.193,20.775L43.197,20.778L43.264,20.818L43.271,20.821L43.342,20.864L43.348,20.867L43.418,20.911L43.424,20.914L43.494,20.958L43.499,20.961L43.568,21.006L43.573,21.009L43.641,21.054L43.646,21.057L43.713,21.103L43.718,21.106L43.784,21.152L43.789,21.154L43.854,21.201L43.859,21.203L43.923,21.25L43.928,21.253L43.991,21.3L43.997,21.304L44.122,21.399L44.13,21.404L44.25,21.499L44.258,21.504L44.375,21.601L44.382,21.605L44.496,21.702L44.502,21.706L44.612,21.803L44.618,21.807L44.724,21.904L44.73,21.908L44.833,22.004L44.838,22.008L44.937,22.104L44.942,22.107L45.037,22.202L45.042,22.205L45.066,22.231L45.133,22.3L45.136,22.303L45.224,22.397L45.227,22.4L45.31,22.493L45.314,22.496L45.393,22.586L45.396,22.589L45.472,22.677L45.475,22.68L45.547,22.766L45.55,22.768L45.618,22.852L45.621,22.854L45.685,22.934L45.687,22.936L45.748,23.014L45.75,23.016L45.807,23.09L45.809,23.092L45.862,23.163L45.864,23.165L45.913,23.232L45.916,23.234L46.003,23.356L46.005,23.359L46.077,23.463L46.079,23.465L46.135,23.549L46.137,23.552L46.177,23.614L46.179,23.616L46.193,23.639L46.211,23.669L46.188,23.897L45.96,23.873L45.934,23.849L45.915,23.831L45.917,23.833L45.862,23.783L45.864,23.785L45.789,23.718L45.791,23.72L45.695,23.638L45.697,23.64L45.582,23.545L45.584,23.547L45.519,23.495L45.521,23.496L45.451,23.441L45.453,23.443L45.379,23.386L45.381,23.388L45.302,23.328L45.304,23.33L45.221,23.268L45.224,23.27L45.136,23.207L45.139,23.209L45.047,23.145L45.05,23.147L44.954,23.081L44.957,23.083L44.857,23.016L44.86,23.019L44.756,22.951L44.759,22.954L44.651,22.885L44.655,22.888L44.574,22.838L44.544,22.819L44.548,22.822L44.433,22.751L44.438,22.755L44.32,22.684L44.325,22.688L44.203,22.617L44.208,22.621L44.083,22.55L44.089,22.555L43.96,22.485L43.966,22.489L43.834,22.421L43.841,22.425L43.705,22.357L43.712,22.362L43.573,22.296L43.581,22.301L43.439,22.236L43.445,22.24L43.373,22.208L43.378,22.211L43.304,22.18L43.309,22.182L43.235,22.152L43.24,22.154L43.166,22.124L43.171,22.127L43.095,22.097L43.1,22.1L43.024,22.071L43.03,22.074L42.953,22.046L42.959,22.048L42.881,22.021L42.887,22.024L42.809,21.997L42.815,21.999L42.736,21.973L42.742,21.976L42.667,21.952L42.662,21.95L42.669,21.953L42.589,21.927L42.596,21.93L42.516,21.904L42.523,21.907L42.441,21.882L42.449,21.885L42.367,21.861L42.374,21.864L42.292,21.841L42.3,21.844L42.216,21.822L42.224,21.825L42.141,21.804L42.149,21.807L42.065,21.786L42.073,21.789L41.988,21.77L41.997,21.773L41.911,21.754L41.92,21.757L41.834,21.74L41.843,21.743L41.756,21.726L41.766,21.729L41.678,21.714L41.688,21.717L41.612,21.704L41.6,21.702L41.61,21.705L41.522,21.69L41.532,21.693L41.443,21.68L41.454,21.682L41.365,21.67L41.375,21.672L41.285,21.661L41.296,21.663L41.206,21.654L41.217,21.656L41.126,21.647L41.138,21.649L41.046,21.642L41.058,21.644L40.966,21.638L40.978,21.64L40.885,21.635L40.898,21.637L40.804,21.634L40.817,21.635L40.723,21.634L40.736,21.635L40.642,21.635L40.655,21.636L40.56,21.637L40.573,21.638L40.567,21.638L40.478,21.639L40.492,21.639L40.396,21.641L40.41,21.642L40.314,21.645L40.328,21.645L40.231,21.651L40.245,21.65L40.148,21.657L40.162,21.657L40.064,21.666L40.079,21.665L39.98,21.675L39.995,21.674L39.896,21.686L39.911,21.685Z" style="fill:#2b307f;fill-opacity:0.12;"/>
        <path d="M21.453,6.879L21.531,6.918L21.526,6.914L21.534,6.918L21.606,6.954L21.601,6.95L21.684,6.989L21.679,6.985L21.765,7.023L21.76,7.019L21.85,7.055L21.845,7.052L21.938,7.087L21.932,7.084L22.028,7.118L22.023,7.115L22.122,7.147L22.116,7.145L22.217,7.178L22.212,7.176L22.315,7.209L22.31,7.206L22.416,7.238L22.411,7.235L22.514,7.264L22.519,7.266L22.514,7.264L22.624,7.295L22.619,7.293L22.732,7.324L22.727,7.322L22.842,7.352L22.837,7.35L22.942,7.376L22.955,7.379L22.95,7.377L23.069,7.409L23.064,7.407L23.185,7.437L23.18,7.436L23.303,7.465L23.298,7.463L23.386,7.483L23.423,7.493L23.418,7.492L23.544,7.525L23.539,7.523L23.667,7.555L23.663,7.554L23.792,7.585L23.788,7.583L23.822,7.591L23.919,7.617L23.914,7.616L24.046,7.651L24.042,7.65L24.176,7.683L24.171,7.682L24.307,7.715L24.303,7.714L24.382,7.732L24.44,7.747L24.436,7.746L24.574,7.779L24.57,7.779L24.709,7.811L24.705,7.81L24.846,7.842L24.842,7.841L24.985,7.872L24.981,7.871L25.044,7.884L25.124,7.902L25.121,7.901L25.265,7.932L25.261,7.931L25.407,7.961L25.403,7.961L25.55,7.99L25.546,7.989L25.694,8.017L25.69,8.016L25.839,8.043L25.835,8.043L25.984,8.068L25.981,8.068L26.131,8.092L26.128,8.092L26.278,8.115L26.275,8.115L26.426,8.137L26.423,8.137L26.561,8.156L26.575,8.158L26.572,8.158L26.723,8.179L26.721,8.179L26.873,8.199L26.87,8.199L27.022,8.218L27.019,8.218L27.172,8.236L27.169,8.236L27.322,8.253L27.319,8.253L27.472,8.268L27.47,8.268L27.622,8.282L27.62,8.282L27.772,8.295L27.77,8.295L27.922,8.307L27.92,8.306L28.072,8.317L28.07,8.317L28.104,8.319L28.221,8.326L28.219,8.326L28.371,8.335L28.368,8.335L28.519,8.341L28.517,8.342L28.668,8.347L28.666,8.347L28.815,8.351L28.813,8.351L28.962,8.354L28.96,8.354L29.109,8.355L29.107,8.355L29.254,8.355L29.252,8.355L29.362,8.354L29.399,8.353L29.574,8.502L29.425,8.676L29.389,8.682L29.28,8.698L29.279,8.698L29.133,8.719L29.131,8.719L28.984,8.738L28.982,8.738L28.834,8.756L28.832,8.756L28.683,8.772L28.681,8.773L28.532,8.788L28.529,8.788L28.379,8.801L28.377,8.802L28.226,8.814L28.224,8.814L28.107,8.823L28.072,8.825L28.07,8.825L27.918,8.834L27.916,8.834L27.763,8.842L27.761,8.842L27.608,8.848L27.605,8.848L27.452,8.853L27.45,8.853L27.296,8.857L27.294,8.857L27.141,8.859L27.138,8.859L26.985,8.86L26.982,8.86L26.829,8.86L26.826,8.86L26.673,8.859L26.67,8.859L26.517,8.856L26.514,8.856L26.5,8.856L26.361,8.851L26.358,8.851L26.206,8.844L26.203,8.844L26.051,8.836L26.048,8.836L25.897,8.827L25.894,8.826L25.743,8.816L25.74,8.816L25.59,8.804L25.587,8.804L25.438,8.791L25.434,8.791L25.286,8.777L25.282,8.777L25.135,8.762L25.131,8.761L24.985,8.745L24.981,8.745L24.9,8.735L24.836,8.727L24.832,8.726L24.688,8.705L24.685,8.705L24.542,8.683L24.538,8.682L24.397,8.66L24.393,8.659L24.253,8.635L24.249,8.634L24.19,8.624L24.11,8.608L24.106,8.607L23.97,8.578L23.966,8.578L23.831,8.548L23.826,8.547L23.693,8.516L23.689,8.515L23.592,8.492L23.558,8.482L23.553,8.481L23.425,8.443L23.421,8.442L23.295,8.403L23.29,8.402L23.166,8.362L23.161,8.36L23.124,8.348L23.04,8.316L23.035,8.315L22.918,8.268L22.913,8.266L22.797,8.219L22.792,8.217L22.679,8.169L22.673,8.167L22.661,8.162L22.564,8.115L22.559,8.113L22.452,8.06L22.447,8.058L22.343,8.005L22.337,8.003L22.236,7.949L22.231,7.946L22.225,7.943L22.133,7.889L22.128,7.887L22.033,7.829L22.028,7.827L21.936,7.769L21.931,7.766L21.843,7.709L21.842,7.708L21.837,7.705L21.752,7.644L21.747,7.641L21.666,7.58L21.661,7.577L21.583,7.515L21.578,7.512L21.503,7.45L21.498,7.447L21.427,7.385L21.422,7.381L21.355,7.319L21.349,7.316L21.292,7.26L21.286,7.253L21.281,7.249L21.222,7.185L21.217,7.181L21.162,7.118L21.157,7.113L21.106,7.049L21.079,6.811L21.318,6.805L21.389,6.846L21.384,6.842L21.458,6.883L21.453,6.879Z" style="fill:#fff;fill-opacity:0.8;"/>
    </g>
    <g>
        <path d="M13.797,40.964C14.118,40.342 14.758,39.952 15.457,39.952C16.156,39.952 16.797,40.342 17.117,40.964C19.588,45.751 24.19,54.666 26.504,59.151C26.803,59.73 26.779,60.423 26.44,60.98C26.101,61.536 25.496,61.876 24.844,61.876C20.056,61.876 10.858,61.876 6.07,61.876C5.419,61.876 4.814,61.536 4.475,60.98C4.136,60.423 4.111,59.73 4.41,59.151C6.725,54.666 11.327,45.751 13.797,40.964Z" style="fill:#f3775b;"/>
        <path d="M16.545,46.091L14.565,46.091L14.565,55.319L16.545,55.319L16.545,46.091ZM15.555,56.776C14.807,56.776 14.228,57.318 14.228,58.065C14.228,58.812 14.807,59.373 15.555,59.373C16.302,59.373 16.9,58.812 16.9,58.065C16.9,57.318 16.302,56.776 15.555,56.776Z" style="fill:#fff;fill-rule:nonzero;"/>
    </g>
</svg>
