<?xml version="1.0" encoding="UTF-8" standalone="no"?>
<!DOCTYPE svg PUBLIC "-//W3C//DTD SVG 1.1//EN" "http://www.w3.org/Graphics/SVG/1.1/DTD/svg11.dtd">
<svg width="100%" height="100%" viewBox="0 0 65 65" version="1.1" xmlns="http://www.w3.org/2000/svg" xmlns:xlink="http://www.w3.org/1999/xlink" xml:space="preserve" xmlns:serif="http://www.serif.com/" style="fill-rule:evenodd;clip-rule:evenodd;stroke-linejoin:round;stroke-miterlimit:2;">
    <rect id="Trans-fats-2" x="0.738" y="0.458" width="64" height="64" style="fill:none;"/>
    <path d="M27.546,49.045C43.309,49.045 61.299,51.003 61.299,53.415C61.299,55.826 43.309,57.784 27.546,57.784C11.782,57.784 4.177,55.826 4.177,53.415C4.177,51.003 11.782,49.045 27.546,49.045Z" style="fill:#b5b8e2;fill-opacity:0.18;"/>
    <g>
        <path d="M55.034,7.589L25.12,7.589C27.357,22.896 27.361,38.011 25.12,52.935L55.034,52.935C52.699,38.152 52.616,23.038 55.034,7.589Z" style="fill:#f1765a;"/>
        <clipPath id="_clip1">
            <path d="M55.034,7.589L25.12,7.589C27.357,22.896 27.361,38.011 25.12,52.935L55.034,52.935C52.699,38.152 52.616,23.038 55.034,7.589Z"/>
        </clipPath>
        <g clip-path="url(#_clip1)">
            <rect x="20.919" y="3.725" width="40.806" height="5.774" style="fill:#b6654c;fill-opacity:0.76;"/>
            <rect x="20.919" y="51.654" width="40.806" height="5.774" style="fill:#f2b2a3;"/>
            <path id="_-Curve-" serif:id="(Curve)" d="M26.357,51.942C26.357,51.942 31.041,47.044 40.077,47.044C49.113,47.044 54.176,51.409 54.176,51.409C54.176,51.409 46.14,49.738 40.077,49.738C34.014,49.738 29.384,50.854 26.357,51.942Z" style="fill:#b6654c;"/>
            <circle cx="40.266" cy="23.547" r="8.157" style="fill:#cecfeb;"/>
            <path d="M26.357,10.178C26.357,10.178 31.178,16.712 40.213,16.712C49.249,16.712 54.176,9.801 54.176,9.801C54.176,9.801 46.14,13.366 40.077,13.366C34.014,13.366 29.384,11.66 26.357,10.178Z" style="fill:#fff;fill-opacity:0.39;"/>
            <path d="M28.609,16.334C28.609,16.334 27.199,27.649 40.266,29.71C40.266,29.71 31.347,24.629 28.609,16.334Z" style="fill:#fff;fill-opacity:0.39;"/>
            <path d="M52.546,31.897C52.546,31.897 53.956,43.213 40.889,45.274C40.889,45.274 49.808,40.192 52.546,31.897Z" style="fill:#b6654c;fill-opacity:0.39;"/>
            <path d="M12.108,27.811C12.108,26.539 17.105,25.506 23.261,25.506C29.417,25.506 34.415,26.539 34.415,27.811L34.415,56.266C34.415,58.032 29.417,59.466 23.261,59.466C17.105,59.466 12.108,58.032 12.108,56.266L12.108,27.811Z" style="fill:#c84f4d;fill-opacity:0.35;"/>
        </g>
    </g>
    <g>
        <path d="M30.924,52.993C30.924,54.938 25.422,56.516 18.644,56.516C11.866,56.516 6.364,54.938 6.364,52.993L6.364,21.664L30.924,21.664L30.924,52.993Z" style="fill:#cecfeb;"/>
        <clipPath id="_clip2">
            <path d="M30.924,52.993C30.924,54.938 25.422,56.516 18.644,56.516C11.866,56.516 6.364,54.938 6.364,52.993L6.364,21.664L30.924,21.664L30.924,52.993Z"/>
        </clipPath>
        <g clip-path="url(#_clip2)">
            <rect x="6.364" y="21.664" width="8.803" height="43.253" style="fill:#e1e2f3;"/>
            <path d="M30.924,30.716L30.924,42.956C30.924,44.9 25.422,46.479 18.644,46.479C11.866,46.479 6.364,44.9 6.364,42.956L6.364,30.716C6.364,32.66 11.867,34.239 18.644,34.239C25.422,34.239 30.924,32.66 30.924,30.716Z" style="fill:#9096d5;"/>
            <rect x="9.675" y="21.664" width="2.181" height="43.253" style="fill:#fff;fill-opacity:0.49;"/>
        </g>
        <ellipse cx="18.644" cy="21.664" rx="12.28" ry="2.537" style="fill:#aaacdd;"/>
        <clipPath id="_clip3">
            <ellipse cx="18.644" cy="21.664" rx="12.28" ry="2.537"/>
        </clipPath>
        <g clip-path="url(#_clip3)">
            <ellipse cx="18.644" cy="22.717" rx="12.28" ry="2.537" style="fill:#e1e2f3;"/>
        </g>
    </g>
</svg>
