<?xml version="1.0" encoding="UTF-8" standalone="no"?>
<!DOCTYPE svg PUBLIC "-//W3C//DTD SVG 1.1//EN" "http://www.w3.org/Graphics/SVG/1.1/DTD/svg11.dtd">
<svg width="100%" height="100%" viewBox="0 0 65 64" version="1.1" xmlns="http://www.w3.org/2000/svg" xmlns:xlink="http://www.w3.org/1999/xlink" xml:space="preserve" xmlns:serif="http://www.serif.com/" style="fill-rule:evenodd;clip-rule:evenodd;stroke-linejoin:round;stroke-miterlimit:2;">
    <rect id="Trans-fats-1" x="0.738" y="0" width="64" height="64" style="fill:none;"/>
    <path d="M5.336,34.712L7.091,37.404L6.161,44.194L3.705,46.617L1.988,46.358L3.619,34.453L5.336,34.712Z" style="fill:#2c327e;"/>
    <clipPath id="_clip1">
        <path d="M5.336,34.712L7.091,37.404L6.161,44.194L3.705,46.617L1.988,46.358L3.619,34.453L5.336,34.712Z"/>
    </clipPath>
    <g clip-path="url(#_clip1)">
        <path d="M39.453,43.114L40.234,37.421L-10.537,30.457L-11.317,36.15L39.453,43.114Z" style="fill:#adacd6;fill-opacity:0.82;"/>
    </g>
    <g>
        <g>
            <path d="M34.295,45.918C49.193,45.918 63.492,47.769 63.492,50.048C63.492,52.327 61.037,54.177 46.138,54.177C14.654,54.177 2.744,48.271 2.744,45.992C2.744,43.712 19.396,45.918 34.295,45.918Z" style="fill:#b5b8e2;fill-opacity:0.18;"/>
            <path d="M60.275,6.737L32.002,6.737C34.116,21.204 34.12,35.49 32.002,49.595L60.275,49.595C58.068,35.623 57.99,21.338 60.275,6.737Z" style="fill:#f1765a;"/>
            <clipPath id="_clip2">
                <path d="M60.275,6.737L32.002,6.737C34.116,21.204 34.12,35.49 32.002,49.595L60.275,49.595C58.068,35.623 57.99,21.338 60.275,6.737Z"/>
            </clipPath>
            <g clip-path="url(#_clip2)">
                <rect x="28.031" y="3.085" width="38.566" height="5.457" style="fill:#a35f47;fill-opacity:0.76;"/>
                <rect x="28.031" y="48.384" width="38.566" height="5.457" style="fill:#f6ac9b;fill-opacity:0.76;"/>
                <path id="_-Curve-" serif:id="(Curve)" d="M33.171,48.656C33.171,48.656 37.598,44.027 46.138,44.027C54.678,44.027 59.463,48.153 59.463,48.153C59.463,48.153 51.868,46.573 46.138,46.573C40.408,46.573 36.032,47.627 33.171,48.656Z" style="fill:#a35f47;"/>
                <circle cx="46.317" cy="22.562" r="10.468" style="fill:#ececf6;"/>
                <path d="M33.171,9.184C33.171,9.184 37.727,15.36 46.267,15.36C54.807,15.36 59.463,8.828 59.463,8.828C59.463,8.828 51.868,12.197 46.138,12.197C40.408,12.197 36.032,10.585 33.171,9.184Z" style="fill:#fff;fill-opacity:0.39;"/>
                <path d="M35.3,15.002C35.3,15.002 33.967,25.696 46.317,27.644C46.317,27.644 37.887,22.842 35.3,15.002Z" style="fill:#fff;fill-opacity:0.39;"/>
                <path d="M57.923,29.711C57.923,29.711 59.255,40.406 46.906,42.354C46.906,42.354 55.336,37.551 57.923,29.711Z" style="fill:#a35f47;fill-opacity:0.39;"/>
                <path d="M46.463,55.675L10.431,50.733C8.61,50.483 7.521,47.442 8.001,43.945C8.48,40.449 10.348,37.813 12.168,38.063L48.201,43.005C48.781,43.085 49.236,43.712 49.522,44.69L50.718,43.51L52.435,43.77L50.805,55.675L49.087,55.415L48.305,54.215C47.738,55.2 47.085,55.76 46.463,55.675Z" style="fill:#2c327e;fill-opacity:0.21;"/>
            </g>
        </g>
    </g>
    <path d="M43.295,21.884C45.375,21.884 49.854,18.876 49.854,20.186C49.854,21.495 48.332,26.301 43.984,26.767C41.951,26.984 38.478,25.028 39.186,22.023C39.275,21.642 41.216,21.884 43.295,21.884Z" style="fill:#b6654c;"/>
    <path d="M47.897,20.186C51.643,17.719 51.692,16.782 51.978,16.984C53.803,18.271 55.71,22.448 51.534,24.971C47.48,27.421 39.857,23.455 39.219,22.111C38.725,21.069 43.793,22.888 47.897,20.186Z" style="fill:#f1765a;"/>
    <path d="M7.083,47.715C5.262,47.465 4.173,44.424 4.653,40.928C5.132,37.431 7,34.796 8.82,35.045C8.82,35.045 44.853,39.988 44.853,39.988L43.115,52.658L7.083,47.715Z" style="fill:#2c327e;"/>
    <clipPath id="_clip3">
        <path d="M7.083,47.715C5.262,47.465 4.173,44.424 4.653,40.928C5.132,37.431 7,34.796 8.82,35.045C8.82,35.045 44.853,39.988 44.853,39.988L43.115,52.658L7.083,47.715Z"/>
    </clipPath>
    <g clip-path="url(#_clip3)">
        <path d="M48.564,45.595L49.345,39.902L-1.425,32.938L-2.206,38.631L48.564,45.595Z" style="fill:#928fc0;"/>
        <g>
            <path d="M22.447,38.425C18.319,39.334 15.469,42.356 16.089,45.172C16.708,47.987 20.563,49.534 24.692,48.626C28.821,47.718 31.67,44.695 31.05,41.88C30.431,39.065 26.576,37.517 22.447,38.425Z" style="fill:#54b947;"/>
            <clipPath id="_clip4">
                <path d="M22.447,38.425C18.319,39.334 15.469,42.356 16.089,45.172C16.708,47.987 20.563,49.534 24.692,48.626C28.821,47.718 31.67,44.695 31.05,41.88C30.431,39.065 26.576,37.517 22.447,38.425Z"/>
            </clipPath>
            <g clip-path="url(#_clip4)">
                <path d="M22.118,36.927C18.353,37.755 15.8,40.713 16.419,43.528C17.039,46.343 20.598,47.956 24.362,47.128C28.127,46.3 30.68,43.342 30.061,40.527C29.441,37.712 25.882,36.099 22.118,36.927Z" style="fill:#8eca7c;"/>
                <path d="M48.564,45.595L49.345,39.902L-1.425,32.938L-2.206,38.631L48.564,45.595Z" style="fill:#fff;fill-opacity:0.44;"/>
            </g>
            <g>
                <path d="M26.596,42.649C26.604,42.463 26.763,42.319 26.949,42.328C27.215,42.34 27.584,42.358 27.849,42.37C28.036,42.379 28.18,42.537 28.171,42.724C28.171,42.724 28.171,42.724 28.171,42.724C28.162,42.91 28.004,43.054 27.818,43.045C27.552,43.033 27.183,43.015 26.917,43.003C26.731,42.994 26.587,42.836 26.596,42.649C26.596,42.649 26.596,42.649 26.596,42.649Z" style="fill:#24245b;fill-opacity:0.67;"/>
                <path d="M17.644,43.038C17.511,42.906 17.51,42.692 17.642,42.56C17.77,42.43 17.929,42.27 18.057,42.141C18.189,42.008 18.403,42.007 18.535,42.139C18.535,42.139 18.535,42.139 18.535,42.139C18.668,42.27 18.669,42.484 18.537,42.617C18.409,42.746 18.25,42.906 18.122,43.036C17.99,43.168 17.776,43.169 17.644,43.038C17.644,43.038 17.644,43.038 17.644,43.038Z" style="fill:#24245b;fill-opacity:0.67;"/>
                <path d="M21.902,40.922C21.886,40.736 22.023,40.572 22.209,40.555C22.391,40.539 22.615,40.52 22.797,40.504C22.983,40.487 23.147,40.625 23.163,40.811C23.163,40.811 23.163,40.811 23.163,40.811C23.179,40.997 23.042,41.161 22.856,41.177C22.674,41.193 22.45,41.213 22.268,41.229C22.082,41.245 21.918,41.108 21.902,40.922C21.902,40.922 21.902,40.922 21.902,40.922Z" style="fill:#24245b;fill-opacity:0.67;"/>
                <path d="M22.331,42.928C22.325,42.865 22.345,42.802 22.386,42.753C22.427,42.704 22.485,42.674 22.549,42.668C22.709,42.654 22.92,42.636 23.08,42.621C23.144,42.616 23.207,42.636 23.256,42.677C23.304,42.717 23.335,42.776 23.34,42.839C23.34,42.84 23.341,42.84 23.341,42.841C23.346,42.904 23.326,42.967 23.285,43.016C23.245,43.065 23.186,43.095 23.123,43.101C22.962,43.115 22.751,43.134 22.591,43.148C22.528,43.153 22.465,43.134 22.416,43.093C22.367,43.052 22.336,42.993 22.331,42.93C22.331,42.929 22.331,42.929 22.331,42.928Z" style="fill:#24245b;"/>
                <path d="M27.963,40.751C27.917,40.707 27.891,40.646 27.89,40.583C27.889,40.519 27.914,40.458 27.958,40.412C28.07,40.296 28.218,40.145 28.33,40.029C28.374,39.984 28.435,39.958 28.499,39.957C28.562,39.956 28.624,39.98 28.669,40.025C28.67,40.025 28.67,40.025 28.67,40.026C28.716,40.07 28.742,40.131 28.743,40.194C28.744,40.258 28.72,40.319 28.675,40.365C28.563,40.481 28.415,40.632 28.303,40.748C28.259,40.793 28.198,40.819 28.134,40.82C28.071,40.821 28.009,40.797 27.964,40.752C27.963,40.752 27.963,40.752 27.963,40.751Z" style="fill:#24245b;"/>
                <path d="M18.724,44.385C18.678,44.341 18.652,44.28 18.651,44.217C18.65,44.153 18.675,44.092 18.719,44.046C18.831,43.93 18.979,43.779 19.091,43.663C19.135,43.618 19.196,43.592 19.26,43.591C19.323,43.59 19.385,43.614 19.43,43.659C19.431,43.659 19.431,43.659 19.432,43.66C19.477,43.704 19.503,43.765 19.504,43.828C19.505,43.892 19.481,43.953 19.436,43.999C19.324,44.114 19.177,44.266 19.064,44.382C19.02,44.427 18.959,44.453 18.896,44.454C18.832,44.455 18.771,44.431 18.725,44.386C18.725,44.386 18.724,44.386 18.724,44.385Z" style="fill:#24245b;"/>
            </g>
            <g>
                <path d="M25.808,39.459C25.814,39.646 25.667,39.802 25.48,39.807C25.214,39.816 24.845,39.827 24.579,39.835C24.393,39.841 24.237,39.694 24.231,39.507C24.231,39.507 24.231,39.507 24.231,39.507C24.225,39.321 24.372,39.165 24.559,39.159C24.825,39.151 25.194,39.14 25.46,39.132C25.646,39.126 25.802,39.273 25.808,39.459C25.808,39.459 25.808,39.459 25.808,39.459Z" style="fill:#24245b;fill-opacity:0.67;"/>
                <path d="M22.773,44.627C22.779,44.813 22.632,44.969 22.446,44.975C22.18,44.983 21.811,44.994 21.545,45.003C21.358,45.008 21.202,44.862 21.197,44.675C21.197,44.675 21.197,44.675 21.197,44.675C21.191,44.488 21.338,44.333 21.524,44.327C21.79,44.319 22.159,44.307 22.425,44.299C22.612,44.294 22.768,44.44 22.773,44.627C22.773,44.627 22.773,44.627 22.773,44.627Z" style="fill:#24245b;fill-opacity:0.67;"/>
                <path d="M30.246,43.204C30.388,43.325 30.406,43.538 30.285,43.68C30.167,43.82 30.021,43.991 29.903,44.13C29.782,44.273 29.569,44.29 29.427,44.17C29.427,44.17 29.427,44.169 29.427,44.169C29.284,44.049 29.267,43.835 29.388,43.693C29.506,43.554 29.651,43.382 29.769,43.243C29.89,43.101 30.103,43.083 30.246,43.204C30.246,43.204 30.246,43.204 30.246,43.204Z" style="fill:#24245b;fill-opacity:0.67;"/>
                <path d="M26.165,45.644C26.195,45.828 26.071,46.002 25.887,46.033C25.707,46.063 25.485,46.1 25.305,46.13C25.121,46.161 24.947,46.036 24.916,45.852C24.916,45.852 24.916,45.852 24.916,45.852C24.885,45.668 25.009,45.494 25.194,45.463C25.374,45.433 25.595,45.396 25.776,45.366C25.96,45.335 26.134,45.46 26.165,45.644C26.165,45.644 26.165,45.644 26.165,45.644Z" style="fill:#24245b;fill-opacity:0.67;"/>
                <path d="M25.609,44.098C25.62,44.16 25.605,44.225 25.568,44.277C25.531,44.328 25.475,44.363 25.412,44.374C25.253,44.4 25.045,44.435 24.886,44.462C24.823,44.472 24.759,44.457 24.707,44.42C24.655,44.383 24.62,44.327 24.61,44.265C24.61,44.264 24.61,44.264 24.609,44.263C24.599,44.2 24.614,44.136 24.651,44.084C24.688,44.032 24.744,43.997 24.807,43.987C24.966,43.96 25.174,43.925 25.333,43.899C25.396,43.888 25.46,43.903 25.512,43.94C25.564,43.977 25.599,44.033 25.609,44.096C25.609,44.097 25.609,44.097 25.609,44.098Z" style="fill:#24245b;"/>
                <path d="M20.135,46.283C20.184,46.324 20.215,46.383 20.221,46.446C20.227,46.509 20.207,46.573 20.166,46.621C20.063,46.745 19.928,46.908 19.825,47.032C19.784,47.081 19.726,47.111 19.663,47.117C19.599,47.123 19.536,47.104 19.487,47.063C19.487,47.063 19.486,47.062 19.486,47.062C19.437,47.021 19.406,46.963 19.4,46.899C19.395,46.836 19.414,46.773 19.455,46.724C19.558,46.6 19.693,46.437 19.796,46.314C19.837,46.265 19.895,46.234 19.959,46.228C20.022,46.222 20.085,46.242 20.134,46.283C20.134,46.283 20.135,46.283 20.135,46.283Z" style="fill:#24245b;"/>
                <path d="M23.775,47.375C23.744,47.43 23.692,47.471 23.63,47.488C23.569,47.505 23.503,47.497 23.448,47.466C23.308,47.387 23.123,47.283 22.983,47.204C22.928,47.173 22.887,47.121 22.87,47.06C22.852,46.998 22.86,46.933 22.892,46.877C22.892,46.877 22.892,46.876 22.892,46.876C22.924,46.82 22.976,46.78 23.037,46.763C23.098,46.745 23.164,46.753 23.219,46.785C23.36,46.864 23.544,46.967 23.684,47.046C23.74,47.078 23.78,47.13 23.798,47.191C23.815,47.252 23.807,47.318 23.776,47.373C23.775,47.374 23.775,47.374 23.775,47.375Z" style="fill:#24245b;"/>
            </g>
        </g>
    </g>
    <path d="M46.36,46.648C45.88,50.145 44.427,52.837 43.115,52.658C41.804,52.478 41.129,49.493 41.609,45.997C42.088,42.5 43.542,39.808 44.853,39.988C46.164,40.168 46.84,43.152 46.36,46.648Z" style="fill:#2c327e;"/>
    <path d="M45.739,52.398L43.984,49.706L44.914,42.916L47.37,40.493L49.087,40.752L47.457,52.658L45.739,52.398Z" style="fill:#2c327e;"/>
    <clipPath id="_clip5">
        <path d="M45.739,52.398L43.984,49.706L44.914,42.916L47.37,40.493L49.087,40.752L47.457,52.658L45.739,52.398Z"/>
    </clipPath>
    <g clip-path="url(#_clip5)">
        <path d="M85.581,49.578L86.362,43.885L35.592,36.921L34.811,42.614L85.581,49.578Z" style="fill:#adacd6;fill-opacity:0.82;"/>
    </g>
    <path d="M45.739,52.398L43.984,49.706L44.914,42.916L47.37,40.493L49.087,40.752L47.457,52.658L45.739,52.398Z" style="fill:#2c327e;"/>
    <clipPath id="_clip6">
        <path d="M45.739,52.398L43.984,49.706L44.914,42.916L47.37,40.493L49.087,40.752L47.457,52.658L45.739,52.398Z"/>
    </clipPath>
    <g clip-path="url(#_clip6)">
        <path d="M85.581,49.578L86.362,43.885L35.592,36.921L34.811,42.614L85.581,49.578Z" style="fill:#adacd6;fill-opacity:0.82;"/>
    </g>
</svg>
