<?xml version="1.0" encoding="UTF-8" standalone="no"?>
<!DOCTYPE svg PUBLIC "-//W3C//DTD SVG 1.1//EN" "http://www.w3.org/Graphics/SVG/1.1/DTD/svg11.dtd">
<svg width="100%" height="100%" viewBox="0 0 65 64" version="1.1" xmlns="http://www.w3.org/2000/svg" xmlns:xlink="http://www.w3.org/1999/xlink" xml:space="preserve" xmlns:serif="http://www.serif.com/" style="fill-rule:evenodd;clip-rule:evenodd;stroke-linejoin:round;stroke-miterlimit:1;">
    <rect id="Vaccine" x="0.738" y="0" width="64" height="64" style="fill:none;"/>
    <ellipse cx="19.738" cy="53.589" rx="13" ry="3.871" style="fill:#dfdff2;fill-opacity:0.44;"/>
    <path d="M6.742,35.998C6.87,31.266 9.708,34.122 11.687,27.819C12.484,27.793 18.369,27.726 18.396,27.819C20.148,33.986 22.963,31.437 22.91,36.181L22.91,54.391L22.909,54.391C22.91,54.401 22.91,54.412 22.91,54.423C22.91,55.848 19.287,57.005 14.824,57.005C10.361,57.005 6.738,55.848 6.738,54.423C6.738,54.412 6.738,54.401 6.739,54.391L6.738,54.391L6.738,36.193C6.738,36.189 6.738,36.185 6.738,36.181L6.738,35.998L6.742,35.998Z" style="fill:#dfdff2;"/>
    <clipPath id="_clip1">
        <path d="M6.742,35.998C6.87,31.266 9.708,34.122 11.687,27.819C12.484,27.793 18.369,27.726 18.396,27.819C20.148,33.986 22.963,31.437 22.91,36.181L22.91,54.391L22.909,54.391C22.91,54.401 22.91,54.412 22.91,54.423C22.91,55.848 19.287,57.005 14.824,57.005C10.361,57.005 6.738,55.848 6.738,54.423C6.738,54.412 6.738,54.401 6.739,54.391L6.738,54.391L6.738,36.193C6.738,36.189 6.738,36.185 6.738,36.181L6.738,35.998L6.742,35.998Z"/>
    </clipPath>
    <g clip-path="url(#_clip1)">
        <path d="M22.91,39.814L22.91,44.587C22.91,45.687 19.287,46.581 14.824,46.581C10.361,46.581 6.738,45.687 6.738,44.587L6.738,39.814C6.738,40.924 10.361,41.824 14.824,41.824C19.287,41.824 22.91,40.924 22.91,39.814Z" style="fill:#f3775b;"/>
        <path d="M11.383,36.034C10.433,36.099 9.596,35.925 8.871,35.513L8.871,57.429L11.383,57.429L11.383,36.034Z" style="fill:#fff;fill-opacity:0.58;"/>
        <path d="M27.566,18.359C24.047,18.485 20.943,18.149 18.254,17.351L18.254,59.78L27.566,59.78L27.566,18.359Z" style="fill:#2a2f7d;fill-opacity:0.14;"/>
        <path d="M6.74,31.814L6.738,31.814C6.738,31.814 6.738,30.544 6.738,29.428C6.738,28.513 7.48,27.771 8.395,27.771C11.519,27.771 18.243,27.771 21.317,27.771C22.197,27.771 22.91,28.484 22.91,29.364L22.91,31.814L22.908,31.814C22.909,31.825 22.91,31.836 22.91,31.847C22.91,32.74 19.287,33.464 14.824,33.464C10.361,33.464 6.738,32.74 6.738,31.847C6.738,31.836 6.739,31.825 6.74,31.814Z" style="fill:#c8c8e3;fill-opacity:0.32;"/>
    </g>
    <path d="M6.74,29.403L6.738,29.403C6.738,29.403 6.738,28.133 6.738,27.017C6.738,26.102 7.48,25.36 8.395,25.36C11.519,25.36 18.243,25.36 21.317,25.36C22.197,25.36 22.91,26.073 22.91,26.953L22.91,29.403L22.908,29.403C22.909,29.414 22.91,29.425 22.91,29.436C22.91,30.329 19.287,31.053 14.824,31.053C10.361,31.053 6.738,30.329 6.738,29.436C6.738,29.425 6.739,29.414 6.74,29.403Z" style="fill:#c8c8e3;"/>
    <clipPath id="_clip2">
        <path d="M6.74,29.403L6.738,29.403C6.738,29.403 6.738,28.133 6.738,27.017C6.738,26.102 7.48,25.36 8.395,25.36C11.519,25.36 18.243,25.36 21.317,25.36C22.197,25.36 22.91,26.073 22.91,26.953L22.91,29.403L22.908,29.403C22.909,29.414 22.91,29.425 22.91,29.436C22.91,30.329 19.287,31.053 14.824,31.053C10.361,31.053 6.738,30.329 6.738,29.436C6.738,29.425 6.739,29.414 6.74,29.403Z"/>
    </clipPath>
    <g clip-path="url(#_clip2)">
        <path d="M11.383,22.726C10.433,22.791 9.596,22.617 8.871,22.205L8.871,44.121L11.383,44.121L11.383,22.726Z" style="fill:#fff;fill-opacity:0.58;"/>
    </g>
    <ellipse cx="14.824" cy="25.946" rx="7.473" ry="1.535" style="fill:#dfdff2;"/>
    <ellipse cx="14.824" cy="25.702" rx="2.785" ry="0.557" style="fill:#f3775b;"/>
    <g>
        <path d="M59.354,4.096C62.321,6.151 64.188,8.6 63.521,9.563C62.855,10.526 59.905,9.64 56.938,7.586C53.971,5.531 52.104,3.082 52.77,2.119C53.437,1.156 56.387,2.042 59.354,4.096Z" style="fill:#afafd7;"/>
        <path d="M58.413,5.456C59.245,6.032 59.801,6.672 59.654,6.885C59.506,7.098 58.711,6.803 57.879,6.226C57.047,5.65 56.491,5.01 56.638,4.797C56.785,4.584 57.581,4.88 58.413,5.456Z" style="fill:#ccccea;"/>
        <path d="M59.681,6.846L56.665,4.758L38.007,31.704L41.022,33.792L59.681,6.846Z" style="fill:#ccccea;"/>
        <path d="M53.172,13.025C58.737,16.878 62.379,21.274 61.298,22.835C60.217,24.395 54.822,22.534 49.256,18.68C43.69,14.826 40.049,10.43 41.13,8.87C42.21,7.309 47.606,9.171 53.172,13.025Z" style="fill:#b0b0d7;"/>
        <path d="M45.838,12.13C46.363,11.372 49.198,12.424 52.165,14.478C55.132,16.533 57.114,18.816 56.589,19.574L37.931,46.52L27.18,39.076L45.838,12.13Z" style="fill:#c8c8e3;"/>
        <clipPath id="_clip3">
            <path d="M45.838,12.13C46.363,11.372 49.198,12.424 52.165,14.478C55.132,16.533 57.114,18.816 56.589,19.574L37.931,46.52L27.18,39.076L45.838,12.13Z"/>
        </clipPath>
        <g clip-path="url(#_clip3)">
            <path d="M62.137,17.154L46.152,6.086L34.196,23.352L50.181,34.42L62.137,17.154Z" style="fill:#dfdff2;"/>
            <g>
                <path d="M48.025,31.943L37.274,24.499L34.875,27.964L45.626,35.408L48.025,31.943Z" style="fill:#2a2f7d;"/>
                <path d="M41.201,30.312C44.168,32.367 46.151,34.65 45.626,35.408C45.101,36.166 42.266,35.114 39.299,33.06C36.332,31.005 34.35,28.722 34.875,27.964C35.4,27.206 38.235,28.258 41.201,30.312Z" style="fill:#777ab8;"/>
                <path d="M38.291,22.156C38.474,21.891 38.939,21.847 39.594,21.989C40.813,22.255 42.687,23.167 44.617,24.504" style="fill:none;stroke:#5558a4;stroke-width:0.75px;"/>
                <path d="M28.449,36.763C28.633,36.498 29.098,36.454 29.753,36.597C30.971,36.862 32.846,37.775 34.776,39.111" style="fill:none;stroke:#5558a4;stroke-width:0.75px;"/>
                <path d="M39.895,19.566C40.078,19.301 40.544,19.257 41.198,19.4C42.417,19.665 44.291,20.578 46.222,21.914" style="fill:none;stroke:#5558a4;stroke-width:0.75px;"/>
                <path d="M30.054,34.173C30.237,33.908 30.703,33.864 31.357,34.007C32.576,34.273 34.45,35.185 36.381,36.522" style="fill:none;stroke:#5558a4;stroke-width:0.75px;"/>
                <path d="M31.658,31.584C31.842,31.319 32.307,31.275 32.961,31.417C34.18,31.683 36.055,32.595 37.985,33.932" style="fill:none;stroke:#5558a4;stroke-width:0.75px;"/>
                <path d="M33.263,28.994C33.446,28.729 33.911,28.685 34.566,28.828C35.784,29.093 37.659,30.006 39.589,31.342" style="fill:none;stroke:#5558a4;stroke-width:0.75px;"/>
                <path d="M43.6,26.847C46.567,28.902 48.55,31.185 48.025,31.943C47.5,32.702 44.665,31.649 41.698,29.595C38.731,27.541 36.749,25.257 37.274,24.499C37.799,23.741 40.634,24.793 43.6,26.847Z" style="fill:#2a2f7d;"/>
            </g>
            <path d="M30.156,43.043C29.372,42.36 28.448,42.094 27.383,42.245L49.484,10.328L51.731,11.884L30.156,43.043Z" style="fill:#fff;fill-opacity:0.58;"/>
        </g>
        <path d="M33.57,41.333C36.537,43.387 38.519,45.671 37.995,46.429C37.47,47.187 34.635,46.135 31.668,44.08C28.701,42.026 26.719,39.743 27.244,38.984C27.769,38.226 30.603,39.279 33.57,41.333Z" style="fill:#b0b0d7;"/>
        <path d="M31.532,42.303C31.622,42.173 32.109,42.354 32.619,42.707C33.127,43.058 33.467,43.449 33.38,43.581L33.379,43.582L31.954,45.64L29.987,46.862L19.185,62.463L18.853,62.233L29.655,46.632L30.086,44.392L31.532,42.303Z" style="fill:#f1b1af;"/>
        <clipPath id="_clip4">
            <path d="M31.532,42.303C31.622,42.173 32.109,42.354 32.619,42.707C33.127,43.058 33.467,43.449 33.38,43.581L33.379,43.582L31.954,45.64L29.987,46.862L19.185,62.463L18.853,62.233L29.655,46.632L30.086,44.392L31.532,42.303Z"/>
        </clipPath>
        <g clip-path="url(#_clip4)">
            <path d="M39.665,40.865L35.747,38.152L14.653,68.614L18.572,71.328L39.665,40.865Z" style="fill:#f3775b;"/>
        </g>
    </g>
</svg>
