<?xml version="1.0" encoding="UTF-8" standalone="no"?>
<!DOCTYPE svg PUBLIC "-//W3C//DTD SVG 1.1//EN" "http://www.w3.org/Graphics/SVG/1.1/DTD/svg11.dtd">
<svg width="100%" height="100%" viewBox="0 0 65 65" version="1.1" xmlns="http://www.w3.org/2000/svg" xmlns:xlink="http://www.w3.org/1999/xlink" xml:space="preserve" xmlns:serif="http://www.serif.com/" style="fill-rule:evenodd;clip-rule:evenodd;stroke-linejoin:round;stroke-miterlimit:2;">
    <rect id="Warn-Red" x="0.824" y="0.587" width="64" height="64" style="fill:none;"/>
    <path d="M28.559,6.852C29.383,5.256 31.028,4.253 32.824,4.253C34.62,4.253 36.266,5.256 37.09,6.852C43.439,19.152 55.263,42.062 61.211,53.586C61.979,55.074 61.916,56.855 61.045,58.285C60.173,59.715 58.62,60.587 56.945,60.587C44.642,60.587 21.006,60.587 8.703,60.587C7.029,60.587 5.475,59.715 4.604,58.285C3.733,56.855 3.67,55.074 4.438,53.586C10.386,42.062 22.21,19.152 28.559,6.852Z" style="fill:#f3775b;"/>
    <path d="M35.618,20.027L30.53,20.027L30.53,43.739L35.618,43.739L35.618,20.027ZM33.074,47.483C31.154,47.483 29.666,48.875 29.666,50.795C29.666,52.715 31.154,54.155 33.074,54.155C34.994,54.155 36.53,52.715 36.53,50.795C36.53,48.875 34.994,47.483 33.074,47.483Z" style="fill:#fff;fill-rule:nonzero;"/>
</svg>
