<?xml version="1.0" encoding="UTF-8" standalone="no"?>
<!DOCTYPE svg PUBLIC "-//W3C//DTD SVG 1.1//EN" "http://www.w3.org/Graphics/SVG/1.1/DTD/svg11.dtd">
<svg width="100%" height="100%" viewBox="0 0 64 65" version="1.1" xmlns="http://www.w3.org/2000/svg" xmlns:xlink="http://www.w3.org/1999/xlink" xml:space="preserve" xmlns:serif="http://www.serif.com/" style="fill-rule:evenodd;clip-rule:evenodd;stroke-linecap:round;stroke-linejoin:round;stroke-miterlimit:1.5;">
    <rect id="Workforce-PE" x="0" y="0.853" width="64" height="64" style="fill:none;"/>
    <clipPath id="_clip1">
        <rect x="0" y="0.853" width="64" height="64"/>
    </clipPath>
    <g clip-path="url(#_clip1)">
        <path d="M45.707,29.814C45.172,29.281 44.312,29.264 43.756,29.775C43.2,30.287 43.145,31.145 43.632,31.723C44.778,33.157 46.573,34.337 49.289,34.746L50.348,32.84C50.348,32.84 48.017,31.52 45.707,29.814Z" style="fill:#329f46;"/>
        <path d="M53.355,36.985L47.777,40.644C47.777,40.644 45.719,39.632 43.323,38.454C38.505,36.085 33.208,34.853 27.839,34.853C26.999,34.853 26.161,34.853 25.362,34.853C21.816,34.853 18.299,35.491 14.979,36.736C14.979,36.736 14.979,36.736 14.978,36.736C8.151,39.296 3.13,45.201 1.701,52.35C0.81,56.804 0,60.853 0,60.853L64,60.853L53.355,36.985Z" style="fill:#c3c7d3;"/>
        <path d="M45.613,42.521L51.791,60.853L58.785,60.853L52,44.412L45.613,42.521Z" style="fill:#afb4c4;"/>
        <g>
            <path d="M10.625,54.853C10.625,54.853 10.625,52.127 10.625,49.521C10.625,46.943 12.715,44.853 15.293,44.853C15.294,44.853 15.294,44.853 15.295,44.853C18.239,44.853 20.625,47.239 20.625,50.183C20.625,52.568 20.625,54.853 20.625,54.853" style="fill:none;stroke:#fff;stroke-width:2px;"/>
            <circle cx="20.625" cy="53.853" r="2.5" style="fill:#fff;"/>
            <circle cx="10.625" cy="53.853" r="2.5" style="fill:#fff;"/>
        </g>
        <path d="M15.625,44.853C15.625,44.853 15.625,43.883 15.625,42.495C15.625,39.938 16.641,37.485 18.449,35.677C20.257,33.869 22.71,32.853 25.267,32.853C25.268,32.853 25.269,32.853 25.27,32.853C33.405,32.853 40,39.448 40,47.583C40,48.96 40,49.853 40,49.853" style="fill:none;stroke:#fff;stroke-width:2px;"/>
        <path d="M35,29.853L21,29.853L21,37.853L28,49.853L35,37.853L35,29.853Z" style="fill:#3bbc53;"/>
        <path d="M21,33.76L21,32.853L35,32.853L35,37.943C33.169,38.35 30.507,38.404 28,37.853C24.105,36.997 22.437,35.241 21,33.76Z" style="fill:#2a843a;"/>
        <path d="M40,17.551C40,14.183 38.662,10.954 36.281,8.572C33.899,6.191 30.67,4.853 27.302,4.853C27.301,4.853 27.301,4.853 27.3,4.853C21.059,4.853 16,9.912 16,16.153C16,19.013 16,22.065 16,24.855C16,30.377 20.476,34.853 25.998,34.853L32.186,34.853C34.258,34.853 36.246,34.03 37.711,32.564C39.177,31.099 40,29.112 40,27.039C40,24.141 40,20.773 40,17.551Z" style="fill:#4ac661;"/>
        <g>
            <path d="M35.875,24.728L45.5,36.513" style="fill:none;stroke:#afb4c4;stroke-width:3px;stroke-linejoin:miter;stroke-miterlimit:1;"/>
            <circle cx="33.875" cy="22.728" r="8.375" style="fill:#fff;"/>
            <circle cx="33.875" cy="22.728" r="5.921" style="fill:#d1d2e2;"/>
            <path d="M45.574,43.299C45.574,43.299 42.456,39.532 40.436,37.092C39.459,35.912 39.461,34.203 40.441,33.025C40.441,33.025 40.441,33.025 40.441,33.025C41.67,31.547 43.532,30.749 45.45,30.877C45.513,30.881 45.576,30.886 45.639,30.89C48.169,31.059 50.494,32.336 51.994,34.379C52.68,35.312 53.258,36.36 53.452,37.403C54.034,40.53 53.175,42.942 51.857,43.835C49.555,45.395 45.574,43.299 45.574,43.299Z" style="fill:#3bbc53;"/>
            <clipPath id="_clip2">
                <path d="M45.574,43.299C45.574,43.299 42.456,39.532 40.436,37.092C39.459,35.912 39.461,34.203 40.441,33.025C40.441,33.025 40.441,33.025 40.441,33.025C41.67,31.547 43.532,30.749 45.45,30.877C45.513,30.881 45.576,30.886 45.639,30.89C48.169,31.059 50.494,32.336 51.994,34.379C52.68,35.312 53.258,36.36 53.452,37.403C54.034,40.53 53.175,42.942 51.857,43.835C49.555,45.395 45.574,43.299 45.574,43.299Z"/>
            </clipPath>
            <g clip-path="url(#_clip2)">
                <path d="M41.179,28.977L55.912,50.26L46.047,46.19L35.166,39.921L36.771,33.721L41.179,28.977Z" style="fill:#329f46;"/>
            </g>
        </g>
        <circle cx="39.625" cy="50.853" r="4" style="fill:#fff;"/>
    </g>
</svg>
