<?xml version="1.0" encoding="UTF-8" standalone="no"?>
<!DOCTYPE svg PUBLIC "-//W3C//DTD SVG 1.1//EN" "http://www.w3.org/Graphics/SVG/1.1/DTD/svg11.dtd">
<svg width="100%" height="100%" viewBox="0 0 64 65" version="1.1" xmlns="http://www.w3.org/2000/svg" xmlns:xlink="http://www.w3.org/1999/xlink" xml:space="preserve" xmlns:serif="http://www.serif.com/" style="fill-rule:evenodd;clip-rule:evenodd;stroke-linecap:round;stroke-linejoin:round;stroke-miterlimit:1.5;">
    <rect id="Workforce-PE" x="0" y="0.956" width="64" height="64" style="fill:none;"/>
    <clipPath id="_clip1">
        <rect x="0" y="0.956" width="64" height="64"/>
    </clipPath>
    <g clip-path="url(#_clip1)">
        <path d="M45.707,29.917C45.172,29.384 44.312,29.367 43.756,29.878C43.2,30.39 43.145,31.248 43.632,31.826C44.778,33.259 46.573,34.44 49.289,34.849L50.348,32.943C50.348,32.943 48.017,31.622 45.707,29.917Z" style="fill:#77884d;"/>
        <path d="M53.355,37.088L47.777,40.747C47.777,40.747 45.719,39.735 43.323,38.557C38.505,36.188 33.208,34.956 27.839,34.956C26.999,34.956 26.161,34.956 25.362,34.956C21.816,34.956 18.299,35.594 14.979,36.839C14.979,36.839 14.979,36.839 14.978,36.839C8.151,39.399 3.13,45.304 1.701,52.453C0.81,56.907 0,60.956 0,60.956L64,60.956L53.355,37.088Z" style="fill:#dfdff2;"/>
        <path d="M45.613,42.624L51.791,60.956L56.375,60.956L47.96,44.282L45.613,42.624Z" style="fill:#c7c7e8;"/>
        <g>
            <path d="M10.625,54.956C10.625,54.956 10.625,52.23 10.625,49.624C10.625,47.046 12.715,44.956 15.293,44.956C15.294,44.956 15.294,44.956 15.295,44.956C18.239,44.956 20.625,47.342 20.625,50.286C20.625,52.671 20.625,54.956 20.625,54.956" style="fill:none;stroke:#2b307e;stroke-width:2px;"/>
            <circle cx="20.625" cy="53.956" r="2.5" style="fill:#2b307e;"/>
            <circle cx="10.625" cy="53.956" r="2.5" style="fill:#2b307e;"/>
        </g>
        <path d="M15.625,44.956C15.625,44.956 15.625,43.986 15.625,42.598C15.625,40.041 16.641,37.588 18.449,35.78C20.257,33.972 22.71,32.956 25.267,32.956C25.268,32.956 25.269,32.956 25.27,32.956C33.405,32.956 40,39.551 40,47.686C40,49.063 40,49.956 40,49.956" style="fill:none;stroke:#2b307e;stroke-width:2px;"/>
        <path d="M35,29.956L21,29.956L21,37.956L28,49.956L35,37.956L35,29.956Z" style="fill:#39b54a;"/>
        <path d="M21,33.863L21,32.956L35,32.956L35,38.046C33.169,38.453 30.507,38.507 28,37.956C24.105,37.1 22.437,35.344 21,33.863Z" style="fill:#664e39;fill-opacity:0.560784;"/>
        <path d="M40,16.806C40,10.261 34.695,4.956 28.15,4.956C28.05,4.956 27.95,4.956 27.85,4.956C21.305,4.956 16,10.261 16,16.806C16,18.878 16,21.034 16,23.106C16,26.249 17.248,29.263 19.471,31.485C21.693,33.708 24.707,34.956 27.85,34.956L30.24,34.956C35.63,34.956 40,30.586 40,25.196C40,22.519 40,19.587 40,16.806Z" style="fill:#39b54a;"/>
        <g>
            <path d="M35.875,24.831L45.5,36.616" style="fill:none;stroke:#2b307e;stroke-width:3px;stroke-linejoin:miter;stroke-miterlimit:1;"/>
            <circle cx="33.875" cy="22.831" r="8.375" style="fill:#2b307e;"/>
            <circle cx="33.875" cy="22.831" r="5.921" style="fill:#f2f3fa;"/>
            <path d="M45.574,43.402C45.574,43.402 42.456,39.635 40.436,37.195C39.459,36.015 39.461,34.306 40.441,33.128C40.441,33.128 40.441,33.128 40.441,33.128C41.67,31.65 43.532,30.852 45.45,30.98C45.513,30.984 45.576,30.988 45.639,30.993C48.169,31.162 50.494,32.439 51.994,34.482C52.68,35.415 53.258,36.463 53.452,37.506C54.034,40.633 53.175,43.045 51.857,43.937C49.555,45.498 45.574,43.402 45.574,43.402Z" style="fill:#39b54a;"/>
            <clipPath id="_clip2">
                <path d="M45.574,43.402C45.574,43.402 42.456,39.635 40.436,37.195C39.459,36.015 39.461,34.306 40.441,33.128C40.441,33.128 40.441,33.128 40.441,33.128C41.67,31.65 43.532,30.852 45.45,30.98C45.513,30.984 45.576,30.988 45.639,30.993C48.169,31.162 50.494,32.439 51.994,34.482C52.68,35.415 53.258,36.463 53.452,37.506C54.034,40.633 53.175,43.045 51.857,43.937C49.555,45.498 45.574,43.402 45.574,43.402Z"/>
            </clipPath>
            <g clip-path="url(#_clip2)">
                <path d="M41.179,29.08L55.912,50.363L46.047,46.293L35.166,40.024L36.771,33.824L41.179,29.08Z" style="fill:#a46048;fill-opacity:0.568627;"/>
            </g>
        </g>
        <circle cx="39.625" cy="50.956" r="4" style="fill:#2b307e;"/>
    </g>
</svg>
