<?xml version="1.0" encoding="UTF-8" standalone="no"?>
<!DOCTYPE svg PUBLIC "-//W3C//DTD SVG 1.1//EN" "http://www.w3.org/Graphics/SVG/1.1/DTD/svg11.dtd">
<svg width="100%" height="100%" viewBox="0 0 65 64" version="1.1" xmlns="http://www.w3.org/2000/svg" xmlns:xlink="http://www.w3.org/1999/xlink" xml:space="preserve" xmlns:serif="http://www.serif.com/" style="fill-rule:evenodd;clip-rule:evenodd;stroke-linecap:round;stroke-linejoin:round;stroke-miterlimit:1.5;">
    <rect id="Workforce-PE" x="0.738" y="0" width="64" height="64" style="fill:none;"/>
    <clipPath id="_clip1">
        <rect x="0.738" y="0" width="64" height="64"/>
    </clipPath>
    <g clip-path="url(#_clip1)">
        <path d="M46.445,28.961C45.91,28.428 45.05,28.411 44.494,28.922C43.938,29.434 43.883,30.292 44.37,30.87C45.516,32.303 47.311,33.484 50.027,33.893L51.086,31.987C51.086,31.987 48.755,30.666 46.445,28.961Z" style="fill:#329f46;"/>
        <path d="M54.093,36.132L48.515,39.791C48.515,39.791 46.457,38.779 44.061,37.601C39.244,35.232 33.946,34 28.578,34L26.101,34C22.555,34 19.038,34.638 15.717,35.883C15.717,35.883 15.717,35.883 15.717,35.883C8.89,38.443 3.869,44.348 2.439,51.497C1.548,55.951 0.738,60 0.738,60L64.738,60L54.093,36.132Z" style="fill:#c3c7d3;"/>
        <path d="M46.352,41.668L52.529,60L59.523,60L52.738,43.559L46.352,41.668Z" style="fill:#afb4c4;"/>
        <g>
            <path d="M11.363,54L11.363,48.668C11.363,46.09 13.453,44 16.031,44L16.033,44C18.977,44 21.363,46.386 21.363,49.33L21.363,54" style="fill:none;stroke:#fff;stroke-width:2px;"/>
            <circle cx="21.363" cy="53" r="2.5" style="fill:#fff;"/>
            <circle cx="11.363" cy="53" r="2.5" style="fill:#fff;"/>
        </g>
        <path d="M16.363,44L16.363,41.644C16.363,39.086 17.379,36.633 19.188,34.825C20.997,33.016 23.45,32 26.007,32C26.008,32 26.008,32 26.008,32C34.143,32 40.738,38.595 40.738,46.73C40.738,48.107 40.738,49 40.738,49" style="fill:none;stroke:#fff;stroke-width:2px;"/>
        <path d="M35.738,29L21.738,29L21.738,37L28.738,49L35.738,37L35.738,29Z" style="fill:#3bbc53;"/>
        <path d="M21.738,32.907L21.738,32L35.738,32L35.738,37.09C33.907,37.497 31.245,37.551 28.738,37C24.844,36.144 23.175,34.388 21.738,32.907Z" style="fill:#2a843a;"/>
        <path d="M40.738,16C40.738,9.373 35.366,4 28.738,4C28.738,4 28.738,4 28.738,4C22.111,4 16.738,9.373 16.738,16C16.738,17.976 16.738,20.024 16.738,22C16.738,28.627 22.111,34 28.738,34C28.738,34 28.738,34 28.738,34C35.366,34 40.738,28.627 40.738,22C40.738,20.024 40.738,17.976 40.738,16Z" style="fill:#4ac661;"/>
        <g>
            <path d="M36.613,23.875L46.238,35.66" style="fill:none;stroke:#afb4c4;stroke-width:3px;stroke-linejoin:miter;stroke-miterlimit:1;"/>
            <circle cx="34.613" cy="21.875" r="8.375" style="fill:#fff;"/>
            <circle cx="34.613" cy="21.875" r="5.921" style="fill:#d1d2e2;"/>
            <path d="M46.313,42.446C46.313,42.446 43.195,38.679 41.174,36.239C40.197,35.059 40.199,33.35 41.179,32.172C41.179,32.172 41.179,32.172 41.179,32.172C42.408,30.694 44.271,29.896 46.188,30.024C46.251,30.028 46.314,30.032 46.378,30.037C48.907,30.206 51.232,31.483 52.733,33.526C53.418,34.459 53.997,35.507 54.191,36.55C54.773,39.677 53.913,42.088 52.596,42.981C50.293,44.542 46.313,42.446 46.313,42.446Z" style="fill:#3bbc53;"/>
            <clipPath id="_clip2">
                <path d="M46.313,42.446C46.313,42.446 43.195,38.679 41.174,36.239C40.197,35.059 40.199,33.35 41.179,32.172C41.179,32.172 41.179,32.172 41.179,32.172C42.408,30.694 44.271,29.896 46.188,30.024C46.251,30.028 46.314,30.032 46.378,30.037C48.907,30.206 51.232,31.483 52.733,33.526C53.418,34.459 53.997,35.507 54.191,36.55C54.773,39.677 53.913,42.088 52.596,42.981C50.293,44.542 46.313,42.446 46.313,42.446Z"/>
            </clipPath>
            <g clip-path="url(#_clip2)">
                <path d="M41.917,28.124L56.65,49.406L46.786,45.337L35.904,39.067L37.509,32.868L41.917,28.124Z" style="fill:#329f46;"/>
            </g>
        </g>
        <circle cx="40.363" cy="50" r="4" style="fill:#fff;"/>
    </g>
</svg>
