<?xml version="1.0" encoding="utf-8"?>
<!-- Generator: Adobe Illustrator 22.1.0, SVG Export Plug-In . SVG Version: 6.00 Build 0)  -->
<svg version="1.1" id="Layer_1" xmlns="http://www.w3.org/2000/svg" xmlns:xlink="http://www.w3.org/1999/xlink" x="0px" y="0px"
	 viewBox="0 0 330 32" style="enable-background:new 0 0 330 32;" xml:space="preserve">
<style type="text/css">
	.st0{fill:#364BC9;}
</style>
<title>logo-horizontal</title>
<desc>Created with Sketch.</desc>
<g id="logo-horizontal">
	<path id="Resolve-to-save-live" class="st0" d="M33.7,22.7c1.3,0,2.8-0.5,3.7-1.4l3.2,3.2C39.2,26,36.4,27,33.9,27
		c-5.1,0-8.9-3.5-8.9-8.5c0-4.9,3.7-8.4,8.6-8.4c5.3,0,8.3,3.8,8.3,9.9H30.2C30.7,21.6,32,22.7,33.7,22.7z M33.7,14.3
		c-1.6,0-2.9,0.9-3.5,2.4h6.7C36.5,15.3,35.4,14.3,33.7,14.3z M50.5,27c-2.8,0-5.7-0.9-7.7-2.4l2.2-3.4c1.5,1.1,3.7,1.8,5.6,1.8
		c1.2,0,1.9-0.4,1.9-1c0-0.8-1.1-1.1-2.7-1.5c-3.2-0.7-6.2-1.5-6.2-5c0-3.1,2.6-5.4,6.7-5.4c2.5,0,4.9,0.8,6.7,2.1l-2,3.5
		c-1.4-0.9-3.2-1.6-4.7-1.6c-1,0-1.7,0.4-1.7,0.9c0,0.7,0.7,0.9,2.7,1.4c2.9,0.7,6.2,1.6,6.2,5.3C57.5,24.9,54.8,27,50.5,27z
		 M67.9,27c-5,0-9.2-3.9-9.2-8.5s4.2-8.5,9.2-8.5s9.2,3.8,9.2,8.5S72.9,27,67.9,27z M67.9,22.6c2.2,0,4.1-1.9,4.1-4.1s-1.9-4-4.1-4
		s-4.1,1.8-4.1,4S65.7,22.6,67.9,22.6z M93.4,26.6l-7.2-16.2h5.6l4.1,10.1l4-10.1h5.6l-7.1,16.2H93.4z M113.8,22.7
		c1.3,0,2.8-0.5,3.7-1.4l3.2,3.2c-1.5,1.5-4.3,2.5-6.8,2.5c-5.1,0-8.9-3.5-8.9-8.5c0-4.9,3.7-8.4,8.6-8.4c5.3,0,8.3,3.8,8.3,9.9
		h-11.8C110.8,21.6,112.1,22.7,113.8,22.7z M113.8,14.3c-1.6,0-2.9,0.9-3.5,2.4h6.7C116.6,15.3,115.5,14.3,113.8,14.3z M141.6,22.1
		l1.1,3.4c-1,0.9-2.6,1.5-4,1.5c-3.1,0-5.3-2.2-5.3-5.2v-7.1h-2.2v-4.2h2.2V6h5.2v4.4h3.4v4.2h-3.4v6.2c0,1,0.6,1.8,1.5,1.8
		C140.7,22.6,141.3,22.4,141.6,22.1z M153.1,27c-5,0-9.2-3.9-9.2-8.5s4.2-8.5,9.2-8.5s9.2,3.8,9.2,8.5S158.1,27,153.1,27z
		 M153.1,22.6c2.2,0,4.1-1.9,4.1-4.1s-1.9-4-4.1-4s-4.1,1.8-4.1,4S150.8,22.6,153.1,22.6z M178.9,26.7c-2.8,0-5.7-0.9-7.7-2.4
		l2.2-3.4c1.5,1.1,3.7,1.8,5.6,1.8c1.2,0,1.9-0.4,1.9-1c0-0.8-1.1-1.1-2.7-1.5c-3.2-0.7-6.2-1.5-6.2-5c0-3.1,2.6-5.4,6.7-5.4
		c2.5,0,4.9,0.8,6.7,2.1l-2,3.5c-1.4-0.9-3.2-1.6-4.7-1.6c-1,0-1.7,0.4-1.7,0.9c0,0.7,0.7,0.9,2.7,1.4c2.9,0.7,6.2,1.6,6.2,5.3
		C185.9,24.6,183.2,26.7,178.9,26.7z M195.7,9.8c4.3,0,7.5,2.6,7.5,6.9v9.6H198V25c-1.2,1.1-2.9,1.8-4.6,1.8c-3.5,0-6.3-2.1-6.3-5.2
		c0-3.2,3.1-5.4,7-5.4c1.2,0,2.6,0.3,3.9,0.8v-0.2c0-1.7-1.3-3-3.6-3c-1.6,0-2.8,0.5-4.2,1.2l-1.7-3.3
		C190.7,10.5,193.1,9.8,195.7,9.8z M194.6,23.5c1.6,0,3-0.8,3.3-2v-1.7c-0.8-0.3-2-0.5-3.1-0.5c-1.5,0-2.6,0.9-2.6,2.2
		S193.2,23.5,194.6,23.5z M209.6,26.4l-7.2-16.2h5.6l4.1,10.1l4-10.1h5.6l-7.1,16.2H209.6z M230.1,22.4c1.3,0,2.8-0.5,3.7-1.4
		l3.2,3.2c-1.5,1.5-4.3,2.5-6.8,2.5c-5.1,0-8.9-3.5-8.9-8.5c0-4.9,3.7-8.4,8.6-8.4c5.3,0,8.3,3.8,8.3,9.9h-11.8
		C227,21.3,228.3,22.4,230.1,22.4z M230.1,14.1c-1.6,0-2.9,0.9-3.5,2.4h6.7C232.8,15,231.7,14.1,230.1,14.1z M270.3,26.4l-7.2-16.2
		h5.6l4.1,10.1l4-10.1h5.6l-7.1,16.2H270.3z M290.8,22.4c1.3,0,2.8-0.5,3.7-1.4l3.2,3.2c-1.5,1.5-4.3,2.5-6.8,2.5
		c-5.1,0-8.9-3.5-8.9-8.5c0-4.9,3.7-8.4,8.6-8.4c5.3,0,8.3,3.8,8.3,9.9h-11.8C287.7,21.3,289,22.4,290.8,22.4z M290.8,14.1
		c-1.6,0-2.9,0.9-3.5,2.4h6.7C293.5,15,292.4,14.1,290.8,14.1z"/>
	<path id="Combined-Shape" class="st0" d="M5.1,15.1h9.3c1.9,0,3.3-1,3.3-2.6S16.3,10,14.4,10H5.1V5h9.8c4.9,0,8.5,3.1,8.5,7.6
		c0,3.2-1.8,5.7-4.7,6.9L24,27h-6.3l-4.9-6.9h-2.7V27h-5C5.1,27,5.1,15.1,5.1,15.1z M0,10h5.1v5H0V10z"/>
	<polygon id="Path" class="st0" points="79,27 79,5 84,5 84,27 	"/>
	<polygon id="Path_1_" class="st0" points="247,27 247,4 252,4 252,27 	"/>
	<polygon id="Path_2_" class="st0" points="256,27 256,11 261,11 261,27 	"/>
	<path id="Path_3_" class="st0" d="M306.9,27c-2.9,0-5.8-0.9-7.9-2.5l2.2-3.4c1.6,1.1,3.7,1.9,5.8,1.9c1.2,0,1.9-0.4,1.9-1
		c0-0.8-1.1-1.1-2.8-1.5c-3.3-0.7-6.3-1.5-6.4-5.1c0-3.1,2.7-5.4,6.9-5.4c2.5,0,5,0.8,6.9,2.1l-2,3.5c-1.5-0.9-3.3-1.6-4.9-1.6
		c-1,0-1.7,0.4-1.7,0.9c0,0.7,0.7,0.9,2.7,1.4c3,0.7,6.4,1.6,6.4,5.3C314,24.9,311.2,27,306.9,27z"/>
	<rect id="Period_1_" x="256" y="4" class="st0" width="5" height="5"/>
</g>
</svg>
