<?xml version="1.0" encoding="UTF-8"?>
<svg width="225px" height="50px" viewBox="0 0 225 50" version="1.1" xmlns="http://www.w3.org/2000/svg" xmlns:xlink="http://www.w3.org/1999/xlink">
    <!-- Generator: Sketch 52.2 (67145) - http://www.bohemiancoding.com/sketch -->
    <title>100 circles</title>
    <desc>Created with Sketch.</desc>
    <g id="100-circles" stroke="none" stroke-width="1" fill="none" fill-rule="evenodd">
        <path d="M77.108,7.924 C77.108,10.948 74.924,13.244 71.872,13.888 L76.856,21 L74.364,21 L69.492,14.084 L64.396,14.084 L64.396,21 L62.212,21 L62.212,1.764 L70.024,1.764 C74,1.764 77.108,4.312 77.108,7.924 Z M64.396,3.836 L64.396,12.012 L69.632,12.012 C72.768,12.012 74.896,10.5 74.896,7.924 C74.896,5.348 72.768,3.836 69.632,3.836 L64.396,3.836 Z M86.2336666,19.46 C87.9416666,19.46 89.9016666,18.704 90.7976666,17.724 L92.0856666,19.096 C90.8256666,20.468 88.2776666,21.336 86.2616666,21.336 C82.3976666,21.336 78.9256666,18.172 78.9256666,13.72 C78.9256666,9.408 82.1736666,6.188 86.0656666,6.188 C90.4336666,6.188 92.9256666,9.492 92.9256666,14.56 L81.0816666,14.56 C81.3896666,17.388 83.3776666,19.46 86.2336666,19.46 Z M86.1496666,8.064 C83.5736666,8.064 81.5016666,9.884 81.1096666,12.684 L90.8536666,12.684 C90.5736666,10.08 89.0336666,8.064 86.1496666,8.064 Z M100.875333,21.336 C98.8593332,21.336 96.6193332,20.58 94.8833332,19.18 L95.9753332,17.64 C97.6273332,18.844 99.2793332,19.46 100.875333,19.46 C102.779333,19.46 104.067333,18.564 104.067333,17.192 C104.067333,15.624 102.387333,15.12 100.427333,14.56 C96.9273332,13.552 95.5833332,12.516 95.5833332,10.444 C95.5833332,7.812 97.7673332,6.188 100.651333,6.188 C102.443333,6.188 104.291333,6.804 105.831333,7.812 L104.823333,9.436 C103.367333,8.512 101.939333,8.064 100.651333,8.064 C99.0273332,8.064 97.6833332,8.792 97.6833332,10.192 C97.6833332,11.452 98.7473332,11.844 101.435333,12.712 C103.759333,13.44 106.167333,14.224 106.167333,16.968 C106.167333,19.628 103.871333,21.336 100.875333,21.336 Z M115.741,21.336 C111.681,21.336 108.237,17.864 108.237,13.748 C108.237,9.632 111.681,6.188 115.741,6.188 C119.801,6.188 123.217,9.632 123.217,13.748 C123.217,17.864 119.801,21.336 115.741,21.336 Z M115.741,19.46 C118.597,19.46 121.005,16.856 121.005,13.748 C121.005,10.668 118.597,8.064 115.741,8.064 C112.857,8.064 110.449,10.668 110.449,13.748 C110.449,16.856 112.857,19.46 115.741,19.46 Z M126.070666,21 L126.070666,1.428 L128.170666,1.428 L128.170666,21 L126.070666,21 Z M136.596333,21 L130.436333,6.524 L132.788333,6.524 L137.604333,18.536 L142.336333,6.524 L144.688333,6.524 L138.612333,21 L136.596333,21 Z M152.498,19.46 C154.206,19.46 156.166,18.704 157.062,17.724 L158.35,19.096 C157.09,20.468 154.542,21.336 152.526,21.336 C148.662,21.336 145.19,18.172 145.19,13.72 C145.19,9.408 148.438,6.188 152.33,6.188 C156.698,6.188 159.19,9.492 159.19,14.56 L147.346,14.56 C147.654,17.388 149.642,19.46 152.498,19.46 Z M152.414,8.064 C149.838,8.064 147.766,9.884 147.374,12.684 L157.118,12.684 C156.838,10.08 155.298,8.064 152.414,8.064 Z M175.873333,18.872 L176.909333,20.412 C176.153333,21 175.201333,21.336 174.221333,21.336 C172.149333,21.336 170.693333,19.796 170.693333,17.64 L170.693333,8.4 L168.425333,8.4 L168.425333,6.524 L170.693333,6.524 L170.693333,2.548 L172.793333,2.548 L172.793333,6.524 L176.349333,6.524 L176.349333,8.4 L172.793333,8.4 L172.793333,17.64 C172.793333,18.704 173.521333,19.46 174.361333,19.46 C175.005333,19.46 175.565333,19.208 175.873333,18.872 Z M185.978999,21.336 C181.918999,21.336 178.474999,17.864 178.474999,13.748 C178.474999,9.632 181.918999,6.188 185.978999,6.188 C190.038999,6.188 193.454999,9.632 193.454999,13.748 C193.454999,17.864 190.038999,21.336 185.978999,21.336 Z M185.978999,19.46 C188.834999,19.46 191.242999,16.856 191.242999,13.748 C191.242999,10.668 188.834999,8.064 185.978999,8.064 C183.094999,8.064 180.686999,10.668 180.686999,13.748 C180.686999,16.856 183.094999,19.46 185.978999,19.46 Z M68.876,47.308 C65.712,47.308 63.22,46.16 61.288,44.256 L62.66,42.548 C64.284,44.172 66.272,45.32 68.96,45.32 C71.928,45.32 73.44,43.696 73.44,41.96 C73.44,39.916 71.62,39.104 68.26,38.32 C64.396,37.424 61.96,36.22 61.96,32.888 C61.96,29.808 64.704,27.4 68.4,27.4 C71.256,27.4 73.384,28.52 75.148,30.144 L73.804,31.852 C72.208,30.312 70.304,29.388 68.288,29.388 C65.908,29.388 64.172,30.956 64.172,32.72 C64.172,34.708 66.076,35.408 69.352,36.192 C73.02,37.06 75.652,38.376 75.652,41.764 C75.652,44.816 73.356,47.308 68.876,47.308 Z M84.5536666,32.188 C88.5016666,32.188 90.4336666,34.68 90.4336666,38.18 L90.4336666,47 L88.3336666,47 L88.3336666,44.732 C87.2976666,46.44 85.1416666,47.336 83.2376666,47.336 C80.1856666,47.336 77.9456666,45.572 77.9456666,42.716 C77.9456666,39.832 80.5216666,37.9 83.6296666,37.9 C85.1976666,37.9 86.8496666,38.236 88.3336666,38.712 L88.3336666,38.18 C88.3336666,36.22 87.5496666,33.98 84.4136666,33.98 C82.9576666,33.98 81.5016666,34.624 80.1856666,35.296 L79.3456666,33.588 C81.4176666,32.552 83.1536666,32.188 84.5536666,32.188 Z M83.6016666,45.488 C85.5056666,45.488 87.7736666,44.508 88.3336666,42.464 L88.3336666,40.252 C87.0176666,39.888 85.5336666,39.664 83.9656666,39.664 C81.8096666,39.664 79.9896666,40.896 79.9896666,42.632 C79.9896666,44.424 81.5576666,45.488 83.6016666,45.488 Z M98.8873332,47 L92.7273332,32.524 L95.0793332,32.524 L99.8953332,44.536 L104.627333,32.524 L106.979333,32.524 L100.903333,47 L98.8873332,47 Z M114.789,45.46 C116.497,45.46 118.457,44.704 119.353,43.724 L120.641,45.096 C119.381,46.468 116.833,47.336 114.817,47.336 C110.953,47.336 107.481,44.172 107.481,39.72 C107.481,35.408 110.729,32.188 114.621,32.188 C118.989,32.188 121.481,35.492 121.481,40.56 L109.637,40.56 C109.945,43.388 111.933,45.46 114.789,45.46 Z M114.705,34.064 C112.129,34.064 110.057,35.884 109.665,38.684 L119.409,38.684 C119.129,36.08 117.589,34.064 114.705,34.064 Z M133.768333,44.928 L144.268333,44.928 L144.268333,47 L131.584333,47 L131.584333,27.764 L133.768333,27.764 L133.768333,44.928 Z M146.702,47 L146.702,32.524 L148.802,32.524 L148.802,47 L146.702,47 Z M157.199666,47 L151.039666,32.524 L153.391666,32.524 L158.207666,44.536 L162.939666,32.524 L165.291666,32.524 L159.215666,47 L157.199666,47 Z M173.101333,45.46 C174.809333,45.46 176.769333,44.704 177.665333,43.724 L178.953333,45.096 C177.693333,46.468 175.145333,47.336 173.129333,47.336 C169.265333,47.336 165.793333,44.172 165.793333,39.72 C165.793333,35.408 169.041333,32.188 172.933333,32.188 C177.301333,32.188 179.793333,35.492 179.793333,40.56 L167.949333,40.56 C168.257333,43.388 170.245333,45.46 173.101333,45.46 Z M173.017333,34.064 C170.441333,34.064 168.369333,35.884 167.977333,38.684 L177.721333,38.684 C177.441333,36.08 175.901333,34.064 173.017333,34.064 Z M187.742999,47.336 C185.726999,47.336 183.486999,46.58 181.750999,45.18 L182.842999,43.64 C184.494999,44.844 186.146999,45.46 187.742999,45.46 C189.646999,45.46 190.934999,44.564 190.934999,43.192 C190.934999,41.624 189.254999,41.12 187.294999,40.56 C183.794999,39.552 182.450999,38.516 182.450999,36.444 C182.450999,33.812 184.634999,32.188 187.518999,32.188 C189.310999,32.188 191.158999,32.804 192.698999,33.812 L191.690999,35.436 C190.234999,34.512 188.806999,34.064 187.518999,34.064 C185.894999,34.064 184.550999,34.792 184.550999,36.192 C184.550999,37.452 185.614999,37.844 188.302999,38.712 C190.626999,39.44 193.034999,40.224 193.034999,42.968 C193.034999,45.628 190.738999,47.336 187.742999,47.336 Z" id="Resolve-to-Save-Live" fill="#364BC9"></path>
        <circle id="Oval" fill="#364BC9" cx="3.5" cy="2.5" r="1.5"></circle>
        <circle id="Oval" fill="#364BC9" cx="8.5" cy="2.5" r="1.5"></circle>
        <circle id="Oval" fill="#364BC9" cx="13.5" cy="2.5" r="1.5"></circle>
        <circle id="Oval" fill="#364BC9" cx="18.5" cy="2.5" r="1.5"></circle>
        <circle id="Oval" fill="#364BC9" cx="23.5" cy="2.5" r="1.5"></circle>
        <circle id="Oval" fill="#364BC9" cx="28.5" cy="2.5" r="1.5"></circle>
        <circle id="Oval" fill="#364BC9" cx="33.5" cy="2.5" r="1.5"></circle>
        <circle id="Oval" fill="#364BC9" cx="38.5" cy="2.5" r="1.5"></circle>
        <circle id="Oval" fill="#364BC9" cx="43.5" cy="2.5" r="1.5"></circle>
        <circle id="Oval" fill="#FF5942" cx="48.5" cy="2.5" r="1.5"></circle>
        <circle id="Oval" fill="#FF5942" cx="147.7" cy="28.5" r="1.5"></circle>
        <circle id="Oval" fill="#364BC9" cx="3.5" cy="7.5" r="1.5"></circle>
        <circle id="Oval" fill="#364BC9" cx="8.5" cy="7.5" r="1.5"></circle>
        <circle id="Oval" fill="#364BC9" cx="13.5" cy="7.5" r="1.5"></circle>
        <circle id="Oval" fill="#364BC9" cx="18.5" cy="7.5" r="1.5"></circle>
        <circle id="Oval" fill="#364BC9" cx="23.5" cy="7.5" r="1.5"></circle>
        <circle id="Oval" fill="#364BC9" cx="28.5" cy="7.5" r="1.5"></circle>
        <circle id="Oval" fill="#364BC9" cx="33.5" cy="7.5" r="1.5"></circle>
        <circle id="Oval" fill="#364BC9" cx="38.5" cy="7.5" r="1.5"></circle>
        <circle id="Oval" fill="#364BC9" cx="43.5" cy="7.5" r="1.5"></circle>
        <circle id="Oval" fill="#364BC9" cx="48.5" cy="7.5" r="1.5"></circle>
        <circle id="Oval" fill="#364BC9" cx="3.5" cy="12.5" r="1.5"></circle>
        <circle id="Oval" fill="#364BC9" cx="8.5" cy="12.5" r="1.5"></circle>
        <circle id="Oval" fill="#364BC9" cx="13.5" cy="12.5" r="1.5"></circle>
        <circle id="Oval" fill="#364BC9" cx="18.5" cy="12.5" r="1.5"></circle>
        <circle id="Oval" fill="#364BC9" cx="23.5" cy="12.5" r="1.5"></circle>
        <circle id="Oval" fill="#364BC9" cx="28.5" cy="12.5" r="1.5"></circle>
        <circle id="Oval" fill="#364BC9" cx="33.5" cy="12.5" r="1.5"></circle>
        <circle id="Oval" fill="#364BC9" cx="38.5" cy="12.5" r="1.5"></circle>
        <circle id="Oval" fill="#364BC9" cx="43.5" cy="12.5" r="1.5"></circle>
        <circle id="Oval" fill="#364BC9" cx="48.5" cy="12.5" r="1.5"></circle>
        <circle id="Oval" fill="#364BC9" cx="3.5" cy="17.5" r="1.5"></circle>
        <circle id="Oval" fill="#364BC9" cx="8.5" cy="17.5" r="1.5"></circle>
        <circle id="Oval" fill="#364BC9" cx="13.5" cy="17.5" r="1.5"></circle>
        <circle id="Oval" fill="#364BC9" cx="18.5" cy="17.5" r="1.5"></circle>
        <circle id="Oval" fill="#364BC9" cx="23.5" cy="17.5" r="1.5"></circle>
        <circle id="Oval" fill="#364BC9" cx="28.5" cy="17.5" r="1.5"></circle>
        <circle id="Oval" fill="#364BC9" cx="33.5" cy="17.5" r="1.5"></circle>
        <circle id="Oval" fill="#364BC9" cx="38.5" cy="17.5" r="1.5"></circle>
        <circle id="Oval" fill="#364BC9" cx="43.5" cy="17.5" r="1.5"></circle>
        <circle id="Oval" fill="#364BC9" cx="48.5" cy="17.5" r="1.5"></circle>
        <circle id="Oval" fill="#364BC9" cx="3.5" cy="22.5" r="1.5"></circle>
        <circle id="Oval" fill="#364BC9" cx="8.5" cy="22.5" r="1.5"></circle>
        <circle id="Oval" fill="#364BC9" cx="13.5" cy="22.5" r="1.5"></circle>
        <circle id="Oval" fill="#364BC9" cx="18.5" cy="22.5" r="1.5"></circle>
        <circle id="Oval" fill="#364BC9" cx="23.5" cy="22.5" r="1.5"></circle>
        <circle id="Oval" fill="#364BC9" cx="28.5" cy="22.5" r="1.5"></circle>
        <circle id="Oval" fill="#364BC9" cx="33.5" cy="22.5" r="1.5"></circle>
        <circle id="Oval" fill="#364BC9" cx="38.5" cy="22.5" r="1.5"></circle>
        <circle id="Oval" fill="#364BC9" cx="43.5" cy="22.5" r="1.5"></circle>
        <circle id="Oval" fill="#364BC9" cx="48.5" cy="22.5" r="1.5"></circle>
        <circle id="Oval" fill="#364BC9" cx="3.5" cy="27.5" r="1.5"></circle>
        <circle id="Oval" fill="#364BC9" cx="8.5" cy="27.5" r="1.5"></circle>
        <circle id="Oval" fill="#364BC9" cx="13.5" cy="27.5" r="1.5"></circle>
        <circle id="Oval" fill="#364BC9" cx="18.5" cy="27.5" r="1.5"></circle>
        <circle id="Oval" fill="#364BC9" cx="23.5" cy="27.5" r="1.5"></circle>
        <circle id="Oval" fill="#364BC9" cx="28.5" cy="27.5" r="1.5"></circle>
        <circle id="Oval" fill="#364BC9" cx="33.5" cy="27.5" r="1.5"></circle>
        <circle id="Oval" fill="#364BC9" cx="38.5" cy="27.5" r="1.5"></circle>
        <circle id="Oval" fill="#364BC9" cx="43.5" cy="27.5" r="1.5"></circle>
        <circle id="Oval" fill="#364BC9" cx="48.5" cy="27.5" r="1.5"></circle>
        <circle id="Oval" fill="#364BC9" cx="3.5" cy="32.5" r="1.5"></circle>
        <circle id="Oval" fill="#364BC9" cx="8.5" cy="32.5" r="1.5"></circle>
        <circle id="Oval" fill="#364BC9" cx="13.5" cy="32.5" r="1.5"></circle>
        <circle id="Oval" fill="#364BC9" cx="18.5" cy="32.5" r="1.5"></circle>
        <circle id="Oval" fill="#364BC9" cx="23.5" cy="32.5" r="1.5"></circle>
        <circle id="Oval" fill="#364BC9" cx="28.5" cy="32.5" r="1.5"></circle>
        <circle id="Oval" fill="#364BC9" cx="33.5" cy="32.5" r="1.5"></circle>
        <circle id="Oval" fill="#364BC9" cx="38.5" cy="32.5" r="1.5"></circle>
        <circle id="Oval" fill="#364BC9" cx="43.5" cy="32.5" r="1.5"></circle>
        <circle id="Oval" fill="#364BC9" cx="48.5" cy="32.5" r="1.5"></circle>
        <circle id="Oval" fill="#364BC9" cx="3.5" cy="37.5" r="1.5"></circle>
        <circle id="Oval" fill="#364BC9" cx="8.5" cy="37.5" r="1.5"></circle>
        <circle id="Oval" fill="#364BC9" cx="13.5" cy="37.5" r="1.5"></circle>
        <circle id="Oval" fill="#364BC9" cx="18.5" cy="37.5" r="1.5"></circle>
        <circle id="Oval" fill="#364BC9" cx="23.5" cy="37.5" r="1.5"></circle>
        <circle id="Oval" fill="#364BC9" cx="28.5" cy="37.5" r="1.5"></circle>
        <circle id="Oval" fill="#364BC9" cx="33.5" cy="37.5" r="1.5"></circle>
        <circle id="Oval" fill="#364BC9" cx="38.5" cy="37.5" r="1.5"></circle>
        <circle id="Oval" fill="#364BC9" cx="43.5" cy="37.5" r="1.5"></circle>
        <circle id="Oval" fill="#364BC9" cx="48.5" cy="37.5" r="1.5"></circle>
        <circle id="Oval" fill="#364BC9" cx="3.5" cy="42.5" r="1.5"></circle>
        <circle id="Oval" fill="#364BC9" cx="8.5" cy="42.5" r="1.5"></circle>
        <circle id="Oval" fill="#364BC9" cx="13.5" cy="42.5" r="1.5"></circle>
        <circle id="Oval" fill="#364BC9" cx="18.5" cy="42.5" r="1.5"></circle>
        <circle id="Oval" fill="#364BC9" cx="23.5" cy="42.5" r="1.5"></circle>
        <circle id="Oval" fill="#364BC9" cx="28.5" cy="42.5" r="1.5"></circle>
        <circle id="Oval" fill="#364BC9" cx="33.5" cy="42.5" r="1.5"></circle>
        <circle id="Oval" fill="#364BC9" cx="38.5" cy="42.5" r="1.5"></circle>
        <circle id="Oval" fill="#364BC9" cx="43.5" cy="42.5" r="1.5"></circle>
        <circle id="Oval" fill="#364BC9" cx="48.5" cy="42.5" r="1.5"></circle>
        <circle id="Oval" fill="#364BC9" cx="3.5" cy="47.5" r="1.5"></circle>
        <circle id="Oval" fill="#364BC9" cx="8.5" cy="47.5" r="1.5"></circle>
        <circle id="Oval" fill="#364BC9" cx="13.5" cy="47.5" r="1.5"></circle>
        <circle id="Oval" fill="#364BC9" cx="18.5" cy="47.5" r="1.5"></circle>
        <circle id="Oval" fill="#364BC9" cx="23.5" cy="47.5" r="1.5"></circle>
        <circle id="Oval" fill="#364BC9" cx="28.5" cy="47.5" r="1.5"></circle>
        <circle id="Oval" fill="#364BC9" cx="33.5" cy="47.5" r="1.5"></circle>
        <circle id="Oval" fill="#364BC9" cx="38.5" cy="47.5" r="1.5"></circle>
        <circle id="Oval" fill="#364BC9" cx="43.5" cy="47.5" r="1.5"></circle>
        <circle id="Oval" fill="#364BC9" cx="48.5" cy="47.5" r="1.5"></circle>
    </g>
</svg>