<?xml version="1.0" encoding="UTF-8"?>
<svg width="225px" height="50px" viewBox="0 0 225 50" version="1.1" xmlns="http://www.w3.org/2000/svg" xmlns:xlink="http://www.w3.org/1999/xlink">
    <!-- Generator: Sketch 52 (66869) - http://www.bohemiancoding.com/sketch -->
    <title>100 circles</title>
    <desc>Created with Sketch.</desc>
    <g id="100-circles" stroke="none" stroke-width="1" fill="none" fill-rule="evenodd">
        <circle id="Oval" fill="#364BC9" cx="3.5" cy="2.5" r="1.5"></circle>
        <circle id="Oval" fill="#364BC9" cx="8.5" cy="2.5" r="1.5"></circle>
        <circle id="Oval" fill="#364BC9" cx="13.5" cy="2.5" r="1.5"></circle>
        <circle id="Oval" fill="#364BC9" cx="18.5" cy="2.5" r="1.5"></circle>
        <circle id="Oval" fill="#364BC9" cx="23.5" cy="2.5" r="1.5"></circle>
        <circle id="Oval" fill="#364BC9" cx="28.5" cy="2.5" r="1.5"></circle>
        <circle id="Oval" fill="#364BC9" cx="33.5" cy="2.5" r="1.5"></circle>
        <circle id="Oval" fill="#364BC9" cx="38.5" cy="2.5" r="1.5"></circle>
        <circle id="Oval" fill="#364BC9" cx="43.5" cy="2.5" r="1.5"></circle>
        <circle id="Oval" fill="#24D2AB" cx="48.5" cy="2.5" r="1.5"></circle>
        <circle id="Oval" fill="#364BC9" cx="3.5" cy="7.5" r="1.5"></circle>
        <circle id="Oval" fill="#364BC9" cx="8.5" cy="7.5" r="1.5"></circle>
        <circle id="Oval" fill="#364BC9" cx="13.5" cy="7.5" r="1.5"></circle>
        <circle id="Oval" fill="#364BC9" cx="18.5" cy="7.5" r="1.5"></circle>
        <circle id="Oval" fill="#364BC9" cx="23.5" cy="7.5" r="1.5"></circle>
        <circle id="Oval" fill="#364BC9" cx="28.5" cy="7.5" r="1.5"></circle>
        <circle id="Oval" fill="#364BC9" cx="33.5" cy="7.5" r="1.5"></circle>
        <circle id="Oval" fill="#364BC9" cx="38.5" cy="7.5" r="1.5"></circle>
        <circle id="Oval" fill="#364BC9" cx="43.5" cy="7.5" r="1.5"></circle>
        <circle id="Oval" fill="#364BC9" cx="48.5" cy="7.5" r="1.5"></circle>
        <circle id="Oval" fill="#364BC9" cx="3.5" cy="12.5" r="1.5"></circle>
        <circle id="Oval" fill="#364BC9" cx="8.5" cy="12.5" r="1.5"></circle>
        <circle id="Oval" fill="#364BC9" cx="13.5" cy="12.5" r="1.5"></circle>
        <circle id="Oval" fill="#364BC9" cx="18.5" cy="12.5" r="1.5"></circle>
        <circle id="Oval" fill="#364BC9" cx="23.5" cy="12.5" r="1.5"></circle>
        <circle id="Oval" fill="#364BC9" cx="28.5" cy="12.5" r="1.5"></circle>
        <circle id="Oval" fill="#364BC9" cx="33.5" cy="12.5" r="1.5"></circle>
        <circle id="Oval" fill="#364BC9" cx="38.5" cy="12.5" r="1.5"></circle>
        <circle id="Oval" fill="#364BC9" cx="43.5" cy="12.5" r="1.5"></circle>
        <circle id="Oval" fill="#364BC9" cx="48.5" cy="12.5" r="1.5"></circle>
        <circle id="Oval" fill="#364BC9" cx="3.5" cy="17.5" r="1.5"></circle>
        <circle id="Oval" fill="#364BC9" cx="8.5" cy="17.5" r="1.5"></circle>
        <circle id="Oval" fill="#364BC9" cx="13.5" cy="17.5" r="1.5"></circle>
        <circle id="Oval" fill="#364BC9" cx="18.5" cy="17.5" r="1.5"></circle>
        <circle id="Oval" fill="#364BC9" cx="23.5" cy="17.5" r="1.5"></circle>
        <circle id="Oval" fill="#364BC9" cx="28.5" cy="17.5" r="1.5"></circle>
        <circle id="Oval" fill="#364BC9" cx="33.5" cy="17.5" r="1.5"></circle>
        <circle id="Oval" fill="#364BC9" cx="38.5" cy="17.5" r="1.5"></circle>
        <circle id="Oval" fill="#364BC9" cx="43.5" cy="17.5" r="1.5"></circle>
        <circle id="Oval" fill="#364BC9" cx="48.5" cy="17.5" r="1.5"></circle>
        <circle id="Oval" fill="#364BC9" cx="3.5" cy="22.5" r="1.5"></circle>
        <circle id="Oval" fill="#364BC9" cx="8.5" cy="22.5" r="1.5"></circle>
        <circle id="Oval" fill="#364BC9" cx="13.5" cy="22.5" r="1.5"></circle>
        <circle id="Oval" fill="#364BC9" cx="18.5" cy="22.5" r="1.5"></circle>
        <circle id="Oval" fill="#364BC9" cx="23.5" cy="22.5" r="1.5"></circle>
        <circle id="Oval" fill="#364BC9" cx="28.5" cy="22.5" r="1.5"></circle>
        <circle id="Oval" fill="#364BC9" cx="33.5" cy="22.5" r="1.5"></circle>
        <circle id="Oval" fill="#364BC9" cx="38.5" cy="22.5" r="1.5"></circle>
        <circle id="Oval" fill="#364BC9" cx="43.5" cy="22.5" r="1.5"></circle>
        <circle id="Oval" fill="#364BC9" cx="48.5" cy="22.5" r="1.5"></circle>
        <circle id="Oval" fill="#364BC9" cx="3.5" cy="27.5" r="1.5"></circle>
        <circle id="Oval" fill="#364BC9" cx="8.5" cy="27.5" r="1.5"></circle>
        <circle id="Oval" fill="#364BC9" cx="13.5" cy="27.5" r="1.5"></circle>
        <circle id="Oval" fill="#364BC9" cx="18.5" cy="27.5" r="1.5"></circle>
        <circle id="Oval" fill="#364BC9" cx="23.5" cy="27.5" r="1.5"></circle>
        <circle id="Oval" fill="#364BC9" cx="28.5" cy="27.5" r="1.5"></circle>
        <circle id="Oval" fill="#364BC9" cx="33.5" cy="27.5" r="1.5"></circle>
        <circle id="Oval" fill="#364BC9" cx="38.5" cy="27.5" r="1.5"></circle>
        <circle id="Oval" fill="#364BC9" cx="43.5" cy="27.5" r="1.5"></circle>
        <circle id="Oval" fill="#364BC9" cx="48.5" cy="27.5" r="1.5"></circle>
        <circle id="Oval" fill="#364BC9" cx="3.5" cy="32.5" r="1.5"></circle>
        <circle id="Oval" fill="#364BC9" cx="8.5" cy="32.5" r="1.5"></circle>
        <circle id="Oval" fill="#364BC9" cx="13.5" cy="32.5" r="1.5"></circle>
        <circle id="Oval" fill="#364BC9" cx="18.5" cy="32.5" r="1.5"></circle>
        <circle id="Oval" fill="#364BC9" cx="23.5" cy="32.5" r="1.5"></circle>
        <circle id="Oval" fill="#364BC9" cx="28.5" cy="32.5" r="1.5"></circle>
        <circle id="Oval" fill="#364BC9" cx="33.5" cy="32.5" r="1.5"></circle>
        <circle id="Oval" fill="#364BC9" cx="38.5" cy="32.5" r="1.5"></circle>
        <circle id="Oval" fill="#364BC9" cx="43.5" cy="32.5" r="1.5"></circle>
        <circle id="Oval" fill="#364BC9" cx="48.5" cy="32.5" r="1.5"></circle>
        <circle id="Oval" fill="#364BC9" cx="3.5" cy="37.5" r="1.5"></circle>
        <circle id="Oval" fill="#364BC9" cx="8.5" cy="37.5" r="1.5"></circle>
        <circle id="Oval" fill="#364BC9" cx="13.5" cy="37.5" r="1.5"></circle>
        <circle id="Oval" fill="#364BC9" cx="18.5" cy="37.5" r="1.5"></circle>
        <circle id="Oval" fill="#364BC9" cx="23.5" cy="37.5" r="1.5"></circle>
        <circle id="Oval" fill="#364BC9" cx="28.5" cy="37.5" r="1.5"></circle>
        <circle id="Oval" fill="#364BC9" cx="33.5" cy="37.5" r="1.5"></circle>
        <circle id="Oval" fill="#364BC9" cx="38.5" cy="37.5" r="1.5"></circle>
        <circle id="Oval" fill="#364BC9" cx="43.5" cy="37.5" r="1.5"></circle>
        <circle id="Oval" fill="#364BC9" cx="48.5" cy="37.5" r="1.5"></circle>
        <circle id="Oval" fill="#364BC9" cx="3.5" cy="42.5" r="1.5"></circle>
        <circle id="Oval" fill="#364BC9" cx="8.5" cy="42.5" r="1.5"></circle>
        <circle id="Oval" fill="#364BC9" cx="13.5" cy="42.5" r="1.5"></circle>
        <circle id="Oval" fill="#364BC9" cx="18.5" cy="42.5" r="1.5"></circle>
        <circle id="Oval" fill="#364BC9" cx="23.5" cy="42.5" r="1.5"></circle>
        <circle id="Oval" fill="#364BC9" cx="28.5" cy="42.5" r="1.5"></circle>
        <circle id="Oval" fill="#364BC9" cx="33.5" cy="42.5" r="1.5"></circle>
        <circle id="Oval" fill="#364BC9" cx="38.5" cy="42.5" r="1.5"></circle>
        <circle id="Oval" fill="#364BC9" cx="43.5" cy="42.5" r="1.5"></circle>
        <circle id="Oval" fill="#364BC9" cx="48.5" cy="42.5" r="1.5"></circle>
        <circle id="Oval" fill="#364BC9" cx="3.5" cy="47.5" r="1.5"></circle>
        <circle id="Oval" fill="#364BC9" cx="8.5" cy="47.5" r="1.5"></circle>
        <circle id="Oval" fill="#364BC9" cx="13.5" cy="47.5" r="1.5"></circle>
        <circle id="Oval" fill="#364BC9" cx="18.5" cy="47.5" r="1.5"></circle>
        <circle id="Oval" fill="#364BC9" cx="23.5" cy="47.5" r="1.5"></circle>
        <circle id="Oval" fill="#364BC9" cx="28.5" cy="47.5" r="1.5"></circle>
        <circle id="Oval" fill="#364BC9" cx="33.5" cy="47.5" r="1.5"></circle>
        <circle id="Oval" fill="#364BC9" cx="38.5" cy="47.5" r="1.5"></circle>
        <circle id="Oval" fill="#364BC9" cx="43.5" cy="47.5" r="1.5"></circle>
        <circle id="Oval" fill="#364BC9" cx="48.5" cy="47.5" r="1.5"></circle>
        <path d="M78.26,21.25 L72.925,21.25 L68.7725,15.3375 L66.4625,15.3375 L66.4625,21.25 L61.76,21.25 L61.76,2.3575 L70.5325,2.3575 C74.685,2.3575 77.71,5.025 77.71,8.8475 C77.71,11.5975 76.1425,13.77 73.695,14.76 L78.26,21.25 Z M66.4625,6.6475 L66.4625,11.0475 L70.0925,11.0475 C71.715,11.0475 72.87,10.1675 72.87,8.8475 C72.87,7.5275 71.715,6.6475 70.0925,6.6475 L66.4625,6.6475 Z M86.4435416,17.8125 C87.5435416,17.8125 88.8085416,17.345 89.6610416,16.6025 L92.4110416,19.38 C91.1460416,20.6725 88.6985416,21.58 86.5810416,21.58 C82.1810416,21.58 78.9360416,18.4725 78.9360416,14.1 C78.9360416,9.7825 82.0710416,6.7025 86.3610416,6.7025 C90.8710416,6.7025 93.5110416,10.0025 93.5110416,15.42 L83.3635416,15.42 C83.8035416,16.85 84.9310416,17.8125 86.4435416,17.8125 Z M86.4435416,10.4425 C85.0410416,10.4425 83.9135416,11.2675 83.4185416,12.5875 L89.1935416,12.5875 C88.8085416,11.295 87.8460416,10.4425 86.4435416,10.4425 Z M100.622083,21.58 C98.2295833,21.58 95.7545833,20.7825 94.0220833,19.435 L95.8920833,16.4375 C97.2120833,17.3725 99.0270833,18.06 100.732083,18.06 C101.749583,18.06 102.327083,17.73 102.327083,17.18 C102.327083,16.4925 101.392083,16.2175 99.9895833,15.8875 C97.2395833,15.255 94.6820833,14.54 94.6545833,11.46 C94.6545833,8.7375 96.8820833,6.7025 100.402083,6.7025 C102.519583,6.7025 104.582083,7.445 106.177083,8.5175 L104.472083,11.57 C103.234583,10.7725 101.694583,10.1675 100.402083,10.1675 C99.5495833,10.1675 98.9445833,10.5525 98.9445833,10.9925 C98.9445833,11.625 99.5495833,11.7625 101.227083,12.2025 C103.757083,12.8075 106.589583,13.6325 106.589583,16.8775 C106.589583,19.7375 104.279583,21.58 100.622083,21.58 Z M115.295625,21.58 C111.005625,21.58 107.403125,18.17 107.403125,14.1275 C107.403125,10.085 111.005625,6.7025 115.295625,6.7025 C119.585625,6.7025 123.188125,10.085 123.188125,14.1275 C123.188125,18.17 119.585625,21.58 115.295625,21.58 Z M115.295625,17.7025 C117.193125,17.7025 118.788125,16.0525 118.788125,14.1275 C118.788125,12.2025 117.193125,10.58 115.295625,10.58 C113.398125,10.58 111.803125,12.2025 111.803125,14.1275 C111.803125,16.0525 113.398125,17.7025 115.295625,17.7025 Z M124.799167,21.25 L124.799167,2.0275 L129.474167,2.0275 L129.474167,21.25 L124.799167,21.25 Z M136.667708,21.25 L130.507708,7.0325 L135.320208,7.0325 L138.840208,15.915 L142.277708,7.0325 L147.090208,7.0325 L140.985208,21.25 L136.667708,21.25 Z M154.00875,17.8125 C155.10875,17.8125 156.37375,17.345 157.22625,16.6025 L159.97625,19.38 C158.71125,20.6725 156.26375,21.58 154.14625,21.58 C149.74625,21.58 146.50125,18.4725 146.50125,14.1 C146.50125,9.7825 149.63625,6.7025 153.92625,6.7025 C158.43625,6.7025 161.07625,10.0025 161.07625,15.42 L150.92875,15.42 C151.36875,16.85 152.49625,17.8125 154.00875,17.8125 Z M154.00875,10.4425 C152.60625,10.4425 151.47875,11.2675 150.98375,12.5875 L156.75875,12.5875 C156.37375,11.295 155.41125,10.4425 154.00875,10.4425 Z M177.388333,17.235 L178.323333,20.2325 C177.470833,21.03 176.068333,21.58 174.858333,21.58 C172.190833,21.58 170.320833,19.6825 170.320833,17.015 L170.320833,10.745 L168.450833,10.745 L168.450833,7.0325 L170.320833,7.0325 L170.320833,3.1275 L174.775833,3.1275 L174.775833,7.0325 L177.718333,7.0325 L177.718333,10.745 L174.775833,10.745 L174.775833,16.1625 C174.775833,17.07 175.325833,17.7025 176.068333,17.7025 C176.590833,17.7025 177.113333,17.51 177.388333,17.235 Z M186.946875,21.58 C182.656875,21.58 179.054375,18.17 179.054375,14.1275 C179.054375,10.085 182.656875,6.7025 186.946875,6.7025 C191.236875,6.7025 194.839375,10.085 194.839375,14.1275 C194.839375,18.17 191.236875,21.58 186.946875,21.58 Z M186.946875,17.7025 C188.844375,17.7025 190.439375,16.0525 190.439375,14.1275 C190.439375,12.2025 188.844375,10.58 186.946875,10.58 C185.049375,10.58 183.454375,12.2025 183.454375,14.1275 C183.454375,16.0525 185.049375,17.7025 186.946875,17.7025 Z M67.095,46.58 C64.7025,46.58 62.2275,45.7825 60.495,44.435 L62.365,41.4375 C63.685,42.3725 65.5,43.06 67.205,43.06 C68.2225,43.06 68.8,42.73 68.8,42.18 C68.8,41.4925 67.865,41.2175 66.4625,40.8875 C63.7125,40.255 61.155,39.54 61.1275,36.46 C61.1275,33.7375 63.355,31.7025 66.875,31.7025 C68.9925,31.7025 71.055,32.445 72.65,33.5175 L70.945,36.57 C69.7075,35.7725 68.1675,35.1675 66.875,35.1675 C66.0225,35.1675 65.4175,35.5525 65.4175,35.9925 C65.4175,36.625 66.0225,36.7625 67.7,37.2025 C70.23,37.8075 73.0625,38.6325 73.0625,41.8775 C73.0625,44.7375 70.7525,46.58 67.095,46.58 Z M81.2185416,31.7025 C84.8760416,31.7025 87.6260416,34.0125 87.6260416,37.8075 L87.6260416,46.25 L83.1435416,46.25 L83.1435416,45.04 C82.1535416,46.03 80.6685416,46.58 79.2110416,46.58 C76.1860416,46.58 73.7935416,44.7375 73.7935416,42.0425 C73.7935416,39.265 76.4610416,37.3125 79.8160416,37.3125 C80.8610416,37.3125 82.0435416,37.56 83.1435416,38 L83.1435416,37.8075 C83.1435416,36.295 81.9885416,35.195 80.0360416,35.195 C78.6885416,35.195 77.6710416,35.6075 76.4610416,36.24 L75.0035416,33.325 C76.9835416,32.335 79.0185416,31.7025 81.2185416,31.7025 Z M80.3385416,43.72 C81.7135416,43.72 82.9510416,43.06 83.1435416,41.9875 L83.1435416,40.475 C82.4285416,40.2 81.4385416,40.0075 80.4760416,40.0075 C79.2110416,40.0075 78.2210416,40.805 78.2210416,41.905 C78.2210416,43.005 79.1010416,43.72 80.3385416,43.72 Z M94.6545833,46.25 L88.4945833,32.0325 L93.3070833,32.0325 L96.8270833,40.915 L100.264583,32.0325 L105.077083,32.0325 L98.9720833,46.25 L94.6545833,46.25 Z M111.995625,42.8125 C113.095625,42.8125 114.360625,42.345 115.213125,41.6025 L117.963125,44.38 C116.698125,45.6725 114.250625,46.58 112.133125,46.58 C107.733125,46.58 104.488125,43.4725 104.488125,39.1 C104.488125,34.7825 107.623125,31.7025 111.913125,31.7025 C116.423125,31.7025 119.063125,35.0025 119.063125,40.42 L108.915625,40.42 C109.355625,41.85 110.483125,42.8125 111.995625,42.8125 Z M111.995625,35.4425 C110.593125,35.4425 109.465625,36.2675 108.970625,37.5875 L114.745625,37.5875 C114.360625,36.295 113.398125,35.4425 111.995625,35.4425 Z M127.455208,46.25 L127.455208,27.0275 L132.130208,27.0275 L132.130208,46.25 L127.455208,46.25 Z M134.53875,46.25 L134.53875,32.0325 L139.18625,32.0325 L139.18625,46.25 L134.53875,46.25 Z M146.407292,46.25 L140.247292,32.0325 L145.059792,32.0325 L148.579792,40.915 L152.017292,32.0325 L156.829792,32.0325 L150.724792,46.25 L146.407292,46.25 Z M163.748333,42.8125 C164.848333,42.8125 166.113333,42.345 166.965833,41.6025 L169.715833,44.38 C168.450833,45.6725 166.003333,46.58 163.885833,46.58 C159.485833,46.58 156.240833,43.4725 156.240833,39.1 C156.240833,34.7825 159.375833,31.7025 163.665833,31.7025 C168.175833,31.7025 170.815833,35.0025 170.815833,40.42 L160.668333,40.42 C161.108333,41.85 162.235833,42.8125 163.748333,42.8125 Z M163.748333,35.4425 C162.345833,35.4425 161.218333,36.2675 160.723333,37.5875 L166.498333,37.5875 C166.113333,36.295 165.150833,35.4425 163.748333,35.4425 Z M177.926875,46.58 C175.534375,46.58 173.059375,45.7825 171.326875,44.435 L173.196875,41.4375 C174.516875,42.3725 176.331875,43.06 178.036875,43.06 C179.054375,43.06 179.631875,42.73 179.631875,42.18 C179.631875,41.4925 178.696875,41.2175 177.294375,40.8875 C174.544375,40.255 171.986875,39.54 171.959375,36.46 C171.959375,33.7375 174.186875,31.7025 177.706875,31.7025 C179.824375,31.7025 181.886875,32.445 183.481875,33.5175 L181.776875,36.57 C180.539375,35.7725 178.999375,35.1675 177.706875,35.1675 C176.854375,35.1675 176.249375,35.5525 176.249375,35.9925 C176.249375,36.625 176.854375,36.7625 178.531875,37.2025 C181.061875,37.8075 183.894375,38.6325 183.894375,41.8775 C183.894375,44.7375 181.584375,46.58 177.926875,46.58 Z" id="Resolve-to-save-live" fill="#364BC9"></path>
        <path d="M136.90375,30.3 C135.52875,30.3 134.42875,29.1725 134.42875,27.825 C134.42875,26.5325 135.52875,25.405 136.90375,25.405 C138.25125,25.405 139.32375,26.5325 139.32375,27.825 C139.32375,29.1725 138.25125,30.3 136.90375,30.3 Z" id="Path" fill="#24D2AB"></path>
    </g>
</svg>