<?xml version="1.0" encoding="UTF-8" standalone="no"?><!DOCTYPE svg PUBLIC "-//W3C//DTD SVG 1.1//EN" "http://www.w3.org/Graphics/SVG/1.1/DTD/svg11.dtd"><svg width="100%" height="100%" viewBox="0 0 184 21" version="1.1" xmlns="http://www.w3.org/2000/svg" xmlns:xlink="http://www.w3.org/1999/xlink" xml:space="preserve" xmlns:serif="http://www.serif.com/" style="fill-rule:evenodd;clip-rule:evenodd;stroke-linejoin:round;stroke-miterlimit:1.41421;"><g id="Layer-1" serif:id="Layer 1"><path d="M15.604,20.218l4.881,0l0,-20.003l-4.881,0l0,20.003Zm-10.73,-4.354l0,-15.648l-4.874,0l0,20.013l13.281,0l0,-4.365l-8.407,0Zm54.551,1.941c0.63,0.64 0.503,1.225 1.348,1.585c2.961,1.261 5.997,1.43 9.038,0.367c1.862,-0.649 3.224,-1.907 3.822,-3.852c0.413,-1.346 0.322,-2.706 -0.024,-4.053c-0.348,-1.351 -1.119,-2.396 -2.395,-2.97c-0.752,-0.338 -1.56,-0.582 -2.368,-0.752c-1.044,-0.221 -2.113,-0.311 -3.167,-0.486c-0.96,-0.16 -1.534,-0.882 -1.402,-1.748c0.106,-0.699 0.55,-1.159 1.195,-1.373c1.151,-0.383 2.328,-0.303 3.462,0.047c0.567,0.174 1.074,0.543 1.522,0.779c1.01,-0.984 2.033,-1.983 3.103,-3.026c-0.489,-0.362 -0.948,-0.779 -1.475,-1.077c-2.351,-1.326 -4.882,-1.487 -7.47,-0.979c-2.01,0.394 -3.585,1.452 -4.521,3.329c-0.674,1.352 -0.713,2.781 -0.453,4.239c0.271,1.518 1.053,2.671 2.411,3.421c0.796,0.439 1.652,0.705 2.546,0.845c1.055,0.165 2.116,0.297 3.169,0.478c0.603,0.104 1.055,0.433 1.219,1.067c0.282,1.082 -0.231,1.942 -1.331,2.221c-1.019,0.259 -2.044,0.195 -3.068,0.036c-1.071,-0.165 -2.063,-0.528 -2.884,-1.247c-1.046,1.057 -1.226,2.085 -2.277,3.149m-10.577,-5.785c0.116,0.201 0.202,0.347 0.285,0.495c1.392,2.475 2.786,4.951 4.171,7.431c0.12,0.213 0.24,0.315 0.507,0.313c1.671,-0.017 3.342,-0.008 5.013,-0.01c0.108,0 0.216,-0.015 0.359,-0.027c-0.085,-0.155 -0.143,-0.269 -0.208,-0.379c-2.209,-3.736 -4.417,-7.474 -6.634,-11.205c-0.146,-0.245 -0.169,-0.4 0.034,-0.638c2.099,-2.463 4.183,-4.939 6.271,-7.411c0.094,-0.111 0.182,-0.228 0.314,-0.394c-1.999,0 -3.905,-0.004 -5.811,0.01c-0.124,0.001 -0.278,0.12 -0.366,0.227c-1.254,1.52 -2.5,3.047 -3.748,4.572c-0.599,0.732 -1.199,1.463 -1.875,2.289l0,-7.078l-4.898,0l0,20.012l4.896,0l0,-0.447c0,-1.828 -0.002,-3.655 0.004,-5.483c0,-0.148 0.011,-0.335 0.096,-0.437c0.506,-0.613 1.036,-1.205 1.59,-1.84m-20.381,-1.841c0.132,0.191 0.198,0.28 0.258,0.374c1.989,3.124 3.98,6.247 5.96,9.377c0.151,0.238 0.308,0.333 0.592,0.328c1.031,-0.018 2.063,-0.008 3.094,-0.008l0.814,0l0,-20.025l-4.917,0l0,10.013c-0.127,-0.182 -0.201,-0.281 -0.267,-0.386c-1.986,-3.111 -3.97,-6.222 -5.954,-9.334c-0.112,-0.175 -0.196,-0.336 -0.469,-0.331c-1.267,0.019 -2.533,0.007 -3.8,0.01c-0.073,0 -0.146,0.023 -0.215,0.035l0,19.997l4.904,0l0,-10.05Z" style="fill:#ec1c24;fill-rule:nonzero;"/><path d="M28.467,10.179l0,10.05l-4.905,0l0,-19.997c0.07,-0.011 0.142,-0.035 0.216,-0.035c1.266,-0.002 2.533,0.009 3.799,-0.01c0.274,-0.005 0.358,0.156 0.469,0.331c1.984,3.112 3.969,6.223 5.954,9.334c0.067,0.105 0.141,0.204 0.268,0.387l0,-10.014l4.916,0l0.001,20.025l-0.813,0c-1.032,0 -2.064,-0.009 -3.095,0.008c-0.284,0.005 -0.44,-0.09 -0.591,-0.328c-1.98,-3.13 -3.971,-6.253 -5.96,-9.376c-0.06,-0.095 -0.126,-0.184 -0.258,-0.375" style="fill:#ec1c24;fill-rule:nonzero;"/><path d="M48.848,12.019c-0.554,0.636 -1.084,1.228 -1.59,1.84c-0.085,0.102 -0.096,0.289 -0.096,0.437c-0.006,1.828 -0.004,3.656 -0.004,5.484l0,0.446l-4.896,0l0,-20.011l4.898,0l0,7.077c0.676,-0.825 1.276,-1.557 1.875,-2.289c1.249,-1.525 2.494,-3.052 3.748,-4.572c0.088,-0.107 0.242,-0.225 0.366,-0.226c1.906,-0.015 3.812,-0.011 5.811,-0.011c-0.132,0.166 -0.22,0.283 -0.314,0.394c-2.088,2.473 -4.172,4.949 -6.271,7.411c-0.203,0.239 -0.18,0.393 -0.034,0.638c2.217,3.732 4.425,7.469 6.634,11.205c0.065,0.111 0.123,0.224 0.208,0.379c-0.143,0.012 -0.251,0.028 -0.358,0.028c-1.672,0.001 -3.343,-0.007 -5.014,0.009c-0.267,0.002 -0.387,-0.099 -0.506,-0.312c-1.386,-2.481 -2.78,-4.956 -4.172,-7.432c-0.083,-0.147 -0.169,-0.294 -0.285,-0.495" style="fill:#ec1c24;fill-rule:nonzero;"/><path d="M58.587,17.805c1.052,-1.063 2.069,-2.092 3.115,-3.148c0.822,0.718 1.813,1.082 2.884,1.247c1.024,0.158 2.049,0.222 3.069,-0.036c1.099,-0.28 1.613,-1.14 1.33,-2.222c-0.164,-0.634 -0.616,-0.963 -1.219,-1.067c-1.053,-0.181 -2.114,-0.313 -3.169,-0.478c-0.894,-0.14 -1.749,-0.405 -2.545,-0.845c-1.359,-0.75 -2.14,-1.903 -2.411,-3.421c-0.261,-1.458 -0.222,-2.886 0.452,-4.239c0.936,-1.877 2.512,-2.935 4.522,-3.329c2.588,-0.507 5.118,-0.347 7.47,0.979c0.526,0.298 0.985,0.715 1.475,1.077c-1.071,1.044 -2.094,2.042 -3.103,3.026c-0.449,-0.236 -0.956,-0.605 -1.522,-0.779c-1.135,-0.349 -2.311,-0.43 -3.462,-0.047c-0.646,0.214 -1.09,0.675 -1.196,1.373c-0.131,0.867 0.443,1.588 1.402,1.748c1.054,0.176 2.124,0.265 3.167,0.486c0.808,0.17 1.616,0.414 2.368,0.752c1.277,0.574 2.047,1.619 2.395,2.97c0.347,1.348 0.437,2.707 0.024,4.054c-0.597,1.944 -1.96,3.202 -3.821,3.851c-3.041,1.063 -6.078,0.894 -9.038,-0.367c-0.846,-0.359 -1.556,-0.944 -2.187,-1.585" style="fill:#ec1c24;fill-rule:nonzero;"/><path d="M4.874,15.864l8.407,0l0,4.364l-13.281,0l0,-20.012l4.874,0l0,15.648Z" style="fill:#ec1c24;fill-rule:nonzero;"/><rect x="15.604" y="0.215" width="4.881" height="20.003" style="fill:#ec1c24;"/><path d="M87.822,5.108l-1.052,-3.177l-0.02,0l-1.053,3.177l2.125,0Zm0.314,0.978l-2.758,0l-0.558,1.626l-1.168,0l2.645,-7.273l0.922,0l2.644,7.273l-1.162,0l-0.564,-1.626Z" style="fill:#ec1c24;fill-rule:nonzero;"/><path d="M93.852,5.128c0,0.396 0.014,0.669 0.041,0.818c0.022,0.157 0.078,0.286 0.164,0.389c0.07,0.094 0.176,0.179 0.318,0.255c0.137,0.093 0.307,0.14 0.51,0.14c0.203,0 0.372,-0.047 0.508,-0.14c0.137,-0.076 0.24,-0.161 0.311,-0.255c0.085,-0.103 0.144,-0.232 0.173,-0.389c0.02,-0.149 0.03,-0.422 0.03,-0.818c0,-0.402 -0.01,-0.682 -0.03,-0.838c-0.029,-0.156 -0.088,-0.282 -0.173,-0.379c-0.071,-0.093 -0.174,-0.184 -0.311,-0.274c-0.136,-0.076 -0.305,-0.118 -0.508,-0.124c-0.203,0.006 -0.373,0.048 -0.51,0.124c-0.142,0.09 -0.248,0.181 -0.318,0.274c-0.086,0.097 -0.142,0.223 -0.164,0.379c-0.027,0.156 -0.041,0.436 -0.041,0.838m2.055,2.04c-0.342,0.39 -0.787,0.591 -1.336,0.604c-0.336,-0.007 -0.615,-0.079 -0.838,-0.214c-0.233,-0.13 -0.41,-0.27 -0.533,-0.419c-0.137,-0.17 -0.235,-0.378 -0.295,-0.624c-0.063,-0.242 -0.095,-0.705 -0.095,-1.387c0,-0.694 0.032,-1.165 0.095,-1.411c0.06,-0.243 0.158,-0.447 0.295,-0.613c0.123,-0.164 0.3,-0.31 0.533,-0.44c0.223,-0.123 0.502,-0.187 0.838,-0.194c0.515,0 0.961,0.205 1.336,0.613l0,-0.548l1.043,0l0,5.052c-0.014,0.778 -0.239,1.351 -0.674,1.716c-0.439,0.376 -0.964,0.563 -1.576,0.563c-0.702,-0.012 -1.299,-0.301 -1.795,-0.867l0.808,-0.643c0.133,0.123 0.285,0.227 0.459,0.314c0.176,0.096 0.359,0.147 0.548,0.154c0.357,0 0.642,-0.098 0.859,-0.294c0.212,-0.2 0.322,-0.475 0.328,-0.828l0,-0.534Z" style="fill:#ec1c24;fill-rule:nonzero;"/><path d="M98.296,0.439l1.042,0l0,5.936c0,0.236 0.13,0.354 0.39,0.354l0.358,0l0,0.982l-0.463,0c-0.379,0 -0.691,-0.094 -0.937,-0.284c-0.26,-0.193 -0.39,-0.517 -0.39,-0.972l0,-6.016Z" style="fill:#ec1c24;fill-rule:nonzero;"/><path d="M103.903,5.128c-0.001,-0.369 -0.019,-0.638 -0.052,-0.808c-0.032,-0.163 -0.1,-0.305 -0.203,-0.428c-0.077,-0.117 -0.189,-0.208 -0.339,-0.275c-0.142,-0.07 -0.309,-0.104 -0.499,-0.104c-0.177,0 -0.34,0.034 -0.489,0.104c-0.143,0.067 -0.259,0.158 -0.349,0.275c-0.09,0.123 -0.155,0.265 -0.194,0.428c-0.04,0.17 -0.061,0.436 -0.061,0.798c0,0.36 0.021,0.622 0.061,0.788c0.039,0.17 0.104,0.32 0.194,0.45c0.09,0.099 0.206,0.187 0.349,0.263c0.15,0.073 0.312,0.111 0.489,0.111c0.189,0 0.356,-0.038 0.499,-0.111c0.15,-0.076 0.262,-0.164 0.339,-0.263c0.103,-0.13 0.171,-0.28 0.204,-0.45c0.033,-0.166 0.051,-0.425 0.051,-0.778m-3.228,-0.01c0,-0.545 0.044,-0.964 0.135,-1.257c0.093,-0.286 0.236,-0.527 0.428,-0.722c0.144,-0.173 0.344,-0.328 0.6,-0.464c0.253,-0.13 0.577,-0.198 0.972,-0.205c0.409,0.007 0.739,0.075 0.993,0.205c0.248,0.136 0.442,0.291 0.579,0.464c0.206,0.195 0.351,0.436 0.438,0.722c0.083,0.293 0.125,0.712 0.125,1.257c0,0.546 -0.042,0.961 -0.125,1.247c-0.087,0.286 -0.232,0.534 -0.438,0.743c-0.067,0.077 -0.149,0.152 -0.245,0.225c-0.087,0.083 -0.198,0.154 -0.334,0.214c-0.254,0.144 -0.584,0.218 -0.993,0.225c-0.395,-0.007 -0.719,-0.081 -0.972,-0.225c-0.256,-0.129 -0.456,-0.275 -0.599,-0.439c-0.193,-0.209 -0.336,-0.457 -0.429,-0.743c-0.09,-0.286 -0.135,-0.701 -0.135,-1.247" style="fill:#ec1c24;fill-rule:nonzero;"/><path d="M108.102,3.513c-0.232,0 -0.418,0.048 -0.554,0.145c-0.143,0.095 -0.247,0.222 -0.313,0.378c-0.065,0.157 -0.106,0.327 -0.125,0.509c-0.021,0.183 -0.03,0.374 -0.03,0.573c0,0.183 0.009,0.37 0.03,0.559c0.019,0.193 0.06,0.367 0.125,0.524c0.066,0.157 0.17,0.283 0.313,0.379c0.136,0.1 0.322,0.15 0.554,0.15c0.246,0 0.44,-0.047 0.584,-0.14c0.143,-0.097 0.244,-0.22 0.304,-0.369c0.066,-0.156 0.111,-0.333 0.134,-0.528c0.007,-0.187 0.01,-0.378 0.01,-0.575c0,-0.206 -0.003,-0.407 -0.01,-0.603c-0.023,-0.183 -0.068,-0.353 -0.134,-0.509c-0.06,-0.156 -0.161,-0.279 -0.304,-0.369c-0.144,-0.083 -0.338,-0.124 -0.584,-0.124m-2.064,-3.073l1.042,0l0,2.643c0.189,-0.182 0.397,-0.332 0.624,-0.448c0.209,-0.11 0.447,-0.165 0.712,-0.165c0.635,0.017 1.099,0.243 1.391,0.679c0.144,0.163 0.242,0.377 0.295,0.643c0.05,0.263 0.074,0.704 0.074,1.326c0,0.613 -0.024,1.051 -0.074,1.318c-0.053,0.279 -0.151,0.5 -0.295,0.663c-0.143,0.199 -0.33,0.359 -0.562,0.478c-0.231,0.123 -0.506,0.188 -0.829,0.195c-0.544,-0.013 -0.991,-0.214 -1.336,-0.604l0,0.544l-1.042,0l0,-7.272Z" style="fill:#ec1c24;fill-rule:nonzero;"/><path d="M114.057,5.517l-1.247,0c-0.605,0.013 -0.904,0.221 -0.898,0.623c0,0.177 0.079,0.326 0.235,0.449c0.149,0.136 0.396,0.204 0.743,0.204c0.436,0.007 0.743,-0.045 0.923,-0.154c0.162,-0.109 0.244,-0.359 0.244,-0.748l0,-0.374Zm0,1.735l-0.02,0c-0.096,0.177 -0.246,0.306 -0.449,0.389c-0.199,0.087 -0.475,0.13 -0.828,0.13c-0.578,-0.007 -1.023,-0.159 -1.336,-0.459c-0.33,-0.292 -0.494,-0.666 -0.494,-1.122c0,-0.436 0.143,-0.796 0.429,-1.082c0.286,-0.293 0.704,-0.443 1.257,-0.449l1.441,0l0,-0.543c0.007,-0.456 -0.348,-0.677 -1.062,-0.664c-0.26,0 -0.464,0.027 -0.614,0.08c-0.156,0.063 -0.279,0.17 -0.369,0.319l-0.818,-0.624c0.396,-0.519 0.979,-0.771 1.751,-0.758c0.651,-0.007 1.173,0.116 1.561,0.369c0.389,0.26 0.586,0.705 0.594,1.337l0,3.536l-1.043,0l0,-0.459Z" style="fill:#ec1c24;fill-rule:nonzero;"/><path d="M116.446,0.439l1.043,0l0,5.936c0,0.236 0.129,0.354 0.389,0.354l0.359,0l0,0.982l-0.464,0c-0.379,0 -0.691,-0.094 -0.937,-0.284c-0.259,-0.193 -0.39,-0.517 -0.39,-0.972l0,-6.016Z" style="fill:#ec1c24;fill-rule:nonzero;"/><path d="M125.338,6.874c-0.226,0.26 -0.492,0.471 -0.797,0.634c-0.307,0.169 -0.66,0.257 -1.062,0.263c-0.613,0 -1.15,-0.207 -1.612,-0.623c-0.478,-0.416 -0.724,-1.088 -0.738,-2.02c0.014,-0.941 0.26,-1.622 0.738,-2.045c0.462,-0.415 0.999,-0.62 1.612,-0.613c0.402,0.007 0.755,0.09 1.062,0.25c0.305,0.162 0.571,0.38 0.797,0.653l-0.768,0.683c-0.262,-0.349 -0.613,-0.531 -1.052,-0.543c-0.885,-0.014 -1.333,0.525 -1.346,1.615c0.013,1.084 0.461,1.618 1.346,1.601c0.439,-0.006 0.79,-0.186 1.052,-0.539l0.768,0.684Z" style="fill:#ec1c24;fill-rule:nonzero;"/><path d="M129.034,5.128c0,-0.369 -0.017,-0.638 -0.05,-0.808c-0.033,-0.163 -0.101,-0.305 -0.205,-0.428c-0.076,-0.117 -0.189,-0.208 -0.339,-0.275c-0.142,-0.07 -0.309,-0.104 -0.499,-0.104c-0.176,0 -0.339,0.034 -0.488,0.104c-0.143,0.067 -0.26,0.158 -0.35,0.275c-0.089,0.123 -0.154,0.265 -0.194,0.428c-0.04,0.17 -0.06,0.436 -0.06,0.798c0,0.36 0.02,0.622 0.06,0.788c0.04,0.17 0.105,0.32 0.194,0.45c0.09,0.099 0.207,0.187 0.35,0.263c0.149,0.073 0.312,0.111 0.488,0.111c0.19,0 0.357,-0.038 0.499,-0.111c0.15,-0.076 0.263,-0.164 0.339,-0.263c0.104,-0.13 0.172,-0.28 0.205,-0.45c0.033,-0.166 0.05,-0.425 0.05,-0.778m-3.228,-0.01c0,-0.545 0.045,-0.964 0.135,-1.257c0.094,-0.286 0.237,-0.527 0.43,-0.722c0.143,-0.173 0.342,-0.328 0.598,-0.464c0.253,-0.13 0.577,-0.198 0.972,-0.205c0.41,0.007 0.74,0.075 0.993,0.205c0.249,0.136 0.443,0.291 0.579,0.464c0.206,0.195 0.352,0.436 0.438,0.722c0.084,0.293 0.125,0.712 0.125,1.257c0,0.546 -0.041,0.961 -0.125,1.247c-0.086,0.286 -0.232,0.534 -0.438,0.743c-0.067,0.077 -0.148,0.152 -0.245,0.225c-0.087,0.083 -0.198,0.154 -0.334,0.214c-0.253,0.144 -0.583,0.218 -0.993,0.225c-0.395,-0.007 -0.719,-0.081 -0.972,-0.225c-0.256,-0.129 -0.455,-0.275 -0.598,-0.439c-0.193,-0.209 -0.336,-0.457 -0.43,-0.743c-0.09,-0.286 -0.135,-0.701 -0.135,-1.247" style="fill:#ec1c24;fill-rule:nonzero;"/><path d="M131.229,2.535l1.043,0l0,0.548l0.019,0c0.343,-0.408 0.793,-0.613 1.352,-0.613c0.359,0.006 0.649,0.068 0.868,0.184c0.216,0.13 0.414,0.294 0.593,0.494c0.406,-0.459 0.95,-0.685 1.632,-0.678c0.429,0 0.821,0.151 1.177,0.454c0.352,0.305 0.535,0.755 0.548,1.346l0,3.442l-1.043,0l0,-3.082c0,-0.363 -0.093,-0.639 -0.283,-0.828c-0.189,-0.194 -0.434,-0.289 -0.734,-0.289c-0.299,0 -0.545,0.095 -0.738,0.289c-0.196,0.189 -0.293,0.465 -0.293,0.828l0,3.082l-1.043,0l0,-3.082c0,-0.363 -0.095,-0.639 -0.285,-0.828c-0.192,-0.194 -0.438,-0.289 -0.738,-0.289c-0.3,0 -0.544,0.095 -0.733,0.289c-0.199,0.189 -0.299,0.465 -0.299,0.828l0,3.082l-1.043,0l0,-5.177Z" style="fill:#ec1c24;fill-rule:nonzero;"/><path d="M139.933,2.535l1.042,0l0,0.548l0.02,0c0.343,-0.408 0.792,-0.613 1.352,-0.613c0.358,0.006 0.648,0.068 0.868,0.184c0.215,0.13 0.414,0.294 0.593,0.494c0.405,-0.459 0.95,-0.685 1.632,-0.678c0.428,0 0.82,0.151 1.176,0.454c0.353,0.305 0.536,0.755 0.548,1.346l0,3.442l-1.042,0l0,-3.082c0,-0.363 -0.094,-0.639 -0.284,-0.828c-0.189,-0.194 -0.433,-0.289 -0.733,-0.289c-0.3,0 -0.546,0.095 -0.738,0.289c-0.197,0.189 -0.294,0.465 -0.294,0.828l0,3.082l-1.043,0l0,-3.082c0,-0.363 -0.094,-0.639 -0.284,-0.828c-0.193,-0.194 -0.439,-0.289 -0.738,-0.289c-0.3,0 -0.545,0.095 -0.734,0.289c-0.199,0.189 -0.299,0.465 -0.299,0.828l0,3.082l-1.042,0l0,-5.177Z" style="fill:#ec1c24;fill-rule:nonzero;"/><path d="M148.576,2.535l1.043,0l0,3.082c0,0.349 0.098,0.622 0.294,0.818c0.192,0.196 0.438,0.294 0.737,0.294c0.3,0 0.545,-0.098 0.735,-0.294c0.192,-0.196 0.289,-0.469 0.289,-0.818l0,-3.082l1.042,0l0,5.177l-1.042,0l0,-0.554l-0.021,0c-0.343,0.409 -0.79,0.613 -1.341,0.613c-0.429,-0.007 -0.816,-0.162 -1.162,-0.468c-0.377,-0.299 -0.567,-0.742 -0.574,-1.327l0,-3.441Z" style="fill:#ec1c24;fill-rule:nonzero;"/><path d="M154.063,2.535l1.043,0l0,0.548l0.019,0c0.342,-0.408 0.792,-0.613 1.347,-0.613c0.429,0 0.821,0.151 1.177,0.454c0.352,0.305 0.537,0.755 0.554,1.346l0,3.442l-1.042,0l0,-3.082c0,-0.363 -0.097,-0.639 -0.289,-0.828c-0.19,-0.194 -0.435,-0.289 -0.735,-0.289c-0.299,0 -0.545,0.095 -0.737,0.289c-0.196,0.189 -0.294,0.465 -0.294,0.828l0,3.082l-1.043,0l0,-5.177Z" style="fill:#ec1c24;fill-rule:nonzero;"/><path d="M159.578,2.535l1.043,0l0,5.177l-1.043,0l0,-5.177Zm0,-2.095l1.043,0l0,1.043l-1.043,0l0,-1.043Z" style="fill:#ec1c24;fill-rule:nonzero;"/><path d="M162.058,0.959l1.042,0l0,1.576l0.758,0l0,0.793l-0.758,0l0,3.018c-0.006,0.262 0.117,0.39 0.369,0.384l0.389,0l0,0.982l-0.543,0c-0.366,0 -0.665,-0.113 -0.899,-0.339c-0.238,-0.217 -0.358,-0.529 -0.358,-0.937l0,-3.108l-0.519,0l0,-0.793l0.519,0l0,-1.576Z" style="fill:#ec1c24;fill-rule:nonzero;"/><path d="M164.092,2.535l1.103,0l1.227,3.626l0.02,0l1.222,-3.626l1.107,0l-2.23,6.249c-0.142,0.389 -0.341,0.658 -0.594,0.808c-0.255,0.143 -0.544,0.214 -0.867,0.214l-0.343,0l0,-0.982l0.303,0c0.136,0 0.263,-0.037 0.379,-0.109c0.116,-0.077 0.198,-0.19 0.245,-0.34l0.283,-0.867l-1.855,-4.973Z" style="fill:#ec1c24;fill-rule:nonzero;"/><path d="M171.983,3.328l-0.523,0l0,-0.793l0.523,0l0,-0.684c0,-0.492 0.137,-0.854 0.409,-1.087c0.266,-0.216 0.601,-0.325 1.003,-0.325l0.673,0l0,0.984l-0.594,0c-0.312,-0.011 -0.462,0.133 -0.448,0.428l0,0.684l1.042,0l0,0.793l-1.042,0l0,4.384l-1.043,0l0,-4.384Z" style="fill:#ec1c24;fill-rule:nonzero;"/><path d="M177.629,5.128c0,-0.369 -0.018,-0.638 -0.051,-0.808c-0.033,-0.163 -0.101,-0.305 -0.204,-0.428c-0.077,-0.117 -0.189,-0.208 -0.339,-0.275c-0.142,-0.07 -0.309,-0.104 -0.499,-0.104c-0.177,0 -0.339,0.034 -0.489,0.104c-0.143,0.067 -0.259,0.158 -0.349,0.275c-0.09,0.123 -0.155,0.265 -0.194,0.428c-0.04,0.17 -0.061,0.436 -0.061,0.798c0,0.36 0.021,0.622 0.061,0.788c0.039,0.17 0.104,0.32 0.194,0.45c0.09,0.099 0.206,0.187 0.349,0.263c0.15,0.073 0.312,0.111 0.489,0.111c0.19,0 0.357,-0.038 0.499,-0.111c0.15,-0.076 0.262,-0.164 0.339,-0.263c0.103,-0.13 0.171,-0.28 0.204,-0.45c0.033,-0.166 0.051,-0.425 0.051,-0.778m-3.228,-0.01c0,-0.545 0.045,-0.964 0.135,-1.257c0.093,-0.286 0.236,-0.527 0.429,-0.722c0.143,-0.173 0.343,-0.328 0.599,-0.464c0.253,-0.13 0.577,-0.198 0.972,-0.205c0.409,0.007 0.739,0.075 0.993,0.205c0.248,0.136 0.442,0.291 0.579,0.464c0.206,0.195 0.351,0.436 0.438,0.722c0.083,0.293 0.125,0.712 0.125,1.257c0,0.546 -0.042,0.961 -0.125,1.247c-0.087,0.286 -0.232,0.534 -0.438,0.743c-0.067,0.077 -0.149,0.152 -0.245,0.225c-0.087,0.083 -0.198,0.154 -0.334,0.214c-0.254,0.144 -0.584,0.218 -0.993,0.225c-0.395,-0.007 -0.719,-0.081 -0.972,-0.225c-0.256,-0.129 -0.456,-0.275 -0.599,-0.439c-0.193,-0.209 -0.336,-0.457 -0.429,-0.743c-0.09,-0.286 -0.135,-0.701 -0.135,-1.247" style="fill:#ec1c24;fill-rule:nonzero;"/><path d="M179.764,2.535l1.042,0l0,0.548l0.02,0c0.342,-0.408 0.792,-0.613 1.346,-0.613c0.416,0.006 0.779,0.139 1.088,0.399l-0.758,0.902c-0.22,-0.173 -0.447,-0.258 -0.683,-0.258c-0.266,0 -0.494,0.085 -0.684,0.258c-0.213,0.17 -0.322,0.445 -0.329,0.824l0,3.117l-1.042,0l0,-5.177Z" style="fill:#ec1c24;fill-rule:nonzero;"/><path d="M88.127,19.131c-0.226,0.26 -0.492,0.471 -0.798,0.634c-0.306,0.169 -0.66,0.257 -1.062,0.263c-0.612,0 -1.149,-0.207 -1.611,-0.623c-0.479,-0.416 -0.725,-1.088 -0.738,-2.02c0.013,-0.941 0.259,-1.622 0.738,-2.045c0.462,-0.415 0.999,-0.62 1.611,-0.613c0.402,0.007 0.756,0.09 1.062,0.25c0.306,0.162 0.572,0.38 0.798,0.653l-0.768,0.683c-0.263,-0.349 -0.613,-0.531 -1.052,-0.543c-0.885,-0.014 -1.334,0.525 -1.347,1.615c0.013,1.084 0.462,1.618 1.347,1.601c0.439,-0.006 0.789,-0.186 1.052,-0.539l0.768,0.684Z" style="fill:#ec1c24;fill-rule:nonzero;"/><path d="M91.568,17.774l-1.247,0c-0.605,0.013 -0.904,0.221 -0.898,0.623c0,0.177 0.079,0.326 0.235,0.449c0.149,0.136 0.397,0.204 0.743,0.204c0.436,0.007 0.743,-0.045 0.923,-0.154c0.162,-0.109 0.244,-0.359 0.244,-0.748l0,-0.374Zm0,1.735l-0.02,0c-0.096,0.177 -0.246,0.306 -0.449,0.389c-0.199,0.087 -0.475,0.13 -0.828,0.13c-0.578,-0.007 -1.024,-0.159 -1.336,-0.459c-0.33,-0.292 -0.494,-0.666 -0.494,-1.122c0,-0.436 0.143,-0.796 0.429,-1.082c0.285,-0.293 0.704,-0.443 1.257,-0.449l1.441,0l0,-0.543c0.007,-0.456 -0.348,-0.677 -1.062,-0.664c-0.26,0 -0.464,0.027 -0.614,0.08c-0.156,0.063 -0.279,0.17 -0.369,0.319l-0.818,-0.624c0.396,-0.519 0.979,-0.771 1.751,-0.758c0.652,-0.007 1.172,0.116 1.561,0.369c0.389,0.26 0.587,0.705 0.593,1.337l0,3.536l-1.042,0l0,-0.459Z" style="fill:#ec1c24;fill-rule:nonzero;"/><path d="M93.957,14.792l1.043,0l0,0.548l0.019,0c0.342,-0.408 0.792,-0.613 1.347,-0.613c0.415,0.006 0.779,0.139 1.087,0.399l-0.758,0.902c-0.219,-0.173 -0.447,-0.258 -0.683,-0.258c-0.266,0 -0.494,0.085 -0.684,0.258c-0.213,0.17 -0.322,0.445 -0.328,0.824l0,3.117l-1.043,0l0,-5.177Z" style="fill:#ec1c24;fill-rule:nonzero;"/><path d="M99.822,15.769c-0.246,0 -0.434,0.041 -0.563,0.124c-0.144,0.09 -0.248,0.213 -0.314,0.369c-0.064,0.156 -0.105,0.326 -0.125,0.509c-0.02,0.196 -0.03,0.397 -0.03,0.603c0,0.197 0.01,0.388 0.03,0.575c0.02,0.195 0.061,0.372 0.125,0.528c0.066,0.149 0.17,0.272 0.314,0.369c0.129,0.093 0.317,0.14 0.563,0.14c0.246,0 0.441,-0.05 0.584,-0.15c0.143,-0.096 0.24,-0.222 0.294,-0.379c0.066,-0.157 0.111,-0.331 0.135,-0.524c0.007,-0.189 0.009,-0.376 0.009,-0.559c0,-0.199 -0.002,-0.39 -0.009,-0.573c-0.024,-0.182 -0.069,-0.352 -0.135,-0.509c-0.054,-0.156 -0.151,-0.283 -0.294,-0.378c-0.143,-0.097 -0.338,-0.145 -0.584,-0.145m1.022,3.655c-0.342,0.39 -0.79,0.591 -1.34,0.604c-0.314,-0.007 -0.581,-0.072 -0.804,-0.195c-0.233,-0.119 -0.427,-0.279 -0.583,-0.478c-0.144,-0.163 -0.238,-0.384 -0.285,-0.663c-0.057,-0.267 -0.084,-0.705 -0.084,-1.318c0,-0.622 0.027,-1.063 0.084,-1.326c0.047,-0.266 0.141,-0.48 0.285,-0.643c0.292,-0.436 0.754,-0.662 1.387,-0.679c0.265,0 0.511,0.055 0.737,0.165c0.21,0.116 0.411,0.266 0.603,0.448l0.001,-2.643l1.041,0l0,7.272l-1.041,0l-0.001,-0.544Z" style="fill:#ec1c24;fill-rule:nonzero;"/><path d="M103.079,14.792l1.042,0l0,5.177l-1.042,0l0,-5.177Zm0,-2.096l1.042,0l0,1.043l-1.042,0l0,-1.043Z" style="fill:#ec1c24;fill-rule:nonzero;"/><path d="M108.471,17.385c0,-0.369 -0.017,-0.638 -0.05,-0.808c-0.033,-0.163 -0.101,-0.305 -0.204,-0.428c-0.077,-0.117 -0.189,-0.208 -0.34,-0.275c-0.142,-0.07 -0.308,-0.104 -0.498,-0.104c-0.177,0 -0.34,0.034 -0.489,0.104c-0.144,0.067 -0.259,0.158 -0.349,0.275c-0.09,0.123 -0.155,0.265 -0.195,0.428c-0.039,0.17 -0.06,0.436 -0.06,0.798c0,0.36 0.021,0.622 0.06,0.788c0.04,0.17 0.105,0.32 0.195,0.45c0.09,0.099 0.205,0.187 0.349,0.263c0.149,0.073 0.312,0.111 0.489,0.111c0.19,0 0.356,-0.038 0.498,-0.111c0.151,-0.076 0.263,-0.164 0.34,-0.263c0.103,-0.13 0.171,-0.28 0.204,-0.45c0.033,-0.166 0.05,-0.425 0.05,-0.778m-3.227,-0.01c0,-0.545 0.045,-0.964 0.135,-1.257c0.092,-0.286 0.236,-0.527 0.428,-0.722c0.143,-0.173 0.344,-0.328 0.6,-0.464c0.252,-0.13 0.576,-0.198 0.972,-0.205c0.408,0.007 0.739,0.075 0.992,0.205c0.249,0.136 0.442,0.291 0.579,0.464c0.207,0.195 0.352,0.436 0.439,0.722c0.083,0.293 0.125,0.712 0.125,1.257c0,0.546 -0.042,0.961 -0.125,1.247c-0.087,0.286 -0.232,0.534 -0.439,0.743c-0.067,0.077 -0.148,0.152 -0.245,0.225c-0.086,0.083 -0.197,0.154 -0.334,0.214c-0.253,0.144 -0.584,0.218 -0.992,0.225c-0.396,-0.007 -0.72,-0.081 -0.972,-0.225c-0.256,-0.129 -0.457,-0.275 -0.6,-0.439c-0.192,-0.209 -0.336,-0.457 -0.428,-0.743c-0.09,-0.286 -0.135,-0.701 -0.135,-1.247" style="fill:#ec1c24;fill-rule:nonzero;"/><path d="M109.872,14.792l1.103,0l1.216,3.626l0.02,0l1.213,-3.626l1.107,0l-1.9,5.177l-0.859,0l-1.9,-5.177Z" style="fill:#ec1c24;fill-rule:nonzero;"/><path d="M117.858,17.774l-1.247,0c-0.605,0.013 -0.904,0.221 -0.898,0.623c0,0.177 0.079,0.326 0.235,0.449c0.149,0.136 0.396,0.204 0.743,0.204c0.436,0.007 0.743,-0.045 0.923,-0.154c0.162,-0.109 0.244,-0.359 0.244,-0.748l0,-0.374Zm0,1.735l-0.02,0c-0.096,0.177 -0.246,0.306 -0.449,0.389c-0.199,0.087 -0.475,0.13 -0.828,0.13c-0.578,-0.007 -1.023,-0.159 -1.336,-0.459c-0.33,-0.292 -0.494,-0.666 -0.494,-1.122c0,-0.436 0.143,-0.796 0.429,-1.082c0.286,-0.293 0.704,-0.443 1.257,-0.449l1.441,0l0,-0.543c0.007,-0.456 -0.348,-0.677 -1.062,-0.664c-0.26,0 -0.464,0.027 -0.614,0.08c-0.156,0.063 -0.279,0.17 -0.369,0.319l-0.818,-0.624c0.396,-0.519 0.979,-0.771 1.751,-0.758c0.651,-0.007 1.173,0.116 1.561,0.369c0.389,0.26 0.586,0.705 0.594,1.337l0,3.536l-1.043,0l0,-0.459Z" style="fill:#ec1c24;fill-rule:nonzero;"/><path d="M122.037,19.051c0.299,0 0.543,-0.058 0.733,-0.175c0.19,-0.116 0.285,-0.279 0.285,-0.488c0,-0.187 -0.057,-0.316 -0.17,-0.389c-0.117,-0.077 -0.272,-0.118 -0.463,-0.125l-0.918,-0.08c-0.436,-0.04 -0.79,-0.185 -1.063,-0.438c-0.279,-0.246 -0.423,-0.591 -0.429,-1.033c0.006,-0.532 0.195,-0.931 0.564,-1.197c0.359,-0.266 0.815,-0.399 1.366,-0.399c0.24,0 0.454,0.014 0.644,0.045c0.189,0.033 0.367,0.08 0.533,0.139c0.319,0.13 0.605,0.305 0.858,0.524l-0.643,0.754c-0.199,-0.144 -0.41,-0.262 -0.633,-0.355c-0.221,-0.083 -0.473,-0.125 -0.759,-0.125c-0.325,0 -0.553,0.059 -0.682,0.175c-0.137,0.116 -0.205,0.267 -0.205,0.449c-0.007,0.116 0.045,0.218 0.154,0.304c0.099,0.097 0.276,0.158 0.529,0.185l0.858,0.065c0.539,0.04 0.927,0.202 1.167,0.488c0.223,0.28 0.335,0.634 0.335,1.063c-0.008,0.502 -0.212,0.889 -0.615,1.162c-0.399,0.279 -0.909,0.422 -1.531,0.429c-0.845,0 -1.604,-0.309 -2.279,-0.928l0.728,-0.713c0.422,0.442 0.968,0.663 1.636,0.663" style="fill:#ec1c24;fill-rule:nonzero;"/><path d="M128.96,19.131c-0.226,0.26 -0.492,0.471 -0.798,0.634c-0.306,0.169 -0.66,0.257 -1.062,0.263c-0.612,0 -1.149,-0.207 -1.612,-0.623c-0.478,-0.416 -0.724,-1.088 -0.738,-2.02c0.014,-0.941 0.26,-1.622 0.738,-2.045c0.463,-0.415 1,-0.62 1.612,-0.613c0.402,0.007 0.756,0.09 1.062,0.25c0.306,0.162 0.572,0.38 0.798,0.653l-0.769,0.683c-0.261,-0.349 -0.613,-0.531 -1.051,-0.543c-0.885,-0.014 -1.333,0.525 -1.347,1.615c0.014,1.084 0.462,1.618 1.347,1.601c0.438,-0.006 0.79,-0.186 1.051,-0.539l0.769,0.684Z" style="fill:#ec1c24;fill-rule:nonzero;"/><path d="M129.684,14.792l1.042,0l0,3.082c0,0.349 0.099,0.622 0.294,0.818c0.193,0.196 0.439,0.294 0.738,0.294c0.299,0 0.544,-0.098 0.734,-0.294c0.192,-0.196 0.289,-0.469 0.289,-0.818l0,-3.082l1.042,0l0,5.177l-1.042,0l0,-0.554l-0.021,0c-0.342,0.409 -0.789,0.613 -1.341,0.613c-0.428,-0.007 -0.816,-0.162 -1.162,-0.468c-0.376,-0.299 -0.567,-0.742 -0.573,-1.327l0,-3.441Z" style="fill:#ec1c24;fill-rule:nonzero;"/><path d="M135.17,12.696l1.042,0l0,5.936c0,0.236 0.13,0.354 0.39,0.354l0.358,0l0,0.982l-0.464,0c-0.379,0 -0.691,-0.094 -0.937,-0.284c-0.26,-0.193 -0.389,-0.517 -0.389,-0.972l0,-6.016Z" style="fill:#ec1c24;fill-rule:nonzero;"/><path d="M140.522,17.774l-1.248,0c-0.605,0.013 -0.904,0.221 -0.897,0.623c0,0.177 0.079,0.326 0.235,0.449c0.148,0.136 0.396,0.204 0.742,0.204c0.436,0.007 0.744,-0.045 0.924,-0.154c0.162,-0.109 0.244,-0.359 0.244,-0.748l0,-0.374Zm0,1.735l-0.021,0c-0.096,0.177 -0.246,0.306 -0.448,0.389c-0.2,0.087 -0.476,0.13 -0.828,0.13c-0.579,-0.007 -1.024,-0.159 -1.337,-0.459c-0.329,-0.292 -0.494,-0.666 -0.494,-1.122c0,-0.436 0.144,-0.796 0.429,-1.082c0.286,-0.293 0.705,-0.443 1.258,-0.449l1.441,0l0,-0.543c0.006,-0.456 -0.348,-0.677 -1.062,-0.664c-0.26,0 -0.465,0.027 -0.614,0.08c-0.156,0.063 -0.279,0.17 -0.369,0.319l-0.818,-0.624c0.395,-0.519 0.978,-0.771 1.75,-0.758c0.652,-0.007 1.173,0.116 1.561,0.369c0.39,0.26 0.587,0.705 0.594,1.337l0,3.536l-1.042,0l0,-0.459Z" style="fill:#ec1c24;fill-rule:nonzero;"/><path d="M142.91,14.792l1.043,0l0,0.548l0.019,0c0.342,-0.408 0.792,-0.613 1.347,-0.613c0.415,0.006 0.779,0.139 1.087,0.399l-0.758,0.902c-0.219,-0.173 -0.447,-0.258 -0.683,-0.258c-0.266,0 -0.494,0.085 -0.684,0.258c-0.213,0.17 -0.322,0.445 -0.328,0.824l0,3.117l-1.043,0l0,-5.177Z" style="fill:#ec1c24;fill-rule:nonzero;"/><path d="M149.334,12.696l1.043,0l0,2.644l0.019,0c0.342,-0.409 0.792,-0.614 1.347,-0.614c0.429,0 0.821,0.152 1.177,0.454c0.352,0.306 0.537,0.755 0.554,1.347l0,3.441l-1.042,0l0,-3.082c0,-0.362 -0.097,-0.638 -0.289,-0.828c-0.19,-0.193 -0.435,-0.289 -0.735,-0.289c-0.299,0 -0.545,0.096 -0.737,0.289c-0.196,0.19 -0.294,0.466 -0.294,0.828l0,3.082l-1.043,0l0,-7.272Z" style="fill:#ec1c24;fill-rule:nonzero;"/><path d="M157.793,16.916c-0.014,-0.402 -0.121,-0.706 -0.324,-0.912c-0.199,-0.196 -0.455,-0.295 -0.768,-0.295c-0.312,0 -0.569,0.099 -0.768,0.295c-0.197,0.206 -0.304,0.51 -0.325,0.912l2.185,0Zm-2.185,0.858c0,0.415 0.121,0.732 0.359,0.948c0.223,0.219 0.515,0.329 0.879,0.329c0.422,0 0.799,-0.168 1.132,-0.504l0.752,0.643c-0.528,0.566 -1.15,0.845 -1.865,0.838c-0.272,0 -0.539,-0.04 -0.798,-0.119c-0.129,-0.043 -0.256,-0.101 -0.379,-0.175c-0.129,-0.063 -0.25,-0.141 -0.364,-0.234c-0.219,-0.193 -0.397,-0.462 -0.533,-0.808c-0.15,-0.333 -0.225,-0.765 -0.225,-1.297c0,-0.512 0.065,-0.938 0.194,-1.277c0.131,-0.346 0.297,-0.618 0.5,-0.818c0.205,-0.202 0.436,-0.349 0.693,-0.439c0.252,-0.09 0.502,-0.134 0.748,-0.134c0.592,0.006 1.092,0.201 1.501,0.584c0.415,0.388 0.626,0.923 0.634,1.605l0,0.858l-3.228,0Z" style="fill:#ec1c24;fill-rule:nonzero;"/><path d="M162.647,17.774l-1.248,0c-0.605,0.013 -0.904,0.221 -0.897,0.623c0,0.177 0.079,0.326 0.235,0.449c0.148,0.136 0.396,0.204 0.742,0.204c0.436,0.007 0.744,-0.045 0.924,-0.154c0.162,-0.109 0.244,-0.359 0.244,-0.748l0,-0.374Zm0,1.735l-0.021,0c-0.096,0.177 -0.246,0.306 -0.448,0.389c-0.2,0.087 -0.476,0.13 -0.828,0.13c-0.579,-0.007 -1.024,-0.159 -1.337,-0.459c-0.329,-0.292 -0.494,-0.666 -0.494,-1.122c0,-0.436 0.144,-0.796 0.429,-1.082c0.286,-0.293 0.705,-0.443 1.258,-0.449l1.441,0l0,-0.543c0.006,-0.456 -0.348,-0.677 -1.062,-0.664c-0.26,0 -0.465,0.027 -0.614,0.08c-0.156,0.063 -0.279,0.17 -0.369,0.319l-0.818,-0.624c0.395,-0.519 0.978,-0.771 1.75,-0.758c0.652,-0.007 1.173,0.116 1.561,0.369c0.39,0.26 0.587,0.705 0.594,1.337l0,3.536l-1.042,0l0,-0.459Z" style="fill:#ec1c24;fill-rule:nonzero;"/><path d="M165.035,12.696l1.043,0l0,5.936c0,0.236 0.129,0.354 0.389,0.354l0.359,0l0,0.982l-0.465,0c-0.379,0 -0.691,-0.094 -0.937,-0.284c-0.259,-0.193 -0.389,-0.517 -0.389,-0.972l0,-6.016Z" style="fill:#ec1c24;fill-rule:nonzero;"/><path d="M167.729,13.216l1.042,0l0,1.576l0.759,0l0,0.793l-0.759,0l0,3.018c-0.007,0.262 0.116,0.39 0.369,0.384l0.39,0l0,0.982l-0.544,0c-0.366,0 -0.665,-0.113 -0.898,-0.339c-0.24,-0.217 -0.359,-0.529 -0.359,-0.937l0,-3.108l-0.52,0l0,-0.793l0.52,0l0,-1.576Z" style="fill:#ec1c24;fill-rule:nonzero;"/><path d="M170.506,12.696l1.043,0l0,2.644l0.019,0c0.343,-0.409 0.792,-0.614 1.348,-0.614c0.428,0 0.82,0.152 1.176,0.454c0.353,0.306 0.537,0.755 0.555,1.347l0,3.441l-1.043,0l0,-3.082c0,-0.362 -0.096,-0.638 -0.289,-0.828c-0.19,-0.193 -0.434,-0.289 -0.734,-0.289c-0.3,0 -0.546,0.096 -0.737,0.289c-0.197,0.19 -0.295,0.466 -0.295,0.828l0,3.082l-1.043,0l0,-7.272Z" style="fill:#ec1c24;fill-rule:nonzero;"/></g></svg>