<?xml version="1.0" encoding="UTF-8" standalone="no"?><!DOCTYPE svg PUBLIC "-//W3C//DTD SVG 1.1//EN" "http://www.w3.org/Graphics/SVG/1.1/DTD/svg11.dtd"><svg width="432px" height="195px" version="1.1" xmlns="http://www.w3.org/2000/svg" xmlns:xlink="http://www.w3.org/1999/xlink" xml:space="preserve" xmlns:serif="http://www.serif.com/" style="fill-rule:evenodd;clip-rule:evenodd;stroke-linejoin:round;stroke-miterlimit:1.41421;"><rect id="Artboard1" x="0" y="0" width="432" height="194.017" style="fill:none;"/><g id="Layer-1" serif:id="Layer 1"><path d="M159.668,67.197l3.37,0c4.592,0 8.428,-3.487 8.428,-11.683c0,-7.672 -3.371,-11.392 -8.137,-11.392l-2.558,0c-0.872,0 -1.104,0.233 -1.104,1.162l0,21.913Zm0,1.104l0,10.462c0,0.931 0,1.221 0.64,1.628l6.452,3.371l0,0.117l-20.285,0l0,-0.117l4.475,-3.138c0.582,-0.407 0.638,-0.581 0.638,-1.28l0,-31.793c0,-0.697 -0.056,-0.872 -0.638,-1.278l-4.475,-3.139l0,-0.116l18.714,0c8.081,0 14.881,3.371 14.881,12.38c0,8.544 -6.917,12.903 -15.984,12.903l-4.417,0Z" style="fill:#2d2d35;fill-rule:nonzero;"/><path d="M193.666,79.519c0,0.639 0.059,0.93 0.814,1.337l5.986,2.906l0,0.116l-18.134,0l0,-0.116l3.429,-2.499c0.524,-0.407 0.582,-0.64 0.582,-1.279l0,-20.227c0,-0.756 -0.058,-0.93 -0.582,-1.337l-3.429,-2.906l0,-0.116l11.334,0l0,8.195c0.872,-4.069 3.662,-8.66 8.428,-8.66c1.395,0 2.5,0.465 3.371,1.22l-3.08,8.835l-0.116,0l-3.663,-5.987c-0.232,-0.29 -0.464,-0.29 -0.755,-0.174c-2.092,0.93 -3.08,3.197 -4.185,5.406l0,15.286Z" style="fill:#2d2d35;fill-rule:nonzero;"/><path d="M213.602,66.674l10.404,0c0.057,-0.465 0.057,-0.872 0.057,-1.104c0,-6.626 -1.569,-9.707 -4.765,-9.707c-3.43,0 -5.406,3.662 -5.696,10.811m0,1.046l0,0.93c0,7.731 3.719,11.45 8.37,11.45c3.719,0 7.032,-1.743 9.009,-6.335l0.116,0c-1.337,7.149 -5.58,10.578 -11.974,10.578c-6.742,0 -13.02,-4.417 -13.02,-14.472c0,-10.927 6.801,-14.938 13.311,-14.938c5.87,0 11.741,3.08 11.741,11.334c0,0.523 -0.058,0.988 -0.117,1.453l-17.436,0Z" style="fill:#2d2d35;fill-rule:nonzero;"/><path d="M247.659,83.879l-4.417,0l-8.544,-23.308c-0.349,-1.046 -0.523,-1.453 -1.047,-2.266l-1.802,-2.79l0,-0.116l12.961,0l0,0.116l-2.382,2.906c-0.408,0.523 -0.464,0.697 -0.232,1.453l6.451,17.96l5.348,-15.054c0.348,-0.93 0.174,-1.22 -0.29,-1.976l-3.372,-5.289l0,-0.116l9.474,0l0,0.116l-3.661,5.231c-0.64,0.872 -0.756,1.162 -1.106,2.15l-7.381,20.983Z" style="fill:#2d2d35;fill-rule:nonzero;"/><path d="M266.898,66.674l10.402,0c0.059,-0.465 0.059,-0.872 0.059,-1.104c0,-6.626 -1.569,-9.707 -4.767,-9.707c-3.428,0 -5.405,3.662 -5.695,10.811m0,1.046l0,0.93c0,7.731 3.72,11.45 8.369,11.45c3.72,0 7.033,-1.743 9.01,-6.335l0.116,0c-1.337,7.149 -5.58,10.578 -11.974,10.578c-6.742,0 -13.02,-4.417 -13.02,-14.472c0,-10.927 6.802,-14.938 13.311,-14.938c5.871,0 11.742,3.08 11.742,11.334c0,0.523 -0.059,0.988 -0.117,1.453l-17.437,0Z" style="fill:#2d2d35;fill-rule:nonzero;"/><path d="M303.28,58.944c-2.383,0 -4.068,1.453 -5.288,3.545l0,17.496c0,0.639 0.059,0.813 0.639,1.278l3.429,2.5l0,0.116l-15.402,0l0,-0.116l3.429,-2.5c0.523,-0.406 0.581,-0.639 0.581,-1.278l0,-20.227c0,-0.756 -0.058,-0.93 -0.581,-1.337l-3.429,-2.906l0,-0.116l11.334,0l0,6.626c1.394,-4.65 4.417,-7.091 8.892,-7.091c5.464,0 8.486,3.836 8.486,11.857c0,3.196 -0.058,8.544 -0.116,13.194c0,0.697 0.116,0.872 0.64,1.278l3.429,2.5l0,0.116l-15.403,0l0,-0.116l3.256,-2.5c0.58,-0.406 0.697,-0.697 0.697,-1.22c0,-0.64 0.175,-9.068 0.175,-11.625c0,-6.277 -1.222,-9.474 -4.768,-9.474" style="fill:#2d2d35;fill-rule:nonzero;"/><path d="M330.479,76.497c0,2.616 1.163,4.127 3.197,4.127c1.861,0 3.371,-1.337 4.01,-2.848l0.118,0.058c-0.582,3.313 -2.849,6.51 -7.846,6.51c-4.418,0 -6.803,-2.384 -6.803,-7.208l0,-20.692l-3.661,0l0,-1.046l2.964,0c0.815,0 1.048,-0.116 1.57,-0.755l6.337,-8.835l0.115,0l0,9.59l7.731,0l0,1.046l-7.731,0l0,20.053Z" style="fill:#2d2d35;fill-rule:nonzero;"/><path d="M146.532,139.846l0,-0.116l4.999,-2.732c0.639,-0.348 0.755,-0.523 0.755,-1.162l0,-32.84c0,-0.639 -0.116,-0.813 -0.755,-1.162l-4.999,-2.732l0,-0.116l29.759,0l0,12.554l-0.116,0l-4.883,-10.462c-0.465,-0.93 -0.871,-1.046 -1.685,-1.046l-10.346,0c-0.756,0 -0.93,0.232 -0.93,1.336l0,17.089l7.149,0c0.756,-0.058 1.046,-0.232 1.628,-1.104l3.719,-5.173l0.116,0l0,13.601l-0.116,0l-3.719,-5.232c-0.582,-0.813 -0.872,-1.046 -1.686,-1.046l-7.091,0l0,17.96c0,1.105 0.174,1.337 0.93,1.337l10.346,0c1.162,0 1.569,-0.116 1.976,-0.756l5.173,-10.578l0.116,0l0,12.38l-30.34,0Z" style="fill:#2d2d35;fill-rule:nonzero;"/><path d="M190.237,118.573l0,16.682c1.337,1.743 3.197,2.731 5.638,2.731c4.591,0 7.091,-4.475 7.091,-12.729c0,-6.626 -2.5,-11.276 -6.51,-11.276c-2.499,0 -4.765,1.918 -6.219,4.592m-5.521,-2.674c0,-0.756 -0.059,-0.93 -0.64,-1.337l-3.952,-2.906l0,-0.116l10.113,0l0,6.393c2.034,-4.824 4.708,-6.858 8.718,-6.858c6.336,0 9.94,5.754 9.94,13.833c0,9.475 -4.475,15.403 -10.985,15.403c-4.185,0 -6.395,-1.918 -7.673,-4.534l0,13.368c0,0.699 0.116,0.872 0.814,1.221l5.231,2.616l0,0.115l-16.158,0l0,-0.115l3.952,-2.325c0.64,-0.35 0.64,-0.64 0.64,-1.279l0,-33.479Z" style="fill:#2d2d35;fill-rule:nonzero;"/><path d="M215.17,103.751c0,-1.976 1.511,-3.545 3.429,-3.545c1.977,0 3.488,1.569 3.488,3.545c0,1.86 -1.511,3.43 -3.488,3.43c-1.918,0 -3.429,-1.57 -3.429,-3.43m6.626,7.789l0,24.586c0,0.64 0,0.813 0.698,1.221l3.894,2.383l0,0.116l-14.705,0l0,-0.116l3.952,-2.326c0.639,-0.347 0.639,-0.638 0.639,-1.278l0,-20.227c0,-0.755 -0.058,-0.929 -0.639,-1.336l-3.952,-2.907l0,-0.116l10.113,0Z" style="fill:#2d2d35;fill-rule:nonzero;"/><path d="M247.254,133.453l0,-16.508c-1.57,-2.266 -3.431,-3.545 -5.697,-3.545c-3.895,0 -7.09,3.778 -7.09,11.915c0,8.486 3.429,12.148 7.032,12.148c2.034,0 3.895,-1.221 5.755,-4.01m5.521,2.092c0,0.756 0.058,0.872 0.64,1.278l3.951,2.906l0,0.117l-10.112,0l0,-5.987c-1.628,4.592 -4.941,6.452 -8.37,6.452c-6.103,0 -10.347,-5.928 -10.347,-14.356c0,-9.184 5.057,-14.88 11.218,-14.88c4.127,0 6.336,2.499 7.499,5.348l0,-13.659c0,-0.756 -0.059,-0.989 -0.641,-1.337l-3.952,-2.326l0,-0.116l10.114,-1.162l0,37.722Z" style="fill:#2d2d35;fill-rule:nonzero;"/><path d="M264.63,122.293l11.975,0l0,-0.116c0,-6.452 -1.512,-10.23 -5.348,-10.23c-3.894,0 -6.161,4.069 -6.627,10.346m-0.057,0.988l0,1.627c0,7.847 3.661,12.09 8.427,12.09c4.011,0 7.15,-1.976 9.242,-7.149l0.117,0.058c-1.222,6.975 -5.232,10.405 -11.276,10.405c-6.336,0 -12.09,-4.36 -12.09,-14.357c0,-11.044 6.741,-14.88 12.322,-14.88c5.579,0 10.927,3.314 10.927,10.695c0,0.523 -0.058,1.045 -0.117,1.511l-17.552,0Z" style="fill:#2d2d35;fill-rule:nonzero;"/><path d="M311.534,136.126c0,0.697 0.059,0.931 0.697,1.278l3.953,2.326l0,0.116l-14.705,0l0,-0.116l3.72,-2.326c0.64,-0.406 0.756,-0.755 0.756,-1.162c0,-0.406 0.174,-9.299 0.174,-11.682c0,-7.091 -1.571,-10.114 -4.998,-10.114c-2.675,0 -4.768,1.744 -6.104,4.301l0,17.379c0,0.64 0,0.813 0.697,1.221l3.895,2.383l0,0.116l-14.705,0l0,-0.116l3.952,-2.326c0.639,-0.347 0.639,-0.638 0.639,-1.278l0,-20.227c0,-0.755 -0.057,-0.929 -0.639,-1.336l-3.952,-2.907l0,-0.116l10.113,0l0,6.858c1.395,-5.056 4.417,-7.323 8.602,-7.323c4.011,0 6.684,2.267 7.614,7.207c1.337,-4.649 4.649,-7.207 9.068,-7.207c4.94,0 7.905,3.604 7.905,11.625c0,3.429 -0.058,8.777 -0.117,13.426c0,0.697 0.059,0.931 0.698,1.278l3.953,2.326l0,0.116l-14.706,0l0,-0.116l3.72,-2.326c0.638,-0.406 0.755,-0.755 0.755,-1.162c0,-0.465 0.175,-9.241 0.175,-11.566c0,-7.032 -1.453,-10.23 -5.057,-10.23c-2.616,0 -4.708,1.453 -6.335,4.127c0.232,1.22 0.348,2.615 0.348,4.127c0,2.848 -0.057,8.777 -0.116,13.426" style="fill:#2d2d35;fill-rule:nonzero;"/><path d="M337.454,103.751c0,-1.976 1.511,-3.545 3.43,-3.545c1.975,0 3.487,1.569 3.487,3.545c0,1.86 -1.512,3.43 -3.487,3.43c-1.919,0 -3.43,-1.57 -3.43,-3.43m6.627,7.789l0,24.586c0,0.64 0,0.813 0.696,1.221l3.895,2.383l0,0.116l-14.705,0l0,-0.116l3.953,-2.326c0.638,-0.347 0.638,-0.638 0.638,-1.278l0,-20.227c0,-0.755 -0.057,-0.929 -0.638,-1.336l-3.953,-2.907l0,-0.116l10.114,0Z" style="fill:#2d2d35;fill-rule:nonzero;"/><path d="M350.647,125.955c0,-10.812 6.858,-14.88 13.601,-14.88c2.149,0 5.113,0.406 8.426,1.627l-2.731,8.428l-0.115,0l-3.43,-8.369c-0.233,-0.524 -0.349,-0.64 -0.697,-0.698c-0.523,-0.116 -1.105,-0.116 -1.222,-0.116c-5.404,0 -8.195,4.533 -8.195,12.264c0,9.125 3.837,12.787 8.428,12.787c3.313,0 6.22,-1.86 8.196,-6.568l0.116,0c-1.106,5.754 -4.36,9.881 -10.579,9.881c-5.93,0 -11.798,-4.243 -11.798,-14.356" style="fill:#2d2d35;fill-rule:nonzero;"/><path d="M385.577,128.454l-3.604,-1.628c-3.081,-1.394 -5.463,-3.777 -5.463,-7.614c0,-5.173 4.824,-8.137 9.648,-8.137c3.022,0 5.929,0.406 8.776,1.453l-2.21,7.382l-0.115,0l-3.719,-7.092c-0.349,-0.638 -0.408,-0.697 -1.279,-0.813c-0.523,-0.058 -1.046,-0.058 -1.512,-0.058c-2.731,0 -5.172,1.802 -5.172,5.114c0,2.849 2.034,4.011 4.475,5.057l3.895,1.686c3.427,1.453 6.625,3.371 6.625,7.73c0,5.87 -5.347,8.777 -10.986,8.777c-2.79,0 -6.335,-0.697 -9.125,-1.744l2.442,-8.079l0.117,0l3.254,8.021c0.232,0.523 0.291,0.582 1.104,0.756c0.698,0.116 1.396,0.173 2.326,0.173c4.009,0 5.928,-2.672 5.928,-5.404c0,-3.197 -2.557,-4.302 -5.405,-5.58" style="fill:#2d2d35;fill-rule:nonzero;"/><path d="M55.175,121.983c-0.485,-1.333 -1.958,-2.021 -3.292,-1.535c-1.333,0.485 -2.02,1.959 -1.535,3.292c0.486,1.333 1.959,2.019 3.292,1.535c1.333,-0.485 2.02,-1.959 1.535,-3.292" style="fill:#f06b30;fill-rule:nonzero;"/><path d="M52.06,135.86c-1.066,0.388 -1.616,1.567 -1.228,2.634c0.388,1.065 1.567,1.615 2.633,1.227c1.067,-0.387 1.616,-1.567 1.228,-2.633c-0.388,-1.066 -1.567,-1.616 -2.633,-1.228" style="fill:#f06b30;fill-rule:nonzero;"/><path d="M70.788,106.878c-0.583,-1.599 -2.351,-2.424 -3.95,-1.842c-1.6,0.582 -2.424,2.351 -1.842,3.95c0.582,1.6 2.351,2.424 3.95,1.842c1.599,-0.582 2.424,-2.35 1.842,-3.95" style="fill:#f7902a;fill-rule:nonzero;"/><path d="M70.305,121.983c-0.485,-1.333 -1.959,-2.021 -3.292,-1.535c-1.333,0.485 -2.02,1.959 -1.535,3.292c0.486,1.333 1.959,2.019 3.292,1.535c1.333,-0.485 2.02,-1.959 1.535,-3.292" style="fill:#f7902a;fill-rule:nonzero;"/><path d="M67.19,135.86c-1.067,0.388 -1.617,1.567 -1.228,2.634c0.387,1.065 1.566,1.615 2.632,1.227c1.067,-0.387 1.616,-1.567 1.228,-2.633c-0.388,-1.066 -1.567,-1.616 -2.633,-1.228" style="fill:#f7902a;fill-rule:nonzero;"/><path d="M36.929,135.86c-1.066,0.388 -1.616,1.567 -1.228,2.634c0.388,1.065 1.567,1.615 2.633,1.227c1.067,-0.387 1.616,-1.567 1.228,-2.633c-0.388,-1.066 -1.567,-1.616 -2.633,-1.228" style="fill:#e7373e;fill-rule:nonzero;"/><path d="M86.4,91.773c-0.679,-1.866 -2.742,-2.828 -4.608,-2.149c-1.866,0.679 -2.829,2.742 -2.149,4.608c0.679,1.866 2.742,2.829 4.608,2.149c1.866,-0.679 2.828,-2.742 2.149,-4.608" style="fill:#fdbb23;fill-rule:nonzero;"/><path d="M85.918,106.878c-0.583,-1.599 -2.351,-2.424 -3.95,-1.842c-1.6,0.582 -2.425,2.351 -1.842,3.95c0.582,1.6 2.351,2.424 3.95,1.842c1.599,-0.582 2.424,-2.35 1.842,-3.95" style="fill:#fdbb23;fill-rule:nonzero;"/><path d="M85.435,121.983c-0.485,-1.333 -1.959,-2.021 -3.292,-1.535c-1.333,0.485 -2.02,1.959 -1.535,3.292c0.486,1.333 1.959,2.019 3.292,1.535c1.333,-0.485 2.02,-1.959 1.535,-3.292" style="fill:#fdbb23;fill-rule:nonzero;"/><path d="M82.319,135.86c-1.066,0.388 -1.616,1.567 -1.228,2.634c0.388,1.065 1.567,1.615 2.634,1.227c1.066,-0.387 1.615,-1.567 1.228,-2.633c-0.388,-1.066 -1.568,-1.616 -2.634,-1.228" style="fill:#fdbb23;fill-rule:nonzero;"/><path d="M102.013,76.668c-0.776,-2.132 -3.134,-3.232 -5.267,-2.456c-2.132,0.776 -3.232,3.134 -2.455,5.267c0.776,2.132 3.134,3.232 5.266,2.456c2.133,-0.776 3.232,-3.135 2.456,-5.267" style="fill:#cebb2f;fill-rule:nonzero;"/><path d="M101.53,91.773c-0.679,-1.866 -2.742,-2.828 -4.608,-2.149c-1.866,0.679 -2.829,2.742 -2.149,4.608c0.679,1.866 2.742,2.829 4.608,2.149c1.866,-0.679 2.828,-2.742 2.149,-4.608" style="fill:#cebb2f;fill-rule:nonzero;"/><path d="M101.047,106.878c-0.582,-1.599 -2.351,-2.424 -3.95,-1.842c-1.599,0.582 -2.424,2.351 -1.842,3.95c0.583,1.6 2.351,2.424 3.95,1.842c1.6,-0.582 2.425,-2.35 1.842,-3.95" style="fill:#cebb2f;fill-rule:nonzero;"/><path d="M100.565,121.983c-0.485,-1.333 -1.959,-2.021 -3.292,-1.535c-1.333,0.485 -2.02,1.959 -1.535,3.292c0.486,1.333 1.959,2.019 3.292,1.535c1.333,-0.485 2.02,-1.959 1.535,-3.292" style="fill:#cebb2f;fill-rule:nonzero;"/><path d="M97.449,135.86c-1.066,0.388 -1.616,1.567 -1.228,2.634c0.388,1.065 1.567,1.615 2.634,1.227c1.066,-0.387 1.615,-1.567 1.227,-2.633c-0.387,-1.066 -1.567,-1.616 -2.633,-1.228" style="fill:#cebb2f;fill-rule:nonzero;"/><path d="M117.625,61.563c-0.874,-2.399 -3.526,-3.636 -5.925,-2.763c-2.399,0.873 -3.636,3.526 -2.763,5.925c0.873,2.4 3.526,3.636 5.925,2.763c2.399,-0.873 3.636,-3.526 2.763,-5.925" style="fill:#85bc41;fill-rule:nonzero;"/><path d="M117.143,76.668c-0.776,-2.132 -3.134,-3.232 -5.267,-2.456c-2.132,0.776 -3.232,3.134 -2.456,5.267c0.777,2.132 3.135,3.232 5.267,2.456c2.133,-0.776 3.232,-3.135 2.456,-5.267" style="fill:#85bc41;fill-rule:nonzero;"/><path d="M116.66,91.773c-0.679,-1.866 -2.743,-2.828 -4.608,-2.149c-1.867,0.679 -2.829,2.742 -2.149,4.608c0.679,1.866 2.742,2.829 4.608,2.149c1.866,-0.679 2.828,-2.742 2.149,-4.608" style="fill:#85bc41;fill-rule:nonzero;"/><path d="M116.177,106.878c-0.582,-1.599 -2.351,-2.424 -3.95,-1.842c-1.599,0.582 -2.424,2.351 -1.842,3.95c0.583,1.6 2.351,2.424 3.95,1.842c1.6,-0.582 2.425,-2.35 1.842,-3.95" style="fill:#85bc41;fill-rule:nonzero;"/><path d="M115.695,121.983c-0.485,-1.333 -1.959,-2.021 -3.292,-1.535c-1.333,0.485 -2.02,1.959 -1.535,3.292c0.485,1.333 1.959,2.019 3.292,1.535c1.333,-0.485 2.02,-1.959 1.535,-3.292" style="fill:#85bc41;fill-rule:nonzero;"/><path d="M112.579,135.86c-1.066,0.388 -1.616,1.567 -1.228,2.634c0.388,1.065 1.567,1.615 2.633,1.227c1.067,-0.387 1.616,-1.567 1.228,-2.633c-0.387,-1.066 -1.567,-1.616 -2.633,-1.228" style="fill:#85bc41;fill-rule:nonzero;"/><path d="M133.238,46.458c-0.97,-2.666 -3.917,-4.04 -6.583,-3.07c-2.666,0.97 -4.041,3.918 -3.07,6.584c0.97,2.665 3.918,4.04 6.583,3.069c2.666,-0.97 4.04,-3.917 3.07,-6.583" style="fill:#41bd51;fill-rule:nonzero;"/><path d="M132.755,61.563c-0.874,-2.399 -3.526,-3.636 -5.925,-2.763c-2.399,0.873 -3.636,3.526 -2.763,5.925c0.873,2.4 3.526,3.636 5.925,2.763c2.399,-0.873 3.636,-3.526 2.763,-5.925" style="fill:#41bd51;fill-rule:nonzero;"/><path d="M132.272,76.668c-0.776,-2.132 -3.133,-3.232 -5.267,-2.456c-2.132,0.776 -3.232,3.134 -2.456,5.267c0.777,2.132 3.135,3.232 5.267,2.456c2.133,-0.776 3.232,-3.135 2.456,-5.267" style="fill:#41bd51;fill-rule:nonzero;"/><path d="M131.79,91.773c-0.679,-1.866 -2.743,-2.828 -4.608,-2.149c-1.867,0.679 -2.829,2.742 -2.149,4.608c0.679,1.866 2.742,2.829 4.608,2.149c1.866,-0.679 2.828,-2.742 2.149,-4.608" style="fill:#41bd51;fill-rule:nonzero;"/><path d="M131.307,106.878c-0.582,-1.599 -2.351,-2.424 -3.95,-1.842c-1.599,0.582 -2.424,2.351 -1.842,3.95c0.583,1.6 2.351,2.424 3.95,1.842c1.6,-0.582 2.424,-2.35 1.842,-3.95" style="fill:#41bd51;fill-rule:nonzero;"/><path d="M130.825,121.983c-0.485,-1.333 -1.959,-2.021 -3.292,-1.535c-1.333,0.485 -2.02,1.959 -1.535,3.292c0.485,1.333 1.959,2.019 3.292,1.535c1.333,-0.485 2.02,-1.959 1.535,-3.292" style="fill:#41bd51;fill-rule:nonzero;"/><path d="M127.709,135.86c-1.067,0.388 -1.617,1.567 -1.228,2.634c0.387,1.065 1.567,1.615 2.632,1.227c1.067,-0.387 1.617,-1.567 1.228,-2.633c-0.388,-1.066 -1.567,-1.616 -2.633,-1.228" style="fill:#41bd51;fill-rule:nonzero;"/></g></svg>